<?xml version="1.0" standalone="no"?>
<!DOCTYPE svg PUBLIC "-//W3C//DTD SVG 1.1//EN" "http://www.w3.org/Graphics/SVG/1.1/DTD/svg11.dtd" >
<svg xmlns="http://www.w3.org/2000/svg" xmlns:xlink="http://www.w3.org/1999/xlink" version="1.1">
<metadata>
Created by FontForge 20160407 at Thu Oct 27 20:28:00 2016
 By Jimmy Wärting
Copyright (c) 2012 by Emmanuel Rey, distributed by B&#38;P Foundry Sa`rl, Switzerland, d/b/a b+p swiss typefaces: http://www.swisstypefaces.com/. All rights reserved.
</metadata>
<defs>
<font id="SimplonBP-Medium" horiz-adv-x="558" >
  <font-face 
    font-family="SimplonBP"
    font-weight="500"
    font-stretch="normal"
    units-per-em="1000"
    panose-1="0 0 0 0 0 0 0 0 0 0"
    ascent="816"
    descent="-184"
    x-height="516"
    cap-height="700"
    bbox="-251 -268 1192 920"
    underline-thickness="0"
    underline-position="0"
    stemh="71"
    stemv="73"
    unicode-range="U+0020-FB06"
  />
<missing-glyph horiz-adv-x="500" 
d="M50 -184v884h400v-884h-400zM100 -134h300v784h-300v-784z" />
    <glyph glyph-name="fi" unicode="fi" horiz-adv-x="578" 
d="M327 599h-79c-41 0 -48 -11 -48 -49v-34h127v-99h-127v-417h-105v417h-73v99h73v61c0 81 37 123 123 123h109v-101zM509 700v-107h-105v107h105zM509 516v-516h-105v516h105z" />
    <glyph glyph-name="fl" unicode="fl" horiz-adv-x="607" 
d="M327 599h-79c-41 0 -48 -11 -48 -49v-34h127v-99h-127v-417h-105v417h-73v99h73v61c0 81 37 123 123 123h109v-101zM507 150v550h-105v-577c0 -81 37 -123 123 -123h46v101h-16c-41 0 -48 11 -48 49z" />
    <glyph glyph-name="f_b" unicode="fb" horiz-adv-x="889" 
d="M327 599h-79c-41 0 -48 -11 -48 -49v-34h127v-99h-127v-417h-105v417h-73v99h73v61c0 81 37 123 123 123h109v-101zM729 206v108c0 78 -45 114 -110 114s-110 -36 -110 -114v-108c0 -78 45 -114 110 -114s110 36 110 114zM834 316v-112c0 -159 -116 -214 -205 -214
c-54 0 -105 29 -120 59v-49h-105v700h105v-229c15 30 66 59 120 59c89 0 205 -55 205 -214z" />
    <glyph glyph-name="f_h" unicode="fh" horiz-adv-x="896" 
d="M327 599h-79c-41 0 -48 -11 -48 -49v-34h127v-99h-127v-417h-105v417h-73v99h73v61c0 81 37 123 123 123h109v-101zM509 314v-314h-105v700h105v-229c15 30 66 59 120 59c89 0 205 -55 205 -214v-316h-105v314c0 78 -45 114 -110 114s-110 -36 -110 -114z" />
    <glyph glyph-name="f_k" unicode="fk" horiz-adv-x="861" 
d="M327 599h-79c-41 0 -48 -11 -48 -49v-34h127v-99h-127v-417h-105v417h-73v99h73v61c0 81 37 123 123 123h109v-101zM509 700v-394l193 210h127l-186 -202l214 -314h-122l-162 238l-64 -70v-168h-105v700h105z" />
    <glyph glyph-name="f_j" unicode="fj" horiz-adv-x="578" 
d="M327 599h-79c-41 0 -48 -11 -48 -49v-34h127v-99h-127v-417h-105v417h-73v99h73v61c0 81 37 123 123 123h109v-101zM509 700v-107h-105v107h105zM404 -34v550h105v-577c0 -81 -37 -123 -123 -123h-46v101h16c41 0 48 11 48 49z" />
    <glyph glyph-name="f_t" unicode="ft" horiz-adv-x="694" 
d="M327 599h-79c-41 0 -48 -11 -48 -49v-34h127v-99h-127v-417h-105v417h-73v99h73v61c0 81 37 123 123 123h109v-101zM533 150v267h127v99h-127v117h-105v-117h-73v-99h73v-294c0 -81 37 -123 123 -123h109v101h-79c-41 0 -48 11 -48 49z" />
    <glyph glyph-name="f_f" unicode="ff" horiz-adv-x="670" 
d="M327 599h-79c-41 0 -48 -11 -48 -49v-34h127v-99h-127v-417h-105v417h-73v99h73v61c0 81 37 123 123 123h109v-101zM662 599h-79c-41 0 -48 -11 -48 -49v-34h127v-99h-127v-417h-105v417h-73v99h73v61c0 81 37 123 123 123h109v-101z" />
    <glyph glyph-name="f_f_l" unicode="ffl" horiz-adv-x="942" 
d="M327 599h-79c-41 0 -48 -11 -48 -49v-34h127v-99h-127v-417h-105v417h-73v99h73v61c0 81 37 123 123 123h109v-101zM662 599h-79c-41 0 -48 -11 -48 -49v-34h127v-99h-127v-417h-105v417h-73v99h73v61c0 81 37 123 123 123h109v-101zM842 150v550h-105v-577
c0 -81 37 -123 123 -123h46v101h-16c-41 0 -48 11 -48 49z" />
    <glyph glyph-name="f_f_i" unicode="ffi" horiz-adv-x="913" 
d="M327 599h-79c-41 0 -48 -11 -48 -49v-34h127v-99h-127v-417h-105v417h-73v99h73v61c0 81 37 123 123 123h109v-101zM662 599h-79c-41 0 -48 -11 -48 -49v-34h127v-99h-127v-417h-105v417h-73v99h73v61c0 81 37 123 123 123h109v-101zM844 700v-107h-105v107h105zM844 516
v-516h-105v516h105z" />
    <glyph glyph-name="f_f_j" unicode="ffj" horiz-adv-x="913" 
d="M327 599h-79c-41 0 -48 -11 -48 -49v-34h127v-99h-127v-417h-105v417h-73v99h73v61c0 81 37 123 123 123h109v-101zM662 599h-79c-41 0 -48 -11 -48 -49v-34h127v-99h-127v-417h-105v417h-73v99h73v61c0 81 37 123 123 123h109v-101zM844 700v-107h-105v107h105zM739 -34
v550h105v-577c0 -81 -37 -123 -123 -123h-46v101h16c41 0 48 11 48 49z" />
    <glyph glyph-name="f_f_k" unicode="ffk" horiz-adv-x="1196" 
d="M327 599h-79c-41 0 -48 -11 -48 -49v-34h127v-99h-127v-417h-105v417h-73v99h73v61c0 81 37 123 123 123h109v-101zM662 599h-79c-41 0 -48 -11 -48 -49v-34h127v-99h-127v-417h-105v417h-73v99h73v61c0 81 37 123 123 123h109v-101zM844 700v-394l193 210h127l-186 -202
l214 -314h-122l-162 238l-64 -70v-168h-105v700h105z" />
    <glyph glyph-name="f_f_t" unicode="fft" horiz-adv-x="1029" 
d="M327 599h-79c-41 0 -48 -11 -48 -49v-34h127v-99h-127v-417h-105v417h-73v99h73v61c0 81 37 123 123 123h109v-101zM662 599h-79c-41 0 -48 -11 -48 -49v-34h127v-99h-127v-417h-105v417h-73v99h73v61c0 81 37 123 123 123h109v-101zM868 150v267h127v99h-127v117h-105
v-117h-73v-99h73v-294c0 -81 37 -123 123 -123h109v101h-79c-41 0 -48 11 -48 49z" />
    <glyph glyph-name="f_f_b" unicode="ffb" horiz-adv-x="1224" 
d="M327 599h-79c-41 0 -48 -11 -48 -49v-34h127v-99h-127v-417h-105v417h-73v99h73v61c0 81 37 123 123 123h109v-101zM662 599h-79c-41 0 -48 -11 -48 -49v-34h127v-99h-127v-417h-105v417h-73v99h73v61c0 81 37 123 123 123h109v-101zM1064 206v108c0 78 -45 114 -110 114
s-110 -36 -110 -114v-108c0 -78 45 -114 110 -114s110 36 110 114zM1169 316v-112c0 -159 -116 -214 -205 -214c-54 0 -105 29 -120 59v-49h-105v700h105v-229c15 30 66 59 120 59c89 0 205 -55 205 -214z" />
    <glyph glyph-name="f_f_h" unicode="ffh" horiz-adv-x="1231" 
d="M327 599h-79c-41 0 -48 -11 -48 -49v-34h127v-99h-127v-417h-105v417h-73v99h73v61c0 81 37 123 123 123h109v-101zM662 599h-79c-41 0 -48 -11 -48 -49v-34h127v-99h-127v-417h-105v417h-73v99h73v61c0 81 37 123 123 123h109v-101zM844 314v-314h-105v700h105v-229
c15 30 66 59 120 59c89 0 205 -55 205 -214v-316h-105v314c0 78 -45 114 -110 114s-110 -36 -110 -114z" />
    <glyph glyph-name="s_p" unicode="sp" horiz-adv-x="1036" 
d="M253 -10c-119 0 -214 57 -220 175h108c8 -51 57 -74 113 -74c46 0 85 12 85 54c0 35 -31 46 -65 54l-98 25c-68 17 -131 55 -131 154c0 102 82 152 187 152c111 0 188 -50 198 -165h-110c-8 45 -47 64 -95 64c-32 0 -74 -12 -74 -53c0 -31 30 -41 58 -48l95 -24
c94 -24 141 -64 141 -162c-1 -102 -80 -152 -192 -152zM876 206v108c0 78 -45 114 -110 114s-110 -36 -110 -114v-108c0 -78 45 -114 110 -114s110 36 110 114zM981 316v-112c0 -159 -116 -214 -205 -214c-54 0 -105 29 -120 59v-233h-105v700h105v-45c15 30 66 59 120 59
c89 0 205 -55 205 -214z" />
    <glyph glyph-name="c_t" unicode="ct" horiz-adv-x="888" 
d="M484 176c-13 -147 -129 -186 -214 -186c-90 0 -215 44 -215 214v112c0 170 125 214 215 214c85 0 201 -39 214 -186h-107c-10 57 -51 85 -107 85c-65 0 -110 -37 -110 -115v-108c0 -78 45 -115 110 -115c56 0 98 28 108 85h106zM727 150v267h127v99h-127v117h-105v-117
h-73v-99h73v-294c0 -81 37 -123 123 -123h109v101h-79c-41 0 -48 11 -48 49z" />
    <glyph glyph-name="s_t" unicode="st" horiz-adv-x="841" 
d="M253 -10c-119 0 -214 57 -220 175h108c8 -51 57 -74 113 -74c46 0 85 12 85 54c0 35 -31 46 -65 54l-98 25c-68 17 -131 55 -131 154c0 102 82 152 187 152c111 0 188 -50 198 -165h-110c-8 45 -47 64 -95 64c-32 0 -74 -12 -74 -53c0 -31 30 -41 58 -48l95 -24
c94 -24 141 -64 141 -162c-1 -102 -80 -152 -192 -152zM680 150v267h127v99h-127v117h-105v-117h-73v-99h73v-294c0 -81 37 -123 123 -123h109v101h-79c-41 0 -48 11 -48 49z" />
    <glyph glyph-name="t_t" unicode="tt" horiz-adv-x="718" 
d="M198 150v267h127v99h-127v117h-105v-117h-73v-99h73v-294c0 -81 37 -123 123 -123h109v101h-79c-41 0 -48 11 -48 49zM557 150v267h127v99h-127v117h-105v-117h-73v-99h73v-294c0 -81 37 -123 123 -123h109v101h-79c-41 0 -48 11 -48 49z" />
    <glyph glyph-name="t_f" unicode="tf" horiz-adv-x="694" 
d="M198 150v267h127v99h-127v117h-105v-117h-73v-99h73v-294c0 -81 37 -123 123 -123h109v101h-79c-41 0 -48 11 -48 49zM686 599h-79c-41 0 -48 -11 -48 -49v-34h127v-99h-127v-417h-105v417h-73v99h73v61c0 81 37 123 123 123h109v-101z" />
    <glyph glyph-name=".notdef" horiz-adv-x="500" 
d="M50 -184v884h400v-884h-400zM100 -134h300v784h-300v-784z" />
    <glyph glyph-name="Eth" unicode="&#xd0;" horiz-adv-x="640" 
d="M336 0h-251v315h-70v71h70v314h251c150 0 251 -96 251 -247v-206c0 -151 -101 -247 -251 -247zM192 106h144c70 0 144 45 144 143v202c0 98 -74 143 -144 143h-144v-208h144v-71h-144v-209z" />
    <glyph glyph-name="eth" unicode="&#xf0;" horiz-adv-x="540" 
d="M55 204v112c0 165 118 211 207 214l-33 45h-125v66h77l-43 59h126l43 -59h99v-66h-51l85 -117c25 -34 45 -79 45 -142v-112c0 -170 -125 -214 -215 -214s-215 44 -215 214zM380 206v108c0 78 -45 115 -110 115s-110 -37 -110 -115v-108c0 -78 45 -115 110 -115
s110 37 110 115z" />
    <glyph glyph-name="Lslash" unicode="&#x141;" horiz-adv-x="506" 
d="M84 0v261l-69 -38v83l69 38v356h107v-296l144 81v-84l-144 -80v-215h306v-106h-413z" />
    <glyph glyph-name="lslash" unicode="&#x142;" horiz-adv-x="292" 
d="M182 150v219l64 36v76l-64 -36v255h-105v-314l-64 -36v-75l64 35v-187c0 -81 37 -123 123 -123h46v101h-16c-41 0 -48 11 -48 49z" />
    <glyph glyph-name="Scaron" unicode="&#x160;" horiz-adv-x="555" 
d="M288 -10c-161 0 -247 97 -258 227h109c15 -78 69 -121 151 -121c72 0 118 35 118 89c0 52 -29 84 -99 101l-124 30c-92 22 -144 96 -144 196c0 135 102 198 226 198c141 0 222 -80 239 -197h-109c-14 57 -61 91 -129 91c-83 0 -118 -39 -118 -92c0 -54 33 -82 79 -93
l120 -29c111 -27 168 -94 168 -207s-83 -193 -229 -193zM273 818l44 36h130l-132 -109h-84l-132 109h130z" />
    <glyph glyph-name="scaron" unicode="&#x161;" horiz-adv-x="482" 
d="M253 -10c-119 0 -214 57 -220 175h108c8 -51 57 -74 113 -74c46 0 85 12 85 54c0 35 -31 46 -65 54l-98 25c-68 17 -131 55 -131 154c0 102 82 152 187 152c111 0 188 -50 198 -165h-110c-8 45 -47 64 -95 64c-32 0 -74 -12 -74 -53c0 -31 30 -41 58 -48l95 -24
c94 -24 141 -64 141 -162c-1 -102 -80 -152 -192 -152zM281 571l132 129h-117l-57 -56l-57 56h-117l132 -129h84z" />
    <glyph glyph-name="Yacute" unicode="&#xdd;" horiz-adv-x="594" 
d="M350 267l247 433h-118l-182 -322l-182 322h-118l246 -433v-267h107v267zM306 854h137l-128 -109h-91z" />
    <glyph glyph-name="yacute" unicode="&#xfd;" horiz-adv-x="476" 
d="M476 516l-229 -635c-15 -43 -52 -65 -114 -65h-54v101h21c51 0 53 9 70 52l14 38l-184 509h109l129 -367l129 367h109zM238 700h135l-118 -129h-84z" />
    <glyph glyph-name="Thorn" unicode="&#xde;" horiz-adv-x="589" 
d="M340 475h-159v-248h159c90 0 127 57 127 124s-37 124 -127 124zM181 121v-121h-107v700h107v-121h159c162 0 236 -105 236 -229s-74 -229 -236 -229h-159z" />
    <glyph glyph-name="thorn" unicode="&#xfe;" horiz-adv-x="554" 
d="M394 206v108c0 78 -45 114 -110 114s-110 -36 -110 -114v-108c0 -78 45 -114 110 -114s110 36 110 114zM499 316v-112c0 -159 -116 -214 -205 -214c-54 0 -105 29 -120 59v-233h-105v884h105v-229c15 30 66 59 120 59c89 0 205 -55 205 -214z" />
    <glyph glyph-name="Zcaron" unicode="&#x17d;" horiz-adv-x="585" 
d="M540 0h-507v106l372 488h-367v106h497v-106l-372 -488h377v-106zM286 818l44 36h130l-132 -109h-84l-132 109h130z" />
    <glyph glyph-name="zcaron" unicode="&#x17e;" horiz-adv-x="450" 
d="M411 417l-247 -318h254v-99h-385v99l247 318h-240v99h371v-99zM267 571l132 129h-117l-57 -56l-57 56h-117l132 -129h84z" />
    <glyph glyph-name="onehalf" unicode="&#xbd;" horiz-adv-x="876" 
d="M196 294v293l-77 -67v112l77 68h85v-406h-85zM631 700h95l-481 -700h-95zM537 0v75l165 154c23 22 27 36 27 54c0 30 -17 54 -53 54s-54 -24 -54 -54v-6h-85c4 68 38 135 139 135c98 0 138 -63 138 -128c0 -54 -19 -85 -60 -122l-94 -87h154v-75h-277z" />
    <glyph glyph-name="onequarter" unicode="&#xbc;" horiz-adv-x="876" 
d="M196 294v293l-77 -67v112l77 68h85v-406h-85zM631 700h95l-481 -700h-95zM698 0v88h-173v74l173 244h85v-244h42v-74h-42v-88h-85zM625 162h73v103z" />
    <glyph glyph-name="threequarters" unicode="&#xbe;" horiz-adv-x="876" 
d="M200 288c95 0 138 50 138 114c0 29 -15 75 -40 92c30 24 40 60 40 86c0 58 -38 126 -138 126c-96 0 -130 -59 -138 -122h84c3 26 21 47 54 47c36 0 53 -22 53 -56c0 -27 -22 -41 -58 -41h-33v-76h33c35 0 58 -19 58 -49c0 -28 -20 -46 -51 -46c-33 0 -53 21 -56 47h-84
c8 -62 44 -122 138 -122zM631 700h95l-481 -700h-95zM698 0v88h-173v74l173 244h85v-244h42v-74h-42v-88h-85zM625 162h73v103z" />
    <glyph glyph-name="brokenbar" unicode="&#xa6;" horiz-adv-x="243" 
d="M74 -100v339h95v-339h-95zM74 361v339h95v-339h-95z" />
    <glyph glyph-name="minus" unicode="&#x2212;" 
d="M64 326h430v-91h-430v91z" />
    <glyph glyph-name="multiply" unicode="&#xd7;" 
d="M61 127l153 154l-153 154l64 65l154 -155l154 155l64 -65l-154 -154l154 -154l-64 -65l-154 154l-154 -154z" />
    <glyph glyph-name="space" unicode=" " horiz-adv-x="219" 
 />
    <glyph glyph-name="exclam" unicode="!" horiz-adv-x="292" 
d="M198 700v-490h-105v490h105zM79 0v134h134v-134h-134z" />
    <glyph glyph-name="quotedbl" unicode="&#x22;" horiz-adv-x="463" 
d="M179 476h-105v224h105v-224zM389 476h-105v224h105v-224z" />
    <glyph glyph-name="numbersign" unicode="#" horiz-adv-x="700" 
d="M99 507h112l48 193h100l-48 -193h156l48 193h100l-48 -193h66v-91h-89l-33 -132h90v-91h-112l-48 -193h-100l48 193h-156l-48 -193h-100l48 193h-66v91h88l33 132h-89v91zM288 416l-33 -132h156l33 132h-156z" />
    <glyph glyph-name="dollar" unicode="$" horiz-adv-x="517" 
d="M239 -100v91c-127 9 -200 103 -204 226h105c4 -70 40 -116 99 -125v213l-49 19c-88 34 -144 94 -144 194c0 117 80 184 193 191v91h43v-91c108 -9 175 -86 183 -196h-105c-7 49 -33 85 -78 94v-204l52 -20c106 -41 142 -108 142 -201c0 -108 -63 -184 -194 -191v-91h-43z
M285 287l-3 1v-196c58 6 89 41 89 90c0 42 -19 79 -86 105zM151 518c0 -54 36 -78 80 -95l8 -3v188c-59 -7 -88 -43 -88 -90z" />
    <glyph glyph-name="percent" unicode="%" horiz-adv-x="876" 
d="M200 363c36 0 53 24 53 54v160c0 30 -17 54 -53 54s-53 -24 -53 -54v-160c0 -30 17 -54 53 -54zM200 288c-104 0 -138 70 -138 145v128c0 75 34 145 138 145s138 -70 138 -145v-128c0 -75 -34 -145 -138 -145zM631 700h95l-481 -700h-95zM675 69c36 0 53 24 53 54v160
c0 30 -17 54 -53 54s-53 -24 -53 -54v-160c0 -30 17 -54 53 -54zM675 -6c-104 0 -138 70 -138 145v128c0 75 34 145 138 145s138 -70 138 -145v-128c0 -75 -34 -145 -138 -145z" />
    <glyph glyph-name="ampersand" unicode="&#x26;" horiz-adv-x="603" 
d="M601 299h-123v-299h-219c-95 0 -211 51 -211 200c0 66 32 123 83 150c-49 26 -83 83 -83 149c0 156 125 201 215 201h110v-101h-110c-65 0 -110 -36 -110 -100c0 -61 41 -99 110 -99h110v80h105v-80h123v-101zM259 101h114v198h-114c-65 0 -106 -36 -106 -99
s41 -99 106 -99z" />
    <glyph glyph-name="quotesingle" unicode="'" horiz-adv-x="253" 
d="M179 476h-105v224h105v-224z" />
    <glyph glyph-name="parenleft" unicode="(" horiz-adv-x="292" 
d="M90 577v-598c0 -81 37 -123 123 -123h46v94h-24c-40 0 -50 14 -50 51v554c0 37 10 51 50 51h24v94h-46c-86 0 -123 -42 -123 -123z" />
    <glyph glyph-name="parenright" unicode=")" horiz-adv-x="292" 
d="M202 577v-598c0 -81 -37 -123 -123 -123h-46v94h24c40 0 50 14 50 51v554c0 37 -10 51 -50 51h-24v94h46c86 0 123 -42 123 -123z" />
    <glyph glyph-name="asterisk" unicode="*" horiz-adv-x="505" 
d="M207 576l-118 38l-28 -86l118 -38l-73 -101l73 -53l74 100l73 -100l73 53l-73 101l118 38l-28 86l-118 -38v124h-91v-124z" />
    <glyph glyph-name="plus" unicode="+" 
d="M325 495v-169h169v-91h-169v-170h-91v170h-170v91h170v169h91z" />
    <glyph glyph-name="comma" unicode="," horiz-adv-x="292" 
d="M79 0v134h134v-134l-39 -104h-79l39 104h-55z" />
    <glyph glyph-name="hyphen" unicode="-" horiz-adv-x="388" 
d="M49 326h290v-91h-290v91z" />
    <glyph glyph-name="period" unicode="." horiz-adv-x="292" 
d="M79 0v134h134v-134h-134z" />
    <glyph glyph-name="slash" unicode="/" horiz-adv-x="365" 
d="M-11 0l283 700h104l-283 -700h-104z" />
    <glyph glyph-name="zero" unicode="0" horiz-adv-x="546" 
d="M383 206v288c0 78 -45 115 -110 115s-110 -37 -110 -115v-288c0 -78 45 -115 110 -115s110 37 110 115zM58 204v292c0 170 125 214 215 214s215 -44 215 -214v-292c0 -170 -125 -214 -215 -214s-215 44 -215 214z" />
    <glyph glyph-name="one" unicode="1" horiz-adv-x="359" 
d="M175 700h105v-700h-105v569l-134 -115v131z" />
    <glyph glyph-name="two" unicode="2" horiz-adv-x="519" 
d="M42 496c0 170 125 214 215 214s215 -43 215 -206c0 -84 -32 -139 -100 -209l-187 -194h287v-101h-430v101l251 260c47 49 74 89 74 141c0 72 -45 107 -110 107s-110 -37 -110 -115v-9h-105v11z" />
    <glyph glyph-name="three" unicode="3" horiz-adv-x="525" 
d="M260 91c-63 0 -112 35 -114 108v1h-105v-1c2 -166 128 -209 222 -209c100 0 208 54 208 203c0 66 -32 130 -83 157c49 26 83 84 83 150c0 156 -125 210 -215 210c-89 0 -212 -45 -215 -209v-1h105v1c2 73 47 108 110 108c65 0 110 -45 110 -109c0 -61 -41 -102 -110 -102
h-58v-97h58c63 0 110 -42 110 -108c0 -68 -43 -102 -106 -102z" />
    <glyph glyph-name="four" unicode="4" horiz-adv-x="520" 
d="M498 173h-73v-173h-105v173h-311v97l311 430h105v-430h73v-97zM131 270h189v261z" />
    <glyph glyph-name="five" unicode="5" horiz-adv-x="526" 
d="M383 193v42c0 78 -45 115 -110 115c-48 0 -85 -21 -101 -62h-105v412h394v-101h-289v-184c22 21 70 36 112 36c82 0 204 -44 204 -214v-44c0 -149 -108 -203 -208 -203c-94 0 -219 43 -222 209v1h105v-1c2 -73 51 -108 114 -108s106 34 106 102z" />
    <glyph glyph-name="six" unicode="6" horiz-adv-x="540" 
d="M383 500v1c-2 73 -47 108 -110 108c-65 0 -110 -37 -110 -115v-86c25 21 71 36 117 36c80 0 208 -44 208 -214v-26c0 -170 -125 -214 -215 -214s-215 44 -215 214v292c0 170 125 214 215 214c89 0 213 -43 215 -209v-1h-105zM383 206v22c0 78 -45 115 -110 115
s-110 -37 -110 -115v-22c0 -78 45 -115 110 -115s110 37 110 115z" />
    <glyph glyph-name="seven" unicode="7" horiz-adv-x="454" 
d="M436 599l-216 -599h-111l216 599h-313v101h424v-101z" />
    <glyph glyph-name="eight" unicode="8" horiz-adv-x="538" 
d="M269 -10c89 0 215 50 215 206c0 71 -27 119 -74 156c46 40 67 86 67 154c0 155 -119 204 -208 204s-208 -49 -208 -204c0 -68 21 -114 67 -154c-47 -37 -74 -85 -74 -156c0 -156 126 -206 215 -206zM159 199c0 68 47 107 110 107s110 -40 110 -107
c0 -72 -47 -107 -110 -107s-110 34 -110 107zM372 504c0 -67 -46 -105 -105 -105c-58 0 -101 38 -101 105s43 105 101 105c59 0 105 -38 105 -105z" />
    <glyph glyph-name="nine" unicode="9" horiz-adv-x="540" 
d="M52 200h105v-1c2 -73 47 -108 110 -108c65 0 110 37 110 115v86c-25 -21 -71 -36 -117 -36c-80 0 -208 44 -208 214v26c0 170 125 214 215 214s215 -44 215 -214v-292c0 -170 -125 -214 -215 -214c-89 0 -213 43 -215 209v1zM157 494v-22c0 -78 45 -115 110 -115
s110 37 110 115v22c0 78 -45 115 -110 115s-110 -37 -110 -115z" />
    <glyph glyph-name="colon" unicode=":" horiz-adv-x="292" 
d="M79 382v134h134v-134h-134zM79 0v134h134v-134h-134z" />
    <glyph glyph-name="semicolon" unicode=";" horiz-adv-x="292" 
d="M79 382v134h134v-134h-134zM79 0v134h134v-134l-39 -104h-79l39 104h-55z" />
    <glyph glyph-name="less" unicode="&#x3c;" 
d="M162 259l332 -162v-102l-430 210v108l430 210v-102z" />
    <glyph glyph-name="equal" unicode="=" 
d="M64 340h430v91h-430v-91zM494 210h-430v-91h430v91z" />
    <glyph glyph-name="greater" unicode="&#x3e;" 
d="M396 259l-332 -162v-102l430 210v108l-430 210v-102z" />
    <glyph glyph-name="question" unicode="?" horiz-adv-x="516" 
d="M141 500h-105v1c2 165 126 209 215 209c90 0 215 -44 215 -214c0 -69 -37 -128 -84 -171l-52 -48c-24 -22 -31 -32 -31 -55v-12h-105v22c0 46 12 69 61 113l52 48c26 24 54 58 54 101c0 78 -45 115 -110 115c-63 0 -108 -35 -110 -108v-1zM180 0v134h134v-134h-134z" />
    <glyph glyph-name="at" unicode="@" horiz-adv-x="916" 
d="M567 328c-5 68 -48 101 -109 101c-52 0 -91 -24 -105 -73h-107c18 137 129 174 212 174c90 0 215 -44 215 -214v-187c0 -30 20 -45 42 -45s42 15 42 45v189c0 238 -173 298 -299 298s-299 -60 -299 -298v-120c0 -238 173 -298 299 -298c61 0 132 14 190 55l50 -83
c-74 -49 -164 -66 -240 -66c-166 0 -394 82 -394 395v114c0 313 228 395 394 395s394 -82 394 -395v-189c0 -78 -42 -136 -135 -136c-73 0 -121 25 -149 59c-33 -40 -86 -59 -154 -59c-94 0 -176 47 -176 153c0 59 26 128 112 155c62 19 130 24 217 30zM431 91
c60 0 137 19 137 115v29c-92 -6 -162 -12 -200 -35c-13 -8 -25 -22 -25 -48c0 -42 32 -61 88 -61z" />
    <glyph glyph-name="A" unicode="A" horiz-adv-x="616" 
d="M498 0l-59 169h-262l-59 -169h-110l245 700h110l245 -700h-110zM211 268h194l-97 278z" />
    <glyph glyph-name="B" unicode="B" horiz-adv-x="617" 
d="M74 0v700h270c139 0 215 -79 215 -200c0 -59 -24 -110 -69 -142c60 -36 86 -94 86 -156c0 -124 -75 -202 -215 -202h-287zM344 594h-163v-188h163c65 0 106 33 106 94s-41 94 -106 94zM361 300h-180v-194h180c66 0 106 33 106 97s-40 97 -106 97z" />
    <glyph glyph-name="C" unicode="C" horiz-adv-x="597" 
d="M554 217c-9 -139 -107 -227 -250 -227c-150 0 -251 96 -251 247v226c0 151 101 247 251 247c143 0 242 -87 250 -227h-107c-9 84 -78 121 -143 121c-70 0 -144 -43 -144 -141v-226c0 -98 74 -141 144 -141c65 0 134 37 143 121h107z" />
    <glyph glyph-name="D" unicode="D" horiz-adv-x="629" 
d="M325 0h-251v700h251c150 0 251 -96 251 -247v-206c0 -151 -101 -247 -251 -247zM181 106h144c70 0 144 45 144 143v202c0 98 -74 143 -144 143h-144v-488z" />
    <glyph glyph-name="E" unicode="E" horiz-adv-x="545" 
d="M181 594v-188h306v-106h-306v-194h306v-106h-413v700h413v-106h-306z" />
    <glyph glyph-name="F" unicode="F" horiz-adv-x="535" 
d="M181 594v-188h306v-106h-306v-300h-107v700h413v-106h-306z" />
    <glyph glyph-name="G" unicode="G" horiz-adv-x="604" 
d="M304 710c142 0 240 -86 250 -224h-107c-11 82 -79 118 -143 118c-70 0 -144 -43 -144 -141v-226c0 -98 74 -141 144 -141s144 43 144 141v45h-144v103h251v-148c0 -151 -101 -247 -251 -247s-251 96 -251 247v226c0 151 101 247 251 247z" />
    <glyph glyph-name="H" unicode="H" horiz-adv-x="650" 
d="M469 406v294h107v-700h-107v300h-288v-300h-107v700h107v-294h288z" />
    <glyph glyph-name="I" unicode="I" horiz-adv-x="255" 
d="M181 700v-700h-107v700h107z" />
    <glyph glyph-name="J" unicode="J" horiz-adv-x="475" 
d="M8 200h107c2 -61 32 -104 94 -104c64 0 94 45 94 109v495h107v-495c0 -143 -76 -215 -201 -215c-124 0 -199 70 -201 210z" />
    <glyph glyph-name="K" unicode="K" horiz-adv-x="631" 
d="M181 203v-203h-107v700h107v-342l291 342h132l-245 -288l272 -412h-126l-217 329z" />
    <glyph glyph-name="L" unicode="L" horiz-adv-x="496" 
d="M74 0v700h107v-594h306v-106h-413z" />
    <glyph glyph-name="M" unicode="M" horiz-adv-x="736" 
d="M368 313l187 387h107v-700h-106v486l-144 -298h-88l-144 298v-486h-106v700h107z" />
    <glyph glyph-name="N" unicode="N" horiz-adv-x="650" 
d="M576 700v-700h-107l-288 502v-502h-107v700h107l288 -502v502h107z" />
    <glyph glyph-name="O" unicode="O" horiz-adv-x="608" 
d="M448 237v226c0 98 -74 141 -144 141s-144 -43 -144 -141v-226c0 -98 74 -141 144 -141s144 43 144 141zM53 237v226c0 151 101 247 251 247s251 -96 251 -247v-226c0 -151 -101 -247 -251 -247s-251 96 -251 247z" />
    <glyph glyph-name="P" unicode="P" horiz-adv-x="599" 
d="M340 596h-159v-248h159c90 0 127 57 127 124s-37 124 -127 124zM181 242v-242h-107v700h266c162 0 236 -105 236 -229s-74 -229 -236 -229h-159z" />
    <glyph glyph-name="Q" unicode="Q" horiz-adv-x="619" 
d="M53 237v226c0 151 101 247 251 247s251 -96 251 -247v-226c0 -58 -15 -108 -42 -148l62 -63l-73 -71l-65 66c-37 -20 -82 -31 -133 -31c-150 0 -251 96 -251 247zM293 169l73 71l68 -69c9 18 14 40 14 66v226c0 98 -74 141 -144 141s-144 -43 -144 -141v-226
c0 -98 74 -141 144 -141c17 0 36 3 53 8z" />
    <glyph glyph-name="R" unicode="R" horiz-adv-x="610" 
d="M181 301h109l177 -301h120l-180 306c102 19 157 91 157 194c0 121 -76 200 -215 200h-275v-700h107v301zM455 499c0 -61 -41 -95 -106 -95h-168v190h168c65 0 106 -34 106 -95z" />
    <glyph glyph-name="S" unicode="S" horiz-adv-x="555" 
d="M288 -10c-161 0 -247 97 -258 227h109c15 -78 69 -121 151 -121c72 0 118 35 118 89c0 52 -29 84 -99 101l-124 30c-92 22 -144 96 -144 196c0 135 102 198 226 198c141 0 222 -80 239 -197h-109c-14 57 -61 91 -129 91c-83 0 -118 -39 -118 -92c0 -54 33 -82 79 -93
l120 -29c111 -27 168 -94 168 -207s-83 -193 -229 -193z" />
    <glyph glyph-name="T" unicode="T" horiz-adv-x="517" 
d="M509 594h-197v-594h-107v594h-197v106h501v-106z" />
    <glyph glyph-name="U" unicode="U" horiz-adv-x="632" 
d="M460 237v463h107v-463c0 -151 -101 -247 -251 -247s-251 96 -251 247v463h107v-463c0 -98 74 -141 144 -141s144 43 144 141z" />
    <glyph glyph-name="V" unicode="V" horiz-adv-x="616" 
d="M363 0l245 700h-110l-190 -546l-190 546h-110l245 -700h110z" />
    <glyph glyph-name="W" unicode="W" horiz-adv-x="744" 
d="M372 441l121 -441h101l129 700h-105l-89 -490l-107 390h-100l-107 -390l-89 490h-105l129 -700h101z" />
    <glyph glyph-name="X" unicode="X" horiz-adv-x="612" 
d="M306 286l174 -286h120l-222 362l207 338h-120l-159 -261l-159 261h-120l207 -338l-222 -362h120z" />
    <glyph glyph-name="Y" unicode="Y" horiz-adv-x="594" 
d="M350 267l247 433h-118l-182 -322l-182 322h-118l246 -433v-267h107v267z" />
    <glyph glyph-name="Z" unicode="Z" horiz-adv-x="585" 
d="M540 0h-507v106l372 488h-367v106h497v-106l-372 -488h377v-106z" />
    <glyph glyph-name="bracketleft" unicode="[" horiz-adv-x="292" 
d="M90 700v-844h169v94h-74v656h74v94h-169z" />
    <glyph glyph-name="backslash" unicode="\" horiz-adv-x="365" 
d="M376 0l-283 700h-104l283 -700h104z" />
    <glyph glyph-name="bracketright" unicode="]" horiz-adv-x="292" 
d="M202 700v-844h-169v94h74v656h-74v94h169z" />
    <glyph glyph-name="asciicircum" unicode="^" horiz-adv-x="624" 
d="M312 588l146 -288h107l-203 400h-100l-203 -400h107z" />
    <glyph glyph-name="underscore" unicode="_" horiz-adv-x="418" 
d="M-6 -47h430v-91h-430v91z" />
    <glyph glyph-name="grave" unicode="`" horiz-adv-x="309" 
d="M182 700h-135l118 -129h84z" />
    <glyph glyph-name="a" unicode="a" horiz-adv-x="543" 
d="M266 429c-52 0 -91 -24 -105 -73h-107c18 137 129 174 212 174c90 0 215 -44 215 -214v-316h-105v49c-33 -40 -86 -59 -154 -59c-94 0 -176 47 -176 153c0 59 26 128 112 155c62 19 130 24 217 30v1c-5 67 -48 100 -109 100zM239 91c60 0 137 19 137 115v29
c-92 -6 -162 -12 -200 -35c-13 -8 -25 -22 -25 -48c0 -42 32 -61 88 -61z" />
    <glyph glyph-name="b" unicode="b" horiz-adv-x="554" 
d="M394 206v108c0 78 -45 114 -110 114s-110 -36 -110 -114v-108c0 -78 45 -114 110 -114s110 36 110 114zM499 316v-112c0 -159 -116 -214 -205 -214c-54 0 -105 29 -120 59v-49h-105v700h105v-229c15 30 66 59 120 59c89 0 205 -55 205 -214z" />
    <glyph glyph-name="c" unicode="c" horiz-adv-x="529" 
d="M484 176c-13 -147 -129 -186 -214 -186c-90 0 -215 44 -215 214v112c0 170 125 214 215 214c85 0 201 -39 214 -186h-107c-10 57 -51 85 -107 85c-65 0 -110 -37 -110 -115v-108c0 -78 45 -115 110 -115c56 0 98 28 108 85h106z" />
    <glyph glyph-name="d" unicode="d" horiz-adv-x="554" 
d="M160 206v108c0 78 45 114 110 114s110 -36 110 -114v-108c0 -78 -52 -114 -117 -114c-58 0 -103 36 -103 114zM55 316v-112c0 -159 116 -214 205 -214c54 0 105 29 120 59v-49h105v700h-105v-229c-15 30 -66 59 -120 59c-89 0 -205 -55 -205 -214z" />
    <glyph glyph-name="e" unicode="e" horiz-adv-x="535" 
d="M270 91c52 0 91 24 105 73h107c-18 -137 -129 -174 -212 -174c-90 0 -215 44 -215 214v112c0 170 125 214 215 214s215 -44 215 -214v-93h-325v-17c0 -78 45 -115 110 -115zM270 429c-65 0 -110 -37 -110 -112v-1h220v1c-1 75 -46 112 -110 112z" />
    <glyph glyph-name="f" unicode="f" horiz-adv-x="335" 
d="M327 599h-79c-41 0 -48 -11 -48 -49v-34h127v-99h-127v-417h-105v417h-73v99h73v61c0 81 37 123 123 123h109v-101z" />
    <glyph glyph-name="g" unicode="g" horiz-adv-x="552" 
d="M268 -93c65 0 110 37 110 115v57c-15 -30 -66 -59 -120 -59c-89 0 -205 55 -205 214v82c0 159 116 214 205 214c54 0 105 -29 120 -59v45h105v-496c0 -170 -125 -214 -215 -214c-85 0 -199 39 -213 184h106c11 -56 52 -83 107 -83zM158 314v-78c0 -78 45 -114 110 -114
s110 36 110 114v78c0 78 -45 114 -110 114s-110 -36 -110 -114z" />
    <glyph glyph-name="h" unicode="h" horiz-adv-x="561" 
d="M174 314v-314h-105v700h105v-229c15 30 66 59 120 59c89 0 205 -55 205 -214v-316h-105v314c0 78 -45 114 -110 114s-110 -36 -110 -114z" />
    <glyph glyph-name="i" unicode="i" horiz-adv-x="243" 
d="M174 700v-107h-105v107h105zM174 516v-516h-105v516h105z" />
    <glyph glyph-name="j" unicode="j" horiz-adv-x="243" 
d="M174 700v-107h-105v107h105zM69 -34v550h105v-577c0 -81 -37 -123 -123 -123h-46v101h16c41 0 48 11 48 49z" />
    <glyph glyph-name="k" unicode="k" horiz-adv-x="526" 
d="M174 700v-394l193 210h127l-186 -202l214 -314h-122l-162 238l-64 -70v-168h-105v700h105z" />
    <glyph glyph-name="l" unicode="l" horiz-adv-x="272" 
d="M172 150v550h-105v-577c0 -81 37 -123 123 -123h46v101h-16c-41 0 -48 11 -48 49z" />
    <glyph glyph-name="m" unicode="m" horiz-adv-x="866" 
d="M489 314v-314h-105v314c0 78 -47 114 -105 114s-105 -36 -105 -114v-314h-105v516h105v-45c13 28 66 59 115 59c48 0 114 -23 148 -73c34 50 103 73 157 73c95 0 210 -55 210 -214v-316h-105v314c0 78 -47 114 -105 114s-105 -36 -105 -114z" />
    <glyph glyph-name="n" unicode="n" horiz-adv-x="561" 
d="M174 314v-314h-105v516h105v-45c15 30 66 59 120 59c89 0 205 -55 205 -214v-316h-105v314c0 78 -45 114 -110 114s-110 -36 -110 -114z" />
    <glyph glyph-name="o" unicode="o" horiz-adv-x="540" 
d="M380 206v108c0 78 -45 115 -110 115s-110 -37 -110 -115v-108c0 -78 45 -115 110 -115s110 37 110 115zM55 204v112c0 170 125 214 215 214s215 -44 215 -214v-112c0 -170 -125 -214 -215 -214s-215 44 -215 214z" />
    <glyph glyph-name="p" unicode="p" horiz-adv-x="554" 
d="M394 206v108c0 78 -45 114 -110 114s-110 -36 -110 -114v-108c0 -78 45 -114 110 -114s110 36 110 114zM499 316v-112c0 -159 -116 -214 -205 -214c-54 0 -105 29 -120 59v-233h-105v700h105v-45c15 30 66 59 120 59c89 0 205 -55 205 -214z" />
    <glyph glyph-name="q" unicode="q" horiz-adv-x="554" 
d="M160 206v108c0 78 45 114 110 114s110 -36 110 -114v-108c0 -78 -52 -114 -117 -114c-58 0 -103 36 -103 114zM55 316v-112c0 -159 116 -214 205 -214c54 0 105 29 120 59v-233h105v700h-105v-45c-15 30 -66 59 -120 59c-89 0 -205 -55 -205 -214z" />
    <glyph glyph-name="r" unicode="r" horiz-adv-x="345" 
d="M334 423h-50c-65 0 -110 -36 -110 -114v-309h-105v516h105v-50c15 30 66 59 120 59h40v-102z" />
    <glyph glyph-name="s" unicode="s" horiz-adv-x="482" 
d="M253 -10c-119 0 -214 57 -220 175h108c8 -51 57 -74 113 -74c46 0 85 12 85 54c0 35 -31 46 -65 54l-98 25c-68 17 -131 55 -131 154c0 102 82 152 187 152c111 0 188 -50 198 -165h-110c-8 45 -47 64 -95 64c-32 0 -74 -12 -74 -53c0 -31 30 -41 58 -48l95 -24
c94 -24 141 -64 141 -162c-1 -102 -80 -152 -192 -152z" />
    <glyph glyph-name="t" unicode="t" horiz-adv-x="359" 
d="M198 150v267h127v99h-127v117h-105v-117h-73v-99h73v-294c0 -81 37 -123 123 -123h109v101h-79c-41 0 -48 11 -48 49z" />
    <glyph glyph-name="u" unicode="u" horiz-adv-x="555" 
d="M167 516v-310c0 -78 45 -114 107 -114s107 36 107 114v310h105v-516h-105v49c-15 -30 -66 -59 -120 -59c-89 0 -199 62 -199 214v312h105z" />
    <glyph glyph-name="v" unicode="v" horiz-adv-x="476" 
d="M238 149l129 367h109l-186 -516h-104l-186 516h109z" />
    <glyph glyph-name="w" unicode="w" horiz-adv-x="688" 
d="M400 516l88 -351l86 351h107l-136 -516h-106l-95 379l-95 -379h-106l-136 516h107l86 -351l88 351h112z" />
    <glyph glyph-name="x" unicode="x" horiz-adv-x="492" 
d="M246 185l121 -185h116l-175 265l167 251h-116l-113 -172l-113 172h-116l167 -251l-175 -265h116z" />
    <glyph glyph-name="y" unicode="y" horiz-adv-x="476" 
d="M476 516l-229 -635c-15 -43 -52 -65 -114 -65h-54v101h21c51 0 53 9 70 52l14 38l-184 509h109l129 -367l129 367h109z" />
    <glyph glyph-name="z" unicode="z" horiz-adv-x="450" 
d="M411 417l-247 -318h254v-99h-385v99l247 318h-240v99h371v-99z" />
    <glyph glyph-name="braceleft" unicode="{" horiz-adv-x="324" 
d="M122 -21v201c0 34 -9 51 -42 51h-32v94h32c33 0 42 17 42 51v201c0 81 37 123 123 123h46v-94h-24c-40 0 -50 -14 -50 -51v-201c0 -31 -5 -62 -32 -76c27 -15 32 -45 32 -76v-201c0 -37 10 -51 50 -51h24v-94h-46c-86 0 -123 42 -123 123z" />
    <glyph glyph-name="bar" unicode="|" horiz-adv-x="243" 
d="M169 700v-800h-95v800h95z" />
    <glyph glyph-name="braceright" unicode="}" horiz-adv-x="324" 
d="M202 -21v201c0 34 9 51 42 51h32v94h-32c-33 0 -42 17 -42 51v201c0 81 -37 123 -123 123h-46v-94h24c40 0 50 -14 50 -51v-201c0 -31 5 -62 32 -76c-27 -15 -32 -45 -32 -76v-201c0 -37 -10 -51 -50 -51h-24v-94h46c86 0 123 42 123 123z" />
    <glyph glyph-name="asciitilde" unicode="~" horiz-adv-x="538" 
d="M112 212l-58 64c50 52 93 73 137 73c61 0 113 -46 152 -46c28 0 49 10 83 46l58 -64c-50 -52 -93 -73 -137 -73c-61 0 -113 46 -152 46c-28 0 -49 -10 -83 -46z" />
    <glyph glyph-name="Adieresis" unicode="&#xc4;" horiz-adv-x="616" 
d="M498 0l-59 169h-262l-59 -169h-110l245 700h110l245 -700h-110zM211 268h194l-97 278zM266 853v-107h-107v107h107zM457 853v-107h-107v107h107z" />
    <glyph glyph-name="Aring" unicode="&#xc5;" horiz-adv-x="616" 
d="M498 0l-59 169h-262l-59 -169h-110l245 700h110l245 -700h-110zM211 268h194l-97 278zM234 799c0 41 33 75 74 75s75 -34 75 -75s-34 -74 -75 -74s-74 33 -74 74zM287 799c0 -12 9 -21 21 -21s21 9 21 21s-9 21 -21 21s-21 -9 -21 -21z" />
    <glyph glyph-name="Ccedilla" unicode="&#xc7;" horiz-adv-x="597" 
d="M202 -158l57 151c-125 17 -206 108 -206 244v226c0 151 101 247 251 247c143 0 242 -87 250 -227h-107c-9 84 -78 121 -143 121c-70 0 -144 -43 -144 -141v-226c0 -98 74 -141 144 -141c65 0 134 37 143 121h107c-8 -123 -85 -206 -201 -223l-36 -152h-115z" />
    <glyph glyph-name="Eacute" unicode="&#xc9;" horiz-adv-x="545" 
d="M181 594v-188h306v-106h-306v-194h306v-106h-413v700h413v-106h-306zM289 854h137l-128 -109h-91z" />
    <glyph glyph-name="Ntilde" unicode="&#xd1;" horiz-adv-x="650" 
d="M576 700v-700h-107l-288 502v-502h-107v700h107l288 -502v502h107zM265 859c17 0 34 0 52 -8l38 -16c7 -3 14 -6 20 -6c13 0 23 9 30 28h91c-17 -100 -78 -116 -111 -116c-17 0 -34 0 -52 8l-38 16c-7 3 -14 6 -20 6c-13 0 -23 -9 -30 -28h-91c17 100 78 116 111 116z
" />
    <glyph glyph-name="Odieresis" unicode="&#xd6;" horiz-adv-x="608" 
d="M448 237v226c0 98 -74 141 -144 141s-144 -43 -144 -141v-226c0 -98 74 -141 144 -141s144 43 144 141zM53 237v226c0 151 101 247 251 247s251 -96 251 -247v-226c0 -151 -101 -247 -251 -247s-251 96 -251 247zM262 853v-107h-107v107h107zM453 853v-107h-107v107h107z
" />
    <glyph glyph-name="Udieresis" unicode="&#xdc;" horiz-adv-x="632" 
d="M460 237v463h107v-463c0 -151 -101 -247 -251 -247s-251 96 -251 247v463h107v-463c0 -98 74 -141 144 -141s144 43 144 141zM274 853v-107h-107v107h107zM465 853v-107h-107v107h107z" />
    <glyph glyph-name="aacute" unicode="&#xe1;" horiz-adv-x="543" 
d="M266 429c-52 0 -91 -24 -105 -73h-107c18 137 129 174 212 174c90 0 215 -44 215 -214v-316h-105v49c-33 -40 -86 -59 -154 -59c-94 0 -176 47 -176 153c0 59 26 128 112 155c62 19 130 24 217 30v1c-5 67 -48 100 -109 100zM239 91c60 0 137 19 137 115v29
c-92 -6 -162 -12 -200 -35c-13 -8 -25 -22 -25 -48c0 -42 32 -61 88 -61zM263 700h135l-118 -129h-84z" />
    <glyph glyph-name="agrave" unicode="&#xe0;" horiz-adv-x="543" 
d="M266 429c-52 0 -91 -24 -105 -73h-107c18 137 129 174 212 174c90 0 215 -44 215 -214v-316h-105v49c-33 -40 -86 -59 -154 -59c-94 0 -176 47 -176 153c0 59 26 128 112 155c62 19 130 24 217 30v1c-5 67 -48 100 -109 100zM239 91c60 0 137 19 137 115v29
c-92 -6 -162 -12 -200 -35c-13 -8 -25 -22 -25 -48c0 -42 32 -61 88 -61zM265 700h-135l118 -129h84z" />
    <glyph glyph-name="acircumflex" unicode="&#xe2;" horiz-adv-x="543" 
d="M266 429c-52 0 -91 -24 -105 -73h-107c18 137 129 174 212 174c90 0 215 -44 215 -214v-316h-105v49c-33 -40 -86 -59 -154 -59c-94 0 -176 47 -176 153c0 59 26 128 112 155c62 19 130 24 217 30v1c-5 67 -48 100 -109 100zM239 91c60 0 137 19 137 115v29
c-92 -6 -162 -12 -200 -35c-13 -8 -25 -22 -25 -48c0 -42 32 -61 88 -61zM315 700l132 -129h-117l-57 56l-57 -56h-117l132 129h84z" />
    <glyph glyph-name="adieresis" unicode="&#xe4;" horiz-adv-x="543" 
d="M266 429c-52 0 -91 -24 -105 -73h-107c18 137 129 174 212 174c90 0 215 -44 215 -214v-316h-105v49c-33 -40 -86 -59 -154 -59c-94 0 -176 47 -176 153c0 59 26 128 112 155c62 19 130 24 217 30v1c-5 67 -48 100 -109 100zM239 91c60 0 137 19 137 115v29
c-92 -6 -162 -12 -200 -35c-13 -8 -25 -22 -25 -48c0 -42 32 -61 88 -61zM229 689v-107h-105v107h105zM422 689v-107h-105v107h105z" />
    <glyph glyph-name="atilde" unicode="&#xe3;" horiz-adv-x="543" 
d="M266 429c-52 0 -91 -24 -105 -73h-107c18 137 129 174 212 174c90 0 215 -44 215 -214v-316h-105v49c-33 -40 -86 -59 -154 -59c-94 0 -176 47 -176 153c0 59 26 128 112 155c62 19 130 24 217 30v1c-5 67 -48 100 -109 100zM239 91c60 0 137 19 137 115v29
c-92 -6 -162 -12 -200 -35c-13 -8 -25 -22 -25 -48c0 -42 32 -61 88 -61zM186 579h-84c17 100 78 116 111 116c17 0 34 -1 52 -9l38 -16c7 -3 16 -7 27 -7c12 0 22 7 30 30h84c-17 -100 -78 -116 -111 -116c-17 0 -34 1 -52 9l-38 16c-7 3 -16 7 -27 7c-12 0 -22 -7 -30 -30
z" />
    <glyph glyph-name="aring" unicode="&#xe5;" horiz-adv-x="543" 
d="M266 429c-52 0 -91 -24 -105 -73h-107c18 137 129 174 212 174c90 0 215 -44 215 -214v-316h-105v49c-33 -40 -86 -59 -154 -59c-94 0 -176 47 -176 153c0 59 26 128 112 155c62 19 130 24 217 30v1c-5 67 -48 100 -109 100zM239 91c60 0 137 19 137 115v29
c-92 -6 -162 -12 -200 -35c-13 -8 -25 -22 -25 -48c0 -42 32 -61 88 -61zM199 635c0 41 33 75 74 75s75 -34 75 -75s-34 -74 -75 -74s-74 33 -74 74zM250 635c0 -13 10 -23 23 -23s23 10 23 23s-10 23 -23 23s-23 -10 -23 -23z" />
    <glyph glyph-name="ccedilla" unicode="&#xe7;" horiz-adv-x="529" 
d="M169 -158l62 151c-84 11 -176 64 -176 211v112c0 170 125 214 215 214c85 0 201 -39 214 -186h-107c-10 57 -51 85 -107 85c-65 0 -110 -37 -110 -115v-108c0 -78 45 -115 110 -115c56 0 98 28 108 85h106c-11 -121 -91 -169 -166 -182l-36 -152h-113z" />
    <glyph glyph-name="eacute" unicode="&#xe9;" horiz-adv-x="535" 
d="M270 91c52 0 91 24 105 73h107c-18 -137 -129 -174 -212 -174c-90 0 -215 44 -215 214v112c0 170 125 214 215 214s215 -44 215 -214v-93h-325v-17c0 -78 45 -115 110 -115zM270 429c-65 0 -110 -37 -110 -112v-1h220v1c-1 75 -46 112 -110 112zM270 700h135l-118 -129
h-84z" />
    <glyph glyph-name="egrave" unicode="&#xe8;" horiz-adv-x="535" 
d="M270 91c52 0 91 24 105 73h107c-18 -137 -129 -174 -212 -174c-90 0 -215 44 -215 214v112c0 170 125 214 215 214s215 -44 215 -214v-93h-325v-17c0 -78 45 -115 110 -115zM270 429c-65 0 -110 -37 -110 -112v-1h220v1c-1 75 -46 112 -110 112zM272 700h-135l118 -129
h84z" />
    <glyph glyph-name="ecircumflex" unicode="&#xea;" horiz-adv-x="535" 
d="M270 91c52 0 91 24 105 73h107c-18 -137 -129 -174 -212 -174c-90 0 -215 44 -215 214v112c0 170 125 214 215 214s215 -44 215 -214v-93h-325v-17c0 -78 45 -115 110 -115zM312 700l132 -129h-117l-57 56l-57 -56h-117l132 129h84zM270 429c-65 0 -110 -37 -110 -112v-1
h220v1c-1 75 -46 112 -110 112z" />
    <glyph glyph-name="edieresis" unicode="&#xeb;" horiz-adv-x="535" 
d="M270 91c52 0 91 24 105 73h107c-18 -137 -129 -174 -212 -174c-90 0 -215 44 -215 214v112c0 170 125 214 215 214s215 -44 215 -214v-93h-325v-17c0 -78 45 -115 110 -115zM270 429c-65 0 -110 -37 -110 -112v-1h220v1c-1 75 -46 112 -110 112zM226 689v-107h-105v107
h105zM419 689v-107h-105v107h105z" />
    <glyph glyph-name="iacute" unicode="&#xed;" horiz-adv-x="243" 
d="M174 516v-516h-105v516h105zM121 700h135l-118 -129h-84z" />
    <glyph glyph-name="igrave" unicode="&#xec;" horiz-adv-x="243" 
d="M174 516v-516h-105v516h105zM123 700h-135l118 -129h84z" />
    <glyph glyph-name="icircumflex" unicode="&#xee;" horiz-adv-x="243" 
d="M174 516v-516h-105v516h105zM163 700l132 -129h-117l-57 56l-57 -56h-117l132 129h84z" />
    <glyph glyph-name="idieresis" unicode="&#xef;" horiz-adv-x="243" 
d="M174 516v-516h-105v516h105zM77 689v-107h-105v107h105zM270 689v-107h-105v107h105z" />
    <glyph glyph-name="ntilde" unicode="&#xf1;" horiz-adv-x="561" 
d="M174 314v-314h-105v516h105v-45c15 30 66 59 120 59c89 0 205 -55 205 -214v-316h-105v314c0 78 -45 114 -110 114s-110 -36 -110 -114zM197 579h-84c17 100 78 116 111 116c17 0 34 -1 52 -9l38 -16c7 -3 16 -7 27 -7c12 0 22 7 30 30h84c-17 -100 -78 -116 -111 -116
c-17 0 -34 1 -52 9l-38 16c-7 3 -16 7 -27 7c-12 0 -22 -7 -30 -30z" />
    <glyph glyph-name="oacute" unicode="&#xf3;" horiz-adv-x="540" 
d="M380 206v108c0 78 -45 115 -110 115s-110 -37 -110 -115v-108c0 -78 45 -115 110 -115s110 37 110 115zM55 204v112c0 170 125 214 215 214s215 -44 215 -214v-112c0 -170 -125 -214 -215 -214s-215 44 -215 214zM270 700h135l-118 -129h-84z" />
    <glyph glyph-name="ograve" unicode="&#xf2;" horiz-adv-x="540" 
d="M380 206v108c0 78 -45 115 -110 115s-110 -37 -110 -115v-108c0 -78 45 -115 110 -115s110 37 110 115zM55 204v112c0 170 125 214 215 214s215 -44 215 -214v-112c0 -170 -125 -214 -215 -214s-215 44 -215 214zM272 700h-135l118 -129h84z" />
    <glyph glyph-name="ocircumflex" unicode="&#xf4;" horiz-adv-x="540" 
d="M380 206v108c0 78 -45 115 -110 115s-110 -37 -110 -115v-108c0 -78 45 -115 110 -115s110 37 110 115zM55 204v112c0 170 125 214 215 214s215 -44 215 -214v-112c0 -170 -125 -214 -215 -214s-215 44 -215 214zM312 700l132 -129h-117l-57 56l-57 -56h-117l132 129h84z
" />
    <glyph glyph-name="odieresis" unicode="&#xf6;" horiz-adv-x="540" 
d="M380 206v108c0 78 -45 115 -110 115s-110 -37 -110 -115v-108c0 -78 45 -115 110 -115s110 37 110 115zM55 204v112c0 170 125 214 215 214s215 -44 215 -214v-112c0 -170 -125 -214 -215 -214s-215 44 -215 214zM226 689v-107h-105v107h105zM419 689v-107h-105v107h105z
" />
    <glyph glyph-name="otilde" unicode="&#xf5;" horiz-adv-x="540" 
d="M380 206v108c0 78 -45 115 -110 115s-110 -37 -110 -115v-108c0 -78 45 -115 110 -115s110 37 110 115zM55 204v112c0 170 125 214 215 214s215 -44 215 -214v-112c0 -170 -125 -214 -215 -214s-215 44 -215 214zM183 579h-84c17 100 78 116 111 116c17 0 34 -1 52 -9
l38 -16c7 -3 16 -7 27 -7c12 0 22 7 30 30h84c-17 -100 -78 -116 -111 -116c-17 0 -34 1 -52 9l-38 16c-7 3 -16 7 -27 7c-12 0 -22 -7 -30 -30z" />
    <glyph glyph-name="uacute" unicode="&#xfa;" horiz-adv-x="555" 
d="M167 516v-310c0 -78 45 -114 107 -114s107 36 107 114v310h105v-516h-105v49c-15 -30 -66 -59 -120 -59c-89 0 -199 62 -199 214v312h105zM274 700h135l-118 -129h-84z" />
    <glyph glyph-name="ugrave" unicode="&#xf9;" horiz-adv-x="555" 
d="M167 516v-310c0 -78 45 -114 107 -114s107 36 107 114v310h105v-516h-105v49c-15 -30 -66 -59 -120 -59c-89 0 -199 62 -199 214v312h105zM276 700h-135l118 -129h84z" />
    <glyph glyph-name="ucircumflex" unicode="&#xfb;" horiz-adv-x="555" 
d="M167 516v-310c0 -78 45 -114 107 -114s107 36 107 114v310h105v-516h-105v49c-15 -30 -66 -59 -120 -59c-89 0 -199 62 -199 214v312h105zM316 700l132 -129h-117l-57 56l-57 -56h-117l132 129h84z" />
    <glyph glyph-name="udieresis" unicode="&#xfc;" horiz-adv-x="555" 
d="M167 516v-310c0 -78 45 -114 107 -114s107 36 107 114v310h105v-516h-105v49c-15 -30 -66 -59 -120 -59c-89 0 -199 62 -199 214v312h105zM230 689v-107h-105v107h105zM423 689v-107h-105v107h105z" />
    <glyph glyph-name="dagger" unicode="&#x2020;" horiz-adv-x="597" 
d="M84 516h167v184h95v-184h167v-91h-167v-512h-95v512h-167v91z" />
    <glyph glyph-name="degree" unicode="&#xb0;" horiz-adv-x="402" 
d="M45 549c0 86 70 156 156 156s156 -70 156 -156s-70 -156 -156 -156s-156 70 -156 156zM127 549c0 -41 33 -75 74 -75s74 34 74 75s-33 75 -74 75s-74 -34 -74 -75z" />
    <glyph glyph-name="cent" unicode="&#xa2;" horiz-adv-x="539" 
d="M489 176c-12 -135 -111 -179 -193 -185v-91h-43v91c-87 7 -193 56 -193 213v112c0 156 106 206 193 213v91h43v-91c82 -6 181 -50 193 -185h-107c-9 49 -41 77 -86 83v-335c45 7 78 34 87 84h106zM165 206c0 -69 35 -106 88 -114v335c-53 -7 -88 -44 -88 -113v-108z" />
    <glyph glyph-name="sterling" unicode="&#xa3;" horiz-adv-x="602" 
d="M59 0v101h24c34 1 40 14 40 49v168h-64v66h64v112c0 170 125 214 215 214s215 -44 215 -214v-2h-105c0 78 -45 115 -110 115s-110 -37 -110 -115v-110h220v-66h-220v-179c0 -19 -3 -30 -9 -38h334v-101h-494z" />
    <glyph glyph-name="currency" unicode="&#xa4;" horiz-adv-x="713" 
d="M59 89l85 85c-36 46 -57 103 -57 166c0 62 21 120 57 166l-85 85l46 47l85 -86c46 36 104 58 167 58c62 0 120 -21 166 -57l85 85l46 -47l-85 -85c36 -46 58 -103 58 -166s-22 -121 -58 -167l85 -84l-46 -47l-85 85c-46 -36 -104 -57 -166 -57c-63 0 -121 21 -167 57
l-85 -85zM188 340c0 -93 76 -169 169 -169s169 76 169 169s-76 169 -169 169s-169 -76 -169 -169z" />
    <glyph glyph-name="yen" unicode="&#xa5;" horiz-adv-x="636" 
d="M502 700l-184 -324l-184 324h-116l209 -367h-124v-66h162v-67h-162v-66h162v-134h105v134h162v66h-162v67h162v66h-124l210 367h-116z" />
    <glyph glyph-name="section" unicode="&#xa7;" horiz-adv-x="538" 
d="M290 57l-96 34c-64 23 -138 57 -138 178c0 64 29 115 81 144c-32 28 -54 70 -54 129c0 95 69 168 184 168c114 0 179 -57 192 -166h-97c-9 46 -40 73 -95 73c-47 0 -88 -28 -88 -77c0 -40 27 -67 58 -78l107 -38c64 -23 138 -57 138 -178c0 -69 -28 -118 -82 -146
c35 -32 55 -75 55 -132c0 -110 -73 -162 -185 -162c-115 0 -184 62 -197 175h98c7 -52 47 -82 99 -82c51 0 90 20 90 70c0 38 -16 68 -70 88zM318 332l-68 24c-62 -4 -98 -37 -99 -89c0 -43 22 -67 69 -84l68 -25c62 4 99 37 99 89c0 43 -22 68 -69 85z" />
    <glyph glyph-name="bullet" unicode="&#x2022;" horiz-adv-x="800" 
d="M232 348c0 93 75 168 168 168s168 -75 168 -168s-75 -168 -168 -168s-168 75 -168 168z" />
    <glyph glyph-name="paragraph" unicode="&#xb6;" horiz-adv-x="615" 
d="M536 700v-787h-95v693h-110v-693h-95v387h-10c-110 0 -199 90 -199 200c0 109 89 200 199 200h310z" />
    <glyph glyph-name="germandbls" unicode="&#xdf;" horiz-adv-x="541" 
d="M69 0v515c0 140 75 195 190 195s190 -55 190 -195c0 -58 -13 -101 -37 -131c52 -34 87 -91 87 -175c0 -149 -96 -219 -211 -219c-18 0 -35 2 -51 5v106c14 -6 30 -10 51 -10c83 0 106 53 106 118s-38 117 -121 117h-36v97h22c59 0 85 34 85 92s-26 94 -85 94
s-85 -36 -85 -94v-515h-105z" />
    <glyph glyph-name="registered" unicode="&#xae;" horiz-adv-x="798" 
d="M39 350c0 199 161 360 360 360s360 -161 360 -360s-161 -360 -360 -360s-360 161 -360 360zM134 350c0 -146 118 -266 265 -266s265 120 265 266s-118 266 -265 266s-265 -120 -265 -266zM468 158h99l-92 157c51 14 80 54 80 111c0 71 -45 115 -124 115h-170v-383h85v152
h33zM346 393v64h88c22 0 36 -11 36 -33c0 -20 -14 -31 -36 -31h-88z" />
    <glyph glyph-name="copyright" unicode="&#xa9;" horiz-adv-x="798" 
d="M39 350c0 199 161 360 360 360s360 -161 360 -360s-161 -360 -360 -360s-360 161 -360 360zM134 350c0 -146 118 -266 265 -266s265 120 265 266s-118 266 -265 266s-265 -120 -265 -266zM399 153c-99 0 -150 60 -150 147v100c0 86 51 147 150 147c98 0 149 -58 151 -141
h-86c-3 33 -26 56 -65 56c-41 0 -65 -25 -65 -62v-100c0 -37 24 -63 65 -63c39 0 62 22 65 56h86c-2 -83 -53 -140 -151 -140z" />
    <glyph glyph-name="trademark" unicode="&#x2122;" horiz-adv-x="752" 
d="M114 294v325h-113v81h311v-81h-113v-325h-85zM352 294v406h82l98 -204l98 204h83v-406h-82v248l-66 -139h-65l-66 139v-248h-82z" />
    <glyph glyph-name="acute" unicode="&#xb4;" horiz-adv-x="309" 
d="M127 700h135l-118 -129h-84z" />
    <glyph glyph-name="dieresis" unicode="&#xa8;" horiz-adv-x="420" 
d="M166 689v-107h-105v107h105zM359 689v-107h-105v107h105z" />
    <glyph glyph-name="notequal" unicode="&#x2260;" 
d="M64 340h208l-99 -130h-109v-91h39l-39 -52l70 -54l81 106h279v91h-210l100 130h110v91h-41l41 53l-70 54l-82 -107h-278v-91z" />
    <glyph glyph-name="AE" unicode="&#xc6;" horiz-adv-x="860" 
d="M237 268h152v330zM802 0h-413v169h-197l-78 -169h-113l322 700h479v-106h-306v-188h306v-106h-306v-194h306v-106z" />
    <glyph glyph-name="Oslash" unicode="&#xd8;" horiz-adv-x="614" 
d="M56 237v226c0 151 101 247 251 247c60 0 111 -16 152 -44l39 63l60 -39l-46 -74c30 -41 46 -92 46 -153v-226c0 -151 -101 -247 -251 -247c-60 0 -112 15 -153 43l-37 -61l-61 38l45 74c-29 40 -45 92 -45 153zM163 237c0 -16 2 -31 5 -44l234 380c-27 21 -62 31 -95 31
c-70 0 -144 -43 -144 -141v-226zM451 237v226c0 16 -2 31 -6 44l-233 -380c27 -21 61 -31 95 -31c70 0 144 43 144 141z" />
    <glyph glyph-name="infinity" unicode="&#x221e;" 
d="M56 336c0 70 55 126 125 126c39 0 74 -18 97 -46c23 28 57 46 97 46c70 0 126 -56 126 -126s-56 -125 -126 -125c-40 0 -74 17 -97 45c-23 -28 -58 -45 -97 -45c-70 0 -125 55 -125 125zM327 336c0 -26 22 -48 48 -48c27 0 49 21 49 48s-22 49 -49 49
c-26 0 -48 -23 -48 -49zM133 336c0 -26 22 -48 48 -48c27 0 49 21 49 48s-22 49 -49 49c-26 0 -48 -23 -48 -49z" />
    <glyph glyph-name="plusminus" unicode="&#xb1;" 
d="M64 294h170v-131h91v131h169v91h-169v131h-91v-131h-170v-91zM494 91h-430v-91h430v91z" />
    <glyph glyph-name="lessequal" unicode="&#x2264;" 
d="M64 277l430 -138v103l-278 89l278 89v103l-430 -138v-108zM64 91h430v-91h-430v91z" />
    <glyph glyph-name="greaterequal" unicode="&#x2265;" 
d="M494 277l-430 -138v103l278 89l-278 89v103l430 -138v-108zM64 91h430v-91h-430v91z" />
    <glyph glyph-name="mu" unicode="&#xb5;" horiz-adv-x="562" 
d="M281 -10c-47 0 -92 29 -107 57v-231h-105v700h105v-310c0 -78 45 -114 107 -114s107 36 107 114v310h105v-516h-105v47c-15 -28 -60 -57 -107 -57z" />
    <glyph glyph-name="partialdiff" unicode="&#x2202;" horiz-adv-x="582" 
d="M433 494l-21 -105c-15 29 -61 55 -115 55c-106 0 -216 -42 -250 -210c-4 -20 -8 -47 -8 -64c0 -122 93 -180 182 -180c106 0 216 42 250 210l55 274c4 20 6 39 6 56c0 122 -93 180 -182 180c-106 0 -211 -43 -250 -210h96c17 83 74 117 141 117c57 0 99 -35 99 -95
c0 -9 -1 -18 -3 -28zM383 256c0 -9 -6 -46 -8 -56c-17 -83 -74 -117 -141 -117c-57 0 -99 35 -99 95c0 9 6 46 8 56c17 83 74 117 141 117c57 0 99 -35 99 -95z" />
    <glyph glyph-name="summation" unicode="&#x2211;" horiz-adv-x="700" 
d="M204 -90h407v-94h-532v94l282 348l-282 348v94h532v-94h-407l282 -348z" />
    <glyph glyph-name="product" unicode="&#x220f;" horiz-adv-x="650" 
d="M74 0v700h502v-700h-107v594h-288v-594h-107z" />
    <glyph glyph-name="pi" unicode="&#x3c0;" horiz-adv-x="620" 
d="M95 415h-73v101h576v-101h-73v-415h-105v415h-220v-415h-105v415z" />
    <glyph glyph-name="integral" unicode="&#x222b;" horiz-adv-x="303" 
d="M199 -61v616c0 37 10 51 50 51v94h-22c-86 0 -123 -42 -123 -123v-616c0 -37 -10 -51 -50 -51v-94h22c86 0 123 42 123 123z" />
    <glyph glyph-name="ordfeminine" unicode="&#xaa;" horiz-adv-x="331" 
d="M134 395c-76 0 -112 37 -112 89c0 48 15 67 52 89c26 15 97 22 139 25c-6 20 -22 36 -51 36c-25 0 -41 -12 -49 -28h-85c13 53 47 102 134 102c104 0 138 -70 138 -144v-163h-85v37c-11 -22 -31 -43 -81 -43zM149 467c42 0 66 28 66 56v6c-38 -2 -81 -6 -91 -10
c-16 -8 -17 -13 -17 -24c0 -10 7 -28 42 -28z" />
    <glyph glyph-name="ordmasculine" unicode="&#xba;" horiz-adv-x="330" 
d="M165 470c36 0 53 24 53 54v56c0 30 -17 54 -53 54s-53 -24 -53 -54v-56c0 -30 17 -54 53 -54zM165 395c-104 0 -138 70 -138 145v24c0 74 34 144 138 144s138 -70 138 -144v-24c0 -75 -34 -145 -138 -145z" />
    <glyph glyph-name="Omega" unicode="&#x2126;" horiz-adv-x="600" 
d="M541 0h-191v192c51 16 94 58 94 133v138c0 98 -74 141 -144 141s-144 -43 -144 -141v-138c0 -75 43 -117 94 -133v-192h-191v106h84v19c-59 42 -94 112 -94 200v138c0 151 101 247 251 247s251 -96 251 -247v-138c0 -89 -35 -159 -94 -201v-18h84v-106z" />
    <glyph glyph-name="ae" unicode="&#xe6;" horiz-adv-x="856" 
d="M481 223v-17c0 -78 45 -115 110 -115c52 0 91 24 105 73h107c-18 -137 -129 -174 -212 -174c-64 0 -145 22 -187 95c-45 -74 -107 -95 -182 -95c-94 0 -176 47 -176 153c0 59 26 128 112 155c62 19 130 24 217 30c-5 68 -48 101 -109 101c-52 0 -91 -24 -105 -73h-107
c18 137 129 174 212 174c53 0 120 -15 162 -73c46 60 110 73 163 73c90 0 215 -44 215 -214v-93h-325zM239 91c60 0 137 19 137 115v29c-92 -6 -162 -12 -200 -35c-13 -8 -25 -22 -25 -48c0 -42 32 -61 88 -61zM591 429c-65 0 -110 -37 -110 -113h220
c-1 76 -46 113 -110 113z" />
    <glyph glyph-name="oslash" unicode="&#xf8;" horiz-adv-x="546" 
d="M58 204v112c0 170 125 214 215 214c40 0 87 -9 127 -34l34 48l54 -38l-39 -55c24 -32 39 -76 39 -135v-112c0 -170 -125 -214 -215 -214c-41 0 -88 9 -128 33l-33 -47l-54 38l39 54c-24 32 -39 76 -39 136zM163 206c0 -14 1 -27 4 -39l173 244c-18 12 -41 18 -67 18
c-65 0 -110 -37 -110 -115v-108zM383 206v108c0 14 -1 27 -4 38l-173 -243c18 -12 41 -18 67 -18c65 0 110 37 110 115z" />
    <glyph glyph-name="questiondown" unicode="&#xbf;" horiz-adv-x="498" 
d="M367 16h105c-2 -166 -126 -210 -215 -210c-90 0 -215 44 -215 214c0 69 37 128 84 171l52 48c24 22 31 32 31 55v12h105v-22c0 -46 -12 -69 -61 -113l-52 -48c-26 -24 -54 -58 -54 -101c0 -78 45 -115 110 -115c63 0 108 35 110 109zM190 382v134h134v-134h-134z" />
    <glyph glyph-name="exclamdown" unicode="&#xa1;" horiz-adv-x="262" 
d="M184 306v-490h-105v490h105zM64 382v134h134v-134h-134z" />
    <glyph glyph-name="logicalnot" unicode="&#xac;" 
d="M64 326h430v-261h-91v170h-339v91z" />
    <glyph glyph-name="radical" unicode="&#x221a;" horiz-adv-x="538" 
d="M289 0l210 700h-95l-175 -584l-55 184h-135v-94h68l62 -206h120z" />
    <glyph glyph-name="florin" unicode="&#x192;" horiz-adv-x="486" 
d="M293 450l-106 -511c-17 -81 -62 -123 -148 -123h-55l21 101h25c41 0 50 11 58 49l100 484h-73l14 66h73l13 61c17 81 62 123 148 123h109l-21 -101h-79c-41 0 -50 -11 -58 -49l-7 -34h127l-14 -66h-127z" />
    <glyph glyph-name="approxequal" unicode="&#x2248;" 
d="M122 317l-58 64c50 52 93 73 137 73c61 0 113 -46 152 -46c28 0 49 10 83 46l58 -64c-50 -52 -93 -73 -137 -73c-61 0 -113 46 -152 46c-28 0 -49 -10 -83 -46zM122 96l-58 64c50 52 93 73 137 73c61 0 113 -46 152 -46c28 0 49 10 83 46l58 -64
c-50 -52 -93 -73 -137 -73c-61 0 -113 46 -152 46c-28 0 -49 -10 -83 -46z" />
    <glyph glyph-name="Delta" unicode="&#x2206;" horiz-adv-x="616" 
d="M363 700l245 -700h-600l245 700h110zM308 546l-153 -440h306z" />
    <glyph glyph-name="guillemotleft" unicode="&#xab;" horiz-adv-x="486" 
d="M51 226l172 -151v126l-82 72l82 72v126l-172 -151v-94zM255 226l172 -151v126l-82 72l82 72v126l-172 -151v-94z" />
    <glyph glyph-name="guillemotright" unicode="&#xbb;" horiz-adv-x="486" 
d="M219 226l-172 -151v126l82 72l-82 72v126l172 -151v-94zM423 226l-172 -151v126l82 72l-82 72v126l172 -151v-94z" />
    <glyph glyph-name="ellipsis" unicode="&#x2026;" horiz-adv-x="834" 
d="M350 0v134h134v-134h-134zM628 0v134h134v-134h-134zM72 0v134h134v-134h-134z" />
    <glyph glyph-name="Agrave" unicode="&#xc0;" horiz-adv-x="616" 
d="M498 0l-59 169h-262l-59 -169h-110l245 700h110l245 -700h-110zM211 268h194l-97 278zM293 854h-137l128 -109h91z" />
    <glyph glyph-name="Atilde" unicode="&#xc3;" horiz-adv-x="616" 
d="M498 0l-59 169h-262l-59 -169h-110l245 700h110l245 -700h-110zM211 268h194l-97 278zM248 859c17 0 34 0 52 -8l38 -16c7 -3 14 -6 20 -6c13 0 23 9 30 28h91c-17 -100 -78 -116 -111 -116c-17 0 -34 0 -52 8l-38 16c-7 3 -14 6 -20 6c-13 0 -23 -9 -30 -28h-91
c17 100 78 116 111 116z" />
    <glyph glyph-name="Otilde" unicode="&#xd5;" horiz-adv-x="608" 
d="M448 237v226c0 98 -74 141 -144 141s-144 -43 -144 -141v-226c0 -98 74 -141 144 -141s144 43 144 141zM53 237v226c0 151 101 247 251 247s251 -96 251 -247v-226c0 -151 -101 -247 -251 -247s-251 96 -251 247zM244 859c17 0 34 0 52 -8l38 -16c7 -3 14 -6 20 -6
c13 0 23 9 30 28h91c-17 -100 -78 -116 -111 -116c-17 0 -34 0 -52 8l-38 16c-7 3 -14 6 -20 6c-13 0 -23 -9 -30 -28h-91c17 100 78 116 111 116z" />
    <glyph glyph-name="OE" unicode="&#x152;" horiz-adv-x="919" 
d="M448 237v226c0 98 -74 141 -144 141s-144 -43 -144 -141v-226c0 -98 74 -141 144 -141s144 43 144 141zM448 0v40c-34 -33 -84 -50 -144 -50c-150 0 -251 96 -251 247v226c0 151 101 247 251 247c60 0 110 -17 144 -50v40h413v-106h-306v-188h306v-106h-306v-194h306
v-106h-413z" />
    <glyph glyph-name="oe" unicode="&#x153;" horiz-adv-x="860" 
d="M485 223v-17c0 -78 45 -115 110 -115c52 0 91 24 105 73h107c-18 -137 -129 -174 -212 -174c-53 0 -117 13 -163 73c-42 -58 -109 -73 -162 -73c-90 0 -215 44 -215 214v112c0 170 125 214 215 214c53 0 120 -15 162 -73c46 60 110 73 163 73c90 0 215 -44 215 -214v-93
h-325zM380 206v108c0 78 -45 115 -110 115s-110 -37 -110 -115v-108c0 -78 45 -115 110 -115s110 37 110 115zM595 429c-65 0 -110 -37 -110 -113h220c-1 76 -46 113 -110 113z" />
    <glyph glyph-name="endash" unicode="&#x2013;" horiz-adv-x="528" 
d="M49 326h430v-91h-430v91z" />
    <glyph glyph-name="emdash" unicode="&#x2014;" horiz-adv-x="833" 
d="M49 326h735v-91h-735v91z" />
    <glyph glyph-name="quotedblleft" unicode="&#x201c;" horiz-adv-x="459" 
d="M196 596v-134h-134v134l39 104h79l-39 -104h55zM397 596v-134h-134v134l39 104h79l-39 -104h55z" />
    <glyph glyph-name="quotedblright" unicode="&#x201d;" horiz-adv-x="459" 
d="M263 566v134h134v-134l-39 -104h-79l39 104h-55zM62 566v134h134v-134l-39 -104h-79l39 104h-55z" />
    <glyph glyph-name="quoteleft" unicode="&#x2018;" horiz-adv-x="258" 
d="M196 596v-134h-134v134l39 104h79l-39 -104h55z" />
    <glyph glyph-name="quoteright" unicode="&#x2019;" horiz-adv-x="258" 
d="M62 566v134h134v-134l-39 -104h-79l39 104h-55z" />
    <glyph glyph-name="divide" unicode="&#xf7;" 
d="M212 454c0 37 30 67 67 67s67 -30 67 -67s-30 -67 -67 -67s-67 30 -67 67zM212 107c0 37 30 67 67 67s67 -30 67 -67s-30 -67 -67 -67s-67 30 -67 67zM64 326h430v-91h-430v91z" />
    <glyph glyph-name="lozenge" unicode="&#x25ca;" horiz-adv-x="566" 
d="M527 350l-203 -350h-82l-203 350l203 350h82zM145 350l138 -238l138 238l-138 238z" />
    <glyph glyph-name="ydieresis" unicode="&#xff;" horiz-adv-x="476" 
d="M476 516l-229 -635c-15 -43 -52 -65 -114 -65h-54v101h21c51 0 53 9 70 52l14 38l-184 509h109l129 -367l129 367h109zM194 689v-107h-105v107h105zM387 689v-107h-105v107h105z" />
    <glyph glyph-name="Ydieresis" unicode="&#x178;" horiz-adv-x="594" 
d="M350 267l247 433h-118l-182 -322l-182 322h-118l246 -433v-267h107v267zM255 853v-107h-107v107h107zM446 853v-107h-107v107h107z" />
    <glyph glyph-name="fraction" unicode="&#x2044;" horiz-adv-x="74" 
d="M230 700h95l-481 -700h-95z" />
    <glyph glyph-name="Euro" unicode="&#x20ac;" horiz-adv-x="599" 
d="M41 252h77v-15c0 -151 101 -247 251 -247c74 0 136 23 180 65l-73 79c-28 -29 -68 -43 -107 -43c-72 0 -146 47 -146 146v15h209l17 66h-226v65h243l17 66h-260v14c0 99 74 146 146 146c39 0 79 -14 107 -43l73 79c-44 42 -106 65 -180 65c-150 0 -251 -96 -251 -247v-14
h-63l-17 -66h80v-65h-60z" />
    <glyph glyph-name="guilsinglleft" unicode="&#x2039;" horiz-adv-x="282" 
d="M51 226l172 -151v126l-82 72l82 72v126l-172 -151v-94z" />
    <glyph glyph-name="guilsinglright" unicode="&#x203a;" horiz-adv-x="282" 
d="M231 226l-172 -151v126l82 72l-82 72v126l172 -151v-94z" />
    <glyph glyph-name="daggerdbl" unicode="&#x2021;" horiz-adv-x="597" 
d="M84 516h167v184h95v-184h167v-91h-167v-237h167v-91h-167v-184h-95v184h-167v91h167v237h-167v91z" />
    <glyph glyph-name="periodcentered" unicode="&#xb7;" horiz-adv-x="302" 
d="M84 223v134h134v-134h-134z" />
    <glyph glyph-name="quotesinglbase" unicode="&#x201a;" horiz-adv-x="258" 
d="M62 0v134h134v-134l-39 -104h-79l39 104h-55z" />
    <glyph glyph-name="quotedblbase" unicode="&#x201e;" horiz-adv-x="459" 
d="M62 0v134h134v-134l-39 -104h-79l39 104h-55zM263 0v134h134v-134l-39 -104h-79l39 104h-55z" />
    <glyph glyph-name="perthousand" unicode="&#x2030;" horiz-adv-x="1202" 
d="M200 363c36 0 53 24 53 54v160c0 30 -17 54 -53 54s-53 -24 -53 -54v-160c0 -30 17 -54 53 -54zM200 288c-104 0 -138 70 -138 145v128c0 75 34 145 138 145s138 -70 138 -145v-128c0 -75 -34 -145 -138 -145zM631 700h95l-481 -700h-95zM675 69c36 0 53 24 53 54v160
c0 30 -17 54 -53 54s-53 -24 -53 -54v-160c0 -30 17 -54 53 -54zM675 -6c-104 0 -138 70 -138 145v128c0 75 34 145 138 145s138 -70 138 -145v-128c0 -75 -34 -145 -138 -145zM1002 69c36 0 53 24 53 54v160c0 30 -17 54 -53 54s-53 -24 -53 -54v-160c0 -30 17 -54 53 -54z
M1002 -6c-104 0 -138 70 -138 145v128c0 75 34 145 138 145s138 -70 138 -145v-128c0 -75 -34 -145 -138 -145z" />
    <glyph glyph-name="Acircumflex" unicode="&#xc2;" horiz-adv-x="616" 
d="M498 0l-59 169h-262l-59 -169h-110l245 700h110l245 -700h-110zM211 268h194l-97 278zM308 781l44 -36h130l-132 109h-84l-132 -109h130z" />
    <glyph glyph-name="Ecircumflex" unicode="&#xca;" horiz-adv-x="545" 
d="M181 594v-188h306v-106h-306v-194h306v-106h-413v700h413v-106h-306zM280 781l44 -36h130l-132 109h-84l-132 -109h130z" />
    <glyph glyph-name="Aacute" unicode="&#xc1;" horiz-adv-x="616" 
d="M498 0l-59 169h-262l-59 -169h-110l245 700h110l245 -700h-110zM211 268h194l-97 278zM317 854h137l-128 -109h-91z" />
    <glyph glyph-name="Edieresis" unicode="&#xcb;" horiz-adv-x="545" 
d="M181 594v-188h306v-106h-306v-194h306v-106h-413v700h413v-106h-306zM238 853v-107h-107v107h107zM429 853v-107h-107v107h107z" />
    <glyph glyph-name="Egrave" unicode="&#xc8;" horiz-adv-x="545" 
d="M181 594v-188h306v-106h-306v-194h306v-106h-413v700h413v-106h-306zM265 854h-137l128 -109h91z" />
    <glyph glyph-name="Iacute" unicode="&#xcd;" horiz-adv-x="255" 
d="M181 700v-700h-107v700h107zM136 854h137l-128 -109h-91z" />
    <glyph glyph-name="Icircumflex" unicode="&#xce;" horiz-adv-x="255" 
d="M181 700v-700h-107v700h107zM127 781l44 -36h130l-132 109h-84l-132 -109h130z" />
    <glyph glyph-name="Idieresis" unicode="&#xcf;" horiz-adv-x="255" 
d="M181 700v-700h-107v700h107zM85 853v-107h-107v107h107zM276 853v-107h-107v107h107z" />
    <glyph glyph-name="Igrave" unicode="&#xcc;" horiz-adv-x="255" 
d="M181 700v-700h-107v700h107zM112 854h-137l128 -109h91z" />
    <glyph glyph-name="Oacute" unicode="&#xd3;" horiz-adv-x="608" 
d="M448 237v226c0 98 -74 141 -144 141s-144 -43 -144 -141v-226c0 -98 74 -141 144 -141s144 43 144 141zM53 237v226c0 151 101 247 251 247s251 -96 251 -247v-226c0 -151 -101 -247 -251 -247s-251 96 -251 247zM313 854h137l-128 -109h-91z" />
    <glyph glyph-name="Ocircumflex" unicode="&#xd4;" horiz-adv-x="608" 
d="M448 237v226c0 98 -74 141 -144 141s-144 -43 -144 -141v-226c0 -98 74 -141 144 -141s144 43 144 141zM53 237v226c0 151 101 247 251 247s251 -96 251 -247v-226c0 -151 -101 -247 -251 -247s-251 96 -251 247zM304 781l44 -36h130l-132 109h-84l-132 -109h130z" />
    <glyph glyph-name="apple" horiz-adv-x="616" 
d="M158 26c-37 8 -49 32 -49 78v256c-18 0 -31 9 -37 24c-15 6 -24 19 -24 37c0 11 4 21 11 28c-22 11 -36 33 -36 59c0 25 14 48 36 59c-7 7 -11 17 -11 28c0 20 13 37 32 40c8 27 33 48 63 48c16 0 32 -7 44 -17c9 25 33 44 61 44c23 0 43 -13 55 -31c8 4 18 7 29 7
c25 0 48 -15 59 -37c7 7 17 12 28 12c17 0 31 -10 37 -24c29 -7 51 -34 51 -64c0 -25 -14 -46 -34 -57v-38h4c62 0 80 -23 80 -80v-215c0 -57 -18 -80 -80 -80h-4c0 -46 -12 -69 -49 -77v-26h-266v26zM424 104v406c-11 3 -21 9 -29 17h-83c-12 -12 -28 -19 -46 -19
c-22 0 -41 10 -53 27c-5 -2 -10 -3 -16 -3c-12 0 -22 4 -29 11c-3 -5 -6 -10 -10 -15v-424c0 -25 8 -34 32 -34h202c24 0 32 9 32 34zM88 462v-19c-13 0 -21 -11 -21 -22c0 -12 9 -21 21 -21c0 -12 9 -21 21 -21v147c25 0 45 18 47 42v4h19c0 -13 10 -21 22 -21s21 9 21 21
h19c0 -10 -4 -19 -9 -26c8 -12 22 -19 38 -19c26 0 47 20 47 46h82c0 -26 20 -46 46 -46s47 20 47 46s-21 47 -47 47c0 12 -10 22 -22 22c-11 0 -21 -8 -21 -22h-19c0 26 -21 47 -47 47c-20 0 -37 -13 -43 -30c16 -5 28 -20 28 -38h-19c0 12 -10 21 -22 21s-21 -9 -21 -21
h-19c0 20 14 36 33 39c4 12 10 22 19 30c-8 14 -24 23 -40 23c-25 0 -45 -20 -46 -45c4 -9 7 -19 7 -29h-19c0 26 -21 47 -47 47c-20 0 -37 -12 -43 -30c17 -5 29 -20 29 -39h-19c0 12 -10 22 -22 22s-21 -10 -21 -22c0 -11 7 -20 17 -21h4v-19h-4c-24 -2 -42 -22 -42 -47
s18 -45 42 -46h4zM508 183v215c0 25 -8 34 -31 34h-4v-283h4c23 0 31 9 31 34zM199 103v375h15v-375h-15zM367 103v375h15v-375h-15zM311 103v375h15v-375h-15zM255 103v375h15v-375h-15z" />
    <glyph glyph-name="Ograve" unicode="&#xd2;" horiz-adv-x="608" 
d="M448 237v226c0 98 -74 141 -144 141s-144 -43 -144 -141v-226c0 -98 74 -141 144 -141s144 43 144 141zM53 237v226c0 151 101 247 251 247s251 -96 251 -247v-226c0 -151 -101 -247 -251 -247s-251 96 -251 247zM289 854h-137l128 -109h91z" />
    <glyph glyph-name="Uacute" unicode="&#xda;" horiz-adv-x="632" 
d="M460 237v463h107v-463c0 -151 -101 -247 -251 -247s-251 96 -251 247v463h107v-463c0 -98 74 -141 144 -141s144 43 144 141zM325 854h137l-128 -109h-91z" />
    <glyph glyph-name="Ucircumflex" unicode="&#xdb;" horiz-adv-x="632" 
d="M460 237v463h107v-463c0 -151 -101 -247 -251 -247s-251 96 -251 247v463h107v-463c0 -98 74 -141 144 -141s144 43 144 141zM316 781l44 -36h130l-132 109h-84l-132 -109h130z" />
    <glyph glyph-name="Ugrave" unicode="&#xd9;" horiz-adv-x="632" 
d="M460 237v463h107v-463c0 -151 -101 -247 -251 -247s-251 96 -251 247v463h107v-463c0 -98 74 -141 144 -141s144 43 144 141zM301 854h-137l128 -109h91z" />
    <glyph glyph-name="dotlessi" unicode="&#x131;" horiz-adv-x="243" 
d="M174 516v-516h-105v516h105z" />
    <glyph glyph-name="circumflex" unicode="&#x2c6;" horiz-adv-x="452" 
d="M268 700l132 -129h-117l-57 56l-57 -56h-117l132 129h84z" />
    <glyph glyph-name="tilde" unicode="&#x2dc;" horiz-adv-x="452" 
d="M139 579h-84c17 100 78 116 111 116c17 0 34 -1 52 -9l38 -16c7 -3 16 -7 27 -7c12 0 22 7 30 30h84c-17 -100 -78 -116 -111 -116c-17 0 -34 1 -52 9l-38 16c-7 3 -16 7 -27 7c-12 0 -22 -7 -30 -30z" />
    <glyph glyph-name="macron" unicode="&#xaf;" horiz-adv-x="438" 
d="M58 678h322v-85h-322v85z" />
    <glyph glyph-name="breve" unicode="&#x2d8;" horiz-adv-x="414" 
d="M172 571c-71 0 -129 58 -129 129h79c0 -28 22 -50 50 -50h70c28 0 50 22 50 50h79c0 -71 -58 -129 -129 -129h-70z" />
    <glyph glyph-name="dotaccent" unicode="&#x2d9;" horiz-adv-x="201" 
d="M153 689v-107h-105v107h105z" />
    <glyph glyph-name="ring" unicode="&#x2da;" horiz-adv-x="233" 
d="M42 635c0 41 33 75 74 75s75 -34 75 -75s-34 -74 -75 -74s-74 33 -74 74zM93 635c0 -13 10 -23 23 -23s23 10 23 23s-10 23 -23 23s-23 -10 -23 -23z" />
    <glyph glyph-name="cedilla" unicode="&#xb8;" horiz-adv-x="271" 
d="M49 -158l65 158h86l-38 -158h-113z" />
    <glyph glyph-name="hungarumlaut" unicode="&#x2dd;" horiz-adv-x="470" 
d="M118 700h130l-108 -129h-79zM293 700h130l-108 -129h-79z" />
    <glyph glyph-name="ogonek" unicode="&#x2db;" horiz-adv-x="260" 
d="M121 0h105c-42 -30 -82 -59 -82 -84c0 -19 12 -26 27 -26c19 0 42 10 55 17v-78c-26 -11 -58 -18 -88 -18c-52 0 -99 22 -99 86c0 48 37 81 82 103z" />
    <glyph glyph-name="caron" unicode="&#x2c7;" horiz-adv-x="452" 
d="M268 571l132 129h-117l-57 -56l-57 56h-117l132 -129h84z" />
    <glyph glyph-name="horn" horiz-adv-x="213" 
d="M34 369v79c20 1 35 15 35 33c0 7 -2 14 -7 21l99 28c9 -19 13 -37 13 -54c0 -65 -55 -107 -140 -107z" />
    <glyph glyph-name="commaaccent" unicode="&#xf6c3;" horiz-adv-x="282" 
d="M79 -174v124h124v-124l-29 -94h-79l29 94h-45z" />
    <glyph glyph-name="circumflex.case" horiz-adv-x="452" 
d="M226 781l44 -36h130l-132 109h-84l-132 -109h130z" />
    <glyph glyph-name="tilde.case" horiz-adv-x="452" 
d="M166 859c17 0 34 0 52 -8l38 -16c7 -3 14 -6 20 -6c13 0 23 9 30 28h91c-17 -100 -78 -116 -111 -116c-17 0 -34 0 -52 8l-38 16c-7 3 -14 6 -20 6c-13 0 -23 -9 -30 -28h-91c17 100 78 116 111 116z" />
    <glyph glyph-name="macron.case" horiz-adv-x="438" 
d="M58 843h322v-87h-322v87z" />
    <glyph glyph-name="breve.case" horiz-adv-x="414" 
d="M290 854h81c0 -61 -48 -109 -109 -109h-110c-61 0 -109 48 -109 109h81c0 -16 12 -28 28 -28h110c16 0 28 12 28 28z" />
    <glyph glyph-name="dotaccent.case" horiz-adv-x="203" 
d="M155 853v-107h-107v107h107z" />
    <glyph glyph-name="ring.case" horiz-adv-x="233" 
d="M42 799c0 41 33 75 74 75s75 -34 75 -75s-34 -74 -75 -74s-74 33 -74 74zM95 799c0 -12 9 -21 21 -21s21 9 21 21s-9 21 -21 21s-21 -9 -21 -21z" />
    <glyph glyph-name="cedilla.case" horiz-adv-x="273" 
d="M49 -158l60 158h93l-38 -158h-115z" />
    <glyph glyph-name="hungarumlaut.case" horiz-adv-x="487" 
d="M133 854h132l-118 -109h-86zM308 854h132l-118 -109h-86z" />
    <glyph glyph-name="ogonek.case" horiz-adv-x="262" 
d="M121 0h107c-42 -30 -82 -59 -82 -84c0 -19 12 -24 27 -24c19 0 42 10 55 17v-80c-26 -11 -58 -18 -88 -18c-52 0 -101 22 -101 86c0 48 37 81 82 103z" />
    <glyph glyph-name="caron.case" horiz-adv-x="452" 
d="M226 818l44 36h130l-132 -109h-84l-132 109h130z" />
    <glyph glyph-name="grave.case" horiz-adv-x="326" 
d="M184 854h-137l128 -109h91z" />
    <glyph glyph-name="acute.case" horiz-adv-x="326" 
d="M142 854h137l-128 -109h-91z" />
    <glyph glyph-name="dieresis.case" horiz-adv-x="420" 
d="M168 853v-107h-107v107h107zM359 853v-107h-107v107h107z" />
    <glyph glyph-name="longs" unicode="&#x17f;" horiz-adv-x="290" 
d="M301 599h-79c-41 0 -48 -11 -48 -49v-550h-105v577c0 81 37 123 123 123h109v-101z" />
    <glyph glyph-name="a.alt" horiz-adv-x="554" 
d="M160 206v108c0 78 45 114 110 114s110 -36 110 -114v-108c0 -78 -52 -114 -117 -114c-58 0 -103 36 -103 114zM55 316v-112c0 -159 116 -214 205 -214c54 0 105 29 120 59v-49h105v516h-105v-45c-15 30 -66 59 -120 59c-89 0 -205 -55 -205 -214z" />
    <glyph glyph-name="aacute.alt" horiz-adv-x="554" 
d="M160 206v108c0 78 45 114 110 114s110 -36 110 -114v-108c0 -78 -52 -114 -117 -114c-58 0 -103 36 -103 114zM55 316v-112c0 -159 116 -214 205 -214c54 0 105 29 120 59v-49h105v516h-105v-45c-15 30 -66 59 -120 59c-89 0 -205 -55 -205 -214zM270 700h135l-118 -129
h-84z" />
    <glyph glyph-name="abreve.alt" horiz-adv-x="554" 
d="M160 206v108c0 78 45 114 110 114s110 -36 110 -114v-108c0 -78 -52 -114 -117 -114c-58 0 -103 36 -103 114zM55 316v-112c0 -159 116 -214 205 -214c54 0 105 29 120 59v-49h105v516h-105v-45c-15 30 -66 59 -120 59c-89 0 -205 -55 -205 -214zM250 571
c-71 0 -129 58 -129 129h79c0 -28 22 -50 50 -50h70c28 0 50 22 50 50h79c0 -71 -58 -129 -129 -129h-70z" />
    <glyph glyph-name="acircumflex.alt" horiz-adv-x="554" 
d="M160 206v108c0 78 45 114 110 114s110 -36 110 -114v-108c0 -78 -52 -114 -117 -114c-58 0 -103 36 -103 114zM55 316v-112c0 -159 116 -214 205 -214c54 0 105 29 120 59v-49h105v516h-105v-45c-15 30 -66 59 -120 59c-89 0 -205 -55 -205 -214zM312 700l132 -129h-117
l-57 56l-57 -56h-117l132 129h84z" />
    <glyph glyph-name="adieresis.alt" horiz-adv-x="554" 
d="M160 206v108c0 78 45 114 110 114s110 -36 110 -114v-108c0 -78 -52 -114 -117 -114c-58 0 -103 36 -103 114zM55 316v-112c0 -159 116 -214 205 -214c54 0 105 29 120 59v-49h105v516h-105v-45c-15 30 -66 59 -120 59c-89 0 -205 -55 -205 -214zM226 689v-107h-105v107
h105zM419 689v-107h-105v107h105z" />
    <glyph glyph-name="agrave.alt" horiz-adv-x="554" 
d="M160 206v108c0 78 45 114 110 114s110 -36 110 -114v-108c0 -78 -52 -114 -117 -114c-58 0 -103 36 -103 114zM55 316v-112c0 -159 116 -214 205 -214c54 0 105 29 120 59v-49h105v516h-105v-45c-15 30 -66 59 -120 59c-89 0 -205 -55 -205 -214zM270 700h-135l118 -129
h84z" />
    <glyph glyph-name="amacron.alt" horiz-adv-x="554" 
d="M160 206v108c0 78 45 114 110 114s110 -36 110 -114v-108c0 -78 -52 -114 -117 -114c-58 0 -103 36 -103 114zM55 316v-112c0 -159 116 -214 205 -214c54 0 105 29 120 59v-49h105v516h-105v-45c-15 30 -66 59 -120 59c-89 0 -205 -55 -205 -214zM124 678h322v-85h-322
v85z" />
    <glyph glyph-name="aogonek.alt" horiz-adv-x="554" 
d="M160 206v108c0 78 45 114 110 114s110 -36 110 -114v-108c0 -78 -52 -114 -117 -114c-58 0 -103 36 -103 114zM55 316v-112c0 -159 116 -214 205 -214c54 0 105 29 120 59v-49h105v516h-105v-45c-15 30 -66 59 -120 59c-89 0 -205 -55 -205 -214zM380 0h105
c-42 -30 -82 -59 -82 -84c0 -19 12 -26 27 -26c19 0 42 10 55 17v-78c-26 -11 -58 -18 -88 -18c-52 0 -99 22 -99 86c0 48 37 81 82 103z" />
    <glyph glyph-name="aring.alt" horiz-adv-x="554" 
d="M160 206v108c0 78 45 114 110 114s110 -36 110 -114v-108c0 -78 -52 -114 -117 -114c-58 0 -103 36 -103 114zM55 316v-112c0 -159 116 -214 205 -214c54 0 105 29 120 59v-49h105v516h-105v-45c-15 30 -66 59 -120 59c-89 0 -205 -55 -205 -214zM196 635
c0 41 33 75 74 75s75 -34 75 -75s-34 -74 -75 -74s-74 33 -74 74zM247 635c0 -13 10 -23 23 -23s23 10 23 23s-10 23 -23 23s-23 -10 -23 -23z" />
    <glyph glyph-name="aringacute.alt" horiz-adv-x="554" 
d="M160 206v108c0 78 45 114 110 114s110 -36 110 -114v-108c0 -78 -52 -114 -117 -114c-58 0 -103 36 -103 114zM55 316v-112c0 -159 116 -214 205 -214c54 0 105 29 120 59v-49h105v516h-105v-45c-15 30 -66 59 -120 59c-89 0 -205 -55 -205 -214zM196 635
c0 41 33 75 74 75s75 -34 75 -75s-34 -74 -75 -74s-74 33 -74 74zM247 635c0 -13 10 -23 23 -23s23 10 23 23s-10 23 -23 23s-23 -10 -23 -23zM270 854h135l-118 -129h-84z" />
    <glyph glyph-name="atilde.alt" horiz-adv-x="554" 
d="M160 206v108c0 78 45 114 110 114s110 -36 110 -114v-108c0 -78 -52 -114 -117 -114c-58 0 -103 36 -103 114zM55 316v-112c0 -159 116 -214 205 -214c54 0 105 29 120 59v-49h105v516h-105v-45c-15 30 -66 59 -120 59c-89 0 -205 -55 -205 -214zM183 579h-84
c17 100 78 116 111 116c17 0 34 -1 52 -9l38 -16c7 -3 16 -7 27 -7c12 0 22 7 30 30h84c-17 -100 -78 -116 -111 -116c-17 0 -34 1 -52 9l-38 16c-7 3 -16 7 -27 7c-12 0 -22 -7 -30 -30z" />
    <glyph glyph-name="uni0227.alt" horiz-adv-x="554" 
d="M160 206v108c0 78 45 114 110 114s110 -36 110 -114v-108c0 -78 -52 -114 -117 -114c-58 0 -103 36 -103 114zM55 316v-112c0 -159 116 -214 205 -214c54 0 105 29 120 59v-49h105v516h-105v-45c-15 30 -66 59 -120 59c-89 0 -205 -55 -205 -214zM323 689v-107h-105v107
h105z" />
    <glyph glyph-name="uni1EA1.alt" horiz-adv-x="554" 
d="M160 206v108c0 78 45 114 110 114s110 -36 110 -114v-108c0 -78 -52 -114 -117 -114c-58 0 -103 36 -103 114zM55 316v-112c0 -159 116 -214 205 -214c54 0 105 29 120 59v-49h105v516h-105v-45c-15 30 -66 59 -120 59c-89 0 -205 -55 -205 -214zM323 -50v-107h-105v107
h105z" />
    <glyph glyph-name="l.alt" horiz-adv-x="243" 
d="M174 0v700h-105v-700h105z" />
    <glyph glyph-name="lacute.alt" horiz-adv-x="243" 
d="M174 0v700h-105v-700h105zM121 874h135l-118 -129h-84z" />
    <glyph glyph-name="lcaron.alt" horiz-adv-x="243" 
d="M357 700l-79 -158h-74l28 158h125zM174 0v700h-105v-700h105z" />
    <glyph glyph-name="lcommaaccent.alt" horiz-adv-x="243" 
d="M174 0v700h-105v-700h105zM59 -174v124h124v-124l-29 -94h-79l29 94h-45z" />
    <glyph glyph-name="ldot.alt" horiz-adv-x="330" 
d="M174 0v700h-105v-700h105zM339 403v-107h-105v107h105z" />
    <glyph glyph-name="lslash.alt" horiz-adv-x="259" 
d="M182 0v369l64 36v76l-64 -36v255h-105v-314l-64 -36v-75l64 35v-310h105z" />
    <glyph glyph-name="uni01C9.alt" horiz-adv-x="486" 
d="M174 0v700h-105v-700h105zM417 700v-107h-105v107h105zM312 -34v550h105v-577c0 -81 -37 -123 -123 -123h-46v101h16c41 0 48 11 48 49z" />
    <glyph glyph-name="at.alt" horiz-adv-x="916" 
d="M663 129v387h-105v-45c-15 30 -66 59 -120 59c-89 0 -205 -55 -205 -214v-112c0 -159 116 -214 205 -214c54 0 105 29 120 59c28 -34 81 -59 154 -59c93 0 140 58 140 136v189c0 313 -228 395 -394 395s-394 -82 -394 -395v-114c0 -313 228 -395 394 -395
c76 0 166 17 240 66l-50 83c-58 -41 -129 -55 -190 -55c-126 0 -299 60 -299 298v120c0 238 173 298 299 298s299 -60 299 -298v-189c0 -30 -25 -45 -47 -45s-47 15 -47 45zM338 206v108c0 78 45 114 110 114s110 -36 110 -114v-108c0 -78 -52 -114 -117 -114
c-58 0 -103 36 -103 114z" />
    <glyph glyph-name="f_f_l.alt" horiz-adv-x="913" 
d="M327 599h-79c-41 0 -48 -11 -48 -49v-34h127v-99h-127v-417h-105v417h-73v99h73v61c0 81 37 123 123 123h109v-101zM662 599h-79c-41 0 -48 -11 -48 -49v-34h127v-99h-127v-417h-105v417h-73v99h73v61c0 81 37 123 123 123h109v-101zM844 0v700h-105v-700h105z" />
    <glyph glyph-name="f_l.alt" horiz-adv-x="578" 
d="M327 599h-79c-41 0 -48 -11 -48 -49v-34h127v-99h-127v-417h-105v417h-73v99h73v61c0 81 37 123 123 123h109v-101zM509 0v700h-105v-700h105z" />
    <glyph glyph-name="zero.plf" horiz-adv-x="546" 
d="M383 206v288c0 78 -45 115 -110 115s-110 -37 -110 -115v-288c0 -78 45 -115 110 -115s110 37 110 115zM58 204v292c0 170 125 214 215 214s215 -44 215 -214v-292c0 -170 -125 -214 -215 -214s-215 44 -215 214z" />
    <glyph glyph-name="zeroslashed.plf" horiz-adv-x="546" 
d="M58 204v292c0 170 125 214 215 214s215 -44 215 -214v-292c0 -170 -125 -214 -215 -214s-215 44 -215 214zM383 206v208l-220 -220c4 -70 48 -103 110 -103c65 0 110 37 110 115zM163 494v-207l219 219c-4 70 -48 103 -109 103c-65 0 -110 -37 -110 -115z" />
    <glyph glyph-name="one.plf" horiz-adv-x="359" 
d="M175 700h105v-700h-105v569l-134 -115v131z" />
    <glyph glyph-name="two.plf" horiz-adv-x="519" 
d="M42 496c0 170 125 214 215 214s215 -43 215 -206c0 -84 -32 -139 -100 -209l-187 -194h287v-101h-430v101l251 260c47 49 74 89 74 141c0 72 -45 107 -110 107s-110 -37 -110 -115v-9h-105v11z" />
    <glyph glyph-name="three.plf" horiz-adv-x="525" 
d="M260 91c-63 0 -112 35 -114 108v1h-105v-1c2 -166 128 -209 222 -209c100 0 208 54 208 203c0 66 -32 130 -83 157c49 26 83 84 83 150c0 156 -125 210 -215 210c-89 0 -212 -45 -215 -209v-1h105v1c2 73 47 108 110 108c65 0 110 -45 110 -109c0 -61 -41 -102 -110 -102
h-58v-97h58c63 0 110 -42 110 -108c0 -68 -43 -102 -106 -102z" />
    <glyph glyph-name="four.plf" horiz-adv-x="520" 
d="M498 173h-73v-173h-105v173h-311v97l311 430h105v-430h73v-97zM131 270h189v261z" />
    <glyph glyph-name="five.plf" horiz-adv-x="526" 
d="M383 193v42c0 78 -45 115 -110 115c-48 0 -85 -21 -101 -62h-105v412h394v-101h-289v-184c22 21 70 36 112 36c82 0 204 -44 204 -214v-44c0 -149 -108 -203 -208 -203c-94 0 -219 43 -222 209v1h105v-1c2 -73 51 -108 114 -108s106 34 106 102z" />
    <glyph glyph-name="six.plf" horiz-adv-x="540" 
d="M383 500v1c-2 73 -47 108 -110 108c-65 0 -110 -37 -110 -115v-86c25 21 71 36 117 36c80 0 208 -44 208 -214v-26c0 -170 -125 -214 -215 -214s-215 44 -215 214v292c0 170 125 214 215 214c89 0 213 -43 215 -209v-1h-105zM383 206v22c0 78 -45 115 -110 115
s-110 -37 -110 -115v-22c0 -78 45 -115 110 -115s110 37 110 115z" />
    <glyph glyph-name="seven.plf" horiz-adv-x="454" 
d="M436 599l-216 -599h-111l216 599h-313v101h424v-101z" />
    <glyph glyph-name="eight.plf" horiz-adv-x="538" 
d="M269 -10c89 0 215 50 215 206c0 71 -27 119 -74 156c46 40 67 86 67 154c0 155 -119 204 -208 204s-208 -49 -208 -204c0 -68 21 -114 67 -154c-47 -37 -74 -85 -74 -156c0 -156 126 -206 215 -206zM159 199c0 68 47 107 110 107s110 -40 110 -107
c0 -72 -47 -107 -110 -107s-110 34 -110 107zM372 504c0 -67 -46 -105 -105 -105c-58 0 -101 38 -101 105s43 105 101 105c59 0 105 -38 105 -105z" />
    <glyph glyph-name="nine.plf" horiz-adv-x="540" 
d="M52 200h105v-1c2 -73 47 -108 110 -108c65 0 110 37 110 115v86c-25 -21 -71 -36 -117 -36c-80 0 -208 44 -208 214v26c0 170 125 214 215 214s215 -44 215 -214v-292c0 -170 -125 -214 -215 -214c-89 0 -213 43 -215 209v1zM157 494v-22c0 -78 45 -115 110 -115
s110 37 110 115v22c0 78 -45 115 -110 115s-110 -37 -110 -115z" />
    <glyph glyph-name="zero.tlf" 
d="M389 206v288c0 78 -45 115 -110 115s-110 -37 -110 -115v-288c0 -78 45 -115 110 -115s110 37 110 115zM64 204v292c0 170 125 214 215 214s215 -44 215 -214v-292c0 -170 -125 -214 -215 -214s-215 44 -215 214z" />
    <glyph glyph-name="zeroslashed.tlf" 
d="M64 204v292c0 170 125 214 215 214s215 -44 215 -214v-292c0 -170 -125 -214 -215 -214s-215 44 -215 214zM389 206v208l-220 -220c4 -70 48 -103 110 -103c65 0 110 37 110 115zM169 494v-207l219 219c-4 70 -48 103 -109 103c-65 0 -110 -37 -110 -115z" />
    <glyph glyph-name="one.tlf" 
d="M249 700h105v-599h162v-101h-430v101h163v463l-134 -115v136z" />
    <glyph glyph-name="two.tlf" 
d="M62 496c0 170 125 214 215 214s215 -43 215 -206c0 -84 -32 -139 -100 -209l-187 -194h287v-101h-430v101l251 260c47 49 74 89 74 141c0 72 -45 107 -110 107s-110 -37 -110 -115v-9h-105v11z" />
    <glyph glyph-name="three.tlf" 
d="M276 91c-63 0 -112 35 -114 108v1h-105v-1c2 -166 128 -209 222 -209c100 0 208 54 208 203c0 66 -32 130 -83 157c49 26 83 84 83 150c0 156 -125 210 -215 210c-89 0 -212 -45 -215 -209v-1h105v1c2 73 47 108 110 108c65 0 110 -45 110 -109c0 -61 -41 -102 -110 -102
h-58v-97h58c63 0 110 -42 110 -108c0 -68 -43 -102 -106 -102z" />
    <glyph glyph-name="four.tlf" 
d="M512 173h-73v-173h-105v173h-311v97l311 430h105v-430h73v-97zM145 270h189v261z" />
    <glyph glyph-name="five.tlf" 
d="M403 193v42c0 78 -45 115 -110 115c-48 0 -85 -21 -101 -62h-105v412h394v-101h-289v-184c22 21 70 36 112 36c82 0 204 -44 204 -214v-44c0 -149 -108 -203 -208 -203c-94 0 -219 43 -222 209v1h105v-1c2 -73 51 -108 114 -108s106 34 106 102z" />
    <glyph glyph-name="six.tlf" 
d="M392 500v1c-2 73 -47 108 -110 108c-65 0 -110 -37 -110 -115v-86c25 21 71 36 117 36c80 0 208 -44 208 -214v-26c0 -170 -125 -214 -215 -214s-215 44 -215 214v292c0 170 125 214 215 214c89 0 213 -43 215 -209v-1h-105zM392 206v22c0 78 -45 115 -110 115
s-110 -37 -110 -115v-22c0 -78 45 -115 110 -115s110 37 110 115z" />
    <glyph glyph-name="seven.tlf" 
d="M483 599l-216 -599h-111l216 599h-313v101h424v-101z" />
    <glyph glyph-name="eight.tlf" 
d="M279 -10c89 0 215 50 215 206c0 71 -27 119 -74 156c46 40 67 86 67 154c0 155 -119 204 -208 204s-208 -49 -208 -204c0 -68 21 -114 67 -154c-47 -37 -74 -85 -74 -156c0 -156 126 -206 215 -206zM169 199c0 68 47 107 110 107s110 -40 110 -107
c0 -72 -47 -107 -110 -107s-110 34 -110 107zM382 504c0 -67 -46 -105 -105 -105c-58 0 -101 38 -101 105s43 105 101 105c59 0 105 -38 105 -105z" />
    <glyph glyph-name="nine.tlf" 
d="M61 200h105v-1c2 -73 47 -108 110 -108c65 0 110 37 110 115v86c-25 -21 -71 -36 -117 -36c-80 0 -208 44 -208 214v26c0 170 125 214 215 214s215 -44 215 -214v-292c0 -170 -125 -214 -215 -214c-89 0 -213 43 -215 209v1zM166 494v-22c0 -78 45 -115 110 -115
s110 37 110 115v22c0 78 -45 115 -110 115s-110 -37 -110 -115z" />
    <glyph glyph-name="slashedzero" horiz-adv-x="546" 
d="M58 204v292c0 170 125 214 215 214s215 -44 215 -214v-292c0 -170 -125 -214 -215 -214s-215 44 -215 214zM383 206v208l-220 -220c4 -70 48 -103 110 -103c65 0 110 37 110 115zM163 494v-207l219 219c-4 70 -48 103 -109 103c-65 0 -110 -37 -110 -115z" />
    <glyph glyph-name="zero.superior" unicode="&#x2070;" horiz-adv-x="333" 
d="M167 470c36 0 53 24 53 54v160c0 30 -17 54 -53 54s-53 -24 -53 -54v-160c0 -30 17 -54 53 -54zM167 395c-104 0 -138 70 -138 145v128c0 75 34 145 138 145s138 -70 138 -145v-128c0 -75 -34 -145 -138 -145z" />
    <glyph glyph-name="zeroslashed.superior" horiz-adv-x="333" 
d="M167 395c-104 0 -138 70 -138 145v128c0 75 34 145 138 145s138 -70 138 -145v-128c0 -75 -34 -145 -138 -145zM167 470c36 0 53 24 53 54v97l-106 -105c3 -26 20 -46 53 -46zM114 684v-97l105 106c-3 26 -20 45 -52 45c-36 0 -53 -24 -53 -54z" />
    <glyph glyph-name="one.superior" unicode="&#xb9;" horiz-adv-x="222" 
d="M96 401v293l-77 -67v112l77 68h85v-406h-85z" />
    <glyph glyph-name="two.superior" unicode="&#xb2;" horiz-adv-x="318" 
d="M19 401v75l165 154c23 22 27 36 27 54c0 30 -17 54 -53 54s-54 -24 -54 -54v-6h-85c4 68 38 135 139 135c98 0 138 -63 138 -128c0 -54 -19 -85 -60 -122l-94 -87h154v-75h-277z" />
    <glyph glyph-name="three.superior" unicode="&#xb3;" horiz-adv-x="321" 
d="M157 395c95 0 138 50 138 114c0 29 -15 75 -40 92c30 24 40 60 40 86c0 58 -38 126 -138 126c-96 0 -130 -59 -138 -122h84c3 26 21 47 54 47c36 0 53 -22 53 -56c0 -27 -22 -41 -58 -41h-33v-76h33c35 0 58 -19 58 -49c0 -28 -20 -46 -51 -46c-33 0 -53 21 -56 47h-84
c8 -62 44 -122 138 -122z" />
    <glyph glyph-name="four.superior" unicode="&#x2074;" horiz-adv-x="308" 
d="M173 401v88h-173v74l173 244h85v-244h42v-74h-42v-88h-85zM100 563h73v103z" />
    <glyph glyph-name="five.superior" unicode="&#x2075;" horiz-adv-x="322" 
d="M170 395c-107 0 -133 60 -141 122h84c3 -25 21 -47 52 -47c40 0 55 23 55 49v21c0 30 -17 54 -53 54c-25 0 -41 -10 -48 -29h-85v242h255v-75h-170v-72c10 4 32 9 53 9c101 0 133 -70 133 -145v-15c0 -64 -49 -114 -135 -114z" />
    <glyph glyph-name="six.superior" unicode="&#x2076;" horiz-adv-x="330" 
d="M167 395c-103 0 -138 68 -138 140v133c0 75 34 145 138 145c96 0 129 -60 137 -122h-84c-3 26 -20 47 -53 47c-36 0 -53 -24 -53 -54v-36c7 6 28 17 56 17c101 0 135 -70 135 -138v1c-2 -69 -39 -133 -138 -133zM167 470c36 0 53 24 53 54v12c0 30 -17 54 -53 54
c-35 0 -52 -22 -53 -50v-16c0 -30 17 -54 53 -54z" />
    <glyph glyph-name="seven.superior" unicode="&#x2077;" horiz-adv-x="280" 
d="M60 401l127 331h-185v75h273v-75l-127 -331h-88z" />
    <glyph glyph-name="eight.superior" unicode="&#x2078;" horiz-adv-x="329" 
d="M164 395c90 0 139 57 139 126c0 30 -13 66 -38 85c24 22 33 52 33 83c0 66 -42 124 -134 124c-91 0 -134 -58 -134 -124c0 -31 10 -61 34 -83c-25 -19 -38 -55 -38 -85c0 -69 49 -126 138 -126zM164 470c-31 0 -53 24 -53 50c0 29 22 50 53 50c32 0 53 -21 53 -50
c0 -27 -21 -50 -53 -50zM165 641c-33 0 -50 27 -50 49s17 48 50 48c32 0 48 -26 48 -48s-16 -49 -48 -49z" />
    <glyph glyph-name="nine.superior" unicode="&#x2079;" horiz-adv-x="330" 
d="M163 395c-96 0 -129 60 -137 122h84c3 -26 20 -47 53 -47c36 0 53 24 53 54v36c-7 -6 -28 -17 -56 -17c-99 0 -134 66 -135 133v-2v5v-3v3c2 69 38 134 138 134c103 0 138 -68 138 -140v-133c0 -75 -34 -145 -138 -145zM163 618c35 0 52 22 53 50v16c0 30 -17 54 -53 54
s-53 -24 -53 -54v-12c0 -30 17 -54 53 -54z" />
    <glyph glyph-name="zero.inferior" unicode="&#x2080;" horiz-adv-x="333" 
d="M167 -28c36 0 53 24 53 54v160c0 30 -17 54 -53 54s-53 -24 -53 -54v-160c0 -30 17 -54 53 -54zM167 -103c-104 0 -138 70 -138 145v128c0 75 34 145 138 145s138 -70 138 -145v-128c0 -75 -34 -145 -138 -145z" />
    <glyph glyph-name="zeroslashed.inferior" horiz-adv-x="333" 
d="M167 -103c-104 0 -138 70 -138 145v128c0 75 34 145 138 145s138 -70 138 -145v-128c0 -75 -34 -145 -138 -145zM167 -28c36 0 53 24 53 54v97l-106 -105c3 -26 20 -46 53 -46zM114 186v-97l105 106c-3 26 -20 45 -52 45c-36 0 -53 -24 -53 -54z" />
    <glyph glyph-name="one.inferior" unicode="&#x2081;" horiz-adv-x="222" 
d="M96 -97v293l-77 -67v112l77 68h85v-406h-85z" />
    <glyph glyph-name="two.inferior" unicode="&#x2082;" horiz-adv-x="318" 
d="M19 -97v75l165 154c23 22 27 36 27 54c0 30 -17 54 -53 54s-54 -24 -54 -54v-6h-85c4 68 38 135 139 135c98 0 138 -63 138 -128c0 -54 -19 -85 -60 -122l-94 -87h154v-75h-277z" />
    <glyph glyph-name="three.inferior" unicode="&#x2083;" horiz-adv-x="321" 
d="M157 -103c95 0 138 50 138 114c0 29 -15 75 -40 92c30 24 40 60 40 86c0 58 -38 126 -138 126c-96 0 -130 -59 -138 -122h84c3 26 21 47 54 47c36 0 53 -22 53 -56c0 -27 -22 -41 -58 -41h-33v-76h33c35 0 58 -19 58 -49c0 -28 -20 -46 -51 -46c-33 0 -53 21 -56 47h-84
c8 -62 44 -122 138 -122z" />
    <glyph glyph-name="four.inferior" unicode="&#x2084;" horiz-adv-x="308" 
d="M173 -97v88h-173v74l173 244h85v-244h42v-74h-42v-88h-85zM100 65h73v103z" />
    <glyph glyph-name="five.inferior" unicode="&#x2085;" horiz-adv-x="322" 
d="M170 -103c-107 0 -133 60 -141 122h84c3 -25 21 -47 52 -47c40 0 55 23 55 49v21c0 30 -17 54 -53 54c-25 0 -41 -10 -48 -29h-85v242h255v-75h-170v-72c10 4 32 9 53 9c101 0 133 -70 133 -145v-15c0 -64 -49 -114 -135 -114z" />
    <glyph glyph-name="six.inferior" unicode="&#x2086;" horiz-adv-x="330" 
d="M167 -103c-103 0 -138 68 -138 140v133c0 75 34 145 138 145c96 0 129 -60 137 -122h-84c-3 26 -20 47 -53 47c-36 0 -53 -24 -53 -54v-36c7 6 28 17 56 17c101 0 135 -70 135 -138v1c-2 -68 -39 -133 -138 -133zM167 -28c36 0 53 24 53 54v12c0 30 -17 54 -53 54
c-35 0 -52 -22 -53 -50v-16c0 -30 17 -54 53 -54z" />
    <glyph glyph-name="seven.inferior" unicode="&#x2087;" horiz-adv-x="280" 
d="M60 -97l127 331h-185v75h273v-75l-127 -331h-88z" />
    <glyph glyph-name="eight.inferior" unicode="&#x2088;" horiz-adv-x="329" 
d="M164 -103c90 0 139 57 139 126c0 30 -13 66 -38 85c24 22 33 52 33 83c0 66 -42 124 -134 124c-91 0 -134 -58 -134 -124c0 -31 10 -61 34 -83c-25 -19 -38 -55 -38 -85c0 -69 49 -126 138 -126zM164 -28c-31 0 -53 24 -53 50c0 29 22 50 53 50c32 0 53 -21 53 -50
c0 -27 -21 -50 -53 -50zM165 143c-33 0 -50 27 -50 49s17 48 50 48c32 0 48 -26 48 -48s-16 -49 -48 -49z" />
    <glyph glyph-name="nine.inferior" unicode="&#x2089;" horiz-adv-x="330" 
d="M163 -103c-96 0 -129 60 -137 122h84c3 -26 20 -47 53 -47c36 0 53 24 53 54v36c-7 -6 -28 -17 -56 -17c-99 0 -134 66 -135 133v-2v5v-3v3c2 69 38 134 138 134c103 0 138 -68 138 -140v-133c0 -75 -34 -145 -138 -145zM163 120c35 0 52 22 53 50v16c0 30 -17 54 -53 54
s-53 -24 -53 -54v-12c0 -30 17 -54 53 -54z" />
    <glyph glyph-name="zero.denominator" horiz-adv-x="333" 
d="M167 69c36 0 53 24 53 54v160c0 30 -17 54 -53 54s-53 -24 -53 -54v-160c0 -30 17 -54 53 -54zM167 -6c-104 0 -138 70 -138 145v128c0 75 34 145 138 145s138 -70 138 -145v-128c0 -75 -34 -145 -138 -145z" />
    <glyph glyph-name="zeroslashed.denominator" horiz-adv-x="333" 
d="M167 -6c-104 0 -138 70 -138 145v128c0 75 34 145 138 145s138 -70 138 -145v-128c0 -75 -34 -145 -138 -145zM167 69c36 0 53 24 53 54v97l-106 -105c3 -26 20 -46 53 -46zM114 283v-97l105 106c-3 26 -20 45 -52 45c-36 0 -53 -24 -53 -54z" />
    <glyph glyph-name="one.denominator" horiz-adv-x="222" 
d="M96 0v293l-77 -67v112l77 68h85v-406h-85z" />
    <glyph glyph-name="two.denominator" horiz-adv-x="318" 
d="M19 0v75l165 154c23 22 27 36 27 54c0 30 -17 54 -53 54s-54 -24 -54 -54v-6h-85c4 68 38 135 139 135c98 0 138 -63 138 -128c0 -54 -19 -85 -60 -122l-94 -87h154v-75h-277z" />
    <glyph glyph-name="three.denominator" horiz-adv-x="321" 
d="M157 -6c95 0 138 50 138 114c0 29 -15 75 -40 92c30 24 40 60 40 86c0 58 -38 126 -138 126c-96 0 -130 -59 -138 -122h84c3 26 21 47 54 47c36 0 53 -22 53 -56c0 -27 -22 -41 -58 -41h-33v-76h33c35 0 58 -19 58 -49c0 -28 -20 -46 -51 -46c-33 0 -53 21 -56 47h-84
c8 -62 44 -122 138 -122z" />
    <glyph glyph-name="four.denominator" horiz-adv-x="308" 
d="M173 0v88h-173v74l173 244h85v-244h42v-74h-42v-88h-85zM100 162h73v103z" />
    <glyph glyph-name="five.denominator" horiz-adv-x="322" 
d="M170 -6c-107 0 -133 60 -141 122h84c3 -25 21 -47 52 -47c40 0 55 23 55 49v21c0 30 -17 54 -53 54c-25 0 -41 -10 -48 -29h-85v242h255v-75h-170v-72c10 4 32 9 53 9c101 0 133 -70 133 -145v-15c0 -64 -49 -114 -135 -114z" />
    <glyph glyph-name="six.denominator" horiz-adv-x="330" 
d="M167 -6c-103 0 -138 68 -138 140v133c0 75 34 145 138 145c96 0 129 -60 137 -122h-84c-3 26 -20 47 -53 47c-36 0 -53 -24 -53 -54v-36c7 6 28 17 56 17c101 0 135 -70 135 -138v1c-2 -69 -39 -133 -138 -133zM167 69c36 0 53 24 53 54v12c0 30 -17 54 -53 54
c-35 0 -52 -22 -53 -50v-16c0 -30 17 -54 53 -54z" />
    <glyph glyph-name="seven.denominator" horiz-adv-x="280" 
d="M60 0l127 331h-185v75h273v-75l-127 -331h-88z" />
    <glyph glyph-name="eight.denominator" horiz-adv-x="329" 
d="M164 -6c90 0 139 57 139 126c0 30 -13 66 -38 85c24 22 33 52 33 83c0 66 -42 124 -134 124c-91 0 -134 -58 -134 -124c0 -31 10 -61 34 -83c-25 -19 -38 -55 -38 -85c0 -69 49 -126 138 -126zM164 69c-31 0 -53 24 -53 50c0 29 22 50 53 50c32 0 53 -21 53 -50
c0 -27 -21 -50 -53 -50zM165 240c-33 0 -50 27 -50 49s17 48 50 48c32 0 48 -26 48 -48s-16 -49 -48 -49z" />
    <glyph glyph-name="nine.denominator" horiz-adv-x="330" 
d="M163 -6c-96 0 -129 60 -137 122h84c3 -26 20 -47 53 -47c36 0 53 24 53 54v36c-7 -6 -28 -17 -56 -17c-99 0 -134 66 -135 133v-2v5v-3v3c2 69 38 134 138 134c103 0 138 -68 138 -140v-133c0 -75 -34 -145 -138 -145zM163 217c35 0 52 22 53 50v16c0 30 -17 54 -53 54
s-53 -24 -53 -54v-12c0 -30 17 -54 53 -54z" />
    <glyph glyph-name="zero.numerator" horiz-adv-x="333" 
d="M167 363c36 0 53 24 53 54v160c0 30 -17 54 -53 54s-53 -24 -53 -54v-160c0 -30 17 -54 53 -54zM167 288c-104 0 -138 70 -138 145v128c0 75 34 145 138 145s138 -70 138 -145v-128c0 -75 -34 -145 -138 -145z" />
    <glyph glyph-name="zeroslashed.numerator" horiz-adv-x="333" 
d="M167 288c-104 0 -138 70 -138 145v128c0 75 34 145 138 145s138 -70 138 -145v-128c0 -75 -34 -145 -138 -145zM167 363c36 0 53 24 53 54v97l-106 -105c3 -26 20 -46 53 -46zM114 577v-97l105 106c-3 26 -20 45 -52 45c-36 0 -53 -24 -53 -54z" />
    <glyph glyph-name="one.numerator" horiz-adv-x="222" 
d="M96 294v293l-77 -67v112l77 68h85v-406h-85z" />
    <glyph glyph-name="two.numerator" horiz-adv-x="318" 
d="M19 294v75l165 154c23 22 27 36 27 54c0 30 -17 54 -53 54s-54 -24 -54 -54v-6h-85c4 68 38 135 139 135c98 0 138 -63 138 -128c0 -54 -19 -85 -60 -122l-94 -87h154v-75h-277z" />
    <glyph glyph-name="three.numerator" horiz-adv-x="321" 
d="M157 288c95 0 138 50 138 114c0 29 -15 75 -40 92c30 24 40 60 40 86c0 58 -38 126 -138 126c-96 0 -130 -59 -138 -122h84c3 26 21 47 54 47c36 0 53 -22 53 -56c0 -27 -22 -41 -58 -41h-33v-76h33c35 0 58 -19 58 -49c0 -28 -20 -46 -51 -46c-33 0 -53 21 -56 47h-84
c8 -62 44 -122 138 -122z" />
    <glyph glyph-name="four.numerator" horiz-adv-x="308" 
d="M173 294v88h-173v74l173 244h85v-244h42v-74h-42v-88h-85zM100 456h73v103z" />
    <glyph glyph-name="five.numerator" horiz-adv-x="322" 
d="M170 288c-107 0 -133 60 -141 122h84c3 -25 21 -47 52 -47c40 0 55 23 55 49v21c0 30 -17 54 -53 54c-25 0 -41 -10 -48 -29h-85v242h255v-75h-170v-72c10 4 32 9 53 9c101 0 133 -70 133 -145v-15c0 -64 -49 -114 -135 -114z" />
    <glyph glyph-name="six.numerator" horiz-adv-x="330" 
d="M167 288c-103 0 -138 68 -138 140v133c0 75 34 145 138 145c96 0 129 -60 137 -122h-84c-3 26 -20 47 -53 47c-36 0 -53 -24 -53 -54v-36c7 6 28 17 56 17c101 0 135 -70 135 -138v1c-2 -69 -39 -133 -138 -133zM167 363c36 0 53 24 53 54v12c0 30 -17 54 -53 54
c-35 0 -52 -22 -53 -50v-16c0 -30 17 -54 53 -54z" />
    <glyph glyph-name="seven.numerator" horiz-adv-x="280" 
d="M60 294l127 331h-185v75h273v-75l-127 -331h-88z" />
    <glyph glyph-name="eight.numerator" horiz-adv-x="329" 
d="M164 288c90 0 139 57 139 126c0 30 -13 66 -38 85c24 22 33 52 33 83c0 66 -42 124 -134 124c-91 0 -134 -58 -134 -124c0 -31 10 -61 34 -83c-25 -19 -38 -55 -38 -85c0 -69 49 -126 138 -126zM164 363c-31 0 -53 24 -53 50c0 29 22 50 53 50c32 0 53 -21 53 -50
c0 -27 -21 -50 -53 -50zM165 534c-33 0 -50 27 -50 49s17 48 50 48c32 0 48 -26 48 -48s-16 -49 -48 -49z" />
    <glyph glyph-name="nine.numerator" horiz-adv-x="330" 
d="M163 288c-96 0 -129 60 -137 122h84c3 -26 20 -47 53 -47c36 0 53 24 53 54v36c-7 -6 -28 -17 -56 -17c-99 0 -134 66 -135 133v-2v5v-3v3c2 69 38 134 138 134c103 0 138 -68 138 -140v-133c0 -75 -34 -145 -138 -145zM163 511c35 0 52 22 53 50v16c0 30 -17 54 -53 54
s-53 -24 -53 -54v-12c0 -30 17 -54 53 -54z" />
    <glyph glyph-name="a.superior" horiz-adv-x="331" 
d="M134 395c-76 0 -112 37 -112 89c0 48 15 67 52 89c26 15 97 22 139 25c-6 20 -22 36 -51 36c-25 0 -41 -12 -49 -28h-85c13 53 47 102 134 102c104 0 138 -70 138 -144v-163h-85v37c-11 -22 -31 -43 -81 -43zM149 467c42 0 66 28 66 56v6c-38 -2 -81 -6 -91 -10
c-16 -8 -17 -13 -17 -24c0 -10 7 -28 42 -28z" />
    <glyph glyph-name="b.superior" horiz-adv-x="338" 
d="M191 395c-25 0 -55 13 -71 34v-28h-85v406h85v-133c16 22 46 34 71 34c65 0 120 -47 120 -133v-47c0 -86 -55 -133 -120 -133zM173 479c24 0 53 15 53 53v39c0 39 -29 54 -53 54s-53 -15 -53 -54v-39c0 -38 29 -53 53 -53z" />
    <glyph glyph-name="c.superior" horiz-adv-x="323" 
d="M165 395c-104 0 -138 70 -138 145v24c0 74 34 144 138 144c93 0 128 -56 137 -118h-85c-4 25 -20 44 -52 44c-36 0 -53 -24 -53 -54v-56c0 -30 17 -54 53 -54c32 0 49 18 52 44h85c-9 -62 -44 -119 -137 -119z" />
    <glyph glyph-name="d.superior" horiz-adv-x="338" 
d="M148 395c24 0 54 13 70 34v-28h85v406h-85v-133c-16 22 -46 34 -70 34c-66 0 -121 -47 -121 -133v-47c0 -86 55 -133 121 -133zM167 479c-26 0 -55 15 -55 53v39c0 39 29 54 53 54s53 -15 53 -54v-39c0 -38 -27 -53 -51 -53z" />
    <glyph glyph-name="e.superior" horiz-adv-x="327" 
d="M165 395c-104 0 -138 70 -138 145v24c0 74 34 144 138 144s138 -70 138 -144v-43h-191c0 -27 17 -51 53 -51c25 0 41 12 48 28h87c-14 -54 -48 -103 -135 -103zM112 590h105c-3 25 -19 44 -52 44c-32 0 -49 -20 -53 -44z" />
    <glyph glyph-name="f.superior" horiz-adv-x="208" 
d="M50 401v225h-42v74h42v28c0 48 24 79 79 79h80v-75h-55c-16 0 -19 -11 -19 -21v-11h74v-74h-74v-225h-85z" />
    <glyph glyph-name="g.superior" horiz-adv-x="338" 
d="M165 288c-91 0 -126 54 -136 113h84c6 -22 22 -38 52 -38c36 0 53 24 53 54v36c-16 -22 -47 -34 -71 -34c-66 0 -120 47 -120 133v23c0 86 54 133 120 133c24 0 55 -12 71 -34v26h85v-267c0 -74 -34 -145 -138 -145zM165 502c24 0 53 16 53 54v15c0 39 -29 54 -53 54
c-25 0 -53 -15 -53 -54v-15c0 -38 28 -54 53 -54z" />
    <glyph glyph-name="h.superior" horiz-adv-x="342" 
d="M35 401v406h85v-133c16 22 46 34 71 34c65 0 120 -47 120 -133v-174h-85v170c0 39 -29 54 -53 54s-53 -15 -53 -54v-170h-85z" />
    <glyph glyph-name="i.superior" horiz-adv-x="155" 
d="M35 401v299h85v-299h-85zM35 736v71h85v-71h-85z" />
    <glyph glyph-name="j.superior" horiz-adv-x="155" 
d="M-2 294v75h18c16 0 19 12 19 21v310h85v-326c0 -49 -24 -80 -79 -80h-43zM35 736v71h85v-71h-85z" />
    <glyph glyph-name="k.superior" horiz-adv-x="323" 
d="M120 807v-202l87 95h103l-109 -118l124 -181h-100l-81 118l-24 -26v-92h-85v406h85z" />
    <glyph glyph-name="l.superior" horiz-adv-x="172" 
d="M113 401h43v75h-18c-16 0 -19 11 -19 21v310h-85v-327c0 -48 24 -79 79 -79z" />
    <glyph glyph-name="m.superior" horiz-adv-x="529" 
d="M35 401v299h85v-24c18 22 44 32 69 32c33 0 56 -10 77 -37c23 24 48 37 95 37c87 0 137 -48 137 -133v-174h-85v170c0 38 -28 54 -52 54s-52 -16 -52 -54v-170h-85v170c0 38 -28 54 -52 54s-52 -16 -52 -54v-170h-85z" />
    <glyph glyph-name="n.superior" unicode="&#x207f;" horiz-adv-x="342" 
d="M35 401v299h85v-26c16 22 46 34 71 34c65 0 120 -47 120 -133v-174h-85v170c0 39 -29 54 -53 54s-53 -15 -53 -54v-170h-85z" />
    <glyph glyph-name="o.superior" horiz-adv-x="330" 
d="M165 470c36 0 53 24 53 54v56c0 30 -17 54 -53 54s-53 -24 -53 -54v-56c0 -30 17 -54 53 -54zM165 395c-104 0 -138 70 -138 145v24c0 74 34 144 138 144s138 -70 138 -144v-24c0 -75 -34 -145 -138 -145z" />
    <glyph glyph-name="p.superior" horiz-adv-x="338" 
d="M35 294v406h85v-26c16 22 46 34 71 34c65 0 120 -47 120 -133v-47c0 -86 -55 -133 -120 -133c-25 0 -55 13 -71 34v-135h-85zM173 479c24 0 53 15 53 53v39c0 39 -29 54 -53 54s-53 -15 -53 -54v-39c0 -38 29 -53 53 -53z" />
    <glyph glyph-name="q.superior" horiz-adv-x="338" 
d="M218 294v135c-16 -21 -46 -34 -70 -34c-66 0 -121 47 -121 133v47c0 86 55 133 121 133c24 0 54 -12 70 -34v26h85v-406h-85zM167 479c24 0 51 15 51 53v39c0 39 -29 54 -53 54s-53 -15 -53 -54v-39c0 -38 29 -53 55 -53z" />
    <glyph glyph-name="r.superior" horiz-adv-x="223" 
d="M35 401v299h85v-34c9 21 32 40 70 40h23v-84h-40c-24 0 -53 -15 -53 -53v-168h-85z" />
    <glyph glyph-name="s.superior" horiz-adv-x="281" 
d="M145 395c-58 0 -128 31 -131 103h84c3 -19 30 -28 51 -28c8 0 31 1 31 19c0 7 -4 15 -21 18l-66 14c-28 6 -72 34 -72 93c0 58 56 94 117 94c59 0 112 -29 117 -97h-86c-4 15 -17 23 -32 23c-24 0 -30 -10 -31 -18c0 -10 6 -17 17 -19l74 -16c21 -4 68 -26 68 -91
c0 -71 -58 -95 -120 -95z" />
    <glyph glyph-name="t.superior" horiz-adv-x="222" 
d="M128 401h80v75h-55c-16 0 -19 11 -19 21v129h74v74h-74v68h-85v-68h-42v-74h42v-146c0 -48 24 -79 79 -79z" />
    <glyph glyph-name="u.superior" horiz-adv-x="339" 
d="M145 395c-58 0 -114 42 -114 133v172h85v-168c0 -37 28 -53 51 -53c24 0 52 16 52 53v168h85v-299h-85v35c-15 -22 -35 -41 -74 -41z" />
    <glyph glyph-name="v.superior" horiz-adv-x="295" 
d="M103 401l-108 299h90l62 -179l63 179h90l-108 -299h-89z" />
    <glyph glyph-name="w.superior" horiz-adv-x="419" 
d="M78 401l-79 299h89l42 -182l39 182h81l40 -182l41 182h89l-79 -299h-86l-45 209l-46 -209h-86z" />
    <glyph glyph-name="x.superior" horiz-adv-x="304" 
d="M0 401l102 154l-97 145h97l50 -76l49 76h98l-97 -145l102 -154h-99l-53 83l-53 -83h-99z" />
    <glyph glyph-name="y.superior" horiz-adv-x="295" 
d="M41 294v75h42c6 0 9 1 10 4l9 26l-107 301h90l62 -179l63 179h90l-110 -305c-20 -57 -16 -101 -79 -101h-70z" />
    <glyph glyph-name="z.superior" horiz-adv-x="260" 
d="M242 626l-121 -150h125v-75h-232v75l121 150h-117v74h224v-74z" />
    <glyph glyph-name="a.inferior" horiz-adv-x="331" 
d="M134 -103c-76 0 -112 37 -112 89c0 48 15 67 52 89c26 15 97 22 139 25c-6 20 -22 36 -51 36c-25 0 -41 -12 -49 -28h-85c13 53 47 102 134 102c104 0 138 -70 138 -144v-163h-85v37c-11 -22 -31 -43 -81 -43zM149 -31c42 0 66 28 66 56v6c-38 -2 -81 -6 -91 -10
c-16 -8 -17 -13 -17 -24c0 -10 7 -28 42 -28z" />
    <glyph glyph-name="b.inferior" horiz-adv-x="338" 
d="M191 -103c-25 0 -55 13 -71 34v-28h-85v406h85v-133c16 22 46 34 71 34c65 0 120 -47 120 -133v-47c0 -86 -55 -133 -120 -133zM173 -19c24 0 53 15 53 53v39c0 39 -29 54 -53 54s-53 -15 -53 -54v-39c0 -38 29 -53 53 -53z" />
    <glyph glyph-name="c.inferior" horiz-adv-x="323" 
d="M165 -103c-104 0 -138 70 -138 145v24c0 74 34 144 138 144c93 0 128 -56 137 -118h-85c-4 25 -20 44 -52 44c-36 0 -53 -24 -53 -54v-56c0 -30 17 -54 53 -54c32 0 49 18 52 44h85c-9 -62 -44 -119 -137 -119z" />
    <glyph glyph-name="d.inferior" horiz-adv-x="338" 
d="M148 -103c24 0 54 13 70 34v-28h85v406h-85v-133c-16 22 -46 34 -70 34c-66 0 -121 -47 -121 -133v-47c0 -86 55 -133 121 -133zM167 -19c-26 0 -55 15 -55 53v39c0 39 29 54 53 54s53 -15 53 -54v-39c0 -38 -27 -53 -51 -53z" />
    <glyph glyph-name="e.inferior" horiz-adv-x="327" 
d="M165 -103c-104 0 -138 70 -138 145v24c0 74 34 144 138 144s138 -70 138 -144v-43h-191c0 -27 17 -51 53 -51c25 0 41 12 48 28h87c-14 -54 -48 -103 -135 -103zM112 92h105c-3 25 -19 44 -52 44c-32 0 -49 -20 -53 -44z" />
    <glyph glyph-name="f.inferior" horiz-adv-x="208" 
d="M50 -97v225h-42v74h42v28c0 48 24 79 79 79h80v-75h-55c-16 0 -19 -11 -19 -21v-11h74v-74h-74v-225h-85z" />
    <glyph glyph-name="g.inferior" horiz-adv-x="338" 
d="M165 -210c-91 0 -126 54 -136 113h84c6 -22 22 -38 52 -38c36 0 53 24 53 54v36c-16 -22 -47 -34 -71 -34c-66 0 -120 47 -120 133v23c0 86 54 133 120 133c24 0 55 -12 71 -34v26h85v-267c0 -74 -34 -145 -138 -145zM165 4c24 0 53 16 53 54v15c0 39 -29 54 -53 54
c-25 0 -53 -15 -53 -54v-15c0 -38 28 -54 53 -54z" />
    <glyph glyph-name="h.inferior" horiz-adv-x="342" 
d="M35 -97v406h85v-133c16 22 46 34 71 34c65 0 120 -47 120 -133v-174h-85v170c0 39 -29 54 -53 54s-53 -15 -53 -54v-170h-85z" />
    <glyph glyph-name="i.inferior" horiz-adv-x="155" 
d="M35 -97v299h85v-299h-85zM35 238v71h85v-71h-85z" />
    <glyph glyph-name="j.inferior" horiz-adv-x="155" 
d="M-2 -204v75h18c16 0 19 12 19 21v310h85v-326c0 -49 -24 -80 -79 -80h-43zM35 238v71h85v-71h-85z" />
    <glyph glyph-name="k.inferior" horiz-adv-x="323" 
d="M120 309v-202l87 95h103l-109 -118l124 -181h-100l-81 118l-24 -26v-92h-85v406h85z" />
    <glyph glyph-name="l.inferior" horiz-adv-x="172" 
d="M113 -97h43v75h-18c-16 0 -19 11 -19 21v310h-85v-327c0 -48 24 -79 79 -79z" />
    <glyph glyph-name="m.inferior" horiz-adv-x="529" 
d="M35 -97v299h85v-24c18 22 44 32 69 32c33 0 56 -10 77 -37c23 24 48 37 95 37c87 0 137 -48 137 -133v-174h-85v170c0 38 -28 54 -52 54s-52 -16 -52 -54v-170h-85v170c0 38 -28 54 -52 54s-52 -16 -52 -54v-170h-85z" />
    <glyph glyph-name="n.inferior" horiz-adv-x="342" 
d="M35 -97v299h85v-26c16 22 46 34 71 34c65 0 120 -47 120 -133v-174h-85v170c0 39 -29 54 -53 54s-53 -15 -53 -54v-170h-85z" />
    <glyph glyph-name="o.inferior" horiz-adv-x="330" 
d="M165 -28c36 0 53 24 53 54v56c0 30 -17 54 -53 54s-53 -24 -53 -54v-56c0 -30 17 -54 53 -54zM165 -103c-104 0 -138 70 -138 145v24c0 74 34 144 138 144s138 -70 138 -144v-24c0 -75 -34 -145 -138 -145z" />
    <glyph glyph-name="p.inferior" horiz-adv-x="338" 
d="M35 -204v406h85v-26c16 22 46 34 71 34c65 0 120 -47 120 -133v-47c0 -86 -55 -133 -120 -133c-25 0 -55 13 -71 34v-135h-85zM173 -19c24 0 53 15 53 53v39c0 39 -29 54 -53 54s-53 -15 -53 -54v-39c0 -38 29 -53 53 -53z" />
    <glyph glyph-name="q.inferior" horiz-adv-x="338" 
d="M218 -204v135c-16 -21 -46 -34 -70 -34c-66 0 -121 47 -121 133v47c0 86 55 133 121 133c24 0 54 -12 70 -34v26h85v-406h-85zM167 -19c24 0 51 15 51 53v39c0 39 -29 54 -53 54s-53 -15 -53 -54v-39c0 -38 29 -53 55 -53z" />
    <glyph glyph-name="r.inferior" horiz-adv-x="223" 
d="M35 -97v299h85v-34c9 21 32 40 70 40h23v-84h-40c-24 0 -53 -15 -53 -53v-168h-85z" />
    <glyph glyph-name="s.inferior" horiz-adv-x="281" 
d="M145 -103c-58 0 -128 31 -131 103h84c3 -19 30 -28 51 -28c8 0 31 1 31 19c0 7 -4 15 -21 18l-66 14c-28 6 -72 34 -72 93c0 58 56 94 117 94c59 0 112 -29 117 -97h-86c-4 15 -17 23 -32 23c-24 0 -30 -10 -31 -18c0 -10 6 -17 17 -19l74 -16c21 -4 68 -26 68 -91
c0 -71 -58 -95 -120 -95z" />
    <glyph glyph-name="t.inferior" horiz-adv-x="222" 
d="M128 -97h80v75h-55c-16 0 -19 11 -19 21v129h74v74h-74v68h-85v-68h-42v-74h42v-146c0 -48 24 -79 79 -79z" />
    <glyph glyph-name="u.inferior" horiz-adv-x="339" 
d="M145 -103c-58 0 -114 42 -114 133v172h85v-168c0 -37 28 -53 51 -53c24 0 52 16 52 53v168h85v-299h-85v35c-15 -22 -35 -41 -74 -41z" />
    <glyph glyph-name="v.inferior" horiz-adv-x="295" 
d="M103 -97l-108 299h90l62 -179l63 179h90l-108 -299h-89z" />
    <glyph glyph-name="w.inferior" horiz-adv-x="419" 
d="M78 -97l-79 299h89l42 -182l39 182h81l40 -182l41 182h89l-79 -299h-86l-45 209l-46 -209h-86z" />
    <glyph glyph-name="x.inferior" horiz-adv-x="304" 
d="M0 -97l102 154l-97 145h97l50 -76l49 76h98l-97 -145l102 -154h-99l-53 83l-53 -83h-99z" />
    <glyph glyph-name="y.inferior" horiz-adv-x="295" 
d="M41 -204v75h42c6 0 9 1 10 4l9 26l-107 301h90l62 -179l63 179h90l-110 -305c-20 -57 -16 -101 -79 -101h-70z" />
    <glyph glyph-name="z.inferior" horiz-adv-x="260" 
d="M242 128l-121 -150h125v-75h-232v75l121 150h-117v74h224v-74z" />
    <glyph glyph-name="a.denominator" horiz-adv-x="331" 
d="M134 -6c-76 0 -112 37 -112 89c0 48 15 67 52 89c26 15 97 22 139 25c-6 20 -22 36 -51 36c-25 0 -41 -12 -49 -28h-85c13 53 47 102 134 102c104 0 138 -70 138 -144v-163h-85v37c-11 -22 -31 -43 -81 -43zM149 66c42 0 66 28 66 56v6c-38 -2 -81 -6 -91 -10
c-16 -8 -17 -13 -17 -24c0 -10 7 -28 42 -28z" />
    <glyph glyph-name="b.denominator" horiz-adv-x="338" 
d="M191 -6c-25 0 -55 13 -71 34v-28h-85v406h85v-133c16 22 46 34 71 34c65 0 120 -47 120 -133v-47c0 -86 -55 -133 -120 -133zM173 78c24 0 53 15 53 53v39c0 39 -29 54 -53 54s-53 -15 -53 -54v-39c0 -38 29 -53 53 -53z" />
    <glyph glyph-name="c.denominator" horiz-adv-x="323" 
d="M165 -6c-104 0 -138 70 -138 145v24c0 74 34 144 138 144c93 0 128 -56 137 -118h-85c-4 25 -20 44 -52 44c-36 0 -53 -24 -53 -54v-56c0 -30 17 -54 53 -54c32 0 49 18 52 44h85c-9 -62 -44 -119 -137 -119z" />
    <glyph glyph-name="d.denominator" horiz-adv-x="338" 
d="M148 -6c24 0 54 13 70 34v-28h85v406h-85v-133c-16 22 -46 34 -70 34c-66 0 -121 -47 -121 -133v-47c0 -86 55 -133 121 -133zM167 78c-26 0 -55 15 -55 53v39c0 39 29 54 53 54s53 -15 53 -54v-39c0 -38 -27 -53 -51 -53z" />
    <glyph glyph-name="e.denominator" horiz-adv-x="327" 
d="M165 -6c-104 0 -138 70 -138 145v24c0 74 34 144 138 144s138 -70 138 -144v-43h-191c0 -27 17 -51 53 -51c25 0 41 12 48 28h87c-14 -54 -48 -103 -135 -103zM112 189h105c-3 25 -19 44 -52 44c-32 0 -49 -20 -53 -44z" />
    <glyph glyph-name="f.denominator" horiz-adv-x="208" 
d="M50 0v225h-42v74h42v28c0 48 24 79 79 79h80v-75h-55c-16 0 -19 -11 -19 -21v-11h74v-74h-74v-225h-85z" />
    <glyph glyph-name="g.denominator" horiz-adv-x="338" 
d="M165 -113c-91 0 -126 54 -136 113h84c6 -22 22 -38 52 -38c36 0 53 24 53 54v36c-16 -22 -47 -34 -71 -34c-66 0 -120 47 -120 133v23c0 86 54 133 120 133c24 0 55 -12 71 -34v26h85v-267c0 -74 -34 -145 -138 -145zM165 101c24 0 53 16 53 54v15c0 39 -29 54 -53 54
c-25 0 -53 -15 -53 -54v-15c0 -38 28 -54 53 -54z" />
    <glyph glyph-name="h.denominator" horiz-adv-x="342" 
d="M35 0v406h85v-133c16 22 46 34 71 34c65 0 120 -47 120 -133v-174h-85v170c0 39 -29 54 -53 54s-53 -15 -53 -54v-170h-85z" />
    <glyph glyph-name="i.denominator" horiz-adv-x="155" 
d="M35 0v299h85v-299h-85zM35 335v71h85v-71h-85z" />
    <glyph glyph-name="j.denominator" horiz-adv-x="155" 
d="M-2 -107v75h18c16 0 19 12 19 21v310h85v-326c0 -49 -24 -80 -79 -80h-43zM35 335v71h85v-71h-85z" />
    <glyph glyph-name="k.denominator" horiz-adv-x="323" 
d="M120 406v-202l87 95h103l-109 -118l124 -181h-100l-81 118l-24 -26v-92h-85v406h85z" />
    <glyph glyph-name="l.denominator" horiz-adv-x="172" 
d="M113 0h43v75h-18c-16 0 -19 11 -19 21v310h-85v-327c0 -48 24 -79 79 -79z" />
    <glyph glyph-name="m.denominator" horiz-adv-x="529" 
d="M35 0v299h85v-24c18 22 44 32 69 32c33 0 56 -10 77 -37c23 24 48 37 95 37c87 0 137 -48 137 -133v-174h-85v170c0 38 -28 54 -52 54s-52 -16 -52 -54v-170h-85v170c0 38 -28 54 -52 54s-52 -16 -52 -54v-170h-85z" />
    <glyph glyph-name="n.denominator" horiz-adv-x="342" 
d="M35 0v299h85v-26c16 22 46 34 71 34c65 0 120 -47 120 -133v-174h-85v170c0 39 -29 54 -53 54s-53 -15 -53 -54v-170h-85z" />
    <glyph glyph-name="o.denominator" horiz-adv-x="330" 
d="M165 69c36 0 53 24 53 54v56c0 30 -17 54 -53 54s-53 -24 -53 -54v-56c0 -30 17 -54 53 -54zM165 -6c-104 0 -138 70 -138 145v24c0 74 34 144 138 144s138 -70 138 -144v-24c0 -75 -34 -145 -138 -145z" />
    <glyph glyph-name="p.denominator" horiz-adv-x="338" 
d="M35 -107v406h85v-26c16 22 46 34 71 34c65 0 120 -47 120 -133v-47c0 -86 -55 -133 -120 -133c-25 0 -55 13 -71 34v-135h-85zM173 78c24 0 53 15 53 53v39c0 39 -29 54 -53 54s-53 -15 -53 -54v-39c0 -38 29 -53 53 -53z" />
    <glyph glyph-name="q.denominator" horiz-adv-x="338" 
d="M218 -107v135c-16 -21 -46 -34 -70 -34c-66 0 -121 47 -121 133v47c0 86 55 133 121 133c24 0 54 -12 70 -34v26h85v-406h-85zM167 78c24 0 51 15 51 53v39c0 39 -29 54 -53 54s-53 -15 -53 -54v-39c0 -38 29 -53 55 -53z" />
    <glyph glyph-name="r.denominator" horiz-adv-x="223" 
d="M35 0v299h85v-34c9 21 32 40 70 40h23v-84h-40c-24 0 -53 -15 -53 -53v-168h-85z" />
    <glyph glyph-name="s.denominator" horiz-adv-x="281" 
d="M145 -6c-58 0 -128 31 -131 103h84c3 -19 30 -28 51 -28c8 0 31 1 31 19c0 7 -4 15 -21 18l-66 14c-28 6 -72 34 -72 93c0 58 56 94 117 94c59 0 112 -29 117 -97h-86c-4 15 -17 23 -32 23c-24 0 -30 -10 -31 -18c0 -10 6 -17 17 -19l74 -16c21 -4 68 -26 68 -91
c0 -71 -58 -95 -120 -95z" />
    <glyph glyph-name="t.denominator" horiz-adv-x="222" 
d="M128 0h80v75h-55c-16 0 -19 11 -19 21v129h74v74h-74v68h-85v-68h-42v-74h42v-146c0 -48 24 -79 79 -79z" />
    <glyph glyph-name="u.denominator" horiz-adv-x="339" 
d="M145 -6c-58 0 -114 42 -114 133v172h85v-168c0 -37 28 -53 51 -53c24 0 52 16 52 53v168h85v-299h-85v35c-15 -22 -35 -41 -74 -41z" />
    <glyph glyph-name="v.denominator" horiz-adv-x="295" 
d="M103 0l-108 299h90l62 -179l63 179h90l-108 -299h-89z" />
    <glyph glyph-name="w.denominator" horiz-adv-x="419" 
d="M78 0l-79 299h89l42 -182l39 182h81l40 -182l41 182h89l-79 -299h-86l-45 209l-46 -209h-86z" />
    <glyph glyph-name="x.denominator" horiz-adv-x="304" 
d="M0 0l102 154l-97 145h97l50 -76l49 76h98l-97 -145l102 -154h-99l-53 83l-53 -83h-99z" />
    <glyph glyph-name="y.denominator" horiz-adv-x="295" 
d="M41 -107v75h42c6 0 9 1 10 4l9 26l-107 301h90l62 -179l63 179h90l-110 -305c-20 -57 -16 -101 -79 -101h-70z" />
    <glyph glyph-name="z.denominator" horiz-adv-x="260" 
d="M242 225l-121 -150h125v-75h-232v75l121 150h-117v74h224v-74z" />
    <glyph glyph-name="a.numerator" horiz-adv-x="331" 
d="M134 288c-76 0 -112 37 -112 89c0 48 15 67 52 89c26 15 97 22 139 25c-6 20 -22 36 -51 36c-25 0 -41 -12 -49 -28h-85c13 53 47 102 134 102c104 0 138 -70 138 -144v-163h-85v37c-11 -22 -31 -43 -81 -43zM149 360c42 0 66 28 66 56v6c-38 -2 -81 -6 -91 -10
c-16 -8 -17 -13 -17 -24c0 -10 7 -28 42 -28z" />
    <glyph glyph-name="b.numerator" horiz-adv-x="338" 
d="M191 288c-25 0 -55 13 -71 34v-28h-85v406h85v-133c16 22 46 34 71 34c65 0 120 -47 120 -133v-47c0 -86 -55 -133 -120 -133zM173 372c24 0 53 15 53 53v39c0 39 -29 54 -53 54s-53 -15 -53 -54v-39c0 -38 29 -53 53 -53z" />
    <glyph glyph-name="c.numerator" horiz-adv-x="323" 
d="M165 288c-104 0 -138 70 -138 145v24c0 74 34 144 138 144c93 0 128 -56 137 -118h-85c-4 25 -20 44 -52 44c-36 0 -53 -24 -53 -54v-56c0 -30 17 -54 53 -54c32 0 49 18 52 44h85c-9 -62 -44 -119 -137 -119z" />
    <glyph glyph-name="d.numerator" horiz-adv-x="338" 
d="M148 288c24 0 54 13 70 34v-28h85v406h-85v-133c-16 22 -46 34 -70 34c-66 0 -121 -47 -121 -133v-47c0 -86 55 -133 121 -133zM167 372c-26 0 -55 15 -55 53v39c0 39 29 54 53 54s53 -15 53 -54v-39c0 -38 -27 -53 -51 -53z" />
    <glyph glyph-name="e.numerator" horiz-adv-x="327" 
d="M165 288c-104 0 -138 70 -138 145v24c0 74 34 144 138 144s138 -70 138 -144v-43h-191c0 -27 17 -51 53 -51c25 0 41 12 48 28h87c-14 -54 -48 -103 -135 -103zM112 483h105c-3 25 -19 44 -52 44c-32 0 -49 -20 -53 -44z" />
    <glyph glyph-name="f.numerator" horiz-adv-x="208" 
d="M50 294v225h-42v74h42v28c0 48 24 79 79 79h80v-75h-55c-16 0 -19 -11 -19 -21v-11h74v-74h-74v-225h-85z" />
    <glyph glyph-name="g.numerator" horiz-adv-x="338" 
d="M165 181c-91 0 -126 54 -136 113h84c6 -22 22 -38 52 -38c36 0 53 24 53 54v36c-16 -22 -47 -34 -71 -34c-66 0 -120 47 -120 133v23c0 86 54 133 120 133c24 0 55 -12 71 -34v26h85v-267c0 -74 -34 -145 -138 -145zM165 395c24 0 53 16 53 54v15c0 39 -29 54 -53 54
c-25 0 -53 -15 -53 -54v-15c0 -38 28 -54 53 -54z" />
    <glyph glyph-name="h.numerator" horiz-adv-x="342" 
d="M35 294v406h85v-133c16 22 46 34 71 34c65 0 120 -47 120 -133v-174h-85v170c0 39 -29 54 -53 54s-53 -15 -53 -54v-170h-85z" />
    <glyph glyph-name="i.numerator" horiz-adv-x="155" 
d="M35 294v299h85v-299h-85zM35 629v71h85v-71h-85z" />
    <glyph glyph-name="j.numerator" horiz-adv-x="155" 
d="M-2 187v75h18c16 0 19 12 19 21v310h85v-326c0 -49 -24 -80 -79 -80h-43zM35 629v71h85v-71h-85z" />
    <glyph glyph-name="k.numerator" horiz-adv-x="323" 
d="M120 700v-202l87 95h103l-109 -118l124 -181h-100l-81 118l-24 -26v-92h-85v406h85z" />
    <glyph glyph-name="l.numerator" horiz-adv-x="172" 
d="M113 294h43v75h-18c-16 0 -19 11 -19 21v310h-85v-327c0 -48 24 -79 79 -79z" />
    <glyph glyph-name="m.numerator" horiz-adv-x="529" 
d="M35 294v299h85v-24c18 22 44 32 69 32c33 0 56 -10 77 -37c23 24 48 37 95 37c87 0 137 -48 137 -133v-174h-85v170c0 38 -28 54 -52 54s-52 -16 -52 -54v-170h-85v170c0 38 -28 54 -52 54s-52 -16 -52 -54v-170h-85z" />
    <glyph glyph-name="n.numerator" horiz-adv-x="342" 
d="M35 294v299h85v-26c16 22 46 34 71 34c65 0 120 -47 120 -133v-174h-85v170c0 39 -29 54 -53 54s-53 -15 -53 -54v-170h-85z" />
    <glyph glyph-name="o.numerator" horiz-adv-x="330" 
d="M165 363c36 0 53 24 53 54v56c0 30 -17 54 -53 54s-53 -24 -53 -54v-56c0 -30 17 -54 53 -54zM165 288c-104 0 -138 70 -138 145v24c0 74 34 144 138 144s138 -70 138 -144v-24c0 -75 -34 -145 -138 -145z" />
    <glyph glyph-name="p.numerator" horiz-adv-x="338" 
d="M35 187v406h85v-26c16 22 46 34 71 34c65 0 120 -47 120 -133v-47c0 -86 -55 -133 -120 -133c-25 0 -55 13 -71 34v-135h-85zM173 372c24 0 53 15 53 53v39c0 39 -29 54 -53 54s-53 -15 -53 -54v-39c0 -38 29 -53 53 -53z" />
    <glyph glyph-name="q.numerator" horiz-adv-x="338" 
d="M218 187v135c-16 -21 -46 -34 -70 -34c-66 0 -121 47 -121 133v47c0 86 55 133 121 133c24 0 54 -12 70 -34v26h85v-406h-85zM167 372c24 0 51 15 51 53v39c0 39 -29 54 -53 54s-53 -15 -53 -54v-39c0 -38 29 -53 55 -53z" />
    <glyph glyph-name="r.numerator" horiz-adv-x="223" 
d="M35 294v299h85v-34c9 21 32 40 70 40h23v-84h-40c-24 0 -53 -15 -53 -53v-168h-85z" />
    <glyph glyph-name="s.numerator" horiz-adv-x="281" 
d="M145 288c-58 0 -128 31 -131 103h84c3 -19 30 -28 51 -28c8 0 31 1 31 19c0 7 -4 15 -21 18l-66 14c-28 6 -72 34 -72 93c0 58 56 94 117 94c59 0 112 -29 117 -97h-86c-4 15 -17 23 -32 23c-24 0 -30 -10 -31 -18c0 -10 6 -17 17 -19l74 -16c21 -4 68 -26 68 -91
c0 -71 -58 -95 -120 -95z" />
    <glyph glyph-name="t.numerator" horiz-adv-x="222" 
d="M128 294h80v75h-55c-16 0 -19 11 -19 21v129h74v74h-74v68h-85v-68h-42v-74h42v-146c0 -48 24 -79 79 -79z" />
    <glyph glyph-name="u.numerator" horiz-adv-x="339" 
d="M145 288c-58 0 -114 42 -114 133v172h85v-168c0 -37 28 -53 51 -53c24 0 52 16 52 53v168h85v-299h-85v35c-15 -22 -35 -41 -74 -41z" />
    <glyph glyph-name="v.numerator" horiz-adv-x="295" 
d="M103 294l-108 299h90l62 -179l63 179h90l-108 -299h-89z" />
    <glyph glyph-name="w.numerator" horiz-adv-x="419" 
d="M78 294l-79 299h89l42 -182l39 182h81l40 -182l41 182h89l-79 -299h-86l-45 209l-46 -209h-86z" />
    <glyph glyph-name="x.numerator" horiz-adv-x="304" 
d="M0 294l102 154l-97 145h97l50 -76l49 76h98l-97 -145l102 -154h-99l-53 83l-53 -83h-99z" />
    <glyph glyph-name="y.numerator" horiz-adv-x="295" 
d="M41 187v75h42c6 0 9 1 10 4l9 26l-107 301h90l62 -179l63 179h90l-110 -305c-20 -57 -16 -101 -79 -101h-70z" />
    <glyph glyph-name="z.numerator" horiz-adv-x="260" 
d="M242 519l-121 -150h125v-75h-232v75l121 150h-117v74h224v-74z" />
    <glyph glyph-name="zero.fractioninf" horiz-adv-x="401" 
d="M200 69c36 0 53 24 53 54v160c0 30 -17 54 -53 54s-53 -24 -53 -54v-160c0 -30 17 -54 53 -54zM200 -6c-104 0 -138 70 -138 145v128c0 75 34 145 138 145s138 -70 138 -145v-128c0 -75 -34 -145 -138 -145z" />
    <glyph glyph-name="one.fractioninf" horiz-adv-x="401" 
d="M196 0v293l-77 -67v112l77 68h85v-406h-85z" />
    <glyph glyph-name="two.fractioninf" horiz-adv-x="401" 
d="M62 0v75l165 154c23 22 27 36 27 54c0 30 -17 54 -53 54s-54 -24 -54 -54v-6h-85c4 68 38 135 139 135c98 0 138 -63 138 -128c0 -54 -19 -85 -60 -122l-94 -87h154v-75h-277z" />
    <glyph glyph-name="three.fractioninf" horiz-adv-x="401" 
d="M200 -6c95 0 138 50 138 114c0 29 -15 75 -40 92c30 24 40 60 40 86c0 58 -38 126 -138 126c-96 0 -130 -59 -138 -122h84c3 26 21 47 54 47c36 0 53 -22 53 -56c0 -27 -22 -41 -58 -41h-33v-76h33c35 0 58 -19 58 -49c0 -28 -20 -46 -51 -46c-33 0 -53 21 -56 47h-84
c8 -62 44 -122 138 -122z" />
    <glyph glyph-name="four.fractioninf" horiz-adv-x="401" 
d="M223 0v88h-173v74l173 244h85v-244h42v-74h-42v-88h-85zM150 162h73v103z" />
    <glyph glyph-name="five.fractioninf" horiz-adv-x="401" 
d="M203 -6c-107 0 -133 60 -141 122h84c3 -25 21 -47 52 -47c40 0 55 23 55 49v21c0 30 -17 54 -53 54c-25 0 -41 -10 -48 -29h-85v242h255v-75h-170v-72c10 4 32 9 53 9c101 0 133 -70 133 -145v-15c0 -64 -49 -114 -135 -114z" />
    <glyph glyph-name="six.fractioninf" horiz-adv-x="401" 
d="M200 -6c-103 0 -138 68 -138 140v133c0 75 34 145 138 145c96 0 129 -60 137 -122h-84c-3 26 -20 47 -53 47c-36 0 -53 -24 -53 -54v-36c7 6 28 17 56 17c98 0 133 -67 135 -133c-1 -71 -37 -137 -138 -137zM200 69c36 0 53 24 53 54v12c0 30 -17 54 -53 54
c-35 0 -52 -22 -53 -51v-15c0 -30 17 -54 53 -54z" />
    <glyph glyph-name="seven.fractioninf" horiz-adv-x="401" 
d="M122 0l127 331h-185v75h273v-75l-127 -331h-88z" />
    <glyph glyph-name="eight.fractioninf" horiz-adv-x="401" 
d="M200 -6c90 0 138 57 138 126c0 30 -12 66 -37 85c24 22 33 52 33 83c0 66 -42 124 -134 124c-91 0 -134 -58 -134 -124c0 -31 10 -61 34 -83c-25 -19 -38 -55 -38 -85c0 -69 49 -126 138 -126zM200 69c-31 0 -53 24 -53 50c0 29 22 50 53 50c32 0 53 -21 53 -50
c0 -27 -21 -50 -53 -50zM201 240c-33 0 -50 27 -50 49s17 48 50 48c32 0 48 -26 48 -48s-16 -49 -48 -49z" />
    <glyph glyph-name="nine.fractioninf" horiz-adv-x="401" 
d="M200 -6c-96 0 -129 60 -137 122h84c3 -26 20 -47 53 -47c36 0 53 24 53 54v36c-7 -6 -28 -17 -56 -17c-99 0 -134 66 -135 133v-2v5v-3v3c2 69 38 134 138 134c102 0 138 -68 138 -140v-133c0 -75 -34 -145 -138 -145zM200 217c35 0 52 22 53 51v15c0 30 -17 54 -53 54
s-53 -24 -53 -54v-12c0 -30 17 -54 53 -54z" />
    <glyph glyph-name="zero.fractionsup" horiz-adv-x="401" 
d="M200 363c36 0 53 24 53 54v160c0 30 -17 54 -53 54s-53 -24 -53 -54v-160c0 -30 17 -54 53 -54zM200 288c-104 0 -138 70 -138 145v128c0 75 34 145 138 145s138 -70 138 -145v-128c0 -75 -34 -145 -138 -145z" />
    <glyph glyph-name="one.fractionsup" horiz-adv-x="401" 
d="M196 294v293l-77 -67v112l77 68h85v-406h-85z" />
    <glyph glyph-name="two.fractionsup" horiz-adv-x="401" 
d="M62 294v75l165 154c23 22 27 36 27 54c0 30 -17 54 -53 54s-54 -24 -54 -54v-6h-85c4 68 38 135 139 135c98 0 138 -63 138 -128c0 -54 -19 -85 -60 -122l-94 -87h154v-75h-277z" />
    <glyph glyph-name="three.fractionsup" horiz-adv-x="401" 
d="M200 288c95 0 138 50 138 114c0 29 -15 75 -40 92c30 24 40 60 40 86c0 58 -38 126 -138 126c-96 0 -130 -59 -138 -122h84c3 26 21 47 54 47c36 0 53 -22 53 -56c0 -27 -22 -41 -58 -41h-33v-76h33c35 0 58 -19 58 -49c0 -28 -20 -46 -51 -46c-33 0 -53 21 -56 47h-84
c8 -62 44 -122 138 -122z" />
    <glyph glyph-name="four.fractionsup" horiz-adv-x="401" 
d="M223 294v88h-173v74l173 244h85v-244h42v-74h-42v-88h-85zM150 456h73v103z" />
    <glyph glyph-name="five.fractionsup" horiz-adv-x="401" 
d="M203 288c-107 0 -133 60 -141 122h84c3 -25 21 -47 52 -47c40 0 55 23 55 49v21c0 30 -17 54 -53 54c-25 0 -41 -10 -48 -29h-85v242h255v-75h-170v-72c10 4 32 9 53 9c101 0 133 -70 133 -145v-15c0 -64 -49 -114 -135 -114z" />
    <glyph glyph-name="six.fractionsup" horiz-adv-x="401" 
d="M200 288c-103 0 -138 68 -138 140v133c0 75 34 145 138 145c96 0 129 -60 137 -122h-84c-3 26 -20 47 -53 47c-36 0 -53 -24 -53 -54v-36c7 6 28 17 56 17c98 0 133 -67 135 -133c-1 -71 -37 -137 -138 -137zM200 363c36 0 53 24 53 54v12c0 30 -17 54 -53 54
c-35 0 -52 -22 -53 -51v-15c0 -30 17 -54 53 -54z" />
    <glyph glyph-name="seven.fractionsup" horiz-adv-x="401" 
d="M122 294l127 331h-185v75h273v-75l-127 -331h-88z" />
    <glyph glyph-name="eight.fractionsup" horiz-adv-x="401" 
d="M200 288c90 0 138 57 138 126c0 30 -12 66 -37 85c24 22 33 52 33 83c0 66 -42 124 -134 124c-91 0 -134 -58 -134 -124c0 -31 10 -61 34 -83c-25 -19 -38 -55 -38 -85c0 -69 49 -126 138 -126zM200 363c-31 0 -53 24 -53 50c0 29 22 50 53 50c32 0 53 -21 53 -50
c0 -27 -21 -50 -53 -50zM201 534c-33 0 -50 27 -50 49s17 48 50 48c32 0 48 -26 48 -48s-16 -49 -48 -49z" />
    <glyph glyph-name="nine.fractionsup" horiz-adv-x="401" 
d="M200 288c-96 0 -129 60 -137 122h84c3 -26 20 -47 53 -47c36 0 53 24 53 54v36c-7 -6 -28 -17 -56 -17c-99 0 -134 66 -135 133v-2v5v-3v3c2 69 38 134 138 134c102 0 138 -68 138 -140v-133c0 -75 -34 -145 -138 -145zM200 511c35 0 52 22 53 51v15c0 30 -17 54 -53 54
s-53 -24 -53 -54v-12c0 -30 17 -54 53 -54z" />
    <glyph glyph-name="parenleft.superior" unicode="&#x207d;" horiz-adv-x="181" 
d="M127 292h42v80h-24c-16 0 -19 11 -19 21v314c0 10 3 20 19 20h24v80h-42c-56 0 -80 -31 -80 -79v-356c0 -49 24 -80 80 -80z" />
    <glyph glyph-name="parenright.superior" unicode="&#x207e;" horiz-adv-x="181" 
d="M11 292v80h25c16 0 18 11 18 21v314c0 10 -2 20 -18 20h-25v80h43c55 0 80 -31 80 -79v-356c0 -49 -25 -80 -80 -80h-43z" />
    <glyph glyph-name="plus.superior" unicode="&#x207a;" horiz-adv-x="330" 
d="M27 519v79h98v99h79v-99h99v-79h-99v-98h-79v98h-98z" />
    <glyph glyph-name="minus.superior" unicode="&#x207b;" horiz-adv-x="330" 
d="M27 519v79h276v-79h-276z" />
    <glyph glyph-name="equal.superior" unicode="&#x207c;" horiz-adv-x="330" 
d="M27 449v78h276v-78h-276zM27 594v78h276v-78h-276z" />
    <glyph glyph-name="comma.superior" horiz-adv-x="183" 
d="M41 401v101h101v-101l-26 -69h-60l27 69h-42z" />
    <glyph glyph-name="period.superior" horiz-adv-x="183" 
d="M41 401v101h101v-101h-101z" />
    <glyph glyph-name="hyphen.superior" horiz-adv-x="215" 
d="M23 519v79h169v-79h-169z" />
    <glyph glyph-name="parenleft.inferior" unicode="&#x208d;" horiz-adv-x="181" 
d="M127 -206h42v80h-24c-16 0 -19 11 -19 21v314c0 10 3 20 19 20h24v80h-42c-56 0 -80 -31 -80 -79v-356c0 -49 24 -80 80 -80z" />
    <glyph glyph-name="parenright.inferior" unicode="&#x208e;" horiz-adv-x="181" 
d="M11 -206v80h25c16 0 18 11 18 21v314c0 10 -2 20 -18 20h-25v80h43c55 0 80 -31 80 -79v-356c0 -49 -25 -80 -80 -80h-43z" />
    <glyph glyph-name="plus.inferior" horiz-adv-x="330" 
d="M27 21v79h98v99h79v-99h99v-79h-99v-98h-79v98h-98z" />
    <glyph glyph-name="minus.inferior" horiz-adv-x="330" 
d="M27 21v79h276v-79h-276z" />
    <glyph glyph-name="equal.inferior" horiz-adv-x="330" 
d="M27 -49v78h276v-78h-276zM27 96v78h276v-78h-276z" />
    <glyph glyph-name="comma.inferior" horiz-adv-x="183" 
d="M41 -97v101h101v-101l-26 -69h-60l27 69h-42z" />
    <glyph glyph-name="period.inferior" horiz-adv-x="183" 
d="M41 -97v101h101v-101h-101z" />
    <glyph glyph-name="hyphen.inferior" horiz-adv-x="215" 
d="M23 21v79h169v-79h-169z" />
    <glyph glyph-name="parenleft.denominator" horiz-adv-x="181" 
d="M127 -109h42v80h-24c-16 0 -19 11 -19 21v314c0 10 3 20 19 20h24v80h-42c-56 0 -80 -31 -80 -79v-356c0 -49 24 -80 80 -80z" />
    <glyph glyph-name="parenright.denominator" horiz-adv-x="181" 
d="M11 -109v80h25c16 0 18 11 18 21v314c0 10 -2 20 -18 20h-25v80h43c55 0 80 -31 80 -79v-356c0 -49 -25 -80 -80 -80h-43z" />
    <glyph glyph-name="plus.denominator" horiz-adv-x="330" 
d="M27 118v79h98v99h79v-99h99v-79h-99v-98h-79v98h-98z" />
    <glyph glyph-name="minus.denominator" horiz-adv-x="330" 
d="M27 118v79h276v-79h-276z" />
    <glyph glyph-name="equal.denominator" horiz-adv-x="330" 
d="M27 48v78h276v-78h-276zM27 193v78h276v-78h-276z" />
    <glyph glyph-name="comma.denominator" horiz-adv-x="183" 
d="M41 0v101h101v-101l-26 -69h-60l27 69h-42z" />
    <glyph glyph-name="period.denominator" horiz-adv-x="183" 
d="M41 0v101h101v-101h-101z" />
    <glyph glyph-name="hyphen.denominator" horiz-adv-x="215" 
d="M23 118v79h169v-79h-169z" />
    <glyph glyph-name="parenleft.numerator" horiz-adv-x="181" 
d="M127 185h42v80h-24c-16 0 -19 11 -19 21v314c0 10 3 20 19 20h24v80h-42c-56 0 -80 -31 -80 -79v-356c0 -49 24 -80 80 -80z" />
    <glyph glyph-name="parenright.numerator" horiz-adv-x="181" 
d="M11 185v80h25c16 0 18 11 18 21v314c0 10 -2 20 -18 20h-25v80h43c55 0 80 -31 80 -79v-356c0 -49 -25 -80 -80 -80h-43z" />
    <glyph glyph-name="plus.numerator" horiz-adv-x="330" 
d="M27 412v79h98v99h79v-99h99v-79h-99v-98h-79v98h-98z" />
    <glyph glyph-name="minus.numerator" horiz-adv-x="330" 
d="M27 412v79h276v-79h-276z" />
    <glyph glyph-name="equal.numerator" horiz-adv-x="330" 
d="M27 342v78h276v-78h-276zM27 487v78h276v-78h-276z" />
    <glyph glyph-name="comma.numerator" horiz-adv-x="183" 
d="M41 294v101h101v-101l-26 -69h-60l27 69h-42z" />
    <glyph glyph-name="period.numerator" horiz-adv-x="183" 
d="M41 294v101h101v-101h-101z" />
    <glyph glyph-name="hyphen.numerator" horiz-adv-x="215" 
d="M23 412v79h169v-79h-169z" />
    <glyph glyph-name="onethird" unicode="&#x2153;" horiz-adv-x="876" 
d="M196 294v293l-77 -67v112l77 68h85v-406h-85zM631 700h95l-481 -700h-95zM675 -6c95 0 138 50 138 114c0 29 -15 75 -40 92c30 24 40 60 40 86c0 58 -38 126 -138 126c-96 0 -130 -59 -138 -122h84c3 26 21 47 54 47c36 0 53 -22 53 -56c0 -27 -22 -41 -58 -41h-33v-76
h33c35 0 58 -19 58 -49c0 -28 -20 -46 -51 -46c-33 0 -53 21 -56 47h-84c8 -62 44 -122 138 -122z" />
    <glyph glyph-name="twothirds" unicode="&#x2154;" horiz-adv-x="876" 
d="M62 294v75l165 154c23 22 27 36 27 54c0 30 -17 54 -53 54s-54 -24 -54 -54v-6h-85c4 68 38 135 139 135c98 0 138 -63 138 -128c0 -54 -19 -85 -60 -122l-94 -87h154v-75h-277zM631 700h95l-481 -700h-95zM675 -6c95 0 138 50 138 114c0 29 -15 75 -40 92
c30 24 40 60 40 86c0 58 -38 126 -138 126c-96 0 -130 -59 -138 -122h84c3 26 21 47 54 47c36 0 53 -22 53 -56c0 -27 -22 -41 -58 -41h-33v-76h33c35 0 58 -19 58 -49c0 -28 -20 -46 -51 -46c-33 0 -53 21 -56 47h-84c8 -62 44 -122 138 -122z" />
    <glyph glyph-name="uni2155" unicode="&#x2155;" horiz-adv-x="876" 
d="M196 294v293l-77 -67v112l77 68h85v-406h-85zM631 700h95l-481 -700h-95zM678 -6c-107 0 -133 60 -141 122h84c3 -25 21 -47 52 -47c40 0 55 23 55 49v21c0 30 -17 54 -53 54c-25 0 -41 -10 -48 -29h-85v242h255v-75h-170v-72c10 4 32 9 53 9c101 0 133 -70 133 -145v-15
c0 -64 -49 -114 -135 -114z" />
    <glyph glyph-name="uni2156" unicode="&#x2156;" horiz-adv-x="876" 
d="M62 294v75l165 154c23 22 27 36 27 54c0 30 -17 54 -53 54s-54 -24 -54 -54v-6h-85c4 68 38 135 139 135c98 0 138 -63 138 -128c0 -54 -19 -85 -60 -122l-94 -87h154v-75h-277zM631 700h95l-481 -700h-95zM678 -6c-107 0 -133 60 -141 122h84c3 -25 21 -47 52 -47
c40 0 55 23 55 49v21c0 30 -17 54 -53 54c-25 0 -41 -10 -48 -29h-85v242h255v-75h-170v-72c10 4 32 9 53 9c101 0 133 -70 133 -145v-15c0 -64 -49 -114 -135 -114z" />
    <glyph glyph-name="uni2157" unicode="&#x2157;" horiz-adv-x="876" 
d="M200 288c95 0 138 50 138 114c0 29 -15 75 -40 92c30 24 40 60 40 86c0 58 -38 126 -138 126c-96 0 -130 -59 -138 -122h84c3 26 21 47 54 47c36 0 53 -22 53 -56c0 -27 -22 -41 -58 -41h-33v-76h33c35 0 58 -19 58 -49c0 -28 -20 -46 -51 -46c-33 0 -53 21 -56 47h-84
c8 -62 44 -122 138 -122zM631 700h95l-481 -700h-95zM678 -6c-107 0 -133 60 -141 122h84c3 -25 21 -47 52 -47c40 0 55 23 55 49v21c0 30 -17 54 -53 54c-25 0 -41 -10 -48 -29h-85v242h255v-75h-170v-72c10 4 32 9 53 9c101 0 133 -70 133 -145v-15
c0 -64 -49 -114 -135 -114z" />
    <glyph glyph-name="uni2158" unicode="&#x2158;" horiz-adv-x="876" 
d="M223 294v88h-173v74l173 244h85v-244h42v-74h-42v-88h-85zM150 456h73v103zM631 700h95l-481 -700h-95zM678 -6c-107 0 -133 60 -141 122h84c3 -25 21 -47 52 -47c40 0 55 23 55 49v21c0 30 -17 54 -53 54c-25 0 -41 -10 -48 -29h-85v242h255v-75h-170v-72
c10 4 32 9 53 9c101 0 133 -70 133 -145v-15c0 -64 -49 -114 -135 -114z" />
    <glyph glyph-name="uni2159" unicode="&#x2159;" horiz-adv-x="876" 
d="M675 -6c-103 0 -138 68 -138 140v133c0 75 34 145 138 145c96 0 129 -60 137 -122h-84c-3 26 -20 47 -53 47c-36 0 -53 -24 -53 -54v-36c7 6 28 17 56 17c100 0 134 -69 135 -137c-2 -69 -39 -133 -138 -133zM631 700h95l-481 -700h-95zM196 294v293l-77 -67v112l77 68
h85v-406h-85zM675 69c36 0 53 24 53 54v12c0 30 -17 54 -53 54c-35 0 -52 -22 -53 -51v-15c0 -30 17 -54 53 -54z" />
    <glyph glyph-name="uni215A" unicode="&#x215a;" horiz-adv-x="876" 
d="M675 -6c-103 0 -138 68 -138 140v133c0 75 34 145 138 145c96 0 129 -60 137 -122h-84c-3 26 -20 47 -53 47c-36 0 -53 -24 -53 -54v-36c7 6 28 17 56 17c100 0 134 -69 135 -137c-2 -69 -39 -133 -138 -133zM203 288c-107 0 -133 60 -141 122h84c3 -25 21 -47 52 -47
c40 0 55 23 55 49v21c0 30 -17 54 -53 54c-25 0 -41 -10 -48 -29h-85v242h255v-75h-170v-72c10 4 32 9 53 9c101 0 133 -70 133 -145v-15c0 -64 -49 -114 -135 -114zM631 700h95l-481 -700h-95zM675 69c36 0 53 24 53 54v12c0 30 -17 54 -53 54c-35 0 -52 -22 -53 -51v-15
c0 -30 17 -54 53 -54z" />
    <glyph glyph-name="oneeighth" unicode="&#x215b;" horiz-adv-x="876" 
d="M196 294v293l-77 -67v112l77 68h85v-406h-85zM631 700h95l-481 -700h-95zM675 -6c90 0 138 57 138 126c0 30 -12 66 -37 85c24 22 33 52 33 83c0 66 -42 124 -134 124c-91 0 -134 -58 -134 -124c0 -31 10 -61 34 -83c-25 -19 -38 -55 -38 -85c0 -69 49 -126 138 -126z
M675 69c-31 0 -53 24 -53 50c0 29 22 50 53 50c32 0 53 -21 53 -50c0 -27 -21 -50 -53 -50zM676 240c-33 0 -50 27 -50 49s17 48 50 48c32 0 48 -26 48 -48s-16 -49 -48 -49z" />
    <glyph glyph-name="threeeighths" unicode="&#x215c;" horiz-adv-x="876" 
d="M200 288c95 0 138 50 138 114c0 29 -15 75 -40 92c30 24 40 60 40 86c0 58 -38 126 -138 126c-96 0 -130 -59 -138 -122h84c3 26 21 47 54 47c36 0 53 -22 53 -56c0 -27 -22 -41 -58 -41h-33v-76h33c35 0 58 -19 58 -49c0 -28 -20 -46 -51 -46c-33 0 -53 21 -56 47h-84
c8 -62 44 -122 138 -122zM631 700h95l-481 -700h-95zM675 -6c90 0 138 57 138 126c0 30 -12 66 -37 85c24 22 33 52 33 83c0 66 -42 124 -134 124c-91 0 -134 -58 -134 -124c0 -31 10 -61 34 -83c-25 -19 -38 -55 -38 -85c0 -69 49 -126 138 -126zM675 69
c-31 0 -53 24 -53 50c0 29 22 50 53 50c32 0 53 -21 53 -50c0 -27 -21 -50 -53 -50zM676 240c-33 0 -50 27 -50 49s17 48 50 48c32 0 48 -26 48 -48s-16 -49 -48 -49z" />
    <glyph glyph-name="fiveeighths" unicode="&#x215d;" horiz-adv-x="876" 
d="M203 288c-107 0 -133 60 -141 122h84c3 -25 21 -47 52 -47c40 0 55 23 55 49v21c0 30 -17 54 -53 54c-25 0 -41 -10 -48 -29h-85v242h255v-75h-170v-72c10 4 32 9 53 9c101 0 133 -70 133 -145v-15c0 -64 -49 -114 -135 -114zM631 700h95l-481 -700h-95zM675 -6
c90 0 138 57 138 126c0 30 -12 66 -37 85c24 22 33 52 33 83c0 66 -42 124 -134 124c-91 0 -134 -58 -134 -124c0 -31 10 -61 34 -83c-25 -19 -38 -55 -38 -85c0 -69 49 -126 138 -126zM675 69c-31 0 -53 24 -53 50c0 29 22 50 53 50c32 0 53 -21 53 -50
c0 -27 -21 -50 -53 -50zM676 240c-33 0 -50 27 -50 49s17 48 50 48c32 0 48 -26 48 -48s-16 -49 -48 -49z" />
    <glyph glyph-name="seveneighths" unicode="&#x215e;" horiz-adv-x="876" 
d="M122 294l127 331h-185v75h273v-75l-127 -331h-88zM631 700h95l-481 -700h-95zM675 -6c90 0 138 57 138 126c0 30 -12 66 -37 85c24 22 33 52 33 83c0 66 -42 124 -134 124c-91 0 -134 -58 -134 -124c0 -31 10 -61 34 -83c-25 -19 -38 -55 -38 -85c0 -69 49 -126 138 -126
zM675 69c-31 0 -53 24 -53 50c0 29 22 50 53 50c32 0 53 -21 53 -50c0 -27 -21 -50 -53 -50zM676 240c-33 0 -50 27 -50 49s17 48 50 48c32 0 48 -26 48 -48s-16 -49 -48 -49z" />
    <glyph glyph-name="uni215F" unicode="&#x215f;" horiz-adv-x="475" 
d="M196 294v293l-77 -67v112l77 68h85v-406h-85zM631 700h95l-481 -700h-95z" />
    <glyph glyph-name="AEacute" unicode="&#x1fc;" horiz-adv-x="860" 
d="M237 268h152v330zM802 0h-413v169h-197l-78 -169h-113l322 700h479v-106h-306v-188h306v-106h-306v-194h306v-106zM571 854h137l-128 -109h-91z" />
    <glyph glyph-name="aeacute" unicode="&#x1fd;" horiz-adv-x="856" 
d="M481 223v-17c0 -78 45 -115 110 -115c52 0 91 24 105 73h107c-18 -137 -129 -174 -212 -174c-64 0 -145 22 -187 95c-45 -74 -107 -95 -182 -95c-94 0 -176 47 -176 153c0 59 26 128 112 155c62 19 130 24 217 30c-5 68 -48 101 -109 101c-52 0 -91 -24 -105 -73h-107
c18 137 129 174 212 174c53 0 120 -15 162 -73c46 60 110 73 163 73c90 0 215 -44 215 -214v-93h-325zM239 91c60 0 137 19 137 115v29c-92 -6 -162 -12 -200 -35c-13 -8 -25 -22 -25 -48c0 -42 32 -61 88 -61zM591 429c-65 0 -110 -37 -110 -113h220
c-1 76 -46 113 -110 113zM426 700h135l-118 -129h-84z" />
    <glyph glyph-name="Abreve" unicode="&#x102;" horiz-adv-x="616" 
d="M498 0l-59 169h-262l-59 -169h-110l245 700h110l245 -700h-110zM211 268h194l-97 278zM391 854h81c0 -61 -48 -109 -109 -109h-110c-61 0 -109 48 -109 109h81c0 -16 12 -28 28 -28h110c16 0 28 12 28 28z" />
    <glyph glyph-name="abreve" unicode="&#x103;" horiz-adv-x="543" 
d="M266 429c-52 0 -91 -24 -105 -73h-107c18 137 129 174 212 174c90 0 215 -44 215 -214v-316h-105v49c-33 -40 -86 -59 -154 -59c-94 0 -176 47 -176 153c0 59 26 128 112 155c62 19 130 24 217 30v1c-5 67 -48 100 -109 100zM238 571c-71 0 -129 58 -129 129h79
c0 -28 22 -50 50 -50h70c28 0 50 22 50 50h79c0 -71 -58 -129 -129 -129h-70zM239 91c60 0 137 19 137 115v29c-92 -6 -162 -12 -200 -35c-13 -8 -25 -22 -25 -48c0 -42 32 -61 88 -61z" />
    <glyph glyph-name="Amacron" unicode="&#x100;" horiz-adv-x="616" 
d="M498 0l-59 169h-262l-59 -169h-110l245 700h110l245 -700h-110zM211 268h194l-97 278zM147 843h322v-87h-322v87z" />
    <glyph glyph-name="amacron" unicode="&#x101;" horiz-adv-x="543" 
d="M266 429c-52 0 -91 -24 -105 -73h-107c18 137 129 174 212 174c90 0 215 -44 215 -214v-316h-105v49c-33 -40 -86 -59 -154 -59c-94 0 -176 47 -176 153c0 59 26 128 112 155c62 19 130 24 217 30v1c-5 67 -48 100 -109 100zM112 678h322v-85h-322v85zM239 91
c60 0 137 19 137 115v29c-92 -6 -162 -12 -200 -35c-13 -8 -25 -22 -25 -48c0 -42 32 -61 88 -61z" />
    <glyph glyph-name="Aogonek" unicode="&#x104;" horiz-adv-x="616" 
d="M608 0c-42 -30 -82 -59 -82 -84c0 -19 12 -24 27 -24c19 0 42 10 55 17v-80c-26 -11 -58 -18 -88 -18c-52 0 -101 22 -101 86c0 48 34 81 79 103l-59 169h-262l-59 -169h-110l245 700h110zM211 268h194l-97 278z" />
    <glyph glyph-name="aogonek" unicode="&#x105;" horiz-adv-x="543" 
d="M376 0v49c-33 -40 -86 -59 -154 -59c-94 0 -176 47 -176 153c0 59 26 128 112 155c62 19 130 24 217 30v1c-5 67 -48 100 -109 100c-52 0 -91 -24 -105 -73h-107c18 137 129 174 212 174c90 0 215 -44 215 -214v-316c-42 -30 -82 -59 -82 -84c0 -19 12 -26 27 -26
c19 0 42 10 55 17v-78c-26 -11 -58 -18 -88 -18c-52 0 -99 22 -99 86c0 48 37 81 82 103zM239 91c60 0 137 19 137 115v29c-92 -6 -162 -12 -200 -35c-13 -8 -25 -22 -25 -48c0 -42 32 -61 88 -61z" />
    <glyph glyph-name="Aringacute" unicode="&#x1fa;" horiz-adv-x="616" 
d="M234 721c0 41 33 75 74 75s75 -34 75 -75c0 -16 -5 -30 -13 -42l238 -679h-110l-59 169h-262l-59 -169h-110l238 680c-8 11 -12 26 -12 41zM211 268h194l-97 278zM317 920h137l-128 -109h-91zM287 721c0 -12 9 -21 21 -21h3c11 1 18 10 18 21c0 12 -9 21 -21 21
s-21 -9 -21 -21z" />
    <glyph glyph-name="aringacute" unicode="&#x1fb;" horiz-adv-x="543" 
d="M266 429c-52 0 -91 -24 -105 -73h-107c18 137 129 174 212 174c90 0 215 -44 215 -214v-316h-105v49c-33 -40 -86 -59 -154 -59c-94 0 -176 47 -176 153c0 59 26 128 112 155c62 19 130 24 217 30v1c-5 67 -48 100 -109 100zM239 91c60 0 137 19 137 115v29
c-92 -6 -162 -12 -200 -35c-13 -8 -25 -22 -25 -48c0 -42 32 -61 88 -61zM199 635c0 41 33 75 74 75s75 -34 75 -75s-34 -74 -75 -74s-74 33 -74 74zM250 635c0 -13 10 -23 23 -23s23 10 23 23s-10 23 -23 23s-23 -10 -23 -23zM273 854h135l-118 -129h-84z" />
    <glyph glyph-name="Cacute" unicode="&#x106;" horiz-adv-x="597" 
d="M554 217c-9 -139 -107 -227 -250 -227c-150 0 -251 96 -251 247v226c0 151 101 247 251 247c143 0 242 -87 250 -227h-107c-9 84 -78 121 -143 121c-70 0 -144 -43 -144 -141v-226c0 -98 74 -141 144 -141c65 0 134 37 143 121h107zM312 854h137l-128 -109h-91z" />
    <glyph glyph-name="cacute" unicode="&#x107;" horiz-adv-x="529" 
d="M484 176c-13 -147 -129 -186 -214 -186c-90 0 -215 44 -215 214v112c0 170 125 214 215 214c85 0 201 -39 214 -186h-107c-10 57 -51 85 -107 85c-65 0 -110 -37 -110 -115v-108c0 -78 45 -115 110 -115c56 0 98 28 108 85h106zM269 700h135l-118 -129h-84z" />
    <glyph glyph-name="Ccaron" unicode="&#x10c;" horiz-adv-x="597" 
d="M554 217c-9 -139 -107 -227 -250 -227c-150 0 -251 96 -251 247v226c0 151 101 247 251 247c143 0 242 -87 250 -227h-107c-9 84 -78 121 -143 121c-70 0 -144 -43 -144 -141v-226c0 -98 74 -141 144 -141c65 0 134 37 143 121h107zM303 818l44 36h130l-132 -109h-84
l-132 109h130z" />
    <glyph glyph-name="ccaron" unicode="&#x10d;" horiz-adv-x="529" 
d="M484 176c-13 -147 -129 -186 -214 -186c-90 0 -215 44 -215 214v112c0 170 125 214 215 214c85 0 201 -39 214 -186h-107c-10 57 -51 85 -107 85c-65 0 -110 -37 -110 -115v-108c0 -78 45 -115 110 -115c56 0 98 28 108 85h106zM311 571l132 129h-117l-57 -56l-57 56
h-117l132 -129h84z" />
    <glyph glyph-name="Ccircumflex" unicode="&#x108;" horiz-adv-x="597" 
d="M554 217c-9 -139 -107 -227 -250 -227c-150 0 -251 96 -251 247v226c0 151 101 247 251 247c143 0 242 -87 250 -227h-107c-9 84 -78 121 -143 121c-70 0 -144 -43 -144 -141v-226c0 -98 74 -141 144 -141c65 0 134 37 143 121h107zM303 781l44 -36h130l-132 109h-84
l-132 -109h130z" />
    <glyph glyph-name="ccircumflex" unicode="&#x109;" horiz-adv-x="529" 
d="M484 176c-13 -147 -129 -186 -214 -186c-90 0 -215 44 -215 214v112c0 170 125 214 215 214c85 0 201 -39 214 -186h-107c-10 57 -51 85 -107 85c-65 0 -110 -37 -110 -115v-108c0 -78 45 -115 110 -115c56 0 98 28 108 85h106zM311 700l132 -129h-117l-57 56l-57 -56
h-117l132 129h84z" />
    <glyph glyph-name="Cdotaccent" unicode="&#x10a;" horiz-adv-x="597" 
d="M554 217c-9 -139 -107 -227 -250 -227c-150 0 -251 96 -251 247v226c0 151 101 247 251 247c143 0 242 -87 250 -227h-107c-9 84 -78 121 -143 121c-70 0 -144 -43 -144 -141v-226c0 -98 74 -141 144 -141c65 0 134 37 143 121h107zM357 853v-107h-107v107h107z" />
    <glyph glyph-name="cdotaccent" unicode="&#x10b;" horiz-adv-x="529" 
d="M484 176c-13 -147 -129 -186 -214 -186c-90 0 -215 44 -215 214v112c0 170 125 214 215 214c85 0 201 -39 214 -186h-107c-10 57 -51 85 -107 85c-65 0 -110 -37 -110 -115v-108c0 -78 45 -115 110 -115c56 0 98 28 108 85h106zM322 689v-107h-105v107h105z" />
    <glyph glyph-name="Dcaron" unicode="&#x10e;" horiz-adv-x="629" 
d="M325 0h-251v700h251c150 0 251 -96 251 -247v-206c0 -151 -101 -247 -251 -247zM181 106h144c70 0 144 45 144 143v202c0 98 -74 143 -144 143h-144v-488zM305 818l44 36h130l-132 -109h-84l-132 109h130z" />
    <glyph glyph-name="dcaron" unicode="&#x10f;" horiz-adv-x="554" 
d="M668 700l-79 -158h-74l28 158h125zM160 206v108c0 78 45 114 110 114s110 -36 110 -114v-108c0 -78 -52 -114 -117 -114c-58 0 -103 36 -103 114zM55 316v-112c0 -159 116 -214 205 -214c54 0 105 29 120 59v-49h105v700h-105v-229c-15 30 -66 59 -120 59
c-89 0 -205 -55 -205 -214z" />
    <glyph glyph-name="Dcroat" unicode="&#x110;" horiz-adv-x="640" 
d="M336 0h-251v315h-70v71h70v314h251c150 0 251 -96 251 -247v-206c0 -151 -101 -247 -251 -247zM192 106h144c70 0 144 45 144 143v202c0 98 -74 143 -144 143h-144v-208h144v-71h-144v-209z" />
    <glyph glyph-name="dcroat" unicode="&#x111;" horiz-adv-x="555" 
d="M55 316v-112c0 -159 116 -214 205 -214c54 0 105 29 120 59v-49h105v577h70v66h-70v57h-105v-57h-120v-66h120v-106c-15 30 -66 59 -120 59c-89 0 -205 -55 -205 -214zM160 206v108c0 78 45 114 110 114s110 -36 110 -114v-108c0 -78 -52 -114 -117 -114
c-58 0 -103 36 -103 114z" />
    <glyph glyph-name="Ebreve" unicode="&#x114;" horiz-adv-x="545" 
d="M181 594v-188h306v-106h-306v-194h306v-106h-413v700h413v-106h-306zM363 854h81c0 -61 -48 -109 -109 -109h-110c-61 0 -109 48 -109 109h81c0 -16 12 -28 28 -28h110c16 0 28 12 28 28z" />
    <glyph glyph-name="ebreve" unicode="&#x115;" horiz-adv-x="535" 
d="M270 91c52 0 91 24 105 73h107c-18 -137 -129 -174 -212 -174c-90 0 -215 44 -215 214v112c0 170 125 214 215 214s215 -44 215 -214v-93h-325v-17c0 -78 45 -115 110 -115zM235 571c-71 0 -129 58 -129 129h79c0 -28 22 -50 50 -50h70c28 0 50 22 50 50h79
c0 -71 -58 -129 -129 -129h-70zM270 429c-65 0 -110 -37 -110 -112v-1h220v1c-1 75 -46 112 -110 112z" />
    <glyph glyph-name="Ecaron" unicode="&#x11a;" horiz-adv-x="545" 
d="M181 594v-188h306v-106h-306v-194h306v-106h-413v700h413v-106h-306zM280 818l44 36h130l-132 -109h-84l-132 109h130z" />
    <glyph glyph-name="ecaron" unicode="&#x11b;" horiz-adv-x="535" 
d="M270 91c52 0 91 24 105 73h107c-18 -137 -129 -174 -212 -174c-90 0 -215 44 -215 214v112c0 170 125 214 215 214s215 -44 215 -214v-93h-325v-17c0 -78 45 -115 110 -115zM312 571l132 129h-117l-57 -56l-57 56h-117l132 -129h84zM270 429c-65 0 -110 -37 -110 -112v-1
h220v1c-1 75 -46 112 -110 112z" />
    <glyph glyph-name="Edotaccent" unicode="&#x116;" horiz-adv-x="545" 
d="M181 594v-188h306v-106h-306v-194h306v-106h-413v700h413v-106h-306zM334 853v-107h-107v107h107z" />
    <glyph glyph-name="edotaccent" unicode="&#x117;" horiz-adv-x="535" 
d="M270 91c52 0 91 24 105 73h107c-18 -137 -129 -174 -212 -174c-90 0 -215 44 -215 214v112c0 170 125 214 215 214s215 -44 215 -214v-93h-325v-17c0 -78 45 -115 110 -115zM270 429c-65 0 -110 -37 -110 -112v-1h220v1c-1 75 -46 112 -110 112zM323 689v-107h-105v107
h105z" />
    <glyph glyph-name="Emacron" unicode="&#x112;" horiz-adv-x="545" 
d="M181 594v-188h306v-106h-306v-194h306v-106h-413v700h413v-106h-306zM119 843h322v-87h-322v87z" />
    <glyph glyph-name="emacron" unicode="&#x113;" horiz-adv-x="535" 
d="M270 91c52 0 91 24 105 73h107c-18 -137 -129 -174 -212 -174c-90 0 -215 44 -215 214v112c0 170 125 214 215 214s215 -44 215 -214v-93h-325v-17c0 -78 45 -115 110 -115zM109 678h322v-85h-322v85zM270 429c-65 0 -110 -37 -110 -112v-1h220v1c-1 75 -46 112 -110 112
z" />
    <glyph glyph-name="Eng" unicode="&#x14a;" horiz-adv-x="650" 
d="M375 -184h-50v106h50c54 0 84 33 92 81l-286 499v-502h-107v700h107l288 -502v502h107v-669c0 -143 -76 -215 -201 -215z" />
    <glyph glyph-name="eng" unicode="&#x14b;" horiz-adv-x="561" 
d="M499 316v-377c0 -81 -37 -123 -123 -123h-46v101h16c41 0 48 11 48 49v348c0 78 -45 114 -110 114s-110 -36 -110 -114v-314h-105v516h105v-45c15 30 66 59 120 59c89 0 205 -55 205 -214z" />
    <glyph glyph-name="Eogonek" unicode="&#x118;" horiz-adv-x="545" 
d="M380 0h-306v700h413v-106h-306v-188h306v-106h-306v-194h306v-106c-42 -30 -82 -59 -82 -84c0 -19 12 -24 27 -24c19 0 42 10 55 17v-80c-26 -11 -58 -18 -88 -18c-52 0 -101 22 -101 86c0 48 37 81 82 103z" />
    <glyph glyph-name="eogonek" unicode="&#x119;" horiz-adv-x="535" 
d="M270 91c52 0 91 24 105 73h107c-10 -71 -41 -113 -87 -142c-45 -29 -111 -75 -111 -106c0 -19 12 -26 27 -26c19 0 42 10 55 17v-78c-26 -11 -58 -18 -88 -18c-52 0 -99 22 -99 86c0 42 28 73 65 95c-86 8 -189 57 -189 212v112c0 170 125 214 215 214s215 -44 215 -214
v-93h-325v-17c0 -78 45 -115 110 -115zM270 429c-65 0 -110 -37 -110 -112v-1h220v1c-1 75 -46 112 -110 112z" />
    <glyph glyph-name="Gbreve" unicode="&#x11e;" horiz-adv-x="604" 
d="M304 710c142 0 240 -86 250 -224h-107c-11 82 -79 118 -143 118c-70 0 -144 -43 -144 -141v-226c0 -98 74 -141 144 -141s144 43 144 141v45h-144v103h251v-148c0 -151 -101 -247 -251 -247s-251 96 -251 247v226c0 151 101 247 251 247zM387 854h81
c0 -61 -48 -109 -109 -109h-110c-61 0 -109 48 -109 109h81c0 -16 12 -28 28 -28h110c16 0 28 12 28 28z" />
    <glyph glyph-name="gbreve" unicode="&#x11f;" horiz-adv-x="552" 
d="M268 -93c65 0 110 37 110 115v57c-15 -30 -66 -59 -120 -59c-89 0 -205 55 -205 214v82c0 159 116 214 205 214c54 0 105 -29 120 -59v45h105v-496c0 -170 -125 -214 -215 -214c-85 0 -199 39 -213 184h106c11 -56 52 -83 107 -83zM158 314v-78c0 -78 45 -114 110 -114
s110 36 110 114v78c0 78 -45 114 -110 114s-110 -36 -110 -114zM233 571c-71 0 -129 58 -129 129h79c0 -28 22 -50 50 -50h70c28 0 50 22 50 50h79c0 -71 -58 -129 -129 -129h-70z" />
    <glyph glyph-name="Gcircumflex" unicode="&#x11c;" horiz-adv-x="604" 
d="M304 710c142 0 240 -86 250 -224h-107c-11 82 -79 118 -143 118c-70 0 -144 -43 -144 -141v-226c0 -98 74 -141 144 -141s144 43 144 141v45h-144v103h251v-148c0 -151 -101 -247 -251 -247s-251 96 -251 247v226c0 151 101 247 251 247zM304 781l44 -36h130l-132 109
h-84l-132 -109h130z" />
    <glyph glyph-name="gcircumflex" unicode="&#x11d;" horiz-adv-x="552" 
d="M268 -93c65 0 110 37 110 115v57c-15 -30 -66 -59 -120 -59c-89 0 -205 55 -205 214v82c0 159 116 214 205 214c54 0 105 -29 120 -59v45h105v-496c0 -170 -125 -214 -215 -214c-85 0 -199 39 -213 184h106c11 -56 52 -83 107 -83zM158 314v-78c0 -78 45 -114 110 -114
s110 36 110 114v78c0 78 -45 114 -110 114s-110 -36 -110 -114zM310 700l132 -129h-117l-57 56l-57 -56h-117l132 129h84z" />
    <glyph glyph-name="Gcommaaccent" unicode="&#x122;" horiz-adv-x="604" 
d="M304 710c142 0 240 -86 250 -224h-107c-11 82 -79 118 -143 118c-70 0 -144 -43 -144 -141v-226c0 -98 74 -141 144 -141s144 43 144 141v45h-144v103h251v-148c0 -151 -101 -247 -251 -247s-251 96 -251 247v226c0 151 101 247 251 247zM242 -174v124h124v-124l-29 -94
h-79l29 94h-45z" />
    <glyph glyph-name="gcommaaccent" unicode="&#x123;" horiz-adv-x="552" 
d="M268 -93c65 0 110 37 110 115v57c-15 -30 -66 -59 -120 -59c-89 0 -205 55 -205 214v82c0 159 116 214 205 214c54 0 105 -29 120 -59v45h105v-496c0 -170 -125 -214 -215 -214c-85 0 -199 39 -213 184h106c11 -56 52 -83 107 -83zM158 314v-78c0 -78 45 -114 110 -114
s110 36 110 114v78c0 78 -45 114 -110 114s-110 -36 -110 -114zM330 695v-124h-124v124l29 94h79l-29 -94h45z" />
    <glyph glyph-name="Gdotaccent" unicode="&#x120;" horiz-adv-x="604" 
d="M304 710c142 0 240 -86 250 -224h-107c-11 82 -79 118 -143 118c-70 0 -144 -43 -144 -141v-226c0 -98 74 -141 144 -141s144 43 144 141v45h-144v103h251v-148c0 -151 -101 -247 -251 -247s-251 96 -251 247v226c0 151 101 247 251 247zM358 853v-107h-107v107h107z" />
    <glyph glyph-name="gdotaccent" unicode="&#x121;" horiz-adv-x="552" 
d="M268 -93c65 0 110 37 110 115v57c-15 -30 -66 -59 -120 -59c-89 0 -205 55 -205 214v82c0 159 116 214 205 214c54 0 105 -29 120 -59v45h105v-496c0 -170 -125 -214 -215 -214c-85 0 -199 39 -213 184h106c11 -56 52 -83 107 -83zM158 314v-78c0 -78 45 -114 110 -114
s110 36 110 114v78c0 78 -45 114 -110 114s-110 -36 -110 -114zM321 689v-107h-105v107h105z" />
    <glyph glyph-name="Gtilde" horiz-adv-x="604" 
d="M304 710c142 0 240 -86 250 -224h-107c-11 82 -79 118 -143 118c-70 0 -144 -43 -144 -141v-226c0 -98 74 -141 144 -141s144 43 144 141v45h-144v103h251v-148c0 -151 -101 -247 -251 -247s-251 96 -251 247v226c0 151 101 247 251 247zM244 859c17 0 34 0 52 -8l38 -16
c7 -3 14 -6 20 -6c13 0 23 9 30 28h91c-17 -100 -78 -116 -111 -116c-17 0 -34 0 -52 8l-38 16c-7 3 -14 6 -20 6c-13 0 -23 -9 -30 -28h-91c17 100 78 116 111 116z" />
    <glyph glyph-name="gtilde" horiz-adv-x="552" 
d="M268 -93c65 0 110 37 110 115v57c-15 -30 -66 -59 -120 -59c-89 0 -205 55 -205 214v82c0 159 116 214 205 214c54 0 105 -29 120 -59v45h105v-496c0 -170 -125 -214 -215 -214c-85 0 -199 39 -213 184h106c11 -56 52 -83 107 -83zM158 314v-78c0 -78 45 -114 110 -114
s110 36 110 114v78c0 78 -45 114 -110 114s-110 -36 -110 -114zM181 579h-84c17 100 78 116 111 116c17 0 34 -1 52 -9l38 -16c7 -3 16 -7 27 -7c12 0 22 7 30 30h84c-17 -100 -78 -116 -111 -116c-17 0 -34 1 -52 9l-38 16c-7 3 -16 7 -27 7c-12 0 -22 -7 -30 -30z" />
    <glyph glyph-name="Hbar" unicode="&#x126;" horiz-adv-x="650" 
d="M181 700v-111h288v111h107v-700h-107v300h-288v-300h-107v700h107zM469 406v112h-288v-112h288z" />
    <glyph glyph-name="hbar" unicode="&#x127;" horiz-adv-x="562" 
d="M175 314v-314h-105v577h-70v66h70v57h105v-57h120v-66h-120v-106c15 30 66 59 120 59c89 0 205 -55 205 -214v-316h-105v314c0 78 -45 114 -110 114s-110 -36 -110 -114z" />
    <glyph glyph-name="Hcircumflex" unicode="&#x124;" horiz-adv-x="650" 
d="M469 406v294h107v-700h-107v300h-288v-300h-107v700h107v-294h288zM325 781l44 -36h130l-132 109h-84l-132 -109h130z" />
    <glyph glyph-name="hcircumflex" unicode="&#x125;" horiz-adv-x="561" 
d="M174 314v-314h-105v700h105v-229c15 30 66 59 120 59c89 0 205 -55 205 -214v-316h-105v314c0 78 -45 114 -110 114s-110 -36 -110 -114zM326 874l132 -129h-117l-57 56l-57 -56h-117l132 129h84z" />
    <glyph glyph-name="IJ" unicode="&#x132;" horiz-adv-x="730" 
d="M181 700v-700h-107v700h107zM263 200h107c2 -61 32 -104 94 -104c64 0 94 45 94 109v495h107v-495c0 -143 -76 -215 -201 -215c-124 0 -199 70 -201 210z" />
    <glyph glyph-name="ij" unicode="&#x133;" horiz-adv-x="486" 
d="M174 700v-107h-105v107h105zM174 516v-516h-105v516h105zM417 700v-107h-105v107h105zM312 -34v550h105v-577c0 -81 -37 -123 -123 -123h-46v101h16c41 0 48 11 48 49z" />
    <glyph glyph-name="Ibreve" unicode="&#x12c;" horiz-adv-x="255" 
d="M181 700v-700h-107v700h107zM210 854h81c0 -61 -48 -109 -109 -109h-110c-61 0 -109 48 -109 109h81c0 -16 12 -28 28 -28h110c16 0 28 12 28 28z" />
    <glyph glyph-name="ibreve" unicode="&#x12d;" horiz-adv-x="243" 
d="M174 516v-516h-105v516h105zM86 571c-71 0 -129 58 -129 129h79c0 -28 22 -50 50 -50h70c28 0 50 22 50 50h79c0 -71 -58 -129 -129 -129h-70z" />
    <glyph glyph-name="Idotaccent" unicode="&#x130;" horiz-adv-x="255" 
d="M181 700v-700h-107v700h107zM181 853v-107h-107v107h107z" />
    <glyph glyph-name="Imacron" unicode="&#x12a;" horiz-adv-x="255" 
d="M181 700v-700h-107v700h107zM-34 862h322v-85h-322v85z" />
    <glyph glyph-name="imacron" unicode="&#x12b;" horiz-adv-x="243" 
d="M174 516v-516h-105v516h105zM-40 678h322v-85h-322v85z" />
    <glyph glyph-name="Iogonek" unicode="&#x12e;" horiz-adv-x="255" 
d="M74 0v700h107v-700c-42 -30 -82 -59 -82 -84c0 -19 12 -24 27 -24c19 0 42 10 55 17v-80c-26 -11 -58 -18 -88 -18c-52 0 -101 22 -101 86c0 48 37 81 82 103z" />
    <glyph glyph-name="iogonek" unicode="&#x12f;" horiz-adv-x="243" 
d="M69 0v516h105v-516c-42 -30 -82 -59 -82 -84c0 -19 12 -26 27 -26c19 0 42 10 55 17v-78c-26 -11 -58 -18 -88 -18c-52 0 -99 22 -99 86c0 48 37 81 82 103zM174 700v-107h-105v107h105z" />
    <glyph glyph-name="Itilde" unicode="&#x128;" horiz-adv-x="255" 
d="M181 700v-700h-107v700h107zM67 859c17 0 34 0 52 -8l38 -16c7 -3 14 -6 20 -6c13 0 23 9 30 28h91c-17 -100 -78 -116 -111 -116c-17 0 -34 0 -52 8l-38 16c-7 3 -14 6 -20 6c-13 0 -23 -9 -30 -28h-91c17 100 78 116 111 116z" />
    <glyph glyph-name="itilde" unicode="&#x129;" horiz-adv-x="243" 
d="M174 516v-516h-105v516h105zM34 579h-84c17 100 78 116 111 116c17 0 34 -1 52 -9l38 -16c7 -3 16 -7 27 -7c12 0 22 7 30 30h84c-17 -100 -78 -116 -111 -116c-17 0 -34 1 -52 9l-38 16c-7 3 -16 7 -27 7c-12 0 -22 -7 -30 -30z" />
    <glyph glyph-name="Jcircumflex" unicode="&#x134;" horiz-adv-x="475" 
d="M8 200h107c2 -61 32 -104 94 -104c64 0 94 45 94 109v495h107v-495c0 -143 -76 -215 -201 -215c-124 0 -199 70 -201 210zM356 781l44 -36h130l-132 109h-84l-132 -109h130z" />
    <glyph glyph-name="jcircumflex" unicode="&#x135;" horiz-adv-x="243" 
d="M69 -34v550h105v-577c0 -81 -37 -123 -123 -123h-46v101h16c41 0 48 11 48 49zM163 700l132 -129h-117l-57 56l-57 -56h-117l132 129h84z" />
    <glyph glyph-name="dotlessj" unicode="&#x237;" horiz-adv-x="243" 
d="M69 -34v550h105v-577c0 -81 -37 -123 -123 -123h-46v101h16c41 0 48 11 48 49z" />
    <glyph glyph-name="Kcommaaccent" unicode="&#x136;" horiz-adv-x="631" 
d="M181 203v-203h-107v700h107v-342l291 342h132l-245 -288l272 -412h-126l-217 329zM271 -174v124h124v-124l-29 -94h-79l29 94h-45z" />
    <glyph glyph-name="kcommaaccent" unicode="&#x137;" horiz-adv-x="526" 
d="M174 700v-394l193 210h127l-186 -202l214 -314h-122l-162 238l-64 -70v-168h-105v700h105zM215 -174v124h124v-124l-29 -94h-79l29 94h-45z" />
    <glyph glyph-name="kgreenlandic" unicode="&#x138;" horiz-adv-x="526" 
d="M174 516v-225l193 225h127l-176 -206l204 -310h-122l-151 230l-75 -88v-142h-105v516h105z" />
    <glyph glyph-name="Lacute" unicode="&#x139;" horiz-adv-x="496" 
d="M74 0v700h107v-594h306v-106h-413zM136 854h137l-128 -109h-91z" />
    <glyph glyph-name="lacute" unicode="&#x13a;" horiz-adv-x="272" 
d="M172 150v550h-105v-577c0 -81 37 -123 123 -123h46v101h-16c-41 0 -48 11 -48 49zM119 874h135l-118 -129h-84z" />
    <glyph glyph-name="Lcaron" unicode="&#x13d;" horiz-adv-x="496" 
d="M438 700l-74 -158h-81l28 158h127zM74 0v700h107v-594h306v-106h-413z" />
    <glyph glyph-name="lcaron" unicode="&#x13e;" horiz-adv-x="272" 
d="M355 700l-79 -158h-74l28 158h125zM172 150v550h-105v-577c0 -81 37 -123 123 -123h46v101h-16c-41 0 -48 11 -48 49z" />
    <glyph glyph-name="Lcommaaccent" unicode="&#x13b;" horiz-adv-x="496" 
d="M74 0v700h107v-594h306v-106h-413zM218 -174v124h124v-124l-29 -94h-79l29 94h-45z" />
    <glyph glyph-name="lcommaaccent" unicode="&#x13c;" horiz-adv-x="272" 
d="M172 150v550h-105v-577c0 -81 37 -123 123 -123h46v101h-16c-41 0 -48 11 -48 49zM89 -174v124h124v-124l-29 -94h-79l29 94h-45z" />
    <glyph glyph-name="Ldot" unicode="&#x13f;" horiz-adv-x="496" 
d="M74 0v700h107v-594h306v-106h-413zM424 457v-107h-107v107h107z" />
    <glyph glyph-name="ldot" unicode="&#x140;" horiz-adv-x="328" 
d="M172 150v550h-105v-577c0 -81 37 -123 123 -123h46v101h-16c-41 0 -48 11 -48 49zM337 455v-107h-105v107h105z" />
    <glyph glyph-name="Mcircumflex" horiz-adv-x="736" 
d="M368 313l187 387h107v-700h-106v486l-144 -298h-88l-144 298v-486h-106v700h107zM368 781l44 -36h130l-132 109h-84l-132 -109h130z" />
    <glyph glyph-name="mcircumflex" horiz-adv-x="866" 
d="M489 314v-314h-105v314c0 78 -47 114 -105 114s-105 -36 -105 -114v-314h-105v516h105v-45c13 28 66 59 115 59c48 0 114 -23 148 -73c34 50 103 73 157 73c95 0 210 -55 210 -214v-316h-105v314c0 78 -47 114 -105 114s-105 -36 -105 -114zM478 700l132 -129h-117
l-57 56l-57 -56h-117l132 129h84z" />
    <glyph glyph-name="Mmacron" horiz-adv-x="736" 
d="M368 313l187 387h107v-700h-106v486l-144 -298h-88l-144 298v-486h-106v700h107zM207 843h322v-87h-322v87z" />
    <glyph glyph-name="mmacron" horiz-adv-x="866" 
d="M489 314v-314h-105v314c0 78 -47 114 -105 114s-105 -36 -105 -114v-314h-105v516h105v-45c13 28 66 59 115 59c48 0 114 -23 148 -73c34 50 103 73 157 73c95 0 210 -55 210 -214v-316h-105v314c0 78 -47 114 -105 114s-105 -36 -105 -114zM275 678h322v-85h-322v85z
" />
    <glyph glyph-name="Nacute" unicode="&#x143;" horiz-adv-x="650" 
d="M576 700v-700h-107l-288 502v-502h-107v700h107l288 -502v502h107zM334 854h137l-128 -109h-91z" />
    <glyph glyph-name="nacute" unicode="&#x144;" horiz-adv-x="561" 
d="M174 314v-314h-105v516h105v-45c15 30 66 59 120 59c89 0 205 -55 205 -214v-316h-105v314c0 78 -45 114 -110 114s-110 -36 -110 -114zM284 700h135l-118 -129h-84z" />
    <glyph glyph-name="Ncaron" unicode="&#x147;" horiz-adv-x="650" 
d="M576 700v-700h-107l-288 502v-502h-107v700h107l288 -502v502h107zM325 818l44 36h130l-132 -109h-84l-132 109h130z" />
    <glyph glyph-name="ncaron" unicode="&#x148;" horiz-adv-x="561" 
d="M174 314v-314h-105v516h105v-45c15 30 66 59 120 59c89 0 205 -55 205 -214v-316h-105v314c0 78 -45 114 -110 114s-110 -36 -110 -114zM326 571l132 129h-117l-57 -56l-57 56h-117l132 -129h84z" />
    <glyph glyph-name="Ncircumflex" horiz-adv-x="650" 
d="M576 700v-700h-107l-288 502v-502h-107v700h107l288 -502v502h107zM325 781l44 -36h130l-132 109h-84l-132 -109h130z" />
    <glyph glyph-name="ncircumflex" horiz-adv-x="561" 
d="M174 314v-314h-105v516h105v-45c15 30 66 59 120 59c89 0 205 -55 205 -214v-316h-105v314c0 78 -45 114 -110 114s-110 -36 -110 -114zM326 700l132 -129h-117l-57 56l-57 -56h-117l132 129h84z" />
    <glyph glyph-name="Ncommaaccent" unicode="&#x145;" horiz-adv-x="650" 
d="M576 700v-700h-107l-288 502v-502h-107v700h107l288 -502v502h107zM263 -174v124h124v-124l-29 -94h-79l29 94h-45z" />
    <glyph glyph-name="ncommaaccent" unicode="&#x146;" horiz-adv-x="561" 
d="M174 314v-314h-105v516h105v-45c15 30 66 59 120 59c89 0 205 -55 205 -214v-316h-105v314c0 78 -45 114 -110 114s-110 -36 -110 -114zM222 -174v124h124v-124l-29 -94h-79l29 94h-45z" />
    <glyph glyph-name="Ndieresis" horiz-adv-x="650" 
d="M576 700v-700h-107l-288 502v-502h-107v700h107l288 -502v502h107zM283 853v-107h-107v107h107zM474 853v-107h-107v107h107z" />
    <glyph glyph-name="ndieresis" horiz-adv-x="561" 
d="M174 314v-314h-105v516h105v-45c15 30 66 59 120 59c89 0 205 -55 205 -214v-316h-105v314c0 78 -45 114 -110 114s-110 -36 -110 -114zM241 689v-107h-105v107h105zM434 689v-107h-105v107h105z" />
    <glyph glyph-name="Nmacron" horiz-adv-x="650" 
d="M576 700v-700h-107l-288 502v-502h-107v700h107l288 -502v502h107zM164 843h322v-87h-322v87z" />
    <glyph glyph-name="nmacron" horiz-adv-x="561" 
d="M174 314v-314h-105v516h105v-45c15 30 66 59 120 59c89 0 205 -55 205 -214v-316h-105v314c0 78 -45 114 -110 114s-110 -36 -110 -114zM124 678h322v-85h-322v85z" />
    <glyph glyph-name="napostrophe" unicode="&#x149;" horiz-adv-x="621" 
d="M234 314v-314h-105v516h105v-45c15 30 66 59 120 59c89 0 205 -55 205 -214v-316h-105v314c0 78 -45 114 -110 114s-110 -36 -110 -114zM-5 566v134h134v-134l-39 -104h-79l39 104h-55z" />
    <glyph glyph-name="Obreve" unicode="&#x14e;" horiz-adv-x="608" 
d="M53 237v226c0 151 101 247 251 247s251 -96 251 -247v-226c0 -151 -101 -247 -251 -247s-251 96 -251 247zM448 237v226c0 98 -74 141 -144 141s-144 -43 -144 -141v-226c0 -98 74 -141 144 -141s144 43 144 141zM387 854h81c0 -61 -48 -109 -109 -109h-110
c-61 0 -109 48 -109 109h81c0 -16 12 -28 28 -28h110c16 0 28 12 28 28z" />
    <glyph glyph-name="obreve" unicode="&#x14f;" horiz-adv-x="540" 
d="M55 204v112c0 170 125 214 215 214s215 -44 215 -214v-112c0 -170 -125 -214 -215 -214s-215 44 -215 214zM380 206v108c0 78 -45 115 -110 115s-110 -37 -110 -115v-108c0 -78 45 -115 110 -115s110 37 110 115zM235 571c-71 0 -129 58 -129 129h79c0 -28 22 -50 50 -50
h70c28 0 50 22 50 50h79c0 -71 -58 -129 -129 -129h-70z" />
    <glyph glyph-name="Ohorn" unicode="&#x1a0;" horiz-adv-x="625" 
d="M53 237v226c0 151 101 247 251 247c83 0 152 -30 196 -82c19 1 34 15 34 33c0 7 -2 14 -7 21l99 28c9 -19 13 -37 13 -54c0 -54 -37 -91 -98 -103c9 -27 14 -57 14 -90v-226c0 -151 -101 -247 -251 -247s-251 96 -251 247zM448 237v226c0 98 -74 141 -144 141
s-144 -43 -144 -141v-226c0 -98 74 -141 144 -141s144 43 144 141z" />
    <glyph glyph-name="ohorn" unicode="&#x1a1;" horiz-adv-x="590" 
d="M55 204v112c0 170 125 214 215 214c59 0 134 -20 178 -82c20 1 35 15 35 33c0 7 -2 14 -7 21l99 28c9 -19 13 -37 13 -54c0 -57 -42 -95 -108 -105c3 -17 5 -35 5 -55v-112c0 -170 -125 -214 -215 -214s-215 44 -215 214zM380 206v108c0 78 -45 115 -110 115
s-110 -37 -110 -115v-108c0 -78 45 -115 110 -115s110 37 110 115z" />
    <glyph glyph-name="Ohungarumlaut" unicode="&#x150;" horiz-adv-x="608" 
d="M448 237v226c0 98 -74 141 -144 141s-144 -43 -144 -141v-226c0 -98 74 -141 144 -141s144 43 144 141zM53 237v226c0 151 101 247 251 247s251 -96 251 -247v-226c0 -151 -101 -247 -251 -247s-251 96 -251 247zM248 854h132l-118 -109h-86zM423 854h132l-118 -109h-86z
" />
    <glyph glyph-name="ohungarumlaut" unicode="&#x151;" horiz-adv-x="540" 
d="M380 206v108c0 78 -45 115 -110 115s-110 -37 -110 -115v-108c0 -78 45 -115 110 -115s110 37 110 115zM55 204v112c0 170 125 214 215 214s215 -44 215 -214v-112c0 -170 -125 -214 -215 -214s-215 44 -215 214zM180 700h130l-108 -129h-79zM355 700h130l-108 -129h-79z
" />
    <glyph glyph-name="Omacron" unicode="&#x14c;" horiz-adv-x="608" 
d="M448 237v226c0 98 -74 141 -144 141s-144 -43 -144 -141v-226c0 -98 74 -141 144 -141s144 43 144 141zM53 237v226c0 151 101 247 251 247s251 -96 251 -247v-226c0 -151 -101 -247 -251 -247s-251 96 -251 247zM143 843h322v-87h-322v87z" />
    <glyph glyph-name="omacron" unicode="&#x14d;" horiz-adv-x="540" 
d="M380 206v108c0 78 -45 115 -110 115s-110 -37 -110 -115v-108c0 -78 45 -115 110 -115s110 37 110 115zM55 204v112c0 170 125 214 215 214s215 -44 215 -214v-112c0 -170 -125 -214 -215 -214s-215 44 -215 214zM109 678h322v-85h-322v85z" />
    <glyph glyph-name="Oslashacute" unicode="&#x1fe;" horiz-adv-x="614" 
d="M56 237v226c0 151 101 247 251 247c60 0 111 -16 152 -44l39 63l60 -39l-46 -74c30 -41 46 -92 46 -153v-226c0 -151 -101 -247 -251 -247c-60 0 -112 15 -153 43l-37 -61l-61 38l45 74c-29 40 -45 92 -45 153zM163 237c0 -16 2 -31 5 -44l234 380c-27 21 -62 31 -95 31
c-70 0 -144 -43 -144 -141v-226zM451 237v226c0 16 -2 31 -6 44l-233 -380c27 -21 61 -31 95 -31c70 0 144 43 144 141zM316 854h137l-128 -109h-91z" />
    <glyph glyph-name="oslashacute" unicode="&#x1ff;" horiz-adv-x="546" 
d="M58 204v112c0 170 125 214 215 214c40 0 87 -9 127 -34l34 48l54 -38l-39 -55c24 -32 39 -76 39 -135v-112c0 -170 -125 -214 -215 -214c-41 0 -88 9 -128 33l-33 -47l-54 38l39 54c-24 32 -39 76 -39 136zM163 206c0 -14 1 -27 4 -39l173 244c-18 12 -41 18 -67 18
c-65 0 -110 -37 -110 -115v-108zM383 206v108c0 14 -1 27 -4 38l-173 -243c18 -12 41 -18 67 -18c65 0 110 37 110 115zM273 700h135l-118 -129h-84z" />
    <glyph glyph-name="Pmacron" horiz-adv-x="599" 
d="M340 596h-159v-248h159c90 0 127 57 127 124s-37 124 -127 124zM181 242v-242h-107v700h266c162 0 236 -105 236 -229s-74 -229 -236 -229h-159zM144 843h322v-87h-322v87z" />
    <glyph glyph-name="pmacron" horiz-adv-x="554" 
d="M394 206v108c0 78 -45 114 -110 114s-110 -36 -110 -114v-108c0 -78 45 -114 110 -114s110 36 110 114zM499 316v-112c0 -159 -116 -214 -205 -214c-54 0 -105 29 -120 59v-233h-105v700h105v-45c15 30 66 59 120 59c89 0 205 -55 205 -214zM123 678h322v-85h-322v85z
" />
    <glyph glyph-name="Racute" unicode="&#x154;" horiz-adv-x="610" 
d="M181 301h109l177 -301h120l-180 306c102 19 157 91 157 194c0 121 -76 200 -215 200h-275v-700h107v301zM455 499c0 -61 -41 -95 -106 -95h-168v190h168c65 0 106 -34 106 -95zM293 854h137l-128 -109h-91z" />
    <glyph glyph-name="racute" unicode="&#x155;" horiz-adv-x="345" 
d="M334 423h-50c-65 0 -110 -36 -110 -114v-309h-105v516h105v-50c15 30 66 59 120 59h40v-102zM201 700h135l-118 -129h-84z" />
    <glyph glyph-name="Rcaron" unicode="&#x158;" horiz-adv-x="610" 
d="M181 301h109l177 -301h120l-180 306c102 19 157 91 157 194c0 121 -76 200 -215 200h-275v-700h107v301zM455 499c0 -61 -41 -95 -106 -95h-168v190h168c65 0 106 -34 106 -95zM300 818l44 36h130l-132 -109h-84l-132 109h130z" />
    <glyph glyph-name="rcaron" unicode="&#x159;" horiz-adv-x="345" 
d="M334 423h-50c-65 0 -110 -36 -110 -114v-309h-105v516h105v-50c15 30 66 59 120 59h40v-102zM243 571l132 129h-117l-57 -56l-57 56h-117l132 -129h84z" />
    <glyph glyph-name="Rcommaaccent" unicode="&#x156;" horiz-adv-x="610" 
d="M181 301h109l177 -301h120l-180 306c102 19 157 91 157 194c0 121 -76 200 -215 200h-275v-700h107v301zM455 499c0 -61 -41 -95 -106 -95h-168v190h168c65 0 106 -34 106 -95zM252 -174v124h124v-124l-29 -94h-79l29 94h-45z" />
    <glyph glyph-name="rcommaaccent" unicode="&#x157;" horiz-adv-x="345" 
d="M334 423h-50c-65 0 -110 -36 -110 -114v-309h-105v516h105v-50c15 30 66 59 120 59h40v-102zM59 -174v124h124v-124l-29 -94h-79l29 94h-45z" />
    <glyph glyph-name="Sacute" unicode="&#x15a;" horiz-adv-x="555" 
d="M288 -10c-161 0 -247 97 -258 227h109c15 -78 69 -121 151 -121c72 0 118 35 118 89c0 52 -29 84 -99 101l-124 30c-92 22 -144 96 -144 196c0 135 102 198 226 198c141 0 222 -80 239 -197h-109c-14 57 -61 91 -129 91c-83 0 -118 -39 -118 -92c0 -54 33 -82 79 -93
l120 -29c111 -27 168 -94 168 -207s-83 -193 -229 -193zM282 854h137l-128 -109h-91z" />
    <glyph glyph-name="sacute" unicode="&#x15b;" horiz-adv-x="482" 
d="M253 -10c-119 0 -214 57 -220 175h108c8 -51 57 -74 113 -74c46 0 85 12 85 54c0 35 -31 46 -65 54l-98 25c-68 17 -131 55 -131 154c0 102 82 152 187 152c111 0 188 -50 198 -165h-110c-8 45 -47 64 -95 64c-32 0 -74 -12 -74 -53c0 -31 30 -41 58 -48l95 -24
c94 -24 141 -64 141 -162c-1 -102 -80 -152 -192 -152zM239 700h135l-118 -129h-84z" />
    <glyph glyph-name="Scedilla" unicode="&#x15e;" horiz-adv-x="555" 
d="M191 -158l57 150c-136 15 -208 106 -218 225h109c15 -78 69 -121 151 -121c72 0 118 35 118 89c0 52 -29 84 -99 101l-124 30c-92 22 -144 96 -144 196c0 135 102 198 226 198c141 0 222 -80 239 -197h-109c-14 57 -61 91 -129 91c-83 0 -118 -39 -118 -92
c0 -54 33 -82 79 -93l120 -29c111 -27 168 -94 168 -207c0 -98 -63 -172 -175 -189l-36 -152h-115z" />
    <glyph glyph-name="scedilla" unicode="&#x15f;" horiz-adv-x="482" 
d="M148 -158l62 151c-98 12 -172 68 -177 172h108c8 -51 57 -74 113 -74c46 0 85 12 85 54c0 35 -31 46 -65 54l-98 25c-68 17 -131 55 -131 154c0 102 82 152 187 152c111 0 188 -50 198 -165h-110c-8 45 -47 64 -95 64c-32 0 -74 -12 -74 -53c0 -31 30 -41 58 -48l95 -24
c94 -24 141 -64 141 -162c-1 -88 -60 -137 -148 -149l-36 -151h-113z" />
    <glyph glyph-name="Scircumflex" unicode="&#x15c;" horiz-adv-x="555" 
d="M288 -10c-161 0 -247 97 -258 227h109c15 -78 69 -121 151 -121c72 0 118 35 118 89c0 52 -29 84 -99 101l-124 30c-92 22 -144 96 -144 196c0 135 102 198 226 198c141 0 222 -80 239 -197h-109c-14 57 -61 91 -129 91c-83 0 -118 -39 -118 -92c0 -54 33 -82 79 -93
l120 -29c111 -27 168 -94 168 -207s-83 -193 -229 -193zM273 781l44 -36h130l-132 109h-84l-132 -109h130z" />
    <glyph glyph-name="scircumflex" unicode="&#x15d;" horiz-adv-x="482" 
d="M253 -10c-119 0 -214 57 -220 175h108c8 -51 57 -74 113 -74c46 0 85 12 85 54c0 35 -31 46 -65 54l-98 25c-68 17 -131 55 -131 154c0 102 82 152 187 152c111 0 188 -50 198 -165h-110c-8 45 -47 64 -95 64c-32 0 -74 -12 -74 -53c0 -31 30 -41 58 -48l95 -24
c94 -24 141 -64 141 -162c-1 -102 -80 -152 -192 -152zM281 700l132 -129h-117l-57 56l-57 -56h-117l132 129h84z" />
    <glyph glyph-name="Scommaaccent" unicode="&#x218;" horiz-adv-x="555" 
d="M288 -10c-161 0 -247 97 -258 227h109c15 -78 69 -121 151 -121c72 0 118 35 118 89c0 52 -29 84 -99 101l-124 30c-92 22 -144 96 -144 196c0 135 102 198 226 198c141 0 222 -80 239 -197h-109c-14 57 -61 91 -129 91c-83 0 -118 -39 -118 -92c0 -54 33 -82 79 -93
l120 -29c111 -27 168 -94 168 -207s-83 -193 -229 -193zM211 -174v124h124v-124l-29 -94h-79l29 94h-45z" />
    <glyph glyph-name="scommaaccent" unicode="&#x219;" horiz-adv-x="482" 
d="M253 -10c-119 0 -214 57 -220 175h108c8 -51 57 -74 113 -74c46 0 85 12 85 54c0 35 -31 46 -65 54l-98 25c-68 17 -131 55 -131 154c0 102 82 152 187 152c111 0 188 -50 198 -165h-110c-8 45 -47 64 -95 64c-32 0 -74 -12 -74 -53c0 -31 30 -41 58 -48l95 -24
c94 -24 141 -64 141 -162c-1 -102 -80 -152 -192 -152zM177 -174v124h124v-124l-29 -94h-79l29 94h-45z" />
    <glyph glyph-name="Tbar" unicode="&#x166;" horiz-adv-x="517" 
d="M509 594h-197v-208h127v-71h-127v-315h-107v315h-127v71h127v208h-197v106h501v-106z" />
    <glyph glyph-name="tbar" unicode="&#x167;" horiz-adv-x="359" 
d="M198 150v101h127v66h-127v100h127v99h-127v117h-105v-117h-73v-99h73v-100h-73v-66h73v-128c0 -81 37 -123 123 -123h109v101h-79c-41 0 -48 11 -48 49z" />
    <glyph glyph-name="Tcaron" unicode="&#x164;" horiz-adv-x="517" 
d="M509 594h-197v-594h-107v594h-197v106h501v-106zM258 818l44 36h130l-132 -109h-84l-132 109h130z" />
    <glyph glyph-name="tcaron" unicode="&#x165;" horiz-adv-x="359" 
d="M400 700l-69 -129h-74l18 129h125zM198 150v267h127v99h-127v117h-105v-117h-73v-99h73v-294c0 -81 37 -123 123 -123h109v101h-79c-41 0 -48 11 -48 49z" />
    <glyph glyph-name="Tcommaaccent" unicode="&#x162;" horiz-adv-x="517" 
d="M509 594h-197v-594h-107v594h-197v106h501v-106zM196 -174v124h124v-124l-29 -94h-79l29 94h-45z" />
    <glyph glyph-name="tcommaaccent" unicode="&#x163;" horiz-adv-x="359" 
d="M198 150v267h127v99h-127v117h-105v-117h-73v-99h73v-294c0 -81 37 -123 123 -123h109v101h-79c-41 0 -48 11 -48 49zM147 -174v124h124v-124l-29 -94h-79l29 94h-45z" />
    <glyph glyph-name="Ubreve" unicode="&#x16c;" horiz-adv-x="632" 
d="M460 237v463h107v-463c0 -151 -101 -247 -251 -247s-251 96 -251 247v463h107v-463c0 -98 74 -141 144 -141s144 43 144 141zM399 854h81c0 -61 -48 -109 -109 -109h-110c-61 0 -109 48 -109 109h81c0 -16 12 -28 28 -28h110c16 0 28 12 28 28z" />
    <glyph glyph-name="ubreve" unicode="&#x16d;" horiz-adv-x="555" 
d="M167 516v-310c0 -78 45 -114 107 -114s107 36 107 114v310h105v-516h-105v49c-15 -30 -66 -59 -120 -59c-89 0 -199 62 -199 214v312h105zM239 571c-71 0 -129 58 -129 129h79c0 -28 22 -50 50 -50h70c28 0 50 22 50 50h79c0 -71 -58 -129 -129 -129h-70z" />
    <glyph glyph-name="Uhorn" unicode="&#x1af;" horiz-adv-x="672" 
d="M567 549v-312c0 -151 -101 -247 -251 -247s-251 96 -251 247v463h107v-463c0 -98 74 -141 144 -141s144 43 144 141v463h107v-72c20 1 35 15 35 33c0 7 -2 14 -7 21l99 28c9 -19 13 -37 13 -54c0 -65 -55 -107 -140 -107z" />
    <glyph glyph-name="uhorn" unicode="&#x1b0;" horiz-adv-x="615" 
d="M486 369v-369h-105v49c-15 -30 -66 -59 -120 -59c-89 0 -199 62 -199 214v312h105v-310c0 -78 45 -114 107 -114s107 36 107 114v310h105v-68c20 1 35 15 35 33c0 7 -2 14 -7 21l99 28c9 -19 13 -37 13 -54c0 -65 -55 -107 -140 -107z" />
    <glyph glyph-name="Uhungarumlaut" unicode="&#x170;" horiz-adv-x="632" 
d="M460 237v463h107v-463c0 -151 -101 -247 -251 -247s-251 96 -251 247v463h107v-463c0 -98 74 -141 144 -141s144 43 144 141zM239 854h132l-118 -109h-86zM414 854h132l-118 -109h-86z" />
    <glyph glyph-name="uhungarumlaut" unicode="&#x171;" horiz-adv-x="555" 
d="M167 516v-310c0 -78 45 -114 107 -114s107 36 107 114v310h105v-516h-105v49c-15 -30 -66 -59 -120 -59c-89 0 -199 62 -199 214v312h105zM181 700h130l-108 -129h-79zM356 700h130l-108 -129h-79z" />
    <glyph glyph-name="Umacron" unicode="&#x16a;" horiz-adv-x="632" 
d="M460 237v463h107v-463c0 -151 -101 -247 -251 -247s-251 96 -251 247v463h107v-463c0 -98 74 -141 144 -141s144 43 144 141zM155 843h322v-87h-322v87z" />
    <glyph glyph-name="umacron" unicode="&#x16b;" horiz-adv-x="555" 
d="M167 516v-310c0 -78 45 -114 107 -114s107 36 107 114v310h105v-516h-105v49c-15 -30 -66 -59 -120 -59c-89 0 -199 62 -199 214v312h105zM113 678h322v-85h-322v85z" />
    <glyph glyph-name="Uogonek" unicode="&#x172;" horiz-adv-x="632" 
d="M460 237v463h107v-463c0 -87 -34 -157 -90 -198c-41 -30 -135 -87 -135 -123c0 -19 12 -24 27 -24c19 0 42 10 55 17v-80c-26 -11 -58 -18 -88 -18c-52 0 -101 22 -101 86c0 42 27 72 64 94c-141 7 -234 101 -234 246v463h107v-463c0 -98 74 -141 144 -141
s144 43 144 141z" />
    <glyph glyph-name="uogonek" unicode="&#x173;" horiz-adv-x="555" 
d="M381 0v49c-15 -30 -66 -59 -120 -59c-89 0 -199 62 -199 214v312h105v-310c0 -78 45 -114 107 -114s107 36 107 114v310h105v-516c-42 -30 -82 -59 -82 -84c0 -19 12 -26 27 -26c19 0 42 10 55 17v-78c-26 -11 -58 -18 -88 -18c-52 0 -99 22 -99 86c0 48 37 81 82 103z
" />
    <glyph glyph-name="Uring" unicode="&#x16e;" horiz-adv-x="632" 
d="M460 237v463h107v-463c0 -151 -101 -247 -251 -247s-251 96 -251 247v463h107v-463c0 -98 74 -141 144 -141s144 43 144 141zM242 799c0 41 33 75 74 75s75 -34 75 -75s-34 -74 -75 -74s-74 33 -74 74zM295 799c0 -12 9 -21 21 -21s21 9 21 21s-9 21 -21 21
s-21 -9 -21 -21z" />
    <glyph glyph-name="uring" unicode="&#x16f;" horiz-adv-x="555" 
d="M167 516v-310c0 -78 45 -114 107 -114s107 36 107 114v310h105v-516h-105v49c-15 -30 -66 -59 -120 -59c-89 0 -199 62 -199 214v312h105zM200 635c0 41 33 75 74 75s75 -34 75 -75s-34 -74 -75 -74s-74 33 -74 74zM251 635c0 -13 10 -23 23 -23s23 10 23 23
s-10 23 -23 23s-23 -10 -23 -23z" />
    <glyph glyph-name="Utilde" unicode="&#x168;" horiz-adv-x="632" 
d="M460 237v463h107v-463c0 -151 -101 -247 -251 -247s-251 96 -251 247v463h107v-463c0 -98 74 -141 144 -141s144 43 144 141zM256 859c17 0 34 0 52 -8l38 -16c7 -3 14 -6 20 -6c13 0 23 9 30 28h91c-17 -100 -78 -116 -111 -116c-17 0 -34 0 -52 8l-38 16
c-7 3 -14 6 -20 6c-13 0 -23 -9 -30 -28h-91c17 100 78 116 111 116z" />
    <glyph glyph-name="utilde" unicode="&#x169;" horiz-adv-x="555" 
d="M167 516v-310c0 -78 45 -114 107 -114s107 36 107 114v310h105v-516h-105v49c-15 -30 -66 -59 -120 -59c-89 0 -199 62 -199 214v312h105zM187 579h-84c17 100 78 116 111 116c17 0 34 -1 52 -9l38 -16c7 -3 16 -7 27 -7c12 0 22 7 30 30h84c-17 -100 -78 -116 -111 -116
c-17 0 -34 1 -52 9l-38 16c-7 3 -16 7 -27 7c-12 0 -22 -7 -30 -30z" />
    <glyph glyph-name="Wacute" unicode="&#x1e82;" horiz-adv-x="744" 
d="M372 441l121 -441h101l129 700h-105l-89 -490l-107 390h-100l-107 -390l-89 490h-105l129 -700h101zM381 854h137l-128 -109h-91z" />
    <glyph glyph-name="wacute" unicode="&#x1e83;" horiz-adv-x="688" 
d="M400 516l88 -351l86 351h107l-136 -516h-106l-95 379l-95 -379h-106l-136 516h107l86 -351l88 351h112zM344 700h135l-118 -129h-84z" />
    <glyph glyph-name="Wcircumflex" unicode="&#x174;" horiz-adv-x="744" 
d="M372 441l121 -441h101l129 700h-105l-89 -490l-107 390h-100l-107 -390l-89 490h-105l129 -700h101zM372 781l44 -36h130l-132 109h-84l-132 -109h130z" />
    <glyph glyph-name="wcircumflex" unicode="&#x175;" horiz-adv-x="688" 
d="M400 516l88 -351l86 351h107l-136 -516h-106l-95 379l-95 -379h-106l-136 516h107l86 -351l88 351h112zM386 700l132 -129h-117l-57 56l-57 -56h-117l132 129h84z" />
    <glyph glyph-name="Wdieresis" unicode="&#x1e84;" horiz-adv-x="744" 
d="M372 441l121 -441h101l129 700h-105l-89 -490l-107 390h-100l-107 -390l-89 490h-105l129 -700h101zM330 853v-107h-107v107h107zM521 853v-107h-107v107h107z" />
    <glyph glyph-name="wdieresis" unicode="&#x1e85;" horiz-adv-x="688" 
d="M400 516l88 -351l86 351h107l-136 -516h-106l-95 379l-95 -379h-106l-136 516h107l86 -351l88 351h112zM300 689v-107h-105v107h105zM493 689v-107h-105v107h105z" />
    <glyph glyph-name="Wgrave" unicode="&#x1e80;" horiz-adv-x="744" 
d="M372 441l121 -441h101l129 700h-105l-89 -490l-107 390h-100l-107 -390l-89 490h-105l129 -700h101zM363 854h-137l128 -109h91z" />
    <glyph glyph-name="wgrave" unicode="&#x1e81;" horiz-adv-x="688" 
d="M400 516l88 -351l86 351h107l-136 -516h-106l-95 379l-95 -379h-106l-136 516h107l86 -351l88 351h112zM344 700h-135l118 -129h84z" />
    <glyph glyph-name="Ycircumflex" unicode="&#x176;" horiz-adv-x="594" 
d="M350 267l247 433h-118l-182 -322l-182 322h-118l246 -433v-267h107v267zM297 781l44 -36h130l-132 109h-84l-132 -109h130z" />
    <glyph glyph-name="ycircumflex" unicode="&#x177;" horiz-adv-x="476" 
d="M476 516l-229 -635c-15 -43 -52 -65 -114 -65h-54v101h21c51 0 53 9 70 52l14 38l-184 509h109l129 -367l129 367h109zM280 700l132 -129h-117l-57 56l-57 -56h-117l132 129h84z" />
    <glyph glyph-name="Ygrave" unicode="&#x1ef2;" horiz-adv-x="594" 
d="M350 267l247 433h-118l-182 -322l-182 322h-118l246 -433v-267h107v267zM288 854h-137l128 -109h91z" />
    <glyph glyph-name="ygrave" unicode="&#x1ef3;" horiz-adv-x="476" 
d="M476 516l-229 -635c-15 -43 -52 -65 -114 -65h-54v101h21c51 0 53 9 70 52l14 38l-184 509h109l129 -367l129 367h109zM238 700h-135l118 -129h84z" />
    <glyph glyph-name="Zacute" unicode="&#x179;" horiz-adv-x="585" 
d="M540 0h-507v106l372 488h-367v106h497v-106l-372 -488h377v-106zM295 854h137l-128 -109h-91z" />
    <glyph glyph-name="zacute" unicode="&#x17a;" horiz-adv-x="450" 
d="M411 417l-247 -318h254v-99h-385v99l247 318h-240v99h371v-99zM225 700h135l-118 -129h-84z" />
    <glyph glyph-name="Zdotaccent" unicode="&#x17b;" horiz-adv-x="585" 
d="M540 0h-507v106l372 488h-367v106h497v-106l-372 -488h377v-106zM340 853v-107h-107v107h107z" />
    <glyph glyph-name="zdotaccent" unicode="&#x17c;" horiz-adv-x="450" 
d="M411 417l-247 -318h254v-99h-385v99l247 318h-240v99h371v-99zM278 689v-107h-105v107h105z" />
    <glyph glyph-name="uni0186" unicode="&#x186;" horiz-adv-x="597" 
d="M43 217c9 -139 107 -227 250 -227c150 0 251 96 251 247v226c0 151 -101 247 -251 247c-143 0 -242 -87 -250 -227h107c9 84 78 121 143 121c70 0 144 -43 144 -141v-226c0 -98 -74 -141 -144 -141c-65 0 -134 37 -143 121h-107z" />
    <glyph glyph-name="uni018F" unicode="&#x18f;" horiz-adv-x="608" 
d="M448 406v57c0 98 -74 141 -144 141c-65 0 -134 -37 -143 -121h-107c8 140 107 227 250 227c150 0 251 -96 251 -247v-226c0 -151 -101 -247 -251 -247s-251 96 -251 247v169h395zM304 96c70 0 144 43 144 141v63h-288v-63c0 -98 74 -141 144 -141z" />
    <glyph glyph-name="uni0190" unicode="&#x190;" horiz-adv-x="512" 
d="M256 0h198v106h-198c-66 0 -106 33 -106 97s40 97 106 97h198v106h-181c-65 0 -106 33 -106 94s41 94 106 94h181v106h-181c-139 0 -215 -79 -215 -200c0 -59 24 -110 69 -142c-60 -36 -86 -94 -86 -156c0 -124 75 -202 215 -202z" />
    <glyph glyph-name="uni019D" unicode="&#x19d;" horiz-adv-x="650" 
d="M181 502v-471c0 -143 -64 -215 -199 -215h-50v106h50c54 0 92 32 92 81v697h107l288 -502v502h107v-700h-107z" />
    <glyph glyph-name="uni019F" unicode="&#x19f;" horiz-adv-x="608" 
d="M53 237v226c0 151 101 247 251 247s251 -96 251 -247v-226c0 -151 -101 -247 -251 -247s-251 96 -251 247zM448 237v78h-288v-78c0 -98 74 -141 144 -141s144 43 144 141zM160 463v-77h288v77c0 98 -74 141 -144 141s-144 -43 -144 -141z" />
    <glyph glyph-name="uni01C4" unicode="&#x1c4;" horiz-adv-x="1203" 
d="M325 0h-251v700h251c150 0 251 -96 251 -247v-206c0 -151 -101 -247 -251 -247zM181 106h144c70 0 144 45 144 143v202c0 98 -74 143 -144 143h-144v-488zM1158 0h-507v106l372 488h-367v106h497v-106l-372 -488h377v-106zM904 818l44 36h130l-132 -109h-84l-132 109h130
z" />
    <glyph glyph-name="uni01C5" unicode="&#x1c5;" horiz-adv-x="1079" 
d="M325 0h-251v700h251c150 0 251 -96 251 -247v-206c0 -151 -101 -247 -251 -247zM181 106h144c70 0 144 45 144 143v202c0 98 -74 143 -144 143h-144v-488zM1040 417l-247 -318h254v-99h-385v99l247 318h-240v99h371v-99zM896 571l132 129h-117l-57 -56l-57 56h-117
l132 -129h84z" />
    <glyph glyph-name="uni01C6" unicode="&#x1c6;" horiz-adv-x="1004" 
d="M160 206v108c0 78 45 114 110 114s110 -36 110 -114v-108c0 -78 -52 -114 -117 -114c-58 0 -103 36 -103 114zM55 316v-112c0 -159 116 -214 205 -214c54 0 105 29 120 59v-49h105v700h-105v-229c-15 30 -66 59 -120 59c-89 0 -205 -55 -205 -214zM965 417l-247 -318h254
v-99h-385v99l247 318h-240v99h371v-99zM821 571l132 129h-117l-57 -56l-57 56h-117l132 -129h84z" />
    <glyph glyph-name="uni01C7" unicode="&#x1c7;" horiz-adv-x="971" 
d="M74 0v700h107v-594h306v-106h-413zM504 200h107c2 -61 32 -104 94 -104c64 0 94 45 94 109v495h107v-495c0 -143 -76 -215 -201 -215c-124 0 -199 70 -201 210z" />
    <glyph glyph-name="uni01C8" unicode="&#x1c8;" horiz-adv-x="739" 
d="M74 0v700h107v-594h306v-106h-413zM670 700v-107h-105v107h105zM565 -34v550h105v-577c0 -81 -37 -123 -123 -123h-46v101h16c41 0 48 11 48 49z" />
    <glyph glyph-name="uni01C9" unicode="&#x1c9;" horiz-adv-x="515" 
d="M172 150v550h-105v-577c0 -81 37 -123 123 -123h46v101h-16c-41 0 -48 11 -48 49zM446 700v-107h-105v107h105zM341 -34v550h105v-577c0 -81 -37 -123 -123 -123h-46v101h16c41 0 48 11 48 49z" />
    <glyph glyph-name="uni01CA" unicode="&#x1ca;" horiz-adv-x="1125" 
d="M576 700v-700h-107l-288 502v-502h-107v700h107l288 -502v502h107zM658 200h107c2 -61 32 -104 94 -104c64 0 94 45 94 109v495h107v-495c0 -143 -76 -215 -201 -215c-124 0 -199 70 -201 210z" />
    <glyph glyph-name="uni01CB" unicode="&#x1cb;" horiz-adv-x="893" 
d="M576 700v-700h-107l-288 502v-502h-107v700h107l288 -502v502h107zM824 700v-107h-105v107h105zM719 -34v550h105v-577c0 -81 -37 -123 -123 -123h-46v101h16c41 0 48 11 48 49z" />
    <glyph glyph-name="uni01CC" unicode="&#x1cc;" horiz-adv-x="804" 
d="M174 314v-314h-105v516h105v-45c15 30 66 59 120 59c89 0 205 -55 205 -214v-316h-105v314c0 78 -45 114 -110 114s-110 -36 -110 -114zM735 700v-107h-105v107h105zM630 -34v550h105v-577c0 -81 -37 -123 -123 -123h-46v101h16c41 0 48 11 48 49z" />
    <glyph glyph-name="uni01F1" unicode="&#x1f1;" horiz-adv-x="1203" 
d="M325 0h-251v700h251c150 0 251 -96 251 -247v-206c0 -151 -101 -247 -251 -247zM181 106h144c70 0 144 45 144 143v202c0 98 -74 143 -144 143h-144v-488zM1158 0h-507v106l372 488h-367v106h497v-106l-372 -488h377v-106z" />
    <glyph glyph-name="uni01F2" unicode="&#x1f2;" horiz-adv-x="1079" 
d="M325 0h-251v700h251c150 0 251 -96 251 -247v-206c0 -151 -101 -247 -251 -247zM181 106h144c70 0 144 45 144 143v202c0 98 -74 143 -144 143h-144v-488zM1040 417l-247 -318h254v-99h-385v99l247 318h-240v99h371v-99z" />
    <glyph glyph-name="uni01F3" unicode="&#x1f3;" horiz-adv-x="1004" 
d="M160 206v108c0 78 45 114 110 114s110 -36 110 -114v-108c0 -78 -52 -114 -117 -114c-58 0 -103 36 -103 114zM55 316v-112c0 -159 116 -214 205 -214c54 0 105 29 120 59v-49h105v700h-105v-229c-15 30 -66 59 -120 59c-89 0 -205 -55 -205 -214zM965 417l-247 -318h254
v-99h-385v99l247 318h-240v99h371v-99z" />
    <glyph glyph-name="uni021C" unicode="&#x21c;" horiz-adv-x="555" 
d="M267 710c-144 0 -250 -87 -258 -227h107c9 84 85 121 151 121c74 0 137 -44 137 -118c0 -131 -147 -157 -216 -167v-108c20 8 43 12 66 12c73 0 149 -32 149 -111c0 -108 -165 -190 -341 -190v-106c251 0 448 118 448 302c0 83 -43 142 -106 169c53 36 107 98 107 199
c0 134 -100 224 -244 224z" />
    <glyph glyph-name="uni021D" unicode="&#x21d;" horiz-adv-x="473" 
d="M229 530c-85 0 -210 -39 -223 -186h107c10 57 60 85 116 85c65 0 101 -31 101 -80c0 -83 -134 -112 -183 -120v-107c18 7 43 12 68 12c56 0 115 -17 115 -79c0 -78 -149 -138 -271 -138v-101c207 0 376 98 376 247c0 61 -28 108 -81 137c48 30 81 82 81 149
c0 100 -67 181 -206 181z" />
    <glyph glyph-name="uni0226" unicode="&#x226;" horiz-adv-x="616" 
d="M498 0l-59 169h-262l-59 -169h-110l245 700h110l245 -700h-110zM211 268h194l-97 278zM362 853v-107h-107v107h107z" />
    <glyph glyph-name="uni0227" unicode="&#x227;" horiz-adv-x="543" 
d="M266 429c-52 0 -91 -24 -105 -73h-107c18 137 129 174 212 174c90 0 215 -44 215 -214v-316h-105v49c-33 -40 -86 -59 -154 -59c-94 0 -176 47 -176 153c0 59 26 128 112 155c62 19 130 24 217 30v1c-5 67 -48 100 -109 100zM239 91c60 0 137 19 137 115v29
c-92 -6 -162 -12 -200 -35c-13 -8 -25 -22 -25 -48c0 -42 32 -61 88 -61zM326 689v-107h-105v107h105z" />
    <glyph glyph-name="uni0232" unicode="&#x232;" horiz-adv-x="594" 
d="M350 267l247 433h-118l-182 -322l-182 322h-118l246 -433v-267h107v267zM136 843h322v-87h-322v87z" />
    <glyph glyph-name="uni0233" unicode="&#x233;" horiz-adv-x="476" 
d="M476 516l-229 -635c-15 -43 -52 -65 -114 -65h-54v101h21c51 0 53 9 70 52l14 38l-184 509h109l129 -367l129 367h109zM77 678h322v-85h-322v85z" />
    <glyph glyph-name="uni0254" unicode="&#x254;" horiz-adv-x="529" 
d="M45 176c13 -147 129 -186 214 -186c90 0 215 44 215 214v112c0 170 -125 214 -215 214c-85 0 -201 -39 -214 -186h107c10 57 51 85 107 85c65 0 110 -37 110 -115v-108c0 -78 -45 -115 -110 -115c-56 0 -98 28 -108 85h-106z" />
    <glyph glyph-name="uni0259" unicode="&#x259;" horiz-adv-x="535" 
d="M265 429c-52 0 -91 -24 -105 -73h-107c18 137 129 174 212 174c90 0 215 -44 215 -214v-112c0 -170 -125 -214 -215 -214s-215 44 -215 214v93h325v17c0 78 -45 115 -110 115zM265 91c65 0 110 37 110 113h-220c1 -76 46 -113 110 -113z" />
    <glyph glyph-name="uni025B" unicode="&#x25b;" horiz-adv-x="443" 
d="M202 0h192v101h-192c-37 0 -58 18 -58 55c0 36 21 54 58 54h192v101h-180c-37 0 -58 18 -58 52s21 52 58 52h180v101h-180c-105 0 -163 -61 -163 -153c0 -39 14 -74 39 -98c-36 -29 -51 -68 -51 -110c0 -96 56 -155 163 -155z" />
    <glyph glyph-name="uni0272" unicode="&#x272;" horiz-adv-x="561" 
d="M69 -34v550h105v-45c15 30 66 59 120 59c89 0 205 -55 205 -214v-316h-105v314c0 78 -45 114 -110 114s-110 -36 -110 -114v-375c0 -81 -37 -123 -123 -123h-46v101h16c41 0 48 11 48 49z" />
    <glyph glyph-name="uni0275" unicode="&#x275;" horiz-adv-x="540" 
d="M55 204v112c0 170 125 214 215 214s215 -44 215 -214v-112c0 -170 -125 -214 -215 -214s-215 44 -215 214zM380 206v22h-220v-22c0 -78 45 -115 110 -115s110 37 110 115zM160 314v-20h220v20c0 78 -45 115 -110 115s-110 -37 -110 -115z" />
    <glyph glyph-name="uni032C" unicode="&#x32c;" horiz-adv-x="452" 
d="M268 -129l132 129h-117l-57 -56l-57 56h-117l132 -129h84z" />
    <glyph glyph-name="uni1EA0" unicode="&#x1ea0;" horiz-adv-x="616" 
d="M498 0l-59 169h-262l-59 -169h-110l245 700h110l245 -700h-110zM211 268h194l-97 278zM362 -50v-107h-107v107h107z" />
    <glyph glyph-name="uni1EA1" unicode="&#x1ea1;" horiz-adv-x="543" 
d="M266 429c-52 0 -91 -24 -105 -73h-107c18 137 129 174 212 174c90 0 215 -44 215 -214v-316h-105v49c-33 -40 -86 -59 -154 -59c-94 0 -176 47 -176 153c0 59 26 128 112 155c62 19 130 24 217 30v1c-5 67 -48 100 -109 100zM239 91c60 0 137 19 137 115v29
c-92 -6 -162 -12 -200 -35c-13 -8 -25 -22 -25 -48c0 -42 32 -61 88 -61zM316 -50v-107h-105v107h105z" />
    <glyph glyph-name="uni1EB8" unicode="&#x1eb8;" horiz-adv-x="545" 
d="M181 594v-188h306v-106h-306v-194h306v-106h-413v700h413v-106h-306zM334 -50v-107h-107v107h107z" />
    <glyph glyph-name="uni1EB9" unicode="&#x1eb9;" horiz-adv-x="535" 
d="M270 91c52 0 91 24 105 73h107c-18 -137 -129 -174 -212 -174c-90 0 -215 44 -215 214v112c0 170 125 214 215 214s215 -44 215 -214v-93h-325v-17c0 -78 45 -115 110 -115zM270 429c-65 0 -110 -37 -110 -112v-1h220v1c-1 75 -46 112 -110 112zM323 -50v-107h-105v107
h105z" />
    <glyph glyph-name="uni1ECA" unicode="&#x1eca;" horiz-adv-x="255" 
d="M181 700v-700h-107v700h107zM181 -50v-107h-107v107h107z" />
    <glyph glyph-name="uni1ECB" unicode="&#x1ecb;" horiz-adv-x="243" 
d="M174 700v-107h-105v107h105zM174 516v-516h-105v516h105zM174 -50v-107h-105v107h105z" />
    <glyph glyph-name="uni1ECC" unicode="&#x1ecc;" horiz-adv-x="608" 
d="M448 237v226c0 98 -74 141 -144 141s-144 -43 -144 -141v-226c0 -98 74 -141 144 -141s144 43 144 141zM53 237v226c0 151 101 247 251 247s251 -96 251 -247v-226c0 -151 -101 -247 -251 -247s-251 96 -251 247zM358 -50v-107h-107v107h107z" />
    <glyph glyph-name="uni1ECD" unicode="&#x1ecd;" horiz-adv-x="540" 
d="M380 206v108c0 78 -45 115 -110 115s-110 -37 -110 -115v-108c0 -78 45 -115 110 -115s110 37 110 115zM55 204v112c0 170 125 214 215 214s215 -44 215 -214v-112c0 -170 -125 -214 -215 -214s-215 44 -215 214zM323 -50v-107h-105v107h105z" />
    <glyph glyph-name="uni1EE4" unicode="&#x1ee4;" horiz-adv-x="632" 
d="M460 237v463h107v-463c0 -151 -101 -247 -251 -247s-251 96 -251 247v463h107v-463c0 -98 74 -141 144 -141s144 43 144 141zM370 -50v-107h-107v107h107z" />
    <glyph glyph-name="uni1EE5" unicode="&#x1ee5;" horiz-adv-x="555" 
d="M167 516v-310c0 -78 45 -114 107 -114s107 36 107 114v310h105v-516h-105v49c-15 -30 -66 -59 -120 -59c-89 0 -199 62 -199 214v312h105zM327 -50v-107h-105v107h105z" />
    <glyph glyph-name="uni2190" unicode="&#x2190;" horiz-adv-x="800" 
d="M217 239h538v91h-537l186 185l-64 65l-295 -295l295 -295l64 65z" />
    <glyph glyph-name="uni2191" unicode="&#x2191;" horiz-adv-x="800" 
d="M354 538v-538h91v537l185 -186l65 64l-295 295l-295 -295l65 -64z" />
    <glyph glyph-name="uni2192" unicode="&#x2192;" horiz-adv-x="800" 
d="M583 239h-538v91h537l-186 185l64 65l295 -295l-295 -295l-64 65z" />
    <glyph glyph-name="uni2193" unicode="&#x2193;" horiz-adv-x="800" 
d="M354 162v538h91v-537l185 186l65 -64l-295 -295l-295 295l65 64z" />
    <glyph glyph-name="uni2196" unicode="&#x2196;" horiz-adv-x="800" 
d="M223 416l422 -421l64 64l-423 422h263v91h-417v-417h91v261z" />
    <glyph glyph-name="uni2197" unicode="&#x2197;" horiz-adv-x="800" 
d="M577 416l-422 -421l-64 64l423 422h-263v91h417v-417h-91v261z" />
    <glyph glyph-name="uni2198" unicode="&#x2198;" horiz-adv-x="800" 
d="M577 156l-422 421l-64 -64l423 -422h-263v-91h417v417h-91v-261z" />
    <glyph glyph-name="uni2199" unicode="&#x2199;" horiz-adv-x="800" 
d="M223 156l422 421l64 -64l-423 -422h263v-91h-417v417h91v-261z" />
    <glyph glyph-name="arrow90downleft" horiz-adv-x="800" 
d="M755 239v461h-91v-370h-446l186 185l-64 65l-295 -295l295 -295l64 65l-187 184h538z" />
    <glyph glyph-name="arrow90downright" horiz-adv-x="800" 
d="M45 239v461h91v-370h446l-186 185l64 65l295 -295l-295 -295l-64 65l187 184h-538z" />
    <glyph glyph-name="arrow90topleft" horiz-adv-x="800" 
d="M755 -184v514h-537l186 185l-64 65l-295 -295l295 -295l64 65l-187 184h447v-423h91z" />
    <glyph glyph-name="arrow90topright" horiz-adv-x="800" 
d="M45 -184v514h537l-186 185l64 65l295 -295l-295 -295l-64 65l187 184h-447v-423h-91z" />
    <glyph glyph-name="afii61352" unicode="&#x2116;" horiz-adv-x="939" 
d="M576 700v-700h-107l-288 502v-502h-107v700h107l288 -502v502h107zM636 365h276v-71h-276v71zM774 470c36 0 53 24 53 54v56c0 30 -17 54 -53 54s-53 -24 -53 -54v-56c0 -30 17 -54 53 -54zM774 395c-104 0 -138 70 -138 145v24c0 74 34 144 138 144s138 -70 138 -144
v-24c0 -75 -34 -145 -138 -145z" />
    <glyph glyph-name="estimated" unicode="&#x212e;" horiz-adv-x="802" 
d="M171 290v-173c0 -10 5 -19 12 -25c23 -19 50 -35 78 -46c42 -16 90 -22 140 -22s98 6 140 22c37 15 70 36 98 64h50c-35 -42 -80 -75 -131 -95c-48 -19 -101 -25 -157 -25s-109 6 -157 25c-117 47 -205 158 -205 302s88 255 205 302c48 19 101 25 157 25s109 -6 157 -25
c117 -47 205 -158 205 -302v-17h-582c-6 0 -10 -4 -10 -10zM631 344v173c0 10 -5 19 -12 25c-23 19 -50 35 -78 46c-42 16 -90 22 -140 22s-98 -6 -140 -22c-28 -11 -55 -27 -78 -46c-7 -6 -12 -15 -12 -25v-173c0 -6 4 -10 10 -10h440c6 0 10 4 10 10z" />
    <glyph glyph-name="afii61289" unicode="&#x2113;" horiz-adv-x="347" 
d="M70 138v35l-48 -38l-22 28l70 56v331c0 111 60 160 135 160c76 0 112 -49 112 -150c0 -96 -56 -226 -142 -302v-126c0 -67 26 -88 70 -88c18 0 40 4 63 9l9 -31c-34 -19 -72 -32 -108 -32c-74 0 -139 46 -139 148zM175 518v-211c59 63 108 166 108 250
c0 47 -25 70 -54 70c-44 0 -54 -38 -54 -109z" />
    <glyph glyph-name="uni25A0" unicode="&#x25a0;" horiz-adv-x="800" 
d="M142 0v516h516v-516h-516z" />
    <glyph glyph-name="uni25A1" unicode="&#x25a1;" horiz-adv-x="800" 
d="M142 0v516h516v-516h-516zM233 425v-334h334v334h-334z" />
    <glyph glyph-name="published" horiz-adv-x="798" 
d="M39 350c0 199 161 360 360 360s360 -161 360 -360s-161 -360 -360 -360s-360 161 -360 360zM134 350c0 -146 118 -266 265 -266s265 120 265 266s-118 266 -265 266s-265 -120 -265 -266zM273 158v383h165c93 0 135 -66 135 -138c0 -71 -42 -139 -135 -139h-80v-106h-85z
M358 349h80c34 0 51 30 51 54s-17 53 -51 53h-80v-107z" />
    <glyph glyph-name="uni25CB" unicode="&#x25cb;" horiz-adv-x="800" 
d="M130 260c0 149 121 270 270 270s270 -121 270 -270s-121 -270 -270 -270s-270 121 -270 270zM221 260c0 -99 80 -179 179 -179s179 80 179 179s-80 179 -179 179s-179 -80 -179 -179z" />
    <glyph glyph-name="uni25CF" unicode="&#x25cf;" horiz-adv-x="800" 
d="M130 260c0 149 121 270 270 270s270 -121 270 -270s-121 -270 -270 -270s-270 121 -270 270z" />
    <glyph glyph-name="zero.case" horiz-adv-x="559" 
d="M279 96c65 0 110 38 110 111v286c0 73 -45 111 -110 111c-64 0 -109 -38 -109 -111v-286c0 -73 45 -111 109 -111zM279 -10c-94 0 -216 58 -216 220v280c0 162 122 220 216 220c95 0 217 -58 217 -220v-280c0 -162 -122 -220 -217 -220z" />
    <glyph glyph-name="one.case" horiz-adv-x="371" 
d="M180 0v553l-134 -115v147l134 115h107v-700h-107z" />
    <glyph glyph-name="two.case" horiz-adv-x="532" 
d="M47 0v106l249 252c46 47 77 97 77 144c0 63 -40 102 -109 102c-65 0 -110 -38 -110 -111v-9h-107v8c1 161 122 218 217 218c98 0 216 -57 216 -206c0 -84 -37 -146 -105 -215l-181 -183h286v-106h-433z" />
    <glyph glyph-name="three.case" horiz-adv-x="538" 
d="M269 -10c103 0 210 60 210 202c0 63 -32 130 -83 157c49 29 83 88 83 150c0 146 -123 211 -217 211c-92 0 -212 -55 -216 -209v-1h107v1c2 68 47 103 109 103c65 0 110 -44 110 -107c0 -58 -41 -96 -110 -96h-58v-103h58c63 0 110 -41 110 -104c0 -65 -43 -98 -106 -98
c-62 0 -111 35 -113 103v1h-107v-1c3 -155 126 -209 223 -209z" />
    <glyph glyph-name="four.case" horiz-adv-x="532" 
d="M325 0v169h-311v106l311 425h107v-425h73v-106h-73v-169h-107zM143 275h182v240z" />
    <glyph glyph-name="five.case" horiz-adv-x="539" 
d="M286 -10c-98 0 -219 54 -223 209v1h107v-1c2 -67 51 -103 113 -103c63 0 106 35 106 99v41c0 73 -45 111 -110 111c-47 0 -84 -21 -100 -60h-107v413h397v-106h-290v-173c22 18 70 32 111 32c87 0 206 -58 206 -220v-41c0 -142 -107 -202 -210 -202z" />
    <glyph glyph-name="six.case" horiz-adv-x="553" 
d="M279 -10c-94 0 -216 57 -216 219v281c0 162 122 220 216 220c93 0 214 -54 216 -209v-1h-106v1c-3 68 -47 103 -110 103c-64 0 -109 -38 -109 -111v-82c25 19 70 35 116 35c85 0 210 -58 210 -218v-20c0 -161 -122 -218 -217 -218zM279 96c65 0 110 38 110 111v22
c0 73 -45 111 -110 111c-64 0 -109 -37 -109 -110v-23c0 -73 45 -111 109 -111z" />
    <glyph glyph-name="seven.case" horiz-adv-x="467" 
d="M115 0l217 594h-315v106h427v-106l-217 -594h-112z" />
    <glyph glyph-name="eight.case" horiz-adv-x="551" 
d="M275 -10c93 0 217 59 217 208c0 68 -27 118 -74 154c46 40 67 87 67 152c0 148 -117 206 -210 206c-92 0 -209 -58 -209 -206c0 -65 21 -112 67 -152c-47 -36 -74 -86 -74 -154c0 -149 124 -208 216 -208zM275 97c-62 0 -109 35 -109 103c0 65 47 103 109 103
c63 0 110 -39 110 -103c0 -67 -47 -103 -110 -103zM274 402c-58 0 -101 39 -101 101s43 101 101 101s104 -39 104 -101s-46 -101 -104 -101z" />
    <glyph glyph-name="nine.case" horiz-adv-x="553" 
d="M273 -10c-92 0 -213 54 -216 209v1h107v-1c2 -68 47 -103 109 -103c65 0 110 38 110 111v82c-25 -19 -70 -35 -116 -35c-85 0 -210 58 -210 218v20c0 161 122 218 216 218c95 0 217 -57 217 -219v-281c0 -162 -122 -220 -217 -220zM273 360c65 0 109 37 110 110v23
c0 73 -45 111 -110 111c-64 0 -109 -38 -109 -111v-22c0 -73 45 -111 109 -111z" />
    <glyph glyph-name="emdash.case" horiz-adv-x="843" 
d="M54 383h735v-91h-735v91z" />
    <glyph glyph-name="endash.case" horiz-adv-x="538" 
d="M54 383h430v-91h-430v91z" />
    <glyph glyph-name="exclamdown.case" horiz-adv-x="302" 
d="M204 0v490h-107v-490h107zM84 700v-134h134v134h-134z" />
    <glyph glyph-name="guillemotleft.case" horiz-adv-x="496" 
d="M56 283l172 -151v126l-82 72l82 72v126l-172 -151v-94zM260 283l172 -151v126l-82 72l82 72v126l-172 -151v-94z" />
    <glyph glyph-name="guillemotright.case" horiz-adv-x="496" 
d="M224 283l-172 -151v126l82 72l-82 72v126l172 -151v-94zM428 283l-172 -151v126l82 72l-82 72v126l172 -151v-94z" />
    <glyph glyph-name="guilsinglleft.case" horiz-adv-x="292" 
d="M56 283l172 -151v126l-82 72l82 72v126l-172 -151v-94z" />
    <glyph glyph-name="guilsinglright.case" horiz-adv-x="292" 
d="M236 283l-172 -151v126l82 72l-82 72v126l172 -151v-94z" />
    <glyph glyph-name="hyphen.case" horiz-adv-x="398" 
d="M54 383h290v-91h-290v91z" />
    <glyph glyph-name="questiondown.case" horiz-adv-x="529" 
d="M329 490v-22c0 -48 -12 -71 -61 -115l-52 -48c-25 -23 -53 -54 -53 -98c0 -73 44 -111 109 -111c62 0 107 35 109 103v1h107v-1c-3 -155 -124 -209 -216 -209c-94 0 -216 57 -216 218c0 69 37 127 83 168l52 48c24 23 31 34 31 56v10h107zM342 700v-134h-134v134h134z
" />
    <glyph glyph-name="braceleft.case" horiz-adv-x="334" 
d="M127 123v129c0 34 -9 51 -42 51h-32v94h32c33 0 42 17 42 51v129c0 81 37 123 123 123h46v-94h-24c-40 0 -50 -14 -50 -51v-129c0 -31 -5 -62 -32 -76c27 -15 32 -45 32 -76v-129c0 -37 10 -51 50 -51h24v-94h-46c-86 0 -123 42 -123 123z" />
    <glyph glyph-name="braceright.case" horiz-adv-x="334" 
d="M207 123v129c0 34 9 51 42 51h32v94h-32c-33 0 -42 17 -42 51v129c0 81 -37 123 -123 123h-46v-94h24c40 0 50 -14 50 -51v-129c0 -31 5 -62 32 -76c-27 -15 -32 -45 -32 -76v-129c0 -37 -10 -51 -50 -51h-24v-94h46c86 0 123 42 123 123z" />
    <glyph glyph-name="bracketleft.case" horiz-adv-x="302" 
d="M95 700v-700h169v94h-74v512h74v94h-169z" />
    <glyph glyph-name="bracketright.case" horiz-adv-x="302" 
d="M207 700v-700h-169v94h74v512h-74v94h169z" />
    <glyph glyph-name="parenleft.case" horiz-adv-x="302" 
d="M95 577v-454c0 -81 37 -123 123 -123h46v94h-24c-40 0 -50 14 -50 51v410c0 37 10 51 50 51h24v94h-46c-86 0 -123 -42 -123 -123z" />
    <glyph glyph-name="parenright.case" horiz-adv-x="302" 
d="M207 577v-454c0 -81 -37 -123 -123 -123h-46v94h24c40 0 50 14 50 51v410c0 37 -10 51 -50 51h-24v94h46c86 0 123 -42 123 -123z" />
    <glyph glyph-name="periodcentered.case" horiz-adv-x="312" 
d="M89 280v134h134v-134h-134z" />
    <glyph glyph-name="exclam.case" horiz-adv-x="302" 
d="M204 700v-490h-107v490h107zM84 0v134h134v-134h-134z" />
    <glyph glyph-name="question.case" horiz-adv-x="529" 
d="M200 210v22c0 48 12 71 61 115l52 48c25 23 53 54 53 98c0 73 -44 111 -109 111c-62 0 -107 -35 -109 -103v-1h-107v1c3 155 124 209 216 209c94 0 216 -57 216 -218c0 -69 -37 -127 -83 -168l-52 -48c-24 -23 -31 -34 -31 -56v-10h-107zM187 0v134h134v-134h-134z" />
    <glyph glyph-name="at.case" horiz-adv-x="926" 
d="M572 420c-5 68 -48 101 -109 101c-52 0 -91 -24 -105 -73h-107c18 137 129 174 212 174c90 0 215 -44 215 -214v-187c0 -30 20 -45 42 -45s42 15 42 45v189c0 238 -173 298 -299 298s-299 -60 -299 -298v-120c0 -238 173 -298 299 -298c61 0 132 14 190 55l50 -83
c-74 -49 -164 -66 -240 -66c-166 0 -394 82 -394 395v114c0 313 228 395 394 395s394 -82 394 -395v-189c0 -78 -42 -136 -135 -136c-73 0 -121 25 -149 59c-33 -40 -86 -59 -154 -59c-94 0 -176 47 -176 153c0 59 26 128 112 155c62 19 130 24 217 30zM436 183
c60 0 137 19 137 115v29c-92 -6 -162 -12 -200 -35c-13 -8 -25 -22 -25 -48c0 -42 32 -61 88 -61z" />
    <glyph glyph-name="at_alt.case" horiz-adv-x="926" 
d="M668 221v387h-105v-45c-15 30 -66 59 -120 59c-89 0 -205 -55 -205 -214v-112c0 -159 116 -214 205 -214c54 0 105 29 120 59c28 -34 81 -59 154 -59c93 0 140 58 140 136v189c0 313 -228 395 -394 395s-394 -82 -394 -395v-114c0 -313 228 -395 394 -395
c76 0 166 17 240 66l-50 83c-58 -41 -129 -55 -190 -55c-126 0 -299 60 -299 298v120c0 238 173 298 299 298s299 -60 299 -298v-189c0 -30 -25 -45 -47 -45s-47 15 -47 45zM343 298v108c0 78 45 114 110 114s110 -36 110 -114v-108c0 -78 -52 -114 -117 -114
c-58 0 -103 36 -103 114z" />
    <glyph glyph-name="ampersand.case" horiz-adv-x="615" 
d="M266 0c-99 0 -213 58 -213 199c0 66 32 123 83 150c-49 28 -83 88 -83 150c0 145 122 201 216 201h109v-106h-109c-64 0 -109 -34 -109 -96c0 -61 41 -96 109 -96h109v80h107v-80h123v-106h-123v-296h-219zM265 106h113v190h-113c-64 0 -105 -34 -105 -95s41 -95 105 -95
z" />
    <glyph glyph-name="plus.case" 
d="M325 552v-169h169v-91h-169v-170h-91v170h-170v91h170v169h91z" />
    <glyph glyph-name="minus.case" 
d="M64 383h430v-91h-430v91z" />
    <glyph glyph-name="plusminus.case" 
d="M64 351h170v-131h91v131h169v91h-169v131h-91v-131h-170v-91zM494 148h-430v-91h430v91z" />
    <glyph glyph-name="divide.case" 
d="M212 511c0 37 30 67 67 67s67 -30 67 -67s-30 -67 -67 -67s-67 30 -67 67zM212 164c0 37 30 67 67 67s67 -30 67 -67s-30 -67 -67 -67s-67 30 -67 67zM64 383h430v-91h-430v91z" />
    <glyph glyph-name="multiply.case" 
d="M61 184l153 154l-153 154l64 65l154 -155l154 155l64 -65l-154 -154l154 -154l-64 -65l-154 154l-154 -154z" />
    <glyph glyph-name="equal.case" 
d="M64 397h430v91h-430v-91zM494 267h-430v-91h430v91z" />
    <glyph glyph-name="less.case" 
d="M162 316l332 -162v-102l-430 210v108l430 210v-102z" />
    <glyph glyph-name="greater.case" 
d="M396 316l-332 -162v-102l430 210v108l-430 210v-102z" />
    <glyph glyph-name="lessequal.case" 
d="M64 334l430 -138v103l-278 89l278 89v103l-430 -138v-108zM64 148h430v-91h-430v91z" />
    <glyph glyph-name="greaterequal.case" 
d="M494 334l-430 -138v103l278 89l-278 89v103l430 -138v-108zM64 148h430v-91h-430v91z" />
    <glyph glyph-name="notequal.case" 
d="M64 397h208l-99 -130h-109v-91h39l-39 -52l70 -54l81 106h279v91h-210l100 130h110v91h-41l41 53l-70 54l-82 -107h-278v-91z" />
    <glyph glyph-name="bar.case" horiz-adv-x="253" 
d="M174 700v-700h-95v700h95z" />
    <glyph glyph-name="brokenbar.case" horiz-adv-x="253" 
d="M79 0v289h95v-289h-95zM79 411v289h95v-289h-95z" />
    <glyph glyph-name="zeroslashed.case" horiz-adv-x="559" 
d="M279 -10c-94 0 -216 58 -216 220v280c0 162 122 220 216 220c95 0 217 -58 217 -220v-280c0 -162 -122 -220 -217 -220zM279 96c65 0 110 38 110 111v207l-219 -219c5 -65 48 -99 109 -99zM170 493v-205l218 218c-5 64 -48 98 -109 98c-64 0 -109 -38 -109 -111z" />
    </font>
</defs>
</svg>
