<?xml version="1.0" standalone="no"?>
<!DOCTYPE svg PUBLIC "-//W3C//DTD SVG 1.1//EN" "http://www.w3.org/Graphics/SVG/1.1/DTD/svg11.dtd" >
<svg xmlns="http://www.w3.org/2000/svg" xmlns:xlink="http://www.w3.org/1999/xlink" version="1.1">
<metadata>
Created by FontForge 20160407 at Thu Sep  1 16:53:46 2016
 By Jimmy Warting
Copyright (c) 1992 Image Club Graphics, Inc.
</metadata>
<defs>
<font id="FuturaCondBold" horiz-adv-x="586" >
  <font-face 
    font-family="Futura Condensed"
    font-weight="7"
    font-stretch="normal"
    units-per-em="1070"
    panose-1="0 0 0 0 0 0 0 0 0 0"
    ascent="856"
    descent="-214"
    x-height="537"
    cap-height="805"
    bbox="-26.3214 -297 921 1081"
    underline-thickness="20"
    underline-position="-176"
    unicode-range="U+0020-25CA"
  />
<missing-glyph horiz-adv-x="805" 
d="M50 0v805h705v-805h-705zM705 50v705h-605v-705h605z" />
    <glyph glyph-name=".notdef" horiz-adv-x="805" 
d="M50 0v805h705v-805h-705zM705 50v705h-605v-705h605z" />
    <glyph glyph-name=".null" unicode="&#xd7;" horiz-adv-x="0" 
 />
    <glyph glyph-name=".null" unicode="&#x141;" horiz-adv-x="0" 
 />
    <glyph glyph-name=".null" unicode="&#xfd;" horiz-adv-x="0" 
 />
    <glyph glyph-name="nonmarkingreturn" horiz-adv-x="216" 
 />
    <glyph glyph-name="space" unicode=" " horiz-adv-x="216" 
 />
    <glyph glyph-name="exclam" unicode="!" horiz-adv-x="311" 
d="M237 244h-153v561h153v-561zM260 94q0 -41 -30 -70t-72 -29t-72 28t-30 70q0 41 28.5 71.5t68.5 30.5q44 0 75.5 -29.5t31.5 -71.5z" />
    <glyph glyph-name="quotedbl" unicode="&#x22;" horiz-adv-x="452" 
d="M400 805l-17 -309h-115l-18 309h150zM208 805l-18 -309h-115l-17 309h150z" />
    <glyph glyph-name="numbersign" unicode="#" horiz-adv-x="572" 
d="M518 461h-89l-15 -98h81v-107h-91l-33 -251h-88l29 250h-75l-33 -249h-90l27 250h-87v108h103l14 95h-91v109h100l30 236h89l-26 -236h75l32 236h88l-29 -237h79v-106zM336 460h-74l-12 -97h75z" />
    <glyph glyph-name="dollar" unicode="$" 
d="M534 238q0 -94 -51 -158q-37 -46 -95 -72q-38 -17 -52 -17v-95h-81v96q-38 3 -45.5 5t-40.5 14.5t-63 33.5q-36 25 -50 43l78 120q3 -13 43 -46q51 -42 98 -42h10q99 0 99 102q0 65 -86 109q-60 26 -86 38q-61 27 -99 67q-58 60 -58 141q0 15 1 23q11 125 106 181
q31 18 94 32l-1 99h82v-98q18 -3 29 -6q33 -9 62.5 -24t56.5 -42q9 -9 22 -25l-89 -97q-11 22 -56 45q-36 18 -71 18q-34 0 -56.5 -20.5t-27.5 -53.5q-1 -5 -1 -14q0 -47 81 -84t85 -39q82 -44 119 -92q43 -57 43 -142z" />
    <glyph glyph-name="percent" unicode="%" horiz-adv-x="933" 
d="M384 572q0 -97 -31 -152q-40 -72 -129 -72q-92 0 -136 73q-36 60 -36 157q0 99 34 159q43 75 131 75q94 0 135 -77q32 -59 32 -163zM711 801l-378 -801h-115l379 801h114zM879 216q0 -96 -31 -152q-40 -72 -129 -72q-93 0 -137 73q-36 59 -36 157q0 97 35 159
q43 76 131 76q94 0 135 -77q32 -60 32 -164zM257 581q0 56 -10 81t-27 25q-20 2 -30 -33t-10 -75q0 -44 9.5 -76t31.5 -32q20 0 28 34t8 76zM752 225q0 45 -6 69q-9 36 -31 38q-20 0 -30 -34t-10 -74q0 -44 9.5 -76t31.5 -32q20 0 28 33.5t8 75.5z" />
    <glyph glyph-name="ampersand" unicode="&#x26;" horiz-adv-x="707" 
d="M653 220l-47 -47l-46 -39l88 -134h-178l-33 46q-24 -21 -53 -34q-45 -21 -92 -21q-102 0 -169 73t-67 175q0 74 36 134t86 90q-18 18 -41 79q-18 48 -18 85q0 82 54 137t141 55q84 0 138.5 -45.5t54.5 -119.5q0 -66 -40 -128q-51 -79 -96 -98l109 -171q23 17 42 38
q9 9 22.5 24.5t20.5 25.5zM355 643q0 16 -12 31t-30 15q-20 0 -34.5 -15.5t-14.5 -36.5q0 -22 11 -45q16 -32 27 -36q18 8 26 16q27 26 27 71zM365 162l-111 170q-36 -33 -36 -81q0 -41 22 -72.5t58 -35.5q24 0 37.5 3.5t29.5 15.5z" />
    <glyph glyph-name="quotesingle" unicode="'" horiz-adv-x="257" 
d="M204 805l-17 -309h-115l-18 309h150z" />
    <glyph glyph-name="parenleft" unicode="(" horiz-adv-x="362" 
d="M313 853q-57 -113 -82.5 -225.5t-25.5 -240.5q0 -114 21.5 -213.5t79.5 -218.5l-135 -33q-61 118 -88.5 233t-27.5 234q0 135 28 255t93 241z" />
    <glyph glyph-name="parenright" unicode=")" horiz-adv-x="362" 
d="M312 389q0 -122 -26 -233t-90 -234l-135 33q58 119 81 225q20 91 20 207q0 127 -25.5 240t-82.5 226l137 32q63 -119 92 -241.5t29 -254.5z" />
    <glyph glyph-name="asterisk" unicode="*" horiz-adv-x="459" 
d="M402 618l-36 -60l-102 68v-129h-72v128l-106 -65l-34 61l107 60l-108 62l36 60l105 -63v123h70v-124l105 62l34 -57l-107 -62z" />
    <glyph glyph-name="plus" unicode="+" 
d="M536 210h-181v-210h-117v209h-180v117h180v198h117v-197h181v-117z" />
    <glyph glyph-name="comma" unicode="," horiz-adv-x="373" 
d="M313 175l-159 -329h-107l107 329h159z" />
    <glyph glyph-name="hyphen" unicode="-" horiz-adv-x="373" 
d="M322 265h-268v141h268v-141z" />
    <glyph glyph-name="period" unicode="." horiz-adv-x="315" 
d="M263 91q0 -42 -30 -70t-72 -28t-72 28t-30 69q0 42 28 72t69 30q44 0 75.5 -29.5t31.5 -71.5z" />
    <glyph glyph-name="slash" unicode="/" horiz-adv-x="615" 
d="M568 853l-412 -1032l-110 33l414 1035z" />
    <glyph glyph-name="zero" unicode="0" horiz-adv-x="565" 
d="M510 401q0 -166 -46 -273q-60 -138 -183 -138q-118 0 -176 137q-46 109 -46 273q0 168 47 278q60 140 181 140q120 0 178 -139q45 -108 45 -278zM357 425q0 104 -11 161q-17 87 -59 87q-53 0 -66 -139q-6 -62 -6 -136q0 -116 9 -170q15 -92 60 -92q55 -5 68 145
q5 57 5 144z" />
    <glyph glyph-name="one" unicode="1" horiz-adv-x="340" 
d="M283 -3h-154l-1 671h-74v137h229v-808z" />
    <glyph glyph-name="two" unicode="2" horiz-adv-x="535" 
d="M484 609q0 -51 -9 -89.5t-34 -87.5l-153 -293h182v-139h-419l234 434q28 53 37 80q14 41 14 92q0 38 -14 63q-17 31 -49 31t-47.5 -30.5t-15.5 -71.5v-77h-147v46q0 113 37 170q49 76 173 76q109 0 163 -59q48 -53 48 -145z" />
    <glyph glyph-name="three" unicode="3" horiz-adv-x="557" 
d="M502 234q0 -108 -68 -175t-169 -67q-91 0 -150.5 53.5t-59.5 136.5v37h146v-29q0 -23 18.5 -40.5t42.5 -17.5q36 0 52 34.5t16 83.5q0 51 -20.5 79.5t-59.5 28.5h-39v139h35q40 0 62.5 24.5t22.5 77.5q0 49 -13.5 66t-39.5 17q-24 0 -38.5 -20.5t-14.5 -47.5v-29h-136v39
q0 85 44 138q49 59 141 59q103 0 156 -62q48 -56 48 -147q0 -99 -49 -154q-16 -18 -50 -36q32 -16 64 -31q59 -49 59 -157z" />
    <glyph glyph-name="four" unicode="4" horiz-adv-x="550" 
d="M500 192h-63v-194h-155v195h-228v122l207 491h176v-492h63v-122zM282 313v303l-117 -303h117z" />
    <glyph glyph-name="five" unicode="5" horiz-adv-x="525" 
d="M473 257q0 -132 -75 -203q-69 -66 -185 -66q-32 0 -82 11.5t-77 27.5l28 142q38 -38 94 -38q59 0 93.5 40.5t34.5 99.5q0 78 -49 115q-41 31 -112 31q-21 0 -31.5 -1t-27.5 -6l62 395h305v-141h-194l-23 -124q118 -17 173 -72q66 -67 66 -211z" />
    <glyph glyph-name="six" unicode="6" horiz-adv-x="550" 
d="M497 280q0 -114 -56 -198q-62 -92 -162 -92q-120 0 -177 90q-46 73 -46 193q0 85 18.5 156.5t60.5 161.5l101 214h152l-152 -314q25 22 48 32.5t54 10.5q77 0 121 -83q38 -72 38 -171zM346 271q0 50 -12 83q-15 42 -48 42q-34 0 -54.5 -44.5t-20.5 -96.5q0 -50 15 -84
q19 -44 55 -44q31 0 48 45t17 99z" />
    <glyph glyph-name="seven" unicode="7" horiz-adv-x="579" 
d="M524 803l-301 -803h-165l247 663h-212v140h431z" />
    <glyph glyph-name="eight" unicode="8" horiz-adv-x="572" 
d="M515 226q0 -105 -66 -169t-164 -64q-97 0 -162 66t-65 169q0 90 40 145q35 48 96 65q-44 22 -58 35q-50 47 -50 129q0 89 57.5 154.5t146.5 65.5q85 0 140.5 -60.5t55.5 -155.5q0 -82 -52 -133q-17 -17 -53 -35q63 -26 94 -71q40 -58 40 -141zM333 603q0 35 -10 61
q-13 32 -37 32q-25 0 -34.5 -25.5t-9.5 -61.5q0 -37 7 -57q11 -30 36 -30q27 0 39 27q9 21 9 54zM353 246q0 43 -16 76q-19 39 -51 39q-35 0 -50.5 -34.5t-15.5 -80.5q0 -44 15.5 -77.5t50.5 -33.5q34 0 52 36q15 31 15 75z" />
    <glyph glyph-name="nine" unicode="9" horiz-adv-x="557" 
d="M499 533q0 -85 -19 -155.5t-63 -162.5l-103 -215h-152l154 317q-25 -22 -48 -32.5t-54 -10.5q-76 0 -120 82q-39 72 -39 169q0 116 57 200q63 93 164 93q120 0 177 -92q46 -74 46 -193zM344 550q0 47 -14 84q-17 44 -45 44q-39 0 -57.5 -44t-18.5 -100q0 -50 12 -80
q16 -41 53 -41q33 0 53 46q17 39 17 91z" />
    <glyph glyph-name="colon" unicode=":" horiz-adv-x="315" 
d="M265 451q0 -40 -30 -69t-72 -29t-72 28t-30 70q0 41 28.5 71.5t68.5 30.5q44 0 75.5 -29.5t31.5 -72.5zM265 97q0 -42 -30 -73t-72 -31q-43 0 -74 30t-31 73q0 42 29 72t71 30q47 0 77 -29t30 -72z" />
    <glyph glyph-name="semicolon" unicode=";" horiz-adv-x="384" 
d="M329 446q0 -42 -30 -70t-72 -28q-41 0 -71.5 28.5t-30.5 68.5q0 42 28 72t70 30q43 0 74.5 -29.5t31.5 -71.5zM324 174l-160 -330h-106l107 330h159z" />
    <glyph glyph-name="less" unicode="&#x3c;" horiz-adv-x="594" 
d="M539 461l-347 -177l344 -174v-118l-482 239v108l485 242v-120z" />
    <glyph glyph-name="equal" unicode="=" horiz-adv-x="590" 
d="M534 309h-478v119h478v-119zM531 101h-477v118h477v-118z" />
    <glyph glyph-name="greater" unicode="&#x3e;" 
d="M532 231l-482 -239v118l344 174l-347 177v120l485 -242v-108z" />
    <glyph glyph-name="question" unicode="?" horiz-adv-x="536" 
d="M480 587q0 -129 -62 -189q-8 -8 -68 -38v-106h-160v202q15 -5 32 -5q13 0 20 2q37 8 54 46q14 31 14 79q0 42 -11 68q-14 33 -44 33q-27 0 -41 -31q-10 -23 -10 -52q0 -9 2 -13h-151v13q0 76 28 130q48 93 167 93q105 0 169 -68q61 -65 61 -164zM270 -8q-47 0 -73.5 29.5
t-26.5 70.5t26 71t74 30t76 -31q25 -28 25 -70q0 -41 -26.5 -70.5t-74.5 -29.5z" />
    <glyph glyph-name="at" unicode="@" horiz-adv-x="909" 
d="M855 487q0 -128 -92 -226q-85 -91 -179 -91q-24 0 -37.5 11t-13.5 39q0 10 1 15q0 1 1 2q-23 -26 -63.5 -44.5t-75.5 -18.5q-81 0 -128 59q-43 54 -43 133q0 99 64.5 175t159.5 76q62 0 103 -30q14 -10 31 -33l11 55h103l-55 -325q-2 -9 1.5 -18t11.5 -6q59 27 88 80
t29 121q0 122 -82 198q-85 79 -223 79q-137 0 -233 -94t-96 -237q0 -145 92 -239q97 -99 256 -99q67 0 117 23t101 74h101q-123 -177 -327 -177q-195 0 -312 120q-111 114 -111 293q0 187 123 303q118 112 295 112q174 0 278 -91t104 -239zM547 417q0 44 -16 70
q-20 32 -62 32q-54 0 -90.5 -43.5t-36.5 -101.5q0 -46 24.5 -74.5t65.5 -28.5q51 0 83 44t32 102z" />
    <glyph glyph-name="A" unicode="A" horiz-adv-x="598" 
d="M568 0h-166l-32 135h-157l-29 -135h-159l189 805h168zM349 264l-58 330l-54 -330h112z" />
    <glyph glyph-name="B" unicode="B" horiz-adv-x="521" 
d="M491 226q0 -106 -75 -168q-70 -58 -174 -58h-166v805h193q89 0 149.5 -67t60.5 -159q0 -100 -85 -164q97 -68 97 -189zM327 578q0 48 -25 70t-68 22v-194q41 0 67 26.5t26 75.5zM333 246q0 73 -45 96q-12 6 -54 10v-218q49 6 72 30q27 29 27 82z" />
    <glyph glyph-name="C" unicode="C" horiz-adv-x="535" 
d="M484 653q-33 9 -57 9q-93 0 -148 -71.5t-55 -181.5q0 -104 50 -179q56 -84 146 -84q30 0 61 10v-151q-20 -5 -39.5 -9t-38.5 -4q-155 0 -255 130q-93 121 -93 289q0 162 93 278q99 124 252 124q28 0 52 -6q5 -1 32 -10v-144z" />
    <glyph glyph-name="D" unicode="D" horiz-adv-x="590" 
d="M558 398q0 -197 -91 -300q-87 -98 -242 -98h-145v805h129q166 0 252 -89q97 -101 97 -318zM398 418q0 112 -40 174q-29 45 -76 61q-22 4 -43 8v-519l50 14q45 19 72 70q37 69 37 192z" />
    <glyph glyph-name="E" unicode="E" horiz-adv-x="427" 
d="M396 653h-162v-173h141v-152h-141v-176h160v-152h-318v805h320v-152z" />
    <glyph glyph-name="F" unicode="F" horiz-adv-x="434" 
d="M401 653h-162v-173h142v-152h-142v-328h-159v805h321v-152z" />
    <glyph glyph-name="G" unicode="G" horiz-adv-x="651" 
d="M596 372q0 -164 -62 -266q-70 -115 -201 -115q-136 0 -210 121q-67 110 -67 287q0 182 65 295q74 128 213 128q93 0 154 -52q56 -47 87 -138l-156 -60q-13 63 -32.5 82.5t-54.5 19.5q-59 0 -87 -90q-22 -70 -22 -174q0 -121 17 -179q27 -93 101 -93q45 0 72 52
q23 44 23 93v11q-2 7 -2 10h-101v150h263v-82z" />
    <glyph glyph-name="H" unicode="H" 
d="M537 0h-162v339h-157v-339h-164v805h167v-313h157v313h159v-805z" />
    <glyph glyph-name="I" unicode="I" horiz-adv-x="305" 
d="M239 0h-162v805h162v-805z" />
    <glyph glyph-name="J" unicode="J" horiz-adv-x="420" 
d="M344 232q0 -113 -38 -176q-45 -76 -142 -76q-45 0 -80 8t-52 28l1 151q6 -15 31 -29q20 -11 42 -11h16l12 4q30 9 41 33q8 18 8 51v30v560h161v-573z" />
    <glyph glyph-name="K" unicode="K" horiz-adv-x="575" 
d="M551 0h-167l-144 417v-417h-157v805h159v-353l132 353h158l-143 -367z" />
    <glyph glyph-name="L" unicode="L" horiz-adv-x="434" 
d="M408 0h-325v805h161l-1 -653h165v-152z" />
    <glyph glyph-name="M" unicode="M" horiz-adv-x="782" 
d="M750 0h-162l-38 575l-94 -575h-123l-105 555l-24 -555h-173l72 805h212l75 -467l64 467h215z" />
    <glyph glyph-name="N" unicode="N" horiz-adv-x="612" 
d="M560 805l-1 -805h-152l-193 489l11 -489h-163v805h155l197 -482l-14 482h160z" />
    <glyph glyph-name="O" unicode="O" horiz-adv-x="673" 
d="M628 410q0 -169 -64 -283q-76 -136 -218 -136q-146 0 -221 135q-63 113 -63 283q0 167 62 278q75 134 219 134q147 0 222 -132q63 -111 63 -279zM455 410q0 145 -26.5 204t-71.5 59q-67 0 -99 -92q-25 -72 -25 -177q0 -107 20 -172q27 -90 90 -90t91 91q21 68 21 177z
" />
    <glyph glyph-name="P" unicode="P" horiz-adv-x="550" 
d="M526 582q0 -104 -60 -174q-65 -76 -168 -76q-22 0 -52 5v-337h-163v805h224q92 0 155.5 -62.5t63.5 -160.5zM366 568q0 49 -19.5 76t-57.5 27h-42v-207q6 -1 18 -1q44 0 72.5 25.5t28.5 79.5z" />
    <glyph glyph-name="Q" unicode="Q" horiz-adv-x="680" 
d="M663 54l-84 -80l-61 67q-41 -28 -65 -37q-33 -13 -79 -13q-146 0 -221 134q-63 112 -63 280q0 165 64 279q75 134 215 134q145 0 220 -126q65 -109 65 -284q0 -83 -13 -152t-48 -131zM483 410q0 101 -16 164q-25 97 -82 97q-67 0 -99 -91q-25 -71 -25 -176t21 -173
q28 -90 90 -90q16 0 22.5 3.5t13.5 8.5l-94 101l84 79l75 -85q6 25 8.5 46.5t2.5 48.5q0 14 -0.5 28.5t-0.5 29.5v9z" />
    <glyph glyph-name="R" unicode="R" horiz-adv-x="583" 
d="M545 0h-167l-140 368v-368h-162v805h204q101 0 166 -56q71 -61 71 -166q0 -91 -41 -151q-26 -38 -71 -65zM363 568q0 47 -22 75t-60 28h-44v-207q14 -3 28 -3q43 0 68 24q30 28 30 83z" />
    <glyph glyph-name="S" unicode="S" horiz-adv-x="499" 
d="M452 234q0 -108 -63.5 -175.5t-161.5 -67.5q-68 0 -110 21q-4 2 -32 23v153q5 -8 40 -25q45 -22 80 -22q34 0 62 21q32 24 32 62q0 48 -64 97q-35 25 -69 51q-54 44 -73 73q-37 57 -37 148q0 90 51 155q55 70 138 70q54 0 112 -18q19 -6 47 -18v-159q-3 8 -40 27
q-46 24 -86 24q-30 0 -47 -20t-17 -49q-1 -8 -1 -11q0 -48 50 -90l44 -33q78 -57 109 -104q36 -55 36 -133z" />
    <glyph glyph-name="T" unicode="T" horiz-adv-x="521" 
d="M469 653h-121v-653h-161v653h-126v152h408v-152z" />
    <glyph glyph-name="U" unicode="U" horiz-adv-x="579" 
d="M529 212q0 -104 -49 -158q-59 -65 -187 -65q-116 0 -175.5 55.5t-59.5 151.5v609h156v-588q0 -35 23.5 -59.5t57.5 -24.5q43 0 61 26q14 21 14 61v585h159v-593z" />
    <glyph glyph-name="V" unicode="V" horiz-adv-x="630" 
d="M615 805l-225 -805h-129l-225 805h170l30 -128q28 -123 56 -245q17 -76 35 -151q3 20 33.5 146.5t60.5 249.5q15 64 31 128h163z" />
    <glyph glyph-name="W" unicode="W" horiz-adv-x="880" 
d="M859 805l-164 -805h-136l-105 555l-119 -555h-138l-157 805h162q10 -67 21 -134q19 -120 40 -266t21 -165q7 48 32 185q20 106 48 253q24 127 25 127h129l98 -557q0 23 20 164q13 91 38 258q20 135 21 135h164z" />
    <glyph glyph-name="X" unicode="X" horiz-adv-x="583" 
d="M559 0h-181l-89 248l-86 -248h-176l168 410l-170 395h179l85 -231l81 231h176l-171 -393z" />
    <glyph glyph-name="Y" unicode="Y" horiz-adv-x="590" 
d="M569 805l-186 -419l1 -386h-156v385l-192 420h171l101 -258l88 258h173z" />
    <glyph glyph-name="Z" unicode="Z" horiz-adv-x="550" 
d="M539 805l-273 -653h252v-152h-482l263 653h-233v152h473z" />
    <glyph glyph-name="bracketleft" unicode="[" horiz-adv-x="384" 
d="M333 -28h-271v938h270v-105h-129v-726h130v-107z" />
    <glyph glyph-name="backslash" unicode="\" horiz-adv-x="597" 
d="M547 -25l-100 -52l-389 910l104 44z" />
    <glyph glyph-name="bracketright" unicode="]" horiz-adv-x="380" 
d="M330 -28h-272v107h131v726h-129v105h270v-938z" />
    <glyph glyph-name="asciicircum" unicode="^" horiz-adv-x="412" 
d="M361 665l-66 -66l-89 75l-91 -73l-59 73l152 122z" />
    <glyph glyph-name="underscore" unicode="_" horiz-adv-x="690" 
d="M702 -114h-718v55h718v-55z" />
    <glyph glyph-name="grave" unicode="`" horiz-adv-x="314" 
d="M266 645l-73 -44l-128 146l102 51z" />
    <glyph glyph-name="a" unicode="a" horiz-adv-x="503" 
d="M432 0h-156v50q-23 -32 -40 -45q-25 -19 -56 -19q-74 0 -113 97q-32 79 -32 190q0 109 28 179q36 91 111 91q39 0 64 -19q16 -12 41 -48v61h153v-537zM294 278q0 51 -10 88q-13 47 -38 47q-33 0 -45.5 -43t-12.5 -100q0 -59 10 -95q14 -50 44 -50q26 0 39 49t13 104z" />
    <glyph glyph-name="b" unicode="b" horiz-adv-x="496" 
d="M469 275q0 -111 -31 -190q-38 -97 -111 -97q-44 0 -76 33q-10 10 -28 39v-60h-147v855h151v-381q20 34 28 42q29 30 73 30q77 0 113 -91q28 -70 28 -180zM318 267q0 56 -11 96q-14 51 -39 51q-29 0 -42 -45t-13 -97t12 -98t34 -46q34 0 48 47q11 36 11 92z" />
    <glyph glyph-name="c" unicode="c" horiz-adv-x="394" 
d="M343 405q-22 14 -47 14q-45 0 -68 -50q-19 -42 -19 -100q0 -55 19 -91q23 -44 67 -44q22 0 45 15v-138q-42 -19 -86 -19q-99 0 -151 89q-45 77 -45 189q0 113 50 191q57 89 158 89q23 0 37.5 -3.5t39.5 -14.5v-127z" />
    <glyph glyph-name="d" unicode="d" horiz-adv-x="507" 
d="M426 0h-147v62q-20 -35 -43 -53q-29 -22 -64 -22q-72 0 -109 98q-30 80 -30 192q0 109 28 179q36 91 113 91q44 0 72 -29q5 -5 29 -42v379h151v-855zM289 274q0 57 -11 93q-15 49 -44 49q-23 0 -37 -48.5t-14 -98.5q0 -60 9 -92q14 -49 49 -49q22 2 35 48.5t13 97.5z" />
    <glyph glyph-name="e" unicode="e" horiz-adv-x="496" 
d="M444 315q0 -24 -2 -50t-3 -32h-238v-24q0 -42 13.5 -72.5t43.5 -30.5q23 0 38.5 19.5t15.5 44.5h120q0 -75 -41 -125q-45 -55 -123 -55q-103 0 -159 82q-50 74 -50 187q0 118 45 197q54 95 158 95q85 0 136 -74q46 -67 46 -162zM311 328q1 1 1 15q0 32 -10 56
q-15 35 -46 35q-29 0 -44 -37q-11 -27 -11 -58q0 -10 1 -11h109z" />
    <glyph glyph-name="f" unicode="f" horiz-adv-x="384" 
d="M337 419h-68v-419h-154v419h-57v118h57v168q0 76 28 116q36 51 120 51q35 0 71 -16v-144q-14 11 -32 11q-8 0 -17.5 -4t-15.5 -19.5t-6 -31.5v-131h74v-118z" />
    <glyph glyph-name="g" unicode="g" horiz-adv-x="507" 
d="M433 -41q0 -111 -45 -168q-50 -63 -155 -63q-96 0 -145.5 59.5t-49.5 139.5h135q1 -26 4 -39q12 -39 49 -39q30 0 44 29q11 22 11 58v130q-21 -36 -34 -49q-29 -28 -73 -28q-73 6 -110 94q-31 73 -31 176q0 114 29 192q36 98 110 98q44 0 78 -34q11 -11 29 -40v62h154
v-578zM287 268q0 54 -11 95q-14 51 -37 51q-34 0 -48 -48q-10 -34 -10 -93q0 -52 14.5 -99t38.5 -47q28 0 42 48q11 39 11 93z" />
    <glyph glyph-name="h" unicode="h" horiz-adv-x="485" 
d="M434 0h-150v351q0 18 -10.5 32.5t-28.5 14.5q-19 0 -27.5 -18t-8.5 -41v-339h-151v855h152v-403q14 33 27 49q41 50 103 50q46 0 73 -44q21 -35 21 -73v-434z" />
    <glyph glyph-name="i" unicode="i" horiz-adv-x="343" 
d="M265 693q0 -39 -29 -66t-70 -27q-38 0 -67 28t-29 67q0 42 27 72t70 30q42 0 70 -30t28 -74zM247 0h-154v537h154v-537z" />
    <glyph glyph-name="j" unicode="j" horiz-adv-x="337" 
d="M269 690q0 -38 -30 -65t-69 -27q-40 0 -68.5 27.5t-28.5 66.5q0 42 27 72t70 30t71 -30t28 -74zM251 -264h-155v801h155v-801z" />
    <glyph glyph-name="k" unicode="k" horiz-adv-x="525" 
d="M508 0h-158l-109 246v-246h-153v855h151v-497l83 179h162l-122 -216z" />
    <glyph glyph-name="l" unicode="l" horiz-adv-x="301" 
d="M227 0h-152l1 855h151v-855z" />
    <glyph glyph-name="m" unicode="m" horiz-adv-x="710" 
d="M658 0h-151v351q0 20 -9.5 35t-27.5 15q-21 -2 -30 -19.5t-9 -42.5v-339h-150v351q0 20 -9.5 35t-26.5 15q-21 -2 -30 -19.5t-9 -42.5v-339h-151v537h152v-85q18 33 32 49q43 49 97 49q49 0 72 -28q17 -20 25 -67q18 32 32 47q43 48 96 48q50 0 75 -40q22 -35 22 -92
v-418z" />
    <glyph glyph-name="n" unicode="n" horiz-adv-x="492" 
d="M438 0h-150v351q0 20 -9.5 35t-26.5 15q-21 -2 -30 -19.5t-9 -42.5v-339h-151v537h152v-85q14 33 27 49q41 50 103 50q47 0 73 -41q21 -33 21 -70v-440z" />
    <glyph glyph-name="o" unicode="o" horiz-adv-x="518" 
d="M468 275q0 -121 -41 -193q-52 -91 -162 -91t-163 89q-44 73 -44 190q0 118 44 192q54 90 162 90q110 0 162 -88q42 -71 42 -189zM316 279q0 59 -6 84q-11 44 -42 51q-33 7 -45.5 -39.5t-12.5 -108.5q0 -58 8 -87q13 -46 47 -51q26 -4 40 50q11 43 11 101z" />
    <glyph glyph-name="p" unicode="p" horiz-adv-x="503" 
d="M451 267q0 -109 -28 -180q-37 -92 -113 -92q-35 0 -59 18q-17 12 -42 55v-332h-151v801h147v-55q20 31 27 39q32 33 77 33q76 0 112 -89q30 -74 30 -198zM300 275q0 81 -16 114.5t-43 33.5q-21 0 -34 -50t-13 -103q0 -57 11 -93q15 -49 45 -49q24 0 37 47t13 100z" />
    <glyph glyph-name="q" unicode="q" horiz-adv-x="503" 
d="M453 -264h-150v330q-26 -42 -42 -54q-26 -19 -60 -19q-75 0 -112 91q-29 72 -29 180q0 111 31 190q38 97 111 97q45 0 77 -32q7 -7 27 -39v57h147v-801zM317 267q0 54 -12 101t-35 49q-33 0 -48 -50q-11 -38 -11 -95q0 -53 13 -100t37 -47q29 0 44 49q12 39 12 93z" />
    <glyph glyph-name="r" unicode="r" horiz-adv-x="384" 
d="M356 409l-24 3q-50 0 -74 -26t-24 -69v-317h-153v537h152v-72q9 21 20 35t31 28q34 26 72 26v-145z" />
    <glyph glyph-name="s" unicode="s" horiz-adv-x="441" 
d="M387 181q0 -82 -39 -132q-45 -58 -136 -58q-44 0 -98 25q-43 20 -60 39l67 103q17 -12 27 -18q32 -19 49 -19q43 0 43 50q0 22 -86.5 73.5t-86.5 140.5q0 69 45 114q49 49 134 49q59 0 104 -22q36 -24 37 -25l-60 -107q-14 12 -23 17q-27 17 -46 17q-17 0 -29.5 -10.5
t-12.5 -26.5q0 -24 85.5 -70.5t85.5 -139.5z" />
    <glyph glyph-name="t" unicode="t" horiz-adv-x="372" 
d="M319 410h-63v-410h-150v412h-51v125h51v149h154v-149h59v-127z" />
    <glyph glyph-name="u" unicode="u" horiz-adv-x="488" 
d="M435 179q0 -81 -50.5 -133.5t-140.5 -52.5q-88 0 -137 52q-45 48 -45 127v365h149v-340q0 -27 8 -45.5t30 -18.5q19 0 28.5 19t9.5 42v343h148v-358z" />
    <glyph glyph-name="v" unicode="v" horiz-adv-x="518" 
d="M506 537l-159 -537h-141l-150 537h151l70 -300l70 300h159z" />
    <glyph glyph-name="w" unicode="w" horiz-adv-x="760" 
d="M736 537l-150 -537h-123l-81 335l-75 -335h-129l-145 537h145l72 -312l69 312h132l66 -316l77 316h142z" />
    <glyph glyph-name="x" unicode="x" horiz-adv-x="525" 
d="M504 0h-161l-75 144l-79 -144h-156l153 288l-131 249h161l52 -112l59 112h156l-135 -249z" />
    <glyph glyph-name="y" unicode="y" horiz-adv-x="506" 
d="M487 537l-231 -801h-152l87 276l-151 525h148l77 -306l69 306h153z" />
    <glyph glyph-name="z" unicode="z" horiz-adv-x="452" 
d="M423 537l-165 -412h145v-125h-360l171 410h-152v127h361z" />
    <glyph glyph-name="braceleft" unicode="{" horiz-adv-x="398" 
d="M353 -40h-91q-30 0 -55.5 9t-39.5 27q-30 41 -30 84v216q0 24 -3.5 37.5t-17.5 28.5q-24 27 -58 27v78q33 0 57 27q12 14 16.5 29t4.5 37v216q0 20 7.5 41.5t21.5 40.5t41 28.5t54 9.5h92v-86q-19 0 -26 -1.5t-19 -10.5q-18 -14 -25.5 -36t-7.5 -51v-157v-11
q0 -26 -2.5 -40.5t-12.5 -28.5q-15 -20 -30 -31t-38 -15q22 -4 38 -15.5t31 -31.5q10 -12 12.5 -31t2.5 -48v-158q0 -31 7 -51.5t26 -35.5q11 -8 20 -10t25 -2v-85z" />
    <glyph glyph-name="bar" unicode="|" horiz-adv-x="213" 
d="M160 -264h-101l-1 1069h102v-1069z" />
    <glyph glyph-name="braceright" unicode="}" horiz-adv-x="402" 
d="M353 381q-34 0 -58 -27q-12 -14 -16.5 -29t-4.5 -37v-216q0 -20 -7.5 -42.5t-22 -41t-41 -28t-54.5 -9.5h-91v86q19 0 26 1.5t19 10.5q18 14 25.5 36t7.5 51v158q0 36 2 50.5t13 28.5q30 39 69 47q-39 7 -68 46q-7 10 -11 26t-4 54v157q0 31 -7 52t-26 35q-9 7 -19.5 9.5
t-25.5 2.5v86h92q27 0 54 -9.5t41 -28.5t21.5 -40.5t7.5 -41.5v-216q0 -22 4 -37t17 -29q24 -27 57 -27v-78z" />
    <glyph glyph-name="asciitilde" unicode="~" horiz-adv-x="482" 
d="M437 747q-8 -30 -46 -69q-31 -31 -62 -31q-28 0 -63 15q-93 40 -96 41q-19 4 -43 -29q-12 -16 -23 -39l-47 61q8 29 38 64q37 43 74 43q27 0 69.5 -19t85.5 -39q22 0 44 29q10 13 21 35z" />
    <glyph glyph-name="Adieresis" unicode="&#xc4;" horiz-adv-x="608" 
d="M611 0h-166l-32 135h-157l-29 -135h-159l189 805h168zM392 264l-58 330l-54 -330h112zM540 935q0 -32 -23 -55t-56 -23t-56 23t-23 56q0 32 24.5 55.5t58.5 23.5q31 0 53 -24t22 -56zM320 931q0 -31 -24 -53t-56 -22t-55.5 21.5t-23.5 52.5q-3 35 22 61t61 26
q32 0 54 -26t22 -60z" />
    <glyph glyph-name="Aring" unicode="&#xc5;" horiz-adv-x="600" 
d="M436 964q0 -46 -34 -80t-81 -34t-80.5 31.5t-33.5 77.5q0 49 33.5 85.5t81.5 36.5q47 0 80.5 -34.5t33.5 -82.5zM366 964q0 19 -12.5 32.5t-30.5 13.5q-19 0 -32.5 -12.5t-13.5 -30.5q0 -21 12.5 -34.5t32.5 -13.5q18 0 31 13t13 32zM596 0h-166l-32 135h-157l-29 -135
h-159l189 805h168zM377 264l-58 330l-54 -330h112z" />
    <glyph glyph-name="Ccedilla" unicode="&#xc7;" horiz-adv-x="539" 
d="M487 653q-19 6 -29.5 7.5t-27.5 1.5q-92 0 -147 -71.5t-55 -181.5q0 -103 50 -179q55 -84 146 -84q19 0 29 1.5t32 8.5v-151q-20 -5 -39.5 -9t-38.5 -4q-155 0 -255 130q-94 122 -94 289q0 161 94 278q100 124 252 124q23 0 38 -3t45 -13v-144zM389 -90l-111 -139l-68 34
l86 144z" />
    <glyph glyph-name="Eacute" unicode="&#xc9;" horiz-adv-x="423" 
d="M367 653h-162v-173h141v-152h-141v-176h160v-152h-318v805h320v-152zM312 1005l-135 -148l-75 43l103 153z" />
    <glyph glyph-name="Ntilde" unicode="&#xd1;" horiz-adv-x="608" 
d="M560 805l-1 -805h-152l-193 489l11 -489h-163v805h155l197 -482l-14 482h160zM498 971q-8 -30 -46 -69q-31 -31 -62 -31q-28 0 -63 15q-93 40 -96 41q-19 4 -43 -29q-12 -16 -23 -39l-47 61q8 29 38 64q37 43 74 43q27 0 69.5 -19t85.5 -39q22 0 44 29q10 13 21 35z" />
    <glyph glyph-name="Odieresis" unicode="&#xd6;" horiz-adv-x="665" 
d="M624 410q0 -169 -64 -283q-76 -136 -218 -136q-146 0 -221 135q-63 113 -63 283q0 167 62 278q75 134 219 134q147 0 222 -132q63 -111 63 -279zM451 410q0 145 -26.5 204t-71.5 59q-67 0 -99 -92q-25 -72 -25 -177q0 -107 20 -172q27 -90 90 -90t91 91q21 68 21 177z
M526 935q0 -32 -23 -55t-56 -23t-56 23t-23 56q0 32 24.5 55.5t58.5 23.5q31 0 53 -24t22 -56zM306 931q0 -31 -24 -53t-56 -22t-55.5 21.5t-23.5 52.5q-3 35 22 61t61 26q32 0 54 -26t22 -60z" />
    <glyph glyph-name="Udieresis" unicode="&#xdc;" horiz-adv-x="579" 
d="M529 212q0 -104 -49 -158q-59 -65 -187 -65q-116 0 -175.5 55.5t-59.5 151.5v609h156v-588q0 -35 23.5 -59.5t57.5 -24.5q43 0 61 26q14 21 14 61v585h159v-593zM496 935q0 -32 -23 -55t-56 -23t-56 23t-23 56q0 32 24.5 55.5t58.5 23.5q31 0 53 -24t22 -56zM276 931
q0 -31 -24 -53t-56 -22t-55.5 21.5t-23.5 52.5q-3 35 22 61t61 26q32 0 54 -26t22 -60z" />
    <glyph glyph-name="aacute" unicode="&#xe1;" horiz-adv-x="503" 
d="M418 0h-156v50q-23 -32 -40 -45q-25 -19 -56 -19q-74 0 -113 97q-32 79 -32 190q0 109 28 179q36 91 111 91q39 0 64 -19q16 -12 41 -48v61h153v-537zM280 278q0 51 -10 88q-13 47 -38 47q-33 0 -45.5 -43t-12.5 -100q0 -59 10 -95q14 -50 44 -50q26 0 39 49t13 104z
M357 746l-135 -148l-75 43l103 153z" />
    <glyph glyph-name="agrave" unicode="&#xe0;" horiz-adv-x="499" 
d="M417 0h-156v50q-23 -32 -40 -45q-25 -19 -56 -19q-74 0 -113 97q-32 79 -32 190q0 109 28 179q36 91 111 91q39 0 64 -19q16 -12 41 -48v61h153v-537zM279 278q0 51 -10 88q-13 47 -38 47q-33 0 -45.5 -43t-12.5 -100q0 -59 10 -95q14 -50 44 -50q26 0 39 49t13 104z
M347 642l-73 -44l-128 146l102 51z" />
    <glyph glyph-name="acircumflex" unicode="&#xe2;" horiz-adv-x="499" 
d="M432 0h-156v50q-23 -32 -40 -45q-25 -19 -56 -19q-74 0 -113 97q-32 79 -32 190q0 109 28 179q36 91 111 91q39 0 64 -19q16 -12 41 -48v61h153v-537zM294 278q0 51 -10 88q-13 47 -38 47q-33 0 -45.5 -43t-12.5 -100q0 -59 10 -95q14 -50 44 -50q26 0 39 49t13 104z
M415 668l-66 -66l-89 75l-91 -73l-59 73l152 122z" />
    <glyph glyph-name="adieresis" unicode="&#xe4;" horiz-adv-x="506" 
d="M432 0h-156v50q-23 -32 -40 -45q-25 -19 -56 -19q-74 0 -113 97q-32 79 -32 190q0 109 28 179q36 91 111 91q39 0 64 -19q16 -12 41 -48v61h153v-537zM294 278q0 51 -10 88q-13 47 -38 47q-33 0 -45.5 -43t-12.5 -100q0 -59 10 -95q14 -50 44 -50q26 0 39 49t13 104z
M443 679q0 -32 -23 -55t-56 -23t-56 23t-23 56q0 32 24.5 55.5t58.5 23.5q31 0 53 -24t22 -56zM223 675q0 -31 -24 -53t-56 -22t-55.5 21.5t-23.5 52.5q-3 35 22 61t61 26q32 0 54 -26t22 -60z" />
    <glyph glyph-name="atilde" unicode="&#xe3;" horiz-adv-x="506" 
d="M447 0h-156v50q-23 -32 -40 -45q-25 -19 -56 -19q-74 0 -113 97q-32 79 -32 190q0 109 28 179q36 91 111 91q39 0 64 -19q16 -12 41 -48v61h153v-537zM309 278q0 51 -10 88q-13 47 -38 47q-33 0 -45.5 -43t-12.5 -100q0 -59 10 -95q14 -50 44 -50q26 0 39 49t13 104z
M438 711q-8 -30 -46 -69q-31 -31 -62 -31q-28 0 -63 15q-93 40 -96 41q-19 4 -43 -29q-12 -16 -23 -39l-47 61q8 29 38 64q37 43 74 43q27 0 69.5 -19t85.5 -39q22 0 44 29q10 13 21 35z" />
    <glyph glyph-name="aring" unicode="&#xe5;" horiz-adv-x="506" 
d="M382 717q0 -47 -34 -81t-81 -34t-80.5 31.5t-33.5 78.5q0 48 33.5 84.5t81.5 36.5t81 -34t33 -82zM312 717q0 18 -12 32t-30 14q-20 0 -33.5 -12.5t-13.5 -31.5t13 -33t32 -14q18 0 31 13t13 32zM432 0h-156v50q-23 -32 -40 -45q-25 -19 -56 -19q-74 0 -113 97
q-32 79 -32 190q0 109 28 179q36 91 111 91q39 0 64 -19q16 -12 41 -48v61h153v-537zM294 278q0 51 -10 88q-13 47 -38 47q-33 0 -45.5 -43t-12.5 -100q0 -59 10 -95q14 -50 44 -50q26 0 39 49t13 104z" />
    <glyph glyph-name="ccedilla" unicode="&#xe7;" horiz-adv-x="398" 
d="M347 405q-22 14 -47 14q-46 0 -69 -50q-19 -41 -19 -100q0 -54 20 -91q24 -44 67 -44q21 0 45 15v-138q-42 -19 -86 -19q-100 0 -152 89q-44 75 -44 189t49 191q56 89 158 89q24 0 38.5 -3.5t39.5 -14.5v-127zM291 -87l-111 -139l-68 34l86 144z" />
    <glyph glyph-name="eacute" unicode="&#xe9;" horiz-adv-x="465" 
d="M416 315q0 -24 -2 -50t-3 -32h-238v-24q0 -42 13.5 -72.5t43.5 -30.5q23 0 38.5 19.5t15.5 44.5h120q0 -75 -41 -125q-45 -55 -123 -55q-103 0 -159 82q-50 74 -50 187q0 118 45 197q54 95 158 95q85 0 136 -74q46 -67 46 -162zM283 328q1 1 1 15q0 32 -10 56
q-15 35 -46 35q-29 0 -44 -37q-11 -27 -11 -58q0 -10 1 -11h109zM345 747l-135 -148l-75 43l103 153z" />
    <glyph glyph-name="egrave" unicode="&#xe8;" horiz-adv-x="492" 
d="M444 315q0 -24 -2 -50t-3 -32h-238v-24q0 -42 13.5 -72.5t43.5 -30.5q23 0 38.5 19.5t15.5 44.5h120q0 -75 -41 -125q-45 -55 -123 -55q-103 0 -159 82q-50 74 -50 187q0 118 45 197q54 95 158 95q85 0 136 -74q46 -67 46 -162zM311 328q1 1 1 15q0 32 -10 56
q-15 35 -46 35q-29 0 -44 -37q-11 -27 -11 -58q0 -10 1 -11h109zM362 642l-73 -44l-128 146l102 51z" />
    <glyph glyph-name="ecircumflex" unicode="&#xea;" horiz-adv-x="492" 
d="M444 315q0 -24 -2 -50t-3 -32h-238v-24q0 -42 13.5 -72.5t43.5 -30.5q23 0 38.5 19.5t15.5 44.5h120q0 -75 -41 -125q-45 -55 -123 -55q-103 0 -159 82q-50 74 -50 187q0 118 45 197q54 95 158 95q85 0 136 -74q46 -67 46 -162zM311 328q1 1 1 15q0 32 -10 56
q-15 35 -46 35q-29 0 -44 -37q-11 -27 -11 -58q0 -10 1 -11h109zM427 665l-66 -66l-89 75l-91 -73l-59 73l152 122z" />
    <glyph glyph-name="edieresis" unicode="&#xeb;" horiz-adv-x="495" 
d="M444 315q0 -24 -2 -50t-3 -32h-238v-24q0 -42 13.5 -72.5t43.5 -30.5q23 0 38.5 19.5t15.5 44.5h120q0 -75 -41 -125q-45 -55 -123 -55q-103 0 -159 82q-50 74 -50 187q0 118 45 197q54 95 158 95q85 0 136 -74q46 -67 46 -162zM311 328q1 1 1 15q0 32 -10 56
q-15 35 -46 35q-29 0 -44 -37q-11 -27 -11 -58q0 -10 1 -11h109zM437 681q0 -32 -23 -55t-56 -23t-56 23t-23 56q0 32 24.5 55.5t58.5 23.5q31 0 53 -24t22 -56zM217 677q0 -31 -24 -53t-56 -22t-55.5 21.5t-23.5 52.5q-3 35 22 61t61 26q32 0 54 -26t22 -60z" />
    <glyph glyph-name="iacute" unicode="&#xed;" horiz-adv-x="343" 
d="M252 -3h-155v541h155v-541zM288 747l-135 -148l-75 43l103 153z" />
    <glyph glyph-name="igrave" unicode="&#xec;" horiz-adv-x="339" 
d="M249 0h-154v540h154v-540zM249 645l-73 -44l-128 146l102 51z" />
    <glyph glyph-name="icircumflex" unicode="&#xee;" horiz-adv-x="344" 
d="M248 0h-155v540h155v-540zM332 665l-66 -66l-89 75l-91 -73l-59 73l152 122z" />
    <glyph glyph-name="idieresis" unicode="&#xef;" horiz-adv-x="346" 
d="M250 0h-154v540h154v-540zM364 679q0 -32 -23 -55t-56 -23t-56 23t-23 56q0 32 24.5 55.5t58.5 23.5q31 0 53 -24t22 -56zM144 675q0 -31 -24 -53t-56 -22t-55.5 21.5t-23.5 52.5q-3 35 22 61t61 26q32 0 54 -26t22 -60z" />
    <glyph glyph-name="ntilde" unicode="&#xf1;" horiz-adv-x="478" 
d="M427 0h-150v351q0 20 -9.5 35t-26.5 15q-21 -2 -30 -19.5t-9 -42.5v-339h-151v537h152v-85q14 33 27 49q41 50 103 50q47 0 73 -41q21 -33 21 -70v-440zM448 713q-8 -30 -46 -69q-31 -31 -62 -31q-28 0 -63 15q-93 40 -96 41q-19 4 -43 -29q-12 -16 -23 -39l-47 61
q8 29 38 64q37 43 74 43q27 0 69.5 -19t85.5 -39q22 0 44 29q10 13 21 35z" />
    <glyph glyph-name="oacute" unicode="&#xf3;" horiz-adv-x="517" 
d="M468 275q0 -121 -41 -193q-52 -91 -162 -91t-163 89q-44 73 -44 190q0 118 44 192q54 90 162 90q110 0 162 -88q42 -71 42 -189zM316 279q0 59 -6 84q-11 44 -42 51q-33 7 -45.5 -39.5t-12.5 -108.5q0 -58 8 -87q13 -46 47 -51q26 -4 40 50q11 43 11 101zM379 747
l-135 -148l-75 43l103 153z" />
    <glyph glyph-name="ograve" unicode="&#xf2;" horiz-adv-x="510" 
d="M468 275q0 -121 -41 -193q-52 -91 -162 -91t-163 89q-44 73 -44 190q0 118 44 192q54 90 162 90q110 0 162 -88q42 -71 42 -189zM316 279q0 59 -6 84q-11 44 -42 51q-33 7 -45.5 -39.5t-12.5 -108.5q0 -58 8 -87q13 -46 47 -51q26 -4 40 50q11 43 11 101zM368 642
l-73 -44l-128 146l102 51z" />
    <glyph glyph-name="ocircumflex" unicode="&#xf4;" horiz-adv-x="517" 
d="M468 275q0 -121 -41 -193q-52 -91 -162 -91t-163 89q-44 73 -44 190q0 118 44 192q54 90 162 90q110 0 162 -88q42 -71 42 -189zM316 279q0 59 -6 84q-11 44 -42 51q-33 7 -45.5 -39.5t-12.5 -108.5q0 -58 8 -87q13 -46 47 -51q26 -4 40 50q11 43 11 101zM433 666
l-66 -66l-89 75l-91 -73l-59 73l152 122z" />
    <glyph glyph-name="odieresis" unicode="&#xf6;" horiz-adv-x="517" 
d="M468 275q0 -121 -41 -193q-52 -91 -162 -91t-163 89q-44 73 -44 190q0 118 44 192q54 90 162 90q110 0 162 -88q42 -71 42 -189zM316 279q0 59 -6 84q-11 44 -42 51q-33 7 -45.5 -39.5t-12.5 -108.5q0 -58 8 -87q13 -46 47 -51q26 -4 40 50q11 43 11 101zM461 679
q0 -32 -23 -55t-56 -23t-56 23t-23 56q0 32 24.5 55.5t58.5 23.5q31 0 53 -24t22 -56zM241 675q0 -31 -24 -53t-56 -22t-55.5 21.5t-23.5 52.5q-3 35 22 61t61 26q32 0 54 -26t22 -60z" />
    <glyph glyph-name="otilde" unicode="&#xf5;" horiz-adv-x="517" 
d="M468 275q0 -121 -41 -193q-52 -91 -162 -91t-163 89q-44 73 -44 190q0 118 44 192q54 90 162 90q110 0 162 -88q42 -71 42 -189zM316 279q0 59 -6 84q-11 44 -42 51q-33 7 -45.5 -39.5t-12.5 -108.5q0 -58 8 -87q13 -46 47 -51q26 -4 40 50q11 43 11 101zM457 713
q-8 -30 -46 -69q-31 -31 -62 -31q-28 0 -63 15q-93 40 -96 41q-19 4 -43 -29q-12 -16 -23 -39l-47 61q8 29 38 64q37 43 74 43q27 0 69.5 -19t85.5 -39q22 0 44 29q10 13 21 35z" />
    <glyph glyph-name="uacute" unicode="&#xfa;" horiz-adv-x="477" 
d="M407 179q0 -81 -50.5 -133.5t-140.5 -52.5q-88 0 -137 52q-45 48 -45 127v365h149v-340q0 -27 8 -45.5t30 -18.5q19 0 28.5 19t9.5 42v343h148v-358zM335 747l-135 -148l-75 43l103 153z" />
    <glyph glyph-name="ugrave" unicode="&#xf9;" horiz-adv-x="478" 
d="M407 179q0 -81 -50.5 -133.5t-140.5 -52.5q-88 0 -137 52q-45 48 -45 127v365h149v-340q0 -27 8 -45.5t30 -18.5q19 0 28.5 19t9.5 42v343h148v-358zM330 645l-73 -44l-128 146l102 51z" />
    <glyph glyph-name="ucircumflex" unicode="&#xfb;" horiz-adv-x="477" 
d="M407 179q0 -81 -50.5 -133.5t-140.5 -52.5q-88 0 -137 52q-45 48 -45 127v365h149v-340q0 -27 8 -45.5t30 -18.5q19 0 28.5 19t9.5 42v343h148v-358zM390 668l-66 -66l-89 75l-91 -73l-59 73l152 122z" />
    <glyph glyph-name="udieresis" unicode="&#xfc;" horiz-adv-x="481" 
d="M431 179q0 -81 -50.5 -133.5t-140.5 -52.5q-88 0 -137 52q-45 48 -45 127v365h149v-340q0 -27 8 -45.5t30 -18.5q19 0 28.5 19t9.5 42v343h148v-358zM425 679q0 -32 -23 -55t-56 -23t-56 23t-23 56q0 32 24.5 55.5t58.5 23.5q31 0 53 -24t22 -56zM205 675q0 -31 -24 -53
t-56 -22t-55.5 21.5t-23.5 52.5q-3 35 22 61t61 26q32 0 54 -26t22 -60z" />
    <glyph glyph-name="dagger" unicode="&#x2020;" horiz-adv-x="528" 
d="M478 412h-138v-586h-144v586h-137v138h134v255h150v-258h135v-135z" />
    <glyph glyph-name="degree" unicode="&#xb0;" horiz-adv-x="338" 
d="M289 717q0 -47 -34 -81t-81 -34t-80.5 31.5t-33.5 78.5q0 48 33.5 84.5t81.5 36.5t81 -34t33 -82zM219 717q0 19 -12.5 32.5t-30.5 13.5q-19 0 -32.5 -12.5t-13.5 -31.5q0 -20 12.5 -33.5t32.5 -13.5q18 0 31 13t13 32z" />
    <glyph glyph-name="cent" unicode="&#xa2;" horiz-adv-x="383" 
d="M333 585q-9 6 -14 9q-12 7 -28 7q-40 0 -61.5 -48.5t-21.5 -105.5q0 -58 21.5 -97t62.5 -35q11 0 19 4t19 14v-137q-15 -9 -27 -11.5t-21 -3.5t-14 -1v-70h-69v71q-13 0 -37 14q-43 25 -70 74q-38 70 -38 179q0 112 35 183q25 51 67 78q22 11 45 22v75h68l-1 -71h19
t16 -3q13 -2 30 -10v-137z" />
    <glyph glyph-name="sterling" unicode="&#xa3;" horiz-adv-x="594" 
d="M556 567h-135v29q0 32 -15.5 56t-45.5 24q-36 0 -59 -30t-23 -68q1 -7 1 -11q5 -39 18 -141q3 -30 5 -46h135v-83h-139q0 -23 -3.5 -39.5t-11.5 -46.5q-12 -43 -33 -82h40q26 0 90 -14q32 -7 57 -7q30 0 53 6t58 21v-126q-44 -17 -90 -24q-9 -2 -19 -2h-15q-33 0 -130 25
q-51 13 -84 13q-61 -5 -119 -22v124q31 30 47.5 69.5t16.5 77.5v16q-1 7 -1 11h-96v83h91q-8 41 -12 66q-13 79 -13 118q0 103 59 172q64 74 170 74q120 0 171 -89q33 -57 33 -134q-1 -17 -1 -20z" />
    <glyph glyph-name="section" unicode="&#xa7;" horiz-adv-x="557" 
d="M511 300q0 -53 -24.5 -91.5t-73.5 -64.5l20 -17q34 -28 47 -65t13 -86q0 -80 -61 -129q-56 -45 -138 -45q-132 0 -184 74q-32 45 -32 114q1 15 1 18h143v-27q0 -27 15.5 -46.5t43.5 -19.5q7 1 10 1q26 4 39 21.5t13 46.5q0 43 -26 73q-18 21 -65 50l-76 48q-58 37 -85 73
q-33 44 -33 103q0 45 20.5 85t62.5 68l-14 13q-27 24 -37.5 57.5t-10.5 69.5q0 83 49 134q53 55 146 55q92 0 152.5 -48.5t60.5 -127.5v-46h-142v39q0 29 -20 49t-51 20q-24 0 -41 -18t-17 -46q0 -36 32 -67q23 -22 74 -49l72 -38q57 -30 87 -75.5t30 -105.5zM373 295
q0 28 -16 49.5t-44 37.5l-74 42q-46 -26 -46 -77q0 -29 13.5 -50t37.5 -38l66 -43q63 18 63 79z" />
    <glyph glyph-name="bullet" unicode="&#x2022;" horiz-adv-x="514" 
d="M458 330q0 -83 -59.5 -142.5t-143.5 -59.5q-81 0 -138.5 59.5t-57.5 142.5t60.5 140.5t144.5 57.5q80 0 137 -59t57 -139z" />
    <glyph glyph-name="paragraph" unicode="&#xb6;" horiz-adv-x="637" 
d="M591 675h-48v-789h-124v792h-71l1 -792h-131v544q-77 12 -115 50q-46 46 -46 138q0 85 46.5 135.5t121.5 50.5h366v-129z" />
    <glyph glyph-name="germandbls" unicode="&#xdf;" horiz-adv-x="534" 
d="M489 241q0 -120 -35 -181q-39 -69 -127 -69q-14 0 -23 2t-25 7v124q16 -1 29 11q26 24 26 107q0 114 -36 134q-10 2 -19 5v128q9 -1 14 1q31 12 31 74q0 50 -4 67q-8 36 -35 36q-19 0 -28 -18t-9 -43v-626h-140v386h-50v115h50v111q0 93 38 143q47 62 152 62
q91 0 136 -67q39 -57 39 -149q0 -82 -35 -124q-37 -28 -39 -30q22 -21 45 -41q45 -62 45 -165z" />
    <glyph glyph-name="registered" unicode="&#xae;" horiz-adv-x="893" 
d="M454 8q-186 0 -295 123q-99 111 -99 271q0 161 98 272q109 123 296 123q186 0 295 -123q99 -112 99 -272t-98 -271q-109 -123 -296 -123zM454 51q166 0 264 110q88 99 88 241q0 144 -87 242q-98 110 -265 110q-166 0 -264 -110q-88 -99 -88 -242t87 -241
q98 -110 265 -110zM642 160h-49l-4 1q-10 20 -12 101t-39 101q-12 7 -24.5 9t-27.5 2h-20h-126v-214h-46v474h174q76 0 117 -22q56 -30 56 -102q0 -44 -19.5 -72.5t-58.5 -44.5q23 -14 26 -16q12 -9 19.5 -23.5t11 -32.5t3.5 -36q0 -11 -0.5 -21.5t-0.5 -21.5
q0 -16 2.5 -31.5t7.5 -32.5q0 -1 10 -18zM596 505q0 50 -38 72q-30 17 -83 17h-135l1 -179h132q55 0 84 16q39 22 39 74z" />
    <glyph glyph-name="copyright" unicode="&#xa9;" horiz-adv-x="893" 
d="M451 11q-185 0 -295 123q-99 111 -99 271q0 161 98 271q109 123 296 123q186 0 295 -123q99 -111 99 -271t-98 -271q-109 -123 -296 -123zM451 53q166 0 264 110q88 99 88 242q0 144 -87 242q-98 110 -265 110q-166 0 -264 -110q-88 -99 -88 -242t88 -242
q98 -110 264 -110zM645 325q-13 -76 -69 -121.5t-136 -45.5q-103 0 -153 76q-42 63 -42 168q0 102 52 173q58 78 157 78q69 0 120.5 -35t62.5 -98l3 -19h-47l-3 15q-10 45 -49.5 70t-87.5 25q-84 0 -126 -65q-36 -55 -36 -143q0 -87 27 -134q36 -62 124 -72q5 -1 13 -1
q49 0 90.5 38t52.5 91h47z" />
    <glyph glyph-name="trademark" unicode="&#x2122;" horiz-adv-x="786" 
d="M343 773h-124v-362h-38v362h-122v33h284v-33zM739 411h-38v349l-130 -348h-35l-125 349v-350h-39v393h60l124 -345l127 344h56v-392z" />
    <glyph glyph-name="acute" unicode="&#xb4;" horiz-adv-x="304" 
d="M265 753l-135 -148l-75 43l103 153z" />
    <glyph glyph-name="dieresis" unicode="&#xa8;" horiz-adv-x="488" 
d="M437 677q0 -32 -23 -55t-56 -23t-56 23t-23 56q0 32 24.5 55.5t58.5 23.5q31 0 53 -24t22 -56zM217 673q0 -31 -24 -53t-56 -22t-55.5 21.5t-23.5 52.5q-3 35 22 61t61 26q32 0 54 -26t22 -60z" />
    <glyph glyph-name="notequal" unicode="&#x2260;" horiz-adv-x="693" 
d="M643 130h-336l-98 -174l-54 33l78 142l-170 1v64h208l83 151h-291v65l328 -1l101 181l55 -33l-83 -148h179v-64h-213l-90 -151h303v-66z" />
    <glyph glyph-name="AE" unicode="&#xc6;" horiz-adv-x="784" 
d="M731 646h-162v-173h141v-150h-141v-178h160v-148h-313v130h-157l-53 -130h-159l335 810h349v-161zM420 256v330l-115 -330h115z" />
    <glyph glyph-name="Oslash" unicode="&#xd8;" horiz-adv-x="680" 
d="M628 410q0 -169 -64 -283q-76 -136 -218 -136q-40 0 -74 10.5t-65 31.5l-24 -45l-116 25l60 110q-34 58 -49.5 131.5t-15.5 154.5q0 167 62 278q75 134 219 134q80 0 140 -41l21 39l114 -28l-55 -101q33 -57 49 -129t16 -151zM407 641q-12 16 -25.5 24t-32.5 8
q-62 5 -92 -89q-24 -74 -24 -180l3 -79zM455 410l-3 75l-169 -312q13 -15 27.5 -23t32.5 -8q63 0 91 91q21 68 21 177z" />
    <glyph glyph-name="infinity" unicode="&#x221e;" horiz-adv-x="921" 
d="M868 285q0 -78 -50 -127t-117 -49q-45 0 -93.5 20t-90.5 60l-52 48l-52 -48q-41 -38 -91 -59t-94 -21q-66 0 -114 47q-51 50 -51 129q0 67 49.5 114.5t119.5 47.5q42 0 84.5 -19.5t83.5 -56.5l65 -59l65 59q43 37 84.5 56.5t83.5 19.5q69 0 119.5 -47.5t50.5 -114.5z
M809 281q0 44 -34 74t-81 30q-40 0 -74 -20q-9 -5 -41 -29l-78 -59l73 -67q27 -25 54 -35t65 -10q53 0 84.5 33.5t31.5 82.5zM429 277l-78 59q-34 25 -54 35q-29 14 -61 14q-48 0 -81.5 -29.5t-33.5 -74.5q0 -49 31.5 -82.5t84.5 -33.5q38 0 65 10t55 35z" />
    <glyph glyph-name="plusminus" unicode="&#xb1;" horiz-adv-x="553" 
d="M501 323h-194v-193h-50v193h-192v55h192v193h52v-193h192v-55zM496 -1h-439v41h439v-41z" />
    <glyph glyph-name="lessequal" unicode="&#x2264;" horiz-adv-x="528" 
d="M490 113l-442 207v47l441 201v-59l-368 -165l369 -173v-58zM489 -1h-441v50h441v-50z" />
    <glyph glyph-name="greaterequal" unicode="&#x2265;" horiz-adv-x="530" 
d="M488 321l-442 -207v57l369 173l-368 165v60l441 -201v-47zM488 0h-441v50h441v-50z" />
    <glyph glyph-name="yen" unicode="&#xa5;" horiz-adv-x="604" 
d="M569 805l-148 -333h129v-119h-167v-70h164v-118h-164l1 -165h-156v165h-158v118h158v70h-156v119h116l-152 333h171l101 -258l88 258h173z" />
    <glyph glyph-name="mu" unicode="&#xb5;" horiz-adv-x="674" 
d="M633 108l-7 -34q-9 -43 -52.5 -71t-78.5 -23q-36 6 -65 36t-29 70l-28 -27q-33 -33 -71 -54.5t-66 -21.5q-29 0 -62 15q-39 18 -62 48v-38q0 -30 12 -64q26 -75 26 -112q0 -28 -14.5 -49t-39.5 -21q-23 0 -37.5 19t-14.5 44q0 35 8 61q23 77 24 83l3 31v540h91v-372
q0 -46 28 -81t70 -35q43 0 87 34q48 37 48 80v374h89v-421q0 -36 18 -65t48 -23q37 7 47 48l8 29h20z" />
    <glyph glyph-name="partialdiff" unicode="&#x2202;" horiz-adv-x="595" 
d="M544 427q0 -165 -68 -298q-77 -150 -196 -150q-12 0 -18 1q-98 10 -151.5 68.5t-53.5 147.5q0 97 63 169t155 72q41 0 73 -13q25 -10 66 -39l33 -23l9 55q3 22 4 33t1 34q0 111 -46 189q-52 88 -143 88q-29 0 -64 -12.5t-43 -14.5l-20 -6l-42 51l47 14q30 8 52.5 12
t50.5 4q133 0 216 -121q75 -110 75 -261zM439 321l-30 28q-32 31 -72 40q-14 3 -26 3q-53 0 -96 -47q-38 -41 -56 -106q-10 -38 -10 -72q0 -56 23.5 -98t72.5 -57q10 -3 15 -4t15 -1q58 0 99 77q31 58 49 152z" />
    <glyph glyph-name="summation" unicode="&#x3a3;" horiz-adv-x="859" 
d="M810 135q-10 -29 -18.5 -62t-13.5 -60t-9 -55t-4 -67l-78 16h-630l391 429l-384 478l71 -7h597l1 -175h-23q0 59 -41 96q-21 19 -46 24.5t-62 5.5h-321l309 -374l-331 -372h442q37 0 73 27q25 19 38.5 42t13.5 54h25z" />
    <glyph glyph-name="product" unicode="&#x220f;" horiz-adv-x="969" 
d="M921 -97h-343v21l28 1q26 0 37.5 3t23 14.5t15 24t3.5 30.5v21v725h-402v-718q0 -32 5 -50.5t24 -33.5q14 -10 27 -12.5t36 -2.5h22v-23h-343v25h27q26 0 36 1.5t25.5 13.5t19.5 31.5t4 51.5v653q0 48 -35 79q-13 11 -25.5 17t-27.5 7l-19 1v23h862v-24l-24 -1
q-15 0 -25.5 -5t-26.5 -17q-21 -18 -28 -39.5t-7 -56.5v-646q0 -29 4 -44.5t18 -29t28.5 -17.5t35.5 -4l25 -1v-18z" />
    <glyph glyph-name="pi" unicode="&#x3c0;" horiz-adv-x="672" 
d="M630 169l-3 -24q-7 -63 -45.5 -106.5t-96.5 -43.5q-51 0 -76 52q-20 42 -20 112q0 25 3 49l25 237h-129l-44 -350q-5 -41 -23 -71q-22 -36 -51 -36q-4 0 -16.5 3t-20.5 8q-19 10 -22 23t-3 24q0 21 16 39q50 58 52 62q3 9 10 25.5t9 29.5l25 239h-36h-14q-7 0 -16 -0.5
t-25 -7t-32.5 -26t-19.5 -31.5l-19 8l7 15q28 63 32 70q19 32 54 50q18 9 35 13t37 4h401v-91h-146l-15 -264q0 -37 20 -65.5t52 -28.5q27 0 45 17.5t24 46.5l5 18h21z" />
    <glyph glyph-name="integral" unicode="&#x222b;" horiz-adv-x="378" 
d="M335 856q-2 -18 -15 -29t-32 -11q-10 0 -21 8q-16 12 -20 14q-14 6 -20 -8t-6 -45q0 -34 4 -77q11 -119 11 -140v-340q0 -130 -16 -207q-27 -131 -97 -131q-11 0 -25 4t-26.5 17.5t-12.5 30.5t12 30t29 13q15 0 26 -14.5t19 -16.5q18 -5 24.5 20.5t6.5 74.5q0 33 -1 65.5
t-2 64.5v472q0 140 30 203q25 53 71 53q25 0 44.5 -14.5t16.5 -36.5z" />
    <glyph glyph-name="ordfeminine" unicode="&#xaa;" horiz-adv-x="422" 
d="M356 408h-114v36q-16 -22 -29 -32q-18 -14 -40 -14q-55 0 -83 70q-23 57 -23 139q0 80 20 130q26 66 81 66q28 0 46 -14q13 -10 30 -36v45h112v-390zM340 232h-238v103h238v-103zM253 609q0 50 -10.5 73t-27.5 25q-21 0 -30 -32.5t-9 -72.5q0 -55 11 -79.5t28 -24.5
q19 0 28.5 35.5t9.5 75.5z" />
    <glyph glyph-name="ordmasculine" unicode="&#xba;" horiz-adv-x="428" 
d="M367 604q0 -87 -30 -139q-38 -66 -117 -66t-118 64q-32 53 -32 138q0 86 31 139q39 66 118 66q81 0 118 -64q30 -51 30 -138zM334 232h-238v103h238v-103zM257 608q0 40 -5 61q-8 32 -30 37q-29 6 -38 -52q-4 -25 -4 -56q0 -42 7.5 -69.5t32.5 -31.5q19 -3 28 33t9 78z
" />
    <glyph glyph-name="Omega" unicode="&#x3a9;" horiz-adv-x="884" 
d="M832 -2h-323l16 160q78 35 115 101t37 157q0 112 -42 168q-54 72 -187 72q-124 0 -183 -71q-51 -61 -51 -169q0 -91 37.5 -157t115.5 -101l16 -160h-323v168h21q0 -22 10 -38q19 -27 57 -27h177v32q-105 19 -170.5 98t-65.5 187q0 128 99.5 199.5t258.5 71.5
q165 0 260 -71t95 -200q0 -109 -64.5 -187.5t-171.5 -97.5v-32h177q19 0 33.5 6t24.5 21.5t10 37.5h21v-168z" />
    <glyph glyph-name="ae" unicode="&#xe6;" horiz-adv-x="767" 
d="M704 310q0 -24 -2 -50t-3 -32h-238v-24q0 -42 13.5 -72.5t43.5 -30.5q23 0 38.5 19.5t15.5 44.5h120q0 -75 -41 -125q-45 -55 -123 -55q-51 0 -84 15h-142v50q-23 -32 -40 -45q-25 -19 -56 -19q-74 0 -113 97q-32 79 -32 190q0 109 28 179q36 91 111 91q39 0 64 -19
q16 -12 41 -48v61h153q29 9 64 9q85 0 136 -74q46 -67 46 -162zM571 323q1 1 1 15q0 32 -10 56q-15 35 -46 35q-29 0 -44 -37q-11 -27 -11 -58q0 -10 1 -11h109zM320 265q0 63 -10 101q-13 47 -38 47q-33 0 -45.5 -43t-12.5 -100q0 -60 10 -97q14 -52 44 -52q22 0 37 45.5
t15 98.5z" />
    <glyph glyph-name="oslash" unicode="&#xf8;" horiz-adv-x="514" 
d="M464 279q0 -117 -43 -192q-53 -91 -160 -91q-51 0 -88 19q-30 21 -31 22l-28 -47l-56 36l39 62q-15 26 -28 79.5t-13 105.5q0 117 44 192q53 90 161 90q40 0 70 -12q14 -6 41 -23l28 45l55 -34l-39 -62q16 -27 30 -74q18 -62 18 -116zM311 282q0 56 -7 84q-11 44 -41 51
q-26 6 -40 -25q-17 -37 -17 -123q0 -60 7 -87q12 -46 47 -51q26 -5 40 49q11 43 11 102z" />
    <glyph glyph-name="questiondown" unicode="&#xbf;" horiz-adv-x="536" 
d="M271 360q-47 0 -73.5 29.5t-26.5 70.5q0 42 25.5 71t74.5 29q48 0 76 -31q25 -27 25 -69q0 -41 -26.5 -70.5t-74.5 -29.5zM486 -31q1 -8 1 -13q0 -76 -28 -129q-49 -93 -168 -93q-104 0 -166.5 66.5t-62.5 164.5q0 130 62 190q65 37 67 38v106h161l-1 -202q-17 6 -29 6
q-9 0 -23 -3q-36 -8 -51.5 -43t-15.5 -83q0 -42 12.5 -71.5t42.5 -29.5q25 0 39 31q11 25 11 52q0 10 -2 14z" />
    <glyph glyph-name="exclamdown" unicode="&#xa1;" horiz-adv-x="315" 
d="M263 445q0 -41 -32 -71t-74 -30t-70 30t-28 72t30 70t72 28t72 -29t30 -70zM240 -266h-153v561h153v-561z" />
    <glyph glyph-name="logicalnot" unicode="&#xac;" horiz-adv-x="897" 
d="M844 0h-65v275h-724v61h789v-336z" />
    <glyph glyph-name="radical" unicode="&#x221a;" horiz-adv-x="618" 
d="M569 880l-151 -932l-249 492l-94 -48l-16 33l146 69l200 -393l130 784z" />
    <glyph glyph-name="florin" unicode="&#x192;" horiz-adv-x="580" 
d="M533 863q-16 -40 -57 -40q-10 0 -19 8q-16 14 -17 15q-6 3 -10 3q-25 0 -38 -121q-9 -85 -16 -111l-5 -22h108l-5 -45h-115l-66 -330q-25 -124 -60 -206q-56 -132 -129 -132q-13 0 -25.5 4t-22 15.5t-9.5 25.5q0 4 2 10q6 19 19 29.5t32 10.5q15 0 23 -14.5t15 -16.5
q23 -7 41 40q7 19 40 185l76 380h-120l3 45h133l7 29q25 120 59 192q46 97 106 97q19 0 35.5 -12.5t16.5 -29.5q0 -3 -2 -9z" />
    <glyph glyph-name="approxequal" unicode="&#x2248;" horiz-adv-x="763" 
d="M711 422l-23 -27q-32 -37 -66.5 -53.5t-81.5 -16.5q-32 0 -61.5 9.5t-59.5 19.5l-98 27q-20 5 -41.5 11t-37.5 6q-10 0 -24 -3q-50 -11 -86 -50l-20 -21l-51 33l16 18q32 33 63.5 50t75.5 24q21 3 38 3q21 0 41.5 -4.5t50.5 -13.5l86 -26q26 -8 53.5 -16t52.5 -8
q35 3 59 12.5t46 32.5l21 23zM711 232l-23 -27q-32 -37 -66.5 -53.5t-81.5 -16.5q-30 0 -60.5 9t-60.5 19l-98 27q-21 6 -41 11.5t-38 5.5q-15 0 -24 -2q-50 -11 -86 -50l-20 -21l-51 33l16 18q32 33 63 49.5t76 24.5q20 3 36 3q21 0 45 -5q9 -2 49 -13l86 -26
q26 -8 53.5 -16t52.5 -8q35 3 59 12.5t46 32.5l21 22z" />
    <glyph glyph-name="Delta" unicode="&#x2206;" horiz-adv-x="818" 
d="M774 0h-718l383 804zM632 52l-237 561l-264 -561h501z" />
    <glyph glyph-name="guillemotleft" unicode="&#xab;" horiz-adv-x="624" 
d="M577 426l-164 -117l160 -113v-118l-226 176v114l230 170v-112zM288 426l-163 -117l160 -113v-118l-227 176v114l230 170v-112z" />
    <glyph glyph-name="guillemotright" unicode="&#xbb;" horiz-adv-x="620" 
d="M575 254l-227 -176v118l160 113l-163 117v112l230 -170v-114zM286 254l-226 -176v118l160 113l-164 117v112l230 -170v-114z" />
    <glyph glyph-name="ellipsis" unicode="&#x2026;" horiz-adv-x="946" 
d="M892 94q0 -41 -30 -70t-72 -29q-41 0 -71.5 28.5t-30.5 69.5q0 42 28 72t70 30q43 0 74.5 -29.5t31.5 -71.5zM579 91q0 -42 -30 -70t-72 -28t-72 28t-30 69q0 42 28 72t69 30q44 0 75.5 -29.5t31.5 -71.5zM260 91q0 -42 -30 -70t-72 -28t-72 28t-30 69q0 42 28 72t69 30
q44 0 75.5 -29.5t31.5 -71.5z" />
    <glyph glyph-name="nonbreakingspace" unicode="&#xa0;" horiz-adv-x="430" 
 />
    <glyph glyph-name="Agrave" unicode="&#xc0;" horiz-adv-x="601" 
d="M568 0h-166l-32 135h-157l-29 -135h-159l189 805h168zM349 264l-58 330l-54 -330h112zM398 903l-73 -44l-128 146l102 51z" />
    <glyph glyph-name="Atilde" unicode="&#xc3;" horiz-adv-x="594" 
d="M596 0h-166l-32 135h-157l-29 -135h-159l189 805h168zM377 264l-58 330l-54 -330h112zM517 969q-8 -30 -46 -69q-31 -31 -62 -31q-28 0 -63 15q-93 40 -96 41q-19 4 -43 -29q-12 -16 -23 -39l-47 61q8 29 38 64q37 43 74 43q27 0 69.5 -19t85.5 -39q22 0 44 29
q10 13 21 35z" />
    <glyph glyph-name="Otilde" unicode="&#xd5;" horiz-adv-x="670" 
d="M618 410q0 -169 -64 -283q-76 -136 -218 -136q-146 0 -221 135q-63 113 -63 283q0 167 62 278q75 134 219 134q147 0 222 -132q63 -111 63 -279zM445 410q0 145 -26.5 204t-71.5 59q-67 0 -99 -92q-25 -72 -25 -177q0 -107 20 -172q27 -90 90 -90t91 91q21 68 21 177z
M543 971q-8 -30 -46 -69q-31 -31 -62 -31q-28 0 -63 15q-93 40 -96 41q-19 4 -43 -29q-12 -16 -23 -39l-47 61q8 29 38 64q37 43 74 43q27 0 69.5 -19t85.5 -39q22 0 44 29q10 13 21 35z" />
    <glyph glyph-name="OE" unicode="&#x152;" horiz-adv-x="835" 
d="M771 653h-162v-173h141v-150h-141v-178h160v-152h-288q-28 -5 -55.5 -7t-64.5 -2q-144 0 -220 135q-64 114 -64 283q0 167 62 278q75 134 219 134q52 0 92 -8q13 -2 31 -9h290v-151zM470 410q0 145 -26.5 204t-71.5 59q-67 0 -99 -92q-25 -72 -25 -177q0 -107 20 -172
q27 -90 90 -90t91 91q21 68 21 177z" />
    <glyph glyph-name="oe" unicode="&#x153;" horiz-adv-x="770" 
d="M706 315q0 -24 -2 -50t-3 -32h-234l-4 -34q0 -38 14.5 -65.5t42.5 -27.5q23 0 38.5 19.5t15.5 44.5h120q0 -75 -41 -125q-45 -55 -123 -55q-85 0 -137 52q-24 -24 -55.5 -37.5t-72.5 -13.5q-110 0 -163 89q-44 73 -44 190q0 118 44 192q54 90 162 90q43 0 75.5 -13.5
t57.5 -39.5q24 25 56 38.5t71 13.5q85 0 136 -74q46 -67 46 -162zM573 328q1 1 1 15q0 32 -10 56q-15 35 -46 35q-26 0 -39.5 -35.5t-13.5 -70.5h108zM316 279q0 59 -6 84q-11 44 -42 51q-33 7 -45.5 -39.5t-12.5 -108.5q0 -58 8 -87q13 -46 47 -51q26 -4 40 50
q11 43 11 101z" />
    <glyph glyph-name="endash" unicode="&#x2013;" horiz-adv-x="510" 
d="M460 265h-402v141h402v-141z" />
    <glyph glyph-name="emdash" unicode="&#x2014;" horiz-adv-x="905" 
d="M859 264h-805v141l805 1v-142z" />
    <glyph glyph-name="quotedblleft" unicode="&#x201c;" horiz-adv-x="572" 
d="M522 804l-104 -325h-160l156 325h108zM322 804l-104 -325h-160l156 325h108z" />
    <glyph glyph-name="quotedblright" unicode="&#x201d;" horiz-adv-x="565" 
d="M522 804l-157 -325h-107l104 325h160zM322 804l-157 -325h-107l104 325h160z" />
    <glyph glyph-name="quoteleft" unicode="&#x2018;" horiz-adv-x="376" 
d="M322 804l-104 -325h-160l156 325h108z" />
    <glyph glyph-name="quoteright" unicode="&#x2019;" horiz-adv-x="376" 
d="M329 804l-156 -325h-108l104 325h160z" />
    <glyph glyph-name="divide" unicode="&#xf7;" horiz-adv-x="778" 
d="M458 440q0 -30 -21 -51t-52 -21q-29 0 -49.5 21.5t-20.5 52.5q0 28 21 49t50 21q30 0 51 -21t21 -51zM725 231h-667v72h667v-72zM457 93q0 -30 -21.5 -51.5t-51.5 -21.5t-50 22t-20 52t21 50t50 20q30 0 51 -21t21 -50z" />
    <glyph glyph-name="lozenge" unicode="&#x25ca;" horiz-adv-x="612" 
d="M560 408l-211 -409h-69l-215 415l215 395h69zM496 408l-183 341l-182 -338l185 -361z" />
    <glyph glyph-name="ydieresis" unicode="&#xff;" horiz-adv-x="510" 
d="M473 504l-231 -801h-152l87 276l-151 525h148l77 -306l69 306h153zM457 679q0 -32 -23 -55t-56 -23t-56 23t-23 56q0 32 24.5 55.5t58.5 23.5q31 0 53 -24t22 -56zM237 675q0 -31 -24 -53t-56 -22t-55.5 21.5t-23.5 52.5q-3 35 22 61t61 26q32 0 54 -26t22 -60z" />
    <glyph glyph-name="Ydieresis" unicode="&#x178;" horiz-adv-x="612" 
d="M569 805l-186 -419l1 -386h-156v385l-192 420h171l101 -258l88 258h173zM497 935q0 -32 -23 -55t-56 -23t-56 23t-23 56q0 32 24.5 55.5t58.5 23.5q31 0 53 -24t22 -56zM277 931q0 -31 -24 -53t-56 -22t-55.5 21.5t-23.5 52.5q-3 35 22 61t61 26q32 0 54 -26t22 -60z" />
    <glyph glyph-name="periodcentered" unicode="&#xb7;" horiz-adv-x="315" 
d="M263 403q0 -42 -30 -70t-72 -28t-72 28t-30 69q0 42 28 72t69 30q44 0 75.5 -29.5t31.5 -71.5z" />
    <glyph glyph-name="periodcentered" unicode="&#x2219;" horiz-adv-x="315" 
d="M263 403q0 -42 -30 -70t-72 -28t-72 28t-30 69q0 42 28 72t69 30q44 0 75.5 -29.5t31.5 -71.5z" />
    <glyph glyph-name="quotesinglbase" unicode="&#x201a;" horiz-adv-x="376" 
d="M329 129l-156 -325h-108l104 325h160z" />
    <glyph glyph-name="quotedblbase" unicode="&#x201e;" horiz-adv-x="565" 
d="M522 129l-157 -325h-107l104 325h160zM322 129l-157 -325h-107l104 325h160z" />
    <glyph glyph-name="Acircumflex" unicode="&#xc2;" horiz-adv-x="594" 
d="M568 0h-166l-32 135h-157l-29 -135h-159l189 805h168zM349 264l-58 330l-54 -330h112zM457 923l-66 -66l-89 75l-91 -73l-59 73l152 122z" />
    <glyph glyph-name="Ecircumflex" unicode="&#xca;" horiz-adv-x="468" 
d="M396 653h-162v-173h141v-152h-141v-176h160v-152h-318v805h320v-152zM385 923l-66 -66l-89 75l-91 -73l-59 73l152 122z" />
    <glyph glyph-name="Aacute" unicode="&#xc1;" horiz-adv-x="600" 
d="M568 0h-166l-32 135h-157l-29 -135h-159l189 805h168zM349 264l-58 330l-54 -330h112zM403 1005l-135 -148l-75 43l103 153z" />
    <glyph glyph-name="Edieresis" unicode="&#xcb;" horiz-adv-x="474" 
d="M396 653h-162v-173h141v-152h-141v-176h160v-152h-318v805h320v-152zM425 935q0 -32 -23 -55t-56 -23t-56 23t-23 56q0 32 24.5 55.5t58.5 23.5q31 0 53 -24t22 -56zM205 931q0 -31 -24 -53t-56 -22t-55.5 21.5t-23.5 52.5q-3 35 22 61t61 26q32 0 54 -26t22 -60z" />
    <glyph glyph-name="Egrave" unicode="&#xc8;" horiz-adv-x="474" 
d="M396 653h-162v-173h141v-152h-141v-176h160v-152h-318v805h320v-152zM332 903l-73 -44l-128 146l102 51z" />
    <glyph glyph-name="Iacute" unicode="&#xcd;" horiz-adv-x="318" 
d="M239 0h-162v805h162v-805zM259 1005l-135 -148l-75 43l103 153z" />
    <glyph glyph-name="Icircumflex" unicode="&#xce;" horiz-adv-x="318" 
d="M239 0h-162v805h162v-805zM319 923l-66 -66l-89 75l-91 -73l-59 73l152 122z" />
    <glyph glyph-name="Idieresis" unicode="&#xcf;" horiz-adv-x="330" 
d="M239 0h-162v805h162v-805zM353 935q0 -32 -23 -55t-56 -23t-56 23t-23 56q0 32 24.5 55.5t58.5 23.5q31 0 53 -24t22 -56zM133 931q0 -31 -24 -53t-56 -22t-55.5 21.5t-23.5 52.5q-3 35 22 61t61 26q32 0 54 -26t22 -60z" />
    <glyph glyph-name="Igrave" unicode="&#xcc;" horiz-adv-x="312" 
d="M239 0h-162v805h162v-805zM260 903l-73 -44l-128 146l102 51z" />
    <glyph glyph-name="Oacute" unicode="&#xd3;" horiz-adv-x="684" 
d="M628 410q0 -169 -64 -283q-76 -136 -218 -136q-146 0 -221 135q-63 113 -63 283q0 167 62 278q75 134 219 134q147 0 222 -132q63 -111 63 -279zM455 410q0 145 -26.5 204t-71.5 59q-67 0 -99 -92q-25 -72 -25 -177q0 -107 20 -172q27 -90 90 -90t91 91q21 68 21 177z
M451 1005l-135 -148l-75 43l103 153z" />
    <glyph glyph-name="Ocircumflex" unicode="&#xd4;" horiz-adv-x="684" 
d="M628 410q0 -169 -64 -283q-76 -136 -218 -136q-146 0 -221 135q-63 113 -63 283q0 167 62 278q75 134 219 134q147 0 222 -132q63 -111 63 -279zM455 410q0 145 -26.5 204t-71.5 59q-67 0 -99 -92q-25 -72 -25 -177q0 -107 20 -172q27 -90 90 -90t91 91q21 68 21 177z
M511 923l-66 -66l-89 75l-91 -73l-59 73l152 122z" />
    <glyph glyph-name="Ograve" unicode="&#xd2;" horiz-adv-x="684" 
d="M628 410q0 -169 -64 -283q-76 -136 -218 -136q-146 0 -221 135q-63 113 -63 283q0 167 62 278q75 134 219 134q147 0 222 -132q63 -111 63 -279zM455 410q0 145 -26.5 204t-71.5 59q-67 0 -99 -92q-25 -72 -25 -177q0 -107 20 -172q27 -90 90 -90t91 91q21 68 21 177z
M452 903l-73 -44l-128 146l102 51z" />
    <glyph glyph-name="Uacute" unicode="&#xda;" horiz-adv-x="582" 
d="M529 212q0 -104 -49 -158q-59 -65 -187 -65q-116 0 -175.5 55.5t-59.5 151.5v609h156v-588q0 -35 23.5 -59.5t57.5 -24.5q43 0 61 26q14 21 14 61v585h159v-593zM403 1005l-135 -148l-75 43l103 153z" />
    <glyph glyph-name="Ucircumflex" unicode="&#xdb;" horiz-adv-x="582" 
d="M529 212q0 -104 -49 -158q-59 -65 -187 -65q-116 0 -175.5 55.5t-59.5 151.5v609h156v-588q0 -35 23.5 -59.5t57.5 -24.5q43 0 61 26q14 21 14 61v585h159v-593zM451 923l-66 -66l-89 75l-91 -73l-59 73l152 122z" />
    <glyph glyph-name="Ugrave" unicode="&#xd9;" horiz-adv-x="582" 
d="M529 212q0 -104 -49 -158q-59 -65 -187 -65q-116 0 -175.5 55.5t-59.5 151.5v609h156v-588q0 -35 23.5 -59.5t57.5 -24.5q43 0 61 26q14 21 14 61v585h159v-593zM398 903l-73 -44l-128 146l102 51z" />
    </font>
</defs>
</svg>
