<?xml version="1.0" standalone="no"?>
<!DOCTYPE svg PUBLIC "-//W3C//DTD SVG 1.1//EN" "http://www.w3.org/Graphics/SVG/1.1/DTD/svg11.dtd" >
<svg xmlns="http://www.w3.org/2000/svg" xmlns:xlink="http://www.w3.org/1999/xlink" version="1.1">
<metadata>
Created by FontForge 20160407 at Fri Sep 16 15:28:24 2016
 By Jimmy Wärting
Copyright (c) HOUSE GOTHIC (C) House Industries/Brand Design Co. Inc, 2001. All rights reserved.
</metadata>
<defs>
<font id="HouseGothicHG23Text-Light" horiz-adv-x="297" >
  <font-face 
    font-family="HouseGothicHG23Text"
    font-weight="300"
    font-stretch="normal"
    units-per-em="1000"
    panose-1="0 0 0 0 0 0 0 0 0 0"
    ascent="800"
    descent="-200"
    x-height="482"
    cap-height="667"
    bbox="-71 -213 1097 870"
    underline-thickness="20"
    underline-position="-133"
    stemh="63"
    stemv="75"
    unicode-range="U+000D-FB04"
  />
<missing-glyph horiz-adv-x="500" 
 />
    <glyph glyph-name="onequarter" unicode="&#x31;&#x2044;&#x34;" horiz-adv-x="738" 
d="M106 300v319h-71v48h135v-367h-64zM482 667l-293 -667h-54l291 667h56zM686 79h-43v-79h-64v79h-234v47l199 241h99v-236h43v-52zM579 131v189l-158 -189h158z" />
    <glyph glyph-name="onehalf" unicode="&#x31;&#x2044;&#x32;" horiz-adv-x="787" 
d="M106 300v319h-71v48h135v-367h-64zM482 667l-293 -667h-54l291 667h56zM722 0h-304v72c0 41 23 63 66 82l139 62c25 11 35 23 35 46c0 44 -19 59 -88 59s-88 -19 -88 -59v-15h-64v25c0 56 32 99 152 99s152 -43 152 -99v-19c0 -49 -27 -70 -73 -90l-137 -59
c-20 -9 -30 -20 -30 -46v-6h240v-52z" />
    <glyph glyph-name="threequarters" unicode="&#x33;&#x2044;&#x34;" horiz-adv-x="888" 
d="M364 398c0 -56 -28 -102 -150 -102s-154 43 -154 99v20h64v-14c0 -39 27 -55 90 -55c71 0 86 21 86 54c0 41 -11 66 -77 66h-82v48h82c66 0 77 34 77 57c0 25 -12 50 -86 50c-71 0 -90 -19 -90 -59v-13h-64v23c0 56 32 99 154 99s150 -47 150 -99v-2
c0 -40 -17 -67 -59 -80c44 -14 59 -43 59 -83v-9zM633 667l-293 -667h-54l291 667h56zM836 79h-43v-79h-64v79h-234v47l199 241h99v-236h43v-52zM729 131v189l-158 -189h158z" />
    <glyph glyph-name="fi" unicode="fi" horiz-adv-x="626" 
d="M550 549h-75v75h75v-75zM475 422h-305v-422h-75v422h-64v60h64v59c0 100 74 133 161 133c38 0 86 -8 112 -16v-58c-29 7 -64 14 -103 14c-57 0 -95 -21 -95 -77v-55h380v-482h-75v422z" />
    <glyph glyph-name="fl" unicode="fl" horiz-adv-x="627" 
d="M95 541c0 100 74 133 161 133c38 0 86 -8 112 -16v-58c-29 7 -64 14 -103 14c-57 0 -95 -21 -95 -77v-55h197v-60h-197v-422h-75v422h-64v60h64v59zM551 0h-76v667h76v-667z" />
    <glyph glyph-name="ff" unicode="ff" horiz-adv-x="779" 
d="M170 422v-422h-75v422h-64v60h64v59c0 100 74 133 161 133c38 0 86 -8 112 -16v-58c-29 7 -64 14 -103 14c-57 0 -95 -21 -95 -77v-55h305v59c0 100 74 133 161 133c38 0 86 -8 112 -16v-58c-29 7 -64 14 -103 14c-57 0 -95 -21 -95 -77v-55h197v-60h-197v-422h-75v422
h-305z" />
    <glyph glyph-name="ffi" unicode="ffi" horiz-adv-x="1025" 
d="M930 549h-75v75h75v-75zM475 422h-305v-422h-75v422h-64v60h64v59c0 100 74 133 161 133c38 0 86 -8 112 -16v-58c-29 7 -64 14 -103 14c-57 0 -95 -21 -95 -77v-55h305v59c0 100 74 133 161 133c38 0 86 -8 112 -16v-58c-29 7 -64 14 -103 14c-57 0 -95 -21 -95 -77v-55
h380v-482h-75v422h-305v-422h-75v422z" />
    <glyph glyph-name="ffl" unicode="ffl" horiz-adv-x="1007" 
d="M170 422v-422h-75v422h-64v60h64v59c0 100 74 133 161 133c38 0 86 -8 112 -16v-58c-29 7 -64 14 -103 14c-57 0 -95 -21 -95 -77v-55h305v59c0 100 74 133 161 133c38 0 86 -8 112 -16v-58c-29 7 -64 14 -103 14c-57 0 -95 -21 -95 -77v-55h197v-60h-197v-422h-75v422
h-305zM931 0h-76v667h76v-667z" />
    <glyph glyph-name=".notdef" horiz-adv-x="500" 
 />
    <glyph glyph-name=".notdef" horiz-adv-x="500" 
 />
    <glyph glyph-name="CR" unicode="&#xd;" horiz-adv-x="270" 
 />
    <glyph glyph-name="space" unicode=" " horiz-adv-x="270" 
 />
    <glyph glyph-name="exclam" unicode="!" horiz-adv-x="270" 
d="M178 667l-10 -519h-66l-10 519h86zM180 0h-90v97h90v-97z" />
    <glyph glyph-name="quotedbl" unicode="&#x22;" horiz-adv-x="280" 
d="M234 445h-64v222h64v-222zM110 445h-64v222h64v-222z" />
    <glyph glyph-name="numbersign" unicode="#" horiz-adv-x="597" 
d="M546 447l-8 -59h-99l-18 -127h99l-8 -59h-99l-18 -127h-64l18 127h-135l-18 -127h-64l18 127h-99l8 59h99l18 127h-99l8 59h99l18 128h64l-18 -128h135l18 128h64l-18 -128h99zM375 388h-135l-18 -127h135z" />
    <glyph glyph-name="dollar" unicode="$" horiz-adv-x="554" 
d="M245 579v88h64v-88c143 -6 175 -57 175 -130v-15h-78v10c0 54 -17 78 -129 78s-130 -24 -130 -78c0 -36 10 -52 51 -59l170 -28c68 -11 116 -43 116 -109v-31c0 -75 -32 -124 -175 -130v-87h-64v87c-143 5 -175 51 -175 138v30h77v-24c0 -66 18 -86 130 -86
s129 23 129 80c0 39 -21 59 -66 67l-167 28c-59 10 -103 44 -103 107v22c0 73 32 124 175 130z" />
    <glyph glyph-name="percent" unicode="%" horiz-adv-x="794" 
d="M323 428c0 -52 -21 -88 -135 -88s-135 36 -135 88v158c0 53 21 88 135 88s135 -35 135 -88v-158zM578 667l-303 -667h-59l303 667h59zM741 82c0 -53 -21 -88 -135 -88s-135 35 -135 88v158c0 52 21 88 135 88s135 -36 135 -88v-158zM262 445v124c0 40 -5 61 -74 61
s-74 -21 -74 -61v-124c0 -40 5 -61 74 -61s74 21 74 61zM680 99v124c0 40 -4 61 -74 61c-69 0 -74 -21 -74 -61v-124c0 -40 5 -61 74 -61c70 0 74 21 74 61z" />
    <glyph glyph-name="ampersand" unicode="&#x26;" horiz-adv-x="705" 
d="M505 143v223h154v-63h-75v-130c0 -108 -26 -180 -258 -180c-233 0 -258 72 -258 180v41c0 88 42 124 82 140c-36 44 -52 98 -52 141c0 104 44 180 225 180s225 -76 225 -180v-11h-80v11c0 75 -27 117 -145 117s-145 -42 -145 -117c0 -43 22 -91 60 -124zM485 83l-292 233
c-30 -21 -45 -46 -45 -106v-28c0 -85 11 -126 178 -126c92 0 137 10 159 27z" />
    <glyph glyph-name="quotesingle" unicode="'" horiz-adv-x="156" 
d="M110 445h-64v222h64v-222z" />
    <glyph glyph-name="parenleft" unicode="(" horiz-adv-x="319" 
d="M258 -88h-62c-54 96 -115 266 -115 422c0 155 60 324 115 421h61c-37 -107 -91 -272 -91 -421c0 -150 54 -315 92 -422z" />
    <glyph glyph-name="parenright" unicode=")" horiz-adv-x="319" 
d="M61 -88c38 107 92 272 92 422c0 149 -54 314 -91 421h61c55 -97 115 -266 115 -421c0 -156 -61 -326 -115 -422h-62z" />
    <glyph glyph-name="asterisk" unicode="*" horiz-adv-x="336" 
d="M207 509l70 -87l-48 -35s-61 95 -61 94l-61 -94l-49 35s71 88 71 87l-108 29l18 58l105 -41l-6 112h60l-7 -113c0 1 106 41 106 41l18 -57z" />
    <glyph glyph-name="plus" unicode="+" horiz-adv-x="413" 
d="M362 264h-122v-122h-67v122h-122v67h122v122h67v-122h122v-67z" />
    <glyph glyph-name="comma" unicode="," horiz-adv-x="192" 
d="M87 0h-36v97h90v-133c0 -37 -28 -58 -64 -58h-26v31h11c18 0 25 8 25 24v39z" />
    <glyph glyph-name="hyphen" unicode="-" horiz-adv-x="402" 
d="M351 262h-300v71h300v-71z" />
    <glyph glyph-name="hyphen" unicode="&#xad;" horiz-adv-x="402" 
d="M351 262h-300v71h300v-71z" />
    <glyph glyph-name="period" unicode="." horiz-adv-x="192" 
d="M141 0h-90v97h90v-97z" />
    <glyph glyph-name="slash" unicode="/" horiz-adv-x="315" 
d="M299 717l-209 -767h-74l208 767h75z" />
    <glyph glyph-name="zero" unicode="0" horiz-adv-x="673" 
d="M597 173c0 -108 -27 -180 -261 -180c-233 0 -260 72 -260 180v322c0 107 27 180 260 180c234 0 261 -73 261 -180v-322zM517 182v304c0 82 -14 126 -181 126c-166 0 -180 -44 -180 -126v-304c0 -82 14 -126 180 -126c167 0 181 44 181 126z" />
    <glyph glyph-name="one" unicode="1" horiz-adv-x="378" 
d="M194 0v599h-130v68h210v-667h-80z" />
    <glyph glyph-name="two" unicode="2" horiz-adv-x="644" 
d="M580 0h-516v135c0 75 35 115 108 146l265 113c45 19 63 43 63 83v9c0 82 -11 126 -178 126s-178 -44 -178 -126v-15h-80v24c0 107 25 180 258 180s258 -73 258 -180v-7c0 -84 -31 -125 -110 -160l-264 -113c-34 -14 -62 -34 -62 -79v-68h436v-68z" />
    <glyph glyph-name="three" unicode="3" horiz-adv-x="648" 
d="M580 173c0 -108 -25 -180 -258 -180s-258 72 -258 180v36h80v-25c0 -82 11 -128 178 -128s178 43 178 126c0 82 -11 131 -178 131h-131v63h131c167 0 173 35 173 117c0 83 -6 119 -173 119s-178 -44 -178 -126v-12h-80v21c0 107 25 180 258 180s253 -73 253 -180v-5
c0 -72 -10 -121 -86 -145c79 -26 91 -77 91 -150v-22z" />
    <glyph glyph-name="four" unicode="4" horiz-adv-x="646" 
d="M605 170h-71v-170h-80v170h-431v58l405 439h106v-430h71v-67zM454 237v361l-330 -361h330z" />
    <glyph glyph-name="five" unicode="5" horiz-adv-x="671" 
d="M595 173c0 -108 -25 -180 -258 -180s-258 72 -258 180v13h80v-4c0 -83 11 -126 178 -126s178 43 178 126v76c0 83 -11 126 -178 126c-155 0 -178 -49 -178 -103h-80v386h493v-68h-413v-212c16 29 72 61 178 61c221 0 257 -65 258 -163v-112z" />
    <glyph glyph-name="six" unicode="6" horiz-adv-x="668" 
d="M592 173c0 -108 -25 -180 -258 -180s-258 72 -258 180v322c0 107 25 180 258 180s252 -75 252 -172v-10h-80v4c0 67 -5 113 -172 113s-178 -43 -178 -125v-119c18 36 82 62 178 62c233 0 258 -73 258 -180v-75zM512 182v56c0 82 -11 126 -178 126s-178 -44 -178 -126v-56
c0 -83 11 -126 178 -126s178 43 178 126z" />
    <glyph glyph-name="seven" unicode="7" horiz-adv-x="546" 
d="M515 607l-260 -607h-83l257 599h-403v68h489v-60z" />
    <glyph glyph-name="eight" unicode="8" horiz-adv-x="652" 
d="M584 173c0 -108 -25 -180 -258 -180s-258 72 -258 180v22c0 73 11 124 90 150c-77 24 -85 72 -85 145v5c0 107 20 180 253 180s253 -73 253 -180v-5c0 -72 -10 -121 -86 -145c79 -26 91 -77 91 -150v-22zM499 491c0 82 -6 121 -173 121s-173 -39 -173 -121
s6 -121 173 -121s173 39 173 121zM504 184c0 82 -11 136 -178 136s-178 -54 -178 -136s11 -128 178 -128s178 46 178 128z" />
    <glyph glyph-name="nine" unicode="9" horiz-adv-x="668" 
d="M76 495c0 108 25 180 258 180s258 -72 258 -180v-322c0 -107 -25 -180 -258 -180s-252 75 -252 172v13h80v-7c0 -67 5 -113 172 -113s178 43 178 125v117c-18 -36 -82 -62 -178 -62c-233 0 -258 73 -258 180v77zM156 486v-58c0 -82 11 -126 178 -126s178 44 178 126v58
c0 83 -11 126 -178 126s-178 -43 -178 -126z" />
    <glyph glyph-name="colon" unicode=":" horiz-adv-x="192" 
d="M141 315h-90v97h90v-97zM141 0h-90v97h90v-97z" />
    <glyph glyph-name="semicolon" unicode=";" horiz-adv-x="192" 
d="M141 315h-90v97h90v-97zM87 0h-36v97h90v-133c0 -37 -28 -58 -64 -58h-26v31h11c18 0 25 8 25 24v39z" />
    <glyph glyph-name="semicolon" unicode="&#x37e;" horiz-adv-x="192" 
d="M141 315h-90v97h90v-97zM87 0h-36v97h90v-133c0 -37 -28 -58 -64 -58h-26v31h11c18 0 25 8 25 24v39z" />
    <glyph glyph-name="less" unicode="&#x3c;" horiz-adv-x="566" 
d="M485 92l-424 174v63l424 173v-78l-328 -127l328 -127v-78z" />
    <glyph glyph-name="equal" unicode="=" horiz-adv-x="413" 
d="M362 336h-311v66h311v-66zM362 192h-311v67h311v-67z" />
    <glyph glyph-name="greater" unicode="&#x3e;" horiz-adv-x="566" 
d="M81 92v78l328 127l-328 127v78l424 -173v-63z" />
    <glyph glyph-name="question" unicode="?" horiz-adv-x="648" 
d="M582 465c0 -47 -21 -78 -61 -102l-142 -82c-30 -17 -34 -27 -34 -62v-71h-80v83c0 48 11 71 53 96l149 86c27 15 35 26 35 60v12c0 82 -11 126 -178 126s-178 -44 -178 -126v-67h-80v76c0 108 25 180 258 180s258 -72 258 -180v-29zM349 0h-88v97h88v-97z" />
    <glyph glyph-name="at" unicode="@" horiz-adv-x="800" 
d="M604 39c-50 -29 -117 -45 -204 -45c-239 0 -324 114 -324 266v148c0 150 84 266 324 266s324 -116 324 -266v-170c0 -70 -52 -97 -107 -97c-39 0 -71 11 -100 45c-23 -21 -64 -45 -128 -45c-132 0 -167 59 -167 124c0 68 33 121 177 121h104v3c0 61 -12 86 -98 86
c-84 0 -99 -19 -99 -52l-1 -9h-72v16c0 60 48 97 172 97c135 0 170 -52 170 -127v-158c0 -31 15 -43 42 -43s42 12 42 43v165c0 114 -42 208 -259 208s-259 -94 -259 -208v-144c0 -117 47 -206 255 -206c82 0 139 14 178 37zM504 336h-105c-102 0 -105 -34 -105 -69
c0 -36 2 -70 105 -70c75 0 105 29 105 81v58z" />
    <glyph glyph-name="A" unicode="A" horiz-adv-x="674" 
d="M595 495v-495h-80v247h-356v-247h-80v495c0 107 25 180 258 180s258 -73 258 -180zM515 317v169c0 82 -11 126 -178 126s-178 -44 -178 -126v-169h356z" />
    <glyph glyph-name="B" unicode="B" horiz-adv-x="668" 
d="M600 180c0 -116 -56 -180 -231 -180h-285v667h283c162 0 218 -66 218 -179v-1c0 -106 -47 -132 -99 -147c70 -12 114 -50 114 -148v-12zM505 487c0 83 -52 117 -138 117h-203v-231h186c149 0 155 36 155 114zM520 189c0 79 -11 118 -160 118h-196v-244h205
c109 0 151 34 151 126z" />
    <glyph glyph-name="C" unicode="C" horiz-adv-x="666" 
d="M592 173c0 -108 -25 -180 -258 -180s-258 72 -258 180v322c0 107 25 180 258 180s258 -73 258 -180v-40h-80v31c0 82 -11 126 -178 126s-178 -44 -178 -126v-304c0 -83 11 -126 178 -126s178 43 178 126v50h80v-59z" />
    <glyph glyph-name="D" unicode="D" horiz-adv-x="676" 
d="M600 180c0 -108 -52 -180 -211 -180h-305v667h305c159 0 211 -72 211 -180v-307zM520 189v290c0 84 -39 125 -136 125h-220v-541h220c99 0 136 43 136 126z" />
    <glyph glyph-name="E" unicode="E" horiz-adv-x="586" 
d="M515 599h-351v-224h335v-68h-335v-239h351v-68h-431v667h431v-68z" />
    <glyph glyph-name="F" unicode="F" horiz-adv-x="576" 
d="M515 599h-351v-240h333v-68h-333v-291h-80v667h431v-68z" />
    <glyph glyph-name="G" unicode="G" horiz-adv-x="668" 
d="M592 349v-176c0 -108 -25 -180 -258 -180s-258 72 -258 180v322c0 107 25 180 258 180s258 -73 258 -180v-49h-80v40c0 82 -11 126 -178 126s-178 -44 -178 -126v-304c0 -83 11 -126 178 -126s178 43 178 126v99h-167v68h247z" />
    <glyph glyph-name="H" unicode="H" horiz-adv-x="659" 
d="M575 0h-80v307h-331v-307h-80v667h80v-292h331v292h80v-667z" />
    <glyph glyph-name="I" unicode="I" horiz-adv-x="265" 
d="M173 0h-81v667h81v-667z" />
    <glyph glyph-name="J" unicode="J" horiz-adv-x="623" 
d="M544 173c0 -108 -28 -180 -248 -180s-248 72 -248 180v59h80v-49c0 -82 13 -126 168 -126s168 44 168 126v484h80v-494z" />
    <glyph glyph-name="K" unicode="K" horiz-adv-x="655" 
d="M585 667l-210 -320h11c151 0 192 -39 192 -144v-203h-80v186c0 74 -19 93 -133 93h-201v-279h-80v667h80v-320h120l210 320h91z" />
    <glyph glyph-name="L" unicode="L" horiz-adv-x="574" 
d="M523 0h-439v667h80v-599h359v-68z" />
    <glyph glyph-name="M" unicode="M" horiz-adv-x="843" 
d="M759 0h-78v586l-214 -586h-94l-211 590v-590h-78v667h126l210 -599l215 599h124v-667z" />
    <glyph glyph-name="N" unicode="N" horiz-adv-x="699" 
d="M615 0h-97l-359 579v-579h-75v667h102l354 -570v570h75v-667z" />
    <glyph glyph-name="O" unicode="O" horiz-adv-x="673" 
d="M597 173c0 -108 -27 -180 -261 -180c-233 0 -260 72 -260 180v322c0 107 27 180 260 180c234 0 261 -73 261 -180v-322zM517 182v304c0 82 -14 126 -181 126c-166 0 -180 -44 -180 -126v-304c0 -82 14 -126 180 -126c167 0 181 44 181 126z" />
    <glyph glyph-name="P" unicode="P" horiz-adv-x="664" 
d="M600 372c0 -107 -50 -180 -214 -180h-222v-192h-80v667h302c164 0 214 -72 214 -180v-115zM520 381v98c0 82 -37 125 -134 125h-222v-349h222c98 0 134 44 134 126z" />
    <glyph glyph-name="Q" unicode="Q" horiz-adv-x="673" 
d="M487 9l84 -100h-88s-68 87 -68 88c-23 -3 -49 -4 -79 -4c-233 0 -260 72 -260 180v322c0 107 27 180 260 180c234 0 261 -73 261 -180v-322c0 -78 -14 -137 -110 -164zM366 56l-82 99h88l69 -89c69 17 76 56 76 116v304c0 82 -14 126 -181 126c-166 0 -180 -44 -180 -126
v-304c0 -82 14 -126 180 -126h30z" />
    <glyph glyph-name="R" unicode="R" horiz-adv-x="674" 
d="M600 0h-80v114c0 84 -14 126 -128 126h-228v-240h-80v667h300c166 0 216 -72 216 -180v-67c0 -95 -41 -132 -104 -146c64 -11 104 -44 104 -151v-123zM520 428v51c0 82 -36 125 -136 125h-220v-301h214c102 0 142 39 142 125z" />
    <glyph glyph-name="S" unicode="S" horiz-adv-x="660" 
d="M588 172c0 -107 -25 -180 -258 -180s-258 73 -258 180v53h80v-44c0 -82 11 -126 178 -126s178 44 178 126v10c0 61 -30 85 -91 95l-208 33c-95 15 -137 68 -137 142v33c0 108 25 180 258 180s258 -72 258 -180v-23h-80v14c0 82 -11 126 -178 126s-178 -44 -178 -126v-16
c0 -44 16 -71 75 -81l222 -36c91 -15 139 -61 139 -144v-36z" />
    <glyph glyph-name="T" unicode="T" horiz-adv-x="593" 
d="M557 599h-223v-599h-80v599h-218v68h521v-68z" />
    <glyph glyph-name="U" unicode="U" horiz-adv-x="674" 
d="M595 173c0 -108 -25 -180 -258 -180s-258 72 -258 180v494h80v-484c0 -82 11 -126 178 -126s178 44 178 126v484h80v-494z" />
    <glyph glyph-name="V" unicode="V" horiz-adv-x="635" 
d="M601 667l-246 -667h-76l-245 667h81l202 -553l203 553h81z" />
    <glyph glyph-name="W" unicode="W" horiz-adv-x="942" 
d="M431 667h80v-484c0 -82 16 -126 136 -126c122 0 136 44 136 126v484h80v-494c0 -108 -28 -180 -216 -180c-107 0 -155 44 -176 78c-21 -34 -69 -78 -176 -78c-188 0 -216 72 -216 180v494h80v-484c0 -82 14 -126 136 -126c120 0 136 44 136 126v484z" />
    <glyph glyph-name="X" unicode="X" horiz-adv-x="668" 
d="M287 306c-80 0 -131 -43 -131 -117v-189h-80v196c0 64 43 109 90 129l31 13l-31 15c-47 20 -90 65 -90 129v185h80v-176c0 -74 51 -117 131 -117h94c80 0 131 43 131 117v176h80v-185c0 -64 -43 -106 -90 -129l-31 -15l31 -13c47 -20 90 -65 90 -129v-196h-80v189
c0 74 -51 117 -131 117h-94z" />
    <glyph glyph-name="Y" unicode="Y" horiz-adv-x="627" 
d="M594 667l-241 -416v-251h-80v251l-240 416h89l191 -341l192 341h89z" />
    <glyph glyph-name="Z" unicode="Z" horiz-adv-x="562" 
d="M511 0h-460v64l370 535h-370v68h460v-64l-367 -535h367v-68z" />
    <glyph glyph-name="bracketleft" unicode="[" horiz-adv-x="320" 
d="M264 -50v-55h-168v877h168v-55h-88v-767h88z" />
    <glyph glyph-name="backslash" unicode="\" horiz-adv-x="315" 
d="M299 -50h-75l-208 767h74z" />
    <glyph glyph-name="bracketright" unicode="]" horiz-adv-x="320" 
d="M56 -50h88v767h-88v55h168v-877h-168v55z" />
    <glyph glyph-name="asciicircum" unicode="^" horiz-adv-x="493" 
d="M447 319h-80l-122 286l-120 -286h-79l160 348h80z" />
    <glyph glyph-name="underscore" unicode="_" horiz-adv-x="646" 
d="M646 -132h-646v66h646v-66z" />
    <glyph glyph-name="grave" unicode="`" horiz-adv-x="252" 
d="M36 667h86l94 -112h-70z" />
    <glyph glyph-name="a" unicode="a" horiz-adv-x="586" 
d="M518 0h-64l-11 56c-47 -45 -92 -62 -197 -62c-124 0 -183 63 -183 141c0 81 37 155 226 155h154v25c0 79 -32 114 -138 114c-102 0 -143 -27 -143 -71l-75 7c0 81 74 123 218 123c167 0 213 -62 213 -163v-325zM443 169v62h-154c-134 0 -151 -55 -151 -94
c0 -37 31 -79 120 -79c124 0 185 39 185 111z" />
    <glyph glyph-name="b" unicode="b" horiz-adv-x="573" 
d="M510 162c0 -95 -28 -168 -205 -168c-95 0 -140 32 -157 62l-11 -56h-64v667h75v-241c22 37 71 62 157 62c177 0 205 -73 205 -168v-158zM435 176v130c0 78 -13 118 -143 118s-144 -40 -144 -118v-130c0 -78 14 -118 144 -118s143 40 143 118z" />
    <glyph glyph-name="c" unicode="c" horiz-adv-x="561" 
d="M500 156c0 -91 -21 -162 -218 -162c-198 0 -219 71 -219 162v169c0 91 21 163 219 163c197 0 218 -72 218 -163v-12h-75v2c0 67 -6 114 -143 114s-144 -47 -144 -114v-149c0 -67 7 -113 144 -113s143 46 143 113v9h75v-19z" />
    <glyph glyph-name="d" unicode="d" horiz-adv-x="573" 
d="M63 162v158c0 95 28 168 205 168c86 0 135 -25 157 -62v241h75v-667h-64l-11 56c-17 -30 -62 -62 -157 -62c-177 0 -205 73 -205 168zM138 176c0 -78 13 -118 143 -118s144 40 144 118v130c0 78 -14 118 -144 118s-143 -40 -143 -118v-130z" />
    <glyph glyph-name="e" unicode="e" horiz-adv-x="573" 
d="M510 151c0 -84 -25 -157 -223 -157s-224 71 -224 162v169c0 91 26 163 224 163c197 0 223 -72 223 -163v-103h-372v-56c0 -67 12 -113 149 -113c131 0 147 45 148 98h75zM435 315c0 67 -11 114 -148 114s-149 -47 -149 -114v-33h297v33z" />
    <glyph glyph-name="f" unicode="f" horiz-adv-x="399" 
d="M95 541c0 100 74 133 161 133c38 0 86 -8 112 -16v-58c-29 7 -64 14 -103 14c-57 0 -95 -21 -95 -77v-55h197v-60h-197v-422h-75v422h-64v60h64v59z" />
    <glyph glyph-name="g" unicode="g" horiz-adv-x="573" 
d="M63 162v158c0 95 28 168 205 168c86 0 134 -25 157 -61l11 55h64v-537c0 -92 -27 -158 -215 -158c-190 0 -217 68 -217 147h75c1 -50 18 -88 142 -88c133 0 140 41 140 107v102c-28 -39 -74 -61 -157 -61c-177 0 -205 73 -205 168zM138 306v-130c0 -78 14 -118 144 -118
s143 40 143 118v130c0 78 -13 118 -143 118s-144 -40 -144 -118z" />
    <glyph glyph-name="h" unicode="h" horiz-adv-x="576" 
d="M508 0h-75v306c0 78 -13 118 -143 118c-105 0 -142 -36 -142 -122v-302h-75v667h75v-241c23 37 70 62 156 62c177 0 204 -73 204 -168v-320z" />
    <glyph glyph-name="i" unicode="i" horiz-adv-x="227" 
d="M151 549h-75v75h75v-75zM151 0h-75v482h75v-482z" />
    <glyph glyph-name="j" unicode="j" horiz-adv-x="221" 
d="M148 549h-75v75h75v-75zM-71 -142c21 -4 44 -7 70 -7c45 0 74 21 74 77v554h75v-557c0 -100 -61 -133 -139 -133c-30 0 -62 4 -80 8v58z" />
    <glyph glyph-name="k" unicode="k" horiz-adv-x="579" 
d="M516 0h-75v110c0 74 -6 107 -113 107h-180v-217h-75v667h75v-388h130l145 203h88l-146 -204c138 -7 151 -59 151 -145v-133z" />
    <glyph glyph-name="l" unicode="l" horiz-adv-x="228" 
d="M152 0h-76v667h76v-667z" />
    <glyph glyph-name="m" unicode="m" horiz-adv-x="870" 
d="M802 0h-75v306c0 78 -12 118 -126 118c-78 0 -126 -36 -126 -122v-302h-75v306c0 78 -11 118 -126 118c-79 0 -126 -36 -126 -122v-302h-75v482h64l10 -57c21 35 70 63 141 63c94 0 144 -29 168 -74c21 38 74 74 159 74c160 0 187 -73 187 -168v-320z" />
    <glyph glyph-name="n" unicode="n" horiz-adv-x="576" 
d="M508 0h-75v306c0 78 -13 118 -143 118c-105 0 -142 -36 -142 -122v-302h-75v482h64l11 -56c20 35 68 62 156 62c177 0 204 -73 204 -168v-320z" />
    <glyph glyph-name="o" unicode="o" horiz-adv-x="573" 
d="M510 156c0 -91 -24 -162 -223 -162c-200 0 -224 71 -224 162v170c0 91 24 162 224 162c199 0 223 -71 223 -162v-170zM435 166v150c0 67 -9 113 -148 113s-149 -46 -149 -113v-150c0 -67 10 -113 149 -113s148 46 148 113z" />
    <glyph glyph-name="p" unicode="p" horiz-adv-x="573" 
d="M510 320v-158c0 -95 -28 -168 -205 -168c-86 0 -135 25 -157 62v-256h-75v682h64l11 -56c17 30 62 62 157 62c177 0 205 -73 205 -168zM435 306c0 78 -13 118 -143 118s-144 -40 -144 -118v-130c0 -78 14 -118 144 -118s143 40 143 118v130z" />
    <glyph glyph-name="q" unicode="q" horiz-adv-x="573" 
d="M63 320c0 95 28 168 205 168c95 0 140 -32 157 -62l11 56h64v-682h-75v256c-22 -37 -71 -62 -157 -62c-177 0 -205 73 -205 168v158zM138 306v-130c0 -78 13 -118 143 -118s144 40 144 118v130c0 78 -14 118 -144 118s-143 -40 -143 -118z" />
    <glyph glyph-name="r" unicode="r" horiz-adv-x="444" 
d="M396 410c-32 12 -67 17 -107 17c-103 0 -141 -35 -141 -121v-306h-75v482h64l10 -56c22 37 71 62 155 62c40 0 71 -5 94 -14v-64z" />
    <glyph glyph-name="s" unicode="s" horiz-adv-x="566" 
d="M503 145c0 -68 -17 -151 -220 -151c-171 0 -220 56 -220 145v5h75v-2c0 -68 47 -89 145 -89c137 0 145 55 145 77c0 38 -14 56 -55 63l-197 36c-77 14 -113 53 -113 114s17 145 217 145c168 0 215 -55 215 -144v-5h-75v1c0 67 -44 89 -140 89c-126 0 -142 -48 -142 -77
c0 -35 11 -53 51 -60l198 -34c86 -15 116 -64 116 -113z" />
    <glyph glyph-name="t" unicode="t" horiz-adv-x="425" 
d="M370 68v-58c-26 -8 -74 -16 -112 -16c-87 0 -161 33 -161 133v295h-64v60h64v117h75v-117h197v-60h-197v-291c0 -56 38 -77 95 -77c39 0 74 7 103 14z" />
    <glyph glyph-name="u" unicode="u" horiz-adv-x="570" 
d="M495 0h-64l-11 56c-20 -36 -72 -62 -152 -62c-177 0 -200 73 -200 168v320h75v-306c0 -78 9 -118 139 -118c105 0 138 36 138 122v302h75v-482z" />
    <glyph glyph-name="v" unicode="v" horiz-adv-x="541" 
d="M515 482l-204 -482h-81l-204 482h80l166 -400l166 400h77z" />
    <glyph glyph-name="w" unicode="w" horiz-adv-x="820" 
d="M373 482h74v-315c0 -66 15 -112 115 -112c98 0 115 46 115 112v315h75v-326c0 -91 -31 -162 -190 -162c-78 0 -126 34 -152 67c-26 -33 -74 -67 -152 -67c-159 0 -190 71 -190 162v326h75v-315c0 -66 17 -112 115 -112c100 0 115 46 115 112v315z" />
    <glyph glyph-name="x" unicode="x" horiz-adv-x="568" 
d="M129 226l45 18l-45 19c-38 15 -61 58 -61 94v125h75v-118c0 -52 31 -88 104 -88h74c73 0 104 36 104 88v118h75v-125c0 -36 -23 -79 -61 -94l-45 -19l45 -18c38 -15 61 -58 61 -94v-132h-75v125c0 52 -31 87 -104 87h-74c-73 0 -104 -35 -104 -87v-125h-75v132
c0 36 23 79 61 94z" />
    <glyph glyph-name="y" unicode="y" horiz-adv-x="571" 
d="M498 -55c0 -92 -24 -158 -211 -158c-191 0 -214 69 -214 147h75c1 -50 14 -88 139 -88c132 0 136 41 136 107v102c-28 -38 -73 -61 -154 -61c-176 0 -201 73 -201 168v320h75v-306c0 -78 10 -118 140 -118s140 40 140 118v306h75v-537z" />
    <glyph glyph-name="z" unicode="z" horiz-adv-x="521" 
d="M458 0h-395v56l298 366h-296v60h393v-56l-298 -366h298v-60z" />
    <glyph glyph-name="braceleft" unicode="{" horiz-adv-x="361" 
d="M305 -105h-46c-49 0 -84 10 -102 28c-19 19 -20 47 -20 78v218c0 39 -18 91 -66 91h-15v61h19c48 0 62 52 62 91v204c0 31 1 59 20 78c18 18 53 28 102 28h46v-55h-36c-28 0 -52 -12 -52 -41v-212c0 -52 -11 -98 -60 -123c49 -25 60 -70 60 -122v-229
c0 -28 24 -40 52 -40h36v-55z" />
    <glyph glyph-name="bar" unicode="|" horiz-adv-x="285" 
d="M179 -50h-73v767h73v-767z" />
    <glyph glyph-name="braceright" unicode="}" horiz-adv-x="361" 
d="M56 -105v55h36c28 0 52 12 52 40v229c0 52 11 97 60 122c-49 25 -60 71 -60 123v212c0 29 -24 41 -52 41h-36v55h46c49 0 84 -10 102 -28c19 -19 20 -47 20 -78v-204c0 -39 14 -91 62 -91h19v-61h-15c-48 0 -66 -52 -66 -91v-218c0 -31 -1 -59 -20 -78
c-18 -18 -53 -28 -102 -28h-46z" />
    <glyph glyph-name="asciitilde" unicode="~" horiz-adv-x="469" 
d="M428 636c-6 -75 -47 -112 -98 -112c-56 0 -144 82 -196 82c-29 1 -45 -18 -49 -44h-44c6 74 46 112 97 112c59 0 146 -83 197 -83c29 1 45 20 49 45h44z" />
    <glyph glyph-name="Euro" unicode="&#x20ac;" horiz-adv-x="723" 
d="M649 172c0 -107 -25 -180 -258 -180s-258 73 -258 180v83h-72v56h72v67h-72v56h72v60c0 108 25 180 258 180s258 -72 258 -180v-14h-80v5c0 82 -11 126 -178 126s-178 -44 -178 -126v-51h277v-56h-277v-67h277v-56h-277v-74c0 -82 11 -126 178 -126s178 44 178 126v22h80
v-31z" />
    <glyph glyph-name="quotesinglbase" unicode="&#x201a;" horiz-adv-x="192" 
d="M87 0h-36v97h90v-133c0 -37 -28 -58 -64 -58h-26v31h11c18 0 25 8 25 24v39z" />
    <glyph glyph-name="florin" unicode="&#x192;" horiz-adv-x="503" 
d="M427 668l-7 -57h-50c-101 0 -120 -42 -131 -126l-6 -47h164l-9 -65h-164l-49 -373h-80l49 373h-68l9 65h68l7 56c17 129 67 180 189 180c26 0 52 -2 78 -6z" />
    <glyph glyph-name="quotedblbase" unicode="&#x201e;" horiz-adv-x="342" 
d="M237 0h-36v97h90v-133c0 -37 -28 -58 -64 -58h-26v31h11c18 0 25 8 25 24v39zM87 0h-36v97h90v-133c0 -37 -28 -58 -64 -58h-26v31h11c18 0 25 8 25 24v39z" />
    <glyph glyph-name="ellipsis" unicode="&#x2026;" horiz-adv-x="592" 
d="M541 0h-90v97h90v-97zM341 0h-90v97h90v-97zM141 0h-90v97h90v-97z" />
    <glyph glyph-name="dagger" unicode="&#x2020;" horiz-adv-x="313" 
d="M184 261h-55v249h-83v55h83v102h55v-102h83v-55h-83v-249z" />
    <glyph glyph-name="daggerdbl" unicode="&#x2021;" horiz-adv-x="313" 
d="M267 363h-83v-102h-55v102h-83v55h83v92h-83v55h83v102h55v-102h83v-55h-83v-92h83v-55z" />
    <glyph glyph-name="circumflex" unicode="&#x2c6;" horiz-adv-x="368" 
d="M332 555h-76l-72 70l-72 -70h-76l113 106h70z" />
    <glyph glyph-name="perthousand" unicode="&#x2030;" horiz-adv-x="1150" 
d="M323 428c0 -52 -21 -88 -135 -88s-135 36 -135 88v158c0 53 21 88 135 88s135 -35 135 -88v-158zM578 667l-303 -667h-59l303 667h59zM1097 82c0 -53 -21 -88 -135 -88s-135 35 -135 88v158c0 52 21 88 135 88s135 -36 135 -88v-158zM741 82c0 -53 -21 -88 -135 -88
s-135 35 -135 88v158c0 52 21 88 135 88s135 -36 135 -88v-158zM262 445v124c0 40 -5 61 -74 61s-74 -21 -74 -61v-124c0 -40 5 -61 74 -61s74 21 74 61zM1036 99v124c0 40 -4 61 -74 61c-69 0 -74 -21 -74 -61v-124c0 -40 5 -61 74 -61c70 0 74 21 74 61zM680 99v124
c0 40 -4 61 -74 61c-69 0 -74 -21 -74 -61v-124c0 -40 5 -61 74 -61c70 0 74 21 74 61z" />
    <glyph glyph-name="Scaron" unicode="&#x160;" horiz-adv-x="660" 
d="M588 172c0 -107 -25 -180 -258 -180s-258 73 -258 180v53h80v-44c0 -82 11 -126 178 -126s178 44 178 126v10c0 61 -30 85 -91 95l-208 33c-95 15 -137 68 -137 142v33c0 108 25 180 258 180s258 -72 258 -180v-23h-80v14c0 82 -11 126 -178 126s-178 -44 -178 -126v-16
c0 -44 16 -71 75 -81l222 -36c91 -15 139 -61 139 -144v-36zM182 846h76l72 -70l72 70h76l-113 -106h-70z" />
    <glyph glyph-name="guilsinglleft" unicode="&#x2039;" 
d="M221 482l-76 -185l76 -185h-75l-75 185l77 185h73z" />
    <glyph glyph-name="OE" unicode="&#x152;" horiz-adv-x="1019" 
d="M336 0c-233 0 -260 72 -260 180v307c0 107 28 180 260 180h612v-68h-351v-224h335v-68h-335v-239h351v-68h-612zM517 63v541h-181c-166 0 -180 -44 -180 -126v-289c0 -82 14 -126 180 -126h181z" />
    <glyph glyph-name="Zcaron" unicode="&#x17d;" horiz-adv-x="562" 
d="M511 0h-460v64l370 535h-370v68h460v-64l-367 -535h367v-68zM133 846h76l72 -70l72 70h76l-113 -106h-70z" />
    <glyph glyph-name="quoteleft" unicode="&#x2018;" horiz-adv-x="192" 
d="M105 573h36v-97h-90v133c0 37 28 58 64 58h26v-31h-11c-18 0 -25 -8 -25 -24v-39z" />
    <glyph glyph-name="quoteright" unicode="&#x2019;" horiz-adv-x="192" 
d="M87 570h-36v97h90v-133c0 -37 -28 -58 -64 -58h-26v31h11c18 0 25 8 25 24v39z" />
    <glyph glyph-name="quotedblleft" unicode="&#x201c;" horiz-adv-x="342" 
d="M255 573h36v-97h-90v133c0 37 28 58 64 58h26v-31h-11c-18 0 -25 -8 -25 -24v-39zM105 573h36v-97h-90v133c0 37 28 58 64 58h26v-31h-11c-18 0 -25 -8 -25 -24v-39z" />
    <glyph glyph-name="quotedblright" unicode="&#x201d;" horiz-adv-x="342" 
d="M237 570h-36v97h90v-133c0 -37 -28 -58 -64 -58h-26v31h11c18 0 25 8 25 24v39zM87 570h-36v97h90v-133c0 -37 -28 -58 -64 -58h-26v31h11c18 0 25 8 25 24v39z" />
    <glyph glyph-name="bullet" unicode="&#x2022;" 
d="M251 316c0 -57 -46 -102 -102 -102c-57 0 -103 45 -103 102s46 103 102 103c57 0 103 -46 103 -103z" />
    <glyph glyph-name="endash" unicode="&#x2013;" horiz-adv-x="552" 
d="M501 262h-450v71h450v-71z" />
    <glyph glyph-name="emdash" unicode="&#x2014;" horiz-adv-x="702" 
d="M651 262h-600v71h600v-71z" />
    <glyph glyph-name="tilde" unicode="&#x2dc;" horiz-adv-x="355" 
d="M120 601c-11 0 -35 -12 -52 -37l-32 26c22 39 61 64 92 64c45 0 66 -44 107 -44c11 0 35 12 52 37l32 -26c-22 -38 -61 -64 -92 -64c-45 0 -66 44 -107 44z" />
    <glyph glyph-name="trademark" unicode="&#x2122;" horiz-adv-x="599" 
d="M558 396h-44v237l-76 -237h-45l-75 239v-239h-45v271h78l64 -213l67 213h76v-271zM248 629h-84v-233h-48v233h-85v38h217v-38z" />
    <glyph glyph-name="scaron" unicode="&#x161;" horiz-adv-x="566" 
d="M503 145c0 -68 -17 -151 -220 -151c-171 0 -220 56 -220 145v5h75v-2c0 -68 47 -89 145 -89c137 0 145 55 145 77c0 38 -14 56 -55 63l-197 36c-77 14 -113 53 -113 114s17 145 217 145c168 0 215 -55 215 -144v-5h-75v1c0 67 -44 89 -140 89c-126 0 -142 -48 -142 -77
c0 -35 11 -53 51 -60l198 -34c86 -15 116 -64 116 -113zM135 661h76l72 -70l72 70h76l-113 -106h-70z" />
    <glyph glyph-name="guilsinglright" unicode="&#x203a;" 
d="M76 482h73l77 -185l-75 -185h-75l76 185z" />
    <glyph glyph-name="oe" unicode="&#x153;" horiz-adv-x="945" 
d="M474 61c-24 -41 -90 -67 -187 -67c-200 0 -224 71 -224 162v170c0 91 24 162 224 162c99 0 162 -26 186 -67c24 41 88 67 186 67c197 0 223 -72 223 -163v-103h-372v-56c0 -67 12 -113 149 -113c131 0 147 45 148 98h75c0 -84 -25 -157 -223 -157c-97 0 -161 26 -185 67z
M807 315c0 67 -11 114 -148 114s-149 -47 -149 -114v-33h297v33zM435 166v150c0 67 -9 113 -148 113s-149 -46 -149 -113v-150c0 -67 10 -113 149 -113s148 46 148 113z" />
    <glyph glyph-name="zcaron" unicode="&#x17e;" horiz-adv-x="521" 
d="M458 0h-395v56l298 366h-296v60h393v-56l-298 -366h298v-60zM112 661h76l72 -70l72 70h76l-113 -106h-70z" />
    <glyph glyph-name="Ydieresis" unicode="&#x178;" horiz-adv-x="627" 
d="M594 667l-241 -416v-251h-80v251l-240 416h89l191 -341l192 341h89zM439 755h-76v78h76v-78zM264 755h-76v78h76v-78z" />
    <glyph glyph-name="nbspace" unicode="&#xa0;" horiz-adv-x="270" 
 />
    <glyph glyph-name="exclamdown" unicode="&#xa1;" horiz-adv-x="270" 
d="M90 482h90v-97h-90v97zM92 -185l10 519h66l10 -519h-86z" />
    <glyph glyph-name="cent" unicode="&#xa2;" horiz-adv-x="557" 
d="M486 218c0 -74 -28 -125 -176 -131v-87h-63v87c-148 6 -176 57 -176 131v230c0 74 28 125 176 131v88h63v-88c148 -6 176 -57 176 -131v-44h-77v30c0 57 -6 88 -131 88c-124 0 -131 -31 -131 -88v-202c0 -57 7 -88 131 -88c125 0 131 31 131 88v44h77v-58z" />
    <glyph glyph-name="sterling" unicode="&#xa3;" horiz-adv-x="738" 
d="M664 0h-585v68h70v244h-70v66h70v116c0 108 24 180 257 180c234 0 258 -72 258 -180v-26h-80v17c0 82 -11 126 -178 126c-166 0 -177 -44 -177 -126v-107h213v-66h-213v-244h435v-68z" />
    <glyph glyph-name="yen" unicode="&#xa5;" horiz-adv-x="627" 
d="M273 180v57h-138v56h114l-216 374h89l191 -346l192 346h89l-217 -374h114v-56h-138v-57h138v-56h-138v-124h-80v124h-138v56h138z" />
    <glyph glyph-name="brokenbar" unicode="&#xa6;" 
d="M251 316c0 -57 -46 -102 -102 -102c-57 0 -103 45 -103 102s46 103 102 103c57 0 103 -46 103 -103z" />
    <glyph glyph-name="section" unicode="&#xa7;" horiz-adv-x="660" 
d="M117 356c-31 26 -45 62 -45 105v33c0 108 25 180 258 180s258 -72 258 -180v-23h-80v14c0 82 -11 126 -178 126s-178 -44 -178 -126v-16c0 -44 16 -71 75 -81l222 -36c91 -15 139 -61 139 -144v-6c0 -33 -17 -68 -45 -93c30 -25 45 -59 45 -106v-36
c0 -107 -25 -180 -258 -180s-258 73 -258 180v53h80v-44c0 -82 11 -126 178 -126s178 44 178 126v10c0 61 -30 85 -91 95l-208 33c-95 15 -137 67 -137 143v6c0 33 17 68 45 93zM491 137c12 12 17 30 17 52v2c0 61 -30 85 -91 95l-208 33c-15 2 -28 6 -40 10
c-12 -12 -17 -31 -17 -53v-12c0 -44 16 -71 75 -81l222 -36c15 -3 30 -6 42 -10z" />
    <glyph glyph-name="dieresis" unicode="&#xa8;" horiz-adv-x="323" 
d="M287 570h-76v78h76v-78zM112 570h-76v78h76v-78z" />
    <glyph glyph-name="copyright" unicode="&#xa9;" horiz-adv-x="776" 
d="M700 215c0 -152 -103 -221 -312 -221c-208 0 -312 69 -312 221v235c0 152 104 221 312 221c209 0 312 -69 312 -221v-235zM652 450c0 116 -67 177 -264 177s-262 -61 -262 -177v-235c0 -115 65 -175 262 -175s264 60 264 175v235zM580 233c0 -67 -28 -111 -185 -111
c-158 0 -186 44 -186 111v201c0 65 28 110 186 110c157 0 185 -45 185 -110v-36h-74v20c0 50 -3 73 -111 73c-109 0 -111 -27 -111 -77v-161c0 -50 2 -77 111 -77c108 0 111 22 111 73v27h74v-43z" />
    <glyph glyph-name="ordfeminine" unicode="&#xaa;" horiz-adv-x="411" 
d="M365 332h-45l-8 39c-33 -31 -67 -44 -138 -44c-80 0 -128 44 -128 99c0 57 26 108 159 108h97v18c0 52 -23 73 -86 73c-64 0 -90 -15 -90 -43l-63 5c0 57 52 86 153 86c117 0 149 -43 149 -114v-227zM302 450v40h-92c-94 0 -101 -33 -101 -63c0 -27 31 -52 79 -52
c79 0 114 24 114 75z" />
    <glyph glyph-name="guillemotleft" unicode="&#xab;" horiz-adv-x="458" 
d="M382 482l-76 -185l76 -185h-75l-75 185l77 185h73zM221 482l-76 -185l76 -185h-75l-75 185l77 185h73z" />
    <glyph glyph-name="logicalnot" unicode="&#xac;" 
d="M251 316c0 -57 -46 -102 -102 -102c-57 0 -103 45 -103 102s46 103 102 103c57 0 103 -46 103 -103z" />
    <glyph glyph-name="registered" unicode="&#xae;" horiz-adv-x="438" 
d="M407 403c0 -93 -53 -150 -188 -150s-188 57 -188 150v120c0 95 53 151 188 151s188 -56 188 -151v-120zM369 403v120c0 71 -30 115 -150 115s-150 -44 -150 -115v-120c0 -70 30 -114 150 -114s150 44 150 114zM318 357h-48v26c0 28 -4 41 -34 41h-60v-67h-47v226h94
c76 0 95 -23 95 -59v-32c0 -34 -20 -44 -40 -47c20 -3 40 -14 40 -48v-40zM270 501v6c0 25 -2 40 -48 40h-46v-87h46c46 0 48 13 48 41z" />
    <glyph glyph-name="macron" unicode="&#xaf;" horiz-adv-x="299" 
d="M263 581h-227v48h227v-48z" />
    <glyph glyph-name="macron" unicode="&#x2c9;" horiz-adv-x="299" 
d="M263 581h-227v48h227v-48z" />
    <glyph glyph-name="degree" unicode="&#xb0;" horiz-adv-x="348" 
d="M307 542c0 -73 -60 -133 -133 -133s-133 60 -133 133s60 133 133 133s133 -60 133 -133zM259 544c0 46 -39 85 -85 85c-47 0 -86 -39 -86 -85c0 -47 39 -86 86 -86c46 0 85 39 85 86z" />
    <glyph glyph-name="twosuperior" unicode="&#xb2;" horiz-adv-x="429" 
d="M364 300h-304v72c0 41 23 63 66 82l139 62c25 11 35 23 35 46c0 44 -19 59 -88 59s-88 -19 -88 -59v-15h-64v25c0 56 32 99 152 99s152 -43 152 -99v-19c0 -49 -27 -70 -73 -90l-137 -59c-20 -9 -30 -20 -30 -46v-6h240v-52z" />
    <glyph glyph-name="threesuperior" unicode="&#xb3;" horiz-adv-x="429" 
d="M364 398c0 -56 -28 -102 -150 -102s-154 43 -154 99v20h64v-14c0 -39 27 -55 90 -55c71 0 86 21 86 54c0 41 -11 66 -77 66h-82v48h82c66 0 77 34 77 57c0 25 -12 50 -86 50c-71 0 -90 -19 -90 -59v-13h-64v23c0 56 32 99 154 99s150 -47 150 -99v-2
c0 -40 -17 -67 -59 -80c44 -14 59 -43 59 -83v-9z" />
    <glyph glyph-name="acute" unicode="&#xb4;" horiz-adv-x="252" 
d="M216 667l-110 -112h-70l94 112h86z" />
    <glyph glyph-name="mu" unicode="&#xb5;" 
d="M251 316c0 -57 -46 -102 -102 -102c-57 0 -103 45 -103 102s46 103 102 103c57 0 103 -46 103 -103z" />
    <glyph glyph-name="mu" unicode="&#x3bc;" 
d="M251 316c0 -57 -46 -102 -102 -102c-57 0 -103 45 -103 102s46 103 102 103c57 0 103 -46 103 -103z" />
    <glyph glyph-name="paragraph" unicode="&#xb6;" horiz-adv-x="641" 
d="M558 0h-80v608h-127v-608h-80v321h-16c-198 0 -225 72 -225 163v20c0 91 27 163 225 163h303v-667zM271 381v227h-16c-137 0 -144 -47 -144 -114c0 -66 7 -113 144 -113h16z" />
    <glyph glyph-name="periodcentered" unicode="&#xb7;" horiz-adv-x="192" 
d="M141 315h-90v97h90v-97z" />
    <glyph glyph-name="periodcentered" unicode="&#x2219;" horiz-adv-x="192" 
d="M141 315h-90v97h90v-97z" />
    <glyph glyph-name="cedilla" unicode="&#xb8;" horiz-adv-x="231" 
d="M195 -155c0 -22 -18 -45 -81 -45c-65 0 -77 23 -77 45v21h54v-16c0 -10 9 -18 26 -18s24 8 24 18v59c0 10 -7 18 -24 18c-11 0 -21 -4 -24 -12l-3 -8h-54l27 93h47l-13 -51l6 2c9 3 25 5 36 5c37 0 56 -16 56 -38v-73z" />
    <glyph glyph-name="onesuperior" unicode="&#xb9;" horiz-adv-x="245" 
d="M106 300v319h-71v48h135v-367h-64z" />
    <glyph glyph-name="ordmasculine" unicode="&#xba;" horiz-adv-x="405" 
d="M359 441c0 -64 -17 -114 -156 -114c-140 0 -157 50 -157 114v118c0 64 17 114 157 114c139 0 156 -50 156 -114v-118zM296 451v98c0 45 -6 76 -93 76c-88 0 -95 -31 -95 -76v-98c0 -45 7 -76 95 -76c87 0 93 31 93 76z" />
    <glyph glyph-name="guillemotright" unicode="&#xbb;" horiz-adv-x="458" 
d="M237 482h73l77 -185l-75 -185h-75l76 185zM76 482h73l77 -185l-75 -185h-75l76 185z" />
    <glyph glyph-name="questiondown" unicode="&#xbf;" horiz-adv-x="648" 
d="M299 482h88v-97h-88v97zM66 17c0 47 20 78 61 102l142 82c29 17 34 27 34 62v71h80v-83c0 -48 -11 -71 -53 -96l-149 -86c-27 -16 -35 -26 -35 -60v-12c0 -82 11 -126 178 -126s178 44 178 126v67h80v-76c0 -108 -25 -180 -258 -180s-258 72 -258 180v29z" />
    <glyph glyph-name="Agrave" unicode="&#xc0;" horiz-adv-x="674" 
d="M595 495v-495h-80v247h-356v-247h-80v495c0 107 25 180 258 180s258 -73 258 -180zM515 317v169c0 82 -11 126 -178 126s-178 -44 -178 -126v-169h356zM195 852h86l94 -112h-70z" />
    <glyph glyph-name="Aacute" unicode="&#xc1;" horiz-adv-x="674" 
d="M595 495v-495h-80v247h-356v-247h-80v495c0 107 25 180 258 180s258 -73 258 -180zM515 317v169c0 82 -11 126 -178 126s-178 -44 -178 -126v-169h356zM479 852l-110 -112h-70l94 112h86z" />
    <glyph glyph-name="Acircumflex" unicode="&#xc2;" horiz-adv-x="674" 
d="M595 495v-495h-80v247h-356v-247h-80v495c0 107 25 180 258 180s258 -73 258 -180zM515 317v169c0 82 -11 126 -178 126s-178 -44 -178 -126v-169h356zM485 740h-76l-72 70l-72 -70h-76l113 106h70z" />
    <glyph glyph-name="Atilde" unicode="&#xc3;" horiz-adv-x="674" 
d="M595 495v-495h-80v247h-356v-247h-80v495c0 107 25 180 258 180s258 -73 258 -180zM515 317v169c0 82 -11 126 -178 126s-178 -44 -178 -126v-169h356zM280 786c-11 0 -35 -12 -52 -37l-32 26c22 39 61 64 92 64c45 0 66 -44 107 -44c11 0 35 12 52 37l32 -26
c-22 -38 -61 -64 -92 -64c-45 0 -66 44 -107 44z" />
    <glyph glyph-name="Adieresis" unicode="&#xc4;" horiz-adv-x="674" 
d="M595 495v-495h-80v247h-356v-247h-80v495c0 107 25 180 258 180s258 -73 258 -180zM515 317v169c0 82 -11 126 -178 126s-178 -44 -178 -126v-169h356zM463 755h-76v78h76v-78zM288 755h-76v78h76v-78z" />
    <glyph glyph-name="Aring" unicode="&#xc5;" horiz-adv-x="674" 
d="M595 495v-495h-80v247h-356v-247h-80v495c0 107 25 180 258 180s258 -73 258 -180zM515 317v169c0 82 -11 126 -178 126s-178 -44 -178 -126v-169h356zM417 790c0 -45 -36 -81 -80 -81s-80 36 -80 81c0 44 36 80 80 80s80 -36 80 -80zM378 790c0 22 -18 41 -41 41
s-41 -19 -41 -41c0 -23 18 -41 41 -41s41 18 41 41z" />
    <glyph glyph-name="AE" unicode="&#xc6;" horiz-adv-x="1017" 
d="M515 247h-356v-247h-80v487c0 107 25 180 258 180h609v-68h-351v-224h335v-68h-335v-239h351v-68h-431v247zM515 317v287h-178c-167 0 -178 -44 -178 -126v-161h356z" />
    <glyph glyph-name="Ccedilla" unicode="&#xc7;" horiz-adv-x="666" 
d="M592 173c0 -108 -25 -180 -258 -180s-258 72 -258 180v322c0 107 25 180 258 180s258 -73 258 -180v-40h-80v31c0 82 -11 126 -178 126s-178 -44 -178 -126v-304c0 -83 11 -126 178 -126s178 43 178 126v50h80v-59zM413 -155c0 -22 -18 -45 -81 -45c-65 0 -77 23 -77 45
v21h54v-16c0 -10 9 -18 26 -18s24 8 24 18v59c0 10 -7 18 -24 18c-11 0 -21 -4 -24 -12l-3 -8h-54l27 93h47l-13 -51l6 2c9 3 25 5 36 5c37 0 56 -16 56 -38v-73z" />
    <glyph glyph-name="Egrave" unicode="&#xc8;" horiz-adv-x="586" 
d="M515 599h-351v-224h335v-68h-335v-239h351v-68h-431v667h431v-68zM163 852h86l94 -112h-70z" />
    <glyph glyph-name="Eacute" unicode="&#xc9;" horiz-adv-x="586" 
d="M515 599h-351v-224h335v-68h-335v-239h351v-68h-431v667h431v-68zM439 852l-110 -112h-70l94 112h86z" />
    <glyph glyph-name="Ecircumflex" unicode="&#xca;" horiz-adv-x="586" 
d="M515 599h-351v-224h335v-68h-335v-239h351v-68h-431v667h431v-68zM441 740h-76l-72 70l-72 -70h-76l113 106h70z" />
    <glyph glyph-name="Edieresis" unicode="&#xcb;" horiz-adv-x="586" 
d="M515 599h-351v-224h335v-68h-335v-239h351v-68h-431v667h431v-68zM419 755h-76v78h76v-78zM244 755h-76v78h76v-78z" />
    <glyph glyph-name="Igrave" unicode="&#xcc;" horiz-adv-x="265" 
d="M173 0h-81v667h81v-667zM-4 852h86l94 -112h-70z" />
    <glyph glyph-name="Iacute" unicode="&#xcd;" horiz-adv-x="265" 
d="M173 0h-81v667h81v-667zM266 852l-110 -112h-70l94 112h86z" />
    <glyph glyph-name="Icircumflex" unicode="&#xce;" horiz-adv-x="265" 
d="M173 0h-81v667h81v-667zM280 740h-76l-72 70l-72 -70h-76l113 106h70z" />
    <glyph glyph-name="Idieresis" unicode="&#xcf;" horiz-adv-x="265" 
d="M173 0h-81v667h81v-667zM258 755h-76v78h76v-78zM83 755h-76v78h76v-78z" />
    <glyph glyph-name="Eth" unicode="&#xd0;" horiz-adv-x="685" 
d="M93 301h-72v65h72v301h305c159 0 211 -72 211 -180v-307c0 -108 -52 -180 -211 -180h-305v301zM173 366h72v-65h-72v-238h220c99 0 136 43 136 126v290c0 84 -39 125 -136 125h-220v-238z" />
    <glyph glyph-name="Ntilde" unicode="&#xd1;" horiz-adv-x="699" 
d="M615 0h-97l-359 579v-579h-75v667h102l354 -570v570h75v-667zM292 786c-11 0 -35 -12 -52 -37l-32 26c22 39 61 64 92 64c45 0 66 -44 107 -44c11 0 35 12 52 37l32 -26c-22 -38 -61 -64 -92 -64c-45 0 -66 44 -107 44z" />
    <glyph glyph-name="Ograve" unicode="&#xd2;" horiz-adv-x="673" 
d="M597 173c0 -108 -27 -180 -261 -180c-233 0 -260 72 -260 180v322c0 107 27 180 260 180c234 0 261 -73 261 -180v-322zM517 182v304c0 82 -14 126 -181 126c-166 0 -180 -44 -180 -126v-304c0 -82 14 -126 180 -126c167 0 181 44 181 126zM186 852h86l94 -112h-70z" />
    <glyph glyph-name="Oacute" unicode="&#xd3;" horiz-adv-x="673" 
d="M597 173c0 -108 -27 -180 -261 -180c-233 0 -260 72 -260 180v322c0 107 27 180 260 180c234 0 261 -73 261 -180v-322zM517 182v304c0 82 -14 126 -181 126c-166 0 -180 -44 -180 -126v-304c0 -82 14 -126 180 -126c167 0 181 44 181 126zM474 852l-110 -112h-70l94 112
h86z" />
    <glyph glyph-name="Ocircumflex" unicode="&#xd4;" horiz-adv-x="673" 
d="M597 173c0 -108 -27 -180 -261 -180c-233 0 -260 72 -260 180v322c0 107 27 180 260 180c234 0 261 -73 261 -180v-322zM517 182v304c0 82 -14 126 -181 126c-166 0 -180 -44 -180 -126v-304c0 -82 14 -126 180 -126c167 0 181 44 181 126zM484 740h-76l-72 70l-72 -70
h-76l113 106h70z" />
    <glyph glyph-name="Otilde" unicode="&#xd5;" horiz-adv-x="673" 
d="M597 173c0 -108 -27 -180 -261 -180c-233 0 -260 72 -260 180v322c0 107 27 180 260 180c234 0 261 -73 261 -180v-322zM517 182v304c0 82 -14 126 -181 126c-166 0 -180 -44 -180 -126v-304c0 -82 14 -126 180 -126c167 0 181 44 181 126zM279 786
c-11 0 -35 -12 -52 -37l-32 26c22 39 61 64 92 64c45 0 66 -44 107 -44c11 0 35 12 52 37l32 -26c-22 -38 -61 -64 -92 -64c-45 0 -66 44 -107 44z" />
    <glyph glyph-name="Odieresis" unicode="&#xd6;" horiz-adv-x="673" 
d="M597 173c0 -108 -27 -180 -261 -180c-233 0 -260 72 -260 180v322c0 107 27 180 260 180c234 0 261 -73 261 -180v-322zM517 182v304c0 82 -14 126 -181 126c-166 0 -180 -44 -180 -126v-304c0 -82 14 -126 180 -126c167 0 181 44 181 126zM462 755h-76v78h76v-78z
M287 755h-76v78h76v-78z" />
    <glyph glyph-name="multiply" unicode="&#xd7;" 
d="M251 316c0 -57 -46 -102 -102 -102c-57 0 -103 45 -103 102s46 103 102 103c57 0 103 -46 103 -103z" />
    <glyph glyph-name="Oslash" unicode="&#xd8;" horiz-adv-x="668" 
d="M592 173c0 -108 -25 -180 -258 -180s-258 72 -258 180v322c0 107 25 180 258 180s258 -73 258 -180v-322zM497 566c-20 30 -64 46 -163 46c-167 0 -178 -44 -178 -126v-297zM512 182v296l-341 -377c20 -30 64 -45 163 -45c167 0 178 43 178 126z" />
    <glyph glyph-name="Ugrave" unicode="&#xd9;" horiz-adv-x="674" 
d="M595 173c0 -108 -25 -180 -258 -180s-258 72 -258 180v494h80v-484c0 -82 11 -126 178 -126s178 44 178 126v484h80v-494zM203 852h86l94 -112h-70z" />
    <glyph glyph-name="Uacute" unicode="&#xda;" horiz-adv-x="674" 
d="M595 173c0 -108 -25 -180 -258 -180s-258 72 -258 180v494h80v-484c0 -82 11 -126 178 -126s178 44 178 126v484h80v-494zM477 852l-110 -112h-70l94 112h86z" />
    <glyph glyph-name="Ucircumflex" unicode="&#xdb;" horiz-adv-x="674" 
d="M595 173c0 -108 -25 -180 -258 -180s-258 72 -258 180v494h80v-484c0 -82 11 -126 178 -126s178 44 178 126v484h80v-494zM485 740h-76l-72 70l-72 -70h-76l113 106h70z" />
    <glyph glyph-name="Udieresis" unicode="&#xdc;" horiz-adv-x="674" 
d="M595 173c0 -108 -25 -180 -258 -180s-258 72 -258 180v494h80v-484c0 -82 11 -126 178 -126s178 44 178 126v484h80v-494zM463 755h-76v78h76v-78zM288 755h-76v78h76v-78z" />
    <glyph glyph-name="Yacute" unicode="&#xdd;" horiz-adv-x="627" 
d="M594 667l-241 -416v-251h-80v251l-240 416h89l191 -341l192 341h89zM461 852l-110 -112h-70l94 112h86z" />
    <glyph glyph-name="Thorn" unicode="&#xde;" horiz-adv-x="664" 
d="M600 312c0 -107 -50 -180 -214 -180h-222v-132h-80v667h80v-60h222c164 0 214 -72 214 -180v-115zM520 321v98c0 82 -37 125 -134 125h-222v-349h222c98 0 134 44 134 126z" />
    <glyph glyph-name="germandbls" unicode="&#xdf;" horiz-adv-x="592" 
d="M535 180c0 -119 -20 -180 -253 -180h-87v62h87c167 0 178 33 178 125c0 79 -16 121 -168 121h-97v63h97c142 0 155 40 155 118v17c0 66 -11 112 -150 112s-150 -46 -150 -112v-506h-75v516c0 91 25 162 225 162c199 0 225 -71 225 -162v-29c0 -106 -44 -132 -95 -147
c70 -14 108 -50 108 -148v-12z" />
    <glyph glyph-name="agrave" unicode="&#xe0;" horiz-adv-x="586" 
d="M518 0h-64l-11 56c-47 -45 -92 -62 -197 -62c-124 0 -183 63 -183 141c0 81 37 155 226 155h154v25c0 79 -32 114 -138 114c-102 0 -143 -27 -143 -71l-75 7c0 81 74 123 218 123c167 0 213 -62 213 -163v-325zM443 169v62h-154c-134 0 -151 -55 -151 -94
c0 -37 31 -79 120 -79c124 0 185 39 185 111zM158 667h86l94 -112h-70z" />
    <glyph glyph-name="aacute" unicode="&#xe1;" horiz-adv-x="586" 
d="M518 0h-64l-11 56c-47 -45 -92 -62 -197 -62c-124 0 -183 63 -183 141c0 81 37 155 226 155h154v25c0 79 -32 114 -138 114c-102 0 -143 -27 -143 -71l-75 7c0 81 74 123 218 123c167 0 213 -62 213 -163v-325zM443 169v62h-154c-134 0 -151 -55 -151 -94
c0 -37 31 -79 120 -79c124 0 185 39 185 111zM428 667l-110 -112h-70l94 112h86zM318 488v67v-67z" />
    <glyph glyph-name="acircumflex" unicode="&#xe2;" horiz-adv-x="586" 
d="M518 0h-64l-11 56c-47 -45 -92 -62 -197 -62c-124 0 -183 63 -183 141c0 81 37 155 226 155h154v25c0 79 -32 114 -138 114c-102 0 -143 -27 -143 -71l-75 7c0 81 74 123 218 123c167 0 213 -62 213 -163v-325zM443 169v62h-154c-134 0 -151 -55 -151 -94
c0 -37 31 -79 120 -79c124 0 185 39 185 111zM441 555h-76l-72 70l-72 -70h-76l113 106h70z" />
    <glyph glyph-name="atilde" unicode="&#xe3;" horiz-adv-x="586" 
d="M518 0h-64l-11 56c-47 -45 -92 -62 -197 -62c-124 0 -183 63 -183 141c0 81 37 155 226 155h154v25c0 79 -32 114 -138 114c-102 0 -143 -27 -143 -71l-75 7c0 81 74 123 218 123c167 0 213 -62 213 -163v-325zM443 169v62h-154c-134 0 -151 -55 -151 -94
c0 -37 31 -79 120 -79c124 0 185 39 185 111zM236 601c-11 0 -35 -12 -52 -37l-32 26c22 39 61 64 92 64c45 0 66 -44 107 -44c11 0 35 12 52 37l32 -26c-22 -38 -61 -64 -92 -64c-45 0 -66 44 -107 44z" />
    <glyph glyph-name="adieresis" unicode="&#xe4;" horiz-adv-x="586" 
d="M518 0h-64l-11 56c-47 -45 -92 -62 -197 -62c-124 0 -183 63 -183 141c0 81 37 155 226 155h154v25c0 79 -32 114 -138 114c-102 0 -143 -27 -143 -71l-75 7c0 81 74 123 218 123c167 0 213 -62 213 -163v-325zM443 169v62h-154c-134 0 -151 -55 -151 -94
c0 -37 31 -79 120 -79c124 0 185 39 185 111zM419 570h-76v78h76v-78zM244 570h-76v78h76v-78z" />
    <glyph glyph-name="aring" unicode="&#xe5;" horiz-adv-x="586" 
d="M518 0h-64l-11 56c-47 -45 -92 -62 -197 -62c-124 0 -183 63 -183 141c0 81 37 155 226 155h154v25c0 79 -32 114 -138 114c-102 0 -143 -27 -143 -71l-75 7c0 81 74 123 218 123c167 0 213 -62 213 -163v-325zM443 169v62h-154c-134 0 -151 -55 -151 -94
c0 -37 31 -79 120 -79c124 0 185 39 185 111zM373 605c0 -45 -36 -81 -80 -81s-80 36 -80 81c0 44 36 80 80 80s80 -36 80 -80zM334 605c0 22 -18 41 -41 41s-41 -19 -41 -41c0 -23 18 -41 41 -41s41 18 41 41z" />
    <glyph glyph-name="ae" unicode="&#xe6;" horiz-adv-x="953" 
d="M462 65c-55 -52 -116 -71 -216 -71c-124 0 -183 63 -183 141c0 81 37 155 226 155h154v25c0 79 -32 114 -138 114c-102 0 -143 -27 -143 -71l-75 7c0 81 74 123 218 123c105 0 157 -39 172 -67c18 27 55 67 190 67c197 0 223 -72 223 -163v-103h-372v-56
c0 -67 12 -113 149 -113c131 0 147 45 148 98h75c0 -84 -25 -157 -223 -157c-125 0 -181 28 -205 71zM815 315c0 67 -11 114 -148 114s-149 -47 -149 -114v-33h297v33zM443 169v62h-154c-134 0 -151 -55 -151 -94c0 -37 31 -79 120 -79c124 0 185 39 185 111z" />
    <glyph glyph-name="ccedilla" unicode="&#xe7;" horiz-adv-x="561" 
d="M500 156c0 -91 -21 -162 -218 -162c-198 0 -219 71 -219 162v169c0 91 21 163 219 163c197 0 218 -72 218 -163v-12h-75v2c0 67 -6 114 -143 114s-144 -47 -144 -114v-149c0 -67 7 -113 144 -113s143 46 143 113v9h75v-19zM360 -155c0 -22 -18 -45 -81 -45
c-65 0 -77 23 -77 45v21h54v-16c0 -10 9 -18 26 -18s24 8 24 18v59c0 10 -7 18 -24 18c-11 0 -21 -4 -24 -12l-3 -8h-54l27 93h47l-13 -51l6 2c9 3 25 5 36 5c37 0 56 -16 56 -38v-73z" />
    <glyph glyph-name="egrave" unicode="&#xe8;" horiz-adv-x="573" 
d="M510 151c0 -84 -25 -157 -223 -157s-224 71 -224 162v169c0 91 26 163 224 163c197 0 223 -72 223 -163v-103h-372v-56c0 -67 12 -113 149 -113c131 0 147 45 148 98h75zM435 315c0 67 -11 114 -148 114s-149 -47 -149 -114v-33h297v33zM151 667h86l94 -112h-70z" />
    <glyph glyph-name="eacute" unicode="&#xe9;" horiz-adv-x="573" 
d="M510 151c0 -84 -25 -157 -223 -157s-224 71 -224 162v169c0 91 26 163 224 163c197 0 223 -72 223 -163v-103h-372v-56c0 -67 12 -113 149 -113c131 0 147 45 148 98h75zM435 315c0 67 -11 114 -148 114s-149 -47 -149 -114v-33h297v33zM421 667l-110 -112h-70l94 112h86
z" />
    <glyph glyph-name="ecircumflex" unicode="&#xea;" horiz-adv-x="573" 
d="M510 151c0 -84 -25 -157 -223 -157s-224 71 -224 162v169c0 91 26 163 224 163c197 0 223 -72 223 -163v-103h-372v-56c0 -67 12 -113 149 -113c131 0 147 45 148 98h75zM435 315c0 67 -11 114 -148 114s-149 -47 -149 -114v-33h297v33zM434 555h-76l-72 70l-72 -70h-76
l113 106h70z" />
    <glyph glyph-name="edieresis" unicode="&#xeb;" horiz-adv-x="573" 
d="M510 151c0 -84 -25 -157 -223 -157s-224 71 -224 162v169c0 91 26 163 224 163c197 0 223 -72 223 -163v-103h-372v-56c0 -67 12 -113 149 -113c131 0 147 45 148 98h75zM435 315c0 67 -11 114 -148 114s-149 -47 -149 -114v-33h297v33zM412 570h-76v78h76v-78zM237 570
h-76v78h76v-78z" />
    <glyph glyph-name="igrave" unicode="&#xec;" horiz-adv-x="227" 
d="M151 0h-75v482h75v-482zM-17 667h86l94 -112h-70z" />
    <glyph glyph-name="iacute" unicode="&#xed;" horiz-adv-x="227" 
d="M151 0h-75v482h75v-482zM243 667l-110 -112h-70l94 112h86z" />
    <glyph glyph-name="icircumflex" unicode="&#xee;" horiz-adv-x="227" 
d="M151 0h-75v482h75v-482zM261 555h-76l-72 70l-72 -70h-76l113 106h70z" />
    <glyph glyph-name="idieresis" unicode="&#xef;" horiz-adv-x="227" 
d="M151 0h-75v482h75v-482zM239 570h-76v78h76v-78zM64 570h-76v78h76v-78z" />
    <glyph glyph-name="eth" unicode="&#xf0;" horiz-adv-x="573" 
d="M354 547c1 0 -100 -27 -100 -27v59l58 16c-28 29 -57 54 -83 72h87c19 -15 40 -34 61 -55l101 27v-59l-59 -16c50 -66 91 -150 91 -248v-160c0 -91 -24 -162 -223 -162c-200 0 -224 71 -224 162v164c0 95 28 168 205 168c78 0 126 -21 151 -53c-14 40 -38 78 -65 112z
M435 306c0 78 -24 118 -154 118s-143 -40 -143 -118v-140c0 -67 10 -113 149 -113s148 46 148 113v140z" />
    <glyph glyph-name="ntilde" unicode="&#xf1;" horiz-adv-x="576" 
d="M508 0h-75v306c0 78 -13 118 -143 118c-105 0 -142 -36 -142 -122v-302h-75v482h64l11 -56c20 35 68 62 156 62c177 0 204 -73 204 -168v-320zM231 601c-11 0 -35 -12 -52 -37l-32 26c22 39 61 64 92 64c45 0 66 -44 107 -44c11 0 35 12 52 37l32 -26
c-22 -38 -61 -64 -92 -64c-45 0 -66 44 -107 44z" />
    <glyph glyph-name="ograve" unicode="&#xf2;" horiz-adv-x="573" 
d="M510 156c0 -91 -24 -162 -223 -162c-200 0 -224 71 -224 162v170c0 91 24 162 224 162c199 0 223 -71 223 -162v-170zM435 166v150c0 67 -9 113 -148 113s-149 -46 -149 -113v-150c0 -67 10 -113 149 -113s148 46 148 113zM151 667h86l94 -112h-70z" />
    <glyph glyph-name="oacute" unicode="&#xf3;" horiz-adv-x="573" 
d="M510 156c0 -91 -24 -162 -223 -162c-200 0 -224 71 -224 162v170c0 91 24 162 224 162c199 0 223 -71 223 -162v-170zM435 166v150c0 67 -9 113 -148 113s-149 -46 -149 -113v-150c0 -67 10 -113 149 -113s148 46 148 113zM419 667l-110 -112h-70l94 112h86z" />
    <glyph glyph-name="ocircumflex" unicode="&#xf4;" horiz-adv-x="573" 
d="M510 156c0 -91 -24 -162 -223 -162c-200 0 -224 71 -224 162v170c0 91 24 162 224 162c199 0 223 -71 223 -162v-170zM435 166v150c0 67 -9 113 -148 113s-149 -46 -149 -113v-150c0 -67 10 -113 149 -113s148 46 148 113zM434 555h-76l-72 70l-72 -70h-76l113 106h70z
" />
    <glyph glyph-name="otilde" unicode="&#xf5;" horiz-adv-x="573" 
d="M510 156c0 -91 -24 -162 -223 -162c-200 0 -224 71 -224 162v170c0 91 24 162 224 162c199 0 223 -71 223 -162v-170zM435 166v150c0 67 -9 113 -148 113s-149 -46 -149 -113v-150c0 -67 10 -113 149 -113s148 46 148 113zM229 601c-11 0 -35 -12 -52 -37l-32 26
c22 39 61 64 92 64c45 0 66 -44 107 -44c11 0 35 12 52 37l32 -26c-22 -38 -61 -64 -92 -64c-45 0 -66 44 -107 44z" />
    <glyph glyph-name="odieresis" unicode="&#xf6;" horiz-adv-x="573" 
d="M510 156c0 -91 -24 -162 -223 -162c-200 0 -224 71 -224 162v170c0 91 24 162 224 162c199 0 223 -71 223 -162v-170zM435 166v150c0 67 -9 113 -148 113s-149 -46 -149 -113v-150c0 -67 10 -113 149 -113s148 46 148 113zM412 570h-76v78h76v-78zM237 570h-76v78h76v-78
z" />
    <glyph glyph-name="divide" unicode="&#xf7;" 
d="M251 316c0 -57 -46 -102 -102 -102c-57 0 -103 45 -103 102s46 103 102 103c57 0 103 -46 103 -103z" />
    <glyph glyph-name="oslash" unicode="&#xf8;" horiz-adv-x="573" 
d="M510 156c0 -91 -24 -162 -223 -162c-200 0 -224 71 -224 162v170c0 91 24 162 224 162c199 0 223 -71 223 -162v-170zM396 410c-22 12 -56 19 -109 19c-139 0 -149 -46 -149 -113v-150c0 -14 0 -26 2 -38zM435 166v150c0 14 0 26 -2 38l-256 -282c22 -12 56 -19 110 -19
c139 0 148 46 148 113z" />
    <glyph glyph-name="ugrave" unicode="&#xf9;" horiz-adv-x="570" 
d="M495 0h-64l-11 56c-20 -36 -72 -62 -152 -62c-177 0 -200 73 -200 168v320h75v-306c0 -78 9 -118 139 -118c105 0 138 36 138 122v302h75v-482zM150 667h86l94 -112h-70z" />
    <glyph glyph-name="uacute" unicode="&#xfa;" horiz-adv-x="570" 
d="M495 0h-64l-11 56c-20 -36 -72 -62 -152 -62c-177 0 -200 73 -200 168v320h75v-306c0 -78 9 -118 139 -118c105 0 138 36 138 122v302h75v-482zM420 667l-110 -112h-70l94 112h86z" />
    <glyph glyph-name="ucircumflex" unicode="&#xfb;" horiz-adv-x="570" 
d="M495 0h-64l-11 56c-20 -36 -72 -62 -152 -62c-177 0 -200 73 -200 168v320h75v-306c0 -78 9 -118 139 -118c105 0 138 36 138 122v302h75v-482zM433 555h-76l-72 70l-72 -70h-76l113 106h70z" />
    <glyph glyph-name="udieresis" unicode="&#xfc;" horiz-adv-x="570" 
d="M495 0h-64l-11 56c-20 -36 -72 -62 -152 -62c-177 0 -200 73 -200 168v320h75v-306c0 -78 9 -118 139 -118c105 0 138 36 138 122v302h75v-482zM411 570h-76v78h76v-78zM236 570h-76v78h76v-78z" />
    <glyph glyph-name="yacute" unicode="&#xfd;" horiz-adv-x="571" 
d="M498 -55c0 -92 -24 -158 -211 -158c-191 0 -214 69 -214 147h75c1 -50 14 -88 139 -88c132 0 136 41 136 107v102c-28 -38 -73 -61 -154 -61c-176 0 -201 73 -201 168v320h75v-306c0 -78 10 -118 140 -118s140 40 140 118v306h75v-537zM430 667l-110 -112h-70l94 112h86z
" />
    <glyph glyph-name="thorn" unicode="&#xfe;" horiz-adv-x="573" 
d="M510 320v-158c0 -95 -28 -168 -205 -168c-86 0 -135 25 -157 62v-256h-75v867h75v-241c17 30 62 62 157 62c177 0 205 -73 205 -168zM435 306c0 78 -13 118 -143 118s-144 -40 -144 -118v-130c0 -78 14 -118 144 -118s143 40 143 118v130z" />
    <glyph glyph-name="ydieresis" unicode="&#xff;" horiz-adv-x="571" 
d="M498 -55c0 -92 -24 -158 -211 -158c-191 0 -214 69 -214 147h75c1 -50 14 -88 139 -88c132 0 136 41 136 107v102c-28 -38 -73 -61 -154 -61c-176 0 -201 73 -201 168v320h75v-306c0 -78 10 -118 140 -118s140 40 140 118v306h75v-537zM411 570h-76v78h76v-78zM236 570
h-76v78h76v-78z" />
    <glyph glyph-name="fraction" unicode="&#x2044;" horiz-adv-x="787" 
d="M482 667l-293 -667h-54l291 667h56z" />
    <glyph glyph-name="fraction" unicode="&#x2215;" horiz-adv-x="787" 
d="M482 667l-293 -667h-54l291 667h56z" />
    <glyph glyph-name="breve" unicode="&#x2d8;" horiz-adv-x="357" 
d="M321 657c-5 -46 -40 -93 -132 -93h-22c-91 0 -126 47 -131 93h44c8 -38 52 -45 98 -45c47 0 91 7 100 45h43z" />
    <glyph glyph-name="dotaccent" unicode="&#x2d9;" horiz-adv-x="186" 
d="M150 555h-114v105h114v-105z" />
    <glyph glyph-name="ring" unicode="&#x2da;" horiz-adv-x="232" 
d="M196 605c0 -45 -36 -81 -80 -81s-80 36 -80 81c0 44 36 80 80 80s80 -36 80 -80zM157 605c0 22 -18 41 -41 41s-41 -19 -41 -41c0 -23 18 -41 41 -41s41 18 41 41z" />
    <glyph glyph-name="hungarumlaut" unicode="&#x2dd;" horiz-adv-x="414" 
d="M378 667l-110 -112h-70l94 112h86zM216 667l-110 -112h-70l94 112h86z" />
    <glyph glyph-name="ogonek" unicode="&#x2db;" horiz-adv-x="230" 
d="M36 -156v28h54v-20c0 -12 7 -20 25 -20s25 8 25 20v40c0 5 -2 11 -4 15l-51 93h46l52 -68c7 -9 11 -22 11 -35v-53c0 -18 -15 -44 -80 -44s-78 22 -78 44z" />
    <glyph glyph-name="caron" unicode="&#x2c7;" horiz-adv-x="368" 
d="M36 661h76l72 -70l72 70h76l-113 -106h-70z" />
    <glyph glyph-name="Lslash" unicode="&#x141;" horiz-adv-x="583" 
d="M173 315v-247h359v-68h-439v293l-72 -19v71l72 19v303h80v-281l72 19v-71z" />
    <glyph glyph-name="dotlessi" unicode="&#x131;" horiz-adv-x="227" 
d="M151 0h-75v482h75v-482z" />
    <glyph glyph-name="lslash" unicode="&#x142;" horiz-adv-x="305" 
d="M193 321v-321h-81v299l-71 -19v59l71 19v309h81v-287l71 19v-59z" />
    <glyph glyph-name="minus" unicode="&#x2212;" 
d="M251 316c0 -57 -46 -102 -102 -102c-57 0 -103 45 -103 102s46 103 102 103c57 0 103 -46 103 -103z" />
    <glyph glyph-name=".null" horiz-adv-x="0" 
 />
    <glyph glyph-name="lessequal" unicode="&#x2264;" 
d="M251 316c0 -57 -46 -102 -102 -102c-57 0 -103 45 -103 102s46 103 102 103c57 0 103 -46 103 -103z" />
    <glyph glyph-name="greaterequal" unicode="&#x2265;" 
d="M251 316c0 -57 -46 -102 -102 -102c-57 0 -103 45 -103 102s46 103 102 103c57 0 103 -46 103 -103z" />
    <glyph glyph-name="partialdiff" unicode="&#x2202;" 
d="M251 316c0 -57 -46 -102 -102 -102c-57 0 -103 45 -103 102s46 103 102 103c57 0 103 -46 103 -103z" />
    <glyph glyph-name="summation" unicode="&#x2211;" 
d="M251 316c0 -57 -46 -102 -102 -102c-57 0 -103 45 -103 102s46 103 102 103c57 0 103 -46 103 -103z" />
    <glyph glyph-name="product" unicode="&#x220f;" 
d="M251 316c0 -57 -46 -102 -102 -102c-57 0 -103 45 -103 102s46 103 102 103c57 0 103 -46 103 -103z" />
    <glyph glyph-name="pi" unicode="&#x3c0;" 
d="M251 316c0 -57 -46 -102 -102 -102c-57 0 -103 45 -103 102s46 103 102 103c57 0 103 -46 103 -103z" />
    <glyph glyph-name="integral" unicode="&#x222b;" 
d="M251 316c0 -57 -46 -102 -102 -102c-57 0 -103 45 -103 102s46 103 102 103c57 0 103 -46 103 -103z" />
    <glyph glyph-name="Omega" unicode="&#x3a9;" 
d="M251 316c0 -57 -46 -102 -102 -102c-57 0 -103 45 -103 102s46 103 102 103c57 0 103 -46 103 -103z" />
    <glyph glyph-name="Omega" unicode="&#x2126;" 
d="M251 316c0 -57 -46 -102 -102 -102c-57 0 -103 45 -103 102s46 103 102 103c57 0 103 -46 103 -103z" />
    <glyph glyph-name="radical" unicode="&#x221a;" 
d="M251 316c0 -57 -46 -102 -102 -102c-57 0 -103 45 -103 102s46 103 102 103c57 0 103 -46 103 -103z" />
    <glyph glyph-name="approxequal" unicode="&#x2248;" 
d="M251 316c0 -57 -46 -102 -102 -102c-57 0 -103 45 -103 102s46 103 102 103c57 0 103 -46 103 -103z" />
    <glyph glyph-name="Delta" unicode="&#x394;" 
d="M251 316c0 -57 -46 -102 -102 -102c-57 0 -103 45 -103 102s46 103 102 103c57 0 103 -46 103 -103z" />
    <glyph glyph-name="Delta" unicode="&#x2206;" 
d="M251 316c0 -57 -46 -102 -102 -102c-57 0 -103 45 -103 102s46 103 102 103c57 0 103 -46 103 -103z" />
    <glyph glyph-name="lozenge" unicode="&#x25ca;" 
d="M251 316c0 -57 -46 -102 -102 -102c-57 0 -103 45 -103 102s46 103 102 103c57 0 103 -46 103 -103z" />
    <glyph glyph-name="_293" 
d="M251 316c0 -57 -46 -102 -102 -102c-57 0 -103 45 -103 102s46 103 102 103c57 0 103 -46 103 -103z" />
    <glyph glyph-name="apple" 
d="M251 316c0 -57 -46 -102 -102 -102c-57 0 -103 45 -103 102s46 103 102 103c57 0 103 -46 103 -103z" />
    </font>
</defs>
</svg>
