<?xml version="1.0" standalone="no"?>
<!DOCTYPE svg PUBLIC "-//W3C//DTD SVG 1.1//EN" "http://www.w3.org/Graphics/SVG/1.1/DTD/svg11.dtd" >
<svg xmlns="http://www.w3.org/2000/svg" xmlns:xlink="http://www.w3.org/1999/xlink" version="1.1">
<metadata>
Created by FontForge 20160407 at Wed Oct 19 19:43:45 2016
 By Jimmy Wärting
Designed for Typetype in 2014 by Ivan Gladkikh. TT Prosto Sans is one of series of font families which were designed for use in web and mobile applications, print and multimedia environments. 
</metadata>
<defs>
<font id="TTProstoSans-Light" horiz-adv-x="650" >
  <font-face 
    font-family="TT Prosto Sans Thin"
    font-weight="300"
    font-stretch="normal"
    units-per-em="1000"
    panose-1="2 0 8 3 0 0 0 2 0 4"
    ascent="800"
    descent="-200"
    x-height="500"
    cap-height="700"
    bbox="-55 -290 1190 1005"
    underline-thickness="50"
    underline-position="-100"
    unicode-range="U+000D-F6D4"
  />
<missing-glyph horiz-adv-x="280" 
 />
    <glyph glyph-name=".notdef" horiz-adv-x="280" 
 />
    <glyph glyph-name=".null" horiz-adv-x="0" 
 />
    <glyph glyph-name=".null" horiz-adv-x="0" 
 />
    <glyph glyph-name="CR" unicode="&#xd;" horiz-adv-x="280" 
 />
    <glyph glyph-name="space" unicode=" " horiz-adv-x="280" 
 />
    <glyph glyph-name="slash" unicode="/" horiz-adv-x="495" 
d="M410 750h55l-380 -800h-55z" />
    <glyph glyph-name="backslash" unicode="\" horiz-adv-x="495" 
d="M30 750h55l380 -800h-55z" />
    <glyph glyph-name="less" unicode="&#x3c;" horiz-adv-x="540" 
d="M485 435l-360 -180v-10l360 -180v-60l-430 220v50l430 220v-60z" />
    <glyph glyph-name="equal" unicode="=" horiz-adv-x="530" 
d="M485 480v-50h-440v50h440zM485 260v-50h-440v50h440z" />
    <glyph glyph-name="greater" unicode="&#x3e;" horiz-adv-x="540" 
d="M415 255l-360 180v60l430 -220v-50l-430 -220v60l360 180v10z" />
    <glyph glyph-name="question" unicode="?" horiz-adv-x="550" 
d="M250 670c-110 0 -205 -65 -205 -65l-25 40s100 75 230 75c155 0 255 -105 255 -204c0 -166 -240 -196 -240 -306v-35h-55v35c0 140 240 170 240 306c0 79 -80 154 -200 154zM195 35c0 25 20 45 45 45s45 -20 45 -45s-20 -45 -45 -45s-45 20 -45 45z" />
    <glyph glyph-name="at" unicode="@" horiz-adv-x="995" 
d="M945 380c0 -159 -115 -280 -410 -280c-130 0 -220 85 -220 200s90 200 220 200c80 0 150 -25 150 -25v-310s205 25 205 215c0 160 -145 310 -385 310c-215 0 -390 -170 -390 -390s170 -390 400 -390c165 0 275 75 275 75l25 -45s-125 -80 -300 -80
c-265 0 -455 195 -455 440s195 440 445 440c270 0 440 -170 440 -360zM370 300c0 -85 65 -150 165 -150c56 0 95 5 95 5v285s-40 10 -95 10c-95 0 -165 -65 -165 -150z" />
    <glyph glyph-name="bracketleft" unicode="[" horiz-adv-x="355" 
d="M335 790v-50h-175v-960h175v-50h-230v1060h230z" />
    <glyph glyph-name="bracketright" unicode="]" horiz-adv-x="355" 
d="M20 740v50h230v-1060h-230v50h175v960h-175z" />
    <glyph glyph-name="braceleft" unicode="{" horiz-adv-x="400" 
d="M145 264v-8s70 -17 70 -111v-275c0 -50 40 -90 90 -90h75v-50h-78c-82 0 -142 60 -142 140v275c0 52 -38 90 -85 90h-35v50h35c47 0 85 38 85 90v275c0 80 60 140 142 140h78v-50h-75c-50 0 -90 -40 -90 -90v-275c0 -94 -70 -111 -70 -111z" />
    <glyph glyph-name="braceright" unicode="}" horiz-adv-x="400" 
d="M255 256v8s-70 17 -70 111v275c0 50 -40 90 -90 90h-75v50h78c82 0 142 -60 142 -140v-275c0 -52 38 -90 85 -90h35v-50h-35c-47 0 -85 -38 -85 -90v-275c0 -80 -60 -140 -142 -140h-78v50h75c50 0 90 40 90 90v275c0 94 70 111 70 111z" />
    <glyph glyph-name="asciicircum" unicode="^" horiz-adv-x="515" 
d="M420 380l-160 265h-5l-160 -265h-55l190 320h55l190 -320h-55z" />
    <glyph glyph-name="underscore" unicode="_" horiz-adv-x="480" 
d="M460 -70v-50h-440v50h440z" />
    <glyph glyph-name="section" unicode="&#xa7;" horiz-adv-x="560" 
d="M490 -45c0 -80 -85 -165 -230 -165c-117 0 -200 75 -200 75l25 40s75 -65 175 -65c115 0 175 60 175 115c0 145 -355 120 -355 300c0 125 140 155 140 155v5s-115 33 -115 145c0 85 75 160 205 160c112 0 180 -55 180 -55l-25 -40s-59 45 -155 45
c-100 0 -150 -50 -150 -110c0 -153 340 -125 340 -305c0 -125 -140 -155 -140 -155v-5s130 -30 130 -140zM445 255c0 90 -170 125 -170 125s-140 -15 -140 -125c0 -90 170 -125 170 -125s140 15 140 125z" />
    <glyph glyph-name="logicalnot" unicode="&#xac;" horiz-adv-x="570" 
d="M515 410v-195h-55v145h-405v50h460z" />
    <glyph glyph-name="plusminus" unicode="&#xb1;" horiz-adv-x="570" 
d="M520 130v-50h-470v50h210v235h-210v50h210v210h50v-210h210v-50h-210v-235h210z" />
    <glyph glyph-name="cedilla" unicode="&#xb8;" horiz-adv-x="315" 
d="M130 -70h25c75 0 120 -50 120 -110s-50 -110 -135 -110c-60 0 -100 30 -100 30l20 40s35 -25 80 -25c55 0 85 30 85 65s-30 65 -85 65h-30l-25 20v95h45v-70z" />
    <glyph glyph-name="paragraph" unicode="&#xb6;" horiz-adv-x="580" 
d="M235 700h335v-50h-110v-840h-55v840h-115v-840h-55v525c-110 0 -190 80 -190 180c0 110 75 185 190 185z" />
    <glyph glyph-name="grave" unicode="`" horiz-adv-x="237" 
d="M40 700h64l93 -180h-47z" />
    <glyph glyph-name="bar" unicode="|" horiz-adv-x="265" 
d="M160 820v-1010h-55v1010h55z" />
    <glyph glyph-name="asciitilde" unicode="~" horiz-adv-x="580" 
d="M400 300c35 0 70 35 70 80v50h50v-50c0 -80 -50 -130 -120 -130c-106 0 -141 130 -220 130c-35 0 -70 -35 -70 -80v-50h-50v50c0 80 50 130 120 130c106 0 141 -130 220 -130z" />
    <glyph glyph-name="tilde" unicode="&#x2dc;" horiz-adv-x="420" 
d="M135 675c-25 0 -45 -20 -45 -47v-38h-50v38c0 57 40 97 95 97c80 0 95 -90 150 -90c25 0 45 20 45 47v38h50v-38c0 -57 -40 -97 -95 -97c-80 0 -95 90 -150 90z" />
    <glyph glyph-name="circumflex" unicode="&#x2c6;" horiz-adv-x="445" 
d="M40 580l155 185h55l155 -185h-60l-120 140h-5l-120 -140h-60z" />
    <glyph glyph-name="period" unicode="." horiz-adv-x="200" 
d="M55 35c0 25 20 45 45 45s45 -20 45 -45s-20 -45 -45 -45s-45 20 -45 45z" />
    <glyph glyph-name="comma" unicode="," horiz-adv-x="195" 
d="M50 35c0 25 20 45 45 45s45 -20 45 -50c0 -95 -75 -145 -75 -145l-20 20s40 40 45 80v5c-20 0 -40 20 -40 45z" />
    <glyph glyph-name="semicolon" unicode=";" horiz-adv-x="195" 
d="M50 465c0 25 20 45 45 45s45 -20 45 -45s-20 -45 -45 -45s-45 20 -45 45zM50 35c0 25 20 45 45 45s45 -20 45 -50c0 -95 -75 -145 -75 -145l-20 20s40 40 45 80v5c-20 0 -40 20 -40 45z" />
    <glyph glyph-name="colon" unicode=":" horiz-adv-x="200" 
d="M55 35c0 25 20 45 45 45s45 -20 45 -45s-20 -45 -45 -45s-45 20 -45 45zM55 465c0 25 20 45 45 45s45 -20 45 -45s-20 -45 -45 -45s-45 20 -45 45z" />
    <glyph glyph-name="exclam" unicode="!" horiz-adv-x="280" 
d="M165 700v-360l-10 -165h-35l-10 165v360h55zM95 35c0 25 20 45 45 45s45 -20 45 -45s-20 -45 -45 -45s-45 20 -45 45z" />
    <glyph glyph-name="quotedblright" unicode="&#x201d;" horiz-adv-x="360" 
d="M60 665c0 25 20 45 45 45s45 -20 45 -50c0 -95 -75 -145 -75 -145l-20 20s40 40 45 80v5c-20 0 -40 20 -40 45zM215 665c0 25 20 45 45 45s45 -20 45 -50c0 -95 -75 -145 -75 -145l-20 20s40 40 45 80v5c-20 0 -40 20 -40 45z" />
    <glyph glyph-name="quotedblleft" unicode="&#x201c;" horiz-adv-x="365" 
d="M305 560c0 -25 -20 -45 -45 -45s-45 20 -45 50c0 95 75 145 75 145l20 -20s-40 -40 -45 -80v-5c20 0 40 -20 40 -45zM145 560c0 -25 -20 -45 -45 -45s-45 20 -45 50c0 95 75 145 75 145l20 -20s-40 -40 -45 -80v-5c20 0 40 -20 40 -45z" />
    <glyph glyph-name="numbersign" unicode="#" horiz-adv-x="760" 
d="M175 0h-55l45 180h-135v50h145l55 240h-145v50h155l45 180h55l-45 -180h240l45 180h55l-45 -180h140v-50h-150l-55 -240h150v-50h-160l-45 -180h-55l45 180h-240zM285 470l-55 -240h240l55 240h-240z" />
    <glyph glyph-name="dollar" unicode="$" horiz-adv-x="620" 
d="M75 530c0 86 75 170 210 187v83h50v-80c124 -4 210 -75 210 -75l-25 -40s-85 65 -195 65c-125 0 -195 -70 -195 -140c0 -195 435 -100 435 -335c0 -105 -83 -197 -230 -212v-83h-50v80c-142 2 -230 85 -230 85l25 40s85 -75 210 -75c145 0 220 75 220 165
c0 185 -435 90 -435 335z" />
    <glyph glyph-name="percent" unicode="%" horiz-adv-x="850" 
d="M624 700h62l-460 -700h-62zM85 550c0 -70 55 -125 120 -125s120 55 120 125s-55 125 -120 125s-120 -55 -120 -125zM375 550c0 -95 -75 -170 -170 -170s-170 75 -170 170s75 170 170 170s170 -75 170 -170zM525 150c0 -70 55 -125 120 -125s120 55 120 125
s-55 125 -120 125s-120 -55 -120 -125zM815 150c0 -95 -75 -170 -170 -170s-170 75 -170 170s75 170 170 170s170 -75 170 -170z" />
    <glyph glyph-name="ampersand" unicode="&#x26;" horiz-adv-x="740" 
d="M105 550c0 95 75 170 195 170s195 -75 195 -170c0 -110 -170 -185 -170 -185v-5l225 -200s70 80 70 195h50c0 -135 -80 -230 -80 -230l120 -110l-34 -35l-116 105s-90 -105 -260 -105c-165 0 -255 90 -255 190c0 140 175 200 175 200v5s-115 75 -115 175zM520 120
l-250 224s-170 -59 -170 -174c0 -70 70 -140 200 -140c150 0 220 90 220 90zM160 550c0 -80 115 -155 115 -155s165 65 165 155c0 65 -55 120 -140 120s-140 -55 -140 -120z" />
    <glyph glyph-name="parenleft" unicode="(" horiz-adv-x="390" 
d="M335 -275c0 0 -250 200 -250 535s250 535 250 535l35 -35s-230 -200 -230 -500s230 -500 230 -500z" />
    <glyph glyph-name="parenright" unicode=")" horiz-adv-x="390" 
d="M55 -275l-35 35s230 200 230 500s-230 500 -230 500l35 35s250 -200 250 -535s-250 -535 -250 -535z" />
    <glyph glyph-name="guilsinglleft" unicode="&#x2039;" horiz-adv-x="375" 
d="M325 465l-195 -210v-10l195 -210l-40 -40l-235 255l235 255z" />
    <glyph glyph-name="guilsinglright" unicode="&#x203a;" horiz-adv-x="375" 
d="M245 255l-195 210l40 40l235 -255l-235 -255l-40 40l195 210v10z" />
    <glyph glyph-name="guillemotleft" unicode="&#xab;" horiz-adv-x="515" 
d="M265 455l-145 -195v-10l145 -195l-45 -30l-170 230l170 230zM465 455l-145 -195v-10l145 -195l-45 -30l-170 230l170 230z" />
    <glyph glyph-name="guillemotright" unicode="&#xbb;" horiz-adv-x="515" 
d="M395 260l-145 195l45 30l170 -230l-170 -230l-45 30l145 195v10zM195 260l-145 195l45 30l170 -230l-170 -230l-45 30l145 195v10z" />
    <glyph glyph-name="bullet" unicode="&#x2022;" horiz-adv-x="380" 
d="M110 300c0 44 36 80 80 80s80 -36 80 -80s-36 -80 -80 -80s-80 36 -80 80z" />
    <glyph glyph-name="caron" unicode="&#x2c7;" horiz-adv-x="445" 
d="M195 580l-155 185h60l120 -140h5l120 140h60l-155 -185h-55z" />
    <glyph glyph-name="brokenbar" unicode="&#xa6;" horiz-adv-x="265" 
d="M160 820v-420h-55v420h55zM160 -190h-55v420h55v-420z" />
    <glyph glyph-name="dieresis" unicode="&#xa8;" horiz-adv-x="375" 
d="M40 665c0 25 20 45 45 45s45 -20 45 -45s-20 -45 -45 -45s-45 20 -45 45zM245 665c0 25 20 45 45 45s45 -20 45 -45s-20 -45 -45 -45s-45 20 -45 45z" />
    <glyph glyph-name="ring" unicode="&#x2da;" horiz-adv-x="340" 
d="M300 640c0 -70 -55 -125 -130 -125s-130 55 -130 125s55 125 130 125s130 -55 130 -125zM85 640c0 -45 35 -80 85 -80s85 35 85 80s-35 80 -85 80s-85 -35 -85 -80z" />
    <glyph glyph-name="copyright" unicode="&#xa9;" horiz-adv-x="1010" 
d="M315 300c0 115 85 200 210 200c85 0 135 -45 135 -45l-25 -40s-45 35 -110 35c-90 0 -155 -65 -155 -150s65 -150 155 -150c65 0 120 35 120 35l25 -39s-60 -46 -145 -46c-125 0 -210 86 -210 200zM950 300c0 -245 -195 -440 -445 -440s-445 195 -445 440
s195 440 445 440s445 -195 445 -440zM115 300c0 -220 170 -390 390 -390s390 170 390 390s-170 390 -390 390s-390 -170 -390 -390z" />
    <glyph glyph-name="registered" unicode="&#xae;" horiz-adv-x="1010" 
d="M710 110h-70l-115 150h-125v-150h-55v380h200c95 0 145 -50 145 -115c0 -85 -100 -105 -100 -105v-5zM545 440h-145v-130h145c60 0 90 30 90 65s-30 65 -90 65zM950 300c0 -245 -195 -440 -445 -440s-445 195 -445 440s195 440 445 440s445 -195 445 -440zM115 300
c0 -220 170 -390 390 -390s390 170 390 390s-170 390 -390 390s-390 -170 -390 -390z" />
    <glyph glyph-name="hyphen" unicode="-" horiz-adv-x="530" 
d="M490 370v-50h-450v50h450z" />
    <glyph glyph-name="quotesingle" unicode="'" horiz-adv-x="180" 
d="M105 475h-30l-10 105v120h50v-120z" />
    <glyph glyph-name="quotedbl" unicode="&#x22;" horiz-adv-x="335" 
d="M105 475h-30l-10 105v120h50v-120zM260 475h-30l-10 105v120h50v-120z" />
    <glyph glyph-name="dagger" unicode="&#x2020;" horiz-adv-x="605" 
d="M565 445v-50h-235v-575h-55v575h-235v50h235v255h55v-255h235z" />
    <glyph glyph-name="daggerdbl" unicode="&#x2021;" horiz-adv-x="615" 
d="M570 100v-50h-235v-230h-55v230h-235v50h235v320h-235v50h235v230h55v-230h235v-50h-235v-320h235z" />
    <glyph glyph-name="Euro" unicode="&#x20ac;" horiz-adv-x="765" 
d="M485 670c-146 0 -262 -89 -301 -220h371v-50h-380s-5 -25 -5 -50s5 -50 5 -50h380v-50h-371c39 -132 155 -220 301 -220c120 0 205 70 205 70l25 -40s-90 -80 -230 -80c-175 0 -316 111 -358 270h-107v50h100s-5 25 -5 50s5 50 5 50h-100v50h107c42 159 183 270 358 270
c130 0 220 -75 220 -75l-25 -41s-85 66 -195 66z" />
    <glyph glyph-name="trademark" unicode="&#x2122;" horiz-adv-x="885" 
d="M740 635l-115 -230h-45l-115 230h-5l-35 -275h-45l40 340h55l125 -240h5l125 240h55l40 -340h-45l-35 275h-5zM10 700h340v-45h-145v-295h-50v295h-145v45z" />
    <glyph glyph-name="afii10050" unicode="&#x490;" horiz-adv-x="610" 
d="M105 0v700h440v100h55v-150h-440v-650h-55z" />
    <glyph glyph-name="degree" unicode="&#xb0;" horiz-adv-x="410" 
d="M370 560c0 -90 -70 -160 -165 -160s-165 70 -165 160s70 160 165 160s165 -70 165 -160zM85 560c0 -65 55 -120 120 -120s120 55 120 120s-55 120 -120 120s-120 -55 -120 -120z" />
    <glyph glyph-name="ogonek" unicode="&#x2db;" horiz-adv-x="300" 
d="M160 -240c-75 0 -120 45 -120 100c0 80 110 140 110 140h65s-125 -70 -125 -140c0 -30 25 -55 70 -55c42 0 80 25 80 25l20 -35s-43 -35 -100 -35z" />
    <glyph glyph-name="macron" unicode="&#xaf;" horiz-adv-x="415" 
d="M375 670v-50h-335v50h335z" />
    <glyph glyph-name="zero" unicode="0" horiz-adv-x="730" 
d="M665 350c0 -235 -135 -370 -300 -370s-300 135 -300 370s135 370 300 370s300 -135 300 -370zM120 350c0 -205 115 -320 245 -320s245 115 245 320s-115 320 -245 320s-245 -115 -245 -320z" />
    <glyph glyph-name="one" unicode="1" horiz-adv-x="405" 
d="M245 700h50v-700h-55v625h-5l-175 -150l-30 40z" />
    <glyph glyph-name="two" unicode="2" horiz-adv-x="630" 
d="M545 510c0 -105 -90 -195 -210 -290l-210 -165v-5h435v-50h-520v50l260 205c120 95 190 165 190 255c0 80 -80 160 -215 160c-110 0 -200 -66 -200 -66l-25 41s95 75 225 75c170 0 270 -105 270 -210z" />
    <glyph glyph-name="three" unicode="3" horiz-adv-x="615" 
d="M170 410l280 235v5h-405v50h490v-50l-280 -235v-5c200 0 295 -95 295 -215c0 -115 -100 -215 -290 -215c-135 0 -230 80 -230 80l25 40s90 -70 205 -70c160 0 235 75 235 165s-75 165 -235 165h-90v50z" />
    <glyph glyph-name="four" unicode="4" horiz-adv-x="665" 
d="M30 170v50l440 480h55v-480h110v-50h-110v-170h-55v170h-440zM105 220h365v400h-5l-360 -394v-6z" />
    <glyph glyph-name="five" unicode="5" 
d="M105 340v360h460v-50h-405v-265h5s65 45 170 45c160 0 260 -100 260 -225s-100 -225 -290 -225c-135 0 -230 80 -230 80l25 40s90 -70 205 -70c160 0 235 75 235 175s-75 175 -205 175c-115 0 -195 -65 -195 -65z" />
    <glyph glyph-name="six" unicode="6" horiz-adv-x="670" 
d="M355 30c120 0 205 85 205 180s-85 180 -215 180c-135 0 -225 -75 -225 -75c0 -175 110 -285 235 -285zM355 -20c-160 0 -290 130 -290 360c0 240 140 380 305 380c125 0 210 -75 210 -75l-25 -40s-80 65 -185 65c-130 0 -250 -120 -250 -295h5s85 65 220 65
c165 0 270 -105 270 -230s-105 -230 -260 -230z" />
    <glyph glyph-name="seven" unicode="7" horiz-adv-x="570" 
d="M235 0h-60l305 645v5h-450v50h510v-50z" />
    <glyph glyph-name="eight" unicode="8" horiz-adv-x="670" 
d="M335 720c155 0 245 -90 245 -185c0 -125 -140 -155 -140 -155v-5s175 -30 175 -185c0 -110 -100 -210 -280 -210s-280 100 -280 210c0 155 175 185 175 185v5s-140 30 -140 155c0 95 90 185 245 185zM525 535c0 65 -70 135 -190 135s-190 -70 -190 -135s70 -135 190 -135
s190 70 190 135zM560 190c0 80 -80 160 -225 160s-225 -80 -225 -160s80 -160 225 -160s225 80 225 160z" />
    <glyph glyph-name="nine" unicode="9" horiz-adv-x="670" 
d="M315 670c-120 0 -205 -85 -205 -180s85 -180 215 -180c135 0 225 75 225 75c0 175 -110 285 -235 285zM315 720c160 0 290 -130 290 -360c0 -240 -140 -380 -305 -380c-125 0 -210 75 -210 75l25 40s80 -65 185 -65c130 0 250 120 250 295h-5s-85 -65 -220 -65
c-165 0 -270 105 -270 230s105 230 260 230z" />
    <glyph glyph-name="A" unicode="A" horiz-adv-x="735" 
d="M405 700l315 -700h-60l-81 180h-423l-81 -180h-60l315 700h75zM365 645l-187 -415h378l-186 415h-5z" />
    <glyph glyph-name="B" unicode="B" horiz-adv-x="740" 
d="M105 0v700h280c175 0 255 -80 255 -180c0 -120 -130 -145 -130 -145v-5s175 -25 175 -175c0 -110 -85 -195 -265 -195h-315zM420 340h-260v-290h260c150 0 210 60 210 145c0 80 -65 145 -210 145zM160 390h225c136 0 200 60 200 130c0 65 -65 130 -200 130h-225v-260z
" />
    <glyph glyph-name="C" unicode="C" horiz-adv-x="715" 
d="M435 670c-180 0 -315 -135 -315 -320s135 -320 315 -320c120 0 205 70 205 70l25 -40s-90 -80 -230 -80c-210 0 -370 160 -370 370s160 370 370 370c130 0 220 -75 220 -75l-25 -40s-85 65 -195 65z" />
    <glyph glyph-name="D" unicode="D" horiz-adv-x="770" 
d="M105 700h255c200 0 350 -150 350 -350s-150 -350 -350 -350h-255v700zM360 650h-200v-600h200c165 0 295 130 295 300s-130 300 -295 300z" />
    <glyph glyph-name="E" unicode="E" horiz-adv-x="675" 
d="M105 0v700h530v-50h-475v-270h345v-50h-345v-280h485v-50h-540z" />
    <glyph glyph-name="F" unicode="F" 
d="M105 0v700h525v-50h-470v-300h340v-50h-340v-300h-55z" />
    <glyph glyph-name="G" unicode="G" horiz-adv-x="765" 
d="M435 670c-180 0 -315 -135 -315 -320s135 -320 315 -320c120 0 195 60 195 60v240h-210v50h265v-315s-110 -85 -250 -85c-210 0 -370 160 -370 370s160 370 370 370c130 0 220 -75 220 -75l-25 -41s-85 66 -195 66z" />
    <glyph glyph-name="H" unicode="H" horiz-adv-x="800" 
d="M640 700h55v-700h-55v320h-480v-320h-55v700h55v-330h480v330z" />
    <glyph glyph-name="I" unicode="I" horiz-adv-x="265" 
d="M160 700v-700h-55v700h55z" />
    <glyph glyph-name="J" unicode="J" horiz-adv-x="540" 
d="M390 240v410h-270v50h325v-460c0 -160 -100 -260 -245 -260c-105 0 -180 60 -180 60l25 40s65 -50 155 -50c110 0 190 80 190 210z" />
    <glyph glyph-name="K" unicode="K" horiz-adv-x="700" 
d="M665 700l-300 -285l325 -415h-70l-295 375l-165 -155v-220h-55v700h55v-405h5l425 405h75z" />
    <glyph glyph-name="L" unicode="L" horiz-adv-x="630" 
d="M105 0v700h55v-650h450v-50h-505z" />
    <glyph glyph-name="M" unicode="M" horiz-adv-x="995" 
d="M495 180h5l260 520h65l90 -700h-55l-80 615h-5l-250 -505h-55l-250 505h-5l-80 -615h-55l90 700h65z" />
    <glyph glyph-name="N" unicode="N" horiz-adv-x="800" 
d="M165 615h-5v-615h-55v700h60l470 -615h5v615h55v-700h-60z" />
    <glyph glyph-name="O" unicode="O" horiz-adv-x="840" 
d="M120 350c0 -185 135 -320 300 -320s300 135 300 320s-135 320 -300 320s-300 -135 -300 -320zM775 350c0 -210 -160 -370 -355 -370s-355 160 -355 370s160 370 355 370s355 -160 355 -370z" />
    <glyph glyph-name="P" unicode="P" horiz-adv-x="730" 
d="M395 650h-235v-350h235c155 0 230 75 230 175s-75 175 -230 175zM160 250v-250h-55v700h290c185 0 285 -95 285 -225s-100 -225 -285 -225h-235z" />
    <glyph glyph-name="Q" unicode="Q" horiz-adv-x="840" 
d="M775 350c0 -205 -150 -300 -150 -300l105 -155h-60l-85 125s-70 -40 -165 -40c-195 0 -355 160 -355 370s160 370 355 370s355 -160 355 -370zM120 350c0 -185 135 -320 300 -320c80 0 135 35 135 35l-95 140h60l80 -115s120 80 120 260c0 185 -135 320 -300 320
s-300 -135 -300 -320z" />
    <glyph glyph-name="R" unicode="R" horiz-adv-x="745" 
d="M160 270v-270h-55v700h275c190 0 285 -90 285 -215c0 -165 -165 -200 -165 -200v-5l210 -280h-70l-205 270h-275zM380 650h-220v-330h220c160 0 230 70 230 165s-70 165 -230 165z" />
    <glyph glyph-name="S" unicode="S" horiz-adv-x="620" 
d="M75 530c0 95 95 190 250 190c130 0 220 -75 220 -75l-25 -40s-85 65 -195 65c-125 0 -195 -70 -195 -140c0 -195 435 -100 435 -335c0 -115 -100 -215 -275 -215c-145 0 -235 85 -235 85l25 40s85 -75 210 -75c145 0 220 75 220 165c0 185 -435 90 -435 335z" />
    <glyph glyph-name="T" unicode="T" horiz-adv-x="635" 
d="M20 700h595v-50h-270v-650h-55v650h-270v50z" />
    <glyph glyph-name="U" unicode="U" horiz-adv-x="780" 
d="M630 270v430h55v-430c0 -170 -120 -290 -295 -290s-295 120 -295 290v430h55v-430c0 -150 90 -240 240 -240s240 90 240 240z" />
    <glyph glyph-name="V" unicode="V" horiz-adv-x="695" 
d="M310 0l-295 700h60l270 -645h5l270 645h60l-295 -700h-75z" />
    <glyph glyph-name="W" unicode="W" horiz-adv-x="1055" 
d="M530 630h-5l-210 -630h-75l-215 700h60l195 -630h5l205 630h75l205 -630h5l195 630h60l-215 -700h-75z" />
    <glyph glyph-name="X" unicode="X" horiz-adv-x="705" 
d="M350 325l-265 -325h-70l300 365l-270 335h70l235 -290h5l235 290h70l-270 -335l300 -365h-70l-265 325h-5z" />
    <glyph glyph-name="Y" unicode="Y" horiz-adv-x="695" 
d="M70 700l275 -410h5l275 410h60l-310 -465v-235h-55v235l-310 465h60z" />
    <glyph glyph-name="Z" unicode="Z" horiz-adv-x="640" 
d="M45 650v50h555v-50l-490 -595v-5h495v-50h-570v50l490 595v5h-480z" />
    <glyph glyph-name="a" unicode="a" horiz-adv-x="590" 
d="M505 320v-300s-96 -40 -215 -40c-170 0 -245 75 -245 170s75 170 245 170c85 0 160 -20 160 -20v20c0 90 -59 150 -170 150c-91 0 -150 -45 -150 -45l-25 40s70 55 175 55c145 0 225 -80 225 -200zM450 55v195s-75 20 -160 20c-140 0 -190 -55 -190 -120
s55 -120 190 -120c88 0 160 25 160 25z" />
    <glyph glyph-name="b" unicode="b" horiz-adv-x="630" 
d="M295 30c135 0 225 90 225 220s-90 220 -225 220c-80 0 -145 -30 -145 -30v-380s65 -30 145 -30zM150 700v-210s55 30 145 30c170 0 280 -120 280 -270c0 -160 -110 -270 -280 -270c-100 0 -200 40 -200 40v680h55z" />
    <glyph glyph-name="c" unicode="c" horiz-adv-x="555" 
d="M490 85l25 -40s-75 -65 -185 -65c-160 0 -275 116 -275 270c0 155 115 270 275 270c110 0 175 -55 175 -55l-25 -40s-55 45 -150 45c-130 0 -220 -90 -220 -220s90 -220 220 -220c95 0 160 55 160 55z" />
    <glyph glyph-name="d" unicode="d" horiz-adv-x="630" 
d="M335 30c80 0 145 30 145 30v380s-65 30 -145 30c-135 0 -225 -90 -225 -220s90 -220 225 -220zM480 490v210h55v-680s-100 -40 -200 -40c-170 0 -280 110 -280 270c0 150 110 270 280 270c90 0 145 -30 145 -30z" />
    <glyph glyph-name="f" unicode="f" horiz-adv-x="395" 
d="M180 543v-48h185v-50h-185v-445h-55v445h-95v50h95v48c0 102 75 177 175 177c65 0 115 -35 115 -35l-25 -40s-40 25 -90 25c-70 0 -120 -50 -120 -127z" />
    <glyph glyph-name="g" unicode="g" horiz-adv-x="625" 
d="M335 470c-135 0 -225 -90 -225 -210s90 -210 225 -210c80 0 145 30 145 30v360s-65 30 -145 30zM480 10v21s-55 -31 -145 -31c-170 0 -280 120 -280 260c0 143 110 260 280 260c100 0 200 -40 200 -40v-470c0 -115 -105 -220 -260 -220c-110 0 -185 65 -185 65l25 40
s65 -55 160 -55c125 0 205 80 205 170z" />
    <glyph glyph-name="h" unicode="h" 
d="M95 0v700h55v-205s75 25 160 25c160 0 255 -95 255 -225v-295h-55v295c0 100 -75 175 -200 175c-85 0 -160 -25 -160 -25v-445h-55z" />
    <glyph glyph-name="i" unicode="i" horiz-adv-x="240" 
d="M75 665c0 25 20 45 45 45s45 -20 45 -45s-20 -45 -45 -45s-45 20 -45 45zM90 0v500h55v-500h-55z" />
    <glyph glyph-name="j" unicode="j" horiz-adv-x="245" 
d="M100 40v460h55v-460c0 -180 -160 -236 -160 -236l-20 36s125 55 125 200zM80 665c0 25 20 45 45 45s45 -20 45 -45s-20 -45 -45 -45s-45 20 -45 45z" />
    <glyph glyph-name="k" unicode="k" horiz-adv-x="555" 
d="M525 500l-225 -205l245 -295h-65l-215 260l-115 -105v-155h-55v700h55v-475h5l300 275h70z" />
    <glyph glyph-name="l" unicode="l" horiz-adv-x="260" 
d="M165 700v-700h-55v650h-80v50h135z" />
    <glyph glyph-name="m" unicode="m" horiz-adv-x="920" 
d="M440 450h5s70 70 175 70c135 0 215 -80 215 -210v-310h-55v310c0 100 -60 160 -160 160c-80 0 -145 -65 -145 -65s15 -25 15 -95v-310h-55v310c0 100 -60 160 -160 160c-75 0 -130 -25 -130 -25v-445h-55v480s80 40 185 40c120 0 165 -70 165 -70z" />
    <glyph glyph-name="n" unicode="n" horiz-adv-x="645" 
d="M90 0v480s100 40 215 40c160 0 255 -95 255 -225v-295h-55v295c0 100 -75 175 -200 175c-85 0 -160 -25 -160 -25v-445h-55z" />
    <glyph glyph-name="o" unicode="o" horiz-adv-x="640" 
d="M110 250c0 -130 90 -220 210 -220s210 90 210 220s-90 220 -210 220s-210 -90 -210 -220zM585 250c0 -155 -115 -270 -265 -270s-265 115 -265 270s115 270 265 270s265 -115 265 -270z" />
    <glyph glyph-name="p" unicode="p" horiz-adv-x="625" 
d="M290 470c-80 0 -145 -30 -145 -30v-380s65 -30 145 -30c135 0 225 90 225 220s-90 220 -225 220zM145 10v-200h-55v670s100 40 200 40c170 0 280 -110 280 -270c0 -150 -110 -270 -280 -270c-90 0 -145 30 -145 30z" />
    <glyph glyph-name="q" unicode="q" horiz-adv-x="625" 
d="M335 470c-135 0 -225 -90 -225 -220s90 -220 225 -220c80 0 145 30 145 30v380s-65 30 -145 30zM480 -190v200s-55 -30 -145 -30c-170 0 -280 120 -280 270c0 160 110 270 280 270c100 0 200 -40 200 -40v-670h-55z" />
    <glyph glyph-name="r" unicode="r" horiz-adv-x="445" 
d="M265 470c-70 0 -120 -25 -120 -25v-445h-55v480s75 40 175 40s165 -45 165 -45l-25 -45s-60 40 -140 40z" />
    <glyph glyph-name="s" unicode="s" horiz-adv-x="515" 
d="M470 135c0 -80 -75 -155 -230 -155c-115 0 -195 70 -195 70l25 40s70 -60 170 -60c125 0 175 50 175 105c0 135 -345 60 -345 240c0 75 70 145 200 145c110 0 180 -60 180 -60l-25 -40s-60 50 -155 50c-100 0 -145 -45 -145 -95c0 -130 345 -55 345 -240z" />
    <glyph glyph-name="t" unicode="t" horiz-adv-x="435" 
d="M140 640h35v-140h185v-50h-185v-295c0 -75 50 -125 120 -125c55 0 90 25 90 25l25 -40s-50 -35 -115 -35c-100 0 -175 75 -175 175v295h-95v50h95z" />
    <glyph glyph-name="u" unicode="u" 
d="M560 500v-480s-100 -40 -215 -40c-160 0 -255 95 -255 225v295h55v-295c0 -100 75 -175 200 -175c85 0 160 25 160 25v445h55z" />
    <glyph glyph-name="v" unicode="v" horiz-adv-x="540" 
d="M268 55h4l198 445h60l-225 -500h-70l-225 500h60z" />
    <glyph glyph-name="w" unicode="w" horiz-adv-x="825" 
d="M230 65l150 435h65l150 -435h5l145 435h60l-170 -500h-70l-150 430h-5l-150 -430h-70l-170 500h60l145 -435h5z" />
    <glyph glyph-name="y" unicode="y" 
d="M560 500v-485c0 -125 -100 -225 -260 -225c-110 0 -185 65 -185 65l25 40s64 -55 160 -55c125 0 205 80 205 175v10s-73 -25 -160 -25c-160 0 -255 95 -255 225v275h55v-275c0 -100 75 -175 200 -175c85 0 160 25 160 25v425h55z" />
    <glyph glyph-name="z" unicode="z" horiz-adv-x="510" 
d="M35 450v50h430v-50l-355 -395v-5h365v-50h-440v50l355 395v5h-355z" />
    <glyph glyph-name="afii10018" unicode="&#x411;" horiz-adv-x="725" 
d="M675 215c0 -120 -95 -215 -275 -215h-295v700h510v-50h-455v-220h240c180 0 275 -95 275 -215zM620 215c0 90 -75 165 -220 165h-240v-330h240c145 0 220 75 220 165z" />
    <glyph glyph-name="afii10020" unicode="&#x413;" horiz-adv-x="610" 
d="M105 0v700h495v-50h-440v-650h-55z" />
    <glyph glyph-name="afii10021" unicode="&#x414;" horiz-adv-x="780" 
d="M200 700h445v-650h95v-210h-55v160h-630v-160h-55v210h10c60 0 125 60 140 195zM120 55v-5h470v600h-340l-45 -405c-15 -135 -85 -190 -85 -190z" />
    <glyph glyph-name="afii10024" unicode="&#x416;" horiz-adv-x="1125" 
d="M130 700l55 -180c24 -80 85 -140 190 -140h160v320h55v-320h160c105 0 165 60 190 140l55 180h55l-55 -180c-46 -150 -140 -170 -140 -170v-5l245 -345h-70l-235 330h-205v-330h-55v330h-205l-235 -330h-70l245 345v5s-94 20 -140 170l-55 180h55z" />
    <glyph glyph-name="afii10025" unicode="&#x417;" horiz-adv-x="595" 
d="M265 -20c-145 0 -235 85 -235 85l25 40s85 -75 210 -75c145 0 220 75 220 160s-75 160 -220 160h-85v50h90c130 0 195 65 195 135s-65 135 -195 135c-110 0 -195 -65 -195 -65l-25 40s90 75 220 75c160 0 250 -90 250 -185c0 -135 -145 -155 -145 -155v-5
s165 -30 165 -185c0 -110 -100 -210 -275 -210z" />
    <glyph glyph-name="afii10026" unicode="&#x418;" horiz-adv-x="800" 
d="M640 610h-5l-475 -610h-55v700h55v-610h5l475 610h55v-700h-55v610z" />
    <glyph glyph-name="afii10027" unicode="&#x419;" horiz-adv-x="800" 
d="M640 610h-5l-475 -610h-55v700h55v-610h5l475 610h55v-700h-55v610zM402 830c70 0 115 45 115 115h50c0 -95 -70 -165 -165 -165s-165 70 -165 165h50c0 -70 45 -115 115 -115z" />
    <glyph glyph-name="afii10029" unicode="&#x41b;" horiz-adv-x="790" 
d="M230 700h455v-700h-55v650h-350l-50 -425c-21 -175 -90 -245 -190 -245c-25 0 -40 7 -40 7v43h35c65 0 124 60 140 195z" />
    <glyph glyph-name="afii10033" unicode="&#x41f;" horiz-adv-x="800" 
d="M105 700h590v-700h-55v650h-480v-650h-55v700z" />
    <glyph glyph-name="afii10037" unicode="&#x423;" horiz-adv-x="680" 
d="M230 0l100 185h-20l-290 515h60l265 -465h10l255 465h60l-380 -700h-60z" />
    <glyph glyph-name="afii10038" unicode="&#x424;" horiz-adv-x="955" 
d="M450 645v75h55v-75c270 0 405 -140 405 -295s-135 -295 -405 -295v-85h-55v85c-270 0 -405 140 -405 295s135 295 405 295zM505 595v-490c235 0 350 115 350 245s-115 245 -350 245zM450 105v490c-235 0 -350 -115 -350 -245s115 -245 350 -245z" />
    <glyph glyph-name="afii10040" unicode="&#x426;" horiz-adv-x="810" 
d="M105 0v700h55v-650h460v650h55v-650h95v-210h-55v160h-610z" />
    <glyph glyph-name="afii10041" unicode="&#x427;" horiz-adv-x="740" 
d="M85 510v190h55v-190c0 -130 90 -220 220 -220c125 0 220 56 220 56v354h55v-700h-55v295s-95 -55 -220 -55c-165 0 -275 110 -275 270z" />
    <glyph glyph-name="afii10042" unicode="&#x428;" horiz-adv-x="1115" 
d="M1010 0h-905v700h55v-650h370v650h55v-650h370v650h55v-700z" />
    <glyph glyph-name="afii10043" unicode="&#x429;" horiz-adv-x="1145" 
d="M105 0v700h55v-650h370v650h55v-650h370v650h55v-650h95v-210h-55v160h-945z" />
    <glyph glyph-name="afii10044" unicode="&#x42a;" horiz-adv-x="770" 
d="M240 700v-250h195c185 0 285 -95 285 -225s-100 -225 -285 -225h-250v650h-185v50h240zM240 50h195c155 0 230 75 230 175s-75 175 -230 175h-195v-350z" />
    <glyph glyph-name="afii10045" unicode="&#x42b;" horiz-adv-x="960" 
d="M855 700v-700h-55v700h55zM160 50h200c155 0 230 75 230 175s-75 175 -230 175h-200v-350zM160 700v-250h200c185 0 285 -95 285 -225s-100 -225 -285 -225h-255v700h55z" />
    <glyph glyph-name="afii10046" unicode="&#x42c;" horiz-adv-x="710" 
d="M160 50h215c155 0 230 75 230 175s-75 175 -230 175h-215v-350zM160 700v-250h215c185 0 285 -95 285 -225s-100 -225 -285 -225h-270v700h55z" />
    <glyph glyph-name="afii10047" unicode="&#x42d;" horiz-adv-x="705" 
d="M270 670c-110 0 -195 -66 -195 -66l-25 41s90 75 220 75c210 0 370 -160 370 -370s-160 -370 -370 -370c-140 0 -230 80 -230 80l25 40s85 -70 205 -70c175 0 300 125 315 295h-365v50h365c-15 170 -140 295 -315 295z" />
    <glyph glyph-name="afii10048" unicode="&#x42e;" horiz-adv-x="1095" 
d="M1030 350c0 -215 -155 -370 -350 -370c-190 0 -335 145 -350 340h-170v-320h-55v700h55v-330h170c10 205 155 350 350 350s350 -155 350 -370zM385 350c0 -190 130 -320 295 -320s295 130 295 320s-130 320 -295 320s-295 -130 -295 -320z" />
    <glyph glyph-name="afii10049" unicode="&#x42f;" horiz-adv-x="750" 
d="M590 0v270h-290l-200 -270h-70l210 280v5s-160 35 -160 200c0 125 95 215 275 215h290v-700h-55zM590 650h-235c-150 0 -220 -70 -220 -165s70 -165 220 -165h235v330z" />
    <glyph glyph-name="afii10065" unicode="&#x430;" horiz-adv-x="590" 
d="M505 320v-300s-96 -40 -215 -40c-170 0 -245 75 -245 170s75 170 245 170c85 0 160 -20 160 -20v20c0 90 -59 150 -170 150c-91 0 -150 -45 -150 -45l-25 40s70 55 175 55c145 0 225 -80 225 -200zM450 55v195s-75 20 -160 20c-140 0 -190 -55 -190 -120
s55 -120 190 -120c88 0 160 25 160 25z" />
    <glyph glyph-name="afii10066" unicode="&#x431;" horiz-adv-x="620" 
d="M120 389v-34h6s54 110 194 110c143 0 250 -109 250 -244s-107 -241 -250 -241c-146 0 -250 105 -250 240v165c0 185 105 292 260 310l210 25l5 -50l-210 -25c-120 -14 -215 -110 -215 -256zM515 220c0 111 -83 195 -195 195c-113 0 -195 -84 -195 -195s82 -190 195 -190
c112 0 195 79 195 190z" />
    <glyph glyph-name="afii10067" unicode="&#x432;" horiz-adv-x="580" 
d="M395 270v-5s135 -15 135 -125c0 -80 -70 -150 -235 -150c-105 0 -205 20 -205 20v480s95 20 190 20c155 0 220 -65 220 -135c0 -90 -105 -105 -105 -105zM297 240h-152v-185s65 -15 150 -15c130 0 180 50 180 100s-50 100 -178 100zM145 290h135c120 0 165 45 165 85
s-45 85 -165 85c-65 0 -135 -15 -135 -15v-155z" />
    <glyph glyph-name="afii10068" unicode="&#x433;" horiz-adv-x="485" 
d="M90 500h385v-50h-330v-450h-55v500z" />
    <glyph glyph-name="afii10069" unicode="&#x434;" horiz-adv-x="625" 
d="M155 500h355v-450h85v-190h-55v140h-485v-140h-55v190h10c50 0 103 50 115 165zM110 50h345v400h-250l-25 -235c-13 -125 -70 -161 -70 -160v-5z" />
    <glyph glyph-name="afii10072" unicode="&#x436;" horiz-adv-x="875" 
d="M250 230l-160 -230h-65l175 250v5s-78 15 -110 125l-35 120h55l35 -120c16 -55 60 -100 150 -100h115v220h55v-220h115c90 0 134 45 150 100l35 120h55l-35 -120c-32 -110 -110 -125 -110 -125v-5l175 -250h-65l-160 230h-160v-230h-55v230h-160z" />
    <glyph glyph-name="afii10073" unicode="&#x437;" horiz-adv-x="505" 
d="M225 -20c-115 0 -195 70 -195 70l25 40s70 -60 170 -60c125 0 175 50 175 105s-50 105 -175 105h-50v50h60c100 0 145 45 145 90s-45 90 -145 90c-95 0 -155 -50 -155 -50l-25 40s70 60 180 60c130 0 200 -70 200 -140c0 -95 -100 -110 -100 -110v-5s120 -20 120 -130
c0 -80 -75 -155 -230 -155z" />
    <glyph glyph-name="afii10074" unicode="&#x438;" horiz-adv-x="630" 
d="M485 500h55v-500h-55v415h-5l-335 -415h-55v500h55v-415h5z" />
    <glyph glyph-name="afii10075" unicode="&#x439;" horiz-adv-x="630" 
d="M485 500h55v-500h-55v415h-5l-335 -415h-55v500h55v-415h5zM315 625c65 0 105 40 105 105h50c0 -85 -65 -150 -155 -150s-155 65 -155 150h50c0 -65 40 -105 105 -105z" />
    <glyph glyph-name="afii10076" unicode="&#x43a;" horiz-adv-x="580" 
d="M490 0l-160 230h-185v-230h-55v500h55v-220h140c90 0 134 45 150 100l35 120h55l-35 -120c-32 -111 -110 -125 -110 -125v-5l175 -250h-65z" />
    <glyph glyph-name="afii10077" unicode="&#x43b;" horiz-adv-x="635" 
d="M180 500h365v-500h-55v450h-260l-30 -255c-17 -145 -85 -215 -165 -215c-20 0 -35 5 -35 5v45h30c50 0 102 50 115 165z" />
    <glyph glyph-name="afii10078" unicode="&#x43c;" horiz-adv-x="775" 
d="M415 60h-55l-180 360h-5l-55 -420h-55l65 500h65l190 -375h5l190 375h65l65 -500h-55l-55 420h-5z" />
    <glyph glyph-name="afii10079" unicode="&#x43d;" horiz-adv-x="635" 
d="M90 0v500h55v-225h345v225h55v-500h-55v225h-345v-225h-55z" />
    <glyph glyph-name="afii10080" unicode="&#x43e;" horiz-adv-x="640" 
d="M110 250c0 -130 90 -220 210 -220s210 90 210 220s-90 220 -210 220s-210 -90 -210 -220zM585 250c0 -155 -115 -270 -265 -270s-265 115 -265 270s115 270 265 270s265 -115 265 -270z" />
    <glyph glyph-name="afii10081" unicode="&#x43f;" horiz-adv-x="635" 
d="M90 0v500h455v-500h-55v450h-345v-450h-55z" />
    <glyph glyph-name="afii10082" unicode="&#x440;" horiz-adv-x="625" 
d="M290 470c-80 0 -145 -30 -145 -30v-380s65 -30 145 -30c135 0 225 90 225 220s-90 220 -225 220zM145 10v-200h-55v670s100 40 200 40c170 0 280 -110 280 -270c0 -150 -110 -270 -280 -270c-90 0 -145 30 -145 30z" />
    <glyph glyph-name="afii10083" unicode="&#x441;" horiz-adv-x="555" 
d="M490 85l25 -40s-75 -65 -185 -65c-160 0 -275 116 -275 270c0 155 115 270 275 270c110 0 175 -55 175 -55l-25 -40s-55 45 -150 45c-130 0 -220 -90 -220 -220s90 -220 220 -220c95 0 160 55 160 55z" />
    <glyph glyph-name="afii10084" unicode="&#x442;" horiz-adv-x="495" 
d="M15 500h465v-50h-205v-450h-55v450h-205v50z" />
    <glyph glyph-name="afii10085" unicode="&#x443;" horiz-adv-x="545" 
d="M175 -190l80 190h-20l-220 500h55l200 -450h10l190 450h60l-295 -690h-60z" />
    <glyph glyph-name="afii10086" unicode="&#x444;" horiz-adv-x="835" 
d="M390 -190v195s-50 -25 -105 -25c-135 0 -230 95 -230 270s95 270 230 270c55 0 105 -25 105 -25v205h55v-205s50 25 105 25c135 0 230 -95 230 -270s-95 -270 -230 -270c-55 0 -105 25 -105 25v-195h-55zM725 250c0 150 -70 220 -175 220c-55 0 -105 -25 -105 -25v-390
s50 -25 105 -25c105 0 175 70 175 220zM110 250c0 -150 70 -220 175 -220c55 0 105 25 105 25v390s-50 25 -105 25c-105 0 -175 -70 -175 -220z" />
    <glyph glyph-name="afii10087" unicode="&#x445;" horiz-adv-x="535" 
d="M100 500l165 -205h5l165 205h65l-195 -240l215 -260h-65l-185 220h-5l-185 -220h-65l215 260l-195 240h65z" />
    <glyph glyph-name="afii10088" unicode="&#x446;" horiz-adv-x="640" 
d="M90 0v500h55v-450h325v450h55v-450h85v-190h-55v140h-465z" />
    <glyph glyph-name="afii10089" unicode="&#x447;" horiz-adv-x="595" 
d="M285 215c85 0 165 35 165 35v250h55v-500h-55v195s-80 -30 -165 -30c-135 0 -215 80 -215 206v129h55v-129c0 -101 55 -156 160 -156z" />
    <glyph glyph-name="afii10090" unicode="&#x448;" horiz-adv-x="885" 
d="M90 0v500h55v-450h270v450h55v-450h270v450h55v-500h-705z" />
    <glyph glyph-name="afii10091" unicode="&#x449;" horiz-adv-x="910" 
d="M90 0v500h55v-450h270v450h55v-450h270v450h55v-450h85v-190h-55v140h-735z" />
    <glyph glyph-name="afii10092" unicode="&#x44a;" horiz-adv-x="630" 
d="M0 500h215v-170h145c155 0 230 -75 230 -170c0 -100 -70 -170 -230 -170c-100 0 -200 20 -200 20v440h-160v50zM360 40c125 0 175 50 175 120s-50 120 -175 120h-145v-225s75 -15 145 -15z" />
    <glyph glyph-name="afii10093" unicode="&#x44b;" horiz-adv-x="770" 
d="M680 500v-500h-55v500h55zM90 500h55v-170h140c160 0 230 -70 230 -170s-70 -170 -230 -170c-100 0 -195 20 -195 20v490zM285 40c125 0 175 50 175 120s-50 120 -175 120h-140v-225s70 -15 140 -15z" />
    <glyph glyph-name="afii10094" unicode="&#x44c;" horiz-adv-x="560" 
d="M90 500h55v-170h145c160 0 230 -70 230 -170s-70 -170 -230 -170c-100 0 -200 20 -200 20v490zM290 40c125 0 175 50 175 120s-50 120 -175 120h-145v-225s75 -15 145 -15z" />
    <glyph glyph-name="afii10095" unicode="&#x44d;" horiz-adv-x="545" 
d="M30 45l25 40s65 -55 160 -55c125 0 205 80 219 195h-269v50h269c-14 115 -94 195 -219 195c-95 0 -150 -45 -150 -45l-25 40s65 55 175 55c160 0 275 -115 275 -270c0 -154 -115 -270 -275 -270c-110 0 -185 65 -185 65z" />
    <glyph glyph-name="afii10096" unicode="&#x44e;" horiz-adv-x="845" 
d="M90 0v500h55v-225h126c9 135 119 245 259 245c145 0 260 -115 260 -270s-115 -270 -260 -270c-140 0 -250 110 -259 245h-126v-225h-55zM325 250c0 -130 90 -220 205 -220s205 90 205 220s-90 220 -205 220s-205 -90 -205 -220z" />
    <glyph glyph-name="afii10097" unicode="&#x44f;" horiz-adv-x="585" 
d="M495 0h-55v180h-210l-130 -180h-65l145 195v5s-115 30 -115 145c0 95 70 165 230 165c100 0 200 -20 200 -20v-490zM295 460c-125 0 -175 -50 -175 -115s50 -115 175 -115h145v215s-75 15 -145 15z" />
    <glyph glyph-name="afii10017" unicode="&#x410;" horiz-adv-x="735" 
d="M405 700l315 -700h-60l-81 180h-423l-81 -180h-60l315 700h75zM365 645l-187 -415h378l-186 415h-5z" />
    <glyph glyph-name="afii10019" unicode="&#x412;" horiz-adv-x="740" 
d="M105 0v700h280c175 0 255 -80 255 -180c0 -120 -130 -145 -130 -145v-5s175 -25 175 -175c0 -110 -85 -195 -265 -195h-315zM420 340h-260v-290h260c150 0 210 60 210 145c0 80 -65 145 -210 145zM160 390h225c136 0 200 60 200 130c0 65 -65 130 -200 130h-225v-260z
" />
    <glyph glyph-name="afii10028" unicode="&#x41a;" horiz-adv-x="735" 
d="M550 520l55 180h55l-55 -180c-46 -150 -140 -170 -140 -170v-5l245 -345h-70l-235 330h-245v-330h-55v700h55v-320h200c105 0 166 60 190 140z" />
    <glyph glyph-name="afii10031" unicode="&#x41d;" horiz-adv-x="800" 
d="M640 700h55v-700h-55v320h-480v-320h-55v700h55v-330h480v330z" />
    <glyph glyph-name="afii10032" unicode="&#x41e;" horiz-adv-x="840" 
d="M120 350c0 -185 135 -320 300 -320s300 135 300 320s-135 320 -300 320s-300 -135 -300 -320zM775 350c0 -210 -160 -370 -355 -370s-355 160 -355 370s160 370 355 370s355 -160 355 -370z" />
    <glyph glyph-name="afii10034" unicode="&#x420;" horiz-adv-x="730" 
d="M395 650h-235v-350h235c155 0 230 75 230 175s-75 175 -230 175zM160 250v-250h-55v700h290c185 0 285 -95 285 -225s-100 -225 -285 -225h-235z" />
    <glyph glyph-name="afii10035" unicode="&#x421;" horiz-adv-x="715" 
d="M435 670c-180 0 -315 -135 -315 -320s135 -320 315 -320c120 0 205 70 205 70l25 -40s-90 -80 -230 -80c-210 0 -370 160 -370 370s160 370 370 370c130 0 220 -75 220 -75l-25 -40s-85 65 -195 65z" />
    <glyph glyph-name="afii10036" unicode="&#x422;" horiz-adv-x="635" 
d="M20 700h595v-50h-270v-650h-55v650h-270v50z" />
    <glyph glyph-name="afii10039" unicode="&#x425;" horiz-adv-x="705" 
d="M350 325l-265 -325h-70l300 365l-270 335h70l235 -290h5l235 290h70l-270 -335l300 -365h-70l-265 325h-5z" />
    <glyph glyph-name="afii10022" unicode="&#x415;" horiz-adv-x="675" 
d="M105 0v700h530v-50h-475v-270h345v-50h-345v-280h485v-50h-540z" />
    <glyph glyph-name="afii10070" unicode="&#x435;" horiz-adv-x="600" 
d="M550 250l-25 -30h-415c5 -105 90 -190 215 -190c95 0 165 55 165 55l25 -40s-75 -65 -190 -65c-155 0 -270 115 -270 270c0 160 110 270 250 270s245 -105 245 -270zM110 270h385c-5 120 -85 200 -190 200s-185 -80 -195 -200z" />
    <glyph glyph-name="afii10030" unicode="&#x41c;" horiz-adv-x="995" 
d="M495 180h5l260 520h65l90 -700h-55l-80 615h-5l-250 -505h-55l-250 505h-5l-80 -615h-55l90 700h65z" />
    <glyph glyph-name="afii10058" unicode="&#x409;" horiz-adv-x="1135" 
d="M640 700v-250h160c185 0 285 -95 285 -225s-100 -225 -285 -225h-215v650h-305l-50 -425c-21 -175 -90 -245 -190 -245c-25 0 -40 7 -40 7v43h35c65 0 124 60 140 195l55 475h410zM640 50h160c155 0 230 75 230 175s-75 175 -230 175h-160v-350z" />
    <glyph glyph-name="afii10059" unicode="&#x40a;" horiz-adv-x="1120" 
d="M610 700v-290h200c170 0 260 -90 260 -205s-90 -205 -260 -205h-255v360h-395v-360h-55v700h55v-290h395v290h55zM610 50h200c140 0 205 65 205 155c0 85 -70 155 -205 155h-200v-310z" />
    <glyph glyph-name="afii10052" unicode="&#x403;" horiz-adv-x="610" 
d="M105 0v700h495v-50h-440v-650h-55zM410 960h65l-110 -180h-45z" />
    <glyph glyph-name="afii10100" unicode="&#x453;" horiz-adv-x="485" 
d="M90 500h385v-50h-330v-450h-55v500zM340 770h65l-110 -180h-45z" />
    <glyph glyph-name="afii10061" unicode="&#x40c;" horiz-adv-x="735" 
d="M550 520l55 180h55l-55 -180c-46 -150 -140 -170 -140 -170v-5l245 -345h-70l-235 330h-245v-330h-55v700h55v-320h200c105 0 166 60 190 140zM430 950h65l-110 -180h-45z" />
    <glyph glyph-name="afii10062" unicode="&#x40e;" horiz-adv-x="680" 
d="M230 0l100 185h-20l-290 515h60l265 -465h10l255 465h60l-380 -700h-60zM345 830c70 0 115 45 115 115h50c0 -95 -70 -165 -165 -165s-165 70 -165 165h50c0 -70 45 -115 115 -115z" />
    <glyph glyph-name="afii10110" unicode="&#x45e;" horiz-adv-x="530" 
d="M170 -190l80 190h-20l-220 500h55l200 -450h10l190 450h60l-295 -690h-60zM265 635c65 0 105 40 105 105h50c0 -85 -65 -150 -155 -150s-155 65 -155 150h50c0 -65 40 -105 105 -105z" />
    <glyph glyph-name="afii10109" unicode="&#x45c;" horiz-adv-x="580" 
d="M490 0l-160 230h-185v-230h-55v500h55v-220h140c90 0 134 45 150 100l35 120h55l-35 -120c-32 -111 -110 -125 -110 -125v-5l175 -250h-65zM360 760h65l-110 -180h-45z" />
    <glyph glyph-name="afii10060" unicode="&#x40b;" horiz-adv-x="820" 
d="M250 650v-250s96 55 220 55c165 0 275 -110 275 -265v-190h-55v190c0 130 -85 215 -220 215c-121 0 -220 -56 -220 -56v-349h-55v650h-195v50h505v-50h-255z" />
    <glyph glyph-name="quotesinglbase" unicode="&#x201a;" horiz-adv-x="195" 
d="M50 35c0 25 20 45 45 45s45 -20 45 -50c0 -95 -75 -145 -75 -145l-20 20s40 40 45 80v5c-20 0 -40 20 -40 45z" />
    <glyph glyph-name="quotedblbase" unicode="&#x201e;" horiz-adv-x="360" 
d="M215 35c0 25 20 45 45 45s45 -20 45 -50c0 -95 -75 -145 -75 -145l-20 20s40 40 45 80v5c-20 0 -40 20 -40 45zM60 35c0 25 20 45 45 45s45 -20 45 -50c0 -95 -75 -145 -75 -145l-20 20s40 40 45 80v5c-20 0 -40 20 -40 45z" />
    <glyph glyph-name="ellipsis" unicode="&#x2026;" horiz-adv-x="660" 
d="M55 35c0 25 20 45 45 45s45 -20 45 -45s-20 -45 -45 -45s-45 20 -45 45zM285 35c0 25 20 45 45 45s45 -20 45 -45s-20 -45 -45 -45s-45 20 -45 45zM515 35c0 25 20 45 45 45s45 -20 45 -45s-20 -45 -45 -45s-45 20 -45 45z" />
    <glyph glyph-name="perthousand" unicode="&#x2030;" horiz-adv-x="1225" 
d="M624 700h62l-460 -700h-62zM85 550c0 -70 55 -125 120 -125s120 55 120 125s-55 125 -120 125s-120 -55 -120 -125zM375 550c0 -95 -75 -170 -170 -170s-170 75 -170 170s75 170 170 170s170 -75 170 -170zM525 150c0 -70 55 -125 120 -125s120 55 120 125
s-55 125 -120 125s-120 -55 -120 -125zM815 150c0 -95 -75 -170 -170 -170s-170 75 -170 170s75 170 170 170s170 -75 170 -170zM900 150c0 -70 55 -125 120 -125s120 55 120 125s-55 125 -120 125s-120 -55 -120 -125zM1190 150c0 -95 -75 -170 -170 -170s-170 75 -170 170
s75 170 170 170s170 -75 170 -170z" />
    <glyph glyph-name="afii10071" unicode="&#x451;" horiz-adv-x="600" 
d="M550 250l-25 -30h-415c5 -105 90 -190 215 -190c95 0 165 55 165 55l25 -40s-75 -65 -190 -65c-155 0 -270 115 -270 270c0 160 110 270 250 270s245 -105 245 -270zM110 270h385c-5 120 -85 200 -190 200s-185 -80 -195 -200zM159 665c0 25 20 45 45 45s45 -20 45 -45
s-20 -45 -45 -45s-45 20 -45 45zM364 665c0 25 20 45 45 45s45 -20 45 -45s-20 -45 -45 -45s-45 20 -45 45z" />
    <glyph glyph-name="afii61352" unicode="&#x2116;" horiz-adv-x="1185" 
d="M1125 290v-50h-310v50h310zM1140 550c0 -95 -75 -170 -170 -170s-170 75 -170 170s75 170 170 170s170 -75 170 -170zM165 610h-5v-610h-55v700h60l470 -610h5v610h55v-700h-60zM855 550c0 -70 55 -125 115 -125s115 55 115 125s-55 125 -115 125s-115 -55 -115 -125z
" />
    <glyph glyph-name="afii10057" unicode="&#x408;" horiz-adv-x="540" 
d="M390 240v410h-270v50h325v-460c0 -160 -100 -260 -245 -260c-105 0 -180 60 -180 60l25 40s65 -50 155 -50c110 0 190 80 190 210z" />
    <glyph glyph-name="afii10098" unicode="&#x491;" horiz-adv-x="485" 
d="M90 500h330v100h55v-150h-330v-450h-55v500z" />
    <glyph glyph-name="afii10023" unicode="&#x401;" horiz-adv-x="675" 
d="M220 865c0 25 20 45 45 45s45 -20 45 -45s-20 -45 -45 -45s-45 20 -45 45zM425 865c0 25 20 45 45 45s45 -20 45 -45s-20 -45 -45 -45s-45 20 -45 45zM105 0v700h530v-50h-475v-270h345v-50h-345v-280h485v-50h-540z" />
    <glyph glyph-name="afii10053" unicode="&#x404;" horiz-adv-x="715" 
d="M435 670c-175 0 -300 -125 -315 -295h365v-50h-365c15 -170 140 -295 315 -295c120 0 205 70 205 70l25 -40s-90 -80 -230 -80c-210 0 -370 160 -370 370s160 370 370 370c130 0 220 -75 220 -75l-25 -40s-85 65 -195 65z" />
    <glyph glyph-name="afii10101" unicode="&#x454;" horiz-adv-x="555" 
d="M490 80l25 -35s-75 -65 -185 -65c-160 0 -275 116 -275 270c0 155 115 270 275 270c110 0 175 -55 175 -55l-25 -40s-55 45 -150 45c-125 0 -205 -80 -219 -195h269v-50h-269c14 -115 94 -195 219 -195c95 0 160 50 160 50z" />
    <glyph glyph-name="afii10145" unicode="&#x40f;" horiz-adv-x="795" 
d="M690 0h-265v-160h-55v160h-265v700h55v-650h475v650h55v-700z" />
    <glyph glyph-name="afii10193" unicode="&#x45f;" horiz-adv-x="635" 
d="M90 0v500h55v-450h345v450h55v-500h-200v-140h-55v140h-200z" />
    <glyph glyph-name="afii10108" unicode="&#x45b;" horiz-adv-x="655" 
d="M575 230v-230h-55v230c0 95 -75 170 -195 170c-90 0 -165 -25 -165 -25v-375h-55v555h-95v50h95v95h55v-95h190v-50h-190v-131s75 26 165 26c155 0 250 -95 250 -220z" />
    <glyph glyph-name="periodcentered" unicode="&#xb7;" horiz-adv-x="290" 
d="M100 350c0 25 20 45 45 45s45 -20 45 -45s-20 -45 -45 -45s-45 20 -45 45z" />
    <glyph glyph-name="mu" unicode="&#xb5;" 
d="M150 60h-5v-244h-55v684h55v-295c0 -100 75 -175 200 -175c85 0 160 25 160 25v445h55v-480s-100 -40 -215 -40c-145 0 -195 80 -195 80z" />
    <glyph glyph-name="endash" unicode="&#x2013;" horiz-adv-x="675" 
d="M635 355v-50h-595v50h595z" />
    <glyph glyph-name="emdash" unicode="&#x2014;" horiz-adv-x="850" 
d="M810 355v-50h-770v50h770z" />
    <glyph glyph-name="afii10106" unicode="&#x459;" horiz-adv-x="925" 
d="M180 500h335v-170h140c155 0 230 -75 230 -170c0 -100 -70 -170 -230 -170c-100 0 -195 20 -195 20v440h-230l-30 -255c-18 -155 -80 -215 -165 -215c-20 0 -35 5 -35 5v45h30c50 0 102 50 115 165zM655 40c125 0 175 50 175 120s-50 120 -175 120h-140v-225
s70 -15 140 -15z" />
    <glyph glyph-name="afii10107" unicode="&#x45a;" horiz-adv-x="905" 
d="M90 0v500h55v-190h300v190h55v-190h152c143 0 213 -70 213 -160c0 -95 -65 -160 -213 -160c-97 0 -207 20 -207 20v250h-300v-260h-55zM652 40c108 0 158 50 158 110s-50 110 -158 110h-152v-206s85 -14 152 -14z" />
    <glyph glyph-name="afii10051" unicode="&#x402;" horiz-adv-x="810" 
d="M0 700h505v-50h-255v-250s95 55 220 55c165 0 275 -110 275 -265c0 -186 -155 -260 -155 -260l-25 40s125 62 125 220c0 125 -90 215 -220 215c-125 0 -220 -55 -220 -55v-350h-55v650h-195v50z" />
    <glyph glyph-name="afii10099" unicode="&#x452;" horiz-adv-x="635" 
d="M580 230v-40c0 -195 -155 -265 -155 -265l-25 40s125 65 125 225v40c0 95 -75 170 -200 170c-90 0 -165 -25 -165 -25v-375h-55v555h-95v50h95v95h55v-95h190v-50h-190v-131s75 26 165 26c160 0 255 -95 255 -220z" />
    <glyph glyph-name="uni00AD" unicode="&#xad;" horiz-adv-x="530" 
d="M490 370v-50h-450v50h450z" />
    <glyph glyph-name="uni20BD" unicode="&#x20bd;" horiz-adv-x="695" 
d="M195 270v-80h360v-50h-360v-140h-55v140h-105v50h105v80h-105v50h105v380h235c175 0 275 -95 275 -215s-100 -215 -275 -215h-180zM375 650h-180v-330h180c145 0 220 75 220 165s-75 165 -220 165z" />
    <glyph glyph-name="x" unicode="x" horiz-adv-x="535" 
d="M100 500l165 -205h5l165 205h65l-195 -240l215 -260h-65l-185 220h-5l-185 -220h-65l215 260l-195 240h65z" />
    <glyph glyph-name="e" unicode="e" horiz-adv-x="600" 
d="M550 250l-25 -30h-415c5 -105 90 -190 215 -190c95 0 165 55 165 55l25 -40s-75 -65 -190 -65c-155 0 -270 115 -270 270c0 160 110 270 250 270s245 -105 245 -270zM110 270h385c-5 120 -85 200 -190 200s-185 -80 -195 -200z" />
    <glyph glyph-name="asterisk" unicode="*" horiz-adv-x="467" 
d="M211 535v165h45v-165l157 51l14 -42l-158 -51l97 -134l-36 -26l-97 133l-97 -133l-36 26l97 134l-157 51l14 42z" />
    <glyph glyph-name="plus" unicode="+" horiz-adv-x="550" 
d="M510 370v-50h-210v-210h-50v210h-210v50h210v210h50v-210h210z" />
    <glyph glyph-name="acute" unicode="&#xb4;" horiz-adv-x="235" 
d="M130 760h65l-110 -180h-45z" />
    <glyph glyph-name="divide" unicode="&#xf7;" horiz-adv-x="537" 
d="M40 369h457v-50h-457v50zM220 540c0 25 20 45 45 45s45 -20 45 -45s-20 -45 -45 -45s-45 20 -45 45zM497 319h-457v50h457v-50zM220 149c0 25 20 45 45 45s45 -20 45 -45s-20 -45 -45 -45s-45 20 -45 45z" />
    <glyph glyph-name="exclamdown" unicode="&#xa1;" horiz-adv-x="280" 
d="M165 160v-350h-55v350l10 165h35zM95 465c0 25 20 45 45 45s45 -20 45 -45s-20 -45 -45 -45s-45 20 -45 45z" />
    <glyph glyph-name="questiondown" unicode="&#xbf;" horiz-adv-x="550" 
d="M300 -160c110 0 205 65 205 65l25 -40s-100 -75 -230 -75c-155 0 -255 105 -255 204c0 166 240 186 240 296v35h55v-35c0 -140 -240 -160 -240 -296c0 -79 80 -154 200 -154zM355 465c0 -25 -20 -45 -45 -45s-45 20 -45 45s20 45 45 45s45 -20 45 -45z" />
    <glyph glyph-name="dotaccent" unicode="&#x2d9;" horiz-adv-x="170" 
d="M40 665c0 25 20 45 45 45s45 -20 45 -45s-20 -45 -45 -45s-45 20 -45 45z" />
    <glyph glyph-name="breve" unicode="&#x2d8;" horiz-adv-x="390" 
d="M195 625c65 0 105 40 105 105h50c0 -85 -65 -150 -155 -150s-155 65 -155 150h50c0 -65 40 -105 105 -105z" />
    <glyph glyph-name="commaaccent" unicode="&#xf6c3;" horiz-adv-x="165" 
d="M40 -120c0 20 20 40 40 40c25 0 45 -20 45 -54c0 -81 -65 -126 -65 -126l-20 20s35 35 40 75v5c-20 0 -40 20 -40 40z" />
    <glyph glyph-name="hungarumlaut" unicode="&#x2dd;" horiz-adv-x="405" 
d="M130 760h60l-105 -180h-45zM305 760h60l-105 -180h-45z" />
    <glyph glyph-name="afii57929" unicode="&#x2bc;" horiz-adv-x="165" 
d="M40 670c0 20 20 40 40 40c25 0 45 -20 45 -54c0 -81 -65 -126 -65 -126l-20 20s35 35 40 75v5c-20 0 -40 20 -40 40z" />
    <glyph glyph-name="cyrbreve" unicode="&#xf6d4;" horiz-adv-x="390" 
d="M195 625c65 0 105 40 105 105h50c0 -85 -65 -150 -155 -150s-155 65 -155 150h50c0 -65 40 -105 105 -105z" />
    <glyph glyph-name="cyrBreve" unicode="&#xf6d1;" horiz-adv-x="410" 
d="M205 830c70 0 115 45 115 115h50c0 -95 -70 -165 -165 -165s-165 70 -165 165h50c0 -70 45 -115 115 -115z" />
    <glyph glyph-name="multiply" unicode="&#xd7;" horiz-adv-x="520" 
d="M410 530l35 -35l-150 -150l150 -150l-35 -35l-150 150l-150 -150l-35 35l150 150l-150 150l35 35l150 -150z" />
    <glyph glyph-name="Eth" unicode="&#xd0;" horiz-adv-x="785" 
d="M120 700h255c200 0 350 -150 350 -350s-150 -350 -350 -350h-255v320h-85v50h85v330zM375 650h-200v-280h220v-50h-220v-270h200c165 0 295 130 295 300s-130 300 -295 300z" />
    <glyph glyph-name="dotlessi" unicode="&#x131;" horiz-adv-x="235" 
d="M90 0v500h55v-500h-55z" />
    <glyph glyph-name="Dcroat" unicode="&#x110;" horiz-adv-x="785" 
d="M120 700h255c200 0 350 -150 350 -350s-150 -350 -350 -350h-255v320h-85v50h85v330zM375 650h-200v-280h220v-50h-220v-270h200c165 0 295 130 295 300s-130 300 -295 300z" />
    <glyph glyph-name="thorn" unicode="&#xfe;" horiz-adv-x="630" 
d="M150 10v-200h-55v890h55v-210s70 30 145 30c165 0 280 -115 280 -270s-115 -270 -280 -270c-75 0 -145 30 -145 30zM295 470c-75 0 -145 -30 -145 -30v-380s70 -30 145 -30c135 0 225 90 225 220s-90 220 -225 220z" />
    <glyph glyph-name="Thorn" unicode="&#xde;" horiz-adv-x="720" 
d="M665 350c0 -125 -110 -235 -280 -235h-225v-115h-55v700h55v-115h220c175 0 285 -110 285 -235zM610 350c0 100 -85 185 -230 185h-220v-370h225c140 0 225 85 225 185z" />
    <glyph glyph-name="dcroat" unicode="&#x111;" horiz-adv-x="630" 
d="M475 430v120h-190v50h190v100h55v-100h90v-50h-90v-530s-100 -40 -200 -40c-170 0 -280 110 -280 240s110 240 280 240c90 0 145 -30 145 -30zM330 30c80 0 145 30 145 30v320s-65 30 -145 30c-140 0 -225 -85 -225 -190s85 -190 225 -190z" />
    <glyph glyph-name="AE" unicode="&#xc6;" horiz-adv-x="1040" 
d="M535 0v180h-384l-81 -180h-60l315 700h675v-50h-410v-270h280v-50h-280v-280h420v-50h-475zM360 650l-187 -420h362v420h-175z" />
    <glyph glyph-name="OE" unicode="&#x152;" horiz-adv-x="1020" 
d="M410 0c-195 0 -350 155 -350 350s150 350 350 350h570v-50h-405v-270h275v-50h-275v-280h415v-50h-580zM115 350c0 -170 130 -300 295 -300h110v600h-110c-165 0 -295 -130 -295 -300z" />
    <glyph glyph-name="Oslash" unicode="&#xd8;" horiz-adv-x="830" 
d="M775 350c0 -210 -160 -370 -355 -370c-150 0 -239 94 -239 94l-71 -74h-60l101 106s-86 89 -86 244c0 210 160 370 355 370c145 0 233 -90 233 -90l67 70h60l-97 -101s92 -94 92 -249zM720 350c0 135 -73 211 -73 211l-430 -449s73 -82 203 -82c165 0 300 135 300 320z
M120 350c0 -130 68 -206 68 -206l429 449s-77 77 -197 77c-165 0 -300 -135 -300 -320z" />
    <glyph glyph-name="oslash" unicode="&#xf8;" horiz-adv-x="640" 
d="M585 250c0 -155 -115 -270 -265 -270c-115 0 -180 68 -180 68l-60 -58h-60l92 88s-57 62 -57 172c0 155 115 270 265 270c115 0 179 -68 179 -68l61 58h60l-92 -89s57 -61 57 -171zM110 250c0 -85 40 -135 40 -135l312 301s-52 54 -142 54c-120 0 -210 -90 -210 -220z
M530 250c0 85 -40 134 -40 134l-313 -301s48 -53 143 -53c120 0 210 90 210 220z" />
    <glyph glyph-name="ae" unicode="&#xe6;" horiz-adv-x="995" 
d="M485 405h5s55 115 210 115c140 0 245 -105 245 -270l-25 -30h-415c5 -105 90 -190 215 -190c95 0 165 55 165 55l25 -40s-75 -65 -190 -65c-160 0 -225 115 -225 115h-5s-70 -115 -220 -115s-225 75 -225 170s75 170 245 170c85 0 160 -20 160 -20v20
c0 90 -59 150 -170 150c-91 0 -150 -45 -150 -45l-25 40s70 55 175 55c175 0 205 -115 205 -115zM450 130v120s-75 20 -160 20c-140 0 -190 -55 -190 -120s55 -120 170 -120s180 100 180 100zM505 270h385c-5 120 -85 200 -190 200s-185 -80 -195 -200z" />
    <glyph glyph-name="oe" unicode="&#x153;" horiz-adv-x="1075" 
d="M1025 250l-25 -30h-415c5 -105 90 -190 215 -190c95 0 165 55 165 55l25 -40s-75 -65 -190 -65c-175 0 -240 140 -240 140h-5s-61 -140 -235 -140c-150 0 -265 115 -265 270s115 270 265 270c175 0 235 -140 235 -140h5s55 140 220 140c140 0 245 -105 245 -270zM110 250
c0 -130 90 -220 210 -220s210 90 210 220s-90 220 -210 220s-210 -90 -210 -220zM585 270h385c-5 120 -85 200 -190 200s-185 -80 -195 -200z" />
    <glyph glyph-name="florin" unicode="&#x192;" horiz-adv-x="400" 
d="M185 543v-48h185v-50h-185v-405c0 -173 -155 -235 -155 -235l-25 40s125 53 125 195v405h-95v50h95v48c0 102 75 177 175 177c65 0 115 -35 115 -35l-20 -40s-45 25 -95 25c-70 0 -120 -50 -120 -127z" />
    <glyph glyph-name="cent" unicode="&#xa2;" horiz-adv-x="555" 
d="M350 -110h-50v92c-144 13 -245 124 -245 268c0 145 101 255 245 268v102h50v-101c98 -6 155 -54 155 -54l-25 -40s-55 45 -150 45c-130 0 -220 -90 -220 -220s90 -220 220 -220c95 0 160 50 160 50l25 -35s-67 -57 -165 -64v-91z" />
    <glyph glyph-name="Lslash" unicode="&#x141;" 
d="M125 0l1 311l-95 -51l-1 55l95 50v335h55v-305l180 95l1 -54l-180 -95l-1 -291h450v-50h-505z" />
    <glyph glyph-name="lslash" unicode="&#x142;" horiz-adv-x="325" 
d="M185 700v-336l125 70v-59l-125 -70v-305h-55v275l-115 -59v59l115 59v316h-80v50h135z" />
    <glyph glyph-name="yen" unicode="&#xa5;" horiz-adv-x="695" 
d="M590 170h-215v-170h-55v170h-220v50h220v15l-60 90h-160v50h125l-215 325h60l275 -410h5l275 410h60l-215 -325h120v-50h-155l-60 -90v-15h215v-50z" />
    <glyph glyph-name="germandbls" unicode="&#xdf;" horiz-adv-x="625" 
d="M470 545c0 -79 -80 -119 -80 -175c0 -109 205 -100 205 -245c0 -75 -70 -145 -175 -145c-100 0 -170 50 -170 50l20 40s64 -40 150 -40c75 0 120 45 120 95c0 108 -205 99 -205 245c0 70 80 110 80 175c0 70 -55 125 -135 125s-135 -55 -135 -125v-545h-55v545
c0 95 80 175 190 175c115 0 190 -75 190 -175z" />
    <glyph glyph-name="sterling" unicode="&#xa3;" horiz-adv-x="629" 
d="M404 670c-100 0 -170 -70 -170 -180v-85h185v-50h-185v-115c0 -140 -90 -185 -90 -185v-5h455v-50h-569v50c69 0 149 75 149 190v115h-100v50h100v85c0 140 90 230 225 230c100 0 160 -50 160 -50l-25 -40s-60 40 -135 40z" />
    <glyph glyph-name="eth" unicode="&#xf0;" horiz-adv-x="615" 
d="M435 755l-65 -70s195 -155 195 -451c0 -138 -116 -254 -265 -254c-145 0 -260 115 -260 250s115 250 260 250c124 0 185 -90 185 -90h5c-31 146 -150 260 -150 260l-75 -80l-35 35l76 79l-81 76l30 35l85 -80l65 70zM95 230c0 -110 89 -200 205 -200
c117 0 210 87 210 200s-95 200 -210 200s-205 -90 -205 -200z" />
    <glyph glyph-name="minus" unicode="&#x2212;" horiz-adv-x="540" 
d="M500 370v-50h-460v50h460z" />
    <glyph glyph-name="ordmasculine" unicode="&#xba;" horiz-adv-x="400" 
d="M360 550c0 -100 -70 -170 -160 -170s-160 70 -160 170s70 170 160 170s160 -70 160 -170zM85 550c0 -75 50 -130 115 -130s115 55 115 130s-50 130 -115 130s-115 -55 -115 -130z" />
    <glyph glyph-name="fraction" unicode="&#x2044;" horiz-adv-x="575" 
d="M490 700h55l-460 -700h-55z" />
    <glyph glyph-name="onesuperior" unicode="&#xb9;" horiz-adv-x="245" 
d="M150 710h35v-320h-45v255h-5l-80 -65l-25 30z" />
    <glyph glyph-name="twosuperior" unicode="&#xb2;" horiz-adv-x="340" 
d="M215 500l-100 -65v-5h180v-40h-255v40l150 105c45 31 60 45 60 85c0 30 -30 60 -85 60c-60 0 -100 -40 -100 -40l-25 35s55 45 125 45c80 0 130 -50 130 -100c0 -55 -34 -90 -80 -120z" />
    <glyph glyph-name="threesuperior" unicode="&#xb3;" horiz-adv-x="355" 
d="M170 420c65 0 95 30 95 60c0 32 -25 60 -95 60h-40v33l105 92v5h-165v40h230v-40l-105 -90v-5c70 0 115 -45 115 -95c0 -55 -45 -100 -140 -100c-72 0 -125 45 -125 45l25 35s36 -40 100 -40z" />
    <glyph glyph-name="foursuperior" unicode="&#x2074;" horiz-adv-x="375" 
d="M40 450v40l205 220h40v-220h50v-40h-50v-60h-40v60h-205zM100 490h145v155h-5l-140 -150v-5z" />
    <glyph glyph-name="foundryicon" horiz-adv-x="1230" 
d="M100 -110v920h1030v-920h-1030zM1110 -90v880h-990v-880h990zM635 610h110c50 0 80 -30 80 -65s-30 -65 -80 -65h-55v-80h-55v210zM635 300h110c50 0 80 -30 80 -65s-30 -65 -80 -65h-55v-80h-55v210zM495 170l-75 130h60l40 -75h5l40 75h65l-80 -130v-80h-55v80z
M495 480l-75 130h60l40 -75h5l40 75h65l-80 -130v-80h-55v80zM300 255h-65v45h165l25 -45h-70v-165h-55v165zM300 565h-65v45h165l25 -45h-70v-165h-55v165zM790 400v65c25 5 55 30 60 60h80v-45h-85v-35h120v-45h-175zM790 90v65c25 5 55 30 60 60h80v-45h-85v-35h120v-45
h-175zM810 300h155v-45h-115c-5 20 -20 40 -40 45zM810 610h155v-45h-115c-5 20 -20 40 -40 45zM765 545c0 10 -10 20 -20 20h-55v-40h55c10 0 20 9 20 20zM765 235c0 10 -10 20 -20 20h-55v-40h55c10 0 20 9 20 20z" />
    <glyph glyph-name="onequarter" unicode="&#xbc;" horiz-adv-x="790" 
d="M565 700h55l-460 -700h-55zM445 60v40l205 220h40v-220h50v-40h-50v-60h-40v60h-205zM505 100h145v155h-5l-140 -150v-5zM150 700h35v-320h-45v255h-5l-80 -65l-25 30z" />
    <glyph glyph-name="onehalf" unicode="&#xbd;" horiz-adv-x="805" 
d="M565 700h55l-460 -700h-55zM665 110l-100 -65v-5h180v-40h-255v40l150 105c45 31 60 45 60 85c0 30 -30 60 -85 60c-60 0 -100 -40 -100 -40l-25 35s55 45 125 45c80 0 130 -50 130 -100c0 -55 -34 -90 -80 -120zM150 700h35v-320h-45v255h-5l-80 -65l-25 30z" />
    <glyph glyph-name="threequarters" unicode="&#xbe;" horiz-adv-x="795" 
d="M570 700h55l-460 -700h-55zM450 60v40l205 220h40v-220h50v-40h-50v-60h-40v60h-205zM510 100h145v155h-5l-140 -150v-5zM160 410c65 0 95 30 95 60c0 32 -25 60 -95 60h-40v33l105 92v5h-165v40h230v-40l-105 -90v-5c70 0 115 -45 115 -95c0 -55 -45 -100 -140 -100
c-72 0 -125 45 -125 45l25 35s36 -40 100 -40z" />
    <glyph glyph-name="currency" unicode="&#xa4;" horiz-adv-x="695" 
d="M195 270v-80h360v-50h-360v-140h-55v140h-105v50h105v80h-105v50h105v380h235c175 0 275 -95 275 -215s-100 -215 -275 -215h-180zM375 650h-180v-330h180c145 0 220 75 220 165s-75 165 -220 165z" />
    <glyph glyph-name="Germandbls" horiz-adv-x="715" 
d="M430 335h-60v50l190 261v4h-170c-142 0 -235 -91 -235 -244v-406h-55v406c0 175 118 294 290 294h235v-50l-195 -265v-5c150 0 240 -90 240 -200s-90 -200 -245 -200c-105 0 -175 55 -175 55l25 40s55 -45 150 -45c125 0 190 65 190 150s-70 155 -185 155z" />
    <glyph glyph-name="uni1E9E" unicode="&#x1e9e;" horiz-adv-x="720" 
d="M430 335h-60v50l190 261v4h-170c-142 0 -235 -91 -235 -244v-406h-55v406c0 175 118 294 290 294h235v-50l-195 -265v-5c150 0 240 -90 240 -200s-90 -200 -245 -200c-105 0 -175 55 -175 55l25 40s55 -45 150 -45c125 0 190 65 190 150s-70 155 -185 155z" />
    <glyph glyph-name="ordfeminine" unicode="&#xaa;" horiz-adv-x="375" 
d="M330 595v-190s-71 -25 -140 -25c-100 0 -150 49 -150 105c0 55 50 110 150 110c51 0 95 -20 95 -20v20c0 47 -37 85 -95 85s-100 -40 -100 -40l-25 35s55 45 125 45c80 0 140 -55 140 -125zM285 440v95s-44 15 -95 15c-76 0 -105 -30 -105 -65c0 -34 29 -65 105 -65
c51 0 95 20 95 20z" />
    <glyph glyph-name="uni20B4" unicode="&#x20b4;" horiz-adv-x="685" 
d="M635 400h-585v50h430s40 33 40 85c0 64 -70 135 -190 135c-112 0 -200 -65 -200 -65l-25 40s93 75 225 75c150 0 245 -96 245 -185c0 -51 -30 -85 -30 -85h90v-50zM50 300h585v-50h-430s-40 -33 -40 -85c0 -64 70 -135 190 -135c112 0 200 65 200 65l25 -40
s-93 -75 -225 -75c-150 0 -245 96 -245 185c0 51 30 85 30 85h-90v50z" />
    <glyph glyph-name="quoteleft" unicode="&#x2018;" horiz-adv-x="205" 
d="M145 560c0 -25 -20 -45 -45 -45s-45 20 -45 50c0 95 75 145 75 145l20 -20s-40 -40 -45 -80v-5c20 0 40 -20 40 -45z" />
    <glyph glyph-name="quoteright" unicode="&#x2019;" horiz-adv-x="205" 
d="M60 665c0 25 20 45 45 45s45 -20 45 -50c0 -95 -75 -145 -75 -145l-20 20s40 40 45 80v5c-20 0 -40 20 -40 45z" />
    <glyph glyph-name="afii10055" unicode="&#x406;" horiz-adv-x="265" 
d="M160 700v-700h-55v700h55z" />
    <glyph glyph-name="afii10103" unicode="&#x456;" horiz-adv-x="250" 
d="M80 665c0 25 20 45 45 45s45 -20 45 -45s-20 -45 -45 -45s-45 20 -45 45zM95 0v500h55v-500h-55z" />
    <glyph glyph-name="afii10105" unicode="&#x458;" horiz-adv-x="245" 
d="M100 40v460h55v-460c0 -180 -160 -236 -160 -236l-20 36s125 55 125 200zM80 665c0 25 20 45 45 45s45 -20 45 -45s-20 -45 -45 -45s-45 20 -45 45z" />
    <glyph glyph-name="afii10054" unicode="&#x405;" horiz-adv-x="620" 
d="M75 530c0 95 95 190 250 190c130 0 220 -75 220 -75l-25 -40s-85 65 -195 65c-125 0 -195 -70 -195 -140c0 -195 435 -100 435 -335c0 -115 -100 -215 -275 -215c-145 0 -235 85 -235 85l25 40s85 -75 210 -75c145 0 220 75 220 165c0 185 -435 90 -435 335z" />
    <glyph glyph-name="afii10102" unicode="&#x455;" horiz-adv-x="515" 
d="M470 135c0 -80 -75 -155 -230 -155c-115 0 -195 70 -195 70l25 40s70 -60 170 -60c125 0 175 50 175 105c0 135 -345 60 -345 240c0 75 70 145 200 145c110 0 180 -60 180 -60l-25 -40s-60 50 -155 50c-100 0 -145 -45 -145 -95c0 -130 345 -55 345 -240z" />
    <glyph glyph-name="afii10056" unicode="&#x407;" horiz-adv-x="265" 
d="M160 700v-700h-55v700h55zM-20 855c0 25 20 45 45 45s45 -20 45 -45s-20 -45 -45 -45s-45 20 -45 45zM185 855c0 25 20 45 45 45s45 -20 45 -45s-20 -45 -45 -45s-45 20 -45 45z" />
    <glyph glyph-name="afii10104" unicode="&#x457;" horiz-adv-x="245" 
d="M94 0v500h55v-500h-55zM-20 655c0 25 20 45 45 45s45 -20 45 -45s-20 -45 -45 -45s-45 20 -45 45zM185 655c0 25 20 45 45 45s45 -20 45 -45s-20 -45 -45 -45s-45 20 -45 45z" />
    <glyph glyph-name="Agrave" unicode="&#xc0;" horiz-adv-x="735" 
d="M405 700l315 -700h-60l-81 180h-423l-81 -180h-60l315 700h75zM365 645l-187 -415h378l-186 415h-5zM233 970h64l93 -180h-47z" />
    <glyph glyph-name="Aacute" unicode="&#xc1;" horiz-adv-x="735" 
d="M405 700l315 -700h-60l-81 180h-423l-81 -180h-60l315 700h75zM365 645l-187 -415h378l-186 415h-5zM440 970h65l-110 -180h-45z" />
    <glyph glyph-name="Abreve" unicode="&#x102;" horiz-adv-x="735" 
d="M405 700l315 -700h-60l-81 180h-423l-81 -180h-60l315 700h75zM365 645l-187 -415h378l-186 415h-5zM366 845c65 0 105 40 105 105h50c0 -85 -65 -150 -155 -150s-155 65 -155 150h50c0 -65 40 -105 105 -105z" />
    <glyph glyph-name="Acircumflex" unicode="&#xc2;" horiz-adv-x="735" 
d="M405 700l315 -700h-60l-81 180h-423l-81 -180h-60l315 700h75zM365 645l-187 -415h378l-186 415h-5zM183 790l155 185h55l155 -185h-60l-120 140h-5l-120 -140h-60z" />
    <glyph glyph-name="Adieresis" unicode="&#xc4;" horiz-adv-x="735" 
d="M405 700l315 -700h-60l-81 180h-423l-81 -180h-60l315 700h75zM365 645l-187 -415h378l-186 415h-5zM223 865c0 25 20 45 45 45s45 -20 45 -45s-20 -45 -45 -45s-45 20 -45 45zM428 865c0 25 20 45 45 45s45 -20 45 -45s-20 -45 -45 -45s-45 20 -45 45z" />
    <glyph glyph-name="Amacron" unicode="&#x100;" horiz-adv-x="735" 
d="M405 700l315 -700h-60l-81 180h-423l-81 -180h-60l315 700h75zM365 645l-187 -415h378l-186 415h-5zM533 890v-50h-335v50h335z" />
    <glyph glyph-name="Aogonek" unicode="&#x104;" horiz-adv-x="735" 
d="M665 -240c-75 0 -120 45 -120 100c0 80 120 140 120 140h-5l-81 180h-423l-81 -180h-60l315 700h75l315 -700s-125 -70 -125 -140c0 -30 25 -55 70 -55c42 0 80 25 80 25l20 -35s-43 -35 -100 -35zM365 645l-187 -415h378l-186 415h-5z" />
    <glyph glyph-name="Aring" unicode="&#xc5;" horiz-adv-x="735" 
d="M496 780c0 -52 -30 -95 -76 -115l300 -665h-60l-81 180h-423l-81 -180h-60l299 664c-47 19 -78 63 -78 116c0 70 55 125 130 125s130 -55 130 -125zM365 645l-187 -415h378l-186 415h-5zM281 780c0 -44 33 -79 81 -80h7c48 1 82 36 82 80c0 45 -35 80 -85 80
s-85 -35 -85 -80z" />
    <glyph glyph-name="Atilde" unicode="&#xc3;" horiz-adv-x="735" 
d="M405 700l315 -700h-60l-81 180h-423l-81 -180h-60l315 700h75zM365 645l-187 -415h378l-186 415h-5zM291 885c-25 0 -45 -20 -45 -47v-38h-50v38c0 57 40 97 95 97c80 0 95 -90 150 -90c25 0 45 20 45 47v38h50v-38c0 -57 -40 -97 -95 -97c-80 0 -95 90 -150 90z" />
    <glyph glyph-name="Cacute" unicode="&#x106;" horiz-adv-x="715" 
d="M435 670c-180 0 -315 -135 -315 -320s135 -320 315 -320c120 0 205 70 205 70l25 -40s-90 -80 -230 -80c-210 0 -370 160 -370 370s160 370 370 370c130 0 220 -75 220 -75l-25 -40s-85 65 -195 65zM460 970h65l-110 -180h-45z" />
    <glyph glyph-name="Ccaron" unicode="&#x10c;" horiz-adv-x="715" 
d="M435 670c-180 0 -315 -135 -315 -320s135 -320 315 -320c120 0 205 70 205 70l25 -40s-90 -80 -230 -80c-210 0 -370 160 -370 370s160 370 370 370c130 0 220 -75 220 -75l-25 -40s-85 65 -195 65zM360 790l-155 185h60l120 -140h5l120 140h60l-155 -185h-55z" />
    <glyph glyph-name="Ccedilla" unicode="&#xc7;" horiz-adv-x="715" 
d="M400 -70h25c75 0 120 -50 120 -110s-50 -110 -135 -110c-60 0 -100 30 -100 30l20 40s35 -25 80 -25c55 0 85 30 85 65s-30 65 -85 65h-30l-25 20v84c-170 34 -290 178 -290 361c0 210 160 370 370 370c130 0 220 -75 220 -75l-25 -40s-85 65 -195 65
c-180 0 -315 -135 -315 -320s135 -320 315 -320c120 0 205 70 205 70l25 -40s-90 -80 -230 -80c-12 0 -24 1 -35 2v-52z" />
    <glyph glyph-name="Ccircumflex" unicode="&#x108;" horiz-adv-x="715" 
d="M435 670c-180 0 -315 -135 -315 -320s135 -320 315 -320c120 0 205 70 205 70l25 -40s-90 -80 -230 -80c-210 0 -370 160 -370 370s160 370 370 370c130 0 220 -75 220 -75l-25 -40s-85 65 -195 65zM215 790l155 185h55l155 -185h-60l-120 140h-5l-120 -140h-60z" />
    <glyph glyph-name="Dcaron" unicode="&#x10e;" horiz-adv-x="770" 
d="M105 700h255c200 0 350 -150 350 -350s-150 -350 -350 -350h-255v700zM360 650h-200v-600h200c165 0 295 130 295 300s-130 300 -295 300zM327 790l-155 185h60l120 -140h5l120 140h60l-155 -185h-55z" />
    <glyph glyph-name="Egrave" unicode="&#xc8;" horiz-adv-x="675" 
d="M105 0v700h530v-50h-475v-270h345v-50h-345v-280h485v-50h-540zM261 970h64l93 -180h-47z" />
    <glyph glyph-name="Eacute" unicode="&#xc9;" horiz-adv-x="675" 
d="M105 0v700h530v-50h-475v-270h345v-50h-345v-280h485v-50h-540zM432 970h65l-110 -180h-45z" />
    <glyph glyph-name="Ecaron" unicode="&#x11a;" horiz-adv-x="675" 
d="M105 0v700h530v-50h-475v-270h345v-50h-345v-280h485v-50h-540zM342 790l-155 185h60l120 -140h5l120 140h60l-155 -185h-55z" />
    <glyph glyph-name="Ecircumflex" unicode="&#xca;" horiz-adv-x="675" 
d="M105 0v700h530v-50h-475v-270h345v-50h-345v-280h485v-50h-540zM187 790l155 185h55l155 -185h-60l-120 140h-5l-120 -140h-60z" />
    <glyph glyph-name="Edieresis" unicode="&#xcb;" horiz-adv-x="675" 
d="M105 0v700h530v-50h-475v-270h345v-50h-345v-280h485v-50h-540zM227 865c0 25 20 45 45 45s45 -20 45 -45s-20 -45 -45 -45s-45 20 -45 45zM432 865c0 25 20 45 45 45s45 -20 45 -45s-20 -45 -45 -45s-45 20 -45 45z" />
    <glyph glyph-name="Edotaccent" unicode="&#x116;" horiz-adv-x="675" 
d="M105 0v700h530v-50h-475v-270h345v-50h-345v-280h485v-50h-540zM325 865c0 25 20 45 45 45s45 -20 45 -45s-20 -45 -45 -45s-45 20 -45 45z" />
    <glyph glyph-name="Emacron" unicode="&#x112;" horiz-adv-x="675" 
d="M105 0v700h530v-50h-475v-270h345v-50h-345v-280h485v-50h-540zM537 890v-50h-335v50h335z" />
    <glyph glyph-name="Eogonek" unicode="&#x118;" horiz-adv-x="670" 
d="M105 0v700h530v-50h-475v-270h345v-50h-345v-280h485v-50s-125 -70 -125 -140c0 -30 25 -55 70 -55c42 0 80 25 80 25l20 -35s-43 -35 -100 -35c-75 0 -120 45 -120 100c0 80 110 140 110 140h-475z" />
    <glyph glyph-name="Gbreve" unicode="&#x11e;" horiz-adv-x="765" 
d="M435 670c-180 0 -315 -135 -315 -320s135 -320 315 -320c120 0 195 60 195 60v240h-210v50h265v-315s-110 -85 -250 -85c-210 0 -370 160 -370 370s160 370 370 370c130 0 220 -75 220 -75l-25 -41s-85 66 -195 66zM403 855c65 0 105 40 105 105h50
c0 -85 -65 -150 -155 -150s-155 65 -155 150h50c0 -65 40 -105 105 -105z" />
    <glyph glyph-name="Gcommaaccent" unicode="&#x122;" horiz-adv-x="765" 
d="M435 670c-180 0 -315 -135 -315 -320s135 -320 315 -320c120 0 195 60 195 60v240h-210v50h265v-315s-110 -85 -250 -85c-210 0 -370 160 -370 370s160 370 370 370c130 0 220 -75 220 -75l-25 -41s-85 66 -195 66zM380 -140c0 20 20 40 40 40c25 0 45 -20 45 -54
c0 -81 -65 -126 -65 -126l-20 20s35 35 40 75v5c-20 0 -40 20 -40 40z" />
    <glyph glyph-name="Kcommaaccent" unicode="&#x136;" horiz-adv-x="700" 
d="M665 700l-300 -285l325 -415h-70l-295 375l-165 -155v-220h-55v700h55v-405h5l425 405h75zM340 -130c0 20 20 40 40 40c25 0 45 -20 45 -54c0 -81 -65 -126 -65 -126l-20 20s35 35 40 75v5c-20 0 -40 20 -40 40z" />
    <glyph glyph-name="Lacute" unicode="&#x139;" horiz-adv-x="630" 
d="M105 0v700h55v-650h450v-50h-505zM207 960h65l-110 -180h-45z" />
    <glyph glyph-name="Lcaron" unicode="&#x13d;" horiz-adv-x="630" 
d="M260 660c0 20 20 40 40 40c25 0 45 -20 45 -54c0 -81 -65 -126 -65 -126l-20 20s35 35 40 75v5c-20 0 -40 20 -40 40zM105 0v700h55v-650h450v-50h-505z" />
    <glyph glyph-name="Lcommaaccent" unicode="&#x13b;" horiz-adv-x="630" 
d="M105 0v700h55v-650h450v-50h-505zM322 -130c0 20 20 40 40 40c25 0 45 -20 45 -54c0 -81 -65 -126 -65 -126l-20 20s35 35 40 75v5c-20 0 -40 20 -40 40z" />
    <glyph glyph-name="lcommaaccent" unicode="&#x13c;" horiz-adv-x="256" 
d="M165 700v-700h-55v650h-80v50h135zM91 -130c0 20 20 40 40 40c25 0 45 -20 45 -54c0 -81 -65 -126 -65 -126l-20 20s35 35 40 75v5c-20 0 -40 20 -40 40z" />
    <glyph glyph-name="lcaron" unicode="&#x13e;" horiz-adv-x="355" 
d="M260 670c0 20 20 40 40 40c25 0 45 -20 45 -54c0 -81 -65 -126 -65 -126l-20 20s35 35 40 75v5c-20 0 -40 20 -40 40zM165 700v-700h-55v650h-80v50h135z" />
    <glyph glyph-name="lacute" unicode="&#x13a;" horiz-adv-x="255" 
d="M165 700v-700h-55v650h-80v50h135zM200 970h65l-110 -180h-45z" />
    <glyph glyph-name="kcommaaccent" unicode="&#x137;" horiz-adv-x="550" 
d="M520 500l-225 -205l245 -295h-65l-215 260l-115 -105v-155h-55v700h55v-475h5l300 275h70zM255 -120c0 20 20 40 40 40c25 0 45 -20 45 -54c0 -81 -65 -126 -65 -126l-20 20s35 35 40 75v5c-20 0 -40 20 -40 40z" />
    <glyph glyph-name="gcommaaccent" unicode="&#x123;" horiz-adv-x="625" 
d="M335 470c-135 0 -225 -90 -225 -210s90 -210 225 -210c80 0 145 30 145 30v360s-65 30 -145 30zM480 10v21s-55 -31 -145 -31c-170 0 -280 120 -280 260c0 143 110 260 280 260c100 0 200 -40 200 -40v-470c0 -115 -105 -220 -260 -220c-110 0 -185 65 -185 65l25 40
s65 -55 160 -55c125 0 205 80 205 170zM365 650c0 -20 -20 -40 -40 -40c-25 0 -45 20 -45 54c0 81 65 126 65 126l20 -20s-35 -35 -40 -75v-5c20 0 40 -20 40 -40z" />
    <glyph glyph-name="gbreve" unicode="&#x11f;" horiz-adv-x="625" 
d="M335 470c-135 0 -225 -90 -225 -210s90 -210 225 -210c80 0 145 30 145 30v360s-65 30 -145 30zM480 10v21s-55 -31 -145 -31c-170 0 -280 120 -280 260c0 143 110 260 280 260c100 0 200 -40 200 -40v-470c0 -115 -105 -220 -260 -220c-110 0 -185 65 -185 65l25 40
s65 -55 160 -55c125 0 205 80 205 170zM322 655c65 0 105 40 105 105h50c0 -85 -65 -150 -155 -150s-155 65 -155 150h50c0 -65 40 -105 105 -105z" />
    <glyph glyph-name="eogonek" unicode="&#x119;" horiz-adv-x="600" 
d="M380 -240c-75 0 -120 45 -120 100c0 53 47 97 79 121c-5 0 -9 -1 -14 -1c-155 0 -270 115 -270 270c0 160 110 270 250 270s245 -105 245 -270l-25 -30h-415c5 -105 90 -190 215 -190c95 0 165 55 165 55l25 -40s-32 -26 -81 -45h1s-125 -70 -125 -140
c0 -30 25 -55 70 -55c42 0 80 25 80 25l20 -35s-43 -35 -100 -35zM110 270h385c-5 120 -85 200 -190 200s-185 -80 -195 -200z" />
    <glyph glyph-name="emacron" unicode="&#x113;" horiz-adv-x="600" 
d="M550 250l-25 -30h-415c5 -105 90 -190 215 -190c95 0 165 55 165 55l25 -40s-75 -65 -190 -65c-155 0 -270 115 -270 270c0 160 110 270 250 270s245 -105 245 -270zM110 270h385c-5 120 -85 200 -190 200s-185 -80 -195 -200zM470 690v-50h-335v50h335z" />
    <glyph glyph-name="edotaccent" unicode="&#x117;" horiz-adv-x="600" 
d="M550 250l-25 -30h-415c5 -105 90 -190 215 -190c95 0 165 55 165 55l25 -40s-75 -65 -190 -65c-155 0 -270 115 -270 270c0 160 110 270 250 270s245 -105 245 -270zM110 270h385c-5 120 -85 200 -190 200s-185 -80 -195 -200zM254 665c0 25 20 45 45 45s45 -20 45 -45
s-20 -45 -45 -45s-45 20 -45 45z" />
    <glyph glyph-name="edieresis" unicode="&#xeb;" horiz-adv-x="600" 
d="M550 250l-25 -30h-415c5 -105 90 -190 215 -190c95 0 165 55 165 55l25 -40s-75 -65 -190 -65c-155 0 -270 115 -270 270c0 160 110 270 250 270s245 -105 245 -270zM110 270h385c-5 120 -85 200 -190 200s-185 -80 -195 -200zM156 675c0 25 20 45 45 45s45 -20 45 -45
s-20 -45 -45 -45s-45 20 -45 45zM361 675c0 25 20 45 45 45s45 -20 45 -45s-20 -45 -45 -45s-45 20 -45 45z" />
    <glyph glyph-name="ecircumflex" unicode="&#xea;" horiz-adv-x="600" 
d="M550 250l-25 -30h-415c5 -105 90 -190 215 -190c95 0 165 55 165 55l25 -40s-75 -65 -190 -65c-155 0 -270 115 -270 270c0 160 110 270 250 270s245 -105 245 -270zM110 270h385c-5 120 -85 200 -190 200s-185 -80 -195 -200zM126 600l155 185h55l155 -185h-60l-120 140
h-5l-120 -140h-60z" />
    <glyph glyph-name="ecaron" unicode="&#x11b;" horiz-adv-x="600" 
d="M550 250l-25 -30h-415c5 -105 90 -190 215 -190c95 0 165 55 165 55l25 -40s-75 -65 -190 -65c-155 0 -270 115 -270 270c0 160 110 270 250 270s245 -105 245 -270zM110 270h385c-5 120 -85 200 -190 200s-185 -80 -195 -200zM271 600l-155 185h60l120 -140h5l120 140
h60l-155 -185h-55z" />
    <glyph glyph-name="eacute" unicode="&#xe9;" horiz-adv-x="600" 
d="M550 250l-25 -30h-415c5 -105 90 -190 215 -190c95 0 165 55 165 55l25 -40s-75 -65 -190 -65c-155 0 -270 115 -270 270c0 160 110 270 250 270s245 -105 245 -270zM110 270h385c-5 120 -85 200 -190 200s-185 -80 -195 -200zM361 780h65l-110 -180h-45z" />
    <glyph glyph-name="egrave" unicode="&#xe8;" horiz-adv-x="600" 
d="M550 250l-25 -30h-415c5 -105 90 -190 215 -190c95 0 165 55 165 55l25 -40s-75 -65 -190 -65c-155 0 -270 115 -270 270c0 160 110 270 250 270s245 -105 245 -270zM110 270h385c-5 120 -85 200 -190 200s-185 -80 -195 -200zM190 780h64l93 -180h-47z" />
    <glyph glyph-name="dcaron" unicode="&#x10f;" horiz-adv-x="725" 
d="M630 670c0 20 20 40 40 40c25 0 45 -20 45 -54c0 -81 -65 -126 -65 -126l-20 20s35 35 40 75v5c-20 0 -40 20 -40 40zM335 30c80 0 145 30 145 30v380s-65 30 -145 30c-135 0 -225 -90 -225 -220s90 -220 225 -220zM480 490v210h55v-680s-100 -40 -200 -40
c-170 0 -280 110 -280 270c0 150 110 270 280 270c90 0 145 -30 145 -30z" />
    <glyph glyph-name="ccircumflex" unicode="&#x109;" horiz-adv-x="555" 
d="M490 85l25 -40s-75 -65 -185 -65c-160 0 -275 116 -275 270c0 155 115 270 275 270c110 0 175 -55 175 -55l-25 -40s-55 45 -150 45c-130 0 -220 -90 -220 -220s90 -220 220 -220c95 0 160 55 160 55zM124 600l155 185h55l155 -185h-60l-120 140h-5l-120 -140h-60z" />
    <glyph glyph-name="ccedilla" unicode="&#xe7;" horiz-adv-x="555" 
d="M300 -70h25c75 0 120 -50 120 -110s-50 -110 -135 -110c-60 0 -100 30 -100 30l20 40s35 -25 80 -25c55 0 85 30 85 65s-30 65 -85 65h-30l-25 20v84c-120 30 -200 132 -200 261c0 155 115 270 275 270c110 0 175 -55 175 -55l-25 -40s-55 45 -150 45
c-130 0 -220 -90 -220 -220s90 -220 220 -220c95 0 160 55 160 55l25 -40s-75 -65 -185 -65c-11 0 -20 1 -30 2v-52z" />
    <glyph glyph-name="ccaron" unicode="&#x10d;" horiz-adv-x="555" 
d="M490 85l25 -40s-75 -65 -185 -65c-160 0 -275 116 -275 270c0 155 115 270 275 270c110 0 175 -55 175 -55l-25 -40s-55 45 -150 45c-130 0 -220 -90 -220 -220s90 -220 220 -220c95 0 160 55 160 55zM279 600l-155 185h60l120 -140h5l120 140h60l-155 -185h-55z" />
    <glyph glyph-name="cacute" unicode="&#x107;" horiz-adv-x="555" 
d="M490 85l25 -40s-75 -65 -185 -65c-160 0 -275 116 -275 270c0 155 115 270 275 270c110 0 175 -55 175 -55l-25 -40s-55 45 -150 45c-130 0 -220 -90 -220 -220s90 -220 220 -220c95 0 160 55 160 55zM369 780h65l-110 -180h-45z" />
    <glyph glyph-name="atilde" unicode="&#xe3;" horiz-adv-x="590" 
d="M505 320v-300s-96 -40 -215 -40c-170 0 -245 75 -245 170s75 170 245 170c85 0 160 -20 160 -20v20c0 90 -59 150 -170 150c-91 0 -150 -45 -150 -45l-25 40s70 55 175 55c145 0 225 -80 225 -200zM450 55v195s-75 20 -160 20c-140 0 -190 -55 -190 -120
s55 -120 190 -120c88 0 160 25 160 25zM221 705c-25 0 -45 -20 -45 -47v-38h-50v38c0 57 40 97 95 97c80 0 95 -90 150 -90c25 0 45 20 45 47v38h50v-38c0 -57 -40 -97 -95 -97c-80 0 -95 90 -150 90z" />
    <glyph glyph-name="aring" unicode="&#xe5;" horiz-adv-x="590" 
d="M505 320v-300s-96 -40 -215 -40c-170 0 -245 75 -245 170s75 170 245 170c85 0 160 -20 160 -20v20c0 90 -59 150 -170 150c-91 0 -150 -45 -150 -45l-25 40s70 55 175 55c145 0 225 -80 225 -200zM450 55v195s-75 20 -160 20c-140 0 -190 -55 -190 -120
s55 -120 190 -120c88 0 160 25 160 25zM436 714c0 -70 -55 -125 -130 -125s-130 55 -130 125s55 125 130 125s130 -55 130 -125zM221 714c0 -45 35 -80 85 -80s85 35 85 80s-35 80 -85 80s-85 -35 -85 -80z" />
    <glyph glyph-name="aogonek" unicode="&#x105;" horiz-adv-x="590" 
d="M395 -240c-75 0 -120 45 -120 100c0 56 52 101 85 124c-23 -3 -45 -4 -70 -4c-170 0 -245 75 -245 170s75 170 245 170c85 0 160 -20 160 -20v20c0 90 -59 150 -170 150c-91 0 -150 -45 -150 -45l-25 40s70 55 175 55c145 0 225 -80 225 -200v-300s-26 -11 -63 -20
c8 0 -117 -70 -117 -140c0 -30 25 -55 70 -55c42 0 80 25 80 25l20 -35s-43 -35 -100 -35zM450 55v195s-75 20 -160 20c-140 0 -190 -55 -190 -120s55 -120 190 -120c88 0 160 25 160 25z" />
    <glyph glyph-name="amacron" unicode="&#x101;" horiz-adv-x="590" 
d="M505 320v-300s-96 -40 -215 -40c-170 0 -245 75 -245 170s75 170 245 170c85 0 160 -20 160 -20v20c0 90 -59 150 -170 150c-91 0 -150 -45 -150 -45l-25 40s70 55 175 55c145 0 225 -80 225 -200zM450 55v195s-75 20 -160 20c-140 0 -190 -55 -190 -120
s55 -120 190 -120c88 0 160 25 160 25zM464 690v-50h-335v50h335z" />
    <glyph glyph-name="adieresis" unicode="&#xe4;" horiz-adv-x="590" 
d="M505 320v-300s-96 -40 -215 -40c-170 0 -245 75 -245 170s75 170 245 170c85 0 160 -20 160 -20v20c0 90 -59 150 -170 150c-91 0 -150 -45 -150 -45l-25 40s70 55 175 55c145 0 225 -80 225 -200zM450 55v195s-75 20 -160 20c-140 0 -190 -55 -190 -120
s55 -120 190 -120c88 0 160 25 160 25zM154 675c0 25 20 45 45 45s45 -20 45 -45s-20 -45 -45 -45s-45 20 -45 45zM359 675c0 25 20 45 45 45s45 -20 45 -45s-20 -45 -45 -45s-45 20 -45 45z" />
    <glyph glyph-name="acircumflex" unicode="&#xe2;" horiz-adv-x="590" 
d="M505 320v-300s-96 -40 -215 -40c-170 0 -245 75 -245 170s75 170 245 170c85 0 160 -20 160 -20v20c0 90 -59 150 -170 150c-91 0 -150 -45 -150 -45l-25 40s70 55 175 55c145 0 225 -80 225 -200zM450 55v195s-75 20 -160 20c-140 0 -190 -55 -190 -120
s55 -120 190 -120c88 0 160 25 160 25zM104 600l155 185h55l155 -185h-60l-120 140h-5l-120 -140h-60z" />
    <glyph glyph-name="abreve" unicode="&#x103;" horiz-adv-x="590" 
d="M505 320v-300s-96 -40 -215 -40c-170 0 -245 75 -245 170s75 170 245 170c85 0 160 -20 160 -20v20c0 90 -59 150 -170 150c-91 0 -150 -45 -150 -45l-25 40s70 55 175 55c145 0 225 -80 225 -200zM450 55v195s-75 20 -160 20c-140 0 -190 -55 -190 -120
s55 -120 190 -120c88 0 160 25 160 25zM296 665c65 0 105 40 105 105h50c0 -85 -65 -150 -155 -150s-155 65 -155 150h50c0 -65 40 -105 105 -105z" />
    <glyph glyph-name="aacute" unicode="&#xe1;" horiz-adv-x="590" 
d="M505 320v-300s-96 -40 -215 -40c-170 0 -245 75 -245 170s75 170 245 170c85 0 160 -20 160 -20v20c0 90 -59 150 -170 150c-91 0 -150 -45 -150 -45l-25 40s70 55 175 55c145 0 225 -80 225 -200zM450 55v195s-75 20 -160 20c-140 0 -190 -55 -190 -120
s55 -120 190 -120c88 0 160 25 160 25zM359 780h65l-110 -180h-45z" />
    <glyph glyph-name="agrave" unicode="&#xe0;" horiz-adv-x="590" 
d="M505 320v-300s-96 -40 -215 -40c-170 0 -245 75 -245 170s75 170 245 170c85 0 160 -20 160 -20v20c0 90 -59 150 -170 150c-91 0 -150 -45 -150 -45l-25 40s70 55 175 55c145 0 225 -80 225 -200zM450 55v195s-75 20 -160 20c-140 0 -190 -55 -190 -120
s55 -120 190 -120c88 0 160 25 160 25zM178 780h64l93 -180h-47z" />
    <glyph glyph-name="Igrave" unicode="&#xcc;" horiz-adv-x="267" 
d="M162 700v-700h-55v700h55zM5 970h64l93 -180h-47z" />
    <glyph glyph-name="Iacute" unicode="&#xcd;" horiz-adv-x="265" 
d="M161 700v-700h-55v700h55zM195 970h65l-110 -180h-45z" />
    <glyph glyph-name="Icircumflex" unicode="&#xce;" horiz-adv-x="265" 
d="M160 700v-700h-55v700h55zM-50 800l155 185h55l155 -185h-60l-120 140h-5l-120 -140h-60z" />
    <glyph glyph-name="Idieresis" unicode="&#xcf;" horiz-adv-x="265" 
d="M155 700v-700h-55v700h55zM-15 865c0 25 20 45 45 45s45 -20 45 -45s-20 -45 -45 -45s-45 20 -45 45zM190 865c0 25 20 45 45 45s45 -20 45 -45s-20 -45 -45 -45s-45 20 -45 45z" />
    <glyph glyph-name="Idotaccent" unicode="&#x130;" horiz-adv-x="260" 
d="M158 700v-700h-55v700h55zM85 865c0 25 20 45 45 45s45 -20 45 -45s-20 -45 -45 -45s-45 20 -45 45z" />
    <glyph glyph-name="Imacron" unicode="&#x12a;" horiz-adv-x="265" 
d="M160 700v-700h-55v700h55zM300 880v-50h-335v50h335z" />
    <glyph glyph-name="Iogonek" unicode="&#x12e;" horiz-adv-x="265" 
d="M115 -240c-75 0 -120 45 -120 100c0 75 110 150 110 150v690h55v-700s-115 -80 -115 -140c0 -30 25 -55 70 -55c42 0 80 25 80 25l20 -35s-43 -35 -100 -35z" />
    <glyph glyph-name="Nacute" unicode="&#x143;" horiz-adv-x="800" 
d="M165 615h-5v-615h-55v700h60l470 -615h5v615h55v-700h-60zM462 970h65l-110 -180h-45z" />
    <glyph glyph-name="Ncaron" unicode="&#x147;" horiz-adv-x="800" 
d="M165 615h-5v-615h-55v700h60l470 -615h5v615h55v-700h-60zM372 790l-155 185h60l120 -140h5l120 140h60l-155 -185h-55z" />
    <glyph glyph-name="Ncommaaccent" unicode="&#x145;" horiz-adv-x="800" 
d="M165 615h-5v-615h-55v700h60l470 -615h5v615h55v-700h-60zM357 -130c0 20 20 40 40 40c25 0 45 -20 45 -54c0 -81 -65 -126 -65 -126l-20 20s35 35 40 75v5c-20 0 -40 20 -40 40z" />
    <glyph glyph-name="Ntilde" unicode="&#xd1;" horiz-adv-x="800" 
d="M165 615h-5v-615h-55v700h60l470 -615h5v615h55v-700h-60zM325 895c-25 0 -45 -20 -45 -47v-38h-50v38c0 57 40 97 95 97c80 0 95 -90 150 -90c25 0 45 20 45 47v38h50v-38c0 -57 -40 -97 -95 -97c-80 0 -95 90 -150 90z" />
    <glyph glyph-name="Ograve" unicode="&#xd2;" horiz-adv-x="840" 
d="M120 350c0 -185 135 -320 300 -320s300 135 300 320s-135 320 -300 320s-300 -135 -300 -320zM775 350c0 -210 -160 -370 -355 -370s-355 160 -355 370s160 370 355 370s355 -160 355 -370zM291 980h64l93 -180h-47z" />
    <glyph glyph-name="Oacute" unicode="&#xd3;" horiz-adv-x="840" 
d="M120 350c0 -185 135 -320 300 -320s300 135 300 320s-135 320 -300 320s-300 -135 -300 -320zM775 350c0 -210 -160 -370 -355 -370s-355 160 -355 370s160 370 355 370s355 -160 355 -370zM492 980h65l-110 -180h-45z" />
    <glyph glyph-name="Ocircumflex" unicode="&#xd4;" horiz-adv-x="840" 
d="M120 350c0 -185 135 -320 300 -320s300 135 300 320s-135 320 -300 320s-300 -135 -300 -320zM775 350c0 -210 -160 -370 -355 -370s-355 160 -355 370s160 370 355 370s355 -160 355 -370zM237 790l155 185h55l155 -185h-60l-120 140h-5l-120 -140h-60z" />
    <glyph glyph-name="Odieresis" unicode="&#xd6;" horiz-adv-x="840" 
d="M120 350c0 -185 135 -320 300 -320s300 135 300 320s-135 320 -300 320s-300 -135 -300 -320zM775 350c0 -210 -160 -370 -355 -370s-355 160 -355 370s160 370 355 370s355 -160 355 -370zM277 865c0 25 20 45 45 45s45 -20 45 -45s-20 -45 -45 -45s-45 20 -45 45z
M482 865c0 25 20 45 45 45s45 -20 45 -45s-20 -45 -45 -45s-45 20 -45 45z" />
    <glyph glyph-name="Ohungarumlaut" unicode="&#x150;" horiz-adv-x="840" 
d="M120 350c0 -185 135 -320 300 -320s300 135 300 320s-135 320 -300 320s-300 -135 -300 -320zM775 350c0 -210 -160 -370 -355 -370s-355 160 -355 370s160 370 355 370s355 -160 355 -370zM398 980h60l-105 -180h-45zM573 980h60l-105 -180h-45z" />
    <glyph glyph-name="Omacron" unicode="&#x14c;" horiz-adv-x="840" 
d="M120 350c0 -185 135 -320 300 -320s300 135 300 320s-135 320 -300 320s-300 -135 -300 -320zM775 350c0 -210 -160 -370 -355 -370s-355 160 -355 370s160 370 355 370s355 -160 355 -370zM587 890v-50h-335v50h335z" />
    <glyph glyph-name="Otilde" unicode="&#xd5;" horiz-adv-x="840" 
d="M120 350c0 -185 135 -320 300 -320s300 135 300 320s-135 320 -300 320s-300 -135 -300 -320zM775 350c0 -210 -160 -370 -355 -370s-355 160 -355 370s160 370 355 370s355 -160 355 -370zM355 895c-25 0 -45 -20 -45 -47v-38h-50v38c0 57 40 97 95 97
c80 0 95 -90 150 -90c25 0 45 20 45 47v38h50v-38c0 -57 -40 -97 -95 -97c-80 0 -95 90 -150 90z" />
    <glyph glyph-name="Racute" unicode="&#x154;" horiz-adv-x="745" 
d="M160 270v-270h-55v700h275c190 0 285 -90 285 -215c0 -165 -165 -200 -165 -200v-5l210 -280h-70l-205 270h-275zM380 650h-220v-330h220c160 0 230 70 230 165s-70 165 -230 165zM415 970h65l-110 -180h-45z" />
    <glyph glyph-name="Rcaron" unicode="&#x158;" horiz-adv-x="745" 
d="M160 270v-270h-55v700h275c190 0 285 -90 285 -215c0 -165 -165 -200 -165 -200v-5l210 -280h-70l-205 270h-275zM380 650h-220v-330h220c160 0 230 70 230 165s-70 165 -230 165zM335 790l-155 185h60l120 -140h5l120 140h60l-155 -185h-55z" />
    <glyph glyph-name="Rcommaaccent" unicode="&#x156;" horiz-adv-x="745" 
d="M160 270v-270h-55v700h275c190 0 285 -90 285 -215c0 -165 -165 -200 -165 -200v-5l210 -280h-70l-205 270h-275zM380 650h-220v-330h220c160 0 230 70 230 165s-70 165 -230 165zM340 -110c0 20 20 40 40 40c25 0 45 -20 45 -54c0 -81 -65 -126 -65 -126l-20 20
s35 35 40 75v5c-20 0 -40 20 -40 40z" />
    <glyph glyph-name="Sacute" unicode="&#x15a;" horiz-adv-x="620" 
d="M75 530c0 95 95 190 250 190c130 0 220 -75 220 -75l-25 -40s-85 65 -195 65c-125 0 -195 -70 -195 -140c0 -195 435 -100 435 -335c0 -115 -100 -215 -275 -215c-145 0 -235 85 -235 85l25 40s85 -75 210 -75c145 0 220 75 220 165c0 185 -435 90 -435 335zM382 970h65
l-110 -180h-45z" />
    <glyph glyph-name="Scaron" unicode="&#x160;" horiz-adv-x="620" 
d="M75 530c0 95 95 190 250 190c130 0 220 -75 220 -75l-25 -40s-85 65 -195 65c-125 0 -195 -70 -195 -140c0 -195 435 -100 435 -335c0 -115 -100 -215 -275 -215c-145 0 -235 85 -235 85l25 40s85 -75 210 -75c145 0 220 75 220 165c0 185 -435 90 -435 335zM282 790
l-155 185h60l120 -140h5l120 140h60l-155 -185h-55z" />
    <glyph glyph-name="Scedilla" unicode="&#x15e;" horiz-adv-x="620" 
d="M312 -70h25c75 0 120 -50 120 -110s-50 -110 -135 -110c-60 0 -100 30 -100 30l20 40s35 -25 80 -25c55 0 85 30 85 65s-30 65 -85 65h-30l-25 20v76c-132 8 -212 84 -212 84l25 40s85 -75 210 -75c145 0 220 75 220 165c0 185 -435 90 -435 335c0 95 95 190 250 190
c130 0 220 -75 220 -75l-25 -40s-85 65 -195 65c-125 0 -195 -70 -195 -140c0 -195 435 -100 435 -335c0 -110 -92 -206 -253 -214v-51z" />
    <glyph glyph-name="Tcaron" unicode="&#x164;" horiz-adv-x="635" 
d="M20 700h595v-50h-270v-650h-55v650h-270v50zM290 790l-155 185h60l120 -140h5l120 140h60l-155 -185h-55z" />
    <glyph glyph-name="Tcommaaccent" unicode="&#x162;" horiz-adv-x="635" 
d="M20 700h595v-50h-270v-650h-55v650h-270v50zM275 -130c0 20 20 40 40 40c25 0 45 -20 45 -54c0 -81 -65 -126 -65 -126l-20 20s35 35 40 75v5c-20 0 -40 20 -40 40z" />
    <glyph glyph-name="Yacute" unicode="&#xdd;" horiz-adv-x="695" 
d="M70 700l275 -410h5l275 410h60l-310 -465v-235h-55v235l-310 465h60zM410 960h65l-110 -180h-45z" />
    <glyph glyph-name="Ydieresis" unicode="&#x178;" horiz-adv-x="695" 
d="M70 700l275 -410h5l275 410h60l-310 -465v-235h-55v235l-310 465h60zM205 855c0 25 20 45 45 45s45 -20 45 -45s-20 -45 -45 -45s-45 20 -45 45zM410 855c0 25 20 45 45 45s45 -20 45 -45s-20 -45 -45 -45s-45 20 -45 45z" />
    <glyph glyph-name="ydieresis" unicode="&#xff;" 
d="M560 500v-485c0 -125 -100 -225 -260 -225c-110 0 -185 65 -185 65l25 40s64 -55 160 -55c125 0 205 80 205 175v10s-73 -25 -160 -25c-160 0 -255 95 -255 225v275h55v-275c0 -100 75 -175 200 -175c85 0 160 25 160 25v425h55zM180 665c0 25 20 45 45 45s45 -20 45 -45
s-20 -45 -45 -45s-45 20 -45 45zM385 665c0 25 20 45 45 45s45 -20 45 -45s-20 -45 -45 -45s-45 20 -45 45z" />
    <glyph glyph-name="yacute" unicode="&#xfd;" 
d="M560 500v-485c0 -125 -100 -225 -260 -225c-110 0 -185 65 -185 65l25 40s64 -55 160 -55c125 0 205 80 205 175v10s-73 -25 -160 -25c-160 0 -255 95 -255 225v275h55v-275c0 -100 75 -175 200 -175c85 0 160 25 160 25v425h55zM385 770h65l-110 -180h-45z" />
    <glyph glyph-name="tcommaaccent" unicode="&#x163;" horiz-adv-x="435" 
d="M140 640h35v-140h185v-50h-185v-295c0 -75 50 -125 120 -125c55 0 90 25 90 25l25 -40s-50 -35 -115 -35c-100 0 -175 75 -175 175v295h-95v50h95zM222 -140c0 20 20 40 40 40c25 0 45 -20 45 -54c0 -81 -65 -126 -65 -126l-20 20s35 35 40 75v5c-20 0 -40 20 -40 40z
" />
    <glyph glyph-name="tcaron" unicode="&#x165;" horiz-adv-x="465" 
d="M370 670c0 20 20 40 40 40c25 0 45 -20 45 -54c0 -81 -65 -126 -65 -126l-20 20s35 35 40 75v5c-20 0 -40 20 -40 40zM140 640h35v-140h185v-50h-185v-295c0 -75 50 -125 120 -125c55 0 90 25 90 25l25 -40s-50 -35 -115 -35c-100 0 -175 75 -175 175v295h-95v50h95z" />
    <glyph glyph-name="scommaaccent" unicode="&#x219;" horiz-adv-x="515" 
d="M470 135c0 -80 -75 -155 -230 -155c-115 0 -195 70 -195 70l25 40s70 -60 170 -60c125 0 175 50 175 105c0 135 -345 60 -345 240c0 75 70 145 200 145c110 0 180 -60 180 -60l-25 -40s-60 50 -155 50c-100 0 -145 -45 -145 -95c0 -130 345 -55 345 -240zM225 -130
c0 20 20 40 40 40c25 0 45 -20 45 -54c0 -81 -65 -126 -65 -126l-20 20s35 35 40 75v5c-20 0 -40 20 -40 40z" />
    <glyph glyph-name="scedilla" unicode="&#x15f;" horiz-adv-x="515" 
d="M260 -70h25c75 0 120 -50 120 -110s-50 -110 -135 -110c-60 0 -100 30 -100 30l20 40s35 -25 80 -25c55 0 85 30 85 65s-30 65 -85 65h-30l-25 20v76c-102 9 -170 69 -170 69l25 40s70 -60 170 -60c125 0 175 50 175 105c0 135 -345 60 -345 240c0 75 70 145 200 145
c110 0 180 -60 180 -60l-25 -40s-60 50 -155 50c-100 0 -145 -45 -145 -95c0 -130 345 -55 345 -240c0 -77 -69 -148 -210 -154v-51z" />
    <glyph glyph-name="scaron" unicode="&#x161;" horiz-adv-x="515" 
d="M470 135c0 -80 -75 -155 -230 -155c-115 0 -195 70 -195 70l25 40s70 -60 170 -60c125 0 175 50 175 105c0 135 -345 60 -345 240c0 75 70 145 200 145c110 0 180 -60 180 -60l-25 -40s-60 50 -155 50c-100 0 -145 -45 -145 -95c0 -130 345 -55 345 -240zM240 590
l-155 185h60l120 -140h5l120 140h60l-155 -185h-55z" />
    <glyph glyph-name="sacute" unicode="&#x15b;" horiz-adv-x="515" 
d="M470 135c0 -80 -75 -155 -230 -155c-115 0 -195 70 -195 70l25 40s70 -60 170 -60c125 0 175 50 175 105c0 135 -345 60 -345 240c0 75 70 145 200 145c110 0 180 -60 180 -60l-25 -40s-60 50 -155 50c-100 0 -145 -45 -145 -95c0 -130 345 -55 345 -240zM320 780h65
l-110 -180h-45z" />
    <glyph glyph-name="rcommaaccent" unicode="&#x157;" horiz-adv-x="447" 
d="M267 470c-70 0 -120 -25 -120 -25v-445h-55v480s75 40 175 40s165 -45 165 -45l-25 -45s-60 40 -140 40zM80 -130c0 20 20 40 40 40c25 0 45 -20 45 -54c0 -81 -65 -126 -65 -126l-20 20s35 35 40 75v5c-20 0 -40 20 -40 40z" />
    <glyph glyph-name="rcaron" unicode="&#x159;" horiz-adv-x="445" 
d="M266 470c-70 0 -120 -25 -120 -25v-445h-55v480s75 40 175 40s165 -45 165 -45l-25 -45s-60 40 -140 40zM225 600l-155 185h60l120 -140h5l120 140h60l-155 -185h-55z" />
    <glyph glyph-name="racute" unicode="&#x155;" horiz-adv-x="445" 
d="M265 470c-70 0 -120 -25 -120 -25v-445h-55v480s75 40 175 40s165 -45 165 -45l-25 -45s-60 40 -140 40zM324 790h65l-110 -180h-45z" />
    <glyph glyph-name="otilde" unicode="&#xf5;" horiz-adv-x="640" 
d="M110 250c0 -130 90 -220 210 -220s210 90 210 220s-90 220 -210 220s-210 -90 -210 -220zM585 250c0 -155 -115 -270 -265 -270s-265 115 -265 270s115 270 265 270s265 -115 265 -270zM245 705c-25 0 -45 -20 -45 -47v-38h-50v38c0 57 40 97 95 97c80 0 95 -90 150 -90
c25 0 45 20 45 47v38h50v-38c0 -57 -40 -97 -95 -97c-80 0 -95 90 -150 90z" />
    <glyph glyph-name="omacron" unicode="&#x14d;" horiz-adv-x="640" 
d="M110 250c0 -130 90 -220 210 -220s210 90 210 220s-90 220 -210 220s-210 -90 -210 -220zM585 250c0 -155 -115 -270 -265 -270s-265 115 -265 270s115 270 265 270s265 -115 265 -270zM487 690v-50h-335v50h335z" />
    <glyph glyph-name="ohungarumlaut" unicode="&#x151;" horiz-adv-x="640" 
d="M110 250c0 -130 90 -220 210 -220s210 90 210 220s-90 220 -210 220s-210 -90 -210 -220zM585 250c0 -155 -115 -270 -265 -270s-265 115 -265 270s115 270 265 270s265 -115 265 -270zM307 780h60l-105 -180h-45zM482 780h60l-105 -180h-45z" />
    <glyph glyph-name="odieresis" unicode="&#xf6;" horiz-adv-x="640" 
d="M110 250c0 -130 90 -220 210 -220s210 90 210 220s-90 220 -210 220s-210 -90 -210 -220zM585 250c0 -155 -115 -270 -265 -270s-265 115 -265 270s115 270 265 270s265 -115 265 -270zM177 675c0 25 20 45 45 45s45 -20 45 -45s-20 -45 -45 -45s-45 20 -45 45zM382 675
c0 25 20 45 45 45s45 -20 45 -45s-20 -45 -45 -45s-45 20 -45 45z" />
    <glyph glyph-name="ocircumflex" unicode="&#xf4;" horiz-adv-x="640" 
d="M110 250c0 -130 90 -220 210 -220s210 90 210 220s-90 220 -210 220s-210 -90 -210 -220zM585 250c0 -155 -115 -270 -265 -270s-265 115 -265 270s115 270 265 270s265 -115 265 -270zM137 590l155 185h55l155 -185h-60l-120 140h-5l-120 -140h-60z" />
    <glyph glyph-name="ograve" unicode="&#xf2;" horiz-adv-x="640" 
d="M110 250c0 -130 90 -220 210 -220s210 90 210 220s-90 220 -210 220s-210 -90 -210 -220zM585 250c0 -155 -115 -270 -265 -270s-265 115 -265 270s115 270 265 270s265 -115 265 -270zM191 780h64l93 -180h-47z" />
    <glyph glyph-name="ntilde" unicode="&#xf1;" horiz-adv-x="645" 
d="M90 0v480s100 40 215 40c160 0 255 -95 255 -225v-295h-55v295c0 100 -75 175 -200 175c-85 0 -160 -25 -160 -25v-445h-55zM237 705c-25 0 -45 -20 -45 -47v-38h-50v38c0 57 40 97 95 97c80 0 95 -90 150 -90c25 0 45 20 45 47v38h50v-38c0 -57 -40 -97 -95 -97
c-80 0 -95 90 -150 90z" />
    <glyph glyph-name="ncommaaccent" unicode="&#x146;" horiz-adv-x="645" 
d="M90 0v480s100 40 215 40c160 0 255 -95 255 -225v-295h-55v295c0 100 -75 175 -200 175c-85 0 -160 -25 -160 -25v-445h-55zM290 -120c0 20 20 40 40 40c25 0 45 -20 45 -54c0 -81 -65 -126 -65 -126l-20 20s35 35 40 75v5c-20 0 -40 20 -40 40z" />
    <glyph glyph-name="ncaron" unicode="&#x148;" horiz-adv-x="645" 
d="M90 0v480s100 40 215 40c160 0 255 -95 255 -225v-295h-55v295c0 100 -75 175 -200 175c-85 0 -160 -25 -160 -25v-445h-55zM295 596l-155 185h60l120 -140h5l120 140h60l-155 -185h-55z" />
    <glyph glyph-name="nacute" unicode="&#x144;" horiz-adv-x="645" 
d="M90 0v480s100 40 215 40c160 0 255 -95 255 -225v-295h-55v295c0 100 -75 175 -200 175c-85 0 -160 -25 -160 -25v-445h-55zM375 780h65l-110 -180h-45z" />
    <glyph glyph-name="iogonek" unicode="&#x12f;" horiz-adv-x="235" 
d="M95 -240c-75 0 -120 45 -120 100c0 71 97 139 120 153v487h55v-500s-125 -70 -125 -140c0 -30 25 -55 70 -55c42 0 80 25 80 25l20 -35s-43 -35 -100 -35zM80 665c0 25 20 45 45 45s45 -20 45 -45s-20 -45 -45 -45s-45 20 -45 45z" />
    <glyph glyph-name="imacron" unicode="&#x12b;" horiz-adv-x="255" 
d="M100 0v500h55v-500h-55zM295 680v-50h-335v50h335z" />
    <glyph glyph-name="idieresis" unicode="&#xef;" horiz-adv-x="245" 
d="M100 0v500h55v-500h-55zM-25 665c0 25 20 45 45 45s45 -20 45 -45s-20 -45 -45 -45s-45 20 -45 45zM180 665c0 25 20 45 45 45s45 -20 45 -45s-20 -45 -45 -45s-45 20 -45 45z" />
    <glyph glyph-name="icircumflex" unicode="&#xee;" horiz-adv-x="255" 
d="M100 0v500h55v-500h-55zM-55 600l155 185h55l155 -185h-60l-120 140h-5l-120 -140h-60z" />
    <glyph glyph-name="iacute" unicode="&#xed;" horiz-adv-x="235" 
d="M90 0v500h55v-500h-55zM180 770h65l-110 -180h-45z" />
    <glyph glyph-name="igrave" unicode="&#xec;" horiz-adv-x="237" 
d="M91 0v500h55v-500h-55zM-10 770h64l93 -180h-47z" />
    <glyph glyph-name="Ugrave" unicode="&#xd9;" horiz-adv-x="780" 
d="M630 270v430h55v-430c0 -170 -120 -290 -295 -290s-295 120 -295 290v430h55v-430c0 -150 90 -240 240 -240s240 90 240 240zM271 980h64l93 -180h-47z" />
    <glyph glyph-name="Uacute" unicode="&#xda;" horiz-adv-x="780" 
d="M630 270v430h55v-430c0 -170 -120 -290 -295 -290s-295 120 -295 290v430h55v-430c0 -150 90 -240 240 -240s240 90 240 240zM442 980h65l-110 -180h-45z" />
    <glyph glyph-name="Ucircumflex" unicode="&#xdb;" horiz-adv-x="780" 
d="M630 270v430h55v-430c0 -170 -120 -290 -295 -290s-295 120 -295 290v430h55v-430c0 -150 90 -240 240 -240s240 90 240 240zM207 800l155 185h55l155 -185h-60l-120 140h-5l-120 -140h-60z" />
    <glyph glyph-name="Udieresis" unicode="&#xdc;" horiz-adv-x="780" 
d="M630 270v430h55v-430c0 -170 -120 -290 -295 -290s-295 120 -295 290v430h55v-430c0 -150 90 -240 240 -240s240 90 240 240zM237 865c0 25 20 45 45 45s45 -20 45 -45s-20 -45 -45 -45s-45 20 -45 45zM442 865c0 25 20 45 45 45s45 -20 45 -45s-20 -45 -45 -45
s-45 20 -45 45z" />
    <glyph glyph-name="Uhungarumlaut" unicode="&#x170;" horiz-adv-x="780" 
d="M630 270v430h55v-430c0 -170 -120 -290 -295 -290s-295 120 -295 290v430h55v-430c0 -150 90 -240 240 -240s240 90 240 240zM347 960h60l-105 -180h-45zM522 960h60l-105 -180h-45z" />
    <glyph glyph-name="Umacron" unicode="&#x16a;" horiz-adv-x="780" 
d="M630 270v430h55v-430c0 -170 -120 -290 -295 -290s-295 120 -295 290v430h55v-430c0 -150 90 -240 240 -240s240 90 240 240zM557 890v-50h-335v50h335z" />
    <glyph glyph-name="Uogonek" unicode="&#x172;" horiz-adv-x="780" 
d="M425 -240c-75 0 -120 45 -120 100c0 52 46 96 79 120c-172 3 -289 122 -289 290v430h55v-430c0 -150 90 -240 240 -240s240 90 240 240v430h55v-430c0 -147 -90 -257 -227 -283c-35 -23 -103 -74 -103 -127c0 -30 25 -55 70 -55c42 0 80 25 80 25l20 -35
s-43 -35 -100 -35z" />
    <glyph glyph-name="Uring" unicode="&#x16e;" horiz-adv-x="780" 
d="M630 270v430h55v-430c0 -170 -120 -290 -295 -290s-295 120 -295 290v430h55v-430c0 -150 90 -240 240 -240s240 90 240 240zM520 880c0 -70 -55 -125 -130 -125s-130 55 -130 125s55 125 130 125s130 -55 130 -125zM305 880c0 -45 35 -80 85 -80s85 35 85 80
s-35 80 -85 80s-85 -35 -85 -80z" />
    <glyph glyph-name="Zacute" unicode="&#x179;" horiz-adv-x="640" 
d="M45 650v50h555v-50l-490 -595v-5h495v-50h-570v50l490 595v5h-480zM380 970h65l-110 -180h-45z" />
    <glyph glyph-name="Zcaron" unicode="&#x17d;" horiz-adv-x="640" 
d="M45 650v50h555v-50l-490 -595v-5h495v-50h-570v50l490 595v5h-480zM310 790l-155 185h60l120 -140h5l120 140h60l-155 -185h-55z" />
    <glyph glyph-name="Zdotaccent" unicode="&#x17b;" horiz-adv-x="640" 
d="M45 650v50h555v-50l-490 -595v-5h495v-50h-570v50l490 595v5h-480zM282 865c0 25 20 45 45 45s45 -20 45 -45s-20 -45 -45 -45s-45 20 -45 45z" />
    <glyph glyph-name="ugrave" unicode="&#xf9;" 
d="M560 500v-480s-100 -40 -215 -40c-160 0 -255 95 -255 225v295h55v-295c0 -100 75 -175 200 -175c85 0 160 25 160 25v445h55zM215 770h64l93 -180h-47z" />
    <glyph glyph-name="uacute" unicode="&#xfa;" 
d="M560 500v-480s-100 -40 -215 -40c-160 0 -255 95 -255 225v295h55v-295c0 -100 75 -175 200 -175c85 0 160 25 160 25v445h55zM376 770h65l-110 -180h-45z" />
    <glyph glyph-name="oacute" unicode="&#xf3;" horiz-adv-x="640" 
d="M110 250c0 -130 90 -220 210 -220s210 90 210 220s-90 220 -210 220s-210 -90 -210 -220zM585 250c0 -155 -115 -270 -265 -270s-265 115 -265 270s115 270 265 270s265 -115 265 -270zM382 770h65l-110 -180h-45z" />
    <glyph glyph-name="ucircumflex" unicode="&#xfb;" 
d="M560 500v-480s-100 -40 -215 -40c-160 0 -255 95 -255 225v295h55v-295c0 -100 75 -175 200 -175c85 0 160 25 160 25v445h55zM141 600l155 185h55l155 -185h-60l-120 140h-5l-120 -140h-60z" />
    <glyph glyph-name="udieresis" unicode="&#xfc;" 
d="M560 500v-480s-100 -40 -215 -40c-160 0 -255 95 -255 225v295h55v-295c0 -100 75 -175 200 -175c85 0 160 25 160 25v445h55zM171 665c0 25 20 45 45 45s45 -20 45 -45s-20 -45 -45 -45s-45 20 -45 45zM376 665c0 25 20 45 45 45s45 -20 45 -45s-20 -45 -45 -45
s-45 20 -45 45z" />
    <glyph glyph-name="uhungarumlaut" unicode="&#x171;" 
d="M560 500v-480s-100 -40 -215 -40c-160 0 -255 95 -255 225v295h55v-295c0 -100 75 -175 200 -175c85 0 160 25 160 25v445h55zM291 790h60l-105 -180h-45zM466 790h60l-105 -180h-45z" />
    <glyph glyph-name="umacron" unicode="&#x16b;" 
d="M560 500v-480s-100 -40 -215 -40c-160 0 -255 95 -255 225v295h55v-295c0 -100 75 -175 200 -175c85 0 160 25 160 25v445h55zM491 680v-50h-335v50h335z" />
    <glyph glyph-name="uogonek" unicode="&#x173;" 
d="M440 -240c-75 0 -120 45 -120 100s50 100 83 123c-19 -2 -38 -3 -58 -3c-160 0 -255 95 -255 225v295h55v-295c0 -100 75 -175 200 -175c85 0 160 25 160 25v445h55v-480s-28 -11 -66 -20c-3 -2 -124 -71 -124 -140c0 -30 25 -55 70 -55c42 0 80 25 80 25l20 -35
s-43 -35 -100 -35z" />
    <glyph glyph-name="uring" unicode="&#x16f;" 
d="M560 500v-480s-100 -40 -215 -40c-160 0 -255 95 -255 225v295h55v-295c0 -100 75 -175 200 -175c85 0 160 25 160 25v445h55zM454 690c0 -70 -55 -125 -130 -125s-130 55 -130 125s55 125 130 125s130 -55 130 -125zM239 690c0 -45 35 -80 85 -80s85 35 85 80
s-35 80 -85 80s-85 -35 -85 -80z" />
    <glyph glyph-name="zacute" unicode="&#x17a;" horiz-adv-x="510" 
d="M35 450v50h430v-50l-355 -395v-5h365v-50h-440v50l355 395v5h-355zM316 780h65l-110 -180h-45z" />
    <glyph glyph-name="zcaron" unicode="&#x17e;" horiz-adv-x="510" 
d="M35 450v50h430v-50l-355 -395v-5h365v-50h-440v50l355 395v5h-355zM226 590l-155 185h60l120 -140h5l120 140h60l-155 -185h-55z" />
    <glyph glyph-name="zdotaccent" unicode="&#x17c;" horiz-adv-x="510" 
d="M35 450v50h430v-50l-355 -395v-5h365v-50h-440v50l355 395v5h-355zM208 665c0 25 20 45 45 45s45 -20 45 -45s-20 -45 -45 -45s-45 20 -45 45z" />
    <glyph glyph-name="Scommaaccent" unicode="&#x218;" horiz-adv-x="620" 
d="M280 -140c0 20 20 40 40 40c25 0 45 -20 45 -54c0 -81 -65 -126 -65 -126l-20 20s35 35 40 75v5c-20 0 -40 20 -40 40zM75 530c0 95 95 190 250 190c130 0 220 -75 220 -75l-25 -40s-85 65 -195 65c-125 0 -195 -70 -195 -140c0 -195 435 -100 435 -335
c0 -115 -100 -215 -275 -215c-145 0 -235 85 -235 85l25 40s85 -75 210 -75c145 0 220 75 220 165c0 185 -435 90 -435 335z" />
    <glyph glyph-name="nbspace" unicode="&#xa0;" horiz-adv-x="280" 
 />
    </font>
</defs>
</svg>
