<?xml version="1.0" standalone="no"?>
<!DOCTYPE svg PUBLIC "-//W3C//DTD SVG 1.1//EN" "http://www.w3.org/Graphics/SVG/1.1/DTD/svg11.dtd" >
<svg xmlns="http://www.w3.org/2000/svg" xmlns:xlink="http://www.w3.org/1999/xlink" version="1.1">
<metadata>
Created by FontForge 20160407 at Wed Oct 19 19:39:14 2016
 By Jimmy Warting
Designed for Typetype in 2014 by Ivan Gladkikh. TT Prosto Sans is one of series of font families which were designed for use in web and mobile applications, print and multimedia environments. 
</metadata>
<defs>
<font id="TTProstoSans-Bold" horiz-adv-x="640" >
  <font-face 
    font-family="TT Prosto Sans"
    font-weight="700"
    font-stretch="normal"
    units-per-em="1000"
    panose-1="2 0 8 5 5 0 0 2 0 4"
    ascent="800"
    descent="-200"
    x-height="500"
    cap-height="700"
    bbox="-65 -340 1220 1010"
    underline-thickness="50"
    underline-position="-100"
    unicode-range="U+000D-F6D4"
  />
<missing-glyph horiz-adv-x="290" 
 />
    <glyph glyph-name=".notdef" horiz-adv-x="290" 
 />
    <glyph glyph-name=".null" horiz-adv-x="0" 
 />
    <glyph glyph-name=".null" horiz-adv-x="0" 
 />
    <glyph glyph-name="CR" unicode="&#xd;" horiz-adv-x="290" 
 />
    <glyph glyph-name="space" unicode=" " horiz-adv-x="290" 
 />
    <glyph glyph-name="slash" unicode="/" horiz-adv-x="570" 
d="M405 750h145l-385 -800h-145z" />
    <glyph glyph-name="backslash" unicode="\" horiz-adv-x="570" 
d="M20 750h145l385 -800h-145z" />
    <glyph glyph-name="equal" unicode="=" horiz-adv-x="570" 
d="M55 505h460v-120h-460v120zM55 280h460v-120h-460v120z" />
    <glyph glyph-name="greater" unicode="&#x3e;" horiz-adv-x="580" 
d="M60 120l320 130v5l-320 130v120l460 -190v-125l-460 -190v120z" />
    <glyph glyph-name="question" unicode="?" horiz-adv-x="590" 
d="M260 600c-96 0 -180 -60 -180 -60l-60 95s100 85 240 85c185 0 290 -105 290 -220c0 -165 -220 -175 -220 -265v-25h-120v25c0 145 195 165 195 265c0 54 -58 100 -145 100zM190 65c0 40 35 75 80 75s80 -35 80 -75s-35 -75 -80 -75s-80 35 -80 75z" />
    <glyph glyph-name="at" unicode="@" horiz-adv-x="1010" 
d="M705 470v-250s140 34 140 165c0 120 -125 245 -335 245c-185 0 -330 -149 -330 -330c0 -185 145 -330 335 -330c163 0 265 65 265 65l45 -95s-124 -80 -310 -80c-265 0 -465 200 -465 440s198 440 460 440c290 0 460 -170 460 -355c0 -155 -130 -285 -430 -285
c-135 0 -225 90 -225 200s91 200 225 200c94 0 165 -30 165 -30zM540 200c30 0 50 5 50 5v185s-20 10 -50 10c-64 0 -110 -42 -110 -100c0 -59 45 -100 110 -100z" />
    <glyph glyph-name="bracketleft" unicode="[" horiz-adv-x="410" 
d="M390 790v-120h-160v-820h160v-120h-300v1060h300z" />
    <glyph glyph-name="bracketright" unicode="]" horiz-adv-x="410" 
d="M20 672v118h295v-1060h-295v118h155v824h-155zM20 670v120h300v-1060h-300v120h160v820h-160z" />
    <glyph glyph-name="braceleft" unicode="{" horiz-adv-x="420" 
d="M185 265v-10s85 -21 85 -125v-220c0 -30 30 -60 70 -60h60v-120h-60c-130 0 -210 80 -210 180v220c0 40 -30 70 -65 70h-35v120h35c35 0 65 30 65 70v220c0 100 80 180 210 180h60v-120h-60c-40 0 -70 -30 -70 -60v-220c0 -104 -85 -125 -85 -125z" />
    <glyph glyph-name="braceright" unicode="}" horiz-adv-x="420" 
d="M235 255v10s-85 21 -85 125v220c0 30 -30 60 -70 60h-60v120h60c130 0 210 -80 210 -180v-220c0 -40 30 -70 65 -70h35v-120h-35c-35 0 -65 -30 -65 -70v-220c0 -100 -80 -180 -210 -180h-60v120h60c40 0 70 30 70 60v220c0 104 85 125 85 125z" />
    <glyph glyph-name="asciicircum" unicode="^" horiz-adv-x="535" 
d="M25 380l180 320h125l180 -320h-135l-105 195h-5l-105 -195h-135z" />
    <glyph glyph-name="underscore" unicode="_" horiz-adv-x="495" 
d="M475 -60v-115h-455v115h455z" />
    <glyph glyph-name="section" unicode="&#xa7;" horiz-adv-x="550" 
d="M395 120v-5s110 -45 110 -145c0 -90 -90 -180 -250 -180c-130 0 -220 85 -220 85l55 91s75 -66 155 -66c90 0 125 36 125 70c0 110 -325 100 -325 285c0 110 120 145 120 145v5s-90 35 -90 135c0 90 80 180 230 180c120 0 195 -65 195 -65l-55 -91s-60 46 -130 46
s-105 -36 -105 -70c0 -110 305 -90 305 -275c0 -105 -120 -145 -120 -145zM270 350c0 0 -90 -20 -90 -95c0 -65 110 -85 110 -85s90 21 90 95c0 65 -110 85 -110 85z" />
    <glyph glyph-name="logicalnot" unicode="&#xac;" horiz-adv-x="590" 
d="M540 450v-250h-130v135h-365v115h495z" />
    <glyph glyph-name="plusminus" unicode="&#xb1;" horiz-adv-x="590" 
d="M355 651v-190h190v-120h-190v-166h190v-120h-500v120h190v166h-190v120h190v190h120z" />
    <glyph glyph-name="cedilla" unicode="&#xb8;" horiz-adv-x="360" 
d="M170 0v-40c90 0 150 -60 150 -125s-60 -125 -160 -125c-70 0 -120 40 -120 40l40 70s30 -25 70 -25c50 0 65 15 65 40s-15 40 -65 40h-35l-30 25v100h85z" />
    <glyph glyph-name="paragraph" unicode="&#xb6;" horiz-adv-x="660" 
d="M220 700h430v-115h-90v-775h-130v775h-85v-775h-130v510c-110 0 -195 80 -195 185c0 110 85 195 200 195z" />
    <glyph glyph-name="grave" unicode="`" horiz-adv-x="305" 
d="M40 700h150l75 -185h-105z" />
    <glyph glyph-name="bar" unicode="|" horiz-adv-x="325" 
d="M230 820v-1010h-135v1010h135z" />
    <glyph glyph-name="asciitilde" unicode="~" horiz-adv-x="590" 
d="M215 325c-30 0 -50 -20 -50 -50v-35h-115v65c0 95 55 150 135 150c95 0 135 -95 190 -95c30 0 50 20 50 50v35h115v-65c0 -95 -55 -150 -135 -150c-95 0 -135 95 -190 95z" />
    <glyph glyph-name="tilde" unicode="&#x2dc;" horiz-adv-x="450" 
d="M165 670c-20 0 -35 -15 -35 -35v-25h-90v37c0 72 50 123 115 123s85 -60 130 -60c20 0 35 15 35 35v25h90v-37c0 -72 -50 -123 -115 -123s-85 60 -130 60z" />
    <glyph glyph-name="circumflex" unicode="&#x2c6;" horiz-adv-x="490" 
d="M305 785l145 -185h-125l-75 90h-10l-75 -90h-125l145 185h120z" />
    <glyph glyph-name="period" unicode="." horiz-adv-x="250" 
d="M45 65c0 40 35 75 80 75s80 -35 80 -75s-35 -75 -80 -75s-80 35 -80 75z" />
    <glyph glyph-name="comma" unicode="," horiz-adv-x="250" 
d="M115 -15v5c-40 5 -70 35 -70 75s35 75 80 75s80 -35 80 -90c0 -125 -120 -180 -120 -180l-25 45s40 35 55 70z" />
    <glyph glyph-name="semicolon" unicode=";" horiz-adv-x="260" 
d="M120 -15v5c-40 5 -70 35 -70 75s35 75 80 75s80 -35 80 -90c0 -125 -120 -180 -120 -180l-25 45s40 35 55 70zM50 445c0 40 35 75 80 75s80 -35 80 -75s-35 -75 -80 -75s-80 35 -80 75z" />
    <glyph glyph-name="colon" unicode=":" horiz-adv-x="260" 
d="M50 65c0 40 35 75 80 75s80 -35 80 -75s-35 -75 -80 -75s-80 35 -80 75zM50 445c0 40 35 75 80 75s80 -35 80 -75s-35 -75 -80 -75s-80 35 -80 75z" />
    <glyph glyph-name="exclam" unicode="!" horiz-adv-x="310" 
d="M225 700v-320l-20 -170h-100l-20 170v320h140zM75 65c0 40 35 75 80 75s80 -35 80 -75s-35 -75 -80 -75s-80 35 -80 75z" />
    <glyph glyph-name="quotedblright" unicode="&#x201d;" horiz-adv-x="455" 
d="M320 555v5c-40 5 -70 35 -70 75s35 75 80 75s80 -35 80 -90c0 -125 -120 -180 -120 -180l-25 45s40 35 55 70zM115 555v5c-40 5 -70 35 -70 75s35 75 80 75s80 -35 80 -90c0 -125 -120 -180 -120 -180l-25 45s40 35 55 70z" />
    <glyph glyph-name="quotedblleft" unicode="&#x201c;" horiz-adv-x="455" 
d="M135 595v-5c40 -5 70 -35 70 -75s-35 -75 -80 -75s-80 35 -80 90c0 125 120 180 120 180l25 -45s-40 -35 -55 -70zM340 595v-5c40 -5 70 -35 70 -75s-35 -75 -80 -75s-80 35 -80 90c0 125 120 180 120 180l25 -45s-40 -35 -55 -70z" />
    <glyph glyph-name="numbersign" unicode="#" horiz-adv-x="780" 
d="M230 0h-130l40 160h-110v110h135l40 160h-125v110h150l40 160h130l-40 -160h150l40 160h130l-40 -160h110v-110h-135l-40 -160h125v-110h-150l-40 -160h-130l40 160h-150zM335 430l-40 -160h150l40 160h-150z" />
    <glyph glyph-name="dollar" unicode="$" 
d="M380 -100h-120v82c-139 14 -225 93 -225 93l60 95s81 -75 195 -75c115 0 170 55 170 110c0 125 -395 60 -395 315c0 83 70 167 195 192v88h120v-82c127 -13 210 -83 210 -83l-55 -95s-80 60 -185 60c-95 0 -140 -45 -140 -80c0 -140 395 -70 395 -315
c0 -103 -78 -195 -225 -219v-86z" />
    <glyph glyph-name="percent" unicode="%" horiz-adv-x="860" 
d="M585 700h145l-460 -700h-145zM130 550c0 -50 30 -80 70 -80s70 30 70 80s-30 80 -70 80s-70 -30 -70 -80zM380 550c0 -95 -75 -170 -180 -170s-180 75 -180 170s75 170 180 170s180 -75 180 -170zM590 150c0 -50 30 -80 70 -80s70 30 70 80s-30 80 -70 80
s-70 -30 -70 -80zM840 150c0 -95 -75 -170 -180 -170s-180 75 -180 170s75 170 180 170s180 -75 180 -170z" />
    <glyph glyph-name="ampersand" unicode="&#x26;" horiz-adv-x="750" 
d="M695 370c0 -135 -65 -220 -65 -220l100 -90l-85 -90l-105 95s-85 -85 -235 -85c-180 0 -275 95 -275 200c0 140 155 190 155 190v5s-95 55 -95 155s91 190 230 190c140 0 230 -90 230 -190c0 -110 -140 -170 -140 -170v-5l130 -120s40 55 40 135h115zM310 90
c85 0 140 55 140 55l-175 160s-105 -45 -105 -120c0 -45 50 -95 140 -95zM225 530c0 -55 82 -105 82 -105s108 40 108 105c0 45 -35 80 -95 80s-95 -35 -95 -80z" />
    <glyph glyph-name="parenleft" unicode="(" horiz-adv-x="440" 
d="M335 -290c0 0 -265 210 -265 550s265 550 265 550l90 -80s-215 -200 -215 -470s215 -470 215 -470z" />
    <glyph glyph-name="parenright" unicode=")" horiz-adv-x="440" 
d="M105 -290l-90 80s215 200 215 470s-215 470 -215 470l90 80s265 -210 265 -550s-265 -550 -265 -550z" />
    <glyph glyph-name="guilsinglleft" unicode="&#x2039;" horiz-adv-x="420" 
d="M45 255l245 265l85 -85l-165 -175v-10l165 -175l-85 -85z" />
    <glyph glyph-name="guilsinglright" unicode="&#x203a;" horiz-adv-x="420" 
d="M130 520l245 -265l-245 -265l-85 85l165 175v10l-165 175z" />
    <glyph glyph-name="guillemotleft" unicode="&#xab;" horiz-adv-x="600" 
d="M315 435l-130 -175v-10l130 -175l-100 -65l-175 245l175 245zM560 435l-130 -175v-10l130 -175l-100 -65l-175 245l175 245z" />
    <glyph glyph-name="guillemotright" unicode="&#xbb;" horiz-adv-x="600" 
d="M415 260l-130 175l100 65l175 -245l-175 -245l-100 65l130 175v10zM170 260l-130 175l100 65l175 -245l-175 -245l-100 65l130 175v10z" />
    <glyph glyph-name="bullet" unicode="&#x2022;" horiz-adv-x="420" 
d="M100 300c0 60 45 105 110 105s110 -45 110 -105s-45 -105 -110 -105c-64 0 -110 45 -110 105z" />
    <glyph glyph-name="caron" unicode="&#x2c7;" horiz-adv-x="490" 
d="M450 785l-145 -185h-120l-145 185h125l75 -90h10l75 90h125z" />
    <glyph glyph-name="brokenbar" unicode="&#xa6;" horiz-adv-x="325" 
d="M230 820v-415h-135v415h135zM230 225v-415h-135v415h135z" />
    <glyph glyph-name="dieresis" unicode="&#xa8;" horiz-adv-x="445" 
d="M40 690c0 40 30 70 70 70s70 -30 70 -70s-30 -70 -70 -70s-70 30 -70 70zM265 690c0 40 30 70 70 70s70 -30 70 -70s-30 -70 -70 -70s-70 30 -70 70z" />
    <glyph glyph-name="ring" unicode="&#x2da;" horiz-adv-x="370" 
d="M125 615c0 -35 25 -60 60 -60s60 25 60 60s-25 60 -60 60s-60 -25 -60 -60zM330 615c0 -75 -60 -135 -145 -135s-145 60 -145 135s60 135 145 135s145 -60 145 -135z" />
    <glyph glyph-name="copyright" unicode="&#xa9;" horiz-adv-x="1020" 
d="M535 200c55 0 95 30 95 30l45 -75s-60 -55 -150 -55c-120 0 -210 90 -210 200s90 200 210 200c85 0 145 -50 145 -50l-45 -75s-40 25 -90 25c-60 0 -100 -40 -100 -100s40 -100 100 -100zM175 300c0 -180 150 -330 335 -330s335 150 335 330s-150 330 -335 330
s-335 -150 -335 -330zM970 300c0 -240 -200 -440 -460 -440s-460 200 -460 440s200 440 460 440s460 -200 460 -440z" />
    <glyph glyph-name="registered" unicode="&#xae;" horiz-adv-x="1020" 
d="M720 110h-125l-85 130h-55v-130h-115v380h195c110 0 160 -50 160 -125s-75 -100 -75 -100v-5zM535 400h-80v-70h80c25 0 40 15 40 35s-15 35 -40 35zM175 300c0 -180 150 -330 335 -330s335 150 335 330s-150 330 -335 330s-335 -150 -335 -330zM970 300
c0 -240 -200 -440 -460 -440s-460 200 -460 440s200 440 460 440s460 -200 460 -440z" />
    <glyph glyph-name="hyphen" unicode="-" horiz-adv-x="555" 
d="M45 405h465v-120h-465v120z" />
    <glyph glyph-name="quotesingle" unicode="'" horiz-adv-x="230" 
d="M155 460h-80l-15 110v130h110v-130z" />
    <glyph glyph-name="quotedbl" unicode="&#x22;" horiz-adv-x="420" 
d="M155 460h-80l-15 110v130h110v-130zM345 460h-80l-15 110v130h110v-130z" />
    <glyph glyph-name="dagger" unicode="&#x2020;" horiz-adv-x="625" 
d="M585 460v-120h-205v-520h-135v520h-205v120h205v240h135v-240h205z" />
    <glyph glyph-name="daggerdbl" unicode="&#x2021;" horiz-adv-x="645" 
d="M595 140v-120h-205v-200h-135v200h-205v120h205v240h-205v120h205v200h135v-200h205v-120h-205v-240h205z" />
    <glyph glyph-name="Euro" unicode="&#x20ac;" horiz-adv-x="755" 
d="M480 720c145 0 235 -70 235 -70l-60 -95s-72 45 -165 45c-95 0 -177 -49 -218 -130h283v-95h-310v-50h310v-95h-283c41 -81 123 -130 218 -130c100 0 175 55 175 55l60 -95s-95 -80 -245 -80c-181 0 -316 99 -363 250h-97v95h80v50h-80v95h97c47 150 182 250 363 250z
" />
    <glyph glyph-name="trademark" unicode="&#x2122;" horiz-adv-x="925" 
d="M633 515l87 185h115l40 -340h-105l-20 195h-5l-75 -155h-80l-75 155h-5l-20 -195h-105l40 340h115l87 -185h6zM10 700h350v-90h-120v-250h-110v250h-120v90z" />
    <glyph glyph-name="afii10050" unicode="&#x490;" horiz-adv-x="625" 
d="M90 0v700h385v90h140v-205h-385v-585h-140z" />
    <glyph glyph-name="degree" unicode="&#xb0;" horiz-adv-x="450" 
d="M140 550c0 -50 35 -85 85 -85s85 35 85 85s-35 85 -85 85s-85 -35 -85 -85zM410 550c0 -95 -75 -170 -185 -170s-185 75 -185 170s75 170 185 170s185 -75 185 -170z" />
    <glyph glyph-name="ogonek" unicode="&#x2db;" horiz-adv-x="350" 
d="M190 -260c-95 0 -150 55 -150 120c0 90 120 140 120 140h120s-130 -60 -130 -130c0 -25 15 -40 55 -40c30 0 65 20 65 20l40 -70s-50 -40 -120 -40z" />
    <glyph glyph-name="macron" unicode="&#xaf;" horiz-adv-x="440" 
d="M400 710v-110h-360v110h360z" />
    <glyph glyph-name="zero" unicode="0" horiz-adv-x="740" 
d="M190 350c0 -165 85 -250 180 -250s180 85 180 250s-85 250 -180 250s-180 -85 -180 -250zM690 350c0 -230 -140 -370 -320 -370s-320 140 -320 370s140 370 320 370s320 -140 320 -370z" />
    <glyph glyph-name="one" unicode="1" horiz-adv-x="455" 
d="M240 700h120v-700h-140v530h-5l-125 -100l-70 90z" />
    <glyph glyph-name="two" unicode="2" 
d="M285 720c190 0 295 -105 295 -225c0 -110 -66 -174 -155 -240l-180 -135v-5h340v-115h-550v115l300 225c60 45 100 85 100 150c0 60 -50 110 -150 110c-110 0 -190 -60 -190 -60l-60 95s104 85 250 85z" />
    <glyph glyph-name="three" unicode="3" horiz-adv-x="645" 
d="M55 700h515v-115l-220 -175v-5c145 0 240 -95 240 -205c0 -120 -100 -220 -310 -220c-159 0 -260 95 -260 95l60 95s87 -70 200 -70c110 0 165 55 165 100c0 55 -50 105 -160 105h-115v105l215 170v5h-330v115z" />
    <glyph glyph-name="four" unicode="4" horiz-adv-x="690" 
d="M30 140v120l395 440h140v-440h95v-120h-95v-140h-140v140h-395zM195 260h230v260h-5l-225 -255v-5z" />
    <glyph glyph-name="five" unicode="5" horiz-adv-x="670" 
d="M85 700h495v-115h-355v-160s50 25 120 25c165 0 270 -105 270 -235c0 -127 -107 -235 -305 -235c-160 0 -265 95 -265 95l60 95s83 -70 195 -70c120 0 170 50 170 115s-50 115 -150 115c-87 0 -155 -45 -155 -45l-80 60v355z" />
    <glyph glyph-name="six" unicode="6" horiz-adv-x="680" 
d="M350 100c85 0 140 55 140 120s-55 120 -140 120c-90 0 -155 -45 -155 -45c0 -120 75 -195 155 -195zM380 720c130 0 225 -70 225 -70l-60 -95s-70 45 -155 45c-110 0 -190 -80 -200 -190h5s65 50 155 50c175 0 285 -110 285 -240s-110 -240 -285 -240
c-170 0 -300 130 -300 360c0 240 140 380 330 380z" />
    <glyph glyph-name="seven" unicode="7" horiz-adv-x="595" 
d="M295 0h-155l270 578v7h-385v115h545v-115z" />
    <glyph glyph-name="eight" unicode="8" horiz-adv-x="680" 
d="M340 720c170 0 265 -98 265 -200c0 -118 -115 -150 -115 -150v-5s150 -29 150 -175c0 -105 -105 -210 -300 -210s-300 105 -300 210c0 146 150 175 150 175v5s-115 32 -115 150c0 102 95 200 265 200zM460 510c0 45 -45 90 -120 90s-120 -45 -120 -90s45 -90 120 -90
s120 44 120 90zM340 300c-105 0 -155 -50 -155 -100s50 -100 155 -100s155 50 155 100s-50 100 -155 100z" />
    <glyph glyph-name="nine" unicode="9" horiz-adv-x="680" 
d="M330 600c-85 0 -140 -55 -140 -120s55 -120 140 -120c90 0 155 45 155 45c0 120 -75 195 -155 195zM300 -20c-130 0 -225 70 -225 70l60 95s70 -45 155 -45c110 0 190 80 200 190h-5s-65 -50 -155 -50c-175 0 -285 110 -285 240s110 240 285 240c170 0 300 -130 300 -360
c0 -240 -140 -380 -330 -380z" />
    <glyph glyph-name="A" unicode="A" horiz-adv-x="775" 
d="M475 700l290 -700h-150l-55 140h-345l-55 -140h-150l290 700h175zM385 550l-120 -290h245l-120 290h-5z" />
    <glyph glyph-name="B" unicode="B" horiz-adv-x="750" 
d="M90 0v700h310c185 0 265 -80 265 -190s-115 -137 -115 -137v-5s165 -28 165 -168c0 -105 -95 -200 -276 -200h-349zM440 300h-210v-185h210c90 0 130 40 130 90c0 55 -40 95 -130 95zM400 415c80 0 120 40 120 85s-40 85 -120 85h-170v-170h170z" />
    <glyph glyph-name="C" unicode="C" horiz-adv-x="705" 
d="M430 720c145 0 235 -70 235 -70l-60 -95s-72 45 -165 45c-150 0 -250 -100 -250 -250s100 -250 250 -250c100 0 175 55 175 55l60 -95s-95 -80 -245 -80c-230 0 -385 155 -385 370s155 370 385 370z" />
    <glyph glyph-name="D" unicode="D" horiz-adv-x="780" 
d="M90 700h270c225 0 375 -150 375 -350c0 -205 -150 -350 -375 -350h-270v700zM360 585h-130v-470h130c135 0 230 95 230 235s-95 235 -230 235z" />
    <glyph glyph-name="E" unicode="E" horiz-adv-x="690" 
d="M90 0v700h560v-115h-420v-180h290v-115h-290v-175h430v-115h-570z" />
    <glyph glyph-name="F" unicode="F" horiz-adv-x="670" 
d="M90 0v700h560v-115h-420v-211h290v-114h-290v-260h-140z" />
    <glyph glyph-name="G" unicode="G" horiz-adv-x="760" 
d="M425 720c145 0 235 -70 235 -70l-60 -95s-72 45 -165 45c-150 0 -250 -100 -250 -250s100 -250 250 -250c70 0 120 25 120 25v165h-145v115h285v-338s-110 -87 -270 -87c-225 0 -380 155 -380 370s155 370 380 370z" />
    <glyph glyph-name="H" unicode="H" horiz-adv-x="820" 
d="M590 700h140v-700h-140v290h-360v-290h-140v700h140v-295h360v295z" />
    <glyph glyph-name="I" unicode="I" horiz-adv-x="320" 
d="M230 700v-700h-140v700h140z" />
    <glyph glyph-name="J" unicode="J" horiz-adv-x="560" 
d="M100 700h375v-445c0 -165 -110 -275 -280 -275c-110 0 -185 60 -185 60l55 100s50 -40 120 -40c85 0 150 65 150 155v330h-235v115z" />
    <glyph glyph-name="K" unicode="K" horiz-adv-x="740" 
d="M720 700l-275 -295l295 -405h-160l-225 310l-125 -130v-180h-140v700h140v-330h5l315 330h170z" />
    <glyph glyph-name="L" unicode="L" horiz-adv-x="645" 
d="M90 0v700h140v-585h395v-115h-535z" />
    <glyph glyph-name="M" unicode="M" horiz-adv-x="1005" 
d="M565 100h-125l-175 375h-5l-55 -475h-145l85 700h155l200 -435h5l200 435h155l85 -700h-145l-55 475h-5z" />
    <glyph glyph-name="N" unicode="N" horiz-adv-x="820" 
d="M585 220h5v480h140v-700h-150l-345 480h-5v-480h-140v700h150z" />
    <glyph glyph-name="O" unicode="O" horiz-adv-x="840" 
d="M45 350c0 215 155 370 375 370s375 -155 375 -370s-155 -370 -375 -370s-375 155 -375 370zM650 350c0 150 -100 250 -230 250s-230 -100 -230 -250s100 -250 230 -250s230 100 230 250z" />
    <glyph glyph-name="P" unicode="P" horiz-adv-x="745" 
d="M90 700h320c195 0 300 -105 300 -240s-105 -240 -300 -240h-180v-220h-140v700zM410 585h-180v-250h180c95 0 155 60 155 125s-60 125 -155 125z" />
    <glyph glyph-name="Q" unicode="Q" horiz-adv-x="840" 
d="M790 350c0 -185 -125 -280 -125 -280l115 -170h-150l-70 105s-60 -25 -140 -25c-215 0 -370 155 -370 370s155 370 370 370s370 -155 370 -370zM190 350c0 -150 100 -250 230 -250c40 0 70 10 70 10l-80 120h150l35 -50s55 60 55 170c0 150 -100 250 -230 250
s-230 -100 -230 -250z" />
    <glyph glyph-name="R" unicode="R" horiz-adv-x="770" 
d="M90 700h320c190 0 290 -100 290 -230c0 -150 -130 -200 -130 -200v-5l185 -265h-165l-165 240h-195v-240h-140v700zM555 470c0 65 -50 115 -145 115h-180v-230h180c95 0 145 60 145 115z" />
    <glyph glyph-name="S" unicode="S" 
d="M340 720c150 0 250 -85 250 -85l-55 -95s-80 60 -185 60c-95 0 -140 -45 -140 -80c0 -140 395 -70 395 -315c0 -120 -105 -225 -305 -225c-162 0 -265 95 -265 95l60 95s81 -75 195 -75c115 0 170 55 170 110c0 125 -395 60 -395 315c0 100 100 200 275 200z" />
    <glyph glyph-name="T" unicode="T" horiz-adv-x="660" 
d="M20 700h620v-115h-240v-585h-140v585h-240v115z" />
    <glyph glyph-name="U" unicode="U" horiz-adv-x="810" 
d="M405 -20c-195 0 -320 125 -320 300v420h140v-420c0 -110 70 -180 180 -180s180 70 180 180v420h140v-420c0 -175 -125 -300 -320 -300z" />
    <glyph glyph-name="V" unicode="V" horiz-adv-x="745" 
d="M285 0l-275 700h155l205 -550h5l205 550h155l-275 -700h-175z" />
    <glyph glyph-name="W" unicode="W" horiz-adv-x="1095" 
d="M550 520h-5l-145 -520h-185l-195 700h150l145 -525h5l143 525h169l143 -525h5l145 525h150l-195 -700h-185z" />
    <glyph glyph-name="X" unicode="X" horiz-adv-x="735" 
d="M365 260l-195 -260h-170l265 360l-235 340h170l165 -240h5l165 240h170l-235 -340l265 -360h-170l-195 260h-5z" />
    <glyph glyph-name="Y" unicode="Y" horiz-adv-x="710" 
d="M360 360l200 340h150l-285 -480v-220h-140v220l-285 480h150l200 -340h10z" />
    <glyph glyph-name="Z" unicode="Z" horiz-adv-x="670" 
d="M45 585v115h585v-115l-410 -465v-5h415v-115h-600v115l410 465v5h-400z" />
    <glyph glyph-name="a" unicode="a" horiz-adv-x="600" 
d="M285 520c160 0 245 -85 245 -220v-285s-115 -35 -245 -35c-175 0 -250 75 -250 175s75 175 250 175c64 0 115 -10 115 -10c0 55 -35 90 -115 90s-140 -35 -140 -35l-50 90s70 55 190 55zM285 90c60 0 115 15 115 15v105s-55 10 -115 10c-85 0 -115 -30 -115 -65
s30 -65 115 -65z" />
    <glyph glyph-name="b" unicode="b" 
d="M305 90c95 0 160 65 160 160s-65 160 -160 160c-45 0 -95 -15 -95 -15v-290s50 -15 95 -15zM210 700v-195s50 15 95 15c175 0 295 -120 295 -270s-120 -270 -295 -270c-115 0 -225 45 -225 45v675h130z" />
    <glyph glyph-name="c" unicode="c" horiz-adv-x="545" 
d="M470 130l50 -90s-72 -60 -185 -60c-175 0 -295 120 -295 270s120 270 295 270c108 0 180 -55 180 -55l-50 -90s-48 35 -120 35c-95 0 -170 -75 -170 -160s75 -160 170 -160c77 0 125 40 125 40z" />
    <glyph glyph-name="d" unicode="d" 
d="M335 90c45 0 95 15 95 15v290s-50 15 -95 15c-95 0 -160 -65 -160 -160s65 -160 160 -160zM430 505v195h130v-675s-110 -45 -225 -45c-175 0 -295 120 -295 270s120 270 295 270c45 0 95 -15 95 -15z" />
    <glyph glyph-name="f" unicode="f" horiz-adv-x="420" 
d="M240 510v-10h155v-105h-155v-395h-130v395h-80v105h80v10c0 125 85 210 215 210c65 0 115 -30 115 -30l-30 -100s-35 20 -75 20c-60 0 -95 -35 -95 -100z" />
    <glyph glyph-name="g" unicode="g" horiz-adv-x="635" 
d="M560 475v-440c0 -145 -100 -245 -280 -245c-120 0 -195 60 -195 60l50 90s55 -40 135 -40c140 0 160 115 160 115v5s-50 -15 -95 -15c-180 0 -295 115 -295 260c0 140 115 255 295 255c115 0 225 -45 225 -45zM335 410c-100 0 -160 -60 -160 -145c0 -90 60 -150 160 -150
c45 0 95 15 95 15v265s-50 15 -95 15z" />
    <glyph glyph-name="h" unicode="h" horiz-adv-x="655" 
d="M80 0v700h130v-195s55 15 110 15c170 0 265 -95 265 -225v-295h-130v295c0 65 -50 115 -135 115c-55 0 -110 -15 -110 -15v-395h-130z" />
    <glyph glyph-name="i" unicode="i" horiz-adv-x="290" 
d="M80 0v500h130v-500h-130zM65 645c0 40 35 75 80 75s80 -35 80 -75s-35 -75 -80 -75s-80 35 -80 75z" />
    <glyph glyph-name="j" unicode="j" horiz-adv-x="295" 
d="M85 40v460h130v-460c0 -205 -192 -263 -192 -263l-48 93s110 55 110 170zM70 645c0 40 35 75 80 75s80 -35 80 -75s-35 -75 -80 -75s-80 35 -80 75z" />
    <glyph glyph-name="k" unicode="k" horiz-adv-x="590" 
d="M285 205l-85 -85v-120h-130v700h130v-415h5l210 215h150l-200 -205l225 -295h-150z" />
    <glyph glyph-name="l" unicode="l" horiz-adv-x="315" 
d="M235 700v-700h-130v595h-75v105h205z" />
    <glyph glyph-name="m" unicode="m" horiz-adv-x="945" 
d="M455 469h5s70 51 170 51c160 0 245 -85 245 -225v-295h-130v295c0 75 -40 115 -115 115c-65 0 -104 -34 -104 -34s14 -31 14 -81v-295h-130v295c0 75 -40 115 -115 115c-50 0 -90 -15 -90 -15v-395h-130v475s110 45 220 45c105 0 160 -51 160 -51z" />
    <glyph glyph-name="n" unicode="n" horiz-adv-x="650" 
d="M75 0v475s125 45 240 45c170 0 265 -95 265 -225v-295h-130v295c0 65 -50 115 -135 115c-55 0 -110 -15 -110 -15v-395h-130z" />
    <glyph glyph-name="o" unicode="o" 
d="M465 250c0 95 -65 160 -145 160s-145 -65 -145 -160s65 -160 145 -160s145 65 145 160zM40 250c0 150 120 270 280 270s280 -120 280 -270s-120 -270 -280 -270s-280 120 -280 270z" />
    <glyph glyph-name="p" unicode="p" horiz-adv-x="635" 
d="M300 410c-45 0 -95 -15 -95 -15v-290s50 -15 95 -15c95 0 160 65 160 160s-65 160 -160 160zM205 -5v-185h-130v665s110 45 225 45c175 0 295 -120 295 -270s-120 -270 -295 -270c-45 0 -95 15 -95 15z" />
    <glyph glyph-name="q" unicode="q" horiz-adv-x="635" 
d="M335 410c-95 0 -160 -65 -160 -160s65 -160 160 -160c45 0 95 15 95 15v290s-50 15 -95 15zM430 -190v185s-50 -15 -95 -15c-175 0 -295 120 -295 270s120 270 295 270c115 0 225 -45 225 -45v-665h-130z" />
    <glyph glyph-name="r" unicode="r" horiz-adv-x="460" 
d="M290 410c-45 0 -85 -15 -85 -15v-395h-130v475s95 45 205 45c97 0 170 -40 170 -40l-35 -100s-50 30 -125 30z" />
    <glyph glyph-name="s" unicode="s" horiz-adv-x="530" 
d="M495 150c0 -85 -85 -170 -255 -170c-120 0 -205 70 -205 70l50 90s65 -50 155 -50s120 30 120 60c0 75 -300 25 -300 205c0 85 80 165 225 165c120 0 195 -65 195 -65l-50 -90s-60 45 -145 45c-65 0 -90 -25 -90 -55c0 -75 300 -25 300 -205z" />
    <glyph glyph-name="t" unicode="t" horiz-adv-x="455" 
d="M155 640h80v-140h155v-105h-155v-210c0 -60 35 -95 95 -95c45 0 75 20 75 20l30 -100s-55 -30 -115 -30c-140 0 -215 75 -215 205v210h-85v105h85z" />
    <glyph glyph-name="u" unicode="u" horiz-adv-x="655" 
d="M580 500v-475s-125 -45 -240 -45c-170 0 -265 95 -265 225v295h130v-295c0 -65 50 -115 135 -115c55 0 110 15 110 15v395h130z" />
    <glyph glyph-name="v" unicode="v" horiz-adv-x="585" 
d="M290 130h5l140 370h140l-205 -500h-155l-205 500h140z" />
    <glyph glyph-name="w" unicode="w" horiz-adv-x="885" 
d="M440 340l-110 -340h-160l-150 500h135l105 -350h5l105 350h145l105 -350h5l105 350h135l-150 -500h-160l-110 340h-5z" />
    <glyph glyph-name="y" unicode="y" horiz-adv-x="655" 
d="M580 500v-480c0 -120 -105 -230 -285 -230c-120 0 -195 60 -195 60l50 90s60 -40 145 -40c135 0 155 110 155 110v10s-60 -10 -110 -10c-170 0 -265 95 -265 225v265h130v-265c0 -65 50 -115 135 -115c55 0 110 15 110 15v365h130z" />
    <glyph glyph-name="z" unicode="z" horiz-adv-x="535" 
d="M40 395v105h450v-105l-276 -285v-5h286v-105h-465v105l275 285v5h-270z" />
    <glyph glyph-name="afii10018" unicode="&#x411;" horiz-adv-x="745" 
d="M230 115h195c90 0 140 50 140 110s-50 110 -140 110h-195v-220zM710 225c0 -120 -105 -225 -285 -225h-335v700h555v-115h-415v-135h195c180 0 285 -105 285 -225z" />
    <glyph glyph-name="afii10020" unicode="&#x413;" horiz-adv-x="625" 
d="M90 0v700h525v-115h-385v-585h-140z" />
    <glyph glyph-name="afii10021" unicode="&#x414;" horiz-adv-x="810" 
d="M185 700h505v-585h90v-265h-140v150h-500v-150h-140v265h10c60 0 109 50 120 140zM275 255c-5 -75 -65 -135 -65 -135v-5h340v470h-235z" />
    <glyph glyph-name="afii10024" unicode="&#x416;" horiz-adv-x="1150" 
d="M210 700l50 -180c17 -60 60 -105 140 -105h105v285h140v-285h105c80 0 123 45 140 105l50 180h145l-50 -180c-43 -155 -125 -180 -125 -180v-5l230 -335h-165l-205 300h-125v-300h-140v300h-125l-205 -300h-165l230 335v5s-82 25 -125 180l-50 180h145z" />
    <glyph glyph-name="afii10025" unicode="&#x417;" horiz-adv-x="635" 
d="M285 -20c-165 0 -265 95 -265 95l60 95s78 -75 195 -75c114 0 170 50 170 105s-50 105 -170 105h-85v115h105c78 0 130 47 130 90c0 45 -45 90 -140 90c-104 0 -180 -60 -180 -60l-60 95s98 85 250 85c175 0 275 -100 275 -200c0 -130 -145 -150 -145 -150v-5
s165 -25 165 -170c0 -110 -107 -215 -305 -215z" />
    <glyph glyph-name="afii10026" unicode="&#x418;" horiz-adv-x="815" 
d="M230 0h-140v700h140v-480h5l350 480h140v-700h-140v480h-5z" />
    <glyph glyph-name="afii10027" unicode="&#x419;" horiz-adv-x="815" 
d="M230 0h-140v700h140v-480h5l350 480h140v-700h-140v480h-5zM410 870c45 0 75 30 75 70h105c0 -103 -72 -175 -180 -175s-180 72 -180 175h105c0 -40 30 -70 75 -70z" />
    <glyph glyph-name="afii10029" unicode="&#x41b;" horiz-adv-x="810" 
d="M205 700h515v-700h-140v585h-245l-40 -345c-20 -175 -105 -260 -225 -260c-41 0 -70 10 -70 10v110h30c65 0 109 45 120 140z" />
    <glyph glyph-name="afii10033" unicode="&#x41f;" horiz-adv-x="815" 
d="M90 700h635v-700h-140v585h-355v-585h-140v700z" />
    <glyph glyph-name="afii10037" unicode="&#x423;" horiz-adv-x="710" 
d="M225 0l89 190h-59l-245 510h155l190 -405h10l190 405h155l-330 -700h-155z" />
    <glyph glyph-name="afii10038" unicode="&#x424;" horiz-adv-x="980" 
d="M560 730v-75c255 -15 385 -145 385 -305s-130 -290 -385 -305v-75h-140v75c-255 15 -385 145 -385 305s130 290 385 305v75h140zM560 535v-370c160 5 240 85 240 185s-80 180 -240 185zM420 165v370c-160 -5 -240 -85 -240 -185s80 -180 240 -185z" />
    <glyph glyph-name="afii10040" unicode="&#x426;" horiz-adv-x="825" 
d="M655 -149v149h-565v700h140v-585h335v585h140v-585h90v-264h-140z" />
    <glyph glyph-name="afii10041" unicode="&#x427;" horiz-adv-x="760" 
d="M70 500v200h140v-200c0 -90 70 -160 160 -160s160 30 160 30v330h140v-700h-140v250s-70 -30 -170 -30c-175 0 -290 115 -290 280z" />
    <glyph glyph-name="afii10042" unicode="&#x428;" horiz-adv-x="1140" 
d="M1050 700v-700h-960v700h140v-585h270v585h140v-585h270v585h140z" />
    <glyph glyph-name="afii10043" unicode="&#x429;" horiz-adv-x="1170" 
d="M1000 0h-910v700h140v-585h270v585h140v-585h270v585h140v-585h90v-265h-140v150z" />
    <glyph glyph-name="afii10044" unicode="&#x42a;" horiz-adv-x="795" 
d="M460 0h-290v585h-170v115h310v-230h150c195 0 295 -100 295 -235s-100 -235 -295 -235zM610 235c0 55 -55 120 -150 120h-150v-240h150c95 0 150 55 150 120z" />
    <glyph glyph-name="afii10045" unicode="&#x42b;" horiz-adv-x="1020" 
d="M530 235c0 55 -55 120 -150 120h-150v-240h150c95 0 150 55 150 120zM380 0h-290v700h140v-230h150c195 0 295 -100 295 -235s-100 -235 -295 -235zM930 700v-700h-140v700h140z" />
    <glyph glyph-name="afii10046" unicode="&#x42c;" horiz-adv-x="730" 
d="M545 235c0 55 -55 120 -150 120h-165v-240h165c95 0 150 55 150 120zM395 0h-305v700h140v-230h165c195 0 295 -100 295 -235s-100 -235 -295 -235z" />
    <glyph glyph-name="afii10047" unicode="&#x42d;" horiz-adv-x="705" 
d="M275 720c230 0 385 -155 385 -370s-155 -370 -385 -370c-150 0 -245 80 -245 80l60 95s75 -55 175 -55c140 0 220 85 245 195h-295v115h295c-25 105 -105 190 -245 190c-93 0 -165 -45 -165 -45l-60 95s90 70 235 70z" />
    <glyph glyph-name="afii10048" unicode="&#x42e;" horiz-adv-x="1110" 
d="M1065 350c0 -215 -155 -370 -360 -370c-195 0 -330 135 -355 310h-120v-290h-140v700h140v-295h120c25 180 160 315 355 315c205 0 360 -155 360 -370zM490 350c0 -150 100 -250 215 -250s215 100 215 250s-100 250 -215 250s-215 -100 -215 -250z" />
    <glyph glyph-name="afii10049" unicode="&#x42f;" horiz-adv-x="770" 
d="M355 700h325v-700h-140v240h-195l-170 -240h-160l190 265v5s-140 40 -140 200c0 135 94 230 290 230zM210 470c0 -55 50 -115 145 -115h185v230h-185c-95 0 -145 -50 -145 -115z" />
    <glyph glyph-name="afii10065" unicode="&#x430;" horiz-adv-x="600" 
d="M285 520c160 0 245 -85 245 -220v-285s-115 -35 -245 -35c-175 0 -250 75 -250 175s75 175 250 175c64 0 115 -10 115 -10c0 55 -35 90 -115 90s-140 -35 -140 -35l-50 90s70 55 190 55zM285 90c60 0 115 15 115 15v105s-55 10 -115 10c-85 0 -115 -30 -115 -65
s30 -65 115 -65z" />
    <glyph glyph-name="afii10066" unicode="&#x431;" horiz-adv-x="620" 
d="M170 400h5s55 70 155 70c155 0 260 -105 260 -245s-105 -245 -270 -245s-270 105 -270 245v145c0 200 110 312 270 330l225 25l15 -110l-225 -25c-90 -10 -165 -75 -165 -190zM460 225c0 75 -55 130 -140 130s-140 -55 -140 -130s55 -130 140 -130s140 55 140 130z" />
    <glyph glyph-name="afii10067" unicode="&#x432;" horiz-adv-x="590" 
d="M435 265v-5s125 -20 125 -115c0 -85 -70 -155 -255 -155c-120 0 -230 25 -230 25v470s100 25 210 25c175 0 240 -65 240 -150c0 -75 -90 -95 -90 -95zM316 200h-111v-90s50 -10 100 -10c95 0 120 25 120 50s-25 50 -109 50zM205 310h90c75 0 95 20 95 45s-20 45 -105 45
c-40 0 -80 -10 -80 -10v-80z" />
    <glyph glyph-name="afii10068" unicode="&#x433;" horiz-adv-x="500" 
d="M75 500h415v-105h-285v-395h-130v500z" />
    <glyph glyph-name="afii10069" unicode="&#x434;" horiz-adv-x="655" 
d="M150 500h400v-395h80v-230h-130v125h-370v-125h-130v230c60 0 107 45 115 115zM265 395l-20 -175c-8 -70 -60 -110 -60 -110v-5h235v290h-155z" />
    <glyph glyph-name="afii10072" unicode="&#x436;" horiz-adv-x="900" 
d="M295 200l-140 -200h-145l165 230v5s-71 25 -100 145l-30 120h130l30 -120c10 -40 45 -75 110 -75h70v195h130v-195h70c65 0 100 35 110 75l30 120h130l-30 -120c-29 -120 -100 -145 -100 -145v-5l165 -230h-145l-140 200h-90v-200h-130v200h-90z" />
    <glyph glyph-name="afii10073" unicode="&#x437;" horiz-adv-x="515" 
d="M230 -20c-125 0 -215 75 -215 75l50 85s70 -50 155 -50c100 0 125 25 125 60c0 30 -25 55 -115 55h-70v105h80c60 0 85 25 85 50s-25 50 -95 50c-80 0 -145 -50 -145 -50l-50 85s85 75 205 75c140 0 220 -80 220 -150c0 -85 -100 -105 -100 -105v-5s120 -20 120 -120
c0 -80 -80 -160 -250 -160z" />
    <glyph glyph-name="afii10074" unicode="&#x438;" horiz-adv-x="650" 
d="M205 0h-130v500h130v-315h5l235 315h130v-500h-130v315h-5z" />
    <glyph glyph-name="afii10075" unicode="&#x439;" horiz-adv-x="650" 
d="M205 0h-130v500h130v-315h5l235 315h130v-500h-130v315h-5zM325 580c-105 0 -175 70 -175 165h100c0 -45 30 -75 75 -75s75 30 75 75h100c0 -95 -70 -165 -175 -165z" />
    <glyph glyph-name="afii10076" unicode="&#x43a;" horiz-adv-x="610" 
d="M455 0l-140 200h-110v-200h-130v500h130v-195h90c65 0 100 35 110 75l30 120h130l-30 -120c-29 -120 -100 -145 -100 -145v-5l165 -230h-145z" />
    <glyph glyph-name="afii10077" unicode="&#x43b;" horiz-adv-x="650" 
d="M165 500h410v-500h-130v395h-165l-20 -185c-16 -155 -90 -230 -195 -230c-30 0 -65 10 -65 10v105h10c70 0 111 40 120 115z" />
    <glyph glyph-name="afii10078" unicode="&#x43c;" horiz-adv-x="785" 
d="M450 60h-115l-110 245h-5l-35 -305h-135l60 500h145l135 -295h5l135 295h145l60 -500h-135l-35 305h-5z" />
    <glyph glyph-name="afii10079" unicode="&#x43d;" horiz-adv-x="645" 
d="M75 0v500h130v-205h235v205h130v-500h-130v190h-235v-190h-130z" />
    <glyph glyph-name="afii10080" unicode="&#x43e;" 
d="M465 250c0 95 -65 160 -145 160s-145 -65 -145 -160s65 -160 145 -160s145 65 145 160zM40 250c0 150 120 270 280 270s280 -120 280 -270s-120 -270 -280 -270s-280 120 -280 270z" />
    <glyph glyph-name="afii10081" unicode="&#x43f;" horiz-adv-x="645" 
d="M75 0v500h495v-500h-130v395h-235v-395h-130z" />
    <glyph glyph-name="afii10082" unicode="&#x440;" horiz-adv-x="635" 
d="M300 410c-45 0 -95 -15 -95 -15v-290s50 -15 95 -15c95 0 160 65 160 160s-65 160 -160 160zM205 -5v-185h-130v665s110 45 225 45c175 0 295 -120 295 -270s-120 -270 -295 -270c-45 0 -95 15 -95 15z" />
    <glyph glyph-name="afii10083" unicode="&#x441;" horiz-adv-x="545" 
d="M470 130l50 -90s-72 -60 -185 -60c-175 0 -295 120 -295 270s120 270 295 270c108 0 180 -55 180 -55l-50 -90s-48 35 -120 35c-95 0 -170 -75 -170 -160s75 -160 170 -160c77 0 125 40 125 40z" />
    <glyph glyph-name="afii10084" unicode="&#x442;" horiz-adv-x="520" 
d="M15 500h490v-105h-180v-395h-130v395h-180v105z" />
    <glyph glyph-name="afii10085" unicode="&#x443;" horiz-adv-x="590" 
d="M185 -190l70 190h-65l-185 500h139l147 -400h5l149 400h140l-260 -690h-140z" />
    <glyph glyph-name="afii10086" unicode="&#x444;" horiz-adv-x="860" 
d="M495 700v-195s40 15 80 15c135 0 245 -110 245 -270s-110 -270 -245 -270c-40 0 -80 15 -80 15v-185h-130v185s-40 -15 -80 -15c-135 0 -245 110 -245 270s110 270 245 270c40 0 80 -15 80 -15v195h130zM365 105v290s-30 15 -70 15c-70 0 -120 -50 -120 -160
s50 -160 120 -160c40 0 70 15 70 15zM495 395v-290s30 -15 70 -15c70 0 120 50 120 160s-50 160 -120 160c-40 0 -70 -15 -70 -15z" />
    <glyph glyph-name="afii10087" unicode="&#x445;" horiz-adv-x="565" 
d="M165 500l115 -165h5l115 165h145l-175 -245l190 -255h-145l-130 170h-5l-130 -170h-145l190 255l-175 245h145z" />
    <glyph glyph-name="afii10088" unicode="&#x446;" horiz-adv-x="660" 
d="M75 0v500h130v-395h220v395h130v-395h80v-230h-130v125h-430z" />
    <glyph glyph-name="afii10089" unicode="&#x447;" horiz-adv-x="605" 
d="M295 255c55 0 105 19 105 19v226h130v-500h-130v165s-60 -20 -120 -20c-140 0 -225 85 -225 215v140h130v-140c0 -65 40 -105 110 -105z" />
    <glyph glyph-name="afii10090" unicode="&#x448;" horiz-adv-x="910" 
d="M835 500v-500h-760v500h130v-395h185v395h130v-395h185v395h130z" />
    <glyph glyph-name="afii10091" unicode="&#x449;" horiz-adv-x="940" 
d="M785 0h-710v500h130v-395h185v395h130v-395h185v395h130v-395h80v-230h-130v125z" />
    <glyph glyph-name="afii10092" unicode="&#x44a;" 
d="M0 500h275v-150h90c165 0 245 -80 245 -180s-80 -180 -255 -180c-110 0 -210 20 -210 20v385h-145v105zM365 100c80 0 110 30 110 70s-30 70 -110 70h-90v-135s40 -5 90 -5z" />
    <glyph glyph-name="afii10093" unicode="&#x44b;" horiz-adv-x="825" 
d="M750 500v-500h-130v500h130zM75 500h130v-150h90c165 0 245 -80 245 -179c0 -101 -80 -181 -255 -181c-110 0 -210 20 -210 20v490zM295 100c80 0 110 30 110 71c0 39 -30 69 -110 69h-90v-135s40 -5 90 -5z" />
    <glyph glyph-name="afii10094" unicode="&#x44c;" horiz-adv-x="580" 
d="M75 500h130v-150h100c165 0 245 -80 245 -179c0 -101 -80 -181 -255 -181c-110 0 -220 20 -220 20v490zM305 100c80 0 110 30 110 71c0 39 -30 69 -110 69h-100v-135s50 -5 100 -5z" />
    <glyph glyph-name="afii10095" unicode="&#x44d;" horiz-adv-x="545" 
d="M25 40l50 90s48 -40 125 -40c85 0 140 50 160 110h-200v105h200c-20 65 -80 105 -160 105c-72 0 -120 -35 -120 -35l-50 90s72 55 180 55c175 0 295 -120 295 -270s-120 -270 -295 -270c-113 0 -185 60 -185 60z" />
    <glyph glyph-name="afii10096" unicode="&#x44e;" horiz-adv-x="870" 
d="M75 0v500h130v-200h90c20 120 130 220 265 220c150 0 270 -120 270 -270c0 -155 -120 -270 -270 -270c-140 0 -245 105 -265 215h-90v-195h-130zM425 250c0 -95 65 -160 135 -160s135 65 135 160s-65 160 -135 160s-135 -65 -135 -160z" />
    <glyph glyph-name="afii10097" unicode="&#x44f;" horiz-adv-x="605" 
d="M530 0h-130v155h-130l-110 -155h-145l130 185v5s-90 40 -90 140s80 180 255 180c110 0 220 -20 220 -20v-490zM300 400c-80 0 -110 -30 -110 -70s30 -70 110 -70h100v135s-50 5 -100 5z" />
    <glyph glyph-name="afii10017" unicode="&#x410;" horiz-adv-x="775" 
d="M475 700l290 -700h-150l-55 140h-345l-55 -140h-150l290 700h175zM385 550l-120 -290h245l-120 290h-5z" />
    <glyph glyph-name="afii10019" unicode="&#x412;" horiz-adv-x="750" 
d="M90 0v700h310c185 0 265 -80 265 -190s-115 -137 -115 -137v-5s165 -28 165 -168c0 -105 -95 -200 -276 -200h-349zM440 300h-210v-185h210c90 0 130 40 130 90c0 55 -40 95 -130 95zM400 415c80 0 120 40 120 85s-40 85 -120 85h-170v-170h170z" />
    <glyph glyph-name="afii10028" unicode="&#x41a;" horiz-adv-x="760" 
d="M500 520l50 180h145l-50 -180c-43 -155 -125 -180 -125 -180v-5l230 -335h-165l-205 300h-150v-300h-140v700h140v-285h130c80 0 123 45 140 105z" />
    <glyph glyph-name="afii10031" unicode="&#x41d;" horiz-adv-x="820" 
d="M590 700h140v-700h-140v290h-360v-290h-140v700h140v-295h360v295z" />
    <glyph glyph-name="afii10032" unicode="&#x41e;" horiz-adv-x="840" 
d="M45 350c0 215 155 370 375 370s375 -155 375 -370s-155 -370 -375 -370s-375 155 -375 370zM650 350c0 150 -100 250 -230 250s-230 -100 -230 -250s100 -250 230 -250s230 100 230 250z" />
    <glyph glyph-name="afii10034" unicode="&#x420;" horiz-adv-x="745" 
d="M90 700h320c195 0 300 -105 300 -240s-105 -240 -300 -240h-180v-220h-140v700zM410 585h-180v-250h180c95 0 155 60 155 125s-60 125 -155 125z" />
    <glyph glyph-name="afii10035" unicode="&#x421;" horiz-adv-x="705" 
d="M430 720c145 0 235 -70 235 -70l-60 -95s-72 45 -165 45c-150 0 -250 -100 -250 -250s100 -250 250 -250c100 0 175 55 175 55l60 -95s-95 -80 -245 -80c-230 0 -385 155 -385 370s155 370 385 370z" />
    <glyph glyph-name="afii10036" unicode="&#x422;" horiz-adv-x="660" 
d="M20 700h620v-115h-240v-585h-140v585h-240v115z" />
    <glyph glyph-name="afii10039" unicode="&#x425;" horiz-adv-x="735" 
d="M365 260l-195 -260h-170l265 360l-235 340h170l165 -240h5l165 240h170l-235 -340l265 -360h-170l-195 260h-5z" />
    <glyph glyph-name="afii10022" unicode="&#x415;" horiz-adv-x="690" 
d="M90 0v700h560v-115h-420v-180h290v-115h-290v-175h430v-115h-570z" />
    <glyph glyph-name="afii10070" unicode="&#x435;" horiz-adv-x="605" 
d="M570 250l-65 -60h-326c21 -55 66 -100 161 -100c80 0 130 40 130 40l50 -90s-75 -60 -190 -60c-175 0 -290 115 -290 270c0 160 110 270 265 270s265 -110 265 -270zM179 295h251c-10 65 -60 115 -125 115s-115 -50 -126 -115z" />
    <glyph glyph-name="afii10030" unicode="&#x41c;" horiz-adv-x="1005" 
d="M565 100h-125l-175 375h-5l-55 -475h-145l85 700h155l200 -435h5l200 435h155l85 -700h-145l-55 475h-5z" />
    <glyph glyph-name="afii10058" unicode="&#x409;" horiz-adv-x="1140" 
d="M805 0h-265v585h-205l-40 -345c-20 -175 -105 -260 -225 -260c-41 0 -70 10 -70 10v110h30c65 0 109 45 120 140l55 460h475v-230h125c195 0 295 -100 295 -235s-100 -235 -295 -235zM955 235c0 55 -55 120 -150 120h-125v-240h125c95 0 150 55 150 120z" />
    <glyph glyph-name="afii10059" unicode="&#x40a;" horiz-adv-x="1130" 
d="M810 0h-290v325h-290v-325h-140v700h140v-260h290v260h140v-260h150c185 0 280 -95 280 -220s-95 -220 -280 -220zM945 220c0 45 -50 105 -135 105h-150v-210h150c85 0 135 50 135 105z" />
    <glyph glyph-name="afii10052" unicode="&#x403;" horiz-adv-x="625" 
d="M90 0v700h525v-115h-385v-585h-140zM365 965h150l-120 -185h-105z" />
    <glyph glyph-name="afii10100" unicode="&#x453;" horiz-adv-x="500" 
d="M75 500h415v-105h-285v-395h-130v500zM295 775h150l-120 -185h-105z" />
    <glyph glyph-name="afii10061" unicode="&#x40c;" horiz-adv-x="760" 
d="M500 520l50 180h145l-50 -180c-43 -155 -125 -180 -125 -180v-5l230 -335h-165l-205 300h-150v-300h-140v700h140v-285h130c80 0 123 45 140 105zM394 955h150l-120 -185h-105z" />
    <glyph glyph-name="afii10062" unicode="&#x40e;" horiz-adv-x="710" 
d="M225 0l89 190h-59l-245 510h155l190 -405h10l190 405h155l-330 -700h-155zM360 880c45 0 75 30 75 70h105c0 -103 -72 -175 -180 -175s-180 72 -180 175h105c0 -40 30 -70 75 -70z" />
    <glyph glyph-name="afii10110" unicode="&#x45e;" horiz-adv-x="590" 
d="M185 -190l70 190h-65l-185 500h139l147 -400h5l149 400h140l-260 -690h-140zM295 580c-105 0 -175 70 -175 165h100c0 -45 30 -75 75 -75s75 30 75 75h100c0 -95 -70 -165 -175 -165z" />
    <glyph glyph-name="afii10109" unicode="&#x45c;" horiz-adv-x="610" 
d="M455 0l-140 200h-110v-200h-130v500h130v-195h90c65 0 100 35 110 75l30 120h130l-30 -120c-29 -120 -100 -145 -100 -145v-5l165 -230h-145zM320 765h150l-120 -185h-105z" />
    <glyph glyph-name="afii10060" unicode="&#x40b;" horiz-adv-x="825" 
d="M0 700h515v-115h-210v-157s70 32 170 32c175 0 290 -115 290 -281v-179h-140v179c0 91 -70 161 -160 161s-160 -30 -160 -30v-310h-140v585h-165v115z" />
    <glyph glyph-name="quotesinglbase" unicode="&#x201a;" horiz-adv-x="250" 
d="M115 -15v5c-40 5 -70 35 -70 75s35 75 80 75s80 -35 80 -90c0 -125 -120 -180 -120 -180l-25 45s40 35 55 70z" />
    <glyph glyph-name="quotedblbase" unicode="&#x201e;" horiz-adv-x="455" 
d="M115 -15v5c-40 5 -70 35 -70 75s35 75 80 75s80 -35 80 -90c0 -125 -120 -180 -120 -180l-25 45s40 35 55 70zM320 -15v5c-40 5 -70 35 -70 75s35 75 80 75s80 -35 80 -90c0 -125 -120 -180 -120 -180l-25 45s40 35 55 70z" />
    <glyph glyph-name="perthousand" unicode="&#x2030;" horiz-adv-x="1240" 
d="M585 700h145l-460 -700h-145zM130 550c0 -50 30 -80 70 -80s70 30 70 80s-30 80 -70 80s-70 -30 -70 -80zM380 550c0 -95 -75 -170 -180 -170s-180 75 -180 170s75 170 180 170s180 -75 180 -170zM590 150c0 -50 30 -80 70 -80s70 30 70 80s-30 80 -70 80
s-70 -30 -70 -80zM840 150c0 -95 -75 -170 -180 -170s-180 75 -180 170s75 170 180 170s180 -75 180 -170zM970 150c0 -50 30 -80 70 -80s70 30 70 80s-30 80 -70 80s-70 -30 -70 -80zM1220 150c0 -95 -75 -170 -180 -170s-180 75 -180 170s75 170 180 170s180 -75 180 -170
z" />
    <glyph glyph-name="afii10071" unicode="&#x451;" horiz-adv-x="605" 
d="M126 680c0 40 30 70 70 70s70 -30 70 -70s-30 -70 -70 -70s-70 30 -70 70zM351 680c0 40 30 70 70 70s70 -30 70 -70s-30 -70 -70 -70s-70 30 -70 70zM570 250l-65 -60h-326c21 -55 66 -100 161 -100c80 0 130 40 130 40l50 -90s-75 -60 -190 -60
c-175 0 -290 115 -290 270c0 160 110 270 265 270s265 -110 265 -270zM179 295h251c-10 65 -60 115 -125 115s-115 -50 -126 -115z" />
    <glyph glyph-name="afii61352" unicode="&#x2116;" horiz-adv-x="1200" 
d="M1150 310v-110h-330v110h330zM585 225h5v475h140v-700h-150l-345 475h-5v-475h-140v700h150zM1165 550c0 -95 -75 -170 -180 -170s-180 75 -180 170s75 170 180 170s180 -75 180 -170zM1055 550c0 50 -30 80 -70 80s-70 -30 -70 -80s30 -80 70 -80s70 30 70 80z" />
    <glyph glyph-name="afii10057" unicode="&#x408;" horiz-adv-x="560" 
d="M100 700h375v-445c0 -165 -110 -275 -280 -275c-110 0 -185 60 -185 60l55 100s50 -40 120 -40c85 0 150 65 150 155v330h-235v115z" />
    <glyph glyph-name="afii10098" unicode="&#x491;" horiz-adv-x="500" 
d="M75 500h285v90h130v-195h-285v-395h-130v500z" />
    <glyph glyph-name="afii10023" unicode="&#x401;" horiz-adv-x="690" 
d="M90 0v700h560v-115h-420v-180h290v-115h-290v-175h430v-115h-570zM194 880c0 40 30 70 70 70s70 -30 70 -70s-30 -70 -70 -70s-70 30 -70 70zM419 880c0 40 30 70 70 70s70 -30 70 -70s-30 -70 -70 -70s-70 30 -70 70z" />
    <glyph glyph-name="afii10053" unicode="&#x404;" horiz-adv-x="700" 
d="M425 720c145 0 235 -70 235 -70l-60 -95s-72 45 -165 45c-130 0 -215 -85 -240 -190h290v-115h-290c25 -110 110 -195 240 -195c100 0 175 55 175 55l60 -95s-95 -80 -245 -80c-225 0 -380 155 -380 370s155 370 380 370z" />
    <glyph glyph-name="afii10101" unicode="&#x454;" horiz-adv-x="545" 
d="M470 130l50 -90s-72 -60 -185 -60c-175 0 -295 120 -295 270s120 270 295 270c108 0 180 -55 180 -55l-50 -90s-48 35 -120 35c-80 0 -140 -40 -160 -105h200v-105h-200c20 -60 75 -110 160 -110c77 0 125 40 125 40z" />
    <glyph glyph-name="afii10145" unicode="&#x40f;" horiz-adv-x="810" 
d="M720 0h-245v-150h-140v150h-245v700h140v-585h350v585h140v-700z" />
    <glyph glyph-name="afii10193" unicode="&#x45f;" horiz-adv-x="650" 
d="M75 0v500h130v-395h240v395h130v-500h-185v-125h-130v125h-185z" />
    <glyph glyph-name="afii10108" unicode="&#x45b;" horiz-adv-x="660" 
d="M220 504v-74s55 20 120 20c155 0 255 -100 255 -230v-220h-130v220c0 70 -50 120 -135 120c-60 0 -110 -20 -110 -20v-320h-130v504h-80v106h80v90h130v-90h160v-106h-160z" />
    <glyph glyph-name="periodcentered" unicode="&#xb7;" horiz-adv-x="300" 
d="M70 350c0 40 35 75 80 75s80 -35 80 -75s-35 -75 -80 -75s-80 35 -80 75z" />
    <glyph glyph-name="mu" unicode="&#xb5;" horiz-adv-x="656" 
d="M581 500v-475s-95 -45 -210 -45c-110 0 -160 52 -160 52h-5v-222h-130l-1 448h1v242h130v-242l2 -74c9 -55 57 -94 133 -94c55 0 110 15 110 15v395h130z" />
    <glyph glyph-name="endash" unicode="&#x2013;" horiz-adv-x="705" 
d="M45 395h615v-120h-615v120z" />
    <glyph glyph-name="emdash" unicode="&#x2014;" horiz-adv-x="880" 
d="M45 395h790v-120h-790v120z" />
    <glyph glyph-name="afii10106" unicode="&#x459;" horiz-adv-x="925" 
d="M165 500h390v-145h95c160 0 245 -85 245 -180c0 -105 -80 -185 -255 -185c-110 0 -215 20 -215 20v385h-145l-20 -185c-16 -155 -90 -230 -195 -230c-30 0 -65 10 -65 10v105h10c70 0 111 40 120 115zM650 100c80 0 110 30 110 75c0 40 -35 75 -110 75h-95v-145
s45 -5 95 -5z" />
    <glyph glyph-name="afii10107" unicode="&#x45a;" horiz-adv-x="915" 
d="M75 0v500h130v-170h215v170h130v-170h105c150 0 230 -80 230 -170s-80 -170 -245 -170c-110 0 -220 20 -220 20v210h-215v-220h-130zM655 100c65 0 95 30 95 60s-30 60 -95 60h-105v-115s55 -5 105 -5z" />
    <glyph glyph-name="afii10051" unicode="&#x402;" horiz-adv-x="815" 
d="M0 700h515v-115h-210v-158s70 33 170 33c175 0 290 -115 290 -265c0 -195 -200 -270 -200 -270l-55 90s115 55 115 180c0 75 -70 145 -160 145s-160 -31 -160 -31v-309h-140v585h-165v115z" />
    <glyph glyph-name="afii10099" unicode="&#x452;" horiz-adv-x="635" 
d="M595 220c0 -235 -190 -296 -190 -296l-50 96s110 68 110 180v20c0 70 -50 120 -135 120c-58 0 -110 -20 -110 -20v-320h-130v504h-80v106h80v90h130v-90h160v-106h-160v-74s54 20 120 20c155 0 255 -100 255 -230z" />
    <glyph glyph-name="uni00AD" unicode="&#xad;" horiz-adv-x="555" 
d="M45 405h465v-120h-465v120z" />
    <glyph glyph-name="uni20BD" unicode="&#x20bd;" horiz-adv-x="720" 
d="M30 220h85v40h-85v115h85v325h290c180 0 275 -95 275 -220s-95 -220 -275 -220h-150v-40h317v-115h-317v-105h-140v105h-85v115zM535 480c0 55 -50 105 -130 105h-150v-210h150c80 0 130 50 130 105z" />
    <glyph glyph-name="x" unicode="x" horiz-adv-x="565" 
d="M165 500l115 -165h5l115 165h145l-175 -245l190 -255h-145l-130 170h-5l-130 -170h-145l190 255l-175 245h145z" />
    <glyph glyph-name="e" unicode="e" horiz-adv-x="605" 
d="M570 250l-65 -60h-326c21 -55 66 -100 161 -100c80 0 130 40 130 40l50 -90s-75 -60 -190 -60c-175 0 -290 115 -290 270c0 160 110 270 265 270s265 -110 265 -270zM179 295h251c-10 65 -60 115 -125 115s-115 -50 -126 -115z" />
    <glyph glyph-name="asterisk" unicode="*" horiz-adv-x="500" 
d="M200 560v140h100v-140l135 45l30 -95l-135 -45l85 -115l-80 -55l-85 110l-85 -111l-80 56l85 115l-135 45l30 95z" />
    <glyph glyph-name="plus" unicode="+" horiz-adv-x="590" 
d="M355 595v-190h190v-120h-190v-190h-120v190h-190v120h190v190h120z" />
    <glyph glyph-name="acute" unicode="&#xb4;" horiz-adv-x="305" 
d="M115 785h150l-120 -185h-105z" />
    <glyph glyph-name="divide" unicode="&#xf7;" horiz-adv-x="590" 
d="M215 140c0 40 35 75 80 75s80 -35 80 -75s-35 -75 -80 -75s-80 35 -80 75zM215 550c0 40 35 75 80 75s80 -35 80 -75s-35 -75 -80 -75s-80 35 -80 75zM45 405h500v-120h-500v120z" />
    <glyph glyph-name="exclamdown" unicode="&#xa1;" horiz-adv-x="310" 
d="M225 130v-320h-140v320l20 170h100zM75 445c0 40 35 75 80 75s80 -35 80 -75s-35 -75 -80 -75s-80 35 -80 75z" />
    <glyph glyph-name="questiondown" unicode="&#xbf;" horiz-adv-x="590" 
d="M330 -90c96 0 180 60 180 60l60 -95s-100 -85 -240 -85c-185 0 -290 105 -290 220c0 165 220 175 220 265v25h120v-25c0 -145 -195 -165 -195 -265c0 -54 58 -100 145 -100zM400 445c0 -40 -35 -75 -80 -75s-80 35 -80 75s35 75 80 75s80 -35 80 -75z" />
    <glyph glyph-name="dotaccent" unicode="&#x2d9;" horiz-adv-x="220" 
d="M40 690c0 40 30 70 70 70s70 -30 70 -70s-30 -70 -70 -70s-70 30 -70 70z" />
    <glyph glyph-name="breve" unicode="&#x2d8;" horiz-adv-x="430" 
d="M215 600c-105 0 -175 70 -175 170h100c0 -45 30 -75 75 -75s75 30 75 75h100c0 -100 -70 -170 -175 -170z" />
    <glyph glyph-name="commaaccent" unicode="&#xf6c3;" horiz-adv-x="230" 
d="M105 -195v5c-35 0 -65 30 -65 70s30 70 75 70s75 -30 75 -85c0 -115 -110 -165 -110 -165l-30 40s40 29 55 65z" />
    <glyph glyph-name="hungarumlaut" unicode="&#x2dd;" horiz-adv-x="490" 
d="M125 715h125l-120 -185h-90zM325 715h125l-120 -185h-90z" />
    <glyph glyph-name="afii57929" unicode="&#x2bc;" horiz-adv-x="230" 
d="M105 645v5c-35 0 -65 30 -65 70s30 70 75 70s75 -30 75 -85c0 -115 -110 -165 -110 -165l-30 40s40 29 55 65z" />
    <glyph glyph-name="cyrbreve" unicode="&#xf6d4;" horiz-adv-x="430" 
d="M215 580c-105 0 -175 70 -175 165h100c0 -45 30 -75 75 -75s75 30 75 75h100c0 -95 -70 -165 -175 -165z" />
    <glyph glyph-name="cyrBreve" unicode="&#xf6d1;" horiz-adv-x="440" 
d="M220 870c45 0 75 30 75 70h105c0 -103 -72 -175 -180 -175s-180 72 -180 175h105c0 -40 30 -70 75 -70z" />
    <glyph glyph-name="multiply" unicode="&#xd7;" horiz-adv-x="570" 
d="M150 565l135 -135l135 135l85 -85l-135 -135l135 -135l-85 -85l-135 135l-135 -135l-85 85l135 135l-135 135z" />
    <glyph glyph-name="dotlessi" unicode="&#x131;" horiz-adv-x="280" 
d="M75 0v500h130v-500h-130z" />
    <glyph glyph-name="thorn" unicode="&#xfe;" horiz-adv-x="635" 
d="M80 -190v890h130v-195s50 15 95 15c175 0 295 -120 295 -270s-120 -270 -295 -270c-45 0 -95 15 -95 15v-185h-130zM210 395v-290s50 -15 95 -15c95 0 160 65 160 160s-65 160 -160 160c-45 0 -95 -15 -95 -15z" />
    <glyph glyph-name="Thorn" unicode="&#xde;" horiz-adv-x="735" 
d="M230 600h165c185 0 300 -116 300 -250c0 -135 -115 -250 -300 -250h-165v-100h-140v700h140v-100zM395 480h-165v-260h165c95 0 155 60 155 130s-60 130 -155 130z" />
    <glyph glyph-name="AE" unicode="&#xc6;" horiz-adv-x="1070" 
d="M510 0v140h-305l-55 -140h-150l290 700h740v-115h-380v-180h250v-115h-250v-175h390v-115h-530zM390 585l-135 -325h255v325h-120z" />
    <glyph glyph-name="OE" unicode="&#x152;" horiz-adv-x="1045" 
d="M415 0c-225 0 -375 150 -375 350s150 350 375 350h590v-115h-370v-180h240v-115h-240v-175h380v-115h-600zM185 350c0 -135 100 -235 230 -235h80v470h-80c-130 0 -230 -100 -230 -235z" />
    <glyph glyph-name="Oslash" unicode="&#xd8;" horiz-adv-x="840" 
d="M790 350c0 -220 -150 -370 -370 -370c-145 0 -220 65 -220 65l-40 -45h-130l100 105s-80 85 -80 245c0 220 150 370 370 370c140 0 220 -65 220 -65l40 45h130l-100 -105s80 -85 80 -245zM190 350c0 -91 35 -140 35 -140l325 350s-50 40 -130 40
c-130 0 -230 -100 -230 -250zM650 350c0 85 -35 140 -35 140l-325 -350s50 -40 130 -40c130 0 230 100 230 250z" />
    <glyph glyph-name="oslash" unicode="&#xf8;" horiz-adv-x="660" 
d="M610 250c0 -160 -115 -270 -280 -270c-110 0 -175 55 -175 55l-35 -35h-110l90 85s-50 60 -50 165c0 160 115 270 280 270c110 0 175 -55 175 -55l35 35h110l-90 -90s50 -55 50 -160zM185 250c0 -45 15 -65 15 -65l215 195s-25 30 -85 30c-80 0 -145 -60 -145 -160z
M475 250c0 45 -15 65 -15 65l-215 -195s30 -30 85 -30c80 0 145 60 145 160z" />
    <glyph glyph-name="ae" unicode="&#xe6;" horiz-adv-x="965" 
d="M930 250l-65 -60h-326c21 -55 66 -100 161 -100c80 0 130 40 130 40l50 -90s-75 -60 -190 -60c-147 0 -205 80 -205 80h-5s-70 -80 -195 -80c-175 0 -250 75 -250 175s75 175 250 175c64 0 115 -10 115 -10c0 55 -35 90 -115 90s-140 -30 -140 -30l-50 85s70 55 190 55
c140 0 195 -75 195 -75h5s60 75 180 75c155 0 265 -110 265 -270zM285 90c70 0 115 40 115 40v80s-55 10 -115 10c-85 0 -115 -30 -115 -65s30 -65 115 -65zM539 295h251c-10 65 -60 115 -125 115s-115 -50 -126 -115z" />
    <glyph glyph-name="oe" unicode="&#x153;" horiz-adv-x="1030" 
d="M995 250l-65 -60h-326c21 -55 66 -100 161 -100c80 0 130 40 130 40l50 -90s-75 -60 -190 -60c-165 0 -220 100 -220 100h-5s-55 -100 -210 -100c-165 0 -280 115 -280 270s115 270 280 270c150 0 210 -100 210 -100h5s55 100 195 100c155 0 265 -110 265 -270zM175 250
c0 -95 65 -160 145 -160s145 65 145 160s-65 160 -145 160s-145 -65 -145 -160zM604 295h251c-10 65 -60 115 -125 115s-115 -50 -126 -115z" />
    <glyph glyph-name="florin" unicode="&#x192;" horiz-adv-x="420" 
d="M240 510v-20h155v-105h-155v-315c0 -242 -195 -290 -195 -290l-50 95s115 45 115 195v315h-80v105h80v20c0 125 85 210 215 210c65 0 115 -30 115 -30l-30 -100s-35 20 -75 20c-60 0 -95 -35 -95 -100z" />
    <glyph glyph-name="cent" unicode="&#xa2;" horiz-adv-x="545" 
d="M260 -12c-134 29 -220 137 -220 262s86 233 220 262v93h120v-89c82 -11 135 -51 135 -51l-50 -90s-48 35 -120 35c-95 0 -170 -75 -170 -160s75 -160 170 -160c77 0 125 40 125 40l50 -90s-54 -44 -140 -57v-88h-120v93z" />
    <glyph glyph-name="yen" unicode="&#xa5;" horiz-adv-x="710" 
d="M360 360l200 340h150l-185 -310h85v-110h-150l-30 -50h180v-110h-185v-120h-140v120h-185v110h180l-30 50h-150v110h85l-185 310h150l200 -340h10z" />
    <glyph glyph-name="germandbls" unicode="&#xdf;" horiz-adv-x="655" 
d="M520 520c0 -70 -60 -104 -60 -150c0 -85 170 -85 170 -215c0 -95 -80 -175 -205 -175c-83 0 -145 35 -145 35l30 105s50 -30 105 -30s85 30 85 66c0 79 -170 84 -170 214c0 65 60 100 60 150s-40 90 -90 90c-55 0 -95 -40 -95 -88v-522h-130v522c0 108 90 198 225 198
c130 0 220 -90 220 -200z" />
    <glyph glyph-name="sterling" unicode="&#xa3;" horiz-adv-x="635" 
d="M410 600c-75 0 -120 -45 -120 -114v-56h155v-115h-155v-65c0 -99 -75 -130 -75 -130v-5h400v-115h-595v115c73 0 140 58 140 135v65h-85v115h85v56c0 139 95 234 240 234c108 0 175 -55 175 -55l-55 -95s-50 30 -110 30z" />
    <glyph glyph-name="minus" unicode="&#x2212;" horiz-adv-x="575" 
d="M45 405h485v-120h-485v120z" />
    <glyph glyph-name="ordmasculine" unicode="&#xba;" horiz-adv-x="420" 
d="M135 550c0 -50 35 -85 75 -85s75 35 75 85s-35 85 -75 85s-75 -35 -75 -85zM380 550c0 -95 -75 -170 -170 -170s-170 75 -170 170s75 170 170 170s170 -75 170 -170z" />
    <glyph glyph-name="fraction" unicode="&#x2044;" horiz-adv-x="660" 
d="M490 700h140l-460 -700h-140z" />
    <glyph glyph-name="onesuperior" unicode="&#xb9;" horiz-adv-x="275" 
d="M140 710h85v-320h-100v210h-5l-65 -40l-35 50z" />
    <glyph glyph-name="twosuperior" unicode="&#xb2;" horiz-adv-x="355" 
d="M235 505l-55 -30v-5h135v-80h-280v80l150 95c20 12 30 25 30 40c0 20 -15 35 -50 35c-48 0 -95 -25 -95 -25l-35 60s54 45 130 45c90 0 145 -55 145 -115c0 -50 -25 -73 -75 -100z" />
    <glyph glyph-name="threesuperior" unicode="&#xb3;" horiz-adv-x="355" 
d="M160 455c45 0 60 15 60 35c0 15 -15 34 -60 34h-45v56l70 45v5h-135v80h250v-80l-75 -45v-5c50 -5 90 -45 90 -90c0 -60 -50 -110 -145 -110c-85 0 -135 45 -135 45l35 55s33 -25 90 -25z" />
    <glyph glyph-name="foursuperior" unicode="&#x2074;" horiz-adv-x="400" 
d="M40 440v80l175 190h100v-190h45v-80h-45v-50h-100v50h-175zM145 520h70v75h-5l-65 -70v-5z" />
    <glyph glyph-name="foundryicon" horiz-adv-x="1230" 
d="M100 -110v920h1030v-920h-1030zM1110 -90v880h-990v-880h990zM635 610h110c50 0 80 -30 80 -65s-30 -65 -80 -65h-55v-80h-55v210zM635 300h110c50 0 80 -30 80 -65s-30 -65 -80 -65h-55v-80h-55v210zM495 170l-75 130h60l40 -75h5l40 75h65l-80 -130v-80h-55v80z
M495 480l-75 130h60l40 -75h5l40 75h65l-80 -130v-80h-55v80zM300 255h-65v45h165l25 -45h-70v-165h-55v165zM300 565h-65v45h165l25 -45h-70v-165h-55v165zM790 400v65c25 5 55 30 60 60h80v-45h-85v-35h120v-45h-175zM790 90v65c25 5 55 30 60 60h80v-45h-85v-35h120v-45
h-175zM810 300h155v-45h-115c-5 20 -20 40 -40 45zM810 610h155v-45h-115c-5 20 -20 40 -40 45zM765 545c0 10 -10 20 -20 20h-55v-40h55c10 0 20 9 20 20zM765 235c0 10 -10 20 -20 20h-55v-40h55c10 0 20 9 20 20z" />
    <glyph glyph-name="onequarter" unicode="&#xbc;" horiz-adv-x="815" 
d="M140 700h85v-320h-100v210h-5l-65 -40l-35 50zM551 700h140l-460 -700h-140zM455 50v80l175 190h100v-190h45v-80h-45v-50h-100v50h-175zM560 130h70v75h-5l-65 -70v-5z" />
    <glyph glyph-name="onehalf" unicode="&#xbd;" horiz-adv-x="825" 
d="M140 700h85v-320h-100v210h-5l-65 -40l-35 50zM705 115l-55 -30v-5h135v-80h-280v80l150 95c20 12 30 25 30 40c0 20 -15 35 -50 35c-48 0 -95 -25 -95 -25l-35 60s54 45 130 45c90 0 145 -55 145 -115c0 -50 -25 -73 -75 -100zM551 700h140l-460 -700h-140z" />
    <glyph glyph-name="threequarters" unicode="&#xbe;" horiz-adv-x="850" 
d="M595 700h140l-460 -700h-140zM490 50v80l175 190h100v-190h45v-80h-45v-50h-100v50h-175zM595 130h70v75h-5l-65 -70v-5zM160 445c45 0 60 15 60 35c0 15 -15 34 -60 34h-45v56l70 45v5h-135v80h250v-80l-75 -45v-5c50 -5 90 -45 90 -90c0 -60 -50 -110 -145 -110
c-85 0 -135 45 -135 45l35 55s33 -25 90 -25z" />
    <glyph glyph-name="currency" unicode="&#xa4;" horiz-adv-x="720" 
d="M30 220h85v40h-85v115h85v325h290c180 0 275 -95 275 -220s-95 -220 -275 -220h-150v-40h317v-115h-317v-105h-140v105h-85v115zM535 480c0 55 -50 105 -130 105h-150v-210h150c80 0 130 50 130 105z" />
    <glyph glyph-name="Germandbls" horiz-adv-x="735" 
d="M430 300h-65v90l130 185v5h-115c-90 0 -160 -70 -160 -190v-390h-140v390c0 190 118 310 300 310h275v-120l-150 -185v-5c84 0 195 -70 195 -195c0 -126 -95 -215 -260 -215c-80 0 -150 40 -150 40l35 110s38 -30 105 -30c80 0 125 45 125 95c0 60 -50 105 -125 105z" />
    <glyph glyph-name="uni1E9E" unicode="&#x1e9e;" horiz-adv-x="735" 
d="M430 300h-65v90l130 185v5h-115c-90 0 -160 -70 -160 -190v-390h-140v390c0 190 118 310 300 310h275v-120l-150 -185v-5c84 0 195 -70 195 -195c0 -126 -95 -215 -260 -215c-80 0 -150 40 -150 40l35 110s38 -30 105 -30c80 0 125 45 125 95c0 60 -50 105 -125 105z" />
    <glyph glyph-name="ordfeminine" unicode="&#xaa;" horiz-adv-x="395" 
d="M345 595v-190s-70 -25 -150 -25c-105 0 -155 50 -155 110c0 55 50 110 153 110c32 0 62 -10 62 -10v5c0 30 -20 50 -65 50s-85 -25 -85 -25l-35 60s50 40 120 40c100 0 155 -46 155 -125zM255 460v60s-28 10 -60 10c-45 0 -65 -20 -65 -40s20 -40 65 -40
c30 0 60 10 60 10z" />
    <glyph glyph-name="uni20B4" unicode="&#x20b4;" horiz-adv-x="705" 
d="M660 380h-615v90h397s0 3 0 2c0 -2 8 18 8 43c0 50 -35 85 -125 85c-100 0 -180 -50 -180 -50l-60 90s90 80 240 80c170 0 280 -100 280 -200c0 -30 -12 -50 -12 -50h67v-90zM45 320h615v-90h-397s0 -3 0 -2c0 2 -8 -18 -8 -43c0 -50 35 -85 125 -85c100 0 180 50 180 50
l60 -90s-90 -80 -240 -80c-170 0 -280 100 -280 200c0 30 12 50 12 50h-67v90z" />
    <glyph glyph-name="quoteleft" unicode="&#x2018;" horiz-adv-x="250" 
d="M135 595v-5c40 -5 70 -35 70 -75s-35 -75 -80 -75s-80 35 -80 90c0 125 120 180 120 180l25 -45s-40 -35 -55 -70z" />
    <glyph glyph-name="quoteright" unicode="&#x2019;" horiz-adv-x="250" 
d="M115 555v5c-40 5 -70 35 -70 75s35 75 80 75s80 -35 80 -90c0 -125 -120 -180 -120 -180l-25 45s40 35 55 70z" />
    <glyph glyph-name="afii10055" unicode="&#x406;" horiz-adv-x="320" 
d="M230 700v-700h-140v700h140z" />
    <glyph glyph-name="afii10103" unicode="&#x456;" horiz-adv-x="290" 
d="M80 0v500h130v-500h-130zM65 645c0 40 35 75 80 75s80 -35 80 -75s-35 -75 -80 -75s-80 35 -80 75z" />
    <glyph glyph-name="afii10105" unicode="&#x458;" horiz-adv-x="295" 
d="M85 40v460h130v-460c0 -205 -192 -263 -192 -263l-48 93s110 55 110 170zM70 645c0 40 35 75 80 75s80 -35 80 -75s-35 -75 -80 -75s-80 35 -80 75z" />
    <glyph glyph-name="afii10054" unicode="&#x405;" 
d="M340 720c150 0 250 -85 250 -85l-55 -95s-80 60 -185 60c-95 0 -140 -45 -140 -80c0 -140 395 -70 395 -315c0 -120 -105 -225 -305 -225c-162 0 -265 95 -265 95l60 95s81 -75 195 -75c115 0 170 55 170 110c0 125 -395 60 -395 315c0 100 100 200 275 200z" />
    <glyph glyph-name="afii10102" unicode="&#x455;" horiz-adv-x="530" 
d="M495 150c0 -85 -85 -170 -255 -170c-120 0 -205 70 -205 70l50 90s65 -50 155 -50s120 30 120 60c0 75 -300 25 -300 205c0 85 80 165 225 165c120 0 195 -65 195 -65l-50 -90s-60 45 -145 45c-65 0 -90 -25 -90 -55c0 -75 300 -25 300 -205z" />
    <glyph glyph-name="ellipsis" unicode="&#x2026;" horiz-adv-x="790" 
d="M45 65c0 40 35 75 80 75s80 -35 80 -75s-35 -75 -80 -75s-80 35 -80 75zM315 65c0 40 35 75 80 75s80 -35 80 -75s-35 -75 -80 -75s-80 35 -80 75zM585 65c0 40 35 75 80 75s80 -35 80 -75s-35 -75 -80 -75s-80 35 -80 75z" />
    <glyph glyph-name="less" unicode="&#x3c;" horiz-adv-x="580" 
d="M200 250l320 -130v-120l-460 190v125l460 190v-120l-320 -130v-5z" />
    <glyph glyph-name="afii10056" unicode="&#x407;" horiz-adv-x="315" 
d="M230 700v-700h-140v700h140zM-25 870c0 40 30 70 70 70s70 -30 70 -70s-30 -70 -70 -70s-70 30 -70 70zM200 870c0 40 30 70 70 70s70 -30 70 -70s-30 -70 -70 -70s-70 30 -70 70z" />
    <glyph glyph-name="afii10104" unicode="&#x457;" horiz-adv-x="285" 
d="M79 0v500h130v-500h-130zM-40 670c0 40 30 70 70 70s70 -30 70 -70s-30 -70 -70 -70s-70 30 -70 70zM185 670c0 40 30 70 70 70s70 -30 70 -70s-30 -70 -70 -70s-70 30 -70 70z" />
    <glyph glyph-name="Agrave" unicode="&#xc0;" horiz-adv-x="775" 
d="M475 700l290 -700h-150l-55 140h-345l-55 -140h-150l290 700h175zM385 550l-120 -290h245l-120 290h-5zM205 975h150l75 -185h-105z" />
    <glyph glyph-name="Aacute" unicode="&#xc1;" horiz-adv-x="775" 
d="M475 700l290 -700h-150l-55 140h-345l-55 -140h-150l290 700h175zM385 550l-120 -290h245l-120 290h-5zM415 975h150l-120 -185h-105z" />
    <glyph glyph-name="Abreve" unicode="&#x102;" horiz-adv-x="775" 
d="M475 700l290 -700h-150l-55 140h-345l-55 -140h-150l290 700h175zM385 550l-120 -290h245l-120 290h-5zM385 790c-105 0 -175 70 -175 170h100c0 -45 30 -75 75 -75s75 30 75 75h100c0 -100 -70 -170 -175 -170z" />
    <glyph glyph-name="Acircumflex" unicode="&#xc2;" horiz-adv-x="775" 
d="M475 700l290 -700h-150l-55 140h-345l-55 -140h-150l290 700h175zM385 550l-120 -290h245l-120 290h-5zM445 975l145 -185h-125l-75 90h-10l-75 -90h-125l145 185h120z" />
    <glyph glyph-name="Adieresis" unicode="&#xc4;" horiz-adv-x="775" 
d="M475 700l290 -700h-150l-55 140h-345l-55 -140h-150l290 700h175zM385 550l-120 -290h245l-120 290h-5zM202 870c0 40 30 70 70 70s70 -30 70 -70s-30 -70 -70 -70s-70 30 -70 70zM427 870c0 40 30 70 70 70s70 -30 70 -70s-30 -70 -70 -70s-70 30 -70 70z" />
    <glyph glyph-name="Amacron" unicode="&#x100;" horiz-adv-x="775" 
d="M475 700l290 -700h-150l-55 140h-345l-55 -140h-150l290 700h175zM385 550l-120 -290h245l-120 290h-5zM565 920v-110h-360v110h360z" />
    <glyph glyph-name="Aogonek" unicode="&#x104;" horiz-adv-x="768" 
d="M678 -260c-95 0 -150 55 -150 120c0 80 90 140 90 140h-3l-55 140h-345l-55 -140h-150l290 700h175l290 -700h3s-130 -60 -130 -130c0 -25 15 -40 55 -40c30 0 65 20 65 20l40 -70s-50 -40 -120 -40zM385 550l-120 -290h245l-120 290h-5z" />
    <glyph glyph-name="Aring" unicode="&#xc5;" horiz-adv-x="775" 
d="M530 785c0 -41 -18 -78 -48 -102l283 -683h-150l-55 140h-345l-55 -140h-150l281 680c-32 24 -51 62 -51 105c0 75 60 135 145 135s145 -60 145 -135zM385 550l-120 -290h245l-120 290h-5zM325 785c0 -35 25 -60 60 -60s60 25 60 60s-25 60 -60 60s-60 -25 -60 -60z" />
    <glyph glyph-name="Atilde" unicode="&#xc3;" horiz-adv-x="775" 
d="M475 700l290 -700h-150l-55 140h-345l-55 -140h-150l290 700h175zM385 550l-120 -290h245l-120 290h-5zM325 850c-20 0 -35 -15 -35 -35v-25h-90v37c0 72 50 123 115 123s85 -60 130 -60c20 0 35 15 35 35v25h90v-37c0 -72 -50 -123 -115 -123s-85 60 -130 60z" />
    <glyph glyph-name="Cacute" unicode="&#x106;" horiz-adv-x="705" 
d="M430 720c145 0 235 -70 235 -70l-60 -95s-72 45 -165 45c-150 0 -250 -100 -250 -250s100 -250 250 -250c100 0 175 55 175 55l60 -95s-95 -80 -245 -80c-230 0 -385 155 -385 370s155 370 385 370zM425 975h150l-120 -185h-105z" />
    <glyph glyph-name="Ccaron" unicode="&#x10c;" horiz-adv-x="705" 
d="M430 720c145 0 235 -70 235 -70l-60 -95s-72 45 -165 45c-150 0 -250 -100 -250 -250s100 -250 250 -250c100 0 175 55 175 55l60 -95s-95 -80 -245 -80c-230 0 -385 155 -385 370s155 370 385 370zM598 975l-145 -185h-120l-145 185h125l75 -90h10l75 90h125z" />
    <glyph glyph-name="Ccedilla" unicode="&#xc7;" horiz-adv-x="705" 
d="M430 720c145 0 235 -70 235 -70l-60 -95s-72 45 -165 45c-150 0 -250 -100 -250 -250s100 -250 250 -250c100 0 175 55 175 55l60 -95s-95 -80 -245 -80c-9 0 -17 0 -25 1v-21c90 0 150 -60 150 -125s-60 -125 -160 -125c-70 0 -120 40 -120 40l40 70s30 -25 70 -25
c50 0 65 15 65 40s-15 40 -65 40h-35l-30 25v93c-168 41 -275 178 -275 357c0 215 155 370 385 370z" />
    <glyph glyph-name="Ccircumflex" unicode="&#x108;" horiz-adv-x="705" 
d="M430 720c145 0 235 -70 235 -70l-60 -95s-72 45 -165 45c-150 0 -250 -100 -250 -250s100 -250 250 -250c100 0 175 55 175 55l60 -95s-95 -80 -245 -80c-230 0 -385 155 -385 370s155 370 385 370zM459 975l145 -185h-125l-75 90h-10l-75 -90h-125l145 185h120z" />
    <glyph glyph-name="Dcaron" unicode="&#x10e;" horiz-adv-x="780" 
d="M90 700h270c225 0 375 -150 375 -350c0 -205 -150 -350 -375 -350h-270v700zM360 585h-130v-470h130c135 0 230 95 230 235s-95 235 -230 235zM554 975l-145 -185h-120l-145 185h125l75 -90h10l75 90h125z" />
    <glyph glyph-name="Egrave" unicode="&#xc8;" horiz-adv-x="690" 
d="M90 0v700h560v-115h-420v-180h290v-115h-290v-175h430v-115h-570zM224 975h150l75 -185h-105z" />
    <glyph glyph-name="Eacute" unicode="&#xc9;" horiz-adv-x="690" 
d="M90 0v700h560v-115h-420v-180h290v-115h-290v-175h430v-115h-570zM389 975h150l-120 -185h-105z" />
    <glyph glyph-name="Ecaron" unicode="&#x11a;" horiz-adv-x="690" 
d="M90 0v700h560v-115h-420v-180h290v-115h-290v-175h430v-115h-570zM582 975l-145 -185h-120l-145 185h125l75 -90h10l75 90h125z" />
    <glyph glyph-name="Ecircumflex" unicode="&#xca;" horiz-adv-x="690" 
d="M90 0v700h560v-115h-420v-180h290v-115h-290v-175h430v-115h-570zM437 975l145 -185h-125l-75 90h-10l-75 -90h-125l145 185h120z" />
    <glyph glyph-name="Edieresis" unicode="&#xcb;" horiz-adv-x="690" 
d="M90 0v700h560v-115h-420v-180h290v-115h-290v-175h430v-115h-570zM184 870c0 40 30 70 70 70s70 -30 70 -70s-30 -70 -70 -70s-70 30 -70 70zM409 870c0 40 30 70 70 70s70 -30 70 -70s-30 -70 -70 -70s-70 30 -70 70z" />
    <glyph glyph-name="Edotaccent" unicode="&#x116;" horiz-adv-x="690" 
d="M90 0v700h560v-115h-420v-180h290v-115h-290v-175h430v-115h-570zM317 870c0 40 30 70 70 70s70 -30 70 -70s-30 -70 -70 -70s-70 30 -70 70z" />
    <glyph glyph-name="Emacron" unicode="&#x112;" horiz-adv-x="690" 
d="M90 0v700h560v-115h-420v-180h290v-115h-290v-175h430v-115h-570zM557 920v-110h-360v110h360z" />
    <glyph glyph-name="Eogonek" unicode="&#x118;" horiz-adv-x="689" 
d="M90 0v700h560v-115h-420v-180h290v-115h-290v-175h430v-115h-1s-130 -60 -130 -130c0 -25 15 -40 55 -40c30 0 65 20 65 20l40 -70s-50 -40 -120 -40c-95 0 -150 55 -150 120c0 90 120 140 120 140h-449z" />
    <glyph glyph-name="Gbreve" unicode="&#x11e;" horiz-adv-x="760" 
d="M425 720c145 0 235 -70 235 -70l-60 -95s-72 45 -165 45c-150 0 -250 -100 -250 -250s100 -250 250 -250c70 0 120 25 120 25v165h-145v115h285v-338s-110 -87 -270 -87c-225 0 -380 155 -380 370s155 370 380 370zM405 800c-105 0 -175 70 -175 170h100
c0 -45 30 -75 75 -75s75 30 75 75h100c0 -100 -70 -170 -175 -170z" />
    <glyph glyph-name="Gcommaaccent" unicode="&#x122;" horiz-adv-x="760" 
d="M425 720c145 0 235 -70 235 -70l-60 -95s-72 45 -165 45c-150 0 -250 -100 -250 -250s100 -250 250 -250c70 0 120 25 120 25v165h-145v115h285v-338s-110 -87 -270 -87c-225 0 -380 155 -380 370s155 370 380 370zM400 -235v5c-35 0 -65 30 -65 70s30 70 75 70
s75 -30 75 -85c0 -115 -110 -165 -110 -165l-30 40s40 29 55 65z" />
    <glyph glyph-name="Kcommaaccent" unicode="&#x136;" horiz-adv-x="740" 
d="M720 700l-275 -295l295 -405h-160l-225 310l-125 -130v-180h-140v700h140v-330h5l315 330h170zM371 -215v5c-35 0 -65 30 -65 70s30 70 75 70s75 -30 75 -85c0 -115 -110 -165 -110 -165l-30 40s40 29 55 65z" />
    <glyph glyph-name="Lacute" unicode="&#x139;" horiz-adv-x="645" 
d="M90 0v700h140v-585h395v-115h-535zM184 975h150l-120 -185h-105z" />
    <glyph glyph-name="Lcaron" unicode="&#x13d;" horiz-adv-x="645" 
d="M385 565v5c-35 0 -65 30 -65 70s30 70 75 70s75 -30 75 -85c0 -115 -110 -165 -110 -165l-30 40s40 29 55 65zM90 0v700h140v-585h395v-115h-535z" />
    <glyph glyph-name="Lcommaaccent" unicode="&#x13b;" horiz-adv-x="645" 
d="M90 0v700h140v-585h395v-115h-535zM342 -235v5c-35 0 -65 30 -65 70s30 70 75 70s75 -30 75 -85c0 -115 -110 -165 -110 -165l-30 40s40 29 55 65z" />
    <glyph glyph-name="agrave" unicode="&#xe0;" horiz-adv-x="600" 
d="M285 520c160 0 245 -85 245 -220v-285s-115 -35 -245 -35c-175 0 -250 75 -250 175s75 175 250 175c64 0 115 -10 115 -10c0 55 -35 90 -115 90s-140 -35 -140 -35l-50 90s70 55 190 55zM285 90c60 0 115 15 115 15v105s-55 10 -115 10c-85 0 -115 -30 -115 -65
s30 -65 115 -65zM147 790h150l75 -185h-105z" />
    <glyph glyph-name="aacute" unicode="&#xe1;" horiz-adv-x="600" 
d="M285 520c160 0 245 -85 245 -220v-285s-115 -35 -245 -35c-175 0 -250 75 -250 175s75 175 250 175c64 0 115 -10 115 -10c0 55 -35 90 -115 90s-140 -35 -140 -35l-50 90s70 55 190 55zM285 90c60 0 115 15 115 15v105s-55 10 -115 10c-85 0 -115 -30 -115 -65
s30 -65 115 -65zM312 785h150l-120 -185h-105z" />
    <glyph glyph-name="abreve" unicode="&#x103;" horiz-adv-x="600" 
d="M285 520c160 0 245 -85 245 -220v-285s-115 -35 -245 -35c-175 0 -250 75 -250 175s75 175 250 175c64 0 115 -10 115 -10c0 55 -35 90 -115 90s-140 -35 -140 -35l-50 90s70 55 190 55zM285 90c60 0 115 15 115 15v105s-55 10 -115 10c-85 0 -115 -30 -115 -65
s30 -65 115 -65zM294 600c-105 0 -175 70 -175 170h100c0 -45 30 -75 75 -75s75 30 75 75h100c0 -100 -70 -170 -175 -170z" />
    <glyph glyph-name="acircumflex" unicode="&#xe2;" horiz-adv-x="600" 
d="M285 520c160 0 245 -85 245 -220v-285s-115 -35 -245 -35c-175 0 -250 75 -250 175s75 175 250 175c64 0 115 -10 115 -10c0 55 -35 90 -115 90s-140 -35 -140 -35l-50 90s70 55 190 55zM285 90c60 0 115 15 115 15v105s-55 10 -115 10c-85 0 -115 -30 -115 -65
s30 -65 115 -65zM360 785l145 -185h-125l-75 90h-10l-75 -90h-125l145 185h120z" />
    <glyph glyph-name="adieresis" unicode="&#xe4;" horiz-adv-x="600" 
d="M285 520c160 0 245 -85 245 -220v-285s-115 -35 -245 -35c-175 0 -250 75 -250 175s75 175 250 175c64 0 115 -10 115 -10c0 55 -35 90 -115 90s-140 -35 -140 -35l-50 90s70 55 190 55zM285 90c60 0 115 15 115 15v105s-55 10 -115 10c-85 0 -115 -30 -115 -65
s30 -65 115 -65zM121 680c0 40 30 70 70 70s70 -30 70 -70s-30 -70 -70 -70s-70 30 -70 70zM346 680c0 40 30 70 70 70s70 -30 70 -70s-30 -70 -70 -70s-70 30 -70 70z" />
    <glyph glyph-name="amacron" unicode="&#x101;" horiz-adv-x="600" 
d="M285 520c160 0 245 -85 245 -220v-285s-115 -35 -245 -35c-175 0 -250 75 -250 175s75 175 250 175c64 0 115 -10 115 -10c0 55 -35 90 -115 90s-140 -35 -140 -35l-50 90s70 55 190 55zM285 90c60 0 115 15 115 15v105s-55 10 -115 10c-85 0 -115 -30 -115 -65
s30 -65 115 -65zM484 740v-110h-360v110h360z" />
    <glyph glyph-name="aogonek" unicode="&#x105;" horiz-adv-x="595" 
d="M390 -260c-95 0 -150 55 -150 120c0 58 49 99 84 121c-13 0 -26 -1 -39 -1c-175 0 -250 75 -250 175s75 175 250 175c64 0 115 -10 115 -10c0 55 -35 90 -115 90s-140 -35 -140 -35l-50 90s70 55 190 55c160 0 245 -85 245 -220v-285s-22 -7 -53 -14
c-10 -4 -127 -64 -127 -131c0 -25 15 -40 55 -40c30 0 65 20 65 20l40 -70s-50 -40 -120 -40zM285 90c60 0 115 15 115 15v105s-55 10 -115 10c-85 0 -115 -30 -115 -65s30 -65 115 -65z" />
    <glyph glyph-name="aring" unicode="&#xe5;" horiz-adv-x="595" 
d="M285 520c160 0 245 -85 245 -220v-285s-115 -35 -245 -35c-175 0 -250 75 -250 175s75 175 250 175c64 0 115 -10 115 -10c0 55 -35 90 -115 90s-140 -35 -140 -35l-50 90s70 55 190 55zM285 90c60 0 115 15 115 15v105s-55 10 -115 10c-85 0 -115 -30 -115 -65
s30 -65 115 -65zM254 715c0 -35 25 -60 60 -60s60 25 60 60s-25 60 -60 60s-60 -25 -60 -60zM459 715c0 -75 -60 -135 -145 -135s-145 60 -145 135s60 135 145 135s145 -60 145 -135z" />
    <glyph glyph-name="atilde" unicode="&#xe3;" horiz-adv-x="595" 
d="M285 520c160 0 245 -85 245 -220v-285s-115 -35 -245 -35c-175 0 -250 75 -250 175s75 175 250 175c64 0 115 -10 115 -10c0 55 -35 90 -115 90s-140 -35 -140 -35l-50 90s70 55 190 55zM285 90c60 0 115 15 115 15v105s-55 10 -115 10c-85 0 -115 -30 -115 -65
s30 -65 115 -65zM244 670c-20 0 -35 -15 -35 -35v-25h-90v37c0 72 50 123 115 123s85 -60 130 -60c20 0 35 15 35 35v25h90v-37c0 -72 -50 -123 -115 -123s-85 60 -130 60z" />
    <glyph glyph-name="cacute" unicode="&#x107;" horiz-adv-x="545" 
d="M470 130l50 -90s-72 -60 -185 -60c-175 0 -295 120 -295 270s120 270 295 270c108 0 180 -55 180 -55l-50 -90s-48 35 -120 35c-95 0 -170 -75 -170 -160s75 -160 170 -160c77 0 125 40 125 40zM324 785h150l-120 -185h-105z" />
    <glyph glyph-name="ccaron" unicode="&#x10d;" horiz-adv-x="545" 
d="M470 130l50 -90s-72 -60 -185 -60c-175 0 -295 120 -295 270s120 270 295 270c108 0 180 -55 180 -55l-50 -90s-48 35 -120 35c-95 0 -170 -75 -170 -160s75 -160 170 -160c77 0 125 40 125 40zM520 785l-145 -185h-120l-145 185h125l75 -90h10l75 90h125z" />
    <glyph glyph-name="ccircumflex" unicode="&#x109;" horiz-adv-x="545" 
d="M470 130l50 -90s-72 -60 -185 -60c-175 0 -295 120 -295 270s120 270 295 270c108 0 180 -55 180 -55l-50 -90s-48 35 -120 35c-95 0 -170 -75 -170 -160s75 -160 170 -160c77 0 125 40 125 40zM367 785l145 -185h-125l-75 90h-10l-75 -90h-125l145 185h120z" />
    <glyph glyph-name="ccedilla" unicode="&#xe7;" horiz-adv-x="545" 
d="M470 130l50 -90s-72 -60 -185 -60c-7 0 -14 0 -20 1v-21c90 0 150 -60 150 -125s-60 -125 -160 -125c-70 0 -120 40 -120 40l40 70s30 -25 70 -25c50 0 65 15 65 40s-15 40 -65 40h-35l-30 25v96c-116 37 -190 139 -190 254c0 150 120 270 295 270c108 0 180 -55 180 -55
l-50 -90s-48 35 -120 35c-95 0 -170 -75 -170 -160s75 -160 170 -160c77 0 125 40 125 40z" />
    <glyph glyph-name="dcaron" unicode="&#x10f;" horiz-adv-x="790" 
d="M695 565v5c-35 0 -65 30 -65 70s30 70 75 70s75 -30 75 -85c0 -115 -110 -165 -110 -165l-30 40s40 29 55 65zM335 90c45 0 95 15 95 15v290s-50 15 -95 15c-95 0 -160 -65 -160 -160s65 -160 160 -160zM430 505v195h130v-675s-110 -45 -225 -45
c-175 0 -295 120 -295 270s120 270 295 270c45 0 95 -15 95 -15z" />
    <glyph glyph-name="egrave" unicode="&#xe8;" horiz-adv-x="605" 
d="M570 250l-65 -60h-326c21 -55 66 -100 161 -100c80 0 130 40 130 40l50 -90s-75 -60 -190 -60c-175 0 -290 115 -290 270c0 160 110 270 265 270s265 -110 265 -270zM179 295h251c-10 65 -60 115 -125 115s-115 -50 -126 -115zM145 785h150l75 -185h-105z" />
    <glyph glyph-name="eacute" unicode="&#xe9;" horiz-adv-x="605" 
d="M570 250l-65 -60h-326c21 -55 66 -100 161 -100c80 0 130 40 130 40l50 -90s-75 -60 -190 -60c-175 0 -290 115 -290 270c0 160 110 270 265 270s265 -110 265 -270zM179 295h251c-10 65 -60 115 -125 115s-115 -50 -126 -115zM321 785h150l-120 -185h-105z" />
    <glyph glyph-name="ecaron" unicode="&#x11b;" horiz-adv-x="605" 
d="M570 250l-65 -60h-326c21 -55 66 -100 161 -100c80 0 130 40 130 40l50 -90s-75 -60 -190 -60c-175 0 -290 115 -290 270c0 160 110 270 265 270s265 -110 265 -270zM179 295h251c-10 65 -60 115 -125 115s-115 -50 -126 -115zM513 785l-145 -185h-120l-145 185h125
l75 -90h10l75 90h125z" />
    <glyph glyph-name="ecircumflex" unicode="&#xea;" horiz-adv-x="605" 
d="M570 250l-65 -60h-326c21 -55 66 -100 161 -100c80 0 130 40 130 40l50 -90s-75 -60 -190 -60c-175 0 -290 115 -290 270c0 160 110 270 265 270s265 -110 265 -270zM179 295h251c-10 65 -60 115 -125 115s-115 -50 -126 -115zM368 785l145 -185h-125l-75 90h-10l-75 -90
h-125l145 185h120z" />
    <glyph glyph-name="edieresis" unicode="&#xeb;" horiz-adv-x="605" 
d="M570 250l-65 -60h-326c21 -55 66 -100 161 -100c80 0 130 40 130 40l50 -90s-75 -60 -190 -60c-175 0 -290 115 -290 270c0 160 110 270 265 270s265 -110 265 -270zM179 295h251c-10 65 -60 115 -125 115s-115 -50 -126 -115zM116 680c0 40 30 70 70 70s70 -30 70 -70
s-30 -70 -70 -70s-70 30 -70 70zM341 680c0 40 30 70 70 70s70 -30 70 -70s-30 -70 -70 -70s-70 30 -70 70z" />
    <glyph glyph-name="edotaccent" unicode="&#x117;" horiz-adv-x="605" 
d="M570 250l-65 -60h-326c21 -55 66 -100 161 -100c80 0 130 40 130 40l50 -90s-75 -60 -190 -60c-175 0 -290 115 -290 270c0 160 110 270 265 270s265 -110 265 -270zM179 295h251c-10 65 -60 115 -125 115s-115 -50 -126 -115zM238 680c0 40 30 70 70 70s70 -30 70 -70
s-30 -70 -70 -70s-70 30 -70 70z" />
    <glyph glyph-name="emacron" unicode="&#x113;" horiz-adv-x="605" 
d="M570 250l-65 -60h-326c21 -55 66 -100 161 -100c80 0 130 40 130 40l50 -90s-75 -60 -190 -60c-175 0 -290 115 -290 270c0 160 110 270 265 270s265 -110 265 -270zM179 295h251c-10 65 -60 115 -125 115s-115 -50 -126 -115zM478 730v-110h-360v110h360z" />
    <glyph glyph-name="eogonek" unicode="&#x119;" horiz-adv-x="605" 
d="M356 -260c-95 0 -150 55 -150 120c0 59 50 100 86 122c-154 16 -252 125 -252 273c0 165 110 275 265 275s265 -110 265 -275l-65 -60h-326c21 -60 66 -105 161 -105c80 0 130 40 130 40l50 -90s-30 -23 -77 -40h3s-130 -60 -130 -130c0 -25 15 -40 55 -40
c30 0 65 20 65 20l40 -70s-50 -40 -120 -40zM179 300h251c-10 70 -60 120 -125 120s-115 -50 -126 -120z" />
    <glyph glyph-name="gbreve" unicode="&#x11f;" horiz-adv-x="635" 
d="M560 475v-440c0 -145 -100 -245 -280 -245c-120 0 -195 60 -195 60l50 90s55 -40 135 -40c140 0 160 115 160 115v5s-50 -15 -95 -15c-180 0 -295 115 -295 260c0 140 115 255 295 255c115 0 225 -45 225 -45zM335 410c-100 0 -160 -60 -160 -145c0 -90 60 -150 160 -150
c45 0 95 15 95 15v265s-50 15 -95 15zM329 600c-105 0 -175 70 -175 170h100c0 -45 30 -75 75 -75s75 30 75 75h100c0 -100 -70 -170 -175 -170z" />
    <glyph glyph-name="gcommaaccent" unicode="&#x123;" horiz-adv-x="635" 
d="M330 745v-5c35 0 65 -30 65 -70s-30 -70 -75 -70s-75 30 -75 85c0 115 110 165 110 165l30 -40s-40 -29 -55 -65zM560 475v-440c0 -145 -100 -245 -280 -245c-120 0 -195 60 -195 60l50 90s55 -40 135 -40c140 0 160 115 160 115v5s-50 -15 -95 -15
c-180 0 -295 115 -295 260c0 140 115 255 295 255c115 0 225 -45 225 -45zM335 410c-100 0 -160 -60 -160 -145c0 -90 60 -150 160 -150c45 0 95 15 95 15v265s-50 15 -95 15z" />
    <glyph glyph-name="kcommaaccent" unicode="&#x137;" horiz-adv-x="595" 
d="M290 205l-85 -85v-120h-130v700h130v-415h5l210 215h150l-200 -205l225 -295h-150zM307 -225v5c-35 0 -65 30 -65 70s30 70 75 70s75 -30 75 -85c0 -115 -110 -165 -110 -165l-30 40s40 29 55 65z" />
    <glyph glyph-name="lacute" unicode="&#x13a;" horiz-adv-x="316" 
d="M235 700v-700h-130v595h-75v105h205zM186 975h150l-120 -185h-105z" />
    <glyph glyph-name="lcaron" unicode="&#x13e;" horiz-adv-x="465" 
d="M370 565v5c-35 0 -65 30 -65 70s30 70 75 70s75 -30 75 -85c0 -115 -110 -165 -110 -165l-30 40s40 29 55 65zM235 700v-700h-130v595h-75v105h205z" />
    <glyph glyph-name="lcommaaccent" unicode="&#x13c;" horiz-adv-x="313" 
d="M235 700v-700h-130v595h-75v105h205zM158 -225v5c-35 0 -65 30 -65 70s30 70 75 70s75 -30 75 -85c0 -115 -110 -165 -110 -165l-30 40s40 29 55 65z" />
    <glyph glyph-name="Igrave" unicode="&#xcc;" horiz-adv-x="318" 
d="M228 700v-700h-140v700h140zM-15 975h150l75 -185h-105z" />
    <glyph glyph-name="Iacute" unicode="&#xcd;" horiz-adv-x="318" 
d="M230 700v-700h-140v700h140zM183 975h150l-120 -185h-105z" />
    <glyph glyph-name="Icircumflex" unicode="&#xce;" horiz-adv-x="320" 
d="M231 700v-700h-140v700h140zM220 975l145 -185h-125l-75 90h-10l-75 -90h-125l145 185h120z" />
    <glyph glyph-name="Idieresis" unicode="&#xcf;" horiz-adv-x="315" 
d="M228 700v-700h-140v700h140zM-25 870c0 40 30 70 70 70s70 -30 70 -70s-30 -70 -70 -70s-70 30 -70 70zM200 870c0 40 30 70 70 70s70 -30 70 -70s-30 -70 -70 -70s-70 30 -70 70z" />
    <glyph glyph-name="Idotaccent" unicode="&#x130;" horiz-adv-x="321" 
d="M231 700v-700h-140v700h140zM90 870c0 40 30 70 70 70s70 -30 70 -70s-30 -70 -70 -70s-70 30 -70 70z" />
    <glyph glyph-name="Imacron" unicode="&#x12a;" horiz-adv-x="320" 
d="M231 700v-700h-140v700h140zM340 920v-110h-360v110h360z" />
    <glyph glyph-name="Iogonek" unicode="&#x12e;" horiz-adv-x="320" 
d="M230 700v-700s-130 -60 -130 -130c0 -25 15 -40 55 -40c30 0 65 20 65 20l40 -70s-50 -40 -120 -40c-95 0 -150 55 -150 120c0 90 100 140 100 140v700h140z" />
    <glyph glyph-name="Nacute" unicode="&#x143;" horiz-adv-x="820" 
d="M585 220h5v480h140v-700h-150l-345 480h-5v-480h-140v700h150zM423 975h150l-120 -185h-105z" />
    <glyph glyph-name="Ncaron" unicode="&#x147;" horiz-adv-x="820" 
d="M585 220h5v480h140v-700h-150l-345 480h-5v-480h-140v700h150zM614 975l-145 -185h-120l-145 185h125l75 -90h10l75 90h125z" />
    <glyph glyph-name="Ncommaaccent" unicode="&#x145;" horiz-adv-x="820" 
d="M585 220h5v480h140v-700h-150l-345 480h-5v-480h-140v700h150zM399 -225v5c-35 0 -65 30 -65 70s30 70 75 70s75 -30 75 -85c0 -115 -110 -165 -110 -165l-30 40s40 29 55 65z" />
    <glyph glyph-name="Ntilde" unicode="&#xd1;" horiz-adv-x="820" 
d="M585 220h5v480h140v-700h-150l-345 480h-5v-480h-140v700h150zM349 860c-20 0 -35 -15 -35 -35v-25h-90v37c0 72 50 123 115 123s85 -60 130 -60c20 0 35 15 35 35v25h90v-37c0 -72 -50 -123 -115 -123s-85 60 -130 60z" />
    <glyph glyph-name="Ograve" unicode="&#xd2;" horiz-adv-x="840" 
d="M45 350c0 215 155 370 375 370s375 -155 375 -370s-155 -370 -375 -370s-375 155 -375 370zM650 350c0 150 -100 250 -230 250s-230 -100 -230 -250s100 -250 230 -250s230 100 230 250zM255 986h150l75 -185h-105z" />
    <glyph glyph-name="Oacute" unicode="&#xd3;" horiz-adv-x="840" 
d="M45 350c0 215 155 370 375 370s375 -155 375 -370s-155 -370 -375 -370s-375 155 -375 370zM650 350c0 150 -100 250 -230 250s-230 -100 -230 -250s100 -250 230 -250s230 100 230 250zM450 985h150l-120 -185h-105z" />
    <glyph glyph-name="Ocircumflex" unicode="&#xd4;" horiz-adv-x="840" 
d="M45 350c0 215 155 370 375 370s375 -155 375 -370s-155 -370 -375 -370s-375 155 -375 370zM650 350c0 150 -100 250 -230 250s-230 -100 -230 -250s100 -250 230 -250s230 100 230 250zM480 975l145 -185h-125l-75 90h-10l-75 -90h-125l145 185h120z" />
    <glyph glyph-name="Odieresis" unicode="&#xd6;" horiz-adv-x="840" 
d="M45 350c0 215 155 370 375 370s375 -155 375 -370s-155 -370 -375 -370s-375 155 -375 370zM650 350c0 150 -100 250 -230 250s-230 -100 -230 -250s100 -250 230 -250s230 100 230 250zM237 880c0 40 30 70 70 70s70 -30 70 -70s-30 -70 -70 -70s-70 30 -70 70zM462 880
c0 40 30 70 70 70s70 -30 70 -70s-30 -70 -70 -70s-70 30 -70 70z" />
    <glyph glyph-name="Ohungarumlaut" unicode="&#x150;" horiz-adv-x="840" 
d="M45 350c0 215 155 370 375 370s375 -155 375 -370s-155 -370 -375 -370s-375 155 -375 370zM650 350c0 150 -100 250 -230 250s-230 -100 -230 -250s100 -250 230 -250s230 100 230 250zM360 985h125l-120 -185h-90zM560 985h125l-120 -185h-90z" />
    <glyph glyph-name="Omacron" unicode="&#x14c;" horiz-adv-x="840" 
d="M45 350c0 215 155 370 375 370s375 -155 375 -370s-155 -370 -375 -370s-375 155 -375 370zM650 350c0 150 -100 250 -230 250s-230 -100 -230 -250s100 -250 230 -250s230 100 230 250zM600 920v-110h-360v110h360z" />
    <glyph glyph-name="Otilde" unicode="&#xd5;" horiz-adv-x="840" 
d="M45 350c0 215 155 370 375 370s375 -155 375 -370s-155 -370 -375 -370s-375 155 -375 370zM650 350c0 150 -100 250 -230 250s-230 -100 -230 -250s100 -250 230 -250s230 100 230 250zM360 860c-20 0 -35 -15 -35 -35v-25h-90v37c0 72 50 123 115 123s85 -60 130 -60
c20 0 35 15 35 35v25h90v-37c0 -72 -50 -123 -115 -123s-85 60 -130 60z" />
    <glyph glyph-name="Racute" unicode="&#x154;" horiz-adv-x="770" 
d="M90 700h320c190 0 290 -100 290 -230c0 -150 -130 -200 -130 -200v-5l185 -265h-165l-165 240h-195v-240h-140v700zM555 470c0 65 -50 115 -145 115h-180v-230h180c95 0 145 60 145 115zM385 975h150l-120 -185h-105z" />
    <glyph glyph-name="Rcaron" unicode="&#x158;" horiz-adv-x="770" 
d="M90 700h320c190 0 290 -100 290 -230c0 -150 -130 -200 -130 -200v-5l185 -265h-165l-165 240h-195v-240h-140v700zM555 470c0 65 -50 115 -145 115h-180v-230h180c95 0 145 60 145 115zM577 975l-145 -185h-120l-145 185h125l75 -90h10l75 90h125z" />
    <glyph glyph-name="Rcommaaccent" unicode="&#x156;" horiz-adv-x="770" 
d="M90 700h320c190 0 290 -100 290 -230c0 -150 -130 -200 -130 -200v-5l185 -265h-165l-165 240h-195v-240h-140v700zM555 470c0 65 -50 115 -145 115h-180v-230h180c95 0 145 60 145 115zM382 -205v5c-35 0 -65 30 -65 70s30 70 75 70s75 -30 75 -85
c0 -115 -110 -165 -110 -165l-30 40s40 29 55 65z" />
    <glyph glyph-name="Sacute" unicode="&#x15a;" 
d="M340 720c150 0 250 -85 250 -85l-55 -95s-80 60 -185 60c-95 0 -140 -45 -140 -80c0 -140 395 -70 395 -315c0 -120 -105 -225 -305 -225c-162 0 -265 95 -265 95l60 95s81 -75 195 -75c115 0 170 55 170 110c0 125 -395 60 -395 315c0 100 100 200 275 200zM352 975h150
l-120 -185h-105z" />
    <glyph glyph-name="Scaron" unicode="&#x160;" 
d="M340 720c150 0 250 -85 250 -85l-55 -95s-80 60 -185 60c-95 0 -140 -45 -140 -80c0 -140 395 -70 395 -315c0 -120 -105 -225 -305 -225c-162 0 -265 95 -265 95l60 95s81 -75 195 -75c115 0 170 55 170 110c0 125 -395 60 -395 315c0 100 100 200 275 200zM535 975
l-145 -185h-120l-145 185h125l75 -90h10l75 90h125z" />
    <glyph glyph-name="Scedilla" unicode="&#x15e;" 
d="M340 720c150 0 250 -85 250 -85l-55 -95s-80 60 -185 60c-95 0 -140 -45 -140 -80c0 -140 395 -70 395 -315c0 -112 -91 -210 -265 -223v-22c90 0 150 -60 150 -125s-60 -125 -160 -125c-70 0 -120 40 -120 40l40 70s30 -25 70 -25c50 0 65 15 65 40s-15 40 -65 40h-35
l-30 25v83c-136 15 -220 92 -220 92l60 95s81 -75 195 -75c115 0 170 55 170 110c0 125 -395 60 -395 315c0 100 100 200 275 200z" />
    <glyph glyph-name="Scommaaccent" unicode="&#x218;" 
d="M340 720c150 0 250 -85 250 -85l-55 -95s-80 60 -185 60c-95 0 -140 -45 -140 -80c0 -140 395 -70 395 -315c0 -120 -105 -225 -305 -225c-162 0 -265 95 -265 95l60 95s81 -75 195 -75c115 0 170 55 170 110c0 125 -395 60 -395 315c0 100 100 200 275 200zM315 -220v5
c-35 0 -65 30 -65 70s30 70 75 70s75 -30 75 -85c0 -115 -110 -165 -110 -165l-30 40s40 29 55 65z" />
    <glyph glyph-name="Tcaron" unicode="&#x164;" horiz-adv-x="660" 
d="M20 700h620v-115h-240v-585h-140v585h-240v115zM535 975l-145 -185h-120l-145 185h125l75 -90h10l75 90h125z" />
    <glyph glyph-name="Tcommaaccent" unicode="&#x162;" horiz-adv-x="660" 
d="M20 700h620v-115h-240v-585h-140v585h-240v115zM315 -220v5c-35 0 -65 30 -65 70s30 70 75 70s75 -30 75 -85c0 -115 -110 -165 -110 -165l-30 40s40 29 55 65z" />
    <glyph glyph-name="Yacute" unicode="&#xdd;" horiz-adv-x="710" 
d="M360 360l200 340h150l-285 -480v-220h-140v220l-285 480h150l200 -340h10zM365 975h150l-120 -185h-105z" />
    <glyph glyph-name="Ydieresis" unicode="&#x178;" horiz-adv-x="710" 
d="M360 360l200 340h150l-285 -480v-220h-140v220l-285 480h150l200 -340h10zM170 870c0 40 30 70 70 70s70 -30 70 -70s-30 -70 -70 -70s-70 30 -70 70zM395 870c0 40 30 70 70 70s70 -30 70 -70s-30 -70 -70 -70s-70 30 -70 70z" />
    <glyph glyph-name="igrave" unicode="&#xec;" horiz-adv-x="282" 
d="M82 0v500h130v-500h-130zM-30 770h150l75 -185h-105z" />
    <glyph glyph-name="iacute" unicode="&#xed;" horiz-adv-x="273" 
d="M70 0v500h130v-500h-130zM153 775h150l-120 -185h-105z" />
    <glyph glyph-name="icircumflex" unicode="&#xee;" horiz-adv-x="280" 
d="M80 0v500h130v-500h-130zM200 775l145 -185h-125l-75 90h-10l-75 -90h-125l145 185h120z" />
    <glyph glyph-name="idieresis" unicode="&#xef;" horiz-adv-x="285" 
d="M82 0v500h130v-500h-130zM-40 670c0 40 30 70 70 70s70 -30 70 -70s-30 -70 -70 -70s-70 30 -70 70zM185 670c0 40 30 70 70 70s70 -30 70 -70s-30 -70 -70 -70s-70 30 -70 70z" />
    <glyph glyph-name="imacron" unicode="&#x12b;" horiz-adv-x="280" 
d="M80 0v500h130v-500h-130zM320 720v-110h-360v110h360z" />
    <glyph glyph-name="iogonek" unicode="&#x12f;" horiz-adv-x="280" 
d="M120 -260c-95 0 -150 55 -150 120c0 90 110 140 110 140v500h130v-500s-130 -60 -130 -130c0 -25 15 -40 55 -40c30 0 65 20 65 20l40 -70s-50 -40 -120 -40zM65 645c0 40 35 75 80 75s80 -35 80 -75s-35 -75 -80 -75s-80 35 -80 75z" />
    <glyph glyph-name="nacute" unicode="&#x144;" horiz-adv-x="650" 
d="M75 0v475s125 45 240 45c170 0 265 -95 265 -225v-295h-130v295c0 65 -50 115 -135 115c-55 0 -110 -15 -110 -15v-395h-130zM340 785h150l-120 -185h-105z" />
    <glyph glyph-name="ncaron" unicode="&#x148;" horiz-adv-x="650" 
d="M75 0v475s125 45 240 45c170 0 265 -95 265 -225v-295h-130v295c0 65 -50 115 -135 115c-55 0 -110 -15 -110 -15v-395h-130zM532 785l-145 -185h-120l-145 185h125l75 -90h10l75 90h125z" />
    <glyph glyph-name="ncommaaccent" unicode="&#x146;" horiz-adv-x="650" 
d="M75 0v475s125 45 240 45c170 0 265 -95 265 -225v-295h-130v295c0 65 -50 115 -135 115c-55 0 -110 -15 -110 -15v-395h-130zM317 -215v5c-35 0 -65 30 -65 70s30 70 75 70s75 -30 75 -85c0 -115 -110 -165 -110 -165l-30 40s40 29 55 65z" />
    <glyph glyph-name="ntilde" unicode="&#xf1;" horiz-adv-x="650" 
d="M75 0v475s125 45 240 45c170 0 265 -95 265 -225v-295h-130v295c0 65 -50 115 -135 115c-55 0 -110 -15 -110 -15v-395h-130zM267 670c-20 0 -35 -15 -35 -35v-25h-90v37c0 72 50 123 115 123s85 -60 130 -60c20 0 35 15 35 35v25h90v-37c0 -72 -50 -123 -115 -123
s-85 60 -130 60z" />
    <glyph glyph-name="ograve" unicode="&#xf2;" 
d="M465 250c0 95 -65 160 -145 160s-145 -65 -145 -160s65 -160 145 -160s145 65 145 160zM40 250c0 150 120 270 280 270s280 -120 280 -270s-120 -270 -280 -270s-280 120 -280 270zM156 780h150l75 -185h-105z" />
    <glyph glyph-name="oacute" unicode="&#xf3;" 
d="M465 250c0 95 -65 160 -145 160s-145 -65 -145 -160s65 -160 145 -160s145 65 145 160zM40 250c0 150 120 270 280 270s280 -120 280 -270s-120 -270 -280 -270s-280 120 -280 270zM341 780h150l-120 -185h-105z" />
    <glyph glyph-name="ocircumflex" unicode="&#xf4;" 
d="M465 250c0 95 -65 160 -145 160s-145 -65 -145 -160s65 -160 145 -160s145 65 145 160zM40 250c0 150 120 270 280 270s280 -120 280 -270s-120 -270 -280 -270s-280 120 -280 270zM379 785l145 -185h-125l-75 90h-10l-75 -90h-125l145 185h120z" />
    <glyph glyph-name="odieresis" unicode="&#xf6;" 
d="M465 250c0 95 -65 160 -145 160s-145 -65 -145 -160s65 -160 145 -160s145 65 145 160zM40 250c0 150 120 270 280 270s280 -120 280 -270s-120 -270 -280 -270s-280 120 -280 270zM136 670c0 40 30 70 70 70s70 -30 70 -70s-30 -70 -70 -70s-70 30 -70 70zM361 670
c0 40 30 70 70 70s70 -30 70 -70s-30 -70 -70 -70s-70 30 -70 70z" />
    <glyph glyph-name="ohungarumlaut" unicode="&#x151;" 
d="M465 250c0 95 -65 160 -145 160s-145 -65 -145 -160s65 -160 145 -160s145 65 145 160zM40 250c0 150 120 270 280 270s280 -120 280 -270s-120 -270 -280 -270s-280 120 -280 270zM259 785h125l-120 -185h-90zM459 785h125l-120 -185h-90z" />
    <glyph glyph-name="omacron" unicode="&#x14d;" 
d="M465 250c0 95 -65 160 -145 160s-145 -65 -145 -160s65 -160 145 -160s145 65 145 160zM40 250c0 150 120 270 280 270s280 -120 280 -270s-120 -270 -280 -270s-280 120 -280 270zM499 730v-110h-360v110h360z" />
    <glyph glyph-name="otilde" unicode="&#xf5;" 
d="M465 250c0 95 -65 160 -145 160s-145 -65 -145 -160s65 -160 145 -160s145 65 145 160zM40 250c0 150 120 270 280 270s280 -120 280 -270s-120 -270 -280 -270s-280 120 -280 270zM259 660c-20 0 -35 -15 -35 -35v-25h-90v37c0 72 50 123 115 123s85 -60 130 -60
c20 0 35 15 35 35v25h90v-37c0 -72 -50 -123 -115 -123s-85 60 -130 60z" />
    <glyph glyph-name="racute" unicode="&#x155;" horiz-adv-x="460" 
d="M290 410c-45 0 -85 -15 -85 -15v-395h-130v475s95 45 205 45c97 0 170 -40 170 -40l-35 -100s-50 30 -125 30zM272 795h150l-120 -185h-105z" />
    <glyph glyph-name="rcaron" unicode="&#x159;" horiz-adv-x="460" 
d="M290 410c-45 0 -85 -15 -85 -15v-395h-130v475s95 45 205 45c97 0 170 -40 170 -40l-35 -100s-50 30 -125 30zM465 785l-145 -185h-120l-145 185h125l75 -90h10l75 90h125z" />
    <glyph glyph-name="sacute" unicode="&#x15b;" horiz-adv-x="530" 
d="M495 150c0 -85 -85 -170 -255 -170c-120 0 -205 70 -205 70l50 90s65 -50 155 -50s120 30 120 60c0 75 -300 25 -300 205c0 85 80 165 225 165c120 0 195 -65 195 -65l-50 -90s-60 45 -145 45c-65 0 -90 -25 -90 -55c0 -75 300 -25 300 -205zM289 785h150l-120 -185h-105
z" />
    <glyph glyph-name="scaron" unicode="&#x161;" horiz-adv-x="530" 
d="M495 150c0 -85 -85 -170 -255 -170c-120 0 -205 70 -205 70l50 90s65 -50 155 -50s120 30 120 60c0 75 -300 25 -300 205c0 85 80 165 225 165c120 0 195 -65 195 -65l-50 -90s-60 45 -145 45c-65 0 -90 -25 -90 -55c0 -75 300 -25 300 -205zM492 785l-145 -185h-120
l-145 185h125l75 -90h10l75 90h125z" />
    <glyph glyph-name="rcommaaccent" unicode="&#x157;" horiz-adv-x="459" 
d="M289 410c-45 0 -85 -15 -85 -15v-395h-130v475s95 45 205 45c97 0 170 -40 170 -40l-35 -100s-50 30 -125 30zM130 -225v5c-35 0 -65 30 -65 70s30 70 75 70s75 -30 75 -85c0 -115 -110 -165 -110 -165l-30 40s40 29 55 65z" />
    <glyph glyph-name="scedilla" unicode="&#x15f;" horiz-adv-x="530" 
d="M495 150c0 -80 -73 -157 -220 -168v-22c90 0 150 -60 150 -125s-60 -125 -160 -125c-70 0 -120 40 -120 40l40 70s30 -25 70 -25c50 0 65 15 65 40s-15 40 -65 40h-35l-30 25v84c-93 16 -155 66 -155 66l50 90s65 -50 155 -50s120 30 120 60c0 75 -300 25 -300 205
c0 85 80 165 225 165c120 0 195 -65 195 -65l-50 -90s-60 45 -145 45c-65 0 -90 -25 -90 -55c0 -75 300 -25 300 -205z" />
    <glyph glyph-name="scommaaccent" unicode="&#x219;" horiz-adv-x="530" 
d="M495 150c0 -85 -85 -170 -255 -170c-120 0 -205 70 -205 70l50 90s65 -50 155 -50s120 30 120 60c0 75 -300 25 -300 205c0 85 80 165 225 165c120 0 195 -65 195 -65l-50 -90s-60 45 -145 45c-65 0 -90 -25 -90 -55c0 -75 300 -25 300 -205zM267 -235v5
c-35 0 -65 30 -65 70s30 70 75 70s75 -30 75 -85c0 -115 -110 -165 -110 -165l-30 40s40 29 55 65z" />
    <glyph glyph-name="tcaron" unicode="&#x165;" horiz-adv-x="585" 
d="M490 565v5c-35 0 -65 30 -65 70s30 70 75 70s75 -30 75 -85c0 -115 -110 -165 -110 -165l-30 40s40 29 55 65zM155 640h80v-140h155v-105h-155v-210c0 -60 35 -95 95 -95c45 0 75 20 75 20l30 -100s-55 -30 -115 -30c-140 0 -215 75 -215 205v210h-85v105h85z" />
    <glyph glyph-name="tcommaaccent" unicode="&#x163;" horiz-adv-x="455" 
d="M155 640h80v-140h155v-105h-155v-210c0 -60 35 -95 95 -95c45 0 75 20 75 20l30 -100s-55 -30 -115 -30c-140 0 -215 75 -215 205v210h-85v105h85zM259 -235v5c-35 0 -65 30 -65 70s30 70 75 70s75 -30 75 -85c0 -115 -110 -165 -110 -165l-30 40s40 29 55 65z" />
    <glyph glyph-name="yacute" unicode="&#xfd;" horiz-adv-x="655" 
d="M580 500v-480c0 -120 -105 -230 -285 -230c-120 0 -195 60 -195 60l50 90s60 -40 145 -40c135 0 155 110 155 110v10s-60 -10 -110 -10c-170 0 -265 95 -265 225v265h130v-265c0 -65 50 -115 135 -115c55 0 110 15 110 15v365h130zM338 775h150l-120 -185h-105z" />
    <glyph glyph-name="ydieresis" unicode="&#xff;" horiz-adv-x="655" 
d="M580 500v-480c0 -120 -105 -230 -285 -230c-120 0 -195 60 -195 60l50 90s60 -40 145 -40c135 0 155 110 155 110v10s-60 -10 -110 -10c-170 0 -265 95 -265 225v265h130v-265c0 -65 50 -115 135 -115c55 0 110 15 110 15v365h130zM143 680c0 40 30 70 70 70
s70 -30 70 -70s-30 -70 -70 -70s-70 30 -70 70zM368 680c0 40 30 70 70 70s70 -30 70 -70s-30 -70 -70 -70s-70 30 -70 70z" />
    <glyph glyph-name="Ugrave" unicode="&#xd9;" horiz-adv-x="810" 
d="M405 -20c-195 0 -320 125 -320 300v420h140v-420c0 -110 70 -180 180 -180s180 70 180 180v420h140v-420c0 -175 -125 -300 -320 -300zM250 980h150l75 -185h-105z" />
    <glyph glyph-name="Uacute" unicode="&#xda;" horiz-adv-x="810" 
d="M405 -20c-195 0 -320 125 -320 300v420h140v-420c0 -110 70 -180 180 -180s180 70 180 180v420h140v-420c0 -175 -125 -300 -320 -300zM425 985h150l-120 -185h-105z" />
    <glyph glyph-name="Ucircumflex" unicode="&#xdb;" horiz-adv-x="810" 
d="M405 -20c-195 0 -320 125 -320 300v420h140v-420c0 -110 70 -180 180 -180s180 70 180 180v420h140v-420c0 -175 -125 -300 -320 -300zM462 985l145 -185h-125l-75 90h-10l-75 -90h-125l145 185h120z" />
    <glyph glyph-name="Udieresis" unicode="&#xdc;" horiz-adv-x="810" 
d="M405 -20c-195 0 -320 125 -320 300v420h140v-420c0 -110 70 -180 180 -180s180 70 180 180v420h140v-420c0 -175 -125 -300 -320 -300zM220 870c0 40 30 70 70 70s70 -30 70 -70s-30 -70 -70 -70s-70 30 -70 70zM445 870c0 40 30 70 70 70s70 -30 70 -70s-30 -70 -70 -70
s-70 30 -70 70z" />
    <glyph glyph-name="Uhungarumlaut" unicode="&#x170;" horiz-adv-x="810" 
d="M405 -20c-195 0 -320 125 -320 300v420h140v-420c0 -110 70 -180 180 -180s180 70 180 180v420h140v-420c0 -175 -125 -300 -320 -300zM322 975h125l-120 -185h-90zM522 975h125l-120 -185h-90z" />
    <glyph glyph-name="Umacron" unicode="&#x16a;" horiz-adv-x="810" 
d="M405 -20c-195 0 -320 125 -320 300v420h140v-420c0 -110 70 -180 180 -180s180 70 180 180v420h140v-420c0 -175 -125 -300 -320 -300zM582 920v-110h-360v110h360z" />
    <glyph glyph-name="Uogonek" unicode="&#x172;" horiz-adv-x="810" 
d="M442 -260c-95 0 -150 55 -150 120c0 58 49 99 84 121c-178 12 -291 132 -291 299v420h140v-420c0 -110 70 -180 180 -180s180 70 180 180v420h140v-420c0 -134 -73 -238 -194 -280h1s-130 -60 -130 -130c0 -25 15 -40 55 -40c30 0 65 20 65 20l40 -70s-50 -40 -120 -40z
" />
    <glyph glyph-name="Uring" unicode="&#x16e;" horiz-adv-x="810" 
d="M405 -20c-195 0 -320 125 -320 300v420h140v-420c0 -110 70 -180 180 -180s180 70 180 180v420h140v-420c0 -175 -125 -300 -320 -300zM342 875c0 -35 25 -60 60 -60s60 25 60 60s-25 60 -60 60s-60 -25 -60 -60zM547 875c0 -75 -60 -135 -145 -135s-145 60 -145 135
s60 135 145 135s145 -60 145 -135z" />
    <glyph glyph-name="Zacute" unicode="&#x179;" horiz-adv-x="670" 
d="M45 585v115h585v-115l-410 -465v-5h415v-115h-600v115l410 465v5h-400zM356 975h150l-120 -185h-105z" />
    <glyph glyph-name="Zcaron" unicode="&#x17d;" horiz-adv-x="670" 
d="M45 585v115h585v-115l-410 -465v-5h415v-115h-600v115l410 465v5h-400zM549 975l-145 -185h-120l-145 185h125l75 -90h10l75 90h125z" />
    <glyph glyph-name="Zdotaccent" unicode="&#x17b;" horiz-adv-x="670" 
d="M45 585v115h585v-115l-410 -465v-5h415v-115h-600v115l410 465v5h-400zM274 870c0 40 30 70 70 70s70 -30 70 -70s-30 -70 -70 -70s-70 30 -70 70z" />
    <glyph glyph-name="ugrave" unicode="&#xf9;" horiz-adv-x="655" 
d="M580 500v-475s-125 -45 -240 -45c-170 0 -265 95 -265 225v295h130v-295c0 -65 50 -115 135 -115c55 0 110 15 110 15v395h130zM183 780h150l75 -185h-105z" />
    <glyph glyph-name="uacute" unicode="&#xfa;" horiz-adv-x="655" 
d="M580 500v-475s-125 -45 -240 -45c-170 0 -265 95 -265 225v295h130v-295c0 -65 50 -115 135 -115c55 0 110 15 110 15v395h130zM348 775h150l-120 -185h-105z" />
    <glyph glyph-name="ucircumflex" unicode="&#xfb;" horiz-adv-x="655" 
d="M580 500v-475s-125 -45 -240 -45c-170 0 -265 95 -265 225v295h130v-295c0 -65 50 -115 135 -115c55 0 110 15 110 15v395h130zM385 785l145 -185h-125l-75 90h-10l-75 -90h-125l145 185h120z" />
    <glyph glyph-name="udieresis" unicode="&#xfc;" horiz-adv-x="655" 
d="M580 500v-475s-125 -45 -240 -45c-170 0 -265 95 -265 225v295h130v-295c0 -65 50 -115 135 -115c55 0 110 15 110 15v395h130zM143 670c0 40 30 70 70 70s70 -30 70 -70s-30 -70 -70 -70s-70 30 -70 70zM368 670c0 40 30 70 70 70s70 -30 70 -70s-30 -70 -70 -70
s-70 30 -70 70z" />
    <glyph glyph-name="uhungarumlaut" unicode="&#x171;" horiz-adv-x="655" 
d="M580 500v-475s-125 -45 -240 -45c-170 0 -265 95 -265 225v295h130v-295c0 -65 50 -115 135 -115c55 0 110 15 110 15v395h130zM255 795h125l-120 -185h-90zM455 795h125l-120 -185h-90z" />
    <glyph glyph-name="umacron" unicode="&#x16b;" horiz-adv-x="655" 
d="M580 500v-475s-125 -45 -240 -45c-170 0 -265 95 -265 225v295h130v-295c0 -65 50 -115 135 -115c55 0 110 15 110 15v395h130zM505 720v-110h-360v110h360z" />
    <glyph glyph-name="uogonek" unicode="&#x173;" horiz-adv-x="655" 
d="M400 -260c-95 0 -150 55 -150 120c0 57 47 98 83 120c-166 3 -258 97 -258 225v305h130v-305c0 -65 50 -115 135 -115c55 0 110 15 110 15v405h130v-485s-41 -15 -94 -26c-17 -8 -126 -64 -126 -129c0 -25 15 -40 55 -40c30 0 65 20 65 20l40 -70s-50 -40 -120 -40z" />
    <glyph glyph-name="uring" unicode="&#x16f;" horiz-adv-x="655" 
d="M580 500v-475s-125 -45 -240 -45c-170 0 -265 95 -265 225v295h130v-295c0 -65 50 -115 135 -115c55 0 110 15 110 15v395h130zM265 695c0 -35 25 -60 60 -60s60 25 60 60s-25 60 -60 60s-60 -25 -60 -60zM470 695c0 -75 -60 -135 -145 -135s-145 60 -145 135
s60 135 145 135s145 -60 145 -135z" />
    <glyph glyph-name="zacute" unicode="&#x17a;" horiz-adv-x="535" 
d="M40 395v105h450v-105l-276 -285v-5h286v-105h-465v105l275 285v5h-270zM285 785h150l-120 -185h-105z" />
    <glyph glyph-name="zcaron" unicode="&#x17e;" horiz-adv-x="535" 
d="M40 395v105h450v-105l-276 -285v-5h286v-105h-465v105l275 285v5h-270zM467 775l-145 -185h-120l-145 185h125l75 -90h10l75 90h125z" />
    <glyph glyph-name="zdotaccent" unicode="&#x17c;" horiz-adv-x="535" 
d="M40 395v105h450v-105l-276 -285v-5h286v-105h-465v105l275 285v5h-270zM202 670c0 40 30 70 70 70s70 -30 70 -70s-30 -70 -70 -70s-70 30 -70 70z" />
    <glyph glyph-name="Dcroat" unicode="&#x110;" horiz-adv-x="800" 
d="M110 700h270c225 0 375 -150 375 -350c0 -205 -150 -350 -375 -350h-270v285h-80v120h80v295zM380 585h-130v-180h160v-120h-160v-170h130c135 0 230 95 230 235s-95 235 -230 235z" />
    <glyph glyph-name="Eth" unicode="&#xd0;" horiz-adv-x="800" 
d="M110 700h270c225 0 375 -150 375 -350c0 -205 -150 -350 -375 -350h-270v285h-80v120h80v295zM380 585h-130v-180h160v-120h-160v-170h130c135 0 230 95 230 235s-95 235 -230 235z" />
    <glyph glyph-name="dcroat" unicode="&#x111;" horiz-adv-x="660" 
d="M425 460v55h-155v110h155v75h130v-75h85v-110h-85v-490s-110 -45 -225 -45c-180 0 -295 115 -295 245c0 135 115 250 295 250c45 0 95 -15 95 -15zM330 90c45 0 95 15 95 15v245s-50 15 -95 15c-100 0 -160 -60 -160 -140c0 -75 60 -135 160 -135z" />
    <glyph glyph-name="eth" unicode="&#xf0;" horiz-adv-x="637" 
d="M265 530l-60 60l65 65l-65 60l70 75l66 -60l69 65l60 -60l-60 -65s182 -147 182 -415c0 -155 -119 -275 -282 -275c-160 0 -280 115 -280 250s115 250 260 250c85 0 138 -50 138 -50h7c-21 94 -105 165 -105 165zM165 230c0 -80 65 -145 145 -145s145 65 145 145
c0 85 -65 150 -145 150s-145 -65 -145 -150z" />
    <glyph glyph-name="Lslash" unicode="&#x141;" horiz-adv-x="665" 
d="M110 0v261l-80 -41v125l80 41v314h140v-242l140 72v-125l-140 -72v-218h395v-115h-535z" />
    <glyph glyph-name="lslash" unicode="&#x142;" horiz-adv-x="395" 
d="M260 700v-280l105 60v-120l-105 -55v-305h-130v235l-100 -55v120l100 55v240h-75v105h205z" />
    <glyph glyph-name="nbspace" unicode="&#xa0;" horiz-adv-x="290" 
 />
    </font>
</defs>
</svg>
