<?xml version="1.0" standalone="no"?>
<!DOCTYPE svg PUBLIC "-//W3C//DTD SVG 1.1//EN" "http://www.w3.org/Graphics/SVG/1.1/DTD/svg11.dtd" >
<svg xmlns="http://www.w3.org/2000/svg" xmlns:xlink="http://www.w3.org/1999/xlink" version="1.1">
<metadata>
Created by FontForge 20161013 at Thu Apr 29 00:48:02 2004
 By ,,,
Copyright (c) 2004 SUDTIPOS. Dise-ada por Alejandro Paul. Todos los derechos reservados.
</metadata>
<defs>
<font id="GroverSlab-Bold" horiz-adv-x="936" >
  <font-face 
    font-family="Grover Slab"
    font-weight="700"
    font-stretch="normal"
    units-per-em="1000"
    panose-1="2 0 8 5 2 0 0 2 0 4"
    ascent="800"
    descent="-200"
    x-height="549"
    cap-height="781"
    bbox="-100 -314 1742 1087"
    underline-thickness="50"
    underline-position="-150"
    unicode-range="U+0020-FB02"
  />
<missing-glyph horiz-adv-x="280" 
 />
    <glyph glyph-name=".notdef" horiz-adv-x="280" 
 />
    <glyph glyph-name=".null" horiz-adv-x="0" 
 />
    <glyph glyph-name="nonmarkingreturn" horiz-adv-x="300" 
 />
    <glyph glyph-name="space" unicode=" " horiz-adv-x="300" 
 />
    <glyph glyph-name="exclam" unicode="!" horiz-adv-x="418" 
d="M209 -9q-38 0 -64.5 26.5t-26.5 64.5q0 39 26.5 65.5t64.5 26.5q39 0 65 -26.5t26 -65.5q0 -38 -26 -64.5t-65 -26.5zM271 255q-1 -20 -16 -34t-38 -14h-16q-22 0 -37 14.5t-16 33.5l-18 474q0 30 24.5 50.5t54.5 20.5q15 0 29 -5.5t25.5 -15t18 -22t6.5 -27.5z" />
    <glyph glyph-name="quotedbl" unicode="&#x22;" horiz-adv-x="504" 
d="M228 535q-1 -18 -15.5 -32t-34.5 -14h-22q-19 0 -34 14t-17 32q-3 42 -7 87.5t-8 93.5q0 27 19.5 46t45.5 19h24q26 0 46 -19t20 -47zM398 535q-2 -19 -16 -32.5t-34 -13.5h-22q-20 0 -34.5 14t-16.5 32q-3 44 -7.5 88t-8.5 94q0 27 20 45.5t46 18.5h24q26 0 45.5 -19.5
t19.5 -46.5z" />
    <glyph glyph-name="numbersign" unicode="#" horiz-adv-x="774" 
d="M351 373q-8 -18 -12.5 -28.5t-14.5 -33.5h97q4 9 7 15.5l6 13t6.5 14.5t8.5 19h-98zM584 373l-27 -62h49q25 0 43 -17.5t18 -42.5q0 -17 -6.5 -29t-16 -19.5t-20 -10.5t-18.5 -3h-97l-67 -159q-7 -20 -23 -29.5t-33 -9.5h-6q-23 0 -41 16.5t-18 42.5q0 13 4 24l48 115
h-97q-15 -35 -28 -70t-27 -63.5t-30.5 -46.5t-37.5 -18h-5q-15 0 -29 7t-22 21l2 -2q-12 16 -12 34q0 10 5 23l48 115h-50q-11 0 -22 5t-19.5 13.5t-13.5 19.5t-5 23q0 21 16.5 41t44.5 20h96q4 9 7 15.5l6 13t6.5 14.5t8.5 19h-48q-23 0 -42 18.5t-19 41.5q0 11 5 22.5
t13 20.5t19.5 15t24.5 6h96q12 28 23 57.5t23.5 53.5t27.5 39.5t36 15.5h5q23 0 41.5 -17t18.5 -43q0 -6 -1 -11.5t-3 -10.5v-1q-6 -15 -10 -24.5t-8 -17.5t-8 -17.5t-10 -23.5h100q12 27 21.5 56.5t21.5 53.5t27 40t38 16h5q24 0 42.5 -18t18.5 -43q0 -13 -6 -23l1 1
q-6 -15 -10 -24.5t-7 -17.5t-7 -17.5t-10 -23.5h49q25 0 43 -17.5t18 -42.5q-2 -18 -9 -32q-6 -12 -18.5 -22t-34.5 -10h-98z" />
    <glyph glyph-name="dollar" unicode="$" horiz-adv-x="716" 
d="M548 636q23 0 39 -16t16 -39v-79q0 -23 -16 -39.5t-39 -16.5h-7q-19 0 -34 11t-20 30q-16 8 -29.5 9.5t-30.5 3.5v-66h8q97 -3 154 -44.5t57 -132.5q0 -36 -12.5 -68t-39 -57t-68 -41t-99.5 -20v-14q0 -15 -1 -29t-6 -24.5t-15.5 -16.5t-29.5 -6t-29.5 6t-15.5 16.5
t-6 24.5t-1 29v14q-88 6 -155 32q-16 -19 -41 -19h-7q-23 0 -39 16t-16 40v89q0 23 16 39t39 16h7q19 0 33.5 -12t19.5 -30q36 -17 75 -23t68 -8v84q-8 1 -14 1h-14q-52 2 -90.5 17t-64 39t-38.5 54.5t-13 64.5q0 31 11.5 61t38.5 55t72 41.5t112 19.5q0 13 1.5 25t7 21
t15.5 14.5t28 5.5t28.5 -6t15.5 -16t6.5 -23t1.5 -27q41 -8 77 -21q17 15 37 15h7zM323 505q-16 0 -31.5 -2.5t-27.5 -7t-19.5 -11t-7.5 -15.5q1 -9 11 -16q8 -6 25.5 -10.5t49.5 -4.5v67zM499 261q0 9 -5.5 14.5t-13.5 9t-17.5 5t-17.5 1.5h-18v-81q27 4 49.5 17.5
t22.5 33.5z" />
    <glyph glyph-name="percent" unicode="%" horiz-adv-x="1284" 
d="M1088 220q0 42 -26.5 73t-84.5 31q-59 0 -85.5 -31t-26.5 -73q0 -21 5.5 -39.5t18 -33t34 -22.5t54.5 -8q32 0 53.5 8t34 22.5t18 33t5.5 39.5zM419 474q0 42 -26.5 73t-84.5 31q-60 0 -86 -31t-26 -73q0 -21 5.5 -39.5t18 -33t34 -22.5t54.5 -8q32 0 53.5 8t34 22.5
t18 33t5.5 39.5zM437 -43q-7 -6 -12.5 -8.5t-22.5 -2.5q-12 0 -23 6.5t-19 16t-13 20.5t-5 20q0 15 11 31l486 684q5 6 10 8.5t19 2.5q33 0 49 -21t16 -42q0 -16 -9 -31zM70 474q0 49 15 91t45 73t74.5 48t103.5 17q58 0 102.5 -17t74.5 -48t45 -73t15 -91t-15 -91
t-45 -72.5t-74.5 -48t-102.5 -17.5q-59 0 -103.5 17.5t-74.5 48t-45 72.5t-15 91zM739 220q0 49 15 91t45 73t74.5 48t103.5 17q58 0 102.5 -17t74.5 -48t45 -73t15 -91t-15 -91t-45 -72.5t-74.5 -47.5t-102.5 -17q-59 0 -103.5 17t-74.5 47.5t-45 72.5t-15 91z" />
    <glyph glyph-name="ampersand" unicode="&#x26;" horiz-adv-x="906" 
d="M372 303q-23 -5 -46 -13.5t-42 -20.5t-31 -26.5t-12 -29.5q0 -18 11.5 -32.5t31.5 -24t47 -15t59 -5.5q58 0 111 25zM680 0q-16 0 -32.5 9.5t-39.5 32.5q-51 -30 -106 -44t-109 -14q-67 0 -123 14.5t-96 43.5t-62 72.5t-22 102.5q0 29 7 53.5t19 44t27.5 35t31.5 27.5
q37 27 85 44q-17 18 -33.5 41.5t-30 48.5t-22 50.5t-8.5 49.5q0 62 21.5 96t56 49.5t79 18t89.5 2.5h162q15 0 28.5 -6.5t24.5 -17t17.5 -25t6.5 -29.5v-101q0 -15 -6.5 -28.5t-17 -24.5t-25 -17.5t-29.5 -6.5t-28.5 6.5t-24 17.5t-16.5 24.5t-6 28.5v26h-86q-47 0 -66.5 -3
t-19.5 -17q0 -8 9 -22.5t22 -31t28 -33.5t26 -30h-1q28 -32 53.5 -60l51 -56l51 -56t54.5 -59q10 13 20 27t21 25.5t25 19t33 7.5q32 0 53.5 -22t21.5 -54q0 -15 -6 -29t-16 -27.5t-22.5 -28.5t-25.5 -32h81q15 0 27.5 -6t22.5 -15.5t15.5 -22.5t5.5 -27q0 -30 -21 -51
t-50 -21z" />
    <glyph glyph-name="quotesingle" unicode="'" horiz-adv-x="334" 
d="M228 535q-2 -19 -16 -32.5t-34 -13.5h-22q-20 0 -34.5 14t-16.5 32l-15 182q0 27 19.5 45.5t45.5 18.5h24q26 0 45.5 -19.5t19.5 -46.5z" />
    <glyph glyph-name="parenleft" unicode="(" horiz-adv-x="500" 
d="M399 89q10 -11 13.5 -21.5t3.5 -20.5q0 -24 -17.5 -43t-42.5 -19q-15 0 -41 17.5t-56.5 48t-62.5 71.5t-57.5 88t-42 98t-16.5 101t17 100t44.5 96.5t60.5 86t65 69t59 46.5t41 17q24 0 41 -17t17 -42t-24 -46q-27 -18 -56.5 -50.5t-55 -73.5t-42 -89.5t-16.5 -99.5
t16.5 -100t41 -91t54 -75t56.5 -51z" />
    <glyph glyph-name="parenright" unicode=")" horiz-adv-x="500" 
d="M101 89q27 18 56.5 51t54 75t41 91t16.5 100t-16.5 99.5t-42 89.5t-55 73.5t-56.5 50.5q-24 21 -24 46t17 42t41 17q14 0 41 -17t59 -46.5t65 -69t60.5 -86t44.5 -96.5t17 -100t-16.5 -101t-42.5 -98t-57.5 -88t-62 -71.5t-57 -48t-40.5 -17.5q-25 0 -42.5 19t-17.5 43
q0 10 3.5 20.5t13.5 21.5z" />
    <glyph glyph-name="asterisk" unicode="*" horiz-adv-x="518" 
d="M216 656v80q0 17 12.5 30t30.5 13h5q17 0 29.5 -13t12.5 -30v-79l64 37q5 3 10 5t12 2q6 0 13.5 -4t15 -10.5t12.5 -15t5 -18.5q0 -21 -22 -38l-66 -37q36 -19 68 -39q8 -5 14 -14.5t6 -21.5q0 -6 -3.5 -14.5t-9.5 -16t-14.5 -12.5t-18.5 -5q-14 0 -21 5q-13 7 -20 11.5
t-13 8.5t-13 8t-19 11v-76q0 -17 -12.5 -30t-29.5 -13h-5q-18 0 -30.5 13t-12.5 30v77q-17 -10 -36.5 -22t-36.5 -21q-4 -2 -18 -2q-10 0 -18 5t-14 12.5t-9.5 15.5t-3.5 14q0 24 20 37l67 39l-65 37q-22 17 -22 38q0 7 3 15.5t9 15.5t14.5 12t19.5 5q7 0 12.5 -2.5
t9.5 -4.5z" />
    <glyph glyph-name="plus" unicode="+" horiz-adv-x="648" 
d="M392 181v-127q0 -23 -16 -39t-39 -16h-26q-23 0 -39 16t-16 39v127h-131q-21 0 -38 17t-17 38v27q0 23 17.5 39t37.5 16h131v127q0 23 16 39t39 16h26q23 0 39 -16t16 -39v-127h131q21 0 38 -16t17 -39v-27q0 -21 -16.5 -38t-38.5 -17h-131z" />
    <glyph glyph-name="comma" unicode="," horiz-adv-x="372" 
d="M41 -93q4 3 15.5 12t23 21t20.5 25.5t9 25.5h-10q-15 0 -31 5.5t-28.5 16.5t-21 28t-8.5 40q0 21 8 37t21 27.5t29 17.5t31 6q19 0 37.5 -8.5t33 -25.5t23.5 -41.5t9 -56.5q0 -36 -20 -71.5t-45 -63.5t-49 -45.5t-31 -17.5q-17 0 -25.5 12.5t-8.5 25.5q0 8 3.5 15.5
t14.5 14.5z" />
    <glyph glyph-name="hyphen" unicode="-" horiz-adv-x="513" 
d="M347 324q27 0 46.5 -19t19.5 -49q0 -27 -19.5 -46t-46.5 -19h-181q-27 0 -46.5 19t-19.5 49q0 27 19.5 46t46.5 19h181z" />
    <glyph glyph-name="period" unicode="." horiz-adv-x="362" 
d="M181 173q39 0 65 -26.5t26 -65.5q0 -38 -26 -64t-65 -26q-38 0 -64.5 26t-26.5 64q0 39 26.5 65.5t64.5 26.5z" />
    <glyph glyph-name="slash" unicode="/" horiz-adv-x="575" 
d="M392 733q9 19 29 30.5t42 11.5q67 0 67 -67q0 -8 -2 -16.5t-7 -13.5l-339 -648q-9 -17 -27.5 -28.5t-39.5 -11.5q-32 0 -51 17t-19 49q0 8 2.5 16t6.5 15z" />
    <glyph glyph-name="zero" unicode="0" horiz-adv-x="900" 
d="M667 341q0 41 -12.5 78t-38.5 64.5t-67.5 44t-98.5 16.5q-58 0 -99 -16.5t-67.5 -44t-39 -64.5t-12.5 -78t10.5 -78t35.5 -65t67 -44.5t105 -16.5t105 16.5t66.5 44.5t35 65t10.5 78zM80 341q0 76 23.5 141t70 112.5t116 74t160.5 26.5t160 -26.5t115.5 -74t70.5 -112.5
t24 -141q0 -77 -24 -142t-70.5 -112.5t-115.5 -74.5t-160 -27t-160 27t-115.5 74.5t-70.5 112.5t-24 142z" />
    <glyph glyph-name="one" unicode="1" horiz-adv-x="576" 
d="M506 71q0 -29 -21 -50t-50 -21h-264q-14 0 -27 5.5t-22.5 15.5t-15.5 22.5t-6 27.5v11q0 28 21.5 49.5t49.5 21.5h56v373h-56q-14 0 -27 5.5t-22.5 15.5t-15.5 22.5t-6 27.5v11q0 28 21.5 49.5t49.5 21.5h138q29 0 50 -21t21 -50v-455h55q15 0 27.5 -6t22.5 -15.5
t15.5 -22.5t5.5 -27v-11z" />
    <glyph glyph-name="two" unicode="2" horiz-adv-x="774" 
d="M193 434q-16 0 -30 6.5t-24.5 17t-16.5 24t-6 28.5v57q0 28 18.5 48t47 34t63 23t67 14t58 6.5t36.5 1.5q69 0 122.5 -18t90.5 -46.5t56.5 -63t19.5 -68.5q0 -76 -46.5 -129t-145.5 -99q-81 -38 -129 -58.5t-73.5 -32t-33.5 -17t-8 -11.5h299v16q0 32 22.5 54t51.5 22
q16 0 30 -6.5t24.5 -17t16.5 -24t6 -28.5v-90q0 -16 -6.5 -30t-17 -24.5t-24 -16.5t-28.5 -6h-477q-30 0 -53 22t-23 53q0 34 3 64t19.5 59.5t52.5 60t102 66.5l232 105q20 12 37 27t17 37q0 20 -37 34.5t-98 14.5q-29 0 -68.5 -7t-72.5 -18v-8q0 -32 -22.5 -54t-51.5 -22z
" />
    <glyph glyph-name="three" unicode="3" horiz-adv-x="791" 
d="M194 454q-16 0 -30 6.5t-24.5 17t-16.5 24t-6 28.5v57q0 25 15.5 42.5t39.5 29.5t54 19t59.5 10.5t55.5 4.5t42 1q65 0 118 -15t91 -42t59 -63t21 -78q0 -29 -6.5 -49.5t-16 -36t-21.5 -26.5t-24 -19q18 -10 39 -24.5t38 -34.5t28.5 -46.5t11.5 -61.5q0 -44 -17 -83
t-56.5 -68t-104.5 -45.5t-160 -16.5q-90 0 -152 16.5t-99.5 38.5t-54.5 45t-17 37q1 18 8.5 33t18.5 26.5t24.5 18t26.5 6.5q16 0 31 -9q23 -15 43.5 -27t44 -20t53 -12.5t70.5 -4.5q39 0 74 5.5t60.5 15t40.5 22.5t15 28q0 21 -19 37t-48 26t-63.5 15t-65.5 5
q-29 0 -49.5 21.5t-20.5 52.5q0 29 20.5 51.5t49.5 22.5q26 0 52 3.5t47 11t34.5 18t13.5 24.5q0 23 -37 38.5t-101 15.5q-41 0 -68 -7t-47 -15q-2 -30 -24 -50t-50 -20z" />
    <glyph glyph-name="four" unicode="4" horiz-adv-x="829" 
d="M277 307h223v196zM500 156h-378q-13 0 -29 7t-30 21t-23.5 34.5t-9.5 46.5q0 17 8 34t22 26l-2 -2l412 349l-2 -1q8 8 24 13t27 5h56q31 0 53.5 -22t22.5 -54v-306h72q30 0 53 -22.5t23 -53.5q0 -32 -22 -53.5t-54 -21.5h-72v-85q0 -14 -5.5 -27t-15.5 -22.5t-22.5 -15.5
t-27.5 -6h-9q-29 0 -50 21.5t-21 49.5v85z" />
    <glyph glyph-name="five" unicode="5" horiz-adv-x="801" 
d="M726 225q0 -60 -23.5 -105t-67.5 -75t-106.5 -45t-140.5 -15q-59 0 -117 11.5t-103.5 30t-74 43.5t-28.5 52q0 18 7.5 33t18.5 26.5t25 18t27 6.5q16 0 31 -9h-1q24 -15 44.5 -26.5t44 -19t53 -11.5t70.5 -4q31 0 64 4.5t60.5 15.5t45 29.5t17.5 45.5q0 13 -7 27.5
t-25 26.5t-49 19.5t-80 7.5q-40 0 -70.5 -11.5t-54.5 -24.5q-20 -11 -39.5 -18.5t-40.5 -8.5q-32 5 -56.5 28t-32.5 56v275q0 32 22.5 54t52.5 22h429q30 0 53 -23t23 -53q0 -31 -23 -53t-53 -22h-353v-113q13 6 29.5 13t34.5 14t38 11.5t41 4.5q58 0 115 -11.5t101 -39
t71.5 -73.5t27.5 -114z" />
    <glyph glyph-name="six" unicode="6" horiz-adv-x="809" 
d="M582 216q0 11 -3.5 27.5t-19 31.5t-46.5 26t-86 11q-42 0 -75 -11.5t-56 -25.5q-27 -17 -47 -37q2 -8 10.5 -25t28 -34t53.5 -30t88 -13q42 0 71 10t47 23.5t26.5 27t8.5 19.5zM603 505q-32 19 -71 28.5t-90 9.5q-48 0 -85.5 -13.5t-63.5 -34.5t-41 -48t-17 -54l36 22.5
t43 23t49.5 17.5t54.5 7q61 0 118 -11.5t101 -40t70.5 -76t26.5 -119.5q0 -31 -15.5 -71t-51.5 -75.5t-94.5 -60t-144.5 -24.5q-62 0 -124 17.5t-111.5 58.5t-81 107t-31.5 164q0 77 23.5 143t69 115t112 76.5t152.5 27.5q47 0 83.5 -4.5t65.5 -12.5t51.5 -19t41.5 -25
q35 -25 35 -65q0 -28 -11.5 -43t-25.5 -22q-17 -8 -37 -9q-14 0 -26 5q-6 3 -11 6z" />
    <glyph glyph-name="seven" unicode="7" horiz-adv-x="700" 
d="M110 436h-10q-29 0 -49.5 21.5t-20.5 49.5v102q0 29 21.5 49.5t49.5 20.5h499q28 0 49 -20.5t21 -49.5v-6q0 -10 -2 -21t-9 -19q-87 -134 -172.5 -270t-173.5 -269q-11 -14 -26 -24t-35 -10h-12q-27 0 -49 20.5t-22 51.5q0 10 3 20t8 18l275 428h-274v-21q0 -29 -21 -50
t-50 -21z" />
    <glyph glyph-name="eight" unicode="8" horiz-adv-x="837" 
d="M277 494q0 -28 38.5 -43.5t103.5 -15.5q64 0 100.5 18.5t36.5 40.5q0 10 -9.5 20.5t-27 19t-43 14t-57.5 5.5t-58.5 -5.5t-45 -13.5t-28.5 -19t-10 -21zM231 204q0 -18 18.5 -32t46 -24.5t60.5 -16t63 -5.5t62.5 5.5t60.5 16t46 24.5t18 32q0 32 -49 56t-138 24
q-90 0 -139 -24t-49 -56zM126 506q0 56 28.5 92.5t71.5 57.5t94.5 29.5t98.5 8.5q46 0 97 -12t93.5 -36.5t70 -61.5t27.5 -86q0 -28 -6 -49.5t-16 -37t-21.5 -27t-23.5 -20.5q20 -10 40.5 -23.5t37.5 -32.5t28 -45.5t11 -62.5q0 -54 -23 -94t-66.5 -67t-106.5 -40.5
t-142 -13.5t-142 14.5t-106.5 43t-67 69.5t-23.5 94q0 33 10.5 58t27 44t36.5 32t39 24q-12 9 -24 21.5t-21.5 29.5t-15.5 39.5t-6 51.5z" />
    <glyph glyph-name="nine" unicode="9" horiz-adv-x="804" 
d="M222 464q0 -11 3.5 -27.5t19 -31.5t46.5 -26t86 -11q42 0 75 11t56 25q27 16 47 37q-2 8 -10.5 25t-28 34t-53.5 30t-88 13q-44 0 -73.5 -10.5t-47 -24.5t-25 -27t-7.5 -17zM164 186q19 0 38 -11q64 -39 160 -39q48 0 86 13.5t65 34.5t41.5 48t14.5 54q-16 -11 -36 -23
t-43 -22t-49.5 -17t-54.5 -7q-61 0 -118 11.5t-101 40t-70.5 76t-26.5 119.5q0 30 15.5 70t51.5 75.5t94.5 60t144.5 24.5q61 0 123.5 -17.5t112 -58t81 -107t31.5 -164.5q0 -77 -23.5 -143t-69 -114.5t-112 -76.5t-152.5 -28q-47 0 -83 5t-64.5 13.5t-51 19.5t-42.5 24
q-17 11 -26.5 28t-9.5 36q0 28 11.5 43.5t25.5 22.5q16 8 37 9z" />
    <glyph glyph-name="colon" unicode=":" horiz-adv-x="362" 
d="M272 82q0 -39 -26 -65t-64 -26q-39 0 -65.5 26t-26.5 65q0 38 26.5 64.5t65.5 26.5q38 0 64 -26.5t26 -64.5zM272 442q0 -39 -26 -65t-64 -26q-39 0 -65.5 26t-26.5 65q0 38 26.5 64.5t65.5 26.5q38 0 64 -26.5t26 -64.5z" />
    <glyph glyph-name="semicolon" unicode=";" horiz-adv-x="375" 
d="M272 442q0 -38 -26 -64.5t-65 -26.5t-65 26.5t-26 64.5q0 40 26 66t65 26t65 -26.5t26 -65.5zM121 -93q4 3 15.5 12t23 21t20.5 25.5t9 25.5h-10q-15 0 -31 5.5t-28.5 16.5t-21 28t-8.5 40q0 21 8 37t21 27.5t29 17.5t31 6q19 0 37.5 -8.5t33 -25.5t23.5 -41.5t9 -56.5
q0 -36 -20 -71.5t-45 -63.5t-49 -45.5t-31 -17.5q-17 0 -25.5 12.5t-8.5 25.5q0 8 3.5 15.5t14.5 14.5z" />
    <glyph glyph-name="less" unicode="&#x3c;" horiz-adv-x="601" 
d="M129 167q-17 8 -28 24t-11 36v29q0 18 11.5 36t28.5 24q74 32 148.5 65t148.5 65q16 6 28 6q29 0 47.5 -20t18.5 -45q0 -28 -7 -39.5t-17 -16.5l-221 -89l217 -88q14 -3 21 -16.5t7 -40.5q0 -26 -19.5 -46.5t-47.5 -20.5q-11 0 -23 5z" />
    <glyph glyph-name="equal" unicode="=" horiz-adv-x="708" 
d="M166 276q-28 0 -47 19.5t-19 45.5v6q0 12 5 23.5t14 20.5t21 15t26 6h376q29 0 47.5 -21t18.5 -44v-6q0 -26 -19 -45.5t-47 -19.5h-376zM166 81q-28 0 -47 20t-19 45v6q0 24 19 44.5t47 20.5h376q29 0 47.5 -20.5t18.5 -44.5v-6q0 -25 -19 -45t-47 -20h-376z" />
    <glyph glyph-name="greater" unicode="&#x3e;" horiz-adv-x="601" 
d="M170 35q-12 -5 -23 -5q-28 0 -47.5 20.5t-19.5 46.5q0 27 7 40.5t21 16.5l217 88l-221 89q-10 5 -17 16.5t-7 39.5q0 25 18.5 45t47.5 20q11 0 28 -6q74 -32 148.5 -65t148.5 -65q17 -6 28.5 -24t11.5 -36v-29q0 -20 -11 -36t-28 -24z" />
    <glyph glyph-name="question" unicode="?" horiz-adv-x="570" 
d="M265 -9q-20 0 -36.5 7.5t-29.5 20.5t-20 30t-7 36t7 36t20 29.5t29.5 20t36.5 7.5q40 0 66.5 -27t26.5 -66t-27 -66.5t-66 -27.5zM218 637q-2 -29 -21 -50t-46 -21h-4q-28 0 -47.5 21t-19.5 50v84q0 31 20.5 51t49.5 24l40 5t31 2.5t31.5 1t42.5 0.5q53 0 102.5 -10
t88 -34.5t61.5 -66t23 -105.5q0 -31 -9.5 -59.5t-25 -53.5t-36.5 -46.5t-43 -38.5l-98 -74q-8 -7 -11 -16t-3 -21v-10q0 -26 -20 -46t-46 -20h-25q-27 0 -46.5 20t-19.5 46v20q0 49 10.5 75.5t38.5 47.5l103 79q25 20 44 43t19 53q0 24 -15 38t-36.5 21.5t-46.5 9.5t-45 2
h-17.5t-22.5 -1z" />
    <glyph glyph-name="at" unicode="@" horiz-adv-x="1040" 
d="M595 147h-148q-14 0 -25 -8.5t-11 -20.5q0 -14 10 -26t26 -12q20 0 41.5 3.5t42 9.5t38 13t28.5 13zM720 220q0 -38 2.5 -60.5t7.5 -34.5t13.5 -16t19.5 -4q19 0 35.5 18.5t16.5 64.5q0 57 -18 107.5t-54.5 88.5t-92 60t-130.5 22t-129.5 -22t-90 -60t-52.5 -88.5
t-17 -107.5q0 -56 15 -106.5t48.5 -88.5t89 -60t136.5 -22q57 0 92 11.5t54 25.5q20 15 41 15q27 0 49 -20t22 -52q0 -20 -16.5 -40t-49 -36.5t-81.5 -26.5t-115 -10q-102 0 -180 31t-130.5 85.5t-79 129.5t-26.5 164t27 164.5t80 130t131.5 85.5t181.5 31t181.5 -31
t131.5 -85.5t80 -130t27 -164.5q0 -48 -14.5 -87t-39 -66t-56.5 -42t-66 -15q-51 0 -80.5 14t-45.5 31q-18 -12 -41.5 -22.5t-49 -18.5t-51.5 -12.5t-49 -4.5q-45 2 -80 19q-30 14 -54.5 45t-24.5 88q0 70 43.5 108t115.5 38h154q0 10 -7 19t-19 16.5t-27.5 12t-33.5 4.5
q-30 0 -56 -8.5t-43 -16.5q-11 -6 -20.5 -9.5t-18.5 -3.5q-23 0 -40 13t-17 37q0 25 23 42.5t54.5 28.5t64.5 16t53 5q45 0 83 -10t65.5 -33t42.5 -61t15 -95z" />
    <glyph glyph-name="A" unicode="A" horiz-adv-x="967" 
d="M151 152v333q0 37 4.5 75t18 72.5t36.5 65t60 52.5t89.5 35t124.5 13t124.5 -13t89.5 -35t60 -52.5t36.5 -65t18 -72.5t4.5 -75v-333h54q15 0 27.5 -6t22.5 -15.5t15.5 -22.5t5.5 -27v-10q0 -29 -21 -50t-50 -21h-243q-29 0 -50 21t-21 50v10q0 28 21 49.5t50 21.5h38
v143h-364v-143h37q15 0 27.5 -6t22.5 -15.5t15.5 -22.5t5.5 -27v-10q0 -29 -21 -50t-50 -21h-243q-29 0 -50 21t-21 50v10q0 28 21 49.5t50 21.5h55zM666 485q0 35 -8.5 65t-29.5 51.5t-56 33.5t-88 12t-88 -12t-56 -33.5t-29.5 -51.5t-8.5 -65v-39h364v39z" />
    <glyph glyph-name="B" unicode="B" horiz-adv-x="962" 
d="M630 472q42 0 63.5 23.5t21.5 61.5q0 32 -20.5 51.5t-64.5 19.5h-287v-156h287zM630 152q62 0 91 20.5t29 62.5q0 39 -26 61t-94 22h-287v-166h287zM630 781q45 0 87.5 -13.5t75.5 -41t53 -69.5t20 -100q0 -26 -6 -48t-15 -40t-19.5 -32t-19.5 -25q15 -12 32 -29.5
t31.5 -40t23.5 -49.5t9 -58q0 -58 -21 -102t-57.5 -73.5t-86 -44.5t-107.5 -15h-494q-29 0 -50 21t-21 50v10q0 28 21 49.5t50 21.5h55v477h-55q-29 0 -50 21t-21 50v10q0 28 21 49.5t50 21.5h494z" />
    <glyph glyph-name="C" unicode="C" horiz-adv-x="885" 
d="M814 535q0 -29 -19.5 -50t-47.5 -21h-9q-27 0 -47 21t-20 50v36q-12 9 -32 21t-47 22t-60.5 17t-71.5 7q-47 0 -92.5 -16.5t-81.5 -49t-58 -80.5t-22 -110q0 -45 18 -89t53 -79t87.5 -56.5t121.5 -21.5q36 0 70 7t62 18t49 24t32 26q21 21 51 21q28 0 43.5 -11.5
t22.5 -25.5q8 -17 9 -37q0 -15 -5.5 -29.5t-18.5 -25.5q-28 -30 -66 -52t-82.5 -37t-93.5 -22t-98 -7q-79 0 -152 28.5t-129.5 81t-90.5 125.5t-34 162q0 85 31 159.5t85 129.5t128 87t160 32q62 0 116.5 -15t98.5 -36q6 22 23.5 36.5t40.5 14.5h9q28 0 47.5 -21t19.5 -50
v-184z" />
    <glyph glyph-name="D" unicode="D" horiz-adv-x="984" 
d="M343 628v-476h206q61 0 104 23t70.5 58t40.5 76.5t13 78.5q0 53 -17 97t-47.5 76t-72.5 49.5t-91 17.5h-206zM136 0q-29 0 -50 21t-21 50v10q0 28 21 49.5t50 21.5h55v477h-55q-29 0 -50 21t-21 50v10q0 28 21 49.5t50 21.5h413q102 0 174 -36.5t117.5 -93.5t67 -126.5
t21.5 -135.5q0 -81 -28.5 -152t-79 -123.5t-120 -83t-152.5 -30.5h-413z" />
    <glyph glyph-name="E" unicode="E" horiz-adv-x="806" 
d="M575 159q0 29 21 50t50 21h9q29 0 50 -21t21 -50v-84q-2 -29 -23.5 -52t-52.5 -23h-330q-46 0 -88.5 15t-75 44t-52 72t-19.5 100q0 26 7 49.5t18 43.5t24.5 36.5t25.5 29.5q-12 13 -25.5 30t-24.5 37t-18 43.5t-7 49.5q0 57 19.5 100t52 72.5t75 44.5t88.5 15h330
q31 0 52.5 -23t23.5 -52v-84q0 -29 -21 -50t-50 -21h-9q-29 0 -50 21t-21 50v6h-255q-21 0 -36.5 -7.5t-26 -18.5t-16 -25.5t-5.5 -27.5t5.5 -27.5t16 -26.5t26 -20t36.5 -8h272q20 0 35 -6.5t25.5 -17.5t16 -25t5.5 -29q0 -29 -21 -52.5t-61 -23.5h-272q-21 0 -36.5 -8
t-26 -20t-16 -27t-5.5 -28t5.5 -27t16 -25.5t26 -19t36.5 -7.5h255v7z" />
    <glyph glyph-name="F" unicode="F" horiz-adv-x="781" 
d="M80 552q0 57 19.5 100.5t52 73t75 44.5t88.5 15h330q31 0 52.5 -23t23.5 -52v-84q0 -29 -21 -50t-50 -21h-9q-29 0 -50 21t-21 50v7h-255q-21 0 -36.5 -7.5t-26 -19.5t-16 -26.5t-5.5 -27.5q0 -14 5.5 -28.5t16 -26.5t26 -20t36.5 -8h240q41 0 61.5 -24t20.5 -53
t-20.5 -53t-61.5 -24h-197v-163h56q15 0 27.5 -6t22.5 -15.5t15.5 -22.5t5.5 -27v-10q0 -29 -21 -50t-50 -21h-262q-29 0 -50 21t-21 50v10q0 28 21 49.5t50 21.5h55v187q-55 27 -91 81t-36 132z" />
    <glyph glyph-name="G" unicode="G" horiz-adv-x="943" 
d="M834 227q0 -55 -27 -99.5t-74.5 -76t-111.5 -49t-137 -17.5q-85 0 -161 30.5t-133.5 84.5t-91 127.5t-33.5 158.5t31 159.5t85 129.5t128 87t160 32q62 0 116.5 -15t98.5 -36q6 22 23.5 36.5t40.5 14.5h9q28 0 47.5 -21t19.5 -50v-164q0 -29 -19.5 -50t-47.5 -21h-9
q-27 0 -47 21t-20 50v16q-12 9 -32 21t-47 22t-60.5 17t-71.5 7q-47 0 -92.5 -16.5t-81.5 -49t-58 -80.5t-22 -110q0 -49 18.5 -94.5t54 -80t86 -55t114.5 -20.5q42 0 77.5 8t61 21.5t40 31t14.5 36.5v60h-153q-15 0 -29 6t-24.5 16.5t-16.5 24.5t-6 29q0 30 23 52.5
t53 22.5h323q30 0 53 -22.5t23 -52.5q0 -15 -6.5 -29t-17 -24.5t-24 -16.5t-28.5 -6h-18v-66z" />
    <glyph glyph-name="H" unicode="H" horiz-adv-x="1076" 
d="M475 71q0 -29 -21 -50t-50 -21h-263q-29 0 -50 21t-21 50v10q0 28 21 49.5t50 21.5h55v477h-55q-29 0 -50 21t-21 50v10q0 28 21 49.5t50 21.5h263q15 0 27.5 -6t22.5 -15.5t15.5 -22.5t5.5 -27v-10q0 -29 -21 -50t-50 -21h-56v-149h379v149h-55q-29 0 -50 21t-21 50v10
q0 28 21 49.5t50 21.5h263q15 0 27.5 -6t22.5 -15.5t15.5 -22.5t5.5 -27v-10q0 -29 -21 -50t-50 -21h-56v-477h56q15 0 27.5 -6t22.5 -15.5t15.5 -22.5t5.5 -27v-10q0 -29 -21 -50t-50 -21h-263q-29 0 -50 21t-21 50v10q0 28 21 49.5t50 21.5h55v177h-379v-177h56
q15 0 27.5 -6t22.5 -15.5t15.5 -22.5t5.5 -27v-10z" />
    <glyph glyph-name="I" unicode="I" horiz-adv-x="565" 
d="M206 152v477h-55q-29 0 -50 21t-21 50v10q0 28 21 49.5t50 21.5h263q15 0 27.5 -6t22.5 -15.5t15.5 -22.5t5.5 -27v-10q0 -29 -21 -50t-50 -21h-56v-477h56q15 0 27.5 -6t22.5 -15.5t15.5 -22.5t5.5 -27v-10q0 -29 -21 -50t-50 -21h-263q-29 0 -50 21t-21 50v10
q0 28 21 49.5t50 21.5h55z" />
    <glyph glyph-name="J" unicode="J" horiz-adv-x="755" 
d="M584 781q32 0 51.5 -19.5t19.5 -51.5v-400q0 -85 -25.5 -146.5t-69.5 -101t-105 -58.5t-131 -19q-72 0 -124 14.5t-88 38.5t-59 54.5t-36 61.5l1 -1q-8 18 -8 35q0 30 22 53t54 23q21 0 37 -12.5t34 -35.5q7 -11 21 -24.5t33.5 -26t46 -21t59.5 -8.5q91 0 139 41.5
t48 132.5v318h-131q-15 0 -29 6.5t-24.5 17t-16.5 24.5t-6 29t6 28.5t16.5 24t24.5 17t29 6.5h211z" />
    <glyph glyph-name="K" unicode="K" horiz-adv-x="940" 
d="M743 627l-127 -133q28 -49 52 -90.5t47 -81t47 -80.5t51 -90h56q29 0 50 -21.5t21 -49.5v-10q0 -29 -21 -50t-50 -21h-99q-20 0 -39 11t-29 28l-193 341q-41 -43 -80 -84.5t-81 -86.5v-138q0 -32 -22 -51.5t-49 -19.5h-136q-29 0 -50 21t-21 50v10q0 28 21 49.5t50 21.5
h55v477h-55q-29 0 -50 21t-21 50v10q0 28 21 49.5t50 21.5h136q27 0 49 -19.5t22 -51.5v-283q76 82 152 164.5t153 163.5q10 10 25 17t30 7h125q29 0 50 -21.5t21 -49.5v-10q0 -29 -21 -50t-50 -21h-90z" />
    <glyph glyph-name="L" unicode="L" horiz-adv-x="817" 
d="M636 209q0 15 6 27.5t15.5 22.5t22.5 15.5t27 5.5h9q30 0 50.5 -21t20.5 -50v-134q0 -15 -6.5 -28.5t-17 -24t-24.5 -16.5t-29 -6h-556q-29 0 -50 21t-21 50v10q0 28 21 49.5t50 21.5h40v477h-53q-29 0 -50 21t-21 50v10q0 28 21 49.5t50 21.5h263q15 0 27.5 -6
t22.5 -15.5t15.5 -22.5t5.5 -27v-10q0 -29 -21 -50t-50 -21h-59v-478h291v58z" />
    <glyph glyph-name="M" unicode="M" horiz-adv-x="1144" 
d="M1003 778q29 0 50 -21.5t21 -49.5v-10q0 -29 -21 -50t-50 -21h-55v-474h55q29 0 50 -21.5t21 -49.5v-10q0 -29 -21 -50t-50 -21h-130q-32 0 -54 21.5t-22 53.5v366q-41 -72 -80 -142t-78 -142q-10 -17 -28 -27.5t-39 -10.5t-38.5 10.5t-28.5 28.5l-158 284v-367
q0 -30 -22.5 -52.5t-53.5 -22.5h-130q-29 0 -50 21t-21 50v10q0 28 21 49.5t50 21.5h55v474h-55q-29 0 -50 21t-21 50v10q0 28 21 49.5t50 21.5h151q20 0 38 -11t29 -29q52 -95 105.5 -193t107.5 -197l213 390q10 18 28 29t38 11h152z" />
    <glyph glyph-name="N" unicode="N" horiz-adv-x="1076" 
d="M197 627h-56q-29 0 -50 21t-21 50v10q0 28 21 49.5t50 21.5h159q17 0 33 -8t27 -22q48 -61 94.5 -120.5l93 -119t93 -120t96.5 -123.5v363h-55q-29 0 -50 21t-21 50v10q0 28 21 49.5t50 21.5h263q15 0 27.5 -6t22.5 -15.5t15.5 -22.5t5.5 -27v-10q0 -29 -21 -50t-50 -21
h-57v-563q0 -30 -22 -52.5t-54 -22.5h-18q-37 0 -60 29q-51 65 -98 124.5t-93.5 118.5t-94 119.5t-99.5 126.5v-357h57q15 0 27.5 -6t22.5 -15.5t15.5 -22.5t5.5 -27v-10q0 -29 -21 -50t-50 -21h-263q-29 0 -50 21t-21 50v10q0 28 21 49.5t50 21.5h55z" />
    <glyph glyph-name="O" unicode="O" 
d="M468 644q-57 0 -104.5 -20.5t-82.5 -55t-54.5 -80.5t-19.5 -98q0 -51 19.5 -97.5t54.5 -81t82.5 -55t104.5 -20.5t104.5 20.5t82.5 55t54.5 81t19.5 97.5q0 52 -19.5 98t-54.5 80.5t-82.5 55t-104.5 20.5zM468 796q82 0 157 -29.5t132 -82.5t90.5 -128t33.5 -166
q0 -90 -33.5 -165t-90.5 -128t-132 -82.5t-157 -29.5q-83 0 -157.5 29t-131.5 82.5t-90.5 128t-33.5 165.5t33.5 166t90.5 128t131.5 82.5t157.5 29.5z" />
    <glyph glyph-name="P" unicode="P" horiz-adv-x="915" 
d="M348 628v-184h292q27 0 43.5 8t25.5 21.5t12 29.5t3 33q0 16 -3 32.5t-12 30t-25.5 21.5t-43.5 8h-292zM348 152h56q15 0 27.5 -6t22.5 -15.5t15.5 -22.5t5.5 -27v-10q0 -29 -21 -50t-50 -21h-263q-29 0 -50 21t-21 50v10q0 28 21 49.5t50 21.5h55v477h-55q-29 0 -50 21
t-21 50v10q0 28 21 49.5t50 21.5h499q54 0 97.5 -17t74 -49t47 -77.5t16.5 -101.5t-16.5 -101t-47 -76.5t-74 -48.5t-97.5 -17h-292v-141z" />
    <glyph glyph-name="Q" unicode="Q" 
d="M409 207q-3 10 -3 19q0 15 6 29t16 25.5t23.5 18.5t29.5 7q26 0 45.5 -15t27.5 -37l33 -93q63 32 102.5 93.5t39.5 135.5q0 52 -19.5 98t-54.5 80.5t-82.5 55t-104.5 20.5t-104.5 -20.5t-82.5 -55t-54.5 -80.5t-19.5 -98q0 -46 17.5 -88.5t48 -76t71.5 -57t89 -30.5z
M468 796q82 0 157 -29.5t132 -82.5t90.5 -128t33.5 -166q0 -64 -19 -121.5t-51.5 -105.5t-76.5 -84.5t-95 -59.5q3 -8 7.5 -19t6.5 -17l-1 1q5 -13 5 -25q0 -33 -23 -56t-53 -23q-19 0 -32.5 7.5t-22.5 17.5q-11 11 -17 26l-20 54h-21q-83 0 -157.5 29t-131.5 82.5
t-90.5 128t-33.5 165.5t33.5 166t90.5 128t131.5 82.5t157.5 29.5z" />
    <glyph glyph-name="R" unicode="R" horiz-adv-x="991" 
d="M348 628v-184h296q48 0 73.5 25t25.5 67q0 24 -8.5 41.5t-23 29t-32 16.5t-35.5 5h-296zM702 39q-17 35 -32.5 66t-31 61t-31 61t-32.5 66h-227v-141h56q15 0 27.5 -6t22.5 -15.5t15.5 -22.5t5.5 -27v-10q0 -29 -21 -50t-50 -21h-263q-29 0 -50 21t-21 50v10
q0 28 21 49.5t50 21.5h55v477h-55q-29 0 -50 21t-21 50v10q0 28 21 49.5t50 21.5l503 -1q48 0 93 -15t80.5 -45t56.5 -76t21 -108q0 -56 -15 -97t-37.5 -69t-50.5 -44.5t-53 -22.5l74 -151h62q29 0 50 -21.5t21 -49.5v-10q0 -29 -21 -50t-50 -21h-105q-20 0 -39 11t-29 28z
" />
    <glyph glyph-name="S" unicode="S" horiz-adv-x="857" 
d="M438 133q33 0 69.5 5.5t67 18t51 31.5t20.5 46q0 36 -20.5 55.5t-51 28.5t-66.5 10.5t-67 1.5h-108q-41 0 -83.5 12t-77 37t-56.5 64.5t-22 95.5q0 64 31.5 112t80.5 79.5t107.5 47t112.5 15.5q51 0 97.5 -7.5t84.5 -21.5q19 26 51 26h9q28 0 47.5 -21t19.5 -50v-124
q0 -29 -19.5 -50t-47.5 -21h-9q-27 0 -47 21t-20 50v6q-18 10 -34 17.5t-34.5 13t-41.5 8t-54 2.5q-30 0 -62.5 -6.5t-59 -19t-44 -32t-17.5 -45.5q0 -59 101 -59h96q69 0 133 -10.5t113.5 -38.5t79 -75.5t29.5 -122.5q0 -63 -30 -110t-80.5 -78.5t-117 -47t-139.5 -15.5
q-72 0 -129.5 14.5t-100.5 34.5q-8 -17 -24 -27.5t-35 -10.5h-9q-28 0 -47.5 21t-19.5 50v124q0 29 19.5 50t47.5 21h9q26 0 46 -21t21 -49q34 -31 88 -43.5t142 -12.5z" />
    <glyph glyph-name="T" unicode="T" horiz-adv-x="801" 
d="M600 628h-124v-476h57q15 0 27.5 -6t22.5 -15.5t15.5 -22.5t5.5 -27v-10q0 -29 -21 -50t-50 -21h-263q-29 0 -50 21t-21 50v10q0 28 21 49.5t50 21.5h54v476h-123v-54q0 -29 -21 -50t-50 -21h-9q-29 0 -50 21t-21 50v129q0 15 6 29t16.5 24.5t24.5 17t29 6.5h549
q15 0 28.5 -6.5t24 -17t17 -24.5t6.5 -29v-129q0 -29 -21 -50t-50 -21h-9q-29 0 -50 21t-21 50v54z" />
    <glyph glyph-name="U" unicode="U" horiz-adv-x="1036" 
d="M328 629v-333q0 -35 8.5 -65t30.5 -52t58.5 -34t93.5 -12t93.5 12t58.5 34t30.5 52t8.5 65v333h-58q-29 0 -50 21t-21 50v10q0 28 21 49.5t50 21.5h263q15 0 27.5 -6t22.5 -15.5t15.5 -22.5t5.5 -27v-10q0 -29 -21 -50t-50 -21h-53v-333q0 -56 -13 -112t-50.5 -101
t-104.5 -73t-175 -28t-175 28t-104.5 73t-50.5 101t-13 112v333h-55q-29 0 -50 21t-21 50v10q0 28 21 49.5t50 21.5h263q15 0 27.5 -6t22.5 -16t15.5 -23t5.5 -27v-9q0 -29 -21 -50t-50 -21h-56z" />
    <glyph glyph-name="V" unicode="V" horiz-adv-x="954" 
d="M475 194q48 109 95.5 217.5t95.5 217.5h-26q-29 0 -50 21t-21 50v10q0 28 21 49.5t50 21.5h243q15 0 27.5 -6t22.5 -15.5t15.5 -22.5t5.5 -27v-10q0 -29 -21 -50t-50 -21h-50l-261 -591q-8 -18 -27 -31.5t-42 -13.5h-57q-23 0 -42.5 14t-27.5 32l-256 590h-49
q-29 0 -50 21t-21 50v10q0 28 21 49.5t50 21.5h243q15 0 27.5 -6t22.5 -16t15.5 -23t5.5 -27v-9q0 -29 -21 -50t-50 -21h-29z" />
    <glyph glyph-name="W" unicode="W" horiz-adv-x="1207" 
d="M314 629h-20l101 -335q29 107 58.5 216t58.5 215q7 24 27 39.5t46 15.5h20q25 0 46 -15.5t28 -39.5l121 -435l100 339h-7q-29 0 -50 21t-21 50v10q0 28 21 49.5t50 21.5h233q15 0 27.5 -6t22.5 -15.5t15.5 -22.5t5.5 -27v-10q0 -29 -21 -50t-50 -21h-67
q-43 -144 -86.5 -289.5t-86.5 -288.5q-8 -26 -27 -40.5t-45 -14.5h-29q-27 0 -47 17t-26 38q-17 57 -31 104.5t-28 93.5t-28 94t-31 107l-106 -398v1q-8 -26 -29 -41.5t-45 -15.5h-34q-26 0 -45.5 14.5t-27.5 40.5l-172 578h-54q-29 0 -50 21t-21 50v10q0 28 21 49.5
t50 21.5h233q15 0 27.5 -6t22.5 -16t15.5 -23t5.5 -27v-9q0 -29 -21 -50t-50 -21z" />
    <glyph glyph-name="X" unicode="X" horiz-adv-x="943" 
d="M793 782q28 0 48.5 -21.5t20.5 -48.5v-10q0 -29 -21 -50t-50 -21h-67l-159 -214q51 -67 99.5 -133t98.5 -132h79q29 0 50 -21t21 -50v-9q0 -14 -5.5 -27t-15.5 -23t-22.5 -16t-27.5 -6h-253q-29 0 -50 21.5t-21 49.5v10q0 26 16 45t40 24q-25 34 -50 67.5t-54 71.5
l-104 -138q25 -5 42 -24.5t17 -45.5v-9q0 -14 -5.5 -27t-15.5 -23t-22.5 -16t-27.5 -6h-253q-29 0 -50 21.5t-21 49.5v10q0 29 21 50t50 21h73l203 266l-153 211h-67q-29 0 -50 21t-21 50v10q0 27 20.5 49t48.5 22h224q15 0 27.5 -6t22.5 -16t15.5 -23t5.5 -27v-9
q0 -29 -13.5 -50t-27.5 -21l63 -86l64 86q-14 0 -27.5 21t-13.5 50v10q0 28 21 49.5t50 21.5z" />
    <glyph glyph-name="Y" unicode="Y" horiz-adv-x="855" 
d="M501 152h56q15 0 27.5 -6t22.5 -15.5t15.5 -22.5t5.5 -27v-10q0 -29 -21 -50t-50 -21h-263q-29 0 -50 21t-21 50v10q0 28 21 49.5t50 21.5h56v180l-212 297h-57q-29 0 -50 21t-21 50v10q0 28 21 49.5t50 21.5h243q15 0 27.5 -6t22.5 -16t15.5 -23t5.5 -27v-9
q0 -29 -21 -50t-50 -21h-2l105 -147l104 147q-29 0 -50 21t-21 50v10q0 28 21 49.5t50 21.5h243q15 0 27.5 -6t22.5 -15.5t15.5 -22.5t5.5 -27v-10q0 -29 -21 -50t-50 -21h-56l-217 -299v-178z" />
    <glyph glyph-name="Z" unicode="Z" horiz-adv-x="843" 
d="M622 190q0 29 21 50t50 21h9q29 0 50 -21t21 -50v-114q-2 -29 -23.5 -52t-52.5 -23h-550q-15 0 -28.5 6t-24.5 16t-17.5 24t-6.5 29q0 14 5.5 27t13.5 24l427 500h-253v-44q0 -29 -21 -50t-50 -21h-9q-29 0 -50 21t-21 50v122q2 29 23.5 52t52.5 23h483q15 0 29 -6.5
t24.5 -17t17 -24t6.5 -28.5q0 -28 -18 -49l-428 -503h320v38z" />
    <glyph glyph-name="bracketleft" unicode="[" horiz-adv-x="414" 
d="M196 -9q-15 0 -28.5 6t-24 16.5t-17 24t-6.5 29.5v634q0 32 22 54.5t54 22.5h94q23 0 36 -15t13 -35v-20q0 -19 -13 -34t-36 -15h-28v-551h28q23 0 36 -15t13 -34v-19q0 -19 -13 -34t-36 -15h-94z" />
    <glyph glyph-name="backslash" unicode="\" horiz-adv-x="582" 
d="M513 87q3 -5 6 -14t3 -17q0 -32 -19 -49t-51 -17q-21 0 -39.5 11.5t-27.5 28.5l-345 650q-10 15 -10 32q0 67 67 67q21 0 41 -12.5t30 -29.5z" />
    <glyph glyph-name="bracketright" unicode="]" horiz-adv-x="414" 
d="M124 -9q-23 0 -36 15t-13 34v19q0 19 13 34t36 15h28v551h-28q-23 0 -36 15t-13 34v20q0 20 13 35t36 15h94q32 0 54 -22.5t22 -54.5v-634q0 -16 -6.5 -29.5t-17 -24t-24 -16.5t-28.5 -6h-94z" />
    <glyph glyph-name="asciicircum" unicode="^" horiz-adv-x="518" 
d="M399 403q-17 0 -31 9.5t-22 23.5l-95 171l-97 -175q-9 -12 -22 -20.5t-30 -8.5h-11q-23 0 -41.5 18t-18.5 42q0 8 2 17t7 16l136 231q8 13 23 21.5t30 8.5h43q15 0 30 -9t23 -23q34 -57 68.5 -114.5t69.5 -115.5q7 -13 7 -31q0 -24 -18 -42.5t-41 -18.5h-12z" />
    <glyph glyph-name="underscore" unicode="_" horiz-adv-x="528" 
d="M76 -156q-28 0 -47 19.5t-19 45.5v6q0 12 5 23.5t14 20.5t21 15t26 6h376q27 0 46.5 -19t19.5 -46v-6q0 -27 -19.5 -46t-46.5 -19h-376z" />
    <glyph glyph-name="grave" unicode="`" horiz-adv-x="274" 
d="M64 691q-6 8 -10 18.5t-4 21.5q0 26 20 46t46 20q15 0 31 -9.5t24 -21.5q18 -31 28.5 -50t15.5 -30.5t6.5 -17.5t1.5 -10q0 -13 -5.5 -25t-13.5 -21t-18.5 -14.5t-19.5 -5.5q-13 0 -22.5 4t-16.5 9q-8 5 -13 13z" />
    <glyph glyph-name="a" unicode="a" horiz-adv-x="795" 
d="M484 191q5 9 5 19q0 5 -1 8l-2 6l-2 6h-214q-20 0 -38.5 -12.5t-18.5 -35.5t17 -38.5t40 -15.5q69 0 117.5 17t96.5 46zM491 51q-20 -11 -45.5 -23t-54 -21.5t-59.5 -15.5t-62 -6q-45 0 -82.5 14.5t-65 40t-42.5 61.5t-15 79t15 75.5t42.5 54.5t65 32.5t82.5 10.5h215
q0 16 -11 29.5t-29 23.5t-40.5 15t-45.5 5q-40 0 -73 -11t-56 -22q-15 -8 -27.5 -12t-24.5 -4q-30 0 -53 16.5t-23 48.5q0 22 14 39.5t36.5 31t51 23.5t57 16t54.5 9t44 3q60 0 110 -13t86 -44t56 -81.5t20 -125.5v-153h63q30 0 45.5 -20.5t15.5 -49.5v-6q0 -29 -16 -50
t-45 -21h-139q-22 0 -39 16t-25 35z" />
    <glyph glyph-name="b" unicode="b" horiz-adv-x="836" 
d="M474 128q41 0 71.5 12t50.5 32.5t29.5 47t9.5 55.5q0 30 -9.5 57t-29.5 47t-50 32t-72 12q-50 0 -86.5 -21.5t-56.5 -56.5q-8 -12 -11 -30t-3 -38q0 -24 4 -44t10 -28q20 -33 57.5 -55t85.5 -22zM325 42q-8 -19 -25.5 -30.5t-39.5 -11.5h-139q-29 0 -45 21t-16 50v6
q0 29 15.5 49.5t45.5 20.5h63v487h-63q-30 0 -45.5 20.5t-15.5 49.5v6q0 29 16 50t45 21h139q29 0 50 -21t21 -50v-184q65 40 143 40q80 0 139 -24t97.5 -64t57 -92.5t18.5 -110.5q0 -57 -19 -109.5t-57.5 -92.5t-97 -64t-138.5 -24q-42 0 -83 18t-66 39z" />
    <glyph glyph-name="c" unicode="c" horiz-adv-x="701" 
d="M560 554q29 0 50 -21t21 -50v-101q0 -29 -21 -50t-50 -21h-8q-29 0 -50 20.5t-21 50.5v9q-24 13 -53.5 22.5t-64.5 9.5q-45 0 -75.5 -13.5t-49.5 -35t-27.5 -48.5t-8.5 -53q0 -24 8 -50t27 -47.5t49.5 -35t74.5 -13.5q47 0 91.5 16t71.5 32q7 4 18 8t19 4q31 0 53 -19.5
t22 -51.5q0 -23 -15.5 -42t-40.5 -33.5t-56 -25t-61.5 -17.5t-58 -10t-44.5 -3q-65 0 -121.5 18.5t-98.5 55.5t-66 91t-24 125q0 73 24.5 127.5t67 91t99 54.5t119.5 18q27 0 67 -7t80 -21q19 16 45 16h8z" />
    <glyph glyph-name="d" unicode="d" horiz-adv-x="821" 
d="M367 128q48 0 85.5 22t57.5 55q6 8 10 28t4 44q0 20 -3 38t-11 30q-20 35 -56.5 56.5t-86.5 21.5q-42 0 -72 -12t-50 -32t-29.5 -47t-9.5 -57q0 -29 9.5 -55.5t29.5 -47t50.5 -32.5t71.5 -12zM657 147h63q30 0 45.5 -20.5t15.5 -49.5v-6q0 -29 -16 -50t-45 -21h-139
q-22 0 -39.5 11.5t-25.5 30.5q-25 -21 -66 -39t-83 -18q-80 0 -138.5 24t-97 64t-57.5 92.5t-19 109.5q0 58 18.5 110.5t57 92.5t97.5 64t139 24q78 0 143 -40v108h-63q-30 0 -45.5 20.5t-15.5 49.5v6q0 29 16 50t45 21h139q29 0 50 -21t21 -50v-563z" />
    <glyph glyph-name="e" unicode="e" horiz-adv-x="711" 
d="M502 338q0 23 -11 41t-29 30t-42 18t-49 6q-26 0 -50.5 -7.5t-44.5 -20t-34.5 -30t-20.5 -37.5h281zM370 120q46 0 91 15t73 31q7 4 18 8t19 4q31 0 53 -19.5t22 -51.5q0 -24 -15.5 -42t-40.5 -31.5t-56 -23t-62 -15t-58 -8t-45 -2.5q-64 0 -120.5 18.5t-98.5 55.5
t-66 91t-24 125t24 125.5t66 91t98.5 55.5t120.5 19q62 0 113 -17t87.5 -49t56.5 -77.5t20 -103.5q0 -26 -10 -45.5t-27 -32t-40 -18.5t-49 -6h-299q3 -18 15.5 -35.5t33 -31t46 -22t54.5 -8.5z" />
    <glyph glyph-name="f" unicode="f" horiz-adv-x="594" 
d="M447 0h-311q-29 0 -50 21.5t-21 49.5v6q0 29 21 50t50 21h69v238h-69q-29 0 -50 21.5t-21 49.5v6q0 29 21 50t50 21h69q2 73 28 122.5t66 79t88.5 42t94.5 12.5h37q32 0 53.5 -22.5t21.5 -50.5q0 -16 -6 -29t-16.5 -22.5t-24 -15.5t-28.5 -7h-37q-30 0 -54 -8t-41 -21
t-26 -29t-9 -31v-20h95q29 0 50 -21t21 -50v-6q0 -14 -5.5 -27t-15.5 -22.5t-22.5 -15.5t-27.5 -6h-95v-238h95q29 0 50 -21t21 -50v-6q0 -14 -5.5 -27t-15.5 -22.5t-22.5 -15.5t-27.5 -6z" />
    <glyph glyph-name="g" unicode="g" horiz-adv-x="825" 
d="M373 423q-42 0 -72 -11t-50 -30t-29.5 -43t-9.5 -50t9.5 -49.5t29.5 -42.5t50.5 -30t71.5 -11q43 0 81 19t59 50q2 7 4 17q2 8 3.5 19.5t1.5 25.5t-2 30t-7 33q-18 32 -52.5 52.5t-87.5 20.5zM521 514q9 17 26 28.5t38 11.5h139q29 0 45 -21t16 -50v-6q0 -29 -15.5 -49.5
t-45.5 -20.5h-63v-394q0 -48 -18.5 -92.5t-56 -78.5t-93.5 -54.5t-131 -20.5q-66 0 -115.5 16t-82.5 38.5t-49.5 47.5t-16.5 44q0 29 20.5 51.5t52.5 22.5q19 0 33.5 -8t26.5 -22q22 -23 52 -32.5t83 -9.5q31 0 57.5 6.5t46.5 19t31.5 30t11.5 39.5v39q-31 -17 -64.5 -26.5
t-75.5 -9.5q-80 0 -139 21.5t-97.5 59t-57.5 88t-19 107.5q0 58 19 108.5t57.5 88t97.5 59t139 21.5q21 0 42 -5t40.5 -12.5t36.5 -16.5t29 -18z" />
    <glyph glyph-name="h" unicode="h" horiz-adv-x="905" 
d="M568 319q0 18 -5.5 34t-19 28.5t-36 19.5t-56.5 7q-22 0 -43 -9t-37.5 -23.5t-26.5 -32t-10 -33.5v-163h46q30 0 45.5 -20.5t15.5 -49.5v-6q0 -29 -16 -50t-45 -21h-259q-29 0 -45 21t-16 50v6q0 29 15.5 49.5t45.5 20.5h64v487h-63q-30 0 -45.5 20.5t-15.5 49.5v6
q0 29 16 50t45 21h139q29 0 50 -21t21 -50v-196q26 21 54 31t66 10q72 0 122 -18t81.5 -50t46 -75t14.5 -93v-170h78q29 0 50 -21t21 -50v-6q0 -14 -5.5 -27t-15.5 -22.5t-22.5 -15.5t-27.5 -6h-155q-30 0 -50.5 20.5t-20.5 50.5v247z" />
    <glyph glyph-name="i" unicode="i" horiz-adv-x="556" 
d="M215 405h-69q-29 0 -50 21.5t-21 49.5v6q0 29 21 50t50 21h148q29 0 50 -21t21 -50v-333h70q29 0 50 -21t21 -50v-6q0 -14 -5.5 -27t-15.5 -22.5t-22.5 -15.5t-27.5 -6h-289q-29 0 -50 21.5t-21 49.5v6q0 29 21 50t50 21h69v256zM376 680q0 -37 -25.5 -62t-60.5 -25
q-37 0 -61.5 26t-24.5 61t24.5 60.5t61.5 25.5t61.5 -25t24.5 -61z" />
    <glyph glyph-name="j" unicode="j" horiz-adv-x="499" 
d="M361 680q0 -37 -25.5 -62t-60.5 -25q-18 0 -33.5 7t-27.5 19t-18.5 28t-6.5 33t6.5 32.5t18.5 27.5t27.5 19t33.5 7q37 0 61.5 -25t24.5 -61zM-67 -25q18 12 41 12q18 0 34.5 -8t27.5 -25v1q14 -21 41.5 -30.5t53.5 -9.5q48 0 74 21t26 58v408h-57q-31 0 -53.5 21.5
t-22.5 52.5t22.5 52.5t53.5 21.5h134q29 0 50 -21t21 -50v-485q0 -41 -14 -81.5t-44 -73t-78 -52.5t-116 -20q-51 0 -87.5 10.5t-62 26t-40.5 34t-23.5 34.5t-11 27.5t-2.5 13.5q0 18 8 34.5t25 27.5z" />
    <glyph glyph-name="k" unicode="k" horiz-adv-x="845" 
d="M582 401l-57 -58l126 -194h78q29 0 50 -21t21 -50v-6q0 -14 -5.5 -27t-15.5 -22.5t-22.5 -15.5t-27.5 -6h-123q-16 0 -31 5.5t-23 16.5l-139 218l-81 -74v-96q0 -14 -6 -27t-15.5 -23t-22.5 -15.5t-28 -5.5h-139q-29 0 -45 21t-16 50v6q0 29 15.5 49.5t45.5 20.5h63v487
h-63q-30 0 -45.5 20.5t-15.5 49.5v6q0 29 16 50t45 21h140q28 0 49.5 -19.5t21.5 -51.5v-350l190 178q8 5 15.5 8t19.5 3h152q29 0 50 -21t21 -50v-6q0 -14 -5.5 -27t-15.5 -22.5t-22.5 -15.5t-27.5 -6h-127z" />
    <glyph glyph-name="l" unicode="l" horiz-adv-x="446" 
d="M144 634h-58q-30 0 -45.5 20.5t-15.5 49.5v6q0 29 16 50t45 21h139q29 0 50 -21t21 -50v-423q0 -48 11.5 -79t25.5 -50q17 -22 38 -34q15 -9 25 -24.5t10 -38.5q0 -18 -7.5 -31t-19.5 -21.5t-26.5 -13t-29.5 -4.5q-22 0 -52.5 18t-58.5 55t-48 93.5t-20 133.5v343z" />
    <glyph glyph-name="m" unicode="m" horiz-adv-x="1233" 
d="M896 71v257q0 14 -3 29.5t-12 29t-27 22t-48 8.5q-23 0 -42.5 -7.5t-34.5 -20.5t-23.5 -31t-8.5 -38v-172h59q29 0 50 -21t21 -50v-6q0 -14 -5.5 -27t-15.5 -22.5t-22.5 -15.5t-27.5 -6h-136q-29 0 -50 20.5t-21 50.5v265q0 14 -4 28.5t-15 26.5t-30 20t-49 8
q-23 0 -43 -8t-35 -21.5t-23.5 -32t-8.5 -38.5v-171h80q29 0 50 -21t21 -50v-6q0 -14 -5.5 -27t-15.5 -22.5t-22.5 -15.5t-27.5 -6h-280q-29 0 -50 21.5t-21 49.5v6q0 29 21 50t50 21h53v259h-62q-30 0 -45.5 20.5t-15.5 49.5v6q0 29 16 50t45 21h139q21 0 41 -13.5
t22 -30.5q23 21 54.5 37.5t63.5 16.5q41 0 71 -6.5t52.5 -16.5t38.5 -22.5t28 -24.5q11 11 29.5 23.5t40 23t44 17t42.5 6.5q76 0 124 -18t75 -50t36.5 -75t9.5 -93v-180h79q29 0 50 -21t21 -50v-6q0 -14 -5.5 -27t-15.5 -22.5t-22.5 -15.5t-27.5 -6h-155q-29 0 -50 20.5
t-21 50.5z" />
    <glyph glyph-name="n" unicode="n" horiz-adv-x="915" 
d="M726 149h78q29 0 50 -21t21 -50v-6q0 -14 -5.5 -27t-15.5 -22.5t-22.5 -15.5t-27.5 -6h-155q-30 0 -50.5 20.5t-20.5 50.5v256q0 14 -5.5 30t-19 29t-36 21.5t-56.5 8.5q-22 0 -43 -7.5t-37.5 -21t-26.5 -31.5t-10 -38v-171h77q29 0 50 -21t21 -50v-6q0 -14 -5.5 -27
t-15.5 -22.5t-22.5 -15.5t-27.5 -6h-280q-29 0 -50 21.5t-21 49.5v6q0 29 21 50t50 21h53v259h-62q-30 0 -45.5 20.5t-15.5 49.5v6q0 29 16 50t45 21h139q10 0 21.5 -4t21 -10t16 -14t6.5 -17q25 21 56.5 38t69.5 17q72 0 122 -18t81.5 -50t46 -75t14.5 -93v-179z" />
    <glyph glyph-name="o" unicode="o" horiz-adv-x="736" 
d="M207 275q0 -29 9.5 -55.5t29.5 -47t50.5 -32.5t71.5 -12t71.5 12t50.5 32.5t29.5 47t9.5 55.5q0 30 -9.5 57t-29.5 47t-50 32t-72 12t-72 -12t-50 -32.5t-29.5 -47t-9.5 -56.5zM55 275q0 57 19 110t57.5 93t97.5 64t139 24q81 0 140 -24t97.5 -64t57 -92.5t18.5 -110.5
q0 -57 -19 -109.5t-57.5 -92.5t-97.5 -64t-139 -24t-139 24t-97.5 64t-57.5 92.5t-19 109.5z" />
    <glyph glyph-name="p" unicode="p" horiz-adv-x="816" 
d="M164 -85v492h-63q-30 0 -45.5 20.5t-15.5 49.5v6q0 29 16 50t45 21h139q29 0 44.5 -13t23.5 -29q25 21 64.5 37.5t81.5 16.5q80 0 138.5 -24t97 -64t57.5 -92.5t19 -109.5q0 -58 -18.5 -110.5t-57 -92.5t-97.5 -64t-139 -24q-78 0 -143 40v-110h53q29 0 50 -21t21 -50v-6
q0 -14 -5.5 -27t-15.5 -22.5t-22.5 -15.5t-27.5 -6h-253q-29 0 -50 21.5t-21 49.5v6q0 29 21 50t50 21h53zM454 423q-48 0 -85.5 -22t-57.5 -55q-6 -8 -10 -28t-4 -44q0 -20 3 -38t11 -30q20 -35 56.5 -56.5t86.5 -21.5q42 0 72 12t50 32t29.5 47t9.5 57q0 29 -9.5 55.5
t-29.5 47t-50.5 32.5t-71.5 12z" />
    <glyph glyph-name="q" unicode="q" horiz-adv-x="816" 
d="M705 -85q29 0 50 -21t21 -50v-6q0 -28 -21 -49.5t-50 -21.5h-253q-15 0 -27.5 6t-22.5 15.5t-15.5 22.5t-5.5 27v6q0 29 21 50t50 21h53v110q-65 -40 -143 -40q-80 0 -139 24t-97.5 64t-57 92.5t-18.5 110.5q0 57 19 109.5t57.5 92.5t97 64t138.5 24q42 0 81.5 -16.5
t64.5 -37.5q8 16 23.5 29t44.5 13h139q29 0 45 -21t16 -50v-6q0 -29 -15.5 -49.5t-45.5 -20.5h-63v-492h53zM362 423q-41 0 -71.5 -12t-50.5 -32.5t-29.5 -47t-9.5 -55.5q0 -30 9.5 -57t29.5 -47t50 -32t72 -12q50 0 86.5 21.5t56.5 56.5q8 12 11 30t3 38q0 24 -4 44t-10 28
q-20 33 -57.5 55t-85.5 22z" />
    <glyph glyph-name="r" unicode="r" horiz-adv-x="600" 
d="M194 407h-62q-30 0 -45.5 20.5t-15.5 49.5v6q0 29 16 50t45 21h139q29 0 42.5 -14t21.5 -30q26 23 55 38.5t72 15.5h14t14 -1q29 -2 49.5 -21.5t20.5 -48.5v-7q0 -26 -11 -40.5t-25 -21.5q-16 -8 -36 -9q-36 0 -63 -10t-45.5 -24t-28 -31t-9.5 -30v-172h79q29 0 50 -21
t21 -50v-6q0 -14 -5.5 -27t-15.5 -22.5t-22.5 -15.5t-27.5 -6h-280q-29 0 -50 21.5t-21 49.5v6q0 29 21 50t50 21h53v259z" />
    <glyph glyph-name="s" unicode="s" horiz-adv-x="699" 
d="M532 554q28 0 47.5 -21t19.5 -50v-61q0 -29 -19.5 -50t-47.5 -21h-8q-25 0 -43 16t-23 41q-24 10 -54.5 17.5t-72.5 7.5q-16 0 -33 -3.5t-31 -10t-23 -15.5t-9 -19q0 -8 7 -15.5t17 -12.5t21.5 -8.5t21.5 -3.5q32 -2 65.5 -3t65.5 -2q48 -2 87 -11t66.5 -28.5t42.5 -50.5
t15 -77q0 -39 -15 -73t-46.5 -59.5t-80.5 -40.5t-118 -15q-53 0 -105 7.5t-96 21.5q-19 -17 -43 -17h-8q-28 0 -47.5 20.5t-19.5 50.5v71q0 30 19.5 50.5t47.5 20.5h8q23 0 41.5 -16t23.5 -39q54 -19 103 -25t76 -6q16 0 35.5 3t36.5 9.5t29 16.5t12 24q0 17 -18 25t-35 9
q-38 1 -75.5 2t-75.5 3q-52 1 -90.5 15.5t-64 37.5t-38.5 53.5t-13 64.5q0 32 12.5 64t42.5 57.5t80 41t125 15.5q36 0 72 -5.5t68 -16.5q17 11 37 11h8z" />
    <glyph glyph-name="t" unicode="t" horiz-adv-x="546" 
d="M407 122q15 -9 23.5 -23.5t8.5 -37.5q0 -18 -7.5 -31t-19.5 -21.5t-26.5 -13t-29.5 -4.5q-22 0 -52.5 18t-58.5 55t-48 93.5t-20 133.5v110h-91q-28 0 -49.5 21.5t-21.5 49.5v6q0 15 6 27.5t15.5 22.5t22.5 15.5t27 5.5h91v129q0 32 22 51.5t49 19.5h10q27 0 49 -19.5
t22 -51.5v-129h114q29 0 49.5 -21t20.5 -50v-6q0 -28 -20.5 -49.5t-49.5 -21.5h-114v-114q0 -48 11.5 -79t25.5 -50q17 -22 38 -34z" />
    <glyph glyph-name="u" unicode="u" horiz-adv-x="833" 
d="M732 146q30 0 45.5 -20.5t15.5 -49.5v-6q0 -29 -16 -50t-45 -21h-139q-22 0 -39.5 11.5t-25.5 30.5q-25 -21 -56.5 -38t-69.5 -17q-71 0 -120.5 18t-81.5 49t-46.5 73t-14.5 91v188h-63q-30 0 -45.5 20.5t-15.5 49.5v6q0 29 16 50t45 21h139q29 0 50 -21t21 -50v-259
q0 -14 5.5 -30t19 -29t36 -21.5t56.5 -8.5q22 0 43 7.5t37.5 21t26.5 31.5t10 38v174h-61q-30 0 -45.5 20.5t-15.5 49.5v6q0 29 16 50t45 21h139q29 0 50 -21t21 -50v-335h63z" />
    <glyph glyph-name="v" unicode="v" horiz-adv-x="837" 
d="M507 407q-30 0 -45.5 20.5t-15.5 49.5v6q0 29 16 50t45 21h259q29 0 45 -21t16 -50v-6q0 -29 -15.5 -49.5t-45.5 -20.5h-72q-44 -94 -88 -188.5t-87 -185.5q-11 -18 -28.5 -30.5t-40.5 -12.5h-63q-22 0 -40 13t-28 31l-174 373h-74q-30 0 -45.5 20.5t-15.5 49.5v6
q0 29 16 50t45 21h259q29 0 45 -21t16 -50v-6q0 -29 -15.5 -49.5t-45.5 -20.5h-20l108 -232q27 58 55 116l56 116h-22z" />
    <glyph glyph-name="w" unicode="w" horiz-adv-x="1045" 
d="M969 407h-73q-27 -89 -55.5 -179.5t-54.5 -178.5q-7 -22 -27.5 -38t-45.5 -16h-55q-26 0 -46 16.5t-27 41.5l-66 246q-16 -62 -32 -123.5t-32 -122.5q-7 -25 -27 -41.5t-46 -16.5h-52q-26 0 -46 16t-27 38l-109 358h-72q-30 0 -45.5 20.5t-15.5 49.5v6q0 29 16 50t45 21
h229q29 0 45 -21t16 -50v-6q0 -29 -15.5 -49.5t-45.5 -20.5h-4q12 -40 24 -78t29 -91q17 65 35 128.5t35 127.5q7 25 28 40t46 15h48q25 0 45.5 -16t27.5 -41q11 -40 19.5 -69.5t16 -57t16 -57.5t19.5 -71l52 170h-2q-30 0 -45.5 20.5t-15.5 49.5v6q0 29 16 50t45 21h229
q29 0 45 -21t16 -50v-6q0 -29 -15.5 -49.5t-45.5 -20.5z" />
    <glyph glyph-name="x" unicode="x" horiz-adv-x="746" 
d="M276 295l-91 112h-88q-30 0 -45.5 20.5t-15.5 49.5v6q0 29 16 50t45 21h123q17 0 33 -8.5t27 -22.5q26 -32 47 -56.5t47 -57.5q23 28 47.5 57.5t46.5 56.5q11 14 27 22.5t33 8.5h123q29 0 45 -21t16 -50v-6q0 -29 -15.5 -49.5t-45.5 -20.5h-88l-91 -111l126 -149h72
q30 0 45.5 -20.5t15.5 -49.5v-6q0 -29 -16 -50t-45 -21h-107q-17 0 -32.5 8.5t-27.5 22.5l-129 149l-127 -149q-12 -14 -27.5 -22.5t-32.5 -8.5h-111q-29 0 -45 21t-16 50v6q0 29 15.5 49.5t45.5 20.5h76z" />
    <glyph glyph-name="y" unicode="y" horiz-adv-x="837" 
d="M235 -239q-16 0 -32.5 6t-29.5 16.5t-21.5 25t-8.5 32.5q0 16 7 26.5t18 18t23.5 11.5t23.5 6q3 1 18.5 5.5t35.5 16t41.5 31t37.5 49.5q-11 5 -19 17t-13 21l-170 364h-75q-30 0 -45.5 20.5t-15.5 49.5v6q0 29 16 50t45 21h259q29 0 45 -21t16 -50v-6q0 -29 -15.5 -49.5
t-45.5 -20.5h-20l108 -232q27 58 54.5 116t55.5 116h-21q-30 0 -45.5 20.5t-15.5 49.5v6q0 29 16 50t45 21h259q29 0 45 -21t16 -50v-6q0 -29 -15.5 -49.5t-45.5 -20.5h-73l-208 -441q-27 -57 -60.5 -96t-67.5 -63.5t-66 -35t-56 -10.5z" />
    <glyph glyph-name="z" unicode="z" horiz-adv-x="693" 
d="M215 402v-25q0 -29 -21 -50t-50 -21h-8q-29 0 -50 20.5t-21 50.5v101q0 30 21 50.5t50 20.5h393q65 0 65 -66q0 -14 -4.5 -28t-12.5 -25l-274 -283h180v25q0 30 21 50.5t50 20.5h8q29 0 50 -21t21 -50v-101q0 -29 -21 -50t-50 -21h-429q-66 0 -66 65q0 15 3.5 28t13.5 24
l269 285h-138z" />
    <glyph glyph-name="braceleft" unicode="{" horiz-adv-x="477" 
d="M182 302q0 6 -1 12t-5 11t-12.5 8.5t-22.5 3.5q-21 0 -36 15t-15 37t15 37t36 15q15 0 23 4t12 10t4.5 14t0.5 16v154q0 83 42.5 118t123.5 35q23 0 39 -12t16 -43q0 -32 -15.5 -41.5t-37.5 -13.5q-12 -2 -22.5 -9t-10.5 -32v-136q0 -38 -14.5 -67.5t-34.5 -49.5
q19 -19 33.5 -48t14.5 -67v-137q0 -25 11 -31.5t23 -8.5q10 -2 20 -5t17 -8.5t11.5 -15.5t4.5 -27q0 -31 -16 -43t-39 -12q-81 0 -123 35t-42 118v164z" />
    <glyph glyph-name="bar" unicode="|" horiz-adv-x="436" 
d="M286 -115q0 -26 -19.5 -45.5t-46.5 -19.5h-5q-26 0 -45.5 19t-19.5 46v882q0 28 19.5 47t45.5 19h5q27 0 46.5 -20t19.5 -46v-882z" />
    <glyph glyph-name="braceright" unicode="}" horiz-adv-x="482" 
d="M320 138q0 -83 -42 -118t-123 -35q-23 0 -39 12t-16 43q0 17 4.5 27t11.5 15.5t16.5 8.5t20.5 5q12 2 23 8.5t11 31.5v137q0 38 14.5 67t33.5 48q-20 20 -34.5 49.5t-14.5 67.5v136q0 25 -10.5 32t-22.5 9q-22 4 -37.5 13.5t-15.5 41.5q0 31 16 43t39 12q81 0 123.5 -35
t42.5 -118v-154q0 -8 0.5 -16t4.5 -14t12 -10t23 -4q21 0 36 -15t15 -37t-15 -37t-36 -15q-14 0 -22.5 -3.5t-12.5 -8.5t-5 -11t-1 -12v-164z" />
    <glyph glyph-name="asciitilde" unicode="~" horiz-adv-x="522" 
d="M183 768q21 0 42 -7.5t41.5 -17t39 -17t33.5 -7.5q6 0 12 8.5t13 18t16.5 18t23.5 8.5q27 0 43.5 -18t16.5 -41q0 -8 -4 -27.5t-15.5 -40.5t-32.5 -37t-55 -16q-28 0 -53 8.5t-45.5 18t-36.5 18t-26 8.5q-8 0 -12.5 -9t-10 -19.5t-14 -19.5t-24.5 -9q-20 0 -31.5 7
t-17 16.5t-7 20t-1.5 16.5q0 45 16 69.5t36 35.5q23 13 53 15z" />
    <glyph glyph-name="uni00A0" unicode="&#xa0;" horiz-adv-x="280" 
 />
    <glyph glyph-name="exclamdown" unicode="&#xa1;" horiz-adv-x="418" 
d="M210 506q38 0 64.5 -26.5t26.5 -64.5q0 -39 -26.5 -65.5t-64.5 -26.5q-39 0 -65 26.5t-26 65.5q0 38 26 64.5t65 26.5zM148 242q1 20 16 34t38 14h16q22 0 37 -14.5t16 -33.5l18 -474q0 -30 -24.5 -50.5t-54.5 -20.5q-15 0 -29 5.5t-25.5 15t-18 22t-6.5 27.5z" />
    <glyph glyph-name="cent" unicode="&#xa2;" horiz-adv-x="710" 
d="M573 621q26 0 45 -21t19 -50v-101q0 -29 -19 -50t-45 -21h-8q-26 0 -44 19t-20 48q-28 15 -61 28.5t-69 13.5q-41 0 -73 -13.5t-54.5 -35t-34 -48t-11.5 -52.5q0 -24 11 -49.5t33.5 -46.5t57 -34t82.5 -13q47 0 85.5 13.5t65.5 29.5q7 4 18 7.5t19 3.5q31 0 53 -19.5
t22 -51.5q0 -27 -18.5 -48t-47 -35.5t-63 -24t-65.5 -14.5v-16q0 -14 -5.5 -27t-15.5 -22.5t-22.5 -15.5t-27.5 -6h-10q-28 0 -49.5 21.5t-21.5 49.5v18q-53 9 -98.5 32t-79 58.5t-52.5 84t-19 108.5q0 61 21 109t55.5 83t79.5 57.5t93 32.5v13q0 15 6 27.5t15.5 22.5
t22.5 15.5t27 5.5h10q29 0 50 -21t21 -50v-13q17 -4 35.5 -8.5t36.5 -11.5q18 18 42 18h8z" />
    <glyph glyph-name="sterling" unicode="&#xa3;" horiz-adv-x="761" 
d="M532 130v72q0 26 19.5 45.5t45.5 19.5t45.5 -19t19.5 -46v-136q0 -26 -19 -45.5t-46 -19.5h-450q-28 0 -47.5 20t-19.5 43q0 28 20.5 47t46.5 19h21v143h-21q-14 0 -26 5.5t-21 14.5t-14.5 20t-5.5 23q0 27 20.5 46t46.5 19h21v65q0 43 14.5 84t45.5 73.5t80 52t119 19.5
q57 0 103.5 -16.5t80 -42.5t52 -57t18.5 -61q0 -15 -6 -28.5t-16.5 -23.5t-23.5 -16t-28 -6q-28 0 -41.5 17.5t-23.5 35.5q-4 12 -13.5 23t-24 20t-32 14.5t-36.5 5.5q-37 0 -61.5 -10t-39 -25t-20.5 -31t-6 -28v-65h113q26 0 45.5 -19t19.5 -44q0 -26 -19 -45.5t-46 -19.5
h-113v-143h223z" />
    <glyph glyph-name="currency" unicode="&#xa4;" horiz-adv-x="939" 
d="M772 681q29 0 50 -21t21 -50v-101q0 -29 -21 -50t-50 -21h-8q-29 0 -50 20.5t-21 50.5v6q-26 15 -68.5 28.5t-95.5 13.5q-54 0 -103.5 -26t-78.5 -75h290q19 0 34 -15t15 -34q0 -8 -2 -18.5t-8 -20.5t-16.5 -17t-26.5 -7h-497q-20 0 -34.5 14.5t-16.5 34.5q1 33 17.5 48
t36.5 15h48q18 54 50.5 98.5t76.5 77t98.5 50.5t115.5 18q52 0 99 -12.5t85 -29.5q21 23 52 23h8zM610 315q21 0 35.5 -14t14.5 -35q0 -8 -2.5 -18.5t-9 -20.5t-16.5 -17t-25 -7h-241q29 -29 76.5 -52t108.5 -23q31 0 60.5 5.5t54 14t43 19.5t27.5 22q10 11 22.5 15.5
t25.5 4.5q26 0 40 -10.5t21 -23.5q8 -15 9 -34q0 -29 -26.5 -57t-71.5 -50t-104 -35.5t-123 -13.5q-53 0 -104 15.5t-95 44t-79 68.5t-56 90h-59q-20 0 -34.5 14.5t-16.5 34.5q1 33 17.5 48t36.5 15h471z" />
    <glyph glyph-name="yen" unicode="&#xa5;" horiz-adv-x="844" 
d="M343 678q29 0 50 -21.5t21 -49.5v-6q0 -29 -21 -50t-50 -21h-2q20 -25 40 -50.5t43 -53.5l82 104h-5q-29 0 -50 21t-21 50v6q0 28 21 49.5t50 21.5h262q29 0 50 -21.5t21 -49.5v-6q0 -29 -21 -50t-50 -21h-74l-35 -44h12q23 0 36 -15t13 -34v-6q0 -19 -13 -34t-36 -15
h-96l-49 -58h145q21 0 35 -15t14 -36v-4q0 -20 -13 -35.5t-36 -15.5h-170v-70h71q29 0 50 -21.5t21 -49.5v-6q0 -29 -21 -50t-50 -21h-282q-29 0 -50 21t-21 50v6q0 28 21 49.5t50 21.5h63v70h-171q-21 0 -35.5 15t-14.5 36v4q0 21 15 36t35 15h146q-12 14 -23.5 27.5
t-24.5 30.5h-98q-20 0 -35 14.5t-15 34.5v6q0 20 14.5 34.5t35.5 14.5h15l-35 44h-76q-29 0 -50 21t-21 50v6q0 28 21 49.5t50 21.5h262z" />
    <glyph glyph-name="brokenbar" unicode="&#xa6;" horiz-adv-x="436" 
d="M215 316q-25 0 -45 19.5t-20 47.5v254q0 28 19.5 47t45.5 19h5q27 0 46.5 -20t19.5 -46v-254q0 -13 -5.5 -25t-14.5 -21.5t-21 -15t-25 -5.5h-5zM215 -168q-26 0 -45.5 19t-19.5 46v255q0 28 20 47t45 19h5q13 0 25 -5.5t21 -14.5t14.5 -21t5.5 -25v-255
q0 -26 -19.5 -45.5t-46.5 -19.5h-5z" />
    <glyph glyph-name="section" unicode="&#xa7;" horiz-adv-x="694" 
d="M82 599q0 32 12.5 64t42.5 57.5t80 41t125 15.5q36 0 72 -5.5t68 -16.5q17 11 37 11h8q28 0 47.5 -21t19.5 -50v-61q0 -29 -19.5 -50t-47.5 -21h-8q-25 0 -43 16t-23 41q-24 10 -54.5 17.5t-72.5 7.5q-16 0 -33 -3.5t-31 -10t-23 -15.5t-9 -19q0 -8 7 -15.5t17 -12.5
t21.5 -8.5t21.5 -3.5q32 -2 65.5 -3t65.5 -2q48 -2 87 -11t66.5 -28.5t42.5 -50.5t15 -77q0 -61 -34 -105q34 -40 34 -107q0 -39 -15 -73t-46.5 -59.5t-80.5 -40.5t-118 -15q-53 0 -105 7.5t-96 21.5q-19 -17 -43 -17h-8q-28 0 -47.5 20.5t-19.5 50.5v71q0 30 19.5 50.5
t47.5 20.5h8q23 0 41.5 -16t23.5 -39q54 -19 103 -25t76 -6q16 0 35.5 3t36.5 9.5t29 16.5t12 24q0 17 -18 25t-35 9q-38 1 -75.5 2t-75.5 3q-52 1 -90.5 15.5t-64 37.5t-38.5 53.5t-13 64.5q0 28 9 55.5t30 50.5q-39 45 -39 106zM492 389q0 17 -18 25t-35 9q-38 1 -75.5 2
t-75.5 3h-2q-23 -6 -39.5 -17.5t-16.5 -25.5q0 -8 7 -15.5t17 -12.5t21.5 -8.5t21.5 -3.5q30 -2 61.5 -3t61.5 -2q27 5 49.5 17t22.5 32z" />
    <glyph glyph-name="dieresis" unicode="&#xa8;" horiz-adv-x="410" 
d="M192 683q0 -15 -6 -28.5t-16.5 -24t-24 -16.5t-28.5 -6t-28.5 6t-23.5 16.5t-16 24t-6 28.5q0 30 21.5 52.5t52.5 22.5t53 -22t22 -53zM367 683q0 -15 -6 -28.5t-16.5 -24t-23.5 -16.5t-28 -6t-29 6t-24 16.5t-16 24t-6 28.5q0 30 22 52.5t53 22.5t52.5 -22t21.5 -53z
" />
    <glyph glyph-name="copyright" unicode="&#xa9;" horiz-adv-x="1002" 
d="M500 -15q-83 0 -156 31.5t-127 85.5t-85.5 127t-31.5 156q0 84 31.5 157t85.5 127t127 85.5t156 31.5q84 0 157 -31.5t127.5 -85.5t86 -127t31.5 -157q0 -83 -31.5 -156t-86 -127t-127.5 -85.5t-157 -31.5zM502 664q-58 0 -109 -22t-89 -60t-60 -88.5t-22 -108.5
q0 -57 22 -107.5t60 -89t89 -60.5t109 -22q57 0 108 22t88.5 60t59.5 89t22 108q0 58 -22 109t-59.5 88.5t-88.5 59.5t-108 22zM665 584q20 0 34 -14t14 -34v-71q0 -20 -14 -34.5t-34 -14.5h-7q-31 0 -44 28q-9 6 -19 14t-22.5 15t-28.5 11.5t-37 4.5q-22 0 -42 -8
t-35 -21.5t-24 -32t-9 -38.5q0 -21 9.5 -38.5t26 -30t38 -19.5t45.5 -7q27 0 45 9t33 19.5t28.5 19.5t31.5 9q26 0 45 -16.5t19 -44.5t-21 -47q-43 -39 -89.5 -56.5t-93.5 -17.5q-49 0 -93.5 15.5t-78.5 44.5t-54 69t-20 90q0 49 19 89.5t52 70t76.5 45.5t92.5 16
q22 0 57 -8.5t68 -24.5q13 8 25 8h7z" />
    <glyph glyph-name="ordfeminine" unicode="&#xaa;" horiz-adv-x="552" 
d="M343 433q2 4 2.5 7t0.5 6q0 5 -2 11q-1 3 -1 4h-150q-14 0 -27 -9t-13 -25q0 -17 11.5 -27.5t28.5 -10.5q48 0 82 12t68 32zM348 335q-29 -16 -69.5 -31t-85.5 -15q-32 0 -58 10t-45 28t-29.5 43t-10.5 55q0 62 40 92t103 30h151q0 11 -7.5 20.5t-20.5 16t-29 10.5t-32 4
q-28 0 -51 -8t-39 -15q-11 -5 -19.5 -8.5t-16.5 -3.5q-21 0 -37.5 12t-16.5 34q0 23 21 39.5t50.5 26.5t60 14.5t48.5 4.5q42 0 77.5 -9t60.5 -30.5t39 -57t14 -87.5v-108h44q21 0 31.5 -14t10.5 -35v-4q0 -20 -11 -35t-31 -15h-97q-16 0 -28 11.5t-17 24.5z" />
    <glyph glyph-name="guillemotleft" unicode="&#xab;" horiz-adv-x="605" 
d="M193 461q10 14 24.5 21t29.5 7q24 0 45.5 -17.5t21.5 -46.5q0 -5 -1.5 -11.5t-9 -21t-22.5 -41.5t-42 -72q27 -47 42 -74t22.5 -42t9.5 -21.5t2 -10.5q0 -29 -21 -47.5t-47 -18.5q-16 0 -30.5 8t-23.5 21l-101 148q-5 7 -8.5 16.5t-3.5 20.5q0 20 12 37zM403 461
q10 14 24.5 21t29.5 7q24 0 45.5 -17.5t21.5 -46.5q0 -5 -1.5 -11.5t-9 -21t-22.5 -41.5t-42 -72q27 -47 42 -74t22.5 -42t9.5 -21.5t2 -10.5q0 -29 -21 -47.5t-47 -18.5q-16 0 -30.5 8t-23.5 21l-101 148q-5 7 -8.5 16.5t-3.5 20.5q0 20 12 37z" />
    <glyph glyph-name="logicalnot" unicode="&#xac;" horiz-adv-x="628" 
d="M126 182q-28 0 -47 20t-19 45v6q0 24 19 44.5t47 20.5h376q27 0 46.5 -19t19.5 -46v-145q0 -26 -20 -46t-46 -20h-5q-26 0 -45.5 19.5t-19.5 46.5v74h-306z" />
    <glyph glyph-name="registered" unicode="&#xae;" horiz-adv-x="768" 
d="M384 230q-59 0 -110.5 22.5t-90 61t-61 90t-22.5 110.5t22.5 110.5t60.5 90t89.5 61t110.5 22.5t111 -22.5t90.5 -61t61 -90t22.5 -110.5t-22.5 -110.5t-61 -90t-90 -61t-110.5 -22.5zM384 717q-36 0 -68.5 -12t-58.5 -33h144q34 0 51 -3.5t35 -15.5q21 -14 33 -37
t12 -48q0 -26 -11 -50t-36 -38l11 -21h40q11 0 20.5 -7t13.5 -18q17 39 17 80q0 42 -16 79t-43.5 64.5t-64.5 43.5t-79 16zM429 387l-45 78h-41v-62q0 -15 -11 -26t-27 -11h-60q27 -26 62.5 -41t75.5 -15q41 0 76.5 15t63.5 41h-59q-22 0 -35 21zM233 459h18v120h-17
q-24 0 -34 22q-20 -40 -20 -87q0 -43 17 -82q4 11 13.5 19t22.5 8zM343 589v-40h75q13 0 16.5 7t3.5 11q0 7 -3.5 14.5t-16.5 7.5h-75z" />
    <glyph glyph-name="macron" unicode="&#xaf;" horiz-adv-x="522" 
d="M399 746q27 0 46.5 -19t19.5 -49q0 -28 -19.5 -47t-46.5 -19h-255q-27 0 -46.5 19t-19.5 50q0 27 19.5 46t46.5 19h255z" />
    <glyph glyph-name="degree" unicode="&#xb0;" horiz-adv-x="487" 
d="M291 542q0 20 -14 34.5t-33 14.5q-20 0 -34 -14t-14 -34t14 -33.5t33 -13.5q20 0 34 13t14 33zM244 400q-30 0 -56.5 11t-46 30.5t-30.5 45.5t-11 55q0 30 11 56.5t30.5 46t45.5 30.5t56 11t56 -11t45.5 -30.5t31 -45.5t11.5 -56t-11 -56t-30.5 -45.5t-45.5 -30.5
t-56 -11z" />
    <glyph glyph-name="plusminus" unicode="&#xb1;" horiz-adv-x="594" 
d="M352 124q0 -94 -19.5 -158t-47.5 -103.5t-58.5 -56.5t-52.5 -17q-15 0 -29.5 4.5t-26.5 13t-19.5 21.5t-7.5 31q0 23 9 38t23 25q23 12 41 38q15 23 28 62t13 102v282h-69q-29 0 -50 21.5t-21 49.5v6q0 29 21 50t50 21h69q2 73 28 122.5t66 79.5t88.5 42.5t94.5 12.5h37
q32 0 53.5 -22.5t21.5 -50.5q0 -32 -23 -52.5t-52 -22.5h-37q-30 0 -54 -8t-41 -20.5t-26 -28.5t-9 -31v-21h94q30 0 50.5 -21t20.5 -50v-6q0 -28 -20.5 -49.5t-50.5 -21.5h-94v-282z" />
    <glyph glyph-name="twosuperior" unicode="&#xb2;" horiz-adv-x="573" 
d="M191 509q-24 0 -43 16.5t-19 39.5v44q0 26 25 43t57 26.5t62.5 13.5t42.5 4q45 0 79.5 -11.5t58.5 -30.5t36.5 -42t12.5 -45q0 -26 -7 -46t-22 -36.5t-38.5 -31t-56.5 -29.5q-29 -11 -51 -21q-19 -9 -34.5 -18t-15.5 -14h115v7q0 25 18.5 40.5t38.5 15.5q24 0 43 -16.5
t19 -39.5v-64q0 -24 -16.5 -43t-39.5 -19h-301q-24 0 -40 16t-16 39q0 15 3.5 35.5t15.5 43t36.5 46t66.5 46.5l140 63q11 7 14.5 10.5t3.5 12.5t-10.5 13t-22.5 4q-20 0 -46 -5.5t-52 -16.5q-3 -23 -21 -36.5t-36 -13.5z" />
    <glyph glyph-name="threesuperior" unicode="&#xb3;" horiz-adv-x="630" 
d="M236 566q0 -26 -16 -36.5t-31 -10.5q-24 0 -43 16.5t-19 39.5v44q0 12 5 23t16 18q41 21 79 27.5t84 6.5q42 0 77.5 -10t61 -28t40 -42t14.5 -52q0 -32 -12 -51t-27 -30q23 -14 44 -38.5t21 -66.5q0 -29 -11 -54.5t-36.5 -45t-67.5 -30.5t-104 -11q-38 0 -76 8t-68 21
t-48.5 30t-18.5 35q0 12 5.5 24t14 21t19 15t19.5 6q10 0 27 -9q13 -9 25 -17t26 -14t31 -9.5t41 -3.5q46 0 76 12.5t30 26.5q0 10 -10.5 17.5t-26.5 12t-35.5 6.5t-36.5 2q-22 0 -37.5 19t-15.5 40q0 22 15.5 38.5t37.5 16.5q29 0 53.5 6.5t24.5 19.5q0 10 -18.5 20
t-53.5 10q-25 0 -43.5 -5.5t-31.5 -12.5v-5z" />
    <glyph glyph-name="acute" unicode="&#xb4;" horiz-adv-x="538" 
d="M244 592q-9 0 -19.5 5.5t-18.5 14.5t-13.5 21t-5.5 25q0 4 1.5 10t6.5 17.5t15.5 30.5t28.5 50q8 12 23 21.5t32 9.5q26 0 46 -20t20 -46q0 -5 -1.5 -11.5t-8 -18.5t-19.5 -32t-35 -51q-8 -14 -23 -20t-29 -6z" />
    <glyph glyph-name="mu" unicode="&#xb5;" horiz-adv-x="833" 
d="M528 41q-25 -21 -56.5 -38t-69.5 -17q-29 0 -58 7.5t-58 21.5v-47q0 -28 -20.5 -49.5t-50.5 -21.5h-5q-29 0 -49.5 21t-22.5 50v437h-62q-30 0 -45.5 20.5t-15.5 49.5v6q0 29 16 50t45 21h139q29 0 50 -21t21 -50v-259q0 -14 5.5 -30t19 -29t36 -21.5t56.5 -8.5
q22 0 43 7.5t37.5 21t26.5 31.5t10 38v174h-61q-30 0 -45.5 20.5t-15.5 49.5v6q0 29 16 50t45 21h139q29 0 50 -21t21 -50v-335h63q30 0 45.5 -20.5t15.5 -49.5v-6q0 -29 -16 -50t-45 -21h-139q-22 0 -39.5 11.5t-25.5 30.5z" />
    <glyph glyph-name="paragraph" unicode="&#xb6;" horiz-adv-x="794" 
d="M354 616h-51q-51 0 -76 -22t-25 -76q0 -22 5.5 -39.5t20.5 -30t40.5 -19t66.5 -6.5h19v193zM694 149h34q29 0 50 -21t21 -50v-7q0 -29 -21 -50t-50 -21h-112q-29 0 -50 21t-21 50v545h-42v-545q0 -29 -21 -50t-50 -21h-112q-29 0 -50 21t-21 50v7q0 29 21 50t50 21h34
v130h-19q-56 0 -107 16.5t-91 47.5t-63.5 75t-23.5 98t18.5 98.5t52.5 76t80 48.5t102 17h312q30 0 53 -23t23 -53z" />
    <glyph glyph-name="periodcentered" unicode="&#xb7;" horiz-adv-x="382" 
d="M282 284q0 -38 -26 -64t-65 -26q-38 0 -64.5 26t-26.5 64q0 40 26.5 66t64.5 26q39 0 65 -26.5t26 -65.5z" />
    <glyph glyph-name="cedilla" unicode="&#xb8;" horiz-adv-x="523" 
d="M341 44l-64 -86q18 0 33.5 -4.5t27.5 -14.5t19 -26t7 -39q0 -36 -15 -58.5t-38 -35t-51.5 -17t-56.5 -4.5q-4 0 -24 2t-42.5 8.5t-40.5 20t-18 36.5q0 20 14 34.5t34 14.5q13 0 23 -5q11 -8 23.5 -9.5t21.5 -1.5h12q10 0 22 3t12 12q0 7 -2.5 14.5t-16.5 7.5t-28 -5.5
t-28 -5.5q-13 0 -23.5 8.5t-10.5 23.5q0 6 3.5 13t8.5 15l72 99h126z" />
    <glyph glyph-name="onesuperior" unicode="&#xb9;" horiz-adv-x="372" 
d="M100 262q-22 0 -38.5 16.5t-16.5 38.5v9q0 22 16.5 39t38.5 17h26v177h-26q-22 0 -38.5 16.5t-16.5 38.5v9q0 22 16.5 39t38.5 17h91q22 0 38.5 -15.5t16.5 -40.5v-241h26q22 0 38.5 -17t16.5 -39v-9q0 -22 -16.5 -38.5t-38.5 -16.5h-172z" />
    <glyph glyph-name="ordmasculine" unicode="&#xba;" horiz-adv-x="598" 
d="M186 489q0 -20 7 -39t21 -33t35 -22.5t50 -8.5t50 8.5t35 22.5t21 33t7 39q0 42 -27 73t-86 31t-86 -31t-27 -73zM80 489q0 40 13 77t40 65t68.5 45t97.5 17q57 0 98 -16.5t68 -45t40 -65.5t13 -77t-13.5 -76.5t-40.5 -64.5t-68 -45t-97 -17t-97 17t-68 45t-40.5 64.5
t-13.5 76.5z" />
    <glyph glyph-name="guillemotright" unicode="&#xbb;" horiz-adv-x="605" 
d="M513 316q12 -17 12 -37q0 -11 -3.5 -20.5t-8.5 -16.5l-101 -148q-9 -13 -23.5 -21t-30.5 -8q-26 0 -47 18.5t-21 47.5q0 4 1.5 10.5t9 21.5t23 42t42.5 74q-27 45 -42 72t-22.5 41.5t-9 21t-1.5 11.5q0 29 21.5 46.5t45.5 17.5q15 0 29.5 -7t24.5 -21zM303 316
q12 -17 12 -37q0 -11 -3.5 -20.5t-8.5 -16.5l-101 -148q-9 -13 -23.5 -21t-30.5 -8q-26 0 -47 18.5t-21 47.5q0 4 1.5 10.5t9 21.5t23 42t42.5 74q-27 45 -42 72t-22.5 41.5t-9 21t-1.5 11.5q0 29 21.5 46.5t45.5 17.5q15 0 29.5 -7t24.5 -21z" />
    <glyph glyph-name="onequarter" unicode="&#xbc;" horiz-adv-x="1141" 
d="M714 211h117v88zM270 -43q-6 -6 -12 -8.5t-22 -2.5q-12 0 -23 6.5t-19 16t-13 20.5t-5 20q0 14 10 31l487 684q5 6 10 8.5t19 2.5q32 0 48.5 -21t16.5 -42q0 -16 -9 -31zM831 95h-227q-9 0 -20.5 5.5t-21.5 16t-17 25.5t-7 33q0 13 6 24.5t16 18.5l-1 -1l257 212l-2 -1
q7 7 18 10.5t20 3.5h41q23 0 39.5 -16.5t16.5 -40.5v-174h36q23 0 39.5 -17.5t16.5 -40.5t-16.5 -40.5t-39.5 -17.5h-36v-42q0 -21 -15 -37t-38 -16h-12q-21 0 -37 16t-16 37v42zM100 262q-22 0 -38.5 16.5t-16.5 38.5v9q0 22 16.5 39t38.5 17h26v177h-26q-22 0 -38.5 16.5
t-16.5 38.5v9q0 22 16.5 39t38.5 17h91q22 0 38.5 -15.5t16.5 -40.5v-241h26q22 0 38.5 -17t16.5 -39v-9q0 -22 -16.5 -38.5t-38.5 -16.5h-172z" />
    <glyph glyph-name="onehalf" unicode="&#xbd;" horiz-adv-x="1138" 
d="M271 -43q-6 -6 -12 -8.5t-22 -2.5q-12 0 -23 6.5t-19 16t-13 20.5t-5 20q0 14 10 31l486 684q6 6 11 8.5t18 2.5q33 0 49.5 -21t16.5 -42q0 -17 -10 -31zM717 260q-24 0 -43 16.5t-19 39.5v44q0 26 25 43t57 26.5t62.5 13.5t42.5 4q45 0 79.5 -11.5t58.5 -30.5t36.5 -42
t12.5 -45q0 -26 -7 -46t-22 -36.5t-38.5 -31t-56.5 -29.5q-29 -11 -51 -21q-19 -9 -34.5 -18t-15.5 -14h115v7q0 25 18.5 40.5t38.5 15.5q24 0 43 -16.5t19 -39.5v-64q0 -24 -16.5 -43t-39.5 -19h-301q-24 0 -40 16t-16 39q0 15 3.5 35.5t15.5 43t36.5 46t66.5 46.5l140 63
q11 7 14.5 10.5t3.5 12.5t-10.5 13t-22.5 4q-20 0 -46 -5.5t-52 -16.5q-3 -23 -21 -36.5t-36 -13.5zM100 262q-22 0 -38.5 16.5t-16.5 38.5v9q0 22 16.5 39t38.5 17h26v177h-26q-22 0 -38.5 16.5t-16.5 38.5v9q0 22 16.5 39t38.5 17h91q22 0 38.5 -15.5t16.5 -40.5v-241h26
q22 0 38.5 -17t16.5 -39v-9q0 -22 -16.5 -38.5t-38.5 -16.5h-172z" />
    <glyph glyph-name="threequarters" unicode="&#xbe;" horiz-adv-x="1321" 
d="M894 211h117v88zM448 -43q-6 -6 -12 -8.5t-22 -2.5q-12 0 -23 6.5t-19 16t-13 20.5t-5 20q0 14 10 31l486 684q6 6 11 8.5t18 2.5q33 0 49.5 -21t16.5 -42q0 -17 -10 -31zM311 235q-39 0 -76.5 8t-67.5 21t-48.5 30t-18.5 35q0 12 5.5 24t14 21t19 15t19.5 6q10 0 27 -9
q13 -9 25 -17t25.5 -14t31 -9.5t41.5 -3.5q46 0 76 12.5t30 26.5q0 10 -10.5 17.5t-27 12t-35.5 6.5t-37 2q-22 0 -37 19t-15 40q0 22 15 38.5t37 16.5q30 0 54.5 6.5t24.5 19.5q0 10 -18.5 20t-53.5 10q-39 0 -63 -12t-35 -17q-6 -2 -8.5 -4t-11.5 -2t-19.5 5.5t-18.5 14.5
t-13.5 21t-5.5 24t5.5 23t16.5 18q20 10 38 17t35.5 10.5t37 5t42.5 1.5q42 0 77 -10t60.5 -28t40 -42t14.5 -52q0 -32 -11.5 -51t-26.5 -30q23 -14 43.5 -38.5t20.5 -66.5q0 -29 -11 -54.5t-36.5 -45t-67.5 -30.5t-103 -11zM1011 95h-228q-9 0 -20.5 5.5t-21 16t-16.5 25.5
t-7 33q0 28 21 43l-1 -1l258 212l-2 -1q7 7 17.5 10.5t19.5 3.5h42q23 0 39.5 -16.5t16.5 -40.5v-174h36q23 0 39.5 -17.5t16.5 -40.5t-16.5 -40.5t-39.5 -17.5h-36v-42q0 -21 -15.5 -37t-38.5 -16h-11q-21 0 -37 16t-16 37v42z" />
    <glyph glyph-name="questiondown" unicode="&#xbf;" horiz-adv-x="570" 
d="M385 500q19 0 36 -7.5t30 -20.5t20 -30t7 -36t-7 -36t-20 -29.5t-30 -20t-36 -7.5q-40 0 -66.5 27t-26.5 66t27 66.5t66 27.5zM432 -146q2 29 21 50t46 21h4q28 0 47.5 -21t19.5 -50v-84q0 -31 -20.5 -51t-49.5 -24l-40 -5t-31 -2.5t-32 -1t-42 -0.5q-53 0 -102.5 10
t-88 34.5t-61.5 66t-23 105.5q0 31 9.5 59.5t25 53.5t36 46.5t43.5 38.5l98 74q8 7 11 16t3 21v10q0 26 20 46t46 20h25q27 0 46.5 -20t19.5 -46v-20q0 -25 -2.5 -43.5t-8 -32.5t-15 -25.5t-23.5 -21.5l-103 -79q-25 -20 -44 -43t-19 -53q0 -24 14.5 -38t36.5 -21.5t47 -9.5
t45 -2h17.5t22.5 1z" />
    <glyph glyph-name="Agrave" unicode="&#xc0;" horiz-adv-x="967" 
d="M399 921q-6 8 -10 18.5t-4 21.5q0 26 20 46t46 20q15 0 31 -9.5t24 -21.5q18 -31 28.5 -50t15.5 -30.5t6.5 -17.5t1.5 -10q0 -13 -5.5 -25t-13.5 -21t-18.5 -14.5t-19.5 -5.5q-13 0 -22.5 4t-16.5 9q-8 5 -13 13zM96 152q-29 0 -50 -21.5t-21 -49.5v-10q0 -29 21 -50
t50 -21h243q29 0 50 21t21 50v10q0 14 -5.5 27t-15.5 22.5t-22.5 15.5t-27.5 6h-37v143h364v-143h-38q-29 0 -50 -21.5t-21 -49.5v-10q0 -29 21 -50t50 -21h243q29 0 50 21t21 50v10q0 14 -5.5 27t-15.5 22.5t-22.5 15.5t-27.5 6h-54v333q0 37 -4.5 75t-18 72.5t-36.5 65
t-60 52.5t-89.5 35t-124.5 13t-124.5 -13t-89.5 -35t-60 -52.5t-36.5 -65t-18 -72.5t-4.5 -75v-333h-55zM666 446h-364v39q0 35 8.5 65t29.5 51.5t56 33.5t88 12t88 -12t56 -33.5t29.5 -51.5t8.5 -65v-39z" />
    <glyph glyph-name="Aacute" unicode="&#xc1;" horiz-adv-x="967" 
d="M492 822q-9 0 -19.5 5.5t-18.5 14.5t-13.5 21t-5.5 25q0 4 1.5 10t6.5 17.5t15.5 30.5t28.5 50q8 12 23 21.5t32 9.5q26 0 46 -20t20 -46q0 -5 -1.5 -11.5t-8 -18.5t-19.5 -32t-35 -51q-8 -14 -23 -20t-29 -6zM151 152v333q0 37 4.5 75t18 72.5t36.5 65t60 52.5t89.5 35
t124.5 13t124.5 -13t89.5 -35t60 -52.5t36.5 -65t18 -72.5t4.5 -75v-333h54q15 0 27.5 -6t22.5 -15.5t15.5 -22.5t5.5 -27v-10q0 -29 -21 -50t-50 -21h-243q-29 0 -50 21t-21 50v10q0 28 21 49.5t50 21.5h38v143h-364v-143h37q15 0 27.5 -6t22.5 -15.5t15.5 -22.5t5.5 -27
v-10q0 -29 -21 -50t-50 -21h-243q-29 0 -50 21t-21 50v10q0 28 21 49.5t50 21.5h55zM666 485q0 35 -8.5 65t-29.5 51.5t-56 33.5t-88 12t-88 -12t-56 -33.5t-29.5 -51.5t-8.5 -65v-39h364v39z" />
    <glyph glyph-name="Acircumflex" unicode="&#xc2;" horiz-adv-x="967" 
d="M444 851q-8 -11 -22.5 -19.5t-31.5 -8.5h-13q-23 0 -36.5 13.5t-13.5 36.5q0 8 3 15.5t7 12.5l60 98q8 14 25 21.5t29 7.5h65q15 0 31 -7.5t24 -21.5l59 -95q4 -5 7.5 -14t3.5 -17q0 -23 -13.5 -36.5t-36.5 -13.5h-14q-14 0 -29 7.5t-26 21.5l-38 70zM96 152
q-29 0 -50 -21.5t-21 -49.5v-10q0 -29 21 -50t50 -21h243q29 0 50 21t21 50v10q0 14 -5.5 27t-15.5 22.5t-22.5 15.5t-27.5 6h-37v143h364v-143h-38q-29 0 -50 -21.5t-21 -49.5v-10q0 -29 21 -50t50 -21h243q29 0 50 21t21 50v10q0 14 -5.5 27t-15.5 22.5t-22.5 15.5
t-27.5 6h-54v333q0 37 -4.5 75t-18 72.5t-36.5 65t-60 52.5t-89.5 35t-124.5 13t-124.5 -13t-89.5 -35t-60 -52.5t-36.5 -65t-18 -72.5t-4.5 -75v-333h-55zM666 446h-364v39q0 35 8.5 65t29.5 51.5t56 33.5t88 12t88 -12t56 -33.5t29.5 -51.5t8.5 -65v-39z" />
    <glyph glyph-name="Atilde" unicode="&#xc3;" horiz-adv-x="967" 
d="M406 998q21 0 42 -7.5t41.5 -17t39 -17t33.5 -7.5q6 0 12 8.5t13 18t16.5 18t23.5 8.5q27 0 43.5 -18t16.5 -41q0 -8 -4 -27.5t-15.5 -40.5t-32.5 -37t-55 -16q-28 0 -53 8.5t-45.5 18t-36.5 18t-26 8.5q-8 0 -12.5 -9t-10 -19.5t-14 -19.5t-24.5 -9q-20 0 -31.5 7
t-17 16.5t-7 20t-1.5 16.5q0 45 16 69.5t36 35.5q23 13 53 15zM96 152q-29 0 -50 -21.5t-21 -49.5v-10q0 -29 21 -50t50 -21h243q29 0 50 21t21 50v10q0 14 -5.5 27t-15.5 22.5t-22.5 15.5t-27.5 6h-37v143h364v-143h-38q-29 0 -50 -21.5t-21 -49.5v-10q0 -29 21 -50t50 -21
h243q29 0 50 21t21 50v10q0 14 -5.5 27t-15.5 22.5t-22.5 15.5t-27.5 6h-54v333q0 37 -4.5 75t-18 72.5t-36.5 65t-60 52.5t-89.5 35t-124.5 13t-124.5 -13t-89.5 -35t-60 -52.5t-36.5 -65t-18 -72.5t-4.5 -75v-333h-55zM666 446h-364v39q0 35 8.5 65t29.5 51.5t56 33.5
t88 12t88 -12t56 -33.5t29.5 -51.5t8.5 -65v-39z" />
    <glyph glyph-name="Adieresis" unicode="&#xc4;" horiz-adv-x="967" 
d="M483 903q0 -15 -6 -28.5t-16.5 -24t-24 -16.5t-28.5 -6t-28.5 6t-23.5 16.5t-16 24t-6 28.5q0 30 21.5 52.5t52.5 22.5t53 -22t22 -53zM658 903q0 -15 -6 -28.5t-16.5 -24t-23.5 -16.5t-28 -6t-29 6t-24 16.5t-16 24t-6 28.5q0 30 22 52.5t53 22.5t52.5 -22t21.5 -53z
M96 152q-29 0 -50 -21.5t-21 -49.5v-10q0 -29 21 -50t50 -21h243q29 0 50 21t21 50v10q0 14 -5.5 27t-15.5 22.5t-22.5 15.5t-27.5 6h-37v143h364v-143h-38q-29 0 -50 -21.5t-21 -49.5v-10q0 -29 21 -50t50 -21h243q29 0 50 21t21 50v10q0 14 -5.5 27t-15.5 22.5t-22.5 15.5
t-27.5 6h-54v333q0 37 -4.5 75t-18 72.5t-36.5 65t-60 52.5t-89.5 35t-124.5 13t-124.5 -13t-89.5 -35t-60 -52.5t-36.5 -65t-18 -72.5t-4.5 -75v-333h-55zM666 446h-364v39q0 35 8.5 65t29.5 51.5t56 33.5t88 12t88 -12t56 -33.5t29.5 -51.5t8.5 -65v-39z" />
    <glyph glyph-name="Aring" unicode="&#xc5;" horiz-adv-x="967" 
d="M465 952q0 -33 32 -33t32 33t-32 33t-32 -33zM497 1087q28 0 52.5 -10.5t42.5 -29t28.5 -43t10.5 -52.5t-10.5 -52t-28.5 -42t-42.5 -28.5t-52.5 -10.5t-52 10.5t-42 28.5t-28.5 42t-10.5 52t10.5 52.5t28.5 43t42 29t52 10.5zM96 152q-29 0 -50 -21.5t-21 -49.5v-10
q0 -29 21 -50t50 -21h243q29 0 50 21t21 50v10q0 14 -5.5 27t-15.5 22.5t-22.5 15.5t-27.5 6h-37v143h364v-143h-38q-29 0 -50 -21.5t-21 -49.5v-10q0 -29 21 -50t50 -21h243q29 0 50 21t21 50v10q0 14 -5.5 27t-15.5 22.5t-22.5 15.5t-27.5 6h-54v333q0 37 -4.5 75
t-18 72.5t-36.5 65t-60 52.5t-89.5 35t-124.5 13t-124.5 -13t-89.5 -35t-60 -52.5t-36.5 -65t-18 -72.5t-4.5 -75v-333h-55zM666 446h-364v39q0 35 8.5 65t29.5 51.5t56 33.5t88 12t88 -12t56 -33.5t29.5 -51.5t8.5 -65v-39z" />
    <glyph glyph-name="AE" unicode="&#xc6;" horiz-adv-x="1364" 
d="M794 231q0 -13 5.5 -27t16 -25.5t26 -19t36.5 -7.5h255v7q0 29 21 50t50 21h9q29 0 50 -21t21 -50v-84q-2 -29 -23.5 -52t-52.5 -23h-330q-46 0 -88.5 15t-75 44t-52 72t-19.5 100q0 34 12 64h-353v-143h37q15 0 27.5 -6t22.5 -15.5t15.5 -22.5t5.5 -27v-10
q0 -29 -21 -50t-50 -21h-243q-29 0 -50 21t-21 50v10q0 28 21 49.5t50 21.5h55v333q0 37 4.5 75t18 72.5t36.5 65t60 52.5t89.5 35t124.5 13q86 0 144 -18t96 -49q66 51 154 51h330q31 0 52.5 -23t23.5 -52v-84q0 -29 -21 -50t-50 -21h-9q-29 0 -50 21t-21 50v6h-255
q-21 0 -36.5 -7.5t-26 -18.5t-16 -25.5t-5.5 -27.5t5.5 -27.5t16 -26.5t26 -20t36.5 -8h272q20 0 35 -6.5t25.5 -17.5t16 -25t5.5 -29q0 -29 -21 -52.5t-61 -23.5h-272q-21 0 -36.5 -8t-26 -20t-16 -27t-5.5 -28zM484 647q-53 0 -88 -12t-56 -33.5t-29.5 -51.5t-8.5 -65v-39
h372q-14 22 -22.5 48t-8.5 56v15t1 14q-18 32 -56 50t-104 18z" />
    <glyph glyph-name="Ccedilla" unicode="&#xc7;" horiz-adv-x="885" 
d="M55 382q0 85 31 159.5t85 129.5t128 87t160 32q62 0 116.5 -15t98.5 -36q6 22 23.5 36.5t40.5 14.5h9q28 0 47.5 -21t19.5 -50v-184q0 -29 -19.5 -50t-47.5 -21h-9q-27 0 -47 21t-20 50v36q-12 9 -32 21t-47 22t-60.5 17t-71.5 7q-47 0 -92.5 -16.5t-81.5 -49t-58 -80.5
t-22 -110q0 -45 18 -89t53 -79t87.5 -56.5t121.5 -21.5q36 0 70 7t62 18t49 24t32 26q21 21 51 21q28 0 43.5 -11.5t22.5 -25.5q8 -17 9 -37q0 -15 -5.5 -29.5t-18.5 -25.5q-49 -53 -126.5 -81t-163.5 -35l-20 -26q35 -5 59 -25t24 -67q0 -36 -15 -58.5t-38 -35t-51.5 -17
t-56.5 -4.5q-4 0 -24 2t-42.5 8.5t-40.5 20t-18 36.5q0 20 14 34.5t34 14.5q13 0 23 -5q11 -8 23.5 -9.5t21.5 -1.5h12q10 0 22 3t12 12q0 7 -2.5 15.5t-16.5 8.5t-26.5 -4.5t-26.5 -4.5q-13 0 -23.5 8.5t-10.5 23.5q0 6 3.5 13t8.5 15l34 47q-68 12 -129 45t-106.5 83.5
t-72.5 117t-27 145.5z" />
    <glyph glyph-name="Egrave" unicode="&#xc8;" horiz-adv-x="806" 
d="M350 911q-6 8 -10 18.5t-4 21.5q0 26 20 46t46 20q15 0 31 -9.5t24 -21.5q18 -31 28.5 -50t15.5 -30.5t6.5 -17.5t1.5 -10q0 -13 -5.5 -25t-13.5 -21t-18.5 -14.5t-19.5 -5.5q-13 0 -22.5 4t-16.5 9q-8 5 -13 13zM575 152h-255q-21 0 -36.5 7.5t-26 19t-16 25.5t-5.5 27
t5.5 28t16 27t26 20t36.5 8h272q40 0 61 23.5t21 52.5q0 15 -5.5 29t-16 25t-25.5 17.5t-35 6.5h-272q-21 0 -36.5 8t-26 20t-16 26.5t-5.5 27.5t5.5 27.5t16 25.5t26 18.5t36.5 7.5h255v-6q0 -29 21 -50t50 -21h9q29 0 50 21t21 50v84q-2 29 -23.5 52t-52.5 23h-330
q-46 0 -88.5 -15t-75 -44.5t-52 -72.5t-19.5 -100q0 -26 7 -49.5t18 -43.5t24.5 -37t25.5 -30q-12 -13 -25.5 -29.5t-24.5 -36.5t-18 -43.5t-7 -49.5q0 -57 19.5 -100t52 -72t75 -44t88.5 -15h330q31 0 52.5 23t23.5 52v84q0 29 -21 50t-50 21h-9q-29 0 -50 -21t-21 -50v-7z
" />
    <glyph glyph-name="Eacute" unicode="&#xc9;" horiz-adv-x="806" 
d="M433 812q-9 0 -19.5 5.5t-18.5 14.5t-13.5 21t-5.5 25q0 4 1.5 10t6.5 17.5t15.5 30.5t28.5 50q8 12 23 21.5t32 9.5q26 0 46 -20t20 -46q0 -5 -1.5 -11.5t-8 -18.5t-19.5 -32t-35 -51q-8 -14 -23 -20t-29 -6zM575 159q0 29 21 50t50 21h9q29 0 50 -21t21 -50v-84
q-2 -29 -23.5 -52t-52.5 -23h-330q-46 0 -88.5 15t-75 44t-52 72t-19.5 100q0 26 7 49.5t18 43.5t24.5 36.5t25.5 29.5q-12 13 -25.5 30t-24.5 37t-18 43.5t-7 49.5q0 57 19.5 100t52 72.5t75 44.5t88.5 15h330q31 0 52.5 -23t23.5 -52v-84q0 -29 -21 -50t-50 -21h-9
q-29 0 -50 21t-21 50v6h-255q-21 0 -36.5 -7.5t-26 -18.5t-16 -25.5t-5.5 -27.5t5.5 -27.5t16 -26.5t26 -20t36.5 -8h272q20 0 35 -6.5t25.5 -17.5t16 -25t5.5 -29q0 -29 -21 -52.5t-61 -23.5h-272q-21 0 -36.5 -8t-26 -20t-16 -27t-5.5 -28t5.5 -27t16 -25.5t26 -19
t36.5 -7.5h255v7z" />
    <glyph glyph-name="Ecircumflex" unicode="&#xca;" horiz-adv-x="806" 
d="M377 841q-8 -11 -22.5 -19.5t-31.5 -8.5h-13q-23 0 -36.5 13.5t-13.5 36.5q0 8 3 15.5t7 12.5l60 98q8 14 25 21.5t29 7.5h65q15 0 31 -7.5t24 -21.5l59 -95q4 -5 7.5 -14t3.5 -17q0 -23 -13.5 -36.5t-36.5 -13.5h-14q-14 0 -29 7.5t-26 21.5l-38 70zM575 152h-255
q-21 0 -36.5 7.5t-26 19t-16 25.5t-5.5 27t5.5 28t16 27t26 20t36.5 8h272q40 0 61 23.5t21 52.5q0 15 -5.5 29t-16 25t-25.5 17.5t-35 6.5h-272q-21 0 -36.5 8t-26 20t-16 26.5t-5.5 27.5t5.5 27.5t16 25.5t26 18.5t36.5 7.5h255v-6q0 -29 21 -50t50 -21h9q29 0 50 21
t21 50v84q-2 29 -23.5 52t-52.5 23h-330q-46 0 -88.5 -15t-75 -44.5t-52 -72.5t-19.5 -100q0 -26 7 -49.5t18 -43.5t24.5 -37t25.5 -30q-12 -13 -25.5 -29.5t-24.5 -36.5t-18 -43.5t-7 -49.5q0 -57 19.5 -100t52 -72t75 -44t88.5 -15h330q31 0 52.5 23t23.5 52v84
q0 29 -21 50t-50 21h-9q-29 0 -50 -21t-21 -50v-7z" />
    <glyph glyph-name="Edieresis" unicode="&#xcb;" horiz-adv-x="806" 
d="M413 883q0 -15 -6 -28.5t-16.5 -24t-24 -16.5t-28.5 -6t-28.5 6t-23.5 16.5t-16 24t-6 28.5q0 30 21.5 52.5t52.5 22.5t53 -22t22 -53zM588 883q0 -15 -6 -28.5t-16.5 -24t-23.5 -16.5t-28 -6t-29 6t-24 16.5t-16 24t-6 28.5q0 30 22 52.5t53 22.5t52.5 -22t21.5 -53z
M575 152h-255q-21 0 -36.5 7.5t-26 19t-16 25.5t-5.5 27t5.5 28t16 27t26 20t36.5 8h272q40 0 61 23.5t21 52.5q0 15 -5.5 29t-16 25t-25.5 17.5t-35 6.5h-272q-21 0 -36.5 8t-26 20t-16 26.5t-5.5 27.5t5.5 27.5t16 25.5t26 18.5t36.5 7.5h255v-6q0 -29 21 -50t50 -21h9
q29 0 50 21t21 50v84q-2 29 -23.5 52t-52.5 23h-330q-46 0 -88.5 -15t-75 -44.5t-52 -72.5t-19.5 -100q0 -26 7 -49.5t18 -43.5t24.5 -37t25.5 -30q-12 -13 -25.5 -29.5t-24.5 -36.5t-18 -43.5t-7 -49.5q0 -57 19.5 -100t52 -72t75 -44t88.5 -15h330q31 0 52.5 23t23.5 52
v84q0 29 -21 50t-50 21h-9q-29 0 -50 -21t-21 -50v-7z" />
    <glyph glyph-name="Igrave" unicode="&#xcc;" horiz-adv-x="565" 
d="M210 911q-6 8 -10 18.5t-4 21.5q0 26 20 46t46 20q15 0 31 -9.5t24 -21.5q18 -31 28.5 -50t15.5 -30.5t6.5 -17.5t1.5 -10q0 -13 -5.5 -25t-13.5 -21t-18.5 -14.5t-19.5 -5.5q-13 0 -22.5 4t-16.5 9q-8 5 -13 13zM206 152v477h-55q-29 0 -50 21t-21 50v10q0 28 21 49.5
t50 21.5h263q15 0 27.5 -6t22.5 -15.5t15.5 -22.5t5.5 -27v-10q0 -29 -21 -50t-50 -21h-56v-477h56q15 0 27.5 -6t22.5 -15.5t15.5 -22.5t5.5 -27v-10q0 -29 -21 -50t-50 -21h-263q-29 0 -50 21t-21 50v10q0 28 21 49.5t50 21.5h55z" />
    <glyph glyph-name="Iacute" unicode="&#xcd;" horiz-adv-x="565" 
d="M253 812q-9 0 -19.5 5.5t-18.5 14.5t-13.5 21t-5.5 25q0 4 1.5 10t6.5 17.5t15.5 30.5t28.5 50q8 12 23 21.5t32 9.5q26 0 46 -20t20 -46q0 -5 -1.5 -11.5t-8 -18.5t-19.5 -32t-35 -51q-8 -14 -23 -20t-29 -6zM206 152v477h-55q-29 0 -50 21t-21 50v10q0 28 21 49.5
t50 21.5h263q15 0 27.5 -6t22.5 -15.5t15.5 -22.5t5.5 -27v-10q0 -29 -21 -50t-50 -21h-56v-477h56q15 0 27.5 -6t22.5 -15.5t15.5 -22.5t5.5 -27v-10q0 -29 -21 -50t-50 -21h-263q-29 0 -50 21t-21 50v10q0 28 21 49.5t50 21.5h55z" />
    <glyph glyph-name="Icircumflex" unicode="&#xce;" horiz-adv-x="565" 
d="M236 831q-8 -11 -22.5 -19.5t-31.5 -8.5h-13q-23 0 -36.5 13.5t-13.5 36.5q0 8 3 15.5t7 12.5l60 98q8 14 25 21.5t29 7.5h65q15 0 31 -7.5t24 -21.5l59 -95q4 -5 7.5 -14t3.5 -17q0 -23 -13.5 -36.5t-36.5 -13.5h-14q-14 0 -29 7.5t-26 21.5l-38 70zM206 152v477h-55
q-29 0 -50 21t-21 50v10q0 28 21 49.5t50 21.5h263q15 0 27.5 -6t22.5 -15.5t15.5 -22.5t5.5 -27v-10q0 -29 -21 -50t-50 -21h-56v-477h56q15 0 27.5 -6t22.5 -15.5t15.5 -22.5t5.5 -27v-10q0 -29 -21 -50t-50 -21h-263q-29 0 -50 21t-21 50v10q0 28 21 49.5t50 21.5h55z
" />
    <glyph glyph-name="Idieresis" unicode="&#xcf;" horiz-adv-x="565" 
d="M262 883q0 -15 -6 -28.5t-16.5 -24t-24 -16.5t-28.5 -6t-28.5 6t-23.5 16.5t-16 24t-6 28.5q0 30 21.5 52.5t52.5 22.5t53 -22t22 -53zM437 883q0 -15 -6 -28.5t-16.5 -24t-23.5 -16.5t-28 -6t-29 6t-24 16.5t-16 24t-6 28.5q0 30 22 52.5t53 22.5t52.5 -22t21.5 -53z
M206 152v477h-55q-29 0 -50 21t-21 50v10q0 28 21 49.5t50 21.5h263q15 0 27.5 -6t22.5 -15.5t15.5 -22.5t5.5 -27v-10q0 -29 -21 -50t-50 -21h-56v-477h56q15 0 27.5 -6t22.5 -15.5t15.5 -22.5t5.5 -27v-10q0 -29 -21 -50t-50 -21h-263q-29 0 -50 21t-21 50v10
q0 28 21 49.5t50 21.5h55z" />
    <glyph glyph-name="Eth" unicode="&#xd0;" horiz-adv-x="984" 
d="M136 0q-29 0 -50 21t-21 50v10q0 28 21 49.5t50 21.5h55v172h-61q-24 0 -44.5 18.5t-20.5 47.5v20q0 28 20 46.5t45 18.5h61v154h-55q-29 0 -50 21t-21 50v10q0 28 21 49.5t50 21.5h413q102 0 174 -36.5t117.5 -93.5t67 -126.5t21.5 -135.5q0 -81 -28.5 -152t-79 -123.5
t-120 -83t-152.5 -30.5h-413zM343 628v-153h149q26 0 46 -19t20 -46v-20q0 -28 -21 -47t-45 -19h-149v-172h206q61 0 104 23t70.5 58t40.5 76.5t13 78.5q0 53 -17 97t-47.5 76t-72.5 49.5t-91 17.5h-206z" />
    <glyph glyph-name="Ntilde" unicode="&#xd1;" horiz-adv-x="1076" 
d="M426 968q21 0 42 -7.5t41.5 -17t39 -17t33.5 -7.5q6 0 12 8.5t13 18t16.5 18t23.5 8.5q27 0 43.5 -18t16.5 -41q0 -8 -4 -27.5t-15.5 -40.5t-32.5 -37t-55 -16q-28 0 -53 8.5t-45.5 18t-36.5 18t-26 8.5q-8 0 -12.5 -9t-10 -19.5t-14 -19.5t-24.5 -9q-20 0 -31.5 7
t-17 16.5t-7 20t-1.5 16.5q0 45 16 69.5t36 35.5q23 13 53 15zM197 627h-56q-29 0 -50 21t-21 50v10q0 28 21 49.5t50 21.5h159q17 0 33 -8t27 -22q48 -61 94.5 -120.5l93 -119t93 -120t96.5 -123.5v363h-55q-29 0 -50 21t-21 50v10q0 28 21 49.5t50 21.5h263q15 0 27.5 -6
t22.5 -15.5t15.5 -22.5t5.5 -27v-10q0 -29 -21 -50t-50 -21h-57v-563q0 -30 -22 -52.5t-54 -22.5h-18q-37 0 -60 29q-51 65 -98 124.5t-93.5 118.5t-94 119.5t-99.5 126.5v-357h57q15 0 27.5 -6t22.5 -15.5t15.5 -22.5t5.5 -27v-10q0 -29 -21 -50t-50 -21h-263q-29 0 -50 21
t-21 50v10q0 28 21 49.5t50 21.5h55z" />
    <glyph glyph-name="Ograve" unicode="&#xd2;" 
d="M468 644q-57 0 -104.5 -20.5t-82.5 -55t-54.5 -80.5t-19.5 -98q0 -51 19.5 -97.5t54.5 -81t82.5 -55t104.5 -20.5t104.5 20.5t82.5 55t54.5 81t19.5 97.5q0 52 -19.5 98t-54.5 80.5t-82.5 55t-104.5 20.5zM468 796q82 0 157 -29.5t132 -82.5t90.5 -128t33.5 -166
q0 -90 -33.5 -165t-90.5 -128t-132 -82.5t-157 -29.5q-83 0 -157.5 29t-131.5 82.5t-90.5 128t-33.5 165.5t33.5 166t90.5 128t131.5 82.5t157.5 29.5zM419 921q-6 8 -10 18.5t-4 21.5q0 26 20 46t46 20q15 0 31 -9.5t24 -21.5q18 -31 28.5 -50t15.5 -30.5t6.5 -17.5
t1.5 -10q0 -13 -5.5 -25t-13.5 -21t-18.5 -14.5t-19.5 -5.5q-13 0 -22.5 4t-16.5 9q-8 5 -13 13z" />
    <glyph glyph-name="Oacute" unicode="&#xd3;" 
d="M468 644q-57 0 -104.5 -20.5t-82.5 -55t-54.5 -80.5t-19.5 -98q0 -51 19.5 -97.5t54.5 -81t82.5 -55t104.5 -20.5t104.5 20.5t82.5 55t54.5 81t19.5 97.5q0 52 -19.5 98t-54.5 80.5t-82.5 55t-104.5 20.5zM468 796q82 0 157 -29.5t132 -82.5t90.5 -128t33.5 -166
q0 -90 -33.5 -165t-90.5 -128t-132 -82.5t-157 -29.5q-83 0 -157.5 29t-131.5 82.5t-90.5 128t-33.5 165.5t33.5 166t90.5 128t131.5 82.5t157.5 29.5zM482 822q-9 0 -19.5 5.5t-18.5 14.5t-13.5 21t-5.5 25q0 4 1.5 10t6.5 17.5t15.5 30.5t28.5 50q8 12 23 21.5t32 9.5
q26 0 46 -20t20 -46q0 -5 -1.5 -11.5t-8 -18.5t-19.5 -32t-35 -51q-8 -14 -23 -20t-29 -6z" />
    <glyph glyph-name="Ocircumflex" unicode="&#xd4;" 
d="M468 644q-57 0 -104.5 -20.5t-82.5 -55t-54.5 -80.5t-19.5 -98q0 -51 19.5 -97.5t54.5 -81t82.5 -55t104.5 -20.5t104.5 20.5t82.5 55t54.5 81t19.5 97.5q0 52 -19.5 98t-54.5 80.5t-82.5 55t-104.5 20.5zM468 796q82 0 157 -29.5t132 -82.5t90.5 -128t33.5 -166
q0 -90 -33.5 -165t-90.5 -128t-132 -82.5t-157 -29.5q-83 0 -157.5 29t-131.5 82.5t-90.5 128t-33.5 165.5t33.5 166t90.5 128t131.5 82.5t157.5 29.5zM447 841q-8 -11 -22.5 -19.5t-31.5 -8.5h-13q-23 0 -36.5 13.5t-13.5 36.5q0 8 3 15.5t7 12.5l60 98q8 14 25 21.5
t29 7.5h65q15 0 31 -7.5t24 -21.5l59 -95q4 -5 7.5 -14t3.5 -17q0 -23 -13.5 -36.5t-36.5 -13.5h-14q-14 0 -29 7.5t-26 21.5l-38 70z" />
    <glyph glyph-name="Otilde" unicode="&#xd5;" 
d="M468 644q-57 0 -104.5 -20.5t-82.5 -55t-54.5 -80.5t-19.5 -98q0 -51 19.5 -97.5t54.5 -81t82.5 -55t104.5 -20.5t104.5 20.5t82.5 55t54.5 81t19.5 97.5q0 52 -19.5 98t-54.5 80.5t-82.5 55t-104.5 20.5zM468 796q82 0 157 -29.5t132 -82.5t90.5 -128t33.5 -166
q0 -90 -33.5 -165t-90.5 -128t-132 -82.5t-157 -29.5q-83 0 -157.5 29t-131.5 82.5t-90.5 128t-33.5 165.5t33.5 166t90.5 128t131.5 82.5t157.5 29.5zM396 998q21 0 42 -7.5t41.5 -17t39 -17t33.5 -7.5q6 0 12 8.5t13 18t16.5 18t23.5 8.5q27 0 43.5 -18t16.5 -41
q0 -8 -4 -27.5t-15.5 -40.5t-32.5 -37t-55 -16q-28 0 -53 8.5t-45.5 18t-36.5 18t-26 8.5q-8 0 -12.5 -9t-10 -19.5t-14 -19.5t-24.5 -9q-20 0 -31.5 7t-17 16.5t-7 20t-1.5 16.5q0 45 16 69.5t36 35.5q23 13 53 15z" />
    <glyph glyph-name="Odieresis" unicode="&#xd6;" 
d="M468 644q-57 0 -104.5 -20.5t-82.5 -55t-54.5 -80.5t-19.5 -98q0 -51 19.5 -97.5t54.5 -81t82.5 -55t104.5 -20.5t104.5 20.5t82.5 55t54.5 81t19.5 97.5q0 52 -19.5 98t-54.5 80.5t-82.5 55t-104.5 20.5zM468 796q82 0 157 -29.5t132 -82.5t90.5 -128t33.5 -166
q0 -90 -33.5 -165t-90.5 -128t-132 -82.5t-157 -29.5q-83 0 -157.5 29t-131.5 82.5t-90.5 128t-33.5 165.5t33.5 166t90.5 128t131.5 82.5t157.5 29.5zM473 893q0 -15 -6 -28.5t-16.5 -24t-24 -16.5t-28.5 -6t-28.5 6t-23.5 16.5t-16 24t-6 28.5q0 30 21.5 52.5t52.5 22.5
t53 -22t22 -53zM648 893q0 -15 -6 -28.5t-16.5 -24t-23.5 -16.5t-28 -6t-29 6t-24 16.5t-16 24t-6 28.5q0 30 22 52.5t53 22.5t52.5 -22t21.5 -53z" />
    <glyph glyph-name="multiply" unicode="&#xd7;" horiz-adv-x="561" 
d="M378 250l92 -92q19 -19 19 -47q0 -32 -18.5 -51t-50.5 -19q-14 0 -25.5 5.5t-21.5 13.5l-93 94l-94 -95q-9 -9 -21 -14.5t-26 -5.5q-32 0 -50.5 19t-18.5 51q0 14 5.5 26.5t13.5 20.5l94 93q-15 15 -34.5 33t-36.5 36t-28.5 36t-11.5 35q0 32 18.5 51t50.5 19
q30 0 48 -20l92 -92l94 94q10 10 21 15t26 5q32 0 50.5 -19t18.5 -51q0 -28 -19 -47z" />
    <glyph glyph-name="Oslash" unicode="&#xd8;" 
d="M708 757q11 11 26 17.5t32 6.5q30 0 51 -17t21 -44q0 -12 -8 -30t-36 -47q41 -51 64 -114.5t23 -138.5q0 -90 -33.5 -165t-90.5 -128t-132 -82.5t-157 -29.5q-61 0 -117.5 16t-106.5 46l-27 -30q-22 -24 -57 -24q-30 0 -51 18t-21 46q0 29 19 49l32 34q-40 51 -62 113.5
t-22 136.5q0 91 33.5 166t90.5 128t131.5 82.5t157.5 29.5q60 0 116 -16t104 -45zM468 136q57 0 104.5 20.5t82.5 55t54.5 81t19.5 97.5q0 38 -10.5 73t-30.5 65l-338 -366q54 -26 118 -26zM468 644q-57 0 -104.5 -20.5t-82.5 -55t-54.5 -80.5t-19.5 -98q0 -37 10 -71
t28 -63l336 364q-25 11 -53.5 17.5t-59.5 6.5z" />
    <glyph glyph-name="Ugrave" unicode="&#xd9;" horiz-adv-x="1036" 
d="M434 891q-6 8 -10 18.5t-4 21.5q0 26 20 46t46 20q15 0 31 -9.5t24 -21.5q18 -31 28.5 -50t15.5 -30.5t6.5 -17.5t1.5 -10q0 -13 -5.5 -25t-13.5 -21t-18.5 -14.5t-19.5 -5.5q-13 0 -22.5 4t-16.5 9q-8 5 -13 13zM328 629v-333q0 -35 8.5 -65t30.5 -52t58.5 -34t93.5 -12
t93.5 12t58.5 34t30.5 52t8.5 65v333h-58q-29 0 -50 21t-21 50v10q0 28 21 49.5t50 21.5h263q15 0 27.5 -6t22.5 -15.5t15.5 -22.5t5.5 -27v-10q0 -29 -21 -50t-50 -21h-53v-333q0 -56 -13 -112t-50.5 -101t-104.5 -73t-175 -28t-175 28t-104.5 73t-50.5 101t-13 112v333
h-55q-29 0 -50 21t-21 50v10q0 28 21 49.5t50 21.5h263q15 0 27.5 -6t22.5 -16t15.5 -23t5.5 -27v-9q0 -29 -21 -50t-50 -21h-56z" />
    <glyph glyph-name="Uacute" unicode="&#xda;" horiz-adv-x="1036" 
d="M527 792q-9 0 -19.5 5.5t-18.5 14.5t-13.5 21t-5.5 25q0 4 1.5 10t6.5 17.5t15.5 30.5t28.5 50q8 12 23 21.5t32 9.5q26 0 46 -20t20 -46q0 -5 -1.5 -11.5t-8 -18.5t-19.5 -32t-35 -51q-8 -14 -23 -20t-29 -6zM328 629v-333q0 -35 8.5 -65t30.5 -52t58.5 -34t93.5 -12
t93.5 12t58.5 34t30.5 52t8.5 65v333h-58q-29 0 -50 21t-21 50v10q0 28 21 49.5t50 21.5h263q15 0 27.5 -6t22.5 -15.5t15.5 -22.5t5.5 -27v-10q0 -29 -21 -50t-50 -21h-53v-333q0 -56 -13 -112t-50.5 -101t-104.5 -73t-175 -28t-175 28t-104.5 73t-50.5 101t-13 112v333
h-55q-29 0 -50 21t-21 50v10q0 28 21 49.5t50 21.5h263q15 0 27.5 -6t22.5 -16t15.5 -23t5.5 -27v-9q0 -29 -21 -50t-50 -21h-56z" />
    <glyph glyph-name="Ucircumflex" unicode="&#xdb;" horiz-adv-x="1036" 
d="M492 831q-8 -11 -22.5 -19.5t-31.5 -8.5h-13q-23 0 -36.5 13.5t-13.5 36.5q0 8 3 15.5t7 12.5l60 98q8 14 25 21.5t29 7.5h65q15 0 31 -7.5t24 -21.5l59 -95q4 -5 7.5 -14t3.5 -17q0 -23 -13.5 -36.5t-36.5 -13.5h-14q-14 0 -29 7.5t-26 21.5l-38 70zM328 629v-333
q0 -35 8.5 -65t30.5 -52t58.5 -34t93.5 -12t93.5 12t58.5 34t30.5 52t8.5 65v333h-58q-29 0 -50 21t-21 50v10q0 28 21 49.5t50 21.5h263q15 0 27.5 -6t22.5 -15.5t15.5 -22.5t5.5 -27v-10q0 -29 -21 -50t-50 -21h-53v-333q0 -56 -13 -112t-50.5 -101t-104.5 -73t-175 -28
t-175 28t-104.5 73t-50.5 101t-13 112v333h-55q-29 0 -50 21t-21 50v10q0 28 21 49.5t50 21.5h263q15 0 27.5 -6t22.5 -16t15.5 -23t5.5 -27v-9q0 -29 -21 -50t-50 -21h-56z" />
    <glyph glyph-name="Udieresis" unicode="&#xdc;" horiz-adv-x="1036" 
d="M518 893q0 -15 -6 -28.5t-16.5 -24t-24 -16.5t-28.5 -6t-28.5 6t-23.5 16.5t-16 24t-6 28.5q0 30 21.5 52.5t52.5 22.5t53 -22t22 -53zM693 893q0 -15 -6 -28.5t-16.5 -24t-23.5 -16.5t-28 -6t-29 6t-24 16.5t-16 24t-6 28.5q0 30 22 52.5t53 22.5t52.5 -22t21.5 -53z
M328 629v-333q0 -35 8.5 -65t30.5 -52t58.5 -34t93.5 -12t93.5 12t58.5 34t30.5 52t8.5 65v333h-58q-29 0 -50 21t-21 50v10q0 28 21 49.5t50 21.5h263q15 0 27.5 -6t22.5 -15.5t15.5 -22.5t5.5 -27v-10q0 -29 -21 -50t-50 -21h-53v-333q0 -56 -13 -112t-50.5 -101
t-104.5 -73t-175 -28t-175 28t-104.5 73t-50.5 101t-13 112v333h-55q-29 0 -50 21t-21 50v10q0 28 21 49.5t50 21.5h263q15 0 27.5 -6t22.5 -16t15.5 -23t5.5 -27v-9q0 -29 -21 -50t-50 -21h-56z" />
    <glyph glyph-name="Yacute" unicode="&#xdd;" horiz-adv-x="855" 
d="M418 792q-9 0 -19.5 5.5t-18.5 14.5t-13.5 21t-5.5 25q0 4 1.5 10t6.5 17.5t15.5 30.5t28.5 50q8 12 23 21.5t32 9.5q26 0 46 -20t20 -46q0 -5 -1.5 -11.5t-8 -18.5t-19.5 -32t-35 -51q-8 -14 -23 -20t-29 -6zM501 152h56q15 0 27.5 -6t22.5 -15.5t15.5 -22.5t5.5 -27
v-10q0 -29 -21 -50t-50 -21h-263q-29 0 -50 21t-21 50v10q0 28 21 49.5t50 21.5h56v180l-212 297h-57q-29 0 -50 21t-21 50v10q0 28 21 49.5t50 21.5h243q15 0 27.5 -6t22.5 -16t15.5 -23t5.5 -27v-9q0 -29 -21 -50t-50 -21h-2l105 -147l104 147q-29 0 -50 21t-21 50v10
q0 28 21 49.5t50 21.5h243q15 0 27.5 -6t22.5 -15.5t15.5 -22.5t5.5 -27v-10q0 -29 -21 -50t-50 -21h-56l-217 -299v-178z" />
    <glyph glyph-name="Thorn" unicode="&#xde;" horiz-adv-x="915" 
d="M348 461v-139h292q47 0 65.5 18t18.5 51t-18.5 51.5t-65.5 18.5h-292zM196 630h-55q-29 0 -50 21.5t-21 49.5v10q0 29 21 50t50 21h263q29 0 50 -21t21 -50v-10q0 -14 -5.5 -27t-15.5 -22.5t-22.5 -15.5t-27.5 -6h-56l-1 -18h293q108 0 171.5 -54.5t63.5 -166.5
q0 -113 -63.5 -167t-171.5 -54h-292v-18h56q15 0 27.5 -6t22.5 -15.5t15.5 -22.5t5.5 -27v-10q0 -29 -21 -50t-50 -21h-263q-29 0 -50 21t-21 50v10q0 28 21 49.5t50 21.5h55v478z" />
    <glyph glyph-name="germandbls" unicode="&#xdf;" horiz-adv-x="862" 
d="M65 71v6q0 29 20.5 50t50.5 21h55v398q0 77 26 128t66.5 82t89.5 43.5t96 12.5t98 -13t93.5 -41.5t70 -74t27.5 -109.5q0 -56 -23.5 -100t-55.5 -70q21 -10 44 -25.5t41.5 -37t30.5 -50t12 -64.5q0 -44 -17.5 -86t-58 -76t-106 -54.5t-160.5 -20.5q-28 0 -49.5 21
t-21.5 50v5q0 15 6 27.5t15.5 22.5t22.5 15.5t27 5.5q40 0 74.5 7.5t60.5 20.5t41 30.5t15 37.5q0 25 -19 43t-48 29t-63.5 16t-65.5 5q-29 0 -49.5 21t-20.5 52q0 30 20.5 52t49.5 22q76 0 111 29t35 68q0 19 -10.5 36.5t-28.5 30t-43.5 20t-55.5 7.5q-29 0 -53 -7.5
t-40.5 -19.5t-26 -27t-10.5 -30v-508q0 -29 -20.5 -50t-49.5 -21h-132q-29 0 -50 20.5t-21 49.5z" />
    <glyph glyph-name="agrave" unicode="&#xe0;" horiz-adv-x="795" 
d="M301 691q-6 8 -10 18.5t-4 21.5q0 26 20 46t46 20q15 0 31 -9.5t24 -21.5q18 -31 28.5 -50t15.5 -30.5t6.5 -17.5t1.5 -10q0 -13 -5.5 -25t-13.5 -21t-18.5 -14.5t-19.5 -5.5q-13 0 -22.5 4t-16.5 9q-8 5 -13 13zM484 191q-48 -29 -96.5 -46t-117.5 -17q-23 0 -40 15.5
t-17 38.5t18.5 35.5t38.5 12.5h214l2 -6l2 -6t1 -8q0 -10 -5 -19zM491 51q8 -19 25 -35t39 -16h139q29 0 45 21t16 50v6q0 29 -15.5 49.5t-45.5 20.5h-63v153q0 75 -20 125.5t-56 81.5t-86 44t-110 13q-18 0 -44 -3t-54.5 -9t-57 -16t-51 -23.5t-36.5 -31t-14 -39.5
q0 -32 23 -48.5t53 -16.5q12 0 24.5 4t27.5 12q23 11 56 22t73 11q23 0 45.5 -5t40.5 -15t29 -23.5t11 -29.5h-215q-45 0 -82.5 -10.5t-65 -32.5t-42.5 -54.5t-15 -75.5t15 -79t42.5 -61.5t65 -40t82.5 -14.5q31 0 62 6t59.5 15.5t54 21.5t45.5 23z" />
    <glyph glyph-name="aacute" unicode="&#xe1;" horiz-adv-x="795" 
d="M377 592q-9 0 -19.5 5.5t-18.5 14.5t-13.5 21t-5.5 25q0 4 1.5 10t6.5 17.5t15.5 30.5t28.5 50q8 12 23 21.5t32 9.5q26 0 46 -20t20 -46q0 -5 -1.5 -11.5t-8 -18.5t-19.5 -32t-35 -51q-8 -14 -23 -20t-29 -6zM484 191q5 9 5 19q0 5 -1 8l-2 6l-2 6h-214
q-20 0 -38.5 -12.5t-18.5 -35.5t17 -38.5t40 -15.5q69 0 117.5 17t96.5 46zM491 51q-20 -11 -45.5 -23t-54 -21.5t-59.5 -15.5t-62 -6q-45 0 -82.5 14.5t-65 40t-42.5 61.5t-15 79t15 75.5t42.5 54.5t65 32.5t82.5 10.5h215q0 16 -11 29.5t-29 23.5t-40.5 15t-45.5 5
q-40 0 -73 -11t-56 -22q-15 -8 -27.5 -12t-24.5 -4q-30 0 -53 16.5t-23 48.5q0 22 14 39.5t36.5 31t51 23.5t57 16t54.5 9t44 3q60 0 110 -13t86 -44t56 -81.5t20 -125.5v-153h63q30 0 45.5 -20.5t15.5 -49.5v-6q0 -29 -16 -50t-45 -21h-139q-22 0 -39 16t-25 35z" />
    <glyph glyph-name="acircumflex" unicode="&#xe2;" horiz-adv-x="795" 
d="M328 631q-8 -11 -22.5 -19.5t-31.5 -8.5h-13q-23 0 -36.5 13.5t-13.5 36.5q0 8 3 15.5t7 12.5l60 98q8 14 25 21.5t29 7.5h65q15 0 31 -7.5t24 -21.5l59 -95q4 -5 7.5 -14t3.5 -17q0 -23 -13.5 -36.5t-36.5 -13.5h-14q-14 0 -29 7.5t-26 21.5l-38 70zM484 191
q-48 -29 -96.5 -46t-117.5 -17q-23 0 -40 15.5t-17 38.5t18.5 35.5t38.5 12.5h214l2 -6l2 -6t1 -8q0 -10 -5 -19zM491 51q8 -19 25 -35t39 -16h139q29 0 45 21t16 50v6q0 29 -15.5 49.5t-45.5 20.5h-63v153q0 75 -20 125.5t-56 81.5t-86 44t-110 13q-18 0 -44 -3t-54.5 -9
t-57 -16t-51 -23.5t-36.5 -31t-14 -39.5q0 -32 23 -48.5t53 -16.5q12 0 24.5 4t27.5 12q23 11 56 22t73 11q23 0 45.5 -5t40.5 -15t29 -23.5t11 -29.5h-215q-45 0 -82.5 -10.5t-65 -32.5t-42.5 -54.5t-15 -75.5t15 -79t42.5 -61.5t65 -40t82.5 -14.5q31 0 62 6t59.5 15.5
t54 21.5t45.5 23z" />
    <glyph glyph-name="atilde" unicode="&#xe3;" horiz-adv-x="795" 
d="M278 778q21 0 42 -7.5t41.5 -17t39 -17t33.5 -7.5q6 0 12 8.5t13 18t16.5 18t23.5 8.5q27 0 43.5 -18t16.5 -41q0 -8 -4 -27.5t-15.5 -40.5t-32.5 -37t-55 -16q-28 0 -53 8.5t-45.5 18t-36.5 18t-26 8.5q-8 0 -12.5 -9t-10 -19.5t-14 -19.5t-24.5 -9q-20 0 -31.5 7
t-17 16.5t-7 20t-1.5 16.5q0 45 16 69.5t36 35.5q23 13 53 15zM484 191q-48 -29 -96.5 -46t-117.5 -17q-23 0 -40 15.5t-17 38.5t18.5 35.5t38.5 12.5h214l2 -6l2 -6t1 -8q0 -10 -5 -19zM491 51q8 -19 25 -35t39 -16h139q29 0 45 21t16 50v6q0 29 -15.5 49.5t-45.5 20.5h-63
v153q0 75 -20 125.5t-56 81.5t-86 44t-110 13q-18 0 -44 -3t-54.5 -9t-57 -16t-51 -23.5t-36.5 -31t-14 -39.5q0 -32 23 -48.5t53 -16.5q12 0 24.5 4t27.5 12q23 11 56 22t73 11q23 0 45.5 -5t40.5 -15t29 -23.5t11 -29.5h-215q-45 0 -82.5 -10.5t-65 -32.5t-42.5 -54.5
t-15 -75.5t15 -79t42.5 -61.5t65 -40t82.5 -14.5q31 0 62 6t59.5 15.5t54 21.5t45.5 23z" />
    <glyph glyph-name="adieresis" unicode="&#xe4;" horiz-adv-x="795" 
d="M354 683q0 -15 -6 -28.5t-16.5 -24t-24 -16.5t-28.5 -6t-28.5 6t-23.5 16.5t-16 24t-6 28.5q0 30 21.5 52.5t52.5 22.5t53 -22t22 -53zM529 683q0 -15 -6 -28.5t-16.5 -24t-23.5 -16.5t-28 -6t-29 6t-24 16.5t-16 24t-6 28.5q0 30 22 52.5t53 22.5t52.5 -22t21.5 -53z
M484 191q-48 -29 -96.5 -46t-117.5 -17q-23 0 -40 15.5t-17 38.5t18.5 35.5t38.5 12.5h214l2 -6l2 -6t1 -8q0 -10 -5 -19zM491 51q8 -19 25 -35t39 -16h139q29 0 45 21t16 50v6q0 29 -15.5 49.5t-45.5 20.5h-63v153q0 75 -20 125.5t-56 81.5t-86 44t-110 13q-18 0 -44 -3
t-54.5 -9t-57 -16t-51 -23.5t-36.5 -31t-14 -39.5q0 -32 23 -48.5t53 -16.5q12 0 24.5 4t27.5 12q23 11 56 22t73 11q23 0 45.5 -5t40.5 -15t29 -23.5t11 -29.5h-215q-45 0 -82.5 -10.5t-65 -32.5t-42.5 -54.5t-15 -75.5t15 -79t42.5 -61.5t65 -40t82.5 -14.5q31 0 62 6
t59.5 15.5t54 21.5t45.5 23z" />
    <glyph glyph-name="aring" unicode="&#xe5;" horiz-adv-x="795" 
d="M336 722q0 -33 32 -33t32 33t-32 33t-32 -33zM368 857q28 0 52.5 -10.5t42.5 -29t28.5 -43t10.5 -52.5t-10.5 -52t-28.5 -42t-42.5 -28.5t-52.5 -10.5t-52 10.5t-42 28.5t-28.5 42t-10.5 52t10.5 52.5t28.5 43t42 29t52 10.5zM484 191q-48 -29 -96.5 -46t-117.5 -17
q-23 0 -40 15.5t-17 38.5t18.5 35.5t38.5 12.5h214l2 -6l2 -6t1 -8q0 -10 -5 -19zM491 51q8 -19 25 -35t39 -16h139q29 0 45 21t16 50v6q0 29 -15.5 49.5t-45.5 20.5h-63v153q0 75 -20 125.5t-56 81.5t-86 44t-110 13q-18 0 -44 -3t-54.5 -9t-57 -16t-51 -23.5t-36.5 -31
t-14 -39.5q0 -32 23 -48.5t53 -16.5q12 0 24.5 4t27.5 12q23 11 56 22t73 11q23 0 45.5 -5t40.5 -15t29 -23.5t11 -29.5h-215q-45 0 -82.5 -10.5t-65 -32.5t-42.5 -54.5t-15 -75.5t15 -79t42.5 -61.5t65 -40t82.5 -14.5q31 0 62 6t59.5 15.5t54 21.5t45.5 23z" />
    <glyph glyph-name="ae" unicode="&#xe6;" horiz-adv-x="1124" 
d="M783 120q46 0 91 15t73 31q7 4 18 8t19 4q31 0 53 -19.5t22 -51.5q0 -24 -15.5 -42t-40.5 -31.5t-56 -23t-62 -15t-58 -8t-45 -2.5q-74 0 -137 24.5t-105 72.5q-16 -11 -30 -20t-25 -14q-41 -23 -96.5 -43t-118.5 -20q-45 0 -82.5 14.5t-65 40t-42.5 61.5t-15 79t15 75.5
t42.5 54.5t65 32.5t82.5 10.5h204q0 13 -9.5 26t-25 23.5t-36.5 17t-44 6.5q-40 0 -73 -11t-56 -22q-15 -8 -27.5 -12t-24.5 -4q-30 0 -53 16.5t-23 48.5q0 22 14 39.5t36.5 31t51 23.5t57 16t54.5 9t44 3q66 0 119 -15.5t89 -53.5q42 35 97 53t118 18q62 0 113 -17
t87.5 -49t56.5 -77.5t20 -103.5q0 -26 -10 -45.5t-27 -32t-40 -18.5t-49 -6h-299q3 -18 15.5 -35.5t33 -31t46 -22t54.5 -8.5zM213 182q0 -23 17 -38.5t40 -15.5q68 0 116.5 16.5t96.5 45.5q-2 10 -4 19.5t-3 20.5h-206q-20 0 -38.5 -12.5t-18.5 -35.5zM915 338q0 23 -11 41
t-29 30t-42 18t-49 6q-26 0 -50.5 -7.5t-44.5 -20t-34.5 -30t-20.5 -37.5h281z" />
    <glyph glyph-name="ccedilla" unicode="&#xe7;" horiz-adv-x="701" 
d="M50 275q0 73 24.5 127.5t67 91t99 54.5t119.5 18q27 0 67 -7t80 -21q19 16 45 16h8q29 0 50 -21t21 -50v-101q0 -29 -21 -50t-50 -21h-8q-29 0 -50 20.5t-21 50.5v9q-24 13 -53.5 22.5t-64.5 9.5q-45 0 -75.5 -13.5t-49.5 -35t-27.5 -48.5t-8.5 -53q0 -24 8 -50t27 -47.5
t49.5 -35t74.5 -13.5q47 0 91.5 16t71.5 32q7 4 18 8t19 4q31 0 53 -19.5t22 -51.5q0 -28 -21 -49t-53 -36.5t-70 -25t-71 -14.5l-21 -30q35 -5 59 -25t24 -67q0 -36 -15 -58.5t-38 -35t-51.5 -17t-56.5 -4.5q-4 0 -24 2t-42.5 8.5t-40.5 20t-18 36.5q0 20 14 34.5t34 14.5
q13 0 23 -5q11 -8 23.5 -9.5t21.5 -1.5h12q10 0 22 3t12 12q0 7 -2.5 14.5t-16.5 7.5t-28 -5.5t-28 -5.5q-13 0 -23.5 8.5t-10.5 23.5q0 6 3.5 13t8.5 15l35 50q-53 8 -98.5 30t-78.5 58t-51.5 85.5t-18.5 111.5z" />
    <glyph glyph-name="egrave" unicode="&#xe8;" horiz-adv-x="711" 
d="M502 338q0 23 -11 41t-29 30t-42 18t-49 6q-26 0 -50.5 -7.5t-44.5 -20t-34.5 -30t-20.5 -37.5h281zM370 120q46 0 91 15t73 31q7 4 18 8t19 4q31 0 53 -19.5t22 -51.5q0 -24 -15.5 -42t-40.5 -31.5t-56 -23t-62 -15t-58 -8t-45 -2.5q-64 0 -120.5 18.5t-98.5 55.5
t-66 91t-24 125t24 125.5t66 91t98.5 55.5t120.5 19q62 0 113 -17t87.5 -49t56.5 -77.5t20 -103.5q0 -26 -10 -45.5t-27 -32t-40 -18.5t-49 -6h-299q3 -18 15.5 -35.5t33 -31t46 -22t54.5 -8.5zM280 701q-6 8 -10 18.5t-4 21.5q0 26 20 46t46 20q15 0 31 -9.5t24 -21.5
q18 -31 28.5 -50t15.5 -30.5t6.5 -17.5t1.5 -10q0 -13 -5.5 -25t-13.5 -21t-18.5 -14.5t-19.5 -5.5q-13 0 -22.5 4t-16.5 9q-8 5 -13 13z" />
    <glyph glyph-name="eacute" unicode="&#xe9;" horiz-adv-x="711" 
d="M502 338q0 23 -11 41t-29 30t-42 18t-49 6q-26 0 -50.5 -7.5t-44.5 -20t-34.5 -30t-20.5 -37.5h281zM370 120q46 0 91 15t73 31q7 4 18 8t19 4q31 0 53 -19.5t22 -51.5q0 -24 -15.5 -42t-40.5 -31.5t-56 -23t-62 -15t-58 -8t-45 -2.5q-64 0 -120.5 18.5t-98.5 55.5
t-66 91t-24 125t24 125.5t66 91t98.5 55.5t120.5 19q62 0 113 -17t87.5 -49t56.5 -77.5t20 -103.5q0 -26 -10 -45.5t-27 -32t-40 -18.5t-49 -6h-299q3 -18 15.5 -35.5t33 -31t46 -22t54.5 -8.5zM363 602q-9 0 -19.5 5.5t-18.5 14.5t-13.5 21t-5.5 25q0 4 1.5 10t6.5 17.5
t15.5 30.5t28.5 50q8 12 23 21.5t32 9.5q26 0 46 -20t20 -46q0 -5 -1.5 -11.5t-8 -18.5t-19.5 -32t-35 -51q-8 -14 -23 -20t-29 -6z" />
    <glyph glyph-name="ecircumflex" unicode="&#xea;" horiz-adv-x="711" 
d="M502 338q0 23 -11 41t-29 30t-42 18t-49 6q-26 0 -50.5 -7.5t-44.5 -20t-34.5 -30t-20.5 -37.5h281zM370 120q46 0 91 15t73 31q7 4 18 8t19 4q31 0 53 -19.5t22 -51.5q0 -24 -15.5 -42t-40.5 -31.5t-56 -23t-62 -15t-58 -8t-45 -2.5q-64 0 -120.5 18.5t-98.5 55.5
t-66 91t-24 125t24 125.5t66 91t98.5 55.5t120.5 19q62 0 113 -17t87.5 -49t56.5 -77.5t20 -103.5q0 -26 -10 -45.5t-27 -32t-40 -18.5t-49 -6h-299q3 -18 15.5 -35.5t33 -31t46 -22t54.5 -8.5zM327 631q-8 -11 -22.5 -19.5t-31.5 -8.5h-13q-23 0 -36.5 13.5t-13.5 36.5
q0 8 3 15.5t7 12.5l60 98q8 14 25 21.5t29 7.5h65q15 0 31 -7.5t24 -21.5l59 -95q4 -5 7.5 -14t3.5 -17q0 -23 -13.5 -36.5t-36.5 -13.5h-14q-14 0 -29 7.5t-26 21.5l-38 70z" />
    <glyph glyph-name="edieresis" unicode="&#xeb;" horiz-adv-x="711" 
d="M502 338q0 23 -11 41t-29 30t-42 18t-49 6q-26 0 -50.5 -7.5t-44.5 -20t-34.5 -30t-20.5 -37.5h281zM370 120q46 0 91 15t73 31q7 4 18 8t19 4q31 0 53 -19.5t22 -51.5q0 -24 -15.5 -42t-40.5 -31.5t-56 -23t-62 -15t-58 -8t-45 -2.5q-64 0 -120.5 18.5t-98.5 55.5
t-66 91t-24 125t24 125.5t66 91t98.5 55.5t120.5 19q62 0 113 -17t87.5 -49t56.5 -77.5t20 -103.5q0 -26 -10 -45.5t-27 -32t-40 -18.5t-49 -6h-299q3 -18 15.5 -35.5t33 -31t46 -22t54.5 -8.5zM363 683q0 -15 -6 -28.5t-16.5 -24t-24 -16.5t-28.5 -6t-28.5 6t-23.5 16.5
t-16 24t-6 28.5q0 30 21.5 52.5t52.5 22.5t53 -22t22 -53zM538 683q0 -15 -6 -28.5t-16.5 -24t-23.5 -16.5t-28 -6t-29 6t-24 16.5t-16 24t-6 28.5q0 30 22 52.5t53 22.5t52.5 -22t21.5 -53z" />
    <glyph glyph-name="igrave" unicode="&#xec;" horiz-adv-x="556" 
d="M218 701q-6 8 -10 18.5t-4 21.5q0 26 20 46t46 20q15 0 31 -9.5t24 -21.5q18 -31 28.5 -50t15.5 -30.5t6.5 -17.5t1.5 -10q0 -13 -5.5 -25t-13.5 -21t-18.5 -14.5t-19.5 -5.5q-13 0 -22.5 4t-16.5 9q-8 5 -13 13zM215 405h-69q-29 0 -50 21.5t-21 49.5v6q0 29 21 50
t50 21h148q29 0 50 -21t21 -50v-333h70q29 0 50 -21t21 -50v-6q0 -14 -5.5 -27t-15.5 -22.5t-22.5 -15.5t-27.5 -6h-289q-29 0 -50 21.5t-21 49.5v6q0 29 21 50t50 21h69v256z" />
    <glyph glyph-name="iacute" unicode="&#xed;" horiz-adv-x="556" 
d="M261 602q-9 0 -19.5 5.5t-18.5 14.5t-13.5 21t-5.5 25q0 4 1.5 10t6.5 17.5t15.5 30.5t28.5 50q8 12 23 21.5t32 9.5q26 0 46 -20t20 -46q0 -5 -1.5 -11.5t-8 -18.5t-19.5 -32t-35 -51q-8 -14 -23 -20t-29 -6zM215 405h-69q-29 0 -50 21.5t-21 49.5v6q0 29 21 50t50 21
h148q29 0 50 -21t21 -50v-333h70q29 0 50 -21t21 -50v-6q0 -14 -5.5 -27t-15.5 -22.5t-22.5 -15.5t-27.5 -6h-289q-29 0 -50 21.5t-21 49.5v6q0 29 21 50t50 21h69v256z" />
    <glyph glyph-name="icircumflex" unicode="&#xee;" horiz-adv-x="556" 
d="M246 631q-8 -11 -22.5 -19.5t-31.5 -8.5h-13q-23 0 -36.5 13.5t-13.5 36.5q0 8 3 15.5t7 12.5l60 98q8 14 25 21.5t29 7.5h65q15 0 31 -7.5t24 -21.5l59 -95q4 -5 7.5 -14t3.5 -17q0 -23 -13.5 -36.5t-36.5 -13.5h-14q-14 0 -29 7.5t-26 21.5l-38 70zM215 405h-69
q-29 0 -50 21.5t-21 49.5v6q0 29 21 50t50 21h148q29 0 50 -21t21 -50v-333h70q29 0 50 -21t21 -50v-6q0 -14 -5.5 -27t-15.5 -22.5t-22.5 -15.5t-27.5 -6h-289q-29 0 -50 21.5t-21 49.5v6q0 29 21 50t50 21h69v256z" />
    <glyph glyph-name="idieresis" unicode="&#xef;" horiz-adv-x="556" 
d="M273 683q0 -15 -6 -28.5t-16.5 -24t-24 -16.5t-28.5 -6t-28.5 6t-23.5 16.5t-16 24t-6 28.5q0 30 21.5 52.5t52.5 22.5t53 -22t22 -53zM448 683q0 -15 -6 -28.5t-16.5 -24t-23.5 -16.5t-28 -6t-29 6t-24 16.5t-16 24t-6 28.5q0 30 22 52.5t53 22.5t52.5 -22t21.5 -53z
M215 405h-69q-29 0 -50 21.5t-21 49.5v6q0 29 21 50t50 21h148q29 0 50 -21t21 -50v-333h70q29 0 50 -21t21 -50v-6q0 -14 -5.5 -27t-15.5 -22.5t-22.5 -15.5t-27.5 -6h-289q-29 0 -50 21.5t-21 49.5v6q0 29 21 50t50 21h69v256z" />
    <glyph glyph-name="eth" unicode="&#xf0;" horiz-adv-x="732" 
d="M525 275q0 30 -10 56.5t-30 47t-50 32.5t-71 12q-42 0 -72 -12t-50 -32.5t-29.5 -47t-9.5 -56.5q0 -29 9.5 -55.5t29.5 -47t50.5 -32.5t71.5 -12t71.5 12t50.5 32.5t29.5 47t9.5 55.5zM51 275q0 63 21 114.5t56 88.5t81 57.5t97 20.5q12 0 23.5 -1.5t23.5 -3.5
q-18 16 -30.5 24.5t-21.5 12.5t-15 5.5t-10 4.5q-31 -17 -61 -34.5t-56 -17.5q-20 0 -35 11.5t-15 43.5q0 17 12 33t27 26q-9 4 -20 10l-22 12t-20 11t-13 8q-23 20 -23 47q0 25 17 42t41 17q7 0 24.5 -5t41.5 -14t53 -21t59 -26q24 13 49 26.5t50 24.5q14 7 28 7
q21 0 42.5 -17t21.5 -49q0 -18 -13.5 -33.5t-29.5 -23.5l-15 -8q40 -27 78 -59.5t70.5 -70t57 -80t38.5 -88.5q14 -47 14 -95q0 -57 -19 -109.5t-57.5 -92.5t-97.5 -64t-139 -24t-139 24t-97.5 64t-57.5 92.5t-19 109.5z" />
    <glyph glyph-name="ntilde" unicode="&#xf1;" horiz-adv-x="915" 
d="M350 778q21 0 42 -7.5t41.5 -17t39 -17t33.5 -7.5q6 0 12 8.5t13 18t16.5 18t23.5 8.5q27 0 43.5 -18t16.5 -41q0 -8 -4 -27.5t-15.5 -40.5t-32.5 -37t-55 -16q-28 0 -53 8.5t-45.5 18t-36.5 18t-26 8.5q-8 0 -12.5 -9t-10 -19.5t-14 -19.5t-24.5 -9q-20 0 -31.5 7
t-17 16.5t-7 20t-1.5 16.5q0 45 16 69.5t36 35.5q23 13 53 15zM726 149h78q29 0 50 -21t21 -50v-6q0 -14 -5.5 -27t-15.5 -22.5t-22.5 -15.5t-27.5 -6h-155q-30 0 -50.5 20.5t-20.5 50.5v256q0 14 -5.5 30t-19 29t-36 21.5t-56.5 8.5q-22 0 -43 -7.5t-37.5 -21t-26.5 -31.5
t-10 -38v-171h77q29 0 50 -21t21 -50v-6q0 -14 -5.5 -27t-15.5 -22.5t-22.5 -15.5t-27.5 -6h-280q-29 0 -50 21.5t-21 49.5v6q0 29 21 50t50 21h53v259h-62q-30 0 -45.5 20.5t-15.5 49.5v6q0 29 16 50t45 21h139q10 0 21.5 -4t21 -10t16 -14t6.5 -17q25 21 56.5 38t69.5 17
q72 0 122 -18t81.5 -50t46 -75t14.5 -93v-179z" />
    <glyph glyph-name="ograve" unicode="&#xf2;" horiz-adv-x="736" 
d="M207 275q0 -29 9.5 -55.5t29.5 -47t50.5 -32.5t71.5 -12t71.5 12t50.5 32.5t29.5 47t9.5 55.5q0 30 -9.5 57t-29.5 47t-50 32t-72 12t-72 -12t-50 -32.5t-29.5 -47t-9.5 -56.5zM55 275q0 57 19 110t57.5 93t97.5 64t139 24q81 0 140 -24t97.5 -64t57 -92.5t18.5 -110.5
q0 -57 -19 -109.5t-57.5 -92.5t-97.5 -64t-139 -24t-139 24t-97.5 64t-57.5 92.5t-19 109.5zM311 701q-6 8 -10 18.5t-4 21.5q0 26 20 46t46 20q15 0 31 -9.5t24 -21.5q18 -31 28.5 -50t15.5 -30.5t6.5 -17.5t1.5 -10q0 -13 -5.5 -25t-13.5 -21t-18.5 -14.5t-19.5 -5.5
q-13 0 -22.5 4t-16.5 9q-8 5 -13 13z" />
    <glyph glyph-name="oacute" unicode="&#xf3;" horiz-adv-x="736" 
d="M207 275q0 -29 9.5 -55.5t29.5 -47t50.5 -32.5t71.5 -12t71.5 12t50.5 32.5t29.5 47t9.5 55.5q0 30 -9.5 57t-29.5 47t-50 32t-72 12t-72 -12t-50 -32.5t-29.5 -47t-9.5 -56.5zM55 275q0 57 19 110t57.5 93t97.5 64t139 24q81 0 140 -24t97.5 -64t57 -92.5t18.5 -110.5
q0 -57 -19 -109.5t-57.5 -92.5t-97.5 -64t-139 -24t-139 24t-97.5 64t-57.5 92.5t-19 109.5zM384 602q-9 0 -19.5 5.5t-18.5 14.5t-13.5 21t-5.5 25q0 4 1.5 10t6.5 17.5t15.5 30.5t28.5 50q8 12 23 21.5t32 9.5q26 0 46 -20t20 -46q0 -5 -1.5 -11.5t-8 -18.5t-19.5 -32
t-35 -51q-8 -14 -23 -20t-29 -6z" />
    <glyph glyph-name="ocircumflex" unicode="&#xf4;" horiz-adv-x="736" 
d="M207 275q0 -29 9.5 -55.5t29.5 -47t50.5 -32.5t71.5 -12t71.5 12t50.5 32.5t29.5 47t9.5 55.5q0 30 -9.5 57t-29.5 47t-50 32t-72 12t-72 -12t-50 -32.5t-29.5 -47t-9.5 -56.5zM55 275q0 57 19 110t57.5 93t97.5 64t139 24q81 0 140 -24t97.5 -64t57 -92.5t18.5 -110.5
q0 -57 -19 -109.5t-57.5 -92.5t-97.5 -64t-139 -24t-139 24t-97.5 64t-57.5 92.5t-19 109.5zM339 631q-8 -11 -22.5 -19.5t-31.5 -8.5h-13q-23 0 -36.5 13.5t-13.5 36.5q0 8 3 15.5t7 12.5l60 98q8 14 25 21.5t29 7.5h65q15 0 31 -7.5t24 -21.5l59 -95q4 -5 7.5 -14t3.5 -17
q0 -23 -13.5 -36.5t-36.5 -13.5h-14q-14 0 -29 7.5t-26 21.5l-38 70z" />
    <glyph glyph-name="otilde" unicode="&#xf5;" horiz-adv-x="736" 
d="M207 275q0 -29 9.5 -55.5t29.5 -47t50.5 -32.5t71.5 -12t71.5 12t50.5 32.5t29.5 47t9.5 55.5q0 30 -9.5 57t-29.5 47t-50 32t-72 12t-72 -12t-50 -32.5t-29.5 -47t-9.5 -56.5zM55 275q0 57 19 110t57.5 93t97.5 64t139 24q81 0 140 -24t97.5 -64t57 -92.5t18.5 -110.5
q0 -57 -19 -109.5t-57.5 -92.5t-97.5 -64t-139 -24t-139 24t-97.5 64t-57.5 92.5t-19 109.5zM288 778q21 0 42 -7.5t41.5 -17t39 -17t33.5 -7.5q6 0 12 8.5t13 18t16.5 18t23.5 8.5q27 0 43.5 -18t16.5 -41q0 -8 -4 -27.5t-15.5 -40.5t-32.5 -37t-55 -16q-28 0 -53 8.5
t-45.5 18t-36.5 18t-26 8.5q-8 0 -12.5 -9t-10 -19.5t-14 -19.5t-24.5 -9q-20 0 -31.5 7t-17 16.5t-7 20t-1.5 16.5q0 45 16 69.5t36 35.5q23 13 53 15z" />
    <glyph glyph-name="odieresis" unicode="&#xf6;" horiz-adv-x="736" 
d="M207 275q0 -29 9.5 -55.5t29.5 -47t50.5 -32.5t71.5 -12t71.5 12t50.5 32.5t29.5 47t9.5 55.5q0 30 -9.5 57t-29.5 47t-50 32t-72 12t-72 -12t-50 -32.5t-29.5 -47t-9.5 -56.5zM55 275q0 57 19 110t57.5 93t97.5 64t139 24q81 0 140 -24t97.5 -64t57 -92.5t18.5 -110.5
q0 -57 -19 -109.5t-57.5 -92.5t-97.5 -64t-139 -24t-139 24t-97.5 64t-57.5 92.5t-19 109.5zM365 683q0 -15 -6 -28.5t-16.5 -24t-24 -16.5t-28.5 -6t-28.5 6t-23.5 16.5t-16 24t-6 28.5q0 30 21.5 52.5t52.5 22.5t53 -22t22 -53zM540 683q0 -15 -6 -28.5t-16.5 -24
t-23.5 -16.5t-28 -6t-29 6t-24 16.5t-16 24t-6 28.5q0 30 22 52.5t53 22.5t52.5 -22t21.5 -53z" />
    <glyph glyph-name="divide" unicode="&#xf7;" horiz-adv-x="628" 
d="M126 192q-28 0 -47 20t-19 45v6q0 24 19 44.5t47 20.5h376q27 0 46.5 -19t19.5 -46v-6q0 -27 -19.5 -46t-46.5 -19h-376zM415 82q0 -39 -26 -65t-64 -26q-39 0 -65.5 26t-26.5 65q0 38 26.5 64.5t65.5 26.5q38 0 64 -26.5t26 -64.5zM415 442q0 -39 -26 -65t-64 -26
q-39 0 -65.5 26t-26.5 65q0 38 26.5 64.5t65.5 26.5q38 0 64 -26.5t26 -64.5z" />
    <glyph glyph-name="oslash" unicode="&#xf8;" horiz-adv-x="736" 
d="M55 275q0 57 19 110t57.5 93t97.5 64t139 24q38 0 70.5 -5.5t61.5 -16.5q18 16 43 16t41 -13.5t16 -37.5q0 -13 -5 -22q44 -41 65 -96t21 -116q0 -57 -19 -109.5t-57.5 -92.5t-97.5 -64t-139 -24q-42 0 -78 7t-66 19l-6 -8q-8 -10 -21 -16t-27 -6q-24 0 -40.5 13.5
t-16.5 36.5q0 10 3.5 20t14.5 22q-38 40 -57 92.5t-19 109.5zM368 128q41 0 71.5 12t50.5 32.5t29.5 47t9.5 55.5q0 53 -28 90l-182 -232q11 -3 23 -4t26 -1zM207 275q0 -21 5 -41.5t16 -37.5l175 224q-17 3 -35 3q-42 0 -72 -12t-50 -32.5t-29.5 -47t-9.5 -56.5z" />
    <glyph glyph-name="ugrave" unicode="&#xf9;" horiz-adv-x="833" 
d="M344 691q-6 8 -10 18.5t-4 21.5q0 26 20 46t46 20q15 0 31 -9.5t24 -21.5q18 -31 28.5 -50t15.5 -30.5t6.5 -17.5t1.5 -10q0 -13 -5.5 -25t-13.5 -21t-18.5 -14.5t-19.5 -5.5q-13 0 -22.5 4t-16.5 9q-8 5 -13 13zM669 146v335q0 29 -21 50t-50 21h-139q-29 0 -45 -21
t-16 -50v-6q0 -29 15.5 -49.5t45.5 -20.5h61v-174q0 -20 -10 -38t-26.5 -31.5t-37.5 -21t-43 -7.5q-34 0 -56.5 8.5t-36 21.5t-19 29t-5.5 30v259q0 29 -21 50t-50 21h-139q-29 0 -45 -21t-16 -50v-6q0 -29 15.5 -49.5t45.5 -20.5h63v-188q0 -49 14.5 -91t46.5 -73t81.5 -49
t120.5 -18q38 0 69.5 17t56.5 38q8 -19 25.5 -30.5t39.5 -11.5h139q29 0 45 21t16 50v6q0 29 -15.5 49.5t-45.5 20.5h-63z" />
    <glyph glyph-name="uacute" unicode="&#xfa;" horiz-adv-x="833" 
d="M407 592q-9 0 -19.5 5.5t-18.5 14.5t-13.5 21t-5.5 25q0 4 1.5 10t6.5 17.5t15.5 30.5t28.5 50q8 12 23 21.5t32 9.5q26 0 46 -20t20 -46q0 -5 -1.5 -11.5t-8 -18.5t-19.5 -32t-35 -51q-8 -14 -23 -20t-29 -6zM732 146q30 0 45.5 -20.5t15.5 -49.5v-6q0 -29 -16 -50
t-45 -21h-139q-22 0 -39.5 11.5t-25.5 30.5q-25 -21 -56.5 -38t-69.5 -17q-71 0 -120.5 18t-81.5 49t-46.5 73t-14.5 91v188h-63q-30 0 -45.5 20.5t-15.5 49.5v6q0 29 16 50t45 21h139q29 0 50 -21t21 -50v-259q0 -14 5.5 -30t19 -29t36 -21.5t56.5 -8.5q22 0 43 7.5
t37.5 21t26.5 31.5t10 38v174h-61q-30 0 -45.5 20.5t-15.5 49.5v6q0 29 16 50t45 21h139q29 0 50 -21t21 -50v-335h63z" />
    <glyph glyph-name="ucircumflex" unicode="&#xfb;" horiz-adv-x="833" 
d="M371 631q-8 -11 -22.5 -19.5t-31.5 -8.5h-13q-23 0 -36.5 13.5t-13.5 36.5q0 8 3 15.5t7 12.5l60 98q8 14 25 21.5t29 7.5h65q15 0 31 -7.5t24 -21.5l59 -95q4 -5 7.5 -14t3.5 -17q0 -23 -13.5 -36.5t-36.5 -13.5h-14q-14 0 -29 7.5t-26 21.5l-38 70zM669 146v335
q0 29 -21 50t-50 21h-139q-29 0 -45 -21t-16 -50v-6q0 -29 15.5 -49.5t45.5 -20.5h61v-174q0 -20 -10 -38t-26.5 -31.5t-37.5 -21t-43 -7.5q-34 0 -56.5 8.5t-36 21.5t-19 29t-5.5 30v259q0 29 -21 50t-50 21h-139q-29 0 -45 -21t-16 -50v-6q0 -29 15.5 -49.5t45.5 -20.5h63
v-188q0 -49 14.5 -91t46.5 -73t81.5 -49t120.5 -18q38 0 69.5 17t56.5 38q8 -19 25.5 -30.5t39.5 -11.5h139q29 0 45 21t16 50v6q0 29 -15.5 49.5t-45.5 20.5h-63z" />
    <glyph glyph-name="udieresis" unicode="&#xfc;" horiz-adv-x="833" 
d="M397 683q0 -15 -6 -28.5t-16.5 -24t-24 -16.5t-28.5 -6t-28.5 6t-23.5 16.5t-16 24t-6 28.5q0 30 21.5 52.5t52.5 22.5t53 -22t22 -53zM572 683q0 -15 -6 -28.5t-16.5 -24t-23.5 -16.5t-28 -6t-29 6t-24 16.5t-16 24t-6 28.5q0 30 22 52.5t53 22.5t52.5 -22t21.5 -53z
M669 146v335q0 29 -21 50t-50 21h-139q-29 0 -45 -21t-16 -50v-6q0 -29 15.5 -49.5t45.5 -20.5h61v-174q0 -20 -10 -38t-26.5 -31.5t-37.5 -21t-43 -7.5q-34 0 -56.5 8.5t-36 21.5t-19 29t-5.5 30v259q0 29 -21 50t-50 21h-139q-29 0 -45 -21t-16 -50v-6q0 -29 15.5 -49.5
t45.5 -20.5h63v-188q0 -49 14.5 -91t46.5 -73t81.5 -49t120.5 -18q38 0 69.5 17t56.5 38q8 -19 25.5 -30.5t39.5 -11.5h139q29 0 45 21t16 50v6q0 29 -15.5 49.5t-45.5 20.5h-63z" />
    <glyph glyph-name="yacute" unicode="&#xfd;" horiz-adv-x="837" 
d="M405 592q-9 0 -19.5 5.5t-18.5 14.5t-13.5 21t-5.5 25q0 4 1.5 10t6.5 17.5t15.5 30.5t28.5 50q8 12 23 21.5t32 9.5q26 0 46 -20t20 -46q0 -5 -1.5 -11.5t-8 -18.5t-19.5 -32t-35 -51q-8 -14 -23 -20t-29 -6zM235 -239q-16 0 -32.5 6t-29.5 16.5t-21.5 25t-8.5 32.5
q0 16 7 26.5t18 18t23.5 11.5t23.5 6q3 1 18.5 5.5t35.5 16t41.5 31t37.5 49.5q-11 5 -19 17t-13 21l-170 364h-75q-30 0 -45.5 20.5t-15.5 49.5v6q0 29 16 50t45 21h259q29 0 45 -21t16 -50v-6q0 -29 -15.5 -49.5t-45.5 -20.5h-20l108 -232q27 58 54.5 116t55.5 116h-21
q-30 0 -45.5 20.5t-15.5 49.5v6q0 29 16 50t45 21h259q29 0 45 -21t16 -50v-6q0 -29 -15.5 -49.5t-45.5 -20.5h-73l-208 -441q-27 -57 -60.5 -96t-67.5 -63.5t-66 -35t-56 -10.5z" />
    <glyph glyph-name="thorn" unicode="&#xfe;" horiz-adv-x="816" 
d="M311 521q32 20 69.5 32.5t73.5 12.5q80 0 139 -24t97.5 -64t57 -92.5t18.5 -110.5q0 -57 -19 -109.5t-57.5 -92.5t-97 -64t-138.5 -24q-42 0 -76.5 9t-66.5 29v-108h53q29 0 50 -21t21 -50v-6q0 -14 -5.5 -27t-15.5 -22.5t-22.5 -15.5t-27.5 -6h-253q-29 0 -50 21.5
t-21 49.5v6q0 29 21 50t50 21h53v719h-63q-30 0 -45.5 20.5t-15.5 49.5v6q0 29 16 50t45 21h138q29 0 50 -21t21 -50zM458 128q48 0 85.5 22t57.5 55q6 8 10 28t4 44q0 20 -3 38t-11 30q-20 35 -56.5 56.5t-86.5 21.5q-42 0 -72 -12t-50 -32t-29.5 -47t-9.5 -57
q0 -29 9.5 -55.5t29.5 -47t50.5 -32.5t71.5 -12z" />
    <glyph glyph-name="ydieresis" unicode="&#xff;" horiz-adv-x="837" 
d="M416 683q0 -15 -6 -28.5t-16.5 -24t-24 -16.5t-28.5 -6t-28.5 6t-23.5 16.5t-16 24t-6 28.5q0 30 21.5 52.5t52.5 22.5t53 -22t22 -53zM591 683q0 -15 -6 -28.5t-16.5 -24t-23.5 -16.5t-28 -6t-29 6t-24 16.5t-16 24t-6 28.5q0 30 22 52.5t53 22.5t52.5 -22t21.5 -53z
M235 -239q-16 0 -32.5 6t-29.5 16.5t-21.5 25t-8.5 32.5q0 16 7 26.5t18 18t23.5 11.5t23.5 6q3 1 18.5 5.5t35.5 16t41.5 31t37.5 49.5q-11 5 -19 17t-13 21l-170 364h-75q-30 0 -45.5 20.5t-15.5 49.5v6q0 29 16 50t45 21h259q29 0 45 -21t16 -50v-6q0 -29 -15.5 -49.5
t-45.5 -20.5h-20l108 -232q27 58 54.5 116t55.5 116h-21q-30 0 -45.5 20.5t-15.5 49.5v6q0 29 16 50t45 21h259q29 0 45 -21t16 -50v-6q0 -29 -15.5 -49.5t-45.5 -20.5h-73l-208 -441q-27 -57 -60.5 -96t-67.5 -63.5t-66 -35t-56 -10.5z" />
    <glyph glyph-name="dotlessi" unicode="&#x131;" horiz-adv-x="556" 
d="M215 405h-69q-29 0 -50 21.5t-21 49.5v6q0 29 21 50t50 21h148q29 0 50 -21t21 -50v-333h70q29 0 50 -21t21 -50v-6q0 -14 -5.5 -27t-15.5 -22.5t-22.5 -15.5t-27.5 -6h-289q-29 0 -50 21.5t-21 49.5v6q0 29 21 50t50 21h69v256z" />
    <glyph glyph-name="Lslash" unicode="&#x141;" horiz-adv-x="817" 
d="M636 151v58q0 15 6 27.5t15.5 22.5t22.5 15.5t27 5.5h9q30 0 50.5 -21t20.5 -50v-134q0 -15 -6.5 -28.5t-17 -24t-24.5 -16.5t-29 -6h-556q-29 0 -50 21t-21 50v10q0 28 21 49.5t50 21.5h40v106l-9 -6q-8 -4 -16 -6.5t-16 -2.5q-10 0 -21.5 5t-21.5 14t-17 22.5t-7 30.5
q4 17 10.5 27.5t15.5 18.5l83 57v211h-54q-29 0 -50 21t-21 50v10q0 28 21 49.5t50 21.5h263q15 0 27.5 -6t22.5 -15.5t15.5 -22.5t5.5 -27v-10q0 -29 -21 -50t-50 -21h-59v-105l69 47q15 12 33 12q10 0 21.5 -4.5t21.5 -13.5t17 -21.5t7 -28.5q0 -20 -8 -31t-19 -18v1
q-38 -27 -70.5 -50.5t-70.5 -50.5v-215h290z" />
    <glyph glyph-name="lslash" unicode="&#x142;" horiz-adv-x="474" 
d="M144 634h-58q-30 0 -45.5 20.5t-15.5 49.5v6q0 29 16 50t45 21h139q29 0 50 -21t21 -50v-226q10 7 19 13.5t19 13.5q17 10 33 10q10 0 22 -4.5t22 -13t16.5 -21t6.5 -28.5q0 -20 -7.5 -31.5t-18.5 -18.5l1 1q-31 -22 -57 -39.5t-56 -39.5v-39q0 -48 11.5 -79t25.5 -50
q17 -22 38 -34l3 -2q15 -9 23.5 -23.5t8.5 -37.5q0 -18 -7.5 -31t-19.5 -21.5t-26.5 -13t-29.5 -4.5q-20 0 -46 13.5t-51.5 42t-46.5 71.5t-30 102q-5 -3 -10 -6.5t-10 -6.5q0 -1 -1 -1h-4q-14 -3 -23 -3q-10 0 -21.5 5t-21.5 14.5t-17 22.5t-7 30q4 18 10.5 28.5t15.5 17.5
l84 59v254z" />
    <glyph glyph-name="OE" unicode="&#x152;" horiz-adv-x="1409" 
d="M1178 629h-301q-21 0 -36.5 -7.5t-26 -18.5t-16 -25.5t-5.5 -27.5t5.5 -27.5t16 -26.5t26 -20t36.5 -8h272q20 0 35 -6.5t25.5 -17.5t16 -25t5.5 -29q0 -29 -21 -52.5t-61 -23.5h-272q-21 0 -36.5 -8t-26 -20t-16 -27t-5.5 -28t5.5 -27t16 -25.5t26 -19t36.5 -7.5h301v7
q0 29 21 50t50 21h9q29 0 50 -21t21 -50v-84q-2 -29 -23.5 -52t-52.5 -23h-376q-47 0 -89.5 15t-75.5 45q-52 -36 -114.5 -55.5t-129.5 -19.5q-83 0 -157.5 29t-131.5 82.5t-90.5 128t-33.5 165.5t33.5 166t90.5 128t131.5 82.5t157.5 29.5q67 0 129 -19.5t114 -56.5
q33 31 76 46.5t90 15.5h376q31 0 52.5 -23t23.5 -52v-84q0 -29 -21 -50t-50 -21h-9q-29 0 -50 21t-21 50v6zM642 231q0 26 7 49.5t18 43.5t24.5 36.5t25.5 29.5q-12 13 -25.5 30t-24.5 37t-18 43.5t-7 49.5v15t1 15q-34 29 -78.5 46.5t-96.5 17.5q-57 0 -104.5 -20.5
t-82.5 -55t-54.5 -80.5t-19.5 -98q0 -51 19.5 -97.5t54.5 -81t82.5 -55t104.5 -20.5q53 0 97.5 17t78.5 47q-1 8 -1.5 15.5t-0.5 15.5z" />
    <glyph glyph-name="oe" unicode="&#x153;" horiz-adv-x="1154" 
d="M813 120q46 0 91 15t73 31q7 4 18 8t19 4q31 0 53 -19.5t22 -51.5q0 -24 -15.5 -42t-40.5 -31.5t-56 -23t-62 -15t-58 -8t-45 -2.5q-66 0 -122 18.5t-98 56.5q-39 -35 -94.5 -55t-129.5 -20q-80 0 -139 24t-97.5 64t-57.5 92.5t-19 109.5t19 110t57.5 93t97.5 64t139 24
q74 0 130 -20.5t94 -55.5q42 38 98 57t122 19q62 0 113 -17t87.5 -49t56.5 -77.5t20 -103.5q0 -26 -10 -45.5t-27 -32t-40 -18.5t-49 -6h-299q3 -18 15.5 -35.5t33 -31t46 -22t54.5 -8.5zM207 275q0 -29 9.5 -55.5t29.5 -47t50.5 -32.5t71.5 -12q54 0 89.5 20.5t53.5 52.5
q-4 17 -6 35.5t-2 38.5t1.5 39t6.5 36q-18 32 -53 52.5t-90 20.5q-42 0 -72 -12t-50 -32.5t-29.5 -47t-9.5 -56.5zM945 338q0 23 -11 41t-29 30t-42 18t-49 6q-26 0 -50.5 -7.5t-44.5 -20t-34.5 -30t-20.5 -37.5h281z" />
    <glyph glyph-name="Scaron" unicode="&#x160;" horiz-adv-x="857" 
d="M487 1001q8 11 22.5 19.5t31.5 8.5h13q23 0 36.5 -13.5t13.5 -36.5q0 -8 -3 -15.5t-7 -12.5l-60 -98q-8 -14 -25 -21.5t-29 -7.5h-65q-15 0 -31 7.5t-24 21.5l-59 95q-4 5 -7.5 14t-3.5 17q0 23 13.5 36.5t36.5 13.5h14q14 0 29 -7.5t26 -21.5l38 -70zM438 133
q33 0 69.5 5.5t67 18t51 31.5t20.5 46q0 36 -20.5 55.5t-51 28.5t-66.5 10.5t-67 1.5h-108q-41 0 -83.5 12t-77 37t-56.5 64.5t-22 95.5q0 64 31.5 112t80.5 79.5t107.5 47t112.5 15.5q51 0 97.5 -7.5t84.5 -21.5q19 26 51 26h9q28 0 47.5 -21t19.5 -50v-124
q0 -29 -19.5 -50t-47.5 -21h-9q-27 0 -47 21t-20 50v6q-18 10 -34 17.5t-34.5 13t-41.5 8t-54 2.5q-30 0 -62.5 -6.5t-59 -19t-44 -32t-17.5 -45.5q0 -59 101 -59h96q69 0 133 -10.5t113.5 -38.5t79 -75.5t29.5 -122.5q0 -63 -30 -110t-80.5 -78.5t-117 -47t-139.5 -15.5
q-72 0 -129.5 14.5t-100.5 34.5q-8 -17 -24 -27.5t-35 -10.5h-9q-28 0 -47.5 21t-19.5 50v124q0 29 19.5 50t47.5 21h9q26 0 46 -21t21 -49q34 -31 88 -43.5t142 -12.5z" />
    <glyph glyph-name="scaron" unicode="&#x161;" horiz-adv-x="694" 
d="M399 781q8 11 22.5 19.5t31.5 8.5h13q23 0 36.5 -13.5t13.5 -36.5q0 -8 -3 -15.5t-7 -12.5l-60 -98q-8 -14 -25 -21.5t-29 -7.5h-65q-15 0 -31 7.5t-24 21.5l-59 95q-4 5 -7.5 14t-3.5 17q0 23 13.5 36.5t36.5 13.5h14q14 0 29 -7.5t26 -21.5l38 -70zM527 554
q28 0 47.5 -21t19.5 -50v-61q0 -29 -19.5 -50t-47.5 -21h-8q-25 0 -43 16t-23 41q-24 10 -54.5 17.5t-72.5 7.5q-16 0 -33 -3.5t-31 -10t-23 -15.5t-9 -19q0 -8 7 -15.5t17 -12.5t21.5 -8.5t21.5 -3.5q32 -2 65.5 -3t65.5 -2q48 -2 87 -11t66.5 -28.5t42.5 -50.5t15 -77
q0 -39 -15 -73t-46.5 -59.5t-80.5 -40.5t-118 -15q-53 0 -105 7.5t-96 21.5q-19 -17 -43 -17h-8q-28 0 -47.5 20.5t-19.5 50.5v71q0 30 19.5 50.5t47.5 20.5h8q23 0 41.5 -16t23.5 -39q54 -19 103 -25t76 -6q16 0 35.5 3t36.5 9.5t29 16.5t12 24q0 17 -18 25t-35 9
q-38 1 -75.5 2t-75.5 3q-52 1 -90.5 15.5t-64 37.5t-38.5 53.5t-13 64.5q0 32 12.5 64t42.5 57.5t80 41t125 15.5q36 0 72 -5.5t68 -16.5q17 11 37 11h8z" />
    <glyph glyph-name="Ydieresis" unicode="&#x178;" horiz-adv-x="855" 
d="M428 883q0 -15 -6 -28.5t-16.5 -24t-24 -16.5t-28.5 -6t-28.5 6t-23.5 16.5t-16 24t-6 28.5q0 30 21.5 52.5t52.5 22.5t53 -22t22 -53zM603 883q0 -15 -6 -28.5t-16.5 -24t-23.5 -16.5t-28 -6t-29 6t-24 16.5t-16 24t-6 28.5q0 30 22 52.5t53 22.5t52.5 -22t21.5 -53z
M501 152h56q15 0 27.5 -6t22.5 -15.5t15.5 -22.5t5.5 -27v-10q0 -29 -21 -50t-50 -21h-263q-29 0 -50 21t-21 50v10q0 28 21 49.5t50 21.5h56v180l-212 297h-57q-29 0 -50 21t-21 50v10q0 28 21 49.5t50 21.5h243q15 0 27.5 -6t22.5 -16t15.5 -23t5.5 -27v-9q0 -29 -21 -50
t-50 -21h-2l105 -147l104 147q-29 0 -50 21t-21 50v10q0 28 21 49.5t50 21.5h243q15 0 27.5 -6t22.5 -15.5t15.5 -22.5t5.5 -27v-10q0 -29 -21 -50t-50 -21h-56l-217 -299v-178z" />
    <glyph glyph-name="Zcaron" unicode="&#x17d;" horiz-adv-x="843" 
d="M489 1001q8 11 22.5 19.5t31.5 8.5h13q23 0 36.5 -13.5t13.5 -36.5q0 -8 -3 -15.5t-7 -12.5l-60 -98q-8 -14 -25 -21.5t-29 -7.5h-65q-15 0 -31 7.5t-24 21.5l-59 95q-4 5 -7.5 14t-3.5 17q0 23 13.5 36.5t36.5 13.5h14q14 0 29 -7.5t26 -21.5l38 -70zM622 152h-320
l428 503q18 21 18 49q0 15 -6.5 28.5t-17 24t-24.5 17t-29 6.5h-483q-31 0 -52.5 -23t-23.5 -52v-122q0 -29 21 -50t50 -21h9q29 0 50 21t21 50v44h253l-427 -500q-8 -11 -13.5 -24t-5.5 -27q0 -15 6.5 -29t17.5 -24t24.5 -16t28.5 -6h550q31 0 52.5 23t23.5 52v114
q0 29 -21 50t-50 21h-9q-29 0 -50 -21t-21 -50v-38z" />
    <glyph glyph-name="zcaron" unicode="&#x17e;" horiz-adv-x="693" 
d="M379 771q8 11 22.5 19.5t31.5 8.5h13q23 0 36.5 -13.5t13.5 -36.5q0 -8 -3 -15.5t-7 -12.5l-60 -98q-8 -14 -25 -21.5t-29 -7.5h-65q-15 0 -31 7.5t-24 21.5l-59 95q-4 5 -7.5 14t-3.5 17q0 23 13.5 36.5t36.5 13.5h14q14 0 29 -7.5t26 -21.5l38 -70zM353 402l-269 -285
q-10 -11 -13.5 -24t-3.5 -28q0 -65 66 -65h429q29 0 50 21t21 50v101q0 29 -21 50t-50 21h-8q-29 0 -50 -20.5t-21 -50.5v-25h-180l274 283q8 11 12.5 25t4.5 28q0 66 -65 66h-393q-29 0 -50 -20.5t-21 -50.5v-101q0 -30 21 -50.5t50 -20.5h8q29 0 50 21t21 50v25h138z" />
    <glyph glyph-name="florin" unicode="&#x192;" horiz-adv-x="650" 
d="M610 579q-42 0 -72 -8.5t-51 -20.5t-33 -26t-18 -25h79q27 0 45.5 -14.5t18.5 -53.5q-2 -30 -26.5 -45t-50.5 -15h-96l-43 -269q-12 -76 -45.5 -126.5t-78 -81t-95.5 -43t-97 -12.5q-29 0 -48 20.5t-19 46.5q0 15 3.5 27.5t12.5 22.5t25 15.5t42 5.5q29 0 54 10t44.5 25
t32.5 33t18 33q12 75 22 146t22 147h-65q-27 0 -45.5 14t-18.5 42q0 21 7 34.5t18 22t24.5 12t27.5 3.5h77q20 57 54 96t75 63t86 34t87 10q67 0 67 -63q0 -21 -5.5 -33t-12.5 -18t-13.5 -7.5t-8.5 -1.5z" />
    <glyph glyph-name="circumflex" unicode="&#x2c6;" horiz-adv-x="416" 
d="M168 631q-8 -11 -22.5 -19.5t-31.5 -8.5h-13q-23 0 -36.5 13.5t-13.5 36.5q0 8 3 15.5t7 12.5l60 98q8 14 25 21.5t29 7.5h65q15 0 31 -7.5t24 -21.5l59 -95q4 -5 7.5 -14t3.5 -17q0 -23 -13.5 -36.5t-36.5 -13.5h-14q-14 0 -29 7.5t-26 21.5l-38 70z" />
    <glyph glyph-name="caron" unicode="&#x2c7;" horiz-adv-x="416" 
d="M248 771q8 11 22.5 19.5t31.5 8.5h13q23 0 36.5 -13.5t13.5 -36.5q0 -8 -3 -15.5t-7 -12.5l-60 -98q-8 -14 -25 -21.5t-29 -7.5h-65q-15 0 -31 7.5t-24 21.5l-59 95q-4 5 -7.5 14t-3.5 17q0 23 13.5 36.5t36.5 13.5h14q14 0 29 -7.5t26 -21.5l38 -70z" />
    <glyph glyph-name="breve" unicode="&#x2d8;" horiz-adv-x="467" 
d="M257 726q0 30 10.5 50t40.5 20h5q34 0 44 -20.5t10 -50.5q0 -28 -10.5 -52t-28.5 -42t-42.5 -28.5t-52.5 -10.5t-52 10.5t-42 28.5t-28.5 42t-10.5 52q0 15 2 28t8 22.5t16.5 15t27.5 5.5h5q30 0 40 -20.5t10 -50.5q0 -24 24 -24t24 25z" />
    <glyph glyph-name="dotaccent" unicode="&#x2d9;" horiz-adv-x="382" 
d="M191 759q39 0 65 -26t26 -65t-26 -65t-65 -26q-38 0 -64.5 26t-26.5 65t26.5 65t64.5 26z" />
    <glyph glyph-name="ring" unicode="&#x2da;" horiz-adv-x="467" 
d="M201 722q0 -33 32 -33t32 33t-32 33t-32 -33zM233 857q28 0 52.5 -10.5t42.5 -29t28.5 -43t10.5 -52.5t-10.5 -52t-28.5 -42t-42.5 -28.5t-52.5 -10.5t-52 10.5t-42 28.5t-28.5 42t-10.5 52t10.5 52.5t28.5 43t42 29t52 10.5z" />
    <glyph glyph-name="tilde" unicode="&#x2dc;" horiz-adv-x="522" 
d="M183 768q21 0 42 -7.5t41.5 -17t39 -17t33.5 -7.5q6 0 12 8.5t13 18t16.5 18t23.5 8.5q27 0 43.5 -18t16.5 -41q0 -8 -4 -27.5t-15.5 -40.5t-32.5 -37t-55 -16q-28 0 -53 8.5t-45.5 18t-36.5 18t-26 8.5q-8 0 -12.5 -9t-10 -19.5t-14 -19.5t-24.5 -9q-20 0 -31.5 7
t-17 16.5t-7 20t-1.5 16.5q0 45 16 69.5t36 35.5q23 13 53 15z" />
    <glyph glyph-name="hungarumlaut" unicode="&#x2dd;" horiz-adv-x="566" 
d="M244 563q-9 0 -19.5 5.5t-18.5 14.5t-13.5 21t-5.5 25q0 9 17 41.5t53 95.5q8 12 23 21.5t32 9.5q26 0 46 -20t20 -46q0 -11 -18.5 -45t-63.5 -97q-8 -14 -23 -20t-29 -6zM422 563q-9 0 -19.5 5.5t-18.5 14.5t-13.5 21t-5.5 25q0 9 17 41.5t53 95.5q8 12 23 21.5t32 9.5
q26 0 46 -20t20 -46q0 -11 -18.5 -45t-63.5 -97q-8 -14 -23 -20t-29 -6z" />
    <glyph glyph-name="endash" unicode="&#x2013;" horiz-adv-x="424" 
d="M66 157q-27 0 -46.5 19t-19.5 46v8q0 28 19.5 46.5t46.5 18.5h293q27 0 46 -19t19 -46v-8q0 -27 -19 -46t-46 -19h-293z" />
    <glyph glyph-name="emdash" unicode="&#x2014;" horiz-adv-x="1034" 
d="M65 157q-26 0 -45.5 19t-19.5 46v8q0 27 19.5 46t45.5 19h903q26 0 46 -19t20 -46v-8q0 -26 -20 -45.5t-46 -19.5h-903z" />
    <glyph glyph-name="quoteleft" unicode="&#x2018;" horiz-adv-x="292" 
d="M211 634q-5 -3 -16 -12t-22.5 -21t-20.5 -25.5t-9 -25.5h10q15 0 31 -5.5t28.5 -16.5t21 -28t8.5 -40q0 -21 -8 -37t-21 -27.5t-29 -17.5t-31 -6q-19 0 -37.5 8.5t-33 25.5t-23.5 41.5t-9 56.5q0 24 9.5 48t24 46t31.5 41t33.5 33t29 22t17.5 8q17 0 25.5 -12.5
t8.5 -25.5q0 -8 -3.5 -15.5t-14.5 -14.5z" />
    <glyph glyph-name="quoteright" unicode="&#x2019;" horiz-adv-x="292" 
d="M81 440q4 3 15.5 12t23 21t20.5 25.5t9 25.5h-10q-15 0 -31 5.5t-28.5 16.5t-21 28t-8.5 40q0 21 8 37t21 27.5t29 17.5t31 6q19 0 37.5 -8.5t33 -25.5t23.5 -41.5t9 -56.5q0 -36 -20 -71.5t-45 -63.5t-49 -45.5t-31 -17.5q-17 0 -25.5 12.5t-8.5 25.5q0 8 3.5 15.5
t14.5 14.5z" />
    <glyph glyph-name="quotesinglbase" unicode="&#x201a;" horiz-adv-x="372" 
d="M121 -94q4 3 15.5 12t23 21t20.5 25.5t9 25.5h-10q-15 0 -31 5.5t-28.5 16.5t-21 28t-8.5 40q0 21 8 37t21 27.5t29 17.5t31 6q19 0 37.5 -8.5t33 -25.5t23.5 -41.5t9 -56.5q0 -36 -20 -71.5t-45 -63.5t-49 -45.5t-31 -17.5q-17 0 -25.5 12.5t-8.5 25.5q0 8 3.5 15.5
t14.5 14.5z" />
    <glyph glyph-name="quotedblleft" unicode="&#x201c;" horiz-adv-x="502" 
d="M421 634q-5 -3 -16 -12t-22.5 -21t-20.5 -25.5t-9 -25.5h10q15 0 31 -5.5t28.5 -16.5t21 -28t8.5 -40q0 -21 -8 -37t-21 -27.5t-29 -17.5t-31 -6q-19 0 -37.5 8.5t-33 25.5t-23.5 41.5t-9 56.5q0 24 9.5 48t24 46t31.5 41t33.5 33t29 22t17.5 8q17 0 25.5 -12.5
t8.5 -25.5q0 -8 -3.5 -15.5t-14.5 -14.5zM211 634q-5 -3 -16 -12t-22.5 -21t-20.5 -25.5t-9 -25.5h10q15 0 31 -5.5t28.5 -16.5t21 -28t8.5 -40q0 -21 -8 -37t-21 -27.5t-29 -17.5t-31 -6q-19 0 -37.5 8.5t-33 25.5t-23.5 41.5t-9 56.5q0 24 9.5 48t24 46t31.5 41t33.5 33
t29 22t17.5 8q17 0 25.5 -12.5t8.5 -25.5q0 -8 -3.5 -15.5t-14.5 -14.5z" />
    <glyph glyph-name="quotedblright" unicode="&#x201d;" horiz-adv-x="502" 
d="M81 440q4 3 15.5 12t23 21t20.5 25.5t9 25.5h-10q-15 0 -31 5.5t-28.5 16.5t-21 28t-8.5 40q0 21 8 37t21 27.5t29 17.5t31 6q19 0 37.5 -8.5t33 -25.5t23.5 -41.5t9 -56.5q0 -36 -20 -71.5t-45 -63.5t-49 -45.5t-31 -17.5q-17 0 -25.5 12.5t-8.5 25.5q0 8 3.5 15.5
t14.5 14.5zM291 440q4 3 15.5 12t23 21t20.5 25.5t9 25.5h-10q-15 0 -31 5.5t-28.5 16.5t-21 28t-8.5 40q0 21 8 37t21 27.5t29 17.5t31 6q19 0 37.5 -8.5t33 -25.5t23.5 -41.5t9 -56.5q0 -36 -20 -71.5t-45 -63.5t-49 -45.5t-31 -17.5q-17 0 -25.5 12.5t-8.5 25.5
q0 8 3.5 15.5t14.5 14.5z" />
    <glyph glyph-name="quotedblbase" unicode="&#x201e;" horiz-adv-x="582" 
d="M121 -94q4 3 15.5 12t23 21t20.5 25.5t9 25.5h-10q-15 0 -31 5.5t-28.5 16.5t-21 28t-8.5 40q0 21 8 37t21 27.5t29 17.5t31 6q19 0 37.5 -8.5t33 -25.5t23.5 -41.5t9 -56.5q0 -36 -20 -71.5t-45 -63.5t-49 -45.5t-31 -17.5q-17 0 -25.5 12.5t-8.5 25.5q0 8 3.5 15.5
t14.5 14.5zM331 -94q4 3 15.5 12t23 21t20.5 25.5t9 25.5h-10q-15 0 -31 5.5t-28.5 16.5t-21 28t-8.5 40q0 21 8 37t21 27.5t29 17.5t31 6q19 0 37.5 -8.5t33 -25.5t23.5 -41.5t9 -56.5q0 -36 -20 -71.5t-45 -63.5t-49 -45.5t-31 -17.5q-17 0 -25.5 12.5t-8.5 25.5
q0 8 3.5 15.5t14.5 14.5z" />
    <glyph glyph-name="dagger" unicode="&#x2020;" horiz-adv-x="608" 
d="M233 400h-118q-13 0 -24.5 5.5t-20.5 15t-14.5 21.5t-5.5 25v6q0 26 19 46t46 20h118v115q0 28 19.5 47t45.5 19h12q27 0 46.5 -18.5t19.5 -47.5v-115h117q27 0 46 -19t19 -47v-6q0 -28 -19.5 -47.5t-45.5 -19.5h-117v-388q0 -29 -20 -47.5t-46 -18.5h-12q-23 0 -44 18.5
t-21 47.5v388z" />
    <glyph glyph-name="daggerdbl" unicode="&#x2021;" horiz-adv-x="608" 
d="M376 136v-124q0 -29 -20 -47.5t-46 -18.5h-12q-23 0 -44 18.5t-21 47.5v124h-118q-27 0 -46 20t-19 46v6q0 28 19 46.5t46 18.5h118v127h-118q-13 0 -24.5 5.5t-20.5 15t-14.5 21.5t-5.5 25v6q0 26 19 46t46 20h118v115q0 28 19.5 47t45.5 19h12q27 0 46.5 -18.5
t19.5 -47.5v-115h117q27 0 46 -19t19 -47v-6q0 -28 -19.5 -47.5t-45.5 -19.5h-117v-127h117q26 0 45.5 -18.5t19.5 -46.5v-6q0 -26 -19 -46t-46 -20h-117z" />
    <glyph glyph-name="bullet" unicode="&#x2022;" horiz-adv-x="527" 
d="M120 266q0 30 11 56t30.5 45.5t45.5 30.5t56 11t56 -11t45.5 -30.5t31 -45t11.5 -55.5t-11 -56t-30.5 -45.5t-45.5 -30.5t-56 -11t-56.5 11t-46 30t-30.5 45t-11 56z" />
    <glyph glyph-name="ellipsis" unicode="&#x2026;" horiz-adv-x="948" 
d="M191 173q39 0 65 -26.5t26 -65.5q0 -38 -26 -64t-65 -26q-38 0 -64.5 26t-26.5 64q0 39 26.5 65.5t64.5 26.5zM475 173q39 0 65 -26.5t26 -65.5q0 -38 -26 -64t-65 -26q-38 0 -64.5 26t-26.5 64q0 39 26.5 65.5t64.5 26.5zM757 173q39 0 65 -26.5t26 -65.5q0 -38 -26 -64
t-65 -26q-38 0 -64.5 26t-26.5 64q0 39 26.5 65.5t64.5 26.5z" />
    <glyph glyph-name="perthousand" unicode="&#x2030;" horiz-adv-x="1812" 
d="M1088 220q0 42 -26.5 73t-84.5 31q-59 0 -85.5 -31t-26.5 -73q0 -21 5.5 -39.5t18 -33t34 -22.5t54.5 -8q32 0 53.5 8t34 22.5t18 33t5.5 39.5zM419 474q0 42 -26.5 73t-84.5 31q-60 0 -86 -31t-26 -73q0 -21 5.5 -39.5t18 -33t34 -22.5t54.5 -8q32 0 53.5 8t34 22.5
t18 33t5.5 39.5zM437 -43q-7 -6 -12.5 -8.5t-22.5 -2.5q-12 0 -23 6.5t-19 16t-13 20.5t-5 20q0 15 11 31l486 684q5 6 10 8.5t19 2.5q33 0 49 -21t16 -42q0 -16 -9 -31zM70 474q0 49 15 91t45 73t74.5 48t103.5 17q58 0 102.5 -17t74.5 -48t45 -73t15 -91t-15 -91
t-45 -72.5t-74.5 -48t-102.5 -17.5q-59 0 -103.5 17.5t-74.5 48t-45 72.5t-15 91zM739 220q0 49 15 91t45 73t74.5 48t103.5 17q58 0 102.5 -17t74.5 -48t45 -73t15 -91t-15 -91t-45 -72.5t-74.5 -47.5t-102.5 -17q-59 0 -103.5 17t-74.5 47.5t-45 72.5t-15 91zM1616 220
q0 42 -26.5 73t-84.5 31q-59 0 -85.5 -31t-26.5 -73q0 -21 5.5 -39.5t18 -33t34 -22.5t54.5 -8q32 0 53.5 8t34 22.5t18 33t5.5 39.5zM1267 220q0 49 15 91t45 73t74.5 48t103.5 17q58 0 102.5 -17t74.5 -48t45 -73t15 -91t-15 -91t-45 -72.5t-74.5 -47.5t-102.5 -17
q-59 0 -103.5 17t-74.5 47.5t-45 72.5t-15 91z" />
    <glyph glyph-name="guilsinglleft" unicode="&#x2039;" horiz-adv-x="395" 
d="M193 461q10 14 24.5 21t29.5 7q24 0 45.5 -17.5t21.5 -46.5q0 -5 -1.5 -11.5t-9 -21t-22.5 -41.5t-42 -72q27 -47 42 -74t22.5 -42t9.5 -21.5t2 -10.5q0 -29 -21 -47.5t-47 -18.5q-16 0 -30.5 8t-23.5 21l-101 148q-5 7 -8.5 16.5t-3.5 20.5q0 20 12 37z" />
    <glyph glyph-name="guilsinglright" unicode="&#x203a;" horiz-adv-x="395" 
d="M303 316q12 -17 12 -37q0 -11 -3.5 -20.5t-8.5 -16.5l-101 -148q-9 -13 -23.5 -21t-30.5 -8q-26 0 -47 18.5t-21 47.5q0 4 1.5 10.5t9 21.5t23 42t42.5 74q-27 45 -42 72t-22.5 41.5t-9 21t-1.5 11.5q0 29 21.5 46.5t45.5 17.5q15 0 29.5 -7t24.5 -21z" />
    <glyph glyph-name="fraction" unicode="&#x2044;" horiz-adv-x="651" 
d="M125 -43q-7 -6 -12.5 -8.5t-22.5 -2.5q-12 0 -23 6.5t-19 16t-13 20.5t-5 20q0 15 11 31l486 684q5 6 10 8.5t19 2.5q33 0 49 -21t16 -42q0 -16 -9 -31z" />
    <glyph glyph-name="Euro" unicode="&#x20ac;" horiz-adv-x="939" 
d="M772 681q29 0 50 -21t21 -50v-101q0 -29 -21 -50t-50 -21h-8q-29 0 -50 20.5t-21 50.5v6q-26 15 -68.5 28.5t-95.5 13.5q-54 0 -103.5 -26t-78.5 -75h290q19 0 34 -15t15 -34q0 -8 -2 -18.5t-8 -20.5t-16.5 -17t-26.5 -7h-497q-20 0 -34.5 14.5t-16.5 34.5q1 33 17.5 48
t36.5 15h48q18 54 50.5 98.5t76.5 77t98.5 50.5t115.5 18q52 0 99 -12.5t85 -29.5q21 23 52 23h8zM610 315q21 0 35.5 -14t14.5 -35q0 -8 -2.5 -18.5t-9 -20.5t-16.5 -17t-25 -7h-241q29 -29 76.5 -52t108.5 -23q31 0 60.5 5.5t54 14t43 19.5t27.5 22q10 11 22.5 15.5
t25.5 4.5q26 0 40 -10.5t21 -23.5q8 -15 9 -34q0 -29 -26.5 -57t-71.5 -50t-104 -35.5t-123 -13.5q-53 0 -104 15.5t-95 44t-79 68.5t-56 90h-59q-20 0 -34.5 14.5t-16.5 34.5q1 33 17.5 48t36.5 15h471z" />
    <glyph glyph-name="trademark" unicode="&#x2122;" horiz-adv-x="906" 
d="M810 564q21 0 33.5 -13.5t12.5 -31.5v-19q0 -18 -13.5 -32t-32.5 -14h-90q-17 0 -34 13.5t-17 32.5v66l-16 -26t-15 -25q-7 -10 -17 -16.5t-22 -6.5q-14 0 -24.5 6.5t-15.5 17.5l1 -1q-8 13 -11 18t-5 8.5t-5 8t-11 18.5v-68q0 -19 -16.5 -32.5t-33.5 -13.5h-9
q-17 0 -34 13.5t-17 32.5v173h-119v-109h19q19 0 32.5 -14t13.5 -32v-19q0 -18 -12.5 -31.5t-33.5 -13.5h-148q-21 0 -33.5 13.5t-12.5 31.5v19q0 18 13.5 32t32.5 14h19v109h-29q0 -21 -13.5 -33.5t-31.5 -12.5h-19q-18 0 -32 13.5t-14 32.5v57q0 17 12.5 31.5t32.5 14.5
h391q11 0 23 -6.5t17 -18.5l74 -123q20 32 38 64t38 64q6 8 15 14t23 6h96q19 0 32.5 -14t13.5 -32v-19q0 -18 -12.5 -31.5t-33.5 -13.5h-31v-102h31z" />
    <glyph glyph-name="partialdiff" unicode="&#x2202;" horiz-adv-x="958" 
d="M887 152q29 0 50 -21.5t21 -49.5v-10q0 -29 -21 -50t-50 -21h-263q-29 0 -50 21t-21 50v10q0 14 5.5 27t15.5 22.5t22.5 15.5t27.5 6h40l-29 68h-314l-31 -68h44q15 0 27.5 -6t22.5 -15.5t15.5 -22.5t5.5 -27v-10q0 -29 -21 -50t-50 -21h-263q-29 0 -50 21t-21 50v10
q0 28 21 49.5t50 21.5h55l261 577q10 23 28.5 34.5t41.5 11.5h47q23 0 41.5 -12t28.5 -35l257 -576h56zM478 564q-20 -44 -42 -93.5t-45 -99.5h176z" />
    <glyph glyph-name="product" unicode="&#x220f;" horiz-adv-x="809" 
d="M120 454q20 0 34 -14t16 -34q36 -15 69 -19t52 -4q11 0 24.5 2.5t25.5 7t20.5 12t8.5 17.5q0 12 -13 17.5t-24 6.5q-26 0 -53 1t-53 2q-36 1 -63 11t-45 26.5t-27 37.5t-9 45q0 22 9 44.5t30 40.5t56 29t87 11h259v92q0 22 15.5 35.5t34.5 13.5h7q19 0 34.5 -13.5
t15.5 -35.5v-91h79q21 0 35 -14.5t14 -34.5v-4q0 -20 -14 -35t-35 -15h-79v-89q0 -34 8 -55.5t18 -34.5q11 -15 26 -24l2 -2q23 -13 23 -42q0 -25 -19 -37t-39 -12q-15 0 -37 12.5t-41.5 38.5t-33.5 65.5t-14 93.5v86h-240q-56 0 -77 -5t-21 -19q0 -12 16.5 -16.5t30.5 -4.5
q23 -2 46 -3t46 -1q68 0 108 -29.5t40 -94.5q0 -27 -10.5 -51t-32.5 -41.5t-56.5 -28t-82.5 -10.5q-33 0 -66.5 4.5t-62.5 12.5q-15 -23 -42 -23h-6q-21 0 -35.5 14t-14.5 36v72q0 21 14.5 35.5t35.5 14.5h6z" />
    <glyph glyph-name="summation" unicode="&#x2211;" horiz-adv-x="930" 
d="M774 780q31 0 52.5 -23t23.5 -52v-83q0 -29 -21 -50t-50 -21h-9q-29 0 -50 21t-21 50v6h-358v-149h245q15 0 29 -6.5t24.5 -17t17 -24t6.5 -28.5q0 -30 -22.5 -52.5t-54.5 -22.5h-245v-176h358v7q0 29 21 50t50 21h9q29 0 50 -21t21 -50v-84q-2 -29 -23.5 -52t-52.5 -23
h-638q-29 0 -50 21t-21 50v10q0 28 21 49.5t50 21.5h55v477h-55q-29 0 -50 21t-21 50v10q0 28 21 49.5t50 21.5z" />
    <glyph glyph-name="minus" unicode="&#x2212;" horiz-adv-x="708" 
d="M166 182q-28 0 -47 20t-19 45v6q0 24 19 44.5t47 20.5h376q27 0 46.5 -19t19.5 -46v-6q0 -27 -19.5 -46t-46.5 -19h-376z" />
    <glyph glyph-name="integral" unicode="&#x222b;" horiz-adv-x="650" 
d="M272 473q19 67 54.5 111.5t78.5 70.5t89.5 36.5t88.5 10.5q67 0 67 -63q0 -21 -5.5 -33t-12.5 -18t-13.5 -7.5t-8.5 -1.5q-42 0 -74.5 -9t-56 -23.5t-38 -33t-19.5 -38.5l-59 -373q-12 -76 -45.5 -126.5t-78 -81t-95.5 -43t-97 -12.5q-29 0 -48 20.5t-19 46.5
q0 15 3.5 27.5t12.5 22.5t25 15.5t42 5.5q29 0 54 10t44.5 25t32.5 33t18 33q6 37 14 89.5t16 107.5t16 107.5t14 90.5z" />
    <glyph glyph-name="notequal" unicode="&#x2260;" horiz-adv-x="628" 
d="M126 81q-28 0 -47 20t-19 45v6q0 24 19 44.5t47 20.5h91l31 59h-122q-28 0 -47 19.5t-19 45.5v6q0 12 5 23.5t14 20.5t21 15t26 6h194l31 57q10 18 29 29.5t42 11.5q67 0 67 -67q0 -16 -10 -31h23q29 0 47.5 -21t18.5 -44v-6q0 -26 -19 -45.5t-47 -19.5h-95
q-8 -15 -15.5 -30t-15.5 -29h126q29 0 47.5 -20.5t18.5 -44.5v-6q0 -25 -19 -45t-47 -20h-199q-8 -14 -14 -26t-14 -26q-9 -17 -27.5 -28.5t-39.5 -11.5q-32 0 -51 17t-19 49q0 14 6 26h-18z" />
    <glyph glyph-name="lessequal" unicode="&#x2264;" horiz-adv-x="874" 
d="M345 152h56q15 0 27.5 -6t22.5 -15.5t15.5 -22.5t5.5 -27v-10q0 -29 -21 -50t-50 -21h-263q-29 0 -50 21t-21 50v10q0 28 21 49.5t50 21.5h55v476h-57q-29 0 -50 21t-21 50v10q0 28 21 49.5t50 21.5h622q31 0 52.5 -23t23.5 -52v-84q0 -29 -21 -50t-50 -21h-9
q-29 0 -50 21t-21 50v7h-340v-149h315q15 0 28.5 -6.5t24 -17t17 -24.5t6.5 -29q0 -31 -23 -52.5t-53 -21.5h-315z" />
    <glyph glyph-name="greaterequal" unicode="&#x2265;" horiz-adv-x="821" 
d="M367 128q48 0 85.5 22t57.5 55q6 8 10 28t4 44q0 20 -3 38t-11 30q-20 35 -56.5 56.5t-86.5 21.5q-42 0 -72 -12t-50 -32t-29.5 -47t-9.5 -57q0 -29 9.5 -55.5t29.5 -47t50.5 -32.5t71.5 -12zM516 42q-25 -23 -66 -40t-83 -17q-80 0 -138.5 24t-97 64t-57.5 92.5
t-19 109.5q0 58 18.5 110.5t57 92.5t97.5 64t139 24q40 0 77.5 -11.5t69.5 -31.5q4 11 14 21q8 8 22 14.5t35 6.5q29 0 50.5 -20.5t21.5 -50.5v-347h63q30 0 45.5 -20.5t15.5 -49.5v-6q0 -29 -16 -50t-45 -21h-139q-22 0 -39.5 11.5t-25.5 30.5z" />
    <glyph glyph-name="apple" unicode="&#xf8ff;" horiz-adv-x="684" 
d="M369 646q-8 1 -15 1.5t-15 0.5q-7 0 -14 -0.5t-15 -1.5l-99 95h72l56 -59l56 59h73zM657 306q0 -66 -25 -124t-68 -101t-101 -68t-124 -25t-123.5 25t-100.5 68t-68 101t-25 124t25 123.5t68 100.5t100.5 68t123.5 25t124 -25t101 -68t68 -100.5t25 -123.5zM602 306
q0 54 -20.5 102t-56 84t-83.5 56.5t-103 20.5q-54 0 -102 -20.5t-84 -56.5t-56.5 -84t-20.5 -102t20.5 -102t56.5 -84t84 -56.5t102 -20.5q55 0 103 20.5t83.5 56.5t56 84t20.5 102zM485 207q0 -30 -13.5 -51t-35.5 -34.5t-50.5 -20t-58.5 -6.5q-33 0 -64.5 11.5t-69.5 28.5
l12 58q38 -24 71 -34t59 -10q39 0 61.5 15.5t22.5 38.5q0 12 -7 22.5t-17 19t-21.5 15t-20.5 11.5q-10 5 -19.5 10t-20.5 10q-20 10 -39.5 21.5t-35.5 26t-25.5 32t-9.5 39.5q0 31 13 51.5t33 33t44 17.5t45 5t39 -4.5t34 -12.5q15 -7 28 -14.5t24 -13.5l-13 -54
q-29 25 -56.5 35t-53.5 10q-35 0 -54.5 -14.5t-19.5 -35.5q0 -12 7 -21.5t17 -17t22 -13.5t21 -10q24 -11 50.5 -22.5t49 -28t37.5 -39t15 -54.5z" />
    <glyph glyph-name="fi" unicode="&#xfb01;" horiz-adv-x="1026" 
d="M685 149v257h-333v-258h95q29 0 50 -21t21 -50v-6q0 -14 -5.5 -27t-15.5 -22.5t-22.5 -15.5t-27.5 -6h-311q-29 0 -50 21.5t-21 49.5v6q0 29 21 50t50 21h69v258h-69q-29 0 -50 21.5t-21 49.5v6q0 29 21 50t50 21h69q2 73 28 122.5t66 79t88.5 42t94.5 12.5h37
q32 0 53.5 -22.5t21.5 -50.5q0 -16 -6 -29t-16.5 -22.5t-24 -15.5t-28.5 -7h-37q-30 0 -54 -8t-41 -21t-26 -29t-9 -31v-20h412q29 0 50 -21t21 -50v-334h70q29 0 50 -21t21 -50v-6q0 -14 -5.5 -27t-15.5 -22.5t-22.5 -15.5t-27.5 -6h-279q-29 0 -50 21.5t-21 49.5v6
q0 29 21 50t50 21h59zM846 680q0 -37 -25.5 -62t-60.5 -25q-37 0 -61.5 26t-24.5 61t24.5 60.5t61.5 25.5t61.5 -25t24.5 -61z" />
    <glyph glyph-name="fl" unicode="&#xfb02;" horiz-adv-x="965" 
d="M205 406h-69q-29 0 -50 21.5t-21 49.5v6q0 29 21 50t50 21h69q2 73 28 122.5t66 79t88.5 42t94.5 12.5h262q27 0 49 -19.5t22 -51.5v-452q0 -48 11.5 -79t25.5 -50q17 -22 38 -34q15 -9 25 -24.5t10 -38.5q0 -18 -7.5 -31t-19.5 -21.5t-26.5 -13t-29.5 -4.5
q-22 0 -52.5 18t-58.5 55t-48 93.5t-20 133.5v372h-181q-30 0 -54 -8t-41 -21t-26 -29t-9 -31v-20h95q29 0 50 -21t21 -50v-6q0 -14 -5.5 -27t-15.5 -22.5t-22.5 -15.5t-27.5 -6h-95v-258h95q29 0 50 -21t21 -50v-6q0 -14 -5.5 -27t-15.5 -22.5t-22.5 -15.5t-27.5 -6h-311
q-29 0 -50 21.5t-21 49.5v6q0 29 21 50t50 21h69v258z" />
    </font>
</defs>
</svg>
