<?xml version="1.0" standalone="no"?>
<!DOCTYPE svg PUBLIC "-//W3C//DTD SVG 1.1//EN" "http://www.w3.org/Graphics/SVG/1.1/DTD/svg11.dtd" >
<svg xmlns="http://www.w3.org/2000/svg" xmlns:xlink="http://www.w3.org/1999/xlink" version="1.1">
<metadata>
Created by FontForge 20170731 at Sat Oct  7 03:13:34 2017
 By Aleksey,,,
Copyright (c) 2017 by Mans Greback. All rights reserved.
</metadata>
<defs>
<font id="LowCasatLightPERSONALUSE" horiz-adv-x="531" >
  <font-face 
    font-family="Low Casat Light PERSONAL USE"
    font-weight="300"
    font-stretch="normal"
    units-per-em="1000"
    panose-1="0 0 0 0 0 0 0 0 0 0"
    ascent="800"
    descent="-200"
    x-height="458.5"
    cap-height="770"
    bbox="-4523 -405 1899 1023"
    underline-thickness="50"
    underline-position="-150"
    unicode-range="U+000D-FB02"
  />
<missing-glyph horiz-adv-x="287" 
 />
    <glyph glyph-name="fi" unicode="fi" horiz-adv-x="639" 
d="M639 258q10 -2 18 -6q7 -3 11.5 -9t2.5 -14q-12 -21 -35 -48t-53.5 -57.5t-68.5 -62.5t-81 -61q-15 2 -31.5 9t-31 16.5t-25 21t-13.5 21.5q-6 21 -3 51t12 64.5t23 71t30 69.5q-32 -20 -67.5 -36.5t-68.5 -22.5q-3 -35 -15 -80t-30.5 -94t-42 -98.5t-49 -93.5t-51.5 -79
t-50 -54q-17 2 -36 8.5t-37 16.5t-33.5 24t-24.5 31q-4 36 4 86t25.5 110t44 128t60.5 140q26 56 56.5 113.5t65.5 111.5t75.5 101.5t85.5 83.5q17 0 40 -5.5t46 -15.5t43.5 -23t31.5 -28q1 -10 -5.5 -27t-20.5 -34.5t-36 -32t-52 -17.5q2 7 5 23t5.5 33.5t4 33.5t0.5 23
q-36 -32 -76.5 -84t-82.5 -120q12 -3 18 -12q15 -21 24 -53.5t11 -68.5q19 3 43 12.5t48.5 22.5t46.5 28t39 29q9 13 17 22t15 14q9 6 24.5 9t32 3t32 -3.5t23.5 -12.5q-15 -21 -33 -51t-37 -65t-36 -72t-29.5 -71t-17.5 -63.5t0 -48.5q16 7 44 28t59 48.5t59.5 58.5
t46.5 58zM-5 -157q10 7 26.5 29.5t36 56t40 75t39.5 86.5t34.5 90.5t23.5 87.5q-11 5 -22.5 14t-21.5 26q-2 4 -4.5 7.5t-4.5 8.5l-12 -24t-11 -24q-25 -54 -50.5 -121t-45 -130t-28.5 -113t0 -69zM690 609q-6 -4 -14.5 -17.5t-19 -29.5t-22 -30t-23.5 -18q-19 -8 -49 -6
t-52 16q4 14 10.5 30.5t14 32.5t16.5 29t20 20q20 12 53.5 7t65.5 -34z" />
    <glyph glyph-name="fl" unicode="fl" horiz-adv-x="642" 
d="M786 730q-19 -18 -45 -50t-56 -73.5t-62 -90.5t-61.5 -100.5t-55.5 -102.5t-44 -97.5t-27 -85.5t-4 -66q16 7 44.5 28t59 49t59.5 59t47 58q10 -2 18 -6q7 -3 11.5 -9t2.5 -14q-12 -21 -35 -48t-53.5 -57.5t-68.5 -62.5t-81 -61q-21 1 -37.5 9t-29.5 18.5t-20.5 22
t-10.5 20.5q-8 43 9 110.5t50 144.5q-32 -20 -68 -37t-70 -23q-3 -35 -15 -80t-30.5 -94t-42 -98.5t-49 -93.5t-51.5 -79t-50 -54q-17 2 -36 8.5t-37 16.5t-33.5 24t-24.5 31q-4 36 4 86t25.5 110t44 128t60.5 140q26 56 56.5 113.5t65.5 111.5t75.5 101.5t85.5 83.5
q17 0 40 -5.5t46 -15.5t43.5 -23t31.5 -28q1 -10 -5.5 -27t-20.5 -34.5t-36 -32t-52 -17.5q2 7 5 23t5.5 33.5t4 33.5t0.5 23q-36 -32 -76.5 -84t-82.5 -120q12 -3 18 -12q15 -21 24 -53.5t11 -68.5q18 3 40 11.5t44.5 20t44 25t38.5 27.5q31 63 66.5 123.5t70.5 109t66 82
t53 42.5q16 6 31.5 5.5t29 -4.5t24 -11t16.5 -13zM-5 -157q10 7 26.5 29.5t36 56t40 75t39.5 86.5t34.5 90.5t23.5 87.5q-11 5 -22.5 14t-21.5 26q-2 4 -4.5 7.5t-4.5 8.5l-12 -24t-11 -24q-25 -54 -50.5 -121t-45 -130t-28.5 -113t0 -69z" />
    <glyph glyph-name="t_t" unicode="tt" horiz-adv-x="526" 
d="M344 646q-11 -14 -24 -31t-27 -37q33 -1 67.5 -1h68.5q16 23 31 42.5t29 34.5q15 8 33 9.5t34.5 -1t29.5 -7.5t18 -9q-11 -14 -24 -31t-27 -36q32 1 55.5 2.5t35.5 4.5q-2 -15 -7.5 -30.5t-13.5 -28.5t-17.5 -21.5t-17.5 -11.5q-8 -2 -32 -1t-58 3q-37 -57 -73 -120
t-62.5 -122t-40.5 -109.5t-7 -82.5q16 7 44.5 28.5t59.5 49.5t60 59.5t47 58.5q10 -1 17 -5q6 -3 11 -9t4 -15q-12 -21 -35 -48t-53.5 -57.5t-68.5 -62.5t-81 -61q-17 1 -33.5 7.5t-29.5 15.5t-21.5 19.5t-11.5 21.5q-7 28 -1 73q-32 -34 -73.5 -69.5t-89.5 -67.5
q-17 1 -33 7.5t-29 15.5t-22 19.5t-12 21.5q-9 33 2 86t35 114.5t57 126.5t69 122q-24 -2 -44 -5t-34 -8q0 12 5 25t12.5 24t16 18.5t16.5 9.5q4 1 24 1.5t47 0.5q16 22 30.5 41t28.5 34q15 8 33 9.5t34.5 -1t29.5 -7.5t18 -9zM250 237q23 65 58.5 135t73.5 133q-32 3 -66 5
t-67 3q-38 -58 -76 -123.5t-66.5 -127t-43.5 -114.5t-8 -86q15 7 39.5 25t52.5 42.5t55.5 52.5t47.5 55z" />
    <glyph glyph-name="t_r" unicode="tr" horiz-adv-x="675" 
d="M49 500q0 12 5 25t12.5 24t16 18.5t16.5 9.5q7 2 26 2t45 -1q33 47 59 76q15 8 33 9.5t34.5 -1t29.5 -7.5t18 -9q-11 -14 -24 -31t-27 -37q20 1 38.5 2.5t32.5 5.5q-2 -15 -7.5 -30.5t-13.5 -28.5t-17.5 -21.5t-17.5 -11.5q-11 -3 -28 -0.5t-39 7.5q-38 -58 -74 -121.5
t-63 -123.5t-41.5 -111t-7.5 -83q36 15 73.5 44.5t74.5 70.5t73 91.5t68 107.5q-19 17 -19 40q-2 15 5.5 32.5t17 33t17.5 28.5t8 20q13 2 25.5 -1.5t22.5 -9.5t16.5 -13.5t7.5 -14.5q1 -14 -9 -34t-24 -41q21 5 47 12.5t47 17.5q20 12 47 10t47 -20q-10 -20 -24.5 -50
t-30 -65.5t-30.5 -73t-25.5 -73t-15 -65.5t0.5 -49q16 7 43 29t55.5 50.5t56 60t45.5 58.5q2 0 8 -1t11.5 -4.5t9.5 -9t3 -14.5q-12 -21 -32.5 -48t-49 -57.5t-64.5 -62.5t-79 -61q-19 1 -37.5 8t-34 16t-26 19.5t-12.5 19.5q-6 27 2.5 70.5t25 90.5t37.5 93.5t39 79.5
l-88 -30q-28 -56 -65 -110.5t-80 -103.5t-89.5 -88.5t-93.5 -64.5q-17 1 -33 7.5t-29 15.5t-22 19.5t-12 21.5q-9 34 2 87t35 114.5t57.5 126.5t69.5 123q-20 -1 -39.5 -4t-39.5 -11z" />
    <glyph glyph-name="T_h" unicode="Th" horiz-adv-x="1009" 
d="M1009 258q10 -2 21.5 -7t10.5 -22q-8 -20 -30 -49t-52 -61.5t-65 -65.5t-68 -61q-33 2 -66 19.5t-52 52.5q-3 19 -1.5 41.5t11.5 55.5t30 80t54 114q-55 -53 -108 -112q-45 -51 -94 -114t-83 -129q-20 9 -37 18q-14 8 -27 17t-18 19q-4 37 12.5 98.5t46 133.5t68 147.5
t77 140t73 111t57.5 61.5q13 8 30.5 9t33.5 -2t29.5 -9.5t19.5 -12.5q-25 -24 -59.5 -72.5t-72 -109.5t-74.5 -127.5t-66 -126t-47.5 -106t-18.5 -66.5q106 152 176.5 233t96.5 94q11 5 29.5 6.5t37.5 -1.5t36.5 -10t27.5 -19q-21 -33 -46.5 -83.5t-47.5 -104t-35.5 -102
t-8.5 -76.5q19 6 45.5 28t54.5 51t54 60.5t45 58.5zM170 -55q-18 -8 -35.5 -9t-32.5 3t-27.5 12t-20.5 18q22 68 54 152.5t71.5 176.5t85 186t94.5 182q-48 0 -94.5 -4t-86.5 -10t-71.5 -14t-50.5 -16q-11 4 -12.5 16t1.5 25.5t8 26t9 17.5q29 15 75.5 28t101 22t113.5 13.5
t112.5 3.5t98.5 -9t72 -23q10 -18 12 -38t-0.5 -37t-7 -29t-7.5 -16q-44 18 -95 27.5t-105 13.5q20 -12 32 -35q-30 -47 -60 -104.5t-58.5 -119t-55 -125.5t-49 -124t-41 -114t-30.5 -96z" />
    <glyph glyph-name="a_swsh" unicode="a__" horiz-adv-x="520" 
d="M474 433q-34 -58 -59 -119.5t-41.5 -120.5t-25 -113t-10.5 -96.5t2 -71.5t14 -38q72 48 140 74t127 33t107 -5t80 -40q50 6 99.5 3t95.5 -17q12 -12 18.5 -27t9 -31t1 -31.5t-5.5 -27.5q-32 29 -82 43.5t-105 18.5q-5 -35 -37 -70t-80.5 -58t-108.5 -29.5t-123 15.5
q-12 26 1 54t44 54t77 48t100 37q-36 16 -84.5 11t-99 -23t-96 -44t-75.5 -53q-38 0 -66.5 18.5t-48.5 45.5q-10 39 -8.5 87.5t10.5 100t23.5 104t31.5 100.5l-203 -267q-63 -2 -97 17t-46 50.5t-4 73t30 84.5t55.5 85t72.5 75t80.5 54t79.5 22q19 2 48 -5.5t53 -24.5
q14 25 19 26q9 3 22 2.5t26 -3.5t24 -8.5t15 -12.5zM311 394q-43 -5 -83 -30t-74.5 -59.5t-60.5 -74.5t-40.5 -75.5t-15.5 -62.5t15 -36l260 293v24.5t-1 20.5zM561 -233q23 -13 53.5 -11.5t58.5 14.5t48.5 37.5t23.5 57.5q-35 -4 -67 -12.5t-57 -21t-41 -28.5t-19 -36z" />
    <glyph glyph-name="b_swsh" unicode="b__" horiz-adv-x="489" 
d="M119 1q-51 -4 -84.5 15t-50.5 54q-11 24 -8 63.5t16 88.5t34.5 104t48 110.5t55.5 107.5t57.5 95t54 73t45.5 41q38 11 67 5.5t41 -18.5q-13 -14 -37 -46.5t-53.5 -77.5t-62.5 -99.5t-63 -110.5t-55 -110.5t-38 -101.5t-12.5 -82t20.5 -52q32 17 64 46t59.5 64.5
t50.5 76.5t37 82q-27 26 -41 62t-8 68q16 6 33.5 8t35 0.5t32 -6t24.5 -10.5q20 -45 17 -93q60 4 125.5 21.5t134.5 49.5t140.5 80t142.5 113q8 -9 15.5 -22.5t11.5 -29.5t4 -32.5t-6 -31.5q-51 -44 -123 -82.5t-151 -67t-158 -44t-145 -12.5q-13 -49 -41 -96t-65 -87
t-79.5 -70.5t-84.5 -45.5z" />
    <glyph glyph-name="c_swsh" unicode="c__" horiz-adv-x="430" 
d="M171 0q-75 -3 -126 27.5t-71 81.5q-5 33 1.5 71.5t22 76.5t37.5 73.5t48 63t53.5 45.5t53.5 21q13 1 36 -4t47.5 -14t46 -21.5t32.5 -28.5q1 -10 -8.5 -28.5t-26 -36.5t-39 -32t-46.5 -15q4 27 7 50q2 20 4 39t1 28q-24 -5 -46 -21.5t-41 -41t-33.5 -53.5t-24 -57
t-13.5 -53.5t0 -42.5q8 -28 29.5 -46.5t42.5 -26.5q28 38 70 83t91.5 90.5t104.5 89t109.5 79t106 59.5t94.5 31q15 -5 28.5 -16t24 -24.5t17.5 -28t9 -27.5q-70 -7 -136.5 -30.5t-128.5 -56.5t-118 -73.5t-104 -81.5t-87.5 -80t-67.5 -69z" />
    <glyph glyph-name="d_swsh" unicode="d__" horiz-adv-x="522" 
d="M477 436q-12 -23 -26.5 -54.5t-29.5 -68.5t-29 -76.5t-25 -77.5q-13 -54 -20 -102.5t-9 -86.5t1 -63t10 -32q73 47 141.5 74.5t128 35t107.5 -5t80 -44.5q50 5 98.5 0.5t93.5 -19.5q11 -12 17.5 -27.5t8.5 -31t0 -31t-6 -27.5q-32 29 -81 45t-104 21q-6 -35 -38.5 -69.5
t-81 -56.5t-109 -27t-122.5 18q-11 26 2 53.5t44.5 52.5t77.5 46t100 35q-40 19 -89 14.5t-98 -22.5t-93.5 -45t-75.5 -54q-36 4 -67.5 22.5t-48.5 44.5q-8 42 -6 91t11.5 100t23.5 102t30 97l-199 -267q-59 -3 -91 15t-43.5 50t-4.5 73t28 85t52.5 86t69.5 75.5t79 54.5
t81 22q17 -2 34 -6q14 -3 31 -7.5t33 -12.5q34 72 67.5 128.5t62 96t50 62t32.5 27.5q11 4 26.5 5t31 -1t28.5 -7t19 -11q-11 -9 -30 -30.5t-45.5 -58t-58.5 -89t-69 -121.5zM308 398q-41 -5 -80.5 -30t-73.5 -60t-60 -75.5t-40.5 -77t-16 -64t14.5 -35.5l257 296v24.5
t-1 21.5zM554 -230q23 -13 53 -12t58 13.5t48.5 36t25.5 56.5q-35 -3 -67 -10.5t-57 -19.5t-41 -28t-20 -36z" />
    <glyph glyph-name="e_swsh" unicode="e__" horiz-adv-x="429" 
d="M182 0q-34 1 -65 7t-58 18.5t-48.5 33t-34.5 50.5q-8 50 9 108.5t49.5 110.5t76 90t88.5 47q21 1 49 -5.5t54 -18.5t48 -29t31 -37q-4 -26 -21.5 -52t-43.5 -50.5t-58 -46t-64 -39.5t-61.5 -31.5t-50.5 -20.5l2 -12q5 -28 31.5 -45.5t56.5 -19.5q29 38 72 82t94.5 88
t107.5 86.5t112 76.5t108.5 57.5t95.5 30.5q15 -5 28.5 -16t24 -24.5t17 -28t8.5 -27.5q-63 -3 -128.5 -23t-129 -51.5t-124 -70.5t-112.5 -80.5t-94 -82.5t-70 -75zM270 397q-32 -3 -61.5 -23.5t-53.5 -50.5t-41.5 -65.5t-25.5 -67.5q27 16 61 38.5t62.5 50t46 57.5
t12.5 61z" />
    <glyph glyph-name="f_swsh" unicode="f__" horiz-adv-x="381" 
d="M368 650q-47 -42 -102 -115.5t-107 -169.5q18 -1 35 -7.5t22 -23.5q6 -24 6 -56t-7 -64q61 -24 135 -34t155 -5.5t164.5 23.5t162.5 52q4 -12 5.5 -27.5t-0.5 -31.5t-8.5 -31t-17.5 -27q-63 -21 -143.5 -29.5t-163.5 -5.5t-162 17.5t-140 40.5q-6 -48 -21.5 -105
t-37 -111.5t-48.5 -100.5t-57 -72q-18 1 -40 8t-42 18t-37.5 26.5t-26.5 32.5q-4 36 3.5 85t24.5 108t43 126t60 139q26 56 56.5 113.5t65.5 111.5t75.5 101.5t85.5 83.5q17 0 40 -5.5t46 -15.5t43.5 -23t31.5 -28q1 -10 -5.5 -27t-20.5 -34.5t-36 -32t-52 -17.5q2 7 5 23
t5.5 33.5t4 33.5t0.5 23zM-16 -164q13 6 35 39t46 82.5t46.5 109.5t37.5 118q-10 9 -17.5 22t-11.5 33q-2 9 -3 18t-2 17q-25 -54 -51 -119.5t-46 -128t-30.5 -114t-3.5 -77.5z" />
    <glyph glyph-name="g_swsh" unicode="g__" horiz-adv-x="495" 
d="M373 441q9 12 23.5 15t30 1t29 -8t19.5 -13q-35 -55 -64.5 -114t-56 -118t-50.5 -117t-48 -111q86 10 174.5 8t164.5 -13.5t130.5 -30t71.5 -41.5q3 -4 2.5 -17.5t-5 -29t-13.5 -30t-24 -20.5q-44 32 -108.5 55.5t-136.5 38.5t-146 20t-138 0q-26 -54 -55 -98.5
t-63 -77.5q-26 3 -54 9t-53 16.5t-44 26t-28 36.5q27 48 83.5 79t129.5 49q35 69 69 151.5t69 161.5l-172 -229q-61 -7 -95 7.5t-46.5 42.5t-5.5 66.5t27 79t51 80.5t67.5 72t75.5 52t76 21q18 -3 36 -8q16 -5 33.5 -11.5t33.5 -15.5q2 4 4.5 7.5t5.5 7.5zM301 392
q-41 -5 -79 -26.5t-69 -51.5t-53.5 -64.5t-34.5 -65.5t-11.5 -55t16.5 -32l233 256q0 11 -0.5 20.5t-1.5 18.5zM39 -190q36 29 69 82q-35 -14 -53.5 -34t-15.5 -48z" />
    <glyph glyph-name="h_swsh" unicode="h__" horiz-adv-x="504" 
d="M464 426q-34 -58 -58.5 -119.5t-41 -120.5t-25 -112t-11 -95t0.5 -70t11 -36q73 47 142 74t128.5 34.5t107.5 -5.5t80 -45q49 4 97.5 -0.5t93.5 -19.5q22 -24 25 -58t-5 -59q-32 29 -81 45.5t-104 21.5q-6 -35 -38.5 -69t-81.5 -56.5t-109.5 -27t-122.5 18.5
q-11 27 2.5 54.5t45 52.5t77.5 46t100 34q-39 19 -88 15t-98.5 -22t-94 -45t-75.5 -54q-15 2 -32 7.5t-33.5 14.5t-31 20.5t-24.5 26.5q-13 42 -7.5 103t22 128t40 131.5t45.5 113.5q-17 -16 -53 -52.5t-78 -84.5t-84.5 -104t-71.5 -112q-20 9 -37 18q-14 8 -27 17t-18 19
q-7 32 9 91.5t45.5 131t68 148t78 143t75 114.5t58.5 64q15 6 32 7t33 -2t29 -8.5t19 -11.5q-11 -9 -31 -36t-46 -65t-55 -85t-58 -97t-55.5 -99.5t-47 -93t-33 -78t-12.5 -54.5q106 152 176.5 233t96.5 94q11 5 29.5 6.5t37.5 -1.5t36.5 -10t27.5 -19zM544 -232
q23 -13 53.5 -12.5t58 13t48.5 36t25 56.5q-35 -3 -67 -10.5t-57 -19.5t-41 -28t-20 -35z" />
    <glyph glyph-name="i_swsh" unicode="i__" horiz-adv-x="246" 
d="M205 439q-56 -87 -93.5 -179.5t-58 -171.5t-25 -134t5.5 -68q76 42 146.5 64.5t130.5 25.5t106.5 -12.5t76.5 -49.5q50 1 98 -6.5t93 -25.5q20 -26 21.5 -60.5t-9.5 -58.5q-30 31 -78 51t-102 28q-9 -35 -43.5 -66.5t-85 -50.5t-111 -20t-120.5 26q-10 27 5.5 54t48.5 50
t80.5 40.5t101.5 27.5q-38 21 -87 20t-99.5 -15.5t-96.5 -38.5t-79 -48q-14 3 -30.5 9.5t-32 16t-29 22t-22.5 27.5q-6 28 -0.5 73t19 98t33 109.5t41.5 106.5t43.5 89t39.5 58q17 17 47 21.5t65 -12.5zM322 609q-6 -4 -14.5 -17.5t-19 -29.5t-22 -30t-23.5 -18
q-19 -8 -49 -6t-52 16q4 14 10.5 30.5t14 32.5t16.5 29t20 20q20 12 53.5 7t65.5 -34zM231 -233q22 -14 52.5 -15.5t59 9t51 32.5t29.5 55q-36 -1 -68.5 -6.5t-58.5 -15.5t-43 -25t-22 -34z" />
    <glyph glyph-name="j_swsh" unicode="j__" horiz-adv-x="229" 
d="M89 441q9 12 23.5 15t30 1t29 -8t19.5 -13q-36 -56 -65.5 -118t-55.5 -125.5t-49.5 -125.5t-45.5 -117q62 18 129 25t133 6.5t128 -7.5t115.5 -18t94.5 -24t66 -25q4 -2 8.5 -13.5t5.5 -26t-2.5 -30t-14.5 -26.5q-32 16 -77 33.5t-99.5 32t-116.5 25.5t-128 14.5
t-134.5 -3t-135.5 -25.5q-23 -49 -47.5 -86t-53.5 -56q-37 3 -58 26.5t-29 58.5q21 21 45.5 39t50.5 32q31 55 56 124.5t50.5 142t55.5 143.5t72 129zM304 609q-6 -4 -14.5 -17.5t-19 -29.5t-22 -30t-23.5 -18q-19 -8 -49 -6t-52 16q4 14 10.5 30.5t14 32.5t16.5 29t20 20
q20 12 53.5 7t65.5 -34z" />
    <glyph glyph-name="k_swsh" unicode="k__" horiz-adv-x="502" 
d="M468 372q-11 -39 -34 -69.5t-54 -52.5t-67.5 -36.5t-74.5 -21.5q47 -86 109 -149.5t133.5 -99t148.5 -41.5t154 23q6 -31 -12.5 -65t-42.5 -59q-34 -7 -78.5 -3.5t-95 19.5t-103.5 47.5t-102.5 79.5t-94 115.5t-76.5 156.5q-3 6 -3 12q-41 -54 -77 -113.5t-61 -117.5
q-7 0 -19.5 5t-25.5 12.5t-25 18t-18 21.5q-6 32 10.5 91t46 130.5t68 148.5t77.5 143t74.5 114.5t58.5 64.5q16 7 33 8t32 -2t27.5 -9t18.5 -12q-10 -8 -29.5 -33.5t-44.5 -63t-53.5 -83.5t-57 -94.5t-55 -97t-46.5 -91t-32.5 -76t-13.5 -52.5q43 76 84 134t75.5 98t60 63
t38.5 29q32 1 57.5 -8t44 -23t30 -30.5t15.5 -30.5zM212 246q3 -8 8 -17q22 8 45.5 24t43.5 38.5t34 50.5t16 61q-10 1 -26.5 -9.5t-37.5 -29.5t-46 -46t-50 -59q8 -2 13 -13z" />
    <glyph glyph-name="l_swsh" unicode="l__" horiz-adv-x="240" 
d="M84 450q31 59 65.5 112t66 94t56.5 66.5t38 30.5q16 6 31 5.5t28.5 -4.5t24 -11t16.5 -13q-11 -9 -35.5 -38.5t-54.5 -71t-62.5 -90t-58.5 -94.5q-34 -58 -60 -118.5t-44.5 -117.5t-29.5 -108.5t-15.5 -92t-3.5 -68t8 -35.5q78 40 149 60t131 21.5t106 -15.5t75 -52
q50 -1 98 -9.5t92 -27.5q10 -13 14.5 -28.5t5 -31.5t-2.5 -31.5t-9 -27.5q-29 32 -76.5 52.5t-101.5 31.5q-9 -35 -44.5 -65.5t-86.5 -48t-111.5 -16.5t-120.5 30q-9 27 7 53t50 48t81.5 38.5t102.5 25.5q-38 22 -87 22.5t-99.5 -13t-97.5 -36t-80 -46.5q-29 8 -61 28
t-49 50q-8 60 3 132t33 145.5t51 142.5t58 122zM248 -229q21 -15 51 -17t59 7.5t52 31t31 54.5q-36 0 -68.5 -4.5t-58 -14t-43 -24t-23.5 -33.5z" />
    <glyph glyph-name="m_swsh" unicode="m__" horiz-adv-x="748" 
d="M708 432q-34 -58 -59 -118t-42 -117t-26.5 -108t-12.5 -91.5t-1 -67.5t9 -35q78 39 149 59t131 21.5t106.5 -16t75.5 -52.5q50 -1 97.5 -9.5t91.5 -28.5q10 -13 14.5 -28.5t5 -31.5t-2.5 -31t-9 -27q-29 32 -76.5 53t-101.5 31q-10 -34 -45.5 -65t-86 -48t-111 -16
t-120.5 30q-9 27 7.5 53.5t50 48.5t81.5 38.5t103 24.5q-37 23 -86 23.5t-100 -12.5t-98.5 -35.5t-80.5 -46.5q-29 7 -62.5 27.5t-50.5 51.5q-7 46 3 108.5t29 128t42 126.5t43 103q-11 -11 -41 -43.5t-68.5 -79.5t-78.5 -103.5t-71 -115.5q-11 -2 -27 0t-31.5 7t-29.5 13.5
t-21 19.5q-5 38 20.5 112t84.5 182q-51 -56 -100 -118q-42 -53 -88.5 -118t-80.5 -131q-8 -1 -20 2.5t-24.5 11t-24 17.5t-18.5 23q-3 27 3.5 64.5t18.5 78t28 81.5t33 75t32.5 57.5t26.5 29.5q28 15 56.5 12.5t54.5 -16.5q-25 -37 -50.5 -80.5t-46.5 -88t-35.5 -85.5
t-17.5 -72q45 70 84.5 128t73 102t59.5 72.5t43 39.5q10 6 29 8t38.5 -0.5t37 -9.5t26.5 -18q-16 -26 -36 -64.5t-39.5 -81t-36 -85.5t-24.5 -79q43 66 82.5 122.5t72.5 99.5t59 71t41 37q12 6 31.5 8t40.5 -0.5t39.5 -9.5t27.5 -18zM769 -230q22 -15 52 -17.5t59 7.5t52 31
t31 54q-36 0 -68.5 -4.5t-58.5 -13.5t-43.5 -23.5t-23.5 -33.5z" />
    <glyph glyph-name="n_swsh" unicode="n__" horiz-adv-x="517" 
d="M210 436q-25 -37 -50.5 -81.5t-47 -89.5t-36.5 -86.5t-18 -72.5q106 152 176.5 238t102.5 106q11 7 31 9t41.5 0t40.5 -9t28 -18q-51 -87 -83.5 -178.5t-48 -168.5t-15 -131.5t14.5 -69.5q76 42 146.5 64.5t130.5 26t106.5 -12t76.5 -49.5q50 2 98 -5.5t93 -25.5
q21 -26 22 -60.5t-10 -58.5q-30 32 -78 51t-102 27q-9 -35 -43.5 -66.5t-84.5 -50.5t-110.5 -20t-121.5 26q-10 27 5 54t48 50t80.5 41t101.5 28q-38 21 -87 19.5t-99 -16t-96 -38.5t-79 -48q-14 3 -30.5 9t-32.5 15.5t-30 22t-23 27.5q-7 31 -4.5 70.5t11 83.5t21.5 89
t28 88t30.5 81t29.5 67l-26 -26t-45 -47t-56.5 -63.5t-61.5 -74.5t-59 -80.5t-49 -81.5q-9 -2 -21.5 1.5t-25 11t-24 18t-18.5 23.5q-3 27 3 64t17.5 77.5t27 81t32.5 74t33 57.5t29 32q28 17 58.5 12t52.5 -16zM544 -234q22 -15 52 -16t58.5 9.5t51 32.5t28.5 55
q-35 -1 -67.5 -6.5t-58 -15.5t-42.5 -25t-22 -34z" />
    <glyph glyph-name="o_swsh" unicode="o__" horiz-adv-x="517" 
d="M162 1q-25 -3 -54 1.5t-55 16.5t-47 32t-31 49q-8 55 7.5 111t47 105t76.5 87t97 58q28 8 51.5 3.5t39.5 -12.5q25 5 53.5 -0.5t48.5 -18.5q8 -20 11.5 -41.5t3.5 -44.5q63 -4 132.5 6t143 34t149 62.5t149.5 92.5q7 -11 12.5 -25t7.5 -30t0 -32.5t-9 -31.5
q-55 -36 -132 -65t-159 -47.5t-161.5 -24.5t-139.5 3q-11 -47 -34 -94t-55 -86t-71.5 -68t-81.5 -40zM309 316q-23 14 -40 37.5t-13 57.5q-26 -20 -55.5 -50t-55.5 -65t-45.5 -72t-27 -70.5t1 -60.5t39.5 -41q34 9 65 35t57 62.5t45 79.5t29 87z" />
    <glyph glyph-name="p_swsh" unicode="p__" horiz-adv-x="518" 
d="M441 372q1 -22 -4 -48t-15 -53.5t-24 -56.5t-30 -56q129 35 224.5 18.5t140.5 -79.5q49 -5 95.5 -18t88.5 -36q18 -28 15.5 -62t-16.5 -57q-26 34 -71 59t-99 39q-13 -33 -51 -60t-90.5 -39.5t-113 -6t-117.5 41.5q-6 28 12 52t53.5 43t84 31t103.5 15q-29 19 -66 26
t-77 4.5t-81 -12.5t-77 -24q-14 -19 -28 -35t-27 -27q-19 -24 -33 -30.5t-28 -8.5q-10 -1 -24 -0.5t-29 3t-30 7.5t-27 13q-2 19 5 37t30 38q25 11 48 19.5t44 14.5q22 32 43 68t36.5 72t23 69.5t3.5 59.5q-41 -25 -89 -77t-95.5 -115.5t-90.5 -131t-74 -123.5
q-26 -73 -46 -140.5t-27 -117.5q-21 3 -45.5 14.5t-38.5 34.5q2 42 25.5 122.5t58.5 179.5q24 69 52.5 137.5t57.5 125.5t56 97t48 51q14 7 32 9.5t36 1.5t32.5 -5t20.5 -10q-23 -23 -52 -59t-58.5 -79.5t-57 -92.5t-48.5 -98q23 34 49 70.5t53.5 72t54 68.5t49.5 60
t41.5 46t29.5 27q51 2 87 -22t47 -67zM453 -17q20 -17 50.5 -22.5t60.5 1.5t55 26.5t35 51.5q-36 3 -69 1.5t-60 -8.5t-46 -19.5t-26 -30.5z" />
    <glyph glyph-name="q_swsh" unicode="q__" horiz-adv-x="517" 
d="M93 -2q-63 -4 -97.5 13t-46.5 48t-3.5 72t31 85t55.5 86.5t72 77t80 56.5t79 24q8 0 21 -1.5t28.5 -6t32 -12.5t31.5 -20q19 25 36 34q10 5 21.5 4.5t23.5 -4.5t23 -11.5t21 -15.5q-53 -54 -101.5 -152t-96.5 -226q-12 -31 -23 -61.5t-22 -60.5q54 -3 115.5 -6.5
t124.5 -6t124 -3.5t114.5 0.5t96 5.5t68.5 12q-2 -17 -9.5 -36.5t-17 -37t-21 -30.5t-22.5 -16q-12 -4 -44.5 -2t-78.5 6.5t-103.5 12t-119.5 15t-125.5 13.5t-121.5 10q-14 -46 -24 -87t-14 -74q-29 2 -49.5 15.5t-32.5 35.5q0 20 5.5 49t15.5 65q-45 0 -80 -4t-57 -14
q0 13 5.5 27.5t14 27.5t19 22t21.5 11q3 1 28.5 -0.5t67.5 -4.5q8 29 18.5 59t21.5 62q29 84 64 163zM309 394q-43 -5 -83 -29.5t-74 -59t-60 -74t-40.5 -75.5t-15 -62.5t15.5 -35.5l258 291v24.5t-1 20.5z" />
    <glyph glyph-name="r_swsh" unicode="r__" horiz-adv-x="371" 
d="M0 258q22 32 38.5 63t26.5 57q-12 7 -21 16.5t-11 21.5t3.5 29.5t13 35t14 32t6.5 21.5q21 1 37.5 -3t29 -10.5t19.5 -14.5t8 -15q2 -14 -7.5 -34t-21.5 -40q20 5 43.5 12.5t43.5 15.5q14 14 36 16t60 -22q-33 -56 -57 -118t-40 -123.5t-24 -119t-9.5 -104.5t4 -81
t17.5 -47q47 20 109.5 38.5t131.5 33t141 24.5t138.5 12.5t124 -3.5t97.5 -23q10 -12 16 -28.5t8 -33.5t0 -33t-8 -28q-63 30 -133 44.5t-141 17.5t-141 -3t-134 -17t-119 -25.5t-96 -27.5q-15 2 -31.5 8t-33 14.5t-31 20.5t-24.5 26q-7 31 -6 74.5t8.5 92.5t19.5 101
t26.5 100.5t29.5 90t28 70.5l-84 -28q-14 -33 -33.5 -70t-39.5 -65q-9 -2 -20 1t-12 28z" />
    <glyph glyph-name="s_swsh" unicode="s__" horiz-adv-x="338" 
d="M236 489q0 -4 -9.5 -18t-23 -32t-28 -37t-25.5 -32q-2 -43 9.5 -91t25.5 -97t24 -97.5t5 -93.5q77 -8 162.5 -24t164.5 -40t145 -55t105 -68q5 -15 4 -32.5t-5.5 -34t-12.5 -30.5t-17 -23q-56 59 -128 102.5t-149 73.5t-155 49t-146 29q-25 -22 -59 -34t-69 -15.5
t-67 2.5t-53 20q-1 20 11 41t30 35q26 7 59.5 10t65.5 3q2 25 -2 56.5t-10 67.5t-12 75t-9 79q-19 -30 -35 -49q-9 -2 -20 1t-12 28q25 35 42.5 69.5t27.5 62.5q5 36 18.5 70t37.5 65q35 6 64.5 -3.5t45.5 -32.5z" />
    <glyph glyph-name="t_swsh" unicode="t__" horiz-adv-x="247" 
d="M40 500q0 12 5 25t12.5 24t16 18.5t15.5 9.5q6 2 25 2h46q18 27 34.5 47.5t27.5 27.5q15 8 33 9.5t34.5 -1t29.5 -7.5t18 -9q-9 -8 -23.5 -26.5t-31.5 -42.5q38 1 71 2.5t54 6.5q-2 -15 -7.5 -30.5t-13.5 -28.5t-17.5 -21.5t-17.5 -11.5q-14 -4 -45 1t-71 11
q-13 -20 -23.5 -38.5t-18.5 -32.5q-38 -61 -65.5 -125t-45.5 -125.5t-28 -117t-13 -99.5t-0.5 -72.5t10.5 -36.5q73 48 141 76.5t127 37t107 -3t81 -42.5q50 5 99 2.5t94 -16.5q12 -12 18.5 -27t9 -31t1 -31.5t-5.5 -27.5q-32 29 -82 43.5t-105 18.5q-5 -35 -37 -70
t-80.5 -58t-108.5 -29.5t-123 15.5q-12 26 0.5 54t43.5 53.5t76.5 47.5t98.5 37q-40 17 -88.5 11.5t-97 -24t-92.5 -46.5t-74 -55q-15 2 -32 7t-33.5 13t-31.5 19t-25 25q-9 32 -8 76t9.5 94.5t23.5 105.5t34.5 109.5t42.5 106t48 95.5q8 15 17.5 33t20.5 36
q-21 -1 -41.5 -4t-38.5 -10zM258 -242q23 -12 53.5 -11t58.5 14t48.5 37.5t23.5 57.5q-35 -4 -67 -12.5t-57 -21t-41 -28.5t-19 -36z" />
    <glyph glyph-name="u_swsh" unicode="u__" horiz-adv-x="503" 
d="M464 439q-34 -58 -59.5 -122.5t-43 -127t-28 -120.5t-14 -104t-1.5 -76.5t10 -38.5q73 48 141 76.5t127 37t107 -3t81 -42.5q50 5 99 2.5t94 -16.5q12 -12 18.5 -27t9 -31t1 -31.5t-5.5 -27.5q-32 29 -82 43.5t-105 18.5q-5 -35 -37 -70t-80.5 -58t-108.5 -29.5
t-123 15.5q-12 26 0.5 54t43.5 53.5t76.5 47.5t98.5 37q-40 17 -88.5 11.5t-97 -24t-92.5 -46.5t-74 -55q-15 2 -32 7t-33.5 13t-31.5 19t-25 25q-9 34 -5.5 85t15.5 109t29.5 117.5t36.5 112.5l-187 -273q-26 1 -49 8.5t-41 17.5t-30.5 22t-17.5 23q-6 23 -1 56.5
t16.5 70.5t28.5 75t36 71t39 58.5t38 37.5q10 7 25.5 10.5t32 3t31 -4.5t22.5 -13q-23 -26 -47 -60.5t-46 -72.5t-40 -75.5t-28.5 -70.5t-12 -58t8.5 -37l274 336q11 23 18 32q7 10 15.5 18.5t21.5 11.5t30.5 -1.5t41.5 -19.5zM535 -251q23 -12 53.5 -11t58.5 14t48.5 37.5
t23.5 57.5q-35 -4 -67 -12.5t-57 -21t-41 -28.5t-19 -36z" />
    <glyph glyph-name="v_swsh" unicode="v__" horiz-adv-x="469" 
d="M384 300q-26 -53 -63.5 -98t-80 -83t-86.5 -68t-83 -51q-16 2 -30.5 9t-26 16.5t-19.5 20.5t-11 22q-6 23 -5 56t6.5 70t15.5 74.5t22.5 71.5t27.5 60t31 40q11 9 26 12.5t30.5 3t29 -5.5t21.5 -14q-19 -28 -40.5 -76t-38 -101t-25 -103.5t-2.5 -83.5q69 44 124 111
t80 153q-18 21 -15.5 46.5t14 47.5t26 35.5t20.5 11.5q23 -3 41 -10q16 -6 30 -17.5t18 -30.5q-5 -35 -15 -66q61 -3 130 6.5t143.5 32.5t151.5 60t154 90q15 -22 20 -56t-11 -62q-59 -36 -137 -64t-161.5 -45.5t-165 -22t-146.5 7.5z" />
    <glyph glyph-name="w_swsh" unicode="w__" horiz-adv-x="702" 
d="M216 436q-22 -27 -43.5 -62t-41 -72t-35 -74t-25 -68.5t-12 -54.5t5.5 -33l236 314q18 40 34 54q9 8 24 11.5t30.5 3t29.5 -5t22 -13.5q-19 -29 -40.5 -78.5t-37.5 -103.5t-23.5 -105t0.5 -83q72 44 130 112.5t84 157.5q-18 21 -15.5 46.5t14 47.5t26 35.5t20.5 11.5
q23 -3 41 -10q16 -6 30 -17.5t18 -30.5q-4 -29 -14 -60q60 -2 129 7.5t142 32t149.5 59t151.5 87.5q7 -11 12.5 -25t7.5 -30t-0.5 -32.5t-10.5 -30.5q-57 -36 -134 -63.5t-159.5 -45t-163.5 -22t-146 6.5q-26 -53 -63.5 -98.5t-80 -84t-87 -68.5t-83.5 -52q-15 3 -30.5 10.5
t-29 17.5t-23.5 20.5t-15 19.5q-7 33 -0.5 85.5t20.5 106.5l-164 -260q-26 1 -47.5 8.5t-38.5 18t-28 21.5t-16 20q-6 23 -1.5 57.5t15 72.5t26 77t33 72.5t34.5 58t32 34.5q11 7 27 10.5t32 3t30 -4.5t22 -13z" />
    <glyph glyph-name="x_swsh" unicode="x__" horiz-adv-x="430" 
d="M170 457q-13 -34 -13.5 -90t9.5 -114q25 37 48 72t44.5 63.5t42.5 49t41 28.5q21 2 40.5 -1.5t36 -10t27.5 -14t16 -14.5q-23 -7 -58 -27.5t-74.5 -50t-79.5 -66.5t-72 -77q47 -83 107.5 -143.5t129 -96t143.5 -46.5t152 5q5 -35 -5.5 -74t-33.5 -66q-26 -6 -66.5 -3.5
t-89 17.5t-102.5 43t-106.5 72t-101 105t-86.5 143q-39 -66 -75.5 -110t-66.5 -62q-44 5 -67.5 20t-31.5 31q19 8 45.5 24t55.5 38t59.5 49t58.5 57q-14 47 -24 88q-10 -18 -20.5 -35.5t-20.5 -31.5q-9 -2 -20 1t-12 28q19 28 33.5 55.5t25.5 51.5q-6 46 4 80q8 9 22 13.5
t30 5t30.5 -1.5t24.5 -5z" />
    <glyph glyph-name="y_swsh" unicode="y__" horiz-adv-x="492" 
d="M373 441q9 12 23.5 15t30 1t29 -8t19.5 -13q-36 -56 -65.5 -116t-56 -120t-50 -118t-47.5 -112q85 10 176 7.5t171.5 -14.5t142 -33.5t88.5 -48.5q1 -9 -0.5 -22.5t-6.5 -28.5t-14.5 -28.5t-24.5 -21.5q-55 34 -125.5 61t-146 44.5t-151 22.5t-140.5 -4
q-24 -48 -50.5 -88t-58.5 -70q-26 3 -51.5 8.5t-47 16t-37 26.5t-21.5 38q22 42 70.5 69.5t113.5 44.5q33 64 64 140.5t63 152.5l-167 -208q-27 1 -50.5 8t-41.5 17t-29 21.5t-14 22.5q-5 23 0.5 55.5t18.5 68.5t31 72t38 67t39 53.5t35 31.5q11 6 26.5 9t31.5 2.5t29.5 -5
t21.5 -13.5q-38 -42 -73.5 -94.5t-60.5 -102t-36 -89.5t1 -57l266 276q9 17 17 32t20 32zM45 -184q9 8 18.5 16.5t17.5 19.5q-21 -15 -36 -36z" />
    <glyph glyph-name="z_swsh" unicode="z__" horiz-adv-x="468" 
d="M80 448q23 16 47 20.5t48 2.5t48 -7.5t46.5 -9t42.5 -2.5t38 12q21 -1 39 -7t32.5 -13.5t24.5 -16t14 -14.5q-66 -32 -123.5 -78.5t-106.5 -96.5t-88.5 -99t-70.5 -85q80 6 156 -2t145 -26.5t128.5 -44.5t106 -56t79 -61t46.5 -59q-2 -42 -19 -73.5t-50 -51.5
q-40 81 -107.5 146.5t-152.5 110t-181 64.5t-192 9q-12 -11 -21 -15q-44 3 -66.5 16.5t-30.5 28.5q13 7 36 29t51.5 52.5t61.5 68t68.5 76t70.5 74.5t68 65q-23 -5 -44 -8.5t-40.5 -8.5t-39.5 -12.5t-42 -19.5q-14 -32 -32.5 -66.5t-37.5 -60.5q-9 -2 -19.5 1t-12.5 28
q33 48 54 94t26 73q2 16 0 23z" />
    <glyph glyph-name="swsh03" unicode="&#xa7;&#x31;" horiz-adv-x="77" 
d="M0 258q7 2 16 1t17 -6.5t14 -15.5t8 -26q-37 -30 -57.5 -67t-27.5 -75.5t-2.5 -77t16 -71.5t29 -59t37.5 -40q-9 -8 -28 -11t-40 -1t-40.5 8t-30.5 17v2q-213 24 -402 28t-350 -8.5t-292 -38t-229 -60t-162 -76.5t-90 -86q-32 8 -53.5 28.5t-33.5 44.5t-16 48t0 39
q30 40 111.5 71t201.5 52.5t272 33.5t322 13t352 -8.5t362 -30.5q-3 45 0 98t14 104.5t31.5 96t50.5 73.5z" />
    <glyph glyph-name="swsh04" unicode="&#xa7;&#x32;" horiz-adv-x="478" 
d="M45 236q-27 -76 -68 -145t-92 -131q99 5 194 -1t173 -25t133 -52.5t73 -83.5q-1 -14 -6 -31t-14 -32.5t-22.5 -27.5t-32.5 -16q-24 70 -78.5 115.5t-128.5 70.5t-161 32t-174 0q-61 -66 -127 -120t-126.5 -92t-112 -58.5t-84.5 -21.5q-43 20 -71 61.5t-25 89.5
q14 34 60.5 64.5t115.5 54.5t154 41t177 26q69 68 122 146t76 158zM-628 -282q34 -3 77.5 9t92 36t99.5 58.5t100 76.5q-75 -12 -142 -31.5t-117 -43.5t-80 -51t-30 -54z" />
    <glyph glyph-name="swsh05" unicode="&#xa7;&#x33;" horiz-adv-x="20" 
d="M-444 -234q22 33 43 61q-64 12 -143 18.5t-165.5 7.5t-178 -4t-180 -16.5t-171.5 -29t-153.5 -42t-125 -55.5t-86.5 -70q-19 4 -34 16.5t-26.5 29t-18 34t-7.5 31.5q25 42 103.5 74t191 53t248.5 31t275 10t271 -10.5t237 -31.5q36 43 74.5 82.5t74 72t65.5 57t50 38.5
q8 1 14.5 -2t5.5 -13q-35 -37 -72 -78q-32 -35 -69 -80.5t-72 -93.5q60 -16 102 -36t62 -45q-1 -18 -8 -38.5t-19.5 -39.5t-30 -35t-38.5 -26q-6 0 -34 9t-63.5 26t-69.5 41t-52 54zM-205 -274q-3 26 -34.5 46.5t-85.5 36.5q-11 -17 -21 -33.5t-18 -32.5q52 -14 93 -19t66 2
z" />
    <glyph glyph-name="swsh06" unicode="&#xa7;&#x34;" horiz-adv-x="20" 
d="M-259 -157q2 -6 -0.5 -16.5t-8.5 -22.5t-16.5 -23.5t-23.5 -18.5q-31 27 -102 45.5t-170 27t-218 8t-245 -11t-252 -30t-238.5 -48.5t-204 -68t-149.5 -87q-21 6 -35 21.5t-22.5 34.5t-12.5 38t-5 33q45 34 131.5 63t199.5 51.5t245 39t268 25.5t269 10.5t247.5 -6
t204 -23.5t138.5 -42z" />
    <glyph glyph-name="swsh07" unicode="&#xa7;&#x35;" horiz-adv-x="20" 
d="M-345 -218q-154 32 -320 45t-326 10.5t-307.5 -19.5t-265 -45.5t-198 -67t-106.5 -83.5q-24 6 -47 26.5t-39.5 46.5t-25 51.5t-4.5 40.5q89 43 213.5 69.5t269 39t301.5 12t310.5 -11t296 -29.5t258.5 -43z" />
    <glyph glyph-name="swsh08" unicode="&#xa7;&#x36;" horiz-adv-x="77" 
d="M0 258q7 2 16 1t17 -6.5t14 -15.5t8 -26q-37 -30 -57.5 -67t-27.5 -75.5t-2.5 -77t16 -71.5t29 -59t37.5 -40q-9 -8 -28 -11t-40 -1t-40.5 8t-30.5 17v2q-135 14 -291 21t-323 7.5t-341 -5t-345.5 -16t-335.5 -25.5t-311.5 -34t-274 -41t-222 -46t-155.5 -49.5t-76 -52.5
q-32 8 -53.5 28.5t-33.5 44.5t-16 48t0 39q18 24 85 45t173 38.5t244 31.5t297.5 24.5t334.5 17.5t354.5 10.5t358 2.5t344.5 -5t313.5 -12.5t266.5 -21.5q-3 45 0 98t14 104.5t31.5 96t50.5 73.5z" />
    <glyph glyph-name="swsh09" unicode="&#xa7;&#x37;" horiz-adv-x="478" 
d="M45 236q-26 -75 -81 -145t-136 -133q124 -6 233 -18t193 -31.5t137.5 -47t66.5 -63.5q-1 -14 -6 -31t-14 -32.5t-22.5 -27.5t-32.5 -16q-17 51 -72.5 88.5t-138.5 63.5t-189.5 41.5t-225.5 22.5q-108 -71 -247 -128t-305 -95.5t-356 -56.5t-398 -10q-43 20 -71 61.5
t-25 89.5q12 31 78 58t169.5 49.5t237.5 40t282.5 29t304 15.5t302.5 1q112 72 181 148.5t90 148.5zM-1568 -282q187 -25 359.5 -19.5t326.5 34t286.5 75t239.5 104.5q-138 3 -281.5 -3.5t-278 -19.5t-253.5 -32t-207.5 -41.5t-140 -47.5t-51.5 -50z" />
    <glyph glyph-name="swsh10" unicode="&#xa7;&#x38;" horiz-adv-x="20" 
d="M-444 -234q14 22 28 40q-87 14 -201 24t-246 15.5t-277.5 7t-294.5 -1.5t-297 -11t-285 -20.5t-259 -30.5t-219 -40.5t-164 -50.5t-95 -62q-19 4 -34 16.5t-26.5 29t-18 34t-7.5 31.5q16 27 77 50t156.5 41t220.5 32t269 23.5t301 15t317.5 6.5t318.5 -2t303.5 -10.5
t272.5 -19t226 -27.5q37 46 77.5 88t78 77t69.5 61t53 41q8 1 14.5 -2t5.5 -13q-38 -40 -77 -84q-33 -38 -72 -85t-74 -97q69 -14 114 -30.5t60 -36.5q-1 -18 -8 -38.5t-19.5 -39.5t-30 -35t-38.5 -26q-6 0 -34 9t-63.5 26t-69.5 41t-52 54zM-205 -274q-2 20 -36.5 35.5
t-94.5 29.5q-8 -12 -15 -24t-13 -24q52 -14 93 -19t66 2z" />
    <glyph glyph-name="swsh11" unicode="&#xa7;&#x39;" horiz-adv-x="20" 
d="M-259 -157q2 -6 -0.5 -16.5t-8.5 -22.5t-16.5 -23.5t-23.5 -18.5q-24 22 -107.5 38t-209.5 26t-286.5 14t-339 2t-367.5 -10.5t-372 -22.5t-352.5 -34t-308 -46.5t-239.5 -59t-147 -71.5q-21 6 -35 21.5t-22.5 34.5t-12.5 38t-5 33q36 27 131.5 51t233 44.5t309 36.5
t360 28t385.5 19t386.5 9.5t362 -0.5t312 -11.5t237 -23t136.5 -35.5z" />
    <glyph glyph-name="swsh12" unicode="&#xa7;&#x30;" horiz-adv-x="20" 
d="M-345 -218q-93 19 -222.5 31.5t-283 18.5t-324.5 6t-347.5 -5t-351 -15t-335.5 -24.5t-301.5 -33t-248 -40t-175.5 -46.5t-84 -52q-24 6 -47 26.5t-39.5 46.5t-25 51.5t-4.5 40.5q54 26 153 45.5t231 34t290.5 23.5t331 13t353.5 4t357 -4t341 -11t306.5 -17.5t253.5 -23
t182 -27.5z" />
    <glyph glyph-name="section_section" unicode="&#xa7;&#xa7;" horiz-adv-x="18" 
d="M-250 -157q2 -6 -0.5 -16.5t-8.5 -22.5t-16.5 -23.5t-23.5 -18.5q-24 22 -95.5 38t-176.5 26t-238 14t-281 2t-304 -10.5t-308.5 -22.5t-294 -34t-260 -46.5t-207 -59t-134.5 -71.5q-21 6 -35 21.5t-22.5 34.5t-12.5 38t-5 33q36 27 119.5 51t200 44.5t260.5 36.5
t301.5 28t322.5 19t323 9.5t303 -0.5t264 -11.5t204.5 -23t124.5 -35.5z" />
    <glyph glyph-name="section_section_section" unicode="&#xa7;&#xa7;&#xa7;" horiz-adv-x="27" 
d="M-250 -157q2 -6 -0.5 -16.5t-8.5 -22.5t-16.5 -23.5t-23.5 -18.5q-24 22 -117.5 38t-236.5 26t-326.5 14t-388.5 2t-421.5 -10.5t-425.5 -22.5t-401 -34t-348 -46.5t-267 -59t-157 -71.5q-21 6 -35 21.5t-22.5 34.5t-12.5 38t-5 33q36 27 141.5 51t260 44.5t349 36.5
t409 28t439.5 19t440 9.5t410.5 -0.5t352 -11.5t264.5 -23t147 -35.5z" />
    <glyph glyph-name="section_section_section_section" unicode="&#xa7;&#xa7;&#xa7;&#xa7;" horiz-adv-x="36" 
d="M-250 -157q2 -6 -0.5 -16.5t-8.5 -22.5t-16.5 -23.5t-23.5 -18.5q-24 22 -147 38t-317.5 26t-445.5 14t-532 2t-578 -10.5t-582.5 -22.5t-545.5 -34t-467 -46.5t-347.5 -59t-186.5 -71.5q-21 6 -35 21.5t-22.5 34.5t-12.5 38t-5 33q36 27 171 51t341 44.5t468 36.5
t553 28t596 19t596.5 9.5t555 -0.5t471 -11.5t345 -23t176.5 -35.5z" />
    <glyph glyph-name="n_quotesingle_t" unicode="n&#x27;t" horiz-adv-x="803" 
d="M881 646q-12 -14 -25 -31.5t-27 -37.5q35 1 67 2.5t52 6.5q-2 -15 -7.5 -30.5t-13.5 -28.5t-17.5 -21.5t-17.5 -11.5q-14 -4 -43.5 1t-67.5 11q-38 -58 -75 -122t-64.5 -125t-42 -112.5t-7.5 -84.5q16 7 44.5 28.5t59.5 49.5t60 59.5t47 58.5q10 -1 17 -5q6 -3 11 -9
t4 -15q-12 -21 -35 -48t-53.5 -57.5t-68.5 -62.5t-81 -61q-17 1 -33 7.5t-29 15.5t-22 19.5t-12 21.5q-7 28 -1 72q-33 -37 -73 -76t-78 -68q-30 1 -64.5 17.5t-56.5 54.5q-3 19 -0.5 42t13.5 57t33.5 83.5t60.5 120.5q-56 -56 -110 -118q-46 -53 -95.5 -118t-83.5 -131
q-9 -2 -21.5 1.5t-25 11t-24 18t-18.5 23.5q-3 27 3 64t17.5 77.5t27 81t32.5 74t33 57.5t29 32q28 17 58.5 12t52.5 -16q-25 -37 -50.5 -81.5t-47 -89.5t-36.5 -86.5t-18 -72.5q106 152 176.5 238t102.5 106q11 7 31 9t41.5 0t40.5 -9t28 -18q-14 -22 -30.5 -52.5
t-33 -65.5t-32 -71.5t-26.5 -70.5t-16.5 -62.5t-2.5 -46.5q19 6 45.5 27.5t54 50t53.5 59.5t45 58q24 63 58.5 129.5t71.5 126.5q-21 -1 -41 -4t-38 -10q0 12 5 25t12.5 24t16 18.5t16.5 9.5q6 2 25.5 2h45.5q16 22 30.5 41t28.5 34q15 8 33 9.5t34.5 -1t29.5 -7.5t18 -9z
M473 494q5 25 7 49t2 48.5t-2.5 51t-5.5 58.5q18 6 39.5 5.5t40.5 -5t33 -12.5t17 -17q-3 -24 -11 -50.5t-18.5 -53.5t-24.5 -52t-29 -44q-11 1 -26.5 4.5t-21.5 17.5z" />
    <glyph glyph-name="I_quotesingle_m" unicode="I&#x27;m" horiz-adv-x="1271" 
d="M417 770q13 2 29 -0.5t30.5 -9.5t26 -18t17.5 -26q-43 -122 -95 -233.5t-95.5 -204.5t-70 -165.5t-17.5 -116.5q39 18 80 53.5t77 75t63.5 76.5t40.5 57h1q12 33 25.5 63.5t26.5 55t25.5 41.5t21.5 22q28 15 56.5 12.5t54.5 -16.5q-25 -37 -50.5 -80.5t-46.5 -88
t-35.5 -85.5t-17.5 -72q45 70 84.5 128t73 102t59.5 72.5t43 39.5q10 6 29 8t38.5 -0.5t37 -9.5t26.5 -18q-16 -26 -36 -64.5t-39.5 -81t-36 -85.5t-24.5 -79q43 66 82.5 122.5t72.5 99.5t59 71t41 37q12 6 31.5 8t40.5 -0.5t39.5 -9.5t27.5 -18q-14 -22 -30.5 -52.5
t-33.5 -66t-32.5 -72.5t-26.5 -71t-16.5 -63t-2.5 -47q19 6 46 28t55 51t54 60.5t45 58.5q9 -2 20.5 -7t11.5 -22q-8 -20 -30.5 -49t-52.5 -61.5t-65 -65.5t-68 -61q-29 1 -64 18.5t-55 53.5q-3 19 -2 41.5t11.5 56.5t32.5 83.5t61 121.5q-46 -47 -91 -102
q-38 -47 -81.5 -106.5t-77.5 -125.5q-11 -2 -27 0t-31.5 7t-29.5 13.5t-21 19.5q-5 38 20.5 112t84.5 182q-51 -56 -100 -118q-42 -53 -88.5 -118t-80.5 -131q-8 -1 -20 2.5t-24.5 11t-24 17.5t-18.5 23q-3 31 6 75q-21 -27 -45.5 -55t-52.5 -53.5t-57 -45.5t-59 -31h-2
q-12 -4 -31 0.5t-38.5 15t-36 26t-24.5 34.5q-2 47 23.5 119t65.5 160.5t87.5 189t89.5 202.5q-63 -54 -111 -100.5t-80.5 -90.5t-49.5 -87.5t-18 -91.5q-11 -5 -27.5 -6t-33.5 2.5t-32.5 11.5t-23.5 21q11 62 47.5 115.5t91 104t123.5 99.5t144 101zM551 521q6 26 11 49.5
t8.5 47t4 49.5t-2.5 58q18 6 39.5 5.5t40.5 -5t33 -12.5t17 -17q-3 -24 -14 -50.5t-25.5 -53t-31.5 -51t-32 -42.5q-11 1 -26.5 4.5t-21.5 17.5z" />
    <glyph glyph-name="t_quotesingle_s" unicode="t&#x27;s" horiz-adv-x="610" 
d="M49 500q0 12 5 25t12.5 24t16 18.5t16.5 9.5q7 2 26 2t45 -1q33 47 59 76q15 8 33 9.5t34.5 -1t29.5 -7.5t18 -9q-11 -14 -24 -31t-27 -37q23 1 42.5 2.5t35.5 5.5q-2 -15 -7.5 -30.5t-13.5 -28.5t-17.5 -21.5t-17.5 -11.5q-11 -3 -30 0t-44 8q-38 -58 -74 -121.5
t-63 -123.5t-41.5 -111t-7.5 -84q16 7 44.5 28.5t59.5 49.5t60 59.5t47 58.5h2q23 32 39.5 64t26.5 59q4 35 17.5 71.5t42.5 72.5q35 6 64.5 -3.5t45.5 -32.5q0 -4 -9.5 -18t-23 -31.5t-28 -36.5t-25.5 -32q1 -29 12 -57.5t23.5 -58.5t23.5 -61.5t12 -66.5q36 29 68.5 64
t52.5 67q9 -2 17 -6q6 -3 11.5 -9t3.5 -14q-9 -15 -23.5 -34.5t-34.5 -41t-46.5 -44t-59.5 -42.5q-23 -30 -67.5 -47.5t-94 -23.5t-94.5 -0.5t-69 21.5q0 10 3.5 22.5t9.5 24.5t15 22.5t20 17.5q34 -8 63 -24t55 -30q17 5 30.5 15t23.5 30q2 19 -1.5 40.5t-9 45.5t-12 50
t-11.5 54q-20 -34 -39 -56q-1 0 -1.5 -0.5t-1.5 -0.5q-12 -21 -34.5 -48t-53.5 -57.5t-68.5 -62t-80.5 -60.5q-17 1 -33 7.5t-29 15.5t-22 19.5t-12 21.5q-9 34 2 87t35 114.5t57.5 126.5t69.5 123q-20 -1 -39.5 -4t-39.5 -11zM399 584q6 26 9 50.5t3.5 50t-1 53t-4.5 59.5
q18 6 39.5 5.5t40.5 -5t33 -12.5t17 -17q-3 -24 -12 -52t-21 -56t-26.5 -54t-29.5 -44q-11 1 -26.5 4.5t-21.5 17.5z" />
    <glyph glyph-name="y_quotesingle_r" unicode="y&#x27;r" horiz-adv-x="920" 
d="M920 258q2 0 8 -1t11.5 -4.5t9.5 -9t3 -14.5q-12 -21 -32.5 -48t-49 -57.5t-64.5 -62.5t-79 -61q-19 1 -37.5 8t-34 16t-26 19.5t-12.5 19.5q-6 27 2.5 70.5t25 90.5t37.5 93.5t39 79.5q-13 -5 -37 -12.5t-52 -17.5q-14 -33 -34 -71t-40 -67q-1 0 -1.5 -0.5t-1.5 -0.5
q-24 -36 -54 -64.5t-63.5 -51t-69.5 -40.5t-71 -33q-35 -81 -73 -150.5t-90 -123.5q-27 0 -55 5t-53 15.5t-44.5 26.5t-28.5 37q6 43 28.5 73.5t57 53t77.5 40.5t91 36q23 53 43.5 108t40.5 107l-188 -233q-27 1 -50.5 8t-41.5 17t-29 21.5t-14 22.5q-5 23 0.5 55.5
t18.5 68.5t31 72t38 67t39 53.5t35 31.5q11 6 26.5 9t31.5 2.5t29.5 -5t21.5 -13.5q-38 -42 -73.5 -94.5t-60.5 -102t-36 -89.5t1 -57l269 278q8 17 16.5 32t17.5 28t25.5 16.5t34 1.5t32.5 -8t21 -13q-53 -84 -91 -169t-73 -167q57 27 108.5 64t93.5 94h2q22 32 38.5 63
t26.5 57q-12 7 -21 16.5t-11 21.5t3.5 29.5t13 35t14 32t6.5 21.5q21 1 37.5 -3t29 -10.5t19.5 -14.5t8 -15q2 -14 -7 -34t-22 -40q21 5 45.5 12.5t44.5 16.5q20 12 47 10t47 -20q-10 -20 -24.5 -50t-30 -65.5t-30.5 -73t-25.5 -73t-15 -65.5t0.5 -49q16 7 43 29t55.5 50.5
t56 60t45.5 58.5zM469 501q11 53 12.5 104t-5.5 115q18 6 39.5 5.5t40.5 -5t33 -12.5t17 -17q-3 -24 -12 -53t-21 -58.5t-26.5 -56t-29.5 -44.5q-11 1 -26.5 4.5t-21.5 17.5zM58 -172q35 26 64 68t55 93q-30 -14 -54.5 -29.5t-41 -34.5t-23 -43t-0.5 -54z" />
    <glyph glyph-name="u_quotesingle_r" unicode="u&#x27;r" horiz-adv-x="927" 
d="M927 258q2 0 8 -1t11.5 -4.5t9.5 -9t3 -14.5q-12 -21 -32.5 -48t-49 -57.5t-64.5 -62.5t-79 -61q-19 1 -37.5 8t-34 16t-26 19.5t-12.5 19.5q-6 27 2.5 70.5t25 90.5t37.5 93.5t39 79.5q-13 -5 -37 -12.5t-52 -17.5q-14 -33 -34 -71t-40 -67q-1 0 -1.5 -0.5t-1.5 -0.5
q-12 -21 -32.5 -48t-48.5 -57.5t-64 -62t-79 -60.5q-32 5 -63.5 24t-42.5 41q-4 15 -3 34.5t5.5 42.5t12.5 48.5t17 51.5l-166 -242q-26 1 -49 8.5t-41 17.5t-30.5 22t-17.5 23q-6 23 -1 56.5t16.5 70.5t28.5 75t36 71t39 58.5t38 37.5q10 7 25.5 10.5t32 3t31 -4.5
t22.5 -13q-23 -26 -47 -60.5t-46 -72.5t-40 -75.5t-28.5 -70.5t-12 -58t8.5 -37l273 335q11 18 20.5 31t16.5 19q16 14 43 11.5t50 -22.5q-10 -20 -25.5 -50t-31.5 -64.5t-31.5 -72t-27 -72.5t-16 -65t0.5 -49q16 7 42 28.5t54.5 49t55 59t44.5 58.5l2 -1v1q22 32 38.5 63
t26.5 57q-12 7 -21 16.5t-11 21.5t3.5 29.5t13 35t14 32t6.5 21.5q21 1 37.5 -3t29 -10.5t19.5 -14.5t8 -15q2 -14 -7 -34t-22 -40q21 5 45.5 12.5t44.5 16.5q20 12 47 10t47 -20q-10 -20 -24.5 -50t-30 -65.5t-30.5 -73t-25.5 -73t-15 -65.5t0.5 -49q16 7 43 29t55.5 50.5
t56 60t45.5 58.5zM472 501q11 53 12.5 104t-5.5 115q18 6 39.5 5.5t40.5 -5t33 -12.5t17 -17q-3 -24 -12 -53t-21 -58.5t-26.5 -56t-29.5 -44.5q-11 1 -26.5 4.5t-21.5 17.5z" />
    <glyph glyph-name="e_quotesingle_r" unicode="e&#x27;r" horiz-adv-x="825" 
d="M825 258q2 0 8 -1t11.5 -4.5t9.5 -9t3 -14.5q-12 -21 -32.5 -48t-49 -57.5t-64.5 -62.5t-79 -61q-19 1 -37.5 8t-34 16t-26 19.5t-12.5 19.5q-6 27 2.5 70.5t25 90.5t37.5 93.5t39 79.5q-13 -5 -37 -12.5t-52 -17.5q-14 -33 -34 -71t-40 -67q-1 0 -1.5 -0.5t-1.5 -0.5
q-12 -21 -40.5 -50.5t-66 -62t-82 -63t-89.5 -52.5q-34 1 -65 7t-58 18.5t-48.5 33t-34.5 50.5q-8 50 9 108.5t49.5 110.5t76 90t88.5 47q21 1 49 -5.5t54 -18.5t48 -29t31 -37q-4 -26 -21.5 -52t-43.5 -50.5t-58 -46t-64 -39.5t-61.5 -31.5t-50.5 -20.5l2 -12
q6 -29 33 -46.5t59 -16.5q25 9 61 31t73 50t69 59t50 58l2 -1v1q22 32 38.5 63t26.5 57q-12 7 -21 16.5t-11 21.5t3.5 29.5t13 35t14 32t6.5 21.5q21 1 37.5 -3t29 -10.5t19.5 -14.5t8 -15q2 -14 -7 -34t-22 -40q21 5 45.5 12.5t44.5 16.5q20 12 47 10t47 -20
q-10 -20 -24.5 -50t-30 -65.5t-30.5 -73t-25.5 -73t-15 -65.5t0.5 -49q16 7 43 29t55.5 50.5t56 60t45.5 58.5zM358 501q11 53 12.5 104t-5.5 115q18 6 39.5 5.5t40.5 -5t33 -12.5t17 -17q-3 -24 -12 -53t-21 -58.5t-26.5 -56t-29.5 -44.5q-11 1 -26.5 4.5t-21.5 17.5z
M270 397q-32 -3 -61.5 -23.5t-53.5 -50.5t-41.5 -65.5t-25.5 -67.5q27 16 61 38.5t62.5 50t46 57.5t12.5 61z" />
    <glyph glyph-name="I_quotesingle_l" unicode="I&#x27;l" horiz-adv-x="775" 
d="M417 770q13 2 29 -0.5t30.5 -9.5t26 -18t17.5 -26q-43 -122 -95 -233.5t-95.5 -204.5t-70 -165.5t-17.5 -116.5q39 18 80 53.5t77 75t63.5 76.5t40.5 57h1q18 51 43.5 105t54 106.5t59 100.5t59.5 86.5t54.5 63.5t44.5 33q16 6 31.5 5.5t29 -4.5t24 -11t16.5 -13
q-19 -18 -45 -50t-56 -73.5t-62 -90.5t-61.5 -100.5t-55.5 -102.5t-44 -97.5t-27 -85.5t-4 -66q16 7 44.5 28t59 49t59.5 59t47 58q10 -2 18 -6q7 -3 11.5 -9t2.5 -14q-12 -21 -35 -48t-53.5 -57.5t-68.5 -62.5t-81 -61q-21 1 -37.5 9t-29.5 18.5t-20.5 22t-10.5 20.5
q-6 27 0 64q-21 -27 -46 -56t-53 -55t-58.5 -47t-60.5 -32q-12 -4 -31 0t-38.5 14.5t-37 26t-25.5 35.5q-2 47 23.5 119t65.5 160.5t87.5 189t89.5 202.5q-63 -54 -111 -100.5t-80.5 -90.5t-49.5 -87.5t-18 -91.5q-11 -5 -27.5 -6t-33.5 2.5t-32.5 11.5t-23.5 21
q11 62 47.5 115.5t91 104t123.5 99.5t144 101zM567 613q5 28 6.5 53t1 50.5t-3 52.5t-5.5 59q18 6 39.5 5.5t40.5 -5t33 -12.5t17 -17q-3 -24 -11.5 -52t-19.5 -56t-25.5 -54t-29.5 -44q-11 2 -24 3.5t-19 16.5z" />
    <glyph glyph-name="I_quotesingle_v" unicode="I&#x27;v" horiz-adv-x="974" 
d="M417 770q13 2 29 -0.5t30.5 -9.5t26 -18t17.5 -26q-43 -122 -95 -233.5t-95.5 -204.5t-70 -165.5t-17.5 -116.5q39 18 80 53.5t77 75t63.5 76.5t40.5 57q14 59 36 109.5t48 72.5q11 9 26 12.5t30.5 3t29 -5.5t21.5 -14q-18 -27 -38.5 -72t-36.5 -96.5t-25 -102.5t-4 -90
q51 33 93.5 77t72.5 97q-5 30 -1 61.5t15 61.5t28.5 57t38.5 48q23 -3 41 -10q16 -6 30 -17.5t18 -30.5q-8 -57 -31.5 -106.5t-56.5 -94.5q18 -3 38 -2.5t38.5 5t34 14t25.5 23.5q4 0 9.5 -1.5t10.5 -5t8.5 -9t3.5 -13.5q-11 -17 -33 -31t-50.5 -22t-60.5 -9.5t-62 6.5
q-53 -57 -112.5 -100.5t-111.5 -72.5q-16 2 -30.5 9t-26 16.5t-19.5 20.5t-11 22q-5 17 -5.5 39t1.5 47q-20 -28 -46.5 -60t-56.5 -61t-63 -53t-66 -36q-12 -4 -31 0t-38.5 14.5t-37 26t-25.5 35.5q-2 47 23.5 119t65.5 160.5t87.5 189t89.5 202.5q-63 -54 -111 -100.5
t-80.5 -90.5t-49.5 -87.5t-18 -91.5q-11 -5 -27.5 -6t-33.5 2.5t-32.5 11.5t-23.5 21q11 62 47.5 115.5t91 104t123.5 99.5t144 101zM539 544q11 24 18.5 46.5t13 46.5t9 50t6.5 58q19 3 40 -1t39 -11.5t30 -17t13 -18.5q-8 -23 -21.5 -48.5t-30 -50.5t-35.5 -46.5
t-37 -36.5q-11 3 -25.5 8.5t-19.5 20.5z" />
    <glyph glyph-name="u_quotesingle_l" unicode="u&#x27;l" horiz-adv-x="803" 
d="M948 730q-19 -18 -45 -50t-56 -73.5t-62 -90.5t-61.5 -100.5t-55.5 -102.5t-44 -97.5t-27 -85.5t-4 -66q16 7 44.5 28t59 49t59.5 59t47 58q10 -2 18 -6q7 -3 11.5 -9t2.5 -14q-12 -21 -35 -48t-53.5 -57.5t-68.5 -62.5t-81 -61q-21 1 -37.5 9t-29.5 18.5t-20.5 22
t-10.5 20.5q-3 15 -2.5 33.5t3.5 40.5q-30 -35 -70.5 -72t-91.5 -72q-32 5 -63.5 24t-42.5 41q-4 15 -3 34.5t5.5 42.5t12.5 48.5t17 51.5l-166 -242q-26 1 -49 8.5t-41 17.5t-30.5 22t-17.5 23q-6 23 -1 56.5t16.5 70.5t28.5 75t36 71t39 58.5t38 37.5q10 7 25.5 10.5t32 3
t31 -4.5t22.5 -13q-23 -26 -47 -60.5t-46 -72.5t-40 -75.5t-28.5 -70.5t-12 -58t8.5 -37l273 335q11 18 20.5 31t16.5 19q16 14 43 11.5t50 -22.5q-10 -20 -25.5 -50t-31.5 -64.5t-31.5 -72t-27 -72.5t-16 -65t0.5 -49q16 7 42 28.5t54.5 49t55 59t44.5 58.5h1
q18 51 43.5 105t54 106.5t59 100.5t59.5 86.5t54.5 63.5t44.5 33q16 6 31.5 5.5t29 -4.5t24 -11t16.5 -13zM492 507q20 51 33 118t14 131q19 4 40.5 1.5t40 -9t31 -15.5t14.5 -18q-6 -23 -20 -56.5t-31.5 -68t-37 -65t-36.5 -46.5q-11 3 -27 7.5t-21 20.5z" />
    <glyph glyph-name="e_quotesingle_l" unicode="e&#x27;l" horiz-adv-x="701" 
d="M846 730q-19 -18 -45 -50t-56 -73.5t-62 -90.5t-61.5 -100.5t-55.5 -102.5t-44 -97.5t-27 -85.5t-4 -66q16 7 44.5 28t59 49t59.5 59t47 58q10 -2 18 -6q7 -3 11.5 -9t2.5 -14q-12 -21 -35 -48t-53.5 -57.5t-68.5 -62.5t-81 -61q-21 1 -37.5 9t-29.5 18.5t-20.5 22
t-10.5 20.5q-4 17 -2.5 39.5t6.5 48.5q-21 -21 -46.5 -42.5t-53.5 -42.5t-58.5 -39.5t-60.5 -33.5q-34 1 -65 7t-58 18.5t-48.5 33t-34.5 50.5q-8 50 9 108.5t49.5 110.5t76 90t88.5 47q21 1 49 -5.5t54 -18.5t48 -29t31 -37q-4 -26 -21.5 -52t-43.5 -50.5t-58 -46
t-64 -39.5t-61.5 -31.5t-50.5 -20.5l2 -12q6 -29 33 -46.5t59 -16.5q25 9 61 31t73 50t69 59t50 58h1q18 51 43.5 105t54 106.5t59 100.5t59.5 86.5t54.5 63.5t44.5 33q16 6 31.5 5.5t29 -4.5t24 -11t16.5 -13zM375 490q20 51 33 118t14 131q19 4 40.5 1.5t40 -9t31 -15.5
t14.5 -18q-6 -23 -20 -56.5t-31.5 -68t-37 -65t-36.5 -46.5q-11 3 -27 7.5t-21 20.5zM270 397q-32 -3 -61.5 -23.5t-53.5 -50.5t-41.5 -65.5t-25.5 -67.5q27 16 61 38.5t62.5 50t46 57.5t12.5 61z" />
    <glyph glyph-name="quotesingle_s" unicode="&#x27;s" horiz-adv-x="344" 
d="M263 461q0 -4 -12.5 -15t-30 -24t-37 -26.5t-33.5 -23.5q4 -28 15.5 -57t24.5 -59t23 -62t11 -67q36 29 68 64.5t52 66.5q9 -2 17 -6q6 -3 11.5 -9t3.5 -14q-9 -15 -23.5 -34.5t-34.5 -41t-46.5 -44t-59.5 -42.5q-23 -30 -67.5 -47.5t-94 -23.5t-94.5 -0.5t-69 21.5
q0 10 3.5 22.5t9.5 24.5t15 22.5t20 17.5q34 -8 63 -24t55 -30q17 5 30.5 15t23.5 30q2 18 -1.5 40t-9 46t-12 50.5t-11.5 54.5q-10 -17 -20 -31.5t-19 -25.5q-9 -2 -20 1t-12 28q23 32 39.5 64.5t27.5 58.5q1 18 6 38q6 18 17.5 32t26.5 26.5t33 24t38 24.5q29 -5 47 -25
t26 -40zM11 494q16 19 36 43.5t39.5 50.5t36.5 52t28 47q21 -3 37 -11t27 -18t17 -20.5t7 -17.5q-22 -21 -49.5 -44t-55 -44t-52 -38.5t-40.5 -26.5q-10 4 -20 10.5t-11 16.5z" />
    <glyph glyph-name=".notdef" horiz-adv-x="287" 
 />
    <glyph glyph-name=".null" horiz-adv-x="0" 
 />
    <glyph glyph-name="nonmarkingreturn" unicode="&#xd;" horiz-adv-x="287" 
 />
    <glyph glyph-name="NULL" horiz-adv-x="0" 
 />
    <glyph glyph-name="NULL" horiz-adv-x="0" 
 />
    <glyph glyph-name="space" unicode=" " horiz-adv-x="313" 
 />
    <glyph glyph-name="exclam" unicode="!" horiz-adv-x="285" 
d="M82 258q20 60 47.5 127t56 128.5t55 111t43.5 76.5q22 10 46.5 8t46 -10t37.5 -18t21 -16q-51 -58 -96.5 -118t-83 -116.5t-65 -105.5t-41.5 -85q-12 -4 -23 -2.5t-20 5t-15 8.5t-9 7zM52 171q10 2 24 -4.5t27.5 -17.5t25 -25t15.5 -28q-11 -14 -24 -28
q-11 -12 -25.5 -26t-30.5 -25q-8 -2 -20 1.5t-24.5 9.5t-24 14t-18.5 16q10 21 22 41q10 17 23.5 36.5t29.5 35.5z" />
    <glyph glyph-name="quotedbl" unicode="&#x22;" horiz-adv-x="301" 
d="M39 393q9 25 22 55.5t24 63t19.5 66t8.5 65.5q18 4 38.5 2t38.5 -8.5t31 -16.5t15 -21q-6 -23 -22 -55t-36.5 -64.5t-42 -61t-38.5 -44.5q-23 -2 -39.5 4t-18.5 15zM183 393q9 25 22 55.5t24 63t19.5 66t8.5 65.5q17 3 37 1t38 -8t31.5 -15.5t16.5 -21.5q-6 -23 -22 -55
t-36.5 -64.5t-42 -61t-38.5 -44.5q-23 -1 -39.5 4.5t-18.5 14.5z" />
    <glyph glyph-name="numbersign" unicode="#" horiz-adv-x="628" 
d="M93 102q-15 1 -26 6t-20 13t-13 25q6 8 14.5 21.5t19.5 31.5q-19 1 -36 3t-33 4q-2 13 0 25q2 11 7.5 23.5t17.5 23.5q14 -2 37 -2.5t50 -0.5q15 29 31 59t31 60q-21 1 -40 3t-36 4q-2 12 -1 24q1 11 5.5 23t17.5 23q14 -2 38.5 -2.5t53.5 -0.5q18 36 32 66t22 48
q20 0 38 -4q15 -4 28.5 -13.5t18.5 -26.5q-4 -11 -12.5 -28.5t-20.5 -40.5q26 1 51.5 1.5t50.5 2.5q17 35 31 63.5t22 45.5q19 0 37 -4q14 -4 28 -13.5t19 -26.5q-4 -9 -10.5 -24.5t-17.5 -35.5q27 2 49 3.5t38 3.5q0 -2 -0.5 -10t-3.5 -19t-10 -23.5t-21 -24.5
q-14 -2 -38 -4.5t-55 -4.5q-31 -57 -65 -115q30 2 55.5 4t42.5 4q1 -1 1 -9t-3.5 -19.5t-12 -25.5t-23.5 -26q-16 -2 -44.5 -5t-66.5 -5q-39 -62 -71 -100q-14 1 -26 6q-11 5 -20.5 13t-13.5 25q6 8 14.5 21t18.5 30q-27 -1 -55.5 -1.5t-56.5 0.5q-19 -29 -36 -53t-32 -41z
M319 279l60 114q-26 -1 -51.5 -1.5t-51.5 -0.5q-15 -27 -32 -56.5t-34 -58.5z" />
    <glyph glyph-name="dollar" unicode="$" horiz-adv-x="541" 
d="M185 107q-6 -27 -17 -56q31 13 59 40.5t48.5 59.5t32 65.5t9.5 60.5q-2 20 -13.5 35t-28.5 27.5t-37 22.5t-38.5 20.5t-33.5 22t-21 26.5q-10 23 1 56t35.5 65t59 57.5t70.5 32.5q27 5 57 3q11 29 23.5 53t22.5 34q13 4 27.5 4t27.5 -2.5t22.5 -6t11.5 -6.5
q-11 -14 -30 -39.5t-37 -51.5q39 -13 66.5 -33.5t29.5 -39.5q1 -17 -10.5 -37.5t-31.5 -39.5t-47 -33t-56 -17q3 6 8.5 21t10.5 31.5t9 32t3 23.5t-3 22t-8 26q-5 -8 -8 -15.5l-5 -12.5q-11 -2 -19.5 -0.5t-16.5 3.5q-9 3 -16 6q4 16 9 31q-15 -8 -32 -23.5t-30 -35.5
t-20 -44t-4 -49q3 -21 15.5 -35t30 -25.5t37.5 -22t37.5 -23t30.5 -28.5t16 -40q5 -35 -11 -79t-48.5 -84t-79 -70.5t-103.5 -39.5q-11 -2 -21.5 -2.5t-21.5 -1.5q-15 -35 -31 -64.5t-27 -42.5q-14 -4 -30.5 -3.5t-32 3.5t-27 7.5t-14.5 7.5q13 17 31.5 45t38.5 59
q-29 9 -52 21.5t-39.5 26.5t-25.5 27t-9 23q1 21 13.5 47.5t34 47.5t51 32t65.5 1q-6 -7 -14 -21.5t-15 -32t-11.5 -34t-3.5 -27.5q1 -15 8 -34.5t24 -31.5q12 21 21 39t13 29q14 2 26 0.5t22 -4.5q11 -4 22 -9z" />
    <glyph glyph-name="percent" unicode="%" horiz-adv-x="773" 
d="M12 -15q-8 2 -18.5 6.5t-20 11t-15.5 15.5t-5 21q36 28 90.5 75t118.5 104.5t133 120t133 121.5t118.5 110t90.5 86q23 -8 40 -19q14 -10 24 -25.5t2 -37.5q-24 -24 -68.5 -63.5t-101.5 -89.5t-123 -106.5t-135 -114t-136.5 -113t-126.5 -102.5zM494 353q26 3 57 -7
t57 -28.5t41.5 -43t10.5 -49.5q-7 -38 -33 -79.5t-62.5 -80t-79 -69t-81.5 -46.5q-27 1 -58 12.5t-56 30.5t-39.5 44t-9.5 52q7 35 32 74.5t60.5 76t77.5 66.5t83 47zM572 288q-16 13 -44 4t-58.5 -31.5t-60 -54.5t-50.5 -65t-29.5 -62.5t4.5 -47.5q21 -7 49 4.5t57.5 34
t57 52.5t47 61t27.5 59t0 46zM287 704q26 3 57.5 -8t57 -31t41 -45.5t10.5 -50.5q-6 -38 -32 -78t-62.5 -76.5t-79 -65.5t-81.5 -45q-27 0 -58 10.5t-56 27.5t-40 40.5t-10 50.5q7 35 32.5 75.5t61 78t77.5 69t82 48.5zM366 632q-16 13 -44 4.5t-58.5 -31t-60.5 -54.5
t-51 -65t-29 -63t5 -48q21 -7 49 4.5t57 34t56.5 52.5t47 61t28 59t0.5 46z" />
    <glyph glyph-name="ampersand" unicode="&#x26;" horiz-adv-x="626" 
d="M389 609q-32 -15 -58 -43.5t-41 -62t-15.5 -68.5t17.5 -65q34 8 75.5 12t80 2.5t70 -9t45.5 -21.5q5 -14 1 -31t-10 -32q-7 -18 -17 -35q-30 21 -74 37q-27 -64 -41.5 -118.5t-18 -99.5t1.5 -80t16 -60q-11 -2 -27 0t-32.5 7.5t-32.5 14.5t-27 21q0 13 -0.5 29t1.5 39.5
t8 55.5t20 76q-37 -58 -80 -119.5t-88 -117.5q-45 8 -81 28t-61.5 47t-41 59t-19.5 64q4 49 28.5 86t61.5 63t80.5 42.5t85.5 24.5q-42 23 -57 52t-11.5 59.5t22.5 61t45 56.5t55.5 45.5t55.5 28.5q51 0 91 -10t68 -25.5t44 -33t19 -32.5q3 -19 -7 -41.5t-29.5 -42.5
t-46.5 -35t-58 -18q11 33 19 60q7 23 12.5 43t5.5 25q0 7 -3 17.5t-10 20.5t-17.5 17t-24.5 6zM274 318q-32 -10 -62 -24.5t-55 -36t-43 -51.5t-27 -70q1 -21 9 -38.5t18.5 -31t21.5 -23.5t20 -16q13 13 31.5 34.5t39 48t42.5 55.5t42.5 56.5t37.5 51.5t29 41q-29 5 -56 6
t-48 -2z" />
    <glyph glyph-name="quotesingle" unicode="'" horiz-adv-x="2" 
d="M-33 507q20 51 33 118t14 131q19 4 40.5 1.5t40 -9t31 -15.5t14.5 -18q-6 -23 -20 -56.5t-31.5 -68t-37 -65t-36.5 -46.5q-11 3 -27 7.5t-21 20.5z" />
    <glyph glyph-name="parenleft" unicode="(" horiz-adv-x="486" 
d="M608 663q-84 -49 -156 -121.5t-126.5 -152t-88.5 -157.5t-43 -136q-6 -45 -3.5 -79.5t11 -59t20 -40t22.5 -24.5q1 -26 -28 -39q-38 14 -67 44t-46 72q-13 68 -0.5 143.5t42.5 150.5t74.5 146.5t96 131t106 103.5t105.5 64q6 -2 18.5 -5t25.5 -8t23.5 -13t13.5 -20z" />
    <glyph glyph-name="parenright" unicode=")" horiz-adv-x="486" 
d="M-121 -100q56 32 107 76t95 94t80.5 103.5t64 106t44.5 100.5t23 87q6 45 3.5 79.5t-11 59t-20 40t-22.5 24.5q-1 26 28 39q38 -14 68.5 -44t47.5 -72q13 -68 0.5 -143.5t-43 -150.5t-75.5 -146.5t-96.5 -131t-106.5 -103.5t-106 -64q-6 2 -18.5 5t-25.5 8t-23.5 13
t-13.5 20z" />
    <glyph glyph-name="asterisk" unicode="*" horiz-adv-x="493" 
d="M526 661q-30 -29 -60.5 -57.5t-61.5 -56.5q35 2 67.5 4.5t59.5 5.5q1 -14 -3 -29q-3 -13 -10.5 -29t-21.5 -30q-24 0 -56.5 -0.5t-70.5 -1.5q11 -33 23.5 -64t25.5 -55q-2 -5 -10.5 -10t-21 -9t-28 -4t-30.5 6q-8 15 -19 44.5t-23 67.5q-41 -36 -77.5 -70t-65.5 -65
q-18 -3 -33 2.5t-25 13t-16 15.5t-6 11q29 21 67.5 51.5t80.5 65.5q-34 1 -67.5 2.5t-66.5 5.5q-3 11 -1 24q2 11 7 24.5t19 27.5q29 -5 69 -7t86 -2q-8 29 -14.5 59.5t-11.5 60.5q10 13 32.5 24.5t47.5 1.5q2 -19 8.5 -48.5t15.5 -64.5q79 72 132 129q17 3 28 -2.5
t17.5 -13.5t9.5 -16t4 -11z" />
    <glyph glyph-name="plus" unicode="+" horiz-adv-x="577" 
d="M186 97q-14 2 -26 7q-11 5 -20.5 13.5t-14.5 25.5q12 17 30.5 46.5t38.5 67.5q-36 3 -70 7.5t-63 9.5q0 4 -1 11t0.5 16t7 19.5t17.5 21.5q23 -3 63.5 -4t88.5 0q27 52 50.5 99.5t35.5 76.5q17 -5 32 -14q13 -8 24.5 -20.5t16.5 -29.5q-6 -17 -20 -45.5t-34 -63.5
q51 2 94.5 4.5t70.5 6.5q0 -6 -1 -17.5t-5.5 -25t-12.5 -28t-22 -26.5q-23 -4 -70.5 -5t-104.5 1q-26 -43 -53 -83.5t-52 -70.5z" />
    <glyph glyph-name="comma" unicode="," horiz-adv-x="265" 
d="M-113 -93q26 26 51.5 61t47 72.5t37.5 74t23 65.5q24 -2 41.5 -11t28.5 -21.5t16 -26.5t5 -24q-16 -27 -40 -59t-53.5 -63.5t-62 -59.5t-65.5 -45q-11 5 -20 15t-9 22z" />
    <glyph glyph-name="hyphen" unicode="-" horiz-adv-x="441" 
d="M110 285q24 9 59.5 14t72.5 6t72 -3t59 -14q2 -9 -0.5 -21t-8.5 -25t-15 -25t-19 -21q-20 6 -53.5 10t-70 5.5t-71.5 -1t-59 -9.5q-4 18 5.5 41.5t28.5 42.5z" />
    <glyph glyph-name="period" unicode="." horiz-adv-x="261" 
d="M82 182q10 2 22.5 -3t23.5 -14.5t20.5 -23t13.5 -28.5q-11 -15 -23 -30q-11 -13 -25.5 -27.5t-30.5 -26.5q-9 -2 -19.5 -0.5t-22 6t-21.5 11.5t-17 16q11 22 23 43q11 18 25 39t31 38z" />
    <glyph glyph-name="slash" unicode="/" horiz-adv-x="412" 
d="M-79 -85q-25 5 -42 17.5t-19 35.5q34 34 83 89.5t104.5 122.5t114 141t112.5 143.5t99.5 129t75.5 99.5q3 0 13 -3t21 -10t20.5 -19t11.5 -31q-20 -27 -57 -76t-85.5 -111t-105.5 -132t-116.5 -140.5t-118.5 -136.5t-111 -119z" />
    <glyph glyph-name="zero" unicode="0" horiz-adv-x="1978" 
d="M193 176l-28 -150l-27 150h-39l-3 -239h36l1 97l19 -97h28l19 98l2 -98h35l-2 239h-41zM1040 642q-49 0 -57 48q-2 10 -2 20v21q0 23 -1 48t5 47q5 19 19.5 27.5t32.5 9.5t34.5 -6t22.5 -26q8 -20 7.5 -46t-0.5 -48q0 -14 -0.5 -26.5t-3.5 -24.5q-9 -44 -57 -44zM984 394
q-49 0 -58 46q-2 11 -1.5 22t0.5 23q0 21 -1 46t4 46q5 20 19 28.5t33 8.5q20 1 35.5 -6t22.5 -25q8 -22 6 -47t-2 -47q0 -14 0.5 -26t-2.5 -25q-4 -22 -18.5 -33t-37.5 -11zM639 26h24v-15.5t-1.5 -20t-7 -16t-15.5 -2.5q-6 2 -9 8.5t-4 14t-0.5 15.5t0.5 13v57
q0 11 -0.5 25.5t2.5 26.5q8 11 19 10q12 -4 13 -15q2 -8 1.5 -17t-0.5 -19h40q0 10 -0.5 21.5t-2.5 22.5t-7.5 20.5t-15.5 15.5q-11 7 -26 7.5t-28 -3.5q-17 -5 -24.5 -19t-10.5 -30q-2 -17 -1.5 -34.5t0.5 -34.5t-0.5 -33t1.5 -33q2 -14 7.5 -28.5t17.5 -21.5
q12 -8 29.5 -8t28.5 11l1 -7h32v124h-63v-35zM719 644v218q20 0 43.5 0.5t41.5 -9.5q12 -7 18 -22t6 -30.5t-6.5 -29t-19.5 -18.5l29 -109h-29l-29 103h-23v-103h-31zM539 61l-20 22l-12 12t-9 16q-2 4 -2 9.5t1.5 10.5t5 8t9.5 3q6 -1 9.5 -6.5t4.5 -12.5t1.5 -14.5
t0.5 -12.5l37 2q0 22 -5 44.5t-26 31.5q-13 6 -26 5t-23.5 -7t-17.5 -16.5t-8 -24.5q-2 -14 0.5 -29t10.5 -26q3 -7 9 -12t11 -11q11 -14 24.5 -27.5t13.5 -33.5q0 -7 -1.5 -13t-8.5 -7q-5 -2 -9 0.5t-6 7.5q-5 10 -6 21l-2 22l-37 -3q0 -15 1.5 -29t7.5 -28
q8 -17 24.5 -24.5t33.5 -3.5q19 3 29.5 17t12.5 30q4 45 -28 79zM481 644v218h46q17 0 31.5 -3.5t22.5 -20.5q10 -19 8.5 -43.5t-18.5 -38.5q-12 -10 -29 -10h-31v-102h-30zM1073 396v217h20l62 -145v145h27v-217h-21l-63 148v-148h-25zM1131 644v218h20l61 -145v145h26
v-218h-20l-63 148v-148h-24zM564 397q-10 -4 -21 -4t-21.5 3.5t-19 10.5t-12.5 19q-5 11 -6 24t-1 28v135h29v-145q0 -12 2 -27.5t16 -23.5q12 -4 19.5 -0.5t12 11t6.5 17.5t2 19q1 18 0.5 35t-0.5 35v79h30v-100q0 -14 0.5 -31.5t-2 -34.5t-10 -30.5t-24.5 -19.5zM1260 644
l46 218h29l46 -218h-28l-11 54h-44l-10 -54h-28zM682 394q-28 0 -42 18t-15 45l28 7q1 -10 2.5 -20.5t8.5 -17.5q7 -8 17 -9t18 6q9 8 8 21t-7 21q-5 6 -10.5 12.5t-13.5 11.5q-10 10 -22.5 20t-19.5 22q-7 10 -8.5 23t1.5 25t11 21t20 13q12 3 27 2t26 -9t14.5 -21t4.5 -26
l-24 -8q-1 12 -5.5 25t-18.5 16q-10 2 -18 -3.5t-10 -16.5q-5 -17 8.5 -29.5t25.5 -22.5q14 -13 27 -26.5t17 -33.5q6 -25 -8 -45.5t-42 -20.5zM909 642q-27 0 -42 18t-16 44l28 8q1 -11 3 -21.5t9 -17.5t17.5 -8t17.5 6q8 8 7.5 20.5t-6.5 22.5q-4 6 -10 11.5t-14 12.5
q-10 9 -22 19t-19 21t-9 24t1 25t10.5 21.5t20.5 12.5q12 3 27 2t25 -9q11 -8 15 -21t5 -26l-24 -7q-1 11 -5.5 24t-18.5 17q-10 1 -18.5 -4.5t-10.5 -14.5q-3 -19 10 -32t26 -22q14 -13 26.5 -26.5t17.5 -31.5q5 -27 -9 -47.5t-42 -20.5zM710 -93h34l68 299h-38zM611 644
v218h83v-23h-54v-71h44v-22h-44v-81h55v-21h-84zM758 396v217h84v-23h-54v-71h44v-22h-44v-81h54v-20h-84zM1028 667q13 -5 27 0q9 5 11.5 12.5t3.5 15.5v25v76q0 9 -0.5 19t-8.5 17q-10 12 -26 7q-16 -1 -21 -19q-5 -15 -3 -34t2 -35v-40q0 -11 1 -24.5t14 -19.5zM969 419
q6 -3 14.5 -3t13.5 3q8 5 11.5 13t4.5 16q1 5 0.5 11.5t-0.5 11.5v77q0 9 -0.5 19t-8.5 17q-5 6 -12.5 8t-14.5 0q-15 -4 -21 -21q-3 -15 -2 -33.5t1 -35.5v-39q0 -11 1.5 -24t12.5 -20zM1354 396v45q0 8 1 16.5t-1 15.5q-4 22 -15 42l-31 98h28l33 -104l31 104h30
q-14 -45 -30 -90l-14 -45q-3 -8 -2.5 -15t0.5 -13v-54h-30zM1404 644v218h30v-197h56v-21h-86zM1215 396v217h30v-197h55v-20h-85zM604 -237q-13 0 -19.5 6t-9 15t-2.5 20v20t0.5 19t3.5 17.5t10 12t20 3.5q11 -1 17 -6.5t8.5 -14t2.5 -18v-18.5t-0.5 -18.5t-3 -18t-9 -14
t-18.5 -5.5zM1381 -235v110q11 0 24.5 0.5t23.5 -7.5t9.5 -23t-0.5 -26v-26.5t-12 -22.5q-9 -7 -22 -6t-23 1zM1446 -375q-13 0 -19.5 6t-9 15t-2.5 19.5v19.5q0 10 0.5 20t4 17.5t10.5 12t20 3.5q12 -1 17 -6.5t7 -14t1.5 -18t-0.5 -18.5v-18.5t-2.5 -18t-8.5 -14t-18 -5.5
zM510 -375q-14 0 -20.5 6t-8.5 15t-2 19.5v19.5q0 10 0.5 20t3.5 17.5t10 12t20 3.5q12 -1 17.5 -6.5t8 -14t2.5 -18v-18.5v-18.5t-3 -18t-9.5 -14t-18.5 -5.5zM791 -374v111q11 0 22.5 1t20.5 -4q6 -4 9.5 -11.5t3.5 -15.5t-3.5 -15t-10.5 -10l16 -56h-15l-13 53h-12v-53
h-18zM555 -374l2 111h16l20 -89l19 89h14l2 -111h-12l-1 82l-18 -82h-11l-17 82l-1 -82h-13zM645 -374l2 111h16l19 -89l20 89h16l1 -111h-11l-2 82l-19 -82h-10l-17 82l-2 -82h-13zM1247 -374v111q11 0 22 1t21 -4q6 -4 9.5 -11.5t3.5 -15.5t-3 -15t-10 -10l14 -56h-14
l-14 53h-13v-53h-16zM650 -235v110q10 0 21 1t20 -4q6 -3 10 -11t4.5 -16.5t-3 -15.5t-11.5 -10l16 -54h-15l-16 51h-11v-51h-15zM661 231v112q6 0 13 0.5t14.5 -0.5t14 -3t10.5 -8q4 -10 3 -23t-9 -20q-7 -5 -15 -5.5t-16 -0.5v-52h-15zM1308 -235v110h10l32 -73v73h12
v-110h-9l-32 74v-74h-13zM808 -235v110h14v-48h29v48h16v-110h-16v51h-29v-51h-14zM1493 -374v111h10l32 -74v74h12v-111h-10l-32 76v-76h-12zM831 231l24 112h15l24 -112h-16l-5 29h-23l-5 -29h-14zM962 -374l24 111h15l24 -111h-14l-5 29h-24l-5 -29h-15zM1236 -235
l21 110h17l23 -110h-15l-5 27h-23l-6 -27h-12zM1455 443l-8 170h28l-9 -170h-11zM1067 -235q-16 -5 -27.5 2t-14.5 23q-2 7 -1 13.5t1 12.5v59h14v-49q0 -5 -0.5 -13.5t0.5 -17t4 -15t10 -6.5q8 0 11.5 6.5t5 15t1 17t-0.5 13.5v49h13v-50q0 -7 0.5 -16t-0.5 -18t-4.5 -16
t-11.5 -10zM511 768q8 0 15.5 -0.5t16.5 1.5q11 3 14 11.5t3 19.5q1 12 -1.5 23t-15.5 15q-9 2 -16.5 1.5t-15.5 -0.5v-71zM750 768h15t16 2q10 5 13.5 15t1.5 21q0 10 -2.5 18t-12.5 12q-8 4 -16 3.5t-15 -0.5v-71zM438 -375q-14 0 -20.5 8t-8.5 20t-1.5 25.5t0.5 23.5
q0 15 7.5 26.5t26.5 9.5q17 -2 20.5 -14t3.5 -25h-14v10t-2 10q-2 8 -10.5 8.5t-12.5 -6.5q-5 -6 -3.5 -19t1.5 -21q0 -7 -1.5 -19t4.5 -19q3 -7 11.5 -6t10.5 9q2 5 2 10.5v10.5h14q0 -14 -4 -28t-24 -14zM891 -375q-15 0 -21 8t-7.5 20t-0.5 25.5t1 23.5q0 15 7 26.5
t25 9.5t21.5 -14t3.5 -25h-16q0 5 0.5 10t-1.5 10q-2 8 -10 8.5t-13 -6.5q-5 -6 -4 -19t1 -21q0 -7 -1 -19t5 -19q4 -7 12 -6t10 9q2 5 1.5 10.5t-0.5 10.5h16q0 -14 -4.5 -28t-24.5 -14zM1186 230q-15 0 -21.5 9t-7.5 23l15 5q0 -6 2 -13.5t8 -10.5q7 -2 11.5 2t4.5 11
q1 11 -8.5 19.5t-17.5 16.5q-11 8 -15 22t8 25q15 8 31 3q8 -3 11 -11t4 -16l-13 -3q-1 5 -2.5 10.5t-6.5 10.5q-4 2 -9.5 0t-6.5 -9q-5 -8 2.5 -15.5l12.5 -12.5q7 -6 14 -12.5t9 -17.5q4 -14 -3 -25t-22 -11zM931 230q-14 0 -21.5 9t-8.5 23l15 5q0 -6 2 -13.5t7 -10.5
q8 -2 13 2t5 11q0 11 -10 19.5t-17 16.5q-11 8 -14.5 22t8.5 25q7 4 15.5 4.5t14.5 -1.5q8 -3 11.5 -11t4.5 -16l-13 -3q-1 5 -2.5 10.5t-6.5 10.5q-5 2 -10 0t-7 -9q-3 -8 3.5 -15.5t11.5 -12.5q8 -6 15 -12.5t9 -17.5q4 -14 -3.5 -25t-21.5 -11zM1346 -375q-15 0 -22 10
t-9 23l15 3q0 -5 2 -12t7 -9q8 -5 13 -0.5t5 10.5q0 11 -10 20t-17 15q-10 10 -14 24.5t9 23.5q6 5 15 5.5t15 -2.5q8 -2 11 -10t4 -15l-13 -5q-1 5 -2 11t-6 10q-6 2 -11 0t-7 -8q-4 -8 3 -15t13 -12q7 -8 14 -14.5t9 -17.5q4 -13 -3 -24t-21 -11zM1076 231l-25 112h16
l16 -82l18 82h12l-23 -112h-14zM1142 -374l-25 111h14l18 -81l15 81h16l-26 -111h-12zM969 231v112h44v-10h-28v-38h23v-11h-23v-42h29v-11h-45zM884 -235v110h43v-11h-27v-37h23v-11h-23v-42h27v-9h-43zM1191 -374v111h45v-10h-29v-36h23v-12h-23v-42h29v-11h-45zM736 -374
v111h44v-10h-28v-36h23v-12h-23v-42h28v-11h-44zM781 231v112h43v-10h-29v-38h24v-11h-24v-42h29v-11h-43zM597 -224q9 -4 13.5 -0.5t6 10.5t1.5 15v14q0 4 0.5 11t0.5 14.5t-1.5 14t-5.5 8.5q-11 6 -17.5 -1.5t-6.5 -16.5v-18q0 -4 -0.5 -11.5t0 -16t2.5 -15t7 -8.5z
M1439 -359q9 -5 14 -2.5t7 9.5t2 15v14q0 4 0.5 11t-0.5 14.5t-3 13.5t-6 8q-11 7 -15.5 -0.5t-4.5 -15.5v-17q0 -4 -1 -12t-1 -16t1.5 -14.5t6.5 -7.5zM502 -359q9 -5 13.5 -2.5t6.5 9.5t2 15v14q0 4 0.5 11t0.5 14.5t-1.5 13.5t-5.5 8q-12 7 -17.5 -0.5t-5.5 -15.5
q-1 -5 -0.5 -9t0.5 -8t-0.5 -12t-0.5 -16t1.5 -14.5t6.5 -7.5zM521 -235v110h43v-11h-26v-37h21v-11h-21v-51h-17zM973 -235v110h42v-11h-29v-37h22v-11h-22v-51h-13zM1396 -226q10 0 17 2t9 14v29v29q-1 12 -8 14t-18 2v-90zM764 -235v99h-20v11h56v-11h-20v-99h-16z
M1272 231v102h-21v10h54v-10h-19v-102h-14zM1037 -374v111h14v-100h29v-11h-43zM1101 -235v110h15v-101h28v-9h-43zM1154 -235v110h16v-101h28v-9h-44zM727 231v112h14v-101h29v-11h-43zM1127 231v112h15v-112h-15zM1302 720h37l-19 99zM401 -63h40v44h-40v-44zM935 -374
v111h16v-111h-16zM1385 -374v111h14v-111h-14zM1225 231v112h16v-112h-16zM1447 396v31h28v-31h-28zM676 294h8t9 2q6 2 7 8t1 12q-1 14 -7.5 15.5t-17.5 1.5v-39zM665 -173q10 0 17.5 3t7.5 16t-7 15.5t-18 2.5v-37zM1263 -309q11 0 18 2.5t7 15.5q0 11 -7 14.5t-18 3.5
v-36zM809 -309q10 0 16.5 2.5t6.5 15.5q0 11 -6.5 14.5t-16.5 3.5v-36zM984 -335h19l-9 51zM1256 -196h20l-10 50zM851 271h20l-8 51zM338 61l-41 115h-31v-239h37v117l42 -117h30v239h-37v-115zM1465 176l-44 -239h40l9 56h26l8 -56h40l-42 239h-37zM1476 29l7 47l7 -47
h-14zM1296 25v-18.5t1 -18.5q3 -16 10.5 -30t24.5 -19q13 -4 28 -3.5t26 7.5q10 6 15.5 15.5t7.5 20.5t2.5 22.5t0.5 21.5h-40q0 -10 0.5 -19t-1.5 -17q-1 -11 -13 -15q-11 -1 -19 10q-3 11 -2.5 23.5t0.5 23.5v56q0 11 -0.5 23.5t2.5 23.5q8 11 19 10q12 -4 13 -15
q2 -8 1.5 -17t-0.5 -19h40q0 10 -0.5 21.5t-2.5 22.5t-7.5 20.5t-15.5 15.5q-11 7 -26 7.5t-28 -3.5q-17 -5 -24.5 -19t-10.5 -30q-1 -9 -1 -18.5v-18.5v-64zM1722 176l-44 -239h40l9 56h26l8 -56h40l-42 239h-37zM1636 61l-20 22l-12 12t-9 16q-2 4 -2 9.5t1.5 10.5t5 8
t9.5 3q6 -1 9.5 -6.5t4.5 -12.5t1.5 -14.5t0.5 -12.5l37 2q0 22 -5 44.5t-26 31.5q-13 6 -26 5t-23.5 -7t-17.5 -16.5t-8 -24.5q-2 -14 0.5 -29t10.5 -26q3 -7 9 -12t11 -11q11 -14 24.5 -27.5t13.5 -33.5q0 -7 -1.5 -13t-8.5 -7q-5 -2 -9 0.5t-6 7.5q-5 10 -6 21l-2 22
l-37 -3q0 -15 1.5 -29t7.5 -28q8 -17 24.5 -24.5t33.5 -3.5q19 3 29.5 17t12.5 30q4 45 -28 79zM1899 176h-104v-38h32v-201h40v201h32v38zM1733 29l7 47l7 -47h-14zM1223 33h52v44h-52v-44zM862 176h-40v-239h88v35h-48v204zM915 25v-18.5t1 -18.5q3 -16 10.5 -30t24.5 -19
q13 -4 28 -3.5t26 7.5q10 6 15.5 15.5t7.5 20.5t2.5 22.5t0.5 21.5v68q0 10 -0.5 21.5t-2.5 22.5t-7.5 20.5t-15.5 15.5q-11 7 -26 7.5t-28 -3.5q-17 -5 -24.5 -19t-10.5 -30q-1 -9 -1 -18.5v-18.5v-64zM991 91v-68q0 -10 0.5 -19t-1.5 -17q-1 -11 -13 -15q-11 -1 -19 10
q-3 11 -2.5 23.5t0.5 23.5v56q0 11 -0.5 23.5t2.5 23.5q8 11 19 10q12 -4 13 -15q2 -8 1.5 -17t-0.5 -19zM1140 166h-30l-21 -139l-14 149h-40l30 -239h40l20 114l20 -114h40l30 239h-40l-14 -149z" />
    <glyph glyph-name="one" unicode="1" horiz-adv-x="1978" 
d="M193 176l-28 -150l-27 150h-39l-3 -239h36l1 97l19 -97h28l19 98l2 -98h35l-2 239h-41zM1040 642q-49 0 -57 48q-2 10 -2 20v21q0 23 -1 48t5 47q5 19 19.5 27.5t32.5 9.5t34.5 -6t22.5 -26q8 -20 7.5 -46t-0.5 -48q0 -14 -0.5 -26.5t-3.5 -24.5q-9 -44 -57 -44zM984 394
q-49 0 -58 46q-2 11 -1.5 22t0.5 23q0 21 -1 46t4 46q5 20 19 28.5t33 8.5q20 1 35.5 -6t22.5 -25q8 -22 6 -47t-2 -47q0 -14 0.5 -26t-2.5 -25q-4 -22 -18.5 -33t-37.5 -11zM639 26h24v-15.5t-1.5 -20t-7 -16t-15.5 -2.5q-6 2 -9 8.5t-4 14t-0.5 15.5t0.5 13v57
q0 11 -0.5 25.5t2.5 26.5q8 11 19 10q12 -4 13 -15q2 -8 1.5 -17t-0.5 -19h40q0 10 -0.5 21.5t-2.5 22.5t-7.5 20.5t-15.5 15.5q-11 7 -26 7.5t-28 -3.5q-17 -5 -24.5 -19t-10.5 -30q-2 -17 -1.5 -34.5t0.5 -34.5t-0.5 -33t1.5 -33q2 -14 7.5 -28.5t17.5 -21.5
q12 -8 29.5 -8t28.5 11l1 -7h32v124h-63v-35zM719 644v218q20 0 43.5 0.5t41.5 -9.5q12 -7 18 -22t6 -30.5t-6.5 -29t-19.5 -18.5l29 -109h-29l-29 103h-23v-103h-31zM539 61l-20 22l-12 12t-9 16q-2 4 -2 9.5t1.5 10.5t5 8t9.5 3q6 -1 9.5 -6.5t4.5 -12.5t1.5 -14.5
t0.5 -12.5l37 2q0 22 -5 44.5t-26 31.5q-13 6 -26 5t-23.5 -7t-17.5 -16.5t-8 -24.5q-2 -14 0.5 -29t10.5 -26q3 -7 9 -12t11 -11q11 -14 24.5 -27.5t13.5 -33.5q0 -7 -1.5 -13t-8.5 -7q-5 -2 -9 0.5t-6 7.5q-5 10 -6 21l-2 22l-37 -3q0 -15 1.5 -29t7.5 -28
q8 -17 24.5 -24.5t33.5 -3.5q19 3 29.5 17t12.5 30q4 45 -28 79zM481 644v218h46q17 0 31.5 -3.5t22.5 -20.5q10 -19 8.5 -43.5t-18.5 -38.5q-12 -10 -29 -10h-31v-102h-30zM1073 396v217h20l62 -145v145h27v-217h-21l-63 148v-148h-25zM1131 644v218h20l61 -145v145h26
v-218h-20l-63 148v-148h-24zM564 397q-10 -4 -21 -4t-21.5 3.5t-19 10.5t-12.5 19q-5 11 -6 24t-1 28v135h29v-145q0 -12 2 -27.5t16 -23.5q12 -4 19.5 -0.5t12 11t6.5 17.5t2 19q1 18 0.5 35t-0.5 35v79h30v-100q0 -14 0.5 -31.5t-2 -34.5t-10 -30.5t-24.5 -19.5zM1260 644
l46 218h29l46 -218h-28l-11 54h-44l-10 -54h-28zM682 394q-28 0 -42 18t-15 45l28 7q1 -10 2.5 -20.5t8.5 -17.5q7 -8 17 -9t18 6q9 8 8 21t-7 21q-5 6 -10.5 12.5t-13.5 11.5q-10 10 -22.5 20t-19.5 22q-7 10 -8.5 23t1.5 25t11 21t20 13q12 3 27 2t26 -9t14.5 -21t4.5 -26
l-24 -8q-1 12 -5.5 25t-18.5 16q-10 2 -18 -3.5t-10 -16.5q-5 -17 8.5 -29.5t25.5 -22.5q14 -13 27 -26.5t17 -33.5q6 -25 -8 -45.5t-42 -20.5zM909 642q-27 0 -42 18t-16 44l28 8q1 -11 3 -21.5t9 -17.5t17.5 -8t17.5 6q8 8 7.5 20.5t-6.5 22.5q-4 6 -10 11.5t-14 12.5
q-10 9 -22 19t-19 21t-9 24t1 25t10.5 21.5t20.5 12.5q12 3 27 2t25 -9q11 -8 15 -21t5 -26l-24 -7q-1 11 -5.5 24t-18.5 17q-10 1 -18.5 -4.5t-10.5 -14.5q-3 -19 10 -32t26 -22q14 -13 26.5 -26.5t17.5 -31.5q5 -27 -9 -47.5t-42 -20.5zM710 -93h34l68 299h-38zM611 644
v218h83v-23h-54v-71h44v-22h-44v-81h55v-21h-84zM758 396v217h84v-23h-54v-71h44v-22h-44v-81h54v-20h-84zM1028 667q13 -5 27 0q9 5 11.5 12.5t3.5 15.5v25v76q0 9 -0.5 19t-8.5 17q-10 12 -26 7q-16 -1 -21 -19q-5 -15 -3 -34t2 -35v-40q0 -11 1 -24.5t14 -19.5zM969 419
q6 -3 14.5 -3t13.5 3q8 5 11.5 13t4.5 16q1 5 0.5 11.5t-0.5 11.5v77q0 9 -0.5 19t-8.5 17q-5 6 -12.5 8t-14.5 0q-15 -4 -21 -21q-3 -15 -2 -33.5t1 -35.5v-39q0 -11 1.5 -24t12.5 -20zM1354 396v45q0 8 1 16.5t-1 15.5q-4 22 -15 42l-31 98h28l33 -104l31 104h30
q-14 -45 -30 -90l-14 -45q-3 -8 -2.5 -15t0.5 -13v-54h-30zM1404 644v218h30v-197h56v-21h-86zM1215 396v217h30v-197h55v-20h-85zM604 -237q-13 0 -19.5 6t-9 15t-2.5 20v20t0.5 19t3.5 17.5t10 12t20 3.5q11 -1 17 -6.5t8.5 -14t2.5 -18v-18.5t-0.5 -18.5t-3 -18t-9 -14
t-18.5 -5.5zM1381 -235v110q11 0 24.5 0.5t23.5 -7.5t9.5 -23t-0.5 -26v-26.5t-12 -22.5q-9 -7 -22 -6t-23 1zM1446 -375q-13 0 -19.5 6t-9 15t-2.5 19.5v19.5q0 10 0.5 20t4 17.5t10.5 12t20 3.5q12 -1 17 -6.5t7 -14t1.5 -18t-0.5 -18.5v-18.5t-2.5 -18t-8.5 -14t-18 -5.5
zM510 -375q-14 0 -20.5 6t-8.5 15t-2 19.5v19.5q0 10 0.5 20t3.5 17.5t10 12t20 3.5q12 -1 17.5 -6.5t8 -14t2.5 -18v-18.5v-18.5t-3 -18t-9.5 -14t-18.5 -5.5zM791 -374v111q11 0 22.5 1t20.5 -4q6 -4 9.5 -11.5t3.5 -15.5t-3.5 -15t-10.5 -10l16 -56h-15l-13 53h-12v-53
h-18zM555 -374l2 111h16l20 -89l19 89h14l2 -111h-12l-1 82l-18 -82h-11l-17 82l-1 -82h-13zM645 -374l2 111h16l19 -89l20 89h16l1 -111h-11l-2 82l-19 -82h-10l-17 82l-2 -82h-13zM1247 -374v111q11 0 22 1t21 -4q6 -4 9.5 -11.5t3.5 -15.5t-3 -15t-10 -10l14 -56h-14
l-14 53h-13v-53h-16zM650 -235v110q10 0 21 1t20 -4q6 -3 10 -11t4.5 -16.5t-3 -15.5t-11.5 -10l16 -54h-15l-16 51h-11v-51h-15zM661 231v112q6 0 13 0.5t14.5 -0.5t14 -3t10.5 -8q4 -10 3 -23t-9 -20q-7 -5 -15 -5.5t-16 -0.5v-52h-15zM1308 -235v110h10l32 -73v73h12
v-110h-9l-32 74v-74h-13zM808 -235v110h14v-48h29v48h16v-110h-16v51h-29v-51h-14zM1493 -374v111h10l32 -74v74h12v-111h-10l-32 76v-76h-12zM831 231l24 112h15l24 -112h-16l-5 29h-23l-5 -29h-14zM962 -374l24 111h15l24 -111h-14l-5 29h-24l-5 -29h-15zM1236 -235
l21 110h17l23 -110h-15l-5 27h-23l-6 -27h-12zM1455 443l-8 170h28l-9 -170h-11zM1067 -235q-16 -5 -27.5 2t-14.5 23q-2 7 -1 13.5t1 12.5v59h14v-49q0 -5 -0.5 -13.5t0.5 -17t4 -15t10 -6.5q8 0 11.5 6.5t5 15t1 17t-0.5 13.5v49h13v-50q0 -7 0.5 -16t-0.5 -18t-4.5 -16
t-11.5 -10zM511 768q8 0 15.5 -0.5t16.5 1.5q11 3 14 11.5t3 19.5q1 12 -1.5 23t-15.5 15q-9 2 -16.5 1.5t-15.5 -0.5v-71zM750 768h15t16 2q10 5 13.5 15t1.5 21q0 10 -2.5 18t-12.5 12q-8 4 -16 3.5t-15 -0.5v-71zM438 -375q-14 0 -20.5 8t-8.5 20t-1.5 25.5t0.5 23.5
q0 15 7.5 26.5t26.5 9.5q17 -2 20.5 -14t3.5 -25h-14v10t-2 10q-2 8 -10.5 8.5t-12.5 -6.5q-5 -6 -3.5 -19t1.5 -21q0 -7 -1.5 -19t4.5 -19q3 -7 11.5 -6t10.5 9q2 5 2 10.5v10.5h14q0 -14 -4 -28t-24 -14zM891 -375q-15 0 -21 8t-7.5 20t-0.5 25.5t1 23.5q0 15 7 26.5
t25 9.5t21.5 -14t3.5 -25h-16q0 5 0.5 10t-1.5 10q-2 8 -10 8.5t-13 -6.5q-5 -6 -4 -19t1 -21q0 -7 -1 -19t5 -19q4 -7 12 -6t10 9q2 5 1.5 10.5t-0.5 10.5h16q0 -14 -4.5 -28t-24.5 -14zM1186 230q-15 0 -21.5 9t-7.5 23l15 5q0 -6 2 -13.5t8 -10.5q7 -2 11.5 2t4.5 11
q1 11 -8.5 19.5t-17.5 16.5q-11 8 -15 22t8 25q15 8 31 3q8 -3 11 -11t4 -16l-13 -3q-1 5 -2.5 10.5t-6.5 10.5q-4 2 -9.5 0t-6.5 -9q-5 -8 2.5 -15.5l12.5 -12.5q7 -6 14 -12.5t9 -17.5q4 -14 -3 -25t-22 -11zM931 230q-14 0 -21.5 9t-8.5 23l15 5q0 -6 2 -13.5t7 -10.5
q8 -2 13 2t5 11q0 11 -10 19.5t-17 16.5q-11 8 -14.5 22t8.5 25q7 4 15.5 4.5t14.5 -1.5q8 -3 11.5 -11t4.5 -16l-13 -3q-1 5 -2.5 10.5t-6.5 10.5q-5 2 -10 0t-7 -9q-3 -8 3.5 -15.5t11.5 -12.5q8 -6 15 -12.5t9 -17.5q4 -14 -3.5 -25t-21.5 -11zM1346 -375q-15 0 -22 10
t-9 23l15 3q0 -5 2 -12t7 -9q8 -5 13 -0.5t5 10.5q0 11 -10 20t-17 15q-10 10 -14 24.5t9 23.5q6 5 15 5.5t15 -2.5q8 -2 11 -10t4 -15l-13 -5q-1 5 -2 11t-6 10q-6 2 -11 0t-7 -8q-4 -8 3 -15t13 -12q7 -8 14 -14.5t9 -17.5q4 -13 -3 -24t-21 -11zM1076 231l-25 112h16
l16 -82l18 82h12l-23 -112h-14zM1142 -374l-25 111h14l18 -81l15 81h16l-26 -111h-12zM969 231v112h44v-10h-28v-38h23v-11h-23v-42h29v-11h-45zM884 -235v110h43v-11h-27v-37h23v-11h-23v-42h27v-9h-43zM1191 -374v111h45v-10h-29v-36h23v-12h-23v-42h29v-11h-45zM736 -374
v111h44v-10h-28v-36h23v-12h-23v-42h28v-11h-44zM781 231v112h43v-10h-29v-38h24v-11h-24v-42h29v-11h-43zM597 -224q9 -4 13.5 -0.5t6 10.5t1.5 15v14q0 4 0.5 11t0.5 14.5t-1.5 14t-5.5 8.5q-11 6 -17.5 -1.5t-6.5 -16.5v-18q0 -4 -0.5 -11.5t0 -16t2.5 -15t7 -8.5z
M1439 -359q9 -5 14 -2.5t7 9.5t2 15v14q0 4 0.5 11t-0.5 14.5t-3 13.5t-6 8q-11 7 -15.5 -0.5t-4.5 -15.5v-17q0 -4 -1 -12t-1 -16t1.5 -14.5t6.5 -7.5zM502 -359q9 -5 13.5 -2.5t6.5 9.5t2 15v14q0 4 0.5 11t0.5 14.5t-1.5 13.5t-5.5 8q-12 7 -17.5 -0.5t-5.5 -15.5
q-1 -5 -0.5 -9t0.5 -8t-0.5 -12t-0.5 -16t1.5 -14.5t6.5 -7.5zM521 -235v110h43v-11h-26v-37h21v-11h-21v-51h-17zM973 -235v110h42v-11h-29v-37h22v-11h-22v-51h-13zM1396 -226q10 0 17 2t9 14v29v29q-1 12 -8 14t-18 2v-90zM764 -235v99h-20v11h56v-11h-20v-99h-16z
M1272 231v102h-21v10h54v-10h-19v-102h-14zM1037 -374v111h14v-100h29v-11h-43zM1101 -235v110h15v-101h28v-9h-43zM1154 -235v110h16v-101h28v-9h-44zM727 231v112h14v-101h29v-11h-43zM1127 231v112h15v-112h-15zM1302 720h37l-19 99zM401 -63h40v44h-40v-44zM935 -374
v111h16v-111h-16zM1385 -374v111h14v-111h-14zM1225 231v112h16v-112h-16zM1447 396v31h28v-31h-28zM676 294h8t9 2q6 2 7 8t1 12q-1 14 -7.5 15.5t-17.5 1.5v-39zM665 -173q10 0 17.5 3t7.5 16t-7 15.5t-18 2.5v-37zM1263 -309q11 0 18 2.5t7 15.5q0 11 -7 14.5t-18 3.5
v-36zM809 -309q10 0 16.5 2.5t6.5 15.5q0 11 -6.5 14.5t-16.5 3.5v-36zM984 -335h19l-9 51zM1256 -196h20l-10 50zM851 271h20l-8 51zM338 61l-41 115h-31v-239h37v117l42 -117h30v239h-37v-115zM1465 176l-44 -239h40l9 56h26l8 -56h40l-42 239h-37zM1476 29l7 47l7 -47
h-14zM1296 25v-18.5t1 -18.5q3 -16 10.5 -30t24.5 -19q13 -4 28 -3.5t26 7.5q10 6 15.5 15.5t7.5 20.5t2.5 22.5t0.5 21.5h-40q0 -10 0.5 -19t-1.5 -17q-1 -11 -13 -15q-11 -1 -19 10q-3 11 -2.5 23.5t0.5 23.5v56q0 11 -0.5 23.5t2.5 23.5q8 11 19 10q12 -4 13 -15
q2 -8 1.5 -17t-0.5 -19h40q0 10 -0.5 21.5t-2.5 22.5t-7.5 20.5t-15.5 15.5q-11 7 -26 7.5t-28 -3.5q-17 -5 -24.5 -19t-10.5 -30q-1 -9 -1 -18.5v-18.5v-64zM1722 176l-44 -239h40l9 56h26l8 -56h40l-42 239h-37zM1636 61l-20 22l-12 12t-9 16q-2 4 -2 9.5t1.5 10.5t5 8
t9.5 3q6 -1 9.5 -6.5t4.5 -12.5t1.5 -14.5t0.5 -12.5l37 2q0 22 -5 44.5t-26 31.5q-13 6 -26 5t-23.5 -7t-17.5 -16.5t-8 -24.5q-2 -14 0.5 -29t10.5 -26q3 -7 9 -12t11 -11q11 -14 24.5 -27.5t13.5 -33.5q0 -7 -1.5 -13t-8.5 -7q-5 -2 -9 0.5t-6 7.5q-5 10 -6 21l-2 22
l-37 -3q0 -15 1.5 -29t7.5 -28q8 -17 24.5 -24.5t33.5 -3.5q19 3 29.5 17t12.5 30q4 45 -28 79zM1899 176h-104v-38h32v-201h40v201h32v38zM1733 29l7 47l7 -47h-14zM1223 33h52v44h-52v-44zM862 176h-40v-239h88v35h-48v204zM915 25v-18.5t1 -18.5q3 -16 10.5 -30t24.5 -19
q13 -4 28 -3.5t26 7.5q10 6 15.5 15.5t7.5 20.5t2.5 22.5t0.5 21.5v68q0 10 -0.5 21.5t-2.5 22.5t-7.5 20.5t-15.5 15.5q-11 7 -26 7.5t-28 -3.5q-17 -5 -24.5 -19t-10.5 -30q-1 -9 -1 -18.5v-18.5v-64zM991 91v-68q0 -10 0.5 -19t-1.5 -17q-1 -11 -13 -15q-11 -1 -19 10
q-3 11 -2.5 23.5t0.5 23.5v56q0 11 -0.5 23.5t2.5 23.5q8 11 19 10q12 -4 13 -15q2 -8 1.5 -17t-0.5 -19zM1140 166h-30l-21 -139l-14 149h-40l30 -239h40l20 114l20 -114h40l30 239h-40l-14 -149z" />
    <glyph glyph-name="two" unicode="2" horiz-adv-x="1978" 
d="M193 176l-28 -150l-27 150h-39l-3 -239h36l1 97l19 -97h28l19 98l2 -98h35l-2 239h-41zM1040 642q-49 0 -57 48q-2 10 -2 20v21q0 23 -1 48t5 47q5 19 19.5 27.5t32.5 9.5t34.5 -6t22.5 -26q8 -20 7.5 -46t-0.5 -48q0 -14 -0.5 -26.5t-3.5 -24.5q-9 -44 -57 -44zM984 394
q-49 0 -58 46q-2 11 -1.5 22t0.5 23q0 21 -1 46t4 46q5 20 19 28.5t33 8.5q20 1 35.5 -6t22.5 -25q8 -22 6 -47t-2 -47q0 -14 0.5 -26t-2.5 -25q-4 -22 -18.5 -33t-37.5 -11zM639 26h24v-15.5t-1.5 -20t-7 -16t-15.5 -2.5q-6 2 -9 8.5t-4 14t-0.5 15.5t0.5 13v57
q0 11 -0.5 25.5t2.5 26.5q8 11 19 10q12 -4 13 -15q2 -8 1.5 -17t-0.5 -19h40q0 10 -0.5 21.5t-2.5 22.5t-7.5 20.5t-15.5 15.5q-11 7 -26 7.5t-28 -3.5q-17 -5 -24.5 -19t-10.5 -30q-2 -17 -1.5 -34.5t0.5 -34.5t-0.5 -33t1.5 -33q2 -14 7.5 -28.5t17.5 -21.5
q12 -8 29.5 -8t28.5 11l1 -7h32v124h-63v-35zM719 644v218q20 0 43.5 0.5t41.5 -9.5q12 -7 18 -22t6 -30.5t-6.5 -29t-19.5 -18.5l29 -109h-29l-29 103h-23v-103h-31zM539 61l-20 22l-12 12t-9 16q-2 4 -2 9.5t1.5 10.5t5 8t9.5 3q6 -1 9.5 -6.5t4.5 -12.5t1.5 -14.5
t0.5 -12.5l37 2q0 22 -5 44.5t-26 31.5q-13 6 -26 5t-23.5 -7t-17.5 -16.5t-8 -24.5q-2 -14 0.5 -29t10.5 -26q3 -7 9 -12t11 -11q11 -14 24.5 -27.5t13.5 -33.5q0 -7 -1.5 -13t-8.5 -7q-5 -2 -9 0.5t-6 7.5q-5 10 -6 21l-2 22l-37 -3q0 -15 1.5 -29t7.5 -28
q8 -17 24.5 -24.5t33.5 -3.5q19 3 29.5 17t12.5 30q4 45 -28 79zM481 644v218h46q17 0 31.5 -3.5t22.5 -20.5q10 -19 8.5 -43.5t-18.5 -38.5q-12 -10 -29 -10h-31v-102h-30zM1073 396v217h20l62 -145v145h27v-217h-21l-63 148v-148h-25zM1131 644v218h20l61 -145v145h26
v-218h-20l-63 148v-148h-24zM564 397q-10 -4 -21 -4t-21.5 3.5t-19 10.5t-12.5 19q-5 11 -6 24t-1 28v135h29v-145q0 -12 2 -27.5t16 -23.5q12 -4 19.5 -0.5t12 11t6.5 17.5t2 19q1 18 0.5 35t-0.5 35v79h30v-100q0 -14 0.5 -31.5t-2 -34.5t-10 -30.5t-24.5 -19.5zM1260 644
l46 218h29l46 -218h-28l-11 54h-44l-10 -54h-28zM682 394q-28 0 -42 18t-15 45l28 7q1 -10 2.5 -20.5t8.5 -17.5q7 -8 17 -9t18 6q9 8 8 21t-7 21q-5 6 -10.5 12.5t-13.5 11.5q-10 10 -22.5 20t-19.5 22q-7 10 -8.5 23t1.5 25t11 21t20 13q12 3 27 2t26 -9t14.5 -21t4.5 -26
l-24 -8q-1 12 -5.5 25t-18.5 16q-10 2 -18 -3.5t-10 -16.5q-5 -17 8.5 -29.5t25.5 -22.5q14 -13 27 -26.5t17 -33.5q6 -25 -8 -45.5t-42 -20.5zM909 642q-27 0 -42 18t-16 44l28 8q1 -11 3 -21.5t9 -17.5t17.5 -8t17.5 6q8 8 7.5 20.5t-6.5 22.5q-4 6 -10 11.5t-14 12.5
q-10 9 -22 19t-19 21t-9 24t1 25t10.5 21.5t20.5 12.5q12 3 27 2t25 -9q11 -8 15 -21t5 -26l-24 -7q-1 11 -5.5 24t-18.5 17q-10 1 -18.5 -4.5t-10.5 -14.5q-3 -19 10 -32t26 -22q14 -13 26.5 -26.5t17.5 -31.5q5 -27 -9 -47.5t-42 -20.5zM710 -93h34l68 299h-38zM611 644
v218h83v-23h-54v-71h44v-22h-44v-81h55v-21h-84zM758 396v217h84v-23h-54v-71h44v-22h-44v-81h54v-20h-84zM1028 667q13 -5 27 0q9 5 11.5 12.5t3.5 15.5v25v76q0 9 -0.5 19t-8.5 17q-10 12 -26 7q-16 -1 -21 -19q-5 -15 -3 -34t2 -35v-40q0 -11 1 -24.5t14 -19.5zM969 419
q6 -3 14.5 -3t13.5 3q8 5 11.5 13t4.5 16q1 5 0.5 11.5t-0.5 11.5v77q0 9 -0.5 19t-8.5 17q-5 6 -12.5 8t-14.5 0q-15 -4 -21 -21q-3 -15 -2 -33.5t1 -35.5v-39q0 -11 1.5 -24t12.5 -20zM1354 396v45q0 8 1 16.5t-1 15.5q-4 22 -15 42l-31 98h28l33 -104l31 104h30
q-14 -45 -30 -90l-14 -45q-3 -8 -2.5 -15t0.5 -13v-54h-30zM1404 644v218h30v-197h56v-21h-86zM1215 396v217h30v-197h55v-20h-85zM604 -237q-13 0 -19.5 6t-9 15t-2.5 20v20t0.5 19t3.5 17.5t10 12t20 3.5q11 -1 17 -6.5t8.5 -14t2.5 -18v-18.5t-0.5 -18.5t-3 -18t-9 -14
t-18.5 -5.5zM1381 -235v110q11 0 24.5 0.5t23.5 -7.5t9.5 -23t-0.5 -26v-26.5t-12 -22.5q-9 -7 -22 -6t-23 1zM1446 -375q-13 0 -19.5 6t-9 15t-2.5 19.5v19.5q0 10 0.5 20t4 17.5t10.5 12t20 3.5q12 -1 17 -6.5t7 -14t1.5 -18t-0.5 -18.5v-18.5t-2.5 -18t-8.5 -14t-18 -5.5
zM510 -375q-14 0 -20.5 6t-8.5 15t-2 19.5v19.5q0 10 0.5 20t3.5 17.5t10 12t20 3.5q12 -1 17.5 -6.5t8 -14t2.5 -18v-18.5v-18.5t-3 -18t-9.5 -14t-18.5 -5.5zM791 -374v111q11 0 22.5 1t20.5 -4q6 -4 9.5 -11.5t3.5 -15.5t-3.5 -15t-10.5 -10l16 -56h-15l-13 53h-12v-53
h-18zM555 -374l2 111h16l20 -89l19 89h14l2 -111h-12l-1 82l-18 -82h-11l-17 82l-1 -82h-13zM645 -374l2 111h16l19 -89l20 89h16l1 -111h-11l-2 82l-19 -82h-10l-17 82l-2 -82h-13zM1247 -374v111q11 0 22 1t21 -4q6 -4 9.5 -11.5t3.5 -15.5t-3 -15t-10 -10l14 -56h-14
l-14 53h-13v-53h-16zM650 -235v110q10 0 21 1t20 -4q6 -3 10 -11t4.5 -16.5t-3 -15.5t-11.5 -10l16 -54h-15l-16 51h-11v-51h-15zM661 231v112q6 0 13 0.5t14.5 -0.5t14 -3t10.5 -8q4 -10 3 -23t-9 -20q-7 -5 -15 -5.5t-16 -0.5v-52h-15zM1308 -235v110h10l32 -73v73h12
v-110h-9l-32 74v-74h-13zM808 -235v110h14v-48h29v48h16v-110h-16v51h-29v-51h-14zM1493 -374v111h10l32 -74v74h12v-111h-10l-32 76v-76h-12zM831 231l24 112h15l24 -112h-16l-5 29h-23l-5 -29h-14zM962 -374l24 111h15l24 -111h-14l-5 29h-24l-5 -29h-15zM1236 -235
l21 110h17l23 -110h-15l-5 27h-23l-6 -27h-12zM1455 443l-8 170h28l-9 -170h-11zM1067 -235q-16 -5 -27.5 2t-14.5 23q-2 7 -1 13.5t1 12.5v59h14v-49q0 -5 -0.5 -13.5t0.5 -17t4 -15t10 -6.5q8 0 11.5 6.5t5 15t1 17t-0.5 13.5v49h13v-50q0 -7 0.5 -16t-0.5 -18t-4.5 -16
t-11.5 -10zM511 768q8 0 15.5 -0.5t16.5 1.5q11 3 14 11.5t3 19.5q1 12 -1.5 23t-15.5 15q-9 2 -16.5 1.5t-15.5 -0.5v-71zM750 768h15t16 2q10 5 13.5 15t1.5 21q0 10 -2.5 18t-12.5 12q-8 4 -16 3.5t-15 -0.5v-71zM438 -375q-14 0 -20.5 8t-8.5 20t-1.5 25.5t0.5 23.5
q0 15 7.5 26.5t26.5 9.5q17 -2 20.5 -14t3.5 -25h-14v10t-2 10q-2 8 -10.5 8.5t-12.5 -6.5q-5 -6 -3.5 -19t1.5 -21q0 -7 -1.5 -19t4.5 -19q3 -7 11.5 -6t10.5 9q2 5 2 10.5v10.5h14q0 -14 -4 -28t-24 -14zM891 -375q-15 0 -21 8t-7.5 20t-0.5 25.5t1 23.5q0 15 7 26.5
t25 9.5t21.5 -14t3.5 -25h-16q0 5 0.5 10t-1.5 10q-2 8 -10 8.5t-13 -6.5q-5 -6 -4 -19t1 -21q0 -7 -1 -19t5 -19q4 -7 12 -6t10 9q2 5 1.5 10.5t-0.5 10.5h16q0 -14 -4.5 -28t-24.5 -14zM1186 230q-15 0 -21.5 9t-7.5 23l15 5q0 -6 2 -13.5t8 -10.5q7 -2 11.5 2t4.5 11
q1 11 -8.5 19.5t-17.5 16.5q-11 8 -15 22t8 25q15 8 31 3q8 -3 11 -11t4 -16l-13 -3q-1 5 -2.5 10.5t-6.5 10.5q-4 2 -9.5 0t-6.5 -9q-5 -8 2.5 -15.5l12.5 -12.5q7 -6 14 -12.5t9 -17.5q4 -14 -3 -25t-22 -11zM931 230q-14 0 -21.5 9t-8.5 23l15 5q0 -6 2 -13.5t7 -10.5
q8 -2 13 2t5 11q0 11 -10 19.5t-17 16.5q-11 8 -14.5 22t8.5 25q7 4 15.5 4.5t14.5 -1.5q8 -3 11.5 -11t4.5 -16l-13 -3q-1 5 -2.5 10.5t-6.5 10.5q-5 2 -10 0t-7 -9q-3 -8 3.5 -15.5t11.5 -12.5q8 -6 15 -12.5t9 -17.5q4 -14 -3.5 -25t-21.5 -11zM1346 -375q-15 0 -22 10
t-9 23l15 3q0 -5 2 -12t7 -9q8 -5 13 -0.5t5 10.5q0 11 -10 20t-17 15q-10 10 -14 24.5t9 23.5q6 5 15 5.5t15 -2.5q8 -2 11 -10t4 -15l-13 -5q-1 5 -2 11t-6 10q-6 2 -11 0t-7 -8q-4 -8 3 -15t13 -12q7 -8 14 -14.5t9 -17.5q4 -13 -3 -24t-21 -11zM1076 231l-25 112h16
l16 -82l18 82h12l-23 -112h-14zM1142 -374l-25 111h14l18 -81l15 81h16l-26 -111h-12zM969 231v112h44v-10h-28v-38h23v-11h-23v-42h29v-11h-45zM884 -235v110h43v-11h-27v-37h23v-11h-23v-42h27v-9h-43zM1191 -374v111h45v-10h-29v-36h23v-12h-23v-42h29v-11h-45zM736 -374
v111h44v-10h-28v-36h23v-12h-23v-42h28v-11h-44zM781 231v112h43v-10h-29v-38h24v-11h-24v-42h29v-11h-43zM597 -224q9 -4 13.5 -0.5t6 10.5t1.5 15v14q0 4 0.5 11t0.5 14.5t-1.5 14t-5.5 8.5q-11 6 -17.5 -1.5t-6.5 -16.5v-18q0 -4 -0.5 -11.5t0 -16t2.5 -15t7 -8.5z
M1439 -359q9 -5 14 -2.5t7 9.5t2 15v14q0 4 0.5 11t-0.5 14.5t-3 13.5t-6 8q-11 7 -15.5 -0.5t-4.5 -15.5v-17q0 -4 -1 -12t-1 -16t1.5 -14.5t6.5 -7.5zM502 -359q9 -5 13.5 -2.5t6.5 9.5t2 15v14q0 4 0.5 11t0.5 14.5t-1.5 13.5t-5.5 8q-12 7 -17.5 -0.5t-5.5 -15.5
q-1 -5 -0.5 -9t0.5 -8t-0.5 -12t-0.5 -16t1.5 -14.5t6.5 -7.5zM521 -235v110h43v-11h-26v-37h21v-11h-21v-51h-17zM973 -235v110h42v-11h-29v-37h22v-11h-22v-51h-13zM1396 -226q10 0 17 2t9 14v29v29q-1 12 -8 14t-18 2v-90zM764 -235v99h-20v11h56v-11h-20v-99h-16z
M1272 231v102h-21v10h54v-10h-19v-102h-14zM1037 -374v111h14v-100h29v-11h-43zM1101 -235v110h15v-101h28v-9h-43zM1154 -235v110h16v-101h28v-9h-44zM727 231v112h14v-101h29v-11h-43zM1127 231v112h15v-112h-15zM1302 720h37l-19 99zM401 -63h40v44h-40v-44zM935 -374
v111h16v-111h-16zM1385 -374v111h14v-111h-14zM1225 231v112h16v-112h-16zM1447 396v31h28v-31h-28zM676 294h8t9 2q6 2 7 8t1 12q-1 14 -7.5 15.5t-17.5 1.5v-39zM665 -173q10 0 17.5 3t7.5 16t-7 15.5t-18 2.5v-37zM1263 -309q11 0 18 2.5t7 15.5q0 11 -7 14.5t-18 3.5
v-36zM809 -309q10 0 16.5 2.5t6.5 15.5q0 11 -6.5 14.5t-16.5 3.5v-36zM984 -335h19l-9 51zM1256 -196h20l-10 50zM851 271h20l-8 51zM338 61l-41 115h-31v-239h37v117l42 -117h30v239h-37v-115zM1465 176l-44 -239h40l9 56h26l8 -56h40l-42 239h-37zM1476 29l7 47l7 -47
h-14zM1296 25v-18.5t1 -18.5q3 -16 10.5 -30t24.5 -19q13 -4 28 -3.5t26 7.5q10 6 15.5 15.5t7.5 20.5t2.5 22.5t0.5 21.5h-40q0 -10 0.5 -19t-1.5 -17q-1 -11 -13 -15q-11 -1 -19 10q-3 11 -2.5 23.5t0.5 23.5v56q0 11 -0.5 23.5t2.5 23.5q8 11 19 10q12 -4 13 -15
q2 -8 1.5 -17t-0.5 -19h40q0 10 -0.5 21.5t-2.5 22.5t-7.5 20.5t-15.5 15.5q-11 7 -26 7.5t-28 -3.5q-17 -5 -24.5 -19t-10.5 -30q-1 -9 -1 -18.5v-18.5v-64zM1722 176l-44 -239h40l9 56h26l8 -56h40l-42 239h-37zM1636 61l-20 22l-12 12t-9 16q-2 4 -2 9.5t1.5 10.5t5 8
t9.5 3q6 -1 9.5 -6.5t4.5 -12.5t1.5 -14.5t0.5 -12.5l37 2q0 22 -5 44.5t-26 31.5q-13 6 -26 5t-23.5 -7t-17.5 -16.5t-8 -24.5q-2 -14 0.5 -29t10.5 -26q3 -7 9 -12t11 -11q11 -14 24.5 -27.5t13.5 -33.5q0 -7 -1.5 -13t-8.5 -7q-5 -2 -9 0.5t-6 7.5q-5 10 -6 21l-2 22
l-37 -3q0 -15 1.5 -29t7.5 -28q8 -17 24.5 -24.5t33.5 -3.5q19 3 29.5 17t12.5 30q4 45 -28 79zM1899 176h-104v-38h32v-201h40v201h32v38zM1733 29l7 47l7 -47h-14zM1223 33h52v44h-52v-44zM862 176h-40v-239h88v35h-48v204zM915 25v-18.5t1 -18.5q3 -16 10.5 -30t24.5 -19
q13 -4 28 -3.5t26 7.5q10 6 15.5 15.5t7.5 20.5t2.5 22.5t0.5 21.5v68q0 10 -0.5 21.5t-2.5 22.5t-7.5 20.5t-15.5 15.5q-11 7 -26 7.5t-28 -3.5q-17 -5 -24.5 -19t-10.5 -30q-1 -9 -1 -18.5v-18.5v-64zM991 91v-68q0 -10 0.5 -19t-1.5 -17q-1 -11 -13 -15q-11 -1 -19 10
q-3 11 -2.5 23.5t0.5 23.5v56q0 11 -0.5 23.5t2.5 23.5q8 11 19 10q12 -4 13 -15q2 -8 1.5 -17t-0.5 -19zM1140 166h-30l-21 -139l-14 149h-40l30 -239h40l20 114l20 -114h40l30 239h-40l-14 -149z" />
    <glyph glyph-name="three" unicode="3" horiz-adv-x="1978" 
d="M193 176l-28 -150l-27 150h-39l-3 -239h36l1 97l19 -97h28l19 98l2 -98h35l-2 239h-41zM1040 642q-49 0 -57 48q-2 10 -2 20v21q0 23 -1 48t5 47q5 19 19.5 27.5t32.5 9.5t34.5 -6t22.5 -26q8 -20 7.5 -46t-0.5 -48q0 -14 -0.5 -26.5t-3.5 -24.5q-9 -44 -57 -44zM984 394
q-49 0 -58 46q-2 11 -1.5 22t0.5 23q0 21 -1 46t4 46q5 20 19 28.5t33 8.5q20 1 35.5 -6t22.5 -25q8 -22 6 -47t-2 -47q0 -14 0.5 -26t-2.5 -25q-4 -22 -18.5 -33t-37.5 -11zM639 26h24v-15.5t-1.5 -20t-7 -16t-15.5 -2.5q-6 2 -9 8.5t-4 14t-0.5 15.5t0.5 13v57
q0 11 -0.5 25.5t2.5 26.5q8 11 19 10q12 -4 13 -15q2 -8 1.5 -17t-0.5 -19h40q0 10 -0.5 21.5t-2.5 22.5t-7.5 20.5t-15.5 15.5q-11 7 -26 7.5t-28 -3.5q-17 -5 -24.5 -19t-10.5 -30q-2 -17 -1.5 -34.5t0.5 -34.5t-0.5 -33t1.5 -33q2 -14 7.5 -28.5t17.5 -21.5
q12 -8 29.5 -8t28.5 11l1 -7h32v124h-63v-35zM719 644v218q20 0 43.5 0.5t41.5 -9.5q12 -7 18 -22t6 -30.5t-6.5 -29t-19.5 -18.5l29 -109h-29l-29 103h-23v-103h-31zM539 61l-20 22l-12 12t-9 16q-2 4 -2 9.5t1.5 10.5t5 8t9.5 3q6 -1 9.5 -6.5t4.5 -12.5t1.5 -14.5
t0.5 -12.5l37 2q0 22 -5 44.5t-26 31.5q-13 6 -26 5t-23.5 -7t-17.5 -16.5t-8 -24.5q-2 -14 0.5 -29t10.5 -26q3 -7 9 -12t11 -11q11 -14 24.5 -27.5t13.5 -33.5q0 -7 -1.5 -13t-8.5 -7q-5 -2 -9 0.5t-6 7.5q-5 10 -6 21l-2 22l-37 -3q0 -15 1.5 -29t7.5 -28
q8 -17 24.5 -24.5t33.5 -3.5q19 3 29.5 17t12.5 30q4 45 -28 79zM481 644v218h46q17 0 31.5 -3.5t22.5 -20.5q10 -19 8.5 -43.5t-18.5 -38.5q-12 -10 -29 -10h-31v-102h-30zM1073 396v217h20l62 -145v145h27v-217h-21l-63 148v-148h-25zM1131 644v218h20l61 -145v145h26
v-218h-20l-63 148v-148h-24zM564 397q-10 -4 -21 -4t-21.5 3.5t-19 10.5t-12.5 19q-5 11 -6 24t-1 28v135h29v-145q0 -12 2 -27.5t16 -23.5q12 -4 19.5 -0.5t12 11t6.5 17.5t2 19q1 18 0.5 35t-0.5 35v79h30v-100q0 -14 0.5 -31.5t-2 -34.5t-10 -30.5t-24.5 -19.5zM1260 644
l46 218h29l46 -218h-28l-11 54h-44l-10 -54h-28zM682 394q-28 0 -42 18t-15 45l28 7q1 -10 2.5 -20.5t8.5 -17.5q7 -8 17 -9t18 6q9 8 8 21t-7 21q-5 6 -10.5 12.5t-13.5 11.5q-10 10 -22.5 20t-19.5 22q-7 10 -8.5 23t1.5 25t11 21t20 13q12 3 27 2t26 -9t14.5 -21t4.5 -26
l-24 -8q-1 12 -5.5 25t-18.5 16q-10 2 -18 -3.5t-10 -16.5q-5 -17 8.5 -29.5t25.5 -22.5q14 -13 27 -26.5t17 -33.5q6 -25 -8 -45.5t-42 -20.5zM909 642q-27 0 -42 18t-16 44l28 8q1 -11 3 -21.5t9 -17.5t17.5 -8t17.5 6q8 8 7.5 20.5t-6.5 22.5q-4 6 -10 11.5t-14 12.5
q-10 9 -22 19t-19 21t-9 24t1 25t10.5 21.5t20.5 12.5q12 3 27 2t25 -9q11 -8 15 -21t5 -26l-24 -7q-1 11 -5.5 24t-18.5 17q-10 1 -18.5 -4.5t-10.5 -14.5q-3 -19 10 -32t26 -22q14 -13 26.5 -26.5t17.5 -31.5q5 -27 -9 -47.5t-42 -20.5zM710 -93h34l68 299h-38zM611 644
v218h83v-23h-54v-71h44v-22h-44v-81h55v-21h-84zM758 396v217h84v-23h-54v-71h44v-22h-44v-81h54v-20h-84zM1028 667q13 -5 27 0q9 5 11.5 12.5t3.5 15.5v25v76q0 9 -0.5 19t-8.5 17q-10 12 -26 7q-16 -1 -21 -19q-5 -15 -3 -34t2 -35v-40q0 -11 1 -24.5t14 -19.5zM969 419
q6 -3 14.5 -3t13.5 3q8 5 11.5 13t4.5 16q1 5 0.5 11.5t-0.5 11.5v77q0 9 -0.5 19t-8.5 17q-5 6 -12.5 8t-14.5 0q-15 -4 -21 -21q-3 -15 -2 -33.5t1 -35.5v-39q0 -11 1.5 -24t12.5 -20zM1354 396v45q0 8 1 16.5t-1 15.5q-4 22 -15 42l-31 98h28l33 -104l31 104h30
q-14 -45 -30 -90l-14 -45q-3 -8 -2.5 -15t0.5 -13v-54h-30zM1404 644v218h30v-197h56v-21h-86zM1215 396v217h30v-197h55v-20h-85zM604 -237q-13 0 -19.5 6t-9 15t-2.5 20v20t0.5 19t3.5 17.5t10 12t20 3.5q11 -1 17 -6.5t8.5 -14t2.5 -18v-18.5t-0.5 -18.5t-3 -18t-9 -14
t-18.5 -5.5zM1381 -235v110q11 0 24.5 0.5t23.5 -7.5t9.5 -23t-0.5 -26v-26.5t-12 -22.5q-9 -7 -22 -6t-23 1zM1446 -375q-13 0 -19.5 6t-9 15t-2.5 19.5v19.5q0 10 0.5 20t4 17.5t10.5 12t20 3.5q12 -1 17 -6.5t7 -14t1.5 -18t-0.5 -18.5v-18.5t-2.5 -18t-8.5 -14t-18 -5.5
zM510 -375q-14 0 -20.5 6t-8.5 15t-2 19.5v19.5q0 10 0.5 20t3.5 17.5t10 12t20 3.5q12 -1 17.5 -6.5t8 -14t2.5 -18v-18.5v-18.5t-3 -18t-9.5 -14t-18.5 -5.5zM791 -374v111q11 0 22.5 1t20.5 -4q6 -4 9.5 -11.5t3.5 -15.5t-3.5 -15t-10.5 -10l16 -56h-15l-13 53h-12v-53
h-18zM555 -374l2 111h16l20 -89l19 89h14l2 -111h-12l-1 82l-18 -82h-11l-17 82l-1 -82h-13zM645 -374l2 111h16l19 -89l20 89h16l1 -111h-11l-2 82l-19 -82h-10l-17 82l-2 -82h-13zM1247 -374v111q11 0 22 1t21 -4q6 -4 9.5 -11.5t3.5 -15.5t-3 -15t-10 -10l14 -56h-14
l-14 53h-13v-53h-16zM650 -235v110q10 0 21 1t20 -4q6 -3 10 -11t4.5 -16.5t-3 -15.5t-11.5 -10l16 -54h-15l-16 51h-11v-51h-15zM661 231v112q6 0 13 0.5t14.5 -0.5t14 -3t10.5 -8q4 -10 3 -23t-9 -20q-7 -5 -15 -5.5t-16 -0.5v-52h-15zM1308 -235v110h10l32 -73v73h12
v-110h-9l-32 74v-74h-13zM808 -235v110h14v-48h29v48h16v-110h-16v51h-29v-51h-14zM1493 -374v111h10l32 -74v74h12v-111h-10l-32 76v-76h-12zM831 231l24 112h15l24 -112h-16l-5 29h-23l-5 -29h-14zM962 -374l24 111h15l24 -111h-14l-5 29h-24l-5 -29h-15zM1236 -235
l21 110h17l23 -110h-15l-5 27h-23l-6 -27h-12zM1455 443l-8 170h28l-9 -170h-11zM1067 -235q-16 -5 -27.5 2t-14.5 23q-2 7 -1 13.5t1 12.5v59h14v-49q0 -5 -0.5 -13.5t0.5 -17t4 -15t10 -6.5q8 0 11.5 6.5t5 15t1 17t-0.5 13.5v49h13v-50q0 -7 0.5 -16t-0.5 -18t-4.5 -16
t-11.5 -10zM511 768q8 0 15.5 -0.5t16.5 1.5q11 3 14 11.5t3 19.5q1 12 -1.5 23t-15.5 15q-9 2 -16.5 1.5t-15.5 -0.5v-71zM750 768h15t16 2q10 5 13.5 15t1.5 21q0 10 -2.5 18t-12.5 12q-8 4 -16 3.5t-15 -0.5v-71zM438 -375q-14 0 -20.5 8t-8.5 20t-1.5 25.5t0.5 23.5
q0 15 7.5 26.5t26.5 9.5q17 -2 20.5 -14t3.5 -25h-14v10t-2 10q-2 8 -10.5 8.5t-12.5 -6.5q-5 -6 -3.5 -19t1.5 -21q0 -7 -1.5 -19t4.5 -19q3 -7 11.5 -6t10.5 9q2 5 2 10.5v10.5h14q0 -14 -4 -28t-24 -14zM891 -375q-15 0 -21 8t-7.5 20t-0.5 25.5t1 23.5q0 15 7 26.5
t25 9.5t21.5 -14t3.5 -25h-16q0 5 0.5 10t-1.5 10q-2 8 -10 8.5t-13 -6.5q-5 -6 -4 -19t1 -21q0 -7 -1 -19t5 -19q4 -7 12 -6t10 9q2 5 1.5 10.5t-0.5 10.5h16q0 -14 -4.5 -28t-24.5 -14zM1186 230q-15 0 -21.5 9t-7.5 23l15 5q0 -6 2 -13.5t8 -10.5q7 -2 11.5 2t4.5 11
q1 11 -8.5 19.5t-17.5 16.5q-11 8 -15 22t8 25q15 8 31 3q8 -3 11 -11t4 -16l-13 -3q-1 5 -2.5 10.5t-6.5 10.5q-4 2 -9.5 0t-6.5 -9q-5 -8 2.5 -15.5l12.5 -12.5q7 -6 14 -12.5t9 -17.5q4 -14 -3 -25t-22 -11zM931 230q-14 0 -21.5 9t-8.5 23l15 5q0 -6 2 -13.5t7 -10.5
q8 -2 13 2t5 11q0 11 -10 19.5t-17 16.5q-11 8 -14.5 22t8.5 25q7 4 15.5 4.5t14.5 -1.5q8 -3 11.5 -11t4.5 -16l-13 -3q-1 5 -2.5 10.5t-6.5 10.5q-5 2 -10 0t-7 -9q-3 -8 3.5 -15.5t11.5 -12.5q8 -6 15 -12.5t9 -17.5q4 -14 -3.5 -25t-21.5 -11zM1346 -375q-15 0 -22 10
t-9 23l15 3q0 -5 2 -12t7 -9q8 -5 13 -0.5t5 10.5q0 11 -10 20t-17 15q-10 10 -14 24.5t9 23.5q6 5 15 5.5t15 -2.5q8 -2 11 -10t4 -15l-13 -5q-1 5 -2 11t-6 10q-6 2 -11 0t-7 -8q-4 -8 3 -15t13 -12q7 -8 14 -14.5t9 -17.5q4 -13 -3 -24t-21 -11zM1076 231l-25 112h16
l16 -82l18 82h12l-23 -112h-14zM1142 -374l-25 111h14l18 -81l15 81h16l-26 -111h-12zM969 231v112h44v-10h-28v-38h23v-11h-23v-42h29v-11h-45zM884 -235v110h43v-11h-27v-37h23v-11h-23v-42h27v-9h-43zM1191 -374v111h45v-10h-29v-36h23v-12h-23v-42h29v-11h-45zM736 -374
v111h44v-10h-28v-36h23v-12h-23v-42h28v-11h-44zM781 231v112h43v-10h-29v-38h24v-11h-24v-42h29v-11h-43zM597 -224q9 -4 13.5 -0.5t6 10.5t1.5 15v14q0 4 0.5 11t0.5 14.5t-1.5 14t-5.5 8.5q-11 6 -17.5 -1.5t-6.5 -16.5v-18q0 -4 -0.5 -11.5t0 -16t2.5 -15t7 -8.5z
M1439 -359q9 -5 14 -2.5t7 9.5t2 15v14q0 4 0.5 11t-0.5 14.5t-3 13.5t-6 8q-11 7 -15.5 -0.5t-4.5 -15.5v-17q0 -4 -1 -12t-1 -16t1.5 -14.5t6.5 -7.5zM502 -359q9 -5 13.5 -2.5t6.5 9.5t2 15v14q0 4 0.5 11t0.5 14.5t-1.5 13.5t-5.5 8q-12 7 -17.5 -0.5t-5.5 -15.5
q-1 -5 -0.5 -9t0.5 -8t-0.5 -12t-0.5 -16t1.5 -14.5t6.5 -7.5zM521 -235v110h43v-11h-26v-37h21v-11h-21v-51h-17zM973 -235v110h42v-11h-29v-37h22v-11h-22v-51h-13zM1396 -226q10 0 17 2t9 14v29v29q-1 12 -8 14t-18 2v-90zM764 -235v99h-20v11h56v-11h-20v-99h-16z
M1272 231v102h-21v10h54v-10h-19v-102h-14zM1037 -374v111h14v-100h29v-11h-43zM1101 -235v110h15v-101h28v-9h-43zM1154 -235v110h16v-101h28v-9h-44zM727 231v112h14v-101h29v-11h-43zM1127 231v112h15v-112h-15zM1302 720h37l-19 99zM401 -63h40v44h-40v-44zM935 -374
v111h16v-111h-16zM1385 -374v111h14v-111h-14zM1225 231v112h16v-112h-16zM1447 396v31h28v-31h-28zM676 294h8t9 2q6 2 7 8t1 12q-1 14 -7.5 15.5t-17.5 1.5v-39zM665 -173q10 0 17.5 3t7.5 16t-7 15.5t-18 2.5v-37zM1263 -309q11 0 18 2.5t7 15.5q0 11 -7 14.5t-18 3.5
v-36zM809 -309q10 0 16.5 2.5t6.5 15.5q0 11 -6.5 14.5t-16.5 3.5v-36zM984 -335h19l-9 51zM1256 -196h20l-10 50zM851 271h20l-8 51zM338 61l-41 115h-31v-239h37v117l42 -117h30v239h-37v-115zM1465 176l-44 -239h40l9 56h26l8 -56h40l-42 239h-37zM1476 29l7 47l7 -47
h-14zM1296 25v-18.5t1 -18.5q3 -16 10.5 -30t24.5 -19q13 -4 28 -3.5t26 7.5q10 6 15.5 15.5t7.5 20.5t2.5 22.5t0.5 21.5h-40q0 -10 0.5 -19t-1.5 -17q-1 -11 -13 -15q-11 -1 -19 10q-3 11 -2.5 23.5t0.5 23.5v56q0 11 -0.5 23.5t2.5 23.5q8 11 19 10q12 -4 13 -15
q2 -8 1.5 -17t-0.5 -19h40q0 10 -0.5 21.5t-2.5 22.5t-7.5 20.5t-15.5 15.5q-11 7 -26 7.5t-28 -3.5q-17 -5 -24.5 -19t-10.5 -30q-1 -9 -1 -18.5v-18.5v-64zM1722 176l-44 -239h40l9 56h26l8 -56h40l-42 239h-37zM1636 61l-20 22l-12 12t-9 16q-2 4 -2 9.5t1.5 10.5t5 8
t9.5 3q6 -1 9.5 -6.5t4.5 -12.5t1.5 -14.5t0.5 -12.5l37 2q0 22 -5 44.5t-26 31.5q-13 6 -26 5t-23.5 -7t-17.5 -16.5t-8 -24.5q-2 -14 0.5 -29t10.5 -26q3 -7 9 -12t11 -11q11 -14 24.5 -27.5t13.5 -33.5q0 -7 -1.5 -13t-8.5 -7q-5 -2 -9 0.5t-6 7.5q-5 10 -6 21l-2 22
l-37 -3q0 -15 1.5 -29t7.5 -28q8 -17 24.5 -24.5t33.5 -3.5q19 3 29.5 17t12.5 30q4 45 -28 79zM1899 176h-104v-38h32v-201h40v201h32v38zM1733 29l7 47l7 -47h-14zM1223 33h52v44h-52v-44zM862 176h-40v-239h88v35h-48v204zM915 25v-18.5t1 -18.5q3 -16 10.5 -30t24.5 -19
q13 -4 28 -3.5t26 7.5q10 6 15.5 15.5t7.5 20.5t2.5 22.5t0.5 21.5v68q0 10 -0.5 21.5t-2.5 22.5t-7.5 20.5t-15.5 15.5q-11 7 -26 7.5t-28 -3.5q-17 -5 -24.5 -19t-10.5 -30q-1 -9 -1 -18.5v-18.5v-64zM991 91v-68q0 -10 0.5 -19t-1.5 -17q-1 -11 -13 -15q-11 -1 -19 10
q-3 11 -2.5 23.5t0.5 23.5v56q0 11 -0.5 23.5t2.5 23.5q8 11 19 10q12 -4 13 -15q2 -8 1.5 -17t-0.5 -19zM1140 166h-30l-21 -139l-14 149h-40l30 -239h40l20 114l20 -114h40l30 239h-40l-14 -149z" />
    <glyph glyph-name="four" unicode="4" horiz-adv-x="1978" 
d="M193 176l-28 -150l-27 150h-39l-3 -239h36l1 97l19 -97h28l19 98l2 -98h35l-2 239h-41zM1040 642q-49 0 -57 48q-2 10 -2 20v21q0 23 -1 48t5 47q5 19 19.5 27.5t32.5 9.5t34.5 -6t22.5 -26q8 -20 7.5 -46t-0.5 -48q0 -14 -0.5 -26.5t-3.5 -24.5q-9 -44 -57 -44zM984 394
q-49 0 -58 46q-2 11 -1.5 22t0.5 23q0 21 -1 46t4 46q5 20 19 28.5t33 8.5q20 1 35.5 -6t22.5 -25q8 -22 6 -47t-2 -47q0 -14 0.5 -26t-2.5 -25q-4 -22 -18.5 -33t-37.5 -11zM639 26h24v-15.5t-1.5 -20t-7 -16t-15.5 -2.5q-6 2 -9 8.5t-4 14t-0.5 15.5t0.5 13v57
q0 11 -0.5 25.5t2.5 26.5q8 11 19 10q12 -4 13 -15q2 -8 1.5 -17t-0.5 -19h40q0 10 -0.5 21.5t-2.5 22.5t-7.5 20.5t-15.5 15.5q-11 7 -26 7.5t-28 -3.5q-17 -5 -24.5 -19t-10.5 -30q-2 -17 -1.5 -34.5t0.5 -34.5t-0.5 -33t1.5 -33q2 -14 7.5 -28.5t17.5 -21.5
q12 -8 29.5 -8t28.5 11l1 -7h32v124h-63v-35zM719 644v218q20 0 43.5 0.5t41.5 -9.5q12 -7 18 -22t6 -30.5t-6.5 -29t-19.5 -18.5l29 -109h-29l-29 103h-23v-103h-31zM539 61l-20 22l-12 12t-9 16q-2 4 -2 9.5t1.5 10.5t5 8t9.5 3q6 -1 9.5 -6.5t4.5 -12.5t1.5 -14.5
t0.5 -12.5l37 2q0 22 -5 44.5t-26 31.5q-13 6 -26 5t-23.5 -7t-17.5 -16.5t-8 -24.5q-2 -14 0.5 -29t10.5 -26q3 -7 9 -12t11 -11q11 -14 24.5 -27.5t13.5 -33.5q0 -7 -1.5 -13t-8.5 -7q-5 -2 -9 0.5t-6 7.5q-5 10 -6 21l-2 22l-37 -3q0 -15 1.5 -29t7.5 -28
q8 -17 24.5 -24.5t33.5 -3.5q19 3 29.5 17t12.5 30q4 45 -28 79zM481 644v218h46q17 0 31.5 -3.5t22.5 -20.5q10 -19 8.5 -43.5t-18.5 -38.5q-12 -10 -29 -10h-31v-102h-30zM1073 396v217h20l62 -145v145h27v-217h-21l-63 148v-148h-25zM1131 644v218h20l61 -145v145h26
v-218h-20l-63 148v-148h-24zM564 397q-10 -4 -21 -4t-21.5 3.5t-19 10.5t-12.5 19q-5 11 -6 24t-1 28v135h29v-145q0 -12 2 -27.5t16 -23.5q12 -4 19.5 -0.5t12 11t6.5 17.5t2 19q1 18 0.5 35t-0.5 35v79h30v-100q0 -14 0.5 -31.5t-2 -34.5t-10 -30.5t-24.5 -19.5zM1260 644
l46 218h29l46 -218h-28l-11 54h-44l-10 -54h-28zM682 394q-28 0 -42 18t-15 45l28 7q1 -10 2.5 -20.5t8.5 -17.5q7 -8 17 -9t18 6q9 8 8 21t-7 21q-5 6 -10.5 12.5t-13.5 11.5q-10 10 -22.5 20t-19.5 22q-7 10 -8.5 23t1.5 25t11 21t20 13q12 3 27 2t26 -9t14.5 -21t4.5 -26
l-24 -8q-1 12 -5.5 25t-18.5 16q-10 2 -18 -3.5t-10 -16.5q-5 -17 8.5 -29.5t25.5 -22.5q14 -13 27 -26.5t17 -33.5q6 -25 -8 -45.5t-42 -20.5zM909 642q-27 0 -42 18t-16 44l28 8q1 -11 3 -21.5t9 -17.5t17.5 -8t17.5 6q8 8 7.5 20.5t-6.5 22.5q-4 6 -10 11.5t-14 12.5
q-10 9 -22 19t-19 21t-9 24t1 25t10.5 21.5t20.5 12.5q12 3 27 2t25 -9q11 -8 15 -21t5 -26l-24 -7q-1 11 -5.5 24t-18.5 17q-10 1 -18.5 -4.5t-10.5 -14.5q-3 -19 10 -32t26 -22q14 -13 26.5 -26.5t17.5 -31.5q5 -27 -9 -47.5t-42 -20.5zM710 -93h34l68 299h-38zM611 644
v218h83v-23h-54v-71h44v-22h-44v-81h55v-21h-84zM758 396v217h84v-23h-54v-71h44v-22h-44v-81h54v-20h-84zM1028 667q13 -5 27 0q9 5 11.5 12.5t3.5 15.5v25v76q0 9 -0.5 19t-8.5 17q-10 12 -26 7q-16 -1 -21 -19q-5 -15 -3 -34t2 -35v-40q0 -11 1 -24.5t14 -19.5zM969 419
q6 -3 14.5 -3t13.5 3q8 5 11.5 13t4.5 16q1 5 0.5 11.5t-0.5 11.5v77q0 9 -0.5 19t-8.5 17q-5 6 -12.5 8t-14.5 0q-15 -4 -21 -21q-3 -15 -2 -33.5t1 -35.5v-39q0 -11 1.5 -24t12.5 -20zM1354 396v45q0 8 1 16.5t-1 15.5q-4 22 -15 42l-31 98h28l33 -104l31 104h30
q-14 -45 -30 -90l-14 -45q-3 -8 -2.5 -15t0.5 -13v-54h-30zM1404 644v218h30v-197h56v-21h-86zM1215 396v217h30v-197h55v-20h-85zM604 -237q-13 0 -19.5 6t-9 15t-2.5 20v20t0.5 19t3.5 17.5t10 12t20 3.5q11 -1 17 -6.5t8.5 -14t2.5 -18v-18.5t-0.5 -18.5t-3 -18t-9 -14
t-18.5 -5.5zM1381 -235v110q11 0 24.5 0.5t23.5 -7.5t9.5 -23t-0.5 -26v-26.5t-12 -22.5q-9 -7 -22 -6t-23 1zM1446 -375q-13 0 -19.5 6t-9 15t-2.5 19.5v19.5q0 10 0.5 20t4 17.5t10.5 12t20 3.5q12 -1 17 -6.5t7 -14t1.5 -18t-0.5 -18.5v-18.5t-2.5 -18t-8.5 -14t-18 -5.5
zM510 -375q-14 0 -20.5 6t-8.5 15t-2 19.5v19.5q0 10 0.5 20t3.5 17.5t10 12t20 3.5q12 -1 17.5 -6.5t8 -14t2.5 -18v-18.5v-18.5t-3 -18t-9.5 -14t-18.5 -5.5zM791 -374v111q11 0 22.5 1t20.5 -4q6 -4 9.5 -11.5t3.5 -15.5t-3.5 -15t-10.5 -10l16 -56h-15l-13 53h-12v-53
h-18zM555 -374l2 111h16l20 -89l19 89h14l2 -111h-12l-1 82l-18 -82h-11l-17 82l-1 -82h-13zM645 -374l2 111h16l19 -89l20 89h16l1 -111h-11l-2 82l-19 -82h-10l-17 82l-2 -82h-13zM1247 -374v111q11 0 22 1t21 -4q6 -4 9.5 -11.5t3.5 -15.5t-3 -15t-10 -10l14 -56h-14
l-14 53h-13v-53h-16zM650 -235v110q10 0 21 1t20 -4q6 -3 10 -11t4.5 -16.5t-3 -15.5t-11.5 -10l16 -54h-15l-16 51h-11v-51h-15zM661 231v112q6 0 13 0.5t14.5 -0.5t14 -3t10.5 -8q4 -10 3 -23t-9 -20q-7 -5 -15 -5.5t-16 -0.5v-52h-15zM1308 -235v110h10l32 -73v73h12
v-110h-9l-32 74v-74h-13zM808 -235v110h14v-48h29v48h16v-110h-16v51h-29v-51h-14zM1493 -374v111h10l32 -74v74h12v-111h-10l-32 76v-76h-12zM831 231l24 112h15l24 -112h-16l-5 29h-23l-5 -29h-14zM962 -374l24 111h15l24 -111h-14l-5 29h-24l-5 -29h-15zM1236 -235
l21 110h17l23 -110h-15l-5 27h-23l-6 -27h-12zM1455 443l-8 170h28l-9 -170h-11zM1067 -235q-16 -5 -27.5 2t-14.5 23q-2 7 -1 13.5t1 12.5v59h14v-49q0 -5 -0.5 -13.5t0.5 -17t4 -15t10 -6.5q8 0 11.5 6.5t5 15t1 17t-0.5 13.5v49h13v-50q0 -7 0.5 -16t-0.5 -18t-4.5 -16
t-11.5 -10zM511 768q8 0 15.5 -0.5t16.5 1.5q11 3 14 11.5t3 19.5q1 12 -1.5 23t-15.5 15q-9 2 -16.5 1.5t-15.5 -0.5v-71zM750 768h15t16 2q10 5 13.5 15t1.5 21q0 10 -2.5 18t-12.5 12q-8 4 -16 3.5t-15 -0.5v-71zM438 -375q-14 0 -20.5 8t-8.5 20t-1.5 25.5t0.5 23.5
q0 15 7.5 26.5t26.5 9.5q17 -2 20.5 -14t3.5 -25h-14v10t-2 10q-2 8 -10.5 8.5t-12.5 -6.5q-5 -6 -3.5 -19t1.5 -21q0 -7 -1.5 -19t4.5 -19q3 -7 11.5 -6t10.5 9q2 5 2 10.5v10.5h14q0 -14 -4 -28t-24 -14zM891 -375q-15 0 -21 8t-7.5 20t-0.5 25.5t1 23.5q0 15 7 26.5
t25 9.5t21.5 -14t3.5 -25h-16q0 5 0.5 10t-1.5 10q-2 8 -10 8.5t-13 -6.5q-5 -6 -4 -19t1 -21q0 -7 -1 -19t5 -19q4 -7 12 -6t10 9q2 5 1.5 10.5t-0.5 10.5h16q0 -14 -4.5 -28t-24.5 -14zM1186 230q-15 0 -21.5 9t-7.5 23l15 5q0 -6 2 -13.5t8 -10.5q7 -2 11.5 2t4.5 11
q1 11 -8.5 19.5t-17.5 16.5q-11 8 -15 22t8 25q15 8 31 3q8 -3 11 -11t4 -16l-13 -3q-1 5 -2.5 10.5t-6.5 10.5q-4 2 -9.5 0t-6.5 -9q-5 -8 2.5 -15.5l12.5 -12.5q7 -6 14 -12.5t9 -17.5q4 -14 -3 -25t-22 -11zM931 230q-14 0 -21.5 9t-8.5 23l15 5q0 -6 2 -13.5t7 -10.5
q8 -2 13 2t5 11q0 11 -10 19.5t-17 16.5q-11 8 -14.5 22t8.5 25q7 4 15.5 4.5t14.5 -1.5q8 -3 11.5 -11t4.5 -16l-13 -3q-1 5 -2.5 10.5t-6.5 10.5q-5 2 -10 0t-7 -9q-3 -8 3.5 -15.5t11.5 -12.5q8 -6 15 -12.5t9 -17.5q4 -14 -3.5 -25t-21.5 -11zM1346 -375q-15 0 -22 10
t-9 23l15 3q0 -5 2 -12t7 -9q8 -5 13 -0.5t5 10.5q0 11 -10 20t-17 15q-10 10 -14 24.5t9 23.5q6 5 15 5.5t15 -2.5q8 -2 11 -10t4 -15l-13 -5q-1 5 -2 11t-6 10q-6 2 -11 0t-7 -8q-4 -8 3 -15t13 -12q7 -8 14 -14.5t9 -17.5q4 -13 -3 -24t-21 -11zM1076 231l-25 112h16
l16 -82l18 82h12l-23 -112h-14zM1142 -374l-25 111h14l18 -81l15 81h16l-26 -111h-12zM969 231v112h44v-10h-28v-38h23v-11h-23v-42h29v-11h-45zM884 -235v110h43v-11h-27v-37h23v-11h-23v-42h27v-9h-43zM1191 -374v111h45v-10h-29v-36h23v-12h-23v-42h29v-11h-45zM736 -374
v111h44v-10h-28v-36h23v-12h-23v-42h28v-11h-44zM781 231v112h43v-10h-29v-38h24v-11h-24v-42h29v-11h-43zM597 -224q9 -4 13.5 -0.5t6 10.5t1.5 15v14q0 4 0.5 11t0.5 14.5t-1.5 14t-5.5 8.5q-11 6 -17.5 -1.5t-6.5 -16.5v-18q0 -4 -0.5 -11.5t0 -16t2.5 -15t7 -8.5z
M1439 -359q9 -5 14 -2.5t7 9.5t2 15v14q0 4 0.5 11t-0.5 14.5t-3 13.5t-6 8q-11 7 -15.5 -0.5t-4.5 -15.5v-17q0 -4 -1 -12t-1 -16t1.5 -14.5t6.5 -7.5zM502 -359q9 -5 13.5 -2.5t6.5 9.5t2 15v14q0 4 0.5 11t0.5 14.5t-1.5 13.5t-5.5 8q-12 7 -17.5 -0.5t-5.5 -15.5
q-1 -5 -0.5 -9t0.5 -8t-0.5 -12t-0.5 -16t1.5 -14.5t6.5 -7.5zM521 -235v110h43v-11h-26v-37h21v-11h-21v-51h-17zM973 -235v110h42v-11h-29v-37h22v-11h-22v-51h-13zM1396 -226q10 0 17 2t9 14v29v29q-1 12 -8 14t-18 2v-90zM764 -235v99h-20v11h56v-11h-20v-99h-16z
M1272 231v102h-21v10h54v-10h-19v-102h-14zM1037 -374v111h14v-100h29v-11h-43zM1101 -235v110h15v-101h28v-9h-43zM1154 -235v110h16v-101h28v-9h-44zM727 231v112h14v-101h29v-11h-43zM1127 231v112h15v-112h-15zM1302 720h37l-19 99zM401 -63h40v44h-40v-44zM935 -374
v111h16v-111h-16zM1385 -374v111h14v-111h-14zM1225 231v112h16v-112h-16zM1447 396v31h28v-31h-28zM676 294h8t9 2q6 2 7 8t1 12q-1 14 -7.5 15.5t-17.5 1.5v-39zM665 -173q10 0 17.5 3t7.5 16t-7 15.5t-18 2.5v-37zM1263 -309q11 0 18 2.5t7 15.5q0 11 -7 14.5t-18 3.5
v-36zM809 -309q10 0 16.5 2.5t6.5 15.5q0 11 -6.5 14.5t-16.5 3.5v-36zM984 -335h19l-9 51zM1256 -196h20l-10 50zM851 271h20l-8 51zM338 61l-41 115h-31v-239h37v117l42 -117h30v239h-37v-115zM1465 176l-44 -239h40l9 56h26l8 -56h40l-42 239h-37zM1476 29l7 47l7 -47
h-14zM1296 25v-18.5t1 -18.5q3 -16 10.5 -30t24.5 -19q13 -4 28 -3.5t26 7.5q10 6 15.5 15.5t7.5 20.5t2.5 22.5t0.5 21.5h-40q0 -10 0.5 -19t-1.5 -17q-1 -11 -13 -15q-11 -1 -19 10q-3 11 -2.5 23.5t0.5 23.5v56q0 11 -0.5 23.5t2.5 23.5q8 11 19 10q12 -4 13 -15
q2 -8 1.5 -17t-0.5 -19h40q0 10 -0.5 21.5t-2.5 22.5t-7.5 20.5t-15.5 15.5q-11 7 -26 7.5t-28 -3.5q-17 -5 -24.5 -19t-10.5 -30q-1 -9 -1 -18.5v-18.5v-64zM1722 176l-44 -239h40l9 56h26l8 -56h40l-42 239h-37zM1636 61l-20 22l-12 12t-9 16q-2 4 -2 9.5t1.5 10.5t5 8
t9.5 3q6 -1 9.5 -6.5t4.5 -12.5t1.5 -14.5t0.5 -12.5l37 2q0 22 -5 44.5t-26 31.5q-13 6 -26 5t-23.5 -7t-17.5 -16.5t-8 -24.5q-2 -14 0.5 -29t10.5 -26q3 -7 9 -12t11 -11q11 -14 24.5 -27.5t13.5 -33.5q0 -7 -1.5 -13t-8.5 -7q-5 -2 -9 0.5t-6 7.5q-5 10 -6 21l-2 22
l-37 -3q0 -15 1.5 -29t7.5 -28q8 -17 24.5 -24.5t33.5 -3.5q19 3 29.5 17t12.5 30q4 45 -28 79zM1899 176h-104v-38h32v-201h40v201h32v38zM1733 29l7 47l7 -47h-14zM1223 33h52v44h-52v-44zM862 176h-40v-239h88v35h-48v204zM915 25v-18.5t1 -18.5q3 -16 10.5 -30t24.5 -19
q13 -4 28 -3.5t26 7.5q10 6 15.5 15.5t7.5 20.5t2.5 22.5t0.5 21.5v68q0 10 -0.5 21.5t-2.5 22.5t-7.5 20.5t-15.5 15.5q-11 7 -26 7.5t-28 -3.5q-17 -5 -24.5 -19t-10.5 -30q-1 -9 -1 -18.5v-18.5v-64zM991 91v-68q0 -10 0.5 -19t-1.5 -17q-1 -11 -13 -15q-11 -1 -19 10
q-3 11 -2.5 23.5t0.5 23.5v56q0 11 -0.5 23.5t2.5 23.5q8 11 19 10q12 -4 13 -15q2 -8 1.5 -17t-0.5 -19zM1140 166h-30l-21 -139l-14 149h-40l30 -239h40l20 114l20 -114h40l30 239h-40l-14 -149z" />
    <glyph glyph-name="five" unicode="5" horiz-adv-x="1978" 
d="M193 176l-28 -150l-27 150h-39l-3 -239h36l1 97l19 -97h28l19 98l2 -98h35l-2 239h-41zM1040 642q-49 0 -57 48q-2 10 -2 20v21q0 23 -1 48t5 47q5 19 19.5 27.5t32.5 9.5t34.5 -6t22.5 -26q8 -20 7.5 -46t-0.5 -48q0 -14 -0.5 -26.5t-3.5 -24.5q-9 -44 -57 -44zM984 394
q-49 0 -58 46q-2 11 -1.5 22t0.5 23q0 21 -1 46t4 46q5 20 19 28.5t33 8.5q20 1 35.5 -6t22.5 -25q8 -22 6 -47t-2 -47q0 -14 0.5 -26t-2.5 -25q-4 -22 -18.5 -33t-37.5 -11zM639 26h24v-15.5t-1.5 -20t-7 -16t-15.5 -2.5q-6 2 -9 8.5t-4 14t-0.5 15.5t0.5 13v57
q0 11 -0.5 25.5t2.5 26.5q8 11 19 10q12 -4 13 -15q2 -8 1.5 -17t-0.5 -19h40q0 10 -0.5 21.5t-2.5 22.5t-7.5 20.5t-15.5 15.5q-11 7 -26 7.5t-28 -3.5q-17 -5 -24.5 -19t-10.5 -30q-2 -17 -1.5 -34.5t0.5 -34.5t-0.5 -33t1.5 -33q2 -14 7.5 -28.5t17.5 -21.5
q12 -8 29.5 -8t28.5 11l1 -7h32v124h-63v-35zM719 644v218q20 0 43.5 0.5t41.5 -9.5q12 -7 18 -22t6 -30.5t-6.5 -29t-19.5 -18.5l29 -109h-29l-29 103h-23v-103h-31zM539 61l-20 22l-12 12t-9 16q-2 4 -2 9.5t1.5 10.5t5 8t9.5 3q6 -1 9.5 -6.5t4.5 -12.5t1.5 -14.5
t0.5 -12.5l37 2q0 22 -5 44.5t-26 31.5q-13 6 -26 5t-23.5 -7t-17.5 -16.5t-8 -24.5q-2 -14 0.5 -29t10.5 -26q3 -7 9 -12t11 -11q11 -14 24.5 -27.5t13.5 -33.5q0 -7 -1.5 -13t-8.5 -7q-5 -2 -9 0.5t-6 7.5q-5 10 -6 21l-2 22l-37 -3q0 -15 1.5 -29t7.5 -28
q8 -17 24.5 -24.5t33.5 -3.5q19 3 29.5 17t12.5 30q4 45 -28 79zM481 644v218h46q17 0 31.5 -3.5t22.5 -20.5q10 -19 8.5 -43.5t-18.5 -38.5q-12 -10 -29 -10h-31v-102h-30zM1073 396v217h20l62 -145v145h27v-217h-21l-63 148v-148h-25zM1131 644v218h20l61 -145v145h26
v-218h-20l-63 148v-148h-24zM564 397q-10 -4 -21 -4t-21.5 3.5t-19 10.5t-12.5 19q-5 11 -6 24t-1 28v135h29v-145q0 -12 2 -27.5t16 -23.5q12 -4 19.5 -0.5t12 11t6.5 17.5t2 19q1 18 0.5 35t-0.5 35v79h30v-100q0 -14 0.5 -31.5t-2 -34.5t-10 -30.5t-24.5 -19.5zM1260 644
l46 218h29l46 -218h-28l-11 54h-44l-10 -54h-28zM682 394q-28 0 -42 18t-15 45l28 7q1 -10 2.5 -20.5t8.5 -17.5q7 -8 17 -9t18 6q9 8 8 21t-7 21q-5 6 -10.5 12.5t-13.5 11.5q-10 10 -22.5 20t-19.5 22q-7 10 -8.5 23t1.5 25t11 21t20 13q12 3 27 2t26 -9t14.5 -21t4.5 -26
l-24 -8q-1 12 -5.5 25t-18.5 16q-10 2 -18 -3.5t-10 -16.5q-5 -17 8.5 -29.5t25.5 -22.5q14 -13 27 -26.5t17 -33.5q6 -25 -8 -45.5t-42 -20.5zM909 642q-27 0 -42 18t-16 44l28 8q1 -11 3 -21.5t9 -17.5t17.5 -8t17.5 6q8 8 7.5 20.5t-6.5 22.5q-4 6 -10 11.5t-14 12.5
q-10 9 -22 19t-19 21t-9 24t1 25t10.5 21.5t20.5 12.5q12 3 27 2t25 -9q11 -8 15 -21t5 -26l-24 -7q-1 11 -5.5 24t-18.5 17q-10 1 -18.5 -4.5t-10.5 -14.5q-3 -19 10 -32t26 -22q14 -13 26.5 -26.5t17.5 -31.5q5 -27 -9 -47.5t-42 -20.5zM710 -93h34l68 299h-38zM611 644
v218h83v-23h-54v-71h44v-22h-44v-81h55v-21h-84zM758 396v217h84v-23h-54v-71h44v-22h-44v-81h54v-20h-84zM1028 667q13 -5 27 0q9 5 11.5 12.5t3.5 15.5v25v76q0 9 -0.5 19t-8.5 17q-10 12 -26 7q-16 -1 -21 -19q-5 -15 -3 -34t2 -35v-40q0 -11 1 -24.5t14 -19.5zM969 419
q6 -3 14.5 -3t13.5 3q8 5 11.5 13t4.5 16q1 5 0.5 11.5t-0.5 11.5v77q0 9 -0.5 19t-8.5 17q-5 6 -12.5 8t-14.5 0q-15 -4 -21 -21q-3 -15 -2 -33.5t1 -35.5v-39q0 -11 1.5 -24t12.5 -20zM1354 396v45q0 8 1 16.5t-1 15.5q-4 22 -15 42l-31 98h28l33 -104l31 104h30
q-14 -45 -30 -90l-14 -45q-3 -8 -2.5 -15t0.5 -13v-54h-30zM1404 644v218h30v-197h56v-21h-86zM1215 396v217h30v-197h55v-20h-85zM604 -237q-13 0 -19.5 6t-9 15t-2.5 20v20t0.5 19t3.5 17.5t10 12t20 3.5q11 -1 17 -6.5t8.5 -14t2.5 -18v-18.5t-0.5 -18.5t-3 -18t-9 -14
t-18.5 -5.5zM1381 -235v110q11 0 24.5 0.5t23.5 -7.5t9.5 -23t-0.5 -26v-26.5t-12 -22.5q-9 -7 -22 -6t-23 1zM1446 -375q-13 0 -19.5 6t-9 15t-2.5 19.5v19.5q0 10 0.5 20t4 17.5t10.5 12t20 3.5q12 -1 17 -6.5t7 -14t1.5 -18t-0.5 -18.5v-18.5t-2.5 -18t-8.5 -14t-18 -5.5
zM510 -375q-14 0 -20.5 6t-8.5 15t-2 19.5v19.5q0 10 0.5 20t3.5 17.5t10 12t20 3.5q12 -1 17.5 -6.5t8 -14t2.5 -18v-18.5v-18.5t-3 -18t-9.5 -14t-18.5 -5.5zM791 -374v111q11 0 22.5 1t20.5 -4q6 -4 9.5 -11.5t3.5 -15.5t-3.5 -15t-10.5 -10l16 -56h-15l-13 53h-12v-53
h-18zM555 -374l2 111h16l20 -89l19 89h14l2 -111h-12l-1 82l-18 -82h-11l-17 82l-1 -82h-13zM645 -374l2 111h16l19 -89l20 89h16l1 -111h-11l-2 82l-19 -82h-10l-17 82l-2 -82h-13zM1247 -374v111q11 0 22 1t21 -4q6 -4 9.5 -11.5t3.5 -15.5t-3 -15t-10 -10l14 -56h-14
l-14 53h-13v-53h-16zM650 -235v110q10 0 21 1t20 -4q6 -3 10 -11t4.5 -16.5t-3 -15.5t-11.5 -10l16 -54h-15l-16 51h-11v-51h-15zM661 231v112q6 0 13 0.5t14.5 -0.5t14 -3t10.5 -8q4 -10 3 -23t-9 -20q-7 -5 -15 -5.5t-16 -0.5v-52h-15zM1308 -235v110h10l32 -73v73h12
v-110h-9l-32 74v-74h-13zM808 -235v110h14v-48h29v48h16v-110h-16v51h-29v-51h-14zM1493 -374v111h10l32 -74v74h12v-111h-10l-32 76v-76h-12zM831 231l24 112h15l24 -112h-16l-5 29h-23l-5 -29h-14zM962 -374l24 111h15l24 -111h-14l-5 29h-24l-5 -29h-15zM1236 -235
l21 110h17l23 -110h-15l-5 27h-23l-6 -27h-12zM1455 443l-8 170h28l-9 -170h-11zM1067 -235q-16 -5 -27.5 2t-14.5 23q-2 7 -1 13.5t1 12.5v59h14v-49q0 -5 -0.5 -13.5t0.5 -17t4 -15t10 -6.5q8 0 11.5 6.5t5 15t1 17t-0.5 13.5v49h13v-50q0 -7 0.5 -16t-0.5 -18t-4.5 -16
t-11.5 -10zM511 768q8 0 15.5 -0.5t16.5 1.5q11 3 14 11.5t3 19.5q1 12 -1.5 23t-15.5 15q-9 2 -16.5 1.5t-15.5 -0.5v-71zM750 768h15t16 2q10 5 13.5 15t1.5 21q0 10 -2.5 18t-12.5 12q-8 4 -16 3.5t-15 -0.5v-71zM438 -375q-14 0 -20.5 8t-8.5 20t-1.5 25.5t0.5 23.5
q0 15 7.5 26.5t26.5 9.5q17 -2 20.5 -14t3.5 -25h-14v10t-2 10q-2 8 -10.5 8.5t-12.5 -6.5q-5 -6 -3.5 -19t1.5 -21q0 -7 -1.5 -19t4.5 -19q3 -7 11.5 -6t10.5 9q2 5 2 10.5v10.5h14q0 -14 -4 -28t-24 -14zM891 -375q-15 0 -21 8t-7.5 20t-0.5 25.5t1 23.5q0 15 7 26.5
t25 9.5t21.5 -14t3.5 -25h-16q0 5 0.5 10t-1.5 10q-2 8 -10 8.5t-13 -6.5q-5 -6 -4 -19t1 -21q0 -7 -1 -19t5 -19q4 -7 12 -6t10 9q2 5 1.5 10.5t-0.5 10.5h16q0 -14 -4.5 -28t-24.5 -14zM1186 230q-15 0 -21.5 9t-7.5 23l15 5q0 -6 2 -13.5t8 -10.5q7 -2 11.5 2t4.5 11
q1 11 -8.5 19.5t-17.5 16.5q-11 8 -15 22t8 25q15 8 31 3q8 -3 11 -11t4 -16l-13 -3q-1 5 -2.5 10.5t-6.5 10.5q-4 2 -9.5 0t-6.5 -9q-5 -8 2.5 -15.5l12.5 -12.5q7 -6 14 -12.5t9 -17.5q4 -14 -3 -25t-22 -11zM931 230q-14 0 -21.5 9t-8.5 23l15 5q0 -6 2 -13.5t7 -10.5
q8 -2 13 2t5 11q0 11 -10 19.5t-17 16.5q-11 8 -14.5 22t8.5 25q7 4 15.5 4.5t14.5 -1.5q8 -3 11.5 -11t4.5 -16l-13 -3q-1 5 -2.5 10.5t-6.5 10.5q-5 2 -10 0t-7 -9q-3 -8 3.5 -15.5t11.5 -12.5q8 -6 15 -12.5t9 -17.5q4 -14 -3.5 -25t-21.5 -11zM1346 -375q-15 0 -22 10
t-9 23l15 3q0 -5 2 -12t7 -9q8 -5 13 -0.5t5 10.5q0 11 -10 20t-17 15q-10 10 -14 24.5t9 23.5q6 5 15 5.5t15 -2.5q8 -2 11 -10t4 -15l-13 -5q-1 5 -2 11t-6 10q-6 2 -11 0t-7 -8q-4 -8 3 -15t13 -12q7 -8 14 -14.5t9 -17.5q4 -13 -3 -24t-21 -11zM1076 231l-25 112h16
l16 -82l18 82h12l-23 -112h-14zM1142 -374l-25 111h14l18 -81l15 81h16l-26 -111h-12zM969 231v112h44v-10h-28v-38h23v-11h-23v-42h29v-11h-45zM884 -235v110h43v-11h-27v-37h23v-11h-23v-42h27v-9h-43zM1191 -374v111h45v-10h-29v-36h23v-12h-23v-42h29v-11h-45zM736 -374
v111h44v-10h-28v-36h23v-12h-23v-42h28v-11h-44zM781 231v112h43v-10h-29v-38h24v-11h-24v-42h29v-11h-43zM597 -224q9 -4 13.5 -0.5t6 10.5t1.5 15v14q0 4 0.5 11t0.5 14.5t-1.5 14t-5.5 8.5q-11 6 -17.5 -1.5t-6.5 -16.5v-18q0 -4 -0.5 -11.5t0 -16t2.5 -15t7 -8.5z
M1439 -359q9 -5 14 -2.5t7 9.5t2 15v14q0 4 0.5 11t-0.5 14.5t-3 13.5t-6 8q-11 7 -15.5 -0.5t-4.5 -15.5v-17q0 -4 -1 -12t-1 -16t1.5 -14.5t6.5 -7.5zM502 -359q9 -5 13.5 -2.5t6.5 9.5t2 15v14q0 4 0.5 11t0.5 14.5t-1.5 13.5t-5.5 8q-12 7 -17.5 -0.5t-5.5 -15.5
q-1 -5 -0.5 -9t0.5 -8t-0.5 -12t-0.5 -16t1.5 -14.5t6.5 -7.5zM521 -235v110h43v-11h-26v-37h21v-11h-21v-51h-17zM973 -235v110h42v-11h-29v-37h22v-11h-22v-51h-13zM1396 -226q10 0 17 2t9 14v29v29q-1 12 -8 14t-18 2v-90zM764 -235v99h-20v11h56v-11h-20v-99h-16z
M1272 231v102h-21v10h54v-10h-19v-102h-14zM1037 -374v111h14v-100h29v-11h-43zM1101 -235v110h15v-101h28v-9h-43zM1154 -235v110h16v-101h28v-9h-44zM727 231v112h14v-101h29v-11h-43zM1127 231v112h15v-112h-15zM1302 720h37l-19 99zM401 -63h40v44h-40v-44zM935 -374
v111h16v-111h-16zM1385 -374v111h14v-111h-14zM1225 231v112h16v-112h-16zM1447 396v31h28v-31h-28zM676 294h8t9 2q6 2 7 8t1 12q-1 14 -7.5 15.5t-17.5 1.5v-39zM665 -173q10 0 17.5 3t7.5 16t-7 15.5t-18 2.5v-37zM1263 -309q11 0 18 2.5t7 15.5q0 11 -7 14.5t-18 3.5
v-36zM809 -309q10 0 16.5 2.5t6.5 15.5q0 11 -6.5 14.5t-16.5 3.5v-36zM984 -335h19l-9 51zM1256 -196h20l-10 50zM851 271h20l-8 51zM338 61l-41 115h-31v-239h37v117l42 -117h30v239h-37v-115zM1465 176l-44 -239h40l9 56h26l8 -56h40l-42 239h-37zM1476 29l7 47l7 -47
h-14zM1296 25v-18.5t1 -18.5q3 -16 10.5 -30t24.5 -19q13 -4 28 -3.5t26 7.5q10 6 15.5 15.5t7.5 20.5t2.5 22.5t0.5 21.5h-40q0 -10 0.5 -19t-1.5 -17q-1 -11 -13 -15q-11 -1 -19 10q-3 11 -2.5 23.5t0.5 23.5v56q0 11 -0.5 23.5t2.5 23.5q8 11 19 10q12 -4 13 -15
q2 -8 1.5 -17t-0.5 -19h40q0 10 -0.5 21.5t-2.5 22.5t-7.5 20.5t-15.5 15.5q-11 7 -26 7.5t-28 -3.5q-17 -5 -24.5 -19t-10.5 -30q-1 -9 -1 -18.5v-18.5v-64zM1722 176l-44 -239h40l9 56h26l8 -56h40l-42 239h-37zM1636 61l-20 22l-12 12t-9 16q-2 4 -2 9.5t1.5 10.5t5 8
t9.5 3q6 -1 9.5 -6.5t4.5 -12.5t1.5 -14.5t0.5 -12.5l37 2q0 22 -5 44.5t-26 31.5q-13 6 -26 5t-23.5 -7t-17.5 -16.5t-8 -24.5q-2 -14 0.5 -29t10.5 -26q3 -7 9 -12t11 -11q11 -14 24.5 -27.5t13.5 -33.5q0 -7 -1.5 -13t-8.5 -7q-5 -2 -9 0.5t-6 7.5q-5 10 -6 21l-2 22
l-37 -3q0 -15 1.5 -29t7.5 -28q8 -17 24.5 -24.5t33.5 -3.5q19 3 29.5 17t12.5 30q4 45 -28 79zM1899 176h-104v-38h32v-201h40v201h32v38zM1733 29l7 47l7 -47h-14zM1223 33h52v44h-52v-44zM862 176h-40v-239h88v35h-48v204zM915 25v-18.5t1 -18.5q3 -16 10.5 -30t24.5 -19
q13 -4 28 -3.5t26 7.5q10 6 15.5 15.5t7.5 20.5t2.5 22.5t0.5 21.5v68q0 10 -0.5 21.5t-2.5 22.5t-7.5 20.5t-15.5 15.5q-11 7 -26 7.5t-28 -3.5q-17 -5 -24.5 -19t-10.5 -30q-1 -9 -1 -18.5v-18.5v-64zM991 91v-68q0 -10 0.5 -19t-1.5 -17q-1 -11 -13 -15q-11 -1 -19 10
q-3 11 -2.5 23.5t0.5 23.5v56q0 11 -0.5 23.5t2.5 23.5q8 11 19 10q12 -4 13 -15q2 -8 1.5 -17t-0.5 -19zM1140 166h-30l-21 -139l-14 149h-40l30 -239h40l20 114l20 -114h40l30 239h-40l-14 -149z" />
    <glyph glyph-name="six" unicode="6" horiz-adv-x="1978" 
d="M193 176l-28 -150l-27 150h-39l-3 -239h36l1 97l19 -97h28l19 98l2 -98h35l-2 239h-41zM1040 642q-49 0 -57 48q-2 10 -2 20v21q0 23 -1 48t5 47q5 19 19.5 27.5t32.5 9.5t34.5 -6t22.5 -26q8 -20 7.5 -46t-0.5 -48q0 -14 -0.5 -26.5t-3.5 -24.5q-9 -44 -57 -44zM984 394
q-49 0 -58 46q-2 11 -1.5 22t0.5 23q0 21 -1 46t4 46q5 20 19 28.5t33 8.5q20 1 35.5 -6t22.5 -25q8 -22 6 -47t-2 -47q0 -14 0.5 -26t-2.5 -25q-4 -22 -18.5 -33t-37.5 -11zM639 26h24v-15.5t-1.5 -20t-7 -16t-15.5 -2.5q-6 2 -9 8.5t-4 14t-0.5 15.5t0.5 13v57
q0 11 -0.5 25.5t2.5 26.5q8 11 19 10q12 -4 13 -15q2 -8 1.5 -17t-0.5 -19h40q0 10 -0.5 21.5t-2.5 22.5t-7.5 20.5t-15.5 15.5q-11 7 -26 7.5t-28 -3.5q-17 -5 -24.5 -19t-10.5 -30q-2 -17 -1.5 -34.5t0.5 -34.5t-0.5 -33t1.5 -33q2 -14 7.5 -28.5t17.5 -21.5
q12 -8 29.5 -8t28.5 11l1 -7h32v124h-63v-35zM719 644v218q20 0 43.5 0.5t41.5 -9.5q12 -7 18 -22t6 -30.5t-6.5 -29t-19.5 -18.5l29 -109h-29l-29 103h-23v-103h-31zM539 61l-20 22l-12 12t-9 16q-2 4 -2 9.5t1.5 10.5t5 8t9.5 3q6 -1 9.5 -6.5t4.5 -12.5t1.5 -14.5
t0.5 -12.5l37 2q0 22 -5 44.5t-26 31.5q-13 6 -26 5t-23.5 -7t-17.5 -16.5t-8 -24.5q-2 -14 0.5 -29t10.5 -26q3 -7 9 -12t11 -11q11 -14 24.5 -27.5t13.5 -33.5q0 -7 -1.5 -13t-8.5 -7q-5 -2 -9 0.5t-6 7.5q-5 10 -6 21l-2 22l-37 -3q0 -15 1.5 -29t7.5 -28
q8 -17 24.5 -24.5t33.5 -3.5q19 3 29.5 17t12.5 30q4 45 -28 79zM481 644v218h46q17 0 31.5 -3.5t22.5 -20.5q10 -19 8.5 -43.5t-18.5 -38.5q-12 -10 -29 -10h-31v-102h-30zM1073 396v217h20l62 -145v145h27v-217h-21l-63 148v-148h-25zM1131 644v218h20l61 -145v145h26
v-218h-20l-63 148v-148h-24zM564 397q-10 -4 -21 -4t-21.5 3.5t-19 10.5t-12.5 19q-5 11 -6 24t-1 28v135h29v-145q0 -12 2 -27.5t16 -23.5q12 -4 19.5 -0.5t12 11t6.5 17.5t2 19q1 18 0.5 35t-0.5 35v79h30v-100q0 -14 0.5 -31.5t-2 -34.5t-10 -30.5t-24.5 -19.5zM1260 644
l46 218h29l46 -218h-28l-11 54h-44l-10 -54h-28zM682 394q-28 0 -42 18t-15 45l28 7q1 -10 2.5 -20.5t8.5 -17.5q7 -8 17 -9t18 6q9 8 8 21t-7 21q-5 6 -10.5 12.5t-13.5 11.5q-10 10 -22.5 20t-19.5 22q-7 10 -8.5 23t1.5 25t11 21t20 13q12 3 27 2t26 -9t14.5 -21t4.5 -26
l-24 -8q-1 12 -5.5 25t-18.5 16q-10 2 -18 -3.5t-10 -16.5q-5 -17 8.5 -29.5t25.5 -22.5q14 -13 27 -26.5t17 -33.5q6 -25 -8 -45.5t-42 -20.5zM909 642q-27 0 -42 18t-16 44l28 8q1 -11 3 -21.5t9 -17.5t17.5 -8t17.5 6q8 8 7.5 20.5t-6.5 22.5q-4 6 -10 11.5t-14 12.5
q-10 9 -22 19t-19 21t-9 24t1 25t10.5 21.5t20.5 12.5q12 3 27 2t25 -9q11 -8 15 -21t5 -26l-24 -7q-1 11 -5.5 24t-18.5 17q-10 1 -18.5 -4.5t-10.5 -14.5q-3 -19 10 -32t26 -22q14 -13 26.5 -26.5t17.5 -31.5q5 -27 -9 -47.5t-42 -20.5zM710 -93h34l68 299h-38zM611 644
v218h83v-23h-54v-71h44v-22h-44v-81h55v-21h-84zM758 396v217h84v-23h-54v-71h44v-22h-44v-81h54v-20h-84zM1028 667q13 -5 27 0q9 5 11.5 12.5t3.5 15.5v25v76q0 9 -0.5 19t-8.5 17q-10 12 -26 7q-16 -1 -21 -19q-5 -15 -3 -34t2 -35v-40q0 -11 1 -24.5t14 -19.5zM969 419
q6 -3 14.5 -3t13.5 3q8 5 11.5 13t4.5 16q1 5 0.5 11.5t-0.5 11.5v77q0 9 -0.5 19t-8.5 17q-5 6 -12.5 8t-14.5 0q-15 -4 -21 -21q-3 -15 -2 -33.5t1 -35.5v-39q0 -11 1.5 -24t12.5 -20zM1354 396v45q0 8 1 16.5t-1 15.5q-4 22 -15 42l-31 98h28l33 -104l31 104h30
q-14 -45 -30 -90l-14 -45q-3 -8 -2.5 -15t0.5 -13v-54h-30zM1404 644v218h30v-197h56v-21h-86zM1215 396v217h30v-197h55v-20h-85zM604 -237q-13 0 -19.5 6t-9 15t-2.5 20v20t0.5 19t3.5 17.5t10 12t20 3.5q11 -1 17 -6.5t8.5 -14t2.5 -18v-18.5t-0.5 -18.5t-3 -18t-9 -14
t-18.5 -5.5zM1381 -235v110q11 0 24.5 0.5t23.5 -7.5t9.5 -23t-0.5 -26v-26.5t-12 -22.5q-9 -7 -22 -6t-23 1zM1446 -375q-13 0 -19.5 6t-9 15t-2.5 19.5v19.5q0 10 0.5 20t4 17.5t10.5 12t20 3.5q12 -1 17 -6.5t7 -14t1.5 -18t-0.5 -18.5v-18.5t-2.5 -18t-8.5 -14t-18 -5.5
zM510 -375q-14 0 -20.5 6t-8.5 15t-2 19.5v19.5q0 10 0.5 20t3.5 17.5t10 12t20 3.5q12 -1 17.5 -6.5t8 -14t2.5 -18v-18.5v-18.5t-3 -18t-9.5 -14t-18.5 -5.5zM791 -374v111q11 0 22.5 1t20.5 -4q6 -4 9.5 -11.5t3.5 -15.5t-3.5 -15t-10.5 -10l16 -56h-15l-13 53h-12v-53
h-18zM555 -374l2 111h16l20 -89l19 89h14l2 -111h-12l-1 82l-18 -82h-11l-17 82l-1 -82h-13zM645 -374l2 111h16l19 -89l20 89h16l1 -111h-11l-2 82l-19 -82h-10l-17 82l-2 -82h-13zM1247 -374v111q11 0 22 1t21 -4q6 -4 9.5 -11.5t3.5 -15.5t-3 -15t-10 -10l14 -56h-14
l-14 53h-13v-53h-16zM650 -235v110q10 0 21 1t20 -4q6 -3 10 -11t4.5 -16.5t-3 -15.5t-11.5 -10l16 -54h-15l-16 51h-11v-51h-15zM661 231v112q6 0 13 0.5t14.5 -0.5t14 -3t10.5 -8q4 -10 3 -23t-9 -20q-7 -5 -15 -5.5t-16 -0.5v-52h-15zM1308 -235v110h10l32 -73v73h12
v-110h-9l-32 74v-74h-13zM808 -235v110h14v-48h29v48h16v-110h-16v51h-29v-51h-14zM1493 -374v111h10l32 -74v74h12v-111h-10l-32 76v-76h-12zM831 231l24 112h15l24 -112h-16l-5 29h-23l-5 -29h-14zM962 -374l24 111h15l24 -111h-14l-5 29h-24l-5 -29h-15zM1236 -235
l21 110h17l23 -110h-15l-5 27h-23l-6 -27h-12zM1455 443l-8 170h28l-9 -170h-11zM1067 -235q-16 -5 -27.5 2t-14.5 23q-2 7 -1 13.5t1 12.5v59h14v-49q0 -5 -0.5 -13.5t0.5 -17t4 -15t10 -6.5q8 0 11.5 6.5t5 15t1 17t-0.5 13.5v49h13v-50q0 -7 0.5 -16t-0.5 -18t-4.5 -16
t-11.5 -10zM511 768q8 0 15.5 -0.5t16.5 1.5q11 3 14 11.5t3 19.5q1 12 -1.5 23t-15.5 15q-9 2 -16.5 1.5t-15.5 -0.5v-71zM750 768h15t16 2q10 5 13.5 15t1.5 21q0 10 -2.5 18t-12.5 12q-8 4 -16 3.5t-15 -0.5v-71zM438 -375q-14 0 -20.5 8t-8.5 20t-1.5 25.5t0.5 23.5
q0 15 7.5 26.5t26.5 9.5q17 -2 20.5 -14t3.5 -25h-14v10t-2 10q-2 8 -10.5 8.5t-12.5 -6.5q-5 -6 -3.5 -19t1.5 -21q0 -7 -1.5 -19t4.5 -19q3 -7 11.5 -6t10.5 9q2 5 2 10.5v10.5h14q0 -14 -4 -28t-24 -14zM891 -375q-15 0 -21 8t-7.5 20t-0.5 25.5t1 23.5q0 15 7 26.5
t25 9.5t21.5 -14t3.5 -25h-16q0 5 0.5 10t-1.5 10q-2 8 -10 8.5t-13 -6.5q-5 -6 -4 -19t1 -21q0 -7 -1 -19t5 -19q4 -7 12 -6t10 9q2 5 1.5 10.5t-0.5 10.5h16q0 -14 -4.5 -28t-24.5 -14zM1186 230q-15 0 -21.5 9t-7.5 23l15 5q0 -6 2 -13.5t8 -10.5q7 -2 11.5 2t4.5 11
q1 11 -8.5 19.5t-17.5 16.5q-11 8 -15 22t8 25q15 8 31 3q8 -3 11 -11t4 -16l-13 -3q-1 5 -2.5 10.5t-6.5 10.5q-4 2 -9.5 0t-6.5 -9q-5 -8 2.5 -15.5l12.5 -12.5q7 -6 14 -12.5t9 -17.5q4 -14 -3 -25t-22 -11zM931 230q-14 0 -21.5 9t-8.5 23l15 5q0 -6 2 -13.5t7 -10.5
q8 -2 13 2t5 11q0 11 -10 19.5t-17 16.5q-11 8 -14.5 22t8.5 25q7 4 15.5 4.5t14.5 -1.5q8 -3 11.5 -11t4.5 -16l-13 -3q-1 5 -2.5 10.5t-6.5 10.5q-5 2 -10 0t-7 -9q-3 -8 3.5 -15.5t11.5 -12.5q8 -6 15 -12.5t9 -17.5q4 -14 -3.5 -25t-21.5 -11zM1346 -375q-15 0 -22 10
t-9 23l15 3q0 -5 2 -12t7 -9q8 -5 13 -0.5t5 10.5q0 11 -10 20t-17 15q-10 10 -14 24.5t9 23.5q6 5 15 5.5t15 -2.5q8 -2 11 -10t4 -15l-13 -5q-1 5 -2 11t-6 10q-6 2 -11 0t-7 -8q-4 -8 3 -15t13 -12q7 -8 14 -14.5t9 -17.5q4 -13 -3 -24t-21 -11zM1076 231l-25 112h16
l16 -82l18 82h12l-23 -112h-14zM1142 -374l-25 111h14l18 -81l15 81h16l-26 -111h-12zM969 231v112h44v-10h-28v-38h23v-11h-23v-42h29v-11h-45zM884 -235v110h43v-11h-27v-37h23v-11h-23v-42h27v-9h-43zM1191 -374v111h45v-10h-29v-36h23v-12h-23v-42h29v-11h-45zM736 -374
v111h44v-10h-28v-36h23v-12h-23v-42h28v-11h-44zM781 231v112h43v-10h-29v-38h24v-11h-24v-42h29v-11h-43zM597 -224q9 -4 13.5 -0.5t6 10.5t1.5 15v14q0 4 0.5 11t0.5 14.5t-1.5 14t-5.5 8.5q-11 6 -17.5 -1.5t-6.5 -16.5v-18q0 -4 -0.5 -11.5t0 -16t2.5 -15t7 -8.5z
M1439 -359q9 -5 14 -2.5t7 9.5t2 15v14q0 4 0.5 11t-0.5 14.5t-3 13.5t-6 8q-11 7 -15.5 -0.5t-4.5 -15.5v-17q0 -4 -1 -12t-1 -16t1.5 -14.5t6.5 -7.5zM502 -359q9 -5 13.5 -2.5t6.5 9.5t2 15v14q0 4 0.5 11t0.5 14.5t-1.5 13.5t-5.5 8q-12 7 -17.5 -0.5t-5.5 -15.5
q-1 -5 -0.5 -9t0.5 -8t-0.5 -12t-0.5 -16t1.5 -14.5t6.5 -7.5zM521 -235v110h43v-11h-26v-37h21v-11h-21v-51h-17zM973 -235v110h42v-11h-29v-37h22v-11h-22v-51h-13zM1396 -226q10 0 17 2t9 14v29v29q-1 12 -8 14t-18 2v-90zM764 -235v99h-20v11h56v-11h-20v-99h-16z
M1272 231v102h-21v10h54v-10h-19v-102h-14zM1037 -374v111h14v-100h29v-11h-43zM1101 -235v110h15v-101h28v-9h-43zM1154 -235v110h16v-101h28v-9h-44zM727 231v112h14v-101h29v-11h-43zM1127 231v112h15v-112h-15zM1302 720h37l-19 99zM401 -63h40v44h-40v-44zM935 -374
v111h16v-111h-16zM1385 -374v111h14v-111h-14zM1225 231v112h16v-112h-16zM1447 396v31h28v-31h-28zM676 294h8t9 2q6 2 7 8t1 12q-1 14 -7.5 15.5t-17.5 1.5v-39zM665 -173q10 0 17.5 3t7.5 16t-7 15.5t-18 2.5v-37zM1263 -309q11 0 18 2.5t7 15.5q0 11 -7 14.5t-18 3.5
v-36zM809 -309q10 0 16.5 2.5t6.5 15.5q0 11 -6.5 14.5t-16.5 3.5v-36zM984 -335h19l-9 51zM1256 -196h20l-10 50zM851 271h20l-8 51zM338 61l-41 115h-31v-239h37v117l42 -117h30v239h-37v-115zM1465 176l-44 -239h40l9 56h26l8 -56h40l-42 239h-37zM1476 29l7 47l7 -47
h-14zM1296 25v-18.5t1 -18.5q3 -16 10.5 -30t24.5 -19q13 -4 28 -3.5t26 7.5q10 6 15.5 15.5t7.5 20.5t2.5 22.5t0.5 21.5h-40q0 -10 0.5 -19t-1.5 -17q-1 -11 -13 -15q-11 -1 -19 10q-3 11 -2.5 23.5t0.5 23.5v56q0 11 -0.5 23.5t2.5 23.5q8 11 19 10q12 -4 13 -15
q2 -8 1.5 -17t-0.5 -19h40q0 10 -0.5 21.5t-2.5 22.5t-7.5 20.5t-15.5 15.5q-11 7 -26 7.5t-28 -3.5q-17 -5 -24.5 -19t-10.5 -30q-1 -9 -1 -18.5v-18.5v-64zM1722 176l-44 -239h40l9 56h26l8 -56h40l-42 239h-37zM1636 61l-20 22l-12 12t-9 16q-2 4 -2 9.5t1.5 10.5t5 8
t9.5 3q6 -1 9.5 -6.5t4.5 -12.5t1.5 -14.5t0.5 -12.5l37 2q0 22 -5 44.5t-26 31.5q-13 6 -26 5t-23.5 -7t-17.5 -16.5t-8 -24.5q-2 -14 0.5 -29t10.5 -26q3 -7 9 -12t11 -11q11 -14 24.5 -27.5t13.5 -33.5q0 -7 -1.5 -13t-8.5 -7q-5 -2 -9 0.5t-6 7.5q-5 10 -6 21l-2 22
l-37 -3q0 -15 1.5 -29t7.5 -28q8 -17 24.5 -24.5t33.5 -3.5q19 3 29.5 17t12.5 30q4 45 -28 79zM1899 176h-104v-38h32v-201h40v201h32v38zM1733 29l7 47l7 -47h-14zM1223 33h52v44h-52v-44zM862 176h-40v-239h88v35h-48v204zM915 25v-18.5t1 -18.5q3 -16 10.5 -30t24.5 -19
q13 -4 28 -3.5t26 7.5q10 6 15.5 15.5t7.5 20.5t2.5 22.5t0.5 21.5v68q0 10 -0.5 21.5t-2.5 22.5t-7.5 20.5t-15.5 15.5q-11 7 -26 7.5t-28 -3.5q-17 -5 -24.5 -19t-10.5 -30q-1 -9 -1 -18.5v-18.5v-64zM991 91v-68q0 -10 0.5 -19t-1.5 -17q-1 -11 -13 -15q-11 -1 -19 10
q-3 11 -2.5 23.5t0.5 23.5v56q0 11 -0.5 23.5t2.5 23.5q8 11 19 10q12 -4 13 -15q2 -8 1.5 -17t-0.5 -19zM1140 166h-30l-21 -139l-14 149h-40l30 -239h40l20 114l20 -114h40l30 239h-40l-14 -149z" />
    <glyph glyph-name="seven" unicode="7" horiz-adv-x="1978" 
d="M193 176l-28 -150l-27 150h-39l-3 -239h36l1 97l19 -97h28l19 98l2 -98h35l-2 239h-41zM1040 642q-49 0 -57 48q-2 10 -2 20v21q0 23 -1 48t5 47q5 19 19.5 27.5t32.5 9.5t34.5 -6t22.5 -26q8 -20 7.5 -46t-0.5 -48q0 -14 -0.5 -26.5t-3.5 -24.5q-9 -44 -57 -44zM984 394
q-49 0 -58 46q-2 11 -1.5 22t0.5 23q0 21 -1 46t4 46q5 20 19 28.5t33 8.5q20 1 35.5 -6t22.5 -25q8 -22 6 -47t-2 -47q0 -14 0.5 -26t-2.5 -25q-4 -22 -18.5 -33t-37.5 -11zM639 26h24v-15.5t-1.5 -20t-7 -16t-15.5 -2.5q-6 2 -9 8.5t-4 14t-0.5 15.5t0.5 13v57
q0 11 -0.5 25.5t2.5 26.5q8 11 19 10q12 -4 13 -15q2 -8 1.5 -17t-0.5 -19h40q0 10 -0.5 21.5t-2.5 22.5t-7.5 20.5t-15.5 15.5q-11 7 -26 7.5t-28 -3.5q-17 -5 -24.5 -19t-10.5 -30q-2 -17 -1.5 -34.5t0.5 -34.5t-0.5 -33t1.5 -33q2 -14 7.5 -28.5t17.5 -21.5
q12 -8 29.5 -8t28.5 11l1 -7h32v124h-63v-35zM719 644v218q20 0 43.5 0.5t41.5 -9.5q12 -7 18 -22t6 -30.5t-6.5 -29t-19.5 -18.5l29 -109h-29l-29 103h-23v-103h-31zM539 61l-20 22l-12 12t-9 16q-2 4 -2 9.5t1.5 10.5t5 8t9.5 3q6 -1 9.5 -6.5t4.5 -12.5t1.5 -14.5
t0.5 -12.5l37 2q0 22 -5 44.5t-26 31.5q-13 6 -26 5t-23.5 -7t-17.5 -16.5t-8 -24.5q-2 -14 0.5 -29t10.5 -26q3 -7 9 -12t11 -11q11 -14 24.5 -27.5t13.5 -33.5q0 -7 -1.5 -13t-8.5 -7q-5 -2 -9 0.5t-6 7.5q-5 10 -6 21l-2 22l-37 -3q0 -15 1.5 -29t7.5 -28
q8 -17 24.5 -24.5t33.5 -3.5q19 3 29.5 17t12.5 30q4 45 -28 79zM481 644v218h46q17 0 31.5 -3.5t22.5 -20.5q10 -19 8.5 -43.5t-18.5 -38.5q-12 -10 -29 -10h-31v-102h-30zM1073 396v217h20l62 -145v145h27v-217h-21l-63 148v-148h-25zM1131 644v218h20l61 -145v145h26
v-218h-20l-63 148v-148h-24zM564 397q-10 -4 -21 -4t-21.5 3.5t-19 10.5t-12.5 19q-5 11 -6 24t-1 28v135h29v-145q0 -12 2 -27.5t16 -23.5q12 -4 19.5 -0.5t12 11t6.5 17.5t2 19q1 18 0.5 35t-0.5 35v79h30v-100q0 -14 0.5 -31.5t-2 -34.5t-10 -30.5t-24.5 -19.5zM1260 644
l46 218h29l46 -218h-28l-11 54h-44l-10 -54h-28zM682 394q-28 0 -42 18t-15 45l28 7q1 -10 2.5 -20.5t8.5 -17.5q7 -8 17 -9t18 6q9 8 8 21t-7 21q-5 6 -10.5 12.5t-13.5 11.5q-10 10 -22.5 20t-19.5 22q-7 10 -8.5 23t1.5 25t11 21t20 13q12 3 27 2t26 -9t14.5 -21t4.5 -26
l-24 -8q-1 12 -5.5 25t-18.5 16q-10 2 -18 -3.5t-10 -16.5q-5 -17 8.5 -29.5t25.5 -22.5q14 -13 27 -26.5t17 -33.5q6 -25 -8 -45.5t-42 -20.5zM909 642q-27 0 -42 18t-16 44l28 8q1 -11 3 -21.5t9 -17.5t17.5 -8t17.5 6q8 8 7.5 20.5t-6.5 22.5q-4 6 -10 11.5t-14 12.5
q-10 9 -22 19t-19 21t-9 24t1 25t10.5 21.5t20.5 12.5q12 3 27 2t25 -9q11 -8 15 -21t5 -26l-24 -7q-1 11 -5.5 24t-18.5 17q-10 1 -18.5 -4.5t-10.5 -14.5q-3 -19 10 -32t26 -22q14 -13 26.5 -26.5t17.5 -31.5q5 -27 -9 -47.5t-42 -20.5zM710 -93h34l68 299h-38zM611 644
v218h83v-23h-54v-71h44v-22h-44v-81h55v-21h-84zM758 396v217h84v-23h-54v-71h44v-22h-44v-81h54v-20h-84zM1028 667q13 -5 27 0q9 5 11.5 12.5t3.5 15.5v25v76q0 9 -0.5 19t-8.5 17q-10 12 -26 7q-16 -1 -21 -19q-5 -15 -3 -34t2 -35v-40q0 -11 1 -24.5t14 -19.5zM969 419
q6 -3 14.5 -3t13.5 3q8 5 11.5 13t4.5 16q1 5 0.5 11.5t-0.5 11.5v77q0 9 -0.5 19t-8.5 17q-5 6 -12.5 8t-14.5 0q-15 -4 -21 -21q-3 -15 -2 -33.5t1 -35.5v-39q0 -11 1.5 -24t12.5 -20zM1354 396v45q0 8 1 16.5t-1 15.5q-4 22 -15 42l-31 98h28l33 -104l31 104h30
q-14 -45 -30 -90l-14 -45q-3 -8 -2.5 -15t0.5 -13v-54h-30zM1404 644v218h30v-197h56v-21h-86zM1215 396v217h30v-197h55v-20h-85zM604 -237q-13 0 -19.5 6t-9 15t-2.5 20v20t0.5 19t3.5 17.5t10 12t20 3.5q11 -1 17 -6.5t8.5 -14t2.5 -18v-18.5t-0.5 -18.5t-3 -18t-9 -14
t-18.5 -5.5zM1381 -235v110q11 0 24.5 0.5t23.5 -7.5t9.5 -23t-0.5 -26v-26.5t-12 -22.5q-9 -7 -22 -6t-23 1zM1446 -375q-13 0 -19.5 6t-9 15t-2.5 19.5v19.5q0 10 0.5 20t4 17.5t10.5 12t20 3.5q12 -1 17 -6.5t7 -14t1.5 -18t-0.5 -18.5v-18.5t-2.5 -18t-8.5 -14t-18 -5.5
zM510 -375q-14 0 -20.5 6t-8.5 15t-2 19.5v19.5q0 10 0.5 20t3.5 17.5t10 12t20 3.5q12 -1 17.5 -6.5t8 -14t2.5 -18v-18.5v-18.5t-3 -18t-9.5 -14t-18.5 -5.5zM791 -374v111q11 0 22.5 1t20.5 -4q6 -4 9.5 -11.5t3.5 -15.5t-3.5 -15t-10.5 -10l16 -56h-15l-13 53h-12v-53
h-18zM555 -374l2 111h16l20 -89l19 89h14l2 -111h-12l-1 82l-18 -82h-11l-17 82l-1 -82h-13zM645 -374l2 111h16l19 -89l20 89h16l1 -111h-11l-2 82l-19 -82h-10l-17 82l-2 -82h-13zM1247 -374v111q11 0 22 1t21 -4q6 -4 9.5 -11.5t3.5 -15.5t-3 -15t-10 -10l14 -56h-14
l-14 53h-13v-53h-16zM650 -235v110q10 0 21 1t20 -4q6 -3 10 -11t4.5 -16.5t-3 -15.5t-11.5 -10l16 -54h-15l-16 51h-11v-51h-15zM661 231v112q6 0 13 0.5t14.5 -0.5t14 -3t10.5 -8q4 -10 3 -23t-9 -20q-7 -5 -15 -5.5t-16 -0.5v-52h-15zM1308 -235v110h10l32 -73v73h12
v-110h-9l-32 74v-74h-13zM808 -235v110h14v-48h29v48h16v-110h-16v51h-29v-51h-14zM1493 -374v111h10l32 -74v74h12v-111h-10l-32 76v-76h-12zM831 231l24 112h15l24 -112h-16l-5 29h-23l-5 -29h-14zM962 -374l24 111h15l24 -111h-14l-5 29h-24l-5 -29h-15zM1236 -235
l21 110h17l23 -110h-15l-5 27h-23l-6 -27h-12zM1455 443l-8 170h28l-9 -170h-11zM1067 -235q-16 -5 -27.5 2t-14.5 23q-2 7 -1 13.5t1 12.5v59h14v-49q0 -5 -0.5 -13.5t0.5 -17t4 -15t10 -6.5q8 0 11.5 6.5t5 15t1 17t-0.5 13.5v49h13v-50q0 -7 0.5 -16t-0.5 -18t-4.5 -16
t-11.5 -10zM511 768q8 0 15.5 -0.5t16.5 1.5q11 3 14 11.5t3 19.5q1 12 -1.5 23t-15.5 15q-9 2 -16.5 1.5t-15.5 -0.5v-71zM750 768h15t16 2q10 5 13.5 15t1.5 21q0 10 -2.5 18t-12.5 12q-8 4 -16 3.5t-15 -0.5v-71zM438 -375q-14 0 -20.5 8t-8.5 20t-1.5 25.5t0.5 23.5
q0 15 7.5 26.5t26.5 9.5q17 -2 20.5 -14t3.5 -25h-14v10t-2 10q-2 8 -10.5 8.5t-12.5 -6.5q-5 -6 -3.5 -19t1.5 -21q0 -7 -1.5 -19t4.5 -19q3 -7 11.5 -6t10.5 9q2 5 2 10.5v10.5h14q0 -14 -4 -28t-24 -14zM891 -375q-15 0 -21 8t-7.5 20t-0.5 25.5t1 23.5q0 15 7 26.5
t25 9.5t21.5 -14t3.5 -25h-16q0 5 0.5 10t-1.5 10q-2 8 -10 8.5t-13 -6.5q-5 -6 -4 -19t1 -21q0 -7 -1 -19t5 -19q4 -7 12 -6t10 9q2 5 1.5 10.5t-0.5 10.5h16q0 -14 -4.5 -28t-24.5 -14zM1186 230q-15 0 -21.5 9t-7.5 23l15 5q0 -6 2 -13.5t8 -10.5q7 -2 11.5 2t4.5 11
q1 11 -8.5 19.5t-17.5 16.5q-11 8 -15 22t8 25q15 8 31 3q8 -3 11 -11t4 -16l-13 -3q-1 5 -2.5 10.5t-6.5 10.5q-4 2 -9.5 0t-6.5 -9q-5 -8 2.5 -15.5l12.5 -12.5q7 -6 14 -12.5t9 -17.5q4 -14 -3 -25t-22 -11zM931 230q-14 0 -21.5 9t-8.5 23l15 5q0 -6 2 -13.5t7 -10.5
q8 -2 13 2t5 11q0 11 -10 19.5t-17 16.5q-11 8 -14.5 22t8.5 25q7 4 15.5 4.5t14.5 -1.5q8 -3 11.5 -11t4.5 -16l-13 -3q-1 5 -2.5 10.5t-6.5 10.5q-5 2 -10 0t-7 -9q-3 -8 3.5 -15.5t11.5 -12.5q8 -6 15 -12.5t9 -17.5q4 -14 -3.5 -25t-21.5 -11zM1346 -375q-15 0 -22 10
t-9 23l15 3q0 -5 2 -12t7 -9q8 -5 13 -0.5t5 10.5q0 11 -10 20t-17 15q-10 10 -14 24.5t9 23.5q6 5 15 5.5t15 -2.5q8 -2 11 -10t4 -15l-13 -5q-1 5 -2 11t-6 10q-6 2 -11 0t-7 -8q-4 -8 3 -15t13 -12q7 -8 14 -14.5t9 -17.5q4 -13 -3 -24t-21 -11zM1076 231l-25 112h16
l16 -82l18 82h12l-23 -112h-14zM1142 -374l-25 111h14l18 -81l15 81h16l-26 -111h-12zM969 231v112h44v-10h-28v-38h23v-11h-23v-42h29v-11h-45zM884 -235v110h43v-11h-27v-37h23v-11h-23v-42h27v-9h-43zM1191 -374v111h45v-10h-29v-36h23v-12h-23v-42h29v-11h-45zM736 -374
v111h44v-10h-28v-36h23v-12h-23v-42h28v-11h-44zM781 231v112h43v-10h-29v-38h24v-11h-24v-42h29v-11h-43zM597 -224q9 -4 13.5 -0.5t6 10.5t1.5 15v14q0 4 0.5 11t0.5 14.5t-1.5 14t-5.5 8.5q-11 6 -17.5 -1.5t-6.5 -16.5v-18q0 -4 -0.5 -11.5t0 -16t2.5 -15t7 -8.5z
M1439 -359q9 -5 14 -2.5t7 9.5t2 15v14q0 4 0.5 11t-0.5 14.5t-3 13.5t-6 8q-11 7 -15.5 -0.5t-4.5 -15.5v-17q0 -4 -1 -12t-1 -16t1.5 -14.5t6.5 -7.5zM502 -359q9 -5 13.5 -2.5t6.5 9.5t2 15v14q0 4 0.5 11t0.5 14.5t-1.5 13.5t-5.5 8q-12 7 -17.5 -0.5t-5.5 -15.5
q-1 -5 -0.5 -9t0.5 -8t-0.5 -12t-0.5 -16t1.5 -14.5t6.5 -7.5zM521 -235v110h43v-11h-26v-37h21v-11h-21v-51h-17zM973 -235v110h42v-11h-29v-37h22v-11h-22v-51h-13zM1396 -226q10 0 17 2t9 14v29v29q-1 12 -8 14t-18 2v-90zM764 -235v99h-20v11h56v-11h-20v-99h-16z
M1272 231v102h-21v10h54v-10h-19v-102h-14zM1037 -374v111h14v-100h29v-11h-43zM1101 -235v110h15v-101h28v-9h-43zM1154 -235v110h16v-101h28v-9h-44zM727 231v112h14v-101h29v-11h-43zM1127 231v112h15v-112h-15zM1302 720h37l-19 99zM401 -63h40v44h-40v-44zM935 -374
v111h16v-111h-16zM1385 -374v111h14v-111h-14zM1225 231v112h16v-112h-16zM1447 396v31h28v-31h-28zM676 294h8t9 2q6 2 7 8t1 12q-1 14 -7.5 15.5t-17.5 1.5v-39zM665 -173q10 0 17.5 3t7.5 16t-7 15.5t-18 2.5v-37zM1263 -309q11 0 18 2.5t7 15.5q0 11 -7 14.5t-18 3.5
v-36zM809 -309q10 0 16.5 2.5t6.5 15.5q0 11 -6.5 14.5t-16.5 3.5v-36zM984 -335h19l-9 51zM1256 -196h20l-10 50zM851 271h20l-8 51zM338 61l-41 115h-31v-239h37v117l42 -117h30v239h-37v-115zM1465 176l-44 -239h40l9 56h26l8 -56h40l-42 239h-37zM1476 29l7 47l7 -47
h-14zM1296 25v-18.5t1 -18.5q3 -16 10.5 -30t24.5 -19q13 -4 28 -3.5t26 7.5q10 6 15.5 15.5t7.5 20.5t2.5 22.5t0.5 21.5h-40q0 -10 0.5 -19t-1.5 -17q-1 -11 -13 -15q-11 -1 -19 10q-3 11 -2.5 23.5t0.5 23.5v56q0 11 -0.5 23.5t2.5 23.5q8 11 19 10q12 -4 13 -15
q2 -8 1.5 -17t-0.5 -19h40q0 10 -0.5 21.5t-2.5 22.5t-7.5 20.5t-15.5 15.5q-11 7 -26 7.5t-28 -3.5q-17 -5 -24.5 -19t-10.5 -30q-1 -9 -1 -18.5v-18.5v-64zM1722 176l-44 -239h40l9 56h26l8 -56h40l-42 239h-37zM1636 61l-20 22l-12 12t-9 16q-2 4 -2 9.5t1.5 10.5t5 8
t9.5 3q6 -1 9.5 -6.5t4.5 -12.5t1.5 -14.5t0.5 -12.5l37 2q0 22 -5 44.5t-26 31.5q-13 6 -26 5t-23.5 -7t-17.5 -16.5t-8 -24.5q-2 -14 0.5 -29t10.5 -26q3 -7 9 -12t11 -11q11 -14 24.5 -27.5t13.5 -33.5q0 -7 -1.5 -13t-8.5 -7q-5 -2 -9 0.5t-6 7.5q-5 10 -6 21l-2 22
l-37 -3q0 -15 1.5 -29t7.5 -28q8 -17 24.5 -24.5t33.5 -3.5q19 3 29.5 17t12.5 30q4 45 -28 79zM1899 176h-104v-38h32v-201h40v201h32v38zM1733 29l7 47l7 -47h-14zM1223 33h52v44h-52v-44zM862 176h-40v-239h88v35h-48v204zM915 25v-18.5t1 -18.5q3 -16 10.5 -30t24.5 -19
q13 -4 28 -3.5t26 7.5q10 6 15.5 15.5t7.5 20.5t2.5 22.5t0.5 21.5v68q0 10 -0.5 21.5t-2.5 22.5t-7.5 20.5t-15.5 15.5q-11 7 -26 7.5t-28 -3.5q-17 -5 -24.5 -19t-10.5 -30q-1 -9 -1 -18.5v-18.5v-64zM991 91v-68q0 -10 0.5 -19t-1.5 -17q-1 -11 -13 -15q-11 -1 -19 10
q-3 11 -2.5 23.5t0.5 23.5v56q0 11 -0.5 23.5t2.5 23.5q8 11 19 10q12 -4 13 -15q2 -8 1.5 -17t-0.5 -19zM1140 166h-30l-21 -139l-14 149h-40l30 -239h40l20 114l20 -114h40l30 239h-40l-14 -149z" />
    <glyph glyph-name="eight" unicode="8" horiz-adv-x="1978" 
d="M193 176l-28 -150l-27 150h-39l-3 -239h36l1 97l19 -97h28l19 98l2 -98h35l-2 239h-41zM1040 642q-49 0 -57 48q-2 10 -2 20v21q0 23 -1 48t5 47q5 19 19.5 27.5t32.5 9.5t34.5 -6t22.5 -26q8 -20 7.5 -46t-0.5 -48q0 -14 -0.5 -26.5t-3.5 -24.5q-9 -44 -57 -44zM984 394
q-49 0 -58 46q-2 11 -1.5 22t0.5 23q0 21 -1 46t4 46q5 20 19 28.5t33 8.5q20 1 35.5 -6t22.5 -25q8 -22 6 -47t-2 -47q0 -14 0.5 -26t-2.5 -25q-4 -22 -18.5 -33t-37.5 -11zM639 26h24v-15.5t-1.5 -20t-7 -16t-15.5 -2.5q-6 2 -9 8.5t-4 14t-0.5 15.5t0.5 13v57
q0 11 -0.5 25.5t2.5 26.5q8 11 19 10q12 -4 13 -15q2 -8 1.5 -17t-0.5 -19h40q0 10 -0.5 21.5t-2.5 22.5t-7.5 20.5t-15.5 15.5q-11 7 -26 7.5t-28 -3.5q-17 -5 -24.5 -19t-10.5 -30q-2 -17 -1.5 -34.5t0.5 -34.5t-0.5 -33t1.5 -33q2 -14 7.5 -28.5t17.5 -21.5
q12 -8 29.5 -8t28.5 11l1 -7h32v124h-63v-35zM719 644v218q20 0 43.5 0.5t41.5 -9.5q12 -7 18 -22t6 -30.5t-6.5 -29t-19.5 -18.5l29 -109h-29l-29 103h-23v-103h-31zM539 61l-20 22l-12 12t-9 16q-2 4 -2 9.5t1.5 10.5t5 8t9.5 3q6 -1 9.5 -6.5t4.5 -12.5t1.5 -14.5
t0.5 -12.5l37 2q0 22 -5 44.5t-26 31.5q-13 6 -26 5t-23.5 -7t-17.5 -16.5t-8 -24.5q-2 -14 0.5 -29t10.5 -26q3 -7 9 -12t11 -11q11 -14 24.5 -27.5t13.5 -33.5q0 -7 -1.5 -13t-8.5 -7q-5 -2 -9 0.5t-6 7.5q-5 10 -6 21l-2 22l-37 -3q0 -15 1.5 -29t7.5 -28
q8 -17 24.5 -24.5t33.5 -3.5q19 3 29.5 17t12.5 30q4 45 -28 79zM481 644v218h46q17 0 31.5 -3.5t22.5 -20.5q10 -19 8.5 -43.5t-18.5 -38.5q-12 -10 -29 -10h-31v-102h-30zM1073 396v217h20l62 -145v145h27v-217h-21l-63 148v-148h-25zM1131 644v218h20l61 -145v145h26
v-218h-20l-63 148v-148h-24zM564 397q-10 -4 -21 -4t-21.5 3.5t-19 10.5t-12.5 19q-5 11 -6 24t-1 28v135h29v-145q0 -12 2 -27.5t16 -23.5q12 -4 19.5 -0.5t12 11t6.5 17.5t2 19q1 18 0.5 35t-0.5 35v79h30v-100q0 -14 0.5 -31.5t-2 -34.5t-10 -30.5t-24.5 -19.5zM1260 644
l46 218h29l46 -218h-28l-11 54h-44l-10 -54h-28zM682 394q-28 0 -42 18t-15 45l28 7q1 -10 2.5 -20.5t8.5 -17.5q7 -8 17 -9t18 6q9 8 8 21t-7 21q-5 6 -10.5 12.5t-13.5 11.5q-10 10 -22.5 20t-19.5 22q-7 10 -8.5 23t1.5 25t11 21t20 13q12 3 27 2t26 -9t14.5 -21t4.5 -26
l-24 -8q-1 12 -5.5 25t-18.5 16q-10 2 -18 -3.5t-10 -16.5q-5 -17 8.5 -29.5t25.5 -22.5q14 -13 27 -26.5t17 -33.5q6 -25 -8 -45.5t-42 -20.5zM909 642q-27 0 -42 18t-16 44l28 8q1 -11 3 -21.5t9 -17.5t17.5 -8t17.5 6q8 8 7.5 20.5t-6.5 22.5q-4 6 -10 11.5t-14 12.5
q-10 9 -22 19t-19 21t-9 24t1 25t10.5 21.5t20.5 12.5q12 3 27 2t25 -9q11 -8 15 -21t5 -26l-24 -7q-1 11 -5.5 24t-18.5 17q-10 1 -18.5 -4.5t-10.5 -14.5q-3 -19 10 -32t26 -22q14 -13 26.5 -26.5t17.5 -31.5q5 -27 -9 -47.5t-42 -20.5zM710 -93h34l68 299h-38zM611 644
v218h83v-23h-54v-71h44v-22h-44v-81h55v-21h-84zM758 396v217h84v-23h-54v-71h44v-22h-44v-81h54v-20h-84zM1028 667q13 -5 27 0q9 5 11.5 12.5t3.5 15.5v25v76q0 9 -0.5 19t-8.5 17q-10 12 -26 7q-16 -1 -21 -19q-5 -15 -3 -34t2 -35v-40q0 -11 1 -24.5t14 -19.5zM969 419
q6 -3 14.5 -3t13.5 3q8 5 11.5 13t4.5 16q1 5 0.5 11.5t-0.5 11.5v77q0 9 -0.5 19t-8.5 17q-5 6 -12.5 8t-14.5 0q-15 -4 -21 -21q-3 -15 -2 -33.5t1 -35.5v-39q0 -11 1.5 -24t12.5 -20zM1354 396v45q0 8 1 16.5t-1 15.5q-4 22 -15 42l-31 98h28l33 -104l31 104h30
q-14 -45 -30 -90l-14 -45q-3 -8 -2.5 -15t0.5 -13v-54h-30zM1404 644v218h30v-197h56v-21h-86zM1215 396v217h30v-197h55v-20h-85zM604 -237q-13 0 -19.5 6t-9 15t-2.5 20v20t0.5 19t3.5 17.5t10 12t20 3.5q11 -1 17 -6.5t8.5 -14t2.5 -18v-18.5t-0.5 -18.5t-3 -18t-9 -14
t-18.5 -5.5zM1381 -235v110q11 0 24.5 0.5t23.5 -7.5t9.5 -23t-0.5 -26v-26.5t-12 -22.5q-9 -7 -22 -6t-23 1zM1446 -375q-13 0 -19.5 6t-9 15t-2.5 19.5v19.5q0 10 0.5 20t4 17.5t10.5 12t20 3.5q12 -1 17 -6.5t7 -14t1.5 -18t-0.5 -18.5v-18.5t-2.5 -18t-8.5 -14t-18 -5.5
zM510 -375q-14 0 -20.5 6t-8.5 15t-2 19.5v19.5q0 10 0.5 20t3.5 17.5t10 12t20 3.5q12 -1 17.5 -6.5t8 -14t2.5 -18v-18.5v-18.5t-3 -18t-9.5 -14t-18.5 -5.5zM791 -374v111q11 0 22.5 1t20.5 -4q6 -4 9.5 -11.5t3.5 -15.5t-3.5 -15t-10.5 -10l16 -56h-15l-13 53h-12v-53
h-18zM555 -374l2 111h16l20 -89l19 89h14l2 -111h-12l-1 82l-18 -82h-11l-17 82l-1 -82h-13zM645 -374l2 111h16l19 -89l20 89h16l1 -111h-11l-2 82l-19 -82h-10l-17 82l-2 -82h-13zM1247 -374v111q11 0 22 1t21 -4q6 -4 9.5 -11.5t3.5 -15.5t-3 -15t-10 -10l14 -56h-14
l-14 53h-13v-53h-16zM650 -235v110q10 0 21 1t20 -4q6 -3 10 -11t4.5 -16.5t-3 -15.5t-11.5 -10l16 -54h-15l-16 51h-11v-51h-15zM661 231v112q6 0 13 0.5t14.5 -0.5t14 -3t10.5 -8q4 -10 3 -23t-9 -20q-7 -5 -15 -5.5t-16 -0.5v-52h-15zM1308 -235v110h10l32 -73v73h12
v-110h-9l-32 74v-74h-13zM808 -235v110h14v-48h29v48h16v-110h-16v51h-29v-51h-14zM1493 -374v111h10l32 -74v74h12v-111h-10l-32 76v-76h-12zM831 231l24 112h15l24 -112h-16l-5 29h-23l-5 -29h-14zM962 -374l24 111h15l24 -111h-14l-5 29h-24l-5 -29h-15zM1236 -235
l21 110h17l23 -110h-15l-5 27h-23l-6 -27h-12zM1455 443l-8 170h28l-9 -170h-11zM1067 -235q-16 -5 -27.5 2t-14.5 23q-2 7 -1 13.5t1 12.5v59h14v-49q0 -5 -0.5 -13.5t0.5 -17t4 -15t10 -6.5q8 0 11.5 6.5t5 15t1 17t-0.5 13.5v49h13v-50q0 -7 0.5 -16t-0.5 -18t-4.5 -16
t-11.5 -10zM511 768q8 0 15.5 -0.5t16.5 1.5q11 3 14 11.5t3 19.5q1 12 -1.5 23t-15.5 15q-9 2 -16.5 1.5t-15.5 -0.5v-71zM750 768h15t16 2q10 5 13.5 15t1.5 21q0 10 -2.5 18t-12.5 12q-8 4 -16 3.5t-15 -0.5v-71zM438 -375q-14 0 -20.5 8t-8.5 20t-1.5 25.5t0.5 23.5
q0 15 7.5 26.5t26.5 9.5q17 -2 20.5 -14t3.5 -25h-14v10t-2 10q-2 8 -10.5 8.5t-12.5 -6.5q-5 -6 -3.5 -19t1.5 -21q0 -7 -1.5 -19t4.5 -19q3 -7 11.5 -6t10.5 9q2 5 2 10.5v10.5h14q0 -14 -4 -28t-24 -14zM891 -375q-15 0 -21 8t-7.5 20t-0.5 25.5t1 23.5q0 15 7 26.5
t25 9.5t21.5 -14t3.5 -25h-16q0 5 0.5 10t-1.5 10q-2 8 -10 8.5t-13 -6.5q-5 -6 -4 -19t1 -21q0 -7 -1 -19t5 -19q4 -7 12 -6t10 9q2 5 1.5 10.5t-0.5 10.5h16q0 -14 -4.5 -28t-24.5 -14zM1186 230q-15 0 -21.5 9t-7.5 23l15 5q0 -6 2 -13.5t8 -10.5q7 -2 11.5 2t4.5 11
q1 11 -8.5 19.5t-17.5 16.5q-11 8 -15 22t8 25q15 8 31 3q8 -3 11 -11t4 -16l-13 -3q-1 5 -2.5 10.5t-6.5 10.5q-4 2 -9.5 0t-6.5 -9q-5 -8 2.5 -15.5l12.5 -12.5q7 -6 14 -12.5t9 -17.5q4 -14 -3 -25t-22 -11zM931 230q-14 0 -21.5 9t-8.5 23l15 5q0 -6 2 -13.5t7 -10.5
q8 -2 13 2t5 11q0 11 -10 19.5t-17 16.5q-11 8 -14.5 22t8.5 25q7 4 15.5 4.5t14.5 -1.5q8 -3 11.5 -11t4.5 -16l-13 -3q-1 5 -2.5 10.5t-6.5 10.5q-5 2 -10 0t-7 -9q-3 -8 3.5 -15.5t11.5 -12.5q8 -6 15 -12.5t9 -17.5q4 -14 -3.5 -25t-21.5 -11zM1346 -375q-15 0 -22 10
t-9 23l15 3q0 -5 2 -12t7 -9q8 -5 13 -0.5t5 10.5q0 11 -10 20t-17 15q-10 10 -14 24.5t9 23.5q6 5 15 5.5t15 -2.5q8 -2 11 -10t4 -15l-13 -5q-1 5 -2 11t-6 10q-6 2 -11 0t-7 -8q-4 -8 3 -15t13 -12q7 -8 14 -14.5t9 -17.5q4 -13 -3 -24t-21 -11zM1076 231l-25 112h16
l16 -82l18 82h12l-23 -112h-14zM1142 -374l-25 111h14l18 -81l15 81h16l-26 -111h-12zM969 231v112h44v-10h-28v-38h23v-11h-23v-42h29v-11h-45zM884 -235v110h43v-11h-27v-37h23v-11h-23v-42h27v-9h-43zM1191 -374v111h45v-10h-29v-36h23v-12h-23v-42h29v-11h-45zM736 -374
v111h44v-10h-28v-36h23v-12h-23v-42h28v-11h-44zM781 231v112h43v-10h-29v-38h24v-11h-24v-42h29v-11h-43zM597 -224q9 -4 13.5 -0.5t6 10.5t1.5 15v14q0 4 0.5 11t0.5 14.5t-1.5 14t-5.5 8.5q-11 6 -17.5 -1.5t-6.5 -16.5v-18q0 -4 -0.5 -11.5t0 -16t2.5 -15t7 -8.5z
M1439 -359q9 -5 14 -2.5t7 9.5t2 15v14q0 4 0.5 11t-0.5 14.5t-3 13.5t-6 8q-11 7 -15.5 -0.5t-4.5 -15.5v-17q0 -4 -1 -12t-1 -16t1.5 -14.5t6.5 -7.5zM502 -359q9 -5 13.5 -2.5t6.5 9.5t2 15v14q0 4 0.5 11t0.5 14.5t-1.5 13.5t-5.5 8q-12 7 -17.5 -0.5t-5.5 -15.5
q-1 -5 -0.5 -9t0.5 -8t-0.5 -12t-0.5 -16t1.5 -14.5t6.5 -7.5zM521 -235v110h43v-11h-26v-37h21v-11h-21v-51h-17zM973 -235v110h42v-11h-29v-37h22v-11h-22v-51h-13zM1396 -226q10 0 17 2t9 14v29v29q-1 12 -8 14t-18 2v-90zM764 -235v99h-20v11h56v-11h-20v-99h-16z
M1272 231v102h-21v10h54v-10h-19v-102h-14zM1037 -374v111h14v-100h29v-11h-43zM1101 -235v110h15v-101h28v-9h-43zM1154 -235v110h16v-101h28v-9h-44zM727 231v112h14v-101h29v-11h-43zM1127 231v112h15v-112h-15zM1302 720h37l-19 99zM401 -63h40v44h-40v-44zM935 -374
v111h16v-111h-16zM1385 -374v111h14v-111h-14zM1225 231v112h16v-112h-16zM1447 396v31h28v-31h-28zM676 294h8t9 2q6 2 7 8t1 12q-1 14 -7.5 15.5t-17.5 1.5v-39zM665 -173q10 0 17.5 3t7.5 16t-7 15.5t-18 2.5v-37zM1263 -309q11 0 18 2.5t7 15.5q0 11 -7 14.5t-18 3.5
v-36zM809 -309q10 0 16.5 2.5t6.5 15.5q0 11 -6.5 14.5t-16.5 3.5v-36zM984 -335h19l-9 51zM1256 -196h20l-10 50zM851 271h20l-8 51zM338 61l-41 115h-31v-239h37v117l42 -117h30v239h-37v-115zM1465 176l-44 -239h40l9 56h26l8 -56h40l-42 239h-37zM1476 29l7 47l7 -47
h-14zM1296 25v-18.5t1 -18.5q3 -16 10.5 -30t24.5 -19q13 -4 28 -3.5t26 7.5q10 6 15.5 15.5t7.5 20.5t2.5 22.5t0.5 21.5h-40q0 -10 0.5 -19t-1.5 -17q-1 -11 -13 -15q-11 -1 -19 10q-3 11 -2.5 23.5t0.5 23.5v56q0 11 -0.5 23.5t2.5 23.5q8 11 19 10q12 -4 13 -15
q2 -8 1.5 -17t-0.5 -19h40q0 10 -0.5 21.5t-2.5 22.5t-7.5 20.5t-15.5 15.5q-11 7 -26 7.5t-28 -3.5q-17 -5 -24.5 -19t-10.5 -30q-1 -9 -1 -18.5v-18.5v-64zM1722 176l-44 -239h40l9 56h26l8 -56h40l-42 239h-37zM1636 61l-20 22l-12 12t-9 16q-2 4 -2 9.5t1.5 10.5t5 8
t9.5 3q6 -1 9.5 -6.5t4.5 -12.5t1.5 -14.5t0.5 -12.5l37 2q0 22 -5 44.5t-26 31.5q-13 6 -26 5t-23.5 -7t-17.5 -16.5t-8 -24.5q-2 -14 0.5 -29t10.5 -26q3 -7 9 -12t11 -11q11 -14 24.5 -27.5t13.5 -33.5q0 -7 -1.5 -13t-8.5 -7q-5 -2 -9 0.5t-6 7.5q-5 10 -6 21l-2 22
l-37 -3q0 -15 1.5 -29t7.5 -28q8 -17 24.5 -24.5t33.5 -3.5q19 3 29.5 17t12.5 30q4 45 -28 79zM1899 176h-104v-38h32v-201h40v201h32v38zM1733 29l7 47l7 -47h-14zM1223 33h52v44h-52v-44zM862 176h-40v-239h88v35h-48v204zM915 25v-18.5t1 -18.5q3 -16 10.5 -30t24.5 -19
q13 -4 28 -3.5t26 7.5q10 6 15.5 15.5t7.5 20.5t2.5 22.5t0.5 21.5v68q0 10 -0.5 21.5t-2.5 22.5t-7.5 20.5t-15.5 15.5q-11 7 -26 7.5t-28 -3.5q-17 -5 -24.5 -19t-10.5 -30q-1 -9 -1 -18.5v-18.5v-64zM991 91v-68q0 -10 0.5 -19t-1.5 -17q-1 -11 -13 -15q-11 -1 -19 10
q-3 11 -2.5 23.5t0.5 23.5v56q0 11 -0.5 23.5t2.5 23.5q8 11 19 10q12 -4 13 -15q2 -8 1.5 -17t-0.5 -19zM1140 166h-30l-21 -139l-14 149h-40l30 -239h40l20 114l20 -114h40l30 239h-40l-14 -149z" />
    <glyph glyph-name="nine" unicode="9" horiz-adv-x="1978" 
d="M193 176l-28 -150l-27 150h-39l-3 -239h36l1 97l19 -97h28l19 98l2 -98h35l-2 239h-41zM1040 642q-49 0 -57 48q-2 10 -2 20v21q0 23 -1 48t5 47q5 19 19.5 27.5t32.5 9.5t34.5 -6t22.5 -26q8 -20 7.5 -46t-0.5 -48q0 -14 -0.5 -26.5t-3.5 -24.5q-9 -44 -57 -44zM984 394
q-49 0 -58 46q-2 11 -1.5 22t0.5 23q0 21 -1 46t4 46q5 20 19 28.5t33 8.5q20 1 35.5 -6t22.5 -25q8 -22 6 -47t-2 -47q0 -14 0.5 -26t-2.5 -25q-4 -22 -18.5 -33t-37.5 -11zM639 26h24v-15.5t-1.5 -20t-7 -16t-15.5 -2.5q-6 2 -9 8.5t-4 14t-0.5 15.5t0.5 13v57
q0 11 -0.5 25.5t2.5 26.5q8 11 19 10q12 -4 13 -15q2 -8 1.5 -17t-0.5 -19h40q0 10 -0.5 21.5t-2.5 22.5t-7.5 20.5t-15.5 15.5q-11 7 -26 7.5t-28 -3.5q-17 -5 -24.5 -19t-10.5 -30q-2 -17 -1.5 -34.5t0.5 -34.5t-0.5 -33t1.5 -33q2 -14 7.5 -28.5t17.5 -21.5
q12 -8 29.5 -8t28.5 11l1 -7h32v124h-63v-35zM719 644v218q20 0 43.5 0.5t41.5 -9.5q12 -7 18 -22t6 -30.5t-6.5 -29t-19.5 -18.5l29 -109h-29l-29 103h-23v-103h-31zM539 61l-20 22l-12 12t-9 16q-2 4 -2 9.5t1.5 10.5t5 8t9.5 3q6 -1 9.5 -6.5t4.5 -12.5t1.5 -14.5
t0.5 -12.5l37 2q0 22 -5 44.5t-26 31.5q-13 6 -26 5t-23.5 -7t-17.5 -16.5t-8 -24.5q-2 -14 0.5 -29t10.5 -26q3 -7 9 -12t11 -11q11 -14 24.5 -27.5t13.5 -33.5q0 -7 -1.5 -13t-8.5 -7q-5 -2 -9 0.5t-6 7.5q-5 10 -6 21l-2 22l-37 -3q0 -15 1.5 -29t7.5 -28
q8 -17 24.5 -24.5t33.5 -3.5q19 3 29.5 17t12.5 30q4 45 -28 79zM481 644v218h46q17 0 31.5 -3.5t22.5 -20.5q10 -19 8.5 -43.5t-18.5 -38.5q-12 -10 -29 -10h-31v-102h-30zM1073 396v217h20l62 -145v145h27v-217h-21l-63 148v-148h-25zM1131 644v218h20l61 -145v145h26
v-218h-20l-63 148v-148h-24zM564 397q-10 -4 -21 -4t-21.5 3.5t-19 10.5t-12.5 19q-5 11 -6 24t-1 28v135h29v-145q0 -12 2 -27.5t16 -23.5q12 -4 19.5 -0.5t12 11t6.5 17.5t2 19q1 18 0.5 35t-0.5 35v79h30v-100q0 -14 0.5 -31.5t-2 -34.5t-10 -30.5t-24.5 -19.5zM1260 644
l46 218h29l46 -218h-28l-11 54h-44l-10 -54h-28zM682 394q-28 0 -42 18t-15 45l28 7q1 -10 2.5 -20.5t8.5 -17.5q7 -8 17 -9t18 6q9 8 8 21t-7 21q-5 6 -10.5 12.5t-13.5 11.5q-10 10 -22.5 20t-19.5 22q-7 10 -8.5 23t1.5 25t11 21t20 13q12 3 27 2t26 -9t14.5 -21t4.5 -26
l-24 -8q-1 12 -5.5 25t-18.5 16q-10 2 -18 -3.5t-10 -16.5q-5 -17 8.5 -29.5t25.5 -22.5q14 -13 27 -26.5t17 -33.5q6 -25 -8 -45.5t-42 -20.5zM909 642q-27 0 -42 18t-16 44l28 8q1 -11 3 -21.5t9 -17.5t17.5 -8t17.5 6q8 8 7.5 20.5t-6.5 22.5q-4 6 -10 11.5t-14 12.5
q-10 9 -22 19t-19 21t-9 24t1 25t10.5 21.5t20.5 12.5q12 3 27 2t25 -9q11 -8 15 -21t5 -26l-24 -7q-1 11 -5.5 24t-18.5 17q-10 1 -18.5 -4.5t-10.5 -14.5q-3 -19 10 -32t26 -22q14 -13 26.5 -26.5t17.5 -31.5q5 -27 -9 -47.5t-42 -20.5zM710 -93h34l68 299h-38zM611 644
v218h83v-23h-54v-71h44v-22h-44v-81h55v-21h-84zM758 396v217h84v-23h-54v-71h44v-22h-44v-81h54v-20h-84zM1028 667q13 -5 27 0q9 5 11.5 12.5t3.5 15.5v25v76q0 9 -0.5 19t-8.5 17q-10 12 -26 7q-16 -1 -21 -19q-5 -15 -3 -34t2 -35v-40q0 -11 1 -24.5t14 -19.5zM969 419
q6 -3 14.5 -3t13.5 3q8 5 11.5 13t4.5 16q1 5 0.5 11.5t-0.5 11.5v77q0 9 -0.5 19t-8.5 17q-5 6 -12.5 8t-14.5 0q-15 -4 -21 -21q-3 -15 -2 -33.5t1 -35.5v-39q0 -11 1.5 -24t12.5 -20zM1354 396v45q0 8 1 16.5t-1 15.5q-4 22 -15 42l-31 98h28l33 -104l31 104h30
q-14 -45 -30 -90l-14 -45q-3 -8 -2.5 -15t0.5 -13v-54h-30zM1404 644v218h30v-197h56v-21h-86zM1215 396v217h30v-197h55v-20h-85zM604 -237q-13 0 -19.5 6t-9 15t-2.5 20v20t0.5 19t3.5 17.5t10 12t20 3.5q11 -1 17 -6.5t8.5 -14t2.5 -18v-18.5t-0.5 -18.5t-3 -18t-9 -14
t-18.5 -5.5zM1381 -235v110q11 0 24.5 0.5t23.5 -7.5t9.5 -23t-0.5 -26v-26.5t-12 -22.5q-9 -7 -22 -6t-23 1zM1446 -375q-13 0 -19.5 6t-9 15t-2.5 19.5v19.5q0 10 0.5 20t4 17.5t10.5 12t20 3.5q12 -1 17 -6.5t7 -14t1.5 -18t-0.5 -18.5v-18.5t-2.5 -18t-8.5 -14t-18 -5.5
zM510 -375q-14 0 -20.5 6t-8.5 15t-2 19.5v19.5q0 10 0.5 20t3.5 17.5t10 12t20 3.5q12 -1 17.5 -6.5t8 -14t2.5 -18v-18.5v-18.5t-3 -18t-9.5 -14t-18.5 -5.5zM791 -374v111q11 0 22.5 1t20.5 -4q6 -4 9.5 -11.5t3.5 -15.5t-3.5 -15t-10.5 -10l16 -56h-15l-13 53h-12v-53
h-18zM555 -374l2 111h16l20 -89l19 89h14l2 -111h-12l-1 82l-18 -82h-11l-17 82l-1 -82h-13zM645 -374l2 111h16l19 -89l20 89h16l1 -111h-11l-2 82l-19 -82h-10l-17 82l-2 -82h-13zM1247 -374v111q11 0 22 1t21 -4q6 -4 9.5 -11.5t3.5 -15.5t-3 -15t-10 -10l14 -56h-14
l-14 53h-13v-53h-16zM650 -235v110q10 0 21 1t20 -4q6 -3 10 -11t4.5 -16.5t-3 -15.5t-11.5 -10l16 -54h-15l-16 51h-11v-51h-15zM661 231v112q6 0 13 0.5t14.5 -0.5t14 -3t10.5 -8q4 -10 3 -23t-9 -20q-7 -5 -15 -5.5t-16 -0.5v-52h-15zM1308 -235v110h10l32 -73v73h12
v-110h-9l-32 74v-74h-13zM808 -235v110h14v-48h29v48h16v-110h-16v51h-29v-51h-14zM1493 -374v111h10l32 -74v74h12v-111h-10l-32 76v-76h-12zM831 231l24 112h15l24 -112h-16l-5 29h-23l-5 -29h-14zM962 -374l24 111h15l24 -111h-14l-5 29h-24l-5 -29h-15zM1236 -235
l21 110h17l23 -110h-15l-5 27h-23l-6 -27h-12zM1455 443l-8 170h28l-9 -170h-11zM1067 -235q-16 -5 -27.5 2t-14.5 23q-2 7 -1 13.5t1 12.5v59h14v-49q0 -5 -0.5 -13.5t0.5 -17t4 -15t10 -6.5q8 0 11.5 6.5t5 15t1 17t-0.5 13.5v49h13v-50q0 -7 0.5 -16t-0.5 -18t-4.5 -16
t-11.5 -10zM511 768q8 0 15.5 -0.5t16.5 1.5q11 3 14 11.5t3 19.5q1 12 -1.5 23t-15.5 15q-9 2 -16.5 1.5t-15.5 -0.5v-71zM750 768h15t16 2q10 5 13.5 15t1.5 21q0 10 -2.5 18t-12.5 12q-8 4 -16 3.5t-15 -0.5v-71zM438 -375q-14 0 -20.5 8t-8.5 20t-1.5 25.5t0.5 23.5
q0 15 7.5 26.5t26.5 9.5q17 -2 20.5 -14t3.5 -25h-14v10t-2 10q-2 8 -10.5 8.5t-12.5 -6.5q-5 -6 -3.5 -19t1.5 -21q0 -7 -1.5 -19t4.5 -19q3 -7 11.5 -6t10.5 9q2 5 2 10.5v10.5h14q0 -14 -4 -28t-24 -14zM891 -375q-15 0 -21 8t-7.5 20t-0.5 25.5t1 23.5q0 15 7 26.5
t25 9.5t21.5 -14t3.5 -25h-16q0 5 0.5 10t-1.5 10q-2 8 -10 8.5t-13 -6.5q-5 -6 -4 -19t1 -21q0 -7 -1 -19t5 -19q4 -7 12 -6t10 9q2 5 1.5 10.5t-0.5 10.5h16q0 -14 -4.5 -28t-24.5 -14zM1186 230q-15 0 -21.5 9t-7.5 23l15 5q0 -6 2 -13.5t8 -10.5q7 -2 11.5 2t4.5 11
q1 11 -8.5 19.5t-17.5 16.5q-11 8 -15 22t8 25q15 8 31 3q8 -3 11 -11t4 -16l-13 -3q-1 5 -2.5 10.5t-6.5 10.5q-4 2 -9.5 0t-6.5 -9q-5 -8 2.5 -15.5l12.5 -12.5q7 -6 14 -12.5t9 -17.5q4 -14 -3 -25t-22 -11zM931 230q-14 0 -21.5 9t-8.5 23l15 5q0 -6 2 -13.5t7 -10.5
q8 -2 13 2t5 11q0 11 -10 19.5t-17 16.5q-11 8 -14.5 22t8.5 25q7 4 15.5 4.5t14.5 -1.5q8 -3 11.5 -11t4.5 -16l-13 -3q-1 5 -2.5 10.5t-6.5 10.5q-5 2 -10 0t-7 -9q-3 -8 3.5 -15.5t11.5 -12.5q8 -6 15 -12.5t9 -17.5q4 -14 -3.5 -25t-21.5 -11zM1346 -375q-15 0 -22 10
t-9 23l15 3q0 -5 2 -12t7 -9q8 -5 13 -0.5t5 10.5q0 11 -10 20t-17 15q-10 10 -14 24.5t9 23.5q6 5 15 5.5t15 -2.5q8 -2 11 -10t4 -15l-13 -5q-1 5 -2 11t-6 10q-6 2 -11 0t-7 -8q-4 -8 3 -15t13 -12q7 -8 14 -14.5t9 -17.5q4 -13 -3 -24t-21 -11zM1076 231l-25 112h16
l16 -82l18 82h12l-23 -112h-14zM1142 -374l-25 111h14l18 -81l15 81h16l-26 -111h-12zM969 231v112h44v-10h-28v-38h23v-11h-23v-42h29v-11h-45zM884 -235v110h43v-11h-27v-37h23v-11h-23v-42h27v-9h-43zM1191 -374v111h45v-10h-29v-36h23v-12h-23v-42h29v-11h-45zM736 -374
v111h44v-10h-28v-36h23v-12h-23v-42h28v-11h-44zM781 231v112h43v-10h-29v-38h24v-11h-24v-42h29v-11h-43zM597 -224q9 -4 13.5 -0.5t6 10.5t1.5 15v14q0 4 0.5 11t0.5 14.5t-1.5 14t-5.5 8.5q-11 6 -17.5 -1.5t-6.5 -16.5v-18q0 -4 -0.5 -11.5t0 -16t2.5 -15t7 -8.5z
M1439 -359q9 -5 14 -2.5t7 9.5t2 15v14q0 4 0.5 11t-0.5 14.5t-3 13.5t-6 8q-11 7 -15.5 -0.5t-4.5 -15.5v-17q0 -4 -1 -12t-1 -16t1.5 -14.5t6.5 -7.5zM502 -359q9 -5 13.5 -2.5t6.5 9.5t2 15v14q0 4 0.5 11t0.5 14.5t-1.5 13.5t-5.5 8q-12 7 -17.5 -0.5t-5.5 -15.5
q-1 -5 -0.5 -9t0.5 -8t-0.5 -12t-0.5 -16t1.5 -14.5t6.5 -7.5zM521 -235v110h43v-11h-26v-37h21v-11h-21v-51h-17zM973 -235v110h42v-11h-29v-37h22v-11h-22v-51h-13zM1396 -226q10 0 17 2t9 14v29v29q-1 12 -8 14t-18 2v-90zM764 -235v99h-20v11h56v-11h-20v-99h-16z
M1272 231v102h-21v10h54v-10h-19v-102h-14zM1037 -374v111h14v-100h29v-11h-43zM1101 -235v110h15v-101h28v-9h-43zM1154 -235v110h16v-101h28v-9h-44zM727 231v112h14v-101h29v-11h-43zM1127 231v112h15v-112h-15zM1302 720h37l-19 99zM401 -63h40v44h-40v-44zM935 -374
v111h16v-111h-16zM1385 -374v111h14v-111h-14zM1225 231v112h16v-112h-16zM1447 396v31h28v-31h-28zM676 294h8t9 2q6 2 7 8t1 12q-1 14 -7.5 15.5t-17.5 1.5v-39zM665 -173q10 0 17.5 3t7.5 16t-7 15.5t-18 2.5v-37zM1263 -309q11 0 18 2.5t7 15.5q0 11 -7 14.5t-18 3.5
v-36zM809 -309q10 0 16.5 2.5t6.5 15.5q0 11 -6.5 14.5t-16.5 3.5v-36zM984 -335h19l-9 51zM1256 -196h20l-10 50zM851 271h20l-8 51zM338 61l-41 115h-31v-239h37v117l42 -117h30v239h-37v-115zM1465 176l-44 -239h40l9 56h26l8 -56h40l-42 239h-37zM1476 29l7 47l7 -47
h-14zM1296 25v-18.5t1 -18.5q3 -16 10.5 -30t24.5 -19q13 -4 28 -3.5t26 7.5q10 6 15.5 15.5t7.5 20.5t2.5 22.5t0.5 21.5h-40q0 -10 0.5 -19t-1.5 -17q-1 -11 -13 -15q-11 -1 -19 10q-3 11 -2.5 23.5t0.5 23.5v56q0 11 -0.5 23.5t2.5 23.5q8 11 19 10q12 -4 13 -15
q2 -8 1.5 -17t-0.5 -19h40q0 10 -0.5 21.5t-2.5 22.5t-7.5 20.5t-15.5 15.5q-11 7 -26 7.5t-28 -3.5q-17 -5 -24.5 -19t-10.5 -30q-1 -9 -1 -18.5v-18.5v-64zM1722 176l-44 -239h40l9 56h26l8 -56h40l-42 239h-37zM1636 61l-20 22l-12 12t-9 16q-2 4 -2 9.5t1.5 10.5t5 8
t9.5 3q6 -1 9.5 -6.5t4.5 -12.5t1.5 -14.5t0.5 -12.5l37 2q0 22 -5 44.5t-26 31.5q-13 6 -26 5t-23.5 -7t-17.5 -16.5t-8 -24.5q-2 -14 0.5 -29t10.5 -26q3 -7 9 -12t11 -11q11 -14 24.5 -27.5t13.5 -33.5q0 -7 -1.5 -13t-8.5 -7q-5 -2 -9 0.5t-6 7.5q-5 10 -6 21l-2 22
l-37 -3q0 -15 1.5 -29t7.5 -28q8 -17 24.5 -24.5t33.5 -3.5q19 3 29.5 17t12.5 30q4 45 -28 79zM1899 176h-104v-38h32v-201h40v201h32v38zM1733 29l7 47l7 -47h-14zM1223 33h52v44h-52v-44zM862 176h-40v-239h88v35h-48v204zM915 25v-18.5t1 -18.5q3 -16 10.5 -30t24.5 -19
q13 -4 28 -3.5t26 7.5q10 6 15.5 15.5t7.5 20.5t2.5 22.5t0.5 21.5v68q0 10 -0.5 21.5t-2.5 22.5t-7.5 20.5t-15.5 15.5q-11 7 -26 7.5t-28 -3.5q-17 -5 -24.5 -19t-10.5 -30q-1 -9 -1 -18.5v-18.5v-64zM991 91v-68q0 -10 0.5 -19t-1.5 -17q-1 -11 -13 -15q-11 -1 -19 10
q-3 11 -2.5 23.5t0.5 23.5v56q0 11 -0.5 23.5t2.5 23.5q8 11 19 10q12 -4 13 -15q2 -8 1.5 -17t-0.5 -19zM1140 166h-30l-21 -139l-14 149h-40l30 -239h40l20 114l20 -114h40l30 239h-40l-14 -149z" />
    <glyph glyph-name="colon" unicode=":" horiz-adv-x="303" 
d="M74 177q10 2 25 -4.5t29.5 -17.5t26 -25t16.5 -27l-26 -28q-12 -12 -26.5 -25.5t-31.5 -24.5q-9 -2 -22 1t-26.5 9t-26 14.5t-19.5 16.5q10 20 23 40q11 17 26 36t32 35zM177 450q10 1 25 -5.5t29.5 -17.5t26 -25.5t16.5 -28.5q-12 -13 -26 -26q-12 -11 -27.5 -24.5
t-32.5 -24.5q-8 -2 -20.5 1t-26 9t-25.5 14t-19 16q11 19 23 39q11 17 25.5 36.5t31.5 36.5z" />
    <glyph glyph-name="semicolon" unicode=";" horiz-adv-x="273" 
d="M173 451q10 1 24 -5.5t28 -17.5t25.5 -25.5t15.5 -28.5q-12 -14 -25 -28q-11 -12 -25.5 -26t-31.5 -25q-8 -2 -20 1t-25 9t-24.5 14t-18.5 16q10 21 22 41q11 17 24.5 37.5t30.5 37.5zM-110 -93q26 26 51.5 61t47 72.5t37.5 74t23 65.5q22 -3 39 -12t28.5 -21.5t17 -26
t5.5 -23.5q-16 -27 -40 -59t-53 -63.5t-61.5 -59.5t-65.5 -45q-11 5 -20 15t-9 22z" />
    <glyph glyph-name="less" unicode="&#x3c;" horiz-adv-x="490" 
d="M452 462q-15 -15 -47 -36t-73.5 -45t-88.5 -48t-92 -45q15 -18 40 -42.5t52 -49t52.5 -45.5t43.5 -32q-2 -4 -10.5 -10t-22.5 -12.5t-31 -11.5t-35 -7q-14 8 -36 27t-46 43.5t-47.5 53.5t-38.5 56q-8 2 -16.5 10.5t-3.5 33.5q18 9 46.5 27t62 41t69 49t69 51.5t62 48
t46.5 38.5q14 -9 25 -22q9 -11 15.5 -29t4.5 -44z" />
    <glyph glyph-name="equal" unicode="=" horiz-adv-x="628" 
d="M47 198q0 4 -1 11t0.5 16t7 19.5t17.5 21.5q19 -2 51.5 -3t71 -1t81 1.5t82.5 3t74 4t57 5.5q0 -6 -1 -17.5t-5.5 -25t-12.5 -28t-22 -26.5q-24 -4 -71 -5t-104 1.5t-117 8t-108 14.5zM127 380q0 4 -1 11t0.5 16t7 19.5t17.5 21.5q19 -2 51.5 -3t71 -1t80.5 1.5t82 3
t74 4t57 5.5q0 -6 -1 -17.5t-5.5 -25t-12.5 -28t-22 -26.5q-24 -4 -71 -5t-104 1.5t-116.5 8t-107.5 14.5z" />
    <glyph glyph-name="greater" unicode="&#x3e;" horiz-adv-x="491" 
d="M53 172q15 14 46.5 35t72.5 44.5t87.5 47.5t91.5 45q-14 18 -39 43t-53 50t-54.5 47t-44.5 34q1 4 11 10t25 11.5t33 10t36 6.5q13 -8 35.5 -27t46.5 -44t47 -54t39 -56q8 -2 16 -10.5t4 -32.5q-18 -9 -46.5 -27t-62 -41t-69 -49t-69 -51.5t-62 -48t-46.5 -38.5
q-14 9 -25 22q-9 11 -15.5 29t-4.5 44z" />
    <glyph glyph-name="question" unicode="?" horiz-adv-x="468" 
d="M93 18q-10 -2 -24.5 5t-29 18.5t-25.5 25.5t-15 28q11 14 24 29q11 12 26 26.5t32 25.5q8 2 20.5 -1t25.5 -9t25 -14.5t19 -17.5q-11 -21 -23 -41q-11 -17 -24.5 -37.5t-30.5 -37.5zM94 273q33 48 72.5 73t78.5 45.5t73.5 45.5t56.5 73q12 26 12 50t-7.5 43.5t-21 32
t-28.5 16.5q-36 -8 -68 -35.5t-55.5 -62t-37 -69t-13.5 -56.5q-29 8 -54.5 30t-29.5 51q8 36 35.5 69t67 59t89.5 44.5t103 25.5q13 0 37 -11.5t48 -33.5t42.5 -53t20.5 -70q-11 -42 -38 -71.5t-61.5 -51.5t-74 -40.5t-77 -38.5t-69.5 -44.5t-52 -59.5q-14 3 -28.5 11
t-20.5 28z" />
    <glyph glyph-name="at" unicode="@" horiz-adv-x="791" 
d="M258 39q-48 0 -76.5 15.5t-39.5 41.5t-6.5 60t20.5 71t43 74.5t61 70.5q19 18 40 34t43 28t43.5 19.5t40.5 8.5q13 -4 27 -10q12 -5 25.5 -12.5t26.5 -15.5q9 14 17 20q16 14 33 9.5t40 -24.5q-10 -20 -25 -49t-31.5 -62.5t-32.5 -69.5t-28 -70t-17.5 -63t-1.5 -48
q27 13 60 46t62.5 77t51 94t26 98t-13 90t-66.5 69q-52 28 -102.5 29t-101 -21t-100 -64.5t-99.5 -100.5q-44 -51 -76.5 -112.5t-46.5 -121t-5 -109.5t48 -78q24 -18 57 -26t68.5 -3t71.5 24.5t67 56.5q5 -29 0.5 -52t-15 -41t-26 -30.5t-33.5 -19.5q-63 -11 -121 3
t-103 45.5t-74.5 75.5t-35.5 94q6 82 43 164.5t92.5 153.5t123 126t135.5 83q33 5 72.5 5t77.5 -5t72.5 -15t57.5 -24q58 -36 82.5 -86t23 -106.5t-24.5 -115t-58.5 -110.5t-79 -94.5t-87.5 -65.5q-18 3 -34.5 11.5t-30 18.5t-22 19.5t-9.5 14.5q-4 15 -3 35t5.5 43
t12.5 48.5t17 51.5zM449 391q-40 -9 -76 -31t-65 -50.5t-50 -60.5t-32.5 -61.5t-12 -52.5t12.5 -33l224 245v24t-1 20z" />
    <glyph glyph-name="A" unicode="A" horiz-adv-x="865" 
d="M141 -59q-14 -3 -33 -2t-38 6t-34.5 15t-22.5 25q12 43 48 99.5t87 120.5q-75 -11 -135 -32q-3 6 -5 19.5t-1 30t5 34t14 29.5q30 16 87 21.5t124 1.5q63 71 133 141t135 130t119.5 106t88.5 69q27 6 52 6.5t45.5 -3.5t34 -12.5t17.5 -20.5q-45 -117 -89 -226.5
t-78 -202.5t-53.5 -166t-16.5 -116q36 22 73.5 55.5t70 69t58 68t38.5 51.5q10 -2 18 -6q7 -3 11.5 -9t2.5 -14q-10 -16 -36.5 -54t-64 -80.5t-83.5 -81t-94 -56.5q-12 -4 -29 1.5t-34.5 16t-31.5 23t-20 22.5q-5 29 3 71.5t26 96.5q-35 13 -95.5 20t-132.5 7
q-35 -45 -63.5 -86t-50 -76.5t-34.5 -64t-16 -47.5zM761 662q-53 -36 -104.5 -79.5t-101.5 -91t-96.5 -97.5t-88.5 -99q57 -9 105 -22.5t77 -30.5q35 92 90 200t119 220z" />
    <glyph glyph-name="B" unicode="B" horiz-adv-x="735" 
d="M749 637q-3 -45 -28 -83.5t-63.5 -70t-86 -56t-94.5 -41.5q58 6 100 -13t63 -52t19 -76t-31 -85q-56 -80 -137.5 -136t-173.5 -82v-1q-71 2 -117 13t-72 31q-12 -4 -26 -6.5t-27.5 -2.5t-25 4.5t-18.5 14.5q15 57 43 134t63.5 161.5t77 169.5t83.5 157q-61 -42 -114 -99
t-95 -130q-15 1 -29 9.5t-25.5 21.5t-18.5 29.5t-8 34.5q32 51 76 90t92.5 67.5t98 48.5t91.5 34q16 22 33 42q15 2 32 0.5t33 -6.5h1q55 12 103.5 9.5t86 -18t62 -44t32.5 -69.5zM253 295q-32 -74 -55.5 -141t-35.5 -118q23 -16 56 -24t58 -2q33 9 67 29t65.5 47t57.5 59
t44 66q17 33 15.5 65.5t-30 50.5t-87 13.5t-155.5 -45.5zM497 707q-58 -68 -110.5 -154t-96.5 -177q94 27 155 61t97.5 69.5t52 70t18.5 63.5q3 24 -4.5 40t-22 25t-35 10t-43.5 -5z" />
    <glyph glyph-name="C" unicode="C" horiz-adv-x="617" 
d="M617 258q10 -2 18 -6q7 -3 11.5 -9t2.5 -14q-24 -36 -56 -77t-71.5 -80t-85 -73t-96.5 -56q-68 2 -121 18t-93 42.5t-67.5 61t-45.5 73.5q-10 55 2 118t40 127t69 125t91 113.5t105.5 92t112.5 59.5q53 0 96 -10.5t74.5 -27t51 -37t25.5 -41.5q0 -29 -17 -60.5
t-43.5 -58.5t-58 -46t-61.5 -23q15 41 27 75q11 29 19 56.5t9 35.5q0 8 -4 21.5t-12.5 26.5t-20 22.5t-26.5 10.5q-49 -24 -94.5 -62.5t-85 -85.5t-71.5 -99t-54 -104.5t-32.5 -101.5t-6.5 -89q5 -31 22 -61t43.5 -54t62.5 -38.5t79 -14.5q40 15 80.5 48t76.5 71t63.5 74.5
t41.5 57.5z" />
    <glyph glyph-name="D" unicode="D" horiz-adv-x="779" 
d="M763 630q9 -59 -2 -128.5t-37.5 -140t-66.5 -138t-88.5 -124t-104.5 -97.5t-114 -58q-66 -6 -113.5 3.5t-77.5 26.5q-2 -8 -3 -14t-2 -13q-9 -4 -25.5 -5t-34.5 1.5t-35 9.5t-26 21q11 40 28.5 92.5t40 111.5t49.5 122.5t56 125.5t60 120.5t61 107.5q-72 -44 -134 -113.5
t-105 -157.5q-11 1 -24 8t-24.5 19t-20.5 27.5t-12 33.5q39 54 88 96t99.5 74.5t99 55t86.5 36.5q12 16 24 30q14 2 30.5 0t33.5 -7l11 3q111 23 185.5 -10t97.5 -119zM515 711q-56 -62 -108 -147.5t-96.5 -177.5t-79 -182t-54.5 -161q17 -20 50 -30.5t75 -4.5
q45 18 89 60.5t83.5 99t73 121t56.5 128t34 120t7 96.5q-9 43 -42.5 65.5t-87.5 12.5z" />
    <glyph glyph-name="E" unicode="E" horiz-adv-x="635" 
d="M635 258q10 -2 18 -6q7 -3 11.5 -9t2.5 -14q-24 -36 -56 -77t-71.5 -80t-85 -73t-96.5 -56q-73 0 -133.5 21.5t-105.5 56t-72.5 78t-33.5 88.5q5 52 31 93.5t65 72.5t87.5 52.5t99.5 33.5q-34 22 -46 52.5t-6.5 64t24.5 67.5t46.5 63.5t60 52.5t64.5 35q56 -1 103 -12
t82 -28t56.5 -37.5t26.5 -39.5q1 -22 -11.5 -46.5t-35.5 -45.5t-54 -36.5t-66 -18.5q14 33 25 61q9 23 16.5 45t7.5 27q0 8 -5.5 20t-15.5 23t-24 19t-30 7q-45 -21 -79 -51.5t-51.5 -65.5t-16.5 -71.5t25 -69.5q74 6 127 -8q6 -10 7.5 -26t-0.5 -32.5t-6.5 -30t-10.5 -17.5
q-19 1 -37.5 7.5t-37.5 15.5t-38 19t-39 18q-44 -12 -80.5 -35.5t-63 -53t-42.5 -61t-20 -60.5q5 -31 23.5 -63.5t47.5 -58.5t67 -43t83 -17q40 15 80.5 47.5t76.5 70.5t64 74.5t42 57.5z" />
    <glyph glyph-name="F" unicode="F" horiz-adv-x="604" 
d="M137 -54q-23 -8 -43.5 -8.5t-36.5 4t-27 11.5t-16 15q20 66 53.5 149.5t75.5 175.5q-32 -8 -50 -19q-8 1 -9.5 9.5t-0.5 19.5q1 12 4 27q14 12 38 22.5t54 19.5q35 75 71.5 147.5t71.5 138.5q-66 -9 -116 -22.5t-74 -28.5q-11 1 -13 14t0 29q3 18 10 41q27 20 76 37.5
t108.5 30t124.5 20t125 9t109.5 -4.5t78.5 -19q12 -14 15.5 -34t2.5 -40q-1 -23 -7 -47q-37 12 -81 18.5t-91.5 9t-97 1.5t-97.5 -5q31 -16 41 -36q-30 -49 -61.5 -108.5t-62.5 -124.5q38 4 75 5.5t69 -0.5t56.5 -8.5t38.5 -17.5q7 -14 6 -32t-6 -35q-5 -19 -15 -40
q-21 12 -51.5 20.5t-65.5 13t-73 6t-74 0.5q-45 -100 -80 -195t-55 -169z" />
    <glyph glyph-name="G" unicode="G" horiz-adv-x="759" 
d="M307 338q16 13 47 24t69 18.5t79.5 11.5t79.5 3t68.5 -6t46.5 -16q5 -11 4.5 -26.5t-5 -30t-10.5 -26.5t-12 -17q-34 16 -82 24q-18 -36 -37 -78.5t-34 -83.5t-22 -77t-1 -59q24 10 61 41.5t75.5 70.5t72.5 79.5t52 67.5q10 -2 18 -6q7 -3 11.5 -9t2.5 -14
q-12 -21 -42.5 -58.5t-70.5 -80t-86 -84.5t-89 -71q-19 3 -36.5 10.5t-31.5 18t-23.5 21.5t-11.5 21q-5 28 5.5 73t28.5 94q-38 -62 -78.5 -123.5t-81.5 -106.5q-59 8 -102.5 26.5t-75 44.5t-51.5 58.5t-33 68.5q-10 59 5 123.5t46 128t75.5 124t95.5 111t104 88t101 56.5
q62 -1 106 -12.5t73 -28.5t44 -37t19 -37q1 -24 -12 -50.5t-36 -50t-54 -40.5t-67 -21q12 34 21 62q8 24 14 47t7 32q0 9 -4 22t-11.5 25t-19 20.5t-25.5 9.5q-49 -24 -95.5 -62.5t-87 -86t-73.5 -101t-56 -106t-34.5 -102t-7.5 -89.5q5 -25 17.5 -48t29 -41t35.5 -31
t37 -19q25 21 55 56.5t59.5 76t55.5 80t44 67.5q-57 -1 -104 -9t-67 -22q-6 4 -7 14t1 20t5.5 18t5.5 10z" />
    <glyph glyph-name="H" unicode="H" horiz-adv-x="881" 
d="M385 764q9 4 27.5 6t38.5 -1t38.5 -11.5t29.5 -24.5q-7 -32 -20 -75t-31.5 -92t-41.5 -103t-48 -109q57 -7 109.5 -18.5t90.5 -25.5q23 52 50 107.5t54 113t53 116.5t48 118q13 2 32 1t36.5 -5.5t31 -12.5t16.5 -20q-22 -68 -53 -139.5t-64 -140.5t-64.5 -134.5t-55 -122
t-34.5 -103t-3 -77.5q38 16 77.5 49t75 70t62.5 72t41 56q9 -2 17 -6q6 -3 11.5 -9t3.5 -14q-10 -16 -36.5 -54t-64 -80.5t-83.5 -81t-94 -56.5q-12 -4 -31.5 -1t-40.5 12.5t-40 24.5t-31 34q-3 40 13.5 96.5t45.5 125.5q-44 11 -99 15.5t-115 2.5q-25 -50 -50.5 -96.5
t-51 -87.5t-50 -75t-46.5 -58q-21 -5 -41.5 -2t-38 9.5t-30 16.5t-18.5 21q52 50 98 117.5t87 143.5q-83 -11 -148 -35q-2 3 -4.5 15.5t-2 29.5t6 36.5t19.5 37.5q29 13 77 19t105 4q30 65 54 128t41 116.5t27.5 94.5t13.5 62z" />
    <glyph glyph-name="I" unicode="I" horiz-adv-x="503" 
d="M417 770q13 2 29 -0.5t30.5 -9.5t26 -18t17.5 -26q-43 -122 -95 -233.5t-95.5 -204.5t-70 -165.5t-17.5 -116.5q39 18 80 53.5t77 75t63.5 76.5t40.5 57q1 0 6.5 -1t11.5 -4.5t10.5 -9t3.5 -14.5q-6 -11 -20.5 -33t-35 -50t-46.5 -58.5t-55 -58.5t-61 -51t-64 -34
q-12 -4 -31 0t-38.5 14.5t-37 26t-25.5 35.5q-2 47 23.5 119t65.5 160.5t87.5 189t89.5 202.5q-63 -54 -111 -100.5t-80.5 -90.5t-49.5 -87.5t-18 -91.5q-11 -5 -27.5 -6t-33.5 2.5t-32.5 11.5t-23.5 21q11 62 47.5 115.5t91 104t123.5 99.5t144 101z" />
    <glyph glyph-name="J" unicode="J" horiz-adv-x="699" 
d="M759 689q-34 -12 -89 -21q17 -6 30 -16t21 -22q-31 -49 -56.5 -114.5t-51.5 -137t-54.5 -142.5t-65 -131t-84 -103.5t-110.5 -58.5q-76 -6 -130.5 10t-90 44t-52 61.5t-16.5 61.5q5 27 21 54.5t39.5 49.5t53.5 36.5t63 15.5q-19 -44 -34 -79q-13 -30 -23 -56.5t-10 -31.5
q-1 -8 7 -26.5t24 -37.5t40 -34t56 -15q40 15 75.5 56.5t68 100t61.5 127.5t56 138t51.5 131.5t48.5 108.5q-51 -7 -106.5 -12t-106.5 -7t-93.5 -0.5t-67.5 7.5q-6 15 -2.5 34.5t11.5 38t18 32.5t18 19q52 -15 124 -21.5t145 -6t138 9t104 24.5q5 -7 5 -18.5t-4.5 -23.5
t-13 -24t-18.5 -21z" />
    <glyph glyph-name="K" unicode="K" horiz-adv-x="756" 
d="M132 -55q-16 -5 -33.5 -6t-34 2t-31 11.5t-24.5 23.5q13 53 36 121.5t53 143t65 151.5t72 147.5t74.5 129.5t72.5 99q51 8 81.5 -7.5t41.5 -36.5q-61 -64 -116.5 -154.5t-103.5 -188.5q13 9 30 16.5t34 10.5q10 2 22 -1q32 38 68.5 77.5t73.5 77.5t74 72t70.5 61.5
t62 46.5t49.5 27q29 -2 49.5 -11.5t34.5 -22t21.5 -25.5t10.5 -22q-32 -8 -85.5 -36.5t-116.5 -70t-129.5 -92t-122.5 -102.5q23 -11 43.5 -23.5t35.5 -26.5q9 -23 11.5 -53.5t2 -63.5t-2 -66.5t-0.5 -63t6 -53t18 -36.5q24 21 53 54t58.5 69t55.5 71.5t44 62.5q2 0 7.5 -1
t11.5 -4.5t10 -9t3 -14.5q-12 -21 -38.5 -56.5t-60 -77t-71.5 -82.5t-73 -72q-40 4 -78 25t-61 56q-5 16 -5.5 42.5t1 57.5t3 64t0.5 63t-7 54.5t-20 38.5q-40 -17 -73 -20t-42 11q-26 -58 -48 -114.5t-39 -107.5t-28.5 -93.5t-15.5 -72.5z" />
    <glyph glyph-name="L" unicode="L" horiz-adv-x="621" 
d="M28 27q29 18 66 29q16 53 39 116t51 129.5t59.5 133.5t64 128.5t66 113t65.5 88.5q23 3 45 0.5t41 -9t32.5 -16t19.5 -19.5q-57 -59 -112 -140t-103.5 -168t-87 -173.5t-61.5 -157.5q51 6 103.5 7t99.5 -3.5t84.5 -15.5t58.5 -27q8 -17 10.5 -37t2 -38.5t-4 -32.5
t-8.5 -19q-38 22 -87 36.5t-103 22t-108.5 9.5t-102 -1.5t-84.5 -12t-56 -20.5q-8 5 -8.5 16.5t2.5 24t8 23t8 13.5z" />
    <glyph glyph-name="M" unicode="M" horiz-adv-x="1057" 
d="M1057 258q1 0 6.5 -1t11.5 -4.5t10.5 -9.5t3.5 -14q-9 -16 -36 -54t-65.5 -80.5t-84.5 -81t-94 -56.5q-11 -4 -30 1t-38.5 15.5t-36.5 25.5t-23 31q1 44 26 112t64.5 150t89 174.5t100.5 186.5q-54 -49 -109 -111t-106.5 -129t-97.5 -134t-82 -125.5t-60 -104t-31 -68.5
q-7 -2 -17.5 -2.5t-21.5 1t-21.5 6.5t-18.5 14q-12 8 -24.5 20t-24.5 26q3 46 21 109t48 139.5t69.5 164t86.5 183.5q-52 -51 -103.5 -116.5t-99 -136t-89.5 -140.5t-74.5 -131t-54.5 -107.5t-29 -69.5q-32 -6 -65.5 7t-47.5 46q22 50 57.5 116t80.5 138.5t95.5 147.5
t101.5 143t98.5 125.5t87.5 94.5q51 9 89.5 -1t52.5 -33q-68 -160 -117.5 -293t-74.5 -232q48 81 104.5 163.5t114 157t113 135.5t100.5 100q19 6 42 8.5t43 0t35.5 -12t21.5 -27.5q-50 -116 -93 -225t-74.5 -201.5t-50 -165.5t-18.5 -117q36 22 73.5 55.5t70 68.5t58 67
t37.5 51z" />
    <glyph glyph-name="N" unicode="N" horiz-adv-x="753" 
d="M523 725q-24 -108 -36.5 -203t-15.5 -174.5t3 -142.5t19 -108q23 89 54.5 185t68.5 186t78 166t85 125q19 7 40.5 8.5t41 -1.5t35.5 -10.5t26 -17.5q-57 -56 -107.5 -129t-93.5 -153t-77.5 -160.5t-58.5 -150.5t-37 -124.5t-13 -81.5q-11 -4 -32 1t-44.5 15.5t-44 24.5
t-30.5 26q-13 43 -19.5 111t-5 151.5t11.5 176t30 183.5q-44 -50 -81 -112.5t-67.5 -129.5t-53.5 -135t-39 -128t-24 -108t-7 -76q-9 -1 -25 1t-33.5 8t-34 17t-26.5 29q7 49 28 114t52 137t69 147t77 143.5t77.5 126t70.5 94.5q15 4 34 4.5t38.5 -3.5t36.5 -12t29 -20h1v0z
" />
    <glyph glyph-name="O" unicode="O" horiz-adv-x="701" 
d="M643 674q14 -20 21.5 -46.5t10.5 -56t1.5 -60t-6.5 -58.5q-12 -66 -36.5 -131t-59 -125t-78 -112t-94.5 -92q-38 -30 -79.5 -43t-82.5 -10t-80.5 22.5t-74.5 54.5q-22 22 -39 51.5t-26 65.5t-8.5 78.5t12.5 91.5q13 57 37 113t56 108.5t71.5 98.5t83.5 83q103 85 233 61
q48 -9 80 -33t58 -61zM131 200q-3 -23 -1 -50t9 -52.5t18 -47.5t26.5 -34.5t35.5 -14t44 14.5q38 25 74.5 63t69.5 84.5t60.5 98t48 103t32.5 99.5t14 88q1 31 -7 68t-25 64t-43.5 37t-62.5 -14q-42 -28 -78.5 -67.5t-68 -86t-56.5 -96.5t-44 -97t-30.5 -88.5t-15.5 -71.5z
" />
    <glyph glyph-name="P" unicode="P" horiz-adv-x="706" 
d="M787 580q-8 -47 -33 -92t-68.5 -87.5t-106.5 -81t-147 -71.5q-24 -9 -50.5 -15t-53 -8.5t-50.5 -1t-42 7.5q-35 -88 -58.5 -163t-30.5 -123q-9 -4 -26.5 -5t-36 2t-36 10.5t-26.5 21.5q16 59 45.5 141.5t68 172.5t82.5 180t88 165q-69 -45 -129.5 -109t-103.5 -145
q-16 2 -28 11t-20.5 22t-13.5 27.5t-5 28.5q33 51 77 90.5t92 70t96.5 52.5t89.5 37q10 14 19 25.5t19 22.5q16 2 36.5 -1t40.5 -9q67 13 122.5 7t95.5 -29.5t64 -62.5t29 -91zM510 709q-36 -40 -70 -90t-66.5 -105.5t-61.5 -114t-54 -116.5q17 1 40.5 4.5t56.5 16.5
q71 27 124 65.5t89 80t55.5 80t22.5 65.5q3 26 -6 48.5t-27.5 38t-45 23t-57.5 4.5z" />
    <glyph glyph-name="Q" unicode="Q" horiz-adv-x="704" 
d="M651 672q14 -20 22 -46t10.5 -55.5t1 -60t-6.5 -58.5q-12 -64 -35 -127.5t-56.5 -121.5t-76 -109.5t-92.5 -91.5q26 -32 51.5 -60.5t49 -52t43.5 -40.5t35 -26q-8 -10 -22 -19t-33.5 -15.5t-43.5 -9t-51 2.5q-27 19 -59 63.5t-65 104.5q-61 -19 -122.5 -2.5t-114.5 69.5
q-45 45 -64 117t5 169q13 58 38 114t58 107t71.5 96.5t80.5 81.5q51 45 110.5 60.5t125.5 3.5q49 -9 81.5 -33t58.5 -61zM136 196q-3 -23 -1.5 -51t8 -54.5t17.5 -48.5t27.5 -34t39 -11t51.5 21l7 5q-30 60 -57.5 124t-50.5 125q1 2 5.5 7t11.5 9t16.5 5.5t21.5 -2.5
q22 -50 54 -102.5t68 -103.5q43 48 82 108.5t68 124t46.5 124t19.5 108.5q1 31 -6.5 68t-24.5 64t-43.5 36.5t-63.5 -14.5q-42 -27 -79.5 -67t-69 -86.5t-57 -96.5t-44.5 -97.5t-30.5 -89t-15.5 -71.5z" />
    <glyph glyph-name="R" unicode="R" horiz-adv-x="745" 
d="M756 620q-11 -79 -85.5 -152t-211.5 -136q23 -15 38 -32q12 -38 14 -82t3 -86t5 -76t20 -50q24 22 53 54.5t57.5 67.5t53.5 69.5t42 60.5q10 -2 18 -6q7 -3 11.5 -9t2.5 -14q-12 -21 -38.5 -56.5t-60 -77t-71.5 -82.5t-73 -72q-36 7 -73 23t-62 57q-6 23 -5 62t2 81
t-0.5 81t-13.5 62q-19 -4 -37.5 -5t-34 0.5t-25.5 6t-13 12.5q-26 -57 -47.5 -111.5t-38 -103.5t-27.5 -90.5t-15 -70.5q-9 -4 -26 -5t-36 1.5t-36.5 10t-26.5 21.5q16 61 47.5 146.5t71.5 179.5t86 186.5t92 166.5q-72 -43 -135 -109t-105 -157q-15 2 -28 11t-23 23
t-15.5 32t-5.5 39q36 51 81.5 88.5t93.5 65.5t95.5 46.5t88.5 32.5q8 11 16.5 21.5t16.5 19.5q14 2 32.5 0t35.5 -7q1 1 2 0.5t2 0.5q55 12 104 6t87 -25.5t63.5 -50t33.5 -69.5zM514 716q-64 -69 -122.5 -165.5t-106.5 -200.5q12 11 30 21t35 12q6 1 21 -4.5t34 -14.5
q54 29 94 65.5t67 73t41.5 70t16.5 55.5t-7.5 38.5t-25.5 28t-36.5 16.5t-40.5 5z" />
    <glyph glyph-name="S" unicode="S" horiz-adv-x="725" 
d="M578 487q3 8 10.5 27.5t15 42t13 44t4.5 32.5q0 10 -4.5 24t-13 27t-21 22t-28.5 9q-18 -2 -42 -20t-46 -47.5t-37.5 -66.5t-16.5 -77q15 -39 45 -64t64.5 -47t67.5 -47t54 -64q5 -45 -14.5 -98t-60 -102t-99.5 -87t-133 -52q-72 -14 -132.5 -3.5t-104 34t-67.5 55
t-22 60.5q0 21 11 48.5t33.5 52t57 41.5t81.5 17q-7 -8 -18 -28t-21 -43t-17 -46t-7 -37q0 -17 10.5 -36.5t30 -35t45.5 -24.5t56 -4q45 7 88 40t76.5 78t54.5 95t22 92q-21 31 -51.5 55.5t-63 46.5t-62 43.5t-47.5 46.5q-7 34 4.5 77.5t37 83.5t63 71t83.5 40
q57 12 105.5 4.5t84 -25.5t56.5 -42t23 -46q2 -21 -11 -46.5t-36.5 -49t-54.5 -42.5t-66 -29z" />
    <glyph glyph-name="T" unicode="T" horiz-adv-x="484" 
d="M170 -55q-18 -8 -35.5 -9t-32.5 3t-27.5 12t-20.5 18q22 68 54 152.5t71.5 176t85 186t94.5 181.5q-42 0 -81 -2t-72 -6t-58.5 -9t-40.5 -12q-11 4 -12.5 16t1.5 25.5t8 26t9 17.5q29 15 79.5 26t111.5 17t127 6.5t126.5 -3.5t109.5 -14t76 -25q10 -18 12 -38t-0.5 -37
t-7 -29t-7.5 -16q-61 25 -142.5 38t-165.5 17q20 -12 32 -35q-30 -47 -60 -104.5t-58.5 -119t-55 -125.5t-49 -124t-41 -114t-30.5 -96z" />
    <glyph glyph-name="U" unicode="U" horiz-adv-x="803" 
d="M858 734q-17 -17 -43 -59.5t-56 -101.5t-61 -130.5t-56 -147t-41.5 -150.5t-18.5 -142q24 21 55.5 54t62.5 69t58.5 71t44.5 61q10 -2 18 -6q7 -3 11.5 -9t2.5 -14q-12 -21 -39.5 -57t-62.5 -77.5t-73.5 -83.5t-74.5 -73q-44 -2 -80 22.5t-53 56.5q-1 32 6.5 75t21.5 93
t33 105t42 111q-42 -62 -90 -129.5t-97.5 -130t-98 -115t-90.5 -85.5q-23 -5 -47.5 0.5t-47.5 17t-42 27.5t-30 32q-6 54 5 116.5t34.5 129t58.5 135t77 134t90 126t99 112.5q47 5 80.5 -2t56.5 -30q-111 -109 -187.5 -215.5t-123 -199.5t-65.5 -167.5t-15 -119.5
q44 14 97 62t118.5 125.5t147 182.5t182.5 233q20 35 38.5 66.5t36.5 57.5q21 6 40.5 5t35 -6.5t26 -13t14.5 -15.5z" />
    <glyph glyph-name="V" unicode="V" horiz-adv-x="641" 
d="M672 762q9 3 27.5 2.5t38.5 -5.5t37 -15t22 -26q-26 -60 -76 -133.5t-113 -151t-132 -154.5t-133 -142.5t-116 -115.5t-80 -74q-15 -5 -37 -7.5t-43 -0.5t-36.5 11t-17.5 28q59 140 98.5 264t61.5 221t28.5 162t0.5 88q9 12 26 20.5t37 13t40.5 5t36.5 -5.5
q12 -32 -1 -99.5t-45.5 -160.5t-81 -205t-107.5 -232q59 51 122 117.5t123.5 138t115 143t97.5 133.5t71 109.5t36 71.5z" />
    <glyph glyph-name="W" unicode="W" horiz-adv-x="916" 
d="M929 763q21 3 41 0.5t37 -9.5t29.5 -19.5t18.5 -28.5q-24 -51 -60 -117t-80 -138t-93.5 -145.5t-100 -141t-100 -124t-92.5 -93.5q-15 -5 -36.5 -5t-42 4t-37.5 12t-24 20q61 141 99 252.5t56 196.5q-52 -76 -110 -151t-112 -139.5t-99.5 -114.5t-72.5 -75
q-15 -5 -38 -7.5t-45 -0.5t-38 11t-19 28q37 73 70.5 153.5t62 159.5t51 152.5t37 133t20.5 101.5t1 57q12 9 30.5 14.5t37 7.5t34.5 2.5t23 -0.5q12 -30 -4.5 -102t-53.5 -167.5t-89.5 -206.5t-111.5 -219q53 49 103.5 107t95.5 118t84 119t68.5 110.5t49.5 91.5t27 63
q9 3 26.5 3.5t35.5 -4t34 -15.5t22 -32q9 -100 -35.5 -238.5t-136.5 -324.5q54 53 105.5 119.5t98 136.5t85.5 139.5t69.5 129.5t50.5 106.5t28 69.5z" />
    <glyph glyph-name="X" unicode="X" horiz-adv-x="810" 
d="M770 771q34 4 62.5 -12t40.5 -58q-21 -45 -59 -98.5t-87.5 -111t-107 -117t-116.5 -116.5q22 -76 50 -139t59 -102q24 22 51.5 53.5t55 65t51.5 66t40 56.5q9 -2 17 -6q6 -3 11.5 -9t3.5 -14q-12 -20 -37.5 -55t-58.5 -75t-70 -80.5t-72 -71.5l-3 -6q-1 0 -1.5 0.5
t-1.5 0.5v-1l-1 1q-24 3 -58 20t-63 51q-11 20 -25.5 64t-29.5 103q-47 -43 -90.5 -81.5t-80.5 -70.5t-65.5 -56t-44.5 -37q-22 -3 -45.5 -2.5t-44.5 7t-36 20t-21 37.5q97 51 200 130t200 171q-16 73 -28.5 149t-18 140.5t-2.5 112t19 63.5q14 6 33 9t37.5 1.5t34 -7
t22.5 -15.5q-15 -34 -22.5 -77t-9 -91t3.5 -100t14 -104q52 54 99 108.5t85 105t66 96t44 82.5z" />
    <glyph glyph-name="Y" unicode="Y" horiz-adv-x="566" 
d="M610 762q15 3 33 2t35.5 -7t32.5 -17t24 -27q-20 -46 -62 -103.5t-96.5 -117.5t-118 -118t-127.5 -106q-55 -94 -101 -182t-78 -151q-19 -8 -40 -11t-40.5 -1.5t-35 9t-23.5 20.5q35 73 89 165t117 198q-18 64 -31 128t-18 123t-2 109.5t17 86.5q18 9 38.5 12t40 1
t35.5 -9t25 -19q-16 -29 -26.5 -74.5t-15.5 -98t-3 -108.5t11 -107q60 58 114.5 120t98 118t72 100t35.5 65z" />
    <glyph glyph-name="Z" unicode="Z" horiz-adv-x="828" 
d="M794 762q18 3 34.5 -0.5t30 -12.5t23.5 -22.5t15 -29.5q-21 -47 -64.5 -101.5t-100.5 -112.5t-123 -117t-132.5 -115t-128.5 -107.5t-110 -93.5q85 50 154.5 66t120.5 9.5t84 -30.5t46 -53q19 15 43.5 41t49.5 56t49 61t43 58q10 -2 21.5 -7t10.5 -22q-8 -20 -34.5 -57
t-62 -79t-74.5 -83.5t-72 -68.5q-18 0 -44.5 7t-53.5 32q-15 33 -43 48t-62 16.5t-71 -6.5t-71 -21t-61 -27.5t-41 -24.5l-20 -18q-21 -3 -43 -1t-41 9.5t-33 22t-19 37.5q66 43 139.5 99t147 119t144.5 129.5t131.5 129t108.5 117.5t77 96q-29 -14 -69.5 -25.5t-85.5 -20
t-91.5 -13t-89 -6t-77 1.5t-54.5 10q-5 16 -4 35.5t8.5 38t20 35.5t29.5 29q43 -17 104 -29t124.5 -17.5t121 -2.5t93.5 16l2 5v0z" />
    <glyph glyph-name="bracketleft" unicode="[" horiz-adv-x="418" 
d="M78 -17q24 0 51 2t53 5t49 6t39 6q1 -8 -2 -21.5t-8.5 -28.5t-13.5 -28t-17 -20q-13 -3 -34 -3.5t-46.5 1.5t-54 6.5t-56.5 10.5q-6 4 -15.5 10t-19 13t-16.5 14t-7 12q16 36 38 90t46.5 116t49.5 128t48 128t41.5 115t30.5 89q6 0 12 -1q5 -1 12 -1.5t15 -2.5
q20 -2 53 -0.5t69 4.5t69 7.5t53 8.5q1 -8 -2 -22t-8.5 -29.5t-13.5 -29t-17 -20.5q-22 -5 -65 -2t-90 10q-14 -42 -40.5 -109t-59.5 -145.5t-70 -161.5t-73 -157z" />
    <glyph glyph-name="backslash" unicode="\" horiz-adv-x="407" 
d="M266 -83q-5 -2 -16.5 -3.5t-24 -2.5t-25.5 0t-21 6q-1 57 -10 142t-25.5 186.5t-39.5 214t-52 226.5q17 10 35 16q15 5 34 6t36 -8q8 -29 20 -80.5t25 -117.5t25 -141.5t21.5 -153t14.5 -152.5t3 -138z" />
    <glyph glyph-name="bracketright" unicode="]" horiz-adv-x="418" 
d="M307 564q-24 0 -51 -2t-53 -5t-49 -6t-39 -6q-1 8 2 21.5t8.5 28.5t13.5 28t17 20q13 3 34 3.5t46.5 -1.5t54 -6.5t56.5 -10.5q6 -4 15.5 -10t19 -13t16.5 -14t7 -12q-16 -37 -38 -90.5t-46.5 -115.5t-49.5 -128t-48 -128t-41.5 -115t-30.5 -89q-6 0 -12 1q-5 1 -12 1.5
t-15 2.5q-21 1 -54 0t-68.5 -4t-68.5 -7.5t-53 -8.5q-1 8 2 22.5t8.5 29.5t13.5 29t17 20q22 5 64.5 2t89.5 -10q14 42 40.5 109t60 145.5t70.5 161.5t73 157z" />
    <glyph glyph-name="asciicircum" unicode="^" horiz-adv-x="291" 
d="M262 502q-12 11 -21 26t-15 31t-9.5 30.5t-4.5 25.5q-10 -5 -22.5 -17t-25.5 -28t-25 -34t-21 -36q-21 6 -34.5 16t-21.5 21.5t-11 23.5t-4 21q25 21 58.5 38t66.5 28.5t61 16.5t43 2q18 -35 40.5 -66t45.5 -52q-6 -12 -18 -21t-26.5 -15t-29 -9t-26.5 -2z" />
    <glyph glyph-name="underscore" unicode="_" horiz-adv-x="328" 
d="M-87 5q27 9 71 14t92 6t92.5 -3.5t70.5 -13.5q2 -9 -2 -22t-11.5 -27t-17.5 -26.5t-20 -21.5q-22 6 -63 11t-86.5 8t-88.5 2t-69 -8q-5 17 4.5 41t27.5 40z" />
    <glyph glyph-name="grave" unicode="`" horiz-adv-x="208" 
d="M205 539q1 -9 -5.5 -20.5t-14.5 -19.5q-22 7 -50 20t-56.5 30t-53 36t-39.5 37q-2 9 3 22.5t16 28t28 27.5t38 21q3 -22 16.5 -47.5t32 -51t41 -47.5t44.5 -36z" />
    <glyph glyph-name="a" unicode="a" horiz-adv-x="544" 
d="M96 -2q-83 -2 -118.5 30t-34.5 81.5t31 108t77 110.5t104 89t112 42q19 2 48.5 -6t53.5 -25q5 6 8.5 11t7.5 8q18 15 44 12t49 -23q-10 -20 -25.5 -50t-32 -65.5t-32.5 -73t-27.5 -73t-16.5 -65.5t0 -49q16 7 43 29t55.5 50.5t56 60t45.5 58.5q9 -2 17 -6q6 -3 11.5 -9
t3.5 -14q-12 -21 -32.5 -48t-49 -57.5t-64.5 -62.5t-79 -61q-16 1 -33.5 8t-32.5 16.5t-25.5 20t-13.5 19.5q-8 28 1.5 73t26.5 94zM311 394q-43 -5 -83 -30t-74.5 -59.5t-60.5 -74.5t-40.5 -75.5t-15.5 -62.5t15 -36l260 293v24.5t-1 20.5z" />
    <glyph glyph-name="b" unicode="b" horiz-adv-x="489" 
d="M119 1q-51 -4 -85 15t-50 54t-7 95t34 131t61.5 145.5t75.5 139t76 111t63 61.5q38 11 67 5.5t41 -18.5q-13 -14 -37 -46.5t-53.5 -77.5t-62.5 -99.5t-63 -110.5t-55 -110.5t-38 -101.5t-12.5 -82t20.5 -52q48 23 92.5 72t77.5 109q-6 24 -11 50.5t-7 55t0 57t10 55.5
q16 6 33.5 8t35 0.5t32 -6t24.5 -10.5q25 -55 15 -116t-42 -120q42 -5 78.5 6t56.5 37q8 0 20 -6t12 -23q-11 -17 -32.5 -30.5t-48.5 -22.5t-57.5 -12t-60.5 1q-41 -56 -94.5 -99.5t-108.5 -64.5z" />
    <glyph glyph-name="c" unicode="c" horiz-adv-x="409" 
d="M409 258q10 -2 18 -6q7 -3 11.5 -9t2.5 -14q-12 -21 -39 -51t-63 -62t-79 -63t-89 -53q-75 -3 -126 27.5t-71 81.5q-5 33 1.5 71.5t22 76.5t37.5 73.5t48 63t53.5 45.5t53.5 21q13 1 36 -4t47.5 -14t46 -21.5t32.5 -28.5q1 -10 -8.5 -28.5t-26 -36.5t-39 -32t-46.5 -15
q4 27 7 50q2 20 4 39t1 28q-24 -5 -46 -21.5t-41 -41t-33.5 -53.5t-24 -57t-13.5 -53.5t0 -42.5t14 -29.5t21.5 -20.5t23 -12.5t20.5 -5.5q25 9 60 31t69.5 50t65.5 59t49 58z" />
    <glyph glyph-name="d" unicode="d" horiz-adv-x="551" 
d="M94 0q-59 -3 -92 14.5t-45 48.5t-6 71.5t26 83.5t52 85t70 76t81 56t85 26q16 -2 33 -6q14 -3 30.5 -7.5t32.5 -12.5q29 58 60.5 112.5t61 97t53.5 70.5t39 34q11 4 26.5 5t31 -1t28.5 -7t19 -11q-19 -15 -52 -58.5t-71.5 -104.5t-77 -132t-68.5 -141t-47 -133t-12 -106
q16 7 42.5 29t55.5 50.5t56 60t45 58.5q10 -2 18 -6q7 -3 11.5 -9t2.5 -14q-12 -21 -32.5 -48t-49 -57.5t-64.5 -62.5t-79 -61q-22 1 -39.5 7.5t-30.5 15.5t-20.5 19t-9.5 17q-9 35 -0.5 86.5t28.5 111.5zM308 398q-41 -5 -80.5 -30t-73.5 -60t-60 -75.5t-40.5 -77t-16 -64
t14.5 -35.5l257 296v24.5t-1 21.5z" />
    <glyph glyph-name="e" unicode="e" horiz-adv-x="429" 
d="M429 258q10 -2 18 -6q7 -3 11.5 -9t2.5 -14q-12 -21 -40.5 -51t-66 -62t-82.5 -63t-90 -53q-34 1 -65 7t-58 18.5t-48.5 33t-34.5 50.5q-8 50 9 108.5t49.5 110.5t76 90t88.5 47q21 1 49 -5.5t54 -18.5t48 -29t31 -37q-4 -26 -21.5 -52t-43.5 -50.5t-58 -46t-64 -39.5
t-61.5 -31.5t-50.5 -20.5l2 -12q6 -29 33 -46.5t59 -16.5q25 9 61 31t73 50t69 59t50 58zM270 397q-32 -3 -61.5 -23.5t-53.5 -50.5t-41.5 -65.5t-25.5 -67.5q27 16 61 38.5t62.5 50t46 57.5t12.5 61z" />
    <glyph glyph-name="f" unicode="f" horiz-adv-x="381" 
d="M368 650q-24 -18 -49.5 -47t-52 -66t-53.5 -80.5t-52 -91.5q18 -1 34 -7.5t21 -23.5q6 -25 6 -59t-8 -66q19 -4 42.5 -3.5t47 6.5t43.5 17t34 29q4 0 9.5 -1.5t10.5 -5t8.5 -9t3.5 -13.5q-9 -17 -31 -32t-50.5 -26t-61.5 -15t-65 2q-5 -42 -19.5 -98t-36.5 -111.5
t-50 -104.5t-61 -77q-18 1 -40 8t-42 18t-37.5 26.5t-26.5 32.5q-1 55 15 129.5t44.5 157t68 168.5t85.5 164t97.5 143t103.5 106q17 0 40 -5.5t46 -15.5t43.5 -23t31.5 -28q1 -10 -5.5 -27t-20.5 -34.5t-36 -32t-52 -17.5q2 7 5 23t5.5 33.5t4 33.5t0.5 23zM-16 -164
q13 6 35 39t46.5 82t47 108.5t37.5 117.5q-10 9 -18 23t-12 34q-2 8 -3 16.5t-2 16.5q-29 -62 -54 -124.5t-42.5 -119.5t-27 -107t-7.5 -86z" />
    <glyph glyph-name="g" unicode="g" horiz-adv-x="513" 
d="M110 40q-61 -7 -95 7.5t-46.5 42t-6.5 65t26 78t51 80.5t67.5 72t76 53t77.5 23q18 -3 36 -8q16 -5 33.5 -11.5t33.5 -15.5q2 4 4.5 7.5t5.5 7.5q9 12 23.5 15t30 1t29 -8t19.5 -13q-52 -82 -90.5 -167t-72.5 -167q56 27 107.5 64t93.5 92q10 0 21.5 -8t10.5 -21
q-24 -36 -54.5 -64t-64 -50.5t-69.5 -40.5t-71 -34q-35 -85 -73.5 -156t-89.5 -121q-26 3 -52.5 9t-50.5 16.5t-44 26t-32 36.5q6 41 28 70t55 51.5t75 40.5t88 36q23 53 45.5 109t47.5 112zM301 392q-41 -5 -79 -26.5t-69 -51.5t-53.5 -64.5t-34.5 -65.5t-11.5 -55
t16.5 -32l233 256q0 11 -0.5 20.5t-1.5 18.5zM52 -167q31 25 57.5 64t50.5 87q-28 -14 -50.5 -29t-37 -33t-20.5 -39.5t0 -49.5z" />
    <glyph glyph-name="h" unicode="h" horiz-adv-x="525" 
d="M525 258q10 -2 21.5 -7t10.5 -22q-8 -20 -30 -49t-52 -61.5t-65 -65.5t-68 -61q-33 2 -66 19.5t-52 52.5q-3 19 -1.5 41.5t11.5 55.5t30 80t54 114q-55 -53 -108 -112q-45 -51 -94 -114t-83 -129q-20 9 -37 18q-14 8 -27 17t-18 19q-4 37 12.5 98.5t46 133.5t68 147.5
t77 140t73 111t57.5 61.5q13 8 30.5 9t33.5 -2t29.5 -9.5t19.5 -12.5q-25 -24 -59.5 -72.5t-72 -109.5t-74.5 -127.5t-66 -126t-47.5 -106t-18.5 -66.5q106 152 176.5 233t96.5 94q11 5 29.5 6.5t37.5 -1.5t36.5 -10t27.5 -19q-21 -33 -46.5 -83.5t-47.5 -104t-35.5 -102
t-8.5 -76.5q19 6 45.5 28t54.5 51t54 60.5t45 58.5z" />
    <glyph glyph-name="i" unicode="i" horiz-adv-x="271" 
d="M271 258q10 -2 18 -6q7 -3 11.5 -9t2.5 -14q-12 -21 -35 -48t-53.5 -57.5t-68.5 -62.5t-81 -61q-15 2 -31.5 9t-31 16.5t-25 21t-13.5 21.5q-7 23 -2.5 57.5t16 73t28 78t34 73.5t34.5 58t29 32q9 6 24.5 9t32 3t32 -3.5t23.5 -12.5q-14 -21 -32.5 -51t-37.5 -65t-36 -72
t-29.5 -71t-17.5 -63.5t0 -48.5q16 7 44 28t59 48.5t59.5 58.5t46.5 58zM322 609q-6 -4 -14.5 -17.5t-19 -29.5t-22 -30t-23.5 -18q-19 -8 -49 -6t-52 16q4 14 10.5 30.5t14 32.5t16.5 29t20 20q20 12 53.5 7t65.5 -34z" />
    <glyph glyph-name="j" unicode="j" horiz-adv-x="255" 
d="M95 447q9 8 23.5 9.5t30.5 -0.5t30 -7.5t20 -12.5q-66 -104 -110 -209t-84 -202q60 39 123.5 94t126.5 139q10 0 21.5 -8t10.5 -21q-34 -50 -73.5 -93t-81 -79t-83.5 -65.5t-82 -52.5q-23 -49 -48.5 -92.5t-57.5 -80.5q-48 -2 -81 17.5t-38 53.5q16 32 47.5 55.5
t73.5 48.5q24 43 46 92.5t42 100.5t39 100t36.5 91t34.5 74t34 48zM302 609q-6 -4 -14.5 -17.5t-19 -29.5t-22 -30t-23.5 -18q-19 -8 -49 -6t-52 16q4 14 10.5 30.5t14 32.5t16.5 29t20 20q20 12 53.5 7t65.5 -34z" />
    <glyph glyph-name="k" unicode="k" horiz-adv-x="510" 
d="M510 258q9 -2 20.5 -7t11.5 -22q-38 -62 -93.5 -121.5t-122.5 -115.5q-11 1 -26 3.5t-30.5 7.5t-31 13.5t-27.5 21.5l-54 166q-35 -49 -66.5 -102t-53.5 -105q-7 0 -19.5 5t-25.5 12.5t-25 18t-18 21.5q-3 23 5.5 63t25.5 90.5t41 108t51.5 114.5t57 110.5t57.5 96.5
t53 72t44 37q16 7 33 8t32 -2t27.5 -9t18.5 -12q-13 -11 -42 -50t-65 -93.5t-74 -119t-70.5 -127t-55 -116t-25.5 -85.5q43 76 84 134t75.5 98t60 63t38.5 29q32 1 57.5 -8t44 -23t30 -30.5t15.5 -30.5q-11 -41 -34.5 -71.5t-54.5 -53t-66.5 -36.5t-69.5 -21q6 -14 15.5 -31
t20 -34t21.5 -32t19 -26q21 8 47 28.5t51.5 47.5t50 57.5t42.5 57.5zM359 403q-11 1 -29 -10.5t-41 -33.5t-49.5 -52t-53.5 -65q5 -5 9 -13q2 -4 4 -6q22 4 49 19t51 38.5t40.5 54.5t19.5 68z" />
    <glyph glyph-name="l" unicode="l" horiz-adv-x="270" 
d="M415 730q-19 -18 -45 -50t-56 -73.5t-62 -90.5t-61.5 -100.5t-55.5 -102.5t-44 -97.5t-27 -85.5t-4 -66q16 7 44.5 28t59 49t59.5 59t47 58q10 -2 18 -6q7 -3 11.5 -9t2.5 -14q-12 -21 -35 -48t-53.5 -57.5t-68.5 -62.5t-81 -61q-21 1 -37.5 9t-29.5 18.5t-20.5 22
t-10.5 20.5q-6 31 1.5 75t25 95.5t42.5 107t54.5 110t61 104.5t61.5 90t56.5 66.5t45.5 34.5q16 6 31.5 5.5t29 -4.5t24 -11t16.5 -13z" />
    <glyph glyph-name="m" unicode="m" horiz-adv-x="766" 
d="M766 258q9 -2 20.5 -7t11.5 -22q-8 -20 -30.5 -49t-52.5 -61.5t-65 -65.5t-68 -61q-29 1 -64 18.5t-55 53.5q-3 19 -2 41.5t11.5 56.5t32.5 83.5t61 121.5q-46 -47 -91 -102q-38 -47 -81.5 -106.5t-77.5 -125.5q-11 -2 -27 0t-31.5 7t-29.5 13.5t-21 19.5q-5 38 20.5 112
t84.5 182q-51 -56 -100 -118q-42 -53 -88.5 -118t-80.5 -131q-8 -1 -20 2.5t-24.5 11t-24 17.5t-18.5 23q-3 27 3.5 64.5t18.5 78t28 81.5t33 75t32.5 57.5t26.5 29.5q28 15 56.5 12.5t54.5 -16.5q-25 -37 -50.5 -80.5t-46.5 -88t-35.5 -85.5t-17.5 -72q45 70 84.5 128
t73 102t59.5 72.5t43 39.5q10 6 29 8t38.5 -0.5t37 -9.5t26.5 -18q-16 -26 -36 -64.5t-39.5 -81t-36 -85.5t-24.5 -79q43 66 82.5 122.5t72.5 99.5t59 71t41 37q12 6 31.5 8t40.5 -0.5t39.5 -9.5t27.5 -18q-14 -22 -30.5 -52.5t-33.5 -66t-32.5 -72.5t-26.5 -71t-16.5 -63
t-2.5 -47q19 6 46 28t55 51t54 60.5t45 58.5z" />
    <glyph glyph-name="n" unicode="n" horiz-adv-x="535" 
d="M210 436q-25 -37 -50.5 -81.5t-47 -89.5t-36.5 -86.5t-18 -72.5q106 152 176.5 238t102.5 106q11 7 31 9t41.5 0t40.5 -9t28 -18q-14 -22 -30.5 -52.5t-33 -65.5t-32 -71.5t-26.5 -70.5t-16.5 -62.5t-2.5 -46.5q19 6 45.5 27.5t54 50t53.5 59.5t45 58q11 -2 21.5 -7
t10.5 -22q-8 -20 -31 -49.5t-53.5 -62.5t-65.5 -66t-68 -59q-30 1 -64.5 17.5t-56.5 54.5q-3 19 -0.5 42t13.5 57t33.5 83.5t60.5 120.5q-56 -56 -110 -118q-46 -53 -95.5 -118t-83.5 -131q-9 -2 -21.5 1.5t-25 11t-24 18t-18.5 23.5q-3 27 3 64t17.5 77.5t27 81t32.5 74
t33 57.5t29 32q28 17 58.5 12t52.5 -16z" />
    <glyph glyph-name="o" unicode="o" horiz-adv-x="517" 
d="M162 1q-25 -3 -53.5 2t-54.5 17t-47 32t-32 48q-9 57 7 113.5t49 105.5t78 86.5t94 55.5q29 8 52 4t39 -13q26 4 54.5 -1t47.5 -18q21 -54 13.5 -113.5t-36.5 -116.5q19 -2 40 1.5t40.5 10.5t36 18t27.5 25q8 0 20 -6t12 -23q-9 -15 -31 -31t-50.5 -28t-61.5 -17.5
t-64 0.5q-33 -46 -79 -85t-101 -67zM280 236q-18 42 -28 89t1 87q-30 -19 -60.5 -48.5t-56 -64t-43.5 -71t-23.5 -70t4 -61.5t39.5 -45q22 7 45 24t45 41.5t42 55t35 63.5z" />
    <glyph glyph-name="p" unicode="p" horiz-adv-x="538" 
d="M441 372q2 -30 -8 -67.5t-27.5 -76.5t-41 -77t-47.5 -69q32 14 65.5 36t64 46.5t54.5 49t37 44.5q10 -2 17 -6q6 -3 11 -8.5t4 -14.5q-11 -19 -40.5 -49t-71 -62t-92 -60.5t-103.5 -43.5q-15 -15 -39.5 -20t-52 -3.5t-53.5 8.5t-42 16v20t3 22.5t9.5 23t17.5 21.5
q20 -3 42.5 -9.5t44.5 -14.5q26 32 53 73.5t48 85t32.5 84.5t6.5 72q-41 -25 -89 -77t-95.5 -115.5t-90.5 -131t-74 -123.5q-26 -73 -46 -140.5t-27 -117.5q-21 3 -45.5 14.5t-38.5 34.5q2 36 18.5 99t41.5 137.5t56 153.5t63 146.5t63 115.5t56 61q14 7 32 9.5t35 1.5
t31.5 -5t20.5 -10q-24 -23 -52 -60.5t-57 -83t-56.5 -96t-48.5 -99.5q33 51 74 108t80.5 107.5t72.5 88.5t50 50q51 2 87 -22t47 -67z" />
    <glyph glyph-name="q" unicode="q" horiz-adv-x="550" 
d="M501 427q-27 -27 -55.5 -72t-56.5 -100.5t-54.5 -119t-49.5 -127.5q33 38 74 75t79 69.5t68.5 59.5t43.5 46q9 -2 19.5 -7t12.5 -22q-7 -15 -40.5 -45t-77.5 -69t-92 -84.5t-83 -92.5q28 0 55 0.5t48.5 1.5t36 2.5t19.5 3.5q-2 -17 -8.5 -33t-15 -29.5t-19 -23
t-20.5 -12.5q-14 -5 -55 1t-93 12q-13 -45 -22.5 -85t-14.5 -73q-29 2 -49.5 15.5t-32.5 35.5q0 20 5.5 49.5t14.5 64.5q-37 1 -72 -3t-64 -15q0 13 5.5 27.5t14 27.5t19 22t21.5 11q5 2 31.5 2t64.5 -1q21 68 49.5 142t59.5 143l-174 -226q-63 -4 -98 12.5t-47.5 47
t-4.5 71t29.5 83.5t55 85.5t72.5 77t81.5 57.5t81.5 28q8 0 21 -1.5t28.5 -6t32 -12.5t31.5 -20q19 25 36 34q10 5 21.5 4.5t23.5 -4.5t23 -11.5t21 -15.5zM309 394q-43 -5 -83 -29.5t-74 -59t-60 -74t-40.5 -75.5t-15 -62.5t15.5 -35.5l258 291v24.5t-1 20.5z" />
    <glyph glyph-name="r" unicode="r" horiz-adv-x="394" 
d="M70 534q21 1 37.5 -3t29 -10.5t19.5 -14.5t8 -15q2 -14 -7 -34t-22 -40q21 5 45.5 12.5t44.5 16.5q20 12 47 10t47 -20q-10 -20 -24.5 -50t-30 -65.5t-30.5 -73t-25.5 -73t-15 -65.5t0.5 -49q16 7 43 29t55.5 50.5t56 60t45.5 58.5q2 0 8 -1t11.5 -4.5t9.5 -9t3 -14.5
q-12 -21 -32.5 -48t-49 -57.5t-64.5 -62.5t-79 -61q-19 1 -37.5 8t-34 16t-26 19.5t-12.5 19.5q-6 27 2.5 70.5t25 90.5t37.5 93.5t39 79.5q-13 -5 -37 -12.5t-52 -17.5q-14 -33 -34 -71t-40 -67q-9 -2 -20 1t-12 28q22 32 38.5 63t26.5 57q-12 7 -21 16.5t-11 21.5
t3.5 29.5t13 35t14 32t6.5 21.5z" />
    <glyph glyph-name="s" unicode="s" horiz-adv-x="342" 
d="M236 489q0 -4 -9.5 -18t-23 -31.5t-28 -36.5t-25.5 -32q1 -29 12 -57.5t23.5 -58.5t23.5 -61.5t12 -66.5q36 29 68.5 64t52.5 67q9 -2 17 -6q6 -3 11.5 -9t3.5 -14q-9 -15 -23.5 -34.5t-34.5 -41t-46.5 -44t-59.5 -42.5q-23 -30 -67.5 -47.5t-94 -23.5t-94.5 -0.5
t-69 21.5q0 10 3.5 22.5t9.5 24.5t15 22.5t20 17.5q34 -8 63 -24t55 -30q17 5 30.5 15t23.5 30q2 19 -1.5 40.5t-9 45.5t-12 50t-11.5 54q-20 -34 -39 -56q-9 -2 -20 1t-12 28q23 32 39.5 64t26.5 59q4 35 17.5 71.5t42.5 72.5q35 6 64.5 -3.5t45.5 -32.5z" />
    <glyph glyph-name="t" unicode="t" horiz-adv-x="266" 
d="M49 500q0 12 5 25t12.5 24t16 18.5t16.5 9.5q6 2 25.5 2h45.5q16 22 30.5 41t28.5 34q15 8 33 9.5t34.5 -1t29.5 -7.5t18 -9q-12 -14 -25 -31.5t-27 -37.5q35 1 67 2.5t52 6.5q-2 -15 -7.5 -30.5t-13.5 -28.5t-17.5 -21.5t-17.5 -11.5q-14 -4 -43.5 1t-67.5 11
q-38 -58 -75 -122t-64.5 -125t-42 -112.5t-7.5 -84.5q16 7 44.5 28.5t59.5 49.5t60 59.5t47 58.5q10 -1 17 -5q6 -3 11 -9t4 -15q-12 -21 -35 -48t-53.5 -57.5t-68.5 -62.5t-81 -61q-17 1 -33 7.5t-29 15.5t-22 19.5t-12 21.5q-9 33 2 86t35 115t57.5 127t69.5 122
q-21 -1 -41 -4t-38 -10z" />
    <glyph glyph-name="u" unicode="u" 
d="M531 258q10 -2 18 -6q7 -3 11.5 -9t2.5 -14q-12 -21 -32.5 -48t-49 -57.5t-64.5 -62.5t-79 -61q-32 5 -63.5 24t-42.5 41q-4 15 -3 34.5t5.5 42.5t12.5 48.5t17 51.5l-166 -242q-26 1 -49 8.5t-41 17.5t-30.5 22t-17.5 23q-6 23 -1 56.5t16.5 70.5t28.5 75t36 71t39 58.5
t38 37.5q10 7 25.5 10.5t32 3t31 -4.5t22.5 -13q-23 -26 -47 -60.5t-46 -72.5t-40 -75.5t-28.5 -70.5t-12 -58t8.5 -37l273 335q11 18 20.5 31t16.5 19q16 14 43 11.5t50 -22.5q-10 -20 -25.5 -50t-31.5 -64.5t-31.5 -72t-27 -72.5t-16 -65t0.5 -49q16 7 42 28.5t54.5 49
t55 59t44.5 58.5z" />
    <glyph glyph-name="v" unicode="v" horiz-adv-x="469" 
d="M295 173q-53 -57 -112.5 -100.5t-111.5 -72.5q-16 2 -30.5 9t-26 16.5t-19.5 20.5t-11 22q-6 23 -5 56t6.5 70t15.5 74.5t22.5 71.5t27.5 60t31 40q11 9 26 12.5t30.5 3t29 -5.5t21.5 -14q-18 -27 -38.5 -72t-36.5 -96.5t-25 -102.5t-4 -90q51 33 93.5 77t72.5 97
q-5 30 -1 61.5t15 61.5t28.5 57t38.5 48q23 -3 41 -10q16 -6 30 -17.5t18 -30.5q-8 -57 -31.5 -106.5t-56.5 -94.5q18 -3 38 -2.5t38.5 5t34 14t25.5 23.5q4 0 9.5 -1.5t10.5 -5t8.5 -9t3.5 -13.5q-11 -17 -33 -31t-50.5 -22t-60.5 -9.5t-62 6.5z" />
    <glyph glyph-name="w" unicode="w" horiz-adv-x="702" 
d="M338 0q-15 3 -30.5 10.5t-29 17.5t-23.5 20.5t-15 19.5q-7 33 -0.5 85.5t20.5 106.5l-164 -260q-26 1 -47.5 8.5t-38.5 18t-28 21.5t-16 20q-6 23 -1.5 57.5t15 72.5t26 77t33 72.5t34.5 58t32 34.5q11 7 27 10.5t32 3t30 -4.5t22 -13q-22 -27 -43.5 -62t-41 -72t-35 -74
t-25 -68.5t-12 -54.5t5.5 -33l236 314q18 40 34 54q9 8 24 11.5t30.5 3t29.5 -5t22 -13.5q-18 -27 -38.5 -73t-37 -97.5t-25 -103t-1.5 -89.5q47 30 86.5 69.5t68.5 92.5q-11 31 -9 64.5t12.5 66t28.5 61.5t41 50q23 -3 42 -10q16 -6 30.5 -17.5t18.5 -30.5
q-8 -54 -29.5 -104t-50.5 -95q16 -3 34 -2.5t34.5 4.5t31 13t24.5 23q8 0 20.5 -6t11.5 -23q-9 -16 -28 -29t-44.5 -21t-55.5 -9.5t-61 4.5q-52 -66 -108.5 -111.5t-98.5 -62.5z" />
    <glyph glyph-name="x" unicode="x" horiz-adv-x="451" 
d="M170 457q-13 -33 -12.5 -88t11.5 -112q24 36 46.5 70.5t44 62.5t42 48t40.5 28q21 2 40.5 -1.5t36 -10t27.5 -14t16 -14.5q-22 -7 -57 -27t-74 -49.5t-79 -66.5t-72 -76q14 -57 32.5 -98.5t39.5 -48.5q19 6 45.5 27.5t54.5 50.5t54 61t45 59q10 -2 20.5 -7t11.5 -22
q-8 -20 -30 -49t-52 -61.5t-65 -65.5t-68 -61q-26 -2 -61 10.5t-67 43.5q-22 34 -41 89q-35 -53 -65.5 -91.5t-56.5 -54.5q-44 5 -67.5 20t-31.5 31q18 7 42 21.5t50.5 34.5t55 44.5t55.5 51.5q-5 21 -10 42.5t-8 43.5q-8 -14 -15.5 -26t-15.5 -23q-9 -2 -20 1t-12 28
q35 50 54 95q-1 26 1 49.5t8 42.5q8 9 22 13.5t30 5t30.5 -1.5t24.5 -5z" />
    <glyph glyph-name="y" unicode="y" horiz-adv-x="524" 
d="M373 439q9 13 25.5 16.5t34 1.5t32.5 -8t21 -13q-53 -84 -91 -169t-73 -167q57 27 108.5 64t93.5 94q11 0 22 -8t10 -21q-24 -36 -54.5 -64.5t-64 -51.5t-69.5 -41t-71 -33q-35 -81 -73 -150.5t-90 -123.5q-27 0 -55 5t-53 15.5t-44.5 26.5t-28.5 37q6 43 28.5 73.5
t57 53t77.5 40.5t91 36q23 53 43.5 108t40.5 107l-188 -233q-27 1 -50.5 8t-41.5 17t-29 21.5t-14 22.5q-5 23 0.5 55.5t18.5 68.5t31 72t38 67t39 53.5t35 31.5q11 6 26.5 9t31.5 2.5t29.5 -5t21.5 -13.5q-38 -42 -73.5 -94.5t-60.5 -102t-36 -89.5t1 -57l269 278
q8 17 16.5 32t17.5 28zM58 -172q35 26 64 68t55 93q-30 -14 -54.5 -29.5t-41 -34.5t-23 -43t-0.5 -54z" />
    <glyph glyph-name="z" unicode="z" horiz-adv-x="476" 
d="M82 447q23 16 49 20.5t53 3t54.5 -7t53 -9t48 -2.5t40.5 12q38 -7 57 -24.5t23 -31.5q-54 -26 -102 -61t-90 -74t-78.5 -79.5t-66.5 -76.5q36 12 66 12t54.5 -7t42 -18t27.5 -22q17 11 37.5 30t42.5 42.5t43 50t40 53.5q11 -2 20.5 -7t11.5 -22q-8 -20 -31 -49.5
t-53.5 -62.5t-66 -66.5t-68.5 -61.5q-20 -2 -49 4t-54 29q-3 25 -13.5 37.5t-26 16t-34 -1t-36.5 -13.5q-20 -24 -37 -41t-30 -25q-44 3 -66.5 16.5t-30.5 28.5q21 11 62.5 53t94.5 97t112 113.5t113 102.5q-53 -9 -99.5 -17t-93.5 -33q-14 -32 -32 -66.5t-37 -60.5
q-9 -2 -19.5 1t-12.5 28q19 27 33.5 54t25 51t16.5 43.5t7 31.5v9v0z" />
    <glyph glyph-name="braceleft" unicode="{" horiz-adv-x="434" 
d="M497 600q-32 -15 -59.5 -45.5t-53.5 -68t-51.5 -78t-53.5 -74.5t-59.5 -57t-69.5 -26q31 -18 42.5 -31.5t11.5 -29t-6 -37.5t-9 -57q-4 -46 0 -77.5t12 -53t20 -34.5t24 -22q2 -14 -6.5 -26.5t-28.5 -18.5q-32 14 -65 40.5t-55 68.5q-11 31 -11 61.5t5 58.5t11 53t7 43.5
t-5.5 29.5t-26.5 13q-3 13 -3 25t7 18q44 4 75 30.5t56 64.5t45.5 83t43.5 86.5t50.5 74t66.5 45.5q9 -2 22 -6.5t25.5 -12t23 -17.5t15.5 -23z" />
    <glyph glyph-name="bar" unicode="|" horiz-adv-x="442" 
d="M52 -187h-19t-19.5 1.5t-17.5 6.5t-12 16q19 40 47.5 107t62 147t69.5 167.5t68.5 169.5t59 153t42.5 118q25 1 46 -4q17 -5 33 -17.5t20 -37.5q-10 -32 -33 -87.5t-54 -125t-68 -149t-76 -160.5t-77.5 -159.5t-71.5 -145.5z" />
    <glyph glyph-name="braceright" unicode="}" horiz-adv-x="431" 
d="M-93 -77q31 10 52 29.5t37 44t30 52.5t32 57q28 45 54 75.5t50.5 49.5t47.5 28.5t45 12.5q-28 4 -38 30.5t-10.5 64t3 80t2 79t-12.5 61.5t-40 27q-2 14 7 26.5t29 18.5q49 -1 74.5 -28.5t35.5 -68t10 -87.5t-1 -87.5t2 -68t19 -28.5q3 -13 3 -25t-7 -18
q-27 -3 -50.5 -16.5t-44 -35.5t-39 -50t-35.5 -59q-18 -33 -34.5 -69t-35 -67.5t-42 -55t-56.5 -31.5q-9 2 -22 6.5t-25.5 12t-23.5 17.5t-16 23z" />
    <glyph glyph-name="asciitilde" unicode="~" horiz-adv-x="443" 
d="M198 340q30 -20 53 -45.5t37 -58.5q10 16 21 34q9 16 20 35.5t20 40.5q13 -10 19.5 -25t8.5 -31t0 -31t-6 -25q-16 -17 -38.5 -32.5t-46 -26t-43 -15.5t-29.5 -2q-17 35 -37.5 61.5t-35.5 39.5q-10 -12 -21 -28q-9 -14 -20 -33.5t-19 -44.5q-15 10 -23 23.5t-10 28t0 27
t5 20.5q17 19 37 35.5t40 28t37.5 18t30.5 6.5z" />
    <glyph glyph-name="uni00A0" unicode="&#xa0;" horiz-adv-x="313" 
 />
    <glyph glyph-name="exclamdown" unicode="&#xa1;" horiz-adv-x="340" 
d="M282 406q-20 -60 -48 -127t-56.5 -128.5t-54.5 -111t-43 -76.5q-22 -10 -46.5 -8t-46 10t-37.5 18t-21 16q51 58 96.5 118t83 116t65 105.5t41.5 85.5q12 4 23 2.5t20 -5t15 -8.5t9 -7zM312 493q-10 -2 -24 4.5t-27.5 17.5t-25 25t-15.5 28q11 14 24 28q11 12 25.5 26
t30.5 25q8 1 20 -2t24.5 -9t24 -14t18.5 -16q-11 -21 -22 -41q-11 -17 -24 -36.5t-29 -35.5z" />
    <glyph glyph-name="cent" unicode="&#xa2;" horiz-adv-x="570" 
d="M347 147q5 1 15.5 -4.5t21 -14t18.5 -18t8 -14.5q-13 -11 -30.5 -25t-37 -27.5t-38.5 -25.5t-34 -19q-53 1 -94 14q-17 -30 -28 -53t-22 -35q-17 -2 -35 1t-33 7.5t-25.5 9t-12.5 5.5q15 17 35 46t42 60q-26 22 -38.5 46.5t-20.5 44.5q-11 62 12 135.5t68 142
t105.5 122.5t124.5 77q35 1 69 -5q16 29 30 50.5t26 31.5q14 2 29.5 1t29.5 -4t24.5 -7t14.5 -8q-14 -14 -38 -38.5t-46 -50.5q25 -14 40 -29t18 -28q0 -19 -9.5 -39.5t-26.5 -38.5t-40 -31t-50 -16q10 29 18 54q7 20 12.5 38.5t5.5 22.5q0 5 -1.5 11.5t-6.5 12.5l-249 -480
q24 -16 62 -18q9 3 20.5 15.5t23.5 28t23 30t20 22.5zM145 162q3 -21 10 -38l249 448q-56 -27 -105 -77.5t-85 -109.5t-55 -118.5t-14 -104.5z" />
    <glyph glyph-name="sterling" unicode="&#xa3;" horiz-adv-x="597" 
d="M611 569q0 -23 -11.5 -46t-30.5 -42.5t-43 -32.5t-50 -16q1 3 7 20.5t12.5 38.5t11.5 41.5t5 29.5q0 6 -1.5 14.5t-6 16t-12 12.5t-18.5 5q-47 -24 -102 -94t-111 -176q36 2 68 5t52 7q0 -17 -2 -34q-2 -14 -6.5 -31t-14.5 -30q-20 -5 -57 -6.5t-83 0.5
q-14 -31 -27.5 -64t-27.5 -68q39 5 77.5 5t72 -4.5t60.5 -14t43 -24.5q5 -17 5.5 -36.5t-1.5 -35.5q-3 -19 -7 -37q-48 30 -111.5 44t-126 15t-116.5 -9t-84 -27q-8 2 -8 12t2 21q3 13 9 30q28 21 71 36q10 31 25.5 73.5t36.5 92.5q-20 2 -38.5 5t-35.5 7q-4 9 -5 20
q-1 9 2 20.5t12 24.5q16 -2 42 -3t58 0q24 48 52.5 96.5t61.5 92t70 79.5t78 60q42 3 78 -6t62.5 -24t43 -32.5t19.5 -30.5z" />
    <glyph glyph-name="currency" unicode="&#xa4;" horiz-adv-x="669" 
d="M133 317q5 26 24.5 53t45.5 51l-44 70q0 3 9 11.5t24 17t33.5 13t38.5 -0.5q5 -12 9 -24.5t12 -28.5q47 25 81 25q54 -13 88 -43q32 26 52 49t40 51q15 0 27 -9.5t19.5 -21.5t11.5 -22.5t4 -13.5q-27 -26 -53.5 -47.5t-55.5 -38.5q8 -14 13 -29t8 -29q-17 -32 -39 -59
t-47 -49q35 -26 58.5 -49t38.5 -42q-20 -12 -39 -21q-17 -8 -37 -12t-40 1q-21 25 -51 74q-28 -15 -51 -20q-55 9 -97 35q-32 -35 -59.5 -61.5t-47.5 -38.5q-24 -1 -43 8.5t-32 21.5q-15 13 -26 31q37 18 73 35.5t81 46.5q-14 16 -21.5 32.5t-7.5 33.5zM220 261
q14 -18 39 -18.5t52.5 11.5t54 32.5t44 44t22 47t-10.5 41.5q-16 18 -41 18.5t-51.5 -12t-51.5 -33.5t-41.5 -44.5t-22.5 -47t7 -39.5z" />
    <glyph glyph-name="yen" unicode="&#xa5;" horiz-adv-x="523" 
d="M449 649q9 2 23.5 0t30 -8.5t29.5 -16.5t21 -23q-15 -42 -46.5 -89t-72.5 -95.5t-89 -96t-97 -90.5l-12 -22q31 3 57.5 6t44.5 7q2 -19 1 -37q-1 -16 -4.5 -34.5t-11.5 -32.5q-19 -5 -56 -6.5t-82 0.5q-17 -35 -31.5 -66.5t-25.5 -57.5q-15 -6 -33.5 -6t-36 4t-31.5 10.5
t-19 12.5q11 24 24 52.5t29 60.5q-20 2 -37.5 5.5t-34.5 7.5q-4 11 -6 22q-2 10 0 22.5t10 26.5q17 -3 45.5 -4t63.5 0l50 92q-20 59 -30.5 113.5t-13.5 100.5t1.5 82.5t14.5 59.5q10 3 27 3.5t34.5 -1.5t32 -6.5t20.5 -12.5q-12 -23 -20.5 -57t-13 -74.5t-4 -85t7.5 -87.5
q48 46 89.5 95.5t74 94t52.5 79.5t25 52z" />
    <glyph glyph-name="brokenbar" unicode="&#xa6;" horiz-adv-x="458" 
d="M73 -187h-21.5t-25 1.5t-22.5 6.5t-14 16q28 61 54.5 117t48.5 105.5t39 90t26 69.5q23 1 41 -4q16 -5 30.5 -17.5t18.5 -37.5q-15 -48 -33.5 -91.5t-40.5 -85.5t-47.5 -83.5t-53.5 -86.5zM267 273h-21.5t-25 1.5t-22.5 6.5t-14 16q28 61 56 123.5t52 119t42.5 103.5
t27.5 76q23 1 41 -4q16 -5 30.5 -17.5t18.5 -37.5q-30 -97 -79 -196.5t-106 -190.5z" />
    <glyph glyph-name="section" unicode="&#xa7;" horiz-adv-x="9" 
d="M-259 -157q2 -6 -0.5 -16.5t-8.5 -22.5t-16.5 -23.5t-23.5 -18.5q-31 27 -102 45.5t-170 27t-218 8t-245 -11t-252 -30t-238.5 -48.5t-204 -68t-149.5 -87q-21 6 -35 21.5t-22.5 34.5t-12.5 38t-5 33q45 34 131.5 63t199.5 51.5t245 39t268 25.5t269 10.5t247.5 -6
t204 -23.5t138.5 -42z" />
    <glyph glyph-name="dieresis" unicode="&#xa8;" horiz-adv-x="265" 
d="M39 518q-19 7 -30 19.5t-16 25t-5.5 24.5t1.5 20q28 30 58.5 43.5t56.5 18.5q9 -9 14 -21t7 -24t2.5 -23t0.5 -18q-36 -22 -55.5 -35t-33.5 -30zM187 518q-19 11 -30 22.5t-17 23.5t-7.5 23.5t-0.5 23.5q35 23 66 40.5t59 22.5q10 -9 15 -21t7.5 -24.5t3 -23.5t0.5 -19
q-20 -11 -33.5 -19.5t-24 -16t-19.5 -15.5t-19 -17z" />
    <glyph glyph-name="copyright" unicode="&#xa9;" horiz-adv-x="802" 
d="M618 618q62 -29 90.5 -75t33 -100t-11 -112t-42.5 -113t-60.5 -102t-64.5 -78q-48 -48 -103 -88.5t-113 -75.5q-60 -8 -121 2t-112.5 35t-89.5 64.5t-51 89.5q-7 85 17.5 169.5t69.5 159.5t106 136t127 100q97 20 181.5 18t143.5 -30zM153 -44q39 -20 88 -13t100.5 35
t101.5 73t90.5 100.5t68.5 118t35 125.5q3 31 0 60.5t-13.5 54t-31 44t-51.5 30.5q-54 20 -105.5 14t-99.5 -33.5t-92.5 -75t-84.5 -110.5q-23 -37 -40.5 -79t-27.5 -84t-12 -82.5t5 -75.5t24 -61.5t45 -40.5zM460 162q-11 -15 -29.5 -34t-39.5 -37t-41 -33t-33 -22
q-20 5 -41.5 14t-41.5 23t-36.5 33t-26.5 44q-5 38 3 79.5t24.5 81t40.5 75t51 63t55.5 45t54.5 20.5q25 -13 48 -27q20 -12 40.5 -26.5t32.5 -29.5q1 -10 -5.5 -26.5t-19 -32.5t-32 -28t-43.5 -13q4 22 7 41q2 17 3.5 33.5t0.5 25.5q-26 -8 -53 -30t-50 -52.5t-39.5 -65.5
t-22 -67.5t2 -60.5t32.5 -43q6 2 23 12t39.5 20t47.5 16.5t48 1.5z" />
    <glyph glyph-name="ordfeminine" unicode="&#xaa;" horiz-adv-x="600" 
d="M205 198q-83 -2 -118.5 30t-34.5 81.5t31 108t77 110.5t104 89t112 42q19 2 48.5 -6t53.5 -25q5 6 8.5 11t7.5 8q18 15 44 12t49 -23q-10 -20 -25.5 -50t-32 -65.5t-32.5 -73t-27.5 -73t-16.5 -65.5t0 -49q16 7 43 29t55.5 50.5t56 60t45.5 58.5q9 -2 17 -6q6 -3 11.5 -9
t3.5 -14q-12 -21 -32.5 -48t-49 -57.5t-64.5 -62.5t-79 -61q-16 1 -33.5 8t-32.5 16.5t-25.5 20t-13.5 19.5q-8 28 1.5 73t26.5 94zM420 594q-43 -5 -83 -30t-74.5 -59.5t-60.5 -74.5t-40.5 -75.5t-15.5 -62.5t15 -36l260 293v24.5t-1 20.5z" />
    <glyph glyph-name="guillemotleft" unicode="&#xab;" horiz-adv-x="734" 
d="M443 462q-15 -14 -46 -35t-70.5 -44.5t-85 -48t-88.5 -45.5q15 -18 39.5 -42.5t51.5 -48.5t52.5 -44.5t42.5 -31.5q-2 -4 -10.5 -10.5t-22.5 -13.5t-31 -12.5t-35 -7.5q-14 8 -36 27t-46 43.5t-47.5 53.5t-38.5 56q-8 2 -16.5 10.5t-3.5 33.5q18 9 46.5 27t62 41t69 49
t69 51.5t62 48t46.5 38.5q11 -9 20 -22q8 -11 13 -29t3 -44zM685 462q-15 -15 -46 -36.5t-70 -45.5t-83.5 -48.5t-87.5 -45.5q16 -19 40 -43t50.5 -47t51 -43t41.5 -31q-2 -4 -10.5 -10.5t-22.5 -13.5t-31 -12.5t-35 -7.5q-14 8 -34.5 27t-43.5 43.5t-44.5 53.5t-36.5 56
q-8 2 -16.5 10.5t-3.5 33.5q18 9 46 27t60 41t67 49t67 51.5t60 48t46 38.5q11 -9 20 -22q8 -11 13 -29t3 -44z" />
    <glyph glyph-name="logicalnot" unicode="&#xac;" horiz-adv-x="577" 
d="M66 277q-2 3 -3 11.5t0.5 20.5t7 24.5t17.5 22.5q29 -3 77 -3.5t100.5 1t103 4.5t84.5 7q4 -5 11.5 -17t15 -26.5t12.5 -29.5t5 -27q-7 -13 -20 -32.5t-29 -40.5t-33 -41.5t-32 -33.5q-15 2 -30.5 9.5t-28.5 23.5q3 4 10.5 16.5t15.5 28.5t15.5 32t9.5 28q-34 0 -74 1
t-81 3.5t-81 7t-73 10.5z" />
    <glyph glyph-name="uni00AD" unicode="&#xad;" horiz-adv-x="441" 
d="M101 285q24 9 61 14t76.5 6t76.5 -3t61 -14q2 -9 -0.5 -21t-8.5 -25t-15 -25t-19 -21q-20 6 -55.5 10t-74.5 5.5t-75.5 -1t-60.5 -9.5q-4 18 5.5 41.5t28.5 42.5z" />
    <glyph glyph-name="registered" unicode="&#xae;" horiz-adv-x="802" 
d="M618 618q62 -29 90.5 -75t33 -100t-11 -112t-42.5 -113t-60.5 -102t-64.5 -78q-48 -48 -103 -88.5t-113 -75.5q-60 -8 -121 2t-112.5 35t-89.5 64.5t-51 89.5q-7 85 17.5 169.5t69.5 159.5t106 136t127 100q97 20 181.5 18t143.5 -30zM153 -44q33 -17 73.5 -14t83.5 21
t87 50t83 74q-28 1 -52 11.5t-40 33.5q-4 15 -3.5 32.5t2 35t2 34.5t-3.5 32q-19 -6 -35.5 -6.5t-28 3t-17 11t-0.5 19.5q4 7 12 10q10 8 24.5 15t28.5 9q5 0 12.5 -3.5t17.5 -8.5q31 10 47.5 34.5t17.5 50t-14.5 46t-48.5 21.5q-44 -61 -74.5 -111.5t-52 -96t-37 -88.5
t-30.5 -90q-8 -3 -20.5 -4t-26 1t-26.5 8.5t-21 17.5q24 54 44.5 102.5t43 95.5t49 96t60.5 105q21 2 43 -3q97 19 153.5 -14.5t65.5 -100.5q-11 -24 -26.5 -41.5t-33 -29t-35.5 -19t-33 -11.5l15 -12q10 -31 14 -55l7 -42t9.5 -30.5t22.5 -20.5q49 60 83 130t42 141
q3 31 0 60.5t-13.5 54t-31 44t-51.5 30.5q-54 20 -105.5 14t-99.5 -33.5t-92.5 -75t-84.5 -110.5q-23 -37 -40.5 -79t-27.5 -84t-12 -82.5t5 -75.5t24 -61.5t45 -40.5z" />
    <glyph glyph-name="macron" unicode="&#xaf;" horiz-adv-x="311" 
d="M41 613q27 9 67 14t82.5 6t82.5 -3.5t66 -13.5q2 -9 -1.5 -22.5t-10.5 -27t-17 -26t-20 -19.5q-22 6 -58.5 11t-77 8t-79 2t-64.5 -8q-5 13 4 38t26 41z" />
    <glyph glyph-name="degree" unicode="&#xb0;" horiz-adv-x="427" 
d="M206 652q31 5 63.5 -6.5t59.5 -32.5t45.5 -48t21.5 -54q3 -25 -5.5 -55.5t-27 -59.5t-45.5 -53.5t-61 -36.5q-33 1 -67 13t-61.5 31.5t-44.5 45t-16 52.5q1 24 9.5 53t25.5 57.5t42.5 53.5t60.5 40zM167 381q34 -10 65.5 11t52.5 55.5t26 73t-14 64.5q-19 10 -39.5 2.5
t-40 -25.5t-35 -43.5t-24 -51.5t-7.5 -49t16 -37z" />
    <glyph glyph-name="plusminus" unicode="&#xb1;" horiz-adv-x="577" 
d="M203 171q-14 2 -26 7q-11 5 -20.5 13.5t-14.5 25.5q12 17 30 46.5t39 67.5q-36 2 -70 6.5t-63 9.5q0 4 -1 11.5t0.5 16.5t7 19.5t17.5 21.5q23 -3 63.5 -4t88.5 0q27 52 50.5 99.5t35.5 76.5q17 -5 32 -14q13 -8 24.5 -20.5t16.5 -29.5q-6 -17 -20 -45.5t-34 -63.5
q49 2 92 4.5t70 6.5q0 -6 -1 -17.5t-5.5 -25t-12.5 -28t-22 -26.5q-23 -4 -69 -5t-103 1q-26 -43 -53 -83.5t-52 -70.5zM-32 75q0 4 -1 11.5t0.5 16.5t7 19.5t17.5 21.5q20 -2 52 -3t71 -1t81.5 1.5t82.5 3t74.5 4t57.5 5.5q0 -6 -1 -17.5t-5.5 -25t-12.5 -28t-22 -26.5
q-24 -4 -71.5 -5t-105 1.5t-117.5 7.5t-108 14z" />
    <glyph glyph-name="twosuperior" unicode="&#xb2;" horiz-adv-x="495" 
d="M8 252q60 55 124.5 99t119.5 84t93 77.5t46 78.5q8 45 -3 79t-36 40q-30 -6 -59 -30.5t-51 -55t-35 -61t-11 -48.5q-24 0 -46 15.5t-32 40.5q9 33 30 62.5t50.5 53.5t64.5 42.5t72 28.5q13 1 36 -4t48 -16.5t48 -29t36 -42.5q7 -40 -7 -78t-42.5 -73.5t-68 -68.5t-83 -65
t-88.5 -62.5t-83 -59.5q39 7 74 9.5t68 6t65.5 12t67.5 28.5q13 -16 13 -46t-16 -59q-36 -19 -80.5 -16t-89.5 12t-87 14.5t-72 -8.5l-17 -17q-6 1 -13 7t-14.5 14.5t-13 18t-8.5 17.5z" />
    <glyph glyph-name="threesuperior" unicode="&#xb3;" horiz-adv-x="516" 
d="M472 763q39 1 64.5 -13.5t33.5 -28.5q-57 -30 -115.5 -69.5t-106.5 -77.5q34 -9 67.5 -28t47.5 -48q4 -21 5 -39.5t-3 -37t-12 -39t-21 -45.5q-20 -33 -41 -54.5t-40.5 -36t-36.5 -22.5t-27 -12q-56 -12 -102.5 -8.5t-81 17t-56.5 33.5t-30 40q-4 15 3.5 34.5t24 37.5
t42 32t57.5 19q-9 -26 -15 -47q-5 -19 -9.5 -36t-4.5 -25q0 -7 5 -17.5t14.5 -21.5t23.5 -20.5t32 -12.5q12 7 26.5 14t31 19t35.5 31t41 49q21 30 33 60.5t12 57t-12.5 44.5t-40.5 23q-12 -10 -24 -19q-11 -8 -23.5 -16.5t-23.5 -14.5q-14 4 -29 22.5t-15 40.5q12 6 25 12
q24 11 58 19q31 35 61.5 69t59.5 62q-28 -7 -52.5 -10.5t-48 -9t-47 -14t-48.5 -25.5q-11 16 -11 44.5t14 52.5q27 15 59.5 14t65 -7t62.5 -10t53 5l20 13v0z" />
    <glyph glyph-name="acute" unicode="&#xb4;" horiz-adv-x="251" 
d="M13 566q28 7 61 23t64.5 35.5t58 41.5t41.5 42q13 -14 18 -32.5t5 -36.5t-4 -33.5t-10 -23.5q-21 -14 -51.5 -26t-63 -21t-64 -14t-56.5 -5q-5 10 -4.5 25.5t5.5 24.5z" />
    <glyph glyph-name="mu" unicode="&#xb5;" 
d="M531 258q10 -2 18 -6q7 -3 11.5 -9t2.5 -14q-12 -21 -32.5 -48t-49 -57.5t-64.5 -62.5t-79 -61q-32 5 -63.5 24t-42.5 41q-4 15 -3 34.5t5.5 42.5t12.5 48.5t17 51.5l-166 -242q-26 1 -49 8.5t-41 17.5t-30.5 22t-17.5 23q-3 19 -2 38q-15 -36 -28 -73.5t-22.5 -72
t-14.5 -63t-3 -44.5q-19 -2 -36.5 4t-31.5 15t-22.5 20t-8.5 20q7 22 29.5 62t51.5 86.5t60.5 93.5t57.5 83q12 32 28 63.5t32.5 58.5t34 47t32.5 31q10 7 25.5 10.5t32 3t31 -4.5t22.5 -13q-23 -26 -47 -60.5t-46 -72.5t-40 -75.5t-28.5 -70.5t-12 -58t8.5 -37l273 335
q11 18 20.5 31t16.5 19q16 14 43 11.5t50 -22.5q-10 -20 -25.5 -50t-31.5 -64.5t-31.5 -72t-27 -72.5t-16 -65t0.5 -49q16 7 42 28.5t54.5 49t55 59t44.5 58.5z" />
    <glyph glyph-name="paragraph" unicode="&#xb6;" horiz-adv-x="656" 
d="M250 -121q-14 -4 -28.5 -5t-27 1.5t-22 8.5t-12.5 16q18 35 42 85t51 108t55.5 121t55.5 124t51 117t42 101q-23 -1 -45.5 -3t-42.5 -4q7 -12 8 -28q-12 -44 -42.5 -116.5t-72 -160.5t-91 -184.5t-98.5 -187.5q-26 -5 -48.5 0t-29.5 25q19 37 45 90t56 114.5t61.5 127.5
t60.5 129q-24 4 -44.5 13.5t-31.5 24.5q1 28 13 62t28.5 64.5t34.5 52t31 24.5q19 7 54 14.5t77.5 13t89.5 10t90.5 6t78.5 0.5t55 -6q3 -9 0 -21t-9 -24t-14 -22.5t-15 -16.5q-19 3 -52 4.5t-72 0.5q9 -12 10 -28q-15 -50 -44 -123.5t-67.5 -160.5t-85 -181.5t-95.5 -185.5
z" />
    <glyph glyph-name="periodcentered" unicode="&#xb7;" horiz-adv-x="352" 
d="M166 333q11 2 23.5 -3t24 -15t20.5 -24t14 -29q-13 -15 -27 -31q-12 -14 -28 -29t-33 -27q-18 -5 -40.5 6t-37.5 28q11 22 24 44q11 19 26.5 40.5t33.5 39.5z" />
    <glyph glyph-name="cedilla" unicode="&#xb8;" horiz-adv-x="263" 
d="M252 10q-23 -15 -52.5 -43.5t-56.5 -62.5t-47.5 -68.5t-25.5 -60.5q-18 4 -34.5 14.5t-28.5 23.5t-18 26.5t-4 22.5q15 20 46.5 48.5t68 55.5t71.5 49t58 29q11 -6 18 -15t5 -19z" />
    <glyph glyph-name="onesuperior" unicode="&#xb9;" horiz-adv-x="337" 
d="M140 203q-7 -1 -19.5 0t-25 4t-23 7.5t-13.5 11.5q-9 20 2.5 57t46.5 104q21 39 44.5 81t47 82.5t45 76.5t38.5 63q-38 -41 -69.5 -70.5t-64.5 -40.5q-12 4 -19.5 13t-12 19.5t-7 20.5t-3.5 18q42 1 88.5 26t111.5 76q10 5 24 6.5t27.5 -0.5t25.5 -6t18 -10
q-9 -9 -31.5 -46t-51 -89t-59 -111.5t-54.5 -113.5q-26 -62 -45 -110.5t-21 -68.5z" />
    <glyph glyph-name="ordmasculine" unicode="&#xba;" horiz-adv-x="564" 
d="M306 757q42 5 84 -6t75.5 -33.5t54.5 -54t22 -67.5q0 -57 -23 -118t-58.5 -116t-78 -99t-82.5 -67q-42 -3 -83.5 7.5t-74.5 32t-54.5 53t-23.5 69.5q1 57 26.5 119t61.5 117.5t77.5 99t76.5 63.5zM387 426q17 31 32.5 66.5t24 71t7 67.5t-18.5 56q-23 19 -47 14.5
t-48.5 -25t-49 -53.5t-47.5 -70q-23 -35 -41 -76t-28 -80t-9 -72.5t18 -54.5q23 -20 52 -10t58 36.5t54.5 62t42.5 67.5z" />
    <glyph glyph-name="guillemotright" unicode="&#xbb;" horiz-adv-x="769" 
d="M53 172q15 14 45.5 35t70 44.5t85 47.5t89.5 45q-15 19 -39.5 43t-51.5 48t-52.5 45t-42.5 32q1 4 10 10.5t23 13.5t31 12.5t35 7.5q13 -8 35.5 -27t46.5 -44t47 -54t39 -56q8 -2 16 -10.5t4 -32.5q-18 -9 -46.5 -27t-62 -41t-69 -49t-69 -51.5t-62 -48t-46.5 -38.5
q-11 9 -20 22q-8 11 -13 29t-3 44zM316 172q15 14 45.5 35t70 44.5t85 47.5t89.5 45q-15 19 -39.5 43t-51.5 48t-52.5 45t-42.5 32q1 4 10 10.5t23 13.5t31 12.5t35 7.5q13 -8 35.5 -27t46.5 -44t47 -54t39 -56q8 -2 16 -10.5t4 -32.5q-18 -9 -46.5 -27t-62 -41t-69 -49
t-69 -51.5t-62 -48t-46.5 -38.5q-11 9 -20 22q-8 11 -13 29t-3 44z" />
    </font>
</defs>
</svg>
