<?xml version="1.0" standalone="no"?>
<!DOCTYPE svg PUBLIC "-//W3C//DTD SVG 1.1//EN" "http://www.w3.org/Graphics/SVG/1.1/DTD/svg11.dtd" >
<svg xmlns="http://www.w3.org/2000/svg" xmlns:xlink="http://www.w3.org/1999/xlink" version="1.1">
<metadata>
Created by FontForge 20160407 at Wed Sep 28 16:08:53 2016
 By Jimmy Warting
Copyright (c) 2004-2013 by Village Type &#38; Design LLC. All rights reserved.
</metadata>
<defs>
<font id="Polaris-Book" horiz-adv-x="600" >
  <font-face 
    font-family="Polaris Book"
    font-weight="640"
    font-stretch="normal"
    units-per-em="1000"
    panose-1="2 0 0 0 0 0 0 0 0 0"
    ascent="800"
    descent="-200"
    x-height="530"
    cap-height="780"
    bbox="-199 -256 1779 1134"
    underline-thickness="30"
    underline-position="-100"
    stemh="10"
    stemv="70"
    unicode-range="U+0020-F614"
  />
<missing-glyph horiz-adv-x="960" 
d="M90 0v780h780v-780h-780zM480 345l-279 -279h558zM201 714l279 -279l279 279h-558zM435 390l-275 275v-550zM525 390l275 -275v550z" />
    <glyph glyph-name=".notdef" horiz-adv-x="960" 
d="M90 0v780h780v-780h-780zM480 345l-279 -279h558zM201 714l279 -279l279 279h-558zM435 390l-275 275v-550zM525 390l275 -275v550z" />
    <glyph glyph-name="space" unicode=" " horiz-adv-x="240" 
 />
    <glyph glyph-name="A" unicode="A" horiz-adv-x="720" 
d="M21 0l301 790h76l301 -790h-77l-92 247h-340l-92 -247h-77zM360 712l-71 -198l-75 -201h291l-74 201z" />
    <glyph glyph-name="B" unicode="B" horiz-adv-x="695" 
d="M405 0h-315v780h309c89 0 209 -38 209 -204c0 -110 -61 -159 -103 -171c66 -13 130 -72 130 -191c0 -177 -110 -214 -230 -214zM160 66h236c67 0 164 7 164 148c0 139 -86 153 -159 153h-241v-301zM388 714h-228v-281h228c88 0 145 27 145 143c0 114 -54 138 -145 138z
" />
    <glyph glyph-name="C" unicode="C" horiz-adv-x="750" 
d="M139 390c0 -180 53 -335 256 -335c135 0 200 45 220 145l72 -6c-23 -118 -103 -204 -292 -204c-230 0 -330 156 -330 400s100 400 330 400c189 0 269 -86 292 -204l-72 -6c-20 100 -85 145 -220 145c-203 0 -256 -155 -256 -335z" />
    <glyph glyph-name="D" unicode="D" horiz-adv-x="765" 
d="M348 0h-258v780h258c230 0 352 -121 352 -390s-122 -390 -352 -390zM160 66h188c203 0 278 126 278 324s-75 324 -278 324h-188v-648z" />
    <glyph glyph-name="E" unicode="E" horiz-adv-x="695" 
d="M90 780h520v-66h-450v-281h410v-66h-410v-301h470v-66h-540v780z" />
    <glyph glyph-name="F" unicode="F" horiz-adv-x="630" 
d="M160 367v-367h-70v780h500v-66h-430v-281h390v-66h-390z" />
    <glyph glyph-name="G" unicode="G" horiz-adv-x="774" 
d="M395 -10c-230 2 -330 156 -330 400s100 400 330 400c189 0 269 -86 292 -204l-72 -6c-20 100 -85 145 -220 145c-203 0 -256 -155 -256 -335s53 -335 256 -335c89 0 174 24 224 59v223h-170v66h240v-333c-100 -63 -180 -81 -294 -80z" />
    <glyph glyph-name="H" unicode="H" horiz-adv-x="750" 
d="M590 780h70v-780h-70v367h-430v-367h-70v780h70v-347h430v347z" />
    <glyph glyph-name="I" unicode="I" horiz-adv-x="290" 
d="M180 780v-780h-70v780h70z" />
    <glyph glyph-name="J" unicode="J" horiz-adv-x="507" 
d="M351 780h71v-570c0 -129 -71 -220 -204 -220c-144 0 -192 76 -200 165l71 9c5 -69 43 -112 129 -109c89 3 133 50 133 144v581z" />
    <glyph glyph-name="K" unicode="K" horiz-adv-x="695" 
d="M160 780v-423l391 423h97l-328 -350l353 -430h-94l-309 376l-110 -118v-258h-70v780h70z" />
    <glyph glyph-name="L" unicode="L" horiz-adv-x="585" 
d="M160 780v-714h410v-66h-480v780h70z" />
    <glyph glyph-name="M" unicode="M" horiz-adv-x="912" 
d="M423 0l-212 483l-57 141l4 -334v-290h-68v780h61l230 -515l75 -189l75 189l230 515h61v-780h-68v290l4 340l-57 -147l-212 -483h-66z" />
    <glyph glyph-name="N" unicode="N" horiz-adv-x="750" 
d="M597 0l-348 515l-92 142l4 -267v-390h-71v780h63l348 -515l92 -142l-4 267v390h71v-780h-63z" />
    <glyph glyph-name="O" unicode="O" horiz-adv-x="790" 
d="M395 -10c-230 0 -330 156 -330 400s100 400 330 400s330 -156 330 -400s-100 -400 -330 -400zM395 725c-203 0 -256 -155 -256 -335s53 -335 256 -335s256 155 256 335s-53 335 -256 335z" />
    <glyph glyph-name="P" unicode="P" horiz-adv-x="650" 
d="M160 402h217c67 0 160 15 160 156s-93 156 -160 156h-217v-312zM160 336v-336h-70v780h276c120 0 246 -45 246 -222s-126 -222 -246 -222h-206z" />
    <glyph glyph-name="Q" unicode="Q" horiz-adv-x="790" 
d="M795 -131v-79l-541 225c-130 54 -189 188 -189 375c0 244 100 400 330 400s330 -156 330 -400c0 -238 -94 -366 -262 -395v-4l107 -41zM395 725c-203 0 -256 -155 -256 -335s53 -335 256 -335s256 155 256 335s-53 335 -256 335z" />
    <glyph glyph-name="R" unicode="R" horiz-adv-x="705" 
d="M160 347v-347h-70v780h300c120 0 242 -39 242 -216c0 -149 -85 -201 -182 -214l213 -350h-84l-203 347h-216zM160 413h239c67 0 158 10 158 151s-91 150 -158 150h-239v-301z" />
    <glyph glyph-name="S" unicode="S" horiz-adv-x="710" 
d="M355 -10c-189 0 -268 84 -291 202l72 6c20 -100 84 -143 219 -143c99 0 218 42 218 164c0 99 -49 141 -216 160c-133 15 -261 48 -261 197c0 148 119 214 260 214c189 0 264 -83 286 -196l-72 -6c-19 96 -79 137 -214 137c-66 0 -189 -23 -189 -149
c0 -76 36 -115 192 -133c178 -21 283 -55 283 -224c0 -159 -141 -229 -287 -229z" />
    <glyph glyph-name="T" unicode="T" horiz-adv-x="620" 
d="M345 714v-714h-70v714h-250v66h570v-66h-250z" />
    <glyph glyph-name="U" unicode="U" horiz-adv-x="774" 
d="M387 -10c-231 0 -307 126 -307 290v500h72v-502c0 -125 44 -223 235 -223s235 98 235 223v502h72v-500c0 -164 -76 -290 -307 -290z" />
    <glyph glyph-name="V" unicode="V" horiz-adv-x="720" 
d="M698 780l-300 -790h-76l-300 790h76l191 -514l71 -198l71 198l191 514h76z" />
    <glyph glyph-name="W" unicode="W" horiz-adv-x="960" 
d="M295 276l148 504h74l148 -504l45 -169l34 170l114 503h72l-186 -790h-61l-149 509l-54 195l-54 -195l-149 -509h-61l-186 790h72l114 -503l34 -170z" />
    <glyph glyph-name="X" unicode="X" horiz-adv-x="700" 
d="M350 345l-92 -141l-135 -204h-85l232 342l42 61l-41 58l-215 319h82l120 -180l92 -140l92 140l120 180h84l-215 -319l-41 -58l42 -61l230 -342h-85l-135 204z" />
    <glyph glyph-name="Y" unicode="Y" horiz-adv-x="710" 
d="M20 780h81l162 -244l92 -141l92 141l162 244h81l-300 -445v-335h-70v335z" />
    <glyph glyph-name="Z" unicode="Z" horiz-adv-x="690" 
d="M53 0v58l416 552l83 105l-269 -1h-210v66h567v-58l-416 -552l-83 -105l269 1h230v-66h-587z" />
    <glyph glyph-name="Agrave" unicode="&#xc0;" horiz-adv-x="720" 
d="M21 0l301 790h76l301 -790h-77l-92 247h-340l-92 -247h-77zM360 712l-71 -198l-75 -201h291l-74 201zM214 1030h82l94 -208h-65z" />
    <glyph glyph-name="Aacute" unicode="&#xc1;" horiz-adv-x="720" 
d="M21 0l301 790h76l301 -790h-77l-92 247h-340l-92 -247h-77zM360 712l-71 -198l-75 -201h291l-74 201zM424 1030h82l-111 -208h-65z" />
    <glyph glyph-name="Acircumflex" unicode="&#xc2;" horiz-adv-x="720" 
d="M21 0l301 790h76l301 -790h-77l-92 247h-340l-92 -247h-77zM360 712l-71 -198l-75 -201h291l-74 201zM544 822h-67l-117 150l-117 -150h-67l150 208h68z" />
    <glyph glyph-name="Adieresis" unicode="&#xc4;" horiz-adv-x="720" 
d="M21 0l301 790h76l301 -790h-77l-92 247h-340l-92 -247h-77zM360 712l-71 -198l-75 -201h291l-74 201zM310 969v-86h-86v86h86zM496 969v-86h-86v86h86z" />
    <glyph glyph-name="Atilde" unicode="&#xc3;" horiz-adv-x="720" 
d="M21 0l301 790h76l301 -790h-77l-92 247h-340l-92 -247h-77zM360 712l-71 -198l-75 -201h291l-74 201zM431 860c-79 4 -94 72 -146 75c-60 4 -68 -52 -68 -52l-55 8c13 59 46 107 127 103c79 -4 94 -72 146 -75c60 -4 68 52 68 52l55 -8c-13 -59 -46 -107 -127 -103z" />
    <glyph glyph-name="Aring" unicode="&#xc5;" horiz-adv-x="720" 
d="M21 0l301 790h76l301 -790h-77l-92 247h-340l-92 -247h-77zM360 712l-71 -198l-75 -201h291l-74 201zM246 926c0 66 42 114 114 114s114 -48 114 -114s-42 -114 -114 -114s-114 48 -114 114zM304 926c0 -34 21 -58 56 -58s56 24 56 58s-21 58 -56 58s-56 -24 -56 -58z
" />
    <glyph glyph-name="Acaron" unicode="&#x1cd;" horiz-adv-x="720" 
d="M21 0l301 790h76l301 -790h-77l-92 247h-340l-92 -247h-77zM360 712l-71 -198l-75 -201h291l-74 201zM176 1030h67l117 -150l117 150h67l-150 -208h-68z" />
    <glyph glyph-name="Amacron" unicode="&#x100;" horiz-adv-x="720" 
d="M21 0l301 790h76l301 -790h-77l-92 247h-340l-92 -247h-77zM360 712l-71 -198l-75 -201h291l-74 201zM224 894v64h272v-64h-272z" />
    <glyph glyph-name="Abreve" unicode="&#x102;" horiz-adv-x="720" 
d="M21 0l301 790h76l301 -790h-77l-92 247h-340l-92 -247h-77zM360 712l-71 -198l-75 -201h291l-74 201zM482 1030h56c0 -126 -42 -198 -178 -198s-178 72 -178 198h56c0 -105 36 -142 122 -142s122 37 122 142z" />
    <glyph glyph-name="Ainvertedbreve" unicode="&#x202;" horiz-adv-x="720" 
d="M21 0l301 790h76l301 -790h-77l-92 247h-340l-92 -247h-77zM360 712l-71 -198l-75 -201h291l-74 201zM538 822h-56c0 105 -36 142 -122 142s-122 -37 -122 -142h-56c0 126 42 198 178 198s178 -72 178 -198z" />
    <glyph glyph-name="Adoublegrave" unicode="&#x200;" horiz-adv-x="720" 
d="M21 0l301 790h76l301 -790h-77l-92 247h-340l-92 -247h-77zM360 712l-71 -198l-75 -201h291l-74 201zM289 1030h82l94 -208h-65zM149 1030h82l94 -208h-65z" />
    <glyph glyph-name="Adotabove" unicode="&#x226;" horiz-adv-x="720" 
d="M21 0l301 790h76l301 -790h-77l-92 247h-340l-92 -247h-77zM360 712l-71 -198l-75 -201h291l-74 201zM403 969v-86h-86v86h86z" />
    <glyph glyph-name="Aringacute" unicode="&#x1fa;" horiz-adv-x="720" 
d="M21 0l301 790h76l301 -790h-77l-92 247h-340l-92 -247h-77zM360 712l-71 -198l-75 -201h291l-74 201zM343 1134h77l-60 -94c72 0 114 -48 114 -114s-42 -114 -114 -114s-114 48 -114 114c0 25 6 48 18 66zM304 926c0 -34 21 -58 56 -58s56 24 56 58s-21 58 -56 58
s-56 -24 -56 -58z" />
    <glyph glyph-name="Adieresismacron" unicode="&#x1de;" horiz-adv-x="720" 
d="M21 0l301 790h76l301 -790h-77l-92 247h-340l-92 -247h-77zM360 712l-71 -198l-75 -201h291l-74 201zM310 929v-86h-86v86h86zM496 929v-86h-86v86h86zM224 994v64h272v-64h-272z" />
    <glyph glyph-name="Aogonek" unicode="&#x104;" horiz-adv-x="720" 
d="M21 0l301 790h76l301 -790c-70 -10 -134 -57 -134 -109c0 -29 16 -46 56 -46c35 0 72 21 72 21l17 -51c-21 -13 -55 -25 -100 -25c-53 0 -110 25 -110 93c0 52 43 103 114 137l-84 227h-340l-92 -247h-77zM360 712l-71 -198l-75 -201h291l-74 201z" />
    <glyph glyph-name="Anocross" unicode="&#xe731;" horiz-adv-x="720" 
d="M22 0l300 790h76l300 -790h-76l-191 514l-71 198l-71 -198l-191 -514h-76z" />
    <glyph glyph-name="Aumlaut.alt" horiz-adv-x="720" 
d="M21 0l301 790h76l301 -790h-77l-92 247h-340l-92 -247h-77zM360 712l-71 -198l-75 -201h291l-74 201zM210 779v-86h-86v86h86zM596 779v-86h-86v86h86z" />
    <glyph glyph-name="AE" unicode="&#xc6;" horiz-adv-x="1060" 
d="M574 0l-47 247h-306l-129 -247h-79l418 780h544v-66h-467l54 -281h373v-66h-360l58 -301h362v-66h-421zM446 674l-190 -361h258l-41 217z" />
    <glyph glyph-name="AEacute" unicode="&#x1fc;" horiz-adv-x="1060" 
d="M574 0l-47 247h-306l-129 -247h-79l418 780h544v-66h-467l54 -281h373v-66h-360l58 -301h362v-66h-421zM446 674l-190 -361h258l-41 217zM564 1030h82l-111 -208h-65z" />
    <glyph glyph-name="AEmacron" unicode="&#x1e2;" horiz-adv-x="1060" 
d="M574 0l-47 247h-306l-129 -247h-79l418 780h544v-66h-467l54 -281h373v-66h-360l58 -301h362v-66h-421zM446 674l-190 -361h258l-41 217zM364 894v64h272v-64h-272z" />
    <glyph glyph-name="Cacute" unicode="&#x106;" horiz-adv-x="750" 
d="M139 390c0 -180 53 -335 256 -335c135 0 200 45 220 145l72 -6c-23 -118 -103 -204 -292 -204c-230 0 -330 156 -330 400s100 400 330 400c189 0 269 -86 292 -204l-72 -6c-20 100 -85 145 -220 145c-203 0 -256 -155 -256 -335zM449 1030h82l-111 -208h-65z" />
    <glyph glyph-name="Ccircumflex" unicode="&#x108;" horiz-adv-x="750" 
d="M139 390c0 -180 53 -335 256 -335c135 0 200 45 220 145l72 -6c-23 -118 -103 -204 -292 -204c-230 0 -330 156 -330 400s100 400 330 400c189 0 269 -86 292 -204l-72 -6c-20 100 -85 145 -220 145c-203 0 -256 -155 -256 -335zM569 822h-67l-117 150l-117 -150h-67
l150 208h68z" />
    <glyph glyph-name="Ccaron" unicode="&#x10c;" horiz-adv-x="750" 
d="M139 390c0 -180 53 -335 256 -335c135 0 200 45 220 145l72 -6c-23 -118 -103 -204 -292 -204c-230 0 -330 156 -330 400s100 400 330 400c189 0 269 -86 292 -204l-72 -6c-20 100 -85 145 -220 145c-203 0 -256 -155 -256 -335zM501 1030h67l-150 -208h-68l-150 208h67
l117 -150z" />
    <glyph glyph-name="Cdotaccent" unicode="&#x10a;" horiz-adv-x="750" 
d="M139 390c0 -180 53 -335 256 -335c135 0 200 45 220 145l72 -6c-23 -118 -103 -204 -292 -204c-230 0 -330 156 -330 400s100 400 330 400c189 0 269 -86 292 -204l-72 -6c-20 100 -85 145 -220 145c-203 0 -256 -155 -256 -335zM428 969v-86h-86v86h86z" />
    <glyph glyph-name="Ccedilla" unicode="&#xc7;" horiz-adv-x="750" 
d="M139 390c0 -180 53 -335 256 -335c135 0 200 45 220 145l72 -6c-22 -114 -97 -197 -270 -203l-7 -25c46 -11 87 -37 87 -93c0 -59 -48 -83 -109 -83c-31 0 -65 9 -79 17l15 44s27 -12 56 -13c41 -1 59 13 59 34c0 35 -42 48 -90 53l22 66c-213 10 -306 163 -306 399
c0 244 100 400 330 400c189 0 269 -86 292 -204l-72 -6c-20 100 -85 145 -220 145c-203 0 -256 -155 -256 -335z" />
    <glyph glyph-name="Dcaron" unicode="&#x10e;" horiz-adv-x="765" 
d="M348 0h-258v780h258c230 0 352 -121 352 -390s-122 -390 -352 -390zM160 66h188c203 0 278 126 278 324s-75 324 -278 324h-188v-648zM455 1030h67l-150 -208h-68l-150 208h67l117 -150z" />
    <glyph glyph-name="Ddotbelow" unicode="&#x1e0c;" horiz-adv-x="765" 
d="M348 0h-258v780h258c230 0 352 -121 352 -390s-122 -390 -352 -390zM160 66h188c203 0 278 126 278 324s-75 324 -278 324h-188v-648zM391 -67v-86h-86v86h86z" />
    <glyph glyph-name="Dcedilla" unicode="&#x1e10;" horiz-adv-x="765" 
d="M348 0h-258v780h258c230 0 352 -121 352 -390s-122 -390 -352 -390zM160 66h188c203 0 278 126 278 324s-75 324 -278 324h-188v-648zM301 -75l17 49c92 -11 131 -45 131 -101c0 -59 -48 -83 -109 -83c-31 0 -65 9 -79 17l15 44s27 -12 56 -13c41 -1 59 13 59 34
c0 35 -42 48 -90 53z" />
    <glyph glyph-name="Dcroat" unicode="&#x110;" horiz-adv-x="820" 
d="M403 0h-258v367h-120v66h120v347h258c230 0 352 -121 352 -390s-122 -390 -352 -390zM215 66h188c203 0 278 126 278 324s-75 324 -278 324h-188v-281h238v-66h-238v-301z" />
    <glyph glyph-name="Egrave" unicode="&#xc8;" horiz-adv-x="695" 
d="M90 780h520v-66h-450v-281h410v-66h-410v-301h470v-66h-540v780zM209 1030h82l94 -208h-65z" />
    <glyph glyph-name="Eacute" unicode="&#xc9;" horiz-adv-x="695" 
d="M90 780h520v-66h-450v-281h410v-66h-410v-301h470v-66h-540v780zM409 1030h82l-111 -208h-65z" />
    <glyph glyph-name="Ecircumflex" unicode="&#xca;" horiz-adv-x="695" 
d="M90 780h520v-66h-450v-281h410v-66h-410v-301h470v-66h-540v780zM534 822h-67l-117 150l-117 -150h-67l150 208h68z" />
    <glyph glyph-name="Emacron" unicode="&#x112;" horiz-adv-x="695" 
d="M90 780h520v-66h-450v-281h410v-66h-410v-301h470v-66h-540v780zM214 894v64h272v-64h-272z" />
    <glyph glyph-name="Ebreve" unicode="&#x114;" horiz-adv-x="695" 
d="M90 780h520v-66h-450v-281h410v-66h-410v-301h470v-66h-540v780zM472 1030h56c0 -126 -42 -198 -178 -198s-178 72 -178 198h56c0 -105 36 -142 122 -142s122 37 122 142z" />
    <glyph glyph-name="Einvertedbreve" unicode="&#x206;" horiz-adv-x="695" 
d="M90 780h520v-66h-450v-281h410v-66h-410v-301h470v-66h-540v780zM528 822h-56c0 105 -36 142 -122 142s-122 -37 -122 -142h-56c0 126 42 198 178 198s178 -72 178 -198z" />
    <glyph glyph-name="Edotaccent" unicode="&#x116;" horiz-adv-x="695" 
d="M90 780h520v-66h-450v-281h410v-66h-410v-301h470v-66h-540v780zM393 969v-86h-86v86h86z" />
    <glyph glyph-name="Edieresis" unicode="&#xcb;" horiz-adv-x="695" 
d="M90 780h520v-66h-450v-281h410v-66h-410v-301h470v-66h-540v780zM300 969v-86h-86v86h86zM486 969v-86h-86v86h86z" />
    <glyph glyph-name="Edoublegrave" unicode="&#x204;" horiz-adv-x="695" 
d="M90 780h520v-66h-450v-281h410v-66h-410v-301h470v-66h-540v780zM279 1030h82l94 -208h-65zM139 1030h82l94 -208h-65z" />
    <glyph glyph-name="Ecaron" unicode="&#x11a;" horiz-adv-x="695" 
d="M90 780h520v-66h-450v-281h410v-66h-410v-301h470v-66h-540v780zM467 1030h67l-150 -208h-68l-150 208h67l117 -150z" />
    <glyph glyph-name="uni004500600323" unicode="&#xe101;" horiz-adv-x="695" 
d="M400 -67v-86h-86v86h86zM90 780h520v-66h-450v-281h410v-66h-410v-301h470v-66h-540v780zM209 1030h82l94 -208h-65z" />
    <glyph glyph-name="uni004500B40323" unicode="&#xe103;" horiz-adv-x="695" 
d="M90 780h520v-66h-450v-281h410v-66h-410v-301h470v-66h-540v780zM409 1030h82l-111 -208h-65zM400 -67v-86h-86v86h86z" />
    <glyph glyph-name="Eogonek" unicode="&#x118;" horiz-adv-x="695" 
d="M90 780h520v-66h-450v-281h410v-66h-410v-301h470v-66c-70 -10 -134 -57 -134 -109c0 -29 16 -46 56 -46c35 0 72 21 72 21l17 -51c-21 -13 -55 -25 -100 -25c-53 0 -110 25 -110 93c0 43 29 85 78 117h-419v780z" />
    <glyph glyph-name="Gacute" unicode="&#x1f4;" horiz-adv-x="774" 
d="M395 55c89 0 174 24 224 59v223h-170v66h240v-333c-100 -63 -180 -81 -294 -80c-230 2 -330 156 -330 400s100 400 330 400c189 0 269 -86 292 -204l-72 -6c-20 100 -85 145 -220 145c-203 0 -256 -155 -256 -335s53 -335 256 -335zM449 1030h82l-111 -208h-65z" />
    <glyph glyph-name="Gcircumflex" unicode="&#x11c;" horiz-adv-x="774" 
d="M395 55c89 0 174 24 224 59v223h-170v66h240v-333c-100 -63 -180 -81 -294 -80c-230 2 -330 156 -330 400s100 400 330 400c189 0 269 -86 292 -204l-72 -6c-20 100 -85 145 -220 145c-203 0 -256 -155 -256 -335s53 -335 256 -335zM569 822h-67l-117 150l-117 -150h-67
l150 208h68z" />
    <glyph glyph-name="Gtilde" unicode="&#xe105;" horiz-adv-x="774" 
d="M395 55c89 0 174 24 224 59v223h-170v66h240v-333c-100 -63 -180 -81 -294 -80c-230 2 -330 156 -330 400s100 400 330 400c189 0 269 -86 292 -204l-72 -6c-20 100 -85 145 -220 145c-203 0 -256 -155 -256 -335s53 -335 256 -335zM456 860c-79 4 -94 72 -146 75
c-60 4 -68 -52 -68 -52l-55 8c13 59 46 107 127 103c79 -4 94 -72 146 -75c60 -4 68 52 68 52l55 -8c-13 -59 -46 -107 -127 -103z" />
    <glyph glyph-name="Gbreve" unicode="&#x11e;" horiz-adv-x="774" 
d="M395 55c89 0 174 24 224 59v223h-170v66h240v-333c-100 -63 -180 -81 -294 -80c-230 2 -330 156 -330 400s100 400 330 400c189 0 269 -86 292 -204l-72 -6c-20 100 -85 145 -220 145c-203 0 -256 -155 -256 -335s53 -335 256 -335zM507 1030h56
c0 -126 -42 -198 -178 -198s-178 72 -178 198h56c0 -105 36 -142 122 -142s122 37 122 142z" />
    <glyph glyph-name="Gdotaccent" unicode="&#x120;" horiz-adv-x="774" 
d="M395 55c89 0 174 24 224 59v223h-170v66h240v-333c-100 -63 -180 -81 -294 -80c-230 2 -330 156 -330 400s100 400 330 400c189 0 269 -86 292 -204l-72 -6c-20 100 -85 145 -220 145c-203 0 -256 -155 -256 -335s53 -335 256 -335zM428 969v-86h-86v86h86z" />
    <glyph glyph-name="Gcaron" unicode="&#x1e6;" horiz-adv-x="774" 
d="M395 55c89 0 174 24 224 59v223h-170v66h240v-333c-100 -63 -180 -81 -294 -80c-230 2 -330 156 -330 400s100 400 330 400c189 0 269 -86 292 -204l-72 -6c-20 100 -85 145 -220 145c-203 0 -256 -155 -256 -335s53 -335 256 -335zM502 1030h67l-150 -208h-68l-150 208
h67l117 -150z" />
    <glyph glyph-name="Gcommaturnedabove" unicode="&#xe107;" horiz-adv-x="774" 
d="M395 55c89 0 174 24 224 59v223h-170v66h240v-333c-100 -63 -180 -81 -294 -80c-230 2 -330 156 -330 400s100 400 330 400c189 0 269 -86 292 -204l-72 -6c-20 100 -85 145 -220 145c-203 0 -256 -155 -256 -335s53 -335 256 -335zM427 822h-79l75 208h61z" />
    <glyph glyph-name="Gcommaaccent" unicode="&#x122;" horiz-adv-x="774" 
d="M395 55c89 0 174 24 224 59v223h-170v66h240v-333c-100 -63 -180 -81 -294 -80c-230 2 -330 156 -330 400s100 400 330 400c189 0 269 -86 292 -204l-72 -6c-20 100 -85 145 -220 145c-203 0 -256 -155 -256 -335s53 -335 256 -335zM355 -62h79l-50 -138h-67z" />
    <glyph glyph-name="Gstroke" unicode="&#x1e4;" horiz-adv-x="814" 
d="M689 182v-112c-100 -63 -180 -81 -294 -80c-230 2 -330 156 -330 400s100 400 330 400c189 0 269 -86 292 -204l-72 -6c-20 100 -85 145 -220 145c-203 0 -256 -155 -256 -335s53 -335 256 -335c89 0 174 24 224 59v68h-224v66h224v89h-170v66h240v-155h120v-66h-120z
" />
    <glyph glyph-name="Hcircumflex" unicode="&#x124;" horiz-adv-x="750" 
d="M590 780h70v-780h-70v367h-430v-367h-70v780h70v-347h430v347zM559 822h-67l-117 150l-117 -150h-67l150 208h68z" />
    <glyph glyph-name="Hcaron" unicode="&#x21e;" horiz-adv-x="750" 
d="M590 780h70v-780h-70v367h-430v-367h-70v780h70v-347h430v347zM191 1030h67l117 -150l117 150h67l-150 -208h-68z" />
    <glyph glyph-name="Hdotbelow" unicode="&#x1e24;" horiz-adv-x="750" 
d="M590 780h70v-780h-70v367h-430v-367h-70v780h70v-347h430v347zM418 -67v-86h-86v86h86z" />
    <glyph glyph-name="Hmacronbelow" unicode="&#xe109;" horiz-adv-x="750" 
d="M590 780h70v-780h-70v367h-430v-367h-70v780h70v-347h430v347zM239 -142v64h272v-64h-272z" />
    <glyph glyph-name="Hbar" unicode="&#x126;" horiz-adv-x="750" 
d="M590 780h70v-780h-70v367h-430v-367h-70v780h70v-153h430v153zM160 433h430v130h-430v-130z" />
    <glyph glyph-name="Igrave" unicode="&#xcc;" horiz-adv-x="290" 
d="M180 780v-780h-70v780h70zM0 1030h82l94 -208h-65z" />
    <glyph glyph-name="Iacute" unicode="&#xcd;" horiz-adv-x="290" 
d="M180 780v-780h-70v780h70zM208 1030h82l-111 -208h-65z" />
    <glyph glyph-name="Icircumflex" unicode="&#xce;" horiz-adv-x="290" 
d="M180 780v-780h-70v780h70zM329 822h-67l-117 150l-117 -150h-67l150 208h68z" />
    <glyph glyph-name="Idieresis" unicode="&#xcf;" horiz-adv-x="290" 
d="M180 780v-780h-70v780h70zM95 969v-86h-86v86h86zM281 969v-86h-86v86h86z" />
    <glyph glyph-name="Itilde" unicode="&#x128;" horiz-adv-x="290" 
d="M180 780v-780h-70v780h70zM216 860c-79 4 -94 72 -146 75c-60 4 -68 -52 -68 -52l-55 8c13 59 46 107 127 103c79 -4 94 -72 146 -75c60 -4 68 52 68 52l55 -8c-13 -59 -46 -107 -127 -103z" />
    <glyph glyph-name="Icaron" unicode="&#x1cf;" horiz-adv-x="290" 
d="M180 780v-780h-70v780h70zM-39 1030h67l117 -150l117 150h67l-150 -208h-68z" />
    <glyph glyph-name="Imacron" unicode="&#x12a;" horiz-adv-x="290" 
d="M180 780v-780h-70v780h70zM9 894v64h272v-64h-272z" />
    <glyph glyph-name="Ibreve" unicode="&#x12c;" horiz-adv-x="290" 
d="M180 780v-780h-70v780h70zM267 1030h56c0 -126 -42 -198 -178 -198s-178 72 -178 198h56c0 -105 36 -142 122 -142s122 37 122 142z" />
    <glyph glyph-name="Iinvertedbreve" unicode="&#x20a;" horiz-adv-x="290" 
d="M180 780v-780h-70v780h70zM323 822h-56c0 105 -36 142 -122 142s-122 -37 -122 -142h-56c0 126 42 198 178 198s178 -72 178 -198z" />
    <glyph glyph-name="Idoublegrave" unicode="&#x208;" horiz-adv-x="290" 
d="M180 780v-780h-70v780h70zM74 1030h82l94 -208h-65zM-66 1030h82l94 -208h-65z" />
    <glyph glyph-name="Idotaccent" unicode="&#x130;" horiz-adv-x="290" 
d="M180 780v-780h-70v780h70zM188 969v-86h-86v86h86z" />
    <glyph glyph-name="Idotbelow" unicode="&#x1eca;" horiz-adv-x="290" 
d="M180 780v-780h-70v780h70zM188 -67v-86h-86v86h86z" />
    <glyph glyph-name="Iogonek" unicode="&#x12e;" horiz-adv-x="290" 
d="M180 780v-780c-43 -31 -83 -65 -83 -109c0 -29 16 -46 56 -46c35 0 72 21 72 21l17 -51c-21 -13 -55 -25 -100 -25c-53 0 -110 25 -110 93c0 54 35 85 78 117v780h70z" />
    <glyph glyph-name="Jcircumflex" unicode="&#x134;" horiz-adv-x="507" 
d="M569 822h-67l-117 150l-117 -150h-67l150 208h68zM351 780h71v-570c0 -129 -71 -220 -204 -220c-144 0 -192 76 -200 165l71 9c5 -69 43 -112 129 -109c89 3 133 50 133 144v581z" />
    <glyph glyph-name="Jcaron" unicode="&#xe10b;" horiz-adv-x="507" 
d="M201 1030h67l117 -150l117 150h67l-150 -208h-68zM351 780h71v-570c0 -129 -71 -220 -204 -220c-144 0 -192 76 -200 165l71 9c5 -69 43 -112 129 -109c89 3 133 50 133 144v581z" />
    <glyph glyph-name="Kcaron" unicode="&#x1e8;" horiz-adv-x="695" 
d="M160 780v-423l391 423h97l-328 -350l353 -430h-94l-309 376l-110 -118v-258h-70v780h70zM462 1030h67l-150 -208h-68l-150 208h67l117 -150z" />
    <glyph glyph-name="Kcommaaccent" unicode="&#x136;" horiz-adv-x="695" 
d="M160 780v-423l391 423h97l-328 -350l353 -430h-94l-309 376l-110 -118v-258h-70v780h70zM330 -62h79l-50 -138h-67z" />
    <glyph glyph-name="Kcedilla" unicode="&#xe10d;" horiz-adv-x="695" 
d="M160 780v-423l391 423h97l-328 -350l353 -430h-94l-309 376l-110 -118v-258h-70v780h70zM323 -75l17 49c92 -11 131 -45 131 -101c0 -59 -48 -83 -109 -83c-31 0 -65 9 -79 17l15 44s27 -12 56 -13c41 -1 59 13 59 34c0 35 -42 48 -90 53z" />
    <glyph glyph-name="Khook" unicode="&#x198;" horiz-adv-x="695" 
d="M610 723c-122 0 -118 -175 -267 -322l330 -401h-94l-291 354c-36 -26 -78 -51 -128 -72v-282h-70v780h70v-422c302 137 224 432 450 432c19 0 43 -3 57 -8l-8 -68c-7 3 -25 9 -49 9z" />
    <glyph glyph-name="Lacute" unicode="&#x139;" horiz-adv-x="585" 
d="M160 780v-714h410v-66h-480v780h70zM189 1030h82l-111 -208h-65z" />
    <glyph glyph-name="Lcaron" unicode="&#x13d;" horiz-adv-x="585" 
d="M160 780v-714h410v-66h-480v780h70zM393 800h79l-75 -208h-61z" />
    <glyph glyph-name="Lcommaaccent" unicode="&#x13b;" horiz-adv-x="585" 
d="M160 780v-714h410v-66h-480v780h70zM297 -62h79l-50 -138h-67z" />
    <glyph glyph-name="Lcedilla" unicode="&#xe10f;" horiz-adv-x="585" 
d="M160 780v-714h410v-66h-480v780h70zM301 -75l17 49c92 -11 131 -45 131 -101c0 -59 -48 -83 -109 -83c-31 0 -65 9 -79 17l15 44s27 -12 56 -13c41 -1 59 13 59 34c0 35 -42 48 -90 53z" />
    <glyph glyph-name="Ldotbelow" unicode="&#x1e36;" horiz-adv-x="585" 
d="M160 780v-714h410v-66h-480v780h70zM376 -67v-86h-86v86h86z" />
    <glyph glyph-name="uni004C032300AF" unicode="&#x1e38;" horiz-adv-x="585" 
d="M160 780v-714h410v-66h-480v780h70zM376 -67v-86h-86v86h86zM9 894v64h232v-64h-232z" />
    <glyph glyph-name="Ldot" unicode="&#x13f;" horiz-adv-x="585" 
d="M160 780v-714h410v-66h-480v780h70zM461 443v-86h-86v86h86z" />
    <glyph glyph-name="Lslash" unicode="&#x141;" horiz-adv-x="585" 
d="M445 455l-285 -144v-245h410v-66h-480v276l-80 -40v65l80 40v439h70v-403l285 143v-65z" />
    <glyph glyph-name="Mmacron" unicode="&#xe111;" horiz-adv-x="912" 
d="M423 0l-212 483l-57 141l4 -334v-290h-68v780h61l230 -515l75 -189l75 189l230 515h61v-780h-68v290l4 340l-57 -147l-212 -483h-66zM320 894v64h272v-64h-272z" />
    <glyph glyph-name="Mcedilla" unicode="&#xe113;" horiz-adv-x="912" 
d="M423 0l-212 483l-57 141l4 -334v-290h-68v780h61l230 -515l75 -189l75 189l230 515h61v-780h-68v290l4 340l-57 -147l-212 -483h-66zM410 -75l17 49c92 -11 131 -45 131 -101c0 -59 -48 -83 -109 -83c-31 0 -65 9 -79 17l15 44s27 -12 56 -13c41 -1 59 13 59 34
c0 35 -42 48 -90 53z" />
    <glyph glyph-name="Mdotbelow" unicode="&#x1e42;" horiz-adv-x="912" 
d="M423 0l-212 483l-57 141l4 -334v-290h-68v780h61l230 -515l75 -189l75 189l230 515h61v-780h-68v290l4 340l-57 -147l-212 -483h-66zM499 -67v-86h-86v86h86z" />
    <glyph glyph-name="Ngrave" unicode="&#x1f8;" horiz-adv-x="750" 
d="M597 0l-348 515l-92 142l4 -267v-390h-71v780h63l348 -515l92 -142l-4 267v390h71v-780h-63zM229 1030h82l94 -208h-65z" />
    <glyph glyph-name="Nacute" unicode="&#x143;" horiz-adv-x="750" 
d="M597 0l-348 515l-92 142l4 -267v-390h-71v780h63l348 -515l92 -142l-4 267v390h71v-780h-63zM439 1030h82l-111 -208h-65z" />
    <glyph glyph-name="Ndieresis" unicode="&#xe115;" horiz-adv-x="750" 
d="M597 0l-348 515l-92 142l4 -267v-390h-71v780h63l348 -515l92 -142l-4 267v390h71v-780h-63zM325 969v-86h-86v86h86zM511 969v-86h-86v86h86z" />
    <glyph glyph-name="Ntilde" unicode="&#xd1;" horiz-adv-x="750" 
d="M597 0l-348 515l-92 142l4 -267v-390h-71v780h63l348 -515l92 -142l-4 267v390h71v-780h-63zM446 860c-79 4 -94 72 -146 75c-60 4 -68 -52 -68 -52l-55 8c13 59 46 107 127 103c79 -4 94 -72 146 -75c60 -4 68 52 68 52l55 -8c-13 -59 -46 -107 -127 -103z" />
    <glyph glyph-name="Ncaron" unicode="&#x147;" horiz-adv-x="750" 
d="M597 0l-348 515l-92 142l4 -267v-390h-71v780h63l348 -515l92 -142l-4 267v390h71v-780h-63zM492 1030h67l-150 -208h-68l-150 208h67l117 -150z" />
    <glyph glyph-name="Nmacron" unicode="&#xe117;" horiz-adv-x="750" 
d="M597 0l-348 515l-92 142l4 -267v-390h-71v780h63l348 -515l92 -142l-4 267v390h71v-780h-63zM239 894v64h272v-64h-272z" />
    <glyph glyph-name="Ndotaccent" unicode="&#x1e44;" horiz-adv-x="750" 
d="M597 0l-348 515l-92 142l4 -267v-390h-71v780h63l348 -515l92 -142l-4 267v390h71v-780h-63zM418 969v-86h-86v86h86z" />
    <glyph glyph-name="Ncommaaccent" unicode="&#x145;" horiz-adv-x="750" 
d="M597 0l-348 515l-92 142l4 -267v-390h-71v780h63l348 -515l92 -142l-4 267v390h71v-780h-63zM345 -62h79l-50 -138h-67z" />
    <glyph glyph-name="Ncedilla" unicode="&#xe119;" horiz-adv-x="750" 
d="M597 0l-348 515l-92 142l4 -267v-390h-71v780h63l348 -515l92 -142l-4 267v390h71v-780h-63zM341 -75l17 49c92 -11 131 -45 131 -101c0 -59 -48 -83 -109 -83c-31 0 -65 9 -79 17l15 44s27 -12 56 -13c41 -1 59 13 59 34c0 35 -42 48 -90 53z" />
    <glyph glyph-name="Ndotbelow" unicode="&#x1e46;" horiz-adv-x="750" 
d="M597 0l-348 515l-92 142l4 -267v-390h-71v780h63l348 -515l92 -142l-4 267v390h71v-780h-63zM418 -67v-86h-86v86h86z" />
    <glyph glyph-name="Ndescender" unicode="&#xe806;" horiz-adv-x="750" 
d="M660 780v-980h-70v210l-341 505l-92 142l4 -267v-390h-71v780h63l348 -515l92 -142l-4 267v390h71z" />
    <glyph glyph-name="Ograve" unicode="&#xd2;" horiz-adv-x="790" 
d="M395 -10c-230 0 -330 156 -330 400s100 400 330 400s330 -156 330 -400s-100 -400 -330 -400zM395 725c-203 0 -256 -155 -256 -335s53 -335 256 -335s256 155 256 335s-53 335 -256 335zM259 1030h82l94 -208h-65z" />
    <glyph glyph-name="Oacute" unicode="&#xd3;" horiz-adv-x="790" 
d="M395 -10c-230 0 -330 156 -330 400s100 400 330 400s330 -156 330 -400s-100 -400 -330 -400zM395 725c-203 0 -256 -155 -256 -335s53 -335 256 -335s256 155 256 335s-53 335 -256 335zM459 1030h82l-111 -208h-65z" />
    <glyph glyph-name="Ocircumflex" unicode="&#xd4;" horiz-adv-x="790" 
d="M395 -10c-230 0 -330 156 -330 400s100 400 330 400s330 -156 330 -400s-100 -400 -330 -400zM395 725c-203 0 -256 -155 -256 -335s53 -335 256 -335s256 155 256 335s-53 335 -256 335zM579 822h-67l-117 150l-117 -150h-67l150 208h68z" />
    <glyph glyph-name="Odieresis" unicode="&#xd6;" horiz-adv-x="790" 
d="M395 -10c-230 0 -330 156 -330 400s100 400 330 400s330 -156 330 -400s-100 -400 -330 -400zM395 725c-203 0 -256 -155 -256 -335s53 -335 256 -335s256 155 256 335s-53 335 -256 335zM345 969v-86h-86v86h86zM531 969v-86h-86v86h86z" />
    <glyph glyph-name="Otilde" unicode="&#xd5;" horiz-adv-x="790" 
d="M395 -10c-230 0 -330 156 -330 400s100 400 330 400s330 -156 330 -400s-100 -400 -330 -400zM395 725c-203 0 -256 -155 -256 -335s53 -335 256 -335s256 155 256 335s-53 335 -256 335zM466 860c-79 4 -94 72 -146 75c-60 4 -68 -52 -68 -52l-55 8
c13 59 46 107 127 103c79 -4 94 -72 146 -75c60 -4 68 52 68 52l55 -8c-13 -59 -46 -107 -127 -103z" />
    <glyph glyph-name="Ocaron" unicode="&#x1d1;" horiz-adv-x="790" 
d="M395 -10c-230 0 -330 156 -330 400s100 400 330 400s330 -156 330 -400s-100 -400 -330 -400zM395 725c-203 0 -256 -155 -256 -335s53 -335 256 -335s256 155 256 335s-53 335 -256 335zM211 1030h67l117 -150l117 150h67l-150 -208h-68z" />
    <glyph glyph-name="Omacron" unicode="&#x14c;" horiz-adv-x="790" 
d="M395 -10c-230 0 -330 156 -330 400s100 400 330 400s330 -156 330 -400s-100 -400 -330 -400zM395 725c-203 0 -256 -155 -256 -335s53 -335 256 -335s256 155 256 335s-53 335 -256 335zM259 894v64h272v-64h-272z" />
    <glyph glyph-name="Obreve" unicode="&#x14e;" horiz-adv-x="790" 
d="M395 -10c-230 0 -330 156 -330 400s100 400 330 400s330 -156 330 -400s-100 -400 -330 -400zM395 725c-203 0 -256 -155 -256 -335s53 -335 256 -335s256 155 256 335s-53 335 -256 335zM517 1030h56c0 -126 -42 -198 -178 -198s-178 72 -178 198h56
c0 -105 36 -142 122 -142s122 37 122 142z" />
    <glyph glyph-name="Oinvertedbreve" unicode="&#x20e;" horiz-adv-x="790" 
d="M395 -10c-230 0 -330 156 -330 400s100 400 330 400s330 -156 330 -400s-100 -400 -330 -400zM395 725c-203 0 -256 -155 -256 -335s53 -335 256 -335s256 155 256 335s-53 335 -256 335zM573 822h-56c0 105 -36 142 -122 142s-122 -37 -122 -142h-56
c0 126 42 198 178 198s178 -72 178 -198z" />
    <glyph glyph-name="Ohungarumlaut" unicode="&#x150;" horiz-adv-x="790" 
d="M395 -10c-230 0 -330 156 -330 400s100 400 330 400s330 -156 330 -400s-100 -400 -330 -400zM395 725c-203 0 -256 -155 -256 -335s53 -335 256 -335s256 155 256 335s-53 335 -256 335zM379 1030h82l-111 -208h-65zM519 1030h82l-111 -208h-65z" />
    <glyph glyph-name="Odoublegrave" unicode="&#x20c;" horiz-adv-x="790" 
d="M395 -10c-230 0 -330 156 -330 400s100 400 330 400s330 -156 330 -400s-100 -400 -330 -400zM395 725c-203 0 -256 -155 -256 -335s53 -335 256 -335s256 155 256 335s-53 335 -256 335zM329 1030h82l94 -208h-65zM189 1030h82l94 -208h-65z" />
    <glyph glyph-name="Ocommaturnedabove" unicode="&#xe11b;" horiz-adv-x="790" 
d="M395 -10c-230 0 -330 156 -330 400s100 400 330 400s330 -156 330 -400s-100 -400 -330 -400zM395 725c-203 0 -256 -155 -256 -335s53 -335 256 -335s256 155 256 335s-53 335 -256 335zM437 822h-79l75 208h61z" />
    <glyph glyph-name="Otildemacron" unicode="&#x22c;" horiz-adv-x="790" 
d="M395 -10c-230 0 -330 156 -330 400s100 400 330 400s330 -156 330 -400s-100 -400 -330 -400zM395 725c-203 0 -256 -155 -256 -335s53 -335 256 -335s256 155 256 335s-53 335 -256 335zM466 820c-79 4 -94 72 -146 75c-60 4 -68 -52 -68 -52l-55 8
c13 59 46 107 127 103c79 -4 94 -72 146 -75c60 -4 68 52 68 52l55 -8c-13 -59 -46 -107 -127 -103zM259 994v64h272v-64h-272z" />
    <glyph glyph-name="Odotabove" unicode="&#x22e;" horiz-adv-x="790" 
d="M395 -10c-230 0 -330 156 -330 400s100 400 330 400s330 -156 330 -400s-100 -400 -330 -400zM395 725c-203 0 -256 -155 -256 -335s53 -335 256 -335s256 155 256 335s-53 335 -256 335zM438 969v-86h-86v86h86z" />
    <glyph glyph-name="uni004F02D900AF" unicode="&#xe11d;" horiz-adv-x="790" 
d="M395 -10c-230 0 -330 156 -330 400s100 400 330 400s330 -156 330 -400s-100 -400 -330 -400zM395 725c-203 0 -256 -155 -256 -335s53 -335 256 -335s256 155 256 335s-53 335 -256 335zM438 934v-86h-86v86h86zM259 994v64h272v-64h-272z" />
    <glyph glyph-name="Ocedilla" unicode="&#xe11f;" horiz-adv-x="790" 
d="M395 -10c-230 0 -330 156 -330 400s100 400 330 400s330 -156 330 -400s-100 -400 -330 -400zM395 725c-203 0 -256 -155 -256 -335s53 -335 256 -335s256 155 256 335s-53 335 -256 335zM349 -75l17 49c92 -11 131 -45 131 -101c0 -59 -48 -83 -109 -83
c-31 0 -65 9 -79 17l15 44s27 -12 56 -13c41 -1 59 13 59 34c0 35 -42 48 -90 53z" />
    <glyph glyph-name="Odotbelow" unicode="&#x1ecc;" horiz-adv-x="790" 
d="M395 -10c-230 0 -330 156 -330 400s100 400 330 400s330 -156 330 -400s-100 -400 -330 -400zM395 725c-203 0 -256 -155 -256 -335s53 -335 256 -335s256 155 256 335s-53 335 -256 335zM438 -67v-86h-86v86h86z" />
    <glyph glyph-name="Oogonek" unicode="&#x1ea;" horiz-adv-x="790" 
d="M725 390c0 -211 -75 -354 -241 -391c-62 -14 -117 -61 -117 -108c0 -29 16 -46 56 -46c35 0 72 21 72 21l17 -51c-21 -13 -55 -25 -100 -25c-53 0 -110 25 -110 93c0 39 24 77 65 108c-210 12 -302 165 -302 399c0 244 100 400 330 400s330 -156 330 -400zM395 725
c-203 0 -256 -155 -256 -335s53 -335 256 -335s256 155 256 335s-53 335 -256 335z" />
    <glyph glyph-name="uni004F02DB00AF" unicode="&#x1ec;" horiz-adv-x="790" 
d="M725 390c0 -211 -75 -354 -241 -391c-62 -14 -117 -61 -117 -108c0 -29 16 -46 56 -46c35 0 72 21 72 21l17 -51c-21 -13 -55 -25 -100 -25c-53 0 -110 25 -110 93c0 39 24 77 65 108c-210 12 -302 165 -302 399c0 244 100 400 330 400s330 -156 330 -400zM395 725
c-203 0 -256 -155 -256 -335s53 -335 256 -335s256 155 256 335s-53 335 -256 335zM259 894v64h272v-64h-272z" />
    <glyph glyph-name="Ounderlineaccent" unicode="&#xe121;" horiz-adv-x="790" 
d="M395 -10c-230 0 -330 156 -330 400s100 400 330 400s330 -156 330 -400s-100 -400 -330 -400zM395 725c-203 0 -256 -155 -256 -335s53 -335 256 -335s256 155 256 335s-53 335 -256 335zM425 -200h-60v160h60v-160z" />
    <glyph glyph-name="Oslash" unicode="&#xd8;" horiz-adv-x="790" 
d="M395 -10c-79 0 -143 18 -192 52l-28 -42h-68l52 80c-65 69 -94 177 -94 310c0 244 100 400 330 400c79 0 143 -19 193 -53l28 43h68l-53 -81c64 -70 94 -177 94 -309c0 -244 -100 -400 -330 -400zM395 725c-203 0 -256 -155 -256 -335c0 -97 15 -186 60 -248l351 537
c-38 29 -88 46 -155 46zM651 390c0 96 -15 185 -60 247l-351 -537c38 -29 88 -45 155 -45c203 0 256 155 256 335z" />
    <glyph glyph-name="Oslashacute" unicode="&#x1fe;" horiz-adv-x="790" 
d="M395 -10c-79 0 -143 18 -192 52l-28 -42h-68l52 80c-65 69 -94 177 -94 310c0 244 100 400 330 400c79 0 143 -19 193 -53l28 43h68l-53 -81c64 -70 94 -177 94 -309c0 -244 -100 -400 -330 -400zM395 725c-203 0 -256 -155 -256 -335c0 -97 15 -186 60 -248l351 537
c-38 29 -88 46 -155 46zM651 390c0 96 -15 185 -60 247l-351 -537c38 -29 88 -45 155 -45c203 0 256 155 256 335zM459 1030h82l-111 -208h-65z" />
    <glyph glyph-name="barredO" unicode="&#xe738;" horiz-adv-x="790" 
d="M395 -10c-230 0 -330 156 -330 400s100 400 330 400s330 -156 330 -400s-100 -400 -330 -400zM395 55c194 0 251 142 255 312h-511c5 -170 61 -312 256 -312zM395 725c-187 0 -247 -131 -255 -292h510c-9 161 -69 292 -255 292z" />
    <glyph glyph-name="Oumlaut.alt" horiz-adv-x="790" 
d="M395 -10c-230 0 -330 156 -330 400s100 400 330 400s330 -156 330 -400s-100 -400 -330 -400zM395 725c-203 0 -256 -155 -256 -335s53 -335 256 -335s256 155 256 335s-53 335 -256 335zM145 779v-86h-86v86h86zM731 779v-86h-86v86h86z" />
    <glyph glyph-name="OE" unicode="&#x152;" horiz-adv-x="1070" 
d="M515 714h-98c-203 0 -278 -126 -278 -324s75 -324 278 -324h98v648zM417 780h568v-66h-400v-281h360v-66h-360v-301h420v-66h-588c-230 0 -352 121 -352 390s122 390 352 390z" />
    <glyph glyph-name="Pmacron" unicode="&#xe123;" horiz-adv-x="650" 
d="M160 402h217c67 0 160 15 160 156s-93 156 -160 156h-217v-312zM160 336v-336h-70v780h276c120 0 246 -45 246 -222s-126 -222 -246 -222h-206zM179 894v64h272v-64h-272z" />
    <glyph glyph-name="Racute" unicode="&#x154;" horiz-adv-x="705" 
d="M160 347v-347h-70v780h300c120 0 242 -39 242 -216c0 -149 -85 -201 -182 -214l213 -350h-84l-203 347h-216zM160 413h239c67 0 158 10 158 151s-91 150 -158 150h-239v-301zM392 1030h82l-111 -208h-65z" />
    <glyph glyph-name="Rcaron" unicode="&#x158;" horiz-adv-x="705" 
d="M447 1030h67l-150 -208h-68l-150 208h67l117 -150zM160 347v-347h-70v780h300c120 0 242 -39 242 -216c0 -149 -85 -201 -182 -214l213 -350h-84l-203 347h-216zM160 413h239c67 0 158 10 158 151s-91 150 -158 150h-239v-301z" />
    <glyph glyph-name="Rinvertedbreve" unicode="&#x212;" horiz-adv-x="705" 
d="M518 822h-56c0 105 -36 142 -122 142s-122 -37 -122 -142h-56c0 126 42 198 178 198s178 -72 178 -198zM160 347v-347h-70v780h300c120 0 242 -39 242 -216c0 -149 -85 -201 -182 -214l213 -350h-84l-203 347h-216zM160 413h239c67 0 158 10 158 151s-91 150 -158 150
h-239v-301z" />
    <glyph glyph-name="Rdoublegrave" unicode="&#xe125;" horiz-adv-x="705" 
d="M259 1030h82l94 -208h-65zM119 1030h82l94 -208h-65zM160 347v-347h-70v780h300c120 0 242 -39 242 -216c0 -149 -85 -201 -182 -214l213 -350h-84l-203 347h-216zM160 413h239c67 0 158 10 158 151s-91 150 -158 150h-239v-301z" />
    <glyph glyph-name="Rcommaaccent" unicode="&#x156;" horiz-adv-x="705" 
d="M310 -62h79l-50 -138h-67zM160 347v-347h-70v780h300c120 0 242 -39 242 -216c0 -149 -85 -201 -182 -214l213 -350h-84l-203 347h-216zM160 413h239c67 0 158 10 158 151s-91 150 -158 150h-239v-301z" />
    <glyph glyph-name="Rcedilla" unicode="&#xe127;" horiz-adv-x="705" 
d="M313 -75l17 49c92 -11 131 -45 131 -101c0 -59 -48 -83 -109 -83c-31 0 -65 9 -79 17l15 44s27 -12 56 -13c41 -1 59 13 59 34c0 35 -42 48 -90 53zM160 347v-347h-70v780h300c120 0 242 -39 242 -216c0 -149 -85 -201 -182 -214l213 -350h-84l-203 347h-216zM160 413
h239c67 0 158 10 158 151s-91 150 -158 150h-239v-301z" />
    <glyph glyph-name="Rdotbelow" unicode="&#x1e5a;" horiz-adv-x="705" 
d="M386 -67v-86h-86v86h86zM160 347v-347h-70v780h300c120 0 242 -39 242 -216c0 -149 -85 -201 -182 -214l213 -350h-84l-203 347h-216zM160 413h239c67 0 158 10 158 151s-91 150 -158 150h-239v-301z" />
    <glyph glyph-name="Rdotbelowmacron" unicode="&#x1e5c;" horiz-adv-x="705" 
d="M386 -67v-86h-86v86h86zM189 894v64h272v-64h-272zM160 347v-347h-70v780h300c120 0 242 -39 242 -216c0 -149 -85 -201 -182 -214l213 -350h-84l-203 347h-216zM160 413h239c67 0 158 10 158 151s-91 150 -158 150h-239v-301z" />
    <glyph glyph-name="Sacute" unicode="&#x15a;" horiz-adv-x="710" 
d="M355 -10c-189 0 -268 84 -291 202l72 6c20 -100 84 -143 219 -143c99 0 218 42 218 164c0 99 -49 141 -216 160c-133 15 -261 48 -261 197c0 148 119 214 260 214c189 0 264 -83 286 -196l-72 -6c-19 96 -79 137 -214 137c-66 0 -189 -23 -189 -149
c0 -76 36 -115 192 -133c178 -21 283 -55 283 -224c0 -159 -141 -229 -287 -229zM420 1030h82l-111 -208h-65z" />
    <glyph glyph-name="Scircumflex" unicode="&#x15c;" horiz-adv-x="710" 
d="M355 -10c-189 0 -268 84 -291 202l72 6c20 -100 84 -143 219 -143c99 0 218 42 218 164c0 99 -49 141 -216 160c-133 15 -261 48 -261 197c0 148 119 214 260 214c189 0 264 -83 286 -196l-72 -6c-19 96 -79 137 -214 137c-66 0 -189 -23 -189 -149
c0 -76 36 -115 192 -133c178 -21 283 -55 283 -224c0 -159 -141 -229 -287 -229zM540 822h-67l-117 150l-117 -150h-67l150 208h68z" />
    <glyph glyph-name="Scaron" unicode="&#x160;" horiz-adv-x="710" 
d="M355 -10c-189 0 -268 84 -291 202l72 6c20 -100 84 -143 219 -143c99 0 218 42 218 164c0 99 -49 141 -216 160c-133 15 -261 48 -261 197c0 148 119 214 260 214c189 0 264 -83 286 -196l-72 -6c-19 96 -79 137 -214 137c-66 0 -189 -23 -189 -149
c0 -76 36 -115 192 -133c178 -21 283 -55 283 -224c0 -159 -141 -229 -287 -229zM473 1030h67l-150 -208h-68l-150 208h67l117 -150z" />
    <glyph glyph-name="Scommaaccent" unicode="&#x218;" horiz-adv-x="710" 
d="M355 -10c-189 0 -268 84 -291 202l72 6c20 -100 84 -143 219 -143c99 0 218 42 218 164c0 99 -49 141 -216 160c-133 15 -261 48 -261 197c0 148 119 214 260 214c189 0 264 -83 286 -196l-72 -6c-19 96 -79 137 -214 137c-66 0 -189 -23 -189 -149
c0 -76 36 -115 192 -133c178 -21 283 -55 283 -224c0 -159 -141 -229 -287 -229zM322 -62h79l-50 -138h-67z" />
    <glyph glyph-name="Scedilla" unicode="&#x15e;" horiz-adv-x="710" 
d="M642 219c0 -151 -127 -222 -265 -228l-7 -25c46 -11 87 -37 87 -93c0 -59 -48 -83 -109 -83c-31 0 -65 9 -79 17l15 44s27 -12 56 -13c41 -1 59 13 59 34c0 35 -42 48 -90 53l22 66c-172 7 -245 88 -267 201l72 6c20 -100 84 -143 219 -143c99 0 218 42 218 164
c0 99 -49 141 -216 160c-133 15 -261 48 -261 197c0 148 119 214 260 214c189 0 264 -83 286 -196l-72 -6c-19 96 -79 137 -214 137c-66 0 -189 -23 -189 -149c0 -76 36 -115 192 -133c178 -21 283 -55 283 -224z" />
    <glyph glyph-name="Sdotbelow" unicode="&#x1e62;" horiz-adv-x="710" 
d="M355 -10c-189 0 -268 84 -291 202l72 6c20 -100 84 -143 219 -143c99 0 218 42 218 164c0 99 -49 141 -216 160c-133 15 -261 48 -261 197c0 148 119 214 260 214c189 0 264 -83 286 -196l-72 -6c-19 96 -79 137 -214 137c-66 0 -189 -23 -189 -149
c0 -76 36 -115 192 -133c178 -21 283 -55 283 -224c0 -159 -141 -229 -287 -229zM393 -67v-86h-86v86h86z" />
    <glyph glyph-name="Tcaron" unicode="&#x164;" horiz-adv-x="620" 
d="M345 714v-714h-70v714h-250v66h570v-66h-250zM427 1030h67l-150 -208h-68l-150 208h67l117 -150z" />
    <glyph glyph-name="Tcommaaccent" unicode="&#x162;" horiz-adv-x="620" 
d="M345 714v-714h-70v714h-250v66h570v-66h-250zM270 -62h79l-50 -138h-67z" />
    <glyph glyph-name="Tcedilla" unicode="&#xe129;" horiz-adv-x="620" 
d="M345 714v-714h-70v714h-250v66h570v-66h-250zM273 -75l17 49c92 -11 131 -45 131 -101c0 -59 -48 -83 -109 -83c-31 0 -65 9 -79 17l15 44s27 -12 56 -13c41 -1 59 13 59 34c0 35 -42 48 -90 53z" />
    <glyph glyph-name="Tdotbelow" unicode="&#x1e6c;" horiz-adv-x="620" 
d="M345 714v-714h-70v714h-250v66h570v-66h-250zM353 -67v-86h-86v86h86z" />
    <glyph glyph-name="Tbar" unicode="&#x166;" horiz-adv-x="620" 
d="M465 367h-120v-367h-70v367h-120v66h120v281h-250v66h570v-66h-250v-281h120v-66z" />
    <glyph glyph-name="Ugrave" unicode="&#xd9;" horiz-adv-x="774" 
d="M387 -10c-231 0 -307 126 -307 290v500h72v-502c0 -125 44 -223 235 -223s235 98 235 223v502h72v-500c0 -164 -76 -290 -307 -290zM252 1030h82l94 -208h-65z" />
    <glyph glyph-name="Uacute" unicode="&#xda;" horiz-adv-x="774" 
d="M387 -10c-231 0 -307 126 -307 290v500h72v-502c0 -125 44 -223 235 -223s235 98 235 223v502h72v-500c0 -164 -76 -290 -307 -290zM451 1030h82l-111 -208h-65z" />
    <glyph glyph-name="Ucircumflex" unicode="&#xdb;" horiz-adv-x="774" 
d="M387 -10c-231 0 -307 126 -307 290v500h72v-502c0 -125 44 -223 235 -223s235 98 235 223v502h72v-500c0 -164 -76 -290 -307 -290zM571 822h-67l-117 150l-117 -150h-67l150 208h68z" />
    <glyph glyph-name="Udieresis" unicode="&#xdc;" horiz-adv-x="774" 
d="M387 -10c-231 0 -307 126 -307 290v500h72v-502c0 -125 44 -223 235 -223s235 98 235 223v502h72v-500c0 -164 -76 -290 -307 -290zM337 969v-86h-86v86h86zM523 969v-86h-86v86h86z" />
    <glyph glyph-name="Utilde" unicode="&#x168;" horiz-adv-x="774" 
d="M387 -10c-231 0 -307 126 -307 290v500h72v-502c0 -125 44 -223 235 -223s235 98 235 223v502h72v-500c0 -164 -76 -290 -307 -290zM458 860c-79 4 -94 72 -146 75c-60 4 -68 -52 -68 -52l-55 8c13 59 46 107 127 103c79 -4 94 -72 146 -75c60 -4 68 52 68 52l55 -8
c-13 -59 -46 -107 -127 -103z" />
    <glyph glyph-name="Uring" unicode="&#x16e;" horiz-adv-x="774" 
d="M387 -10c-231 0 -307 126 -307 290v500h72v-502c0 -125 44 -223 235 -223s235 98 235 223v502h72v-500c0 -164 -76 -290 -307 -290zM273 926c0 66 42 114 114 114s114 -48 114 -114s-42 -114 -114 -114s-114 48 -114 114zM331 926c0 -34 21 -58 56 -58s56 24 56 58
s-21 58 -56 58s-56 -24 -56 -58z" />
    <glyph glyph-name="Ucaron" unicode="&#x1d3;" horiz-adv-x="774" 
d="M387 -10c-231 0 -307 126 -307 290v500h72v-502c0 -125 44 -223 235 -223s235 98 235 223v502h72v-500c0 -164 -76 -290 -307 -290zM203 1030h67l117 -150l117 150h67l-150 -208h-68z" />
    <glyph glyph-name="Umacron" unicode="&#x16a;" horiz-adv-x="774" 
d="M387 -10c-231 0 -307 126 -307 290v500h72v-502c0 -125 44 -223 235 -223s235 98 235 223v502h72v-500c0 -164 -76 -290 -307 -290zM251 894v64h272v-64h-272z" />
    <glyph glyph-name="Ubreve" unicode="&#x16c;" horiz-adv-x="774" 
d="M387 -10c-231 0 -307 126 -307 290v500h72v-502c0 -125 44 -223 235 -223s235 98 235 223v502h72v-500c0 -164 -76 -290 -307 -290zM509 1030h56c0 -126 -42 -198 -178 -198s-178 72 -178 198h56c0 -105 36 -142 122 -142s122 37 122 142z" />
    <glyph glyph-name="Uinvertedbreve" unicode="&#x216;" horiz-adv-x="774" 
d="M387 -10c-231 0 -307 126 -307 290v500h72v-502c0 -125 44 -223 235 -223s235 98 235 223v502h72v-500c0 -164 -76 -290 -307 -290zM565 822h-56c0 105 -36 142 -122 142s-122 -37 -122 -142h-56c0 126 42 198 178 198s178 -72 178 -198z" />
    <glyph glyph-name="Uhungarumlaut" unicode="&#x170;" horiz-adv-x="774" 
d="M387 -10c-231 0 -307 126 -307 290v500h72v-502c0 -125 44 -223 235 -223s235 98 235 223v502h72v-500c0 -164 -76 -290 -307 -290zM511 1030h82l-111 -208h-65zM371 1030h82l-111 -208h-65z" />
    <glyph glyph-name="Udoublegrave" unicode="&#x214;" horiz-adv-x="774" 
d="M387 -10c-231 0 -307 126 -307 290v500h72v-502c0 -125 44 -223 235 -223s235 98 235 223v502h72v-500c0 -164 -76 -290 -307 -290zM181 1030h82l94 -208h-65zM321 1030h82l94 -208h-65z" />
    <glyph glyph-name="Udotbelow" unicode="&#x1ee4;" horiz-adv-x="774" 
d="M387 -10c-231 0 -307 126 -307 290v500h72v-502c0 -125 44 -223 235 -223s235 98 235 223v502h72v-500c0 -164 -76 -290 -307 -290zM430 -67v-86h-86v86h86z" />
    <glyph glyph-name="Umacronbelow" unicode="&#xe12b;" horiz-adv-x="774" 
d="M387 -10c-231 0 -307 126 -307 290v500h72v-502c0 -125 44 -223 235 -223s235 98 235 223v502h72v-500c0 -164 -76 -290 -307 -290zM251 -142v64h272v-64h-272z" />
    <glyph glyph-name="Uogonek" unicode="&#x172;" horiz-adv-x="774" 
d="M387 -10c-231 0 -307 126 -307 290v500h72v-502c0 -125 44 -223 235 -223s235 98 235 223v502h72v-500c0 -133 -50 -240 -191 -277c-68 -18 -116 -67 -116 -112c0 -29 16 -46 56 -46c35 0 72 21 72 21l17 -51c-21 -13 -55 -25 -100 -25c-53 0 -110 25 -110 93
c0 39 24 77 65 107z" />
    <glyph glyph-name="Uumlaut.alt" horiz-adv-x="774" 
d="M387 -10c-231 0 -307 126 -307 290v500h72v-502c0 -125 44 -223 235 -223s235 98 235 223v502h72v-500c0 -164 -76 -290 -307 -290zM337 779v-86h-86v86h86zM523 779v-86h-86v86h86z" />
    <glyph glyph-name="Wgrave" unicode="&#x1e80;" horiz-adv-x="960" 
d="M295 276l148 504h74l148 -504l45 -169l34 170l114 503h72l-186 -790h-61l-149 509l-54 195l-54 -195l-149 -509h-61l-186 790h72l114 -503l34 -170zM334 1030h82l94 -208h-65z" />
    <glyph glyph-name="Wacute" unicode="&#x1e82;" horiz-adv-x="960" 
d="M295 276l148 504h74l148 -504l45 -169l34 170l114 503h72l-186 -790h-61l-149 509l-54 195l-54 -195l-149 -509h-61l-186 790h72l114 -503l34 -170zM544 1030h82l-111 -208h-65z" />
    <glyph glyph-name="Wcircumflex" unicode="&#x174;" horiz-adv-x="960" 
d="M295 276l148 504h74l148 -504l45 -169l34 170l114 503h72l-186 -790h-61l-149 509l-54 195l-54 -195l-149 -509h-61l-186 790h72l114 -503l34 -170zM664 822h-67l-117 150l-117 -150h-67l150 208h68z" />
    <glyph glyph-name="Wdieresis" unicode="&#x1e84;" horiz-adv-x="960" 
d="M295 276l148 504h74l148 -504l45 -169l34 170l114 503h72l-186 -790h-61l-149 509l-54 195l-54 -195l-149 -509h-61l-186 790h72l114 -503l34 -170zM430 969v-86h-86v86h86zM616 969v-86h-86v86h86z" />
    <glyph glyph-name="Ygrave" unicode="&#x1ef2;" horiz-adv-x="710" 
d="M20 780h81l162 -244l92 -141l92 141l162 244h81l-300 -445v-335h-70v335zM219 1030h82l94 -208h-65z" />
    <glyph glyph-name="Yacute" unicode="&#xdd;" horiz-adv-x="710" 
d="M20 780h81l162 -244l92 -141l92 141l162 244h81l-300 -445v-335h-70v335zM419 1030h82l-111 -208h-65z" />
    <glyph glyph-name="Ycircumflex" unicode="&#x176;" horiz-adv-x="710" 
d="M20 780h81l162 -244l92 -141l92 141l162 244h81l-300 -445v-335h-70v335zM539 822h-67l-117 150l-117 -150h-67l150 208h68z" />
    <glyph glyph-name="Ydieresis" unicode="&#x178;" horiz-adv-x="710" 
d="M20 780h81l162 -244l92 -141l92 141l162 244h81l-300 -445v-335h-70v335zM305 969v-86h-86v86h86zM491 969v-86h-86v86h86z" />
    <glyph glyph-name="Ytilde" unicode="&#x1ef8;" horiz-adv-x="710" 
d="M20 780h81l162 -244l92 -141l92 141l162 244h81l-300 -445v-335h-70v335zM426 860c-79 4 -94 72 -146 75c-60 4 -68 -52 -68 -52l-55 8c13 59 46 107 127 103c79 -4 94 -72 146 -75c60 -4 68 52 68 52l55 -8c-13 -59 -46 -107 -127 -103z" />
    <glyph glyph-name="Ymacron" unicode="&#x232;" horiz-adv-x="710" 
d="M20 780h81l162 -244l92 -141l92 141l162 244h81l-300 -445v-335h-70v335zM219 894v64h272v-64h-272z" />
    <glyph glyph-name="IJ" unicode="&#x132;" horiz-adv-x="630" 
d="M180 780v-780h-70v780h70zM349 56c76 0 125 27 125 142v582h70v-582c0 -110 -39 -208 -195 -208c-19 0 -43 3 -57 8l9 67c7 -3 24 -9 48 -9z" />
    <glyph glyph-name="IJ.alt" unicode="&#xe88a;" horiz-adv-x="770" 
d="M185 66v648h-130v66h330v-66h-130v-648h130v-66h-330v66h130zM489 56c76 0 125 27 125 142v582h70v-582c0 -110 -39 -208 -195 -208c-19 0 -43 3 -57 8l9 67c7 -3 24 -9 48 -9z" />
    <glyph glyph-name="Zacute" unicode="&#x179;" horiz-adv-x="690" 
d="M53 0v58l416 552l83 105l-269 -1h-210v66h567v-58l-416 -552l-83 -105l269 1h230v-66h-587zM404 1030h82l-111 -208h-65z" />
    <glyph glyph-name="Zcaron" unicode="&#x17d;" horiz-adv-x="690" 
d="M53 0v58l416 552l83 105l-269 -1h-210v66h567v-58l-416 -552l-83 -105l269 1h230v-66h-587zM457 1030h67l-150 -208h-68l-150 208h67l117 -150z" />
    <glyph glyph-name="Zdotaccent" unicode="&#x17b;" horiz-adv-x="690" 
d="M53 0v58l416 552l83 105l-269 -1h-210v66h567v-58l-416 -552l-83 -105l269 1h230v-66h-587zM383 969v-86h-86v86h86z" />
    <glyph glyph-name="Eng" unicode="&#x14a;" horiz-adv-x="750" 
d="M480 -147c80 0 114 23 114 145v6l-345 511l-92 142l4 -267v-390h-71v780h63l348 -515l92 -142l-4 267v390h71v-782c0 -110 -24 -208 -180 -208c-19 0 -43 3 -57 8l8 64c7 -3 25 -9 49 -9z" />
    <glyph glyph-name="Eth" unicode="&#xd0;" horiz-adv-x="820" 
d="M403 0h-258v367h-120v66h120v347h258c230 0 352 -121 352 -390s-122 -390 -352 -390zM215 66h188c203 0 278 126 278 324s-75 324 -278 324h-188v-281h238v-66h-238v-301z" />
    <glyph glyph-name="Thorn" unicode="&#xde;" horiz-adv-x="650" 
d="M160 780v-158h206c120 0 246 -45 246 -222s-126 -222 -246 -222h-206v-178h-70v780h70zM160 244h217c67 0 160 15 160 156s-93 156 -160 156h-217v-312z" />
    <glyph glyph-name="Ezh" unicode="&#x1b7;" horiz-adv-x="700" 
d="M331 -210c-189 0 -289 85 -312 203l72 6c20 -100 105 -144 240 -144c153 0 257 78 257 239c0 140 -71 228 -256 238c-11 1 -31 0 -31 0l-48 51l183 227l83 105l-241 -1h-210v66h547v-58l-264 -327c193 -14 308 -101 308 -301c0 -201 -140 -304 -328 -304z" />
    <glyph glyph-name="Ezhcaron" unicode="&#x1ee;" horiz-adv-x="700" 
d="M331 -210c-189 0 -289 85 -312 203l72 6c20 -100 105 -144 240 -144c153 0 257 78 257 239c0 140 -71 228 -256 238c-11 1 -31 0 -31 0l-48 51l183 227l83 105l-241 -1h-210v66h547v-58l-264 -327c193 -14 308 -101 308 -301c0 -201 -140 -304 -328 -304zM447 1030h67
l-150 -208h-68l-150 208h67l117 -150z" />
    <glyph glyph-name="Schwa" unicode="&#x18f;" horiz-adv-x="785" 
d="M383 55c152 0 251 120 261 312h-498c3 -186 64 -314 237 -312zM381 725c-135 0 -203 -43 -223 -143l-72 6c23 118 106 202 295 202c210 0 339 -148 339 -400c0 -251 -127 -400 -337 -400c-233 0 -315 163 -315 409v34h576c-7 198 -110 292 -263 292z" />
    <glyph glyph-name="I.alt" unicode="&#xe131;" horiz-adv-x="440" 
d="M185 66v648h-130v66h330v-66h-130v-648h130v-66h-330v66h130z" />
    <glyph glyph-name="Igrave.alt" unicode="&#xe132;" horiz-adv-x="440" 
d="M75 1030h82l94 -208h-65zM185 66v648h-130v66h330v-66h-130v-648h130v-66h-330v66h130z" />
    <glyph glyph-name="Iacute.alt" unicode="&#xe133;" horiz-adv-x="440" 
d="M283 1030h82l-111 -208h-65zM185 66v648h-130v66h330v-66h-130v-648h130v-66h-330v66h130z" />
    <glyph glyph-name="Icircumflex.alt" unicode="&#xe134;" horiz-adv-x="440" 
d="M404 822h-67l-117 150l-117 -150h-67l150 208h68zM185 66v648h-130v66h330v-66h-130v-648h130v-66h-330v66h130z" />
    <glyph glyph-name="Idieresis.alt" unicode="&#xe135;" horiz-adv-x="440" 
d="M170 969v-86h-86v86h86zM356 969v-86h-86v86h86zM185 66v648h-130v66h330v-66h-130v-648h130v-66h-330v66h130z" />
    <glyph glyph-name="Itilde.alt" unicode="&#xe136;" horiz-adv-x="440" 
d="M291 880c-79 4 -94 72 -146 75c-60 4 -68 -52 -68 -52l-55 8c13 59 46 107 127 103c79 -4 94 -72 146 -75c60 -4 68 52 68 52l55 -8c-13 -59 -46 -107 -127 -103zM185 66v648h-130v66h330v-66h-130v-648h130v-66h-330v66h130z" />
    <glyph glyph-name="Icaron.alt" unicode="&#xe137;" horiz-adv-x="440" 
d="M36 1030h67l117 -150l117 150h67l-150 -208h-68zM185 66v648h-130v66h330v-66h-130v-648h130v-66h-330v66h130z" />
    <glyph glyph-name="Imacron.alt" unicode="&#xe138;" horiz-adv-x="440" 
d="M84 894v64h272v-64h-272zM185 66v648h-130v66h330v-66h-130v-648h130v-66h-330v66h130z" />
    <glyph glyph-name="Ibreve.alt" unicode="&#xe139;" horiz-adv-x="440" 
d="M342 1030h56c0 -126 -42 -198 -178 -198s-178 72 -178 198h56c0 -105 36 -142 122 -142s122 37 122 142zM185 66v648h-130v66h330v-66h-130v-648h130v-66h-330v66h130z" />
    <glyph glyph-name="Iinvertedbreve.alt" unicode="&#xe13a;" horiz-adv-x="440" 
d="M398 822h-56c0 105 -36 142 -122 142s-122 -37 -122 -142h-56c0 126 42 198 178 198s178 -72 178 -198zM185 66v648h-130v66h330v-66h-130v-648h130v-66h-330v66h130z" />
    <glyph glyph-name="Idoublegrave.alt" unicode="&#xe13b;" horiz-adv-x="440" 
d="M149 1030h82l94 -208h-65zM9 1030h82l94 -208h-65zM185 66v648h-130v66h330v-66h-130v-648h130v-66h-330v66h130z" />
    <glyph glyph-name="Idotaccent.alt" unicode="&#xe13c;" horiz-adv-x="440" 
d="M263 969v-86h-86v86h86zM185 66v648h-130v66h330v-66h-130v-648h130v-66h-330v66h130z" />
    <glyph glyph-name="Idotbelow.alt" unicode="&#xe13d;" horiz-adv-x="440" 
d="M263 -67v-86h-86v86h86zM185 66v648h-130v66h330v-66h-130v-648h130v-66h-330v66h130z" />
    <glyph glyph-name="Iogonek.alt" unicode="&#xe13e;" horiz-adv-x="440" 
d="M55 0v66h130v648h-130v66h330v-66h-130v-648h130v-66c-70 -10 -134 -57 -134 -109c0 -29 16 -46 56 -46c35 0 72 21 72 21l17 -51c-21 -13 -55 -25 -100 -25c-53 0 -110 25 -110 93c0 43 29 85 78 117h-209z" />
    <glyph glyph-name="a" unicode="a" horiz-adv-x="570" 
d="M52 142c0 109 81 144 202 162l182 27v25c0 92 -59 121 -154 123c-90 2 -124 -36 -139 -103l-69 10c19 91 69 154 208 154c137 0 218 -62 218 -188v-228l6 -124h-58l-12 91c-32 -60 -116 -101 -199 -101c-124 0 -185 57 -185 152zM120 142c0 -63 42 -91 117 -91
c113 0 196 85 199 153v70l-183 -29c-74 -12 -133 -29 -133 -103z" />
    <glyph glyph-name="b" unicode="b" horiz-adv-x="599" 
d="M136 800v-360c35 58 100 100 178 100c148 0 235 -101 235 -275s-87 -275 -235 -275c-78 0 -143 42 -178 101l-12 -91h-60l6 124v676h66zM479 265c0 136 -63 212 -167 212c-108 0 -173 -84 -176 -151v-122c3 -68 68 -151 176 -151c104 0 167 75 167 212z" />
    <glyph glyph-name="c" unicode="c" horiz-adv-x="550" 
d="M119 265c0 -136 62 -212 167 -214c90 -2 131 36 146 102l71 -9c-19 -91 -79 -154 -216 -154c-149 0 -237 101 -237 275s88 275 237 275c137 0 197 -63 216 -154l-71 -9c-15 66 -56 104 -146 102c-105 -2 -167 -78 -167 -214z" />
    <glyph glyph-name="d" unicode="d" horiz-adv-x="599" 
d="M463 440v360h66v-676l6 -124h-60l-12 91c-35 -59 -100 -101 -178 -101c-148 0 -235 101 -235 275s87 275 235 275c78 0 143 -42 178 -100zM120 265c0 -137 63 -212 167 -212c108 0 173 83 176 151v122c-3 67 -68 151 -176 151c-104 0 -167 -76 -167 -212z" />
    <glyph glyph-name="e" unicode="e" horiz-adv-x="570" 
d="M291 540c155 0 224 -100 224 -274v-27h-395c6 -134 74 -188 172 -188c94 -2 134 39 149 102l71 -9c-16 -82 -80 -154 -221 -154c-148 0 -241 91 -241 275s93 275 241 275zM291 480c-97 0 -164 -54 -171 -182h323c-2 117 -49 184 -152 182z" />
    <glyph glyph-name="f" unicode="f" horiz-adv-x="385" 
d="M37 468v62h106v72c0 109 24 208 181 208c19 0 43 -3 57 -8l-8 -64c-8 3 -25 9 -49 9c-80 0 -115 -24 -115 -145v-72h153v-62h-153v-468h-66v468h-106z" />
    <glyph glyph-name="g" unicode="g" horiz-adv-x="599" 
d="M285 -153c98 2 179 38 179 130v133c-35 -58 -101 -100 -179 -100c-148 0 -235 91 -235 265s87 265 235 265c78 0 143 -42 178 -101l12 91h60l-6 -124v-422c0 -126 -93 -194 -244 -194c-155 0 -212 72 -225 154l70 9c11 -63 52 -108 155 -106zM118 275
c0 -136 65 -203 169 -203c108 0 174 85 177 152v102c-3 68 -69 152 -177 152c-104 0 -169 -66 -169 -203z" />
    <glyph glyph-name="h" unicode="h" horiz-adv-x="574" 
d="M70 0v800h66v-360c35 58 101 100 181 100c110 0 196 -62 196 -170v-370h-66v355c0 79 -57 122 -140 122c-99 0 -168 -84 -171 -151v-326h-66z" />
    <glyph glyph-name="i" unicode="i" horiz-adv-x="250" 
d="M168 739v-86h-86v86h86zM92 0v530h66v-530h-66z" />
    <glyph glyph-name="j" unicode="j" horiz-adv-x="250" 
d="M-17 -147c80 0 114 23 114 145v532h66v-532c0 -110 -24 -208 -180 -208c-19 0 -43 3 -57 8l8 64c7 -3 25 -9 49 -9zM173 739v-86h-86v86h86z" />
    <glyph glyph-name="k" unicode="k" horiz-adv-x="535" 
d="M136 0h-66v800h66v-536l101 103l163 163h95l-231 -225l268 -305h-91l-222 261l-83 -81v-180z" />
    <glyph glyph-name="l" unicode="l" horiz-adv-x="250" 
d="M92 0v800h66v-800h-66z" />
    <glyph glyph-name="m" unicode="m" horiz-adv-x="863" 
d="M124 530l12 -88c33 58 90 98 158 98c85 0 145 -38 167 -110c38 76 103 110 166 110c107 0 175 -60 175 -170v-370h-66v355c0 83 -39 122 -119 122c-85 0 -144 -84 -148 -151v-326h-66v355c0 83 -38 122 -119 122c-86 0 -145 -84 -148 -151v-326h-66v407l-6 123h60z" />
    <glyph glyph-name="n" unicode="n" horiz-adv-x="574" 
d="M124 530l12 -90c35 58 101 100 181 100c110 0 196 -62 196 -170v-370h-66v355c0 79 -57 122 -140 122c-99 0 -168 -84 -171 -151v-326h-66v407l-6 123h60z" />
    <glyph glyph-name="o" unicode="o" horiz-adv-x="578" 
d="M289 -10c-147 0 -239 91 -239 275s92 275 239 275s239 -91 239 -275s-92 -275 -239 -275zM289 478c-104 0 -170 -63 -170 -213s66 -213 170 -213s170 63 170 213s-66 213 -170 213z" />
    <glyph glyph-name="p" unicode="p" horiz-adv-x="599" 
d="M136 90v-290h-66v606l-6 124h60l12 -91c35 59 100 101 178 101c148 0 235 -101 235 -275s-87 -275 -235 -275c-78 0 -143 42 -178 100zM479 265c0 137 -63 212 -167 212c-108 0 -173 -83 -176 -151v-122c3 -67 68 -151 176 -151c104 0 167 76 167 212z" />
    <glyph glyph-name="q" unicode="q" horiz-adv-x="599" 
d="M463 -200v290c-35 -58 -100 -100 -178 -100c-148 0 -235 101 -235 275s87 275 235 275c78 0 143 -42 178 -101l12 91h60l-6 -124v-606h-66zM120 265c0 -136 63 -212 167 -212c108 0 173 84 176 151v122c-3 68 -68 151 -176 151c-104 0 -167 -75 -167 -212z" />
    <glyph glyph-name="r" unicode="r" horiz-adv-x="395" 
d="M371 532l-7 -68c-8 3 -27 9 -52 9c-108 0 -173 -84 -176 -151v-322h-66v407l-6 123h60l12 -94c31 57 98 104 176 104c19 0 46 -3 59 -8z" />
    <glyph glyph-name="s" unicode="s" horiz-adv-x="530" 
d="M262 51c75 2 157 22 157 101c0 78 -59 78 -158 93c-73 11 -201 21 -201 137c0 117 108 158 200 158c137 0 197 -63 216 -154l-71 -9c-15 66 -56 104 -146 102c-57 -1 -130 -15 -130 -93c0 -64 59 -67 143 -80c92 -14 218 -20 218 -151c0 -121 -117 -165 -227 -165
c-141 0 -205 72 -221 154l71 9c15 -63 55 -104 149 -102z" />
    <glyph glyph-name="t" unicode="t" horiz-adv-x="395" 
d="M27 468v62h96v135l66 22v-157h163v-62h-163v-270c0 -121 35 -145 115 -145c24 0 41 6 49 9l8 -64c-14 -5 -38 -8 -57 -8c-157 0 -181 99 -181 208v270h-96z" />
    <glyph glyph-name="u" unicode="u" horiz-adv-x="574" 
d="M450 0l-12 90c-35 -58 -101 -100 -181 -100c-110 0 -196 62 -196 170v370h66v-355c0 -79 57 -122 140 -122c99 0 168 84 171 151v326h66v-407l6 -123h-60z" />
    <glyph glyph-name="v" unicode="v" horiz-adv-x="540" 
d="M518 530l-207 -540h-81l-208 540h74l116 -317l58 -165l58 165l117 317h73z" />
    <glyph glyph-name="w" unicode="w" horiz-adv-x="810" 
d="M448 326l-43 143l-43 -143l-104 -336h-79l-149 540h71l80 -312l37 -153l45 153l97 312h90l97 -312l45 -153l37 153l80 312h71l-149 -540h-79z" />
    <glyph glyph-name="x" unicode="x" horiz-adv-x="530" 
d="M265 222l-69 -97l-92 -125h-81l160 220l42 56l-42 55l-147 199h81l79 -111l69 -97l68 97l79 111h80l-145 -199l-41 -55l41 -56l160 -220h-81l-91 125z" />
    <glyph glyph-name="y" unicode="y" horiz-adv-x="540" 
d="M522 530l-209 -494l-96 -236h-77l93 220l-215 510h78l115 -291l59 -152l59 152l116 291h77z" />
    <glyph glyph-name="z" unicode="z" horiz-adv-x="535" 
d="M45 0v54l275 324l83 91l-146 -1h-193v62h419v-54l-275 -324l-83 -91l146 1h223v-62h-449z" />
    <glyph glyph-name="agrave" unicode="&#xe0;" horiz-adv-x="570" 
d="M146 800h82l94 -208h-65zM52 142c0 109 81 144 202 162l182 27v25c0 92 -59 121 -154 123c-90 2 -124 -36 -139 -103l-69 10c19 91 69 154 208 154c137 0 218 -62 218 -188v-228l6 -124h-58l-12 91c-32 -60 -116 -101 -199 -101c-124 0 -185 57 -185 152zM120 142
c0 -63 42 -91 117 -91c113 0 196 85 199 153v70l-183 -29c-74 -12 -133 -29 -133 -103z" />
    <glyph glyph-name="aacute" unicode="&#xe1;" horiz-adv-x="570" 
d="M346 800h82l-111 -208h-65zM52 142c0 109 81 144 202 162l182 27v25c0 92 -59 121 -154 123c-90 2 -124 -36 -139 -103l-69 10c19 91 69 154 208 154c137 0 218 -62 218 -188v-228l6 -124h-58l-12 91c-32 -60 -116 -101 -199 -101c-124 0 -185 57 -185 152zM120 142
c0 -63 42 -91 117 -91c113 0 196 85 199 153v70l-183 -29c-74 -12 -133 -29 -133 -103z" />
    <glyph glyph-name="acircumflex" unicode="&#xe2;" horiz-adv-x="570" 
d="M466 592h-67l-117 150l-117 -150h-67l150 208h68zM52 142c0 109 81 144 202 162l182 27v25c0 92 -59 121 -154 123c-90 2 -124 -36 -139 -103l-69 10c19 91 69 154 208 154c137 0 218 -62 218 -188v-228l6 -124h-58l-12 91c-32 -60 -116 -101 -199 -101
c-124 0 -185 57 -185 152zM120 142c0 -63 42 -91 117 -91c113 0 196 85 199 153v70l-183 -29c-74 -12 -133 -29 -133 -103z" />
    <glyph glyph-name="adieresis" unicode="&#xe4;" horiz-adv-x="570" 
d="M232 739v-86h-86v86h86zM418 739v-86h-86v86h86zM52 142c0 109 81 144 202 162l182 27v25c0 92 -59 121 -154 123c-90 2 -124 -36 -139 -103l-69 10c19 91 69 154 208 154c137 0 218 -62 218 -188v-228l6 -124h-58l-12 91c-32 -60 -116 -101 -199 -101
c-124 0 -185 57 -185 152zM120 142c0 -63 42 -91 117 -91c113 0 196 85 199 153v70l-183 -29c-74 -12 -133 -29 -133 -103z" />
    <glyph glyph-name="atilde" unicode="&#xe3;" horiz-adv-x="570" 
d="M353 630c-79 4 -94 72 -146 75c-60 4 -68 -52 -68 -52l-55 8c13 59 46 107 127 103c79 -4 94 -72 146 -75c60 -4 68 52 68 52l55 -8c-13 -59 -46 -107 -127 -103zM52 142c0 109 81 144 202 162l182 27v25c0 92 -59 121 -154 123c-90 2 -124 -36 -139 -103l-69 10
c19 91 69 154 208 154c137 0 218 -62 218 -188v-228l6 -124h-58l-12 91c-32 -60 -116 -101 -199 -101c-124 0 -185 57 -185 152zM120 142c0 -63 42 -91 117 -91c113 0 196 85 199 153v70l-183 -29c-74 -12 -133 -29 -133 -103z" />
    <glyph glyph-name="aring" unicode="&#xe5;" horiz-adv-x="570" 
d="M168 696c0 66 42 114 114 114s114 -48 114 -114s-42 -114 -114 -114s-114 48 -114 114zM226 696c0 -34 21 -58 56 -58s56 24 56 58s-21 58 -56 58s-56 -24 -56 -58zM52 142c0 109 81 144 202 162l182 27v25c0 92 -59 121 -154 123c-90 2 -124 -36 -139 -103l-69 10
c19 91 69 154 208 154c137 0 218 -62 218 -188v-228l6 -124h-58l-12 91c-32 -60 -116 -101 -199 -101c-124 0 -185 57 -185 152zM120 142c0 -63 42 -91 117 -91c113 0 196 85 199 153v70l-183 -29c-74 -12 -133 -29 -133 -103z" />
    <glyph glyph-name="acaron" unicode="&#x1ce;" horiz-adv-x="570" 
d="M98 800h67l117 -150l117 150h67l-150 -208h-68zM52 142c0 109 81 144 202 162l182 27v25c0 92 -59 121 -154 123c-90 2 -124 -36 -139 -103l-69 10c19 91 69 154 208 154c137 0 218 -62 218 -188v-228l6 -124h-58l-12 91c-32 -60 -116 -101 -199 -101
c-124 0 -185 57 -185 152zM120 142c0 -63 42 -91 117 -91c113 0 196 85 199 153v70l-183 -29c-74 -12 -133 -29 -133 -103z" />
    <glyph glyph-name="amacron" unicode="&#x101;" horiz-adv-x="570" 
d="M146 664v64h272v-64h-272zM52 142c0 109 81 144 202 162l182 27v25c0 92 -59 121 -154 123c-90 2 -124 -36 -139 -103l-69 10c19 91 69 154 208 154c137 0 218 -62 218 -188v-228l6 -124h-58l-12 91c-32 -60 -116 -101 -199 -101c-124 0 -185 57 -185 152zM120 142
c0 -63 42 -91 117 -91c113 0 196 85 199 153v70l-183 -29c-74 -12 -133 -29 -133 -103z" />
    <glyph glyph-name="abreve" unicode="&#x103;" horiz-adv-x="570" 
d="M404 800h56c0 -126 -42 -198 -178 -198s-178 72 -178 198h56c0 -105 36 -142 122 -142s122 37 122 142zM52 142c0 109 81 144 202 162l182 27v25c0 92 -59 121 -154 123c-90 2 -124 -36 -139 -103l-69 10c19 91 69 154 208 154c137 0 218 -62 218 -188v-228l6 -124h-58
l-12 91c-32 -60 -116 -101 -199 -101c-124 0 -185 57 -185 152zM120 142c0 -63 42 -91 117 -91c113 0 196 85 199 153v70l-183 -29c-74 -12 -133 -29 -133 -103z" />
    <glyph glyph-name="ainvertedbreve" unicode="&#x203;" horiz-adv-x="570" 
d="M460 592h-56c0 105 -36 142 -122 142s-122 -37 -122 -142h-56c0 126 42 198 178 198s178 -72 178 -198zM52 142c0 109 81 144 202 162l182 27v25c0 92 -59 121 -154 123c-90 2 -124 -36 -139 -103l-69 10c19 91 69 154 208 154c137 0 218 -62 218 -188v-228l6 -124h-58
l-12 91c-32 -60 -116 -101 -199 -101c-124 0 -185 57 -185 152zM120 142c0 -63 42 -91 117 -91c113 0 196 85 199 153v70l-183 -29c-74 -12 -133 -29 -133 -103z" />
    <glyph glyph-name="adoublegrave" unicode="&#xe722;" horiz-adv-x="570" 
d="M211 800h82l94 -208h-65zM71 800h82l94 -208h-65zM52 142c0 109 81 144 202 162l182 27v25c0 92 -59 121 -154 123c-90 2 -124 -36 -139 -103l-69 10c19 91 69 154 208 154c137 0 218 -62 218 -188v-228l6 -124h-58l-12 91c-32 -60 -116 -101 -199 -101
c-124 0 -185 57 -185 152zM120 142c0 -63 42 -91 117 -91c113 0 196 85 199 153v70l-183 -29c-74 -12 -133 -29 -133 -103z" />
    <glyph glyph-name="adotabove" unicode="&#x227;" horiz-adv-x="570" 
d="M52 142c0 109 81 144 202 162l182 27v25c0 92 -59 121 -154 123c-90 2 -124 -36 -139 -103l-69 10c19 91 69 154 208 154c137 0 218 -62 218 -188v-228l6 -124h-58l-12 91c-32 -60 -116 -101 -199 -101c-124 0 -185 57 -185 152zM120 142c0 -63 42 -91 117 -91
c113 0 196 85 199 153v70l-183 -29c-74 -12 -133 -29 -133 -103zM325 739v-86h-86v86h86z" />
    <glyph glyph-name="aringacute" unicode="&#x1fb;" horiz-adv-x="570" 
d="M265 904h77l-60 -94c72 0 114 -48 114 -114s-42 -114 -114 -114s-114 48 -114 114c0 25 6 48 18 66zM226 696c0 -34 21 -58 56 -58s56 24 56 58s-21 58 -56 58s-56 -24 -56 -58zM52 142c0 109 81 144 202 162l182 27v25c0 92 -59 121 -154 123c-90 2 -124 -36 -139 -103
l-69 10c19 91 69 154 208 154c137 0 218 -62 218 -188v-228l6 -124h-58l-12 91c-32 -60 -116 -101 -199 -101c-124 0 -185 57 -185 152zM120 142c0 -63 42 -91 117 -91c113 0 196 85 199 153v70l-183 -29c-74 -12 -133 -29 -133 -103z" />
    <glyph glyph-name="adieresismacron" unicode="&#x1df;" horiz-adv-x="570" 
d="M232 699v-86h-86v86h86zM418 699v-86h-86v86h86zM52 142c0 109 81 144 202 162l182 27v25c0 92 -59 121 -154 123c-90 2 -124 -36 -139 -103l-69 10c19 91 69 154 208 154c137 0 218 -62 218 -188v-228l6 -124h-58l-12 91c-32 -60 -116 -101 -199 -101
c-124 0 -185 57 -185 152zM120 142c0 -63 42 -91 117 -91c113 0 196 85 199 153v70l-183 -29c-74 -12 -133 -29 -133 -103zM146 764v64h272v-64h-272z" />
    <glyph glyph-name="aogonek" unicode="&#x105;" horiz-adv-x="570" 
d="M500 124l6 -124c-68 -22 -98 -68 -98 -109c0 -23 14 -46 51 -46c35 0 72 21 72 21l17 -51c-21 -13 -55 -25 -100 -25c-52 0 -105 33 -105 90c0 50 25 108 102 145l-11 82c-40 -78 -114 -117 -197 -117c-124 0 -185 57 -185 152c0 109 81 144 202 162l182 27v25
c0 92 -59 121 -154 123c-90 2 -124 -36 -139 -103l-69 10c19 91 69 154 208 154c137 0 218 -62 218 -188v-228zM120 142c0 -63 42 -91 117 -91c113 0 190 91 199 171v52l-183 -29c-74 -12 -133 -29 -133 -103z" />
    <glyph glyph-name="ae" unicode="&#xe6;" horiz-adv-x="954" 
d="M675 540c155 0 224 -100 224 -274v-27h-395c6 -134 74 -188 172 -188c94 -2 134 39 149 102l71 -9c-16 -82 -80 -154 -221 -154c-99 0 -174 44 -212 126c-54 -98 -149 -126 -226 -126c-124 0 -185 57 -185 152c0 109 90 156 212 156h170v58c0 92 -57 121 -152 123
c-90 2 -124 -36 -139 -103l-69 10c19 91 69 154 208 154c96 0 165 -34 197 -97c42 63 109 97 196 97zM675 480c-97 0 -164 -54 -171 -182h323c-2 117 -49 184 -152 182zM122 142c0 -63 40 -90 115 -90c113 0 194 84 197 152v35l-171 1c-75 0 -141 -24 -141 -98z" />
    <glyph glyph-name="aeacute" unicode="&#x1fd;" horiz-adv-x="954" 
d="M540 800h82l-111 -208h-65zM675 540c155 0 224 -100 224 -274v-27h-395c6 -134 74 -188 172 -188c94 -2 134 39 149 102l71 -9c-16 -82 -80 -154 -221 -154c-99 0 -174 44 -212 126c-54 -98 -149 -126 -226 -126c-124 0 -185 57 -185 152c0 109 90 156 212 156h170v58
c0 92 -57 121 -152 123c-90 2 -124 -36 -139 -103l-69 10c19 91 69 154 208 154c96 0 165 -34 197 -97c42 63 109 97 196 97zM675 480c-97 0 -164 -54 -171 -182h323c-2 117 -49 184 -152 182zM122 142c0 -63 40 -90 115 -90c113 0 194 84 197 152v35l-171 1
c-75 0 -141 -24 -141 -98z" />
    <glyph glyph-name="aemacron" unicode="&#x1e3;" horiz-adv-x="954" 
d="M340 664v64h272v-64h-272zM675 540c155 0 224 -100 224 -274v-27h-395c6 -134 74 -188 172 -188c94 -2 134 39 149 102l71 -9c-16 -82 -80 -154 -221 -154c-99 0 -174 44 -212 126c-54 -98 -149 -126 -226 -126c-124 0 -185 57 -185 152c0 109 90 156 212 156h170v58
c0 92 -57 121 -152 123c-90 2 -124 -36 -139 -103l-69 10c19 91 69 154 208 154c96 0 165 -34 197 -97c42 63 109 97 196 97zM675 480c-97 0 -164 -54 -171 -182h323c-2 117 -49 184 -152 182zM122 142c0 -63 40 -90 115 -90c113 0 194 84 197 152v35l-171 1
c-75 0 -141 -24 -141 -98z" />
    <glyph glyph-name="cacute" unicode="&#x107;" horiz-adv-x="550" 
d="M119 265c0 -136 62 -212 167 -214c90 -2 131 36 146 102l71 -9c-19 -91 -79 -154 -216 -154c-149 0 -237 101 -237 275s88 275 237 275c137 0 197 -63 216 -154l-71 -9c-15 66 -56 104 -146 102c-105 -2 -167 -78 -167 -214zM351 800h82l-111 -208h-65z" />
    <glyph glyph-name="ccircumflex" unicode="&#x109;" horiz-adv-x="550" 
d="M119 265c0 -136 62 -212 167 -214c90 -2 131 36 146 102l71 -9c-19 -91 -79 -154 -216 -154c-149 0 -237 101 -237 275s88 275 237 275c137 0 197 -63 216 -154l-71 -9c-15 66 -56 104 -146 102c-105 -2 -167 -78 -167 -214zM471 592h-67l-117 150l-117 -150h-67l150 208
h68z" />
    <glyph glyph-name="ccaron" unicode="&#x10d;" horiz-adv-x="550" 
d="M119 265c0 -136 62 -212 167 -214c90 -2 131 36 146 102l71 -9c-19 -91 -79 -154 -216 -154c-149 0 -237 101 -237 275s88 275 237 275c137 0 197 -63 216 -154l-71 -9c-15 66 -56 104 -146 102c-105 -2 -167 -78 -167 -214zM403 800h67l-150 -208h-68l-150 208h67
l117 -150z" />
    <glyph glyph-name="cdotaccent" unicode="&#x10b;" horiz-adv-x="550" 
d="M119 265c0 -136 62 -212 167 -214c90 -2 131 36 146 102l71 -9c-19 -91 -79 -154 -216 -154c-149 0 -237 101 -237 275s88 275 237 275c137 0 197 -63 216 -154l-71 -9c-15 66 -56 104 -146 102c-105 -2 -167 -78 -167 -214zM330 739v-86h-86v86h86z" />
    <glyph glyph-name="ccedilla" unicode="&#xe7;" horiz-adv-x="550" 
d="M119 265c0 -136 62 -212 167 -214c90 -2 131 36 146 102l71 -9c-18 -86 -73 -147 -194 -153l-7 -25c46 -11 87 -37 87 -93c0 -59 -48 -83 -109 -83c-31 0 -65 9 -79 17l15 44s27 -12 56 -13c41 -1 59 13 59 34c0 35 -42 48 -90 53l22 66c-134 10 -213 109 -213 274
c0 174 88 275 237 275c137 0 197 -63 216 -154l-71 -9c-15 66 -56 104 -146 102c-105 -2 -167 -78 -167 -214z" />
    <glyph glyph-name="dcaron" unicode="&#x10f;" horiz-adv-x="599" 
d="M633 800h79l-75 -208h-61zM463 440v360h66v-676l6 -124h-60l-12 91c-35 -59 -100 -101 -178 -101c-148 0 -235 101 -235 275s87 275 235 275c78 0 143 -42 178 -100zM120 265c0 -137 63 -212 167 -212c108 0 173 83 176 151v122c-3 67 -68 151 -176 151
c-104 0 -167 -76 -167 -212z" />
    <glyph glyph-name="dcedilla" unicode="&#x1e11;" horiz-adv-x="599" 
d="M463 440v360h66v-676l6 -124h-60l-12 91c-35 -59 -100 -101 -178 -101c-148 0 -235 101 -235 275s87 275 235 275c78 0 143 -42 178 -100zM120 265c0 -137 63 -212 167 -212c108 0 173 83 176 151v122c-3 67 -68 151 -176 151c-104 0 -167 -76 -167 -212zM241 -75l17 49
c92 -11 131 -45 131 -101c0 -59 -48 -83 -109 -83c-31 0 -65 9 -79 17l15 44s27 -12 56 -13c41 -1 59 13 59 34c0 35 -42 48 -90 53z" />
    <glyph glyph-name="ddotbelow" unicode="&#x1e0d;" horiz-adv-x="599" 
d="M338 -67v-86h-86v86h86zM463 440v360h66v-676l6 -124h-60l-12 91c-35 -59 -100 -101 -178 -101c-148 0 -235 101 -235 275s87 275 235 275c78 0 143 -42 178 -100zM120 265c0 -137 63 -212 167 -212c108 0 173 83 176 151v122c-3 67 -68 151 -176 151
c-104 0 -167 -76 -167 -212z" />
    <glyph glyph-name="dcroat" unicode="&#x111;" horiz-adv-x="629" 
d="M640 627h-111v-503l6 -124h-60l-12 91c-35 -59 -100 -101 -178 -101c-148 0 -235 101 -235 275s87 275 235 275c78 0 143 -42 178 -100v187h-141v62h141v111h66v-111h111v-62zM120 265c0 -137 63 -212 167 -212c108 0 173 83 176 151v122c-3 67 -68 151 -176 151
c-104 0 -167 -76 -167 -212z" />
    <glyph glyph-name="egrave" unicode="&#xe8;" horiz-adv-x="570" 
d="M291 540c155 0 224 -100 224 -274v-27h-395c6 -134 74 -188 172 -188c94 -2 134 39 149 102l71 -9c-16 -82 -80 -154 -221 -154c-148 0 -241 91 -241 275s93 275 241 275zM291 480c-97 0 -164 -54 -171 -182h323c-2 117 -49 184 -152 182zM155 800h82l94 -208h-65z" />
    <glyph glyph-name="eacute" unicode="&#xe9;" horiz-adv-x="570" 
d="M291 540c155 0 224 -100 224 -274v-27h-395c6 -134 74 -188 172 -188c94 -2 134 39 149 102l71 -9c-16 -82 -80 -154 -221 -154c-148 0 -241 91 -241 275s93 275 241 275zM291 480c-97 0 -164 -54 -171 -182h323c-2 117 -49 184 -152 182zM355 800h82l-111 -208h-65z" />
    <glyph glyph-name="ecircumflex" unicode="&#xea;" horiz-adv-x="570" 
d="M291 540c155 0 224 -100 224 -274v-27h-395c6 -134 74 -188 172 -188c94 -2 134 39 149 102l71 -9c-16 -82 -80 -154 -221 -154c-148 0 -241 91 -241 275s93 275 241 275zM291 480c-97 0 -164 -54 -171 -182h323c-2 117 -49 184 -152 182zM475 592h-67l-117 150
l-117 -150h-67l150 208h68z" />
    <glyph glyph-name="edieresis" unicode="&#xeb;" horiz-adv-x="570" 
d="M291 540c155 0 224 -100 224 -274v-27h-395c6 -134 74 -188 172 -188c94 -2 134 39 149 102l71 -9c-16 -82 -80 -154 -221 -154c-148 0 -241 91 -241 275s93 275 241 275zM291 480c-97 0 -164 -54 -171 -182h323c-2 117 -49 184 -152 182zM241 739v-86h-86v86h86z
M427 739v-86h-86v86h86z" />
    <glyph glyph-name="ecaron" unicode="&#x11b;" horiz-adv-x="570" 
d="M291 540c155 0 224 -100 224 -274v-27h-395c6 -134 74 -188 172 -188c94 -2 134 39 149 102l71 -9c-16 -82 -80 -154 -221 -154c-148 0 -241 91 -241 275s93 275 241 275zM291 480c-97 0 -164 -54 -171 -182h323c-2 117 -49 184 -152 182zM408 800h67l-150 -208h-68
l-150 208h67l117 -150z" />
    <glyph glyph-name="emacron" unicode="&#x113;" horiz-adv-x="570" 
d="M291 540c155 0 224 -100 224 -274v-27h-395c6 -134 74 -188 172 -188c94 -2 134 39 149 102l71 -9c-16 -82 -80 -154 -221 -154c-148 0 -241 91 -241 275s93 275 241 275zM291 480c-97 0 -164 -54 -171 -182h323c-2 117 -49 184 -152 182zM155 664v64h272v-64h-272z" />
    <glyph glyph-name="ebreve" unicode="&#x115;" horiz-adv-x="570" 
d="M291 540c155 0 224 -100 224 -274v-27h-395c6 -134 74 -188 172 -188c94 -2 134 39 149 102l71 -9c-16 -82 -80 -154 -221 -154c-148 0 -241 91 -241 275s93 275 241 275zM291 480c-97 0 -164 -54 -171 -182h323c-2 117 -49 184 -152 182zM413 800h56
c0 -126 -42 -198 -178 -198s-178 72 -178 198h56c0 -105 36 -142 122 -142s122 37 122 142z" />
    <glyph glyph-name="einvertedbreve" unicode="&#x207;" horiz-adv-x="570" 
d="M291 540c155 0 224 -100 224 -274v-27h-395c6 -134 74 -188 172 -188c94 -2 134 39 149 102l71 -9c-16 -82 -80 -154 -221 -154c-148 0 -241 91 -241 275s93 275 241 275zM291 480c-97 0 -164 -54 -171 -182h323c-2 117 -49 184 -152 182zM469 592h-56
c0 105 -36 142 -122 142s-122 -37 -122 -142h-56c0 126 42 198 178 198s178 -72 178 -198z" />
    <glyph glyph-name="edoublegrave" unicode="&#x201;" horiz-adv-x="570" 
d="M291 540c155 0 224 -100 224 -274v-27h-395c6 -134 74 -188 172 -188c94 -2 134 39 149 102l71 -9c-16 -82 -80 -154 -221 -154c-148 0 -241 91 -241 275s93 275 241 275zM291 480c-97 0 -164 -54 -171 -182h323c-2 117 -49 184 -152 182zM220 800h82l94 -208h-65z
M80 800h82l94 -208h-65z" />
    <glyph glyph-name="edoublegrave" unicode="&#x205;" horiz-adv-x="570" 
d="M291 540c155 0 224 -100 224 -274v-27h-395c6 -134 74 -188 172 -188c94 -2 134 39 149 102l71 -9c-16 -82 -80 -154 -221 -154c-148 0 -241 91 -241 275s93 275 241 275zM291 480c-97 0 -164 -54 -171 -182h323c-2 117 -49 184 -152 182zM220 800h82l94 -208h-65z
M80 800h82l94 -208h-65z" />
    <glyph glyph-name="edotaccent" unicode="&#x117;" horiz-adv-x="570" 
d="M291 540c155 0 224 -100 224 -274v-27h-395c6 -134 74 -188 172 -188c94 -2 134 39 149 102l71 -9c-16 -82 -80 -154 -221 -154c-148 0 -241 91 -241 275s93 275 241 275zM291 480c-97 0 -164 -54 -171 -182h323c-2 117 -49 184 -152 182zM334 739v-86h-86v86h86z" />
    <glyph glyph-name="uni006500600323" unicode="&#xe102;" horiz-adv-x="570" 
d="M291 540c155 0 224 -100 224 -274v-27h-395c6 -134 74 -188 172 -188c94 -2 134 39 149 102l71 -9c-16 -82 -80 -154 -221 -154c-148 0 -241 91 -241 275s93 275 241 275zM291 480c-97 0 -164 -54 -171 -182h323c-2 117 -49 184 -152 182zM139 800h82l94 -208h-65z
M328 -67v-86h-86v86h86z" />
    <glyph glyph-name="uni006500B40323" unicode="&#xe104;" horiz-adv-x="570" 
d="M291 540c155 0 224 -100 224 -274v-27h-395c6 -134 74 -188 172 -188c94 -2 134 39 149 102l71 -9c-16 -82 -80 -154 -221 -154c-148 0 -241 91 -241 275s93 275 241 275zM291 480c-97 0 -164 -54 -171 -182h323c-2 117 -49 184 -152 182zM349 800h82l-111 -208h-65z
M328 -67v-86h-86v86h86z" />
    <glyph glyph-name="eogonek" unicode="&#x119;" horiz-adv-x="570" 
d="M291 540c155 0 224 -100 224 -274v-27h-395c6 -134 74 -188 172 -188c94 -2 134 39 149 102l71 -9c-7 -35 -24 -68 -50 -95c-54 -56 -135 -93 -135 -158c0 -29 16 -46 56 -46c35 0 72 21 72 21l17 -51c-21 -13 -55 -25 -100 -25c-53 0 -110 25 -110 93c0 50 29 80 67 109
c-12 -1 -25 -2 -38 -2c-148 0 -241 91 -241 275s93 275 241 275zM291 480c-97 0 -164 -54 -171 -182h323c-2 117 -49 184 -152 182z" />
    <glyph glyph-name="gacute" unicode="&#x1f5;" horiz-adv-x="599" 
d="M349 800h82l-111 -208h-65zM285 -153c98 2 179 38 179 130v133c-35 -58 -101 -100 -179 -100c-148 0 -235 91 -235 265s87 265 235 265c78 0 143 -42 178 -101l12 91h60l-6 -124v-422c0 -126 -93 -194 -244 -194c-155 0 -212 72 -225 154l70 9c11 -63 52 -108 155 -106z
M118 275c0 -136 65 -203 169 -203c108 0 174 85 177 152v102c-3 68 -69 152 -177 152c-104 0 -169 -66 -169 -203z" />
    <glyph glyph-name="gcircumflex" unicode="&#x11d;" horiz-adv-x="599" 
d="M469 592h-67l-117 150l-117 -150h-67l150 208h68zM285 -153c98 2 179 38 179 130v133c-35 -58 -101 -100 -179 -100c-148 0 -235 91 -235 265s87 265 235 265c78 0 143 -42 178 -101l12 91h60l-6 -124v-422c0 -126 -93 -194 -244 -194c-155 0 -212 72 -225 154l70 9
c11 -63 52 -108 155 -106zM118 275c0 -136 65 -203 169 -203c108 0 174 85 177 152v102c-3 68 -69 152 -177 152c-104 0 -169 -66 -169 -203z" />
    <glyph glyph-name="gtilde" unicode="&#xe106;" horiz-adv-x="599" 
d="M361 630c-79 4 -94 72 -146 75c-60 4 -68 -52 -68 -52l-55 8c13 59 46 107 127 103c79 -4 94 -72 146 -75c60 -4 68 52 68 52l55 -8c-13 -59 -46 -107 -127 -103zM285 -153c98 2 179 38 179 130v133c-35 -58 -101 -100 -179 -100c-148 0 -235 91 -235 265s87 265 235 265
c78 0 143 -42 178 -101l12 91h60l-6 -124v-422c0 -126 -93 -194 -244 -194c-155 0 -212 72 -225 154l70 9c11 -63 52 -108 155 -106zM118 275c0 -136 65 -203 169 -203c108 0 174 85 177 152v102c-3 68 -69 152 -177 152c-104 0 -169 -66 -169 -203z" />
    <glyph glyph-name="gcaron" unicode="&#x1e7;" horiz-adv-x="599" 
d="M101 800h67l117 -150l117 150h67l-150 -208h-68zM285 -153c98 2 179 38 179 130v133c-35 -58 -101 -100 -179 -100c-148 0 -235 91 -235 265s87 265 235 265c78 0 143 -42 178 -101l12 91h60l-6 -124v-422c0 -126 -93 -194 -244 -194c-155 0 -212 72 -225 154l70 9
c11 -63 52 -108 155 -106zM118 275c0 -136 65 -203 169 -203c108 0 174 85 177 152v102c-3 68 -69 152 -177 152c-104 0 -169 -66 -169 -203z" />
    <glyph glyph-name="gbreve" unicode="&#x11f;" horiz-adv-x="599" 
d="M407 800h56c0 -126 -42 -198 -178 -198s-178 72 -178 198h56c0 -105 36 -142 122 -142s122 37 122 142zM285 -153c98 2 179 38 179 130v133c-35 -58 -101 -100 -179 -100c-148 0 -235 91 -235 265s87 265 235 265c78 0 143 -42 178 -101l12 91h60l-6 -124v-422
c0 -126 -93 -194 -244 -194c-155 0 -212 72 -225 154l70 9c11 -63 52 -108 155 -106zM118 275c0 -136 65 -203 169 -203c108 0 174 85 177 152v102c-3 68 -69 152 -177 152c-104 0 -169 -66 -169 -203z" />
    <glyph glyph-name="gdotaccent" unicode="&#x121;" horiz-adv-x="599" 
d="M328 739v-86h-86v86h86zM285 -153c98 2 179 38 179 130v133c-35 -58 -101 -100 -179 -100c-148 0 -235 91 -235 265s87 265 235 265c78 0 143 -42 178 -101l12 91h60l-6 -124v-422c0 -126 -93 -194 -244 -194c-155 0 -212 72 -225 154l70 9c11 -63 52 -108 155 -106z
M118 275c0 -136 65 -203 169 -203c108 0 174 85 177 152v102c-3 68 -69 152 -177 152c-104 0 -169 -66 -169 -203z" />
    <glyph glyph-name="gcommaaccent" unicode="&#x123;" horiz-adv-x="599" 
d="M316 592h-79l75 208h61zM285 -153c98 2 179 38 179 130v133c-35 -58 -101 -100 -179 -100c-148 0 -235 91 -235 265s87 265 235 265c78 0 143 -42 178 -101l12 91h60l-6 -124v-422c0 -126 -93 -194 -244 -194c-155 0 -212 72 -225 154l70 9c11 -63 52 -108 155 -106z
M118 275c0 -136 65 -203 169 -203c108 0 174 85 177 152v102c-3 68 -69 152 -177 152c-104 0 -169 -66 -169 -203z" />
    <glyph glyph-name="gcommaturnedabove" unicode="&#xe108;" horiz-adv-x="599" 
d="M316 592h-79l75 208h61zM285 -153c98 2 179 38 179 130v133c-35 -58 -101 -100 -179 -100c-148 0 -235 91 -235 265s87 265 235 265c78 0 143 -42 178 -101l12 91h60l-6 -124v-422c0 -126 -93 -194 -244 -194c-155 0 -212 72 -225 154l70 9c11 -63 52 -108 155 -106z
M118 275c0 -136 65 -203 169 -203c108 0 174 85 177 152v102c-3 68 -69 152 -177 152c-104 0 -169 -66 -169 -203z" />
    <glyph glyph-name="gstroke" unicode="&#x1e5;" horiz-adv-x="599" 
d="M285 -153c72 2 134 21 163 68h-182v62h198v133c-35 -58 -101 -100 -179 -100c-148 0 -235 91 -235 265s87 265 235 265c78 0 143 -42 178 -101l12 91h60l-6 -124v-429h55v-62h-66c-29 -81 -113 -125 -233 -125c-155 0 -212 72 -225 154l70 9c11 -63 52 -108 155 -106z
M118 275c0 -136 65 -203 169 -203c108 0 174 85 177 152v102c-3 68 -69 152 -177 152c-104 0 -169 -66 -169 -203z" />
    <glyph glyph-name="hcircumflex" unicode="&#x125;" horiz-adv-x="574" 
d="M289 822h-67l-117 150l-117 -150h-67l150 208h68zM70 0v800h66v-360c35 58 101 100 181 100c110 0 196 -62 196 -170v-370h-66v355c0 79 -57 122 -140 122c-99 0 -168 -84 -171 -151v-326h-66z" />
    <glyph glyph-name="hcaron" unicode="&#x21f;" horiz-adv-x="574" 
d="M-79 1030h67l117 -150l117 150h67l-150 -208h-68zM70 0v800h66v-360c35 58 101 100 181 100c110 0 196 -62 196 -170v-370h-66v355c0 79 -57 122 -140 122c-99 0 -168 -84 -171 -151v-326h-66z" />
    <glyph glyph-name="hdotbelow" unicode="&#x1e25;" horiz-adv-x="574" 
d="M338 -67v-86h-86v86h86zM70 0v800h66v-360c35 58 101 100 181 100c110 0 196 -62 196 -170v-370h-66v355c0 79 -57 122 -140 122c-99 0 -168 -84 -171 -151v-326h-66z" />
    <glyph glyph-name="hmacronbelow" unicode="&#xe10a;" horiz-adv-x="574" 
d="M70 0v800h66v-360c35 58 101 100 181 100c110 0 196 -62 196 -170v-370h-66v355c0 79 -57 122 -140 122c-99 0 -168 -84 -171 -151v-326h-66zM159 -142v64h272v-64h-272z" />
    <glyph glyph-name="hbar" unicode="&#x127;" horiz-adv-x="604" 
d="M307 627h-141v-187c35 58 101 100 181 100c110 0 196 -62 196 -170v-370h-66v355c0 79 -57 122 -140 122c-99 0 -168 -84 -171 -151v-326h-66v627h-111v62h111v111h66v-111h141v-62z" />
    <glyph glyph-name="dotlessi" unicode="&#x131;" horiz-adv-x="250" 
d="M92 0v530h66v-530h-66z" />
    <glyph glyph-name="igrave" unicode="&#xec;" horiz-adv-x="250" 
d="M92 0v530h66v-530h-66zM-19 800h82l94 -208h-65z" />
    <glyph glyph-name="iacute" unicode="&#xed;" horiz-adv-x="250" 
d="M92 0v530h66v-530h-66zM187 800h82l-111 -208h-65z" />
    <glyph glyph-name="icircumflex" unicode="&#xee;" horiz-adv-x="250" 
d="M92 0v530h66v-530h-66zM309 592h-67l-117 150l-117 -150h-67l150 208h68z" />
    <glyph glyph-name="idieresis" unicode="&#xef;" horiz-adv-x="250" 
d="M92 0v530h66v-530h-66zM75 739v-86h-86v86h86zM261 739v-86h-86v86h86z" />
    <glyph glyph-name="itilde" unicode="&#x129;" horiz-adv-x="250" 
d="M92 0v530h66v-530h-66zM196 630c-79 4 -94 72 -146 75c-60 4 -68 -52 -68 -52l-55 8c13 59 46 107 127 103c79 -4 94 -72 146 -75c60 -4 68 52 68 52l55 -8c-13 -59 -46 -107 -127 -103z" />
    <glyph glyph-name="icaron" unicode="&#x1d0;" horiz-adv-x="250" 
d="M92 0v530h66v-530h-66zM-59 800h67l117 -150l117 150h67l-150 -208h-68z" />
    <glyph glyph-name="imacron" unicode="&#x12b;" horiz-adv-x="250" 
d="M92 0v530h66v-530h-66zM-11 664v64h272v-64h-272z" />
    <glyph glyph-name="ibreve" unicode="&#x12d;" horiz-adv-x="250" 
d="M92 0v530h66v-530h-66zM247 800h56c0 -126 -42 -198 -178 -198s-178 72 -178 198h56c0 -105 36 -142 122 -142s122 37 122 142z" />
    <glyph glyph-name="iinvertedbreve" unicode="&#x20b;" horiz-adv-x="250" 
d="M92 0v530h66v-530h-66zM303 592h-56c0 105 -36 142 -122 142s-122 -37 -122 -142h-56c0 126 42 198 178 198s178 -72 178 -198z" />
    <glyph glyph-name="idoublegrave" unicode="&#x209;" horiz-adv-x="250" 
d="M92 0v530h66v-530h-66zM54 800h82l94 -208h-65zM-86 800h82l94 -208h-65z" />
    <glyph glyph-name="idotaccent" unicode="&#xe785;" horiz-adv-x="250" 
d="M168 739v-86h-86v86h86zM92 0v530h66v-530h-66z" />
    <glyph glyph-name="idotbelow" unicode="&#x1ecb;" horiz-adv-x="250" 
d="M168 739v-86h-86v86h86zM92 0v530h66v-530h-66zM168 -67v-86h-86v86h86z" />
    <glyph glyph-name="iogonek" unicode="&#x12f;" horiz-adv-x="250" 
d="M158 0c-43 -31 -83 -65 -83 -109c0 -29 16 -46 56 -46c35 0 72 21 72 21l17 -51c-21 -13 -55 -25 -100 -25c-53 0 -110 25 -110 93c0 54 35 85 82 120v527h66v-530zM168 739v-86h-86v86h86z" />
    <glyph glyph-name="dotlessj" unicode="&#x237;" horiz-adv-x="250" 
d="M-17 -147c80 0 114 23 114 145v532h66v-532c0 -110 -24 -208 -180 -208c-19 0 -43 3 -57 8l8 64c7 -3 25 -9 49 -9z" />
    <glyph glyph-name="jcircumflex" unicode="&#x135;" horiz-adv-x="250" 
d="M-17 -147c80 0 114 23 114 145v532h66v-532c0 -110 -24 -208 -180 -208c-19 0 -43 3 -57 8l8 64c7 -3 25 -9 49 -9zM314 592h-67l-117 150l-117 -150h-67l150 208h68z" />
    <glyph glyph-name="jcaron" unicode="&#x1f0;" horiz-adv-x="250" 
d="M-17 -147c80 0 114 23 114 145v532h66v-532c0 -110 -24 -208 -180 -208c-19 0 -43 3 -57 8l8 64c7 -3 25 -9 49 -9zM-54 800h67l117 -150l117 150h67l-150 -208h-68z" />
    <glyph glyph-name="jcaron" unicode="&#xe10c;" horiz-adv-x="250" 
d="M-17 -147c80 0 114 23 114 145v532h66v-532c0 -110 -24 -208 -180 -208c-19 0 -43 3 -57 8l8 64c7 -3 25 -9 49 -9zM-54 800h67l117 -150l117 150h67l-150 -208h-68z" />
    <glyph glyph-name="kcaron" unicode="&#x1e9;" horiz-adv-x="535" 
d="M136 0h-66v800h66v-536l101 103l163 163h95l-231 -225l268 -305h-91l-222 261l-83 -81v-180zM-79 1030h67l117 -150l117 150h67l-150 -208h-68z" />
    <glyph glyph-name="kcommaaccent" unicode="&#x137;" horiz-adv-x="535" 
d="M136 0h-66v800h66v-536l101 103l163 163h95l-231 -225l268 -305h-91l-222 261l-83 -81v-180zM244 -62h79l-50 -138h-67z" />
    <glyph glyph-name="kcedilla" unicode="&#xe10e;" horiz-adv-x="535" 
d="M136 0h-66v800h66v-536l101 103l163 163h95l-231 -225l268 -305h-91l-222 261l-83 -81v-180zM231 -75l17 49c92 -11 131 -45 131 -101c0 -59 -48 -83 -109 -83c-31 0 -65 9 -79 17l15 44s27 -12 56 -13c41 -1 59 13 59 34c0 35 -42 48 -90 53z" />
    <glyph glyph-name="khook" unicode="&#x199;" horiz-adv-x="535" 
d="M136 602v-338l101 103l163 163h95l-231 -225l268 -305h-91l-222 261l-83 -81v-180h-66v602c0 110 24 208 180 208c19 0 43 -3 57 -8l-8 -64c-7 3 -25 9 -49 9c-80 0 -114 -23 -114 -145z" />
    <glyph glyph-name="kgreenlandic" unicode="&#x138;" horiz-adv-x="535" 
d="M136 0h-66v530h66v-264l264 264h95l-231 -225l268 -305h-91l-222 261l-83 -81v-180z" />
    <glyph glyph-name="lacute" unicode="&#x13a;" horiz-adv-x="250" 
d="M92 0v800h66v-800h-66zM187 1030h82l-111 -208h-65z" />
    <glyph glyph-name="lcaron" unicode="&#x13e;" horiz-adv-x="250" 
d="M92 0v800h66v-800h-66zM262 800h79l-75 -208h-61z" />
    <glyph glyph-name="lcommaaccent" unicode="&#x13c;" horiz-adv-x="250" 
d="M92 0v800h66v-800h-66zM84 -62h79l-50 -138h-67z" />
    <glyph glyph-name="lcedilla" unicode="&#xe100;" horiz-adv-x="250" 
d="M92 0v800h66v-800h-66zM88 -75l17 49c92 -11 131 -45 131 -101c0 -59 -48 -83 -109 -83c-31 0 -65 9 -79 17l15 44s27 -12 56 -13c41 -1 59 13 59 34c0 35 -42 48 -90 53z" />
    <glyph glyph-name="ldotbelow" unicode="&#x1e37;" horiz-adv-x="250" 
d="M92 0v800h66v-800h-66zM168 -67v-86h-86v86h86z" />
    <glyph glyph-name="ldotbelowmacron" unicode="&#x1e39;" horiz-adv-x="250" 
d="M92 0v800h66v-800h-66zM168 -67v-86h-86v86h86zM-11 894v64h272v-64h-272z" />
    <glyph glyph-name="ldot" unicode="&#x140;" horiz-adv-x="349" 
d="M92 0v800h66v-800h-66zM338 378v-86h-86v86h86z" />
    <glyph glyph-name="lslash" unicode="&#x142;" horiz-adv-x="300" 
d="M285 472l-102 -65v-407h-66v366l-82 -52v68l82 52v366h66v-325l102 65v-68z" />
    <glyph glyph-name="mmacron" unicode="&#xe112;" horiz-adv-x="863" 
d="M124 530l12 -88c33 58 90 98 158 98c85 0 145 -38 167 -110c38 76 103 110 166 110c107 0 175 -60 175 -170v-370h-66v355c0 83 -39 122 -119 122c-85 0 -144 -84 -148 -151v-326h-66v355c0 83 -38 122 -119 122c-86 0 -145 -84 -148 -151v-326h-66v407l-6 123h60z
M300 664v64h272v-64h-272z" />
    <glyph glyph-name="mcedilla" unicode="&#xe114;" horiz-adv-x="863" 
d="M124 530l12 -88c33 58 90 98 158 98c85 0 145 -38 167 -110c38 76 103 110 166 110c107 0 175 -60 175 -170v-370h-66v355c0 83 -39 122 -119 122c-85 0 -144 -84 -148 -151v-326h-66v355c0 83 -38 122 -119 122c-86 0 -145 -84 -148 -151v-326h-66v407l-6 123h60z
M399 -75l17 49c92 -11 131 -45 131 -101c0 -59 -48 -83 -109 -83c-31 0 -65 9 -79 17l15 44s27 -12 56 -13c41 -1 59 13 59 34c0 35 -42 48 -90 53z" />
    <glyph glyph-name="mdotbelow" unicode="&#x1e43;" horiz-adv-x="863" 
d="M479 -67v-86h-86v86h86zM124 530l12 -88c33 58 90 98 158 98c85 0 145 -38 167 -110c38 76 103 110 166 110c107 0 175 -60 175 -170v-370h-66v355c0 83 -39 122 -119 122c-85 0 -144 -84 -148 -151v-326h-66v355c0 83 -38 122 -119 122c-86 0 -145 -84 -148 -151v-326
h-66v407l-6 123h60z" />
    <glyph glyph-name="ngrave" unicode="&#x1f9;" horiz-adv-x="574" 
d="M161 800h82l94 -208h-65zM124 530l12 -90c35 58 101 100 181 100c110 0 196 -62 196 -170v-370h-66v355c0 79 -57 122 -140 122c-99 0 -168 -84 -171 -151v-326h-66v407l-6 123h60z" />
    <glyph glyph-name="nacute" unicode="&#x144;" horiz-adv-x="574" 
d="M361 800h82l-111 -208h-65zM124 530l12 -90c35 58 101 100 181 100c110 0 196 -62 196 -170v-370h-66v355c0 79 -57 122 -140 122c-99 0 -168 -84 -171 -151v-326h-66v407l-6 123h60z" />
    <glyph glyph-name="ndieresis" unicode="&#xe116;" horiz-adv-x="574" 
d="M124 530l12 -90c35 58 101 100 181 100c110 0 196 -62 196 -170v-370h-66v355c0 79 -57 122 -140 122c-99 0 -168 -84 -171 -151v-326h-66v407l-6 123h60zM242 739v-86h-86v86h86zM428 739v-86h-86v86h86z" />
    <glyph glyph-name="ntilde" unicode="&#xf1;" horiz-adv-x="574" 
d="M373 630c-79 4 -94 72 -146 75c-60 4 -68 -52 -68 -52l-55 8c13 59 46 107 127 103c79 -4 94 -72 146 -75c60 -4 68 52 68 52l55 -8c-13 -59 -46 -107 -127 -103zM124 530l12 -90c35 58 101 100 181 100c110 0 196 -62 196 -170v-370h-66v355c0 79 -57 122 -140 122
c-99 0 -168 -84 -171 -151v-326h-66v407l-6 123h60z" />
    <glyph glyph-name="ncaron" unicode="&#x148;" horiz-adv-x="574" 
d="M409 800h67l-150 -208h-68l-150 208h67l117 -150zM124 530l12 -90c35 58 101 100 181 100c110 0 196 -62 196 -170v-370h-66v355c0 79 -57 122 -140 122c-99 0 -168 -84 -171 -151v-326h-66v407l-6 123h60z" />
    <glyph glyph-name="nmacron" unicode="&#xe118;" horiz-adv-x="574" 
d="M124 530l12 -90c35 58 101 100 181 100c110 0 196 -62 196 -170v-370h-66v355c0 79 -57 122 -140 122c-99 0 -168 -84 -171 -151v-326h-66v407l-6 123h60zM156 664v64h272v-64h-272z" />
    <glyph glyph-name="ndotaccent" unicode="&#x1e45;" horiz-adv-x="574" 
d="M335 739v-86h-86v86h86zM124 530l12 -90c35 58 101 100 181 100c110 0 196 -62 196 -170v-370h-66v355c0 79 -57 122 -140 122c-99 0 -168 -84 -171 -151v-326h-66v407l-6 123h60z" />
    <glyph glyph-name="ncommaaccent" unicode="&#x146;" horiz-adv-x="574" 
d="M262 -62h79l-50 -138h-67zM124 530l12 -90c35 58 101 100 181 100c110 0 196 -62 196 -170v-370h-66v355c0 79 -57 122 -140 122c-99 0 -168 -84 -171 -151v-326h-66v407l-6 123h60z" />
    <glyph glyph-name="ncedilla" unicode="&#xe11a;" horiz-adv-x="574" 
d="M253 -75l17 49c92 -11 131 -45 131 -101c0 -59 -48 -83 -109 -83c-31 0 -65 9 -79 17l15 44s27 -12 56 -13c41 -1 59 13 59 34c0 35 -42 48 -90 53zM124 530l12 -90c35 58 101 100 181 100c110 0 196 -62 196 -170v-370h-66v355c0 79 -57 122 -140 122
c-99 0 -168 -84 -171 -151v-326h-66v407l-6 123h60z" />
    <glyph glyph-name="ndotbelow" unicode="&#x1e47;" horiz-adv-x="574" 
d="M338 -67v-86h-86v86h86zM124 530l12 -90c35 58 101 100 181 100c110 0 196 -62 196 -170v-370h-66v355c0 79 -57 122 -140 122c-99 0 -168 -84 -171 -151v-326h-66v407l-6 123h60z" />
    <glyph glyph-name="ndescender" unicode="&#xe805;" horiz-adv-x="574" 
d="M124 530l12 -90c35 58 101 100 181 100c110 0 196 -62 196 -170v-570h-66v555c0 79 -57 122 -140 122c-99 0 -168 -84 -171 -151v-326h-66v407l-6 123h60z" />
    <glyph glyph-name="ograve" unicode="&#xf2;" horiz-adv-x="578" 
d="M289 -10c-147 0 -239 91 -239 275s92 275 239 275s239 -91 239 -275s-92 -275 -239 -275zM289 478c-104 0 -170 -63 -170 -213s66 -213 170 -213s170 63 170 213s-66 213 -170 213zM154 800h82l94 -208h-65z" />
    <glyph glyph-name="oacute" unicode="&#xf3;" horiz-adv-x="578" 
d="M289 -10c-147 0 -239 91 -239 275s92 275 239 275s239 -91 239 -275s-92 -275 -239 -275zM289 478c-104 0 -170 -63 -170 -213s66 -213 170 -213s170 63 170 213s-66 213 -170 213zM353 800h82l-111 -208h-65z" />
    <glyph glyph-name="ocircumflex" unicode="&#xf4;" horiz-adv-x="578" 
d="M289 -10c-147 0 -239 91 -239 275s92 275 239 275s239 -91 239 -275s-92 -275 -239 -275zM289 478c-104 0 -170 -63 -170 -213s66 -213 170 -213s170 63 170 213s-66 213 -170 213zM473 592h-67l-117 150l-117 -150h-67l150 208h68z" />
    <glyph glyph-name="odieresis" unicode="&#xf6;" horiz-adv-x="578" 
d="M289 -10c-147 0 -239 91 -239 275s92 275 239 275s239 -91 239 -275s-92 -275 -239 -275zM289 478c-104 0 -170 -63 -170 -213s66 -213 170 -213s170 63 170 213s-66 213 -170 213zM239 739v-86h-86v86h86zM425 739v-86h-86v86h86z" />
    <glyph glyph-name="otilde" unicode="&#xf5;" horiz-adv-x="578" 
d="M289 -10c-147 0 -239 91 -239 275s92 275 239 275s239 -91 239 -275s-92 -275 -239 -275zM289 478c-104 0 -170 -63 -170 -213s66 -213 170 -213s170 63 170 213s-66 213 -170 213zM360 630c-79 4 -94 72 -146 75c-60 4 -68 -52 -68 -52l-55 8c13 59 46 107 127 103
c79 -4 94 -72 146 -75c60 -4 68 52 68 52l55 -8c-13 -59 -46 -107 -127 -103z" />
    <glyph glyph-name="ocaron" unicode="&#x1d2;" horiz-adv-x="578" 
d="M289 -10c-147 0 -239 91 -239 275s92 275 239 275s239 -91 239 -275s-92 -275 -239 -275zM289 478c-104 0 -170 -63 -170 -213s66 -213 170 -213s170 63 170 213s-66 213 -170 213zM105 800h67l117 -150l117 150h67l-150 -208h-68z" />
    <glyph glyph-name="omacron" unicode="&#x14d;" horiz-adv-x="578" 
d="M289 -10c-147 0 -239 91 -239 275s92 275 239 275s239 -91 239 -275s-92 -275 -239 -275zM289 478c-104 0 -170 -63 -170 -213s66 -213 170 -213s170 63 170 213s-66 213 -170 213zM153 664v64h272v-64h-272z" />
    <glyph glyph-name="obreve" unicode="&#x14f;" horiz-adv-x="578" 
d="M289 -10c-147 0 -239 91 -239 275s92 275 239 275s239 -91 239 -275s-92 -275 -239 -275zM289 478c-104 0 -170 -63 -170 -213s66 -213 170 -213s170 63 170 213s-66 213 -170 213zM411 800h56c0 -126 -42 -198 -178 -198s-178 72 -178 198h56c0 -105 36 -142 122 -142
s122 37 122 142z" />
    <glyph glyph-name="oinvertedbreve" unicode="&#x20f;" horiz-adv-x="578" 
d="M289 -10c-147 0 -239 91 -239 275s92 275 239 275s239 -91 239 -275s-92 -275 -239 -275zM289 478c-104 0 -170 -63 -170 -213s66 -213 170 -213s170 63 170 213s-66 213 -170 213zM467 592h-56c0 105 -36 142 -122 142s-122 -37 -122 -142h-56c0 126 42 198 178 198
s178 -72 178 -198z" />
    <glyph glyph-name="ohungarumlaut" unicode="&#x151;" horiz-adv-x="578" 
d="M289 -10c-147 0 -239 91 -239 275s92 275 239 275s239 -91 239 -275s-92 -275 -239 -275zM289 478c-104 0 -170 -63 -170 -213s66 -213 170 -213s170 63 170 213s-66 213 -170 213zM278 800h82l-111 -208h-65zM418 800h82l-111 -208h-65z" />
    <glyph glyph-name="odoublegrave" unicode="&#x20d;" horiz-adv-x="578" 
d="M289 -10c-147 0 -239 91 -239 275s92 275 239 275s239 -91 239 -275s-92 -275 -239 -275zM289 478c-104 0 -170 -63 -170 -213s66 -213 170 -213s170 63 170 213s-66 213 -170 213zM218 800h82l94 -208h-65zM78 800h82l94 -208h-65z" />
    <glyph glyph-name="ocommaturnedabove" unicode="&#xe11c;" horiz-adv-x="578" 
d="M289 -10c-147 0 -239 91 -239 275s92 275 239 275s239 -91 239 -275s-92 -275 -239 -275zM289 478c-104 0 -170 -63 -170 -213s66 -213 170 -213s170 63 170 213s-66 213 -170 213zM331 592h-79l75 208h61z" />
    <glyph glyph-name="otildemacron" unicode="&#x22d;" horiz-adv-x="578" 
d="M289 -10c-147 0 -239 91 -239 275s92 275 239 275s239 -91 239 -275s-92 -275 -239 -275zM289 478c-104 0 -170 -63 -170 -213s66 -213 170 -213s170 63 170 213s-66 213 -170 213zM360 590c-79 4 -94 72 -146 75c-60 4 -68 -52 -68 -52l-55 8c13 59 46 107 127 103
c79 -4 94 -72 146 -75c60 -4 68 52 68 52l55 -8c-13 -59 -46 -107 -127 -103zM153 764v64h272v-64h-272z" />
    <glyph glyph-name="odotabove" unicode="&#x22f;" horiz-adv-x="578" 
d="M289 -10c-147 0 -239 91 -239 275s92 275 239 275s239 -91 239 -275s-92 -275 -239 -275zM289 478c-104 0 -170 -63 -170 -213s66 -213 170 -213s170 63 170 213s-66 213 -170 213zM332 739v-86h-86v86h86z" />
    <glyph glyph-name="odotabovemacron" unicode="&#x231;" horiz-adv-x="578" 
d="M289 -10c-147 0 -239 91 -239 275s92 275 239 275s239 -91 239 -275s-92 -275 -239 -275zM289 478c-104 0 -170 -63 -170 -213s66 -213 170 -213s170 63 170 213s-66 213 -170 213zM332 699v-86h-86v86h86zM153 764v64h272v-64h-272z" />
    <glyph glyph-name="odotabovemacron" unicode="&#xe11e;" horiz-adv-x="578" 
d="M289 -10c-147 0 -239 91 -239 275s92 275 239 275s239 -91 239 -275s-92 -275 -239 -275zM289 478c-104 0 -170 -63 -170 -213s66 -213 170 -213s170 63 170 213s-66 213 -170 213zM332 699v-86h-86v86h86zM153 764v64h272v-64h-272z" />
    <glyph glyph-name="ocedilla" unicode="&#xe110;" horiz-adv-x="578" 
d="M246 -75l17 49c92 -11 131 -45 131 -101c0 -59 -48 -83 -109 -83c-31 0 -65 9 -79 17l15 44s27 -12 56 -13c41 -1 59 13 59 34c0 35 -42 48 -90 53zM289 -10c-147 0 -239 91 -239 275s92 275 239 275s239 -91 239 -275s-92 -275 -239 -275zM289 478
c-104 0 -170 -63 -170 -213s66 -213 170 -213s170 63 170 213s-66 213 -170 213z" />
    <glyph glyph-name="odotbelow" unicode="&#x1ecd;" horiz-adv-x="578" 
d="M289 -10c-147 0 -239 91 -239 275s92 275 239 275s239 -91 239 -275s-92 -275 -239 -275zM289 478c-104 0 -170 -63 -170 -213s66 -213 170 -213s170 63 170 213s-66 213 -170 213zM332 -67v-86h-86v86h86z" />
    <glyph glyph-name="oogonek" unicode="&#x1eb;" horiz-adv-x="578" 
d="M528 265c0 -148 -59 -235 -158 -264c-64 -19 -109 -67 -109 -110c0 -29 16 -46 56 -46c35 0 72 21 72 21l17 -51c-21 -13 -55 -25 -100 -25c-53 0 -110 25 -110 93c0 39 24 77 66 108c-131 11 -212 101 -212 274c0 184 92 275 239 275s239 -91 239 -275zM289 478
c-104 0 -170 -63 -170 -213s66 -213 170 -213s170 63 170 213s-66 213 -170 213z" />
    <glyph glyph-name="oogonekmacron" unicode="&#x1ed;" horiz-adv-x="578" 
d="M528 265c0 -148 -59 -235 -158 -264c-64 -19 -109 -67 -109 -110c0 -29 16 -46 56 -46c35 0 72 21 72 21l17 -51c-21 -13 -55 -25 -100 -25c-53 0 -110 25 -110 93c0 39 24 77 66 108c-131 11 -212 101 -212 274c0 184 92 275 239 275s239 -91 239 -275zM289 478
c-104 0 -170 -63 -170 -213s66 -213 170 -213s170 63 170 213s-66 213 -170 213zM153 664v64h272v-64h-272z" />
    <glyph glyph-name="ounderlineaccent" unicode="&#xe122;" horiz-adv-x="578" 
d="M289 -10c-147 0 -239 91 -239 275s92 275 239 275s239 -91 239 -275s-92 -275 -239 -275zM289 478c-104 0 -170 -63 -170 -213s66 -213 170 -213s170 63 170 213s-66 213 -170 213zM319 -200h-60v160h60v-160z" />
    <glyph glyph-name="oslash" unicode="&#xf8;" horiz-adv-x="578" 
d="M289 -10c-49 0 -91 10 -127 30l-13 -20h-68l36 55c-43 46 -67 116 -67 210c0 184 92 275 239 275c49 0 92 -10 127 -31l14 21h68l-37 -56c43 -46 67 -115 67 -209c0 -184 -92 -275 -239 -275zM289 478c-104 0 -170 -63 -170 -213c0 -67 13 -117 37 -151l225 341
c-26 16 -57 23 -92 23zM459 265c0 66 -13 116 -37 150l-224 -341c25 -15 56 -22 91 -22c104 0 170 63 170 213z" />
    <glyph glyph-name="oslashacute" unicode="&#x1ff;" horiz-adv-x="578" 
d="M289 -10c-49 0 -91 10 -127 30l-13 -20h-68l36 55c-43 46 -67 116 -67 210c0 184 92 275 239 275c49 0 92 -10 127 -31l14 21h68l-37 -56c43 -46 67 -115 67 -209c0 -184 -92 -275 -239 -275zM289 478c-104 0 -170 -63 -170 -213c0 -67 13 -117 37 -151l225 341
c-26 16 -57 23 -92 23zM459 265c0 66 -13 116 -37 150l-224 -341c25 -15 56 -22 91 -22c104 0 170 63 170 213zM353 800h82l-111 -208h-65z" />
    <glyph glyph-name="barredo" unicode="&#xe737;" horiz-adv-x="578" 
d="M289 -10c-147 0 -239 91 -239 275s92 275 239 275s239 -91 239 -275s-92 -275 -239 -275zM289 52c98 0 162 55 169 187h-339c8 -132 72 -187 170 -187zM289 478c-96 0 -160 -54 -169 -180h338c-9 126 -73 180 -169 180z" />
    <glyph glyph-name="oe" unicode="&#x153;" horiz-adv-x="979" 
d="M289 478c-104 0 -170 -63 -170 -213s66 -213 170 -213s170 63 170 213s-66 213 -170 213zM700 480c-97 0 -164 -54 -171 -182h323c-2 117 -49 184 -152 182zM700 540c155 0 224 -100 224 -274v-27h-395c6 -134 74 -188 172 -188c94 -2 134 39 149 102l71 -9
c-16 -82 -80 -154 -221 -154c-95 0 -167 40 -207 114c-39 -74 -111 -114 -204 -114c-147 0 -239 91 -239 275s92 275 239 275c93 0 165 -40 204 -115c40 75 112 115 207 115z" />
    <glyph glyph-name="pmacron" unicode="&#xe124;" horiz-adv-x="599" 
d="M136 90v-290h-66v606l-6 124h60l12 -91c35 59 100 101 178 101c148 0 235 -101 235 -275s-87 -275 -235 -275c-78 0 -143 42 -178 100zM479 265c0 137 -63 212 -167 212c-108 0 -173 -83 -176 -151v-122c3 -67 68 -151 176 -151c104 0 167 76 167 212zM173 664v64h272
v-64h-272z" />
    <glyph glyph-name="racute" unicode="&#x155;" horiz-adv-x="395" 
d="M264 800h82l-111 -208h-65zM312 540c19 0 46 -3 59 -8l-7 -68c-8 3 -27 9 -52 9c-108 0 -173 -84 -176 -151v-322h-66v407l-6 123h60l12 -94c31 57 98 104 176 104z" />
    <glyph glyph-name="rcaron" unicode="&#x159;" horiz-adv-x="395" 
d="M317 800h67l-150 -208h-68l-150 208h67l117 -150zM312 540c19 0 46 -3 59 -8l-7 -68c-8 3 -27 9 -52 9c-108 0 -173 -84 -176 -151v-322h-66v407l-6 123h60l12 -94c31 57 98 104 176 104z" />
    <glyph glyph-name="rinvertedbreve" unicode="&#x213;" horiz-adv-x="395" 
d="M388 592h-56c0 105 -36 142 -122 142s-122 -37 -122 -142h-56c0 126 42 198 178 198s178 -72 178 -198zM312 540c19 0 46 -3 59 -8l-7 -68c-8 3 -27 9 -52 9c-108 0 -173 -84 -176 -151v-322h-66v407l-6 123h60l12 -94c31 57 98 104 176 104z" />
    <glyph glyph-name="rdoublegrave" unicode="&#xe126;" horiz-adv-x="395" 
d="M149 800h82l94 -208h-65zM9 800h82l94 -208h-65zM312 540c19 0 46 -3 59 -8l-7 -68c-8 3 -27 9 -52 9c-108 0 -173 -84 -176 -151v-322h-66v407l-6 123h60l12 -94c31 57 98 104 176 104z" />
    <glyph glyph-name="rcommaaccent" unicode="&#x157;" horiz-adv-x="395" 
d="M65 -62h79l-50 -138h-67zM312 540c19 0 46 -3 59 -8l-7 -68c-8 3 -27 9 -52 9c-108 0 -173 -84 -176 -151v-322h-66v407l-6 123h60l12 -94c31 57 98 104 176 104z" />
    <glyph glyph-name="rcedilla" unicode="&#xe128;" horiz-adv-x="395" 
d="M66 -75l17 49c92 -11 131 -45 131 -101c0 -59 -48 -83 -109 -83c-31 0 -65 9 -79 17l15 44s27 -12 56 -13c41 -1 59 13 59 34c0 35 -42 48 -90 53zM312 540c19 0 46 -3 59 -8l-7 -68c-8 3 -27 9 -52 9c-108 0 -173 -84 -176 -151v-322h-66v407l-6 123h60l12 -94
c31 57 98 104 176 104z" />
    <glyph glyph-name="rdotbelow" unicode="&#x1e5b;" horiz-adv-x="395" 
d="M146 -67v-86h-86v86h86zM312 540c19 0 46 -3 59 -8l-7 -68c-8 3 -27 9 -52 9c-108 0 -173 -84 -176 -151v-322h-66v407l-6 123h60l12 -94c31 57 98 104 176 104z" />
    <glyph glyph-name="rdotbelowmacron" unicode="&#x1e5d;" horiz-adv-x="395" 
d="M146 -67v-86h-86v86h86zM74 664v64h272v-64h-272zM312 540c19 0 46 -3 59 -8l-7 -68c-8 3 -27 9 -52 9c-108 0 -173 -84 -176 -151v-322h-66v407l-6 123h60l12 -94c31 57 98 104 176 104z" />
    <glyph glyph-name="sacute" unicode="&#x15b;" horiz-adv-x="530" 
d="M262 51c75 2 157 22 157 101c0 78 -59 78 -158 93c-73 11 -201 21 -201 137c0 117 108 158 200 158c137 0 197 -63 216 -154l-71 -9c-15 66 -56 104 -146 102c-57 -1 -130 -15 -130 -93c0 -64 59 -67 143 -80c92 -14 218 -20 218 -151c0 -121 -117 -165 -227 -165
c-141 0 -205 72 -221 154l71 9c15 -63 55 -104 149 -102zM324 800h82l-111 -208h-65z" />
    <glyph glyph-name="scircumflex" unicode="&#x15d;" horiz-adv-x="530" 
d="M262 51c75 2 157 22 157 101c0 78 -59 78 -158 93c-73 11 -201 21 -201 137c0 117 108 158 200 158c137 0 197 -63 216 -154l-71 -9c-15 66 -56 104 -146 102c-57 -1 -130 -15 -130 -93c0 -64 59 -67 143 -80c92 -14 218 -20 218 -151c0 -121 -117 -165 -227 -165
c-141 0 -205 72 -221 154l71 9c15 -63 55 -104 149 -102zM444 592h-67l-117 150l-117 -150h-67l150 208h68z" />
    <glyph glyph-name="scaron" unicode="&#x161;" horiz-adv-x="530" 
d="M262 51c75 2 157 22 157 101c0 78 -59 78 -158 93c-73 11 -201 21 -201 137c0 117 108 158 200 158c137 0 197 -63 216 -154l-71 -9c-15 66 -56 104 -146 102c-57 -1 -130 -15 -130 -93c0 -64 59 -67 143 -80c92 -14 218 -20 218 -151c0 -121 -117 -165 -227 -165
c-141 0 -205 72 -221 154l71 9c15 -63 55 -104 149 -102zM377 800h67l-150 -208h-68l-150 208h67l117 -150z" />
    <glyph glyph-name="scommaaccent" unicode="&#x219;" horiz-adv-x="530" 
d="M262 51c75 2 157 22 157 101c0 78 -59 78 -158 93c-73 11 -201 21 -201 137c0 117 108 158 200 158c137 0 197 -63 216 -154l-71 -9c-15 66 -56 104 -146 102c-57 -1 -130 -15 -130 -93c0 -64 59 -67 143 -80c92 -14 218 -20 218 -151c0 -121 -117 -165 -227 -165
c-141 0 -205 72 -221 154l71 9c15 -63 55 -104 149 -102zM230 -62h79l-50 -138h-67z" />
    <glyph glyph-name="scedilla" unicode="&#x15f;" horiz-adv-x="530" 
d="M262 51c75 2 157 22 157 101c0 78 -59 78 -158 93c-73 11 -201 21 -201 137c0 117 108 158 200 158c137 0 197 -63 216 -154l-71 -9c-15 66 -56 104 -146 102c-57 -1 -130 -15 -130 -93c0 -64 59 -67 143 -80c92 -14 218 -20 218 -151c0 -113 -102 -158 -205 -164l-7 -25
c46 -11 87 -37 87 -93c0 -59 -48 -83 -109 -83c-31 0 -65 9 -79 17l15 44s27 -12 56 -13c41 -1 59 13 59 34c0 35 -42 48 -90 53l22 66c-124 7 -182 75 -197 153l71 9c15 -63 55 -104 149 -102z" />
    <glyph glyph-name="sdotbelow" unicode="&#x1e63;" horiz-adv-x="530" 
d="M262 51c75 2 157 22 157 101c0 78 -59 78 -158 93c-73 11 -201 21 -201 137c0 117 108 158 200 158c137 0 197 -63 216 -154l-71 -9c-15 66 -56 104 -146 102c-57 -1 -130 -15 -130 -93c0 -64 59 -67 143 -80c92 -14 218 -20 218 -151c0 -121 -117 -165 -227 -165
c-141 0 -205 72 -221 154l71 9c15 -63 55 -104 149 -102zM301 -67v-86h-86v86h86z" />
    <glyph glyph-name="germandbls" unicode="&#xdf;" horiz-adv-x="628" 
d="M328 810c119 0 210 -52 210 -166s-79 -144 -134 -167c-51 -21 -77 -36 -77 -92c0 -52 48 -65 102 -82c65 -20 159 -46 159 -154c0 -105 -78 -159 -177 -159c-132 0 -166 74 -178 154l68 8c8 -56 29 -102 109 -101c68 1 107 27 107 95c0 64 -51 80 -114 98
c-41 12 -145 38 -145 137c0 108 82 138 125 154c59 22 88 43 88 106c0 75 -49 108 -143 108c-159 0 -170 -98 -170 -223v-526h-66v532c0 189 56 278 236 278z" />
    <glyph glyph-name="tcaron" unicode="&#x165;" horiz-adv-x="395" 
d="M27 468v62h96v135l66 22v-157h163v-62h-163v-270c0 -121 35 -145 115 -145c24 0 41 6 49 9l8 -64c-14 -5 -38 -8 -57 -8c-157 0 -181 99 -181 208v270h-96zM306 800h79l-75 -208h-61z" />
    <glyph glyph-name="tcommaaccent" unicode="&#x163;" horiz-adv-x="395" 
d="M27 468v62h96v135l66 22v-157h163v-62h-163v-270c0 -121 35 -145 115 -145c24 0 41 6 49 9l8 -64c-14 -5 -38 -8 -57 -8c-157 0 -181 99 -181 208v270h-96zM185 -62h79l-50 -138h-67z" />
    <glyph glyph-name="tcedilla" unicode="&#xe12a;" horiz-adv-x="395" 
d="M27 468v62h96v135l66 22v-157h163v-62h-163v-270c0 -121 35 -145 115 -145c24 0 41 6 49 9l8 -64c-14 -5 -38 -8 -57 -8c-157 0 -181 99 -181 208v270h-96zM187 -75l17 49c92 -11 131 -45 131 -101c0 -59 -48 -83 -109 -83c-31 0 -65 9 -79 17l15 44s27 -12 56 -13
c41 -1 59 13 59 34c0 35 -42 48 -90 53z" />
    <glyph glyph-name="tdotbelow" unicode="&#x1e6d;" horiz-adv-x="395" 
d="M27 468v62h96v135l66 22v-157h163v-62h-163v-270c0 -121 35 -145 115 -145c24 0 41 6 49 9l8 -64c-14 -5 -38 -8 -57 -8c-157 0 -181 99 -181 208v270h-96zM265 -67v-86h-86v86h86z" />
    <glyph glyph-name="tbar" unicode="&#x167;" horiz-adv-x="395" 
d="M345 299h-156v-101c0 -121 35 -145 115 -145c24 0 41 6 49 9l8 -64c-14 -5 -38 -8 -57 -8c-157 0 -181 99 -181 208v101h-96v62h96v107h-96v62h96v135l66 22v-157h163v-62h-163v-107h156v-62z" />
    <glyph glyph-name="ugrave" unicode="&#xf9;" horiz-adv-x="574" 
d="M146 800h82l94 -208h-65zM450 0l-12 90c-35 -58 -101 -100 -181 -100c-110 0 -196 62 -196 170v370h66v-355c0 -79 57 -122 140 -122c99 0 168 84 171 151v326h66v-407l6 -123h-60z" />
    <glyph glyph-name="uacute" unicode="&#xfa;" horiz-adv-x="574" 
d="M346 800h82l-111 -208h-65zM450 0l-12 90c-35 -58 -101 -100 -181 -100c-110 0 -196 62 -196 170v370h66v-355c0 -79 57 -122 140 -122c99 0 168 84 171 151v326h66v-407l6 -123h-60z" />
    <glyph glyph-name="ucircumflex" unicode="&#xfb;" horiz-adv-x="574" 
d="M466 592h-67l-117 150l-117 -150h-67l150 208h68zM450 0l-12 90c-35 -58 -101 -100 -181 -100c-110 0 -196 62 -196 170v370h66v-355c0 -79 57 -122 140 -122c99 0 168 84 171 151v326h66v-407l6 -123h-60z" />
    <glyph glyph-name="udieresis" unicode="&#xfc;" horiz-adv-x="574" 
d="M232 739v-86h-86v86h86zM418 739v-86h-86v86h86zM450 0l-12 90c-35 -58 -101 -100 -181 -100c-110 0 -196 62 -196 170v370h66v-355c0 -79 57 -122 140 -122c99 0 168 84 171 151v326h66v-407l6 -123h-60z" />
    <glyph glyph-name="utilde" unicode="&#x169;" horiz-adv-x="574" 
d="M354 630c-79 4 -94 72 -146 75c-60 4 -68 -52 -68 -52l-55 8c13 59 46 107 127 103c79 -4 94 -72 146 -75c60 -4 68 52 68 52l55 -8c-13 -59 -46 -107 -127 -103zM450 0l-12 90c-35 -58 -101 -100 -181 -100c-110 0 -196 62 -196 170v370h66v-355c0 -79 57 -122 140 -122
c99 0 168 84 171 151v326h66v-407l6 -123h-60z" />
    <glyph glyph-name="uring" unicode="&#x16f;" horiz-adv-x="574" 
d="M168 696c0 66 42 114 114 114s114 -48 114 -114s-42 -114 -114 -114s-114 48 -114 114zM226 696c0 -34 21 -58 56 -58s56 24 56 58s-21 58 -56 58s-56 -24 -56 -58zM450 0l-12 90c-35 -58 -101 -100 -181 -100c-110 0 -196 62 -196 170v370h66v-355
c0 -79 57 -122 140 -122c99 0 168 84 171 151v326h66v-407l6 -123h-60z" />
    <glyph glyph-name="ucaron" unicode="&#x1d4;" horiz-adv-x="574" 
d="M98 800h67l117 -150l117 150h67l-150 -208h-68zM450 0l-12 90c-35 -58 -101 -100 -181 -100c-110 0 -196 62 -196 170v370h66v-355c0 -79 57 -122 140 -122c99 0 168 84 171 151v326h66v-407l6 -123h-60z" />
    <glyph glyph-name="umacron" unicode="&#x16b;" horiz-adv-x="574" 
d="M146 664v64h272v-64h-272zM450 0l-12 90c-35 -58 -101 -100 -181 -100c-110 0 -196 62 -196 170v370h66v-355c0 -79 57 -122 140 -122c99 0 168 84 171 151v326h66v-407l6 -123h-60z" />
    <glyph glyph-name="ubreve" unicode="&#x16d;" horiz-adv-x="574" 
d="M404 800h56c0 -126 -42 -198 -178 -198s-178 72 -178 198h56c0 -105 36 -142 122 -142s122 37 122 142zM450 0l-12 90c-35 -58 -101 -100 -181 -100c-110 0 -196 62 -196 170v370h66v-355c0 -79 57 -122 140 -122c99 0 168 84 171 151v326h66v-407l6 -123h-60z" />
    <glyph glyph-name="uinvertedbreve" unicode="&#x217;" horiz-adv-x="574" 
d="M460 592h-56c0 105 -36 142 -122 142s-122 -37 -122 -142h-56c0 126 42 198 178 198s178 -72 178 -198zM450 0l-12 90c-35 -58 -101 -100 -181 -100c-110 0 -196 62 -196 170v370h66v-355c0 -79 57 -122 140 -122c99 0 168 84 171 151v326h66v-407l6 -123h-60z" />
    <glyph glyph-name="uhungarumlaut" unicode="&#x171;" horiz-adv-x="574" 
d="M411 800h82l-111 -208h-65zM271 800h82l-111 -208h-65zM450 0l-12 90c-35 -58 -101 -100 -181 -100c-110 0 -196 62 -196 170v370h66v-355c0 -79 57 -122 140 -122c99 0 168 84 171 151v326h66v-407l6 -123h-60z" />
    <glyph glyph-name="udoublegrave" unicode="&#x215;" horiz-adv-x="574" 
d="M72 800h82l94 -208h-65zM212 800h82l94 -208h-65zM450 0l-12 90c-35 -58 -101 -100 -181 -100c-110 0 -196 62 -196 170v370h66v-355c0 -79 57 -122 140 -122c99 0 168 84 171 151v326h66v-407l6 -123h-60z" />
    <glyph glyph-name="uogonek" unicode="&#x173;" horiz-adv-x="574" 
d="M449 25l-11 82c-34 -69 -101 -117 -181 -117c-110 0 -196 62 -196 170v370h66v-355c0 -79 57 -122 140 -122c99 0 162 95 171 161v316h66v-406l6 -124c-68 -22 -98 -68 -98 -109c0 -23 14 -46 51 -46c35 0 72 21 72 21l17 -51c-21 -13 -55 -25 -100 -25
c-52 0 -105 33 -105 90c0 50 25 108 102 145z" />
    <glyph glyph-name="udotbelow" unicode="&#x1ee5;" horiz-adv-x="574" 
d="M450 0l-12 90c-35 -58 -101 -100 -181 -100c-110 0 -196 62 -196 170v370h66v-355c0 -79 57 -122 140 -122c99 0 168 84 171 151v326h66v-407l6 -123h-60zM325 -67v-86h-86v86h86z" />
    <glyph glyph-name="umacronbelow" unicode="&#xe12c;" horiz-adv-x="574" 
d="M450 0l-12 90c-35 -58 -101 -100 -181 -100c-110 0 -196 62 -196 170v370h66v-355c0 -79 57 -122 140 -122c99 0 168 84 171 151v326h66v-407l6 -123h-60zM146 -142v64h272v-64h-272z" />
    <glyph glyph-name="wgrave" unicode="&#x1e81;" horiz-adv-x="810" 
d="M448 326l-43 143l-43 -143l-104 -336h-79l-149 540h71l80 -312l37 -153l45 153l97 312h90l97 -312l45 -153l37 153l80 312h71l-149 -540h-79zM261 800h82l94 -208h-65z" />
    <glyph glyph-name="wacute" unicode="&#x1e83;" horiz-adv-x="810" 
d="M448 326l-43 143l-43 -143l-104 -336h-79l-149 540h71l80 -312l37 -153l45 153l97 312h90l97 -312l45 -153l37 153l80 312h71l-149 -540h-79zM467 800h82l-111 -208h-65z" />
    <glyph glyph-name="wcircumflex" unicode="&#x175;" horiz-adv-x="810" 
d="M448 326l-43 143l-43 -143l-104 -336h-79l-149 540h71l80 -312l37 -153l45 153l97 312h90l97 -312l45 -153l37 153l80 312h71l-149 -540h-79zM589 592h-67l-117 150l-117 -150h-67l150 208h68z" />
    <glyph glyph-name="wdieresis" unicode="&#x1e85;" horiz-adv-x="810" 
d="M448 326l-43 143l-43 -143l-104 -336h-79l-149 540h71l80 -312l37 -153l45 153l97 312h90l97 -312l45 -153l37 153l80 312h71l-149 -540h-79zM355 739v-86h-86v86h86zM541 739v-86h-86v86h86z" />
    <glyph glyph-name="ygrave" unicode="&#x1ef3;" horiz-adv-x="540" 
d="M522 530l-209 -494l-96 -236h-77l93 220l-215 510h78l115 -291l59 -152l59 152l116 291h77zM134 800h82l94 -208h-65z" />
    <glyph glyph-name="yacute" unicode="&#xfd;" horiz-adv-x="540" 
d="M522 530l-209 -494l-96 -236h-77l93 220l-215 510h78l115 -291l59 -152l59 152l116 291h77zM334 800h82l-111 -208h-65z" />
    <glyph glyph-name="ycircumflex" unicode="&#x177;" horiz-adv-x="540" 
d="M522 530l-209 -494l-96 -236h-77l93 220l-215 510h78l115 -291l59 -152l59 152l116 291h77zM454 592h-67l-117 150l-117 -150h-67l150 208h68z" />
    <glyph glyph-name="ydieresis" unicode="&#xff;" horiz-adv-x="540" 
d="M522 530l-209 -494l-96 -236h-77l93 220l-215 510h78l115 -291l59 -152l59 152l116 291h77zM220 739v-86h-86v86h86zM406 739v-86h-86v86h86z" />
    <glyph glyph-name="ytilde" unicode="&#x1ef9;" horiz-adv-x="540" 
d="M522 530l-209 -494l-96 -236h-77l93 220l-215 510h78l115 -291l59 -152l59 152l116 291h77zM341 630c-79 4 -94 72 -146 75c-60 4 -68 -52 -68 -52l-55 8c13 59 46 107 127 103c79 -4 94 -72 146 -75c60 -4 68 52 68 52l55 -8c-13 -59 -46 -107 -127 -103z" />
    <glyph glyph-name="ymacron" unicode="&#x233;" horiz-adv-x="540" 
d="M522 530l-209 -494l-96 -236h-77l93 220l-215 510h78l115 -291l59 -152l59 152l116 291h77zM134 664v64h272v-64h-272z" />
    <glyph glyph-name="ij" unicode="&#x133;" horiz-adv-x="480" 
d="M168 739v-86h-86v86h86zM92 0v530h66v-530h-66zM213 -147c80 0 114 23 114 145v532h66v-532c0 -110 -24 -208 -180 -208c-19 0 -43 3 -57 8l8 64c7 -3 25 -9 49 -9zM403 739v-86h-86v86h86z" />
    <glyph glyph-name="zacute" unicode="&#x17a;" horiz-adv-x="535" 
d="M45 0v54l275 324l83 91l-146 -1h-193v62h419v-54l-275 -324l-83 -91l146 1h223v-62h-449zM321 800h82l-111 -208h-65z" />
    <glyph glyph-name="zcaron" unicode="&#x17e;" horiz-adv-x="535" 
d="M45 0v54l275 324l83 91l-146 -1h-193v62h419v-54l-275 -324l-83 -91l146 1h223v-62h-449zM374 800h67l-150 -208h-68l-150 208h67l117 -150z" />
    <glyph glyph-name="zdotaccent" unicode="&#x17c;" horiz-adv-x="535" 
d="M45 0v54l275 324l83 91l-146 -1h-193v62h419v-54l-275 -324l-83 -91l146 1h223v-62h-449zM300 739v-86h-86v86h86z" />
    <glyph glyph-name="eng" unicode="&#x14b;" horiz-adv-x="574" 
d="M333 -147c80 0 114 23 114 145v357c0 79 -57 122 -140 122c-99 0 -168 -84 -171 -151v-326h-66v407l-6 123h60l12 -90c35 58 101 100 181 100c110 0 196 -62 196 -170v-372c0 -110 -24 -208 -180 -208c-19 0 -43 3 -57 8l8 64c7 -3 25 -9 49 -9z" />
    <glyph glyph-name="eth" unicode="&#xf0;" horiz-adv-x="578" 
d="M469 726l-83 -32c74 -78 142 -205 142 -429c0 -184 -92 -275 -239 -275s-239 91 -239 275s92 275 239 275c54 0 103 -16 146 -52c-28 81 -66 139 -110 183l-156 -60v54l112 43c-57 43 -119 71 -172 92h126c33 -15 71 -36 110 -68l124 48v-54zM289 478
c-104 0 -170 -63 -170 -213s66 -213 170 -213s170 63 170 213s-66 213 -170 213z" />
    <glyph glyph-name="thorn" unicode="&#xfe;" horiz-adv-x="599" 
d="M136 326v-122c3 -67 68 -151 176 -151c104 0 167 76 167 212s-63 212 -167 212c-108 0 -173 -84 -176 -151zM70 -200v1000h66v-360c35 58 100 100 178 100c148 0 235 -101 235 -275s-87 -275 -235 -275c-78 0 -143 42 -178 100v-290h-66z" />
    <glyph glyph-name="ezh" unicode="&#x292;" horiz-adv-x="535" 
d="M260 -210c-155 0 -214 72 -227 154l67 10c11 -63 57 -109 160 -107c100 2 164 64 164 173s-65 167 -160 169c-48 1 -81 -9 -105 -27l-40 43l188 188l78 76l-143 -1h-188v62h419v-54l-226 -226h18c122 0 227 -79 227 -230s-117 -230 -232 -230z" />
    <glyph glyph-name="ezhcaron" unicode="&#x1ef;" horiz-adv-x="535" 
d="M260 -210c-155 0 -214 72 -227 154l67 10c11 -63 57 -109 160 -107c100 2 164 64 164 173s-65 167 -160 169c-48 1 -81 -9 -105 -27l-40 43l188 188l78 76l-143 -1h-188v62h419v-54l-226 -226h18c122 0 227 -79 227 -230s-117 -230 -232 -230zM369 800h67l-150 -208h-68
l-150 208h67l117 -150z" />
    <glyph glyph-name="schwa" unicode="&#x259;" horiz-adv-x="570" 
d="M279 -10c-155 0 -224 100 -224 274v27h395c-6 134 -74 188 -172 188c-94 2 -134 -39 -149 -102l-71 9c16 82 80 154 221 154c148 0 241 -91 241 -275s-93 -275 -241 -275zM279 50c97 0 164 54 171 182h-323c2 -117 49 -184 152 -182z" />
    <glyph glyph-name="ordfeminine" unicode="&#xaa;" horiz-adv-x="440" 
d="M42 497c0 82 65 109 153 122l124 18v16c0 58 -39 79 -107 79c-48 0 -79 -25 -90 -68l-64 8c15 68 50 118 159 118c102 0 164 -46 164 -142v-163l5 -95h-57l-8 61c-25 -41 -82 -71 -140 -71c-95 0 -139 46 -139 117zM108 497c0 -38 25 -58 70 -58c77 0 140 49 141 101v44
l-155 -26c-34 -6 -56 -25 -56 -61z" />
    <glyph glyph-name="ordmasculine" unicode="&#xba;" horiz-adv-x="460" 
d="M230 380c-110 0 -180 70 -180 205s70 205 180 205c111 0 180 -70 180 -205s-69 -205 -180 -205zM230 731c-70 0 -115 -44 -115 -146s45 -146 115 -146c71 0 115 44 115 146s-44 146 -115 146z" />
    <glyph glyph-name="cordinal" unicode="&#xe181;" horiz-adv-x="440" 
d="M50 585c0 130 67 205 179 205c107 0 150 -51 164 -120l-65 -9c-11 45 -37 72 -100 71c-71 -2 -113 -54 -113 -147s42 -145 113 -147c63 -1 89 26 100 71l65 -9c-14 -69 -57 -120 -164 -120c-112 0 -179 75 -179 205z" />
    <glyph glyph-name="a.school" unicode="&#xe151;" horiz-adv-x="604" 
d="M529 124l6 -124h-60l-12 91c-35 -59 -100 -101 -178 -101c-148 0 -235 101 -235 275s87 275 235 275c78 0 143 -42 178 -101l12 91h60l-6 -124v-282zM120 265c0 -137 63 -212 167 -212c108 0 173 83 176 151v122c-3 68 -68 151 -176 151c-104 0 -167 -75 -167 -212z" />
    <glyph glyph-name="agrave.school" unicode="&#xe152;" horiz-adv-x="604" 
d="M149 800h82l94 -208h-65zM529 124l6 -124h-60l-12 91c-35 -59 -100 -101 -178 -101c-148 0 -235 101 -235 275s87 275 235 275c78 0 143 -42 178 -101l12 91h60l-6 -124v-282zM120 265c0 -137 63 -212 167 -212c108 0 173 83 176 151v122c-3 68 -68 151 -176 151
c-104 0 -167 -75 -167 -212z" />
    <glyph glyph-name="aacute.school" unicode="&#xe153;" horiz-adv-x="604" 
d="M349 800h82l-111 -208h-65zM529 124l6 -124h-60l-12 91c-35 -59 -100 -101 -178 -101c-148 0 -235 101 -235 275s87 275 235 275c78 0 143 -42 178 -101l12 91h60l-6 -124v-282zM120 265c0 -137 63 -212 167 -212c108 0 173 83 176 151v122c-3 68 -68 151 -176 151
c-104 0 -167 -75 -167 -212z" />
    <glyph glyph-name="acircumflex.school" unicode="&#xe154;" horiz-adv-x="604" 
d="M469 592h-67l-117 150l-117 -150h-67l150 208h68zM529 124l6 -124h-60l-12 91c-35 -59 -100 -101 -178 -101c-148 0 -235 101 -235 275s87 275 235 275c78 0 143 -42 178 -101l12 91h60l-6 -124v-282zM120 265c0 -137 63 -212 167 -212c108 0 173 83 176 151v122
c-3 68 -68 151 -176 151c-104 0 -167 -75 -167 -212z" />
    <glyph glyph-name="adieresis.school" unicode="&#xe155;" horiz-adv-x="604" 
d="M235 739v-86h-86v86h86zM421 739v-86h-86v86h86zM529 124l6 -124h-60l-12 91c-35 -59 -100 -101 -178 -101c-148 0 -235 101 -235 275s87 275 235 275c78 0 143 -42 178 -101l12 91h60l-6 -124v-282zM120 265c0 -137 63 -212 167 -212c108 0 173 83 176 151v122
c-3 68 -68 151 -176 151c-104 0 -167 -75 -167 -212z" />
    <glyph glyph-name="atilde.school" unicode="&#xe156;" horiz-adv-x="604" 
d="M356 630c-79 4 -94 72 -146 75c-60 4 -68 -52 -68 -52l-55 8c13 59 46 107 127 103c79 -4 94 -72 146 -75c60 -4 68 52 68 52l55 -8c-13 -59 -46 -107 -127 -103zM529 124l6 -124h-60l-12 91c-35 -59 -100 -101 -178 -101c-148 0 -235 101 -235 275s87 275 235 275
c78 0 143 -42 178 -101l12 91h60l-6 -124v-282zM120 265c0 -137 63 -212 167 -212c108 0 173 83 176 151v122c-3 68 -68 151 -176 151c-104 0 -167 -75 -167 -212z" />
    <glyph glyph-name="aring.school" unicode="&#xe157;" horiz-adv-x="604" 
d="M171 696c0 66 42 114 114 114s114 -48 114 -114s-42 -114 -114 -114s-114 48 -114 114zM229 696c0 -34 21 -58 56 -58s56 24 56 58s-21 58 -56 58s-56 -24 -56 -58zM529 124l6 -124h-60l-12 91c-35 -59 -100 -101 -178 -101c-148 0 -235 101 -235 275s87 275 235 275
c78 0 143 -42 178 -101l12 91h60l-6 -124v-282zM120 265c0 -137 63 -212 167 -212c108 0 173 83 176 151v122c-3 68 -68 151 -176 151c-104 0 -167 -75 -167 -212z" />
    <glyph glyph-name="acaron.school" unicode="&#xe158;" horiz-adv-x="604" 
d="M402 800h67l-150 -208h-68l-150 208h67l117 -150zM529 124l6 -124h-60l-12 91c-35 -59 -100 -101 -178 -101c-148 0 -235 101 -235 275s87 275 235 275c78 0 143 -42 178 -101l12 91h60l-6 -124v-282zM120 265c0 -137 63 -212 167 -212c108 0 173 83 176 151v122
c-3 68 -68 151 -176 151c-104 0 -167 -75 -167 -212z" />
    <glyph glyph-name="amacron.school" unicode="&#xe159;" horiz-adv-x="604" 
d="M149 664v64h272v-64h-272zM529 124l6 -124h-60l-12 91c-35 -59 -100 -101 -178 -101c-148 0 -235 101 -235 275s87 275 235 275c78 0 143 -42 178 -101l12 91h60l-6 -124v-282zM120 265c0 -137 63 -212 167 -212c108 0 173 83 176 151v122c-3 68 -68 151 -176 151
c-104 0 -167 -75 -167 -212z" />
    <glyph glyph-name="abreve.school" unicode="&#xe15a;" horiz-adv-x="604" 
d="M407 800h56c0 -126 -42 -198 -178 -198s-178 72 -178 198h56c0 -105 36 -142 122 -142s122 37 122 142zM529 124l6 -124h-60l-12 91c-35 -59 -100 -101 -178 -101c-148 0 -235 101 -235 275s87 275 235 275c78 0 143 -42 178 -101l12 91h60l-6 -124v-282zM120 265
c0 -137 63 -212 167 -212c108 0 173 83 176 151v122c-3 68 -68 151 -176 151c-104 0 -167 -75 -167 -212z" />
    <glyph glyph-name="ainvertedbreve.school" unicode="&#xe15b;" horiz-adv-x="604" 
d="M463 592h-56c0 105 -36 142 -122 142s-122 -37 -122 -142h-56c0 126 42 198 178 198s178 -72 178 -198zM529 124l6 -124h-60l-12 91c-35 -59 -100 -101 -178 -101c-148 0 -235 101 -235 275s87 275 235 275c78 0 143 -42 178 -101l12 91h60l-6 -124v-282zM120 265
c0 -137 63 -212 167 -212c108 0 173 83 176 151v122c-3 68 -68 151 -176 151c-104 0 -167 -75 -167 -212z" />
    <glyph glyph-name="adoublegrave.school" unicode="&#xe15c;" horiz-adv-x="604" 
d="M214 800h82l94 -208h-65zM74 800h82l94 -208h-65zM529 124l6 -124h-60l-12 91c-35 -59 -100 -101 -178 -101c-148 0 -235 101 -235 275s87 275 235 275c78 0 143 -42 178 -101l12 91h60l-6 -124v-282zM120 265c0 -137 63 -212 167 -212c108 0 173 83 176 151v122
c-3 68 -68 151 -176 151c-104 0 -167 -75 -167 -212z" />
    <glyph glyph-name="adotabove.school" unicode="&#xe15d;" horiz-adv-x="604" 
d="M328 739v-86h-86v86h86zM529 124l6 -124h-60l-12 91c-35 -59 -100 -101 -178 -101c-148 0 -235 101 -235 275s87 275 235 275c78 0 143 -42 178 -101l12 91h60l-6 -124v-282zM120 265c0 -137 63 -212 167 -212c108 0 173 83 176 151v122c-3 68 -68 151 -176 151
c-104 0 -167 -75 -167 -212z" />
    <glyph glyph-name="aringacute.school" unicode="&#xe15e;" horiz-adv-x="604" 
d="M268 904h77l-60 -94c72 0 114 -48 114 -114s-42 -114 -114 -114s-114 48 -114 114c0 25 6 48 18 66zM229 696c0 -34 21 -58 56 -58s56 24 56 58s-21 58 -56 58s-56 -24 -56 -58zM529 124l6 -124h-60l-12 91c-35 -59 -100 -101 -178 -101c-148 0 -235 101 -235 275
s87 275 235 275c78 0 143 -42 178 -101l12 91h60l-6 -124v-282zM120 265c0 -137 63 -212 167 -212c108 0 173 83 176 151v122c-3 68 -68 151 -176 151c-104 0 -167 -75 -167 -212z" />
    <glyph glyph-name="adieresismacron.school" unicode="&#xe15f;" horiz-adv-x="604" 
d="M235 699v-86h-86v86h86zM421 699v-86h-86v86h86zM529 124l6 -124h-60l-12 91c-35 -59 -100 -101 -178 -101c-148 0 -235 101 -235 275s87 275 235 275c78 0 143 -42 178 -101l12 91h60l-6 -124v-282zM120 265c0 -137 63 -212 167 -212c108 0 173 83 176 151v122
c-3 68 -68 151 -176 151c-104 0 -167 -75 -167 -212zM149 764v64h272v-64h-272z" />
    <glyph glyph-name="aogonek.school" unicode="&#xe150;" horiz-adv-x="604" 
d="M529 124l6 -124c-68 -22 -98 -68 -98 -109c0 -23 14 -46 51 -46c35 0 72 21 72 21l17 -51c-21 -13 -55 -25 -100 -25c-52 0 -105 33 -105 90c0 50 25 108 102 145l-11 82c-27 -65 -100 -117 -178 -117c-148 0 -235 101 -235 275s87 275 235 275c78 0 143 -42 178 -101
l12 91h60l-6 -124v-282zM120 265c0 -137 63 -212 167 -212c108 0 170 92 176 158v115c-3 68 -68 151 -176 151c-104 0 -167 -75 -167 -212z" />
    <glyph glyph-name="ordfeminine.school" unicode="&#xe182;" horiz-adv-x="491" 
d="M237 380c-112 0 -187 75 -187 205s75 205 187 205c58 0 109 -27 135 -71l8 61h57l-5 -95v-200l5 -95h-57l-8 61c-26 -44 -77 -71 -135 -71zM236 732c-71 -2 -121 -54 -121 -147s50 -145 121 -147c81 0 133 56 135 107v80c-2 51 -48 107 -135 107z" />
    <glyph glyph-name="a.smcp" unicode="&#xe201;" 
d="M264 574h72l240 -574h-72l-68 165h-273l-67 -165h-72zM221 306l-33 -80h223l-32 80l-79 199z" />
    <glyph glyph-name="a.smcp" unicode="&#xf761;" 
d="M264 574h72l240 -574h-72l-68 165h-273l-67 -165h-72zM221 306l-33 -80h223l-32 80l-79 199z" />
    <glyph glyph-name="b.smcp" unicode="&#xe202;" horiz-adv-x="605" 
d="M360 0h-270v564h275c72 0 174 -27 174 -147c0 -80 -47 -115 -88 -119c51 -4 104 -51 104 -137c0 -128 -98 -161 -195 -161zM158 63h204c76 0 123 22 123 98c0 75 -47 101 -116 101h-211v-199zM356 499h-198v-176h198c81 0 114 31 114 94c0 61 -31 82 -114 82z" />
    <glyph glyph-name="b.smcp" unicode="&#xf762;" horiz-adv-x="605" 
d="M360 0h-270v564h275c72 0 174 -27 174 -147c0 -80 -47 -115 -88 -119c51 -4 104 -51 104 -137c0 -128 -98 -161 -195 -161zM158 63h204c76 0 123 22 123 98c0 75 -47 101 -116 101h-211v-199zM356 499h-198v-176h198c81 0 114 31 114 94c0 61 -31 82 -114 82z" />
    <glyph glyph-name="c.smcp" unicode="&#xe203;" horiz-adv-x="640" 
d="M138 282c0 -153 75 -227 194 -229c101 -2 157 38 173 108l73 -7c-20 -97 -91 -164 -245 -164c-169 0 -268 107 -268 292s99 292 268 292c154 0 225 -67 245 -164l-73 -7c-16 70 -72 110 -173 108c-119 -2 -194 -76 -194 -229z" />
    <glyph glyph-name="c.smcp" unicode="&#xf763;" horiz-adv-x="640" 
d="M138 282c0 -153 75 -227 194 -229c101 -2 157 38 173 108l73 -7c-20 -97 -91 -164 -245 -164c-169 0 -268 107 -268 292s99 292 268 292c154 0 225 -67 245 -164l-73 -7c-16 70 -72 110 -173 108c-119 -2 -194 -76 -194 -229z" />
    <glyph glyph-name="d.smcp" unicode="&#xe204;" horiz-adv-x="640" 
d="M575 282c0 -195 -103 -282 -279 -282h-206v564h206c176 0 279 -87 279 -282zM158 500v-436h153c122 0 191 77 191 218s-69 218 -191 218h-153z" />
    <glyph glyph-name="d.smcp" unicode="&#xf764;" horiz-adv-x="640" 
d="M575 282c0 -195 -103 -282 -279 -282h-206v564h206c176 0 279 -87 279 -282zM158 500v-436h153c122 0 191 77 191 218s-69 218 -191 218h-153z" />
    <glyph glyph-name="e.smcp" unicode="&#xe205;" horiz-adv-x="590" 
d="M90 564h410v-64h-342v-176h304v-64h-304v-196h362v-64h-430v564z" />
    <glyph glyph-name="e.smcp" unicode="&#xf765;" horiz-adv-x="590" 
d="M90 564h410v-64h-342v-176h304v-64h-304v-196h362v-64h-430v564z" />
    <glyph glyph-name="f.smcp" unicode="&#xe206;" horiz-adv-x="530" 
d="M158 260v-260h-68v564h390v-64h-322v-176h284v-64h-284z" />
    <glyph glyph-name="f.smcp" unicode="&#xf766;" horiz-adv-x="530" 
d="M158 260v-260h-68v564h390v-64h-322v-176h284v-64h-284z" />
    <glyph glyph-name="g.smcp" unicode="&#xe207;" horiz-adv-x="663" 
d="M575 56c-43 -29 -118 -66 -242 -66c-169 0 -268 107 -268 292s99 292 268 292c154 0 225 -67 245 -164l-73 -7c-16 70 -72 110 -173 108c-119 -2 -194 -76 -194 -229s75 -225 194 -229c80 -3 144 20 175 38v139h-125v64h193v-238z" />
    <glyph glyph-name="g.smcp" unicode="&#xf767;" horiz-adv-x="663" 
d="M575 56c-43 -29 -118 -66 -242 -66c-169 0 -268 107 -268 292s99 292 268 292c154 0 225 -67 245 -164l-73 -7c-16 70 -72 110 -173 108c-119 -2 -194 -76 -194 -229s75 -225 194 -229c80 -3 144 20 175 38v139h-125v64h193v-238z" />
    <glyph glyph-name="h.smcp" unicode="&#xe208;" horiz-adv-x="663" 
d="M505 564h68v-564h-68v260h-347v-260h-68v564h68v-240h347v240z" />
    <glyph glyph-name="h.smcp" unicode="&#xf768;" horiz-adv-x="663" 
d="M505 564h68v-564h-68v260h-347v-260h-68v564h68v-240h347v240z" />
    <glyph glyph-name="i.smcp" unicode="&#xe209;" horiz-adv-x="290" 
d="M179 564v-564h-68v564h68z" />
    <glyph glyph-name="i.smcp" unicode="&#xf769;" horiz-adv-x="290" 
d="M179 564v-564h-68v564h68z" />
    <glyph glyph-name="j.smcp" unicode="&#xe20a;" horiz-adv-x="460" 
d="M303 564h69v-389c0 -113 -52 -185 -179 -185c-148 0 -174 87 -173 149l69 9c1 -44 11 -96 104 -96c82 0 110 42 110 128v384z" />
    <glyph glyph-name="j.smcp" unicode="&#xf76a;" horiz-adv-x="460" 
d="M303 564h69v-389c0 -113 -52 -185 -179 -185c-148 0 -174 87 -173 149l69 9c1 -44 11 -96 104 -96c82 0 110 42 110 128v384z" />
    <glyph glyph-name="k.smcp" unicode="&#xe20b;" horiz-adv-x="565" 
d="M543 0h-90l-209 259l-86 -92v-167h-68v564h68v-309l63 70l217 239h91l-240 -256z" />
    <glyph glyph-name="k.smcp" unicode="&#xf76b;" horiz-adv-x="565" 
d="M543 0h-90l-209 259l-86 -92v-167h-68v564h68v-309l63 70l217 239h91l-240 -256z" />
    <glyph glyph-name="l.smcp" unicode="&#xe20c;" horiz-adv-x="490" 
d="M158 564v-500h302v-64h-370v564h68z" />
    <glyph glyph-name="l.smcp" unicode="&#xf76c;" horiz-adv-x="490" 
d="M158 564v-500h302v-64h-370v564h68z" />
    <glyph glyph-name="m.smcp" unicode="&#xe20d;" horiz-adv-x="778" 
d="M356 0l-130 279l-74 161l4 -154v-286h-66v564h71l168 -358l60 -136l60 136l168 358h71v-564h-66v280l4 160l-74 -161l-130 -279h-66z" />
    <glyph glyph-name="m.smcp" unicode="&#xf76d;" horiz-adv-x="778" 
d="M356 0l-130 279l-74 161l4 -154v-286h-66v564h71l168 -358l60 -136l60 136l168 358h71v-564h-66v280l4 160l-74 -161l-130 -279h-66z" />
    <glyph glyph-name="n.smcp" unicode="&#xe20e;" horiz-adv-x="663" 
d="M512 0l-248 317l-109 142l4 -174v-285h-69v564h61l248 -317l109 -143l-4 174v286h69v-564h-61z" />
    <glyph glyph-name="n.smcp" unicode="&#xf76e;" horiz-adv-x="663" 
d="M512 0l-248 317l-109 142l4 -174v-285h-69v564h61l248 -317l109 -143l-4 174v286h69v-564h-61z" />
    <glyph glyph-name="o.smcp" unicode="&#xe20f;" horiz-adv-x="680" 
d="M340 -10c-166 0 -274 97 -274 292s108 292 274 292s274 -97 274 -292s-108 -292 -274 -292zM340 512c-118 0 -204 -71 -204 -230s86 -230 204 -230c117 0 203 71 203 230s-86 230 -203 230z" />
    <glyph glyph-name="o.smcp" unicode="&#xf76f;" horiz-adv-x="680" 
d="M340 -10c-166 0 -274 97 -274 292s108 292 274 292s274 -97 274 -292s-108 -292 -274 -292zM340 512c-118 0 -204 -71 -204 -230s86 -230 204 -230c117 0 203 71 203 230s-86 230 -203 230z" />
    <glyph glyph-name="p.smcp" unicode="&#xe200;" horiz-adv-x="550" 
d="M337 500h-179v-206h179c53 0 104 17 104 103s-51 103 -104 103zM90 0v564h231c100 0 191 -34 191 -167s-91 -167 -191 -167h-163v-230h-68z" />
    <glyph glyph-name="p.smcp" unicode="&#xf770;" horiz-adv-x="550" 
d="M337 500h-179v-206h179c53 0 104 17 104 103s-51 103 -104 103zM90 0v564h231c100 0 191 -34 191 -167s-91 -167 -191 -167h-163v-230h-68z" />
    <glyph glyph-name="q.smcp" unicode="&#xe211;" horiz-adv-x="680" 
d="M728 -210l-517 225c-81 35 -145 117 -145 267c0 195 108 292 274 292s274 -97 274 -292c0 -168 -80 -263 -207 -286v-3l103 -38l218 -88v-77zM340 512c-118 0 -204 -71 -204 -230s86 -230 204 -230c117 0 203 71 203 230s-86 230 -203 230z" />
    <glyph glyph-name="q.smcp" unicode="&#xf771;" horiz-adv-x="680" 
d="M728 -210l-517 225c-81 35 -145 117 -145 267c0 195 108 292 274 292s274 -97 274 -292c0 -168 -80 -263 -207 -286v-3l103 -38l218 -88v-77zM340 512c-118 0 -204 -71 -204 -230s86 -230 204 -230c117 0 203 71 203 230s-86 230 -203 230z" />
    <glyph glyph-name="r.smcp" unicode="&#xe212;" horiz-adv-x="615" 
d="M158 242v-242h-68v564h260c97 0 195 -33 195 -161c0 -99 -60 -141 -131 -155l153 -248h-82l-141 242h-186zM158 305h194c76 0 123 22 123 98s-47 98 -123 98h-194v-196z" />
    <glyph glyph-name="r.smcp" unicode="&#xf772;" horiz-adv-x="615" 
d="M158 242v-242h-68v564h260c97 0 195 -33 195 -161c0 -99 -60 -141 -131 -155l153 -248h-82l-141 242h-186zM158 305h194c76 0 123 22 123 98s-47 98 -123 98h-194v-196z" />
    <glyph glyph-name="s.smcp" unicode="&#xe213;" horiz-adv-x="615" 
d="M306 53c82 2 170 23 170 109c0 74 -50 88 -169 104c-91 12 -215 31 -215 147c0 114 106 161 213 161c152 0 219 -58 237 -159l-72 -8c-14 76 -61 105 -165 104c-60 -1 -144 -13 -144 -95c0 -59 46 -74 152 -89c118 -16 234 -29 234 -163c0 -124 -120 -174 -240 -174
c-148 0 -228 63 -242 164l71 7c12 -73 74 -108 170 -108z" />
    <glyph glyph-name="s.smcp" unicode="&#xf773;" horiz-adv-x="615" 
d="M306 53c82 2 170 23 170 109c0 74 -50 88 -169 104c-91 12 -215 31 -215 147c0 114 106 161 213 161c152 0 219 -58 237 -159l-72 -8c-14 76 -61 105 -165 104c-60 -1 -144 -13 -144 -95c0 -59 46 -74 152 -89c118 -16 234 -29 234 -163c0 -124 -120 -174 -240 -174
c-148 0 -228 63 -242 164l71 7c12 -73 74 -108 170 -108z" />
    <glyph glyph-name="t.smcp" unicode="&#xe214;" horiz-adv-x="523" 
d="M295 500v-500h-67v500h-203v64h473v-64h-203z" />
    <glyph glyph-name="t.smcp" unicode="&#xf774;" horiz-adv-x="523" 
d="M295 500v-500h-67v500h-203v64h473v-64h-203z" />
    <glyph glyph-name="u.smcp" unicode="&#xe215;" horiz-adv-x="658" 
d="M329 -10c-189 0 -249 108 -249 227v347h70v-338c0 -90 23 -173 179 -173s179 83 179 173v338h70v-347c0 -119 -60 -227 -249 -227z" />
    <glyph glyph-name="u.smcp" unicode="&#xf775;" horiz-adv-x="658" 
d="M329 -10c-189 0 -249 108 -249 227v347h70v-338c0 -90 23 -173 179 -173s179 83 179 173v338h70v-347c0 -119 -60 -227 -249 -227z" />
    <glyph glyph-name="v.smcp" unicode="&#xe216;" 
d="M336 -10h-72l-240 574h72l125 -306l79 -199l79 199l125 306h72z" />
    <glyph glyph-name="v.smcp" unicode="&#xf776;" 
d="M336 -10h-72l-240 574h72l125 -306l79 -199l79 199l125 306h72z" />
    <glyph glyph-name="w.smcp" unicode="&#xe217;" horiz-adv-x="860" 
d="M473 358l-43 135l-43 -135l-126 -368h-61l-160 574h69l87 -325l36 -148l46 137l116 336h72l116 -336l46 -137l36 148l87 325h69l-160 -574h-61z" />
    <glyph glyph-name="w.smcp" unicode="&#xf777;" horiz-adv-x="860" 
d="M473 358l-43 135l-43 -135l-126 -368h-61l-160 574h69l87 -325l36 -148l46 137l116 336h72l116 -336l46 -137l36 148l87 325h69l-160 -574h-61z" />
    <glyph glyph-name="x.smcp" unicode="&#xe218;" horiz-adv-x="616" 
d="M308 248l-59 -79l-128 -169h-83l192 247l41 52l-40 48l-172 217h81l122 -160l46 -61l46 61l122 160h81l-172 -217l-40 -48l41 -52l192 -247h-83l-128 169z" />
    <glyph glyph-name="x.smcp" unicode="&#xf778;" horiz-adv-x="616" 
d="M308 248l-59 -79l-128 -169h-83l192 247l41 52l-40 48l-172 217h81l122 -160l46 -61l46 61l122 160h81l-172 -217l-40 -48l41 -52l192 -247h-83l-128 169z" />
    <glyph glyph-name="y.smcp" unicode="&#xe219;" horiz-adv-x="592" 
d="M20 564h78l109 -164l89 -137l89 137l109 164h78l-242 -359v-205h-68v205z" />
    <glyph glyph-name="y.smcp" unicode="&#xf779;" horiz-adv-x="592" 
d="M20 564h78l109 -164l89 -137l89 137l109 164h78l-242 -359v-205h-68v205z" />
    <glyph glyph-name="z.smcp" unicode="&#xe21a;" horiz-adv-x="572" 
d="M53 0v59l282 327l102 115l-161 -1h-204v64h450v-59l-282 -327l-102 -115l161 1h223v-64h-469z" />
    <glyph glyph-name="z.smcp" unicode="&#xf77a;" horiz-adv-x="572" 
d="M53 0v59l282 327l102 115l-161 -1h-204v64h450v-59l-282 -327l-102 -115l161 1h223v-64h-469z" />
    <glyph glyph-name="agrave.smcp" unicode="&#xe222;" 
d="M264 574h72l240 -574h-72l-68 165h-273l-67 -165h-72zM221 306l-33 -80h223l-32 80l-79 199zM154 800h82l94 -208h-65z" />
    <glyph glyph-name="agrave.smcp" unicode="&#xf7e0;" 
d="M264 574h72l240 -574h-72l-68 165h-273l-67 -165h-72zM221 306l-33 -80h223l-32 80l-79 199zM154 800h82l94 -208h-65z" />
    <glyph glyph-name="aacute.smcp" unicode="&#xe221;" 
d="M264 574h72l240 -574h-72l-68 165h-273l-67 -165h-72zM221 306l-33 -80h223l-32 80l-79 199zM364 800h82l-111 -208h-65z" />
    <glyph glyph-name="aacute.smcp" unicode="&#xf7e1;" 
d="M264 574h72l240 -574h-72l-68 165h-273l-67 -165h-72zM221 306l-33 -80h223l-32 80l-79 199zM364 800h82l-111 -208h-65z" />
    <glyph glyph-name="acircumflex.smcp" unicode="&#xe223;" 
d="M264 574h72l240 -574h-72l-68 165h-273l-67 -165h-72zM221 306l-33 -80h223l-32 80l-79 199zM484 592h-67l-117 150l-117 -150h-67l150 208h68z" />
    <glyph glyph-name="acircumflex.smcp" unicode="&#xf7e2;" 
d="M264 574h72l240 -574h-72l-68 165h-273l-67 -165h-72zM221 306l-33 -80h223l-32 80l-79 199zM484 592h-67l-117 150l-117 -150h-67l150 208h68z" />
    <glyph glyph-name="adieresis.smcp" unicode="&#xe224;" 
d="M264 574h72l240 -574h-72l-68 165h-273l-67 -165h-72zM221 306l-33 -80h223l-32 80l-79 199zM250 739v-86h-86v86h86zM436 739v-86h-86v86h86z" />
    <glyph glyph-name="adieresis.smcp" unicode="&#xf7e4;" 
d="M264 574h72l240 -574h-72l-68 165h-273l-67 -165h-72zM221 306l-33 -80h223l-32 80l-79 199zM250 739v-86h-86v86h86zM436 739v-86h-86v86h86z" />
    <glyph glyph-name="atilde.smcp" unicode="&#xe225;" 
d="M264 574h72l240 -574h-72l-68 165h-273l-67 -165h-72zM221 306l-33 -80h223l-32 80l-79 199zM371 630c-79 4 -94 72 -146 75c-60 4 -68 -52 -68 -52l-55 8c13 59 46 107 127 103c79 -4 94 -72 146 -75c60 -4 68 52 68 52l55 -8c-13 -59 -46 -107 -127 -103z" />
    <glyph glyph-name="atilde.smcp" unicode="&#xf7e3;" 
d="M264 574h72l240 -574h-72l-68 165h-273l-67 -165h-72zM221 306l-33 -80h223l-32 80l-79 199zM371 630c-79 4 -94 72 -146 75c-60 4 -68 -52 -68 -52l-55 8c13 59 46 107 127 103c79 -4 94 -72 146 -75c60 -4 68 52 68 52l55 -8c-13 -59 -46 -107 -127 -103z" />
    <glyph glyph-name="aring.smcp" unicode="&#xe226;" 
d="M264 574h72l240 -574h-72l-68 165h-273l-67 -165h-72zM221 306l-33 -80h223l-32 80l-79 199zM186 696c0 66 42 114 114 114s114 -48 114 -114s-42 -114 -114 -114s-114 48 -114 114zM244 696c0 -34 21 -58 56 -58s56 24 56 58s-21 58 -56 58s-56 -24 -56 -58z" />
    <glyph glyph-name="aring.smcp" unicode="&#xf7e5;" 
d="M264 574h72l240 -574h-72l-68 165h-273l-67 -165h-72zM221 306l-33 -80h223l-32 80l-79 199zM186 696c0 66 42 114 114 114s114 -48 114 -114s-42 -114 -114 -114s-114 48 -114 114zM244 696c0 -34 21 -58 56 -58s56 24 56 58s-21 58 -56 58s-56 -24 -56 -58z" />
    <glyph glyph-name="acaron.smcp" unicode="&#xe227;" 
d="M264 574h72l240 -574h-72l-68 165h-273l-67 -165h-72zM221 306l-33 -80h223l-32 80l-79 199zM417 800h67l-150 -208h-68l-150 208h67l117 -150z" />
    <glyph glyph-name="amacron.smcp" unicode="&#xe228;" 
d="M264 574h72l240 -574h-72l-68 165h-273l-67 -165h-72zM221 306l-33 -80h223l-32 80l-79 199zM164 664v64h272v-64h-272z" />
    <glyph glyph-name="amacron.smcp" unicode="&#xf641;" 
d="M264 574h72l240 -574h-72l-68 165h-273l-67 -165h-72zM221 306l-33 -80h223l-32 80l-79 199zM164 664v64h272v-64h-272z" />
    <glyph glyph-name="abreve.smcp" unicode="&#xe229;" 
d="M264 574h72l240 -574h-72l-68 165h-273l-67 -165h-72zM221 306l-33 -80h223l-32 80l-79 199zM422 800h56c0 -126 -42 -198 -178 -198s-178 72 -178 198h56c0 -105 36 -142 122 -142s122 37 122 142z" />
    <glyph glyph-name="abreve.smcp" unicode="&#xf640;" 
d="M264 574h72l240 -574h-72l-68 165h-273l-67 -165h-72zM221 306l-33 -80h223l-32 80l-79 199zM422 800h56c0 -126 -42 -198 -178 -198s-178 72 -178 198h56c0 -105 36 -142 122 -142s122 37 122 142z" />
    <glyph glyph-name="ainvertedbreve.smcp" unicode="&#xe22a;" 
d="M264 574h72l240 -574h-72l-68 165h-273l-67 -165h-72zM221 306l-33 -80h223l-32 80l-79 199zM478 592h-56c0 105 -36 142 -122 142s-122 -37 -122 -142h-56c0 126 42 198 178 198s178 -72 178 -198z" />
    <glyph glyph-name="adoublegrave.smcp" unicode="&#xe22b;" 
d="M264 574h72l240 -574h-72l-68 165h-273l-67 -165h-72zM221 306l-33 -80h223l-32 80l-79 199zM229 800h82l94 -208h-65zM89 800h82l94 -208h-65z" />
    <glyph glyph-name="adotabove.smcp" unicode="&#xe22c;" 
d="M264 574h72l240 -574h-72l-68 165h-273l-67 -165h-72zM221 306l-33 -80h223l-32 80l-79 199zM343 739v-86h-86v86h86z" />
    <glyph glyph-name="aringacute.smcp" unicode="&#xe22d;" 
d="M264 574h72l240 -574h-72l-68 165h-273l-67 -165h-72zM221 306l-33 -80h223l-32 80l-79 199zM283 904h77l-60 -94c72 0 114 -48 114 -114s-42 -114 -114 -114s-114 48 -114 114c0 25 6 48 18 66zM244 696c0 -34 21 -58 56 -58s56 24 56 58s-21 58 -56 58s-56 -24 -56 -58
z" />
    <glyph glyph-name="aringacute.smcp" unicode="&#xf625;" 
d="M264 574h72l240 -574h-72l-68 165h-273l-67 -165h-72zM221 306l-33 -80h223l-32 80l-79 199zM283 904h77l-60 -94c72 0 114 -48 114 -114s-42 -114 -114 -114s-114 48 -114 114c0 25 6 48 18 66zM244 696c0 -34 21 -58 56 -58s56 24 56 58s-21 58 -56 58s-56 -24 -56 -58
z" />
    <glyph glyph-name="adieresismacron.smcp" unicode="&#xe22e;" 
d="M264 574h72l240 -574h-72l-68 165h-273l-67 -165h-72zM221 306l-33 -80h223l-32 80l-79 199zM250 709v-86h-86v86h86zM436 709v-86h-86v86h86zM164 764v64h272v-64h-272z" />
    <glyph glyph-name="aogonek.smcp" unicode="&#xe22f;" 
d="M264 574h72l240 -574c-70 -10 -134 -57 -134 -109c0 -29 16 -46 56 -46c35 0 72 21 72 21l17 -51c-21 -13 -55 -25 -100 -25c-53 0 -110 25 -110 93c0 54 45 105 118 139l-59 143h-273l-67 -165h-72zM221 306l-33 -80h223l-32 80l-79 199z" />
    <glyph glyph-name="aogonek.smcp" unicode="&#xf642;" 
d="M264 574h72l240 -574c-70 -10 -134 -57 -134 -109c0 -29 16 -46 56 -46c35 0 72 21 72 21l17 -51c-21 -13 -55 -25 -100 -25c-53 0 -110 25 -110 93c0 54 45 105 118 139l-59 143h-273l-67 -165h-72zM221 306l-33 -80h223l-32 80l-79 199z" />
    <glyph glyph-name="anocross.smcp" unicode="&#xe220;" 
d="M264 574h72l240 -574h-72l-125 306l-79 199l-79 -199l-125 -306h-72z" />
    <glyph glyph-name="ae.smcp" unicode="&#xe231;" horiz-adv-x="821" 
d="M425 0l-31 165h-214l-85 -165h-75l301 564h430v-64h-353l34 -176h262v-64h-249l37 -196h251v-64h-308zM337 466l-125 -240h170z" />
    <glyph glyph-name="ae.smcp" unicode="&#xf7e6;" horiz-adv-x="821" 
d="M425 0l-31 165h-214l-85 -165h-75l301 564h430v-64h-353l34 -176h262v-64h-249l37 -196h251v-64h-308zM337 466l-125 -240h170z" />
    <glyph glyph-name="aeacute.smcp" unicode="&#xe232;" horiz-adv-x="821" 
d="M425 0l-31 165h-214l-85 -165h-75l301 564h430v-64h-353l34 -176h262v-64h-249l37 -196h251v-64h-308zM337 466l-125 -240h170zM427 800h82l-111 -208h-65z" />
    <glyph glyph-name="aeacute.smcp" unicode="&#xf624;" horiz-adv-x="821" 
d="M425 0l-31 165h-214l-85 -165h-75l301 564h430v-64h-353l34 -176h262v-64h-249l37 -196h251v-64h-308zM337 466l-125 -240h170zM427 800h82l-111 -208h-65z" />
    <glyph glyph-name="aemacron.smcp" unicode="&#xe233;" horiz-adv-x="821" 
d="M425 0l-31 165h-214l-85 -165h-75l301 564h430v-64h-353l34 -176h262v-64h-249l37 -196h251v-64h-308zM337 466l-125 -240h170zM227 664v64h272v-64h-272z" />
    <glyph glyph-name="cacute.smcp" unicode="&#xe234;" horiz-adv-x="640" 
d="M138 282c0 -153 75 -227 194 -229c101 -2 157 38 173 108l73 -7c-20 -97 -91 -164 -245 -164c-169 0 -268 107 -268 292s99 292 268 292c154 0 225 -67 245 -164l-73 -7c-16 70 -72 110 -173 108c-119 -2 -194 -76 -194 -229zM397 800h82l-111 -208h-65z" />
    <glyph glyph-name="cacute.smcp" unicode="&#xf643;" horiz-adv-x="640" 
d="M138 282c0 -153 75 -227 194 -229c101 -2 157 38 173 108l73 -7c-20 -97 -91 -164 -245 -164c-169 0 -268 107 -268 292s99 292 268 292c154 0 225 -67 245 -164l-73 -7c-16 70 -72 110 -173 108c-119 -2 -194 -76 -194 -229zM397 800h82l-111 -208h-65z" />
    <glyph glyph-name="ccircumflex.smcp" unicode="&#xe235;" horiz-adv-x="640" 
d="M138 282c0 -153 75 -227 194 -229c101 -2 157 38 173 108l73 -7c-20 -97 -91 -164 -245 -164c-169 0 -268 107 -268 292s99 292 268 292c154 0 225 -67 245 -164l-73 -7c-16 70 -72 110 -173 108c-119 -2 -194 -76 -194 -229zM517 592h-67l-117 150l-117 -150h-67
l150 208h68z" />
    <glyph glyph-name="ccircumflex.smcp" unicode="&#xf628;" horiz-adv-x="640" 
d="M138 282c0 -153 75 -227 194 -229c101 -2 157 38 173 108l73 -7c-20 -97 -91 -164 -245 -164c-169 0 -268 107 -268 292s99 292 268 292c154 0 225 -67 245 -164l-73 -7c-16 70 -72 110 -173 108c-119 -2 -194 -76 -194 -229zM517 592h-67l-117 150l-117 -150h-67
l150 208h68z" />
    <glyph glyph-name="ccaron.smcp" unicode="&#xe236;" horiz-adv-x="640" 
d="M138 282c0 -153 75 -227 194 -229c101 -2 157 38 173 108l73 -7c-20 -97 -91 -164 -245 -164c-169 0 -268 107 -268 292s99 292 268 292c154 0 225 -67 245 -164l-73 -7c-16 70 -72 110 -173 108c-119 -2 -194 -76 -194 -229zM450 800h67l-150 -208h-68l-150 208h67
l117 -150z" />
    <glyph glyph-name="ccaron.smcp" unicode="&#xf644;" horiz-adv-x="640" 
d="M138 282c0 -153 75 -227 194 -229c101 -2 157 38 173 108l73 -7c-20 -97 -91 -164 -245 -164c-169 0 -268 107 -268 292s99 292 268 292c154 0 225 -67 245 -164l-73 -7c-16 70 -72 110 -173 108c-119 -2 -194 -76 -194 -229zM450 800h67l-150 -208h-68l-150 208h67
l117 -150z" />
    <glyph glyph-name="cdotaccent.smcp" unicode="&#xe237;" horiz-adv-x="640" 
d="M138 282c0 -153 75 -227 194 -229c101 -2 157 38 173 108l73 -7c-20 -97 -91 -164 -245 -164c-169 0 -268 107 -268 292s99 292 268 292c154 0 225 -67 245 -164l-73 -7c-16 70 -72 110 -173 108c-119 -2 -194 -76 -194 -229zM376 739v-86h-86v86h86z" />
    <glyph glyph-name="cdotaccent.smcp" unicode="&#xf629;" horiz-adv-x="640" 
d="M138 282c0 -153 75 -227 194 -229c101 -2 157 38 173 108l73 -7c-20 -97 -91 -164 -245 -164c-169 0 -268 107 -268 292s99 292 268 292c154 0 225 -67 245 -164l-73 -7c-16 70 -72 110 -173 108c-119 -2 -194 -76 -194 -229zM376 739v-86h-86v86h86z" />
    <glyph glyph-name="ccedilla.smcp" unicode="&#xe238;" horiz-adv-x="640" 
d="M138 282c0 -153 75 -227 194 -229c101 -2 157 38 173 108l73 -7c-19 -93 -85 -158 -226 -163l-7 -25c46 -11 87 -37 87 -93c0 -59 -48 -83 -109 -83c-31 0 -65 9 -79 17l15 44s27 -12 56 -13c41 -1 59 13 59 34c0 35 -42 48 -90 53l23 66c-153 10 -242 115 -242 291
c0 185 99 292 268 292c154 0 225 -67 245 -164l-73 -7c-16 70 -72 110 -173 108c-119 -2 -194 -76 -194 -229z" />
    <glyph glyph-name="ccedilla.smcp" unicode="&#xf7e7;" horiz-adv-x="640" 
d="M138 282c0 -153 75 -227 194 -229c101 -2 157 38 173 108l73 -7c-19 -93 -85 -158 -226 -163l-7 -25c46 -11 87 -37 87 -93c0 -59 -48 -83 -109 -83c-31 0 -65 9 -79 17l15 44s27 -12 56 -13c41 -1 59 13 59 34c0 35 -42 48 -90 53l23 66c-153 10 -242 115 -242 291
c0 185 99 292 268 292c154 0 225 -67 245 -164l-73 -7c-16 70 -72 110 -173 108c-119 -2 -194 -76 -194 -229z" />
    <glyph glyph-name="dcaron.smcp" unicode="&#xe239;" horiz-adv-x="640" 
d="M575 282c0 -195 -103 -282 -279 -282h-206v564h206c176 0 279 -87 279 -282zM158 500v-436h153c122 0 191 77 191 218s-69 218 -191 218h-153zM417 800h67l-150 -208h-68l-150 208h67l117 -150z" />
    <glyph glyph-name="dcaron.smcp" unicode="&#xf645;" horiz-adv-x="640" 
d="M575 282c0 -195 -103 -282 -279 -282h-206v564h206c176 0 279 -87 279 -282zM158 500v-436h153c122 0 191 77 191 218s-69 218 -191 218h-153zM417 800h67l-150 -208h-68l-150 208h67l117 -150z" />
    <glyph glyph-name="dcedilla.smcp" unicode="&#xe23a;" horiz-adv-x="640" 
d="M575 282c0 -195 -103 -282 -279 -282h-206v564h206c176 0 279 -87 279 -282zM158 500v-436h153c122 0 191 77 191 218s-69 218 -191 218h-153zM251 -75l17 49c92 -11 131 -45 131 -101c0 -59 -48 -83 -109 -83c-31 0 -65 9 -79 17l15 44s27 -12 56 -13c41 -1 59 13 59 34
c0 35 -42 48 -90 53z" />
    <glyph glyph-name="ddotbelow.smcp" unicode="&#xe23b;" horiz-adv-x="640" 
d="M575 282c0 -195 -103 -282 -279 -282h-206v564h206c176 0 279 -87 279 -282zM158 500v-436h153c122 0 191 77 191 218s-69 218 -191 218h-153zM343 -67v-86h-86v86h86z" />
    <glyph glyph-name="dcroat.smcp" unicode="&#xe23c;" horiz-adv-x="670" 
d="M605 282c0 -195 -103 -282 -279 -282h-206v260h-91v64h91v240h206c176 0 279 -87 279 -282zM367 260h-179v-196h153c122 0 191 77 191 218s-69 218 -191 218h-153v-176h179v-64z" />
    <glyph glyph-name="dcroat.smcp" unicode="&#xf646;" horiz-adv-x="670" 
d="M605 282c0 -195 -103 -282 -279 -282h-206v260h-91v64h91v240h206c176 0 279 -87 279 -282zM367 260h-179v-196h153c122 0 191 77 191 218s-69 218 -191 218h-153v-176h179v-64z" />
    <glyph glyph-name="egrave.smcp" unicode="&#xe23e;" horiz-adv-x="590" 
d="M90 564h410v-64h-342v-176h304v-64h-304v-196h362v-64h-430v564zM174 800h82l94 -208h-65z" />
    <glyph glyph-name="egrave.smcp" unicode="&#xf7e8;" horiz-adv-x="590" 
d="M90 564h410v-64h-342v-176h304v-64h-304v-196h362v-64h-430v564zM174 800h82l94 -208h-65z" />
    <glyph glyph-name="eacute.smcp" unicode="&#xe23d;" horiz-adv-x="590" 
d="M90 564h410v-64h-342v-176h304v-64h-304v-196h362v-64h-430v564zM365 800h82l-111 -208h-65z" />
    <glyph glyph-name="eacute.smcp" unicode="&#xf7e9;" horiz-adv-x="590" 
d="M90 564h410v-64h-342v-176h304v-64h-304v-196h362v-64h-430v564zM365 800h82l-111 -208h-65z" />
    <glyph glyph-name="ecircumflex.smcp" unicode="&#xe23f;" horiz-adv-x="590" 
d="M90 564h410v-64h-342v-176h304v-64h-304v-196h362v-64h-430v564zM484 592h-67l-117 150l-117 -150h-67l150 208h68z" />
    <glyph glyph-name="ecircumflex.smcp" unicode="&#xf7ea;" horiz-adv-x="590" 
d="M90 564h410v-64h-342v-176h304v-64h-304v-196h362v-64h-430v564zM484 592h-67l-117 150l-117 -150h-67l150 208h68z" />
    <glyph glyph-name="edieresis.smcp" unicode="&#xe230;" horiz-adv-x="590" 
d="M90 564h410v-64h-342v-176h304v-64h-304v-196h362v-64h-430v564zM250 739v-86h-86v86h86zM436 739v-86h-86v86h86z" />
    <glyph glyph-name="edieresis.smcp" unicode="&#xf7eb;" horiz-adv-x="590" 
d="M90 564h410v-64h-342v-176h304v-64h-304v-196h362v-64h-430v564zM250 739v-86h-86v86h86zM436 739v-86h-86v86h86z" />
    <glyph glyph-name="ecaron.smcp" unicode="&#xe241;" horiz-adv-x="590" 
d="M90 564h410v-64h-342v-176h304v-64h-304v-196h362v-64h-430v564zM417 800h67l-150 -208h-68l-150 208h67l117 -150z" />
    <glyph glyph-name="ecaron.smcp" unicode="&#xf647;" horiz-adv-x="590" 
d="M90 564h410v-64h-342v-176h304v-64h-304v-196h362v-64h-430v564zM417 800h67l-150 -208h-68l-150 208h67l117 -150z" />
    <glyph glyph-name="emacron.smcp" unicode="&#xe242;" horiz-adv-x="590" 
d="M90 564h410v-64h-342v-176h304v-64h-304v-196h362v-64h-430v564zM164 664v64h272v-64h-272z" />
    <glyph glyph-name="emacron.smcp" unicode="&#xf649;" horiz-adv-x="590" 
d="M90 564h410v-64h-342v-176h304v-64h-304v-196h362v-64h-430v564zM164 664v64h272v-64h-272z" />
    <glyph glyph-name="ebreve.smcp" unicode="&#xe243;" horiz-adv-x="590" 
d="M90 564h410v-64h-342v-176h304v-64h-304v-196h362v-64h-430v564zM422 800h56c0 -126 -42 -198 -178 -198s-178 72 -178 198h56c0 -105 36 -142 122 -142s122 37 122 142z" />
    <glyph glyph-name="ebreve.smcp" unicode="&#xf62a;" horiz-adv-x="590" 
d="M90 564h410v-64h-342v-176h304v-64h-304v-196h362v-64h-430v564zM422 800h56c0 -126 -42 -198 -178 -198s-178 72 -178 198h56c0 -105 36 -142 122 -142s122 37 122 142z" />
    <glyph glyph-name="einvertedbreve.smcp" unicode="&#xe244;" horiz-adv-x="590" 
d="M90 564h410v-64h-342v-176h304v-64h-304v-196h362v-64h-430v564zM478 592h-56c0 105 -36 142 -122 142s-122 -37 -122 -142h-56c0 126 42 198 178 198s178 -72 178 -198z" />
    <glyph glyph-name="edoublegrave.smcp" unicode="&#xe245;" horiz-adv-x="590" 
d="M90 564h410v-64h-342v-176h304v-64h-304v-196h362v-64h-430v564zM239 800h82l94 -208h-65zM99 800h82l94 -208h-65z" />
    <glyph glyph-name="edotaccent.smcp" unicode="&#xe246;" horiz-adv-x="590" 
d="M90 564h410v-64h-342v-176h304v-64h-304v-196h362v-64h-430v564zM343 739v-86h-86v86h86z" />
    <glyph glyph-name="edotaccent.smcp" unicode="&#xf648;" horiz-adv-x="590" 
d="M90 564h410v-64h-342v-176h304v-64h-304v-196h362v-64h-430v564zM343 739v-86h-86v86h86z" />
    <glyph glyph-name="uni006500600323.smcp" unicode="&#xe247;" horiz-adv-x="590" 
d="M90 564h410v-64h-342v-176h304v-64h-304v-196h362v-64h-430v564zM348 -67v-86h-86v86h86zM174 800h82l94 -208h-65z" />
    <glyph glyph-name="uni006500B40323.smcp" unicode="&#xe248;" horiz-adv-x="590" 
d="M348 -67v-86h-86v86h86zM90 564h410v-64h-342v-176h304v-64h-304v-196h362v-64h-430v564zM365 800h82l-111 -208h-65z" />
    <glyph glyph-name="eogonek.smcp" unicode="&#xe249;" horiz-adv-x="590" 
d="M90 564h410v-64h-342v-176h304v-64h-304v-196h362v-64c-70 -10 -134 -57 -134 -109c0 -29 16 -46 56 -46c35 0 72 21 72 21l17 -51c-21 -13 -55 -25 -100 -25c-53 0 -110 25 -110 93c0 43 29 85 78 117h-309v564z" />
    <glyph glyph-name="eogonek.smcp" unicode="&#xf64a;" horiz-adv-x="590" 
d="M90 564h410v-64h-342v-176h304v-64h-304v-196h362v-64c-70 -10 -134 -57 -134 -109c0 -29 16 -46 56 -46c35 0 72 21 72 21l17 -51c-21 -13 -55 -25 -100 -25c-53 0 -110 25 -110 93c0 43 29 85 78 117h-309v564z" />
    <glyph glyph-name="gacute.smcp" unicode="&#xe24a;" horiz-adv-x="663" 
d="M575 56c-43 -29 -118 -66 -242 -66c-169 0 -268 107 -268 292s99 292 268 292c154 0 225 -67 245 -164l-73 -7c-16 70 -72 110 -173 108c-119 -2 -194 -76 -194 -229s75 -225 194 -229c80 -3 144 20 175 38v139h-125v64h193v-238zM395 800h82l-111 -208h-65z" />
    <glyph glyph-name="gcircumflex.smcp" unicode="&#xe24b;" horiz-adv-x="663" 
d="M575 56c-43 -29 -118 -66 -242 -66c-169 0 -268 107 -268 292s99 292 268 292c154 0 225 -67 245 -164l-73 -7c-16 70 -72 110 -173 108c-119 -2 -194 -76 -194 -229s75 -225 194 -229c80 -3 144 20 175 38v139h-125v64h193v-238zM515 592h-67l-117 150l-117 -150h-67
l150 208h68z" />
    <glyph glyph-name="gcircumflex.smcp" unicode="&#xf62c;" horiz-adv-x="663" 
d="M575 56c-43 -29 -118 -66 -242 -66c-169 0 -268 107 -268 292s99 292 268 292c154 0 225 -67 245 -164l-73 -7c-16 70 -72 110 -173 108c-119 -2 -194 -76 -194 -229s75 -225 194 -229c80 -3 144 20 175 38v139h-125v64h193v-238zM515 592h-67l-117 150l-117 -150h-67
l150 208h68z" />
    <glyph glyph-name="gtilde.smcp" unicode="&#xe24c;" horiz-adv-x="663" 
d="M575 56c-43 -29 -118 -66 -242 -66c-169 0 -268 107 -268 292s99 292 268 292c154 0 225 -67 245 -164l-73 -7c-16 70 -72 110 -173 108c-119 -2 -194 -76 -194 -229s75 -225 194 -229c80 -3 144 20 175 38v139h-125v64h193v-238zM402 630c-79 4 -94 72 -146 75
c-60 4 -68 -52 -68 -52l-55 8c13 59 46 107 127 103c79 -4 94 -72 146 -75c60 -4 68 52 68 52l55 -8c-13 -59 -46 -107 -127 -103z" />
    <glyph glyph-name="gcaron.smcp" unicode="&#xe24d;" horiz-adv-x="663" 
d="M575 56c-43 -29 -118 -66 -242 -66c-169 0 -268 107 -268 292s99 292 268 292c154 0 225 -67 245 -164l-73 -7c-16 70 -72 110 -173 108c-119 -2 -194 -76 -194 -229s75 -225 194 -229c80 -3 144 20 175 38v139h-125v64h193v-238zM448 800h67l-150 -208h-68l-150 208h67
l117 -150z" />
    <glyph glyph-name="gcaron.smcp" unicode="&#xf626;" horiz-adv-x="663" 
d="M575 56c-43 -29 -118 -66 -242 -66c-169 0 -268 107 -268 292s99 292 268 292c154 0 225 -67 245 -164l-73 -7c-16 70 -72 110 -173 108c-119 -2 -194 -76 -194 -229s75 -225 194 -229c80 -3 144 20 175 38v139h-125v64h193v-238zM448 800h67l-150 -208h-68l-150 208h67
l117 -150z" />
    <glyph glyph-name="gbreve.smcp" unicode="&#xe24e;" horiz-adv-x="663" 
d="M575 56c-43 -29 -118 -66 -242 -66c-169 0 -268 107 -268 292s99 292 268 292c154 0 225 -67 245 -164l-73 -7c-16 70 -72 110 -173 108c-119 -2 -194 -76 -194 -229s75 -225 194 -229c80 -3 144 20 175 38v139h-125v64h193v-238zM453 800h56c0 -126 -42 -198 -178 -198
s-178 72 -178 198h56c0 -105 36 -142 122 -142s122 37 122 142z" />
    <glyph glyph-name="gbreve.smcp" unicode="&#xf64b;" horiz-adv-x="663" 
d="M575 56c-43 -29 -118 -66 -242 -66c-169 0 -268 107 -268 292s99 292 268 292c154 0 225 -67 245 -164l-73 -7c-16 70 -72 110 -173 108c-119 -2 -194 -76 -194 -229s75 -225 194 -229c80 -3 144 20 175 38v139h-125v64h193v-238zM453 800h56c0 -126 -42 -198 -178 -198
s-178 72 -178 198h56c0 -105 36 -142 122 -142s122 37 122 142z" />
    <glyph glyph-name="gdotaccent.smcp" unicode="&#xe24f;" horiz-adv-x="663" 
d="M575 56c-43 -29 -118 -66 -242 -66c-169 0 -268 107 -268 292s99 292 268 292c154 0 225 -67 245 -164l-73 -7c-16 70 -72 110 -173 108c-119 -2 -194 -76 -194 -229s75 -225 194 -229c80 -3 144 20 175 38v139h-125v64h193v-238zM374 739v-86h-86v86h86z" />
    <glyph glyph-name="gdotaccent.smcp" unicode="&#xf62d;" horiz-adv-x="663" 
d="M575 56c-43 -29 -118 -66 -242 -66c-169 0 -268 107 -268 292s99 292 268 292c154 0 225 -67 245 -164l-73 -7c-16 70 -72 110 -173 108c-119 -2 -194 -76 -194 -229s75 -225 194 -229c80 -3 144 20 175 38v139h-125v64h193v-238zM374 739v-86h-86v86h86z" />
    <glyph glyph-name="gcommaaccent.smcp" unicode="&#xe240;" horiz-adv-x="663" 
d="M575 56c-43 -29 -118 -66 -242 -66c-169 0 -268 107 -268 292s99 292 268 292c154 0 225 -67 245 -164l-73 -7c-16 70 -72 110 -173 108c-119 -2 -194 -76 -194 -229s75 -225 194 -229c80 -3 144 20 175 38v139h-125v64h193v-238zM330 -200h-60l19 138h91z" />
    <glyph glyph-name="gcommaaccent.smcp" unicode="&#xf64c;" horiz-adv-x="663" 
d="M575 56c-43 -29 -118 -66 -242 -66c-169 0 -268 107 -268 292s99 292 268 292c154 0 225 -67 245 -164l-73 -7c-16 70 -72 110 -173 108c-119 -2 -194 -76 -194 -229s75 -225 194 -229c80 -3 144 20 175 38v139h-125v64h193v-238zM330 -200h-60l19 138h91z" />
    <glyph glyph-name="gcommaturnedabove.smcp" unicode="&#xe251;" horiz-adv-x="663" 
d="M575 56c-43 -29 -118 -66 -242 -66c-169 0 -268 107 -268 292s99 292 268 292c154 0 225 -67 245 -164l-73 -7c-16 70 -72 110 -173 108c-119 -2 -194 -76 -194 -229s75 -225 194 -229c80 -3 144 20 175 38v139h-125v64h193v-238zM370 592h-79l75 208h61z" />
    <glyph glyph-name="gstroke.smcp" unicode="&#xe252;" horiz-adv-x="673" 
d="M575 56c-43 -29 -118 -66 -242 -66c-169 0 -268 107 -268 292s99 292 268 292c154 0 225 -67 245 -164l-73 -7c-16 70 -72 110 -173 108c-119 -2 -194 -76 -194 -229s75 -225 194 -229c80 -3 144 20 175 38v31h-164v64h164v44h-125v64h193v-108h88v-64h-88v-66z" />
    <glyph glyph-name="hcircumflex.smcp" unicode="&#xe253;" horiz-adv-x="663" 
d="M505 564h68v-564h-68v260h-347v-260h-68v564h68v-240h347v240zM515 592h-67l-117 150l-117 -150h-67l150 208h68z" />
    <glyph glyph-name="hcircumflex.smcp" unicode="&#xf62f;" horiz-adv-x="663" 
d="M505 564h68v-564h-68v260h-347v-260h-68v564h68v-240h347v240zM515 592h-67l-117 150l-117 -150h-67l150 208h68z" />
    <glyph glyph-name="hcaron.smcp" unicode="&#xe254;" horiz-adv-x="663" 
d="M505 564h68v-564h-68v260h-347v-260h-68v564h68v-240h347v240zM448 800h67l-150 -208h-68l-150 208h67l117 -150z" />
    <glyph glyph-name="hdotbelow.smcp" unicode="&#xe255;" horiz-adv-x="663" 
d="M505 564h68v-564h-68v260h-347v-260h-68v564h68v-240h347v240zM374 -67v-86h-86v86h86z" />
    <glyph glyph-name="hmacronbelow.smcp" unicode="&#xe256;" horiz-adv-x="663" 
d="M505 564h68v-564h-68v260h-347v-260h-68v564h68v-240h347v240zM195 -142v64h272v-64h-272z" />
    <glyph glyph-name="hbar.smcp" unicode="&#xe257;" horiz-adv-x="663" 
d="M505 564h68v-564h-68v260h-347v-260h-68v564h68v-103h347v103zM158 324h347v75h-347v-75z" />
    <glyph glyph-name="hbar.smcp" unicode="&#xf62e;" horiz-adv-x="663" 
d="M505 564h68v-564h-68v260h-347v-260h-68v564h68v-103h347v103zM158 324h347v75h-347v-75z" />
    <glyph glyph-name="igrave.smcp" unicode="&#xe259;" horiz-adv-x="290" 
d="M179 564v-564h-68v564h68zM-1 800h82l94 -208h-65z" />
    <glyph glyph-name="igrave.smcp" unicode="&#xf7ec;" horiz-adv-x="290" 
d="M179 564v-564h-68v564h68zM-1 800h82l94 -208h-65z" />
    <glyph glyph-name="iacute.smcp" unicode="&#xe258;" horiz-adv-x="290" 
d="M179 564v-564h-68v564h68zM209 800h82l-111 -208h-65z" />
    <glyph glyph-name="iacute.smcp" unicode="&#xf7ed;" horiz-adv-x="290" 
d="M179 564v-564h-68v564h68zM209 800h82l-111 -208h-65z" />
    <glyph glyph-name="icircumflex.smcp" unicode="&#xe25a;" horiz-adv-x="290" 
d="M179 564v-564h-68v564h68zM329 592h-67l-117 150l-117 -150h-67l150 208h68z" />
    <glyph glyph-name="icircumflex.smcp" unicode="&#xf7ee;" horiz-adv-x="290" 
d="M179 564v-564h-68v564h68zM329 592h-67l-117 150l-117 -150h-67l150 208h68z" />
    <glyph glyph-name="idieresis.smcp" unicode="&#xe25b;" horiz-adv-x="290" 
d="M179 564v-564h-68v564h68zM95 739v-86h-86v86h86zM281 739v-86h-86v86h86z" />
    <glyph glyph-name="idieresis.smcp" unicode="&#xf7ef;" horiz-adv-x="290" 
d="M179 564v-564h-68v564h68zM95 739v-86h-86v86h86zM281 739v-86h-86v86h86z" />
    <glyph glyph-name="itilde.smcp" unicode="&#xe25c;" horiz-adv-x="290" 
d="M179 564v-564h-68v564h68zM216 630c-79 4 -94 72 -146 75c-60 4 -68 -52 -68 -52l-55 8c13 59 46 107 127 103c79 -4 94 -72 146 -75c60 -4 68 52 68 52l55 -8c-13 -59 -46 -107 -127 -103z" />
    <glyph glyph-name="itilde.smcp" unicode="&#xf632;" horiz-adv-x="290" 
d="M179 564v-564h-68v564h68zM216 630c-79 4 -94 72 -146 75c-60 4 -68 -52 -68 -52l-55 8c13 59 46 107 127 103c79 -4 94 -72 146 -75c60 -4 68 52 68 52l55 -8c-13 -59 -46 -107 -127 -103z" />
    <glyph glyph-name="icaron.smcp" unicode="&#xe25d;" horiz-adv-x="290" 
d="M179 564v-564h-68v564h68zM262 800h67l-150 -208h-68l-150 208h67l117 -150z" />
    <glyph glyph-name="imacron.smcp" unicode="&#xe25e;" horiz-adv-x="290" 
d="M179 564v-564h-68v564h68zM9 664v64h272v-64h-272z" />
    <glyph glyph-name="imacron.smcp" unicode="&#xf64d;" horiz-adv-x="290" 
d="M179 564v-564h-68v564h68zM9 664v64h272v-64h-272z" />
    <glyph glyph-name="ibreve.smcp" unicode="&#xe25f;" horiz-adv-x="290" 
d="M179 564v-564h-68v564h68zM267 800h56c0 -126 -42 -198 -178 -198s-178 72 -178 198h56c0 -105 36 -142 122 -142s122 37 122 142z" />
    <glyph glyph-name="ibreve.smcp" unicode="&#xf630;" horiz-adv-x="290" 
d="M179 564v-564h-68v564h68zM267 800h56c0 -126 -42 -198 -178 -198s-178 72 -178 198h56c0 -105 36 -142 122 -142s122 37 122 142z" />
    <glyph glyph-name="iinvertedbreve.smcp" unicode="&#xe250;" horiz-adv-x="290" 
d="M179 564v-564h-68v564h68zM323 592h-56c0 105 -36 142 -122 142s-122 -37 -122 -142h-56c0 126 42 198 178 198s178 -72 178 -198z" />
    <glyph glyph-name="idoublegrave.smcp" unicode="&#xe261;" horiz-adv-x="290" 
d="M179 564v-564h-68v564h68zM74 800h82l94 -208h-65zM-66 800h82l94 -208h-65z" />
    <glyph glyph-name="idotaccent.smcp" unicode="&#xe262;" horiz-adv-x="290" 
d="M179 564v-564h-68v564h68zM188 739v-86h-86v86h86z" />
    <glyph glyph-name="idotaccent.smcp" unicode="&#xf666;" horiz-adv-x="290" 
d="M179 564v-564h-68v564h68zM188 739v-86h-86v86h86z" />
    <glyph glyph-name="idotbelow.smcp" unicode="&#xe263;" horiz-adv-x="290" 
d="M179 564v-564h-68v564h68zM188 -67v-86h-86v86h86z" />
    <glyph glyph-name="iogonek.smcp" unicode="&#xe264;" horiz-adv-x="290" 
d="M179 564v-564c-43 -31 -83 -65 -83 -109c0 -29 16 -46 56 -46c35 0 72 21 72 21l17 -51c-21 -13 -55 -25 -100 -25c-53 0 -110 25 -110 93c0 54 35 85 80 119v562h68z" />
    <glyph glyph-name="iogonek.smcp" unicode="&#xf64e;" horiz-adv-x="290" 
d="M179 564v-564c-43 -31 -83 -65 -83 -109c0 -29 16 -46 56 -46c35 0 72 21 72 21l17 -51c-21 -13 -55 -25 -100 -25c-53 0 -110 25 -110 93c0 54 35 85 80 119v562h68z" />
    <glyph glyph-name="jcircumflex.smcp" unicode="&#xe265;" horiz-adv-x="460" 
d="M521 592h-67l-117 150l-117 -150h-67l150 208h68zM303 564h69v-389c0 -113 -52 -185 -179 -185c-148 0 -174 87 -173 149l69 9c1 -44 11 -96 104 -96c82 0 110 42 110 128v384z" />
    <glyph glyph-name="jcircumflex.smcp" unicode="&#xf633;" horiz-adv-x="460" 
d="M521 592h-67l-117 150l-117 -150h-67l150 208h68zM303 564h69v-389c0 -113 -52 -185 -179 -185c-148 0 -174 87 -173 149l69 9c1 -44 11 -96 104 -96c82 0 110 42 110 128v384z" />
    <glyph glyph-name="jcaron.smcp" unicode="&#xe266;" horiz-adv-x="460" 
d="M153 800h67l117 -150l117 150h67l-150 -208h-68zM303 564h69v-389c0 -113 -52 -185 -179 -185c-148 0 -174 87 -173 149l69 9c1 -44 11 -96 104 -96c82 0 110 42 110 128v384z" />
    <glyph glyph-name="kcaron.smcp" unicode="&#xe267;" horiz-adv-x="565" 
d="M405 800h67l-150 -208h-68l-150 208h67l117 -150zM543 0h-90l-209 259l-86 -92v-167h-68v564h68v-309l63 70l217 239h91l-240 -256z" />
    <glyph glyph-name="kcommaaccent.smcp" unicode="&#xe268;" horiz-adv-x="565" 
d="M282 -200h-60l19 138h91zM543 0h-90l-209 259l-86 -92v-167h-68v564h68v-309l63 70l217 239h91l-240 -256z" />
    <glyph glyph-name="kcommaaccent.smcp" unicode="&#xf64f;" horiz-adv-x="565" 
d="M282 -200h-60l19 138h91zM543 0h-90l-209 259l-86 -92v-167h-68v564h68v-309l63 70l217 239h91l-240 -256z" />
    <glyph glyph-name="kcedilla.smcp" unicode="&#xe269;" horiz-adv-x="565" 
d="M234 -75l17 49c92 -11 131 -45 131 -101c0 -59 -48 -83 -109 -83c-31 0 -65 9 -79 17l15 44s27 -12 56 -13c41 -1 59 13 59 34c0 35 -42 48 -90 53zM543 0h-90l-209 259l-86 -92v-167h-68v564h68v-309l63 70l217 239h91l-240 -256z" />
    <glyph glyph-name="khook.smcp" unicode="&#xe26a;" horiz-adv-x="565" 
d="M468 509c-45 0 -59 -24 -85 -83c-19 -43 -41 -83 -85 -129l245 -297h-90l-205 254c-24 -17 -59 -35 -90 -46v-208h-68v564h68v-284c106 46 135 116 168 180c36 70 55 114 142 114c20 0 41 -4 52 -9l-8 -65c-9 4 -24 9 -44 9z" />
    <glyph glyph-name="lacute.smcp" unicode="&#xe26b;" horiz-adv-x="490" 
d="M158 564v-500h302v-64h-370v564h68zM188 800h82l-111 -208h-65z" />
    <glyph glyph-name="lacute.smcp" unicode="&#xf650;" horiz-adv-x="490" 
d="M158 564v-500h302v-64h-370v564h68zM188 800h82l-111 -208h-65z" />
    <glyph glyph-name="lcaron.smcp" unicode="&#xe26c;" horiz-adv-x="490" 
d="M158 564v-500h302v-64h-370v564h68zM364 664h79l-75 -208h-61z" />
    <glyph glyph-name="lcaron.smcp" unicode="&#xf651;" horiz-adv-x="490" 
d="M158 564v-500h302v-64h-370v564h68zM364 664h79l-75 -208h-61z" />
    <glyph glyph-name="lcommaaccent.smcp" unicode="&#xe26d;" horiz-adv-x="490" 
d="M158 564v-500h302v-64h-370v564h68zM264 -200h-60l19 138h91z" />
    <glyph glyph-name="lcommaaccent.smcp" unicode="&#xf652;" horiz-adv-x="490" 
d="M158 564v-500h302v-64h-370v564h68zM264 -200h-60l19 138h91z" />
    <glyph glyph-name="lcedilla.smcp" unicode="&#xe26e;" horiz-adv-x="490" 
d="M158 564v-500h302v-64h-370v564h68zM216 -75l17 49c92 -11 131 -45 131 -101c0 -59 -48 -83 -109 -83c-31 0 -65 9 -79 17l15 44s27 -12 56 -13c41 -1 59 13 59 34c0 35 -42 48 -90 53z" />
    <glyph glyph-name="ldotbelow.smcp" unicode="&#xe26f;" horiz-adv-x="490" 
d="M158 564v-500h302v-64h-370v564h68zM308 -67v-86h-86v86h86z" />
    <glyph glyph-name="ldotbelowmacron.smcp" unicode="&#xe260;" horiz-adv-x="490" 
d="M-12 664v64h272v-64h-272zM158 564v-500h302v-64h-370v564h68zM308 -67v-86h-86v86h86z" />
    <glyph glyph-name="ldot.smcp" unicode="&#xe271;" horiz-adv-x="490" 
d="M158 564v-500h302v-64h-370v564h68zM412 335v-86h-86v86h86z" />
    <glyph glyph-name="ldot.smcp" unicode="&#xf634;" horiz-adv-x="490" 
d="M158 564v-500h302v-64h-370v564h68zM412 335v-86h-86v86h86z" />
    <glyph glyph-name="lslash.smcp" unicode="&#xe272;" horiz-adv-x="521" 
d="M355 322l-171 -85v-173h302v-64h-370v204l-81 -40v65l81 40v295h68v-262l171 85v-65z" />
    <glyph glyph-name="lslash.smcp" unicode="&#xf6f9;" horiz-adv-x="521" 
d="M355 322l-171 -85v-173h302v-64h-370v204l-81 -40v65l81 40v295h68v-262l171 85v-65z" />
    <glyph glyph-name="mmacron.smcp" unicode="&#xe273;" horiz-adv-x="778" 
d="M356 0l-130 279l-74 161l4 -154v-286h-66v564h71l168 -358l60 -136l60 136l168 358h71v-564h-66v280l4 160l-74 -161l-130 -279h-66zM253 664v64h272v-64h-272z" />
    <glyph glyph-name="mcedilla.smcp" unicode="&#xe274;" horiz-adv-x="778" 
d="M356 0l-130 279l-74 161l4 -154v-286h-66v564h71l168 -358l60 -136l60 136l168 358h71v-564h-66v280l4 160l-74 -161l-130 -279h-66zM340 -75l17 49c92 -11 131 -45 131 -101c0 -59 -48 -83 -109 -83c-31 0 -65 9 -79 17l15 44s27 -12 56 -13c41 -1 59 13 59 34
c0 35 -42 48 -90 53z" />
    <glyph glyph-name="mdotbelow.smcp" unicode="&#xe275;" horiz-adv-x="778" 
d="M356 0l-130 279l-74 161l4 -154v-286h-66v564h71l168 -358l60 -136l60 136l168 358h71v-564h-66v280l4 160l-74 -161l-130 -279h-66zM432 -67v-86h-86v86h86z" />
    <glyph glyph-name="ngrave.smcp" unicode="&#xe277;" horiz-adv-x="663" 
d="M512 0l-248 317l-109 142l4 -174v-285h-69v564h61l248 -317l109 -143l-4 174v286h69v-564h-61zM185 800h82l94 -208h-65z" />
    <glyph glyph-name="nacute.smcp" unicode="&#xe276;" horiz-adv-x="663" 
d="M512 0l-248 317l-109 142l4 -174v-285h-69v564h61l248 -317l109 -143l-4 174v286h69v-564h-61zM395 800h82l-111 -208h-65z" />
    <glyph glyph-name="nacute.smcp" unicode="&#xf653;" horiz-adv-x="663" 
d="M512 0l-248 317l-109 142l4 -174v-285h-69v564h61l248 -317l109 -143l-4 174v286h69v-564h-61zM395 800h82l-111 -208h-65z" />
    <glyph glyph-name="ndieresis.smcp" unicode="&#xe278;" horiz-adv-x="663" 
d="M512 0l-248 317l-109 142l4 -174v-285h-69v564h61l248 -317l109 -143l-4 174v286h69v-564h-61zM281 739v-86h-86v86h86zM467 739v-86h-86v86h86z" />
    <glyph glyph-name="ntilde.smcp" unicode="&#xe279;" horiz-adv-x="663" 
d="M512 0l-248 317l-109 142l4 -174v-285h-69v564h61l248 -317l109 -143l-4 174v286h69v-564h-61zM402 630c-79 4 -94 72 -146 75c-60 4 -68 -52 -68 -52l-55 8c13 59 46 107 127 103c79 -4 94 -72 146 -75c60 -4 68 52 68 52l55 -8c-13 -59 -46 -107 -127 -103z" />
    <glyph glyph-name="ncaron.smcp" unicode="&#xe27a;" horiz-adv-x="663" 
d="M512 0l-248 317l-109 142l4 -174v-285h-69v564h61l248 -317l109 -143l-4 174v286h69v-564h-61zM448 800h67l-150 -208h-68l-150 208h67l117 -150z" />
    <glyph glyph-name="ncaron.smcp" unicode="&#xf654;" horiz-adv-x="663" 
d="M512 0l-248 317l-109 142l4 -174v-285h-69v564h61l248 -317l109 -143l-4 174v286h69v-564h-61zM448 800h67l-150 -208h-68l-150 208h67l117 -150z" />
    <glyph glyph-name="nmacron.smcp" unicode="&#xe27b;" horiz-adv-x="663" 
d="M512 0l-248 317l-109 142l4 -174v-285h-69v564h61l248 -317l109 -143l-4 174v286h69v-564h-61zM453 800h56c0 -126 -42 -198 -178 -198s-178 72 -178 198h56c0 -105 36 -142 122 -142s122 37 122 142z" />
    <glyph glyph-name="ndotaccent.smcp" unicode="&#xe27c;" horiz-adv-x="663" 
d="M512 0l-248 317l-109 142l4 -174v-285h-69v564h61l248 -317l109 -143l-4 174v286h69v-564h-61zM374 739v-86h-86v86h86z" />
    <glyph glyph-name="ncommaaccent.smcp" unicode="&#xe27d;" horiz-adv-x="663" 
d="M512 0l-248 317l-109 142l4 -174v-285h-69v564h61l248 -317l109 -143l-4 174v286h69v-564h-61zM330 -200h-60l19 138h91z" />
    <glyph glyph-name="ncommaaccent.smcp" unicode="&#xf655;" horiz-adv-x="663" 
d="M512 0l-248 317l-109 142l4 -174v-285h-69v564h61l248 -317l109 -143l-4 174v286h69v-564h-61zM330 -200h-60l19 138h91z" />
    <glyph glyph-name="ncedilla.smcp" unicode="&#xe27e;" horiz-adv-x="663" 
d="M512 0l-248 317l-109 142l4 -174v-285h-69v564h61l248 -317l109 -143l-4 174v286h69v-564h-61zM282 -75l17 49c92 -11 131 -45 131 -101c0 -59 -48 -83 -109 -83c-31 0 -65 9 -79 17l15 44s27 -12 56 -13c41 -1 59 13 59 34c0 35 -42 48 -90 53z" />
    <glyph glyph-name="ndotbelow.smcp" unicode="&#xe27f;" horiz-adv-x="663" 
d="M512 0l-248 317l-109 142l4 -174v-285h-69v564h61l248 -317l109 -143l-4 174v286h69v-564h-61zM374 -67v-86h-86v86h86z" />
    <glyph glyph-name="ndescender.smcp" unicode="&#xe270;" horiz-adv-x="663" 
d="M573 -100v100h-61l-248 317l-109 142l4 -174v-285h-69v564h61l248 -317l109 -143l-4 174v286h69v-500h68v-164h-68z" />
    <glyph glyph-name="ograve.smcp" unicode="&#xe282;" horiz-adv-x="680" 
d="M340 -10c-166 0 -274 97 -274 292s108 292 274 292s274 -97 274 -292s-108 -292 -274 -292zM340 512c-118 0 -204 -71 -204 -230s86 -230 204 -230c117 0 203 71 203 230s-86 230 -203 230zM194 800h82l94 -208h-65z" />
    <glyph glyph-name="ograve.smcp" unicode="&#xf7f2;" horiz-adv-x="680" 
d="M340 -10c-166 0 -274 97 -274 292s108 292 274 292s274 -97 274 -292s-108 -292 -274 -292zM340 512c-118 0 -204 -71 -204 -230s86 -230 204 -230c117 0 203 71 203 230s-86 230 -203 230zM194 800h82l94 -208h-65z" />
    <glyph glyph-name="oacute.smcp" unicode="&#xe281;" horiz-adv-x="680" 
d="M340 -10c-166 0 -274 97 -274 292s108 292 274 292s274 -97 274 -292s-108 -292 -274 -292zM340 512c-118 0 -204 -71 -204 -230s86 -230 204 -230c117 0 203 71 203 230s-86 230 -203 230zM404 800h82l-111 -208h-65z" />
    <glyph glyph-name="oacute.smcp" unicode="&#xf7f3;" horiz-adv-x="680" 
d="M340 -10c-166 0 -274 97 -274 292s108 292 274 292s274 -97 274 -292s-108 -292 -274 -292zM340 512c-118 0 -204 -71 -204 -230s86 -230 204 -230c117 0 203 71 203 230s-86 230 -203 230zM404 800h82l-111 -208h-65z" />
    <glyph glyph-name="ocircumflex.smcp" unicode="&#xe283;" horiz-adv-x="680" 
d="M340 -10c-166 0 -274 97 -274 292s108 292 274 292s274 -97 274 -292s-108 -292 -274 -292zM340 512c-118 0 -204 -71 -204 -230s86 -230 204 -230c117 0 203 71 203 230s-86 230 -203 230zM524 592h-67l-117 150l-117 -150h-67l150 208h68z" />
    <glyph glyph-name="ocircumflex.smcp" unicode="&#xf7f4;" horiz-adv-x="680" 
d="M340 -10c-166 0 -274 97 -274 292s108 292 274 292s274 -97 274 -292s-108 -292 -274 -292zM340 512c-118 0 -204 -71 -204 -230s86 -230 204 -230c117 0 203 71 203 230s-86 230 -203 230zM524 592h-67l-117 150l-117 -150h-67l150 208h68z" />
    <glyph glyph-name="odieresis.smcp" unicode="&#xe284;" horiz-adv-x="680" 
d="M340 -10c-166 0 -274 97 -274 292s108 292 274 292s274 -97 274 -292s-108 -292 -274 -292zM340 512c-118 0 -204 -71 -204 -230s86 -230 204 -230c117 0 203 71 203 230s-86 230 -203 230zM290 739v-86h-86v86h86zM476 739v-86h-86v86h86z" />
    <glyph glyph-name="odieresis.smcp" unicode="&#xf7f6;" horiz-adv-x="680" 
d="M340 -10c-166 0 -274 97 -274 292s108 292 274 292s274 -97 274 -292s-108 -292 -274 -292zM340 512c-118 0 -204 -71 -204 -230s86 -230 204 -230c117 0 203 71 203 230s-86 230 -203 230zM290 739v-86h-86v86h86zM476 739v-86h-86v86h86z" />
    <glyph glyph-name="otilde.smcp" unicode="&#xe285;" horiz-adv-x="680" 
d="M340 -10c-166 0 -274 97 -274 292s108 292 274 292s274 -97 274 -292s-108 -292 -274 -292zM340 512c-118 0 -204 -71 -204 -230s86 -230 204 -230c117 0 203 71 203 230s-86 230 -203 230zM411 630c-79 4 -94 72 -146 75c-60 4 -68 -52 -68 -52l-55 8
c13 59 46 107 127 103c79 -4 94 -72 146 -75c60 -4 68 52 68 52l55 -8c-13 -59 -46 -107 -127 -103z" />
    <glyph glyph-name="otilde.smcp" unicode="&#xf7f5;" horiz-adv-x="680" 
d="M340 -10c-166 0 -274 97 -274 292s108 292 274 292s274 -97 274 -292s-108 -292 -274 -292zM340 512c-118 0 -204 -71 -204 -230s86 -230 204 -230c117 0 203 71 203 230s-86 230 -203 230zM411 630c-79 4 -94 72 -146 75c-60 4 -68 -52 -68 -52l-55 8
c13 59 46 107 127 103c79 -4 94 -72 146 -75c60 -4 68 52 68 52l55 -8c-13 -59 -46 -107 -127 -103z" />
    <glyph glyph-name="ocaron.smcp" unicode="&#xe286;" horiz-adv-x="680" 
d="M340 -10c-166 0 -274 97 -274 292s108 292 274 292s274 -97 274 -292s-108 -292 -274 -292zM340 512c-118 0 -204 -71 -204 -230s86 -230 204 -230c117 0 203 71 203 230s-86 230 -203 230zM457 800h67l-150 -208h-68l-150 208h67l117 -150z" />
    <glyph glyph-name="omacron.smcp" unicode="&#xe287;" horiz-adv-x="680" 
d="M340 -10c-166 0 -274 97 -274 292s108 292 274 292s274 -97 274 -292s-108 -292 -274 -292zM340 512c-118 0 -204 -71 -204 -230s86 -230 204 -230c117 0 203 71 203 230s-86 230 -203 230zM204 664v64h272v-64h-272z" />
    <glyph glyph-name="omacron.smcp" unicode="&#xf657;" horiz-adv-x="680" 
d="M340 -10c-166 0 -274 97 -274 292s108 292 274 292s274 -97 274 -292s-108 -292 -274 -292zM340 512c-118 0 -204 -71 -204 -230s86 -230 204 -230c117 0 203 71 203 230s-86 230 -203 230zM204 664v64h272v-64h-272z" />
    <glyph glyph-name="obreve.smcp" unicode="&#xe288;" horiz-adv-x="680" 
d="M340 -10c-166 0 -274 97 -274 292s108 292 274 292s274 -97 274 -292s-108 -292 -274 -292zM340 512c-118 0 -204 -71 -204 -230s86 -230 204 -230c117 0 203 71 203 230s-86 230 -203 230zM462 800h56c0 -126 -42 -198 -178 -198s-178 72 -178 198h56
c0 -105 36 -142 122 -142s122 37 122 142z" />
    <glyph glyph-name="obreve.smcp" unicode="&#xf635;" horiz-adv-x="680" 
d="M340 -10c-166 0 -274 97 -274 292s108 292 274 292s274 -97 274 -292s-108 -292 -274 -292zM340 512c-118 0 -204 -71 -204 -230s86 -230 204 -230c117 0 203 71 203 230s-86 230 -203 230zM462 800h56c0 -126 -42 -198 -178 -198s-178 72 -178 198h56
c0 -105 36 -142 122 -142s122 37 122 142z" />
    <glyph glyph-name="oinvertedbreve.smcp" unicode="&#xe289;" horiz-adv-x="680" 
d="M340 -10c-166 0 -274 97 -274 292s108 292 274 292s274 -97 274 -292s-108 -292 -274 -292zM340 512c-118 0 -204 -71 -204 -230s86 -230 204 -230c117 0 203 71 203 230s-86 230 -203 230zM518 592h-56c0 105 -36 142 -122 142s-122 -37 -122 -142h-56
c0 126 42 198 178 198s178 -72 178 -198z" />
    <glyph glyph-name="ohungarumlaut.smcp" unicode="&#xe28a;" horiz-adv-x="680" 
d="M340 -10c-166 0 -274 97 -274 292s108 292 274 292s274 -97 274 -292s-108 -292 -274 -292zM340 512c-118 0 -204 -71 -204 -230s86 -230 204 -230c117 0 203 71 203 230s-86 230 -203 230zM329 800h82l-111 -208h-65zM469 800h82l-111 -208h-65z" />
    <glyph glyph-name="ohungarumlaut.smcp" unicode="&#xf656;" horiz-adv-x="680" 
d="M340 -10c-166 0 -274 97 -274 292s108 292 274 292s274 -97 274 -292s-108 -292 -274 -292zM340 512c-118 0 -204 -71 -204 -230s86 -230 204 -230c117 0 203 71 203 230s-86 230 -203 230zM329 800h82l-111 -208h-65zM469 800h82l-111 -208h-65z" />
    <glyph glyph-name="odoublegrave.smcp" unicode="&#xe28b;" horiz-adv-x="680" 
d="M340 -10c-166 0 -274 97 -274 292s108 292 274 292s274 -97 274 -292s-108 -292 -274 -292zM340 512c-118 0 -204 -71 -204 -230s86 -230 204 -230c117 0 203 71 203 230s-86 230 -203 230zM269 800h82l94 -208h-65zM129 800h82l94 -208h-65z" />
    <glyph glyph-name="ocommaturnedabove.smcp" unicode="&#xe28c;" horiz-adv-x="680" 
d="M340 -10c-166 0 -274 97 -274 292s108 292 274 292s274 -97 274 -292s-108 -292 -274 -292zM340 512c-118 0 -204 -71 -204 -230s86 -230 204 -230c117 0 203 71 203 230s-86 230 -203 230zM378 592h-79l75 208h61z" />
    <glyph glyph-name="otildemacron.smcp" unicode="&#xe28d;" horiz-adv-x="680" 
d="M340 -10c-166 0 -274 97 -274 292s108 292 274 292s274 -97 274 -292s-108 -292 -274 -292zM340 512c-118 0 -204 -71 -204 -230s86 -230 204 -230c117 0 203 71 203 230s-86 230 -203 230zM411 600c-79 4 -94 72 -146 75c-60 4 -68 -52 -68 -52l-55 8
c13 59 46 107 127 103c79 -4 94 -72 146 -75c60 -4 68 52 68 52l55 -8c-13 -59 -46 -107 -127 -103zM204 764v64h272v-64h-272z" />
    <glyph glyph-name="odotabove.smcp" unicode="&#xe28e;" horiz-adv-x="680" 
d="M340 -10c-166 0 -274 97 -274 292s108 292 274 292s274 -97 274 -292s-108 -292 -274 -292zM340 512c-118 0 -204 -71 -204 -230s86 -230 204 -230c117 0 203 71 203 230s-86 230 -203 230zM383 739v-86h-86v86h86z" />
    <glyph glyph-name="odotabovemacron.smcp" unicode="&#xe28f;" horiz-adv-x="680" 
d="M340 -10c-166 0 -274 97 -274 292s108 292 274 292s274 -97 274 -292s-108 -292 -274 -292zM340 512c-118 0 -204 -71 -204 -230s86 -230 204 -230c117 0 203 71 203 230s-86 230 -203 230zM383 709v-86h-86v86h86zM204 764v64h272v-64h-272z" />
    <glyph glyph-name="ocedilla.smcp" unicode="&#xe280;" horiz-adv-x="680" 
d="M291 -75l17 49c92 -11 131 -45 131 -101c0 -59 -48 -83 -109 -83c-31 0 -65 9 -79 17l15 44s27 -12 56 -13c41 -1 59 13 59 34c0 35 -42 48 -90 53zM340 -10c-166 0 -274 97 -274 292s108 292 274 292s274 -97 274 -292s-108 -292 -274 -292zM340 512
c-118 0 -204 -71 -204 -230s86 -230 204 -230c117 0 203 71 203 230s-86 230 -203 230z" />
    <glyph glyph-name="odotbelow.smcp" unicode="&#xe291;" horiz-adv-x="680" 
d="M340 -10c-166 0 -274 97 -274 292s108 292 274 292s274 -97 274 -292s-108 -292 -274 -292zM340 512c-118 0 -204 -71 -204 -230s86 -230 204 -230c117 0 203 71 203 230s-86 230 -203 230zM383 -67v-86h-86v86h86z" />
    <glyph glyph-name="oogonek.smcp" unicode="&#xe292;" horiz-adv-x="680" 
d="M614 282c0 -160 -73 -254 -191 -282c-60 -14 -111 -64 -111 -109c0 -29 16 -46 56 -46c35 0 72 21 72 21l17 -51c-21 -13 -55 -25 -100 -25c-53 0 -110 25 -110 93c0 39 24 77 65 108c-150 10 -246 107 -246 291c0 195 108 292 274 292s274 -97 274 -292zM340 512
c-118 0 -204 -71 -204 -230s86 -230 204 -230c117 0 203 71 203 230s-86 230 -203 230z" />
    <glyph glyph-name="oogonekmacron.smcp" unicode="&#xe293;" horiz-adv-x="680" 
d="M204 664v64h272v-64h-272zM614 282c0 -160 -73 -254 -191 -282c-60 -14 -111 -64 -111 -109c0 -29 16 -46 56 -46c35 0 72 21 72 21l17 -51c-21 -13 -55 -25 -100 -25c-53 0 -110 25 -110 93c0 39 24 77 65 108c-150 10 -246 107 -246 291c0 195 108 292 274 292
s274 -97 274 -292zM340 512c-118 0 -204 -71 -204 -230s86 -230 204 -230c117 0 203 71 203 230s-86 230 -203 230z" />
    <glyph glyph-name="ounderlineaccent.smcp" unicode="&#xe294;" horiz-adv-x="680" 
d="M340 -10c-166 0 -274 97 -274 292s108 292 274 292s274 -97 274 -292s-108 -292 -274 -292zM340 512c-118 0 -204 -71 -204 -230s86 -230 204 -230c117 0 203 71 203 230s-86 230 -203 230zM370 -200h-60v160h60v-160z" />
    <glyph glyph-name="oslash.smcp" unicode="&#xe295;" horiz-adv-x="680" 
d="M500 564h71l-39 -56c52 -49 82 -124 82 -226c0 -195 -108 -292 -274 -292c-55 0 -104 10 -145 32l-15 -22h-71l39 56c-53 48 -82 123 -82 226c0 195 108 292 274 292c55 0 104 -11 144 -32zM340 512c-118 0 -204 -71 -204 -230c0 -75 19 -131 52 -169l258 373
c-30 17 -66 26 -106 26zM543 282c0 74 -19 130 -52 167l-258 -372c31 -17 67 -25 107 -25c117 0 203 71 203 230z" />
    <glyph glyph-name="oslash.smcp" unicode="&#xf7f8;" horiz-adv-x="680" 
d="M500 564h71l-39 -56c52 -49 82 -124 82 -226c0 -195 -108 -292 -274 -292c-55 0 -104 10 -145 32l-15 -22h-71l39 56c-53 48 -82 123 -82 226c0 195 108 292 274 292c55 0 104 -11 144 -32zM340 512c-118 0 -204 -71 -204 -230c0 -75 19 -131 52 -169l258 373
c-30 17 -66 26 -106 26zM543 282c0 74 -19 130 -52 167l-258 -372c31 -17 67 -25 107 -25c117 0 203 71 203 230z" />
    <glyph glyph-name="oslashacute.smcp" unicode="&#xe296;" horiz-adv-x="680" 
d="M500 564h71l-39 -56c52 -49 82 -124 82 -226c0 -195 -108 -292 -274 -292c-55 0 -104 10 -145 32l-15 -22h-71l39 56c-53 48 -82 123 -82 226c0 195 108 292 274 292c55 0 104 -11 144 -32zM340 512c-118 0 -204 -71 -204 -230c0 -75 19 -131 52 -169l258 373
c-30 17 -66 26 -106 26zM543 282c0 74 -19 130 -52 167l-258 -372c31 -17 67 -25 107 -25c117 0 203 71 203 230zM404 800h82l-111 -208h-65z" />
    <glyph glyph-name="oslashacute.smcp" unicode="&#xf627;" horiz-adv-x="680" 
d="M500 564h71l-39 -56c52 -49 82 -124 82 -226c0 -195 -108 -292 -274 -292c-55 0 -104 10 -145 32l-15 -22h-71l39 56c-53 48 -82 123 -82 226c0 195 108 292 274 292c55 0 104 -11 144 -32zM340 512c-118 0 -204 -71 -204 -230c0 -75 19 -131 52 -169l258 373
c-30 17 -66 26 -106 26zM543 282c0 74 -19 130 -52 167l-258 -372c31 -17 67 -25 107 -25c117 0 203 71 203 230zM404 800h82l-111 -208h-65z" />
    <glyph glyph-name="barredo.smcp" unicode="&#xe297;" horiz-adv-x="680" 
d="M340 -10c-166 0 -274 97 -274 292s108 292 274 292s274 -97 274 -292s-108 -292 -274 -292zM340 52c111 0 195 64 202 208h-406c8 -144 91 -208 204 -208zM340 512c-107 0 -188 -59 -202 -188h403c-14 129 -95 188 -201 188z" />
    <glyph glyph-name="oe.smcp" unicode="&#xe298;" horiz-adv-x="905" 
d="M65 282c0 195 103 282 279 282h471v-64h-317v-176h279v-64h-279v-196h337v-64h-491c-176 0 -279 87 -279 282zM430 64v436h-101c-122 0 -191 -77 -191 -218s69 -218 191 -218h101z" />
    <glyph glyph-name="oe.smcp" unicode="&#xf6fa;" horiz-adv-x="905" 
d="M65 282c0 195 103 282 279 282h471v-64h-317v-176h279v-64h-279v-196h337v-64h-491c-176 0 -279 87 -279 282zM430 64v436h-101c-122 0 -191 -77 -191 -218s69 -218 191 -218h101z" />
    <glyph glyph-name="pmacron.smcp" unicode="&#xe299;" horiz-adv-x="550" 
d="M337 500h-179v-206h179c53 0 104 17 104 103s-51 103 -104 103zM90 0v564h231c100 0 191 -34 191 -167s-91 -167 -191 -167h-163v-230h-68zM139 664v64h272v-64h-272z" />
    <glyph glyph-name="racute.smcp" unicode="&#xe29a;" horiz-adv-x="615" 
d="M361 800h82l-111 -208h-65zM158 242v-242h-68v564h260c97 0 195 -33 195 -161c0 -99 -60 -141 -131 -155l153 -248h-82l-141 242h-186zM158 305h194c76 0 123 22 123 98s-47 98 -123 98h-194v-196z" />
    <glyph glyph-name="racute.smcp" unicode="&#xf658;" horiz-adv-x="615" 
d="M361 800h82l-111 -208h-65zM158 242v-242h-68v564h260c97 0 195 -33 195 -161c0 -99 -60 -141 -131 -155l153 -248h-82l-141 242h-186zM158 305h194c76 0 123 22 123 98s-47 98 -123 98h-194v-196z" />
    <glyph glyph-name="rcaron.smcp" unicode="&#xe29b;" horiz-adv-x="615" 
d="M414 800h67l-150 -208h-68l-150 208h67l117 -150zM158 242v-242h-68v564h260c97 0 195 -33 195 -161c0 -99 -60 -141 -131 -155l153 -248h-82l-141 242h-186zM158 305h194c76 0 123 22 123 98s-47 98 -123 98h-194v-196z" />
    <glyph glyph-name="rcaron.smcp" unicode="&#xf659;" horiz-adv-x="615" 
d="M414 800h67l-150 -208h-68l-150 208h67l117 -150zM158 242v-242h-68v564h260c97 0 195 -33 195 -161c0 -99 -60 -141 -131 -155l153 -248h-82l-141 242h-186zM158 305h194c76 0 123 22 123 98s-47 98 -123 98h-194v-196z" />
    <glyph glyph-name="rinvertedbreve.smcp" unicode="&#xe29c;" horiz-adv-x="615" 
d="M475 592h-56c0 105 -36 142 -122 142s-122 -37 -122 -142h-56c0 126 42 198 178 198s178 -72 178 -198zM158 242v-242h-68v564h260c97 0 195 -33 195 -161c0 -99 -60 -141 -131 -155l153 -248h-82l-141 242h-186zM158 305h194c76 0 123 22 123 98s-47 98 -123 98h-194
v-196z" />
    <glyph glyph-name="rdoublegrave.smcp" unicode="&#xe29d;" horiz-adv-x="615" 
d="M236 800h82l94 -208h-65zM96 800h82l94 -208h-65zM158 242v-242h-68v564h260c97 0 195 -33 195 -161c0 -99 -60 -141 -131 -155l153 -248h-82l-141 242h-186zM158 305h194c76 0 123 22 123 98s-47 98 -123 98h-194v-196z" />
    <glyph glyph-name="rcommaaccent.smcp" unicode="&#xe29e;" horiz-adv-x="615" 
d="M311 -200h-60l19 138h91zM158 242v-242h-68v564h260c97 0 195 -33 195 -161c0 -99 -60 -141 -131 -155l153 -248h-82l-141 242h-186zM158 305h194c76 0 123 22 123 98s-47 98 -123 98h-194v-196z" />
    <glyph glyph-name="rcommaaccent.smcp" unicode="&#xf65a;" horiz-adv-x="615" 
d="M311 -200h-60l19 138h91zM158 242v-242h-68v564h260c97 0 195 -33 195 -161c0 -99 -60 -141 -131 -155l153 -248h-82l-141 242h-186zM158 305h194c76 0 123 22 123 98s-47 98 -123 98h-194v-196z" />
    <glyph glyph-name="rcedilla.smcp" unicode="&#xe29f;" horiz-adv-x="615" 
d="M263 -75l17 49c92 -11 131 -45 131 -101c0 -59 -48 -83 -109 -83c-31 0 -65 9 -79 17l15 44s27 -12 56 -13c41 -1 59 13 59 34c0 35 -42 48 -90 53zM158 242v-242h-68v564h260c97 0 195 -33 195 -161c0 -99 -60 -141 -131 -155l153 -248h-82l-141 242h-186zM158 305h194
c76 0 123 22 123 98s-47 98 -123 98h-194v-196z" />
    <glyph glyph-name="rdotbelow.smcp" unicode="&#xe290;" horiz-adv-x="615" 
d="M355 -67v-86h-86v86h86zM158 242v-242h-68v564h260c97 0 195 -33 195 -161c0 -99 -60 -141 -131 -155l153 -248h-82l-141 242h-186zM158 305h194c76 0 123 22 123 98s-47 98 -123 98h-194v-196z" />
    <glyph glyph-name="rdotbelowmacron.smcp" unicode="&#xe301;" horiz-adv-x="615" 
d="M355 -67v-86h-86v86h86zM161 664v64h272v-64h-272zM158 242v-242h-68v564h260c97 0 195 -33 195 -161c0 -99 -60 -141 -131 -155l153 -248h-82l-141 242h-186zM158 305h194c76 0 123 22 123 98s-47 98 -123 98h-194v-196z" />
    <glyph glyph-name="sacute.smcp" unicode="&#xe302;" horiz-adv-x="615" 
d="M306 53c82 2 170 23 170 109c0 74 -50 88 -169 104c-91 12 -215 31 -215 147c0 114 106 161 213 161c152 0 219 -58 237 -159l-72 -8c-14 76 -61 105 -165 104c-60 -1 -144 -13 -144 -95c0 -59 46 -74 152 -89c118 -16 234 -29 234 -163c0 -124 -120 -174 -240 -174
c-148 0 -228 63 -242 164l71 7c12 -73 74 -108 170 -108zM369 800h82l-111 -208h-65z" />
    <glyph glyph-name="sacute.smcp" unicode="&#xf65b;" horiz-adv-x="615" 
d="M306 53c82 2 170 23 170 109c0 74 -50 88 -169 104c-91 12 -215 31 -215 147c0 114 106 161 213 161c152 0 219 -58 237 -159l-72 -8c-14 76 -61 105 -165 104c-60 -1 -144 -13 -144 -95c0 -59 46 -74 152 -89c118 -16 234 -29 234 -163c0 -124 -120 -174 -240 -174
c-148 0 -228 63 -242 164l71 7c12 -73 74 -108 170 -108zM369 800h82l-111 -208h-65z" />
    <glyph glyph-name="scircumflex.smcp" unicode="&#xe303;" horiz-adv-x="615" 
d="M306 53c82 2 170 23 170 109c0 74 -50 88 -169 104c-91 12 -215 31 -215 147c0 114 106 161 213 161c152 0 219 -58 237 -159l-72 -8c-14 76 -61 105 -165 104c-60 -1 -144 -13 -144 -95c0 -59 46 -74 152 -89c118 -16 234 -29 234 -163c0 -124 -120 -174 -240 -174
c-148 0 -228 63 -242 164l71 7c12 -73 74 -108 170 -108zM489 592h-67l-117 150l-117 -150h-67l150 208h68z" />
    <glyph glyph-name="scircumflex.smcp" unicode="&#xf636;" horiz-adv-x="615" 
d="M306 53c82 2 170 23 170 109c0 74 -50 88 -169 104c-91 12 -215 31 -215 147c0 114 106 161 213 161c152 0 219 -58 237 -159l-72 -8c-14 76 -61 105 -165 104c-60 -1 -144 -13 -144 -95c0 -59 46 -74 152 -89c118 -16 234 -29 234 -163c0 -124 -120 -174 -240 -174
c-148 0 -228 63 -242 164l71 7c12 -73 74 -108 170 -108zM489 592h-67l-117 150l-117 -150h-67l150 208h68z" />
    <glyph glyph-name="scaron.smcp" unicode="&#xe304;" horiz-adv-x="615" 
d="M306 53c82 2 170 23 170 109c0 74 -50 88 -169 104c-91 12 -215 31 -215 147c0 114 106 161 213 161c152 0 219 -58 237 -159l-72 -8c-14 76 -61 105 -165 104c-60 -1 -144 -13 -144 -95c0 -59 46 -74 152 -89c118 -16 234 -29 234 -163c0 -124 -120 -174 -240 -174
c-148 0 -228 63 -242 164l71 7c12 -73 74 -108 170 -108zM422 800h67l-150 -208h-68l-150 208h67l117 -150z" />
    <glyph glyph-name="scaron.smcp" unicode="&#xf6fd;" horiz-adv-x="615" 
d="M306 53c82 2 170 23 170 109c0 74 -50 88 -169 104c-91 12 -215 31 -215 147c0 114 106 161 213 161c152 0 219 -58 237 -159l-72 -8c-14 76 -61 105 -165 104c-60 -1 -144 -13 -144 -95c0 -59 46 -74 152 -89c118 -16 234 -29 234 -163c0 -124 -120 -174 -240 -174
c-148 0 -228 63 -242 164l71 7c12 -73 74 -108 170 -108zM422 800h67l-150 -208h-68l-150 208h67l117 -150z" />
    <glyph glyph-name="scommaaccent.smcp" unicode="&#xe305;" horiz-adv-x="615" 
d="M306 53c82 2 170 23 170 109c0 74 -50 88 -169 104c-91 12 -215 31 -215 147c0 114 106 161 213 161c152 0 219 -58 237 -159l-72 -8c-14 76 -61 105 -165 104c-60 -1 -144 -13 -144 -95c0 -59 46 -74 152 -89c118 -16 234 -29 234 -163c0 -124 -120 -174 -240 -174
c-148 0 -228 63 -242 164l71 7c12 -73 74 -108 170 -108zM341 592h-79l75 208h61z" />
    <glyph glyph-name="scommaaccent.smcp" unicode="&#xf65d;" horiz-adv-x="615" 
d="M306 53c82 2 170 23 170 109c0 74 -50 88 -169 104c-91 12 -215 31 -215 147c0 114 106 161 213 161c152 0 219 -58 237 -159l-72 -8c-14 76 -61 105 -165 104c-60 -1 -144 -13 -144 -95c0 -59 46 -74 152 -89c118 -16 234 -29 234 -163c0 -124 -120 -174 -240 -174
c-148 0 -228 63 -242 164l71 7c12 -73 74 -108 170 -108zM341 592h-79l75 208h61z" />
    <glyph glyph-name="scedilla.smcp" unicode="&#xe306;" horiz-adv-x="615" 
d="M306 53c82 2 170 23 170 109c0 74 -50 88 -169 104c-91 12 -215 31 -215 147c0 114 106 161 213 161c152 0 219 -58 237 -159l-72 -8c-14 76 -61 105 -165 104c-60 -1 -144 -13 -144 -95c0 -59 46 -74 152 -89c118 -16 234 -29 234 -163c0 -117 -107 -168 -219 -173
l-7 -25c46 -11 87 -37 87 -93c0 -59 -48 -83 -109 -83c-31 0 -65 9 -79 17l15 44s27 -12 56 -13c41 -1 59 13 59 34c0 35 -42 48 -90 53l22 66c-132 6 -204 68 -217 163l71 7c12 -73 74 -108 170 -108z" />
    <glyph glyph-name="scedilla.smcp" unicode="&#xf65c;" horiz-adv-x="615" 
d="M306 53c82 2 170 23 170 109c0 74 -50 88 -169 104c-91 12 -215 31 -215 147c0 114 106 161 213 161c152 0 219 -58 237 -159l-72 -8c-14 76 -61 105 -165 104c-60 -1 -144 -13 -144 -95c0 -59 46 -74 152 -89c118 -16 234 -29 234 -163c0 -117 -107 -168 -219 -173
l-7 -25c46 -11 87 -37 87 -93c0 -59 -48 -83 -109 -83c-31 0 -65 9 -79 17l15 44s27 -12 56 -13c41 -1 59 13 59 34c0 35 -42 48 -90 53l22 66c-132 6 -204 68 -217 163l71 7c12 -73 74 -108 170 -108z" />
    <glyph glyph-name="sdotbelow.smcp" unicode="&#xe307;" horiz-adv-x="615" 
d="M306 53c82 2 170 23 170 109c0 74 -50 88 -169 104c-91 12 -215 31 -215 147c0 114 106 161 213 161c152 0 219 -58 237 -159l-72 -8c-14 76 -61 105 -165 104c-60 -1 -144 -13 -144 -95c0 -59 46 -74 152 -89c118 -16 234 -29 234 -163c0 -124 -120 -174 -240 -174
c-148 0 -228 63 -242 164l71 7c12 -73 74 -108 170 -108zM352 -67v-86h-86v86h86z" />
    <glyph glyph-name="germandbls.smcp" unicode="&#xe308;" horiz-adv-x="713" 
d="M359 511c-152 0 -209 -77 -209 -157v-354h-70v360c0 103 70 214 279 214c125 0 179 -37 213 -64v-35l-152 -175c13 -2 30 -4 55 -6c108 -7 188 -39 188 -146s-90 -158 -223 -158c-151 0 -200 58 -206 129l70 7c4 -42 40 -71 135 -71c110 0 153 40 153 91
c0 66 -40 87 -141 91c-65 3 -97 14 -118 24v35l161 185c-28 17 -71 30 -135 30z" />
    <glyph glyph-name="germandbls.smcp" unicode="&#xf667;" horiz-adv-x="713" 
d="M359 511c-152 0 -209 -77 -209 -157v-354h-70v360c0 103 70 214 279 214c125 0 179 -37 213 -64v-35l-152 -175c13 -2 30 -4 55 -6c108 -7 188 -39 188 -146s-90 -158 -223 -158c-151 0 -200 58 -206 129l70 7c4 -42 40 -71 135 -71c110 0 153 40 153 91
c0 66 -40 87 -141 91c-65 3 -97 14 -118 24v35l161 185c-28 17 -71 30 -135 30z" />
    <glyph glyph-name="germandbls.smcp" unicode="&#xf175;" horiz-adv-x="713" 
d="M359 511c-152 0 -209 -77 -209 -157v-354h-70v360c0 103 70 214 279 214c125 0 179 -37 213 -64v-35l-152 -175c13 -2 30 -4 55 -6c108 -7 188 -39 188 -146s-90 -158 -223 -158c-151 0 -200 58 -206 129l70 7c4 -42 40 -71 135 -71c110 0 153 40 153 91
c0 66 -40 87 -141 91c-65 3 -97 14 -118 24v35l161 185c-28 17 -71 30 -135 30z" />
    <glyph glyph-name="tcaron.smcp" unicode="&#xe309;" horiz-adv-x="523" 
d="M295 500v-500h-67v500h-203v64h473v-64h-203zM379 800h67l-150 -208h-68l-150 208h67l117 -150z" />
    <glyph glyph-name="tcaron.smcp" unicode="&#xf65e;" horiz-adv-x="523" 
d="M295 500v-500h-67v500h-203v64h473v-64h-203zM379 800h67l-150 -208h-68l-150 208h67l117 -150z" />
    <glyph glyph-name="tcommaaccent.smcp" unicode="&#xe30a;" horiz-adv-x="523" 
d="M295 500v-500h-67v500h-203v64h473v-64h-203zM256 -200h-60l19 138h91z" />
    <glyph glyph-name="tcommaaccent.smcp" unicode="&#xf65f;" horiz-adv-x="523" 
d="M295 500v-500h-67v500h-203v64h473v-64h-203zM256 -200h-60l19 138h91z" />
    <glyph glyph-name="tcedilla.smcp" unicode="&#xe30b;" horiz-adv-x="523" 
d="M295 500v-500h-67v500h-203v64h473v-64h-203zM224 -75l17 49c92 -11 131 -45 131 -101c0 -59 -48 -83 -109 -83c-31 0 -65 9 -79 17l15 44s27 -12 56 -13c41 -1 59 13 59 34c0 35 -42 48 -90 53z" />
    <glyph glyph-name="tdotbelow.smcp" unicode="&#xe30c;" horiz-adv-x="523" 
d="M295 500v-500h-67v500h-203v64h473v-64h-203zM305 -67v-86h-86v86h86z" />
    <glyph glyph-name="tbar.smcp" unicode="&#xe30d;" horiz-adv-x="523" 
d="M411 260h-116v-260h-67v260h-117v64h117v176h-203v64h473v-64h-203v-176h116v-64z" />
    <glyph glyph-name="tbar.smcp" unicode="&#xf637;" horiz-adv-x="523" 
d="M411 260h-116v-260h-67v260h-117v64h117v176h-203v64h473v-64h-203v-176h116v-64z" />
    <glyph glyph-name="ugrave.smcp" unicode="&#xe30f;" horiz-adv-x="658" 
d="M329 -10c-189 0 -249 108 -249 227v347h70v-338c0 -90 23 -173 179 -173s179 83 179 173v338h70v-347c0 -119 -60 -227 -249 -227zM183 800h82l94 -208h-65z" />
    <glyph glyph-name="ugrave.smcp" unicode="&#xf7f9;" horiz-adv-x="658" 
d="M329 -10c-189 0 -249 108 -249 227v347h70v-338c0 -90 23 -173 179 -173s179 83 179 173v338h70v-347c0 -119 -60 -227 -249 -227zM183 800h82l94 -208h-65z" />
    <glyph glyph-name="uacute.smcp" unicode="&#xe30e;" horiz-adv-x="658" 
d="M329 -10c-189 0 -249 108 -249 227v347h70v-338c0 -90 23 -173 179 -173s179 83 179 173v338h70v-347c0 -119 -60 -227 -249 -227zM393 800h82l-111 -208h-65z" />
    <glyph glyph-name="uacute.smcp" unicode="&#xf7fa;" horiz-adv-x="658" 
d="M329 -10c-189 0 -249 108 -249 227v347h70v-338c0 -90 23 -173 179 -173s179 83 179 173v338h70v-347c0 -119 -60 -227 -249 -227zM393 800h82l-111 -208h-65z" />
    <glyph glyph-name="ucircumflex.smcp" unicode="&#xe300;" horiz-adv-x="658" 
d="M329 -10c-189 0 -249 108 -249 227v347h70v-338c0 -90 23 -173 179 -173s179 83 179 173v338h70v-347c0 -119 -60 -227 -249 -227zM513 592h-67l-117 150l-117 -150h-67l150 208h68z" />
    <glyph glyph-name="ucircumflex.smcp" unicode="&#xf7fb;" horiz-adv-x="658" 
d="M329 -10c-189 0 -249 108 -249 227v347h70v-338c0 -90 23 -173 179 -173s179 83 179 173v338h70v-347c0 -119 -60 -227 -249 -227zM513 592h-67l-117 150l-117 -150h-67l150 208h68z" />
    <glyph glyph-name="udieresis.smcp" unicode="&#xe311;" horiz-adv-x="658" 
d="M329 -10c-189 0 -249 108 -249 227v347h70v-338c0 -90 23 -173 179 -173s179 83 179 173v338h70v-347c0 -119 -60 -227 -249 -227zM279 739v-86h-86v86h86zM465 739v-86h-86v86h86z" />
    <glyph glyph-name="udieresis.smcp" unicode="&#xf7fc;" horiz-adv-x="658" 
d="M329 -10c-189 0 -249 108 -249 227v347h70v-338c0 -90 23 -173 179 -173s179 83 179 173v338h70v-347c0 -119 -60 -227 -249 -227zM279 739v-86h-86v86h86zM465 739v-86h-86v86h86z" />
    <glyph glyph-name="utilde.smcp" unicode="&#xe312;" horiz-adv-x="658" 
d="M329 -10c-189 0 -249 108 -249 227v347h70v-338c0 -90 23 -173 179 -173s179 83 179 173v338h70v-347c0 -119 -60 -227 -249 -227zM400 630c-79 4 -94 72 -146 75c-60 4 -68 -52 -68 -52l-55 8c13 59 46 107 127 103c79 -4 94 -72 146 -75c60 -4 68 52 68 52l55 -8
c-13 -59 -46 -107 -127 -103z" />
    <glyph glyph-name="utilde.smcp" unicode="&#xf639;" horiz-adv-x="658" 
d="M329 -10c-189 0 -249 108 -249 227v347h70v-338c0 -90 23 -173 179 -173s179 83 179 173v338h70v-347c0 -119 -60 -227 -249 -227zM400 630c-79 4 -94 72 -146 75c-60 4 -68 -52 -68 -52l-55 8c13 59 46 107 127 103c79 -4 94 -72 146 -75c60 -4 68 52 68 52l55 -8
c-13 -59 -46 -107 -127 -103z" />
    <glyph glyph-name="uring.smcp" unicode="&#xe313;" horiz-adv-x="658" 
d="M329 -10c-189 0 -249 108 -249 227v347h70v-338c0 -90 23 -173 179 -173s179 83 179 173v338h70v-347c0 -119 -60 -227 -249 -227zM215 696c0 66 42 114 114 114s114 -48 114 -114s-42 -114 -114 -114s-114 48 -114 114zM273 696c0 -34 21 -58 56 -58s56 24 56 58
s-21 58 -56 58s-56 -24 -56 -58z" />
    <glyph glyph-name="uring.smcp" unicode="&#xf663;" horiz-adv-x="658" 
d="M329 -10c-189 0 -249 108 -249 227v347h70v-338c0 -90 23 -173 179 -173s179 83 179 173v338h70v-347c0 -119 -60 -227 -249 -227zM215 696c0 66 42 114 114 114s114 -48 114 -114s-42 -114 -114 -114s-114 48 -114 114zM273 696c0 -34 21 -58 56 -58s56 24 56 58
s-21 58 -56 58s-56 -24 -56 -58z" />
    <glyph glyph-name="ucaron.smcp" unicode="&#xe314;" horiz-adv-x="658" 
d="M329 -10c-189 0 -249 108 -249 227v347h70v-338c0 -90 23 -173 179 -173s179 83 179 173v338h70v-347c0 -119 -60 -227 -249 -227zM446 800h67l-150 -208h-68l-150 208h67l117 -150z" />
    <glyph glyph-name="umacron.smcp" unicode="&#xe315;" horiz-adv-x="658" 
d="M329 -10c-189 0 -249 108 -249 227v347h70v-338c0 -90 23 -173 179 -173s179 83 179 173v338h70v-347c0 -119 -60 -227 -249 -227zM193 664v64h272v-64h-272z" />
    <glyph glyph-name="umacron.smcp" unicode="&#xf661;" horiz-adv-x="658" 
d="M329 -10c-189 0 -249 108 -249 227v347h70v-338c0 -90 23 -173 179 -173s179 83 179 173v338h70v-347c0 -119 -60 -227 -249 -227zM193 664v64h272v-64h-272z" />
    <glyph glyph-name="ubreve.smcp" unicode="&#xe316;" horiz-adv-x="658" 
d="M329 -10c-189 0 -249 108 -249 227v347h70v-338c0 -90 23 -173 179 -173s179 83 179 173v338h70v-347c0 -119 -60 -227 -249 -227zM451 800h56c0 -126 -42 -198 -178 -198s-178 72 -178 198h56c0 -105 36 -142 122 -142s122 37 122 142z" />
    <glyph glyph-name="ubreve.smcp" unicode="&#xf638;" horiz-adv-x="658" 
d="M329 -10c-189 0 -249 108 -249 227v347h70v-338c0 -90 23 -173 179 -173s179 83 179 173v338h70v-347c0 -119 -60 -227 -249 -227zM451 800h56c0 -126 -42 -198 -178 -198s-178 72 -178 198h56c0 -105 36 -142 122 -142s122 37 122 142z" />
    <glyph glyph-name="uinvertedbreve.smcp" unicode="&#xe317;" horiz-adv-x="658" 
d="M329 -10c-189 0 -249 108 -249 227v347h70v-338c0 -90 23 -173 179 -173s179 83 179 173v338h70v-347c0 -119 -60 -227 -249 -227zM507 592h-56c0 105 -36 142 -122 142s-122 -37 -122 -142h-56c0 126 42 198 178 198s178 -72 178 -198z" />
    <glyph glyph-name="uhungarumlaut.smcp" unicode="&#xe318;" horiz-adv-x="658" 
d="M329 -10c-189 0 -249 108 -249 227v347h70v-338c0 -90 23 -173 179 -173s179 83 179 173v338h70v-347c0 -119 -60 -227 -249 -227zM318 800h82l-111 -208h-65zM458 800h82l-111 -208h-65z" />
    <glyph glyph-name="uhungarumlaut.smcp" unicode="&#xf660;" horiz-adv-x="658" 
d="M329 -10c-189 0 -249 108 -249 227v347h70v-338c0 -90 23 -173 179 -173s179 83 179 173v338h70v-347c0 -119 -60 -227 -249 -227zM318 800h82l-111 -208h-65zM458 800h82l-111 -208h-65z" />
    <glyph glyph-name="udoublegrave.smcp" unicode="&#xe319;" horiz-adv-x="658" 
d="M329 -10c-189 0 -249 108 -249 227v347h70v-338c0 -90 23 -173 179 -173s179 83 179 173v338h70v-347c0 -119 -60 -227 -249 -227zM258 800h82l94 -208h-65zM118 800h82l94 -208h-65z" />
    <glyph glyph-name="udotbelow.smcp" unicode="&#xe31a;" horiz-adv-x="658" 
d="M329 -10c-189 0 -249 108 -249 227v347h70v-338c0 -90 23 -173 179 -173s179 83 179 173v338h70v-347c0 -119 -60 -227 -249 -227zM372 -67v-86h-86v86h86z" />
    <glyph glyph-name="uogonek.smcp" unicode="&#xe31b;" horiz-adv-x="658" 
d="M578 217c0 -94 -38 -181 -146 -214c-59 -18 -103 -65 -103 -112c0 -29 16 -46 56 -46c35 0 72 21 72 21l17 -51c-21 -13 -55 -25 -100 -25c-53 0 -110 25 -110 93c0 36 18 75 52 107c-179 5 -236 111 -236 227v347h70v-338c0 -90 23 -173 179 -173s179 83 179 173v338h70
v-347z" />
    <glyph glyph-name="uogonek.smcp" unicode="&#xf662;" horiz-adv-x="658" 
d="M578 217c0 -94 -38 -181 -146 -214c-59 -18 -103 -65 -103 -112c0 -29 16 -46 56 -46c35 0 72 21 72 21l17 -51c-21 -13 -55 -25 -100 -25c-53 0 -110 25 -110 93c0 36 18 75 52 107c-179 5 -236 111 -236 227v347h70v-338c0 -90 23 -173 179 -173s179 83 179 173v338h70
v-347z" />
    <glyph glyph-name="umacronbelow.smcp" unicode="&#xe31c;" horiz-adv-x="658" 
d="M329 -10c-189 0 -249 108 -249 227v347h70v-338c0 -90 23 -173 179 -173s179 83 179 173v338h70v-347c0 -119 -60 -227 -249 -227zM193 -142v64h272v-64h-272z" />
    <glyph glyph-name="wgrave.smcp" unicode="&#xe31e;" horiz-adv-x="860" 
d="M473 358l-43 135l-43 -135l-126 -368h-61l-160 574h69l87 -325l36 -148l46 137l116 336h72l116 -336l46 -137l36 148l87 325h69l-160 -574h-61zM284 800h82l94 -208h-65z" />
    <glyph glyph-name="wgrave.smcp" unicode="&#xf63d;" horiz-adv-x="860" 
d="M473 358l-43 135l-43 -135l-126 -368h-61l-160 574h69l87 -325l36 -148l46 137l116 336h72l116 -336l46 -137l36 148l87 325h69l-160 -574h-61zM284 800h82l94 -208h-65z" />
    <glyph glyph-name="wacute.smcp" unicode="&#xe31d;" horiz-adv-x="860" 
d="M473 358l-43 135l-43 -135l-126 -368h-61l-160 574h69l87 -325l36 -148l46 137l116 336h72l116 -336l46 -137l36 148l87 325h69l-160 -574h-61zM494 800h82l-111 -208h-65z" />
    <glyph glyph-name="wacute.smcp" unicode="&#xf63a;" horiz-adv-x="860" 
d="M473 358l-43 135l-43 -135l-126 -368h-61l-160 574h69l87 -325l36 -148l46 137l116 336h72l116 -336l46 -137l36 148l87 325h69l-160 -574h-61zM494 800h82l-111 -208h-65z" />
    <glyph glyph-name="wcircumflex.smcp" unicode="&#xe31f;" horiz-adv-x="860" 
d="M473 358l-43 135l-43 -135l-126 -368h-61l-160 574h69l87 -325l36 -148l46 137l116 336h72l116 -336l46 -137l36 148l87 325h69l-160 -574h-61zM614 592h-67l-117 150l-117 -150h-67l150 208h68z" />
    </font>
</defs>
</svg>
