<?xml version="1.0" standalone="no"?>
<!DOCTYPE svg PUBLIC "-//W3C//DTD SVG 1.1//EN" "http://www.w3.org/Graphics/SVG/1.1/DTD/svg11.dtd" >
<svg xmlns="http://www.w3.org/2000/svg" xmlns:xlink="http://www.w3.org/1999/xlink" version="1.1">
<metadata>
Created by FontForge 20170731 at Thu May 24 22:11:34 2018
 By Aleksey,,,
Copyright (c) 2015, 2018 by Jakob Runge, under exclusive license to TypeMates. All rights reserved.
</metadata>
<defs>
<font id="CeraPro-Medium" horiz-adv-x="560" >
  <font-face 
    font-family="Cera Pro"
    font-weight="500"
    font-stretch="normal"
    units-per-em="1000"
    panose-1="0 0 6 0 0 0 0 0 0 0"
    ascent="808"
    descent="-192"
    x-height="491"
    cap-height="660"
    bbox="-459 -243 1337 1000"
    underline-thickness="76"
    underline-position="-328"
    unicode-range="U+0020-FB02"
  />
<missing-glyph horiz-adv-x="710" 
d="M83 660h544v-660h-544v660zM552 64v528h-396z" />
    <glyph glyph-name="fi" unicode="fi" horiz-adv-x="595" 
d="M199 581v-90h116v-91h-116v-400h-105v400h-70v91h70v99q0 85 46 128t129 43q39 0 68 -9v-89q-24 3 -42 3q-49 0 -72.5 -19.5t-23.5 -65.5zM413 0v491h105v-491h-105zM394 674q0 29 21 49.5t51 20.5q29 0 50 -20.5t21 -49.5t-21 -49t-50 -20q-30 0 -51 20t-21 49z" />
    <glyph glyph-name="fl" unicode="fl" horiz-adv-x="595" 
d="M199 581v-90h116v-91h-116v-400h-105v400h-70v91h70v99q0 85 46 128t129 43q39 0 68 -9v-89q-24 3 -42 3q-49 0 -72.5 -19.5t-23.5 -65.5zM413 0v750h105v-750h-105z" />
    <glyph glyph-name=".notdef" horiz-adv-x="710" 
d="M83 660h544v-660h-544v660zM552 64v528h-396z" />
    <glyph glyph-name=".null" horiz-adv-x="0" 
 />
    <glyph glyph-name="nonmarkingreturn" horiz-adv-x="333" 
 />
    <glyph glyph-name="space" unicode=" " horiz-adv-x="280" 
 />
    <glyph glyph-name="exclam" unicode="!" horiz-adv-x="326" 
d="M119 225l-20 435h126l-19 -435h-87zM85 66q0 34 22.5 56t55.5 22t55 -22t22 -56q0 -33 -22 -55t-55 -22t-55.5 22t-22.5 55z" />
    <glyph glyph-name="quotedbl" unicode="&#x22;" horiz-adv-x="500" 
d="M89 392l9 268h121l-49 -268h-81zM299 392l9 268h121l-49 -268h-81z" />
    <glyph glyph-name="numbersign" unicode="#" horiz-adv-x="614" 
d="M586 408h-96l-21 -156h95v-90h-107l-22 -162h-87l22 162h-171l-22 -162h-87l22 162h-85v90h97l20 156h-94v90h106l22 162h89l-22 -162h169l22 162h88l-22 -162h84v-90zM211 249h170l22 162h-170z" />
    <glyph glyph-name="dollar" unicode="$" horiz-adv-x="537" 
d="M316 24v-119h-97v121q-121 23 -183 135l73 54q65 -101 164 -101q47 0 76 21t29 56q0 29 -20.5 48t-68.5 40l-69 27q-145 57 -145 167q0 60 39.5 102t104.5 55v119h97v-117q100 -18 152 -111l-72 -54q-51 74 -124 74q-40 0 -66 -17.5t-26 -49.5q0 -28 18 -45.5t62 -36.5
l74 -28q149 -57 149 -171q0 -68 -45.5 -113t-121.5 -56z" />
    <glyph glyph-name="percent" unicode="%" horiz-adv-x="851" 
d="M61 509q0 67 49 114.5t119 47.5q68 0 117 -47.5t49 -114.5q0 -68 -49 -115.5t-117 -47.5q-70 0 -119 47t-49 116zM193 0l378 660h89l-379 -660h-88zM312 509q0 37 -24 62.5t-59 25.5q-36 0 -59.5 -25t-23.5 -63t23 -63t60 -25q35 0 59 25t24 63zM457 152q0 69 48.5 116
t117.5 47t118 -47t49 -116q0 -67 -49 -114.5t-118 -47.5t-117.5 47.5t-48.5 114.5zM706 152q0 38 -23.5 63t-58.5 25q-37 0 -60 -24.5t-23 -63.5q0 -38 23 -62.5t60 -24.5q35 0 58.5 25t23.5 62z" />
    <glyph glyph-name="ampersand" unicode="&#x26;" horiz-adv-x="649" 
d="M622 293l-29 -42q-55 -83 -84 -118l110 -133h-125l-51 62q-84 -73 -186 -73q-91 0 -150 50t-59 127q0 54 31 98t110 105q-64 81 -64 151q0 68 43.5 109.5t114.5 41.5q68 0 111.5 -39t43.5 -101q0 -89 -113 -176l119 -143q7 9 62 91q19 29 32 48zM223 519q0 -36 47 -97
q39 30 54.5 52.5t15.5 48.5t-15.5 41t-42.5 15q-59 0 -59 -60zM380 138l-132 160q-56 -44 -74 -68t-18 -54q0 -40 29.5 -66t76.5 -26q61 0 118 54z" />
    <glyph glyph-name="quotesingle" unicode="'" horiz-adv-x="291" 
d="M89 392l9 268h121l-49 -268h-81z" />
    <glyph glyph-name="parenleft" unicode="(" horiz-adv-x="349" 
d="M73 302q0 180 58 286t148 148l43 -66q-68 -45 -110 -132q-42 -85 -42 -236q0 -268 152 -367l-43 -66q-90 42 -148 148t-58 285z" />
    <glyph glyph-name="parenright" unicode=")" horiz-adv-x="349" 
d="M71 -131l-44 66q152 99 152 367q0 151 -42 236q-42 87 -110 132l44 66q90 -42 146 -148q58 -106 58 -286q0 -179 -58 -285q-56 -106 -146 -148z" />
    <glyph glyph-name="asterisk" unicode="*" horiz-adv-x="438" 
d="M395 630l-92 -66l92 -66l-31 -53l-103 47l-11 -113h-62l-11 113l-103 -47l-31 53l92 66l-92 66l31 54l103 -47l11 113h62l11 -113l103 47z" />
    <glyph glyph-name="plus" unicode="+" 
d="M231 87v185h-180v91h180v183h102v-183h176v-91h-176v-185h-102z" />
    <glyph glyph-name="comma" unicode="," horiz-adv-x="280" 
d="M77 -178l10 284h122l-47 -284h-85z" />
    <glyph glyph-name="hyphen" unicode="-" horiz-adv-x="344" 
d="M49 273v89h246v-89h-246z" />
    <glyph glyph-name="period" unicode="." horiz-adv-x="280" 
d="M62 66q0 33 23 55.5t56 22.5t55 -22t22 -56q0 -33 -22 -55t-55 -22t-56 22t-23 55z" />
    <glyph glyph-name="slash" unicode="/" horiz-adv-x="650" 
d="M5 -121l523 901h117l-523 -901h-117z" />
    <glyph glyph-name="zero" unicode="0" horiz-adv-x="625" 
d="M61 336q0 151 64 242q64 93 188 93t187 -92q64 -91 64 -243q0 -154 -64.5 -250.5t-186.5 -96.5t-187 97t-65 250zM454 335q0 239 -141 239q-142 0 -142 -239q0 -249 142 -249q141 0 141 249z" />
    <glyph glyph-name="one" unicode="1" horiz-adv-x="390" 
d="M253 660h37v-660h-106v535l-134 -43l-26 93z" />
    <glyph glyph-name="two" unicode="2" horiz-adv-x="572" 
d="M240 92h279v-92h-473v24l235 253q57 60 81 100t24 81q0 51 -30 83.5t-80 32.5t-81 -34t-31 -86q0 -18 5 -51h-107q-7 25 -7 57q0 85 62 148t160 63q94 0 156.5 -59t62.5 -146q0 -68 -36 -123q-32 -51 -104 -128z" />
    <glyph glyph-name="three" unicode="3" horiz-adv-x="543" 
d="M494 212q0 -98 -70.5 -160.5t-170.5 -62.5q-78 0 -138 38.5t-94 104.5l74 52q64 -98 155 -98q60 0 97.5 34.5t37.5 90.5t-39.5 86t-112.5 30h-73v29l154 207h-246v97h411v-29l-160 -216q72 -12 124 -65q51 -52 51 -138z" />
    <glyph glyph-name="four" unicode="4" horiz-adv-x="562" 
d="M544 206v-91h-90v-115h-106v115h-330v29l211 516h109l-187 -454h197v203h106v-203h90z" />
    <glyph glyph-name="five" unicode="5" horiz-adv-x="559" 
d="M510 213q0 -98 -71 -161t-172 -63q-80 0 -141 38t-96 104l74 53q64 -98 160 -98q60 0 98.5 34.5t38.5 90.5t-39.5 86.5t-112.5 30.5h-152v332h376v-95h-272v-155q39 9 84 9q94 0 159.5 -55t65.5 -151z" />
    <glyph glyph-name="six" unicode="6" horiz-adv-x="556" 
d="M512 217q0 -96 -69 -162t-165 -66q-95 -2 -165 65.5t-68 163.5q0 37 11 72q12 35 28 61q14 23 51 76l165 233h125l-159 -225q13 3 29 3q88 0 152.5 -64.5t64.5 -156.5zM407 217q0 55 -38 93t-91 38q-54 0 -92 -38q-37 -37 -37 -93q0 -57 37 -94t92 -37q54 0 91 37
q38 38 38 94z" />
    <glyph glyph-name="seven" unicode="7" horiz-adv-x="513" 
d="M36 660h453v-29l-319 -631h-115l291 565h-310v95z" />
    <glyph glyph-name="eight" unicode="8" horiz-adv-x="583" 
d="M531 172q0 -83 -66.5 -133t-172.5 -50q-107 0 -174 50t-67 133q0 119 143 171q-112 61 -112 159q0 80 59 124q60 45 151 45q90 0 149 -45q59 -44 59 -124q0 -99 -112 -159q143 -53 143 -171zM183 498q0 -35 24.5 -58t83.5 -49q59 25 83.5 48.5t24.5 58.5q0 39 -29.5 62.5
t-77.5 23.5q-49 0 -79 -23.5t-30 -62.5zM424 176q0 43 -31 69t-102 52q-70 -25 -101.5 -52t-31.5 -69q0 -46 35.5 -72.5t98.5 -26.5t97.5 26.5t34.5 72.5z" />
    <glyph glyph-name="nine" unicode="9" horiz-adv-x="556" 
d="M512 442q0 -38 -12 -73q-9 -28 -28 -61q-16 -27 -51 -75l-164 -233h-126l159 225q-13 -3 -29 -3q-86 0 -151 64.5t-65 156.5q0 96 69 162t165 66q95 2 165 -65.5t68 -163.5zM407 443q0 56 -37 93q-38 38 -91 38q-55 0 -93 -38q-37 -37 -37 -93q0 -57 37 -94t93 -37
q53 0 91 38q37 37 37 93z" />
    <glyph glyph-name="colon" unicode=":" horiz-adv-x="280" 
d="M62 420q0 33 23 55.5t56 22.5t55 -22t22 -56q0 -33 -22 -55t-55 -22t-56 22t-23 55zM62 66q0 33 23 55.5t56 22.5t55 -22t22 -56q0 -33 -22 -55t-55 -22t-56 22t-23 55z" />
    <glyph glyph-name="semicolon" unicode=";" horiz-adv-x="280" 
d="M62 420q0 33 23 55.5t56 22.5t55 -22t22 -56q0 -33 -22 -55t-55 -22t-56 22t-23 55zM77 -178l10 284h122l-47 -284h-85z" />
    <glyph glyph-name="less" unicode="&#x3c;" 
d="M495 529v-95l-275 -116l275 -116v-95l-450 196v30z" />
    <glyph glyph-name="equal" unicode="=" 
d="M61 378v91h439v-91h-439zM61 166v91h439v-91h-439z" />
    <glyph glyph-name="greater" unicode="&#x3e;" 
d="M65 529l451 -196v-30l-451 -196v95l275 116l-275 116v95z" />
    <glyph glyph-name="question" unicode="?" horiz-adv-x="448" 
d="M152 271q0 29 19 56t60 62q41 37 55 57t14 47q0 35 -23.5 58t-57.5 23q-68 0 -97 -86l-88 38q21 70 70.5 107.5t118.5 37.5q78 0 132 -48.5t54 -121.5q0 -43 -21 -78.5t-68 -76.5q-43 -38 -57 -55.5t-14 -38.5q0 -12 4 -27h-90q-11 25 -11 46zM134 66q0 33 22.5 55.5
t55.5 22.5t55.5 -22t22.5 -56q0 -33 -22.5 -55t-55.5 -22t-55.5 22t-22.5 55z" />
    <glyph glyph-name="at" unicode="@" horiz-adv-x="937" 
d="M894 284q0 -122 -75 -186q-74 -65 -196 -65h-37v57q-45 -68 -142 -68q-86 0 -143 61.5t-57 153.5t57 153.5t144 61.5q92 0 137 -61v52h92v-324q62 5 96.5 47t34.5 118q0 127 -89.5 210t-232.5 83q-150 2 -251 -94t-99 -239q-2 -144 97.5 -240t243.5 -94q62 0 125 19
l17 -76q-69 -27 -152 -27q-112 -2 -210 53t-155.5 152t-55.5 211q-2 117 57.5 214.5t160.5 152t220 52.5q172 3 294 -110t119 -267zM576 238q0 59 -31.5 91.5t-80.5 32.5q-51 0 -84.5 -34.5t-33.5 -90.5q0 -54 33 -89t84 -35q48 0 80.5 33.5t32.5 91.5z" />
    <glyph glyph-name="A" unicode="A" horiz-adv-x="662" 
d="M526 0l-47 110h-297l-47 -110h-113l291 671h36l291 -671h-114zM441 201l-110 273l-111 -273h221z" />
    <glyph glyph-name="B" unicode="B" horiz-adv-x="618" 
d="M580 192q0 -84 -59 -138t-155 -54h-283v660h231q89 0 143.5 -49.5t54.5 -126.5t-55 -124q58 -19 90.5 -63t32.5 -105zM304 567h-117v-178h117q48 0 75 24t27 66q0 41 -26.5 64.5t-75.5 23.5zM473 195q0 48 -31 75.5t-85 27.5h-170v-205h170q55 0 85.5 27.5t30.5 74.5z
" />
    <glyph glyph-name="C" unicode="C" horiz-adv-x="717" 
d="M43 330q-3 141 101 242t246 99q90 0 165 -41t118 -111l-80 -59q-73 114 -202 114q-102 0 -170 -69.5t-68 -174.5t68 -174.5t170 -69.5q129 0 202 114l80 -59q-43 -71 -117.5 -111.5t-165.5 -40.5q-142 -2 -246 99t-101 242z" />
    <glyph glyph-name="D" unicode="D" horiz-adv-x="692" 
d="M83 0v660h207q161 0 260 -91t99 -238q0 -145 -99.5 -238t-259.5 -93h-207zM189 95h100q114 0 182.5 65.5t68.5 170.5q0 106 -68 169.5t-183 63.5h-100v-469z" />
    <glyph glyph-name="E" unicode="E" horiz-adv-x="569" 
d="M83 0v660h434v-95h-328v-169h247v-92h-247v-209h340v-95h-446z" />
    <glyph glyph-name="F" unicode="F" horiz-adv-x="529" 
d="M83 0v660h424v-95h-318v-197h262v-96h-262v-272h-106z" />
    <glyph glyph-name="G" unicode="G" horiz-adv-x="746" 
d="M43 330q-3 141 100.5 242t247.5 99q174 0 273 -138l-77 -63q-74 104 -197 104q-104 0 -170.5 -69t-66.5 -174q0 -106 68.5 -176.5t174.5 -70.5q132 0 197 100v71h-203v94h309v-186q-45 -80 -127 -127t-181 -47q-145 -2 -247.5 98.5t-100.5 242.5z" />
    <glyph glyph-name="H" unicode="H" horiz-adv-x="711" 
d="M83 0v660h106v-263h332v263h106v-660h-106v302h-332v-302h-106z" />
    <glyph glyph-name="I" unicode="I" horiz-adv-x="272" 
d="M83 0v660h106v-660h-106z" />
    <glyph glyph-name="J" unicode="J" horiz-adv-x="381" 
d="M21 0v91q50 -5 68 -5q53 0 78 20t25 69v485h106v-496q0 -86 -48.5 -130.5t-137.5 -44.5q-41 0 -91 11z" />
    <glyph glyph-name="K" unicode="K" horiz-adv-x="651" 
d="M83 0v660h106v-660h-106zM325 351l304 -351h-131l-306 351l277 309h130z" />
    <glyph glyph-name="L" unicode="L" horiz-adv-x="515" 
d="M83 0v660h106v-565h302v-95h-408z" />
    <glyph glyph-name="M" unicode="M" horiz-adv-x="793" 
d="M674 671h36v-671h-106v414l-189 -248h-36l-190 249v-415h-106v671h37l277 -369z" />
    <glyph glyph-name="N" unicode="N" horiz-adv-x="711" 
d="M521 660h106v-671h-36l-402 458v-447h-106v671h37l401 -456v445z" />
    <glyph glyph-name="O" unicode="O" horiz-adv-x="780" 
d="M43 330q-2 141 101 242t245 99q141 2 245.5 -99t101.5 -242q3 -141 -101.5 -242t-245.5 -99q-142 -2 -245.5 99t-100.5 242zM627 331q0 104 -68 173.5t-169 69.5q-102 0 -169.5 -69t-67.5 -174q0 -106 67 -175.5t170 -69.5q101 0 169 70t68 175z" />
    <glyph glyph-name="P" unicode="P" horiz-adv-x="583" 
d="M83 0v660h241q100 0 162 -56.5t62 -145.5t-62.5 -146t-161.5 -57h-135v-255h-106zM189 349h133q55 0 86 29t31 79t-31 79.5t-86 29.5h-133v-217z" />
    <glyph glyph-name="Q" unicode="Q" horiz-adv-x="780" 
d="M1048 -117v-84q-61 -11 -111 -11q-269 0 -427 222q-57 -21 -121 -21q-142 -2 -245.5 99t-100.5 242q-2 141 101 242t245 99q141 2 245.5 -99t101.5 -242q0 -83 -36.5 -154.5t-102.5 -119.5q134 -177 357 -177q34 0 94 4zM390 86q101 0 169 69.5t68 174.5t-68 174.5
t-170 69.5q-101 0 -168.5 -69.5t-67.5 -173.5q0 -106 67 -175.5t170 -69.5z" />
    <glyph glyph-name="R" unicode="R" horiz-adv-x="631" 
d="M619 0h-121l-188 255h-121v-255h-106v660h241q100 0 162 -56.5t62 -145.5q0 -65 -33.5 -114t-93.5 -72zM189 566v-217h133q54 0 85.5 29.5t31.5 78.5t-31.5 79t-85.5 30h-133z" />
    <glyph glyph-name="S" unicode="S" horiz-adv-x="559" 
d="M36 132l75 57q72 -105 173 -105q51 0 82.5 25t31.5 67q0 34 -21 53.5t-76 45.5l-73 34q-77 35 -115.5 77.5t-38.5 105.5q0 79 60 129t148 50q69 0 125.5 -32t87.5 -86l-74 -57q-54 80 -139 80q-44 0 -72 -21t-28 -59q1 -18 4.5 -29.5t18.5 -24t21 -15.5t39 -20q6 -3 9 -5
l74 -34q83 -38 120.5 -81t37.5 -107q0 -85 -62.5 -138t-158.5 -53q-80 0 -145 38t-104 105z" />
    <glyph glyph-name="T" unicode="T" horiz-adv-x="583" 
d="M238 0v565h-222v95h551v-95h-223v-565h-106z" />
    <glyph glyph-name="U" unicode="U" horiz-adv-x="694" 
d="M76 267v393h106v-400q0 -82 45.5 -128t120.5 -46q74 0 119 46t45 128v400h106v-393q0 -128 -75.5 -203t-194.5 -75q-121 0 -196.5 75t-75.5 203z" />
    <glyph glyph-name="V" unicode="V" horiz-adv-x="662" 
d="M521 660h119l-291 -671h-36l-291 671h119l190 -459z" />
    <glyph glyph-name="W" unicode="W" horiz-adv-x="1051" 
d="M899 660h116l-257 -671h-35l-197 468l-197 -468h-36l-257 671h117l165 -446l189 457h37l190 -457z" />
    <glyph glyph-name="X" unicode="X" horiz-adv-x="607" 
d="M584 0h-121l-160 246l-159 -246h-122l223 337l-209 323h122l146 -233l144 233h121l-205 -323z" />
    <glyph glyph-name="Y" unicode="Y" horiz-adv-x="620" 
d="M591 660l-228 -394v-266h-106v266l-228 394h118l163 -287l164 287h117z" />
    <glyph glyph-name="Z" unicode="Z" horiz-adv-x="588" 
d="M190 95h368v-95h-532v29l366 536h-323v95h488v-29z" />
    <glyph glyph-name="bracketleft" unicode="[" horiz-adv-x="350" 
d="M96 -131v860h209v-88h-115v-682h115v-90h-209z" />
    <glyph glyph-name="backslash" unicode="\" horiz-adv-x="650" 
d="M528 -121l-523 901h117l523 -901h-117z" />
    <glyph glyph-name="bracketright" unicode="]" horiz-adv-x="350" 
d="M44 -131v90h116v682h-116v88h210v-860h-210z" />
    <glyph glyph-name="asciicircum" unicode="^" horiz-adv-x="524" 
d="M469 280h-104l-103 216l-103 -216h-104l189 390h36z" />
    <glyph glyph-name="underscore" unicode="_" horiz-adv-x="504" 
d="M39 -155v85h426v-85h-426z" />
    <glyph glyph-name="grave" unicode="`" horiz-adv-x="600" 
d="M325 568l-129 193v19h128l79 -212h-78z" />
    <glyph glyph-name="a" unicode="a" horiz-adv-x="536" 
d="M466 297v-297h-98v55q-55 -66 -157 -66q-77 0 -124 39t-47 103t49 102t132 38h139v32q0 51 -27.5 78t-77.5 27q-75 0 -136 -73l-61 62q72 105 207 105q92 0 146.5 -54t54.5 -151zM360 186v9h-126q-87 0 -87 -60q0 -30 23.5 -47.5t62.5 -17.5q54 0 90.5 33t36.5 83z" />
    <glyph glyph-name="b" unicode="b" horiz-adv-x="631" 
d="M586 245q0 -109 -68.5 -182.5t-171.5 -73.5q-115 0 -172 79v-68h-98v750h105v-319q58 71 164 71q104 0 172.5 -73.5t68.5 -183.5zM478 246q0 70 -43 115t-107 45q-62 0 -105 -42t-43 -119q0 -76 43 -118t105 -42q64 0 107 45.5t43 115.5z" />
    <glyph glyph-name="c" unicode="c" horiz-adv-x="552" 
d="M45 246q-2 105 76 181.5t184 74.5q138 0 207 -114l-74 -58q-52 75 -132 75q-66 0 -110 -46t-44 -113q0 -68 44 -114t110 -46q78 0 132 74l74 -57q-33 -54 -87 -84t-120 -30q-109 0 -184.5 75t-75.5 182z" />
    <glyph glyph-name="d" unicode="d" horiz-adv-x="631" 
d="M449 750h106v-750h-98v70q-57 -81 -172 -81q-103 0 -171.5 73.5t-68.5 182.5q-2 108 68 183.5t172 73.5q106 0 164 -71v319zM451 245q0 76 -43.5 118.5t-104.5 42.5q-64 0 -107.5 -45t-43.5 -115t43 -115.5t108 -45.5q62 0 105 42t43 118z" />
    <glyph glyph-name="e" unicode="e" horiz-adv-x="570" 
d="M518 211h-366q10 -60 53.5 -94.5t106.5 -34.5q78 0 143 58l50 -72q-83 -79 -196 -79q-112 0 -188 73.5t-76 182.5q-2 106 74 182.5t180 74.5q97 0 162 -64.5t65 -160.5q0 -29 -8 -66zM154 293h267q-1 55 -37 87.5t-89 32.5q-52 0 -90.5 -32.5t-50.5 -87.5z" />
    <glyph glyph-name="f" unicode="f" horiz-adv-x="322" 
d="M199 581v-90h116v-91h-116v-400h-105v400h-70v91h70v99q0 85 46 128t129 43q39 0 68 -9v-89q-24 3 -42 3q-49 0 -72.5 -19.5t-23.5 -65.5z" />
    <glyph glyph-name="g" unicode="g" horiz-adv-x="634" 
d="M461 491h97v-440q0 -115 -66.5 -178.5t-179.5 -63.5q-136 0 -236 93l58 73q87 -70 172 -70q68 0 107.5 36t39.5 104v35q-58 -70 -166 -70q-103 0 -171 69.5t-68 176.5t68 176.5t171 69.5q117 0 174 -81v70zM454 257q0 72 -42 111.5t-106 39.5t-107 -42t-43 -110
q0 -69 43 -112q44 -42 107 -42q61 0 104 40q44 41 44 115z" />
    <glyph glyph-name="h" unicode="h" horiz-adv-x="575" 
d="M505 307v-307h-105v292q0 51 -29 82.5t-78 31.5t-80.5 -32t-31.5 -82v-292h-105v750h105v-308q51 60 142 60q83 0 132.5 -53.5t49.5 -141.5z" />
    <glyph glyph-name="i" unicode="i" horiz-adv-x="257" 
d="M76 0v491h105v-491h-105zM57 674q0 29 21 49.5t51 20.5q29 0 50 -20.5t21 -49.5t-21 -49t-50 -20q-30 0 -51 20t-21 49z" />
    <glyph glyph-name="j" unicode="j" horiz-adv-x="257" 
d="M-61 -182v89q24 -3 43 -3q48 0 71 20t23 65v502h105v-511q0 -85 -45.5 -128t-128.5 -43q-41 0 -68 9zM57 674q0 29 21 49.5t51 20.5q29 0 50 -20.5t21 -49.5t-21 -49t-50 -20q-30 0 -51 20t-21 49z" />
    <glyph glyph-name="k" unicode="k" horiz-adv-x="533" 
d="M76 0v750h105v-750h-105zM308 275l215 -275h-126l-213 276l192 215h130z" />
    <glyph glyph-name="l" unicode="l" horiz-adv-x="257" 
d="M76 0v750h105v-750h-105z" />
    <glyph glyph-name="m" unicode="m" horiz-adv-x="883" 
d="M813 307v-307h-106v292q0 52 -27.5 83t-74.5 31q-48 0 -78 -30.5t-30 -78.5v-297h-105v292q0 51 -28 82.5t-75 31.5q-48 0 -78 -31.5t-30 -82.5v-292h-105v491h98v-46q55 57 142 57q102 0 149 -77q59 77 166 77q84 0 133 -53.5t49 -141.5z" />
    <glyph glyph-name="n" unicode="n" horiz-adv-x="575" 
d="M505 307v-307h-105v293q0 51 -29.5 82.5t-77.5 31.5q-49 0 -80.5 -32t-31.5 -82v-293h-105v491h98v-48q56 59 147 59q85 0 134.5 -53t49.5 -142z" />
    <glyph glyph-name="o" unicode="o" horiz-adv-x="609" 
d="M45 246q-2 105 75.5 181.5t183.5 74.5q107 2 185 -75t76 -181q2 -105 -76 -182t-185 -75q-106 -2 -183.5 75.5t-75.5 181.5zM457 245q0 68 -44 114.5t-108 46.5q-65 0 -109 -46.5t-44 -114.5t43.5 -113.5t108.5 -45.5t109 46t44 113z" />
    <glyph glyph-name="p" unicode="p" horiz-adv-x="631" 
d="M586 246q0 -110 -68.5 -183.5t-172.5 -73.5q-102 0 -164 71v-240h-105v671h98v-69q56 80 171 80q104 0 172.5 -73.5t68.5 -182.5zM478 245q0 70 -43 115.5t-107 45.5q-62 0 -105 -42t-43 -118q0 -77 43 -119t105 -42q64 0 107 45t43 115z" />
    <glyph glyph-name="q" unicode="q" horiz-adv-x="631" 
d="M457 491h98v-671h-106v239q-58 -70 -164 -70q-103 0 -171.5 73.5t-68.5 183.5q0 109 68.5 182.5t171.5 73.5q115 0 172 -81v70zM451 246q0 76 -43 118t-105 42q-65 0 -108 -45.5t-43 -115.5t43.5 -115t107.5 -45q61 0 104.5 42.5t43.5 118.5z" />
    <glyph glyph-name="r" unicode="r" horiz-adv-x="375" 
d="M357 491v-93h-32q-64 0 -104 -36t-40 -100v-262h-105v491h98v-64q55 69 143 69q20 0 40 -5z" />
    <glyph glyph-name="s" unicode="s" horiz-adv-x="455" 
d="M30 84l60 66q67 -70 138 -70q35 0 57 14.5t22 40.5q0 20 -15 32.5t-54 28.5l-50 21q-67 28 -97.5 60.5t-30.5 82.5q0 65 48.5 103.5t124.5 38.5q106 0 170 -76l-57 -65q-48 50 -115 50t-67 -47q0 -18 14 -30.5t51 -27.5l47 -19q71 -30 102.5 -63.5t31.5 -84.5
q0 -71 -52 -111q-52 -39 -130 -39q-125 0 -198 95z" />
    <glyph glyph-name="t" unicode="t" horiz-adv-x="398" 
d="M368 89v-89q-52 -11 -87 -11q-86 0 -133.5 43t-47.5 128v240h-80v91h80v129h106v-129h146v-91h-146v-231q0 -46 23.5 -65.5t73.5 -19.5q17 0 65 5z" />
    <glyph glyph-name="u" unicode="u" horiz-adv-x="570" 
d="M71 206v285h104v-293q0 -50 31 -81t80 -31q47 0 77.5 31t30.5 81v293h105v-285q0 -97 -60.5 -157t-152.5 -60q-94 0 -154.5 59.5t-60.5 157.5z" />
    <glyph glyph-name="v" unicode="v" horiz-adv-x="549" 
d="M418 491h112l-237 -502h-36l-238 502h112l144 -325z" />
    <glyph glyph-name="w" unicode="w" horiz-adv-x="854" 
d="M723 491h112l-218 -502h-36l-154 327l-154 -327h-36l-218 502h112l129 -321l149 332h36l151 -328z" />
    <glyph glyph-name="x" unicode="x" horiz-adv-x="514" 
d="M499 0h-120l-123 180l-122 -180h-120l182 255l-169 236h120l110 -162l109 162h120l-170 -237z" />
    <glyph glyph-name="y" unicode="y" horiz-adv-x="549" 
d="M418 491h112l-239 -547q-31 -70 -74 -102.5t-106 -32.5q-42 0 -81 10v89q41 -4 58 -4q76 0 107 72l20 46l-196 469h113l141 -357z" />
    <glyph glyph-name="z" unicode="z" horiz-adv-x="461" 
d="M179 91h260v-91h-417v29l257 371h-234v91h392v-30z" />
    <glyph glyph-name="braceleft" unicode="{" horiz-adv-x="404" 
d="M236 567q0 -25 12 -89q12 -68 12 -93q0 -35 -15 -55t-48 -31q34 -11 48.5 -30.5t14.5 -54.5q0 -26 -12 -93q-12 -65 -12 -89q0 -75 71 -75h53v-88h-72q-146 0 -146 137q0 37 14 116q10 57 10 77q0 55 -57 55h-60v91h60q57 0 57 54q0 20 -10 79q-14 79 -14 115
q0 136 146 136h72v-88h-53q-71 0 -71 -74z" />
    <glyph glyph-name="bar" unicode="|" horiz-adv-x="332" 
d="M122 -121v901h88v-901h-88z" />
    <glyph glyph-name="braceright" unicode="}" horiz-adv-x="404" 
d="M296 345h59v-91h-59q-58 0 -58 -55q0 -20 10 -77q14 -79 14 -116q0 -137 -146 -137h-72v88h54q70 0 70 75q0 25 -12 89q-12 67 -12 93q0 35 14.5 54.5t48.5 30.5q-33 11 -48 31t-15 55q0 25 12 93q12 64 12 89q0 74 -70 74h-54v88h72q146 0 146 -136q0 -36 -14 -115
q-10 -59 -10 -79q0 -54 58 -54z" />
    <glyph glyph-name="asciitilde" unicode="~" 
d="M319 242l-91 55q-40 25 -59 25q-17 0 -26.5 -11.5t-9.5 -30.5v-24h-82q-2 34 -2 37q0 53 30.5 88.5t77.5 35.5q37 0 84 -26l91 -56q44 -24 59 -24q17 0 26 11.5t9 30.5v25h83l2 -38q0 -54 -30.5 -89t-78.5 -35q-40 0 -83 26z" />
    <glyph glyph-name="uni00A0" unicode="&#xa0;" horiz-adv-x="280" 
 />
    <glyph glyph-name="exclamdown" unicode="&#xa1;" horiz-adv-x="326" 
d="M85 424q0 34 22.5 56t55.5 22t55 -22t22 -56q0 -33 -22.5 -55t-54.5 -22q-33 0 -55.5 22t-22.5 55zM99 -180l20 445h87l20 -445h-127z" />
    <glyph glyph-name="cent" unicode="&#xa2;" horiz-adv-x="555" 
d="M428 242l73 -58q-58 -98 -173 -112v-167h-98v173q-85 21 -141 89q-54 69 -54 160t54 158q55 69 141 90v174h98v-168q115 -14 174 -111l-73 -58q-57 74 -133 74q-66 0 -110 -45.5t-44 -113.5t44 -114t110 -46q80 0 132 75z" />
    <glyph glyph-name="sterling" unicode="&#xa3;" horiz-adv-x="548" 
d="M243 91h261v-91h-455v24q67 47 100 91.5t33 98.5q0 16 -1 21h-122v91h89l-21 39q-34 66 -34 123q0 82 57.5 132.5t146.5 50.5q81 0 137 -44t79 -128l-91 -33q-33 108 -119 108q-47 0 -74.5 -28.5t-27.5 -74.5t40 -113q16 -28 17 -32h159v-91h-130q1 -4 1 -20
q0 -73 -45 -124z" />
    <glyph glyph-name="currency" unicode="&#xa4;" horiz-adv-x="649" 
d="M519 198l108 -110l-63 -63l-110 112q-58 -37 -131 -37q-71 0 -130 36l-107 -111l-64 63l106 109q-43 58 -43 133q0 74 43 132l-106 108l64 63l108 -109q58 36 129 36q74 0 130 -37l110 110l64 -63l-108 -107q43 -58 43 -133q0 -74 -43 -132zM454 329q0 58 -38 96t-93 38
q-57 0 -93.5 -38t-36.5 -96q0 -57 36.5 -94.5t93.5 -37.5q55 0 93 38t38 94z" />
    <glyph glyph-name="yen" unicode="&#xa5;" horiz-adv-x="575" 
d="M569 660l-204 -292h164v-89h-188v-77h188v-88h-188v-114h-106v114h-187v88h187v77h-187v89h163l-204 292h118l163 -237l163 237h118z" />
    <glyph glyph-name="brokenbar" unicode="&#xa6;" horiz-adv-x="332" 
d="M122 480v300h88v-300h-88zM122 -121v300h88v-300h-88z" />
    <glyph glyph-name="section" unicode="&#xa7;" horiz-adv-x="590" 
d="M438 43q1 -3 1 -17q0 -67 -48 -109.5t-126 -42.5q-117 0 -184 97l71 58q51 -63 115 -63q69 0 69 58q0 21 -11 38q-9 16 -22 27.5t-53 41.5l-99 76q-64 46 -91.5 83t-27.5 82q0 51 31.5 86.5t88.5 49.5q-1 3 -1 17q0 66 48.5 109t126.5 43q116 0 183 -97l-71 -59
q-51 63 -115 63q-69 0 -69 -57q-2 -23 14 -45t44 -42l28 -21l99 -75q64 -46 91.5 -83t27.5 -82q0 -51 -31.5 -86.5t-88.5 -49.5zM456 178q0 21 -15.5 38.5t-61.5 52.5l-102 78q-68 50 -94 86q-48 -18 -48 -60q0 -21 15 -38.5t61 -53.5l99 -75q69 -49 97 -88q49 19 49 60z
" />
    <glyph glyph-name="dieresis" unicode="&#xa8;" horiz-adv-x="600" 
d="M119 674q0 27 20.5 46.5t48.5 19.5t47.5 -19t19.5 -47q0 -26 -19.5 -45.5t-47.5 -19.5t-48.5 19.5t-20.5 45.5zM344 674q0 27 20.5 46.5t48.5 19.5q27 0 47 -19.5t20 -46.5q0 -26 -20 -45.5t-47 -19.5q-28 0 -48.5 19.5t-20.5 45.5z" />
    <glyph glyph-name="copyright" unicode="&#xa9;" horiz-adv-x="780" 
d="M43 330q-3 140 102 241.5t244 99.5q140 3 245 -99.5t102 -241.5q3 -140 -102 -241.5t-245 -99.5q-139 -2 -244 99.5t-102 241.5zM663 330q2 117 -80 196.5t-194 77.5q-111 2 -192.5 -77t-79.5 -197q-2 -118 79.5 -197t192.5 -77q112 -2 194 77.5t80 196.5zM208 330
q0 81 54.5 135t135.5 54q93 0 152 -78l-60 -52q-38 50 -90 50q-46 0 -75 -31t-29 -78q0 -46 29 -77t74 -31q55 0 91 49l60 -52q-59 -77 -153 -77q-79 0 -134 54t-55 134z" />
    <glyph glyph-name="ordfeminine" unicode="&#xaa;" horiz-adv-x="361" 
d="M308 430v-186h-78v27q-34 -34 -92 -34q-50 0 -79 25.5t-29 68.5t31.5 67t85.5 24h77v14q0 54 -59 54q-41 0 -84 -36l-38 55q57 54 131 54q63 0 98.5 -35t35.5 -98zM224 358v10h-63q-21 0 -32.5 -9.5t-11.5 -24.5q0 -34 44 -34q27 0 45 16t18 42z" />
    <glyph glyph-name="guillemotleft" unicode="&#xab;" horiz-adv-x="550" 
d="M220 58l-186 199v29l186 199l68 -60l-138 -153l138 -155zM447 58l-186 199v29l186 199l68 -60l-138 -153l138 -155z" />
    <glyph glyph-name="logicalnot" unicode="&#xac;" 
d="M377 99v173h-328v91h429v-264h-101z" />
    <glyph glyph-name="uni00AD" unicode="&#xad;" horiz-adv-x="344" 
d="M49 273v89h246v-89h-246z" />
    <glyph glyph-name="registered" unicode="&#xae;" horiz-adv-x="572" 
d="M534 435q2 -102 -73 -178t-174 -74q-100 -2 -175.5 74.5t-73.5 177.5q-2 101 73.5 178t175.5 75q99 2 174 -74.5t73 -178.5zM476 436q0 82 -55 138.5t-134 56.5q-80 0 -134.5 -56.5t-54.5 -138.5t54.5 -139t134.5 -57q79 0 134 56.5t55 139.5zM346 404l69 -94h-71l-60 79
h-32v-79h-64v251h103q42 0 69 -23.5t27 -62.5q0 -46 -41 -71zM252 505v-60h38q14 0 22.5 8t8.5 21q0 31 -31 31h-38z" />
    <glyph glyph-name="overscore" unicode="&#xaf;" horiz-adv-x="600" 
d="M156 632v84h288v-84h-288z" />
    <glyph glyph-name="degree" unicode="&#xb0;" horiz-adv-x="361" 
d="M28 521q0 62 44.5 106t107.5 44t108 -44t45 -106t-45 -106t-108 -44t-107.5 44t-44.5 106zM256 521q0 33 -21.5 55t-54.5 22q-31 0 -53 -22.5t-22 -54.5t22 -54.5t53 -22.5q33 0 54.5 22t21.5 55z" />
    <glyph glyph-name="plusminus" unicode="&#xb1;" 
d="M229 162v151h-168v88h168v145h103v-145h168v-88h-168v-151h-103zM61 0v88h439v-88h-439z" />
    <glyph glyph-name="uni00B2" unicode="&#xb2;" horiz-adv-x="376" 
d="M184 439h153v-75h-303v18l148 160q32 34 45 57t13 49q0 27 -16 45t-42 18q-27 0 -43.5 -18t-16.5 -47q0 -2 0.5 -6t1 -11.5t0.5 -13.5h-82q-4 15 -4 36q0 55 41 95.5t103 40.5q61 0 102 -38t41 -94q0 -40 -20.5 -75.5t-68.5 -86.5z" />
    <glyph glyph-name="uni00B3" unicode="&#xb3;" horiz-adv-x="357" 
d="M320 500q0 -62 -45.5 -102.5t-109.5 -40.5q-50 0 -89.5 25t-60.5 68l58 41q36 -58 89 -58q33 0 53 18.5t20 48.5q0 61 -86 61h-45v21l88 123h-146v75h266v-23l-92 -130q43 -10 71.5 -44t28.5 -83z" />
    <glyph glyph-name="acute" unicode="&#xb4;" horiz-adv-x="600" 
d="M196 568l79 212h128v-19l-129 -193h-78z" />
    <glyph glyph-name="uni00B5" unicode="&#xb5;" horiz-adv-x="602" 
d="M555 86l28 2v-88q-30 -8 -62 -8q-72 0 -100 55q-45 -58 -123 -58q-74 0 -117 52v-221h-105v671h105v-288q0 -52 30.5 -85t78.5 -33q49 0 79.5 33t30.5 85v288h105v-337q0 -68 50 -68z" />
    <glyph glyph-name="paragraph" unicode="&#xb6;" horiz-adv-x="588" 
d="M36 445q0 96 68.5 155.5t173.5 59.5h60v-433h-60q-104 0 -173 60.5t-69 157.5zM237 -180v90q24 -2 26 -2q21 -3 39 -3q50 0 74 21t24 70v664h105v-674q0 -177 -182 -177q-36 0 -86 11z" />
    <glyph glyph-name="middot" unicode="&#xb7;" horiz-adv-x="280" 
d="M62 317q0 33 23 55.5t56 22.5t55 -22t22 -56q0 -33 -22 -55t-55 -22t-56 22t-23 55z" />
    <glyph glyph-name="cedilla" unicode="&#xb8;" horiz-adv-x="600" 
d="M193 -182v72q36 -3 57 -3q33 0 52 16t19 45q0 32 -24 66l43 21q67 -34 67 -106q0 -52 -39 -86t-104 -34q-34 0 -71 9z" />
    <glyph glyph-name="uni00B9" unicode="&#xb9;" horiz-adv-x="361" 
d="M45 364v75h104v266h-98v75h181v-341h88v-75h-275z" />
    <glyph glyph-name="ordmasculine" unicode="&#xba;" horiz-adv-x="401" 
d="M34 399q0 69 48 116t118 47q69 0 118 -47t49 -116q0 -67 -49 -114.5t-118 -47.5q-70 0 -118 47t-48 115zM283 399q0 38 -23 62.5t-60 24.5t-59.5 -24t-22.5 -63q0 -38 22.5 -62t59.5 -24t60 24t23 62z" />
    <glyph glyph-name="guillemotright" unicode="&#xbb;" horiz-adv-x="550" 
d="M103 58l-68 59l138 155l-138 153l68 60l186 -199v-29zM330 58l-68 59l138 155l-138 153l68 60l186 -199v-29z" />
    <glyph glyph-name="onequarter" unicode="&#xbc;" horiz-adv-x="911" 
d="M45 244v75h104v266h-98v75h181v-341h88v-75h-275zM249 0l379 660h89l-379 -660h-89zM897 137v-68h-53v-69h-76v69h-209v22l127 325h85l-110 -279h107l1 120h75v-120h53z" />
    <glyph glyph-name="onehalf" unicode="&#xbd;" horiz-adv-x="947" 
d="M45 244v75h104v266h-98v75h181v-341h88v-75h-275zM249 0l379 660h89l-379 -660h-89zM754 75h153v-75h-303v18l148 160q32 34 45 57t13 49q0 27 -16 45t-42 18q-27 0 -43.5 -18t-16.5 -47q0 -2 0.5 -6t1 -11.5t0.5 -13.5h-82q-4 15 -4 36q0 55 41 95.5t103 40.5
q61 0 102 -38t41 -94q0 -40 -20.5 -75.5t-68.5 -86.5z" />
    <glyph glyph-name="threequarters" unicode="&#xbe;" horiz-adv-x="872" 
d="M320 380q0 -62 -45.5 -102.5t-109.5 -40.5q-50 0 -89.5 25t-60.5 68l58 41q36 -58 89 -58q33 0 53 18.5t20 48.5q0 61 -86 61h-45v21l88 123h-146v75h266v-23l-92 -130q43 -10 71.5 -44t28.5 -83zM210 0l379 660h89l-379 -660h-89zM858 137v-68h-53v-69h-76v69h-209v22
l127 325h85l-110 -279h107l1 120h75v-120h53z" />
    <glyph glyph-name="questiondown" unicode="&#xbf;" horiz-adv-x="447" 
d="M157 424q0 33 22.5 55.5t55.5 22.5t55.5 -22t22.5 -56q0 -33 -22.5 -55.5t-55.5 -22.5q-32 0 -55 22.5t-23 55.5zM39 -17q0 47 21 82.5t68 75.5q41 37 55.5 56.5t14.5 41.5q0 15 -3 26h91q10 -23 10 -45q0 -31 -18 -56.5t-62 -65.5q-38 -35 -53.5 -58.5t-15.5 -50.5
q0 -36 24 -59.5t58 -23.5q67 0 97 86l87 -38q-20 -70 -69 -107.5t-118 -37.5q-78 0 -132.5 49.5t-54.5 124.5z" />
    <glyph glyph-name="Agrave" unicode="&#xc0;" horiz-adv-x="662" 
d="M526 0l-47 110h-297l-47 -110h-113l291 671h36l291 -671h-114zM441 201l-110 273l-111 -273h221zM293 724l-129 167v19h128l79 -186h-78z" />
    <glyph glyph-name="Aacute" unicode="&#xc1;" horiz-adv-x="662" 
d="M526 0l-47 110h-297l-47 -110h-113l291 671h36l291 -671h-114zM441 201l-110 273l-111 -273h221zM290 724l79 186h128v-19l-129 -167h-78z" />
    <glyph glyph-name="Acircumflex" unicode="&#xc2;" horiz-adv-x="662" 
d="M526 0l-47 110h-297l-47 -110h-113l291 671h36l291 -671h-114zM441 201l-110 273l-111 -273h221zM512 724h-81l-100 94l-101 -94h-81l148 186h67z" />
    <glyph glyph-name="Atilde" unicode="&#xc3;" horiz-adv-x="662" 
d="M526 0l-47 110h-297l-47 -110h-113l291 671h36l291 -671h-114zM441 201l-110 273l-111 -273h221zM339 757l-32 18q-30 18 -44 18q-28 0 -28 -36v-13h-84q-2 24 -2 29q0 51 28.5 84t72.5 33q37 0 72 -22l33 -20q33 -18 44 -18q28 0 28 35v15h84q2 -24 2 -29
q0 -51 -28.5 -84t-71.5 -33q-34 0 -74 23z" />
    <glyph glyph-name="Adieresis" unicode="&#xc4;" horiz-adv-x="662" 
d="M526 0l-47 110h-297l-47 -110h-113l291 671h36l291 -671h-114zM441 201l-110 273l-111 -273h221zM140 812q0 27 20.5 46t47.5 19q29 0 48.5 -18.5t19.5 -46.5q0 -26 -20 -45.5t-48 -19.5q-27 0 -47.5 19.5t-20.5 45.5zM385 811q0 27 20.5 46.5t47.5 19.5q28 0 48 -19
t20 -47q0 -26 -20 -45.5t-48 -19.5q-27 0 -47.5 19.5t-20.5 45.5z" />
    <glyph glyph-name="Aring" unicode="&#xc5;" horiz-adv-x="662" 
d="M526 0l-47 110h-297l-47 -110h-113l291 671h36l291 -671h-114zM441 201l-110 273l-111 -273h221zM212 802q0 48 33.5 81.5t84.5 33.5t85 -33.5t34 -81.5q0 -49 -34 -82t-85 -33t-84.5 33t-33.5 82zM376 802q0 20 -13 33t-32 13q-20 0 -33 -13t-13 -33t13 -33t33 -13
q19 0 32 13t13 33z" />
    <glyph glyph-name="AE" unicode="&#xc6;" horiz-adv-x="836" 
d="M551 95h245v-95h-334l-19 110h-262l-58 -110h-114l342 660h433v-95h-311l28 -169h203v-92h-188zM379 505l-151 -304h199z" />
    <glyph glyph-name="Ccedilla" unicode="&#xc7;" horiz-adv-x="717" 
d="M43 330q-3 141 101 242t246 99q90 0 165 -41t118 -111l-80 -59q-73 114 -202 114q-102 0 -170 -69.5t-68 -174.5t68 -174.5t170 -69.5q129 0 202 114l80 -59q-43 -71 -117.5 -111.5t-165.5 -40.5q-142 -2 -246 99t-101 242zM263 -182v72q36 -3 57 -3q33 0 52 16t19 45
q0 32 -24 66l43 21q67 -34 67 -106q0 -52 -39 -86t-104 -34q-33 0 -71 9z" />
    <glyph glyph-name="Egrave" unicode="&#xc8;" horiz-adv-x="569" 
d="M83 0v660h434v-95h-328v-169h247v-92h-247v-209h340v-95h-446zM261 724l-129 167v19h128l79 -186h-78z" />
    <glyph glyph-name="Eacute" unicode="&#xc9;" horiz-adv-x="569" 
d="M83 0v660h434v-95h-328v-169h247v-92h-247v-209h340v-95h-446zM258 724l79 186h128v-19l-129 -167h-78z" />
    <glyph glyph-name="Ecircumflex" unicode="&#xca;" horiz-adv-x="569" 
d="M83 0v660h434v-95h-328v-169h247v-92h-247v-209h340v-95h-446zM480 724h-81l-100 94l-101 -94h-81l148 186h67z" />
    <glyph glyph-name="Edieresis" unicode="&#xcb;" horiz-adv-x="569" 
d="M83 0v660h434v-95h-328v-169h247v-92h-247v-209h340v-95h-446zM108 812q0 27 20.5 46t47.5 19q29 0 48.5 -18.5t19.5 -46.5q0 -26 -20 -45.5t-48 -19.5q-27 0 -47.5 19.5t-20.5 45.5zM353 811q0 27 20.5 46.5t47.5 19.5q28 0 48 -19t20 -47q0 -26 -20 -45.5t-48 -19.5
q-27 0 -47.5 19.5t-20.5 45.5z" />
    <glyph glyph-name="Igrave" unicode="&#xcc;" horiz-adv-x="272" 
d="M83 0v660h106v-660h-106zM99 724l-129 167v19h128l79 -186h-78z" />
    <glyph glyph-name="Iacute" unicode="&#xcd;" horiz-adv-x="272" 
d="M83 0v660h106v-660h-106zM96 724l79 186h128v-19l-129 -167h-78z" />
    <glyph glyph-name="Icircumflex" unicode="&#xce;" horiz-adv-x="272" 
d="M83 0v660h106v-660h-106zM318 724h-81l-100 94l-101 -94h-81l148 186h67z" />
    <glyph glyph-name="Idieresis" unicode="&#xcf;" horiz-adv-x="272" 
d="M83 0v660h106v-660h-106zM-54 812q0 27 20.5 46t47.5 19q29 0 48.5 -18.5t19.5 -46.5q0 -26 -20 -45.5t-48 -19.5q-27 0 -47.5 19.5t-20.5 45.5zM191 811q0 27 20.5 46.5t47.5 19.5q28 0 48 -19t20 -47q0 -26 -20 -45.5t-48 -19.5q-27 0 -47.5 19.5t-20.5 45.5z" />
    <glyph glyph-name="Eth" unicode="&#xd0;" horiz-adv-x="692" 
d="M649 331q0 -145 -99.5 -238t-259.5 -93h-207v265h-89v90h89v305h207q161 0 260 -91t99 -238zM540 331q0 106 -68 169.5t-183 63.5h-100v-209h120v-90h-120v-170h100q114 0 182.5 65.5t68.5 170.5z" />
    <glyph glyph-name="Ntilde" unicode="&#xd1;" horiz-adv-x="711" 
d="M521 660h106v-671h-36l-402 458v-447h-106v671h37l401 -456v445zM363 757l-32 18q-30 18 -44 18q-28 0 -28 -36v-13h-84q-2 24 -2 29q0 51 28.5 84t72.5 33q37 0 72 -22l33 -20q33 -18 44 -18q28 0 28 35v15h84q2 -24 2 -29q0 -51 -28.5 -84t-71.5 -33q-34 0 -74 23z" />
    <glyph glyph-name="Ograve" unicode="&#xd2;" horiz-adv-x="780" 
d="M43 330q-2 141 101 242t245 99q141 2 245.5 -99t101.5 -242q3 -141 -101.5 -242t-245.5 -99q-142 -2 -245.5 99t-100.5 242zM627 331q0 104 -68 173.5t-169 69.5q-102 0 -169.5 -69t-67.5 -174q0 -106 67 -175.5t170 -69.5q101 0 169 70t68 175zM352 724l-129 167v19h128
l79 -186h-78z" />
    <glyph glyph-name="Oacute" unicode="&#xd3;" horiz-adv-x="780" 
d="M43 330q-2 141 101 242t245 99q141 2 245.5 -99t101.5 -242q3 -141 -101.5 -242t-245.5 -99q-142 -2 -245.5 99t-100.5 242zM627 331q0 104 -68 173.5t-169 69.5q-102 0 -169.5 -69t-67.5 -174q0 -106 67 -175.5t170 -69.5q101 0 169 70t68 175zM349 724l79 186h128v-19
l-129 -167h-78z" />
    <glyph glyph-name="Ocircumflex" unicode="&#xd4;" horiz-adv-x="780" 
d="M43 330q-2 141 101 242t245 99q141 2 245.5 -99t101.5 -242q3 -141 -101.5 -242t-245.5 -99q-142 -2 -245.5 99t-100.5 242zM627 331q0 104 -68 173.5t-169 69.5q-102 0 -169.5 -69t-67.5 -174q0 -106 67 -175.5t170 -69.5q101 0 169 70t68 175zM571 724h-81l-100 94
l-101 -94h-81l148 186h67z" />
    <glyph glyph-name="Otilde" unicode="&#xd5;" horiz-adv-x="780" 
d="M43 330q-2 141 101 242t245 99q141 2 245.5 -99t101.5 -242q3 -141 -101.5 -242t-245.5 -99q-142 -2 -245.5 99t-100.5 242zM627 331q0 104 -68 173.5t-169 69.5q-102 0 -169.5 -69t-67.5 -174q0 -106 67 -175.5t170 -69.5q101 0 169 70t68 175zM398 757l-32 18
q-30 18 -44 18q-28 0 -28 -36v-13h-84q-2 24 -2 29q0 51 28.5 84t72.5 33q37 0 72 -22l33 -20q33 -18 44 -18q28 0 28 35v15h84q2 -24 2 -29q0 -51 -28.5 -84t-71.5 -33q-34 0 -74 23z" />
    <glyph glyph-name="Odieresis" unicode="&#xd6;" horiz-adv-x="780" 
d="M43 330q-2 141 101 242t245 99q141 2 245.5 -99t101.5 -242q3 -141 -101.5 -242t-245.5 -99q-142 -2 -245.5 99t-100.5 242zM627 331q0 104 -68 173.5t-169 69.5q-102 0 -169.5 -69t-67.5 -174q0 -106 67 -175.5t170 -69.5q101 0 169 70t68 175zM199 812q0 27 20.5 46
t47.5 19q29 0 48.5 -18.5t19.5 -46.5q0 -26 -20 -45.5t-48 -19.5q-27 0 -47.5 19.5t-20.5 45.5zM444 811q0 27 20.5 46.5t47.5 19.5q28 0 48 -19t20 -47q0 -26 -20 -45.5t-48 -19.5q-27 0 -47.5 19.5t-20.5 45.5z" />
    <glyph glyph-name="multiply" unicode="&#xd7;" 
d="M128 104l-63 63l151 152l-151 152l63 63l152 -151l152 151l63 -63l-152 -152l152 -152l-63 -63l-152 151z" />
    <glyph glyph-name="Oslash" unicode="&#xd8;" horiz-adv-x="780" 
d="M743 620l-80 -80q73 -89 73 -210q3 -141 -101.5 -242t-245.5 -99q-116 0 -208 67l-80 -80l-64 64l78 79q-72 94 -72 211q-2 141 101 242t245 99q116 0 210 -68l80 81zM148 331q0 -79 39 -140l343 344q-61 43 -140 43q-104 0 -173 -70.5t-69 -176.5zM631 331q0 77 -39 138
l-343 -344q61 -43 141 -43q103 0 172 70.5t69 178.5z" />
    <glyph glyph-name="Ugrave" unicode="&#xd9;" horiz-adv-x="694" 
d="M76 267v393h106v-400q0 -82 45.5 -128t120.5 -46q74 0 119 46t45 128v400h106v-393q0 -128 -75.5 -203t-194.5 -75q-121 0 -196.5 75t-75.5 203zM309 724l-129 167v19h128l79 -186h-78z" />
    <glyph glyph-name="Uacute" unicode="&#xda;" horiz-adv-x="694" 
d="M76 267v393h106v-400q0 -82 45.5 -128t120.5 -46q74 0 119 46t45 128v400h106v-393q0 -128 -75.5 -203t-194.5 -75q-121 0 -196.5 75t-75.5 203zM306 724l79 186h128v-19l-129 -167h-78z" />
    <glyph glyph-name="Ucircumflex" unicode="&#xdb;" horiz-adv-x="694" 
d="M76 267v393h106v-400q0 -82 45.5 -128t120.5 -46q74 0 119 46t45 128v400h106v-393q0 -128 -75.5 -203t-194.5 -75q-121 0 -196.5 75t-75.5 203zM528 724h-81l-100 94l-101 -94h-81l148 186h67z" />
    <glyph glyph-name="Udieresis" unicode="&#xdc;" horiz-adv-x="694" 
d="M76 267v393h106v-400q0 -82 45.5 -128t120.5 -46q74 0 119 46t45 128v400h106v-393q0 -128 -75.5 -203t-194.5 -75q-121 0 -196.5 75t-75.5 203zM156 812q0 27 20.5 46t47.5 19q29 0 48.5 -18.5t19.5 -46.5q0 -26 -20 -45.5t-48 -19.5q-27 0 -47.5 19.5t-20.5 45.5z
M401 811q0 27 20.5 46.5t47.5 19.5q28 0 48 -19t20 -47q0 -26 -20 -45.5t-48 -19.5q-27 0 -47.5 19.5t-20.5 45.5z" />
    <glyph glyph-name="Yacute" unicode="&#xdd;" horiz-adv-x="620" 
d="M591 660l-228 -394v-266h-106v266l-228 394h118l163 -287l164 287h117zM267 724l79 186h128v-19l-129 -167h-78z" />
    <glyph glyph-name="Thorn" unicode="&#xde;" horiz-adv-x="583" 
d="M83 0v660h106v-110h135q100 0 162 -56.5t62 -148.5q0 -91 -62.5 -149t-161.5 -58h-135v-138h-106zM189 232h133q55 0 86 30.5t31 81.5q0 52 -30.5 82t-86.5 30h-133v-224z" />
    <glyph glyph-name="germandbls" unicode="&#xdf;" horiz-adv-x="630" 
d="M254 53l48 75q61 -47 126 -47q71 0 71 51q0 23 -18 39t-64 43q-56 32 -80.5 60t-24.5 63q0 33 18 76l38 102q15 37 15 69q0 37 -23 59t-64 22q-53 0 -84.5 -36t-31.5 -103v-526h-104v531q0 107 61 168.5t164 61.5q86 0 137 -41.5t51 -112.5q0 -39 -15 -80l-39 -107
q-16 -39 -16 -61q0 -23 19 -39.5t62 -41.5q56 -35 80 -66.5t24 -76.5q0 -66 -50 -106t-129 -40q-100 0 -171 64z" />
    <glyph glyph-name="agrave" unicode="&#xe0;" horiz-adv-x="536" 
d="M466 297v-297h-98v55q-55 -66 -157 -66q-77 0 -124 39t-47 103t49 102t132 38h139v32q0 51 -27.5 78t-77.5 27q-75 0 -136 -73l-61 62q72 105 207 105q92 0 146.5 -54t54.5 -151zM360 186v9h-126q-87 0 -87 -60q0 -30 23.5 -47.5t62.5 -17.5q54 0 90.5 33t36.5 83z
M226 568l-129 193v19h128l79 -212h-78z" />
    <glyph glyph-name="aacute" unicode="&#xe1;" horiz-adv-x="536" 
d="M466 297v-297h-98v55q-55 -66 -157 -66q-77 0 -124 39t-47 103t49 102t132 38h139v32q0 51 -27.5 78t-77.5 27q-75 0 -136 -73l-61 62q72 105 207 105q92 0 146.5 -54t54.5 -151zM360 186v9h-126q-87 0 -87 -60q0 -30 23.5 -47.5t62.5 -17.5q54 0 90.5 33t36.5 83z
M226 568l79 212h128v-19l-129 -193h-78z" />
    <glyph glyph-name="acircumflex" unicode="&#xe2;" horiz-adv-x="536" 
d="M466 297v-297h-98v55q-55 -66 -157 -66q-77 0 -124 39t-47 103t49 102t132 38h139v32q0 51 -27.5 78t-77.5 27q-75 0 -136 -73l-61 62q72 105 207 105q92 0 146.5 -54t54.5 -151zM360 186v9h-126q-87 0 -87 -60q0 -30 23.5 -47.5t62.5 -17.5q54 0 90.5 33t36.5 83z
M433 568h-78l-90 109l-91 -109h-79l136 212h67z" />
    <glyph glyph-name="atilde" unicode="&#xe3;" horiz-adv-x="536" 
d="M466 297v-297h-98v55q-55 -66 -157 -66q-77 0 -124 39t-47 103t49 102t132 38h139v32q0 51 -27.5 78t-77.5 27q-75 0 -136 -73l-61 62q72 105 207 105q92 0 146.5 -54t54.5 -151zM360 186v9h-126q-87 0 -87 -60q0 -30 23.5 -47.5t62.5 -17.5q54 0 90.5 33t36.5 83z
M270 611l-27 20q-28 21 -41 21q-28 0 -28 -38v-14h-83q-2 26 -2 29q0 53 27.5 86t71.5 33q37 0 70 -24l27 -20q26 -20 41 -20q28 0 28 38v14h83q1 -7 1 -29q0 -53 -27.5 -86.5t-71.5 -33.5q-35 0 -69 24z" />
    <glyph glyph-name="adieresis" unicode="&#xe4;" horiz-adv-x="536" 
d="M466 297v-297h-98v55q-55 -66 -157 -66q-77 0 -124 39t-47 103t49 102t132 38h139v32q0 51 -27.5 78t-77.5 27q-75 0 -136 -73l-61 62q72 105 207 105q92 0 146.5 -54t54.5 -151zM360 186v9h-126q-87 0 -87 -60q0 -30 23.5 -47.5t62.5 -17.5q54 0 90.5 33t36.5 83z
M83 674q0 27 20.5 46.5t48.5 19.5t47.5 -19t19.5 -47q0 -26 -19.5 -45.5t-47.5 -19.5t-48.5 19.5t-20.5 45.5zM308 674q0 27 20.5 46.5t48.5 19.5q27 0 47 -19.5t20 -46.5q0 -26 -20 -45.5t-47 -19.5q-28 0 -48.5 19.5t-20.5 45.5z" />
    <glyph glyph-name="aring" unicode="&#xe5;" horiz-adv-x="536" 
d="M466 297v-297h-98v55q-55 -66 -157 -66q-77 0 -124 39t-47 103t49 102t132 38h139v32q0 51 -27.5 78t-77.5 27q-75 0 -136 -73l-61 62q72 105 207 105q92 0 146.5 -54t54.5 -151zM360 186v9h-126q-87 0 -87 -60q0 -30 23.5 -47.5t62.5 -17.5q54 0 90.5 33t36.5 83z
M145 669q0 49 34 82q34 34 84 34q51 0 85 -33t34 -83q0 -49 -34 -82t-85 -33q-50 0 -84 33t-34 82zM309 669q0 20 -13 33.5t-32 13.5q-20 0 -33 -13.5t-13 -33.5q0 -19 13 -32t33 -13q19 0 32 13t13 32z" />
    <glyph glyph-name="ae" unicode="&#xe6;" horiz-adv-x="887" 
d="M834 204h-365q12 -57 54.5 -89.5t104.5 -32.5q78 0 142 57l51 -71q-81 -79 -195 -79q-68 0 -122.5 28.5t-88.5 79.5q-27 -53 -78.5 -80.5t-119.5 -27.5q-81 0 -129 40t-48 104q0 67 49.5 107t131.5 40h139v23q0 51 -27.5 78t-76.5 27q-74 0 -136 -73l-61 62
q75 105 206 105q116 0 165 -87q70 87 186 87q98 0 162 -64.5t64 -161.5q0 -42 -8 -72zM467 280h270q4 60 -32 96.5t-93 36.5q-56 0 -95.5 -36.5t-49.5 -96.5zM360 185v19h-126q-87 0 -87 -63q0 -33 23.5 -51.5t62.5 -18.5q52 0 90 32q37 33 37 82z" />
    <glyph glyph-name="ccedilla" unicode="&#xe7;" horiz-adv-x="552" 
d="M45 246q-2 105 76 181.5t184 74.5q138 0 207 -114l-74 -58q-52 75 -132 75q-66 0 -110 -46t-44 -113q0 -68 44 -114t110 -46q78 0 132 74l74 -57q-33 -54 -87 -84t-120 -30q-109 0 -184.5 75t-75.5 182zM168 -182v72q36 -3 57 -3q33 0 52 16t19 45q0 32 -24 66l43 21
q67 -34 67 -106q0 -52 -39 -86t-104 -34q-33 0 -71 9z" />
    <glyph glyph-name="egrave" unicode="&#xe8;" horiz-adv-x="570" 
d="M518 211h-366q10 -60 53.5 -94.5t106.5 -34.5q78 0 143 58l50 -72q-83 -79 -196 -79q-112 0 -188 73.5t-76 182.5q-2 106 74 182.5t180 74.5q97 0 162 -64.5t65 -160.5q0 -29 -8 -66zM154 293h267q-1 55 -37 87.5t-89 32.5q-52 0 -90.5 -32.5t-50.5 -87.5zM259 568
l-129 193v19h128l79 -212h-78z" />
    <glyph glyph-name="eacute" unicode="&#xe9;" horiz-adv-x="570" 
d="M518 211h-366q10 -60 53.5 -94.5t106.5 -34.5q78 0 143 58l50 -72q-83 -79 -196 -79q-112 0 -188 73.5t-76 182.5q-2 106 74 182.5t180 74.5q97 0 162 -64.5t65 -160.5q0 -29 -8 -66zM154 293h267q-1 55 -37 87.5t-89 32.5q-52 0 -90.5 -32.5t-50.5 -87.5zM259 568
l79 212h128v-19l-129 -193h-78z" />
    <glyph glyph-name="ecircumflex" unicode="&#xea;" horiz-adv-x="570" 
d="M518 211h-366q10 -60 53.5 -94.5t106.5 -34.5q78 0 143 58l50 -72q-83 -79 -196 -79q-112 0 -188 73.5t-76 182.5q-2 106 74 182.5t180 74.5q97 0 162 -64.5t65 -160.5q0 -29 -8 -66zM154 293h267q-1 55 -37 87.5t-89 32.5q-52 0 -90.5 -32.5t-50.5 -87.5zM466 568h-78
l-90 109l-91 -109h-79l136 212h67z" />
    <glyph glyph-name="edieresis" unicode="&#xeb;" horiz-adv-x="570" 
d="M518 211h-366q10 -60 53.5 -94.5t106.5 -34.5q78 0 143 58l50 -72q-83 -79 -196 -79q-112 0 -188 73.5t-76 182.5q-2 106 74 182.5t180 74.5q97 0 162 -64.5t65 -160.5q0 -29 -8 -66zM154 293h267q-1 55 -37 87.5t-89 32.5q-52 0 -90.5 -32.5t-50.5 -87.5zM116 674
q0 27 20.5 46.5t48.5 19.5t47.5 -19t19.5 -47q0 -26 -19.5 -45.5t-47.5 -19.5t-48.5 19.5t-20.5 45.5zM341 674q0 27 20.5 46.5t48.5 19.5q27 0 47 -19.5t20 -46.5q0 -26 -20 -45.5t-47 -19.5q-28 0 -48.5 19.5t-20.5 45.5z" />
    <glyph glyph-name="igrave" unicode="&#xec;" horiz-adv-x="257" 
d="M76 0v491h105v-491h-105zM92 568l-99 193v19h128l49 -212h-78z" />
    <glyph glyph-name="iacute" unicode="&#xed;" horiz-adv-x="257" 
d="M76 0v491h105v-491h-105zM89 568l49 212h128v-19l-99 -193h-78z" />
    <glyph glyph-name="icircumflex" unicode="&#xee;" horiz-adv-x="257" 
d="M76 0v491h105v-491h-105zM298 568h-78l-90 109l-91 -109h-79l136 212h67z" />
    <glyph glyph-name="idieresis" unicode="&#xef;" horiz-adv-x="257" 
d="M76 0v491h105v-491h-105zM-39 674q0 27 20 46.5t47 19.5q29 0 48.5 -19t19.5 -47q0 -26 -20 -45.5t-48 -19.5q-26 0 -46.5 19.5t-20.5 45.5zM161 674q0 27 20.5 46.5t47.5 19.5q28 0 48 -19t20 -47q0 -26 -20 -45.5t-48 -19.5q-27 0 -47.5 19.5t-20.5 45.5z" />
    <glyph glyph-name="eth" unicode="&#xf0;" horiz-adv-x="571" 
d="M526 224q0 -101 -68.5 -168t-171.5 -67q-104 0 -172.5 66t-68.5 163q0 96 66.5 160.5t161.5 64.5q8 0 34 -2l-80 110l-143 -69l-37 76l129 63l-60 82l80 58l72 -96l154 75l38 -75l-141 -69l94 -126q35 -47 61 -87q52 -79 52 -159zM419 219q0 58 -38 96t-96 38t-95.5 -38
t-37.5 -97t37.5 -96.5t95.5 -37.5t96 38t38 97z" />
    <glyph glyph-name="ntilde" unicode="&#xf1;" horiz-adv-x="575" 
d="M505 307v-307h-105v293q0 51 -29.5 82.5t-77.5 31.5q-49 0 -80.5 -32t-31.5 -82v-293h-105v491h98v-48q56 59 147 59q85 0 134.5 -53t49.5 -142zM289 611l-27 20q-28 21 -41 21q-28 0 -28 -38v-14h-83q-2 26 -2 29q0 53 27.5 86t71.5 33q37 0 70 -24l27 -20
q26 -20 41 -20q28 0 28 38v14h83q1 -7 1 -29q0 -53 -27.5 -86.5t-71.5 -33.5q-35 0 -69 24z" />
    <glyph glyph-name="ograve" unicode="&#xf2;" horiz-adv-x="609" 
d="M45 246q-2 105 75.5 181.5t183.5 74.5q107 2 185 -75t76 -181q2 -105 -76 -182t-185 -75q-106 -2 -183.5 75.5t-75.5 181.5zM457 245q0 68 -44 114.5t-108 46.5q-65 0 -109 -46.5t-44 -114.5t43.5 -113.5t108.5 -45.5t109 46t44 113zM266 568l-129 193v19h128l79 -212
h-78z" />
    <glyph glyph-name="oacute" unicode="&#xf3;" horiz-adv-x="609" 
d="M45 246q-2 105 75.5 181.5t183.5 74.5q107 2 185 -75t76 -181q2 -105 -76 -182t-185 -75q-106 -2 -183.5 75.5t-75.5 181.5zM457 245q0 68 -44 114.5t-108 46.5q-65 0 -109 -46.5t-44 -114.5t43.5 -113.5t108.5 -45.5t109 46t44 113zM267 568l79 212h128v-19l-129 -193
h-78z" />
    <glyph glyph-name="ocircumflex" unicode="&#xf4;" horiz-adv-x="609" 
d="M45 246q-2 105 75.5 181.5t183.5 74.5q107 2 185 -75t76 -181q2 -105 -76 -182t-185 -75q-106 -2 -183.5 75.5t-75.5 181.5zM457 245q0 68 -44 114.5t-108 46.5q-65 0 -109 -46.5t-44 -114.5t43.5 -113.5t108.5 -45.5t109 46t44 113zM474 568h-78l-90 109l-91 -109h-79
l136 212h67z" />
    <glyph glyph-name="otilde" unicode="&#xf5;" horiz-adv-x="609" 
d="M45 246q-2 105 75.5 181.5t183.5 74.5q107 2 185 -75t76 -181q2 -105 -76 -182t-185 -75q-106 -2 -183.5 75.5t-75.5 181.5zM457 245q0 68 -44 114.5t-108 46.5q-65 0 -109 -46.5t-44 -114.5t43.5 -113.5t108.5 -45.5t109 46t44 113zM311 611l-27 20q-28 21 -41 21
q-28 0 -28 -38v-14h-83q-2 26 -2 29q0 53 27.5 86t71.5 33q37 0 70 -24l27 -20q26 -20 41 -20q28 0 28 38v14h83q1 -7 1 -29q0 -53 -27.5 -86.5t-71.5 -33.5q-35 0 -69 24z" />
    <glyph glyph-name="odieresis" unicode="&#xf6;" horiz-adv-x="609" 
d="M45 246q-2 105 75.5 181.5t183.5 74.5q107 2 185 -75t76 -181q2 -105 -76 -182t-185 -75q-106 -2 -183.5 75.5t-75.5 181.5zM457 245q0 68 -44 114.5t-108 46.5q-65 0 -109 -46.5t-44 -114.5t43.5 -113.5t108.5 -45.5t109 46t44 113zM124 674q0 27 20.5 46.5t48.5 19.5
t47.5 -19t19.5 -47q0 -26 -19.5 -45.5t-47.5 -19.5t-48.5 19.5t-20.5 45.5zM349 674q0 27 20.5 46.5t48.5 19.5q27 0 47 -19.5t20 -46.5q0 -26 -20 -45.5t-47 -19.5q-28 0 -48.5 19.5t-20.5 45.5z" />
    <glyph glyph-name="divide" unicode="&#xf7;" 
d="M210 499q0 27 20 46t48 19q29 0 48.5 -18.5t19.5 -46.5q0 -27 -20 -46t-48 -19t-48 19t-20 46zM50 272v91h459v-91h-459zM210 134q0 27 20 46t48 19q29 0 48.5 -18.5t19.5 -46.5t-19.5 -46.5t-48.5 -18.5q-28 0 -48 19t-20 46z" />
    <glyph glyph-name="oslash" unicode="&#xf8;" horiz-adv-x="616" 
d="M577 450l-56 -56q47 -67 47 -149q2 -104 -76.5 -181t-184.5 -75q-80 0 -147 44l-56 -57l-64 64l56 56q-48 67 -48 149q0 107 75.5 182t184.5 75q80 0 148 -45l57 56zM148 245q0 -49 21 -85l226 227q-41 24 -87 24q-70 0 -115 -47q-45 -46 -45 -119zM468 245q0 47 -20 85
l-228 -227q38 -25 87 -25q69 0 115 47.5t46 119.5z" />
    <glyph glyph-name="ugrave" unicode="&#xf9;" horiz-adv-x="570" 
d="M71 206v285h104v-293q0 -50 31 -81t80 -31q47 0 77.5 31t30.5 81v293h105v-285q0 -97 -60.5 -157t-152.5 -60q-94 0 -154.5 59.5t-60.5 157.5zM246 568l-129 193v19h128l79 -212h-78z" />
    <glyph glyph-name="uacute" unicode="&#xfa;" horiz-adv-x="570" 
d="M71 206v285h104v-293q0 -50 31 -81t80 -31q47 0 77.5 31t30.5 81v293h105v-285q0 -97 -60.5 -157t-152.5 -60q-94 0 -154.5 59.5t-60.5 157.5zM247 568l79 212h128v-19l-129 -193h-78z" />
    <glyph glyph-name="ucircumflex" unicode="&#xfb;" horiz-adv-x="570" 
d="M71 206v285h104v-293q0 -50 31 -81t80 -31q47 0 77.5 31t30.5 81v293h105v-285q0 -97 -60.5 -157t-152.5 -60q-94 0 -154.5 59.5t-60.5 157.5zM454 568h-78l-90 109l-91 -109h-79l136 212h67z" />
    <glyph glyph-name="udieresis" unicode="&#xfc;" horiz-adv-x="570" 
d="M71 206v285h104v-293q0 -50 31 -81t80 -31q47 0 77.5 31t30.5 81v293h105v-285q0 -97 -60.5 -157t-152.5 -60q-94 0 -154.5 59.5t-60.5 157.5zM104 674q0 27 20.5 46.5t48.5 19.5t47.5 -19t19.5 -47q0 -26 -19.5 -45.5t-47.5 -19.5t-48.5 19.5t-20.5 45.5zM329 674
q0 27 20.5 46.5t48.5 19.5q27 0 47 -19.5t20 -46.5q0 -26 -20 -45.5t-47 -19.5q-28 0 -48.5 19.5t-20.5 45.5z" />
    <glyph glyph-name="yacute" unicode="&#xfd;" horiz-adv-x="549" 
d="M418 491h112l-239 -547q-31 -70 -74 -102.5t-106 -32.5q-42 0 -81 10v89q41 -4 58 -4q76 0 107 72l20 46l-196 469h113l141 -357zM234 568l79 212h128v-19l-129 -193h-78z" />
    <glyph glyph-name="thorn" unicode="&#xfe;" horiz-adv-x="631" 
d="M586 246q0 -110 -68.5 -183.5t-172.5 -73.5q-102 0 -164 71v-240h-105v930h105v-319q58 71 164 71q104 0 172.5 -73.5t68.5 -182.5zM478 245q0 70 -43 115.5t-107 45.5q-62 0 -105 -42t-43 -118q0 -77 43 -119t105 -42q64 0 107 45t43 115z" />
    <glyph glyph-name="ydieresis" unicode="&#xff;" horiz-adv-x="549" 
d="M418 491h112l-239 -547q-31 -70 -74 -102.5t-106 -32.5q-42 0 -81 10v89q41 -4 58 -4q76 0 107 72l20 46l-196 469h113l141 -357zM92 674q0 27 20.5 46.5t48.5 19.5t47.5 -19t19.5 -47q0 -26 -19.5 -45.5t-47.5 -19.5t-48.5 19.5t-20.5 45.5zM317 674q0 27 20.5 46.5
t48.5 19.5q27 0 47 -19.5t20 -46.5q0 -26 -20 -45.5t-47 -19.5q-28 0 -48.5 19.5t-20.5 45.5z" />
    <glyph glyph-name="Amacron" unicode="&#x100;" horiz-adv-x="662" 
d="M526 0l-47 110h-297l-47 -110h-113l291 671h36l291 -671h-114zM441 201l-110 273l-111 -273h221zM177 762v85h308v-85h-308z" />
    <glyph glyph-name="amacron" unicode="&#x101;" horiz-adv-x="536" 
d="M466 297v-297h-98v55q-55 -66 -157 -66q-77 0 -124 39t-47 103t49 102t132 38h139v32q0 51 -27.5 78t-77.5 27q-75 0 -136 -73l-61 62q72 105 207 105q92 0 146.5 -54t54.5 -151zM360 186v9h-126q-87 0 -87 -60q0 -30 23.5 -47.5t62.5 -17.5q54 0 90.5 33t36.5 83z
M120 632v84h288v-84h-288z" />
    <glyph glyph-name="Abreve" unicode="&#x102;" horiz-adv-x="662" 
d="M526 0l-47 110h-297l-47 -110h-113l291 671h36l291 -671h-114zM441 201l-110 273l-111 -273h221zM169 890v20h84v-20q0 -40 21 -63.5t56 -23.5q36 0 57 23.5t21 63.5v20h85v-20q0 -75 -46 -121q-45 -46 -117 -46t-116.5 46t-44.5 121z" />
    <glyph glyph-name="abreve" unicode="&#x103;" horiz-adv-x="536" 
d="M466 297v-297h-98v55q-55 -66 -157 -66q-77 0 -124 39t-47 103t49 102t132 38h139v32q0 51 -27.5 78t-77.5 27q-75 0 -136 -73l-61 62q72 105 207 105q92 0 146.5 -54t54.5 -151zM360 186v9h-126q-87 0 -87 -60q0 -30 23.5 -47.5t62.5 -17.5q54 0 90.5 33t36.5 83z
M102 738v29h84v-28q0 -40 21 -63.5t56 -23.5q36 0 57 23.5t21 63.5v28h85v-29q0 -74 -46 -120q-45 -46 -117 -46q-71 0 -116 46t-45 120z" />
    <glyph glyph-name="Aogonek" unicode="&#x104;" horiz-adv-x="662" 
d="M526 0l-47 110h-297l-47 -110h-113l291 671h36l291 -671h-114zM441 201l-110 273l-111 -273h221zM448 -98q0 41 33.5 72t116.5 70l42 -44l-45 -29q-22 -15 -28 -19.5t-11.5 -12.5t-5.5 -18q0 -33 42 -33q14 0 48 6v-73q-40 -12 -79 -12q-52 0 -82.5 25.5t-30.5 67.5z" />
    <glyph glyph-name="aogonek" unicode="&#x105;" horiz-adv-x="536" 
d="M466 297v-297h-98v55q-55 -66 -157 -66q-77 0 -124 39t-47 103t49 102t132 38h139v32q0 51 -27.5 78t-77.5 27q-75 0 -136 -73l-61 62q72 105 207 105q92 0 146.5 -54t54.5 -151zM360 186v9h-126q-87 0 -87 -60q0 -30 23.5 -47.5t62.5 -17.5q54 0 90.5 33t36.5 83z
M273 -98q0 41 33.5 72t116.5 70l42 -44l-45 -29q-22 -15 -28 -19.5t-11.5 -12.5t-5.5 -18q0 -33 42 -33q13 0 48 6v-73q-41 -12 -79 -12q-52 0 -82.5 25.5t-30.5 67.5z" />
    <glyph glyph-name="Cacute" unicode="&#x106;" horiz-adv-x="717" 
d="M43 330q-3 141 101 242t246 99q90 0 165 -41t118 -111l-80 -59q-73 114 -202 114q-102 0 -170 -69.5t-68 -174.5t68 -174.5t170 -69.5q129 0 202 114l80 -59q-43 -71 -117.5 -111.5t-165.5 -40.5q-142 -2 -246 99t-101 242zM350 724l79 186h128v-19l-129 -167h-78z" />
    <glyph glyph-name="cacute" unicode="&#x107;" horiz-adv-x="552" 
d="M45 246q-2 105 76 181.5t184 74.5q138 0 207 -114l-74 -58q-52 75 -132 75q-66 0 -110 -46t-44 -113q0 -68 44 -114t110 -46q78 0 132 74l74 -57q-33 -54 -87 -84t-120 -30q-109 0 -184.5 75t-75.5 182zM265 568l79 212h128v-19l-129 -193h-78z" />
    <glyph glyph-name="Ccircumflex" unicode="&#x108;" horiz-adv-x="717" 
d="M43 330q-3 141 101 242t246 99q90 0 165 -41t118 -111l-80 -59q-73 114 -202 114q-102 0 -170 -69.5t-68 -174.5t68 -174.5t170 -69.5q129 0 202 114l80 -59q-43 -71 -117.5 -111.5t-165.5 -40.5q-142 -2 -246 99t-101 242zM572 724h-81l-100 94l-101 -94h-81l148 186h67
z" />
    <glyph glyph-name="ccircumflex" unicode="&#x109;" horiz-adv-x="552" 
d="M45 246q-2 105 76 181.5t184 74.5q138 0 207 -114l-74 -58q-52 75 -132 75q-66 0 -110 -46t-44 -113q0 -68 44 -114t110 -46q78 0 132 74l74 -57q-33 -54 -87 -84t-120 -30q-109 0 -184.5 75t-75.5 182zM472 568h-78l-90 109l-91 -109h-79l136 212h67z" />
    <glyph glyph-name="Cdotaccent" unicode="&#x10a;" horiz-adv-x="717" 
d="M43 330q-3 141 101 242t246 99q90 0 165 -41t118 -111l-80 -59q-73 114 -202 114q-102 0 -170 -69.5t-68 -174.5t68 -174.5t170 -69.5q129 0 202 114l80 -59q-43 -71 -117.5 -111.5t-165.5 -40.5q-142 -2 -246 99t-101 242zM319 812q0 30 21 50t51 20t50.5 -20t20.5 -50
q0 -29 -21 -49t-50 -20q-30 0 -51 20t-21 49z" />
    <glyph glyph-name="cdotaccent" unicode="&#x10b;" horiz-adv-x="552" 
d="M45 246q-2 105 76 181.5t184 74.5q138 0 207 -114l-74 -58q-52 75 -132 75q-66 0 -110 -46t-44 -113q0 -68 44 -114t110 -46q78 0 132 74l74 -57q-33 -54 -87 -84t-120 -30q-109 0 -184.5 75t-75.5 182zM231 674q0 29 21 49.5t51 20.5q29 0 50 -20.5t21 -49.5t-21 -49
t-50 -20q-30 0 -51 20t-21 49z" />
    <glyph glyph-name="Ccaron" unicode="&#x10c;" horiz-adv-x="717" 
d="M43 330q-3 141 101 242t246 99q90 0 165 -41t118 -111l-80 -59q-73 114 -202 114q-102 0 -170 -69.5t-68 -174.5t68 -174.5t170 -69.5q129 0 202 114l80 -59q-43 -71 -117.5 -111.5t-165.5 -40.5q-142 -2 -246 99t-101 242zM491 910h81l-148 -186h-67l-148 186h81
l101 -94z" />
    <glyph glyph-name="ccaron" unicode="&#x10d;" horiz-adv-x="552" 
d="M45 246q-2 105 76 181.5t184 74.5q138 0 207 -114l-74 -58q-52 75 -132 75q-66 0 -110 -46t-44 -113q0 -68 44 -114t110 -46q78 0 132 74l74 -57q-33 -54 -87 -84t-120 -30q-109 0 -184.5 75t-75.5 182zM394 780h78l-135 -212h-67l-136 212h79l91 -109z" />
    <glyph glyph-name="Dcaron" unicode="&#x10e;" horiz-adv-x="692" 
d="M83 0v660h207q161 0 260 -91t99 -238q0 -145 -99.5 -238t-259.5 -93h-207zM189 95h100q114 0 182.5 65.5t68.5 170.5q0 106 -68 169.5t-183 63.5h-100v-469zM382 910h81l-148 -186h-67l-148 186h81l101 -94z" />
    <glyph glyph-name="dcaron" unicode="&#x10f;" horiz-adv-x="769" 
d="M449 750h106v-750h-98v70q-57 -81 -172 -81q-103 0 -171.5 73.5t-68.5 182.5q-2 108 68 183.5t172 73.5q106 0 164 -71v319zM451 245q0 76 -43.5 118.5t-104.5 42.5q-64 0 -107.5 -45t-43.5 -115t43 -115.5t108 -45.5q62 0 105 42t43 118zM649 542l9 208h111l-44 -208
h-76z" />
    <glyph glyph-name="Dcroat" unicode="&#x110;" horiz-adv-x="692" 
d="M649 331q0 -145 -99.5 -238t-259.5 -93h-207v265h-89v90h89v305h207q161 0 260 -91t99 -238zM540 331q0 106 -68 169.5t-183 63.5h-100v-209h120v-90h-120v-170h100q114 0 182.5 65.5t68.5 170.5z" />
    <glyph glyph-name="dslash" unicode="&#x111;" horiz-adv-x="635" 
d="M634 653v-86h-80v-567h-98v70q-59 -81 -175 -81q-101 0 -169 70t-68 175q0 106 68 176.5t169 70.5q107 0 168 -74v160h-212v86h212v97h105v-97h80zM450 234q0 77 -44 116t-104 39q-64 0 -107 -43.5t-43 -111.5t42 -111q43 -43 108 -43q64 0 106 40.5t42 113.5z" />
    <glyph glyph-name="Emacron" unicode="&#x112;" horiz-adv-x="569" 
d="M83 0v660h434v-95h-328v-169h247v-92h-247v-209h340v-95h-446zM145 762v85h308v-85h-308z" />
    <glyph glyph-name="emacron" unicode="&#x113;" horiz-adv-x="570" 
d="M518 211h-366q10 -60 53.5 -94.5t106.5 -34.5q78 0 143 58l50 -72q-83 -79 -196 -79q-112 0 -188 73.5t-76 182.5q-2 106 74 182.5t180 74.5q97 0 162 -64.5t65 -160.5q0 -29 -8 -66zM154 293h267q-1 55 -37 87.5t-89 32.5q-52 0 -90.5 -32.5t-50.5 -87.5zM153 632v84
h288v-84h-288z" />
    <glyph glyph-name="Ebreve" unicode="&#x114;" horiz-adv-x="569" 
d="M83 0v660h434v-95h-328v-169h247v-92h-247v-209h340v-95h-446zM137 890v20h84v-20q0 -40 21 -63.5t56 -23.5q36 0 57 23.5t21 63.5v20h85v-20q0 -75 -46 -121q-45 -46 -117 -46t-116.5 46t-44.5 121z" />
    <glyph glyph-name="ebreve" unicode="&#x115;" horiz-adv-x="570" 
d="M518 211h-366q10 -60 53.5 -94.5t106.5 -34.5q78 0 143 58l50 -72q-83 -79 -196 -79q-112 0 -188 73.5t-76 182.5q-2 106 74 182.5t180 74.5q97 0 162 -64.5t65 -160.5q0 -29 -8 -66zM154 293h267q-1 55 -37 87.5t-89 32.5q-52 0 -90.5 -32.5t-50.5 -87.5zM135 738v29h84
v-28q0 -40 21 -63.5t56 -23.5q36 0 57 23.5t21 63.5v28h85v-29q0 -74 -46 -120q-45 -46 -117 -46q-71 0 -116 46t-45 120z" />
    <glyph glyph-name="Edotaccent" unicode="&#x116;" horiz-adv-x="569" 
d="M83 0v660h434v-95h-328v-169h247v-92h-247v-209h340v-95h-446zM227 812q0 30 21 50t51 20t50.5 -20t20.5 -50q0 -29 -21 -49t-50 -20q-30 0 -51 20t-21 49z" />
    <glyph glyph-name="edotaccent" unicode="&#x117;" horiz-adv-x="570" 
d="M518 211h-366q10 -60 53.5 -94.5t106.5 -34.5q78 0 143 58l50 -72q-83 -79 -196 -79q-112 0 -188 73.5t-76 182.5q-2 106 74 182.5t180 74.5q97 0 162 -64.5t65 -160.5q0 -29 -8 -66zM154 293h267q-1 55 -37 87.5t-89 32.5q-52 0 -90.5 -32.5t-50.5 -87.5zM225 674
q0 29 21 49.5t51 20.5q29 0 50 -20.5t21 -49.5t-21 -49t-50 -20q-30 0 -51 20t-21 49z" />
    <glyph glyph-name="Eogonek" unicode="&#x118;" horiz-adv-x="569" 
d="M83 0v660h434v-95h-328v-169h247v-92h-247v-209h340v-95h-446zM337 -98q0 41 33.5 72t116.5 70l42 -44l-45 -29q-22 -15 -28 -19.5t-11.5 -12.5t-5.5 -18q0 -33 42 -33q13 0 48 6v-73q-40 -12 -79 -12q-52 0 -82.5 25.5t-30.5 67.5z" />
    <glyph glyph-name="eogonek" unicode="&#x119;" horiz-adv-x="570" 
d="M518 211h-366q10 -60 53.5 -94.5t106.5 -34.5q78 0 143 58l50 -72q-83 -79 -196 -79q-112 0 -188 73.5t-76 182.5q-2 106 74 182.5t180 74.5q97 0 162 -64.5t65 -160.5q0 -29 -8 -66zM154 293h267q-1 55 -37 87.5t-89 32.5q-52 0 -90.5 -32.5t-50.5 -87.5zM283 -98
q0 38 22.5 69t98.5 97h101l-88 -91q-32 -32 -32 -56q0 -33 42 -33q13 0 48 6v-73q-37 -12 -79 -12q-51 0 -82 25t-31 68z" />
    <glyph glyph-name="Ecaron" unicode="&#x11a;" horiz-adv-x="569" 
d="M83 0v660h434v-95h-328v-169h247v-92h-247v-209h340v-95h-446zM399 910h81l-148 -186h-67l-148 186h81l101 -94z" />
    <glyph glyph-name="ecaron" unicode="&#x11b;" horiz-adv-x="570" 
d="M518 211h-366q10 -60 53.5 -94.5t106.5 -34.5q78 0 143 58l50 -72q-83 -79 -196 -79q-112 0 -188 73.5t-76 182.5q-2 106 74 182.5t180 74.5q97 0 162 -64.5t65 -160.5q0 -29 -8 -66zM154 293h267q-1 55 -37 87.5t-89 32.5q-52 0 -90.5 -32.5t-50.5 -87.5zM388 780h78
l-135 -212h-67l-136 212h79l91 -109z" />
    <glyph glyph-name="Gcircumflex" unicode="&#x11c;" horiz-adv-x="746" 
d="M43 330q-3 141 100.5 242t247.5 99q174 0 273 -138l-77 -63q-74 104 -197 104q-104 0 -170.5 -69t-66.5 -174q0 -106 68.5 -176.5t174.5 -70.5q132 0 197 100v71h-203v94h309v-186q-45 -80 -127 -127t-181 -47q-145 -2 -247.5 98.5t-100.5 242.5zM573 724h-81l-100 94
l-101 -94h-81l148 186h67z" />
    <glyph glyph-name="gcircumflex" unicode="&#x11d;" horiz-adv-x="634" 
d="M461 491h97v-440q0 -115 -66.5 -178.5t-179.5 -63.5q-136 0 -236 93l58 73q87 -70 172 -70q68 0 107.5 36t39.5 104v35q-58 -70 -166 -70q-103 0 -171 69.5t-68 176.5t68 176.5t171 69.5q117 0 174 -81v70zM454 257q0 72 -42 111.5t-106 39.5t-107 -42t-43 -110
q0 -69 43 -112q44 -42 107 -42q61 0 104 40q44 41 44 115zM481 568h-78l-90 109l-91 -109h-79l136 212h67z" />
    <glyph glyph-name="Gbreve" unicode="&#x11e;" horiz-adv-x="746" 
d="M43 330q-3 141 100.5 242t247.5 99q174 0 273 -138l-77 -63q-74 104 -197 104q-104 0 -170.5 -69t-66.5 -174q0 -106 68.5 -176.5t174.5 -70.5q132 0 197 100v71h-203v94h309v-186q-45 -80 -127 -127t-181 -47q-145 -2 -247.5 98.5t-100.5 242.5zM230 890v20h84v-20
q0 -40 21 -63.5t56 -23.5q36 0 57 23.5t21 63.5v20h85v-20q0 -75 -46 -121q-45 -46 -117 -46t-116.5 46t-44.5 121z" />
    <glyph glyph-name="gbreve" unicode="&#x11f;" horiz-adv-x="634" 
d="M461 491h97v-440q0 -115 -66.5 -178.5t-179.5 -63.5q-136 0 -236 93l58 73q87 -70 172 -70q68 0 107.5 36t39.5 104v35q-58 -70 -166 -70q-103 0 -171 69.5t-68 176.5t68 176.5t171 69.5q117 0 174 -81v70zM454 257q0 72 -42 111.5t-106 39.5t-107 -42t-43 -110
q0 -69 43 -112q44 -42 107 -42q61 0 104 40q44 41 44 115zM150 738v29h84v-28q0 -40 21 -63.5t56 -23.5q36 0 57 23.5t21 63.5v28h85v-29q0 -74 -46 -120q-45 -46 -117 -46q-71 0 -116 46t-45 120z" />
    <glyph glyph-name="Gdotaccent" unicode="&#x120;" horiz-adv-x="746" 
d="M43 330q-3 141 100.5 242t247.5 99q174 0 273 -138l-77 -63q-74 104 -197 104q-104 0 -170.5 -69t-66.5 -174q0 -106 68.5 -176.5t174.5 -70.5q132 0 197 100v71h-203v94h309v-186q-45 -80 -127 -127t-181 -47q-145 -2 -247.5 98.5t-100.5 242.5zM320 812q0 30 21 50
t51 20t50.5 -20t20.5 -50q0 -29 -21 -49t-50 -20q-30 0 -51 20t-21 49z" />
    <glyph glyph-name="gdotaccent" unicode="&#x121;" horiz-adv-x="634" 
d="M461 491h97v-440q0 -115 -66.5 -178.5t-179.5 -63.5q-136 0 -236 93l58 73q87 -70 172 -70q68 0 107.5 36t39.5 104v35q-58 -70 -166 -70q-103 0 -171 69.5t-68 176.5t68 176.5t171 69.5q117 0 174 -81v70zM454 257q0 72 -42 111.5t-106 39.5t-107 -42t-43 -110
q0 -69 43 -112q44 -42 107 -42q61 0 104 40q44 41 44 115zM240 674q0 29 21 49.5t51 20.5q29 0 50 -20.5t21 -49.5t-21 -49t-50 -20q-30 0 -51 20t-21 49z" />
    <glyph glyph-name="uni0122" unicode="&#x122;" horiz-adv-x="746" 
d="M43 330q-3 141 100.5 242t247.5 99q174 0 273 -138l-77 -63q-74 104 -197 104q-104 0 -170.5 -69t-66.5 -174q0 -106 68.5 -176.5t174.5 -70.5q132 0 197 100v71h-203v94h309v-186q-45 -80 -127 -127t-181 -47q-145 -2 -247.5 98.5t-100.5 242.5zM335 -220l7 172h100
l-25 -172h-82z" />
    <glyph glyph-name="uni0123" unicode="&#x123;" horiz-adv-x="634" 
d="M461 491h97v-440q0 -115 -66.5 -178.5t-179.5 -63.5q-136 0 -236 93l58 73q87 -70 172 -70q68 0 107.5 36t39.5 104v35q-58 -70 -166 -70q-103 0 -171 69.5t-68 176.5t68 176.5t171 69.5q117 0 174 -81v70zM454 257q0 72 -42 111.5t-106 39.5t-107 -42t-43 -110
q0 -69 43 -112q44 -42 107 -42q61 0 104 40q44 41 44 115zM259 568l34 212h78l-10 -212h-102z" />
    <glyph glyph-name="Hcircumflex" unicode="&#x124;" horiz-adv-x="711" 
d="M83 0v660h106v-263h332v263h106v-660h-106v302h-332v-302h-106zM536 724h-81l-100 94l-101 -94h-81l148 186h67z" />
    <glyph glyph-name="hcircumflex" unicode="&#x125;" horiz-adv-x="575" 
d="M505 307v-307h-105v292q0 51 -29 82.5t-78 31.5t-80.5 -32t-31.5 -82v-292h-105v750h105v-308q51 60 142 60q83 0 132.5 -53.5t49.5 -141.5zM362 814h-81l-100 94l-101 -94h-81l148 186h67z" />
    <glyph glyph-name="Hbar" unicode="&#x126;" horiz-adv-x="725" 
d="M90 0v448h-96v89h96v123h106v-123h332v123h106v-123h96v-89h-96v-448h-106v234h-332v-234h-106zM196 327h332v121h-332v-121z" />
    <glyph glyph-name="hbar" unicode="&#x127;" horiz-adv-x="581" 
d="M511 285v-285h-106v272q0 50 -29 81t-77 31q-50 0 -81.5 -31.5t-31.5 -80.5v-272h-104v565h-81v90h81v95h104v-95h197v-90h-197v-144q51 60 142 60q84 0 133.5 -54t49.5 -142z" />
    <glyph glyph-name="Itilde" unicode="&#x128;" horiz-adv-x="272" 
d="M83 0v660h106v-660h-106zM145 757l-32 18q-30 18 -44 18q-28 0 -28 -36v-13h-84q-2 24 -2 29q0 51 28.5 84t72.5 33q37 0 72 -22l33 -20q33 -18 44 -18q28 0 28 35v15h84q2 -24 2 -29q0 -51 -28.5 -84t-71.5 -33q-34 0 -74 23z" />
    <glyph glyph-name="itilde" unicode="&#x129;" horiz-adv-x="257" 
d="M76 0v491h105v-491h-105zM130 616l-19 16q-24 20 -34 20q-27 0 -27 -38v-14h-83q-2 18 -2 28q0 54 26.5 87t70.5 33q37 0 67 -27l19 -18q20 -19 34 -19q26 0 26 38v14h82q2 -18 2 -29q0 -52 -26.5 -86t-68.5 -34q-32 0 -67 29z" />
    <glyph glyph-name="Imacron" unicode="&#x12a;" horiz-adv-x="272" 
d="M83 0v660h106v-660h-106zM-17 762v85h308v-85h-308z" />
    <glyph glyph-name="imacron" unicode="&#x12b;" horiz-adv-x="257" 
d="M76 0v491h105v-491h-105zM10 632v85h238v-85h-238z" />
    <glyph glyph-name="Ibreve" unicode="&#x12c;" horiz-adv-x="272" 
d="M83 0v660h106v-660h-106zM-25 890v20h84v-20q0 -40 21 -63.5t56 -23.5q36 0 57 23.5t21 63.5v20h85v-20q0 -75 -46 -121q-45 -46 -117 -46t-116.5 46t-44.5 121z" />
    <glyph glyph-name="ibreve" unicode="&#x12d;" horiz-adv-x="257" 
d="M76 0v491h105v-491h-105zM-33 738v29h84v-28q0 -40 21 -63.5t56 -23.5q36 0 57 23.5t21 63.5v28h85v-29q0 -74 -46 -120q-45 -46 -117 -46q-71 0 -116 46t-45 120z" />
    <glyph glyph-name="Iogonek" unicode="&#x12e;" horiz-adv-x="272" 
d="M83 0v660h106v-660h-106zM-3 -98q0 41 33.5 72t116.5 70l42 -44l-45 -29q-22 -15 -28 -19.5t-11.5 -12.5t-5.5 -18q0 -33 42 -33q13 0 48 6v-73q-41 -12 -79 -12q-52 0 -82.5 25.5t-30.5 67.5z" />
    <glyph glyph-name="iogonek" unicode="&#x12f;" horiz-adv-x="257" 
d="M76 0v491h105v-491h-105zM57 674q0 29 21 49.5t51 20.5q29 0 50 -20.5t21 -49.5t-21 -49t-50 -20q-30 0 -51 20t-21 49zM-11 -98q0 41 33.5 72t116.5 70l42 -44l-45 -29q-22 -15 -28 -19.5t-11.5 -12.5t-5.5 -18q0 -33 42 -33q13 0 48 6v-73q-41 -12 -79 -12
q-52 0 -82.5 25.5t-30.5 67.5z" />
    <glyph glyph-name="Idot" unicode="&#x130;" horiz-adv-x="272" 
d="M83 0v660h106v-660h-106zM65 812q0 30 21 50t51 20t50.5 -20t20.5 -50q0 -29 -21 -49t-50 -20q-30 0 -51 20t-21 49z" />
    <glyph glyph-name="dotlessi" unicode="&#x131;" horiz-adv-x="257" 
d="M76 0v491h105v-491h-105z" />
    <glyph glyph-name="IJ" unicode="&#x132;" horiz-adv-x="654" 
d="M83 0v660h106v-660h-106zM293 0v91q50 -5 68 -5q53 0 78 20t25 69v485h106v-496q0 -86 -48.5 -130.5t-137.5 -44.5q-41 0 -91 11z" />
    <glyph glyph-name="ij" unicode="&#x133;" horiz-adv-x="515" 
d="M76 0v491h105v-491h-105zM57 674q0 29 21 49.5t51 20.5q29 0 50 -20.5t21 -49.5t-21 -49t-50 -20q-30 0 -51 20t-21 49zM196 -182v89q24 -3 43 -3q48 0 71 20t23 65v502h105v-511q0 -85 -45.5 -128t-128.5 -43q-41 0 -68 9zM314 674q0 29 21 49.5t51 20.5q29 0 50 -20.5
t21 -49.5t-21 -49t-50 -20q-30 0 -51 20t-21 49z" />
    <glyph glyph-name="Jcircumflex" unicode="&#x134;" horiz-adv-x="381" 
d="M21 0v91q50 -5 68 -5q53 0 78 20t25 69v485h106v-496q0 -86 -48.5 -130.5t-137.5 -44.5q-41 0 -91 11zM413 724h-81l-100 94l-101 -94h-81l148 186h67z" />
    <glyph glyph-name="jcircumflex" unicode="&#x135;" horiz-adv-x="257" 
d="M-61 -182v89q24 -3 43 -3q48 0 71 20t23 65v502h105v-511q0 -85 -45.5 -128t-128.5 -43q-41 0 -68 9zM298 568h-78l-90 109l-91 -109h-79l136 212h67z" />
    <glyph glyph-name="uni0136" unicode="&#x136;" horiz-adv-x="651" 
d="M83 0v660h106v-660h-106zM325 351l304 -351h-131l-306 351l277 309h130zM255 -220l7 172h100l-25 -172h-82z" />
    <glyph glyph-name="uni0137" unicode="&#x137;" horiz-adv-x="533" 
d="M76 0v750h105v-750h-105zM308 275l215 -275h-126l-213 276l192 215h130zM212 -220l7 172h100l-25 -172h-82z" />
    <glyph glyph-name="Lacute" unicode="&#x139;" horiz-adv-x="515" 
d="M83 0v660h106v-565h302v-95h-408zM95 724l79 186h128v-19l-129 -167h-78z" />
    <glyph glyph-name="lacute" unicode="&#x13a;" horiz-adv-x="257" 
d="M76 0v750h105v-750h-105zM88 814l79 186h128v-19l-129 -167h-78z" />
    <glyph glyph-name="uni013B" unicode="&#x13b;" horiz-adv-x="515" 
d="M83 0v660h106v-565h302v-95h-408zM224 -220l7 172h100l-25 -172h-82z" />
    <glyph glyph-name="uni013C" unicode="&#x13c;" horiz-adv-x="257" 
d="M76 0v750h105v-750h-105zM72 -220l7 172h100l-25 -172h-82z" />
    <glyph glyph-name="Lcaron" unicode="&#x13d;" horiz-adv-x="515" 
d="M83 0v660h106v-565h302v-95h-408zM362 512l9 208h111l-44 -208h-76z" />
    <glyph glyph-name="lcaron" unicode="&#x13e;" horiz-adv-x="395" 
d="M76 0v750h105v-750h-105zM276 542l9 208h111l-44 -208h-76z" />
    <glyph glyph-name="Ldot" unicode="&#x13f;" horiz-adv-x="515" 
d="M83 0v660h106v-565h302v-95h-408zM321 373q0 33 23 55.5t56 22.5t55 -22t22 -56q0 -33 -22 -55t-55 -22t-56 22t-23 55z" />
    <glyph glyph-name="ldot" unicode="&#x140;" horiz-adv-x="351" 
d="M76 0v750h105v-750h-105zM228 317q0 33 23 55.5t56 22.5t55 -22t22 -56q0 -33 -22 -55t-55 -22t-56 22t-23 55z" />
    <glyph glyph-name="Lslash" unicode="&#x141;" horiz-adv-x="515" 
d="M189 95h302v-95h-408v230l-75 -34v98l75 34v332h106v-291l210 96v-99l-210 -96v-175z" />
    <glyph glyph-name="lslash" unicode="&#x142;" horiz-adv-x="350" 
d="M306 458v-99l-84 -38v-321h-105v283l-78 -37v99l78 36v369h105v-331z" />
    <glyph glyph-name="Nacute" unicode="&#x143;" horiz-adv-x="711" 
d="M521 660h106v-671h-36l-402 458v-447h-106v671h37l401 -456v445zM314 724l79 186h128v-19l-129 -167h-78z" />
    <glyph glyph-name="nacute" unicode="&#x144;" horiz-adv-x="575" 
d="M505 307v-307h-105v293q0 51 -29.5 82.5t-77.5 31.5q-49 0 -80.5 -32t-31.5 -82v-293h-105v491h98v-48q56 59 147 59q85 0 134.5 -53t49.5 -142zM245 568l79 212h128v-19l-129 -193h-78z" />
    <glyph glyph-name="uni0145" unicode="&#x145;" horiz-adv-x="711" 
d="M521 660h106v-671h-36l-402 458v-447h-106v671h37l401 -456v445zM298 -220l7 172h100l-25 -172h-82z" />
    <glyph glyph-name="uni0146" unicode="&#x146;" horiz-adv-x="575" 
d="M505 307v-307h-105v293q0 51 -29.5 82.5t-77.5 31.5q-49 0 -80.5 -32t-31.5 -82v-293h-105v491h98v-48q56 59 147 59q85 0 134.5 -53t49.5 -142zM234 -220l7 172h100l-25 -172h-82z" />
    <glyph glyph-name="Ncaron" unicode="&#x147;" horiz-adv-x="711" 
d="M521 660h106v-671h-36l-402 458v-447h-106v671h37l401 -456v445zM455 910h81l-148 -186h-67l-148 186h81l101 -94z" />
    <glyph glyph-name="ncaron" unicode="&#x148;" horiz-adv-x="575" 
d="M505 307v-307h-105v293q0 51 -29.5 82.5t-77.5 31.5q-49 0 -80.5 -32t-31.5 -82v-293h-105v491h98v-48q56 59 147 59q85 0 134.5 -53t49.5 -142zM374 780h78l-135 -212h-67l-136 212h79l91 -109z" />
    <glyph glyph-name="Eng" unicode="&#x14a;" horiz-adv-x="711" 
d="M521 660h106v-680q0 -85 -46 -128t-129 -43q-40 0 -67 9v89q24 -3 43 -3q47 0 70 20t23 65v30l-332 412v-431h-106v671h37l401 -496v485z" />
    <glyph glyph-name="eng" unicode="&#x14b;" horiz-adv-x="575" 
d="M505 307v-327q0 -85 -46 -128t-129 -43q-40 0 -68 9v89q24 -3 42 -3q49 0 72.5 19.5t23.5 65.5v303q0 51 -29 82.5t-78 31.5t-80.5 -32t-31.5 -82v-292h-105v491h98v-48q56 59 147 59q85 0 134.5 -53t49.5 -142z" />
    <glyph glyph-name="Omacron" unicode="&#x14c;" horiz-adv-x="780" 
d="M43 330q-2 141 101 242t245 99q141 2 245.5 -99t101.5 -242q3 -141 -101.5 -242t-245.5 -99q-142 -2 -245.5 99t-100.5 242zM627 331q0 104 -68 173.5t-169 69.5q-102 0 -169.5 -69t-67.5 -174q0 -106 67 -175.5t170 -69.5q101 0 169 70t68 175zM236 762v85h308v-85h-308
z" />
    <glyph glyph-name="omacron" unicode="&#x14d;" horiz-adv-x="609" 
d="M45 246q-2 105 75.5 181.5t183.5 74.5q107 2 185 -75t76 -181q2 -105 -76 -182t-185 -75q-106 -2 -183.5 75.5t-75.5 181.5zM457 245q0 68 -44 114.5t-108 46.5q-65 0 -109 -46.5t-44 -114.5t43.5 -113.5t108.5 -45.5t109 46t44 113zM161 632v84h288v-84h-288z" />
    <glyph glyph-name="Obreve" unicode="&#x14e;" horiz-adv-x="780" 
d="M43 330q-2 141 101 242t245 99q141 2 245.5 -99t101.5 -242q3 -141 -101.5 -242t-245.5 -99q-142 -2 -245.5 99t-100.5 242zM627 331q0 104 -68 173.5t-169 69.5q-102 0 -169.5 -69t-67.5 -174q0 -106 67 -175.5t170 -69.5q101 0 169 70t68 175zM228 890v20h84v-20
q0 -40 21 -63.5t56 -23.5q36 0 57 23.5t21 63.5v20h85v-20q0 -75 -46 -121q-45 -46 -117 -46t-116.5 46t-44.5 121z" />
    <glyph glyph-name="obreve" unicode="&#x14f;" horiz-adv-x="609" 
d="M45 246q-2 105 75.5 181.5t183.5 74.5q107 2 185 -75t76 -181q2 -105 -76 -182t-185 -75q-106 -2 -183.5 75.5t-75.5 181.5zM457 245q0 68 -44 114.5t-108 46.5q-65 0 -109 -46.5t-44 -114.5t43.5 -113.5t108.5 -45.5t109 46t44 113zM143 738v29h84v-28q0 -40 21 -63.5
t56 -23.5q36 0 57 23.5t21 63.5v28h85v-29q0 -74 -46 -120q-45 -46 -117 -46q-71 0 -116 46t-45 120z" />
    <glyph glyph-name="Ohungarumlaut" unicode="&#x150;" horiz-adv-x="780" 
d="M43 330q-2 141 101 242t245 99q141 2 245.5 -99t101.5 -242q3 -141 -101.5 -242t-245.5 -99q-142 -2 -245.5 99t-100.5 242zM627 331q0 104 -68 173.5t-169 69.5q-102 0 -169.5 -69t-67.5 -174q0 -106 67 -175.5t170 -69.5q101 0 169 70t68 175zM228 724l79 186h111v-19
l-118 -167h-72zM456 724l79 186h111v-19l-118 -167h-72z" />
    <glyph glyph-name="ohungarumlaut" unicode="&#x151;" horiz-adv-x="609" 
d="M45 246q-2 105 75.5 181.5t183.5 74.5q107 2 185 -75t76 -181q2 -105 -76 -182t-185 -75q-106 -2 -183.5 75.5t-75.5 181.5zM457 245q0 68 -44 114.5t-108 46.5q-65 0 -109 -46.5t-44 -114.5t43.5 -113.5t108.5 -45.5t109 46t44 113zM160 568l79 212h111v-19l-118 -193
h-72zM368 568l79 212h111v-19l-118 -193h-72z" />
    <glyph glyph-name="OE" unicode="&#x152;" horiz-adv-x="1113" 
d="M733 95h339v-95h-445v96q-87 -107 -239 -107q-143 -2 -245.5 98.5t-99.5 242.5q-3 141 99.5 242t246.5 99q74 0 136 -28t102 -78v95h433v-95h-327v-169h246v-92h-246v-209zM627 330q0 104 -68.5 174t-169.5 70t-168.5 -69t-67.5 -175t67.5 -175t168.5 -69q102 0 170 69.5
t68 174.5z" />
    <glyph glyph-name="oe" unicode="&#x153;" horiz-adv-x="962" 
d="M910 210h-360q10 -60 51.5 -94t103.5 -34q77 0 140 57l52 -71q-82 -79 -195 -79q-63 0 -117 28t-87 77q-69 -105 -197 -105q-105 -2 -181.5 74.5t-74.5 181.5q-2 105 75 182t182 75q63 0 114 -28t82 -78q33 49 84.5 77t111.5 28q95 0 159.5 -65t64.5 -160q0 -29 -8 -66z
M552 292h261q-1 55 -36.5 87.5t-88.5 32.5q-51 0 -88 -32.5t-48 -87.5zM448 245q0 68 -41 114q-40 46 -104 46q-65 0 -108 -46t-43 -114t43 -113.5t107 -45.5t105 45q41 46 41 114z" />
    <glyph glyph-name="Racute" unicode="&#x154;" horiz-adv-x="631" 
d="M619 0h-121l-188 255h-121v-255h-106v660h241q100 0 162 -56.5t62 -145.5q0 -65 -33.5 -114t-93.5 -72zM189 566v-217h133q54 0 85.5 29.5t31.5 78.5t-31.5 79t-85.5 30h-133zM222 724l79 186h128v-19l-129 -167h-78z" />
    <glyph glyph-name="racute" unicode="&#x155;" horiz-adv-x="375" 
d="M357 491v-93h-32q-64 0 -104 -36t-40 -100v-262h-105v491h98v-64q55 69 143 69q20 0 40 -5zM144 568l79 212h128v-19l-129 -193h-78z" />
    <glyph glyph-name="uni0156" unicode="&#x156;" horiz-adv-x="631" 
d="M619 0h-121l-188 255h-121v-255h-106v660h241q100 0 162 -56.5t62 -145.5q0 -65 -33.5 -114t-93.5 -72zM189 566v-217h133q54 0 85.5 29.5t31.5 78.5t-31.5 79t-85.5 30h-133zM262 -220l7 172h100l-25 -172h-82z" />
    <glyph glyph-name="uni0157" unicode="&#x157;" horiz-adv-x="375" 
d="M357 491v-93h-32q-64 0 -104 -36t-40 -100v-262h-105v491h98v-64q55 69 143 69q20 0 40 -5zM71 -220l7 172h100l-25 -172h-82z" />
    <glyph glyph-name="Rcaron" unicode="&#x158;" horiz-adv-x="631" 
d="M619 0h-121l-188 255h-121v-255h-106v660h241q100 0 162 -56.5t62 -145.5q0 -65 -33.5 -114t-93.5 -72zM189 566v-217h133q54 0 85.5 29.5t31.5 78.5t-31.5 79t-85.5 30h-133zM363 910h81l-148 -186h-67l-148 186h81l101 -94z" />
    <glyph glyph-name="rcaron" unicode="&#x159;" horiz-adv-x="375" 
d="M357 491v-93h-32q-64 0 -104 -36t-40 -100v-262h-105v491h98v-64q55 69 143 69q20 0 40 -5zM273 780h78l-135 -212h-67l-136 212h79l91 -109z" />
    <glyph glyph-name="Sacute" unicode="&#x15a;" horiz-adv-x="559" 
d="M36 132l75 57q72 -105 173 -105q51 0 82.5 25t31.5 67q0 34 -21 53.5t-76 45.5l-73 34q-77 35 -115.5 77.5t-38.5 105.5q0 79 60 129t148 50q69 0 125.5 -32t87.5 -86l-74 -57q-54 80 -139 80q-44 0 -72 -21t-28 -59q1 -18 4.5 -29.5t18.5 -24t21 -15.5t39 -20q6 -3 9 -5
l74 -34q83 -38 120.5 -81t37.5 -107q0 -85 -62.5 -138t-158.5 -53q-80 0 -145 38t-104 105zM241 724l79 186h128v-19l-129 -167h-78z" />
    <glyph glyph-name="sacute" unicode="&#x15b;" horiz-adv-x="455" 
d="M30 84l60 66q67 -70 138 -70q35 0 57 14.5t22 40.5q0 20 -15 32.5t-54 28.5l-50 21q-67 28 -97.5 60.5t-30.5 82.5q0 65 48.5 103.5t124.5 38.5q106 0 170 -76l-57 -65q-48 50 -115 50t-67 -47q0 -18 14 -30.5t51 -27.5l47 -19q71 -30 102.5 -63.5t31.5 -84.5
q0 -71 -52 -111q-52 -39 -130 -39q-125 0 -198 95zM193 568l79 212h128v-19l-129 -193h-78z" />
    <glyph glyph-name="Scircumflex" unicode="&#x15c;" horiz-adv-x="559" 
d="M36 132l75 57q72 -105 173 -105q51 0 82.5 25t31.5 67q0 34 -21 53.5t-76 45.5l-73 34q-77 35 -115.5 77.5t-38.5 105.5q0 79 60 129t148 50q69 0 125.5 -32t87.5 -86l-74 -57q-54 80 -139 80q-44 0 -72 -21t-28 -59q1 -18 4.5 -29.5t18.5 -24t21 -15.5t39 -20q6 -3 9 -5
l74 -34q83 -38 120.5 -81t37.5 -107q0 -85 -62.5 -138t-158.5 -53q-80 0 -145 38t-104 105zM463 724h-81l-100 94l-101 -94h-81l148 186h67z" />
    <glyph glyph-name="scircumflex" unicode="&#x15d;" horiz-adv-x="455" 
d="M30 84l60 66q67 -70 138 -70q35 0 57 14.5t22 40.5q0 20 -15 32.5t-54 28.5l-50 21q-67 28 -97.5 60.5t-30.5 82.5q0 65 48.5 103.5t124.5 38.5q106 0 170 -76l-57 -65q-48 50 -115 50t-67 -47q0 -18 14 -30.5t51 -27.5l47 -19q71 -30 102.5 -63.5t31.5 -84.5
q0 -71 -52 -111q-52 -39 -130 -39q-125 0 -198 95zM400 568h-78l-90 109l-91 -109h-79l136 212h67z" />
    <glyph glyph-name="Scedilla" unicode="&#x15e;" horiz-adv-x="559" 
d="M36 132l75 57q72 -105 173 -105q51 0 82.5 25t31.5 67q0 34 -21 53.5t-76 45.5l-73 34q-77 35 -115.5 77.5t-38.5 105.5q0 79 60 129t148 50q69 0 125.5 -32t87.5 -86l-74 -57q-54 80 -139 80q-44 0 -72 -21t-28 -59q1 -18 4.5 -29.5t18.5 -24t21 -15.5t39 -20q6 -3 9 -5
l74 -34q83 -38 120.5 -81t37.5 -107q0 -85 -62.5 -138t-158.5 -53q-80 0 -145 38t-104 105zM154 -182v72q36 -3 57 -3q33 0 52 16t19 45q0 32 -24 66l43 21q67 -34 67 -106q0 -52 -39 -86t-104 -34q-33 0 -71 9z" />
    <glyph glyph-name="scedilla" unicode="&#x15f;" horiz-adv-x="455" 
d="M30 84l60 66q67 -70 138 -70q35 0 57 14.5t22 40.5q0 20 -15 32.5t-54 28.5l-50 21q-67 28 -97.5 60.5t-30.5 82.5q0 65 48.5 103.5t124.5 38.5q106 0 170 -76l-57 -65q-48 50 -115 50t-67 -47q0 -18 14 -30.5t51 -27.5l47 -19q71 -30 102.5 -63.5t31.5 -84.5
q0 -71 -52 -111q-52 -39 -130 -39q-125 0 -198 95zM106 -182v72q36 -3 57 -3q33 0 52 16t19 45q0 32 -24 66l43 21q67 -34 67 -106q0 -52 -39 -86t-104 -34q-33 0 -71 9z" />
    <glyph glyph-name="Scaron" unicode="&#x160;" horiz-adv-x="559" 
d="M36 132l75 57q72 -105 173 -105q51 0 82.5 25t31.5 67q0 34 -21 53.5t-76 45.5l-73 34q-77 35 -115.5 77.5t-38.5 105.5q0 79 60 129t148 50q69 0 125.5 -32t87.5 -86l-74 -57q-54 80 -139 80q-44 0 -72 -21t-28 -59q1 -18 4.5 -29.5t18.5 -24t21 -15.5t39 -20q6 -3 9 -5
l74 -34q83 -38 120.5 -81t37.5 -107q0 -85 -62.5 -138t-158.5 -53q-80 0 -145 38t-104 105zM382 910h81l-148 -186h-67l-148 186h81l101 -94z" />
    <glyph glyph-name="scaron" unicode="&#x161;" horiz-adv-x="455" 
d="M30 84l60 66q67 -70 138 -70q35 0 57 14.5t22 40.5q0 20 -15 32.5t-54 28.5l-50 21q-67 28 -97.5 60.5t-30.5 82.5q0 65 48.5 103.5t124.5 38.5q106 0 170 -76l-57 -65q-48 50 -115 50t-67 -47q0 -18 14 -30.5t51 -27.5l47 -19q71 -30 102.5 -63.5t31.5 -84.5
q0 -71 -52 -111q-52 -39 -130 -39q-125 0 -198 95zM322 780h78l-135 -212h-67l-136 212h79l91 -109z" />
    <glyph glyph-name="uni0162" unicode="&#x162;" horiz-adv-x="583" 
d="M238 0v565h-222v95h551v-95h-223v-565h-106zM157 -182v72q36 -3 57 -3q33 0 52 16t19 45q0 32 -24 66l43 21q67 -34 67 -106q0 -52 -39 -86t-104 -34q-34 0 -71 9z" />
    <glyph glyph-name="uni0163" unicode="&#x163;" horiz-adv-x="398" 
d="M368 89v-89q-52 -11 -87 -11q-86 0 -133.5 43t-47.5 128v240h-80v91h80v129h106v-129h146v-91h-146v-231q0 -46 23.5 -65.5t73.5 -19.5q17 0 65 5zM91 -182v72q36 -3 57 -3q33 0 52 16t19 45q0 32 -24 66l43 21q67 -34 67 -106q0 -52 -39 -86t-104 -34q-34 0 -71 9z" />
    <glyph glyph-name="Tcaron" unicode="&#x164;" horiz-adv-x="583" 
d="M238 0v565h-222v95h551v-95h-223v-565h-106zM392 910h81l-148 -186h-67l-148 186h81l101 -94z" />
    <glyph glyph-name="tcaron" unicode="&#x165;" horiz-adv-x="398" 
d="M368 89v-89q-52 -11 -87 -11q-86 0 -133.5 43t-47.5 128v240h-80v91h80v129h106v-129h146v-91h-146v-231q0 -46 23.5 -65.5t73.5 -19.5q17 0 65 5zM296 542l9 208h111l-44 -208h-76z" />
    <glyph glyph-name="Tbar" unicode="&#x166;" horiz-adv-x="583" 
d="M238 0v244h-185v89h185v232h-222v95h551v-95h-223v-232h186v-89h-186v-244h-106z" />
    <glyph glyph-name="tbar" unicode="&#x167;" horiz-adv-x="412" 
d="M377 89v-89q-50 -11 -87 -11q-86 0 -133 43t-47 128v48h-81v87h81v109h-81v87h81v129h105v-129h146v-87h-146v-109h146v-87h-146v-39q0 -46 23.5 -65.5t72.5 -19.5q18 0 66 5z" />
    <glyph glyph-name="Utilde" unicode="&#x168;" horiz-adv-x="694" 
d="M76 267v393h106v-400q0 -82 45.5 -128t120.5 -46q74 0 119 46t45 128v400h106v-393q0 -128 -75.5 -203t-194.5 -75q-121 0 -196.5 75t-75.5 203zM355 757l-32 18q-30 18 -44 18q-28 0 -28 -36v-13h-84q-2 24 -2 29q0 51 28.5 84t72.5 33q37 0 72 -22l33 -20
q33 -18 44 -18q28 0 28 35v15h84q2 -24 2 -29q0 -51 -28.5 -84t-71.5 -33q-34 0 -74 23z" />
    <glyph glyph-name="utilde" unicode="&#x169;" horiz-adv-x="570" 
d="M71 206v285h104v-293q0 -50 31 -81t80 -31q47 0 77.5 31t30.5 81v293h105v-285q0 -97 -60.5 -157t-152.5 -60q-94 0 -154.5 59.5t-60.5 157.5zM291 611l-27 20q-28 21 -41 21q-28 0 -28 -38v-14h-83q-2 26 -2 29q0 53 27.5 86t71.5 33q37 0 70 -24l27 -20q26 -20 41 -20
q28 0 28 38v14h83q1 -7 1 -29q0 -53 -27.5 -86.5t-71.5 -33.5q-35 0 -69 24z" />
    <glyph glyph-name="Umacron" unicode="&#x16a;" horiz-adv-x="694" 
d="M76 267v393h106v-400q0 -82 45.5 -128t120.5 -46q74 0 119 46t45 128v400h106v-393q0 -128 -75.5 -203t-194.5 -75q-121 0 -196.5 75t-75.5 203zM193 762v85h308v-85h-308z" />
    <glyph glyph-name="umacron" unicode="&#x16b;" horiz-adv-x="570" 
d="M71 206v285h104v-293q0 -50 31 -81t80 -31q47 0 77.5 31t30.5 81v293h105v-285q0 -97 -60.5 -157t-152.5 -60q-94 0 -154.5 59.5t-60.5 157.5zM141 632v84h288v-84h-288z" />
    <glyph glyph-name="Ubreve" unicode="&#x16c;" horiz-adv-x="694" 
d="M76 267v393h106v-400q0 -82 45.5 -128t120.5 -46q74 0 119 46t45 128v400h106v-393q0 -128 -75.5 -203t-194.5 -75q-121 0 -196.5 75t-75.5 203zM185 890v20h84v-20q0 -40 21 -63.5t56 -23.5q36 0 57 23.5t21 63.5v20h85v-20q0 -75 -46 -121q-45 -46 -117 -46t-116.5 46
t-44.5 121z" />
    <glyph glyph-name="ubreve" unicode="&#x16d;" horiz-adv-x="570" 
d="M71 206v285h104v-293q0 -50 31 -81t80 -31q47 0 77.5 31t30.5 81v293h105v-285q0 -97 -60.5 -157t-152.5 -60q-94 0 -154.5 59.5t-60.5 157.5zM123 738v29h84v-28q0 -40 21 -63.5t56 -23.5q36 0 57 23.5t21 63.5v28h85v-29q0 -74 -46 -120q-45 -46 -117 -46
q-71 0 -116 46t-45 120z" />
    <glyph glyph-name="Uring" unicode="&#x16e;" horiz-adv-x="694" 
d="M76 267v393h106v-400q0 -82 45.5 -128t120.5 -46q74 0 119 46t45 128v400h106v-393q0 -128 -75.5 -203t-194.5 -75q-121 0 -196.5 75t-75.5 203zM228 802q0 48 33.5 81.5t84.5 33.5t85 -33.5t34 -81.5q0 -49 -34 -82t-85 -33t-84.5 33t-33.5 82zM392 802q0 20 -13 33
t-32 13q-20 0 -33 -13t-13 -33t13 -33t33 -13q19 0 32 13t13 33z" />
    <glyph glyph-name="uring" unicode="&#x16f;" horiz-adv-x="570" 
d="M71 206v285h104v-293q0 -50 31 -81t80 -31q47 0 77.5 31t30.5 81v293h105v-285q0 -97 -60.5 -157t-152.5 -60q-94 0 -154.5 59.5t-60.5 157.5zM166 669q0 49 34 82q34 34 84 34q51 0 85 -33t34 -83q0 -49 -34 -82t-85 -33q-50 0 -84 33t-34 82zM330 669q0 20 -13 33.5
t-32 13.5q-20 0 -33 -13.5t-13 -33.5q0 -19 13 -32t33 -13q19 0 32 13t13 32z" />
    <glyph glyph-name="Uhungarumlaut" unicode="&#x170;" horiz-adv-x="694" 
d="M76 267v393h106v-400q0 -82 45.5 -128t120.5 -46q74 0 119 46t45 128v400h106v-393q0 -128 -75.5 -203t-194.5 -75q-121 0 -196.5 75t-75.5 203zM185 724l79 186h111v-19l-118 -167h-72zM413 724l79 186h111v-19l-118 -167h-72z" />
    <glyph glyph-name="uhungarumlaut" unicode="&#x171;" horiz-adv-x="570" 
d="M71 206v285h104v-293q0 -50 31 -81t80 -31q47 0 77.5 31t30.5 81v293h105v-285q0 -97 -60.5 -157t-152.5 -60q-94 0 -154.5 59.5t-60.5 157.5zM140 568l79 212h111v-19l-118 -193h-72zM348 568l79 212h111v-19l-118 -193h-72z" />
    <glyph glyph-name="Uogonek" unicode="&#x172;" horiz-adv-x="694" 
d="M76 267v393h106v-400q0 -82 45.5 -128t120.5 -46q74 0 119 46t45 128v400h106v-393q0 -128 -75.5 -203t-194.5 -75q-121 0 -196.5 75t-75.5 203zM323 -98q0 38 22.5 69t98.5 97h101l-88 -91q-32 -32 -32 -56q0 -33 42 -33q13 0 48 6v-73q-37 -12 -79 -12q-51 0 -82 25
t-31 68z" />
    <glyph glyph-name="uogonek" unicode="&#x173;" horiz-adv-x="570" 
d="M394 491h105v-285q0 -50 -14 -86q-14 -35 -37 -61q-24 -25 -75 -72q-41 -38 -41 -63q0 -38 45 -38q23 0 48 6v-69q-42 -14 -82 -14q-52 0 -81 23t-29 65q0 53 50 92q-93 2 -152.5 61.5t-59.5 155.5v285h104v-293q0 -50 31 -81t80 -31q47 0 77.5 31t30.5 81v293z" />
    <glyph glyph-name="Wcircumflex" unicode="&#x174;" horiz-adv-x="1051" 
d="M899 660h116l-257 -671h-35l-197 468l-197 -468h-36l-257 671h117l165 -446l189 457h37l190 -457zM707 724h-81l-100 94l-101 -94h-81l148 186h67z" />
    <glyph glyph-name="wcircumflex" unicode="&#x175;" horiz-adv-x="854" 
d="M723 491h112l-218 -502h-36l-154 327l-154 -327h-36l-218 502h112l129 -321l149 332h36l151 -328zM594 568h-78l-90 109l-91 -109h-79l136 212h67z" />
    <glyph glyph-name="Ycircumflex" unicode="&#x176;" horiz-adv-x="620" 
d="M591 660l-228 -394v-266h-106v266l-228 394h118l163 -287l164 287h117zM489 724h-81l-100 94l-101 -94h-81l148 186h67z" />
    <glyph glyph-name="ycircumflex" unicode="&#x177;" horiz-adv-x="549" 
d="M418 491h112l-239 -547q-31 -70 -74 -102.5t-106 -32.5q-42 0 -81 10v89q41 -4 58 -4q76 0 107 72l20 46l-196 469h113l141 -357zM442 568h-78l-90 109l-91 -109h-79l136 212h67z" />
    <glyph glyph-name="Ydieresis" unicode="&#x178;" horiz-adv-x="620" 
d="M591 660l-228 -394v-266h-106v266l-228 394h118l163 -287l164 287h117zM117 812q0 27 20.5 46t47.5 19q29 0 48.5 -18.5t19.5 -46.5q0 -26 -20 -45.5t-48 -19.5q-27 0 -47.5 19.5t-20.5 45.5zM362 811q0 27 20.5 46.5t47.5 19.5q28 0 48 -19t20 -47q0 -26 -20 -45.5
t-48 -19.5q-27 0 -47.5 19.5t-20.5 45.5z" />
    <glyph glyph-name="Zacute" unicode="&#x179;" horiz-adv-x="588" 
d="M190 95h368v-95h-532v29l366 536h-323v95h488v-29zM259 724l79 186h128v-19l-129 -167h-78z" />
    <glyph glyph-name="zacute" unicode="&#x17a;" horiz-adv-x="461" 
d="M179 91h260v-91h-417v29l257 371h-234v91h392v-30zM199 568l79 212h128v-19l-129 -193h-78z" />
    <glyph glyph-name="Zdotaccent" unicode="&#x17b;" horiz-adv-x="588" 
d="M190 95h368v-95h-532v29l366 536h-323v95h488v-29zM228 812q0 30 21 50t51 20t50.5 -20t20.5 -50q0 -29 -21 -49t-50 -20q-30 0 -51 20t-21 49z" />
    <glyph glyph-name="zdotaccent" unicode="&#x17c;" horiz-adv-x="461" 
d="M179 91h260v-91h-417v29l257 371h-234v91h392v-30zM166 674q0 29 21 49.5t51 20.5q29 0 50 -20.5t21 -49.5t-21 -49t-50 -20q-30 0 -51 20t-21 49z" />
    <glyph glyph-name="Zcaron" unicode="&#x17d;" horiz-adv-x="588" 
d="M190 95h368v-95h-532v29l366 536h-323v95h488v-29zM400 910h81l-148 -186h-67l-148 186h81l101 -94z" />
    <glyph glyph-name="zcaron" unicode="&#x17e;" horiz-adv-x="461" 
d="M179 91h260v-91h-417v29l257 371h-234v91h392v-30zM329 780h78l-135 -212h-67l-136 212h79l91 -109z" />
    <glyph glyph-name="uni018F" unicode="&#x18f;" horiz-adv-x="732" 
d="M688 332q2 -142 -96.5 -243.5t-236.5 -99.5q-130 -2 -222 83.5t-90 213.5q0 31 8 79h527q-10 94 -70 151q-58 58 -150 58q-128 0 -208 -106l-72 61q101 142 280 142q139 2 235.5 -98t94.5 -241zM575 275h-428q0 -85 61.5 -137t149.5 -52q83 0 142 52t75 137z" />
    <glyph glyph-name="florin" unicode="&#x192;" horiz-adv-x="447" 
d="M445 662v-88q-42 2 -45 2q-45 0 -68 -20t-29 -65l-11 -89h99v-91h-110l-33 -273q-21 -171 -181 -171q-28 0 -65 8l-1 89q25 -3 45 -3q45 0 68.5 20.5t29.5 65.5l32 264h-92v91h103l12 98q23 171 181 171q41 0 65 -9z" />
    <glyph glyph-name="uni01D4" unicode="&#x1d4;" horiz-adv-x="570" 
d="M71 206v285h104v-293q0 -50 31 -81t80 -31q47 0 77.5 31t30.5 81v293h105v-285q0 -97 -60.5 -157t-152.5 -60q-94 0 -154.5 59.5t-60.5 157.5zM376 780h78l-135 -212h-67l-136 212h79l91 -109z" />
    <glyph glyph-name="AEacute" unicode="&#x1fc;" horiz-adv-x="836" 
d="M551 95h245v-95h-334l-19 110h-262l-58 -110h-114l342 660h433v-95h-311l28 -169h203v-92h-188zM379 505l-151 -304h199zM378 724l79 186h128v-19l-129 -167h-78z" />
    <glyph glyph-name="aeacute" unicode="&#x1fd;" horiz-adv-x="887" 
d="M834 204h-365q12 -57 54.5 -89.5t104.5 -32.5q78 0 142 57l51 -71q-81 -79 -195 -79q-68 0 -122.5 28.5t-88.5 79.5q-27 -53 -78.5 -80.5t-119.5 -27.5q-81 0 -129 40t-48 104q0 67 49.5 107t131.5 40h139v23q0 51 -27.5 78t-76.5 27q-74 0 -136 -73l-61 62
q75 105 206 105q116 0 165 -87q70 87 186 87q98 0 162 -64.5t64 -161.5q0 -42 -8 -72zM467 280h270q4 60 -32 96.5t-93 36.5q-56 0 -95.5 -36.5t-49.5 -96.5zM360 185v19h-126q-87 0 -87 -63q0 -33 23.5 -51.5t62.5 -18.5q52 0 90 32q37 33 37 82zM391 568l79 212h128v-19
l-129 -193h-78z" />
    <glyph glyph-name="Oslashacute" unicode="&#x1fe;" horiz-adv-x="780" 
d="M743 620l-80 -80q73 -89 73 -210q3 -141 -101.5 -242t-245.5 -99q-116 0 -208 67l-80 -80l-64 64l78 79q-72 94 -72 211q-2 141 101 242t245 99q116 0 210 -68l80 81zM148 331q0 -79 39 -140l343 344q-61 43 -140 43q-104 0 -173 -70.5t-69 -176.5zM631 331q0 77 -39 138
l-343 -344q61 -43 141 -43q103 0 172 70.5t69 178.5zM349 724l79 186h128v-19l-129 -167h-78z" />
    <glyph glyph-name="oslashacute" unicode="&#x1ff;" horiz-adv-x="616" 
d="M577 450l-56 -56q47 -67 47 -149q2 -104 -76.5 -181t-184.5 -75q-80 0 -147 44l-56 -57l-64 64l56 56q-48 67 -48 149q0 107 75.5 182t184.5 75q80 0 148 -45l57 56zM148 245q0 -49 21 -85l226 227q-41 24 -87 24q-70 0 -115 -47q-45 -46 -45 -119zM468 245q0 47 -20 85
l-228 -227q38 -25 87 -25q69 0 115 47.5t46 119.5zM271 568l79 212h128v-19l-129 -193h-78z" />
    <glyph glyph-name="uni0218" unicode="&#x218;" horiz-adv-x="559" 
d="M36 132l75 57q72 -105 173 -105q51 0 82.5 25t31.5 67q0 34 -21 53.5t-76 45.5l-73 34q-77 35 -115.5 77.5t-38.5 105.5q0 79 60 129t148 50q69 0 125.5 -32t87.5 -86l-74 -57q-54 80 -139 80q-44 0 -72 -21t-28 -59q1 -18 4.5 -29.5t18.5 -24t21 -15.5t39 -20q6 -3 9 -5
l74 -34q83 -38 120.5 -81t37.5 -107q0 -85 -62.5 -138t-158.5 -53q-80 0 -145 38t-104 105zM232 -220l7 172h100l-25 -172h-82z" />
    <glyph glyph-name="uni0219" unicode="&#x219;" horiz-adv-x="455" 
d="M30 84l60 66q67 -70 138 -70q35 0 57 14.5t22 40.5q0 20 -15 32.5t-54 28.5l-50 21q-67 28 -97.5 60.5t-30.5 82.5q0 65 48.5 103.5t124.5 38.5q106 0 170 -76l-57 -65q-48 50 -115 50t-67 -47q0 -18 14 -30.5t51 -27.5l47 -19q71 -30 102.5 -63.5t31.5 -84.5
q0 -71 -52 -111q-52 -39 -130 -39q-125 0 -198 95zM184 -220l7 172h100l-25 -172h-82z" />
    <glyph glyph-name="uni021A" unicode="&#x21a;" horiz-adv-x="583" 
d="M238 0v565h-222v95h551v-95h-223v-565h-106zM235 -220l7 172h100l-25 -172h-82z" />
    <glyph glyph-name="uni021B" unicode="&#x21b;" horiz-adv-x="398" 
d="M368 89v-89q-52 -11 -87 -11q-86 0 -133.5 43t-47.5 128v240h-80v91h80v129h106v-129h146v-91h-146v-231q0 -46 23.5 -65.5t73.5 -19.5q17 0 65 5zM169 -220l7 172h100l-25 -172h-82z" />
    <glyph glyph-name="uni0237" unicode="&#x237;" horiz-adv-x="257" 
d="M-61 -182v89q24 -3 43 -3q48 0 71 20t23 65v502h105v-511q0 -85 -45.5 -128t-128.5 -43q-41 0 -68 9z" />
    <glyph glyph-name="uni0259" unicode="&#x259;" horiz-adv-x="570" 
d="M526 246q0 -108 -71.5 -182.5t-178.5 -74.5q-99 0 -165 64t-66 161q0 35 7 66h366q-10 61 -50.5 95t-103.5 34q-84 0 -149 -58l-50 72q83 79 201 79q112 0 186 -74t74 -182zM417 198h-267q1 -55 37.5 -87.5t92.5 -32.5q52 0 89 32.5t48 87.5z" />
    <glyph glyph-name="circumflex" unicode="&#x2c6;" horiz-adv-x="600" 
d="M469 568h-78l-90 109l-91 -109h-79l136 212h67z" />
    <glyph glyph-name="caron" unicode="&#x2c7;" horiz-adv-x="600" 
d="M391 780h78l-135 -212h-67l-136 212h79l91 -109z" />
    <glyph glyph-name="breve" unicode="&#x2d8;" horiz-adv-x="600" 
d="M138 738v29h84v-28q0 -40 21 -63.5t56 -23.5q36 0 57 23.5t21 63.5v28h85v-29q0 -74 -46 -120q-45 -46 -117 -46q-71 0 -116 46t-45 120z" />
    <glyph glyph-name="dotaccent" unicode="&#x2d9;" horiz-adv-x="600" 
d="M228 674q0 29 21 49.5t51 20.5q29 0 50 -20.5t21 -49.5t-21 -49t-50 -20q-30 0 -51 20t-21 49z" />
    <glyph glyph-name="ring" unicode="&#x2da;" horiz-adv-x="600" 
d="M181 669q0 49 34 82q34 34 84 34q51 0 85 -33t34 -83q0 -49 -34 -82t-85 -33q-50 0 -84 33t-34 82zM345 669q0 20 -13 33.5t-32 13.5q-20 0 -33 -13.5t-13 -33.5q0 -19 13 -32t33 -13q19 0 32 13t13 32z" />
    <glyph glyph-name="ogonek" unicode="&#x2db;" horiz-adv-x="600" 
d="M204 -98q0 41 33.5 72t116.5 70l42 -44l-45 -29q-22 -15 -28 -19.5t-11.5 -12.5t-5.5 -18q0 -33 42 -33q14 0 48 6v-73q-41 -12 -79 -12q-52 0 -82.5 25.5t-30.5 67.5z" />
    <glyph glyph-name="tilde" unicode="&#x2dc;" horiz-adv-x="600" 
d="M306 611l-27 20q-28 21 -41 21q-28 0 -28 -38v-14h-83q-2 26 -2 29q0 53 27.5 86t71.5 33q37 0 70 -24l27 -20q26 -20 41 -20q28 0 28 38v14h83q1 -7 1 -29q0 -53 -27.5 -86.5t-71.5 -33.5q-35 0 -69 24z" />
    <glyph glyph-name="hungarumlaut" unicode="&#x2dd;" horiz-adv-x="600" 
d="M101 568l79 212h111v-19l-118 -193h-72zM309 568l79 212h111v-19l-118 -193h-72z" />
    <glyph glyph-name="gravecomb" unicode="&#x300;" horiz-adv-x="0" 
d="M-225 568l-129 193v19h128l79 -212h-78z" />
    <glyph glyph-name="acutecomb" unicode="&#x301;" horiz-adv-x="0" 
d="M-354 568l79 212h128v-19l-129 -193h-78z" />
    <glyph glyph-name="uni0302" unicode="&#x302;" horiz-adv-x="0" 
d="M-81 568h-78l-90 109l-91 -109h-79l136 212h67z" />
    <glyph glyph-name="tildecomb" unicode="&#x303;" horiz-adv-x="0" 
d="M-244 611l-27 20q-28 21 -41 21q-28 0 -28 -38v-14h-83q-2 26 -2 29q0 53 27.5 86t71.5 33q37 0 70 -24l27 -20q26 -20 41 -20q28 0 28 38v14h83q1 -7 1 -29q0 -53 -27.5 -86.5t-71.5 -33.5q-35 0 -69 24z" />
    <glyph glyph-name="uni0304" unicode="&#x304;" horiz-adv-x="0" 
d="M-394 632v84h288v-84h-288z" />
    <glyph glyph-name="uni0306" unicode="&#x306;" horiz-adv-x="0" 
d="M-412 738v29h84v-28q0 -40 21 -63.5t56 -23.5q36 0 57 23.5t21 63.5v28h85v-29q0 -74 -45 -120q-46 -46 -118 -46q-71 0 -116 46t-45 120z" />
    <glyph glyph-name="uni0307" unicode="&#x307;" horiz-adv-x="0" 
d="M-322 674q0 29 21 49.5t51 20.5q29 0 50 -20.5t21 -49.5t-21 -49t-50 -20q-30 0 -51 20t-21 49z" />
    <glyph glyph-name="uni0308" unicode="&#x308;" horiz-adv-x="0" 
d="M-431 674q0 27 20.5 46.5t48.5 19.5t47.5 -19t19.5 -47q0 -26 -19.5 -45.5t-47.5 -19.5t-48.5 19.5t-20.5 45.5zM-206 674q0 27 20.5 46.5t48.5 19.5q27 0 47 -19.5t20 -46.5q0 -26 -20 -45.5t-47 -19.5q-28 0 -48.5 19.5t-20.5 45.5z" />
    <glyph glyph-name="uni030A" unicode="&#x30a;" horiz-adv-x="0" 
d="M-369 669q0 49 34 82q34 34 84 34q51 0 85 -33t34 -83q0 -49 -34 -82t-85 -33q-50 0 -84 33t-34 82zM-205 669q0 20 -13 33.5t-32 13.5q-20 0 -33 -13.5t-13 -33.5q0 -19 13 -32t33 -13q19 0 32 13t13 32z" />
    <glyph glyph-name="uni030B" unicode="&#x30b;" horiz-adv-x="0" 
d="M-449 568l79 212h111v-19l-118 -193h-72zM-241 568l79 212h111v-19l-118 -193h-72z" />
    <glyph glyph-name="uni030C" unicode="&#x30c;" horiz-adv-x="0" 
d="M-159 780h78l-135 -212h-67l-136 212h79l91 -109z" />
    <glyph glyph-name="uni0326" unicode="&#x326;" horiz-adv-x="0" 
d="M-304 -220l7 172h100l-25 -172h-82z" />
    <glyph glyph-name="uni0327" unicode="&#x327;" horiz-adv-x="0" 
d="M-357 -182v72q36 -3 57 -3q33 0 52 16t19 45q0 32 -24 66l43 21q67 -34 67 -106q0 -52 -39 -86t-104 -34q-34 0 -71 9z" />
    <glyph glyph-name="uni0328" unicode="&#x328;" horiz-adv-x="0" 
d="M-346 -98q0 41 33.5 72t116.5 70l42 -44l-45 -29q-22 -15 -28 -19.5t-11.5 -12.5t-5.5 -18q0 -33 42 -33q14 0 48 6v-73q-40 -12 -79 -12q-52 0 -82.5 25.5t-30.5 67.5z" />
    <glyph glyph-name="tonos" unicode="&#x384;" horiz-adv-x="500" 
d="M170 568l33 212h126v-19l-80 -193h-79z" />
    <glyph glyph-name="dieresistonos" unicode="&#x385;" horiz-adv-x="500" 
d="M175 568l40 212h123v-19l-87 -193h-76zM12 674q0 27 20 46.5t47 19.5q28 0 48 -19t20 -47q0 -26 -20 -45.5t-48 -19.5q-26 0 -46.5 19.5t-20.5 45.5zM353 674q0 27 20 46.5t47 19.5q28 0 47.5 -19t19.5 -47q0 -26 -19.5 -45.5t-47.5 -19.5q-26 0 -46.5 19.5t-20.5 45.5z
" />
    <glyph glyph-name="Alphatonos" unicode="&#x386;" horiz-adv-x="662" 
d="M526 0l-47 110h-297l-47 -110h-113l291 671h36l291 -671h-114zM441 201l-110 273l-111 -273h221zM14 452l9 208h111l-44 -208h-76z" />
    <glyph glyph-name="anoteleia" unicode="&#x387;" horiz-adv-x="280" 
d="M62 317q0 33 23 55.5t56 22.5t55 -22t22 -56q0 -33 -22 -55t-55 -22t-56 22t-23 55z" />
    <glyph glyph-name="Epsilontonos" unicode="&#x388;" horiz-adv-x="569" 
d="M83 0v660h434v-95h-328v-169h247v-92h-247v-209h340v-95h-446zM-120 452l9 208h111l-44 -208h-76z" />
    <glyph glyph-name="Etatonos" unicode="&#x389;" horiz-adv-x="711" 
d="M83 0v660h106v-263h332v263h106v-660h-106v302h-332v-302h-106zM-120 452l9 208h111l-44 -208h-76z" />
    <glyph glyph-name="Iotatonos" unicode="&#x38a;" horiz-adv-x="272" 
d="M83 0v660h106v-660h-106zM-120 452l9 208h111l-44 -208h-76z" />
    <glyph glyph-name="Omicrontonos" unicode="&#x38c;" horiz-adv-x="780" 
d="M43 330q-2 141 101 242t245 99q141 2 245.5 -99t101.5 -242q3 -141 -101.5 -242t-245.5 -99q-142 -2 -245.5 99t-100.5 242zM627 331q0 104 -68 173.5t-169 69.5q-102 0 -169.5 -69t-67.5 -174q0 -106 67 -175.5t170 -69.5q101 0 169 70t68 175zM-76 452l9 208h111
l-44 -208h-76z" />
    <glyph glyph-name="Upsilontonos" unicode="&#x38e;" horiz-adv-x="620" 
d="M591 660l-228 -394v-266h-106v266l-228 394h118l163 -287l164 287h117zM-141 452l9 208h111l-44 -208h-76z" />
    <glyph glyph-name="Omegatonos" unicode="&#x38f;" horiz-adv-x="790" 
d="M602 95h129v-95h-276v95q177 84 177 245q0 101 -67.5 167.5t-170.5 66.5t-169.5 -66t-66.5 -167q0 -161 177 -246v-95h-277v95h125q-135 99 -135 250q-3 135 99.5 231.5t246.5 94.5q143 3 246.5 -94.5t100.5 -231.5q0 -146 -139 -250zM-65 452l9 208h111l-44 -208h-76z
" />
    <glyph glyph-name="iotadieresistonos" unicode="&#x390;" horiz-adv-x="318" 
d="M73 154v337h106v-322q0 -45 17 -65t56 -20q16 0 58 5v-89q-46 -11 -82 -11q-155 0 -155 165zM62 568l40 212h123v-19l-87 -193h-76zM-101 674q0 27 20 46.5t47 19.5q28 0 48 -19t20 -47q0 -26 -20 -45.5t-48 -19.5q-26 0 -46.5 19.5t-20.5 45.5zM240 674q0 27 20 46.5
t47 19.5q28 0 47.5 -19t19.5 -47q0 -26 -19.5 -45.5t-47.5 -19.5q-26 0 -46.5 19.5t-20.5 45.5z" />
    <glyph glyph-name="Alpha" unicode="&#x391;" horiz-adv-x="662" 
d="M526 0l-47 110h-297l-47 -110h-113l291 671h36l291 -671h-114zM441 201l-110 273l-111 -273h221z" />
    <glyph glyph-name="Beta" unicode="&#x392;" horiz-adv-x="618" 
d="M580 192q0 -84 -59 -138t-155 -54h-283v660h231q89 0 143.5 -49.5t54.5 -126.5t-55 -124q58 -19 90.5 -63t32.5 -105zM304 567h-117v-178h117q48 0 75 24t27 66q0 41 -26.5 64.5t-75.5 23.5zM473 195q0 48 -31 75.5t-85 27.5h-170v-205h170q55 0 85.5 27.5t30.5 74.5z
" />
    <glyph glyph-name="Gamma" unicode="&#x393;" horiz-adv-x="515" 
d="M83 0v660h408v-95h-302v-565h-106z" />
    <glyph glyph-name="uni0394" unicode="&#x394;" horiz-adv-x="662" 
d="M349 671l278 -642v-29h-592v29l278 642h36zM486 95l-155 364l-156 -364h311z" />
    <glyph glyph-name="Epsilon" unicode="&#x395;" horiz-adv-x="569" 
d="M83 0v660h434v-95h-328v-169h247v-92h-247v-209h340v-95h-446z" />
    <glyph glyph-name="Zeta" unicode="&#x396;" horiz-adv-x="588" 
d="M190 95h368v-95h-532v29l366 536h-323v95h488v-29z" />
    <glyph glyph-name="Eta" unicode="&#x397;" horiz-adv-x="711" 
d="M83 0v660h106v-263h332v263h106v-660h-106v302h-332v-302h-106z" />
    <glyph glyph-name="Theta" unicode="&#x398;" horiz-adv-x="780" 
d="M43 330q-2 141 101 242t245 99q141 2 245.5 -99t101.5 -242q3 -141 -101.5 -242t-245.5 -99q-142 -2 -245.5 99t-100.5 242zM633 330q0 107 -69.5 178t-174.5 71q-104 0 -173 -71t-69 -178q0 -108 69 -178.5t173 -70.5t174 71t70 178zM241 283v91h299v-91h-299z" />
    <glyph glyph-name="Iota" unicode="&#x399;" horiz-adv-x="272" 
d="M83 0v660h106v-660h-106z" />
    <glyph glyph-name="Kappa" unicode="&#x39a;" horiz-adv-x="651" 
d="M83 0v660h106v-660h-106zM325 351l304 -351h-131l-306 351l277 309h130z" />
    <glyph glyph-name="Lambda" unicode="&#x39b;" horiz-adv-x="662" 
d="M640 0h-114l-195 461l-196 -461h-113l291 671h36z" />
    <glyph glyph-name="Mu" unicode="&#x39c;" horiz-adv-x="793" 
d="M674 671h36v-671h-106v414l-189 -248h-36l-190 249v-415h-106v671h37l277 -369z" />
    <glyph glyph-name="Nu" unicode="&#x39d;" horiz-adv-x="711" 
d="M521 660h106v-671h-36l-402 458v-447h-106v671h37l401 -456v445z" />
    <glyph glyph-name="Xi" unicode="&#x39e;" horiz-adv-x="623" 
d="M40 565v95h543v-95h-543zM109 282v96h406v-96h-406zM40 0v95h543v-95h-543z" />
    <glyph glyph-name="Omicron" unicode="&#x39f;" horiz-adv-x="780" 
d="M43 330q-2 141 101 242t245 99q141 2 245.5 -99t101.5 -242q3 -141 -101.5 -242t-245.5 -99q-142 -2 -245.5 99t-100.5 242zM627 331q0 104 -68 173.5t-169 69.5q-102 0 -169.5 -69t-67.5 -174q0 -106 67 -175.5t170 -69.5q101 0 169 70t68 175z" />
    <glyph glyph-name="Pi" unicode="&#x3a0;" horiz-adv-x="686" 
d="M83 0v660h520v-660h-106v565h-308v-565h-106z" />
    <glyph glyph-name="Rho" unicode="&#x3a1;" horiz-adv-x="583" 
d="M83 0v660h241q100 0 162 -56.5t62 -145.5t-62.5 -146t-161.5 -57h-135v-255h-106zM189 349h133q55 0 86 29t31 79t-31 79.5t-86 29.5h-133v-217z" />
    <glyph glyph-name="Sigma" unicode="&#x3a3;" horiz-adv-x="572" 
d="M213 95h319v-95h-481v29l224 309l-224 293v29h469v-95h-303l167 -217v-18z" />
    <glyph glyph-name="Tau" unicode="&#x3a4;" horiz-adv-x="583" 
d="M238 0v565h-222v95h551v-95h-223v-565h-106z" />
    <glyph glyph-name="Upsilon" unicode="&#x3a5;" horiz-adv-x="620" 
d="M591 660l-228 -394v-266h-106v266l-228 394h118l163 -287l164 287h117z" />
    <glyph glyph-name="Phi" unicode="&#x3a6;" horiz-adv-x="817" 
d="M461 17v-59h-106v59q-135 5 -223.5 93.5t-88.5 220.5t88.5 219t223.5 92v60h106v-60q135 -3 224 -91t89 -220q0 -133 -89 -222t-224 -92zM667 328q0 95 -58 157t-148 65v-440q90 3 148 64t58 154zM355 110v440q-89 -3 -147 -65t-58 -157q0 -93 58 -154t147 -64z" />
    <glyph glyph-name="Chi" unicode="&#x3a7;" horiz-adv-x="607" 
d="M584 0h-121l-160 246l-159 -246h-122l223 337l-209 323h122l146 -233l144 233h121l-205 -323z" />
    <glyph glyph-name="Psi" unicode="&#x3a8;" horiz-adv-x="783" 
d="M339 0v149q-130 11 -203 88.5t-73 206.5v216h106v-214q0 -87 46 -141t124 -59v414h106v-414q77 5 123 59t46 141v214h106v-216q0 -129 -72.5 -206.5t-202.5 -88.5v-149h-106z" />
    <glyph glyph-name="uni03A9" unicode="&#x3a9;" horiz-adv-x="790" 
d="M602 95h129v-95h-276v95q177 84 177 245q0 101 -67.5 167.5t-170.5 66.5t-169.5 -66t-66.5 -167q0 -161 177 -246v-95h-277v95h125q-135 99 -135 250q-3 135 99.5 231.5t246.5 94.5q143 3 246.5 -94.5t100.5 -231.5q0 -146 -139 -250z" />
    <glyph glyph-name="Iotadieresis" unicode="&#x3aa;" horiz-adv-x="272" 
d="M83 0v660h106v-660h-106zM-54 812q0 27 20.5 46t47.5 19q29 0 48.5 -18.5t19.5 -46.5q0 -26 -20 -45.5t-48 -19.5q-27 0 -47.5 19.5t-20.5 45.5zM191 811q0 27 20.5 46.5t47.5 19.5q28 0 48 -19t20 -47q0 -26 -20 -45.5t-48 -19.5q-27 0 -47.5 19.5t-20.5 45.5z" />
    <glyph glyph-name="Upsilondieresis" unicode="&#x3ab;" horiz-adv-x="620" 
d="M591 660l-228 -394v-266h-106v266l-228 394h118l163 -287l164 287h117zM119 812q0 27 20.5 46t47.5 19q29 0 48.5 -18.5t19.5 -46.5q0 -26 -20 -45.5t-48 -19.5q-27 0 -47.5 19.5t-20.5 45.5zM364 811q0 27 20.5 46.5t47.5 19.5q28 0 48 -19t20 -47q0 -26 -20 -45.5
t-48 -19.5q-27 0 -47.5 19.5t-20.5 45.5z" />
    <glyph glyph-name="alphatonos" unicode="&#x3ac;" horiz-adv-x="644" 
d="M596 86l29 2v-88q-32 -8 -63 -8q-87 0 -111 79q-55 -82 -170 -82q-103 0 -169.5 73t-66.5 183t67 183.5t169 73.5q117 0 173 -89l5 78h98q-10 -143 -10 -232v-107q0 -66 49 -66zM443 245q0 75 -42 118t-103 43q-63 0 -105 -45q-41 -46 -41 -115q0 -70 41.5 -115.5
t104.5 -45.5q61 0 103 42.5t42 117.5zM240 568l33 212h126v-19l-80 -193h-79z" />
    <glyph glyph-name="epsilontonos" unicode="&#x3ad;" horiz-adv-x="511" 
d="M407 145l64 -63q-69 -93 -215 -93q-102 0 -156 36.5t-54 104.5q0 43 23.5 74.5t66.5 45.5q-69 38 -69 111q0 66 51.5 103.5t143.5 37.5q137 0 203 -85l-64 -63q-49 55 -136 55q-92 0 -92 -63q0 -57 77 -57h96v-84h-97q-51 0 -74.5 -14t-23.5 -44q0 -35 24 -50t81 -15
q99 0 151 63zM206 568l33 212h126v-19l-80 -193h-79z" />
    <glyph glyph-name="etatonos" unicode="&#x3ae;" horiz-adv-x="597" 
d="M526 307v-487h-105v472q0 52 -29.5 83t-77.5 31q-49 0 -80.5 -32t-31.5 -82v-292h-104v339q0 65 -50 65l-29 -1v88q30 8 63 8q78 0 103 -60q58 63 155 63q85 0 135.5 -53t50.5 -142zM259 568l33 212h126v-19l-80 -193h-79z" />
    <glyph glyph-name="iotatonos" unicode="&#x3af;" horiz-adv-x="318" 
d="M73 154v337h106v-322q0 -45 17 -65t56 -20q16 0 58 5v-89q-46 -11 -82 -11q-155 0 -155 165zM72 568l33 212h126v-19l-80 -193h-79z" />
    <glyph glyph-name="upsilondieresistonos" unicode="&#x3b0;" horiz-adv-x="578" 
d="M71 210v281h105v-289q0 -52 31.5 -85t81.5 -33t81.5 33t31.5 85v289h105v-281q0 -99 -60 -160t-158 -61t-158 61t-60 160zM220 568l40 212h123v-19l-87 -193h-76zM57 674q0 27 20 46.5t47 19.5q28 0 48 -19t20 -47q0 -26 -20 -45.5t-48 -19.5q-26 0 -46.5 19.5
t-20.5 45.5zM398 674q0 27 20 46.5t47 19.5q28 0 47.5 -19t19.5 -47q0 -26 -19.5 -45.5t-47.5 -19.5q-26 0 -46.5 19.5t-20.5 45.5z" />
    <glyph glyph-name="alpha" unicode="&#x3b1;" horiz-adv-x="644" 
d="M596 86l29 2v-88q-32 -8 -63 -8q-87 0 -111 79q-55 -82 -170 -82q-103 0 -169.5 73t-66.5 183t67 183.5t169 73.5q117 0 173 -89l5 78h98q-10 -143 -10 -232v-107q0 -66 49 -66zM443 245q0 75 -42 118t-103 43q-63 0 -105 -45q-41 -46 -41 -115q0 -70 41.5 -115.5
t104.5 -45.5q61 0 103 42.5t42 117.5z" />
    <glyph glyph-name="beta" unicode="&#x3b2;" horiz-adv-x="616" 
d="M571 219q0 -100 -67 -165t-169 -65q-89 0 -154 53v-222h-105v723q0 97 64 158.5t164 61.5q92 0 152 -54t60 -135q0 -103 -83 -152q64 -23 101 -77t37 -126zM464 222q0 63 -40 101.5t-105 38.5h-60v90h42q48 0 76.5 29.5t28.5 80.5q0 46 -29.5 75t-76.5 29q-53 0 -86 -35
t-33 -92v-394q59 -59 141 -59q64 0 103 37.5t39 98.5z" />
    <glyph glyph-name="gamma" unicode="&#x3b3;" 
d="M541 491l-208 -507v-164h-105v164l-209 507h112l149 -382l149 382h112z" />
    <glyph glyph-name="delta" unicode="&#x3b4;" horiz-adv-x="600" 
d="M555 242q0 -106 -74.5 -179.5t-181.5 -73.5t-180.5 72t-73.5 178q0 101 68 172t170 75l-228 235v29h468v-97h-265l186 -191q60 -63 85.5 -113.5t25.5 -106.5zM447 238q0 69 -42 112q-42 44 -107 44q-64 0 -105 -44t-41 -111q0 -68 41 -110.5t107 -42.5q65 0 106 42.5
t41 109.5z" />
    <glyph glyph-name="epsilon" unicode="&#x3b5;" horiz-adv-x="511" 
d="M407 145l64 -63q-69 -93 -215 -93q-102 0 -156 36.5t-54 104.5q0 43 23.5 74.5t66.5 45.5q-69 38 -69 111q0 66 51.5 103.5t143.5 37.5q137 0 203 -85l-64 -63q-49 55 -136 55q-92 0 -92 -63q0 -57 77 -57h96v-84h-97q-51 0 -74.5 -14t-23.5 -44q0 -35 24 -50t81 -15
q99 0 151 63z" />
    <glyph glyph-name="zeta" unicode="&#x3b6;" horiz-adv-x="464" 
d="M469 721l-211 -305q-62 -88 -84 -130q-23 -43 -23 -77q0 -47 29 -74t95 -43l43 -10q63 -15 97 -55t34 -98q0 -57 -28 -109h-104q25 46 25 86q0 38 -20.5 59.5t-65.5 32.5l-45 11q-81 20 -123.5 68.5t-42.5 120.5q0 51 28 104q26 51 105 167l128 184h-252v97h415v-29z" />
    <glyph glyph-name="eta" unicode="&#x3b7;" horiz-adv-x="597" 
d="M526 307v-487h-105v472q0 52 -29.5 83t-77.5 31q-49 0 -80.5 -32t-31.5 -82v-292h-104v339q0 65 -50 65l-29 -1v88q30 8 63 8q78 0 103 -60q58 63 155 63q85 0 135.5 -53t50.5 -142z" />
    <glyph glyph-name="theta" unicode="&#x3b8;" horiz-adv-x="629" 
d="M580 377q0 -186 -70 -287t-196 -101t-195.5 100.5t-69.5 287.5q0 185 69.5 284.5t195.5 99.5q127 0 196.5 -99.5t69.5 -284.5zM157 424h314q-13 240 -157 240q-70 0 -110 -60.5t-47 -179.5zM471 329h-314q7 -121 47 -182.5t110 -61.5q144 0 157 244z" />
    <glyph glyph-name="iota" unicode="&#x3b9;" horiz-adv-x="318" 
d="M73 154v337h106v-322q0 -45 17 -65t56 -20q16 0 58 5v-89q-46 -11 -82 -11q-155 0 -155 165z" />
    <glyph glyph-name="kappa" unicode="&#x3ba;" horiz-adv-x="534" 
d="M76 0v491h105v-491h-105zM313 263l212 -263h-125l-215 263l200 228h129z" />
    <glyph glyph-name="lambda" unicode="&#x3bb;" 
d="M527 88h23v-88q-27 -8 -49 -8q-43 0 -69 22t-44 74l-106 290l-163 -378h-112l224 501l-29 85q-14 43 -35 61.5t-57 18.5q-18 0 -50 -3v89q27 9 69 9q61 0 100 -33.5t66 -105.5l182 -488q16 -46 50 -46z" />
    <glyph glyph-name="uni03BC" unicode="&#x3bc;" horiz-adv-x="602" 
d="M555 86l28 2v-88q-30 -8 -62 -8q-72 0 -100 55q-45 -58 -123 -58q-74 0 -117 52v-221h-105v671h105v-288q0 -52 30.5 -85t78.5 -33q49 0 79.5 33t30.5 85v288h105v-337q0 -68 50 -68z" />
    <glyph glyph-name="nu" unicode="&#x3bd;" horiz-adv-x="549" 
d="M418 491h112l-237 -502h-36l-238 502h112l144 -325z" />
    <glyph glyph-name="xi" unicode="&#x3be;" horiz-adv-x="479" 
d="M457 -71q0 -54 -26 -109h-103q23 48 23 85q0 40 -19 61t-64 28l-38 7q-84 16 -131 69t-47 131q0 64 31 113t87 74q-89 44 -89 138q0 77 62 127h-85v97h398v-97h-152q-54 0 -86 -32t-32 -79t30 -79t79 -32h119v-92h-121q-61 0 -97 -33.5t-36 -90.5q0 -51 32 -82t101 -46
l36 -8q128 -29 128 -150z" />
    <glyph glyph-name="omicron" unicode="&#x3bf;" horiz-adv-x="609" 
d="M45 246q-2 105 75.5 181.5t183.5 74.5q107 2 185 -75t76 -181q2 -105 -76 -182t-185 -75q-106 -2 -183.5 75.5t-75.5 181.5zM457 245q0 68 -44 114.5t-108 46.5q-65 0 -109 -46.5t-44 -114.5t43.5 -113.5t108.5 -45.5t109 46t44 113z" />
    <glyph glyph-name="pi" unicode="&#x3c0;" horiz-adv-x="592" 
d="M91 0v393h-74v98h559v-98h-74v-393h-105v393h-201v-393h-105z" />
    <glyph glyph-name="rho" unicode="&#x3c1;" horiz-adv-x="619" 
d="M575 245q0 -110 -68 -183t-170 -73q-104 0 -162 71v-240h-104v422q0 116 68.5 188t180.5 72t183.5 -72t71.5 -185zM467 245q0 70 -42 115q-42 46 -107 46t-104.5 -44t-39.5 -117q0 -71 40 -115.5t105 -44.5q63 0 105.5 46t42.5 114z" />
    <glyph glyph-name="uni03C2" unicode="&#x3c2;" horiz-adv-x="529" 
d="M358 -95q0 37 -17.5 57t-60.5 33l-47 13q-188 56 -188 237q0 113 69.5 185t179.5 72q142 0 212 -116l-74 -58q-56 77 -135 77q-63 0 -104 -44t-41 -111q0 -61 33.5 -99t104.5 -58l53 -15q122 -32 122 -149q0 -51 -26 -109h-104q23 44 23 85z" />
    <glyph glyph-name="sigma" unicode="&#x3c3;" horiz-adv-x="640" 
d="M623 491v-98h-132q66 -66 66 -157q2 -103 -74 -176t-183 -71q-108 0 -181.5 73t-73.5 181q0 109 73.5 178.5t187.5 69.5h317zM449 245q0 67 -42 110q-40 43 -106 43q-65 0 -107 -43t-42 -111t42 -113t106 -45q63 0 106 45.5t43 113.5z" />
    <glyph glyph-name="tau" unicode="&#x3c4;" horiz-adv-x="488" 
d="M457 393h-181v-224q0 -44 23 -64.5t73 -20.5q18 0 66 5v-89q-50 -11 -87 -11q-87 0 -133.5 44t-46.5 127v233h-156v98h442v-98z" />
    <glyph glyph-name="upsilon" unicode="&#x3c5;" horiz-adv-x="578" 
d="M71 210v281h105v-289q0 -52 31.5 -85t81.5 -33t81.5 33t31.5 85v289h105v-281q0 -99 -60 -160t-158 -61t-158 61t-60 160z" />
    <glyph glyph-name="phi" unicode="&#x3c6;" horiz-adv-x="761" 
d="M433 -10v-170h-106v170q-123 6 -202.5 76t-79.5 180q0 109 79.5 178.5t202.5 75.5v160h106v-160q124 -6 203.5 -75t79.5 -179t-80 -180t-203 -76zM330 80v330q-79 -4 -131 -49q-51 -43 -51 -117q0 -73 49.5 -116t132.5 -48zM613 244q0 73 -50 117t-133 49v-330
q83 5 133 48t50 116z" />
    <glyph glyph-name="chi" unicode="&#x3c7;" horiz-adv-x="511" 
d="M509 -92v-88q-27 -8 -58 -8q-77 0 -118 87l-81 169l-119 -248h-117l177 347l-92 193q-12 23 -25 33t-36 10h-34v88q22 7 61 7q43 0 69 -20t48 -67l70 -151l113 231h116l-172 -331l104 -209q13 -26 26 -35t37 -9q25 0 31 1z" />
    <glyph glyph-name="psi" unicode="&#x3c8;" horiz-adv-x="766" 
d="M330 -180v169q-114 0 -186.5 71.5t-72.5 185.5v245h104v-236q0 -72 45 -121.5t110 -49.5v576h106v-576q65 0 110 49.5t45 121.5v236h105v-245q0 -114 -72.5 -185.5t-187.5 -71.5v-169h-106z" />
    <glyph glyph-name="omega" unicode="&#x3c9;" horiz-adv-x="792" 
d="M747 237q0 -113 -56.5 -180.5t-151.5 -67.5q-97 0 -143 72q-44 -72 -144 -72q-94 0 -150.5 67.5t-56.5 180.5q0 98 45 166t128 94l36 -91q-103 -51 -103 -171q0 -69 28.5 -109.5t77.5 -40.5q42 0 65.5 29t23.5 79v140h100v-140q0 -50 23.5 -79t65.5 -29q49 0 77.5 40
t28.5 109q0 123 -102 172l35 91q83 -26 128 -94t45 -166z" />
    <glyph glyph-name="iotadieresis" unicode="&#x3ca;" horiz-adv-x="318" 
d="M73 154v337h106v-322q0 -45 17 -65t56 -20q16 0 58 5v-89q-46 -11 -82 -11q-155 0 -155 165zM-42 674q0 27 20 46.5t47 19.5q29 0 48.5 -19t19.5 -47q0 -26 -20 -45.5t-48 -19.5q-26 0 -46.5 19.5t-20.5 45.5zM158 674q0 27 20.5 46.5t47.5 19.5q28 0 48 -19t20 -47
q0 -26 -20 -45.5t-48 -19.5q-27 0 -47.5 19.5t-20.5 45.5z" />
    <glyph glyph-name="upsilondieresis" unicode="&#x3cb;" horiz-adv-x="578" 
d="M71 210v281h105v-289q0 -52 31.5 -85t81.5 -33t81.5 33t31.5 85v289h105v-281q0 -99 -60 -160t-158 -61t-158 61t-60 160zM103 674q0 27 20.5 46.5t48.5 19.5t47.5 -19t19.5 -47q0 -26 -19.5 -45.5t-47.5 -19.5t-48.5 19.5t-20.5 45.5zM328 674q0 27 20.5 46.5t48.5 19.5
q27 0 47 -19.5t20 -46.5q0 -26 -20 -45.5t-47 -19.5q-28 0 -48.5 19.5t-20.5 45.5z" />
    <glyph glyph-name="omicrontonos" unicode="&#x3cc;" horiz-adv-x="609" 
d="M45 246q-2 105 75.5 181.5t183.5 74.5q107 2 185 -75t76 -181q2 -105 -76 -182t-185 -75q-106 -2 -183.5 75.5t-75.5 181.5zM457 245q0 68 -44 114.5t-108 46.5q-65 0 -109 -46.5t-44 -114.5t43.5 -113.5t108.5 -45.5t109 46t44 113zM250 568l33 212h126v-19l-80 -193
h-79z" />
    <glyph glyph-name="upsilontonos" unicode="&#x3cd;" horiz-adv-x="578" 
d="M71 210v281h105v-289q0 -52 31.5 -85t81.5 -33t81.5 33t31.5 85v289h105v-281q0 -99 -60 -160t-158 -61t-158 61t-60 160zM229 568l33 212h126v-19l-80 -193h-79z" />
    <glyph glyph-name="omegatonos" unicode="&#x3ce;" horiz-adv-x="792" 
d="M747 237q0 -113 -56.5 -180.5t-151.5 -67.5q-97 0 -143 72q-44 -72 -144 -72q-94 0 -150.5 67.5t-56.5 180.5q0 98 45 166t128 94l36 -91q-103 -51 -103 -171q0 -69 28.5 -109.5t77.5 -40.5q42 0 65.5 29t23.5 79v140h100v-140q0 -50 23.5 -79t65.5 -29q49 0 77.5 40
t28.5 109q0 123 -102 172l35 91q83 -26 128 -94t45 -166zM342 568l33 212h126v-19l-80 -193h-79z" />
    <glyph glyph-name="uni0400" unicode="&#x400;" horiz-adv-x="569" 
d="M83 0v660h434v-95h-328v-169h247v-92h-247v-209h340v-95h-446zM261 724l-129 167v19h128l79 -186h-78z" />
    <glyph glyph-name="uni0401" unicode="&#x401;" horiz-adv-x="569" 
d="M83 0v660h434v-95h-328v-169h247v-92h-247v-209h340v-95h-446zM108 812q0 27 20.5 46t47.5 19q29 0 48.5 -18.5t19.5 -46.5q0 -26 -20 -45.5t-48 -19.5q-27 0 -47.5 19.5t-20.5 45.5zM353 811q0 27 20.5 46.5t47.5 19.5q28 0 48 -19t20 -47q0 -26 -20 -45.5t-48 -19.5
q-27 0 -47.5 19.5t-20.5 45.5z" />
    <glyph glyph-name="uni0402" unicode="&#x402;" horiz-adv-x="741" 
d="M472 -14l-20 94q136 19 136 119q0 52 -35 80t-96 28q-73 0 -137 -24v-283h-106v565h-198v95h536v-95h-232v-188q63 24 142 24q104 0 169 -53q66 -52 66 -148q0 -99 -64 -151q-63 -52 -161 -63z" />
    <glyph glyph-name="uni0403" unicode="&#x403;" horiz-adv-x="515" 
d="M83 0v660h408v-95h-302v-565h-106zM231 724l79 186h128v-19l-129 -167h-78z" />
    <glyph glyph-name="uni0404" unicode="&#x404;" horiz-adv-x="717" 
d="M593 200l80 -59q-43 -71 -117.5 -111.5t-165.5 -40.5q-142 -2 -246 99t-101 242q-3 141 101 242t246 99q90 0 165 -41t118 -111l-80 -59q-73 114 -202 114q-89 0 -153 -54q-63 -51 -80 -139h298v-92h-300q14 -89 79 -146t156 -57q129 0 202 114z" />
    <glyph glyph-name="uni0405" unicode="&#x405;" horiz-adv-x="559" 
d="M36 132l75 57q72 -105 173 -105q51 0 82.5 25t31.5 67q0 34 -21 53.5t-76 45.5l-73 34q-77 35 -115.5 77.5t-38.5 105.5q0 79 60 129t148 50q69 0 125.5 -32t87.5 -86l-74 -57q-54 80 -139 80q-44 0 -72 -21t-28 -59q1 -18 4.5 -29.5t18.5 -24t21 -15.5t39 -20q6 -3 9 -5
l74 -34q83 -38 120.5 -81t37.5 -107q0 -85 -62.5 -138t-158.5 -53q-80 0 -145 38t-104 105z" />
    <glyph glyph-name="uni0406" unicode="&#x406;" horiz-adv-x="272" 
d="M83 0v660h106v-660h-106z" />
    <glyph glyph-name="uni0407" unicode="&#x407;" horiz-adv-x="272" 
d="M83 0v660h106v-660h-106zM-55 812q0 27 20.5 46t47.5 19q29 0 48.5 -18.5t19.5 -46.5q0 -26 -20 -45.5t-48 -19.5q-27 0 -47.5 19.5t-20.5 45.5zM190 811q0 27 20.5 46.5t47.5 19.5q28 0 48 -19t20 -47q0 -26 -20 -45.5t-48 -19.5q-27 0 -47.5 19.5t-20.5 45.5z" />
    <glyph glyph-name="uni0408" unicode="&#x408;" horiz-adv-x="381" 
d="M21 0v91q50 -5 68 -5q53 0 78 20t25 69v485h106v-496q0 -86 -48.5 -130.5t-137.5 -44.5q-41 0 -91 11z" />
    <glyph glyph-name="uni0409" unicode="&#x409;" horiz-adv-x="968" 
d="M923 208q0 -92 -63.5 -150t-166.5 -58h-239v565h-198q-6 -221 -28 -343.5t-64 -174.5t-116 -55q-29 0 -48 8v91q6 -2 28 -2q66 0 94 110.5t33 352.5l1 108h404v-244h133q103 0 166.5 -58t63.5 -150zM814 208q0 52 -32.5 83t-89.5 31h-132v-228h132q57 0 89.5 31t32.5 83z
" />
    <glyph glyph-name="uni040A" unicode="&#x40a;" horiz-adv-x="978" 
d="M83 0v660h106v-248h275v248h106v-248h133q103 0 166.5 -57.5t63.5 -148.5q0 -92 -63.5 -149t-166.5 -57h-239v316h-275v-316h-106zM570 94h132q57 0 89.5 30.5t32.5 80.5q0 51 -32.5 82t-89.5 31h-132v-224z" />
    <glyph glyph-name="uni040B" unicode="&#x40b;" horiz-adv-x="775" 
d="M704 148v-148h-106v139q0 79 -39 122t-107 43q-72 0 -132 -23v-281h-106v565h-198v95h536v-95h-232v-188q67 24 139 24q111 0 178 -66.5t67 -186.5z" />
    <glyph glyph-name="uni040C" unicode="&#x40c;" horiz-adv-x="651" 
d="M83 0v660h106v-660h-106zM325 351l304 -351h-131l-306 351l277 309h130zM285 724l79 186h128v-19l-129 -167h-78z" />
    <glyph glyph-name="uni040D" unicode="&#x40d;" horiz-adv-x="718" 
d="M598 671h37v-671h-106v461l-409 -472h-37v671h106v-460zM330 724l-129 167v19h128l79 -186h-78z" />
    <glyph glyph-name="uni040E" unicode="&#x40e;" horiz-adv-x="655" 
d="M522 660h111l-232 -499q-45 -96 -85 -133t-117 -39q-28 0 -64 11v91q21 -4 52 -4q63 0 97 56l-255 517h119l194 -398zM182 890v20h86v-23q0 -41 19.5 -64.5t55.5 -23.5t56 23t20 65v23h87v-20q0 -75 -45 -121t-118 -46q-72 0 -116.5 46t-44.5 121z" />
    <glyph glyph-name="uni040F" unicode="&#x40f;" horiz-adv-x="698" 
d="M615 660v-660h-214v-141h-104v141h-214v660h106v-565h320v565h106z" />
    <glyph glyph-name="uni0410" unicode="&#x410;" horiz-adv-x="662" 
d="M526 0l-47 110h-297l-47 -110h-113l291 671h36l291 -671h-114zM441 201l-110 273l-111 -273h221z" />
    <glyph glyph-name="uni0411" unicode="&#x411;" horiz-adv-x="591" 
d="M83 0v660h416v-95h-310v-169h142q99 0 160.5 -55t61.5 -142q0 -88 -61.5 -143.5t-160.5 -55.5h-248zM189 93h138q56 0 87.5 28.5t31.5 77.5t-31.5 77.5t-87.5 28.5h-138v-212z" />
    <glyph glyph-name="uni0412" unicode="&#x412;" horiz-adv-x="618" 
d="M580 192q0 -84 -59 -138t-155 -54h-283v660h231q89 0 143.5 -49.5t54.5 -126.5t-55 -124q58 -19 90.5 -63t32.5 -105zM304 567h-117v-178h117q48 0 75 24t27 66q0 41 -26.5 64.5t-75.5 23.5zM473 195q0 48 -31 75.5t-85 27.5h-170v-205h170q55 0 85.5 27.5t30.5 74.5z
" />
    <glyph glyph-name="uni0413" unicode="&#x413;" horiz-adv-x="515" 
d="M83 0v660h408v-95h-302v-565h-106z" />
    <glyph glyph-name="uni0414" unicode="&#x414;" horiz-adv-x="697" 
d="M586 95h84v-236h-106v141h-445v-141h-106v236h52q93 83 93 471v94h428v-565zM181 95h299v470h-224q-2 -353 -75 -470z" />
    <glyph glyph-name="uni0415" unicode="&#x415;" horiz-adv-x="569" 
d="M83 0v660h434v-95h-328v-169h247v-92h-247v-209h340v-95h-446z" />
    <glyph glyph-name="uni0416" unicode="&#x416;" horiz-adv-x="979" 
d="M46 660h131l256 -309l-280 -351h-131l286 351zM436 0v660h106v-660h-106zM671 351l286 -351h-131l-281 351l257 309h130z" />
    <glyph glyph-name="uni0417" unicode="&#x417;" horiz-adv-x="586" 
d="M543 193q0 -90 -68.5 -147t-175.5 -57q-84 0 -151 39.5t-104 108.5l75 55q70 -106 179 -106q60 0 99 31t39 81q0 46 -33.5 73t-97.5 27h-81v91h78q48 0 75 24.5t27 65.5q0 44 -28 69.5t-79 25.5q-93 0 -149 -89l-75 55q71 131 227 131q96 0 153.5 -50t57.5 -134
q0 -83 -72 -134q104 -50 104 -160z" />
    <glyph glyph-name="uni0418" unicode="&#x418;" horiz-adv-x="718" 
d="M598 671h37v-671h-106v461l-409 -472h-37v671h106v-460z" />
    <glyph glyph-name="uni0419" unicode="&#x419;" horiz-adv-x="718" 
d="M598 671h37v-671h-106v461l-409 -472h-37v671h106v-460zM206 890v20h86v-23q0 -41 19.5 -64.5t55.5 -23.5t56 23t20 65v23h87v-20q0 -75 -45 -121t-118 -46q-72 0 -116.5 46t-44.5 121z" />
    <glyph glyph-name="uni041A" unicode="&#x41a;" horiz-adv-x="651" 
d="M83 0v660h106v-660h-106zM325 351l304 -351h-131l-306 351l277 309h130z" />
    <glyph glyph-name="uni041B" unicode="&#x41b;" horiz-adv-x="670" 
d="M156 660h431v-660h-106v565h-224q-7 -223 -29.5 -345.5t-64.5 -174t-115 -53.5q-29 0 -48 8v91q6 -2 28 -2q66 0 94 110.5t33 352.5z" />
    <glyph glyph-name="uni041C" unicode="&#x41c;" horiz-adv-x="793" 
d="M674 671h36v-671h-106v414l-189 -248h-36l-190 249v-415h-106v671h37l277 -369z" />
    <glyph glyph-name="uni041D" unicode="&#x41d;" horiz-adv-x="711" 
d="M83 0v660h106v-263h332v263h106v-660h-106v302h-332v-302h-106z" />
    <glyph glyph-name="uni041E" unicode="&#x41e;" horiz-adv-x="780" 
d="M43 330q-2 141 101 242t245 99q141 2 245.5 -99t101.5 -242q3 -141 -101.5 -242t-245.5 -99q-142 -2 -245.5 99t-100.5 242zM627 331q0 104 -68 173.5t-169 69.5q-102 0 -169.5 -69t-67.5 -174q0 -106 67 -175.5t170 -69.5q101 0 169 70t68 175z" />
    <glyph glyph-name="uni041F" unicode="&#x41f;" horiz-adv-x="701" 
d="M83 0v660h534v-660h-106v565h-322v-565h-106z" />
    <glyph glyph-name="uni0420" unicode="&#x420;" horiz-adv-x="583" 
d="M83 0v660h241q100 0 162 -56.5t62 -145.5t-62.5 -146t-161.5 -57h-135v-255h-106zM189 349h133q55 0 86 29t31 79t-31 79.5t-86 29.5h-133v-217z" />
    <glyph glyph-name="uni0421" unicode="&#x421;" horiz-adv-x="717" 
d="M43 330q-3 141 101 242t246 99q90 0 165 -41t118 -111l-80 -59q-73 114 -202 114q-102 0 -170 -69.5t-68 -174.5t68 -174.5t170 -69.5q129 0 202 114l80 -59q-43 -71 -117.5 -111.5t-165.5 -40.5q-142 -2 -246 99t-101 242z" />
    <glyph glyph-name="uni0422" unicode="&#x422;" horiz-adv-x="583" 
d="M238 0v565h-222v95h551v-95h-223v-565h-106z" />
    <glyph glyph-name="uni0423" unicode="&#x423;" horiz-adv-x="655" 
d="M522 660h111l-232 -499q-45 -96 -85 -133t-117 -39q-28 0 -64 11v91q21 -4 52 -4q63 0 97 56l-255 517h119l194 -398z" />
    <glyph glyph-name="uni0424" unicode="&#x424;" horiz-adv-x="818" 
d="M461 61v-81h-106v81q-141 3 -228 76.5t-87 197.5q0 123 87 195.5t228 75.5v74h106v-74q142 -3 229.5 -75.5t87.5 -196.5q0 -123 -87.5 -196.5t-229.5 -76.5zM672 334q0 84 -56.5 131t-154.5 49v-360q97 1 154 49t57 131zM355 154v360q-97 -2 -153 -50t-56 -132
q0 -83 55.5 -129.5t153.5 -48.5z" />
    <glyph glyph-name="uni0425" unicode="&#x425;" horiz-adv-x="607" 
d="M584 0h-121l-160 246l-159 -246h-122l223 337l-209 323h122l146 -233l144 233h121l-205 -323z" />
    <glyph glyph-name="uni0426" unicode="&#x426;" horiz-adv-x="725" 
d="M595 -141v141h-512v660h106v-565h320v565h106v-565h83v-236h-103z" />
    <glyph glyph-name="uni0427" unicode="&#x427;" horiz-adv-x="653" 
d="M464 660h106v-660h-106v255q-66 -26 -148 -26q-125 0 -193.5 65.5t-68.5 190.5v175h106v-166q0 -169 168 -169q82 0 136 25v310z" />
    <glyph glyph-name="uni0428" unicode="&#x428;" horiz-adv-x="976" 
d="M83 0v660h106v-565h246v565h106v-565h246v565h106v-660h-810z" />
    <glyph glyph-name="uni0429" unicode="&#x429;" horiz-adv-x="1004" 
d="M874 -141v141h-791v660h106v-565h246v565h106v-565h246v565h106v-565h84v-236h-103z" />
    <glyph glyph-name="uni042A" unicode="&#x42a;" horiz-adv-x="680" 
d="M166 0v565h-150v95h256v-244h133q102 0 166.5 -58t64.5 -150t-64 -150t-167 -58h-239zM272 94h133q57 0 89.5 31t32.5 83t-32.5 83t-89.5 31h-133v-228z" />
    <glyph glyph-name="uni042B" unicode="&#x42b;" horiz-adv-x="860" 
d="M83 0v660h106v-244h133q102 0 166.5 -58t64.5 -150t-64 -150t-167 -58h-239zM189 94h132q57 0 90 31t33 83t-33 83t-90 31h-132v-228zM670 0v660h106v-660h-106z" />
    <glyph glyph-name="uni042C" unicode="&#x42c;" horiz-adv-x="597" 
d="M83 0v660h106v-244h133q102 0 166.5 -58t64.5 -150t-64 -150t-167 -58h-239zM189 94h132q57 0 90 31t33 83t-33 83t-90 31h-132v-228z" />
    <glyph glyph-name="uni042D" unicode="&#x42d;" horiz-adv-x="717" 
d="M674 330q3 -141 -101 -242t-246 -99q-91 0 -165.5 40.5t-117.5 111.5l80 59q75 -114 202 -114q91 0 156.5 57t79.5 146h-286v92h284q-17 87 -81 139q-65 54 -153 54q-127 0 -202 -114l-80 59q45 71 119 111.5t164 40.5q142 2 246 -99t101 -242z" />
    <glyph glyph-name="uni042E" unicode="&#x42e;" horiz-adv-x="991" 
d="M947 330q2 -141 -97 -242t-237 -99q-132 -2 -227.5 89t-102.5 224h-94v-302h-106v660h106v-263h99q21 120 112 197t213 77q139 2 237.5 -98.5t96.5 -242.5zM838 331q0 105 -63.5 174t-160.5 69q-98 0 -161.5 -69t-63.5 -174q0 -106 63 -175.5t162 -69.5q98 0 161 69.5
t63 175.5z" />
    <glyph glyph-name="uni042F" unicode="&#x42f;" horiz-adv-x="626" 
d="M316 660h226v-660h-106v238h-109l-170 -238h-116l180 254q-67 24 -106 76t-39 120q0 93 66.5 151.5t173.5 58.5zM436 333v233h-122q-59 0 -94 -32t-35 -85t35.5 -84.5t93.5 -31.5h122z" />
    <glyph glyph-name="uni0430" unicode="&#x430;" horiz-adv-x="536" 
d="M466 297v-297h-98v55q-55 -66 -157 -66q-77 0 -124 39t-47 103t49 102t132 38h139v32q0 51 -27.5 78t-77.5 27q-75 0 -136 -73l-61 62q72 105 207 105q92 0 146.5 -54t54.5 -151zM360 186v9h-126q-87 0 -87 -60q0 -30 23.5 -47.5t62.5 -17.5q54 0 90.5 33t36.5 83z" />
    <glyph glyph-name="uni0431" unicode="&#x431;" horiz-adv-x="616" 
d="M572 237q0 -104 -74.5 -175.5t-183.5 -71.5q-116 0 -187.5 78.5t-71.5 205.5v79q0 114 25 186q51 154 293 189q115 16 156 33v-98q-46 -19 -151 -31q-73 -11 -117 -28.5t-67.5 -49t-31 -67t-8.5 -94.5q64 91 180 91q98 2 169 -72t69 -175zM464 237q0 62 -44 106t-107 44
q-62 0 -106 -44t-44 -106q0 -63 44 -107t106 -44q63 0 107 44t44 107z" />
    <glyph glyph-name="uni0432" unicode="&#x432;" horiz-adv-x="549" 
d="M497 149q0 -66 -48.5 -107.5t-126.5 -41.5h-245v491h216q73 0 119 -37t46 -97q0 -59 -45 -92q84 -32 84 -116zM180 406v-111h109q70 0 70 56q0 55 -70 55h-109zM397 151q0 29 -22.5 46t-62.5 17h-132v-130h132q39 0 62 18.5t23 48.5z" />
    <glyph glyph-name="uni0433" unicode="&#x433;" horiz-adv-x="444" 
d="M77 0v491h346v-91h-240v-400h-106z" />
    <glyph glyph-name="uni0434" unicode="&#x434;" horiz-adv-x="606" 
d="M491 91h81v-232h-102v141h-361v-141h-103v232h55q56 60 62 269l4 131h364v-400zM170 91h216v309h-164l-1 -50q-4 -178 -51 -259z" />
    <glyph glyph-name="uni0435" unicode="&#x435;" horiz-adv-x="570" 
d="M518 211h-366q10 -60 53.5 -94.5t106.5 -34.5q78 0 143 58l50 -72q-83 -79 -196 -79q-112 0 -188 73.5t-76 182.5q-2 106 74 182.5t180 74.5q97 0 162 -64.5t65 -160.5q0 -29 -8 -66zM154 293h267q-1 55 -37 87.5t-89 32.5q-52 0 -90.5 -32.5t-50.5 -87.5z" />
    <glyph glyph-name="uni0436" unicode="&#x436;" horiz-adv-x="806" 
d="M29 491h127l188 -228l-207 -263h-123l206 263zM348 0v491h105v-491h-105zM582 266l209 -266h-128l-207 263l189 228h126z" />
    <glyph glyph-name="uni0437" unicode="&#x437;" horiz-adv-x="479" 
d="M432 143q0 -73 -51.5 -113.5t-141.5 -40.5q-130 0 -200 93l64 63q52 -63 131 -63q44 0 69 18.5t25 49.5q0 30 -23.5 47t-65.5 17h-57v84h54q34 0 52 15t18 41q0 25 -19.5 40t-54.5 15q-71 0 -120 -55l-64 63q67 85 189 85q81 0 126.5 -36.5t45.5 -102.5q0 -68 -53 -104
q76 -37 76 -116z" />
    <glyph glyph-name="uni0438" unicode="&#x438;" horiz-adv-x="583" 
d="M470 502h36v-502h-106v305l-286 -316h-37v502h106v-307z" />
    <glyph glyph-name="uni0439" unicode="&#x439;" horiz-adv-x="583" 
d="M470 502h36v-502h-106v305l-286 -316h-37v502h106v-307zM142 738v29h86v-28q0 -91 75 -91q76 0 76 91v28h87v-29q0 -74 -45 -120t-118 -46q-72 0 -116.5 46t-44.5 120z" />
    <glyph glyph-name="uni043A" unicode="&#x43a;" horiz-adv-x="541" 
d="M77 0v491h106v-491h-106zM311 267l216 -267h-128l-212 263l197 228h124z" />
    <glyph glyph-name="uni043B" unicode="&#x43b;" horiz-adv-x="555" 
d="M117 491h361v-491h-105v400h-158l-1 -49q-5 -192 -41.5 -274.5t-123.5 -82.5q-21 0 -38 6v88q16 -2 20 -2q44 0 63 66t21 216z" />
    <glyph glyph-name="uni043C" unicode="&#x43c;" horiz-adv-x="689" 
d="M77 0v502h37l231 -267l232 267h35v-502h-105v284l-144 -167h-37l-143 166v-283h-106z" />
    <glyph glyph-name="uni043D" unicode="&#x43d;" horiz-adv-x="576" 
d="M77 0v491h106v-188h211v188h105v-491h-105v212h-211v-212h-106z" />
    <glyph glyph-name="uni043E" unicode="&#x43e;" horiz-adv-x="609" 
d="M45 246q-2 105 75.5 181.5t183.5 74.5q107 2 185 -75t76 -181q2 -105 -76 -182t-185 -75q-106 -2 -183.5 75.5t-75.5 181.5zM457 245q0 68 -44 114.5t-108 46.5q-65 0 -109 -46.5t-44 -114.5t43.5 -113.5t108.5 -45.5t109 46t44 113z" />
    <glyph glyph-name="uni043F" unicode="&#x43f;" horiz-adv-x="571" 
d="M77 0v491h417v-491h-106v400h-205v-400h-106z" />
    <glyph glyph-name="uni0440" unicode="&#x440;" horiz-adv-x="631" 
d="M586 246q0 -110 -68.5 -183.5t-172.5 -73.5q-102 0 -164 71v-240h-105v671h98v-69q56 80 171 80q104 0 172.5 -73.5t68.5 -182.5zM478 245q0 70 -43 115.5t-107 45.5q-62 0 -105 -42t-43 -118q0 -77 43 -119t105 -42q64 0 107 45t43 115z" />
    <glyph glyph-name="uni0441" unicode="&#x441;" horiz-adv-x="552" 
d="M45 246q-2 105 76 181.5t184 74.5q138 0 207 -114l-74 -58q-52 75 -132 75q-66 0 -110 -46t-44 -113q0 -68 44 -114t110 -46q78 0 132 74l74 -57q-33 -54 -87 -84t-120 -30q-109 0 -184.5 75t-75.5 182z" />
    <glyph glyph-name="uni0442" unicode="&#x442;" horiz-adv-x="455" 
d="M175 0v400h-158v91h421v-91h-158v-400h-105z" />
    <glyph glyph-name="uni0443" unicode="&#x443;" horiz-adv-x="549" 
d="M418 491h112l-239 -547q-31 -70 -74 -102.5t-106 -32.5q-42 0 -81 10v89q41 -4 58 -4q76 0 107 72l20 46l-196 469h113l141 -357z" />
    <glyph glyph-name="uni0444" unicode="&#x444;" horiz-adv-x="750" 
d="M428 -10v-170h-106v170q-123 6 -200 74.5t-77 181.5t77 181t200 74v249h106v-249q124 -8 201 -76t77 -180q0 -113 -77.5 -181t-200.5 -74zM325 81v329q-82 -4 -128 -47.5t-46 -118.5q0 -74 46.5 -116.5t127.5 -46.5zM599 246q0 74 -46 117t-127 47v-329q81 4 127 47
t46 118z" />
    <glyph glyph-name="uni0445" unicode="&#x445;" horiz-adv-x="514" 
d="M499 0h-120l-123 180l-122 -180h-120l182 255l-169 236h120l110 -162l109 162h120l-170 -237z" />
    <glyph glyph-name="uni0446" unicode="&#x446;" horiz-adv-x="605" 
d="M469 -141v141h-392v491h105v-400h203v400h105v-400h81v-232h-102z" />
    <glyph glyph-name="uni0447" unicode="&#x447;" horiz-adv-x="541" 
d="M358 491h105v-491h-105v183q-42 -19 -115 -19q-93 0 -145.5 53t-52.5 149v125h105v-119q0 -114 114 -114q52 0 94 17v216z" />
    <glyph glyph-name="uni0448" unicode="&#x448;" horiz-adv-x="833" 
d="M77 0v491h105v-400h182v400h105v-400h182v400h105v-491h-679z" />
    <glyph glyph-name="uni0449" unicode="&#x449;" horiz-adv-x="870" 
d="M734 -141v141h-657v491h105v-400h182v400h105v-400h182v400h105v-400h80v-232h-102z" />
    <glyph glyph-name="uni044A" unicode="&#x44a;" horiz-adv-x="578" 
d="M132 0v400h-115v91h220v-156h104q87 0 139 -46q54 -45 54 -121q0 -77 -53 -122.5t-140 -45.5h-209zM237 91h99q43 0 66.5 20.5t23.5 55.5t-24.5 56t-66.5 21h-98v-153z" />
    <glyph glyph-name="uni044B" unicode="&#x44b;" horiz-adv-x="725" 
d="M77 0v491h106v-156h103q87 0 140 -45t53 -122t-53 -122.5t-140 -45.5h-209zM542 0v491h105v-491h-105zM183 91h99q43 0 66.5 19.5t23.5 56.5t-24 57t-67 20h-98v-153z" />
    <glyph glyph-name="uni044C" unicode="&#x44c;" horiz-adv-x="524" 
d="M77 0v491h106v-156h103q87 0 139 -46q54 -45 54 -121q0 -77 -53 -122.5t-140 -45.5h-209zM183 91h99q43 0 66.5 20.5t23.5 55.5t-24.5 56t-66.5 21h-98v-153z" />
    <glyph glyph-name="uni044D" unicode="&#x44d;" horiz-adv-x="552" 
d="M507 246q2 -106 -76 -182.5t-185 -74.5q-133 0 -206 113l71 57q57 -76 135 -76q57 0 98.5 35t52.5 91h-186v82h184q-14 52 -54.5 84t-94.5 32q-80 0 -135 -75l-72 56q73 114 207 114q108 2 185.5 -74.5t75.5 -181.5z" />
    <glyph glyph-name="uni044E" unicode="&#x44e;" horiz-adv-x="806" 
d="M761 246q2 -105 -74 -182t-180 -75q-96 0 -166 63.5t-82 159.5h-76v-212h-106v491h106v-188h80q18 87 86.5 143t158.5 56q103 2 179 -75t74 -181zM655 245q0 68 -43 114.5t-105 46.5q-64 0 -106 -46t-42 -115q0 -68 42 -113.5t105 -45.5t106 46t43 113z" />
    <glyph glyph-name="uni044F" unicode="&#x44f;" horiz-adv-x="539" 
d="M253 491h209v-491h-105v165h-73l-127 -165h-121l141 179q-52 19 -81 57.5t-29 91.5q0 74 50.5 118.5t135.5 44.5zM357 254v146h-99q-39 0 -61 -19.5t-22 -53.5t22.5 -53.5t61.5 -19.5h98z" />
    <glyph glyph-name="uni0450" unicode="&#x450;" horiz-adv-x="570" 
d="M518 211h-366q10 -60 53.5 -94.5t106.5 -34.5q78 0 143 58l50 -72q-83 -79 -196 -79q-112 0 -188 73.5t-76 182.5q-2 106 74 182.5t180 74.5q97 0 162 -64.5t65 -160.5q0 -29 -8 -66zM154 293h267q-1 55 -37 87.5t-89 32.5q-52 0 -90.5 -32.5t-50.5 -87.5zM259 568
l-129 193v19h128l79 -212h-78z" />
    <glyph glyph-name="uni0451" unicode="&#x451;" horiz-adv-x="570" 
d="M518 211h-366q10 -60 53.5 -94.5t106.5 -34.5q78 0 143 58l50 -72q-83 -79 -196 -79q-112 0 -188 73.5t-76 182.5q-2 106 74 182.5t180 74.5q97 0 162 -64.5t65 -160.5q0 -29 -8 -66zM154 293h267q-1 55 -37 87.5t-89 32.5q-52 0 -90.5 -32.5t-50.5 -87.5zM116 674
q0 27 20.5 46.5t48.5 19.5t47.5 -19t19.5 -47q0 -26 -19.5 -45.5t-47.5 -19.5t-48.5 19.5t-20.5 45.5zM341 674q0 27 20.5 46.5t48.5 19.5q27 0 47 -19.5t20 -46.5q0 -26 -20 -45.5t-47 -19.5q-28 0 -48.5 19.5t-20.5 45.5z" />
    <glyph glyph-name="uni0452" unicode="&#x452;" horiz-adv-x="581" 
d="M511 285v-305q0 -85 -46 -128t-130 -43q-40 0 -67 9v89q22 -3 42 -3q49 0 72 19.5t23 65.5v283q0 50 -29 81t-77 31q-50 0 -81.5 -31.5t-31.5 -80.5v-272h-104v566h-81v90h81v94h104v-94h197v-90h-197v-145q51 60 142 60q84 0 133.5 -54t49.5 -142z" />
    <glyph glyph-name="uni0453" unicode="&#x453;" horiz-adv-x="444" 
d="M77 0v491h346v-91h-240v-400h-106zM203 568l79 212h128v-19l-129 -193h-78z" />
    <glyph glyph-name="uni0454" unicode="&#x454;" horiz-adv-x="552" 
d="M440 159l72 -57q-74 -113 -207 -113q-109 0 -184.5 75t-75.5 182t75.5 181.5t184.5 74.5q134 0 207 -114l-71 -56q-55 75 -135 75q-54 0 -95 -32t-55 -84h184v-82h-186q11 -55 53 -90.5t99 -35.5q79 0 134 76z" />
    <glyph glyph-name="uni0455" unicode="&#x455;" horiz-adv-x="455" 
d="M30 84l60 66q67 -70 138 -70q35 0 57 14.5t22 40.5q0 20 -15 32.5t-54 28.5l-50 21q-67 28 -97.5 60.5t-30.5 82.5q0 65 48.5 103.5t124.5 38.5q106 0 170 -76l-57 -65q-48 50 -115 50t-67 -47q0 -18 14 -30.5t51 -27.5l47 -19q71 -30 102.5 -63.5t31.5 -84.5
q0 -71 -52 -111q-52 -39 -130 -39q-125 0 -198 95z" />
    <glyph glyph-name="uni0456" unicode="&#x456;" horiz-adv-x="273" 
d="M65 674q0 29 21 49.5t51 20.5q29 0 50 -20.5t21 -49.5t-21 -49t-50 -20q-30 0 -51 20t-21 49zM84 0v491h105v-491h-105z" />
    <glyph glyph-name="uni0457" unicode="&#x457;" horiz-adv-x="257" 
d="M5 674q0 31 16.5 50.5t42.5 19.5t42.5 -19.5t16.5 -50.5t-16.5 -50t-42.5 -19t-42.5 19t-16.5 50zM136 674q0 31 16.5 50.5t42.5 19.5t42.5 -19.5t16.5 -50.5t-16.5 -50t-42.5 -19t-42.5 19t-16.5 50zM76 0v491h105v-491h-105z" />
    <glyph glyph-name="uni0458" unicode="&#x458;" horiz-adv-x="257" 
d="M-61 -182v89q24 -3 43 -3q48 0 71 20t23 65v502h105v-511q0 -85 -45.5 -128t-128.5 -43q-41 0 -68 9zM57 674q0 29 21 49.5t51 20.5q29 0 50 -20.5t21 -49.5t-21 -49t-50 -20q-30 0 -51 20t-21 49z" />
    <glyph glyph-name="uni0459" unicode="&#x459;" horiz-adv-x="800" 
d="M755 170q0 -78 -53 -124t-140 -46h-209v400h-138l-1 -49q-5 -192 -41.5 -274.5t-123.5 -82.5q-21 0 -38 6v88q16 -2 20 -2q44 0 63 66t21 216l2 123h341v-156h104q87 0 140 -45t53 -120zM647 168q0 35 -24.5 55.5t-65.5 20.5h-99v-153h99q42 0 66 20.5t24 56.5z" />
    <glyph glyph-name="uni045A" unicode="&#x45a;" horiz-adv-x="819" 
d="M774 163q0 -76 -53.5 -119.5t-143.5 -43.5h-209v233h-185v-233h-106v491h106v-167h185v167h105v-167h104q90 0 143.5 -43t53.5 -118zM667 162q0 33 -25 52.5t-68 19.5h-101v-144h101q93 0 93 72z" />
    <glyph glyph-name="uni045B" unicode="&#x45b;" horiz-adv-x="581" 
d="M511 285v-285h-106v272q0 50 -29 81t-77 31q-50 0 -81.5 -31.5t-31.5 -80.5v-272h-104v565h-81v90h81v95h104v-95h197v-90h-197v-144q51 60 142 60q84 0 133.5 -54t49.5 -142z" />
    <glyph glyph-name="uni045C" unicode="&#x45c;" horiz-adv-x="541" 
d="M77 0v491h106v-491h-106zM311 267l216 -267h-128l-212 263l197 228h124zM244 568l79 212h128v-19l-129 -193h-78z" />
    <glyph glyph-name="uni045D" unicode="&#x45d;" horiz-adv-x="583" 
d="M470 502h36v-502h-106v305l-286 -316h-37v502h106v-307zM265 568l-129 193v19h128l79 -212h-78z" />
    <glyph glyph-name="uni045E" unicode="&#x45e;" horiz-adv-x="549" 
d="M418 491h112l-239 -547q-31 -70 -74 -102.5t-106 -32.5q-42 0 -81 10v89q41 -4 58 -4q76 0 107 72l20 46l-196 469h113l141 -357zM111 738v29h86v-28q0 -91 75 -91q76 0 76 91v28h87v-29q0 -74 -45 -120t-118 -46q-72 0 -116.5 46t-44.5 120z" />
    <glyph glyph-name="uni045F" unicode="&#x45f;" horiz-adv-x="568" 
d="M490 491v-491h-155v-141h-102v141h-156v491h105v-400h203v400h105z" />
    <glyph glyph-name="uni0462" unicode="&#x462;" horiz-adv-x="676" 
d="M162 0v493h-146v87h146v86h106v-86h189v-87h-189v-103h138q103 0 164.5 -54t61.5 -141q0 -88 -62 -142q-62 -53 -165 -53h-243zM268 94h137q55 0 86.5 27.5t31.5 73.5t-31.5 74t-86.5 28h-137v-203z" />
    <glyph glyph-name="uni0463" unicode="&#x463;" horiz-adv-x="583" 
d="M136 0v404h-135v87h135v259h105v-259h161v-87h-161v-90h110q84 0 135.5 -42.5t51.5 -113.5q0 -72 -51.5 -115t-135.5 -43h-215zM241 87h102q42 0 65 18.5t23 51.5q0 32 -23.5 51t-64.5 19h-102v-140z" />
    <glyph glyph-name="uni0472" unicode="&#x472;" horiz-adv-x="780" 
d="M736 330q3 -141 -101.5 -242t-245.5 -99q-142 -2 -245.5 99t-100.5 242q-2 141 101 242t245 99q141 2 245.5 -99t101.5 -242zM154 370q59 28 124 28q42 0 113 -18q66 -19 113 -19q62 0 118 25q-16 84 -81 137q-64 52 -152 52q-91 0 -157 -57.5t-78 -147.5zM626 293
q-60 -26 -122 -26q-46 0 -116 19q-72 18 -110 18q-61 0 -122 -27q17 -86 80 -139q65 -53 153 -53q93 0 159 58.5t78 149.5z" />
    <glyph glyph-name="uni0473" unicode="&#x473;" horiz-adv-x="609" 
d="M565 246q0 -107 -76.5 -182t-184.5 -75q-107 0 -183 75t-76 182q-2 105 75.5 181.5t183.5 74.5q106 2 184.5 -74.5t76.5 -181.5zM153 288q36 15 70 15q35 0 82 -15q51 -14 81 -14t70 14q-13 54 -54 87.5t-98 33.5t-98 -33.5t-53 -87.5zM458 213q-35 -16 -72 -16
q-29 0 -84 15q-46 15 -79 15q-37 0 -72 -16q11 -58 52.5 -93t100.5 -35t101.5 36.5t52.5 93.5z" />
    <glyph glyph-name="uni0474" unicode="&#x474;" horiz-adv-x="684" 
d="M684 659v-91q-20 3 -33 3q-29 0 -46 -14t-33 -49l-223 -519h-36l-291 671h119l191 -460l145 351q25 61 61 88.5t93 27.5q23 0 53 -8z" />
    <glyph glyph-name="uni0475" unicode="&#x475;" horiz-adv-x="552" 
d="M552 491v-89q-6 1 -27 1q-22 0 -35 -10.5t-26 -35.5l-171 -368h-36l-238 502h112l144 -326l102 232q22 52 51.5 76t73.5 24q28 0 50 -6z" />
    <glyph glyph-name="uni0490" unicode="&#x490;" horiz-adv-x="494" 
d="M83 0v660h283v141h104v-236h-281v-565h-106z" />
    <glyph glyph-name="uni0491" unicode="&#x491;" horiz-adv-x="444" 
d="M77 0v491h244v141h102v-232h-240v-400h-106z" />
    <glyph glyph-name="uni0492" unicode="&#x492;" horiz-adv-x="523" 
d="M501 565h-295v-213h162v-89h-162v-263h-106v263h-89v89h89v308h401v-95z" />
    <glyph glyph-name="uni0493" unicode="&#x493;" horiz-adv-x="444" 
d="M423 400h-240v-126h133v-89h-133v-185h-106v185h-76v89h76v217h346v-91z" />
    <glyph glyph-name="uni0496" unicode="&#x496;" horiz-adv-x="978" 
d="M46 660h131l256 -309l-280 -351h-131l286 351zM436 0v660h106v-660h-106zM879 95h96v-236h-103v141h-46l-281 351l257 309h130l-260 -309z" />
    <glyph glyph-name="uni0497" unicode="&#x497;" horiz-adv-x="841" 
d="M31 491h127l188 -225l-209 -266h-123l208 266zM350 0v491h105v-491h-105zM722 91h85v-232h-102v141h-37l-210 266l189 225h126l-190 -223z" />
    <glyph glyph-name="uni0498" unicode="&#x498;" horiz-adv-x="586" 
d="M543 193q0 -90 -68.5 -147t-175.5 -57q-84 0 -151 39.5t-104 108.5l75 55q70 -106 179 -106q60 0 99 31t39 81q0 46 -33.5 73t-97.5 27h-81v91h78q48 0 75 24.5t27 65.5q0 44 -28 69.5t-79 25.5q-93 0 -149 -89l-75 55q71 131 227 131q96 0 153.5 -50t57.5 -134
q0 -83 -72 -134q104 -50 104 -160zM168 -182v72q36 -3 57 -3q33 0 52 16t19 45q0 32 -24 66l43 21q67 -34 67 -106q0 -52 -39 -86t-104 -34q-33 0 -71 9z" />
    <glyph glyph-name="uni0499" unicode="&#x499;" horiz-adv-x="479" 
d="M432 143q0 -73 -51.5 -113.5t-141.5 -40.5q-130 0 -200 93l64 63q52 -63 131 -63q44 0 69 18.5t25 49.5q0 30 -23.5 47t-65.5 17h-57v84h54q34 0 52 15t18 41q0 25 -19.5 40t-54.5 15q-71 0 -120 -55l-64 63q67 85 189 85q81 0 126.5 -36.5t45.5 -102.5q0 -68 -53 -104
q76 -37 76 -116zM121 -182v72q36 -3 57 -3q33 0 52 16t19 45q0 32 -24 66l43 21q67 -34 67 -106q0 -52 -39 -86t-104 -34q-34 0 -71 9z" />
    <glyph glyph-name="uni049A" unicode="&#x49a;" horiz-adv-x="650" 
d="M83 0v660h106v-660h-106zM549 95h98v-236h-103v141h-46l-306 351l277 309h130l-274 -308z" />
    <glyph glyph-name="uni049B" unicode="&#x49b;" horiz-adv-x="573" 
d="M77 0v491h106v-491h-106zM453 91h86v-232h-102v141h-36l-215 266l196 225h125l-198 -222z" />
    <glyph glyph-name="uni04A0" unicode="&#x4a0;" horiz-adv-x="820" 
d="M17 565v95h341v-660h-106v565h-235zM493 351l305 -351h-131l-306 351l276 309h131z" />
    <glyph glyph-name="uni04A1" unicode="&#x4a1;" horiz-adv-x="662" 
d="M17 400v91h286v-491h-105v400h-181zM431 269l217 -269h-125l-215 266l196 225h125z" />
    <glyph glyph-name="uni04A2" unicode="&#x4a2;" horiz-adv-x="738" 
d="M608 -141v141h-87v302h-332v-302h-106v660h106v-263h332v263h106v-565h84v-236h-103z" />
    <glyph glyph-name="uni04A3" unicode="&#x4a3;" horiz-adv-x="611" 
d="M475 -141v141h-81v212h-211v-212h-106v491h106v-188h211v188h105v-400h78v-232h-102z" />
    <glyph glyph-name="uni04AA" unicode="&#x4aa;" horiz-adv-x="717" 
d="M43 330q-3 141 101 242t246 99q90 0 165 -41t118 -111l-80 -59q-73 114 -202 114q-102 0 -170 -69.5t-68 -174.5t68 -174.5t170 -69.5q129 0 202 114l80 -59q-43 -71 -117.5 -111.5t-165.5 -40.5q-142 -2 -246 99t-101 242zM263 -182v72q36 -3 57 -3q33 0 52 16t19 45
q0 32 -24 66l43 21q67 -34 67 -106q0 -52 -39 -86t-104 -34q-33 0 -71 9z" />
    <glyph glyph-name="uni04AB" unicode="&#x4ab;" horiz-adv-x="552" 
d="M45 246q-2 105 76 181.5t184 74.5q138 0 207 -114l-74 -58q-52 75 -132 75q-66 0 -110 -46t-44 -113q0 -68 44 -114t110 -46q78 0 132 74l74 -57q-33 -54 -87 -84t-120 -30q-109 0 -184.5 75t-75.5 182zM168 -182v72q36 -3 57 -3q33 0 52 16t19 45q0 32 -24 66l43 21
q67 -34 67 -106q0 -52 -39 -86t-104 -34q-33 0 -71 9z" />
    <glyph glyph-name="uni04AE" unicode="&#x4ae;" horiz-adv-x="620" 
d="M591 660l-228 -394v-266h-106v266l-228 394h118l163 -287l164 287h117z" />
    <glyph glyph-name="uni04AF" unicode="&#x4af;" horiz-adv-x="549" 
d="M530 491l-203 -491v-180h-105v178l-203 493h112l144 -387l143 387h112z" />
    <glyph glyph-name="uni04B0" unicode="&#x4b0;" horiz-adv-x="620" 
d="M591 660l-226 -391h145v-89h-147v-180h-106v180h-147v89h145l-226 391h118l163 -287l164 287h117z" />
    <glyph glyph-name="uni04B1" unicode="&#x4b1;" horiz-adv-x="549" 
d="M530 491l-201 -491h127v-88h-129v-92h-105v92h-128v88h126l-201 491h112l144 -388l143 388h112z" />
    <glyph glyph-name="uni04B2" unicode="&#x4b2;" horiz-adv-x="615" 
d="M522 95h90v-236h-103v141h-46l-160 246l-159 -246h-122l223 337l-209 323h122l146 -233l144 233h121l-205 -323z" />
    <glyph glyph-name="uni04B3" unicode="&#x4b3;" horiz-adv-x="553" 
d="M434 91h85v-232h-102v141h-36l-124 178l-124 -178h-119l183 255l-170 236h119l111 -161l111 161h118l-171 -236z" />
    <glyph glyph-name="uni04B6" unicode="&#x4b6;" horiz-adv-x="681" 
d="M570 95h84v-236h-104v141h-86v255q-66 -26 -148 -26q-125 0 -193.5 65.5t-68.5 190.5v175h106v-166q0 -169 168 -169q82 0 136 25v310h106v-565z" />
    <glyph glyph-name="uni04B7" unicode="&#x4b7;" horiz-adv-x="578" 
d="M464 91h81v-232h-103v141h-84v189q-51 -25 -115 -25q-93 0 -145.5 53t-52.5 149v125h105v-119q0 -57 27 -85.5t77 -28.5q56 0 104 23v210h106v-400z" />
    <glyph glyph-name="uni04BA" unicode="&#x4ba;" horiz-adv-x="653" 
d="M599 175v-175h-106v166q0 86 -41.5 127.5t-125.5 41.5q-83 0 -137 -25v-310h-106v660h106v-255q66 26 148 26q125 0 193.5 -65.5t68.5 -190.5z" />
    <glyph glyph-name="uni04BB" unicode="&#x4bb;" horiz-adv-x="575" 
d="M505 307v-307h-105v292q0 51 -29 82.5t-78 31.5t-80.5 -32t-31.5 -82v-292h-105v750h105v-308q51 60 142 60q83 0 132.5 -53.5t49.5 -141.5z" />
    <glyph glyph-name="uni04C0" unicode="&#x4c0;" horiz-adv-x="272" 
d="M83 0v660h106v-660h-106z" />
    <glyph glyph-name="uni04C1" unicode="&#x4c1;" horiz-adv-x="979" 
d="M46 660h131l256 -309l-280 -351h-131l286 351zM436 0v660h106v-660h-106zM671 351l286 -351h-131l-281 351l257 309h130zM327 890v20h86v-23q0 -41 19.5 -64.5t55.5 -23.5t56 23t20 65v23h87v-20q0 -75 -45 -121t-118 -46q-72 0 -116.5 46t-44.5 121z" />
    <glyph glyph-name="uni04C2" unicode="&#x4c2;" horiz-adv-x="806" 
d="M29 491h127l188 -228l-207 -263h-123l206 263zM348 0v491h105v-491h-105zM582 266l209 -266h-128l-207 263l189 228h126zM239 738v29h86v-28q0 -91 75 -91q76 0 76 91v28h87v-29q0 -74 -45 -120t-118 -46q-72 0 -116.5 46t-44.5 120z" />
    <glyph glyph-name="uni04CF" unicode="&#x4cf;" horiz-adv-x="260" 
d="M77 0v750h106v-750h-106z" />
    <glyph glyph-name="uni04D0" unicode="&#x4d0;" horiz-adv-x="662" 
d="M526 0l-47 110h-297l-47 -110h-113l291 671h36l291 -671h-114zM441 201l-110 273l-111 -273h221zM169 890v20h86v-23q0 -41 19.5 -64.5t55.5 -23.5t56 23t20 65v23h87v-20q0 -75 -45 -121t-118 -46q-72 0 -116.5 46t-44.5 121z" />
    <glyph glyph-name="uni04D1" unicode="&#x4d1;" horiz-adv-x="536" 
d="M466 297v-297h-98v55q-55 -66 -157 -66q-77 0 -124 39t-47 103t49 102t132 38h139v32q0 51 -27.5 78t-77.5 27q-75 0 -136 -73l-61 62q72 105 207 105q92 0 146.5 -54t54.5 -151zM360 186v9h-126q-87 0 -87 -60q0 -30 23.5 -47.5t62.5 -17.5q54 0 90.5 33t36.5 83z
M103 738v29h86v-28q0 -91 75 -91q76 0 76 91v28h87v-29q0 -74 -45 -120t-118 -46q-72 0 -116.5 46t-44.5 120z" />
    <glyph glyph-name="uni04D4" unicode="&#x4d4;" horiz-adv-x="836" 
d="M551 95h245v-95h-334l-19 110h-262l-58 -110h-114l342 660h433v-95h-311l28 -169h203v-92h-188zM379 505l-151 -304h199z" />
    <glyph glyph-name="uni04D5" unicode="&#x4d5;" horiz-adv-x="887" 
d="M834 204h-365q12 -57 54.5 -89.5t104.5 -32.5q78 0 142 57l51 -71q-81 -79 -195 -79q-68 0 -122.5 28.5t-88.5 79.5q-27 -53 -78.5 -80.5t-119.5 -27.5q-81 0 -129 40t-48 104q0 67 49.5 107t131.5 40h139v23q0 51 -27.5 78t-76.5 27q-74 0 -136 -73l-61 62
q75 105 206 105q116 0 165 -87q70 87 186 87q98 0 162 -64.5t64 -161.5q0 -42 -8 -72zM467 280h270q4 60 -32 96.5t-93 36.5q-56 0 -95.5 -36.5t-49.5 -96.5zM360 185v19h-126q-87 0 -87 -63q0 -33 23.5 -51.5t62.5 -18.5q52 0 90 32q37 33 37 82z" />
    <glyph glyph-name="uni04D6" unicode="&#x4d6;" horiz-adv-x="569" 
d="M83 0v660h434v-95h-328v-169h247v-92h-247v-209h340v-95h-446zM123 890v20h86v-23q0 -41 19.5 -64.5t55.5 -23.5t56 23t20 65v23h87v-20q0 -75 -45 -121t-118 -46q-72 0 -116.5 46t-44.5 121z" />
    <glyph glyph-name="uni04D7" unicode="&#x4d7;" horiz-adv-x="570" 
d="M518 211h-366q10 -60 53.5 -94.5t106.5 -34.5q78 0 143 58l50 -72q-83 -79 -196 -79q-112 0 -188 73.5t-76 182.5q-2 106 74 182.5t180 74.5q97 0 162 -64.5t65 -160.5q0 -29 -8 -66zM154 293h267q-1 55 -37 87.5t-89 32.5q-52 0 -90.5 -32.5t-50.5 -87.5zM123 738v29h86
v-28q0 -91 75 -91q76 0 76 91v28h87v-29q0 -74 -45 -120t-118 -46q-72 0 -116.5 46t-44.5 120z" />
    <glyph glyph-name="uni04D8" unicode="&#x4d8;" horiz-adv-x="732" 
d="M688 332q2 -142 -96.5 -243.5t-236.5 -99.5q-130 -2 -222 83.5t-90 213.5q0 31 8 79h527q-10 94 -70 151q-58 58 -150 58q-128 0 -208 -106l-72 61q101 142 280 142q139 2 235.5 -98t94.5 -241zM575 275h-428q0 -85 61.5 -137t149.5 -52q83 0 142 52t75 137z" />
    <glyph glyph-name="uni04D9" unicode="&#x4d9;" horiz-adv-x="570" 
d="M526 246q0 -108 -71.5 -182.5t-178.5 -74.5q-99 0 -165 64t-66 161q0 35 7 66h366q-10 61 -50.5 95t-103.5 34q-84 0 -149 -58l-50 72q83 79 201 79q112 0 186 -74t74 -182zM417 198h-267q1 -55 37.5 -87.5t92.5 -32.5q52 0 89 32.5t48 87.5z" />
    <glyph glyph-name="uni04E2" unicode="&#x4e2;" horiz-adv-x="718" 
d="M598 671h37v-671h-106v461l-409 -472h-37v671h106v-460zM214 762v85h308v-85h-308z" />
    <glyph glyph-name="uni04E3" unicode="&#x4e3;" horiz-adv-x="583" 
d="M470 502h36v-502h-106v305l-286 -316h-37v502h106v-307zM160 632v84h288v-84h-288z" />
    <glyph glyph-name="uni04E6" unicode="&#x4e6;" horiz-adv-x="780" 
d="M43 330q-2 141 101 242t245 99q141 2 245.5 -99t101.5 -242q3 -141 -101.5 -242t-245.5 -99q-142 -2 -245.5 99t-100.5 242zM627 331q0 104 -68 173.5t-169 69.5q-102 0 -169.5 -69t-67.5 -174q0 -106 67 -175.5t170 -69.5q101 0 169 70t68 175zM199 812q0 27 20.5 46
t47.5 19q29 0 48.5 -18.5t19.5 -46.5q0 -26 -20 -45.5t-48 -19.5q-27 0 -47.5 19.5t-20.5 45.5zM444 811q0 27 20.5 46.5t47.5 19.5q28 0 48 -19t20 -47q0 -26 -20 -45.5t-48 -19.5q-27 0 -47.5 19.5t-20.5 45.5z" />
    <glyph glyph-name="uni04E7" unicode="&#x4e7;" horiz-adv-x="609" 
d="M45 246q-2 105 75.5 181.5t183.5 74.5q107 2 185 -75t76 -181q2 -105 -76 -182t-185 -75q-106 -2 -183.5 75.5t-75.5 181.5zM457 245q0 68 -44 114.5t-108 46.5q-65 0 -109 -46.5t-44 -114.5t43.5 -113.5t108.5 -45.5t109 46t44 113zM124 674q0 27 20.5 46.5t48.5 19.5
t47.5 -19t19.5 -47q0 -26 -19.5 -45.5t-47.5 -19.5t-48.5 19.5t-20.5 45.5zM349 674q0 27 20.5 46.5t48.5 19.5q27 0 47 -19.5t20 -46.5q0 -26 -20 -45.5t-47 -19.5q-28 0 -48.5 19.5t-20.5 45.5z" />
    <glyph glyph-name="uni04E8" unicode="&#x4e8;" horiz-adv-x="780" 
d="M736 330q3 -141 -101.5 -242t-245.5 -99q-142 -2 -245.5 99t-100.5 242q-2 141 101 242t245 99q141 2 245.5 -99t101.5 -242zM156 384h467q-17 86 -81 138q-65 53 -152 53q-88 0 -153 -53q-65 -52 -81 -138zM625 292h-472q12 -92 78 -149.5t159 -57.5t158 57.5t77 149.5z
" />
    <glyph glyph-name="uni04E9" unicode="&#x4e9;" horiz-adv-x="609" 
d="M565 246q0 -107 -76.5 -182t-184.5 -75q-107 0 -183 75t-76 182q-2 105 75.5 181.5t183.5 74.5q106 2 184.5 -74.5t76.5 -181.5zM154 291h301q-13 53 -54 85.5t-97 32.5t-96.5 -32t-53.5 -86zM457 209h-306q11 -57 52.5 -91.5t100.5 -34.5q58 0 100 35t53 91z" />
    <glyph glyph-name="uni04EE" unicode="&#x4ee;" horiz-adv-x="655" 
d="M522 660h111l-232 -499q-45 -96 -85 -133t-117 -39q-28 0 -64 11v91q21 -4 52 -4q63 0 97 56l-255 517h119l194 -398zM190 762v85h308v-85h-308z" />
    <glyph glyph-name="uni04EF" unicode="&#x4ef;" horiz-adv-x="549" 
d="M418 491h112l-239 -547q-31 -70 -74 -102.5t-106 -32.5q-42 0 -81 10v89q41 -4 58 -4q76 0 107 72l20 46l-196 469h113l141 -357zM131 632v84h288v-84h-288z" />
    <glyph glyph-name="uni04F2" unicode="&#x4f2;" horiz-adv-x="655" 
d="M522 660h111l-232 -499q-45 -96 -85 -133t-117 -39q-28 0 -64 11v91q21 -4 52 -4q63 0 97 56l-255 517h119l194 -398zM181 724l79 186h111v-19l-118 -167h-72zM409 724l79 186h111v-19l-118 -167h-72z" />
    <glyph glyph-name="uni04F3" unicode="&#x4f3;" horiz-adv-x="549" 
d="M418 491h112l-239 -547q-31 -70 -74 -102.5t-106 -32.5q-42 0 -81 10v89q41 -4 58 -4q76 0 107 72l20 46l-196 469h113l141 -357zM130 568l79 212h111v-19l-118 -193h-72zM338 568l79 212h111v-19l-118 -193h-72z" />
    <glyph glyph-name="Wgrave" unicode="&#x1e80;" horiz-adv-x="1051" 
d="M899 660h116l-257 -671h-35l-197 468l-197 -468h-36l-257 671h117l165 -446l189 457h37l190 -457zM488 724l-129 167v19h128l79 -186h-78z" />
    <glyph glyph-name="wgrave" unicode="&#x1e81;" horiz-adv-x="854" 
d="M723 491h112l-218 -502h-36l-154 327l-154 -327h-36l-218 502h112l129 -321l149 332h36l151 -328zM387 568l-129 193v19h128l79 -212h-78z" />
    <glyph glyph-name="Wacute" unicode="&#x1e82;" horiz-adv-x="1051" 
d="M899 660h116l-257 -671h-35l-197 468l-197 -468h-36l-257 671h117l165 -446l189 457h37l190 -457zM485 724l79 186h128v-19l-129 -167h-78z" />
    <glyph glyph-name="wacute" unicode="&#x1e83;" horiz-adv-x="854" 
d="M723 491h112l-218 -502h-36l-154 327l-154 -327h-36l-218 502h112l129 -321l149 332h36l151 -328zM387 568l79 212h128v-19l-129 -193h-78z" />
    <glyph glyph-name="Wdieresis" unicode="&#x1e84;" horiz-adv-x="1051" 
d="M899 660h116l-257 -671h-35l-197 468l-197 -468h-36l-257 671h117l165 -446l189 457h37l190 -457zM335 812q0 27 20.5 46t47.5 19q29 0 48.5 -18.5t19.5 -46.5q0 -26 -20 -45.5t-48 -19.5q-27 0 -47.5 19.5t-20.5 45.5zM580 811q0 27 20.5 46.5t47.5 19.5q28 0 48 -19
t20 -47q0 -26 -20 -45.5t-48 -19.5q-27 0 -47.5 19.5t-20.5 45.5z" />
    <glyph glyph-name="wdieresis" unicode="&#x1e85;" horiz-adv-x="854" 
d="M723 491h112l-218 -502h-36l-154 327l-154 -327h-36l-218 502h112l129 -321l149 332h36l151 -328zM244 674q0 27 20.5 46.5t48.5 19.5t47.5 -19t19.5 -47q0 -26 -19.5 -45.5t-47.5 -19.5t-48.5 19.5t-20.5 45.5zM469 674q0 27 20.5 46.5t48.5 19.5q27 0 47 -19.5
t20 -46.5q0 -26 -20 -45.5t-47 -19.5q-28 0 -48.5 19.5t-20.5 45.5z" />
    <glyph glyph-name="uni1E9E" unicode="&#x1e9e;" horiz-adv-x="720" 
d="M676 204q0 -94 -64.5 -154.5t-157.5 -60.5q-113 0 -191 84l59 75q59 -62 127 -62q51 0 85 33.5t34 86.5q0 57 -41 89.5t-112 32.5h-61v28l122 209h-287v-565h-106v660h542v-29l-125 -216q75 -14 125 -71q51 -56 51 -140z" />
    <glyph glyph-name="Ygrave" unicode="&#x1ef2;" horiz-adv-x="620" 
d="M591 660l-228 -394v-266h-106v266l-228 394h118l163 -287l164 287h117zM270 724l-129 167v19h128l79 -186h-78z" />
    <glyph glyph-name="ygrave" unicode="&#x1ef3;" horiz-adv-x="549" 
d="M418 491h112l-239 -547q-31 -70 -74 -102.5t-106 -32.5q-42 0 -81 10v89q41 -4 58 -4q76 0 107 72l20 46l-196 469h113l141 -357zM234 568l-129 193v19h128l79 -212h-78z" />
    <glyph glyph-name="uni2009" unicode="&#x2009;" horiz-adv-x="140" 
 />
    <glyph glyph-name="endash" unicode="&#x2013;" horiz-adv-x="504" 
d="M39 273v89h426v-89h-426z" />
    <glyph glyph-name="emdash" unicode="&#x2014;" horiz-adv-x="1000" 
d="M50 273v89h900v-89h-900z" />
    <glyph glyph-name="uni2015" unicode="&#x2015;" horiz-adv-x="1000" 
d="M50 273v89h900v-89h-900z" />
    <glyph glyph-name="quoteleft" unicode="&#x2018;" horiz-adv-x="291" 
d="M71 392l49 268h82l-10 -268h-121z" />
    <glyph glyph-name="quoteright" unicode="&#x2019;" horiz-adv-x="291" 
d="M89 392l9 268h121l-49 -268h-81z" />
    <glyph glyph-name="quotesinglbase" unicode="&#x201a;" horiz-adv-x="291" 
d="M89 -161l9 267h121l-49 -267h-81z" />
    <glyph glyph-name="quotedblleft" unicode="&#x201c;" horiz-adv-x="500" 
d="M71 392l49 268h82l-10 -268h-121zM281 392l49 268h82l-10 -268h-121z" />
    <glyph glyph-name="quotedblright" unicode="&#x201d;" horiz-adv-x="500" 
d="M89 392l9 268h121l-49 -268h-81zM299 392l9 268h121l-49 -268h-81z" />
    <glyph glyph-name="quotedblbase" unicode="&#x201e;" horiz-adv-x="500" 
d="M89 -161l9 267h121l-49 -267h-81zM299 -161l9 267h121l-49 -267h-81z" />
    <glyph glyph-name="dagger" unicode="&#x2020;" horiz-adv-x="467" 
d="M181 287v233h-126v91h126v139h105v-139h126v-91h-126v-233h-105z" />
    <glyph glyph-name="daggerdbl" unicode="&#x2021;" horiz-adv-x="467" 
d="M181 218v110h-126v91h126v131h-126v91h126v109h105v-109h126v-91h-126v-131h126v-91h-126v-110h-105z" />
    <glyph glyph-name="bullet" unicode="&#x2022;" horiz-adv-x="402" 
d="M54 269q0 61 43.5 102.5t103.5 41.5q61 0 103.5 -41t42.5 -103q0 -61 -42.5 -102t-103.5 -41q-60 0 -103.5 41.5t-43.5 101.5z" />
    <glyph glyph-name="ellipsis" unicode="&#x2026;" horiz-adv-x="788" 
d="M316 66q0 33 23 55.5t56 22.5t55 -22t22 -56q0 -33 -22 -55t-55 -22t-56 22t-23 55zM62 66q0 33 23 55.5t56 22.5t55 -22t22 -56q0 -33 -22 -55t-55 -22t-56 22t-23 55zM570 66q0 33 23 55.5t56 22.5t55 -22t22 -56q0 -33 -22 -55t-55 -22t-56 22t-23 55z" />
    <glyph glyph-name="perthousand" unicode="&#x2030;" horiz-adv-x="1218" 
d="M61 509q0 67 49 114.5t119 47.5q68 0 117 -47.5t49 -114.5q0 -68 -49 -115.5t-117 -47.5q-70 0 -119 47t-49 116zM193 0l378 660h89l-379 -660h-88zM312 509q0 37 -24 62.5t-59 25.5q-36 0 -59.5 -25t-23.5 -63t23 -63t60 -25q35 0 59 25t24 63zM823 153q0 69 49 116
t118 47t118 -47t49 -116q0 -67 -49 -114.5t-118 -47.5t-118 47.5t-49 114.5zM457 152q0 69 48.5 116t117.5 47t118 -47t49 -116q0 -67 -49 -114.5t-118 -47.5t-117.5 47.5t-48.5 114.5zM1073 153q0 38 -23.5 63t-58.5 25q-37 0 -60.5 -25t-23.5 -63t23.5 -62.5t60.5 -24.5
q35 0 58.5 25t23.5 62zM706 152q0 38 -23.5 63t-58.5 25q-37 0 -60 -24.5t-23 -63.5q0 -38 23 -62.5t60 -24.5q35 0 58.5 25t23.5 62z" />
    <glyph glyph-name="minute" unicode="&#x2032;" horiz-adv-x="268" 
d="M67 382l39 278h122l-79 -278h-82z" />
    <glyph glyph-name="second" unicode="&#x2033;" horiz-adv-x="477" 
d="M67 382l39 278h122l-79 -278h-82zM277 382l39 278h122l-79 -278h-82z" />
    <glyph glyph-name="guilsinglleft" unicode="&#x2039;" horiz-adv-x="323" 
d="M220 58l-186 199v29l186 199l68 -60l-138 -153l138 -155z" />
    <glyph glyph-name="guilsinglright" unicode="&#x203a;" horiz-adv-x="323" 
d="M103 58l-68 59l138 155l-138 153l68 60l186 -199v-29z" />
    <glyph glyph-name="fraction" unicode="&#x2044;" horiz-adv-x="244" 
d="M-112 0l379 660h89l-379 -660h-89z" />
    <glyph glyph-name="uni2070" unicode="&#x2070;" horiz-adv-x="415" 
d="M46 576q0 98 41.5 154.5t120.5 56.5t120.5 -56.5t41.5 -154.5q0 -99 -42 -159t-120 -60t-120 60t-42 159zM286 575q0 136 -78 136t-78 -136q0 -143 78 -143t78 143z" />
    <glyph glyph-name="uni2074" unicode="&#x2074;" horiz-adv-x="366" 
d="M352 501v-68h-53v-69h-76v69h-209v22l127 325h85l-110 -279h107l1 120h75v-120h53z" />
    <glyph glyph-name="uni2075" unicode="&#x2075;" horiz-adv-x="369" 
d="M332 502q0 -65 -46 -105q-44 -40 -112 -40q-51 0 -91 25t-61 68l58 41q34 -58 91 -58q33 0 54.5 18t21.5 48q0 62 -87 62h-95v219h246v-75h-167v-78q28 5 45 5q58 0 101 -35q42 -35 42 -95z" />
    <glyph glyph-name="uni2076" unicode="&#x2076;" horiz-adv-x="370" 
d="M336 504q0 -62 -45 -104.5t-107 -42.5t-106 42.5t-44 106.5q0 32 12 58.5t44 71.5l103 144h97l-95 -134h5q53 0 94.5 -41.5t41.5 -100.5zM253 504q0 31 -20 51.5t-49 20.5t-48.5 -20.5t-19.5 -51.5t19.5 -51t48.5 -20t49 20t20 51z" />
    <glyph glyph-name="uni2077" unicode="&#x2077;" horiz-adv-x="333" 
d="M27 780h288v-23l-189 -393h-90l169 341h-178v75z" />
    <glyph glyph-name="uni2078" unicode="&#x2078;" horiz-adv-x="385" 
d="M346 474q0 -53 -42.5 -85t-111.5 -32t-111 32t-42 86q0 71 81 104q-63 37 -63 99q0 50 37.5 79.5t97.5 29.5q61 0 98.5 -29.5t37.5 -80.5q0 -62 -63 -98q81 -35 81 -105zM133 674q0 -19 13.5 -32t45.5 -29q33 16 46.5 29t13.5 32q0 21 -16.5 34t-43.5 13q-25 0 -42 -13
t-17 -34zM265 478q0 43 -73 67q-37 -13 -54.5 -28.5t-17.5 -38.5q0 -25 19 -39.5t53 -14.5q33 0 53 15t20 39z" />
    <glyph glyph-name="uni2079" unicode="&#x2079;" horiz-adv-x="370" 
d="M336 638q0 -36 -13 -61q-15 -29 -43 -69l-104 -144h-97l96 134h-5q-53 0 -94.5 41.5t-41.5 100.5q0 62 44.5 104.5t107.5 42.5q62 0 106 -42.5t44 -106.5zM254 640q0 31 -19.5 51t-48.5 20q-30 0 -50 -20.5t-20 -50.5q0 -31 20.5 -51.5t49.5 -20.5t48.5 20.5t19.5 51.5z
" />
    <glyph glyph-name="uni207A" unicode="&#x207a;" horiz-adv-x="427" 
d="M172 397v138h-134v74h134v139h82v-139h135v-74h-135v-138h-82z" />
    <glyph glyph-name="uni207B" unicode="&#x207b;" horiz-adv-x="427" 
d="M38 538v70h351v-70h-351z" />
    <glyph glyph-name="uni207C" unicode="&#x207c;" horiz-adv-x="427" 
d="M45 616v74h337v-74h-337zM45 455v75h337v-75h-337z" />
    <glyph glyph-name="uni207D" unicode="&#x207d;" horiz-adv-x="265" 
d="M53 572q0 130 43 213t116 117l33 -51q-118 -76 -118 -279t118 -279l-33 -51q-159 94 -159 330z" />
    <glyph glyph-name="uni207E" unicode="&#x207e;" horiz-adv-x="265" 
d="M53 242l-33 51q117 75 117 279q0 199 -117 279l33 51q73 -34 115.5 -117t42.5 -213t-42.5 -213t-115.5 -117z" />
    <glyph glyph-name="uni2080" unicode="&#x2080;" horiz-adv-x="415" 
d="M46 92q0 98 41.5 154.5t120.5 56.5t120.5 -56.5t41.5 -154.5q0 -99 -42 -159t-120 -60t-120 60t-42 159zM286 91q0 136 -78 136t-78 -136q0 -143 78 -143t78 143z" />
    <glyph glyph-name="uni2081" unicode="&#x2081;" horiz-adv-x="361" 
d="M45 -120v75h104v266h-98v75h181v-341h88v-75h-275z" />
    <glyph glyph-name="uni2082" unicode="&#x2082;" horiz-adv-x="376" 
d="M184 -45h153v-75h-303v18l148 160q32 34 45 57t13 49q0 27 -16 45t-42 18q-27 0 -43.5 -18t-16.5 -47q0 -2 0.5 -6t1 -11.5t0.5 -13.5h-82q-4 15 -4 36q0 55 41 95.5t103 40.5q61 0 102 -38t41 -94q0 -40 -20.5 -75.5t-68.5 -86.5z" />
    <glyph glyph-name="uni2083" unicode="&#x2083;" horiz-adv-x="357" 
d="M320 16q0 -62 -45.5 -102.5t-109.5 -40.5q-50 0 -89.5 25t-60.5 68l58 41q36 -58 89 -58q33 0 53 18.5t20 48.5q0 61 -86 61h-45v21l88 123h-146v75h266v-23l-92 -130q43 -10 71.5 -44t28.5 -83z" />
    <glyph glyph-name="uni2084" unicode="&#x2084;" horiz-adv-x="366" 
d="M352 17v-68h-53v-69h-76v69h-209v22l127 325h85l-110 -279h107l1 120h75v-120h53z" />
    <glyph glyph-name="uni2085" unicode="&#x2085;" horiz-adv-x="369" 
d="M332 18q0 -65 -46 -105q-44 -40 -112 -40q-51 0 -91 25t-61 68l58 41q34 -58 91 -58q33 0 54.5 18t21.5 48q0 62 -87 62h-95v219h246v-75h-167v-78q28 5 45 5q58 0 101 -35q42 -34 42 -95z" />
    <glyph glyph-name="uni2086" unicode="&#x2086;" horiz-adv-x="370" 
d="M336 20q0 -62 -45 -104.5t-107 -42.5t-106 42.5t-44 106.5q0 32 12 58.5t44 71.5l103 144h97l-95 -134h5q53 0 94.5 -41.5t41.5 -100.5zM253 20q0 31 -20 51.5t-49 20.5t-48.5 -20.5t-19.5 -51.5t19.5 -51t48.5 -20t49 20t20 51z" />
    <glyph glyph-name="uni2087" unicode="&#x2087;" horiz-adv-x="333" 
d="M27 296h288v-23l-189 -393h-90l169 341h-178v75z" />
    <glyph glyph-name="uni2088" unicode="&#x2088;" horiz-adv-x="385" 
d="M346 -10q0 -53 -42.5 -85t-111.5 -32t-111 32t-42 86q0 71 81 104q-63 37 -63 99q0 50 37.5 79.5t97.5 29.5q61 0 98.5 -29.5t37.5 -80.5q0 -62 -63 -98q81 -35 81 -105zM133 190q0 -19 13.5 -32t45.5 -29q33 16 46.5 29t13.5 32q0 21 -16.5 34t-43.5 13q-25 0 -42 -13
t-17 -34zM265 -6q0 43 -73 67q-37 -13 -54.5 -28.5t-17.5 -38.5q0 -25 19 -39.5t53 -14.5q33 0 53 15t20 39z" />
    <glyph glyph-name="uni2089" unicode="&#x2089;" horiz-adv-x="370" 
d="M336 154q0 -36 -13 -61q-15 -29 -43 -69l-104 -144h-97l96 134h-5q-53 0 -94.5 41.5t-41.5 100.5q0 62 44.5 104.5t107.5 42.5q62 0 106 -42.5t44 -106.5zM254 156q0 31 -19.5 51t-48.5 20q-30 0 -50 -20.5t-20 -50.5q0 -31 20.5 -51.5t49.5 -20.5t48.5 20.5t19.5 51.5z
" />
    <glyph glyph-name="uni208A" unicode="&#x208a;" horiz-adv-x="427" 
d="M172 -88v138h-134v74h134v139h82v-139h135v-74h-135v-138h-82z" />
    <glyph glyph-name="uni208B" unicode="&#x208b;" horiz-adv-x="427" 
d="M38 53v70h351v-70h-351z" />
    <glyph glyph-name="uni208C" unicode="&#x208c;" horiz-adv-x="427" 
d="M45 131v74h337v-74h-337zM45 -30v75h337v-75h-337z" />
    <glyph glyph-name="uni208D" unicode="&#x208d;" horiz-adv-x="265" 
d="M53 87q0 130 43 213t116 117l33 -51q-118 -76 -118 -279t118 -279l-33 -51q-159 95 -159 330z" />
    <glyph glyph-name="uni208E" unicode="&#x208e;" horiz-adv-x="265" 
d="M53 -243l-33 51q117 75 117 279q0 199 -117 279l33 51q73 -34 115.5 -117t42.5 -213t-42.5 -213t-115.5 -117z" />
    <glyph glyph-name="lira" unicode="&#x20a4;" horiz-adv-x="548" 
d="M240 88h264v-88h-455v24q107 74 127 146h-117v80h119q-6 29 -27 70h-92v80h52q-18 47 -18 88q0 82 57.5 132.5t146.5 50.5q81 0 137 -44t79 -128l-91 -33q-33 108 -119 108q-47 0 -74.5 -28.5t-27.5 -74.5q0 -32 17 -71h185v-80h-143q19 -36 25 -70h118v-80h-120
q-11 -47 -43 -82z" />
    <glyph glyph-name="peseta" unicode="&#x20a7;" horiz-adv-x="607" 
d="M608 482v-88h-80q-15 -80 -81 -129q-64 -48 -161 -48h-80v-217h-106v394h-80v88h80v178h186q97 0 162 -49q67 -48 80 -129h80zM286 569h-80v-91h215q-23 91 -135 91zM420 398h-214v-90h80q114 0 134 90z" />
    <glyph glyph-name="Euro" unicode="&#x20ac;" horiz-adv-x="679" 
d="M560 164l75 -59q-36 -55 -97 -85.5t-137 -30.5q-108 0 -186 60q-77 60 -108 160h-103v83h87q-2 32 -2 38q0 27 1 34h-85v83h100q31 103 109.5 163.5t186.5 60.5q76 0 137 -30.5t97 -85.5l-75 -58q-57 77 -155 77q-65 0 -113 -33.5t-72 -93.5h264l-21 -83h-262
q-2 -30 -2 -34q0 -6 2 -38h241l-22 -83h-198q25 -58 72.5 -90.5t110.5 -32.5q98 0 155 78z" />
    <glyph glyph-name="uni20AE" unicode="&#x20ae;" horiz-adv-x="583" 
d="M567 565h-223v-149l172 58v-93l-172 -58v-75l172 58v-93l-172 -58v-155h-106v125l-171 -58v93l171 58v75l-171 -58v94l171 57v179h-222v95h551v-95z" />
    <glyph glyph-name="uni20B4" unicode="&#x20b4;" horiz-adv-x="541" 
d="M458 442h68v-79h-509v79h327q19 22 19 51q0 37 -27 59t-71 22q-78 0 -136 -70l-64 64q66 103 202 103q91 0 147.5 -48.5t56.5 -127.5q0 -34 -13 -53zM16 213v79h510v-79h-352q-7 -14 -7 -36q0 -42 29 -66.5t79 -24.5q49 0 95 23.5t79 66.5l62 -64q-38 -58 -101 -90.5
t-136 -32.5q-96 0 -156 52.5t-60 135.5q0 21 4 36h-46z" />
    <glyph glyph-name="uni20B8" unicode="&#x20b8;" horiz-adv-x="583" 
d="M16 565v95h551v-95h-551zM238 0v396h-222v96h551v-96h-223v-396h-106z" />
    <glyph glyph-name="uni20B9" unicode="&#x20b9;" horiz-adv-x="525" 
d="M451 578h-111q24 -30 33 -72h78v-83h-76q-10 -69 -58.5 -112t-126.5 -53l261 -258h-133l-260 255v85h85q102 0 122 83h-208v83h205q-25 70 -119 70h-85v84h393v-82z" />
    <glyph glyph-name="uni20BA" unicode="&#x20ba;" horiz-adv-x="528" 
d="M497 232q0 -113 -90 -178t-247 -65h-50v237l-91 -42v93l91 42v75l-91 -41v93l91 41v173h106v-131l178 81v-93l-178 -81v-75l178 81v-93l-178 -81v-180q85 8 136.5 49.5t51.5 103.5q0 20 -4 53h88q9 -30 9 -62z" />
    <glyph glyph-name="uni20BD" unicode="&#x20bd;" horiz-adv-x="587" 
d="M100 0v119h-80v88h80v77h-80v91h80v285h237q93 0 150 -51t57 -137q0 -84 -57.5 -136t-149.5 -52h-131v-77h259v-88h-259v-119h-106zM206 375h126q49 0 78 26t29 70q0 45 -28.5 71.5t-78.5 26.5h-126v-194z" />
    <glyph glyph-name="uni20BF" unicode="&#x20bf;" horiz-adv-x="580" 
d="M400 39v-134h-86v127h-73v-127h-86v127h-72v597h72v120h86v-120h70h3v120h86v-138q43 -19 67 -56t24 -85q0 -74 -57 -118q98 -39 98 -147q0 -62 -35.5 -106t-96.5 -60zM303 543h-124v-159h124q43 0 66.5 21t23.5 60q0 38 -23.5 58t-66.5 20zM433 208q0 44 -26.5 68.5
t-75.5 24.5h-152v-184h152q49 0 75.5 24t26.5 67z" />
    <glyph glyph-name="uni2113" unicode="&#x2113;" horiz-adv-x="459" 
d="M310 84q30 0 93 10v-89q-51 -16 -111 -16q-90 0 -137 47t-48 137l-53 -39l-50 81l103 78v265q0 102 44 152.5t124 50.5q151 0 151 -161q0 -92 -52 -178t-163 -179v-58q0 -101 99 -101zM211 563v-194q64 61 93.5 114.5t29.5 111.5q0 77 -54 77q-69 0 -69 -109z" />
    <glyph glyph-name="uni2116" unicode="&#x2116;" horiz-adv-x="1125" 
d="M521 215v445h106v-671h-36l-402 458v-447h-106v671h37zM746 399q0 69 49 116t118 47t118 -47t49 -116q0 -67 -49 -114.5t-118 -47.5t-118 47.5t-49 114.5zM829 399q0 -38 23.5 -62.5t60.5 -24.5t60.5 24.5t23.5 62.5t-23.5 63t-60.5 25t-60.5 -24.5t-23.5 -63.5zM752 94
v71h322v-71h-322z" />
    <glyph glyph-name="uni2117" unicode="&#x2117;" horiz-adv-x="780" 
d="M43 330q-3 140 102 241.5t244 99.5q140 3 245 -99.5t102 -241.5q3 -140 -102 -241.5t-245 -99.5q-139 -2 -244 99.5t-102 241.5zM663 330q2 117 -80 196.5t-194 77.5q-111 2 -192.5 -77t-79.5 -197q-2 -118 79.5 -197t192.5 -77q112 -2 194 77.5t80 196.5zM269 152v352
h151q60 0 98 -33t38 -87t-38 -87t-98 -33h-73v-112h-78zM348 332h72q27 0 42 14t15 38q0 23 -15.5 37.5t-41.5 14.5h-72v-104z" />
    <glyph glyph-name="trademark" unicode="&#x2122;" horiz-adv-x="958" 
d="M461 211v456h30l190 -245l190 245h28v-456h-89v248l-115 -150h-29l-115 150v-248h-90zM157 211v368h-146v81h380v-81h-146v-368h-88z" />
    <glyph glyph-name="uni2126" unicode="&#x2126;" horiz-adv-x="790" 
d="M602 95h129v-95h-276v95q177 84 177 245q0 101 -67.5 167.5t-170.5 66.5t-169.5 -66t-66.5 -167q0 -161 177 -246v-95h-277v95h125q-135 99 -135 250q-3 135 99.5 231.5t246.5 94.5q143 3 246.5 -94.5t100.5 -231.5q0 -146 -139 -250z" />
    <glyph glyph-name="estimated" unicode="&#x212e;" horiz-adv-x="795" 
d="M731 327h-544v-200q77 -104 220 -104q76 0 143 31.5t112 86.5l25 -22q-49 -61 -122.5 -95t-157.5 -34q-146 -2 -248 97.5t-99 238.5q-3 140 102 243.5t241 100.5q80 2 157 -35t127 -105t48 -149q0 -33 -4 -54zM187 532v-172h421v187q-75 89 -201 89q-142 0 -220 -104z
" />
    <glyph glyph-name="uni2150" unicode="&#x2150;" horiz-adv-x="939" 
d="M45 244v75h104v266h-98v75h181v-341h88v-75h-275zM249 0l379 660h89l-379 -660h-89zM632 416h288v-23l-189 -393h-90l169 341h-178v75z" />
    <glyph glyph-name="uni2151" unicode="&#x2151;" horiz-adv-x="945" 
d="M45 244v75h104v266h-98v75h181v-341h88v-75h-275zM249 0l379 660h89l-379 -660h-89zM911 274q0 -36 -13 -61q-15 -29 -43 -69l-104 -144h-97l96 134h-5q-53 0 -94.5 41.5t-41.5 100.5q0 62 44.5 104.5t107.5 42.5q62 0 106 -42.5t44 -106.5zM829 276q0 31 -19.5 51
t-48.5 20t-49.5 -20.5t-20.5 -50.5q0 -31 20.5 -51.5t49.5 -20.5t48.5 20.5t19.5 51.5z" />
    <glyph glyph-name="uni2152" unicode="&#x2152;" horiz-adv-x="1382" 
d="M45 244v75h104v266h-98v75h181v-341h88v-75h-275zM249 0l379 660h89l-379 -660h-89zM650 0v75h104v266h-98v75h181v-341h88v-75h-275zM1013 212q0 98 41.5 154.5t120.5 56.5t120.5 -56.5t41.5 -154.5q0 -99 -42 -159t-120 -60t-120 60t-42 159zM1253 211q0 136 -78 136
t-78 -136q0 -143 78 -143t78 143z" />
    <glyph glyph-name="uni2153" unicode="&#x2153;" horiz-adv-x="962" 
d="M45 244v75h104v266h-98v75h181v-341h88v-75h-275zM249 0l379 660h89l-379 -660h-89zM925 136q0 -62 -45.5 -102.5t-109.5 -40.5q-50 0 -89.5 25t-60.5 68l58 41q36 -58 89 -58q33 0 53 18.5t20 48.5q0 61 -86 61h-45v21l88 123h-146v75h266v-23l-92 -130q43 -10 71.5 -44
t28.5 -83z" />
    <glyph glyph-name="uni2154" unicode="&#x2154;" horiz-adv-x="977" 
d="M184 319h153v-75h-303v18l148 160q32 34 45 57t13 49q0 27 -16 45t-42 18q-27 0 -43.5 -18t-16.5 -47q0 -2 0.5 -6t1 -11.5t0.5 -13.5h-82q-4 15 -4 36q0 55 41 95.5t103 40.5q61 0 102 -38t41 -94q0 -40 -20.5 -75.5t-68.5 -86.5zM264 0l379 660h89l-379 -660h-89z
M941 136q0 -62 -45.5 -102.5t-109.5 -40.5q-50 0 -89.5 25t-60.5 68l58 41q36 -58 89 -58q33 0 53 18.5t20 48.5q0 61 -86 61h-45v21l88 123h-146v75h266v-23l-92 -130q43 -10 71.5 -44t28.5 -83z" />
    <glyph glyph-name="uni2155" unicode="&#x2155;" horiz-adv-x="966" 
d="M45 244v75h104v266h-98v75h181v-341h88v-75h-275zM249 0l379 660h89l-379 -660h-89zM929 138q0 -65 -46 -105q-44 -40 -112 -40q-51 0 -91 25t-61 68l58 41q34 -58 91 -58q33 0 54.5 18t21.5 48q0 62 -87 62h-95v219h246v-75h-167v-78q28 5 45 5q58 0 101 -35
q42 -35 42 -95z" />
    <glyph glyph-name="uni2156" unicode="&#x2156;" horiz-adv-x="981" 
d="M184 319h153v-75h-303v18l148 160q32 34 45 57t13 49q0 27 -16 45t-42 18q-27 0 -43.5 -18t-16.5 -47q0 -2 0.5 -6t1 -11.5t0.5 -13.5h-82q-4 15 -4 36q0 55 41 95.5t103 40.5q61 0 102 -38t41 -94q0 -40 -20.5 -75.5t-68.5 -86.5zM264 0l379 660h89l-379 -660h-89z
M945 138q0 -65 -46 -105q-44 -40 -112 -40q-51 0 -91 25t-61 68l58 41q34 -58 91 -58q33 0 54.5 18t21.5 48q0 62 -87 62h-95v219h246v-75h-167v-78q28 5 45 5q58 0 101 -35q42 -35 42 -95z" />
    <glyph glyph-name="uni2157" unicode="&#x2157;" horiz-adv-x="927" 
d="M320 380q0 -62 -45.5 -102.5t-109.5 -40.5q-50 0 -89.5 25t-60.5 68l58 41q36 -58 89 -58q33 0 53 18.5t20 48.5q0 61 -86 61h-45v21l88 123h-146v75h266v-23l-92 -130q43 -10 71.5 -44t28.5 -83zM210 0l379 660h89l-379 -660h-89zM890 138q0 -65 -46 -105
q-44 -40 -112 -40q-51 0 -91 25t-61 68l58 41q34 -58 91 -58q33 0 54.5 18t21.5 48q0 62 -87 62h-95v219h246v-75h-167v-78q28 5 45 5q58 0 101 -35q42 -35 42 -95z" />
    <glyph glyph-name="uni2158" unicode="&#x2158;" horiz-adv-x="981" 
d="M352 381v-68h-53v-69h-76v69h-209v22l127 325h85l-110 -279h107l1 120h75v-120h53zM264 0l379 660h89l-379 -660h-89zM944 138q0 -65 -46 -105q-44 -40 -112 -40q-51 0 -91 25t-61 68l58 41q34 -58 91 -58q33 0 54.5 18t21.5 48q0 62 -87 62h-95v219h246v-75h-167v-78
q28 5 45 5q58 0 101 -35q42 -35 42 -95z" />
    <glyph glyph-name="uni2159" unicode="&#x2159;" horiz-adv-x="895" 
d="M45 244v75h104v266h-98v75h181v-341h88v-75h-275zM249 0l379 660h89l-379 -660h-89zM861 140q0 -62 -45 -104.5t-107 -42.5t-106 42.5t-44 106.5q0 32 12 58.5t44 71.5l103 144h97l-95 -134h5q53 0 94.5 -41.5t41.5 -100.5zM778 140q0 31 -20 51.5t-49 20.5t-48.5 -20.5
t-19.5 -51.5t19.5 -51t48.5 -20t49 20t20 51z" />
    <glyph glyph-name="uni215A" unicode="&#x215a;" horiz-adv-x="868" 
d="M332 382q0 -65 -46 -105q-44 -40 -112 -40q-51 0 -91 25t-61 68l58 41q34 -58 91 -58q33 0 54.5 18t21.5 48q0 62 -87 62h-95v219h246v-75h-167v-78q28 5 45 5q58 0 101 -35q42 -34 42 -95zM222 0l379 660h89l-379 -660h-89zM834 140q0 -62 -45 -104.5t-107 -42.5
t-106 42.5t-44 106.5q0 32 12 58.5t44 71.5l103 144h97l-95 -134h5q53 0 94.5 -41.5t41.5 -100.5zM751 140q0 31 -20 51.5t-49 20.5t-48.5 -20.5t-19.5 -51.5t19.5 -51t48.5 -20t49 20t20 51z" />
    <glyph glyph-name="oneeighth" unicode="&#x215b;" horiz-adv-x="945" 
d="M45 244v75h104v266h-98v75h181v-341h88v-75h-275zM249 0l379 660h89l-379 -660h-89zM906 110q0 -53 -42.5 -85t-111.5 -32t-111 32t-42 86q0 71 81 104q-63 37 -63 99q0 50 37.5 79.5t97.5 29.5q61 0 98.5 -29.5t37.5 -80.5q0 -62 -63 -98q81 -35 81 -105zM693 310
q0 -19 13.5 -32t45.5 -29q33 16 46.5 29t13.5 32q0 21 -16.5 34t-43.5 13q-25 0 -42 -13t-17 -34zM825 114q0 43 -73 67q-37 -13 -54.5 -28.5t-17.5 -38.5q0 -25 19 -39.5t53 -14.5q33 0 53 15t20 39z" />
    <glyph glyph-name="threeeighths" unicode="&#x215c;" horiz-adv-x="906" 
d="M320 380q0 -62 -45.5 -102.5t-109.5 -40.5q-50 0 -89.5 25t-60.5 68l58 41q36 -58 89 -58q33 0 53 18.5t20 48.5q0 61 -86 61h-45v21l88 123h-146v75h266v-23l-92 -130q43 -10 71.5 -44t28.5 -83zM210 0l379 660h89l-379 -660h-89zM867 110q0 -53 -42.5 -85t-111.5 -32
t-111 32t-42 86q0 71 81 104q-63 37 -63 99q0 50 37.5 79.5t97.5 29.5q61 0 98.5 -29.5t37.5 -80.5q0 -62 -63 -98q81 -35 81 -105zM654 310q0 -19 13.5 -32t45.5 -29q33 16 46.5 29t13.5 32q0 21 -16.5 34t-43.5 13q-25 0 -42 -13t-17 -34zM786 114q0 43 -73 67
q-37 -13 -54.5 -28.5t-17.5 -38.5q0 -25 19 -39.5t53 -14.5q33 0 53 15t20 39z" />
    <glyph glyph-name="fiveeighths" unicode="&#x215d;" horiz-adv-x="918" 
d="M332 382q0 -65 -46 -105q-44 -40 -112 -40q-51 0 -91 25t-61 68l58 41q34 -58 91 -58q33 0 54.5 18t21.5 48q0 62 -87 62h-95v219h246v-75h-167v-78q28 5 45 5q58 0 101 -35q42 -34 42 -95zM222 0l379 660h89l-379 -660h-89zM879 110q0 -53 -42.5 -85t-111.5 -32t-111 32
t-42 86q0 71 81 104q-63 37 -63 99q0 50 37.5 79.5t97.5 29.5q61 0 98.5 -29.5t37.5 -80.5q0 -62 -63 -98q81 -35 81 -105zM666 310q0 -19 13.5 -32t45.5 -29q33 16 46.5 29t13.5 32q0 21 -16.5 34t-43.5 13q-25 0 -42 -13t-17 -34zM798 114q0 43 -73 67
q-37 -13 -54.5 -28.5t-17.5 -38.5q0 -25 19 -39.5t53 -14.5q33 0 53 15t20 39z" />
    <glyph glyph-name="seveneighths" unicode="&#x215e;" horiz-adv-x="819" 
d="M27 660h288v-23l-189 -393h-90l169 341h-178v75zM123 0l379 660h89l-379 -660h-89zM781 110q0 -53 -42.5 -85t-111.5 -32t-111 32t-42 86q0 71 81 104q-63 37 -63 99q0 50 37.5 79.5t97.5 29.5q61 0 98.5 -29.5t37.5 -80.5q0 -62 -63 -98q81 -35 81 -105zM568 310
q0 -19 13.5 -32t45.5 -29q33 16 46.5 29t13.5 32q0 21 -16.5 34t-43.5 13q-25 0 -42 -13t-17 -34zM700 114q0 43 -73 67q-37 -13 -54.5 -28.5t-17.5 -38.5q0 -25 19 -39.5t53 -14.5q33 0 53 15t20 39z" />
    <glyph glyph-name="arrowleft" unicode="&#x2190;" horiz-adv-x="650" 
d="M601 272h-322l-68 2l177 -177l-63 -62l-272 272v21l272 272l63 -62l-177 -177l68 2h322v-91z" />
    <glyph glyph-name="arrowup" unicode="&#x2191;" horiz-adv-x="650" 
d="M607 320l-63 -62l-172 172l1 -67v-321h-96v321l1 67l-172 -172l-63 62l271 272h22z" />
    <glyph glyph-name="arrowright" unicode="&#x2192;" horiz-adv-x="650" 
d="M325 600l272 -272v-21l-272 -272l-63 62l178 178l-69 -2l-322 -1v91h322l68 -2l-177 177z" />
    <glyph glyph-name="arrowdown" unicode="&#x2193;" horiz-adv-x="650" 
d="M544 378l63 -63l-271 -271h-22l-271 271l63 63l172 -173l-1 68v320h96v-320l-1 -68z" />
    <glyph glyph-name="arrowboth" unicode="&#x2194;" horiz-adv-x="969" 
d="M639 600l272 -272v-21l-272 -272l-62 62l176 177l-68 -2h-406l-68 2l177 -177l-63 -62l-272 272v21l272 272l63 -62l-177 -177l68 2h406l69 -2l-177 177z" />
    <glyph glyph-name="arrowupdn" unicode="&#x2195;" horiz-adv-x="650" 
d="M373 94l164 164l63 -62l-264 -264h-22l-264 264l63 62l165 -165l-1 68v338l1 68l-165 -165l-63 62l264 264h22l264 -264l-63 -62l-164 164l1 -67v-338z" />
    <glyph glyph-name="uni2196" unicode="&#x2196;" horiz-adv-x="650" 
d="M311 386l258 -258l-66 -65l-257 257l-42 44v-256h-93v398l15 15h393v-89h-256z" />
    <glyph glyph-name="uni2197" unicode="&#x2197;" horiz-adv-x="650" 
d="M524 521l15 -15v-398h-93v256l-42 -44l-257 -257l-66 65l258 258l48 46h-256v89h393z" />
    <glyph glyph-name="uni2198" unicode="&#x2198;" horiz-adv-x="650" 
d="M446 508h93v-398l-15 -15h-393v89h256l-48 46l-258 258l66 65l257 -257l42 -44v256z" />
    <glyph glyph-name="uni2199" unicode="&#x2199;" horiz-adv-x="650" 
d="M311 230l-48 -46h256v-89h-393l-15 15v398h93v-256l42 44l257 257l66 -65z" />
    <glyph glyph-name="partialdiff" unicode="&#x2202;" horiz-adv-x="611" 
d="M550 365q2 -162 -81 -270.5t-209 -106.5q-90 0 -152 54.5t-62 146.5q0 96 67 155.5t181 59.5q63 0 148 -20q-6 192 -142 192q-78 0 -134 -73l-69 57q70 111 207 111q114 0 180 -80t66 -226zM438 295q-82 18 -139 18q-72 0 -108.5 -33t-36.5 -87q0 -50 31.5 -81t81.5 -31
q67 0 112.5 57t58.5 157z" />
    <glyph glyph-name="uni2206" unicode="&#x2206;" horiz-adv-x="662" 
d="M349 671l278 -642v-29h-592v29l278 642h36zM486 95l-155 364l-156 -364h311z" />
    <glyph glyph-name="product" unicode="&#x220f;" horiz-adv-x="696" 
d="M83 -121v781h530v-781h-106v686h-318v-686h-106z" />
    <glyph glyph-name="summation" unicode="&#x2211;" horiz-adv-x="572" 
d="M214 -26h318v-95h-481v25l223 375l-223 356v25h469v-95h-303l172 -272v-25z" />
    <glyph glyph-name="minus" unicode="&#x2212;" 
d="M50 272v91h459v-91h-459z" />
    <glyph glyph-name="uni2219" unicode="&#x2219;" horiz-adv-x="280" 
d="M62 317q0 33 23 55.5t56 22.5t55 -22t22 -56q0 -33 -22 -55t-55 -22t-56 22t-23 55z" />
    <glyph glyph-name="radical" unicode="&#x221a;" horiz-adv-x="734" 
d="M625 750h104l-513 -883h-37v323h-160v88h252v-136z" />
    <glyph glyph-name="infinity" unicode="&#x221e;" horiz-adv-x="849" 
d="M824 316q0 -77 -54 -130t-138 -53q-61 0 -109 28.5t-99 86.5q-52 -58 -100.5 -86.5t-108.5 -28.5q-84 0 -137 53t-53 130t53.5 130.5t138.5 53.5q60 0 109 -28t98 -84q51 57 99 84.5t108 27.5q84 0 138.5 -54t54.5 -130zM365 318q-38 45 -70 66t-68 21q-43 0 -70 -23.5
t-27 -64.5t27 -65t70 -24q36 0 67.5 21.5t70.5 68.5zM719 317q0 41 -26.5 64.5t-71.5 23.5q-36 0 -68 -21t-70 -66q39 -47 70.5 -68.5t68.5 -21.5q43 0 70 24t27 65z" />
    <glyph glyph-name="integral" unicode="&#x222b;" horiz-adv-x="343" 
d="M4 -121v88l49 -2q99 0 99 110q0 53 -33 249q-36 214 -36 279q0 91 49 138t135 47q39 0 73 -8v-88l-50 2q-98 0 -98 -108q0 -28 9 -92l20 -135q38 -239 38 -303q0 -91 -48 -138t-134 -47q-41 0 -73 8z" />
    <glyph glyph-name="approxequal" unicode="&#x2248;" 
d="M315 352l-91 55q-40 25 -59 25q-17 0 -26.5 -11.5t-9.5 -30.5v-24h-82q-2 34 -2 37q0 53 30.5 88.5t77.5 35.5q37 0 84 -26l91 -56q44 -24 59 -24q17 0 26 11.5t9 30.5v25h83q0 -7 0.5 -16t1 -14t0.5 -8q0 -54 -30.5 -89t-78.5 -35q-40 0 -83 26zM315 131l-91 55
q-40 25 -59 25q-17 0 -26.5 -11.5t-9.5 -30.5v-24h-82q-2 34 -2 37q0 53 30.5 88.5t77.5 35.5q37 0 84 -26l91 -56q44 -24 59 -24q17 0 26 11.5t9 30.5v25h83q0 -7 0.5 -16t1 -14t0.5 -8q0 -54 -30.5 -89t-78.5 -35q-40 0 -83 26z" />
    <glyph glyph-name="notequal" unicode="&#x2260;" 
d="M500 378h-134l-75 -121h209v-91h-265l-64 -105h-95l65 105h-80v91h136l74 121h-210v91h266l63 102h94l-63 -102h79v-91z" />
    <glyph glyph-name="lessequal" unicode="&#x2264;" 
d="M496 543v-94l-261 -96l261 -97v-94l-451 176v29zM57 0v88h439v-88h-439z" />
    <glyph glyph-name="greaterequal" unicode="&#x2265;" 
d="M64 543l451 -176v-29l-451 -176v94l261 97l-261 96v94zM64 0v88h439v-88h-439z" />
    <glyph glyph-name="uni24EA" unicode="&#x24ea;" horiz-adv-x="978" 
d="M58 330q-2 114 56.5 214.5t159 159.5t214.5 57q114 2 215 -57t160 -159.5t57 -214.5q2 -114 -57 -214.5t-160 -159.5t-215 -57q-114 -2 -214.5 57t-159 159.5t-56.5 214.5zM836 330q2 145 -101.5 249t-246.5 101q-142 2 -246 -101.5t-101 -248.5q-3 -145 101 -248.5
t246 -101.5q143 -3 246.5 101t101.5 249zM313 333q0 104 46 166t129 62q85 0 131 -62t46 -166q0 -103 -45 -169t-132 -66q-86 0 -131 66q-44 67 -44 169zM576 333q0 149 -88 149q-86 0 -86 -149q0 -156 86 -156q88 0 88 156z" />
    <glyph glyph-name="uni24FF" unicode="&#x24ff;" horiz-adv-x="978" 
d="M58 330q-2 114 56.5 214.5t159 159.5t214.5 57q114 2 215 -57t160 -159.5t57 -214.5q2 -114 -57 -214.5t-160 -159.5t-215 -57q-114 -2 -214.5 57t-159 159.5t-56.5 214.5zM666 333q0 104 -46.5 166t-131.5 62q-84 0 -130 -62t-46 -166q0 -102 44 -169q45 -66 132 -66
t132 66q46 65 46 169zM405 333q0 146 83 146q85 0 85 -146q0 -153 -85 -153q-83 0 -83 153z" />
    <glyph glyph-name="filledbox" unicode="&#x25a0;" horiz-adv-x="730" 
d="M90 55v550h550v-550h-550z" />
    <glyph glyph-name="uni25A1" unicode="&#x25a1;" horiz-adv-x="730" 
d="M90 55v550h550v-550h-550zM188 147h354v366h-354v-366z" />
    <glyph glyph-name="uni25AA" unicode="&#x25aa;" horiz-adv-x="530" 
d="M74 56v380h381v-380h-381z" />
    <glyph glyph-name="uni25AB" unicode="&#x25ab;" horiz-adv-x="530" 
d="M74 56v380h381v-380h-381zM166 142h197v207h-197v-207z" />
    <glyph glyph-name="triagup" unicode="&#x25b2;" horiz-adv-x="730" 
d="M29 55l-8 14l336 591h17l335 -591l-8 -14h-672z" />
    <glyph glyph-name="uni25B3" unicode="&#x25b3;" horiz-adv-x="730" 
d="M374 660l335 -591l-8 -14h-672l-8 14l336 591h17zM553 152l-188 330l-188 -330h376z" />
    <glyph glyph-name="uni25B4" unicode="&#x25b4;" horiz-adv-x="530" 
d="M34 56l-8 14l231 405h17l230 -405l-8 -14h-462z" />
    <glyph glyph-name="uni25B5" unicode="&#x25b5;" horiz-adv-x="530" 
d="M274 475l230 -405l-8 -14h-462l-8 14l231 405h17zM373 132l-108 190l-107 -190h215z" />
    <glyph glyph-name="uni25B6" unicode="&#x25b6;" horiz-adv-x="730" 
d="M134 -11l-14 8v666l14 8l518 -333v-17z" />
    <glyph glyph-name="uni25B7" unicode="&#x25b7;" horiz-adv-x="730" 
d="M134 671l518 -333v-17l-518 -332l-14 8v666zM489 330l-271 174v-348z" />
    <glyph glyph-name="uni25B8" unicode="&#x25b8;" horiz-adv-x="530" 
d="M124 11l-14 8v455l14 8l355 -227v-17z" />
    <glyph glyph-name="uni25B9" unicode="&#x25b9;" horiz-adv-x="530" 
d="M124 482l355 -227v-17l-355 -227l-14 8v455zM342 246l-151 97v-193z" />
    <glyph glyph-name="triagrt" unicode="&#x25ba;" horiz-adv-x="961" 
d="M114 -11l-14 8v666l14 8l827 -333v-17z" />
    <glyph glyph-name="uni25BB" unicode="&#x25bb;" horiz-adv-x="961" 
d="M114 671l827 -333v-17l-827 -332l-14 8v666zM706 330l-508 205v-410z" />
    <glyph glyph-name="triagdn" unicode="&#x25bc;" horiz-adv-x="730" 
d="M29 605h672l8 -14l-335 -591h-17l-336 591z" />
    <glyph glyph-name="uni25BD" unicode="&#x25bd;" horiz-adv-x="730" 
d="M701 605l8 -14l-335 -591h-17l-336 591l8 14h672zM553 508h-376l188 -330z" />
    <glyph glyph-name="uni25BE" unicode="&#x25be;" horiz-adv-x="530" 
d="M257 17l-231 404l8 15h462l8 -15l-230 -404h-17z" />
    <glyph glyph-name="uni25BF" unicode="&#x25bf;" horiz-adv-x="530" 
d="M496 436l8 -15l-230 -404h-17l-231 404l8 15h462zM373 359h-215l107 -189z" />
    <glyph glyph-name="uni25C0" unicode="&#x25c0;" horiz-adv-x="730" 
d="M596 -11l-518 332v17l518 333l14 -8v-666z" />
    <glyph glyph-name="uni25C1" unicode="&#x25c1;" horiz-adv-x="730" 
d="M596 671l14 -8v-666l-14 -8l-518 332v17zM512 504l-271 -174l271 -174v348z" />
    <glyph glyph-name="uni25C2" unicode="&#x25c2;" horiz-adv-x="530" 
d="M406 11l-355 227v17l355 227l14 -8v-455z" />
    <glyph glyph-name="uni25C3" unicode="&#x25c3;" horiz-adv-x="530" 
d="M406 482l14 -8v-455l-14 -8l-355 227v17zM339 150v193l-152 -97z" />
    <glyph glyph-name="triaglf" unicode="&#x25c4;" horiz-adv-x="961" 
d="M847 -11l-827 332v17l827 333l14 -8v-666z" />
    <glyph glyph-name="uni25C5" unicode="&#x25c5;" horiz-adv-x="961" 
d="M847 671l14 -8v-666l-14 -8l-827 332v17zM763 125v410l-508 -205z" />
    <glyph glyph-name="lozenge" unicode="&#x25ca;" horiz-adv-x="665" 
d="M351 671l213 -341l-213 -341h-37l-213 342l213 340h37zM211 331l124 -196l120 195l-122 196z" />
    <glyph glyph-name="circle" unicode="&#x25cb;" horiz-adv-x="730" 
d="M35 330q-3 132 97 232t233 97q132 3 232 -97t97 -232q3 -133 -97 -233t-232 -97q-132 -3 -232 97t-98 233zM597 330q2 97 -67 168t-165 69q-97 0 -165 -69.5t-68 -167.5t68 -167.5t165 -69.5q96 -2 165 69t67 168z" />
    <glyph glyph-name="uni25CF" unicode="&#x25cf;" horiz-adv-x="730" 
d="M35 330q-3 132 97 232t233 97q132 3 232 -97t97 -232q3 -133 -97 -233t-232 -97q-132 -3 -232 97t-98 233z" />
    <glyph glyph-name="uni261C" unicode="&#x261c;" horiz-adv-x="1210" 
d="M1169 280v-33l-88 -73l50 -177l-30 -20l-227 145q-93 -50 -189 -78q-93 -28 -166 -28q-112 0 -112 71q0 24 14 38q-46 15 -46 58q0 31 25 47q-36 17 -36 53q0 21 13 35l-189 4q-84 2 -123 25t-39 73q0 53 43 72.5t148 19.5q81 0 174 -9q1 43 27.5 68t64.5 25q41 0 80 -24
l242 -148l65 -21l231 147l30 -20l-49 -177zM473 494q62 -9 130 -21l-72 43q-16 10 -29 10q-27 0 -29 -32zM848 186v153q-119 48 -301 76q-185 30 -358 30q-49 0 -67 -5.5t-18 -21.5q0 -14 15.5 -20.5t55.5 -8.5l121 -4l84 -3q131 -3 175 -7v-60l-103 1q-19 0 -19 -17
q0 -8 5 -13.5t12 -5.5h117v-59h-105q-17 0 -17 -19q0 -18 17 -18h115v-60q-37 -5 -74 -5h-8q-19 0 -19 -17q0 -20 33 -20q55 0 157 29q103 29 182 75zM921 353v-180l113 -70l-30 100l76 61l-76 59l30 101z" />
    <glyph glyph-name="uni261E" unicode="&#x261e;" horiz-adv-x="1210" 
d="M1184 420q0 -50 -38.5 -73t-123.5 -25l-189 -4q13 -14 13 -35q0 -36 -36 -53q25 -16 25 -47q0 -43 -46 -58q14 -14 14 -38q0 -71 -112 -71q-73 0 -167 28q-96 29 -188 78l-227 -145l-30 20l50 177l-88 73v33l87 73l-49 177l30 20l231 -147l65 21l242 148q39 24 80 24
q38 0 64.5 -25t27.5 -68q93 9 174 9q105 0 148 -19.5t43 -72.5zM679 516l-72 -43q68 12 130 21q-2 32 -29 32q-13 0 -29 -10zM1106 418q0 16 -18 21.5t-67 5.5q-175 0 -359 -30q-180 -28 -300 -76v-153q79 -46 181 -75q104 -29 158 -29q33 0 33 20q0 17 -19 17h-8
q-37 0 -74 5v60h115q17 0 17 18q0 19 -17 19h-105v59h117q7 0 12 5.5t5 13.5q0 17 -19 17l-103 -1v60q44 4 175 7l84 3l121 4q40 2 55.5 8.5t15.5 20.5zM289 173v180l-113 71l30 -101l-76 -59l76 -61l-30 -100z" />
    <glyph glyph-name="uni2661" unicode="&#x2661;" horiz-adv-x="860" 
d="M807 475q0 -51 -24 -94q-25 -45 -84 -110l-261 -282h-17l-261 282q-59 65 -84 110q-23 46 -23 94q0 84 56.5 140t136.5 56q63 0 112 -35t71 -93q22 58 72 93t113 35q80 0 136.5 -56t56.5 -140zM696 472q0 45 -27.5 72.5t-70.5 27.5q-51 0 -87 -43t-55 -117h-53
q-16 72 -53.5 116t-89.5 44q-42 0 -69.5 -27.5t-27.5 -72.5q0 -35 17.5 -66.5t60.5 -77.5l189 -208l188 208q43 48 60.5 79t17.5 65z" />
    <glyph glyph-name="heart" unicode="&#x2665;" horiz-adv-x="860" 
d="M421 -11l-261 282q-59 65 -84 110q-23 46 -23 94q0 84 56.5 140t136.5 56q63 0 112 -35t71 -93q22 58 72 93t113 35q80 0 136.5 -56t56.5 -140q0 -51 -24 -94q-25 -45 -84 -110l-261 -282h-17z" />
    <glyph glyph-name="uni275B" unicode="&#x275b;" horiz-adv-x="670" 
d="M614 207q0 -91 -64.5 -154.5t-169.5 -63.5q-132 -2 -229.5 99t-94.5 240q-2 141 98 243t243 100q114 0 205 -71l-43 -67q-70 53 -157 53q-106 1 -181 -75t-73 -183q0 -68 30 -127v6q0 89 64.5 153.5t153.5 64.5t153.5 -64t64.5 -154z" />
    <glyph glyph-name="uni275C" unicode="&#x275c;" horiz-adv-x="670" 
d="M614 332q2 -141 -98 -243t-243 -100q-114 0 -205 71l43 67q70 -53 157 -53q106 -2 181 74.5t73 183.5q0 68 -30 127v-6q0 -89 -64.5 -153.5t-153.5 -64.5t-153.5 64t-64.5 154q0 91 64.5 154.5t169.5 63.5q132 2 229.5 -99t94.5 -240z" />
    <glyph glyph-name="uni275D" unicode="&#x275d;" horiz-adv-x="1287" 
d="M1231 207q0 -91 -64.5 -154.5t-169.5 -63.5q-132 -2 -229.5 99t-94.5 240q-2 141 98 243t243 100q114 0 205 -71l-43 -67q-70 53 -157 53q-106 1 -181 -75t-73 -183q0 -68 30 -127v6q0 89 64.5 153.5t153.5 64.5t153.5 -64t64.5 -154zM614 207q0 -91 -64.5 -154.5
t-169.5 -63.5q-132 -2 -229.5 99t-94.5 240q-2 141 98 243t243 100q114 0 205 -71l-43 -67q-70 53 -157 53q-106 1 -181 -75t-73 -183q0 -68 30 -127v6q0 89 64.5 153.5t153.5 64.5t153.5 -64t64.5 -154z" />
    <glyph glyph-name="uni275E" unicode="&#x275e;" horiz-adv-x="1287" 
d="M611 332q2 -141 -98 -243t-243 -100q-114 0 -205 71l43 67q70 -53 157 -53q106 -2 181 74.5t73 183.5q0 68 -30 127v-6q0 -89 -64.5 -153.5t-153.5 -64.5t-153.5 64t-64.5 154q0 91 64.5 154.5t169.5 63.5q132 2 229.5 -99t94.5 -240zM1231 332q2 -141 -98 -243
t-243 -100q-114 0 -205 71l43 67q70 -53 157 -53q106 -2 181 74.5t73 183.5q0 68 -30 127v-6q0 -89 -64.5 -153.5t-153.5 -64.5t-153.5 64t-64.5 154q0 91 64.5 154.5t169.5 63.5q132 2 229.5 -99t94.5 -240z" />
    <glyph glyph-name="uni2776" unicode="&#x2776;" horiz-adv-x="978" 
d="M58 330q-2 114 56.5 214.5t159 159.5t214.5 57q114 2 215 -57t160 -159.5t57 -214.5q2 -114 -57 -214.5t-160 -159.5t-215 -57q-114 -2 -214.5 57t-159 159.5t-56.5 214.5zM351 105h277v77h-90v372h-181v-77h90v-295h-96v-77z" />
    <glyph glyph-name="uni2777" unicode="&#x2777;" horiz-adv-x="978" 
d="M58 330q-2 114 56.5 214.5t159 159.5t214.5 57q114 2 215 -57t160 -159.5t57 -214.5q2 -114 -57 -214.5t-160 -159.5t-215 -57q-114 -2 -214.5 57t-159 159.5t-56.5 214.5zM325 105h332v77h-174l74 80q45 48 64.5 82.5t19.5 74.5q0 61 -44 102q-43 40 -112 40
q-70 0 -115.5 -44t-45.5 -104q0 -15 5 -40h83q-3 17 -3 33q0 31 20 52t52 21q31 0 49 -18.5t18 -48.5q0 -26 -15 -51t-50 -63l-158 -174v-19z" />
    <glyph glyph-name="uni2778" unicode="&#x2778;" horiz-adv-x="978" 
d="M58 330q-2 114 56.5 214.5t159 159.5t214.5 57q114 2 215 -57t160 -159.5t57 -214.5q2 -114 -57 -214.5t-160 -159.5t-215 -57q-114 -2 -214.5 57t-159 159.5t-56.5 214.5zM645 251q0 53 -31.5 88.5t-81.5 47.5l104 143v24h-290v-82h154l-97 -132v-24h55q93 0 93 -65
q0 -32 -22 -51.5t-56 -19.5q-54 0 -97 63l-64 -45q52 -100 164 -100q70 0 119.5 43.5t49.5 109.5z" />
    <glyph glyph-name="uni2779" unicode="&#x2779;" horiz-adv-x="978" 
d="M58 330q-2 114 56.5 214.5t159 159.5t214.5 57q114 2 215 -57t160 -159.5t57 -214.5q2 -114 -57 -214.5t-160 -159.5t-215 -57q-114 -2 -214.5 57t-159 159.5t-56.5 214.5zM518 105h90v72h57v80h-57v119h-90v-119h-116l119 297h-96l-133 -351v-26h226v-72z" />
    <glyph glyph-name="uni277A" unicode="&#x277a;" horiz-adv-x="978" 
d="M58 330q-2 114 56.5 214.5t159 159.5t214.5 57q114 2 215 -57t160 -159.5t57 -214.5q2 -114 -57 -214.5t-160 -159.5t-215 -57q-114 -2 -214.5 57t-159 159.5t-56.5 214.5zM654 253q0 64 -45 102.5t-107 38.5q-32 0 -52 -4v82h180v82h-267v-238h105q92 0 92 -65
q0 -32 -22 -51.5t-58 -19.5q-57 0 -100 63l-63 -45q22 -47 66 -74t101 -27q71 0 120.5 44t49.5 112z" />
    <glyph glyph-name="uni277B" unicode="&#x277b;" horiz-adv-x="978" 
d="M58 330q-2 114 56.5 214.5t159 159.5t214.5 57q114 2 215 -57t160 -159.5t57 -214.5q2 -114 -57 -214.5t-160 -159.5t-215 -57q-114 -2 -214.5 57t-159 159.5t-56.5 214.5zM644 256q0 52 -31 91t-78 51q-12 4 -30 4q-11 0 -21 -2l111 154h-108l-112 -155
q-34 -48 -47.5 -77.5t-13.5 -64.5q0 -67 48.5 -113t115.5 -46t116.5 46t49.5 112zM404 258q0 32 21.5 53.5t52.5 21.5q32 0 53.5 -21.5t21.5 -54.5q0 -32 -22 -54.5t-53 -22.5t-52.5 22.5t-21.5 55.5z" />
    <glyph glyph-name="uni277C" unicode="&#x277c;" horiz-adv-x="978" 
d="M58 330q-2 114 56.5 214.5t159 159.5t214.5 57q114 2 215 -57t160 -159.5t57 -214.5q2 -114 -57 -214.5t-160 -159.5t-215 -57q-114 -2 -214.5 57t-159 159.5t-56.5 214.5zM351 106h100l206 424v25h-315v-83h194z" />
    <glyph glyph-name="uni277D" unicode="&#x277d;" horiz-adv-x="978" 
d="M58 330q-2 114 56.5 214.5t159 159.5t214.5 57q114 2 215 -57t160 -159.5t57 -214.5q2 -114 -57 -214.5t-160 -159.5t-215 -57q-114 -2 -214.5 57t-159 159.5t-56.5 214.5zM657 225q0 77 -90 114q70 37 70 104q0 55 -40.5 86.5t-107.5 31.5t-107.5 -31.5t-40.5 -86.5
q0 -64 71 -105q-92 -36 -92 -113q0 -57 47 -92t122 -35t121.5 35t46.5 92zM427 437q0 24 17.5 38.5t44.5 14.5t44.5 -14.5t17.5 -38.5q0 -38 -63 -63q-61 24 -61 63zM411 231q0 27 18.5 43.5t58.5 31.5q42 -15 60.5 -31.5t18.5 -44.5q0 -27 -21 -44t-57 -17q-37 0 -57.5 17
t-20.5 45z" />
    <glyph glyph-name="uni277E" unicode="&#x277e;" horiz-adv-x="978" 
d="M58 330q-2 114 57 214.5t159.5 159.5t214.5 57q114 2 214.5 -57t159.5 -159.5t57 -214.5q2 -114 -57 -214.5t-159.5 -159.5t-214.5 -57q-114 -2 -214.5 57t-159.5 159.5t-57 214.5zM382 106h108l112 155q35 48 48.5 77.5t13.5 64.5q0 67 -48.5 113t-116.5 46
q-66 0 -115.5 -46t-49.5 -112q0 -53 30.5 -92t78.5 -50q12 -4 29 -4q3 0 21 2zM424 403q0 32 22 54.5t53 22.5t52.5 -22.5t21.5 -55.5q0 -32 -21.5 -53.5t-52.5 -21.5q-32 0 -53.5 21.5t-21.5 54.5z" />
    <glyph glyph-name="uni2780" unicode="&#x2780;" horiz-adv-x="978" 
d="M58 330q-2 114 56.5 214.5t159 159.5t214.5 57q114 2 215 -57t160 -159.5t57 -214.5q2 -114 -57 -214.5t-160 -159.5t-215 -57q-114 -2 -214.5 57t-159 159.5t-56.5 214.5zM832 330q2 143 -100.5 246t-243.5 100q-141 2 -243 -100t-99 -246q-3 -144 99 -246t243 -100
q141 -3 243.5 100t100.5 246zM351 105v77h96v295h-90v77h181v-372h90v-77h-277z" />
    <glyph glyph-name="uni2781" unicode="&#x2781;" horiz-adv-x="978" 
d="M58 330q-2 114 56.5 214.5t159 159.5t214.5 57q114 2 215 -57t160 -159.5t57 -214.5q2 -114 -57 -214.5t-160 -159.5t-215 -57q-114 -2 -214.5 57t-159 159.5t-56.5 214.5zM832 330q2 143 -100.5 246t-243.5 100q-141 2 -243 -100t-99 -246q-3 -144 99 -246t243 -100
q141 -3 243.5 100t100.5 246zM325 105v19l158 174q35 38 50 63t15 51q0 30 -18 48.5t-49 18.5q-32 0 -52 -21t-20 -52q0 -16 3 -33h-83q-5 25 -5 40q0 60 45.5 104t115.5 44q69 0 112 -40q44 -41 44 -102q0 -40 -19.5 -74.5t-64.5 -82.5l-74 -80h174v-77h-332z" />
    <glyph glyph-name="uni2782" unicode="&#x2782;" horiz-adv-x="978" 
d="M58 330q-2 114 56.5 214.5t159 159.5t214.5 57q114 2 215 -57t160 -159.5t57 -214.5q2 -114 -57 -214.5t-160 -159.5t-215 -57q-114 -2 -214.5 57t-159 159.5t-56.5 214.5zM832 330q2 143 -100.5 246t-243.5 100q-141 2 -243 -100t-99 -246q-3 -144 99 -246t243 -100
q141 -3 243.5 100t100.5 246zM312 198l64 45q43 -63 97 -63q34 0 56 19.5t22 51.5q0 65 -93 65h-55v24l97 132h-154v82h290v-24l-104 -143q50 -12 81.5 -47.5t31.5 -88.5q0 -66 -49.5 -109.5t-119.5 -43.5q-112 0 -164 100z" />
    <glyph glyph-name="uni2783" unicode="&#x2783;" horiz-adv-x="978" 
d="M58 330q-2 114 56.5 214.5t159 159.5t214.5 57q114 2 215 -57t160 -159.5t57 -214.5q2 -114 -57 -214.5t-160 -159.5t-215 -57q-114 -2 -214.5 57t-159 159.5t-56.5 214.5zM832 330q2 143 -100.5 246t-243.5 100q-141 2 -243 -100t-99 -246q-3 -144 99 -246t243 -100
q141 -3 243.5 100t100.5 246zM518 105v72h-226v26l133 351h96l-119 -297h116v119h90v-119h57v-80h-57v-72h-90z" />
    <glyph glyph-name="uni2784" unicode="&#x2784;" horiz-adv-x="978" 
d="M58 330q-2 114 56.5 214.5t159 159.5t214.5 57q114 2 215 -57t160 -159.5t57 -214.5q2 -114 -57 -214.5t-160 -159.5t-215 -57q-114 -2 -214.5 57t-159 159.5t-56.5 214.5zM832 330q2 143 -100.5 246t-243.5 100q-141 2 -243 -100t-99 -246q-3 -144 99 -246t243 -100
q141 -3 243.5 100t100.5 246zM317 198l64 45q43 -63 99 -63q36 0 58.5 19.5t22.5 51.5q0 65 -92 65h-106v238h268v-82h-180v-82q20 4 52 4q62 0 107.5 -38.5t45.5 -102.5q0 -67 -50 -111.5t-122 -44.5q-56 0 -99.5 27t-67.5 74z" />
    <glyph glyph-name="uni2785" unicode="&#x2785;" horiz-adv-x="978" 
d="M58 330q-2 114 56.5 214.5t159 159.5t214.5 57q114 2 215 -57t160 -159.5t57 -214.5q2 -114 -57 -214.5t-160 -159.5t-215 -57q-114 -2 -214.5 57t-159 159.5t-56.5 214.5zM832 330q2 143 -100.5 246t-243.5 100q-141 2 -243 -100t-99 -246q-3 -144 99 -246t243 -100
q141 -3 243.5 100t100.5 246zM314 257q0 35 13.5 64.5t47.5 77.5l112 155h108l-111 -154q8 2 19 2q12 0 32 -4q47 -12 78 -51t31 -91q0 -66 -49.5 -112t-116.5 -46t-115.5 46t-48.5 113zM553 257q0 33 -21.5 54.5t-53.5 21.5q-31 0 -52.5 -21.5t-21.5 -53.5
q0 -33 21.5 -55.5t52.5 -22.5t53 22.5t22 54.5z" />
    <glyph glyph-name="uni2786" unicode="&#x2786;" horiz-adv-x="978" 
d="M58 330q-2 114 56.5 214.5t159 159.5t214.5 57q114 2 215 -57t160 -159.5t57 -214.5q2 -114 -57 -214.5t-160 -159.5t-215 -57q-114 -2 -214.5 57t-159 159.5t-56.5 214.5zM832 330q2 143 -100.5 246t-243.5 100q-141 2 -243 -100t-99 -246q-3 -144 99 -246t243 -100
q141 -3 243.5 100t100.5 246zM351 106l184 366h-194v83h315v-25l-206 -424h-99z" />
    <glyph glyph-name="uni2787" unicode="&#x2787;" horiz-adv-x="978" 
d="M58 330q-2 114 56.5 214.5t159 159.5t214.5 57q114 2 215 -57t160 -159.5t57 -214.5q2 -114 -57 -214.5t-160 -159.5t-215 -57q-114 -2 -214.5 57t-159 159.5t-56.5 214.5zM832 330q2 143 -100.5 246t-243.5 100q-141 2 -243 -100t-99 -246q-3 -144 99 -246t243 -100
q141 -3 243.5 100t100.5 246zM320 225q0 77 92 113q-71 41 -71 105q0 55 40.5 86.5t107.5 31.5t107.5 -31.5t40.5 -86.5q0 -67 -70 -104q90 -37 90 -114q0 -57 -46.5 -92t-121.5 -35t-122 35t-47 92zM551 437q0 24 -17.5 38.5t-44.5 14.5t-44.5 -14.5t-17.5 -38.5
q0 -39 61 -63q63 25 63 63zM567 230q0 28 -18.5 44.5t-60.5 31.5q-40 -15 -58.5 -31.5t-18.5 -43.5q0 -28 20.5 -45t57.5 -17q36 0 57 17t21 44z" />
    <glyph glyph-name="uni2788" unicode="&#x2788;" horiz-adv-x="978" 
d="M58 330q-2 114 57 214.5t159.5 159.5t214.5 57q114 2 214.5 -57t159.5 -159.5t57 -214.5q2 -114 -57 -214.5t-159.5 -159.5t-214.5 -57q-114 -2 -214.5 57t-159.5 159.5t-57 214.5zM832 330q3 144 -99.5 246t-243.5 100q-142 3 -243.5 -100t-99.5 -246q-2 -143 99.5 -246
t243.5 -100q141 -2 243.5 100t99.5 246zM382 106l111 154q-16 -2 -19 -2q-14 0 -31 4q-48 11 -78.5 50t-30.5 92q0 66 49.5 112t115.5 46q68 0 116.5 -46t48.5 -113q0 -35 -13.5 -64.5t-48.5 -77.5l-112 -155h-108zM573 402q0 33 -21.5 55.5t-52.5 22.5t-53 -22.5t-22 -54.5
q0 -33 21.5 -54.5t53.5 -21.5q31 0 52.5 21.5t21.5 53.5z" />
    <glyph glyph-name="uni27F5" unicode="&#x27f5;" horiz-adv-x="1216" 
d="M1167 273h-888l-69 2l178 -178l-63 -62l-272 272v21l272 272l63 -62l-177 -177l68 2h888v-90z" />
    <glyph glyph-name="uni27F6" unicode="&#x27f6;" horiz-adv-x="1216" 
d="M891 600l272 -272v-21l-272 -272l-63 62l179 179l-70 -2l-888 -1v90h888l68 -2l-177 177z" />
    <glyph glyph-name="uniF8FF" unicode="&#xf8ff;" horiz-adv-x="656" 
d="M49 0v660h235l24 -285l7 -145h20l8 145l24 285h241v-660h-155v359h-21l-7 -108l-39 -251h-127l-37 251l-8 108h-21v-359h-144zM45 -168v132h566v-132h-566z" />
    <glyph glyph-name="Iacute_J.loclNLD" horiz-adv-x="654" 
d="M83 0v660h106v-660h-106zM96 724l79 186h128v-19l-129 -167h-78zM293 0v91q50 -5 68 -5q53 0 78 20t25 69v485h106v-496q0 -86 -48.5 -130.5t-137.5 -44.5q-41 0 -91 11zM463 724l79 186h128v-19l-129 -167h-78z" />
    <glyph glyph-name="Cacute.loclPLK" horiz-adv-x="717" 
d="M43 330q-3 141 101 242t246 99q90 0 165 -41t118 -111l-80 -59q-73 114 -202 114q-102 0 -170 -69.5t-68 -174.5t68 -174.5t170 -69.5q129 0 202 114l80 -59q-43 -71 -117.5 -111.5t-165.5 -40.5q-142 -2 -246 99t-101 242zM350 724l39 186h128v-19l-89 -167h-78z" />
    <glyph glyph-name="Nacute.loclPLK" horiz-adv-x="711" 
d="M521 660h106v-671h-36l-402 458v-447h-106v671h37l401 -456v445zM315 724l39 186h128v-19l-89 -167h-78z" />
    <glyph glyph-name="Oacute.loclPLK" horiz-adv-x="780" 
d="M43 330q-2 141 101 242t245 99q141 2 245.5 -99t101.5 -242q3 -141 -101.5 -242t-245.5 -99q-142 -2 -245.5 99t-100.5 242zM627 331q0 104 -68 173.5t-169 69.5q-102 0 -169.5 -69t-67.5 -174q0 -106 67 -175.5t170 -69.5q101 0 169 70t68 175zM350 724l39 186h128v-19
l-89 -167h-78z" />
    <glyph glyph-name="Sacute.loclPLK" horiz-adv-x="559" 
d="M36 132l75 57q72 -105 173 -105q51 0 82.5 25t31.5 67q0 34 -21 53.5t-76 45.5l-73 34q-77 35 -115.5 77.5t-38.5 105.5q0 79 60 129t148 50q69 0 125.5 -32t87.5 -86l-74 -57q-54 80 -139 80q-44 0 -72 -21t-28 -59q1 -18 4.5 -29.5t18.5 -24t21 -15.5t39 -20q6 -3 9 -5
l74 -34q83 -38 120.5 -81t37.5 -107q0 -85 -62.5 -138t-158.5 -53q-80 0 -145 38t-104 105zM242 724l39 186h128v-19l-89 -167h-78z" />
    <glyph glyph-name="Zacute.loclPLK" horiz-adv-x="588" 
d="M190 95h368v-95h-532v29l366 536h-323v95h488v-29zM259 724l39 186h128v-19l-89 -167h-78z" />
    <glyph glyph-name="Idotaccent.loclTRK" horiz-adv-x="272" 
d="M83 0v660h106v-660h-106zM65 812q0 30 21 50t51 20t50.5 -20t20.5 -50q0 -29 -21 -49t-50 -20q-30 0 -51 20t-21 49z" />
    <glyph glyph-name="A.ordn" horiz-adv-x="431" 
d="M323 244l-22 58h-170l-22 -58h-92l185 423h28l185 -423h-92zM275 368l-59 146l-60 -146h119z" />
    <glyph glyph-name="O.ordn" horiz-adv-x="506" 
d="M33 452q0 90 63.5 152.5t155.5 62.5q90 2 156.5 -62t64.5 -153q2 -89 -64.5 -153t-156.5 -62q-92 0 -155.5 62.5t-63.5 152.5zM386 452q0 59 -38 97q-37 39 -95 39q-59 0 -96 -38t-37 -98t37 -98t96 -38q57 0 95 38q38 40 38 98z" />
    <glyph glyph-name="iacute_j.loclNLD" horiz-adv-x="515" 
d="M76 0v491h105v-491h-105zM89 568l49 212h128v-19l-99 -193h-78zM196 -182v89q24 -3 43 -3q48 0 71 20t23 65v502h105v-511q0 -85 -45.5 -128t-128.5 -43q-41 0 -68 9zM346 568l49 212h128v-19l-99 -193h-78z" />
    <glyph glyph-name="cacute.loclPLK" horiz-adv-x="552" 
d="M45 246q-2 105 76 181.5t184 74.5q138 0 207 -114l-74 -58q-52 75 -132 75q-66 0 -110 -46t-44 -113q0 -68 44 -114t110 -46q78 0 132 74l74 -57q-33 -54 -87 -84t-120 -30q-109 0 -184.5 75t-75.5 182zM261 568l39 212h128v-19l-89 -193h-78z" />
    <glyph glyph-name="nacute.loclPLK" horiz-adv-x="575" 
d="M505 307v-307h-105v293q0 51 -29.5 82.5t-77.5 31.5q-49 0 -80.5 -32t-31.5 -82v-293h-105v491h98v-48q56 59 147 59q85 0 134.5 -53t49.5 -142zM241 568l39 212h128v-19l-89 -193h-78z" />
    <glyph glyph-name="oacute.loclPLK" horiz-adv-x="609" 
d="M45 246q-2 105 75.5 181.5t183.5 74.5q107 2 185 -75t76 -181q2 -105 -76 -182t-185 -75q-106 -2 -183.5 75.5t-75.5 181.5zM457 245q0 68 -44 114.5t-108 46.5q-65 0 -109 -46.5t-44 -114.5t43.5 -113.5t108.5 -45.5t109 46t44 113zM262 568l39 212h128v-19l-89 -193
h-78z" />
    <glyph glyph-name="sacute.loclPLK" horiz-adv-x="455" 
d="M30 84l60 66q67 -70 138 -70q35 0 57 14.5t22 40.5q0 20 -15 32.5t-54 28.5l-50 21q-67 28 -97.5 60.5t-30.5 82.5q0 65 48.5 103.5t124.5 38.5q106 0 170 -76l-57 -65q-48 50 -115 50t-67 -47q0 -18 14 -30.5t51 -27.5l47 -19q71 -30 102.5 -63.5t31.5 -84.5
q0 -71 -52 -111q-52 -39 -130 -39q-125 0 -198 95zM189 568l39 212h128v-19l-89 -193h-78z" />
    <glyph glyph-name="zacute.loclPLK" horiz-adv-x="461" 
d="M179 91h260v-91h-417v29l257 371h-234v91h392v-30zM195 568l39 212h128v-19l-89 -193h-78z" />
    <glyph glyph-name="i.loclTRK.loclTRK" horiz-adv-x="257" 
d="M76 0v491h105v-491h-105zM57 674q0 29 21 49.5t51 20.5q29 0 50 -20.5t21 -49.5t-21 -49t-50 -20q-30 0 -51 20t-21 49z" />
    <glyph glyph-name="a.ss01" horiz-adv-x="631" 
d="M457 491h98v-491h-102v63q-58 -74 -168 -74q-102 -1 -172 74t-68 182q0 110 68.5 183.5t171.5 73.5q115 0 172 -81v70zM451 245q0 77 -43.5 119t-104.5 42q-64 0 -107.5 -46t-43.5 -115q0 -70 43.5 -115t107.5 -45q61 0 104.5 42t43.5 118z" />
    <glyph glyph-name="y.ss01" horiz-adv-x="575" 
d="M394 491h105v-455q0 -106 -61 -166.5t-163 -60.5q-125 0 -216 93l59 73q76 -70 149 -70q59 0 93 31.5t34 92.5v40q-54 -56 -142 -56q-84 0 -132.5 53.5t-48.5 143.5v281h104v-267q0 -51 29.5 -83t77.5 -32q50 0 81 31.5t31 81.5v269z" />
    <glyph glyph-name="aacute.ss01" horiz-adv-x="631" 
d="M457 491h98v-491h-102v63q-58 -74 -168 -74q-102 -1 -172 74t-68 182q0 110 68.5 183.5t171.5 73.5q115 0 172 -81v70zM451 245q0 77 -43.5 119t-104.5 42q-64 0 -107.5 -46t-43.5 -115q0 -70 43.5 -115t107.5 -45q61 0 104.5 42t43.5 118zM273 568l79 212h128v-19
l-129 -193h-78z" />
    <glyph glyph-name="abreve.ss01" horiz-adv-x="631" 
d="M457 491h98v-491h-102v63q-58 -74 -168 -74q-102 -1 -172 74t-68 182q0 110 68.5 183.5t171.5 73.5q115 0 172 -81v70zM451 245q0 77 -43.5 119t-104.5 42q-64 0 -107.5 -46t-43.5 -115q0 -70 43.5 -115t107.5 -45q61 0 104.5 42t43.5 118zM149 738v29h84v-28
q0 -40 21 -63.5t56 -23.5q36 0 57 23.5t21 63.5v28h85v-29q0 -74 -46 -120q-45 -46 -117 -46q-71 0 -116 46t-45 120z" />
    <glyph glyph-name="acircumflex.ss01" horiz-adv-x="631" 
d="M457 491h98v-491h-102v63q-58 -74 -168 -74q-102 -1 -172 74t-68 182q0 110 68.5 183.5t171.5 73.5q115 0 172 -81v70zM451 245q0 77 -43.5 119t-104.5 42q-64 0 -107.5 -46t-43.5 -115q0 -70 43.5 -115t107.5 -45q61 0 104.5 42t43.5 118zM480 568h-78l-90 109l-91 -109
h-79l136 212h67z" />
    <glyph glyph-name="adieresis.ss01" horiz-adv-x="631" 
d="M457 491h98v-491h-102v63q-58 -74 -168 -74q-102 -1 -172 74t-68 182q0 110 68.5 183.5t171.5 73.5q115 0 172 -81v70zM451 245q0 77 -43.5 119t-104.5 42q-64 0 -107.5 -46t-43.5 -115q0 -70 43.5 -115t107.5 -45q61 0 104.5 42t43.5 118zM130 674q0 27 20.5 46.5
t48.5 19.5t47.5 -19t19.5 -47q0 -26 -19.5 -45.5t-47.5 -19.5t-48.5 19.5t-20.5 45.5zM355 674q0 27 20.5 46.5t48.5 19.5q27 0 47 -19.5t20 -46.5q0 -26 -20 -45.5t-47 -19.5q-28 0 -48.5 19.5t-20.5 45.5z" />
    <glyph glyph-name="agrave.ss01" horiz-adv-x="631" 
d="M457 491h98v-491h-102v63q-58 -74 -168 -74q-102 -1 -172 74t-68 182q0 110 68.5 183.5t171.5 73.5q115 0 172 -81v70zM451 245q0 77 -43.5 119t-104.5 42q-64 0 -107.5 -46t-43.5 -115q0 -70 43.5 -115t107.5 -45q61 0 104.5 42t43.5 118zM273 568l-129 193v19h128
l79 -212h-78z" />
    <glyph glyph-name="amacron.ss01" horiz-adv-x="631" 
d="M457 491h98v-491h-102v63q-58 -74 -168 -74q-102 -1 -172 74t-68 182q0 110 68.5 183.5t171.5 73.5q115 0 172 -81v70zM451 245q0 77 -43.5 119t-104.5 42q-64 0 -107.5 -46t-43.5 -115q0 -70 43.5 -115t107.5 -45q61 0 104.5 42t43.5 118zM167 632v84h288v-84h-288z" />
    <glyph glyph-name="aogonek.ss01" horiz-adv-x="631" 
d="M457 491h98v-491h-102v63q-58 -74 -168 -74q-102 -1 -172 74t-68 182q0 110 68.5 183.5t171.5 73.5q115 0 172 -81v70zM451 245q0 77 -43.5 119t-104.5 42q-64 0 -107.5 -46t-43.5 -115q0 -70 43.5 -115t107.5 -45q61 0 104.5 42t43.5 118zM362 -98q0 41 33.5 72
t116.5 70l42 -44l-45 -29q-22 -15 -28 -19.5t-11.5 -12.5t-5.5 -18q0 -33 42 -33q14 0 48 6v-73q-40 -12 -79 -12q-52 0 -82.5 25.5t-30.5 67.5z" />
    </font>
</defs>
</svg>
