<?xml version="1.0" standalone="no"?>
<!DOCTYPE svg PUBLIC "-//W3C//DTD SVG 1.1//EN" "http://www.w3.org/Graphics/SVG/1.1/DTD/svg11.dtd" >
<svg xmlns="http://www.w3.org/2000/svg" xmlns:xlink="http://www.w3.org/1999/xlink" version="1.1">
<metadata>
Created by FontForge 20170731 at Thu May 24 22:11:37 2018
 By Aleksey,,,
Copyright (c) 2015, 2018 by Jakob Runge, under exclusive license to TypeMates. All rights reserved.
</metadata>
<defs>
<font id="CeraPro-ThinItalic" horiz-adv-x="560" >
  <font-face 
    font-family="Cera Pro"
    font-weight="250"
    font-style="italic"
    font-stretch="normal"
    units-per-em="1000"
    panose-1="0 0 3 0 0 0 0 0 0 0"
    ascent="808"
    descent="-192"
    x-height="480"
    cap-height="660"
    bbox="-412 -257 1274 1000"
    underline-thickness="30"
    underline-position="-190"
    slope="-10"
    unicode-range="U+0020-FB02"
  />
<missing-glyph horiz-adv-x="702" 
d="M177 660h496l-116 -660h-496zM532 29l106 603h-437z" />
    <glyph glyph-name="fi" unicode="fi" horiz-adv-x="516" 
d="M379 749l-5 -25q-37 8 -58 8q-95 0 -115 -108l-25 -144h131l-5 -28h-131l-91 -516q-10 -60 -47 -93t-93 -33q-27 0 -66 11l5 25q37 -8 58 -8q95 0 115 108l89 506h-70l5 28h70l27 154q10 60 47 93t93 33q27 0 66 -11zM344 0l84 480h30l-84 -480h-30zM443 666q0 14 10 24
t24 10t24 -10t10 -24t-10 -24t-24 -10t-24 10t-10 24z" />
    <glyph glyph-name="fl" unicode="fl" horiz-adv-x="516" 
d="M379 749l-5 -25q-37 8 -58 8q-95 0 -115 -108l-25 -144h131l-5 -28h-131l-91 -516q-10 -60 -47 -93t-93 -33q-27 0 -66 11l5 25q37 -8 58 -8q95 0 115 108l89 506h-70l5 28h70l27 154q10 60 47 93t93 33q27 0 66 -11zM344 0l132 750h30l-132 -750h-30z" />
    <glyph glyph-name=".notdef" horiz-adv-x="702" 
d="M177 660h496l-116 -660h-496zM532 29l106 603h-437z" />
    <glyph glyph-name=".null" horiz-adv-x="0" 
 />
    <glyph glyph-name="nonmarkingreturn" horiz-adv-x="333" 
 />
    <glyph glyph-name="space" unicode=" " horiz-adv-x="280" 
 />
    <glyph glyph-name="exclam" unicode="!" horiz-adv-x="271" 
d="M111 182l78 478h39l-89 -478h-28zM59 28q0 18 11.5 29t26.5 11q16 0 28 -11t12 -29q0 -17 -12 -27.5t-28 -10.5t-27 10.5t-11 27.5z" />
    <glyph glyph-name="quotedbl" unicode="&#x22;" horiz-adv-x="405" 
d="M136 420l61 240h40l-74 -240h-27zM276 420l61 240h40l-74 -240h-27z" />
    <glyph glyph-name="numbersign" unicode="#" horiz-adv-x="534" 
d="M541 428h-99l-35 -196h100l-5 -28h-99l-36 -204h-30l36 204h-226l-36 -204h-30l36 204h-97l5 28h97l34 196h-97l5 28h97l36 204h29l-36 -204h227l36 204h29l-36 -204h100zM151 232h227l34 196h-226z" />
    <glyph glyph-name="dollar" unicode="$" horiz-adv-x="534" 
d="M350 600l-45 -255l23 -14q111 -68 111 -152q0 -71 -52 -114t-138 -43l-20 -113h-31l21 117q-111 18 -174 136l28 14q55 -104 150 -120l48 273l-25 16q-107 64 -107 141q0 68 50 108t136 40l21 117h31l-21 -121q86 -17 133 -98l-26 -16q-43 70 -113 84zM277 362l43 242
h-10q-62 0 -100 -32t-38 -84q0 -34 22 -62t72 -57zM311 305l-12 7l-45 -260h8q64 0 104 35t40 91q0 70 -95 127z" />
    <glyph glyph-name="percent" unicode="%" horiz-adv-x="794" 
d="M108 507q0 68 47 115.5t115 47.5q64 0 107 -44t43 -109q0 -68 -47.5 -115.5t-115.5 -47.5q-63 0 -106 44t-43 109zM141 0l515 660h33l-515 -660h-33zM388 517q0 55 -32.5 90t-84.5 35q-57 0 -94 -39q-37 -37 -37 -96q0 -54 34 -89.5t86 -35.5q55 0 91.5 38.5t36.5 96.5z
M407 143q0 68 47 115.5t115 47.5q64 0 107 -44t43 -109q0 -68 -47.5 -115.5t-115.5 -47.5q-63 0 -106 44t-43 109zM687 153q0 55 -32.5 90t-84.5 35q-56 0 -94 -39q-37 -37 -37 -96q0 -54 34 -89.5t86 -35.5q55 0 91.5 38.5t36.5 96.5z" />
    <glyph glyph-name="ampersand" unicode="&#x26;" horiz-adv-x="588" 
d="M572 259l-35 -40q-60 -70 -92 -104l76 -115h-37l-61 93q-103 -103 -205 -103q-77 0 -128 44.5t-51 112.5q0 63 44 112t157 114q-55 89 -55 148q0 63 41 106t100 43q54 0 89 -34t35 -87q0 -49 -38 -91.5t-130 -95.5l146 -222q13 13 71 81q6 6 22.5 26t27.5 32zM217 520
q0 -57 49 -134q82 45 117 83t35 82q0 40 -25.5 64.5t-66.5 24.5q-49 0 -79 -33t-30 -87zM407 118l-151 231q-112 -67 -148 -105.5t-36 -93.5q0 -58 41 -94.5t105 -36.5q92 0 189 99z" />
    <glyph glyph-name="quotesingle" unicode="'" horiz-adv-x="265" 
d="M136 420l61 240h40l-74 -240h-27z" />
    <glyph glyph-name="parenleft" unicode="(" horiz-adv-x="316" 
d="M87 177q-2 188 78.5 349t196.5 203l9 -24q-106 -45 -180.5 -200t-72.5 -330q0 -197 110 -284l-16 -22q-125 96 -125 308z" />
    <glyph glyph-name="parenright" unicode=")" horiz-adv-x="315" 
d="M-26 -131l-9 24q106 45 180.5 200t72.5 330q0 197 -110 284l16 22q125 -96 125 -308q1 -124 -35 -241.5t-100 -200t-140 -110.5z" />
    <glyph glyph-name="asterisk" unicode="*" horiz-adv-x="364" 
d="M384 644l-109 -42l87 -78l-15 -18l-91 73l-24 -115l-24 4l17 116l-110 -37l-9 23l109 42l-87 78l15 18l91 -73l24 115l24 -4l-17 -116l110 37z" />
    <glyph glyph-name="plus" unicode="+" 
d="M239 91l36 204h-199l5 28h199l36 204h30l-36 -204h198l-5 -28h-198l-36 -204h-30z" />
    <glyph glyph-name="comma" unicode="," horiz-adv-x="280" 
d="M33 -180l62 243h40l-74 -243h-28z" />
    <glyph glyph-name="hyphen" unicode="-" horiz-adv-x="340" 
d="M70 295l5 28h220l-5 -28h-220z" />
    <glyph glyph-name="period" unicode="." horiz-adv-x="280" 
d="M64 28q0 18 11 29t27 11t28 -11t12 -29q0 -17 -12 -27.5t-28 -10.5t-27 10.5t-11 27.5z" />
    <glyph glyph-name="slash" unicode="/" horiz-adv-x="576" 
d="M-53 -121l677 901h36l-677 -901h-36z" />
    <glyph glyph-name="zero" unicode="0" horiz-adv-x="600" 
d="M80 237q0 85 26 187q26 98 89 173q63 73 164 73q92 0 141.5 -65t49.5 -183q0 -85 -26 -187q-25 -98 -89 -173q-61 -72 -163 -72q-92 0 -142 65t-50 182zM517 429q0 113 -47 162q-46 49 -115 49q-88 0 -142 -70q-55 -71 -77 -165q-23 -97 -23 -174q0 -113 47 -163
q46 -48 115 -48q88 0 142 70q55 71 77 165q23 97 23 174z" />
    <glyph glyph-name="one" unicode="1" horiz-adv-x="365" 
d="M301 660h15l-116 -660h-32l110 627l-168 -38l-4 28z" />
    <glyph glyph-name="two" unicode="2" horiz-adv-x="541" 
d="M313 220l-240 -192h376l-5 -28h-437l2 12l285 230q85 69 125 127t40 124q0 68 -40 107.5t-109 39.5q-76 0 -124 -53t-48 -138q0 -25 1 -32h-33q-2 22 -2 34q0 94 59 156.5t148 62.5q82 0 132 -48.5t50 -127.5q0 -70 -44 -135t-136 -139z" />
    <glyph glyph-name="three" unicode="3" horiz-adv-x="528" 
d="M517 660l-2 -12l-243 -244q81 -4 134 -58.5t53 -131.5q0 -95 -67 -159.5t-166 -64.5q-145 0 -210 143l27 14q57 -129 184 -129q86 0 143 56t57 140q0 74 -51.5 118.5t-137.5 44.5h-24l2 12l239 243h-315l5 28h372z" />
    <glyph glyph-name="four" unicode="4" horiz-adv-x="524" 
d="M482 162l-5 -28h-104l-24 -134h-32l24 134h-334l2 12l316 514h33l-306 -498h293l45 253h32l-45 -253h105z" />
    <glyph glyph-name="five" unicode="5" horiz-adv-x="547" 
d="M521 632h-306l-40 -233q5 0 39 2l46 1q103 0 161 -49.5t58 -137.5q0 -98 -65.5 -161.5t-165.5 -63.5q-147 0 -213 143l27 14q62 -129 185 -129q88 0 144 55t56 141q0 75 -49 117.5t-136 42.5h-124l50 286h338z" />
    <glyph glyph-name="six" unicode="6" horiz-adv-x="542" 
d="M476 209q0 -90 -65.5 -154.5t-156.5 -64.5q-86 0 -144 57.5t-58 142.5q0 53 21.5 95.5t94.5 133.5l195 241h40l-230 -280q46 28 102 28q86 0 143.5 -57t57.5 -142zM444 208q0 73 -48.5 122.5t-120.5 49.5q-79 0 -135 -56t-56 -136q0 -73 48.5 -121.5t121.5 -48.5
q80 0 135 55t55 135z" />
    <glyph glyph-name="seven" unicode="7" horiz-adv-x="482" 
d="M106 660h423l-2 -12l-475 -648h-34l463 632h-380z" />
    <glyph glyph-name="eight" unicode="8" horiz-adv-x="568" 
d="M490 171q0 -77 -63.5 -129t-159.5 -52q-98 0 -158 46.5t-60 121.5q0 69 57 120t159 73q-123 61 -123 153q0 69 56 116t138 47q83 0 133 -40.5t50 -107.5q0 -130 -181 -174q152 -71 152 -174zM304 363q183 46 183 152q0 56 -42 90t-110 34t-114.5 -38.5t-46.5 -95.5
q0 -41 30 -74t100 -68zM458 173q0 45 -35 80q-37 37 -124 79q-218 -47 -218 -172q0 -65 50.5 -103.5t135.5 -38.5q83 0 137 43.5t54 111.5z" />
    <glyph glyph-name="nine" unicode="9" horiz-adv-x="542" 
d="M522 470q0 -53 -21.5 -95.5t-94.5 -133.5l-195 -241h-40l230 280q-46 -28 -102 -28q-86 0 -143.5 57t-57.5 142q0 90 65.5 154.5t156.5 64.5q86 0 144 -57.5t58 -142.5zM490 472q0 74 -48 122t-122 48q-80 0 -135 -55t-55 -135q0 -73 48.5 -122.5t120.5 -49.5
q79 0 135 56t56 136z" />
    <glyph glyph-name="colon" unicode=":" horiz-adv-x="280" 
d="M137 442q0 18 11.5 29t26.5 11q16 0 28 -11t12 -29q0 -17 -12 -27.5t-28 -10.5t-27 10.5t-11 27.5zM64 28q0 18 11 29t27 11t28 -11t12 -29q0 -17 -12 -27.5t-28 -10.5t-27 10.5t-11 27.5z" />
    <glyph glyph-name="semicolon" unicode=";" horiz-adv-x="280" 
d="M137 442q0 18 11.5 29t26.5 11q16 0 28 -11t12 -29q0 -17 -12 -27.5t-28 -10.5t-27 10.5t-11 27.5zM33 -180l62 243h40l-74 -243h-28z" />
    <glyph glyph-name="less" unicode="&#x3c;" 
d="M524 490l-5 -32l-387 -149l334 -149l-5 -30l-387 174l2 12z" />
    <glyph glyph-name="equal" unicode="=" 
d="M103 395l5 28h407l-5 -28h-407zM68 194l5 28h407l-5 -28h-407z" />
    <glyph glyph-name="greater" unicode="&#x3e;" 
d="M124 490l387 -174l-2 -12l-447 -174l6 33l383 148l-332 150z" />
    <glyph glyph-name="question" unicode="?" horiz-adv-x="440" 
d="M278 354q82 73 102 100.5t22 72.5q0 53 -31 84t-84 31q-92 0 -143 -100l-26 13q28 54 73 84.5t99 30.5q64 0 104 -38.5t40 -100.5q-2 -52 -26 -86.5t-112 -113.5q-50 -44 -66 -74t-24 -75h-30q8 50 28 88q21 38 74 84zM138 29q0 17 11.5 28t27.5 11t27.5 -11t11.5 -28
t-11.5 -28t-27.5 -11t-27.5 11t-11.5 28z" />
    <glyph glyph-name="at" unicode="@" horiz-adv-x="904" 
d="M854 307q0 -122 -70 -196.5t-186 -74.5h-23l16 90q-25 -40 -69.5 -64t-97.5 -24q-78 0 -130.5 54t-52.5 136q0 92 65.5 157.5t157.5 65.5q58 0 103.5 -30t61.5 -77l17 98h30l-67 -379q96 0 154.5 67.5t58.5 175.5q2 135 -94 224.5t-241 87.5q-105 2 -197 -51.5t-146 -145
t-52 -196.5q-2 -140 104.5 -240.5t254.5 -97.5q67 0 125 21l8 -25q-60 -24 -137 -24q-161 -3 -275.5 105t-111.5 260q-2 112 56 210.5t157.5 156t212.5 55.5q157 2 263.5 -96t104.5 -243zM615 272q0 67 -42.5 109t-110.5 42q-77 0 -133 -57t-56 -136q0 -71 45.5 -118
t113.5 -47q76 0 129.5 61t53.5 146z" />
    <glyph glyph-name="A" unicode="A" horiz-adv-x="666" 
d="M552 0l-43 176h-362l-103 -176h-36l398 670h15l162 -670h-31zM503 204l-99 407l-241 -407h340z" />
    <glyph glyph-name="B" unicode="B" horiz-adv-x="610" 
d="M549 195q0 -86 -64 -140.5t-166 -54.5h-258l116 660h201q76 0 118.5 -38t42.5 -105q0 -57 -30.5 -98.5t-84.5 -58.5q58 -16 91.5 -59.5t33.5 -105.5zM204 632l-45 -259h195q68 0 110 39.5t42 103.5q0 56 -34.5 86t-98.5 30h-169zM516 195q0 67 -43.5 107.5t-115.5 40.5
h-204l-55 -315h221q87 0 142 46.5t55 120.5z" />
    <glyph glyph-name="C" unicode="C" horiz-adv-x="709" 
d="M74 303q-3 146 108 258t256 109q82 0 148.5 -37t106.5 -105l-26 -18q-80 130 -231 130q-131 3 -231 -99.5t-97 -236.5q-2 -121 78 -203.5t198 -80.5q144 0 243 107l22 -20q-51 -56 -121.5 -86.5t-145.5 -30.5q-130 -2 -220 89t-88 224z" />
    <glyph glyph-name="D" unicode="D" horiz-adv-x="701" 
d="M61 0l116 660h149q149 0 241 -83t92 -219q2 -157 -110.5 -258.5t-286.5 -99.5h-201zM98 27h166q158 -2 260.5 92t100.5 239q0 124 -82 199t-219 75h-120z" />
    <glyph glyph-name="E" unicode="E" horiz-adv-x="562" 
d="M61 0l116 660h406l-5 -28h-374l-46 -259h294l-4 -28h-294l-56 -317h386l-5 -28h-418z" />
    <glyph glyph-name="F" unicode="F" horiz-adv-x="514" 
d="M61 0l116 660h396l-5 -28h-364l-49 -278h304l-5 -28h-304l-57 -326h-32z" />
    <glyph glyph-name="G" unicode="G" horiz-adv-x="749" 
d="M74 303q-2 95 48.5 181t135.5 137t179 49q81 0 148 -37t109 -105l-26 -18q-38 62 -98.5 96t-134.5 34q-131 3 -230.5 -99.5t-96.5 -236.5q-2 -121 78 -203.5t198 -80.5q72 0 137 31.5t113 88.5l26 147h-258l5 28h290l-32 -183q-49 -66 -125 -104t-159 -38
q-130 -2 -219.5 90t-87.5 223z" />
    <glyph glyph-name="H" unicode="H" horiz-adv-x="704" 
d="M61 0l116 660h32l-50 -287h434l50 287h32l-116 -660h-32l60 345h-434l-60 -345h-32z" />
    <glyph glyph-name="I" unicode="I" horiz-adv-x="238" 
d="M61 0l116 660h32l-116 -660h-32z" />
    <glyph glyph-name="J" unicode="J" horiz-adv-x="362" 
d="M-11 5l5 28q51 -13 89 -13q106 0 125 110l93 530h32l-94 -532q-24 -138 -155 -138q-46 0 -95 15z" />
    <glyph glyph-name="K" unicode="K" horiz-adv-x="598" 
d="M177 660h32l-116 -660h-32zM610 660l-393 -303l299 -357h-39l-302 359l387 301h48z" />
    <glyph glyph-name="L" unicode="L" horiz-adv-x="493" 
d="M61 0l116 660h32l-111 -632h334l-5 -28h-366z" />
    <glyph glyph-name="M" unicode="M" horiz-adv-x="782" 
d="M740 670h15l-118 -670h-32l102 582l-310 -361h-15l-186 368l-103 -589h-32l118 670h15l202 -404z" />
    <glyph glyph-name="N" unicode="N" horiz-adv-x="704" 
d="M643 660h32l-118 -670h-15l-345 609l-104 -599h-32l118 670h15l344 -613z" />
    <glyph glyph-name="O" unicode="O" horiz-adv-x="784" 
d="M74 304q-2 96 48 181.5t134.5 136t179.5 48.5q130 2 219 -89t87 -224q4 -147 -106.5 -258.5t-255.5 -108.5q-129 -2 -218.5 90t-87.5 224zM708 357q2 119 -77.5 201.5t-195.5 80.5q-132 2 -231 -99t-96 -236q-2 -120 77.5 -202.5t195.5 -80.5q130 -3 229.5 99.5
t97.5 236.5z" />
    <glyph glyph-name="P" unicode="P" 
d="M61 0l116 660h199q84 0 133 -43t49 -117q0 -85 -60 -137t-157 -52h-193l-55 -311h-32zM153 339h186q85 0 135 43.5t50 117.5q0 64 -39.5 98t-114.5 34h-166z" />
    <glyph glyph-name="Q" unicode="Q" horiz-adv-x="785" 
d="M942 -157l-4 -26q-38 -7 -85 -7q-105 0 -199 42t-161 157q-56 -19 -113 -19q-130 -2 -219 90.5t-87 223.5q-2 96 48.5 181.5t135.5 136t178 48.5q130 2 219 -90t87 -223q0 -111 -62 -203q-61 -90 -159 -134q68 -108 155 -143q87 -37 196 -37q25 0 70 3zM381 20
q131 -3 230.5 100t96.5 237q0 121 -77 202t-196 81q-132 3 -231 -99t-96 -237q-2 -119 77 -202.5t196 -81.5z" />
    <glyph glyph-name="R" unicode="R" horiz-adv-x="608" 
d="M360 312l183 -312h-37l-182 311h-176l-55 -311h-32l116 660h199q85 0 133.5 -42.5t48.5 -117.5q0 -80 -54 -131.5t-144 -56.5zM204 632l-51 -293h186q85 0 135 43.5t50 117.5q0 64 -39.5 98t-114.5 34h-166z" />
    <glyph glyph-name="S" unicode="S" horiz-adv-x="555" 
d="M32 145l29 14q75 -139 211 -139q72 0 117 39.5t45 103.5q0 42 -24.5 75.5t-81.5 67.5l-73 44q-118 71 -118 157q0 70 54 116.5t135 46.5q132 0 198 -113l-26 -16q-64 99 -172 99q-69 0 -112 -36.5t-43 -94.5q0 -39 24 -69.5t81 -65.5l69 -42q63 -39 93 -79t30 -89
q0 -75 -56.5 -124.5t-141.5 -49.5q-157 0 -238 155z" />
    <glyph glyph-name="T" unicode="T" horiz-adv-x="584" 
d="M234 0l111 632h-249l5 28h530l-5 -28h-249l-111 -632h-32z" />
    <glyph glyph-name="U" unicode="U" horiz-adv-x="679" 
d="M93 211q0 25 5 57l68 392h32l-69 -395q-4 -20 -4 -51q0 -86 55.5 -140t143.5 -54t149 55q62 55 79 147l75 438h32l-76 -441q-18 -105 -89 -167t-170 -62q-101 0 -166 62t-65 159z" />
    <glyph glyph-name="V" unicode="V" horiz-adv-x="666" 
d="M654 660h36l-398 -670h-15l-162 670h31l148 -611z" />
    <glyph glyph-name="W" unicode="W" horiz-adv-x="1077" 
d="M1052 660h34l-357 -670h-15l-121 613l-336 -613h-15l-123 670h31l109 -608l337 618h15l120 -615z" />
    <glyph glyph-name="X" unicode="X" horiz-adv-x="578" 
d="M595 660l-269 -324l170 -336h-34l-158 313l-268 -313h-39l291 341l-158 319h34l146 -297l246 297h39z" />
    <glyph glyph-name="Y" unicode="Y" horiz-adv-x="610" 
d="M619 660l-296 -375l-50 -285h-32l50 287l-164 373h31l152 -346l272 346h37z" />
    <glyph glyph-name="Z" unicode="Z" horiz-adv-x="590" 
d="M623 660l-2 -12l-568 -620h460l-5 -28h-508l2 12l568 620h-415l5 28h463z" />
    <glyph glyph-name="bracketleft" unicode="[" horiz-adv-x="337" 
d="M48 -131l150 860h164l-4 -28h-134l-141 -804h134l-5 -28h-164z" />
    <glyph glyph-name="backslash" unicode="\" horiz-adv-x="579" 
d="M472 -121l-366 901h31l367 -901h-32z" />
    <glyph glyph-name="bracketright" unicode="]" horiz-adv-x="337" 
d="M-5 -131l5 28h135l141 804h-135l5 28h165l-151 -860h-165z" />
    <glyph glyph-name="asciicircum" unicode="^" horiz-adv-x="493" 
d="M78 292l236 378h15l104 -378h-31l-88 321l-201 -321h-35z" />
    <glyph glyph-name="underscore" unicode="_" horiz-adv-x="500" 
d="M-12 -112l5 28h400l-5 -28h-400z" />
    <glyph glyph-name="grave" unicode="`" horiz-adv-x="500" 
d="M331 562l-34 213l2 5h33l22 -218h-23z" />
    <glyph glyph-name="a" unicode="a" horiz-adv-x="632" 
d="M544 480h30l-85 -480h-30l17 95q-30 -49 -83 -77t-116 -28q-92 0 -156 67.5t-64 165.5q-2 108 76 188.5t184 78.5q72 0 129 -39q56 -38 76 -98zM317 462q-91 2 -160.5 -71t-67.5 -167q0 -88 55 -147t138 -59q89 -2 157 74.5t66 176.5q0 87 -52 139q-51 54 -136 54z" />
    <glyph glyph-name="b" unicode="b" horiz-adv-x="631" 
d="M574 258q2 -111 -74 -190.5t-182 -77.5q-71 0 -130 38q-58 40 -77 97l-22 -125h-30l131 750h30l-65 -368q29 50 82 79t115 29q95 0 158.5 -66t63.5 -166zM542 257q0 90 -54 147.5t-139 57.5q-91 2 -158 -75.5t-65 -183.5q0 -79 54.5 -132t137.5 -53q92 0 158 70.5
t66 168.5z" />
    <glyph glyph-name="c" unicode="c" horiz-adv-x="555" 
d="M58 226q-2 107 76.5 186.5t184.5 77.5q130 0 194 -100l-24 -17q-57 88 -169 88q-94 2 -163 -68t-67 -165q0 -90 57 -149.5t144 -59.5q101 0 169 74l20 -19q-72 -84 -188 -84q-100 0 -167 67.5t-67 168.5z" />
    <glyph glyph-name="d" unicode="d" horiz-adv-x="632" 
d="M592 750h30l-132 -750h-30l17 94q-30 -48 -83 -76t-116 -28q-95 0 -157.5 66.5t-62.5 169.5q-2 109 75.5 187.5t183.5 76.5q72 0 129 -38t76 -98zM506 273q0 83 -53.5 136t-136.5 53q-92 0 -159 -69.5t-67 -166.5q0 -93 54 -150.5t138 -57.5q90 -3 158 76.5t66 178.5z
" />
    <glyph glyph-name="e" unicode="e" horiz-adv-x="565" 
d="M506 237h-416v-11q0 -91 56 -149.5t144 -58.5q102 0 171 75l19 -19q-76 -84 -191 -84q-99 0 -165 67t-66 168q-2 107 75 187t179 78q88 0 145 -55.5t57 -140.5q0 -33 -8 -57zM93 265h388q1 7 1 28q0 75 -47 122t-123 47q-82 0 -144.5 -56.5t-74.5 -140.5z" />
    <glyph glyph-name="f" unicode="f" horiz-adv-x="271" 
d="M379 749l-5 -25q-37 8 -58 8q-95 0 -115 -108l-25 -144h131l-5 -28h-131l-91 -516q-10 -60 -47 -93t-93 -33q-27 0 -66 11l5 25q37 -8 58 -8q95 0 115 108l89 506h-70l5 28h70l27 154q10 60 47 93t93 33q27 0 66 -11z" />
    <glyph glyph-name="g" unicode="g" horiz-adv-x="631" 
d="M542 480h30l-79 -458q-17 -98 -83.5 -155t-164.5 -57q-68 0 -127 30t-92 82l25 18q30 -48 81.5 -75t113.5 -27q86 0 143.5 49.5t73.5 137.5l14 76q-30 -46 -84.5 -73.5t-117.5 -27.5q-93 0 -155.5 63t-62.5 158q-1 112 77.5 191.5t187.5 77.5q70 0 126 -38q55 -37 73 -97
zM505 273q0 83 -52 136t-133 53q-94 0 -162.5 -71t-68.5 -169q0 -84 55 -139t138 -55q92 0 157.5 72t65.5 173z" />
    <glyph glyph-name="h" unicode="h" horiz-adv-x="551" 
d="M474 338q0 -24 -6 -54l-49 -284h-30l50 288q6 30 6 50q0 55 -37 89.5t-96 34.5q-62 0 -109 -40.5t-59 -107.5l-55 -314h-30l131 750h30l-59 -335q58 75 153 75q71 0 115.5 -42t44.5 -110z" />
    <glyph glyph-name="i" unicode="i" horiz-adv-x="230" 
d="M58 0l84 480h30l-84 -480h-30zM157 666q0 14 10 24t24 10t24 -10t10 -24t-10 -24t-24 -10t-24 10t-10 24z" />
    <glyph glyph-name="j" unicode="j" horiz-adv-x="231" 
d="M-128 -179l5 26q30 -9 61 -9q93 0 109 97l96 545h30l-96 -548q-22 -122 -140 -122q-34 0 -65 11zM157 666q0 14 10 24t24 10t24 -10t10 -24t-10 -24t-24 -10t-24 10t-10 24z" />
    <glyph glyph-name="k" unicode="k" horiz-adv-x="462" 
d="M190 750h30l-132 -750h-30zM469 480l-274 -218l205 -262h-37l-210 265l271 215h45z" />
    <glyph glyph-name="l" unicode="l" horiz-adv-x="230" 
d="M58 0l132 750h30l-132 -750h-30z" />
    <glyph glyph-name="m" unicode="m" horiz-adv-x="861" 
d="M785 338q0 -12 -6 -54l-51 -284h-30l52 288q5 32 5 44q0 58 -34.5 94t-91.5 36q-60 0 -106 -41t-58 -107l-57 -314h-30l52 288q5 32 5 44q0 59 -34.5 94.5t-91.5 35.5q-61 0 -106 -40t-58 -108l-57 -314h-30l85 480h30l-11 -64q56 74 149 74q57 0 96 -30t51 -81
q24 52 69.5 81.5t102.5 29.5q70 0 112.5 -42t42.5 -110z" />
    <glyph glyph-name="n" unicode="n" horiz-adv-x="551" 
d="M475 338q0 -12 -6 -54l-51 -284h-30l52 288q5 32 5 46q0 57 -36 92.5t-96 35.5q-64 0 -109.5 -40t-58.5 -108l-57 -314h-30l85 480h30l-11 -66q57 76 153 76q72 0 116 -42.5t44 -109.5z" />
    <glyph glyph-name="o" unicode="o" horiz-adv-x="610" 
d="M58 226q-2 107 77 186.5t185 77.5q99 0 166 -67.5t67 -167.5q2 -107 -78 -187t-186 -78q-99 0 -165 67.5t-66 168.5zM521 254q0 88 -58 147.5t-144 59.5q-95 0 -162 -69t-67 -166q0 -90 56.5 -148.5t143.5 -58.5q95 0 163 69t68 166z" />
    <glyph glyph-name="p" unicode="p" horiz-adv-x="630" 
d="M573 262q0 -115 -74.5 -193.5t-181.5 -78.5q-71 0 -130 38q-57 38 -77 98l-54 -306h-30l117 660h30l-17 -95q30 49 83 77t116 28q94 0 156 -65t62 -163zM350 461q-92 2 -159.5 -76.5t-65.5 -184.5q0 -78 54.5 -129.5t137.5 -51.5q94 0 159 70.5t65 171.5q0 88 -53 144
t-138 56z" />
    <glyph glyph-name="q" unicode="q" horiz-adv-x="631" 
d="M543 480h30l-116 -660h-30l49 275q-30 -49 -83 -77t-116 -28q-93 0 -156.5 65t-63.5 162q-2 117 74.5 196t184.5 77q73 0 129 -37q57 -37 76 -94zM506 278q0 83 -53 133.5t-138 50.5q-96 0 -161 -69t-65 -176q0 -86 55 -142.5t138 -56.5q93 0 158.5 76t65.5 184z" />
    <glyph glyph-name="r" unicode="r" horiz-adv-x="341" 
d="M365 476l-4 -24q-24 3 -38 3q-67 0 -119 -41q-51 -42 -61 -104l-55 -310h-30l85 480h30l-13 -72q59 74 161 74q25 0 44 -6z" />
    <glyph glyph-name="s" unicode="s" horiz-adv-x="455" 
d="M40 101l26 17q54 -100 154 -100q53 0 88.5 28t35.5 70q0 30 -22 52.5t-78 52.5l-41 22q-54 29 -77 58t-23 68q0 52 41.5 86.5t104.5 34.5q93 0 148 -80l-23 -19q-53 71 -126 71q-50 0 -81.5 -26t-31.5 -66q0 -31 19 -53.5t67 -48.5l43 -23q59 -32 85.5 -61.5t26.5 -68.5
q0 -55 -44.5 -90t-113.5 -35q-117 0 -178 111z" />
    <glyph glyph-name="t" unicode="t" horiz-adv-x="350" 
d="M184 452l-56 -318q-3 -16 -3 -30q0 -86 114 -86q17 0 47 3l-5 -26q-22 -5 -48 -5q-67 0 -102.5 28.5t-35.5 82.5q0 19 3 35l56 316h-86l4 28h87l25 140h30l-25 -140h159l-4 -28h-160z" />
    <glyph glyph-name="u" unicode="u" horiz-adv-x="541" 
d="M78 151q0 21 3 38l51 291h30l-52 -294q-3 -17 -3 -34q0 -59 39 -96.5t102 -37.5q59 0 103 38.5t55 102.5l57 321h30l-57 -323q-13 -75 -67 -121q-52 -46 -124 -46q-73 0 -120 45t-47 116z" />
    <glyph glyph-name="v" unicode="v" horiz-adv-x="520" 
d="M483 480h35l-300 -490h-15l-132 490h32l116 -437z" />
    <glyph glyph-name="w" unicode="w" horiz-adv-x="842" 
d="M807 480h33l-269 -490h-15l-109 439l-260 -439h-15l-101 490h32l86 -432l259 442h15l107 -445z" />
    <glyph glyph-name="x" unicode="x" horiz-adv-x="467" 
d="M467 480l-212 -236l140 -244h-34l-129 223l-204 -223h-40l229 249l-133 231h34l121 -212l188 212h40z" />
    <glyph glyph-name="y" unicode="y" horiz-adv-x="552" 
d="M464 480h30l-87 -492q-14 -82 -68 -130t-131 -48q-58 0 -107 29t-78 82l25 17q56 -100 161 -100q65 0 110 40.5t58 111.5l13 74q-56 -74 -152 -74q-71 0 -115.5 42t-44.5 110q0 12 6 54l50 284h30l-51 -288q-5 -32 -5 -44q0 -58 36 -94t96 -36q64 0 109.5 40t58.5 108z
" />
    <glyph glyph-name="z" unicode="z" horiz-adv-x="447" 
d="M447 480l-2 -12l-396 -440h324l-5 -28h-372l2 12l396 440h-296l5 28h344z" />
    <glyph glyph-name="braceleft" unicode="{" horiz-adv-x="393" 
d="M369 729h49l-5 -28h-45q-65 0 -94 -43t-29 -137v-74q0 -79 -17.5 -112t-62.5 -38q50 -15 50 -65q0 -28 -34 -117q-39 -105 -39 -139q0 -79 86 -79h45l-4 -27h-42q-56 0 -86 26.5t-30 76.5q0 46 42 152q32 79 32 105q0 55 -60 55h-56l5 28h56q50 0 67.5 27t17.5 107v74
q0 110 36 159t118 49z" />
    <glyph glyph-name="bar" unicode="|" horiz-adv-x="332" 
d="M167 -121v901h30v-901h-30z" />
    <glyph glyph-name="braceright" unicode="}" horiz-adv-x="393" 
d="M289 313h56l-5 -28h-56q-50 0 -67.5 -27t-17.5 -107v-74q0 -110 -36.5 -159t-118.5 -49h-48l5 28h45q65 0 94 43t29 137v74q0 79 17.5 112t62.5 38q-50 15 -50 65q0 28 34 117q39 105 39 139q0 79 -86 79h-45l4 27h42q56 0 86 -26.5t30 -76.5t-42 -152q-32 -79 -32 -105
q0 -55 60 -55z" />
    <glyph glyph-name="asciitilde" unicode="~" 
d="M324 269l-87 58q-42 29 -66 29q-45 0 -52 -75h-29q9 103 80 103q22 0 38 -7.5t51 -30.5l87 -58q42 -29 66 -29q45 0 52 75h29q-9 -103 -80 -103q-22 0 -38 7.5t-51 30.5z" />
    <glyph glyph-name="uni00A0" unicode="&#xa0;" horiz-adv-x="280" 
 />
    <glyph glyph-name="exclamdown" unicode="&#xa1;" horiz-adv-x="271" 
d="M134 452q0 17 12 27.5t28 10.5t27 -10.5t11 -27.5q0 -18 -11 -29t-27 -11t-28 11.5t-12 28.5zM44 -180l88 478h28l-77 -478h-39z" />
    <glyph glyph-name="cent" unicode="&#xa2;" horiz-adv-x="554" 
d="M344 548l-56 -440q100 2 170 76l20 -19q-37 -41 -89 -64t-105 -21l-22 -171h-31l22 174q-90 12 -145.5 76.5t-55.5 154.5q-2 107 78.5 186.5t186.5 77.5l22 173h31l-23 -175q109 -13 165 -100l-25 -16q-53 77 -143 88zM257 110l56 440q-93 0 -161 -69.5t-68 -164.5
q0 -81 49 -139t124 -67z" />
    <glyph glyph-name="sterling" unicode="&#xa3;" horiz-adv-x="494" 
d="M504 505l-33 -7q-9 68 -45.5 105t-94.5 37q-65 0 -107 -44q-41 -44 -41 -112q0 -37 23 -111q17 -54 22 -86h162l-5 -28h-154q1 -5 1 -21q0 -67 -31 -121.5t-87 -88.5h296l-5 -28h-379l2 12q172 75 172 222q0 20 -1 25h-117l5 28h108q-5 29 -21 77q-25 77 -25 120
q0 80 51.5 133t129.5 53q71 0 117.5 -44t56.5 -121z" />
    <glyph glyph-name="currency" unicode="&#xa4;" horiz-adv-x="667" 
d="M512 155l110 -120l-20 -19l-110 121q-70 -56 -160 -56q-101 0 -168 69l-138 -134l-20 21l140 134q-50 65 -50 150q0 112 81 188l-101 116l20 18l102 -116q69 52 155 52q103 0 172 -72l145 136l20 -21l-146 -136q47 -65 47 -145q0 -107 -79 -186zM332 110q91 -2 160 68
t67 162q0 89 -59.5 149.5t-146.5 60.5q-94 0 -159.5 -67t-65.5 -162q0 -90 59 -150.5t145 -60.5z" />
    <glyph glyph-name="yen" unicode="&#xa5;" horiz-adv-x="516" 
d="M578 660l-286 -321h207l-5 -28h-207l-22 -121h208l-5 -28h-208l-28 -162h-32l28 162h-205l5 28h205l22 121h-206l5 28h206v1l-174 320h32l161 -295l260 295h39z" />
    <glyph glyph-name="brokenbar" unicode="&#xa6;" horiz-adv-x="332" 
d="M167 480v300h30v-300h-30zM167 -121v300h30v-300h-30z" />
    <glyph glyph-name="section" unicode="&#xa7;" horiz-adv-x="546" 
d="M491 182q0 -56 -41 -92.5t-108 -40.5q3 -12 3 -26q0 -54 -41.5 -92.5t-100.5 -38.5q-43 0 -80.5 22.5t-61.5 63.5l24 17q45 -75 119 -75q46 0 77.5 29t31.5 73q0 55 -66 118l-93 91q-84 81 -84 148q0 56 41 93t107 41q-3 12 -3 26q0 54 41.5 92.5t100.5 38.5
q43 0 80.5 -22.5t61.5 -63.5l-24 -17q-45 75 -119 75q-46 0 -77.5 -29t-31.5 -73q0 -55 66 -118l93 -91q85 -84 85 -149zM459 181q0 54 -71 125l-99 97q-45 44 -62 82q-57 -3 -91 -31t-34 -73q0 -56 70 -125l99 -97q45 -43 62 -82q57 3 91.5 31t34.5 73z" />
    <glyph glyph-name="dieresis" unicode="&#xa8;" horiz-adv-x="500" 
d="M191 666q0 14 10 24t24 10t24 -10t10 -24t-10 -24t-24 -10t-24 10t-10 24zM392 666q0 14 10 24t24 10t24 -10t10 -24t-10 -24t-24 -10t-24 10t-10 24z" />
    <glyph glyph-name="copyright" unicode="&#xa9;" horiz-adv-x="793" 
d="M76 316q-3 139 105.5 248t246.5 106q130 2 226.5 -96t94.5 -230q3 -139 -105.5 -248t-246.5 -106q-131 -2 -227 96t-94 230zM718 344q2 121 -85.5 210.5t-205.5 87.5q-128 2 -225.5 -97t-94.5 -229q-2 -121 85 -210.5t206 -87.5q128 -2 225.5 97t94.5 229zM217 320
q0 86 62.5 148t148.5 62q99 0 154 -84l-23 -17q-48 73 -133 73q-74 0 -125.5 -53.5t-51.5 -130.5q0 -67 46 -113.5t112 -46.5q77 0 132 60l19 -18q-62 -70 -153 -70q-79 0 -133.5 55t-54.5 135z" />
    <glyph glyph-name="ordfeminine" unicode="&#xaa;" horiz-adv-x="422" 
d="M372 546h29l-53 -302h-29l10 57q-18 -29 -50.5 -46.5t-71.5 -17.5q-59 0 -98 41q-39 42 -39 104q0 71 49 121.5t118 50.5q44 0 77 -22.5t45 -58.5zM346 415q0 49 -30 79.5t-79 30.5q-55 0 -95.5 -41.5t-40.5 -99.5q0 -52 32 -85.5t82 -33.5q54 0 92.5 44t38.5 106z" />
    <glyph glyph-name="guillemotleft" unicode="&#xab;" horiz-adv-x="426" 
d="M183 91l-133 172l2 12l191 172l20 -22l-174 -159l118 -158zM332 91l-133 172l2 12l191 172l20 -22l-174 -159l118 -158z" />
    <glyph glyph-name="logicalnot" unicode="&#xac;" 
d="M406 89l37 206h-367l5 28h397l-42 -234h-30z" />
    <glyph glyph-name="uni00AD" unicode="&#xad;" horiz-adv-x="340" 
d="M70 295l5 28h220l-5 -28h-220z" />
    <glyph glyph-name="registered" unicode="&#xae;" horiz-adv-x="570" 
d="M553 445q2 -95 -72.5 -169t-171.5 -72q-92 0 -157.5 65t-65.5 157q-2 95 72.5 169t171.5 72q92 0 157.5 -65t65.5 -157zM524 446q0 81 -56 137t-138 56q-88 0 -151.5 -63t-63.5 -150q0 -82 56 -138t137 -56q86 -2 152 63.5t64 150.5zM360 418l65 -108h-36l-62 104h-63
l-18 -104h-30l43 251h93q31 0 51 -19.5t20 -50.5q0 -59 -63 -73zM284 534l-16 -93h62q29 0 45.5 13t16.5 36q0 20 -12 32t-34 12h-62z" />
    <glyph glyph-name="overscore" unicode="&#xaf;" horiz-adv-x="500" 
d="M197 653l5 28h252l-5 -28h-252z" />
    <glyph glyph-name="degree" unicode="&#xb0;" horiz-adv-x="361" 
d="M88 525q0 59 43.5 102t103.5 43q58 0 98.5 -40.5t40.5 -96.5q0 -59 -43.5 -102t-104.5 -43q-58 0 -98 39.5t-40 97.5zM341 533q0 46 -30.5 77.5t-74.5 31.5q-46 0 -81 -35q-34 -34 -34 -82q0 -46 30.5 -77.5t75.5 -31.5q47 0 80 34q34 34 34 83z" />
    <glyph glyph-name="plusminus" unicode="&#xb1;" 
d="M244 121l33 189h-189l5 28h189l34 189h30l-34 -189h188l-5 -28h-188l-33 -189h-30zM34 0l5 28h407l-5 -28h-407z" />
    <glyph glyph-name="uni00B2" unicode="&#xb2;" horiz-adv-x="359" 
d="M258 499l-131 -107h218l-5 -28h-281l2 9l179 147q100 81 100 151q0 40 -24 63.5t-64 23.5q-45 0 -73.5 -32t-28.5 -82q0 -15 1 -19h-31q-1 3 -1 20q0 61 38 101t96 40q53 0 86 -31t33 -82q0 -43 -26.5 -83.5t-87.5 -90.5z" />
    <glyph glyph-name="uni00B3" unicode="&#xb3;" horiz-adv-x="351" 
d="M385 780l-2 -10l-144 -150q48 -6 78.5 -39.5t30.5 -80.5q0 -61 -43 -101.5t-106 -40.5q-95 0 -136 92l25 14q34 -79 111 -79q51 0 84 32t33 82q0 44 -30 70t-82 26h-20l2 10l141 147h-187l5 28h240z" />
    <glyph glyph-name="acute" unicode="&#xb4;" horiz-adv-x="500" 
d="M238 562l134 218h40v-5l-145 -213h-29z" />
    <glyph glyph-name="uni00B5" unicode="&#xb5;" horiz-adv-x="578" 
d="M515 21l-5 -26q-12 -4 -29 -4q-34 0 -55.5 21t-21.5 59q-56 -81 -157 -81q-53 0 -91.5 24t-53.5 65l-46 -259h-30l117 660h30l-51 -288q-5 -32 -5 -44q0 -59 36 -94.5t96 -35.5q63 0 109.5 40.5t58.5 107.5l56 314h30l-64 -362q-5 -32 -5 -46q0 -53 53 -53q6 0 28 2z" />
    <glyph glyph-name="paragraph" unicode="&#xb6;" horiz-adv-x="621" 
d="M87 457q0 90 64.5 146.5t165.5 56.5h61v-410h-61q-100 0 -165 58.5t-65 148.5zM256 -180v28q43 -9 67 -9q111 0 111 118v703h30v-703q0 -147 -138 -147q-34 0 -70 10z" />
    <glyph glyph-name="middot" unicode="&#xb7;" horiz-adv-x="281" 
d="M114 308q0 18 11 29t27 11t28 -11t12 -29q0 -17 -12 -27.5t-28 -10.5t-27 10.5t-11 27.5z" />
    <glyph glyph-name="cedilla" unicode="&#xb8;" horiz-adv-x="500" 
d="M88 -176l5 26q46 -11 66 -11q41 0 66 23.5t25 61.5q0 39 -40 76l14 10q57 -31 57 -90q0 -46 -35 -78t-84 -32q-34 0 -74 14z" />
    <glyph glyph-name="uni00B9" unicode="&#xb9;" horiz-adv-x="341" 
d="M74 364l5 28h111l63 360h-112l5 28h142l-68 -388h101l-5 -28h-242z" />
    <glyph glyph-name="ordmasculine" unicode="&#xba;" horiz-adv-x="401" 
d="M70 387q0 68 50 117.5t118 49.5q62 0 105 -43t43 -106q0 -68 -50 -117.5t-119 -49.5q-63 0 -105 43t-42 106zM355 404q0 53 -34 87q-35 35 -84 35q-56 0 -95.5 -40.5t-39.5 -98.5q0 -52 33 -86.5t83 -34.5q56 0 96.5 41t40.5 97z" />
    <glyph glyph-name="guillemotright" unicode="&#xbb;" horiz-adv-x="427" 
d="M194 91l-20 22l174 159l-118 158l24 17l133 -172l-2 -12zM45 91l-20 22l174 159l-118 158l24 17l133 -172l-2 -12z" />
    <glyph glyph-name="onequarter" unicode="&#xbc;" horiz-adv-x="873" 
d="M53 244l5 28h111l63 360h-112l5 28h142l-68 -388h101l-5 -28h-242zM216 0l495 660h33l-495 -660h-33zM829 110l-5 -28h-65l-14 -82h-31l14 82h-209l2 10l194 324h34l-185 -306h169l27 151h31l-27 -151h65z" />
    <glyph glyph-name="onehalf" unicode="&#xbd;" horiz-adv-x="911" 
d="M53 244l5 28h111l63 360h-112l5 28h142l-68 -388h101l-5 -28h-242zM216 0l495 660h33l-495 -660h-33zM746 135l-131 -107h218l-5 -28h-281l2 9l179 147q100 81 100 151q0 40 -24 63.5t-64 23.5q-45 0 -73.5 -32t-28.5 -82q0 -15 1 -19h-31q-1 3 -1 20q0 61 38 101t96 40
q53 0 86 -31t33 -82q0 -43 -26.5 -83.5t-87.5 -90.5z" />
    <glyph glyph-name="threequarters" unicode="&#xbe;" horiz-adv-x="848" 
d="M364 660l-2 -10l-144 -150q48 -6 78.5 -39.5t30.5 -80.5q0 -61 -43 -101.5t-106 -40.5q-95 0 -136 92l25 14q34 -79 111 -79q51 0 84 32t33 82q0 44 -30 70t-82 26h-20l2 10l141 147h-187l5 28h240zM191 0l495 660h33l-495 -660h-33zM804 110l-5 -28h-65l-14 -82h-31
l14 82h-209l2 10l194 324h34l-185 -306h169l27 151h31l-27 -151h65z" />
    <glyph glyph-name="questiondown" unicode="&#xbf;" horiz-adv-x="440" 
d="M224 451q0 17 11.5 28t27.5 11t27.5 -11t11.5 -28t-11.5 -28t-27.5 -11t-27.5 11t-11.5 28zM6 -51q1 52 25.5 86.5t112.5 113.5q50 43 66 72q17 29 24 68h30q-6 -48 -27 -82q-21 -35 -75 -81q-82 -73 -102 -100.5t-22 -72.5q0 -53 31.5 -84t83.5 -31q92 0 143 100l26 -13
q-28 -55 -73 -85t-99 -30q-64 0 -104 38.5t-40 100.5z" />
    <glyph glyph-name="Agrave" unicode="&#xc0;" horiz-adv-x="666" 
d="M552 0l-43 176h-362l-103 -176h-36l398 670h15l162 -670h-31zM503 204l-99 407l-241 -407h340zM404 724l-74 181v5h36l63 -186h-25z" />
    <glyph glyph-name="Aacute" unicode="&#xc1;" horiz-adv-x="666" 
d="M552 0l-43 176h-362l-103 -176h-36l398 670h15l162 -670h-31zM503 204l-99 407l-241 -407h340zM400 724l126 186h40l-1 -5l-138 -181h-27z" />
    <glyph glyph-name="Acircumflex" unicode="&#xc2;" horiz-adv-x="666" 
d="M552 0l-43 176h-362l-103 -176h-36l398 670h15l162 -670h-31zM503 204l-99 407l-241 -407h340zM567 724h-25l-101 146l-151 -146h-30l179 186h15z" />
    <glyph glyph-name="Atilde" unicode="&#xc3;" horiz-adv-x="666" 
d="M552 0l-43 176h-362l-103 -176h-36l398 670h15l162 -670h-31zM503 204l-99 407l-241 -407h340zM435 783l-32 26q-27 21 -43 21q-20 0 -30.5 -15.5t-15.5 -50.5h-29q12 94 74 94q19 0 31 -6t32 -23l31 -26q25 -21 44 -21q20 0 30.5 15.5t15.5 50.5h29q-10 -94 -76 -94
q-26 0 -61 29z" />
    <glyph glyph-name="Adieresis" unicode="&#xc4;" horiz-adv-x="666" 
d="M552 0l-43 176h-362l-103 -176h-36l398 670h15l162 -670h-31zM503 204l-99 407l-241 -407h340zM284 806q0 14 10 24t24 10t24 -10t10 -24t-10 -24t-24 -10t-24 10t-10 24zM505 806q0 14 10 24t24 10t24 -10t10 -24t-10 -24t-24 -10t-24 10t-10 24z" />
    <glyph glyph-name="Aring" unicode="&#xc5;" horiz-adv-x="666" 
d="M552 0l-43 176h-362l-103 -176h-36l398 670h15l162 -670h-31zM503 204l-99 407l-241 -407h340zM333 809q0 41 30 71q32 30 74 30q40 0 67 -27t27 -65q0 -41 -31 -72q-30 -30 -73 -30q-39 0 -66.5 27t-27.5 66zM500 816q0 28 -18.5 47t-46.5 19q-29 0 -50 -21t-21 -51
q0 -28 18.5 -47t45.5 -19q30 0 51 21.5t21 50.5z" />
    <glyph glyph-name="AE" unicode="&#xc6;" horiz-adv-x="797" 
d="M812 632h-345l1 -259h219l-5 -28h-214l1 -317h250l-5 -28h-276v176h-302l-122 -176h-36l459 660h380zM438 204l-1 405l-281 -405h282z" />
    <glyph glyph-name="Ccedilla" unicode="&#xc7;" horiz-adv-x="709" 
d="M74 303q-3 146 108 258t256 109q82 0 148.5 -37t106.5 -105l-26 -18q-80 130 -231 130q-131 3 -231 -99.5t-97 -236.5q-2 -121 78 -203.5t198 -80.5q144 0 243 107l22 -20q-51 -56 -121.5 -86.5t-145.5 -30.5q-130 -2 -220 89t-88 224zM210 -176l5 26q46 -11 66 -11
q41 0 66 23.5t25 61.5q0 39 -40 76l14 10q57 -31 57 -90q0 -46 -35 -78t-84 -32q-34 0 -74 14z" />
    <glyph glyph-name="Egrave" unicode="&#xc8;" horiz-adv-x="562" 
d="M61 0l116 660h406l-5 -28h-374l-46 -259h294l-4 -28h-294l-56 -317h386l-5 -28h-418zM376 724l-74 181v5h36l63 -186h-25z" />
    <glyph glyph-name="Eacute" unicode="&#xc9;" horiz-adv-x="562" 
d="M61 0l116 660h406l-5 -28h-374l-46 -259h294l-4 -28h-294l-56 -317h386l-5 -28h-418zM372 724l126 186h40l-1 -5l-138 -181h-27z" />
    <glyph glyph-name="Ecircumflex" unicode="&#xca;" horiz-adv-x="562" 
d="M61 0l116 660h406l-5 -28h-374l-46 -259h294l-4 -28h-294l-56 -317h386l-5 -28h-418zM539 724h-25l-101 146l-151 -146h-30l179 186h15z" />
    <glyph glyph-name="Edieresis" unicode="&#xcb;" horiz-adv-x="562" 
d="M61 0l116 660h406l-5 -28h-374l-46 -259h294l-4 -28h-294l-56 -317h386l-5 -28h-418zM256 806q0 14 10 24t24 10t24 -10t10 -24t-10 -24t-24 -10t-24 10t-10 24zM477 806q0 14 10 24t24 10t24 -10t10 -24t-10 -24t-24 -10t-24 10t-10 24z" />
    <glyph glyph-name="Igrave" unicode="&#xcc;" horiz-adv-x="238" 
d="M61 0l116 660h32l-116 -660h-32zM194 724l-74 181v5h36l63 -186h-25z" />
    <glyph glyph-name="Iacute" unicode="&#xcd;" horiz-adv-x="238" 
d="M61 0l116 660h32l-116 -660h-32zM190 724l126 186h40l-1 -5l-138 -181h-27z" />
    <glyph glyph-name="Icircumflex" unicode="&#xce;" horiz-adv-x="238" 
d="M61 0l116 660h32l-116 -660h-32zM357 724h-25l-101 146l-151 -146h-30l179 186h15z" />
    <glyph glyph-name="Idieresis" unicode="&#xcf;" horiz-adv-x="238" 
d="M61 0l116 660h32l-116 -660h-32zM74 806q0 14 10 24t24 10t24 -10t10 -24t-10 -24t-24 -10t-24 10t-10 24zM295 806q0 14 10 24t24 10t24 -10t10 -24t-10 -24t-24 -10t-24 10t-10 24z" />
    <glyph glyph-name="Eth" unicode="&#xd0;" horiz-adv-x="701" 
d="M659 358q2 -157 -110.5 -258.5t-286.5 -99.5h-201l50 287h-103l5 28h103l61 345h149q149 0 241 -83t92 -219zM625 358q0 124 -82 199t-219 75h-120l-56 -317h151l-5 -28h-150l-46 -260h166q158 -2 260.5 92t100.5 239z" />
    <glyph glyph-name="Ntilde" unicode="&#xd1;" horiz-adv-x="704" 
d="M643 660h32l-118 -670h-15l-345 609l-104 -599h-32l118 670h15l344 -613zM458 783l-32 26q-27 21 -43 21q-20 0 -30.5 -15.5t-15.5 -50.5h-29q12 94 74 94q19 0 31 -6t32 -23l31 -26q26 -21 44 -21q20 0 30.5 15.5t15.5 50.5h29q-10 -94 -76 -94q-26 0 -61 29z" />
    <glyph glyph-name="Ograve" unicode="&#xd2;" horiz-adv-x="784" 
d="M74 304q-2 96 48 181.5t134.5 136t179.5 48.5q130 2 219 -89t87 -224q4 -147 -106.5 -258.5t-255.5 -108.5q-129 -2 -218.5 90t-87.5 224zM708 357q2 119 -77.5 201.5t-195.5 80.5q-132 2 -231 -99t-96 -236q-2 -120 77.5 -202.5t195.5 -80.5q130 -3 229.5 99.5
t97.5 236.5zM467 724l-74 181v5h36l63 -186h-25z" />
    <glyph glyph-name="Oacute" unicode="&#xd3;" horiz-adv-x="784" 
d="M74 304q-2 96 48 181.5t134.5 136t179.5 48.5q130 2 219 -89t87 -224q4 -147 -106.5 -258.5t-255.5 -108.5q-129 -2 -218.5 90t-87.5 224zM708 357q2 119 -77.5 201.5t-195.5 80.5q-132 2 -231 -99t-96 -236q-2 -120 77.5 -202.5t195.5 -80.5q130 -3 229.5 99.5
t97.5 236.5zM463 724l126 186h40l-1 -5l-138 -181h-27z" />
    <glyph glyph-name="Ocircumflex" unicode="&#xd4;" horiz-adv-x="784" 
d="M74 304q-2 96 48 181.5t134.5 136t179.5 48.5q130 2 219 -89t87 -224q4 -147 -106.5 -258.5t-255.5 -108.5q-129 -2 -218.5 90t-87.5 224zM708 357q2 119 -77.5 201.5t-195.5 80.5q-132 2 -231 -99t-96 -236q-2 -120 77.5 -202.5t195.5 -80.5q130 -3 229.5 99.5
t97.5 236.5zM630 724h-25l-101 146l-151 -146h-30l179 186h15z" />
    <glyph glyph-name="Otilde" unicode="&#xd5;" horiz-adv-x="784" 
d="M74 304q-2 96 48 181.5t134.5 136t179.5 48.5q130 2 219 -89t87 -224q4 -147 -106.5 -258.5t-255.5 -108.5q-129 -2 -218.5 90t-87.5 224zM708 357q2 119 -77.5 201.5t-195.5 80.5q-132 2 -231 -99t-96 -236q-2 -120 77.5 -202.5t195.5 -80.5q130 -3 229.5 99.5
t97.5 236.5zM498 783l-32 26q-27 21 -43 21q-20 0 -30.5 -15.5t-15.5 -50.5h-29q12 94 74 94q19 0 31 -6t32 -23l31 -26q26 -21 44 -21q20 0 30.5 15.5t15.5 50.5h29q-10 -94 -76 -94q-26 0 -61 29z" />
    <glyph glyph-name="Odieresis" unicode="&#xd6;" horiz-adv-x="784" 
d="M74 304q-2 96 48 181.5t134.5 136t179.5 48.5q130 2 219 -89t87 -224q4 -147 -106.5 -258.5t-255.5 -108.5q-129 -2 -218.5 90t-87.5 224zM708 357q2 119 -77.5 201.5t-195.5 80.5q-132 2 -231 -99t-96 -236q-2 -120 77.5 -202.5t195.5 -80.5q130 -3 229.5 99.5
t97.5 236.5zM347 806q0 14 10 24t24 10t24 -10t10 -24t-10 -24t-24 -10t-24 10t-10 24zM568 806q0 14 10 24t24 10t24 -10t10 -24t-10 -24t-24 -10t-24 10t-10 24z" />
    <glyph glyph-name="multiply" unicode="&#xd7;" 
d="M431 118l-141 171l-186 -157l-18 21l186 157l-142 170l23 19l141 -170l185 156l18 -21l-186 -156l142 -171z" />
    <glyph glyph-name="Oslash" unicode="&#xd8;" horiz-adv-x="772" 
d="M758 649l-91 -87q70 -86 70 -205q2 -95 -48.5 -181t-135.5 -137t-180 -49q-129 0 -215 86l-91 -86l-20 21l92 87q-71 87 -71 206q-2 96 48.5 181.5t135.5 136t179 48.5q130 0 216 -86l91 86zM102 304q0 -106 60 -183l462 440q-76 79 -195 79q-131 2 -230.5 -99.5
t-96.5 -236.5zM703 357q0 107 -60 182l-462 -440q74 -79 194 -79q131 -3 231 100t97 237z" />
    <glyph glyph-name="Ugrave" unicode="&#xd9;" horiz-adv-x="679" 
d="M93 211q0 25 5 57l68 392h32l-69 -395q-4 -20 -4 -51q0 -86 55.5 -140t143.5 -54t149 55q62 55 79 147l75 438h32l-76 -441q-18 -105 -89 -167t-170 -62q-101 0 -166 62t-65 159zM414 724l-74 181v5h36l63 -186h-25z" />
    <glyph glyph-name="Uacute" unicode="&#xda;" horiz-adv-x="679" 
d="M93 211q0 25 5 57l68 392h32l-69 -395q-4 -20 -4 -51q0 -86 55.5 -140t143.5 -54t149 55q62 55 79 147l75 438h32l-76 -441q-18 -105 -89 -167t-170 -62q-101 0 -166 62t-65 159zM410 724l126 186h40l-1 -5l-138 -181h-27z" />
    <glyph glyph-name="Ucircumflex" unicode="&#xdb;" horiz-adv-x="679" 
d="M93 211q0 25 5 57l68 392h32l-69 -395q-4 -20 -4 -51q0 -86 55.5 -140t143.5 -54t149 55q62 55 79 147l75 438h32l-76 -441q-18 -105 -89 -167t-170 -62q-101 0 -166 62t-65 159zM577 724h-25l-101 146l-151 -146h-30l179 186h15z" />
    <glyph glyph-name="Udieresis" unicode="&#xdc;" horiz-adv-x="679" 
d="M93 211q0 25 5 57l68 392h32l-69 -395q-4 -20 -4 -51q0 -86 55.5 -140t143.5 -54t149 55q62 55 79 147l75 438h32l-76 -441q-18 -105 -89 -167t-170 -62q-101 0 -166 62t-65 159zM294 806q0 14 10 24t24 10t24 -10t10 -24t-10 -24t-24 -10t-24 10t-10 24zM515 806
q0 14 10 24t24 10t24 -10t10 -24t-10 -24t-24 -10t-24 10t-10 24z" />
    <glyph glyph-name="Yacute" unicode="&#xdd;" horiz-adv-x="610" 
d="M619 660l-296 -375l-50 -285h-32l50 287l-164 373h31l152 -346l272 346h37zM369 724l126 186h40l-1 -5l-138 -181h-27z" />
    <glyph glyph-name="Thorn" unicode="&#xde;" horiz-adv-x="556" 
d="M529 361q0 -85 -60.5 -139t-156.5 -54h-189l-30 -168h-32l116 660h32l-23 -133h161q84 0 133 -44.5t49 -121.5zM495 361q0 65 -40.5 101.5t-113.5 36.5h-160l-54 -303h183q84 0 134.5 45t50.5 120z" />
    <glyph glyph-name="germandbls" unicode="&#xdf;" horiz-adv-x="582" 
d="M211 80l22 18q33 -43 66.5 -61.5t77.5 -18.5q54 0 87.5 26t33.5 68q0 27 -16 43q-22 22 -65 52q-48 34 -68 55q-18 19 -18 47q0 16 6 34q13 31 29 62l70 139q29 60 29 99q0 41 -28.5 65t-77.5 24q-66 0 -112 -44.5t-59 -121.5l-99 -566h-30l99 567q15 87 71 140
q58 53 134 53q60 0 97 -31.5t37 -83.5q0 -48 -32 -110l-72 -141q-31 -62 -31 -82q0 -18 14.5 -34.5t56.5 -46.5l38 -27q59 -40 59 -91q0 -52 -45 -87.5t-111 -35.5q-97 0 -163 90z" />
    <glyph glyph-name="agrave" unicode="&#xe0;" horiz-adv-x="632" 
d="M544 480h30l-85 -480h-30l17 95q-30 -49 -83 -77t-116 -28q-92 0 -156 67.5t-64 165.5q-2 108 76 188.5t184 78.5q72 0 129 -39q56 -38 76 -98zM317 462q-91 2 -160.5 -71t-67.5 -167q0 -88 55 -147t138 -59q89 -2 157 74.5t66 176.5q0 87 -52 139q-51 54 -136 54z
M338 562l-34 213l2 5h33l22 -218h-23z" />
    <glyph glyph-name="aacute" unicode="&#xe1;" horiz-adv-x="632" 
d="M544 480h30l-85 -480h-30l17 95q-30 -49 -83 -77t-116 -28q-92 0 -156 67.5t-64 165.5q-2 108 76 188.5t184 78.5q72 0 129 -39q56 -38 76 -98zM317 462q-91 2 -160.5 -71t-67.5 -167q0 -88 55 -147t138 -59q89 -2 157 74.5t66 176.5q0 87 -52 139q-51 54 -136 54z
M322 562l134 218h40v-5l-145 -213h-29z" />
    <glyph glyph-name="acircumflex" unicode="&#xe2;" horiz-adv-x="632" 
d="M544 480h30l-85 -480h-30l17 95q-30 -49 -83 -77t-116 -28q-92 0 -156 67.5t-64 165.5q-2 108 76 188.5t184 78.5q72 0 129 -39q56 -38 76 -98zM317 462q-91 2 -160.5 -71t-67.5 -167q0 -88 55 -147t138 -59q89 -2 157 74.5t66 176.5q0 87 -52 139q-51 54 -136 54z
M490 562h-25l-87 172l-146 -172h-29l174 218h15z" />
    <glyph glyph-name="atilde" unicode="&#xe3;" horiz-adv-x="632" 
d="M544 480h30l-85 -480h-30l17 95q-30 -49 -83 -77t-116 -28q-92 0 -156 67.5t-64 165.5q-2 108 76 188.5t184 78.5q72 0 129 -39q56 -38 76 -98zM317 462q-91 2 -160.5 -71t-67.5 -167q0 -88 55 -147t138 -59q89 -2 157 74.5t66 176.5q0 87 -52 139q-51 54 -136 54z
M365 642l-20 27q-19 25 -40 25q-20 0 -30.5 -16.5t-15.5 -53.5h-29q11 98 74 98q36 0 60 -33l20 -27q19 -25 40 -25q20 0 30.5 16.5t15.5 53.5h29q-11 -98 -74 -98q-36 0 -60 33z" />
    <glyph glyph-name="adieresis" unicode="&#xe4;" horiz-adv-x="632" 
d="M544 480h30l-85 -480h-30l17 95q-30 -49 -83 -77t-116 -28q-92 0 -156 67.5t-64 165.5q-2 108 76 188.5t184 78.5q72 0 129 -39q56 -38 76 -98zM317 462q-91 2 -160.5 -71t-67.5 -167q0 -88 55 -147t138 -59q89 -2 157 74.5t66 176.5q0 87 -52 139q-51 54 -136 54z
M229 666q0 14 10 24t24 10t24 -10t10 -24t-10 -24t-24 -10t-24 10t-10 24zM430 666q0 14 10 24t24 10t24 -10t10 -24t-10 -24t-24 -10t-24 10t-10 24z" />
    <glyph glyph-name="aring" unicode="&#xe5;" horiz-adv-x="632" 
d="M544 480h30l-85 -480h-30l17 95q-30 -49 -83 -77t-116 -28q-92 0 -156 67.5t-64 165.5q-2 108 76 188.5t184 78.5q72 0 129 -39q56 -38 76 -98zM317 462q-91 2 -160.5 -71t-67.5 -167q0 -88 55 -147t138 -59q89 -2 157 74.5t66 176.5q0 87 -52 139q-51 54 -136 54z
M268 662q0 41 30 71q32 30 74 30q40 0 67 -27t27 -65q0 -41 -31 -72q-30 -30 -73 -30q-39 0 -66.5 27t-27.5 66zM435 669q0 28 -18.5 47t-46.5 19q-29 0 -50 -21t-21 -51q0 -28 18.5 -47t45.5 -19q30 0 51 21.5t21 50.5z" />
    <glyph glyph-name="ae" unicode="&#xe6;" horiz-adv-x="901" 
d="M842 229h-413v-8q0 -89 55.5 -146t141.5 -57q102 0 171 75l19 -19q-76 -84 -191 -84q-77 0 -135.5 42t-80.5 112q-22 -72 -79.5 -113t-137.5 -41q-72 0 -116 34.5t-44 90.5q0 65 51 103.5t138 38.5h177l6 37q4 21 4 34q0 62 -36.5 98t-98.5 36q-79 0 -151 -72l-18 20
q76 80 172 80q66 0 108 -34t51 -93q34 58 91 92t123 34q88 0 144.5 -55.5t56.5 -141.5q0 -26 -8 -63zM431 257h385l2 36q0 75 -47 121.5t-123 46.5q-84 0 -144.5 -57.5t-72.5 -146.5zM385 177l8 52h-176q-73 0 -112.5 -28.5t-39.5 -81.5q0 -47 34.5 -74t92.5 -27
q73 0 128 44q55 46 65 115z" />
    <glyph glyph-name="ccedilla" unicode="&#xe7;" horiz-adv-x="555" 
d="M58 226q-2 107 76.5 186.5t184.5 77.5q130 0 194 -100l-24 -17q-57 88 -169 88q-94 2 -163 -68t-67 -165q0 -90 57 -149.5t144 -59.5q101 0 169 74l20 -19q-72 -84 -188 -84q-100 0 -167 67.5t-67 168.5zM116 -176l5 26q46 -11 66 -11q41 0 66 23.5t25 61.5q0 39 -40 76
l14 10q57 -31 57 -90q0 -46 -35 -78t-84 -32q-34 0 -74 14z" />
    <glyph glyph-name="egrave" unicode="&#xe8;" horiz-adv-x="565" 
d="M506 237h-416v-11q0 -91 56 -149.5t144 -58.5q102 0 171 75l19 -19q-76 -84 -191 -84q-99 0 -165 67t-66 168q-2 107 75 187t179 78q88 0 145 -55.5t57 -140.5q0 -33 -8 -57zM93 265h388q1 7 1 28q0 75 -47 122t-123 47q-82 0 -144.5 -56.5t-74.5 -140.5zM314 562
l-34 213l2 5h33l22 -218h-23z" />
    <glyph glyph-name="eacute" unicode="&#xe9;" horiz-adv-x="565" 
d="M506 237h-416v-11q0 -91 56 -149.5t144 -58.5q102 0 171 75l19 -19q-76 -84 -191 -84q-99 0 -165 67t-66 168q-2 107 75 187t179 78q88 0 145 -55.5t57 -140.5q0 -33 -8 -57zM93 265h388q1 7 1 28q0 75 -47 122t-123 47q-82 0 -144.5 -56.5t-74.5 -140.5zM298 562
l134 218h40v-5l-145 -213h-29z" />
    <glyph glyph-name="ecircumflex" unicode="&#xea;" horiz-adv-x="565" 
d="M506 237h-416v-11q0 -91 56 -149.5t144 -58.5q102 0 171 75l19 -19q-76 -84 -191 -84q-99 0 -165 67t-66 168q-2 107 75 187t179 78q88 0 145 -55.5t57 -140.5q0 -33 -8 -57zM93 265h388q1 7 1 28q0 75 -47 122t-123 47q-82 0 -144.5 -56.5t-74.5 -140.5zM466 562h-25
l-87 172l-146 -172h-29l174 218h15z" />
    <glyph glyph-name="edieresis" unicode="&#xeb;" horiz-adv-x="565" 
d="M506 237h-416v-11q0 -91 56 -149.5t144 -58.5q102 0 171 75l19 -19q-76 -84 -191 -84q-99 0 -165 67t-66 168q-2 107 75 187t179 78q88 0 145 -55.5t57 -140.5q0 -33 -8 -57zM93 265h388q1 7 1 28q0 75 -47 122t-123 47q-82 0 -144.5 -56.5t-74.5 -140.5zM205 666
q0 14 10 24t24 10t24 -10t10 -24t-10 -24t-24 -10t-24 10t-10 24zM406 666q0 14 10 24t24 10t24 -10t10 -24t-10 -24t-24 -10t-24 10t-10 24z" />
    <glyph glyph-name="igrave" unicode="&#xec;" horiz-adv-x="230" 
d="M58 0l84 480h30l-84 -480h-30zM160 562l-38 213l1 5h34l28 -218h-25z" />
    <glyph glyph-name="iacute" unicode="&#xed;" horiz-adv-x="230" 
d="M58 0l84 480h30l-84 -480h-30zM158 562l104 218h39l-1 -5l-114 -213h-28z" />
    <glyph glyph-name="icircumflex" unicode="&#xee;" horiz-adv-x="230" 
d="M58 0l84 480h30l-84 -480h-30zM315 562h-25l-87 172l-146 -172h-29l174 218h15z" />
    <glyph glyph-name="idieresis" unicode="&#xef;" horiz-adv-x="230" 
d="M58 0l84 480h30l-84 -480h-30zM76 666q0 14 10 24t24 10t24 -10t10 -24t-10 -24t-24 -10t-24 10t-10 24zM237 666q0 14 10 24t24 10t24 -10t10 -24t-10 -24t-24 -10t-24 10t-10 24z" />
    <glyph glyph-name="eth" unicode="&#xf0;" horiz-adv-x="562" 
d="M501 235q2 -99 -71 -173t-169 -72q-88 0 -147.5 62.5t-59.5 155.5q0 95 69.5 163t167.5 68q79 0 130 -48l-138 219l-169 -66l-9 26l163 64l-70 111l25 15l73 -116l161 63l9 -25l-156 -61l112 -178q44 -70 62 -117q17 -45 17 -91zM469 234q0 78 -49.5 127.5t-128.5 49.5
q-86 0 -145.5 -58.5t-59.5 -144.5q0 -83 50 -136.5t127 -53.5q85 0 145.5 63.5t60.5 152.5z" />
    <glyph glyph-name="ntilde" unicode="&#xf1;" horiz-adv-x="551" 
d="M475 338q0 -12 -6 -54l-51 -284h-30l52 288q5 32 5 46q0 57 -36 92.5t-96 35.5q-64 0 -109.5 -40t-58.5 -108l-57 -314h-30l85 480h30l-11 -66q57 76 153 76q72 0 116 -42.5t44 -109.5zM359 642l-20 27q-19 25 -40 25q-20 0 -30.5 -16.5t-15.5 -53.5h-29q11 98 74 98
q36 0 60 -33l20 -27q19 -25 40 -25q20 0 30.5 16.5t15.5 53.5h29q-11 -98 -74 -98q-36 0 -60 33z" />
    <glyph glyph-name="ograve" unicode="&#xf2;" horiz-adv-x="610" 
d="M58 226q-2 107 77 186.5t185 77.5q99 0 166 -67.5t67 -167.5q2 -107 -78 -187t-186 -78q-99 0 -165 67.5t-66 168.5zM521 254q0 88 -58 147.5t-144 59.5q-95 0 -162 -69t-67 -166q0 -90 56.5 -148.5t143.5 -58.5q95 0 163 69t68 166zM333 562l-34 213l2 5h33l22 -218h-23
z" />
    <glyph glyph-name="oacute" unicode="&#xf3;" horiz-adv-x="610" 
d="M58 226q-2 107 77 186.5t185 77.5q99 0 166 -67.5t67 -167.5q2 -107 -78 -187t-186 -78q-99 0 -165 67.5t-66 168.5zM521 254q0 88 -58 147.5t-144 59.5q-95 0 -162 -69t-67 -166q0 -90 56.5 -148.5t143.5 -58.5q95 0 163 69t68 166zM317 562l134 218h40v-5l-145 -213
h-29z" />
    <glyph glyph-name="ocircumflex" unicode="&#xf4;" horiz-adv-x="610" 
d="M58 226q-2 107 77 186.5t185 77.5q99 0 166 -67.5t67 -167.5q2 -107 -78 -187t-186 -78q-99 0 -165 67.5t-66 168.5zM521 254q0 88 -58 147.5t-144 59.5q-95 0 -162 -69t-67 -166q0 -90 56.5 -148.5t143.5 -58.5q95 0 163 69t68 166zM485 562h-25l-87 172l-146 -172h-29
l174 218h15z" />
    <glyph glyph-name="otilde" unicode="&#xf5;" horiz-adv-x="610" 
d="M58 226q-2 107 77 186.5t185 77.5q99 0 166 -67.5t67 -167.5q2 -107 -78 -187t-186 -78q-99 0 -165 67.5t-66 168.5zM521 254q0 88 -58 147.5t-144 59.5q-95 0 -162 -69t-67 -166q0 -90 56.5 -148.5t143.5 -58.5q95 0 163 69t68 166zM360 642l-20 27q-19 25 -40 25
q-20 0 -30.5 -16.5t-15.5 -53.5h-29q11 98 74 98q36 0 60 -33l20 -27q19 -25 40 -25q20 0 30.5 16.5t15.5 53.5h29q-11 -98 -74 -98q-36 0 -60 33z" />
    <glyph glyph-name="odieresis" unicode="&#xf6;" horiz-adv-x="610" 
d="M58 226q-2 107 77 186.5t185 77.5q99 0 166 -67.5t67 -167.5q2 -107 -78 -187t-186 -78q-99 0 -165 67.5t-66 168.5zM521 254q0 88 -58 147.5t-144 59.5q-95 0 -162 -69t-67 -166q0 -90 56.5 -148.5t143.5 -58.5q95 0 163 69t68 166zM224 666q0 14 10 24t24 10t24 -10
t10 -24t-10 -24t-24 -10t-24 10t-10 24zM425 666q0 14 10 24t24 10t24 -10t10 -24t-10 -24t-24 -10t-24 10t-10 24z" />
    <glyph glyph-name="divide" unicode="&#xf7;" 
d="M289 479q0 15 10 25t25 10t25 -10t10 -25t-10 -25t-25 -10t-25 10t-10 25zM77 295l4 28h427l-4 -28h-427zM229 138q0 15 10 25t25 10t25 -10t10 -25t-10 -25t-25 -10t-25 10t-10 25z" />
    <glyph glyph-name="oslash" unicode="&#xf8;" horiz-adv-x="625" 
d="M562 465l-57 -58q55 -63 55 -155q2 -104 -78.5 -184t-185.5 -78q-88 0 -152 56l-60 -60l-21 21l60 60q-58 67 -58 161q-2 105 77.5 184.5t184.5 77.5q94 0 158 -61l56 57zM97 227q0 -78 47 -139l320 320q-56 54 -138 54q-94 0 -161.5 -70t-67.5 -165zM528 252
q0 76 -44 134l-319 -319q55 -49 132 -49q92 -2 162.5 69t68.5 165z" />
    <glyph glyph-name="ugrave" unicode="&#xf9;" horiz-adv-x="541" 
d="M78 151q0 21 3 38l51 291h30l-52 -294q-3 -17 -3 -34q0 -59 39 -96.5t102 -37.5q59 0 103 38.5t55 102.5l57 321h30l-57 -323q-13 -75 -67 -121q-52 -46 -124 -46q-73 0 -120 45t-47 116zM308 562l-34 213l2 5h33l22 -218h-23z" />
    <glyph glyph-name="uacute" unicode="&#xfa;" horiz-adv-x="541" 
d="M78 151q0 21 3 38l51 291h30l-52 -294q-3 -17 -3 -34q0 -59 39 -96.5t102 -37.5q59 0 103 38.5t55 102.5l57 321h30l-57 -323q-13 -75 -67 -121q-52 -46 -124 -46q-73 0 -120 45t-47 116zM292 562l134 218h40v-5l-145 -213h-29z" />
    <glyph glyph-name="ucircumflex" unicode="&#xfb;" horiz-adv-x="541" 
d="M78 151q0 21 3 38l51 291h30l-52 -294q-3 -17 -3 -34q0 -59 39 -96.5t102 -37.5q59 0 103 38.5t55 102.5l57 321h30l-57 -323q-13 -75 -67 -121q-52 -46 -124 -46q-73 0 -120 45t-47 116zM460 562h-25l-87 172l-146 -172h-29l174 218h15z" />
    <glyph glyph-name="udieresis" unicode="&#xfc;" horiz-adv-x="541" 
d="M78 151q0 21 3 38l51 291h30l-52 -294q-3 -17 -3 -34q0 -59 39 -96.5t102 -37.5q59 0 103 38.5t55 102.5l57 321h30l-57 -323q-13 -75 -67 -121q-52 -46 -124 -46q-73 0 -120 45t-47 116zM199 666q0 14 10 24t24 10t24 -10t10 -24t-10 -24t-24 -10t-24 10t-10 24z
M400 666q0 14 10 24t24 10t24 -10t10 -24t-10 -24t-24 -10t-24 10t-10 24z" />
    <glyph glyph-name="yacute" unicode="&#xfd;" horiz-adv-x="552" 
d="M464 480h30l-87 -492q-14 -82 -68 -130t-131 -48q-58 0 -107 29t-78 82l25 17q56 -100 161 -100q65 0 110 40.5t58 111.5l13 74q-56 -74 -152 -74q-71 0 -115.5 42t-44.5 110q0 12 6 54l50 284h30l-51 -288q-5 -32 -5 -44q0 -58 36 -94t96 -36q64 0 109.5 40t58.5 108z
M302 562l134 218h40v-5l-145 -213h-29z" />
    <glyph glyph-name="thorn" unicode="&#xfe;" horiz-adv-x="630" 
d="M573 263q0 -115 -74.5 -194t-181.5 -79q-71 0 -130 38q-57 38 -77 98l-54 -306h-30l164 930h30l-65 -368q30 50 83 79t117 29q92 0 155 -65t63 -162zM350 461q-92 2 -159.5 -76.5t-65.5 -184.5q0 -78 54.5 -129.5t137.5 -51.5q94 0 159 70.5t65 171.5q0 88 -53 144
t-138 56z" />
    <glyph glyph-name="ydieresis" unicode="&#xff;" horiz-adv-x="552" 
d="M464 480h30l-87 -492q-14 -82 -68 -130t-131 -48q-58 0 -107 29t-78 82l25 17q56 -100 161 -100q65 0 110 40.5t58 111.5l13 74q-56 -74 -152 -74q-71 0 -115.5 42t-44.5 110q0 12 6 54l50 284h30l-51 -288q-5 -32 -5 -44q0 -58 36 -94t96 -36q64 0 109.5 40t58.5 108z
M209 666q0 14 10 24t24 10t24 -10t10 -24t-10 -24t-24 -10t-24 10t-10 24zM410 666q0 14 10 24t24 10t24 -10t10 -24t-10 -24t-24 -10t-24 10t-10 24z" />
    <glyph glyph-name="Amacron" unicode="&#x100;" horiz-adv-x="666" 
d="M552 0l-43 176h-362l-103 -176h-36l398 670h15l162 -670h-31zM503 204l-99 407l-241 -407h340zM289 782l5 28h272l-5 -28h-272z" />
    <glyph glyph-name="amacron" unicode="&#x101;" horiz-adv-x="632" 
d="M544 480h30l-85 -480h-30l17 95q-30 -49 -83 -77t-116 -28q-92 0 -156 67.5t-64 165.5q-2 108 76 188.5t184 78.5q72 0 129 -39q56 -38 76 -98zM317 462q-91 2 -160.5 -71t-67.5 -167q0 -88 55 -147t138 -59q89 -2 157 74.5t66 176.5q0 87 -52 139q-51 54 -136 54z
M237 653l5 28h252l-5 -28h-252z" />
    <glyph glyph-name="Abreve" unicode="&#x102;" horiz-adv-x="666" 
d="M552 0l-43 176h-362l-103 -176h-36l398 670h15l162 -670h-31zM503 204l-99 407l-241 -407h340zM306 853q0 22 7 57h30q-7 -35 -7 -53q0 -44 26.5 -70.5t69.5 -26.5q44 0 74.5 28.5t38.5 79.5l7 42h30l-7 -42q-11 -63 -49.5 -99.5t-95.5 -36.5q-53 0 -88.5 34.5
t-35.5 86.5z" />
    <glyph glyph-name="abreve" unicode="&#x103;" horiz-adv-x="632" 
d="M544 480h30l-85 -480h-30l17 95q-30 -49 -83 -77t-116 -28q-92 0 -156 67.5t-64 165.5q-2 108 76 188.5t184 78.5q72 0 129 -39q56 -38 76 -98zM317 462q-91 2 -160.5 -71t-67.5 -167q0 -88 55 -147t138 -59q89 -2 157 74.5t66 176.5q0 87 -52 139q-51 54 -136 54z
M228 696q0 22 7 57h30q-7 -35 -7 -53q0 -44 26.5 -70.5t69.5 -26.5q44 0 74.5 28.5t38.5 79.5l7 42h30l-7 -42q-11 -63 -49.5 -99.5t-95.5 -36.5q-53 0 -88.5 34.5t-35.5 86.5z" />
    <glyph glyph-name="Aogonek" unicode="&#x104;" horiz-adv-x="666" 
d="M552 0l-43 176h-362l-103 -176h-36l398 670h15l162 -670h-31zM503 204l-99 407l-241 -407h340zM406 -119q0 37 37 68q38 31 134 71l6 -20l-73 -40q-39 -22 -55.5 -39.5t-16.5 -37.5q0 -45 71 -45q21 0 46 3l-4 -26q-30 -5 -50 -5q-43 0 -69 19.5t-26 51.5z" />
    <glyph glyph-name="aogonek" unicode="&#x105;" horiz-adv-x="632" 
d="M544 480h30l-85 -480h-30l17 95q-30 -49 -83 -77t-116 -28q-92 0 -156 67.5t-64 165.5q-2 108 76 188.5t184 78.5q72 0 129 -39q56 -38 76 -98zM317 462q-91 2 -160.5 -71t-67.5 -167q0 -88 55 -147t138 -59q89 -2 157 74.5t66 176.5q0 87 -52 139q-51 54 -136 54z
M312 -119q0 37 37 68q38 31 134 71l6 -20l-73 -40q-39 -22 -55.5 -39.5t-16.5 -37.5q0 -45 71 -45q21 0 46 3l-4 -26q-30 -5 -50 -5q-43 0 -69 19.5t-26 51.5z" />
    <glyph glyph-name="Cacute" unicode="&#x106;" horiz-adv-x="709" 
d="M74 303q-3 146 108 258t256 109q82 0 148.5 -37t106.5 -105l-26 -18q-80 130 -231 130q-131 3 -231 -99.5t-97 -236.5q-2 -121 78 -203.5t198 -80.5q144 0 243 107l22 -20q-51 -56 -121.5 -86.5t-145.5 -30.5q-130 -2 -220 89t-88 224zM464 724l126 186h40l-1 -5
l-138 -181h-27z" />
    <glyph glyph-name="cacute" unicode="&#x107;" horiz-adv-x="555" 
d="M58 226q-2 107 76.5 186.5t184.5 77.5q130 0 194 -100l-24 -17q-57 88 -169 88q-94 2 -163 -68t-67 -165q0 -90 57 -149.5t144 -59.5q101 0 169 74l20 -19q-72 -84 -188 -84q-100 0 -167 67.5t-67 168.5zM310 562l134 218h40v-5l-145 -213h-29z" />
    <glyph glyph-name="Ccircumflex" unicode="&#x108;" horiz-adv-x="709" 
d="M74 303q-3 146 108 258t256 109q82 0 148.5 -37t106.5 -105l-26 -18q-80 130 -231 130q-131 3 -231 -99.5t-97 -236.5q-2 -121 78 -203.5t198 -80.5q144 0 243 107l22 -20q-51 -56 -121.5 -86.5t-145.5 -30.5q-130 -2 -220 89t-88 224zM631 724h-25l-101 146l-151 -146
h-30l179 186h15z" />
    <glyph glyph-name="ccircumflex" unicode="&#x109;" horiz-adv-x="555" 
d="M58 226q-2 107 76.5 186.5t184.5 77.5q130 0 194 -100l-24 -17q-57 88 -169 88q-94 2 -163 -68t-67 -165q0 -90 57 -149.5t144 -59.5q101 0 169 74l20 -19q-72 -84 -188 -84q-100 0 -167 67.5t-67 168.5zM478 562h-25l-87 172l-146 -172h-29l174 218h15z" />
    <glyph glyph-name="Cdotaccent" unicode="&#x10a;" horiz-adv-x="709" 
d="M74 303q-3 146 108 258t256 109q82 0 148.5 -37t106.5 -105l-26 -18q-80 130 -231 130q-131 3 -231 -99.5t-97 -236.5q-2 -121 78 -203.5t198 -80.5q144 0 243 107l22 -20q-51 -56 -121.5 -86.5t-145.5 -30.5q-130 -2 -220 89t-88 224zM459 806q0 14 10 24t24 10t24 -10
t10 -24t-10 -24t-24 -10t-24 10t-10 24z" />
    <glyph glyph-name="cdotaccent" unicode="&#x10b;" horiz-adv-x="555" 
d="M58 226q-2 107 76.5 186.5t184.5 77.5q130 0 194 -100l-24 -17q-57 88 -169 88q-94 2 -163 -68t-67 -165q0 -90 57 -149.5t144 -59.5q101 0 169 74l20 -19q-72 -84 -188 -84q-100 0 -167 67.5t-67 168.5zM320 666q0 14 10 24t24 10t24 -10t10 -24t-10 -24t-24 -10t-24 10
t-10 24z" />
    <glyph glyph-name="Ccaron" unicode="&#x10c;" horiz-adv-x="709" 
d="M74 303q-3 146 108 258t256 109q82 0 148.5 -37t106.5 -105l-26 -18q-80 130 -231 130q-131 3 -231 -99.5t-97 -236.5q-2 -121 78 -203.5t198 -80.5q144 0 243 107l22 -20q-51 -56 -121.5 -86.5t-145.5 -30.5q-130 -2 -220 89t-88 224zM634 910h30l-179 -186h-15
l-113 186h25l101 -146z" />
    <glyph glyph-name="ccaron" unicode="&#x10d;" horiz-adv-x="555" 
d="M58 226q-2 107 76.5 186.5t184.5 77.5q130 0 194 -100l-24 -17q-57 88 -169 88q-94 2 -163 -68t-67 -165q0 -90 57 -149.5t144 -59.5q101 0 169 74l20 -19q-72 -84 -188 -84q-100 0 -167 67.5t-67 168.5zM489 780h29l-174 -218h-15l-98 218h25l87 -172z" />
    <glyph glyph-name="Dcaron" unicode="&#x10e;" horiz-adv-x="701" 
d="M61 0l116 660h149q149 0 241 -83t92 -219q2 -157 -110.5 -258.5t-286.5 -99.5h-201zM98 27h166q158 -2 260.5 92t100.5 239q0 124 -82 199t-219 75h-120zM523 910h30l-179 -186h-15l-113 186h25l101 -146z" />
    <glyph glyph-name="dcaron" unicode="&#x10f;" horiz-adv-x="706" 
d="M592 750h30l-132 -750h-30l17 94q-30 -48 -83 -76t-116 -28q-95 0 -157.5 66.5t-62.5 169.5q-2 109 75.5 187.5t183.5 76.5q72 0 129 -38t76 -98zM506 273q0 83 -53.5 136t-136.5 53q-92 0 -159 -69.5t-67 -166.5q0 -93 54 -150.5t138 -57.5q90 -3 158 76.5t66 178.5z
M701 540l57 210h38l-69 -210h-26z" />
    <glyph glyph-name="Dcroat" unicode="&#x110;" horiz-adv-x="701" 
d="M659 358q2 -157 -110.5 -258.5t-286.5 -99.5h-201l50 287h-103l5 28h103l61 345h149q149 0 241 -83t92 -219zM625 358q0 124 -82 199t-219 75h-120l-56 -317h151l-5 -28h-150l-46 -260h166q158 -2 260.5 92t100.5 239z" />
    <glyph glyph-name="dslash" unicode="&#x111;" horiz-adv-x="632" 
d="M688 632l-5 -28h-87l-106 -604h-30l17 94q-30 -48 -83 -76t-116 -28q-97 0 -158.5 66t-61.5 170q-2 109 75.5 187.5t183.5 76.5q73 0 129 -39t75 -101l45 254h-229l5 28h229l21 118h30l-21 -118h87zM506 273q0 83 -53.5 136t-136.5 53q-92 0 -159 -69.5t-67 -166.5
q0 -92 53.5 -150t138.5 -58q88 -2 157 76t67 179z" />
    <glyph glyph-name="Emacron" unicode="&#x112;" horiz-adv-x="562" 
d="M61 0l116 660h406l-5 -28h-374l-46 -259h294l-4 -28h-294l-56 -317h386l-5 -28h-418zM261 782l5 28h272l-5 -28h-272z" />
    <glyph glyph-name="emacron" unicode="&#x113;" horiz-adv-x="565" 
d="M506 237h-416v-11q0 -91 56 -149.5t144 -58.5q102 0 171 75l19 -19q-76 -84 -191 -84q-99 0 -165 67t-66 168q-2 107 75 187t179 78q88 0 145 -55.5t57 -140.5q0 -33 -8 -57zM93 265h388q1 7 1 28q0 75 -47 122t-123 47q-82 0 -144.5 -56.5t-74.5 -140.5zM213 653l5 28
h252l-5 -28h-252z" />
    <glyph glyph-name="Ebreve" unicode="&#x114;" horiz-adv-x="562" 
d="M61 0l116 660h406l-5 -28h-374l-46 -259h294l-4 -28h-294l-56 -317h386l-5 -28h-418zM278 853q0 22 7 57h30q-7 -35 -7 -53q0 -44 26.5 -70.5t69.5 -26.5q44 0 74.5 28.5t38.5 79.5l7 42h30l-7 -42q-11 -63 -49.5 -99.5t-95.5 -36.5q-53 0 -88.5 34.5t-35.5 86.5z" />
    <glyph glyph-name="ebreve" unicode="&#x115;" horiz-adv-x="565" 
d="M506 237h-416v-11q0 -91 56 -149.5t144 -58.5q102 0 171 75l19 -19q-76 -84 -191 -84q-99 0 -165 67t-66 168q-2 107 75 187t179 78q88 0 145 -55.5t57 -140.5q0 -33 -8 -57zM93 265h388q1 7 1 28q0 75 -47 122t-123 47q-82 0 -144.5 -56.5t-74.5 -140.5zM204 696
q0 22 7 57h30q-7 -35 -7 -53q0 -44 26.5 -70.5t69.5 -26.5q44 0 74.5 28.5t38.5 79.5l7 42h30l-7 -42q-11 -63 -49.5 -99.5t-95.5 -36.5q-53 0 -88.5 34.5t-35.5 86.5z" />
    <glyph glyph-name="Edotaccent" unicode="&#x116;" horiz-adv-x="562" 
d="M61 0l116 660h406l-5 -28h-374l-46 -259h294l-4 -28h-294l-56 -317h386l-5 -28h-418zM367 806q0 14 10 24t24 10t24 -10t10 -24t-10 -24t-24 -10t-24 10t-10 24z" />
    <glyph glyph-name="edotaccent" unicode="&#x117;" horiz-adv-x="565" 
d="M506 237h-416v-11q0 -91 56 -149.5t144 -58.5q102 0 171 75l19 -19q-76 -84 -191 -84q-99 0 -165 67t-66 168q-2 107 75 187t179 78q88 0 145 -55.5t57 -140.5q0 -33 -8 -57zM93 265h388q1 7 1 28q0 75 -47 122t-123 47q-82 0 -144.5 -56.5t-74.5 -140.5zM308 666
q0 14 10 24t24 10t24 -10t10 -24t-10 -24t-24 -10t-24 10t-10 24z" />
    <glyph glyph-name="Eogonek" unicode="&#x118;" horiz-adv-x="562" 
d="M61 0l116 660h406l-5 -28h-374l-46 -259h294l-4 -28h-294l-56 -317h386l-5 -28h-418zM302 -119q0 37 37 68q38 31 134 71l6 -20l-73 -40q-39 -22 -55.5 -39.5t-16.5 -37.5q0 -45 71 -45q21 0 46 3l-4 -26q-30 -5 -50 -5q-43 0 -69 19.5t-26 51.5z" />
    <glyph glyph-name="eogonek" unicode="&#x119;" horiz-adv-x="565" 
d="M506 237h-416v-11q0 -91 56 -149.5t144 -58.5q102 0 171 75l19 -19q-76 -84 -191 -84q-99 0 -165 67t-66 168q-2 107 75 187t179 78q88 0 145 -55.5t57 -140.5q0 -33 -8 -57zM93 265h388q1 7 1 28q0 75 -47 122t-123 47q-82 0 -144.5 -56.5t-74.5 -140.5zM277 -119
q0 25 12 48q13 23 46 53q38 35 110 94l35 -2l-102 -92q-69 -62 -69 -99q0 -45 71 -45q20 0 46 3l-4 -26q-30 -5 -50 -5q-42 0 -68.5 19t-26.5 52z" />
    <glyph glyph-name="Ecaron" unicode="&#x11a;" horiz-adv-x="562" 
d="M61 0l116 660h406l-5 -28h-374l-46 -259h294l-4 -28h-294l-56 -317h386l-5 -28h-418zM542 910h30l-179 -186h-15l-113 186h25l101 -146z" />
    <glyph glyph-name="ecaron" unicode="&#x11b;" horiz-adv-x="565" 
d="M506 237h-416v-11q0 -91 56 -149.5t144 -58.5q102 0 171 75l19 -19q-76 -84 -191 -84q-99 0 -165 67t-66 168q-2 107 75 187t179 78q88 0 145 -55.5t57 -140.5q0 -33 -8 -57zM93 265h388q1 7 1 28q0 75 -47 122t-123 47q-82 0 -144.5 -56.5t-74.5 -140.5zM477 780h29
l-174 -218h-15l-98 218h25l87 -172z" />
    <glyph glyph-name="Gcircumflex" unicode="&#x11c;" horiz-adv-x="749" 
d="M74 303q-2 95 48.5 181t135.5 137t179 49q81 0 148 -37t109 -105l-26 -18q-38 62 -98.5 96t-134.5 34q-131 3 -230.5 -99.5t-96.5 -236.5q-2 -121 78 -203.5t198 -80.5q72 0 137 31.5t113 88.5l26 147h-258l5 28h290l-32 -183q-49 -66 -125 -104t-159 -38
q-130 -2 -219.5 90t-87.5 223zM629 724h-25l-101 146l-151 -146h-30l179 186h15z" />
    <glyph glyph-name="gcircumflex" unicode="&#x11d;" horiz-adv-x="631" 
d="M542 480h30l-79 -458q-17 -98 -83.5 -155t-164.5 -57q-68 0 -127 30t-92 82l25 18q30 -48 81.5 -75t113.5 -27q86 0 143.5 49.5t73.5 137.5l14 76q-30 -46 -84.5 -73.5t-117.5 -27.5q-93 0 -155.5 63t-62.5 158q-1 112 77.5 191.5t187.5 77.5q70 0 126 -38q55 -37 73 -97
zM505 273q0 83 -52 136t-133 53q-94 0 -162.5 -71t-68.5 -169q0 -84 55 -139t138 -55q92 0 157.5 72t65.5 173zM481 562h-25l-87 172l-146 -172h-29l174 218h15z" />
    <glyph glyph-name="Gbreve" unicode="&#x11e;" horiz-adv-x="749" 
d="M74 303q-2 95 48.5 181t135.5 137t179 49q81 0 148 -37t109 -105l-26 -18q-38 62 -98.5 96t-134.5 34q-131 3 -230.5 -99.5t-96.5 -236.5q-2 -121 78 -203.5t198 -80.5q72 0 137 31.5t113 88.5l26 147h-258l5 28h290l-32 -183q-49 -66 -125 -104t-159 -38
q-130 -2 -219.5 90t-87.5 223zM368 853q0 22 7 57h30q-7 -35 -7 -53q0 -44 26.5 -70.5t69.5 -26.5q44 0 74.5 28.5t38.5 79.5l7 42h30l-7 -42q-11 -63 -49.5 -99.5t-95.5 -36.5q-53 0 -88.5 34.5t-35.5 86.5z" />
    <glyph glyph-name="gbreve" unicode="&#x11f;" horiz-adv-x="631" 
d="M542 480h30l-79 -458q-17 -98 -83.5 -155t-164.5 -57q-68 0 -127 30t-92 82l25 18q30 -48 81.5 -75t113.5 -27q86 0 143.5 49.5t73.5 137.5l14 76q-30 -46 -84.5 -73.5t-117.5 -27.5q-93 0 -155.5 63t-62.5 158q-1 112 77.5 191.5t187.5 77.5q70 0 126 -38q55 -37 73 -97
zM505 273q0 83 -52 136t-133 53q-94 0 -162.5 -71t-68.5 -169q0 -84 55 -139t138 -55q92 0 157.5 72t65.5 173zM219 696q0 22 7 57h30q-7 -35 -7 -53q0 -44 26.5 -70.5t69.5 -26.5q44 0 74.5 28.5t38.5 79.5l7 42h30l-7 -42q-11 -63 -49.5 -99.5t-95.5 -36.5
q-53 0 -88.5 34.5t-35.5 86.5z" />
    <glyph glyph-name="Gdotaccent" unicode="&#x120;" horiz-adv-x="749" 
d="M74 303q-2 95 48.5 181t135.5 137t179 49q81 0 148 -37t109 -105l-26 -18q-38 62 -98.5 96t-134.5 34q-131 3 -230.5 -99.5t-96.5 -236.5q-2 -121 78 -203.5t198 -80.5q72 0 137 31.5t113 88.5l26 147h-258l5 28h290l-32 -183q-49 -66 -125 -104t-159 -38
q-130 -2 -219.5 90t-87.5 223zM457 806q0 14 10 24t24 10t24 -10t10 -24t-10 -24t-24 -10t-24 10t-10 24z" />
    <glyph glyph-name="gdotaccent" unicode="&#x121;" horiz-adv-x="631" 
d="M542 480h30l-79 -458q-17 -98 -83.5 -155t-164.5 -57q-68 0 -127 30t-92 82l25 18q30 -48 81.5 -75t113.5 -27q86 0 143.5 49.5t73.5 137.5l14 76q-30 -46 -84.5 -73.5t-117.5 -27.5q-93 0 -155.5 63t-62.5 158q-1 112 77.5 191.5t187.5 77.5q70 0 126 -38q55 -37 73 -97
zM505 273q0 83 -52 136t-133 53q-94 0 -162.5 -71t-68.5 -169q0 -84 55 -139t138 -55q92 0 157.5 72t65.5 173zM323 666q0 14 10 24t24 10t24 -10t10 -24t-10 -24t-24 -10t-24 10t-10 24z" />
    <glyph glyph-name="uni0122" unicode="&#x122;" horiz-adv-x="749" 
d="M74 303q-2 95 48.5 181t135.5 137t179 49q81 0 148 -37t109 -105l-26 -18q-38 62 -98.5 96t-134.5 34q-131 3 -230.5 -99.5t-96.5 -236.5q-2 -121 78 -203.5t198 -80.5q72 0 137 31.5t113 88.5l26 147h-258l5 28h290l-32 -183q-49 -66 -125 -104t-159 -38
q-130 -2 -219.5 90t-87.5 223zM278 -220l44 168h36l-54 -168h-26z" />
    <glyph glyph-name="uni0123" unicode="&#x123;" horiz-adv-x="631" 
d="M542 480h30l-79 -458q-17 -98 -83.5 -155t-164.5 -57q-68 0 -127 30t-92 82l25 18q30 -48 81.5 -75t113.5 -27q86 0 143.5 49.5t73.5 137.5l14 76q-30 -46 -84.5 -73.5t-117.5 -27.5q-93 0 -155.5 63t-62.5 158q-1 112 77.5 191.5t187.5 77.5q70 0 126 -38q55 -37 73 -97
zM505 273q0 83 -52 136t-133 53q-94 0 -162.5 -71t-68.5 -169q0 -84 55 -139t138 -55q92 0 157.5 72t65.5 173zM318 562l68 218h26l-58 -218h-36z" />
    <glyph glyph-name="Hcircumflex" unicode="&#x124;" horiz-adv-x="704" 
d="M61 0l116 660h32l-50 -287h434l50 287h32l-116 -660h-32l60 345h-434l-60 -345h-32zM590 724h-25l-101 146l-151 -146h-30l179 186h15z" />
    <glyph glyph-name="hcircumflex" unicode="&#x125;" horiz-adv-x="551" 
d="M474 338q0 -24 -6 -54l-49 -284h-30l50 288q6 30 6 50q0 55 -37 89.5t-96 34.5q-62 0 -109 -40.5t-59 -107.5l-55 -314h-30l131 750h30l-59 -335q58 75 153 75q71 0 115.5 -42t44.5 -110zM372 814h-25l-101 146l-151 -146h-30l179 186h15z" />
    <glyph glyph-name="Hbar" unicode="&#x126;" horiz-adv-x="710" 
d="M757 508l-5 -28h-106l-84 -480h-32l50 287h-434l-50 -287h-32l84 480h-106l5 28h106l27 152h32l-27 -152h434l27 152h32l-27 -152h106zM585 315l29 165h-434l-29 -165h434z" />
    <glyph glyph-name="hbar" unicode="&#x127;" horiz-adv-x="549" 
d="M471 329q0 -18 -6 -54l-48 -275h-30l49 279q5 32 5 44q0 58 -36 94t-96 36q-63 0 -109.5 -40t-58.5 -108l-54 -305h-30l105 604h-85l5 28h85l21 118h30l-20 -118h210l-5 -28h-210l-35 -199q56 76 153 76q72 0 116 -42.5t44 -109.5z" />
    <glyph glyph-name="Itilde" unicode="&#x128;" horiz-adv-x="238" 
d="M61 0l116 660h32l-116 -660h-32zM225 783l-32 26q-27 21 -43 21q-20 0 -30.5 -15.5t-15.5 -50.5h-29q12 94 74 94q19 0 31 -6t32 -23l31 -26q25 -21 44 -21q20 0 30.5 15.5t15.5 50.5h29q-10 -94 -76 -94q-26 0 -61 29z" />
    <glyph glyph-name="itilde" unicode="&#x129;" horiz-adv-x="230" 
d="M58 0l84 480h30l-84 -480h-30zM188 644l-15 24q-16 26 -34 26q-37 0 -47 -70h-29q12 98 74 98q33 0 55 -35l15 -24q16 -26 34 -26q37 0 47 70h29q-12 -98 -74 -98q-33 0 -55 35z" />
    <glyph glyph-name="Imacron" unicode="&#x12a;" horiz-adv-x="238" 
d="M61 0l116 660h32l-116 -660h-32zM79 782l5 28h272l-5 -28h-272z" />
    <glyph glyph-name="imacron" unicode="&#x12b;" horiz-adv-x="230" 
d="M58 0l84 480h30l-84 -480h-30zM92 652l5 28h192l-5 -28h-192z" />
    <glyph glyph-name="Ibreve" unicode="&#x12c;" horiz-adv-x="238" 
d="M61 0l116 660h32l-116 -660h-32zM96 853q0 22 7 57h30q-7 -35 -7 -53q0 -44 26.5 -70.5t69.5 -26.5q44 0 74.5 28.5t38.5 79.5l7 42h30l-7 -42q-11 -63 -49.5 -99.5t-95.5 -36.5q-53 0 -88.5 34.5t-35.5 86.5z" />
    <glyph glyph-name="ibreve" unicode="&#x12d;" horiz-adv-x="230" 
d="M58 0l84 480h30l-84 -480h-30zM53 696q0 22 7 57h30q-7 -35 -7 -53q0 -44 26.5 -70.5t69.5 -26.5q44 0 74.5 28.5t38.5 79.5l7 42h30l-7 -42q-11 -63 -49.5 -99.5t-95.5 -36.5q-53 0 -88.5 34.5t-35.5 86.5z" />
    <glyph glyph-name="Iogonek" unicode="&#x12e;" horiz-adv-x="238" 
d="M61 0l116 660h32l-116 -660h-32zM-84 -119q0 36 38 68q39 32 133 71l6 -20l-73 -40q-39 -22 -55.5 -39.5t-16.5 -37.5q0 -45 71 -45q20 0 46 3l-4 -26q-30 -5 -50 -5q-43 0 -69 19.5t-26 51.5z" />
    <glyph glyph-name="iogonek" unicode="&#x12f;" horiz-adv-x="230" 
d="M58 0l84 480h30l-84 -480h-30zM157 666q0 14 10 24t24 10t24 -10t10 -24t-10 -24t-24 -10t-24 10t-10 24zM-89 -119q0 36 38 68q39 32 133 71l6 -20l-73 -40q-39 -22 -55.5 -39.5t-16.5 -37.5q0 -45 71 -45q20 0 46 3l-4 -26q-30 -5 -50 -5q-43 0 -69 19.5t-26 51.5z" />
    <glyph glyph-name="Idot" unicode="&#x130;" horiz-adv-x="238" 
d="M61 0l116 660h32l-116 -660h-32zM185 806q0 14 10 24t24 10t24 -10t10 -24t-10 -24t-24 -10t-24 10t-10 24z" />
    <glyph glyph-name="dotlessi" unicode="&#x131;" horiz-adv-x="230" 
d="M58 0l84 480h30l-84 -480h-30z" />
    <glyph glyph-name="IJ" unicode="&#x132;" horiz-adv-x="600" 
d="M61 0l116 660h32l-116 -660h-32zM227 5l5 28q51 -13 89 -13q106 0 125 110l93 530h32l-94 -532q-24 -138 -155 -138q-46 0 -95 15z" />
    <glyph glyph-name="ij" unicode="&#x133;" horiz-adv-x="461" 
d="M58 0l84 480h30l-84 -480h-30zM157 666q0 14 10 24t24 10t24 -10t10 -24t-10 -24t-24 -10t-24 10t-10 24zM102 -179l5 26q30 -9 61 -9q93 0 109 97l96 545h30l-96 -548q-22 -122 -140 -122q-34 0 -65 11zM387 666q0 14 10 24t24 10t24 -10t10 -24t-10 -24t-24 -10t-24 10
t-10 24z" />
    <glyph glyph-name="Jcircumflex" unicode="&#x134;" horiz-adv-x="362" 
d="M-11 5l5 28q51 -13 89 -13q106 0 125 110l93 530h32l-94 -532q-24 -138 -155 -138q-46 0 -95 15zM478 724h-25l-101 146l-151 -146h-30l179 186h15z" />
    <glyph glyph-name="jcircumflex" unicode="&#x135;" horiz-adv-x="231" 
d="M-128 -179l5 26q30 -9 61 -9q93 0 109 97l96 545h30l-96 -548q-22 -122 -140 -122q-34 0 -65 11zM315 562h-25l-87 172l-146 -172h-29l174 218h15z" />
    <glyph glyph-name="uni0136" unicode="&#x136;" horiz-adv-x="598" 
d="M177 660h32l-116 -660h-32zM610 660l-393 -303l299 -357h-39l-302 359l387 301h48zM186 -220l44 168h36l-54 -168h-26z" />
    <glyph glyph-name="uni0137" unicode="&#x137;" horiz-adv-x="462" 
d="M190 750h30l-132 -750h-30zM469 480l-274 -218l205 -262h-37l-210 265l271 215h45zM119 -220l44 168h36l-54 -168h-26z" />
    <glyph glyph-name="Lacute" unicode="&#x139;" horiz-adv-x="493" 
d="M61 0l116 660h32l-111 -632h334l-5 -28h-366zM190 724l126 186h40l-1 -5l-138 -181h-27z" />
    <glyph glyph-name="lacute" unicode="&#x13a;" horiz-adv-x="230" 
d="M58 0l132 750h30l-132 -750h-30zM202 814l126 186h40l-1 -5l-138 -181h-27z" />
    <glyph glyph-name="uni013B" unicode="&#x13b;" horiz-adv-x="493" 
d="M61 0l116 660h32l-111 -632h334l-5 -28h-366zM169 -220l44 168h36l-54 -168h-26z" />
    <glyph glyph-name="uni013C" unicode="&#x13c;" horiz-adv-x="230" 
d="M58 0l132 750h30l-132 -750h-30zM2 -220l44 168h36l-54 -168h-26z" />
    <glyph glyph-name="Lcaron" unicode="&#x13d;" horiz-adv-x="493" 
d="M61 0l116 660h32l-111 -632h334l-5 -28h-366zM408 450l57 210h38l-69 -210h-26z" />
    <glyph glyph-name="lcaron" unicode="&#x13e;" horiz-adv-x="292" 
d="M58 0l132 750h30l-132 -750h-30zM287 540l57 210h38l-69 -210h-26z" />
    <glyph glyph-name="Ldot" unicode="&#x13f;" horiz-adv-x="493" 
d="M61 0l116 660h32l-111 -632h334l-5 -28h-366zM349 360q0 18 11.5 29t26.5 11q16 0 28 -11t12 -29q0 -17 -12 -27.5t-28 -10.5t-27 10.5t-11 27.5z" />
    <glyph glyph-name="ldot" unicode="&#x140;" horiz-adv-x="232" 
d="M58 0l132 750h30l-132 -750h-30zM205 308q0 18 11.5 29t26.5 11q16 0 28 -11t12 -29q0 -17 -12 -27.5t-28 -10.5t-27 10.5t-11 27.5z" />
    <glyph glyph-name="Lslash" unicode="&#x141;" horiz-adv-x="493" 
d="M98 28h334l-5 -28h-366l51 293l-89 -38l5 31l90 38l59 336h32l-57 -325l260 110l-5 -31l-260 -109z" />
    <glyph glyph-name="lslash" unicode="&#x142;" horiz-adv-x="228" 
d="M251 446l-5 -30l-95 -41l-66 -375h-30l64 365l-91 -39l5 30l92 39l62 355h30l-61 -345z" />
    <glyph glyph-name="Nacute" unicode="&#x143;" horiz-adv-x="704" 
d="M643 660h32l-118 -670h-15l-345 609l-104 -599h-32l118 670h15l344 -613zM423 724l126 186h40l-1 -5l-138 -181h-27z" />
    <glyph glyph-name="nacute" unicode="&#x144;" horiz-adv-x="551" 
d="M475 338q0 -12 -6 -54l-51 -284h-30l52 288q5 32 5 46q0 57 -36 92.5t-96 35.5q-64 0 -109.5 -40t-58.5 -108l-57 -314h-30l85 480h30l-11 -66q57 76 153 76q72 0 116 -42.5t44 -109.5zM316 562l134 218h40v-5l-145 -213h-29z" />
    <glyph glyph-name="uni0145" unicode="&#x145;" horiz-adv-x="704" 
d="M643 660h32l-118 -670h-15l-345 609l-104 -599h-32l118 670h15l344 -613zM239 -220l44 168h36l-54 -168h-26z" />
    <glyph glyph-name="uni0146" unicode="&#x146;" horiz-adv-x="551" 
d="M475 338q0 -12 -6 -54l-51 -284h-30l52 288q5 32 5 46q0 57 -36 92.5t-96 35.5q-64 0 -109.5 -40t-58.5 -108l-57 -314h-30l85 480h30l-11 -66q57 76 153 76q72 0 116 -42.5t44 -109.5zM171 -220l44 168h36l-54 -168h-26z" />
    <glyph glyph-name="Ncaron" unicode="&#x147;" horiz-adv-x="704" 
d="M643 660h32l-118 -670h-15l-345 609l-104 -599h-32l118 670h15l344 -613zM593 910h30l-179 -186h-15l-113 186h25l101 -146z" />
    <glyph glyph-name="ncaron" unicode="&#x148;" horiz-adv-x="551" 
d="M475 338q0 -12 -6 -54l-51 -284h-30l52 288q5 32 5 46q0 57 -36 92.5t-96 35.5q-64 0 -109.5 -40t-58.5 -108l-57 -314h-30l85 480h30l-11 -66q57 76 153 76q72 0 116 -42.5t44 -109.5zM495 780h29l-174 -218h-15l-98 218h25l87 -172z" />
    <glyph glyph-name="Eng" unicode="&#x14a;" horiz-adv-x="703" 
d="M641 660h32l-127 -728q-23 -122 -140 -122q-34 0 -65 11l5 27q34 -8 61 -8q90 0 107 95l12 68l-327 593l-105 -596h-32l117 670h15l340 -620z" />
    <glyph glyph-name="eng" unicode="&#x14b;" horiz-adv-x="550" 
d="M474 338q0 -24 -6 -54l-61 -345q-23 -129 -140 -129q-34 0 -65 11l5 26q30 -9 61 -9q90 0 110 105l61 345q5 32 5 44q0 58 -36 94t-96 36q-64 0 -109.5 -40t-58.5 -108l-56 -314h-30l84 480h30l-11 -66q57 76 153 76q72 0 116 -42.5t44 -109.5z" />
    <glyph glyph-name="Omacron" unicode="&#x14c;" horiz-adv-x="784" 
d="M74 304q-2 96 48 181.5t134.5 136t179.5 48.5q130 2 219 -89t87 -224q4 -147 -106.5 -258.5t-255.5 -108.5q-129 -2 -218.5 90t-87.5 224zM708 357q2 119 -77.5 201.5t-195.5 80.5q-132 2 -231 -99t-96 -236q-2 -120 77.5 -202.5t195.5 -80.5q130 -3 229.5 99.5
t97.5 236.5zM352 782l5 28h272l-5 -28h-272z" />
    <glyph glyph-name="omacron" unicode="&#x14d;" horiz-adv-x="610" 
d="M58 226q-2 107 77 186.5t185 77.5q99 0 166 -67.5t67 -167.5q2 -107 -78 -187t-186 -78q-99 0 -165 67.5t-66 168.5zM521 254q0 88 -58 147.5t-144 59.5q-95 0 -162 -69t-67 -166q0 -90 56.5 -148.5t143.5 -58.5q95 0 163 69t68 166zM232 653l5 28h252l-5 -28h-252z" />
    <glyph glyph-name="Obreve" unicode="&#x14e;" horiz-adv-x="784" 
d="M74 304q-2 96 48 181.5t134.5 136t179.5 48.5q130 2 219 -89t87 -224q4 -147 -106.5 -258.5t-255.5 -108.5q-129 -2 -218.5 90t-87.5 224zM708 357q2 119 -77.5 201.5t-195.5 80.5q-132 2 -231 -99t-96 -236q-2 -120 77.5 -202.5t195.5 -80.5q130 -3 229.5 99.5
t97.5 236.5zM369 853q0 22 7 57h30q-7 -35 -7 -53q0 -44 26.5 -70.5t69.5 -26.5q44 0 74.5 28.5t38.5 79.5l7 42h30l-7 -42q-11 -63 -49.5 -99.5t-95.5 -36.5q-53 0 -88.5 34.5t-35.5 86.5z" />
    <glyph glyph-name="obreve" unicode="&#x14f;" horiz-adv-x="610" 
d="M58 226q-2 107 77 186.5t185 77.5q99 0 166 -67.5t67 -167.5q2 -107 -78 -187t-186 -78q-99 0 -165 67.5t-66 168.5zM521 254q0 88 -58 147.5t-144 59.5q-95 0 -162 -69t-67 -166q0 -90 56.5 -148.5t143.5 -58.5q95 0 163 69t68 166zM223 696q0 22 7 57h30q-7 -35 -7 -53
q0 -44 26.5 -70.5t69.5 -26.5q44 0 74.5 28.5t38.5 79.5l7 42h30l-7 -42q-11 -63 -49.5 -99.5t-95.5 -36.5q-53 0 -88.5 34.5t-35.5 86.5z" />
    <glyph glyph-name="Ohungarumlaut" unicode="&#x150;" horiz-adv-x="784" 
d="M74 304q-2 96 48 181.5t134.5 136t179.5 48.5q130 2 219 -89t87 -224q4 -147 -106.5 -258.5t-255.5 -108.5q-129 -2 -218.5 90t-87.5 224zM708 357q2 119 -77.5 201.5t-195.5 80.5q-132 2 -231 -99t-96 -236q-2 -120 77.5 -202.5t195.5 -80.5q130 -3 229.5 99.5
t97.5 236.5zM350 724l129 186h39l-1 -5l-138 -181h-29zM554 724l129 186h39l-1 -5l-138 -181h-29z" />
    <glyph glyph-name="ohungarumlaut" unicode="&#x151;" horiz-adv-x="610" 
d="M58 226q-2 107 77 186.5t185 77.5q99 0 166 -67.5t67 -167.5q2 -107 -78 -187t-186 -78q-99 0 -165 67.5t-66 168.5zM521 254q0 88 -58 147.5t-144 59.5q-95 0 -162 -69t-67 -166q0 -90 56.5 -148.5t143.5 -58.5q95 0 163 69t68 166zM231 562l134 218h40l-1 -5l-144 -213
h-29zM415 562l134 218h40l-1 -5l-144 -213h-29z" />
    <glyph glyph-name="OE" unicode="&#x152;" horiz-adv-x="1152" 
d="M1168 632h-374l-45 -259h294l-5 -28h-294l-56 -317h386l-5 -28h-418l28 158q-39 -76 -119 -123q-80 -45 -178 -45q-130 -2 -220 90t-88 223q-3 149 108.5 259.5t262.5 107.5q106 0 188 -61.5t99 -152.5l35 204h406zM713 380q0 113 -76.5 186.5t-193.5 73.5
q-136 3 -237 -98.5t-98 -238.5q0 -122 79.5 -202.5t200.5 -80.5q135 -3 231 104t94 256z" />
    <glyph glyph-name="oe" unicode="&#x153;" horiz-adv-x="1008" 
d="M949 237h-410v-11q0 -91 55 -149.5t140 -58.5q101 0 170 75l19 -19q-35 -40 -85.5 -62t-104.5 -22q-78 0 -136 44.5t-78 119.5q-28 -71 -94 -119q-65 -45 -142 -45q-95 0 -160 68t-65 168q-2 105 76.5 185.5t181.5 78.5q77 0 135 -45t78 -118q28 71 91 117q62 45 137 45
q87 0 143.5 -56.5t56.5 -142.5q0 -29 -8 -53zM510 254q0 88 -56.5 148t-139.5 60q-91 0 -157.5 -70t-66.5 -167q0 -89 55.5 -148t138.5 -59q89 -2 158.5 70t67.5 166zM542 265h382q1 5 1 24q0 77 -46.5 124.5t-121.5 47.5q-81 0 -142 -56t-73 -140z" />
    <glyph glyph-name="Racute" unicode="&#x154;" horiz-adv-x="608" 
d="M360 312l183 -312h-37l-182 311h-176l-55 -311h-32l116 660h199q85 0 133.5 -42.5t48.5 -117.5q0 -80 -54 -131.5t-144 -56.5zM204 632l-51 -293h186q85 0 135 43.5t50 117.5q0 64 -39.5 98t-114.5 34h-166zM335 724l126 186h40l-1 -5l-138 -181h-27z" />
    <glyph glyph-name="racute" unicode="&#x155;" horiz-adv-x="341" 
d="M365 476l-4 -24q-24 3 -38 3q-67 0 -119 -41q-51 -42 -61 -104l-55 -310h-30l85 480h30l-13 -72q59 74 161 74q25 0 44 -6zM200 562l134 218h40v-5l-145 -213h-29z" />
    <glyph glyph-name="uni0156" unicode="&#x156;" horiz-adv-x="608" 
d="M360 312l183 -312h-37l-182 311h-176l-55 -311h-32l116 660h199q85 0 133.5 -42.5t48.5 -117.5q0 -80 -54 -131.5t-144 -56.5zM204 632l-51 -293h186q85 0 135 43.5t50 117.5q0 64 -39.5 98t-114.5 34h-166zM191 -220l44 168h36l-54 -168h-26z" />
    <glyph glyph-name="uni0157" unicode="&#x157;" horiz-adv-x="341" 
d="M365 476l-4 -24q-24 3 -38 3q-67 0 -119 -41q-51 -42 -61 -104l-55 -310h-30l85 480h30l-13 -72q59 74 161 74q25 0 44 -6zM2 -220l44 168h36l-54 -168h-26z" />
    <glyph glyph-name="Rcaron" unicode="&#x158;" horiz-adv-x="608" 
d="M360 312l183 -312h-37l-182 311h-176l-55 -311h-32l116 660h199q85 0 133.5 -42.5t48.5 -117.5q0 -80 -54 -131.5t-144 -56.5zM204 632l-51 -293h186q85 0 135 43.5t50 117.5q0 64 -39.5 98t-114.5 34h-166zM505 910h30l-179 -186h-15l-113 186h25l101 -146z" />
    <glyph glyph-name="rcaron" unicode="&#x159;" horiz-adv-x="341" 
d="M365 476l-4 -24q-24 3 -38 3q-67 0 -119 -41q-51 -42 -61 -104l-55 -310h-30l85 480h30l-13 -72q59 74 161 74q25 0 44 -6zM379 780h29l-174 -218h-15l-98 218h25l87 -172z" />
    <glyph glyph-name="Sacute" unicode="&#x15a;" horiz-adv-x="555" 
d="M32 145l29 14q75 -139 211 -139q72 0 117 39.5t45 103.5q0 42 -24.5 75.5t-81.5 67.5l-73 44q-118 71 -118 157q0 70 54 116.5t135 46.5q132 0 198 -113l-26 -16q-64 99 -172 99q-69 0 -112 -36.5t-43 -94.5q0 -39 24 -69.5t81 -65.5l69 -42q63 -39 93 -79t30 -89
q0 -75 -56.5 -124.5t-141.5 -49.5q-157 0 -238 155zM345 724l126 186h40l-1 -5l-138 -181h-27z" />
    <glyph glyph-name="sacute" unicode="&#x15b;" horiz-adv-x="455" 
d="M40 101l26 17q54 -100 154 -100q53 0 88.5 28t35.5 70q0 30 -22 52.5t-78 52.5l-41 22q-54 29 -77 58t-23 68q0 52 41.5 86.5t104.5 34.5q93 0 148 -80l-23 -19q-53 71 -126 71q-50 0 -81.5 -26t-31.5 -66q0 -31 19 -53.5t67 -48.5l43 -23q59 -32 85.5 -61.5t26.5 -68.5
q0 -55 -44.5 -90t-113.5 -35q-117 0 -178 111zM246 562l134 218h40v-5l-145 -213h-29z" />
    <glyph glyph-name="Scircumflex" unicode="&#x15c;" horiz-adv-x="555" 
d="M32 145l29 14q75 -139 211 -139q72 0 117 39.5t45 103.5q0 42 -24.5 75.5t-81.5 67.5l-73 44q-118 71 -118 157q0 70 54 116.5t135 46.5q132 0 198 -113l-26 -16q-64 99 -172 99q-69 0 -112 -36.5t-43 -94.5q0 -39 24 -69.5t81 -65.5l69 -42q63 -39 93 -79t30 -89
q0 -75 -56.5 -124.5t-141.5 -49.5q-157 0 -238 155zM512 724h-25l-101 146l-151 -146h-30l179 186h15z" />
    <glyph glyph-name="scircumflex" unicode="&#x15d;" horiz-adv-x="455" 
d="M40 101l26 17q54 -100 154 -100q53 0 88.5 28t35.5 70q0 30 -22 52.5t-78 52.5l-41 22q-54 29 -77 58t-23 68q0 52 41.5 86.5t104.5 34.5q93 0 148 -80l-23 -19q-53 71 -126 71q-50 0 -81.5 -26t-31.5 -66q0 -31 19 -53.5t67 -48.5l43 -23q59 -32 85.5 -61.5t26.5 -68.5
q0 -55 -44.5 -90t-113.5 -35q-117 0 -178 111zM414 562h-25l-87 172l-146 -172h-29l174 218h15z" />
    <glyph glyph-name="Scedilla" unicode="&#x15e;" horiz-adv-x="555" 
d="M32 145l29 14q75 -139 211 -139q72 0 117 39.5t45 103.5q0 42 -24.5 75.5t-81.5 67.5l-73 44q-118 71 -118 157q0 70 54 116.5t135 46.5q132 0 198 -113l-26 -16q-64 99 -172 99q-69 0 -112 -36.5t-43 -94.5q0 -39 24 -69.5t81 -65.5l69 -42q63 -39 93 -79t30 -89
q0 -75 -56.5 -124.5t-141.5 -49.5q-157 0 -238 155zM91 -176l5 26q46 -11 66 -11q41 0 66 23.5t25 61.5q0 39 -40 76l14 10q57 -31 57 -90q0 -46 -35 -78t-84 -32q-34 0 -74 14z" />
    <glyph glyph-name="scedilla" unicode="&#x15f;" horiz-adv-x="455" 
d="M40 101l26 17q54 -100 154 -100q53 0 88.5 28t35.5 70q0 30 -22 52.5t-78 52.5l-41 22q-54 29 -77 58t-23 68q0 52 41.5 86.5t104.5 34.5q93 0 148 -80l-23 -19q-53 71 -126 71q-50 0 -81.5 -26t-31.5 -66q0 -31 19 -53.5t67 -48.5l43 -23q59 -32 85.5 -61.5t26.5 -68.5
q0 -55 -44.5 -90t-113.5 -35q-117 0 -178 111zM73 -176l5 26q46 -11 66 -11q41 0 66 23.5t25 61.5q0 39 -40 76l14 10q57 -31 57 -90q0 -46 -35 -78t-84 -32q-34 0 -74 14z" />
    <glyph glyph-name="Scaron" unicode="&#x160;" horiz-adv-x="555" 
d="M32 145l29 14q75 -139 211 -139q72 0 117 39.5t45 103.5q0 42 -24.5 75.5t-81.5 67.5l-73 44q-118 71 -118 157q0 70 54 116.5t135 46.5q132 0 198 -113l-26 -16q-64 99 -172 99q-69 0 -112 -36.5t-43 -94.5q0 -39 24 -69.5t81 -65.5l69 -42q63 -39 93 -79t30 -89
q0 -75 -56.5 -124.5t-141.5 -49.5q-157 0 -238 155zM515 910h30l-179 -186h-15l-113 186h25l101 -146z" />
    <glyph glyph-name="scaron" unicode="&#x161;" horiz-adv-x="455" 
d="M40 101l26 17q54 -100 154 -100q53 0 88.5 28t35.5 70q0 30 -22 52.5t-78 52.5l-41 22q-54 29 -77 58t-23 68q0 52 41.5 86.5t104.5 34.5q93 0 148 -80l-23 -19q-53 71 -126 71q-50 0 -81.5 -26t-31.5 -66q0 -31 19 -53.5t67 -48.5l43 -23q59 -32 85.5 -61.5t26.5 -68.5
q0 -55 -44.5 -90t-113.5 -35q-117 0 -178 111zM425 780h29l-174 -218h-15l-98 218h25l87 -172z" />
    <glyph glyph-name="uni0162" unicode="&#x162;" horiz-adv-x="584" 
d="M234 0l111 632h-249l5 28h530l-5 -28h-249l-111 -632h-32zM112 -176l5 26q46 -11 66 -11q41 0 66 23.5t25 61.5q0 39 -40 76l14 10q57 -31 57 -90q0 -46 -35 -78t-84 -32q-34 0 -74 14z" />
    <glyph glyph-name="uni0163" unicode="&#x163;" horiz-adv-x="350" 
d="M184 452l-56 -318q-3 -16 -3 -30q0 -86 114 -86q17 0 47 3l-5 -26q-22 -5 -48 -5q-67 0 -102.5 28.5t-35.5 82.5q0 19 3 35l56 316h-86l4 28h87l25 140h30l-25 -140h159l-4 -28h-160zM41 -176l5 26q46 -11 66 -11q41 0 66 23.5t25 61.5q0 39 -40 76l14 10q57 -31 57 -90
q0 -46 -35 -78t-84 -32q-34 0 -74 14z" />
    <glyph glyph-name="Tcaron" unicode="&#x164;" horiz-adv-x="584" 
d="M234 0l111 632h-249l5 28h530l-5 -28h-249l-111 -632h-32zM533 910h30l-179 -186h-15l-113 186h25l101 -146z" />
    <glyph glyph-name="tcaron" unicode="&#x165;" horiz-adv-x="350" 
d="M184 452l-56 -318q-3 -16 -3 -30q0 -86 114 -86q17 0 47 3l-5 -26q-22 -5 -48 -5q-67 0 -102.5 28.5t-35.5 82.5q0 19 3 35l56 316h-86l4 28h87l25 140h30l-25 -140h159l-4 -28h-160zM292 540l57 210h38l-69 -210h-26z" />
    <glyph glyph-name="Tbar" unicode="&#x166;" horiz-adv-x="584" 
d="M626 632h-249l-56 -318h210l-5 -28h-210l-50 -286h-32l50 286h-210l5 28h210l56 318h-249l5 28h530z" />
    <glyph glyph-name="tbar" unicode="&#x167;" horiz-adv-x="367" 
d="M344 452h-150l-33 -188h156l-4 -28h-157l-18 -102q-3 -16 -3 -30q0 -86 114 -86q17 0 47 3l-5 -26q-22 -5 -48 -5q-138 0 -138 111q0 19 3 35l18 100h-89l4 28h90l33 188h-96l4 28h97l25 140h30l-25 -140h149z" />
    <glyph glyph-name="Utilde" unicode="&#x168;" horiz-adv-x="679" 
d="M93 211q0 25 5 57l68 392h32l-69 -395q-4 -20 -4 -51q0 -86 55.5 -140t143.5 -54t149 55q62 55 79 147l75 438h32l-76 -441q-18 -105 -89 -167t-170 -62q-101 0 -166 62t-65 159zM445 783l-32 26q-27 21 -43 21q-20 0 -30.5 -15.5t-15.5 -50.5h-29q12 94 74 94
q19 0 31 -6t32 -23l31 -26q25 -21 44 -21q20 0 30.5 15.5t15.5 50.5h29q-10 -94 -76 -94q-26 0 -61 29z" />
    <glyph glyph-name="utilde" unicode="&#x169;" horiz-adv-x="541" 
d="M78 151q0 21 3 38l51 291h30l-52 -294q-3 -17 -3 -34q0 -59 39 -96.5t102 -37.5q59 0 103 38.5t55 102.5l57 321h30l-57 -323q-13 -75 -67 -121q-52 -46 -124 -46q-73 0 -120 45t-47 116zM335 642l-20 27q-19 25 -40 25q-20 0 -30.5 -16.5t-15.5 -53.5h-29q11 98 74 98
q36 0 60 -33l20 -27q19 -25 40 -25q20 0 30.5 16.5t15.5 53.5h29q-11 -98 -74 -98q-36 0 -60 33z" />
    <glyph glyph-name="Umacron" unicode="&#x16a;" horiz-adv-x="679" 
d="M93 211q0 25 5 57l68 392h32l-69 -395q-4 -20 -4 -51q0 -86 55.5 -140t143.5 -54t149 55q62 55 79 147l75 438h32l-76 -441q-18 -105 -89 -167t-170 -62q-101 0 -166 62t-65 159zM299 782l5 28h272l-5 -28h-272z" />
    <glyph glyph-name="umacron" unicode="&#x16b;" horiz-adv-x="541" 
d="M78 151q0 21 3 38l51 291h30l-52 -294q-3 -17 -3 -34q0 -59 39 -96.5t102 -37.5q59 0 103 38.5t55 102.5l57 321h30l-57 -323q-13 -75 -67 -121q-52 -46 -124 -46q-73 0 -120 45t-47 116zM207 653l5 28h252l-5 -28h-252z" />
    <glyph glyph-name="Ubreve" unicode="&#x16c;" horiz-adv-x="679" 
d="M93 211q0 25 5 57l68 392h32l-69 -395q-4 -20 -4 -51q0 -86 55.5 -140t143.5 -54t149 55q62 55 79 147l75 438h32l-76 -441q-18 -105 -89 -167t-170 -62q-101 0 -166 62t-65 159zM316 853q0 22 7 57h30q-7 -35 -7 -53q0 -44 26.5 -70.5t69.5 -26.5q44 0 74.5 28.5
t38.5 79.5l7 42h30l-7 -42q-11 -63 -49.5 -99.5t-95.5 -36.5q-53 0 -88.5 34.5t-35.5 86.5z" />
    <glyph glyph-name="ubreve" unicode="&#x16d;" horiz-adv-x="541" 
d="M78 151q0 21 3 38l51 291h30l-52 -294q-3 -17 -3 -34q0 -59 39 -96.5t102 -37.5q59 0 103 38.5t55 102.5l57 321h30l-57 -323q-13 -75 -67 -121q-52 -46 -124 -46q-73 0 -120 45t-47 116zM198 696q0 22 7 57h30q-7 -35 -7 -53q0 -44 26.5 -70.5t69.5 -26.5
q44 0 74.5 28.5t38.5 79.5l7 42h30l-7 -42q-11 -63 -49.5 -99.5t-95.5 -36.5q-53 0 -88.5 34.5t-35.5 86.5z" />
    <glyph glyph-name="Uring" unicode="&#x16e;" horiz-adv-x="679" 
d="M93 211q0 25 5 57l68 392h32l-69 -395q-4 -20 -4 -51q0 -86 55.5 -140t143.5 -54t149 55q62 55 79 147l75 438h32l-76 -441q-18 -105 -89 -167t-170 -62q-101 0 -166 62t-65 159zM343 809q0 41 30 71q31 30 74 30q40 0 67 -27t27 -65q0 -41 -31 -72q-30 -30 -73 -30
q-39 0 -66.5 27t-27.5 66zM510 816q0 28 -18.5 47t-46.5 19q-29 0 -50 -21t-21 -51q0 -28 18.5 -47t45.5 -19q30 0 51 21.5t21 50.5z" />
    <glyph glyph-name="uring" unicode="&#x16f;" horiz-adv-x="541" 
d="M78 151q0 21 3 38l51 291h30l-52 -294q-3 -17 -3 -34q0 -59 39 -96.5t102 -37.5q59 0 103 38.5t55 102.5l57 321h30l-57 -323q-13 -75 -67 -121q-52 -46 -124 -46q-73 0 -120 45t-47 116zM238 662q0 41 30 71q31 30 74 30q40 0 67 -27t27 -65q0 -41 -31 -72
q-30 -30 -73 -30q-39 0 -66.5 27t-27.5 66zM405 669q0 28 -18.5 47t-46.5 19q-29 0 -50 -21t-21 -51q0 -28 18.5 -47t45.5 -19q30 0 51 21.5t21 50.5z" />
    <glyph glyph-name="Uhungarumlaut" unicode="&#x170;" horiz-adv-x="679" 
d="M93 211q0 25 5 57l68 392h32l-69 -395q-4 -20 -4 -51q0 -86 55.5 -140t143.5 -54t149 55q62 55 79 147l75 438h32l-76 -441q-18 -105 -89 -167t-170 -62q-101 0 -166 62t-65 159zM297 724l129 186h39l-1 -5l-138 -181h-29zM501 724l129 186h39l-1 -5l-138 -181h-29z" />
    <glyph glyph-name="uhungarumlaut" unicode="&#x171;" horiz-adv-x="541" 
d="M78 151q0 21 3 38l51 291h30l-52 -294q-3 -17 -3 -34q0 -59 39 -96.5t102 -37.5q59 0 103 38.5t55 102.5l57 321h30l-57 -323q-13 -75 -67 -121q-52 -46 -124 -46q-73 0 -120 45t-47 116zM206 562l134 218h40l-1 -5l-144 -213h-29zM390 562l134 218h40l-1 -5l-144 -213
h-29z" />
    <glyph glyph-name="Uogonek" unicode="&#x172;" horiz-adv-x="679" 
d="M93 211q0 25 5 57l68 392h32l-69 -395q-4 -20 -4 -51q0 -86 55.5 -140t143.5 -54t149 55q62 55 79 147l75 438h32l-76 -441q-18 -105 -89 -167t-170 -62q-101 0 -166 62t-65 159zM314 -119q0 25 12 48q13 23 46 53q38 35 110 94l35 -2l-102 -92q-69 -62 -69 -99
q0 -45 71 -45q21 0 46 3l-4 -26q-30 -5 -50 -5q-42 0 -68.5 19t-26.5 52z" />
    <glyph glyph-name="uogonek" unicode="&#x173;" horiz-adv-x="541" 
d="M463 480h30l-57 -323q-7 -43 -24 -70q-15 -27 -38 -47q-17 -14 -72 -53q-58 -41 -78 -60q-19 -19 -19 -42q0 -47 71 -47q20 0 46 3l-4 -26q-30 -5 -50 -5q-43 0 -69 18.5t-26 53.5q0 27 20 51.5t69 57.5q-4 -1 -18 -1q-72 0 -119 45.5t-47 115.5q0 21 3 38l51 291h30
l-52 -294q-3 -17 -3 -34q0 -59 39.5 -96.5t100.5 -37.5t104 38t55 103z" />
    <glyph glyph-name="Wcircumflex" unicode="&#x174;" horiz-adv-x="1077" 
d="M1052 660h34l-357 -670h-15l-121 613l-336 -613h-15l-123 670h31l109 -608l337 618h15l120 -615zM783 724h-25l-101 146l-151 -146h-30l179 186h15z" />
    <glyph glyph-name="wcircumflex" unicode="&#x175;" horiz-adv-x="842" 
d="M807 480h33l-269 -490h-15l-109 439l-260 -439h-15l-101 490h32l86 -432l259 442h15l107 -445zM612 562h-25l-87 172l-146 -172h-29l174 218h15z" />
    <glyph glyph-name="Ycircumflex" unicode="&#x176;" horiz-adv-x="610" 
d="M619 660l-296 -375l-50 -285h-32l50 287l-164 373h31l152 -346l272 346h37zM536 724h-25l-101 146l-151 -146h-30l179 186h15z" />
    <glyph glyph-name="ycircumflex" unicode="&#x177;" horiz-adv-x="552" 
d="M464 480h30l-87 -492q-14 -82 -68 -130t-131 -48q-58 0 -107 29t-78 82l25 17q56 -100 161 -100q65 0 110 40.5t58 111.5l13 74q-56 -74 -152 -74q-71 0 -115.5 42t-44.5 110q0 12 6 54l50 284h30l-51 -288q-5 -32 -5 -44q0 -58 36 -94t96 -36q64 0 109.5 40t58.5 108z
M470 562h-25l-87 172l-146 -172h-29l174 218h15z" />
    <glyph glyph-name="Ydieresis" unicode="&#x178;" horiz-adv-x="610" 
d="M619 660l-296 -375l-50 -285h-32l50 287l-164 373h31l152 -346l272 346h37zM253 806q0 14 10 24t24 10t24 -10t10 -24t-10 -24t-24 -10t-24 10t-10 24zM474 806q0 14 10 24t24 10t24 -10t10 -24t-10 -24t-24 -10t-24 10t-10 24z" />
    <glyph glyph-name="Zacute" unicode="&#x179;" horiz-adv-x="590" 
d="M623 660l-2 -12l-568 -620h460l-5 -28h-508l2 12l568 620h-415l5 28h463zM369 724l126 186h40l-1 -5l-138 -181h-27z" />
    <glyph glyph-name="zacute" unicode="&#x17a;" horiz-adv-x="447" 
d="M447 480l-2 -12l-396 -440h324l-5 -28h-372l2 12l396 440h-296l5 28h344zM253 562l134 218h40v-5l-145 -213h-29z" />
    <glyph glyph-name="Zdotaccent" unicode="&#x17b;" horiz-adv-x="590" 
d="M623 660l-2 -12l-568 -620h460l-5 -28h-508l2 12l568 620h-415l5 28h463zM364 806q0 14 10 24t24 10t24 -10t10 -24t-10 -24t-24 -10t-24 10t-10 24z" />
    <glyph glyph-name="zdotaccent" unicode="&#x17c;" horiz-adv-x="447" 
d="M447 480l-2 -12l-396 -440h324l-5 -28h-372l2 12l396 440h-296l5 28h344zM263 666q0 14 10 24t24 10t24 -10t10 -24t-10 -24t-24 -10t-24 10t-10 24z" />
    <glyph glyph-name="Zcaron" unicode="&#x17d;" horiz-adv-x="590" 
d="M623 660l-2 -12l-568 -620h460l-5 -28h-508l2 12l568 620h-415l5 28h463zM539 910h30l-179 -186h-15l-113 186h25l101 -146z" />
    <glyph glyph-name="zcaron" unicode="&#x17e;" horiz-adv-x="447" 
d="M447 480l-2 -12l-396 -440h324l-5 -28h-372l2 12l396 440h-296l5 28h344zM432 780h29l-174 -218h-15l-98 218h25l87 -172z" />
    <glyph glyph-name="uni018F" unicode="&#x18f;" horiz-adv-x="729" 
d="M689 369q2 -98 -46 -187t-129 -141.5t-171 -50.5q-124 0 -200 75t-76 199q0 26 6 68h580q2 32 2 37q2 113 -77.5 193t-192.5 78q-71 0 -135.5 -29t-106.5 -79l-22 20q47 55 118 86.5t148 31.5q125 2 214.5 -87t87.5 -214zM649 304h-546q-2 -38 -2 -41q0 -110 67 -176.5
t177 -66.5q108 -2 197.5 82t106.5 202z" />
    <glyph glyph-name="florin" unicode="&#x192;" horiz-adv-x="436" 
d="M499 663l-4 -25q-37 5 -56 5q-88 0 -117 -97l-47 -156h116l-5 -28h-120l-113 -373q-38 -122 -147 -122q-30 0 -59 7l4 25q37 -5 56 -5q87 0 117 97l113 371h-82l5 28h85l48 158q38 122 147 122q30 0 59 -7z" />
    <glyph glyph-name="uni01D4" unicode="&#x1d4;" horiz-adv-x="541" 
d="M78 151q0 21 3 38l51 291h30l-52 -294q-3 -17 -3 -34q0 -59 39 -96.5t102 -37.5q59 0 103 38.5t55 102.5l57 321h30l-57 -323q-13 -75 -67 -121q-52 -46 -124 -46q-73 0 -120 45t-47 116zM471 780h29l-174 -218h-15l-98 218h25l87 -172z" />
    <glyph glyph-name="AEacute" unicode="&#x1fc;" horiz-adv-x="797" 
d="M812 632h-345l1 -259h219l-5 -28h-214l1 -317h250l-5 -28h-276v176h-302l-122 -176h-36l459 660h380zM438 204l-1 405l-281 -405h282zM464 724l126 186h40l-1 -5l-138 -181h-27z" />
    <glyph glyph-name="aeacute" unicode="&#x1fd;" horiz-adv-x="901" 
d="M842 229h-413v-8q0 -89 55.5 -146t141.5 -57q102 0 171 75l19 -19q-76 -84 -191 -84q-77 0 -135.5 42t-80.5 112q-22 -72 -79.5 -113t-137.5 -41q-72 0 -116 34.5t-44 90.5q0 65 51 103.5t138 38.5h177l6 37q4 21 4 34q0 62 -36.5 98t-98.5 36q-79 0 -151 -72l-18 20
q76 80 172 80q66 0 108 -34t51 -93q34 58 91 92t123 34q88 0 144.5 -55.5t56.5 -141.5q0 -26 -8 -63zM431 257h385l2 36q0 75 -47 121.5t-123 46.5q-84 0 -144.5 -57.5t-72.5 -146.5zM385 177l8 52h-176q-73 0 -112.5 -28.5t-39.5 -81.5q0 -47 34.5 -74t92.5 -27
q73 0 128 44q55 46 65 115zM448 562l134 218h40v-5l-145 -213h-29z" />
    <glyph glyph-name="Oslashacute" unicode="&#x1fe;" horiz-adv-x="772" 
d="M758 649l-91 -87q70 -86 70 -205q2 -95 -48.5 -181t-135.5 -137t-180 -49q-129 0 -215 86l-91 -86l-20 21l92 87q-71 87 -71 206q-2 96 48.5 181.5t135.5 136t179 48.5q130 0 216 -86l91 86zM102 304q0 -106 60 -183l462 440q-76 79 -195 79q-131 2 -230.5 -99.5
t-96.5 -236.5zM703 357q0 107 -60 182l-462 -440q74 -79 194 -79q131 -3 231 100t97 237zM458 724l126 186h40l-1 -5l-138 -181h-27z" />
    <glyph glyph-name="oslashacute" unicode="&#x1ff;" horiz-adv-x="625" 
d="M562 465l-57 -58q55 -63 55 -155q2 -104 -78.5 -184t-185.5 -78q-88 0 -152 56l-60 -60l-21 21l60 60q-58 67 -58 161q-2 105 77.5 184.5t184.5 77.5q94 0 158 -61l56 57zM97 227q0 -78 47 -139l320 320q-56 54 -138 54q-94 0 -161.5 -70t-67.5 -165zM528 252
q0 76 -44 134l-319 -319q55 -49 132 -49q92 -2 162.5 69t68.5 165zM338 562l134 218h40v-5l-145 -213h-29z" />
    <glyph glyph-name="uni0218" unicode="&#x218;" horiz-adv-x="555" 
d="M32 145l29 14q75 -139 211 -139q72 0 117 39.5t45 103.5q0 42 -24.5 75.5t-81.5 67.5l-73 44q-118 71 -118 157q0 70 54 116.5t135 46.5q132 0 198 -113l-26 -16q-64 99 -172 99q-69 0 -112 -36.5t-43 -94.5q0 -39 24 -69.5t81 -65.5l69 -42q63 -39 93 -79t30 -89
q0 -75 -56.5 -124.5t-141.5 -49.5q-157 0 -238 155zM161 -220l44 168h36l-54 -168h-26z" />
    <glyph glyph-name="uni0219" unicode="&#x219;" horiz-adv-x="455" 
d="M40 101l26 17q54 -100 154 -100q53 0 88.5 28t35.5 70q0 30 -22 52.5t-78 52.5l-41 22q-54 29 -77 58t-23 68q0 52 41.5 86.5t104.5 34.5q93 0 148 -80l-23 -19q-53 71 -126 71q-50 0 -81.5 -26t-31.5 -66q0 -31 19 -53.5t67 -48.5l43 -23q59 -32 85.5 -61.5t26.5 -68.5
q0 -55 -44.5 -90t-113.5 -35q-117 0 -178 111zM143 -220l44 168h36l-54 -168h-26z" />
    <glyph glyph-name="uni021A" unicode="&#x21a;" horiz-adv-x="584" 
d="M234 0l111 632h-249l5 28h530l-5 -28h-249l-111 -632h-32zM182 -220l44 168h36l-54 -168h-26z" />
    <glyph glyph-name="uni021B" unicode="&#x21b;" horiz-adv-x="350" 
d="M184 452l-56 -318q-3 -16 -3 -30q0 -86 114 -86q17 0 47 3l-5 -26q-22 -5 -48 -5q-67 0 -102.5 28.5t-35.5 82.5q0 19 3 35l56 316h-86l4 28h87l25 140h30l-25 -140h159l-4 -28h-160zM111 -220l44 168h36l-54 -168h-26z" />
    <glyph glyph-name="uni0237" unicode="&#x237;" horiz-adv-x="231" 
d="M-128 -179l5 26q30 -9 61 -9q93 0 109 97l96 545h30l-96 -548q-22 -122 -140 -122q-34 0 -65 11z" />
    <glyph glyph-name="uni0259" unicode="&#x259;" horiz-adv-x="563" 
d="M505 255q2 -107 -75 -187t-179 -78q-88 0 -145 54t-57 136q0 31 8 58h416v16q0 91 -56 149.5t-142 58.5q-98 0 -165 -75l-19 19q71 84 185 84q98 0 163.5 -67.5t65.5 -167.5zM469 210h-386q-2 -24 -2 -29q0 -72 47.5 -117.5t122.5 -45.5q81 0 142.5 54.5t75.5 137.5z" />
    <glyph glyph-name="circumflex" unicode="&#x2c6;" horiz-adv-x="500" 
d="M450 562h-25l-87 172l-146 -172h-29l174 218h15z" />
    <glyph glyph-name="caron" unicode="&#x2c7;" horiz-adv-x="500" 
d="M459 780h29l-174 -218h-15l-98 218h25l87 -172z" />
    <glyph glyph-name="breve" unicode="&#x2d8;" horiz-adv-x="500" 
d="M199 696q0 22 7 57h30q-7 -35 -7 -53q0 -44 26.5 -70.5t69.5 -26.5q44 0 74.5 28.5t38.5 79.5l7 42h30l-7 -42q-11 -63 -49.5 -99.5t-95.5 -36.5q-53 0 -88.5 34.5t-35.5 86.5z" />
    <glyph glyph-name="dotaccent" unicode="&#x2d9;" horiz-adv-x="500" 
d="M291 666q0 14 10 24t24 10t24 -10t10 -24t-10 -24t-24 -10t-24 10t-10 24z" />
    <glyph glyph-name="ring" unicode="&#x2da;" horiz-adv-x="500" 
d="M226 662q0 41 30 71q32 30 74 30q40 0 67 -27t27 -65q0 -41 -31 -72q-30 -30 -73 -30q-39 0 -66.5 27t-27.5 66zM393 669q0 28 -18.5 47t-46.5 19q-29 0 -50 -21t-21 -51q0 -28 18.5 -47t45.5 -19q30 0 51 21.5t21 50.5z" />
    <glyph glyph-name="ogonek" unicode="&#x2db;" horiz-adv-x="500" 
d="M109 -119q0 37 37 68q38 31 134 71l6 -20l-73 -40q-39 -22 -55.5 -39.5t-16.5 -37.5q0 -45 71 -45q20 0 46 3l-4 -26q-30 -5 -50 -5q-43 0 -69 19.5t-26 51.5z" />
    <glyph glyph-name="tilde" unicode="&#x2dc;" horiz-adv-x="500" 
d="M325 642l-20 27q-19 25 -40 25q-20 0 -30.5 -16.5t-15.5 -53.5h-29q11 98 74 98q36 0 60 -33l20 -27q19 -25 40 -25q20 0 30.5 16.5t15.5 53.5h29q-11 -98 -74 -98q-36 0 -60 33z" />
    <glyph glyph-name="hungarumlaut" unicode="&#x2dd;" horiz-adv-x="500" 
d="M147 562l134 218h40l-1 -5l-144 -213h-29zM331 562l134 218h40l-1 -5l-144 -213h-29z" />
    <glyph glyph-name="gravecomb" unicode="&#x300;" horiz-adv-x="0" 
d="M-169 562l-34 213l2 5h33l22 -218h-23z" />
    <glyph glyph-name="acutecomb" unicode="&#x301;" horiz-adv-x="0" 
d="M-261 562l134 218h40v-5l-145 -213h-29z" />
    <glyph glyph-name="uni0302" unicode="&#x302;" horiz-adv-x="0" 
d="M-50 562h-25l-87 172l-146 -172h-29l174 218h15z" />
    <glyph glyph-name="tildecomb" unicode="&#x303;" horiz-adv-x="0" 
d="M-174 642l-20 27q-19 25 -40 25q-20 0 -30.5 -16.5t-15.5 -53.5h-29q11 98 74 98q36 0 60 -33l20 -27q19 -25 40 -25q20 0 30.5 16.5t15.5 53.5h29q-11 -98 -74 -98q-36 0 -60 33z" />
    <glyph glyph-name="uni0304" unicode="&#x304;" horiz-adv-x="0" 
d="M-303 653l5 28h252l-5 -28h-252z" />
    <glyph glyph-name="uni0306" unicode="&#x306;" horiz-adv-x="0" 
d="M-301 696q0 22 7 57h30q-7 -35 -7 -53q0 -44 26.5 -70.5t69.5 -26.5q44 0 74.5 28.5t38.5 79.5l7 42h30l-7 -42q-11 -63 -49.5 -99.5t-95.5 -36.5q-53 0 -88.5 34.5t-35.5 86.5z" />
    <glyph glyph-name="uni0307" unicode="&#x307;" horiz-adv-x="0" 
d="M-209 666q0 14 10 24t24 10t24 -10t10 -24t-10 -24t-24 -10t-24 10t-10 24z" />
    <glyph glyph-name="uni0308" unicode="&#x308;" horiz-adv-x="0" 
d="M-309 666q0 14 10 24t24 10t24 -10t10 -24t-10 -24t-24 -10t-24 10t-10 24zM-108 666q0 14 10 24t24 10t24 -10t10 -24t-10 -24t-24 -10t-24 10t-10 24z" />
    <glyph glyph-name="uni030A" unicode="&#x30a;" horiz-adv-x="0" 
d="M-274 662q0 41 31 71q30 30 73 30q40 0 67 -27t27 -65q0 -41 -30 -72q-32 -30 -74 -30q-39 0 -66.5 27t-27.5 66zM-107 669q0 28 -18.5 47t-46.5 19q-29 0 -50 -21t-21 -51q0 -28 18.5 -47t45.5 -19q30 0 51 21.5t21 50.5z" />
    <glyph glyph-name="uni030B" unicode="&#x30b;" horiz-adv-x="0" 
d="M-353 562l134 218h40l-1 -5l-144 -213h-29zM-169 562l134 218h40l-1 -5l-144 -213h-29z" />
    <glyph glyph-name="uni030C" unicode="&#x30c;" horiz-adv-x="0" 
d="M-40 780h29l-174 -218h-15l-98 218h25l87 -172z" />
    <glyph glyph-name="uni0326" unicode="&#x326;" horiz-adv-x="0" 
d="M-356 -220l44 168h36l-54 -168h-26z" />
    <glyph glyph-name="uni0327" unicode="&#x327;" horiz-adv-x="0" 
d="M-412 -176l5 26q46 -11 66 -11q41 0 66 23.5t25 61.5q0 39 -40 76l14 10q57 -31 57 -90q0 -47 -34 -78q-35 -32 -85 -32q-34 0 -74 14z" />
    <glyph glyph-name="uni0328" unicode="&#x328;" horiz-adv-x="0" 
d="M-391 -119q0 36 38 68q39 32 133 71l6 -20l-73 -40q-39 -22 -55.5 -39.5t-16.5 -37.5q0 -45 71 -45q20 0 46 3l-4 -26q-30 -5 -50 -5q-43 0 -69 19.5t-26 51.5z" />
    <glyph glyph-name="tonos" unicode="&#x384;" horiz-adv-x="500" 
d="M278 562l58 218h38l-1 -5l-68 -213h-27z" />
    <glyph glyph-name="dieresistonos" unicode="&#x385;" horiz-adv-x="500" 
d="M282 562l58 218h37v-5l-68 -213h-27zM171 666q0 14 10 24t24 10t24 -10t10 -24t-10 -24t-24 -10t-24 10t-10 24zM412 666q0 14 10 24t24 10t24 -10t10 -24t-10 -24t-24 -10t-24 10t-10 24z" />
    <glyph glyph-name="Alphatonos" unicode="&#x386;" horiz-adv-x="666" 
d="M552 0l-43 176h-362l-103 -176h-36l398 670h15l162 -670h-31zM503 204l-99 407l-241 -407h340zM116 450l57 210h38l-69 -210h-26z" />
    <glyph glyph-name="anoteleia" unicode="&#x387;" horiz-adv-x="281" 
d="M114 308q0 18 11 29t27 11t28 -11t12 -29q0 -17 -12 -27.5t-28 -10.5t-27 10.5t-11 27.5z" />
    <glyph glyph-name="Epsilontonos" unicode="&#x388;" horiz-adv-x="562" 
d="M61 0l116 660h406l-5 -28h-374l-46 -259h294l-4 -28h-294l-56 -317h386l-5 -28h-418zM-21 450l57 210h38l-69 -210h-26z" />
    <glyph glyph-name="Etatonos" unicode="&#x389;" horiz-adv-x="704" 
d="M61 0l116 660h32l-50 -287h434l50 287h32l-116 -660h-32l60 345h-434l-60 -345h-32zM-20 450l57 210h38l-69 -210h-26z" />
    <glyph glyph-name="Iotatonos" unicode="&#x38a;" horiz-adv-x="238" 
d="M61 0l116 660h32l-116 -660h-32zM-21 450l57 210h38l-69 -210h-26z" />
    <glyph glyph-name="Omicrontonos" unicode="&#x38c;" horiz-adv-x="784" 
d="M74 304q-2 96 48 181.5t134.5 136t179.5 48.5q130 2 219 -89t87 -224q4 -147 -106.5 -258.5t-255.5 -108.5q-129 -2 -218.5 90t-87.5 224zM708 357q2 119 -77.5 201.5t-195.5 80.5q-132 2 -231 -99t-96 -236q-2 -120 77.5 -202.5t195.5 -80.5q130 -3 229.5 99.5
t97.5 236.5zM6 450l57 210h38l-69 -210h-26z" />
    <glyph glyph-name="Upsilontonos" unicode="&#x38e;" horiz-adv-x="610" 
d="M619 660l-296 -375l-50 -285h-32l50 287l-164 373h31l152 -346l272 346h37zM-46 450l57 210h38l-69 -210h-26z" />
    <glyph glyph-name="Omegatonos" unicode="&#x38f;" horiz-adv-x="794" 
d="M505 28h193l-5 -28h-258l5 30q276 109 276 331q0 123 -80.5 201t-207.5 78q-133 2 -226 -95.5t-91 -236.5q0 -173 190 -278l-6 -30h-252l5 28h204q-85 50 -130 122t-45 157q-2 150 102 257.5t249 105.5q142 0 232 -86t90 -222q0 -217 -245 -334zM8 450l57 210h38
l-69 -210h-26z" />
    <glyph glyph-name="iotadieresistonos" unicode="&#x390;" horiz-adv-x="287" 
d="M70 86q0 13 5 45l63 349h30l-63 -352q-5 -30 -5 -41q0 -33 22 -51t61 -18q27 0 61 7l-5 -27q-29 -8 -58 -8q-53 0 -82 25t-29 71zM153 562l58 218h37v-5l-68 -213h-27zM42 666q0 14 10 24t24 10t24 -10t10 -24t-10 -24t-24 -10t-24 10t-10 24zM283 666q0 14 10 24t24 10
t24 -10t10 -24t-10 -24t-24 -10t-24 10t-10 24z" />
    <glyph glyph-name="Alpha" unicode="&#x391;" horiz-adv-x="666" 
d="M552 0l-43 176h-362l-103 -176h-36l398 670h15l162 -670h-31zM503 204l-99 407l-241 -407h340z" />
    <glyph glyph-name="Beta" unicode="&#x392;" horiz-adv-x="610" 
d="M549 195q0 -86 -64 -140.5t-166 -54.5h-258l116 660h201q76 0 118.5 -38t42.5 -105q0 -57 -30.5 -98.5t-84.5 -58.5q58 -16 91.5 -59.5t33.5 -105.5zM204 632l-45 -259h195q68 0 110 39.5t42 103.5q0 56 -34.5 86t-98.5 30h-169zM516 195q0 67 -43.5 107.5t-115.5 40.5
h-204l-55 -315h221q87 0 142 46.5t55 120.5z" />
    <glyph glyph-name="Gamma" unicode="&#x393;" horiz-adv-x="493" 
d="M61 0l116 660h366l-5 -28h-334l-111 -632h-32z" />
    <glyph glyph-name="uni0394" unicode="&#x394;" horiz-adv-x="666" 
d="M421 670l159 -658l-2 -12h-565l2 12l391 658h15zM546 28l-141 586l-346 -586h487z" />
    <glyph glyph-name="Epsilon" unicode="&#x395;" horiz-adv-x="562" 
d="M61 0l116 660h406l-5 -28h-374l-46 -259h294l-4 -28h-294l-56 -317h386l-5 -28h-418z" />
    <glyph glyph-name="Zeta" unicode="&#x396;" horiz-adv-x="590" 
d="M623 660l-2 -12l-568 -620h460l-5 -28h-508l2 12l568 620h-415l5 28h463z" />
    <glyph glyph-name="Eta" unicode="&#x397;" horiz-adv-x="704" 
d="M61 0l116 660h32l-50 -287h434l50 287h32l-116 -660h-32l60 345h-434l-60 -345h-32z" />
    <glyph glyph-name="Theta" unicode="&#x398;" horiz-adv-x="784" 
d="M74 304q-2 96 48 181.5t135 136t179 48.5q130 2 219 -89t87 -224q2 -95 -48 -181t-135 -137t-179 -49q-129 -2 -218.5 90t-87.5 224zM708 357q2 120 -77.5 202.5t-195.5 80.5q-131 2 -230.5 -99.5t-96.5 -236.5q0 -122 78 -203t195 -81q130 -3 229.5 100t97.5 237z
M204 311l5 29h388l-5 -29h-388z" />
    <glyph glyph-name="Iota" unicode="&#x399;" horiz-adv-x="238" 
d="M61 0l116 660h32l-116 -660h-32z" />
    <glyph glyph-name="Kappa" unicode="&#x39a;" horiz-adv-x="598" 
d="M177 660h32l-116 -660h-32zM610 660l-393 -303l299 -357h-39l-302 359l387 301h48z" />
    <glyph glyph-name="Lambda" unicode="&#x39b;" horiz-adv-x="666" 
d="M583 0h-31l-147 614l-362 -614h-35l398 670h15z" />
    <glyph glyph-name="Mu" unicode="&#x39c;" horiz-adv-x="782" 
d="M740 670h15l-118 -670h-32l102 582l-310 -361h-15l-186 368l-103 -589h-32l118 670h15l202 -404z" />
    <glyph glyph-name="Nu" unicode="&#x39d;" horiz-adv-x="704" 
d="M643 660h32l-118 -670h-15l-345 609l-104 -599h-32l118 670h15l344 -613z" />
    <glyph glyph-name="Xi" unicode="&#x39e;" horiz-adv-x="602" 
d="M110 631l5 29h520l-5 -29h-520zM136 320l6 29h358l-6 -29h-358zM-1 0l5 29h520l-5 -29h-520z" />
    <glyph glyph-name="Omicron" unicode="&#x39f;" horiz-adv-x="784" 
d="M74 304q-2 96 48 181.5t134.5 136t179.5 48.5q130 2 219 -89t87 -224q4 -147 -106.5 -258.5t-255.5 -108.5q-129 -2 -218.5 90t-87.5 224zM708 357q2 119 -77.5 201.5t-195.5 80.5q-132 2 -231 -99t-96 -236q-2 -120 77.5 -202.5t195.5 -80.5q130 -3 229.5 99.5
t97.5 236.5z" />
    <glyph glyph-name="Pi" unicode="&#x3a0;" horiz-adv-x="674" 
d="M61 0l116 660h468l-116 -660h-32l111 632h-404l-111 -632h-32z" />
    <glyph glyph-name="Rho" unicode="&#x3a1;" 
d="M61 0l116 660h199q84 0 133 -43t49 -117q0 -85 -60 -137t-157 -52h-193l-55 -311h-32zM153 339h186q85 0 135 43.5t50 117.5q0 64 -39.5 98t-114.5 34h-166z" />
    <glyph glyph-name="Sigma" unicode="&#x3a3;" horiz-adv-x="544" 
d="M565 660l-5 -28h-388l192 -287l-2 -12l-291 -305h395l-5 -28h-448l2 12l315 330l-203 306l2 12h436z" />
    <glyph glyph-name="Tau" unicode="&#x3a4;" horiz-adv-x="584" 
d="M234 0l111 632h-249l5 28h530l-5 -28h-249l-111 -632h-32z" />
    <glyph glyph-name="Upsilon" unicode="&#x3a5;" horiz-adv-x="610" 
d="M619 660l-296 -375l-50 -285h-32l50 287l-164 373h31l152 -346l272 346h37z" />
    <glyph glyph-name="Phi" unicode="&#x3a6;" horiz-adv-x="808" 
d="M339 -38l12 68q-122 7 -199.5 83.5t-77.5 187.5q0 154 101.5 241t281.5 87l12 68h32l-12 -68q122 -7 199.5 -83.5t77.5 -187.5q0 -154 -101.5 -241t-281.5 -87l-12 -68h-32zM356 60l96 539q-163 0 -254 -79q-91 -78 -91 -218q0 -100 69 -167.5t180 -74.5zM733 357
q0 100 -69 167.5t-180 74.5l-96 -539q162 0 254 78q91 79 91 219z" />
    <glyph glyph-name="Chi" unicode="&#x3a7;" horiz-adv-x="578" 
d="M595 660l-269 -324l170 -336h-34l-158 313l-268 -313h-39l291 341l-158 319h34l146 -297l246 297h39z" />
    <glyph glyph-name="Psi" unicode="&#x3a8;" horiz-adv-x="713" 
d="M298 0l28 157q-109 0 -174.5 56.5t-65.5 149.5q0 21 5 49l43 248h32l-43 -248q-5 -33 -5 -48q0 -81 58 -129t155 -48l83 473h32l-83 -473q132 0 200 53t88 172l43 248h32l-43 -248q-24 -137 -99 -196t-226 -59l-28 -157h-32z" />
    <glyph glyph-name="uni03A9" unicode="&#x3a9;" horiz-adv-x="794" 
d="M505 28h193l-5 -28h-258l5 30q276 109 276 331q0 123 -80.5 201t-207.5 78q-133 2 -226 -95.5t-91 -236.5q0 -173 190 -278l-6 -30h-252l5 28h204q-85 50 -130 122t-45 157q-2 150 102 257.5t249 105.5q142 0 232 -86t90 -222q0 -217 -245 -334z" />
    <glyph glyph-name="Iotadieresis" unicode="&#x3aa;" horiz-adv-x="238" 
d="M61 0l116 660h32l-116 -660h-32zM74 806q0 14 10 24t24 10t24 -10t10 -24t-10 -24t-24 -10t-24 10t-10 24zM295 806q0 14 10 24t24 10t24 -10t10 -24t-10 -24t-24 -10t-24 10t-10 24z" />
    <glyph glyph-name="Upsilondieresis" unicode="&#x3ab;" horiz-adv-x="610" 
d="M619 660l-296 -375l-50 -285h-32l50 287l-164 373h31l152 -346l272 346h37zM251 806q0 14 10 24t24 10t24 -10t10 -24t-10 -24t-24 -10t-24 10t-10 24zM472 806q0 14 10 24t24 10t24 -10t10 -24t-10 -24t-24 -10t-24 10t-10 24z" />
    <glyph glyph-name="alphatonos" unicode="&#x3ac;" horiz-adv-x="650" 
d="M559 19l28 2l-5 -26q-9 -4 -29 -4q-35 0 -56 21.5t-21 58.5q0 1 2 25q-30 -49 -83.5 -77.5t-116.5 -28.5q-95 0 -157.5 66.5t-62.5 166.5q-2 110 75 189.5t184 77.5q75 0 132.5 -43t71.5 -107l32 140h30l-14 -60q-23 -93 -35 -164l-23 -138q-5 -35 -5 -46q0 -25 14 -39
t39 -14zM502 268q0 88 -50.5 141t-134.5 53q-94 0 -160.5 -70t-66.5 -168q0 -91 54 -148.5t139 -57.5q88 -2 154.5 74t64.5 176zM315 562l58 218h38l-1 -5l-68 -213h-27z" />
    <glyph glyph-name="epsilontonos" unicode="&#x3ad;" horiz-adv-x="499" 
d="M148 358q0 -46 28 -72t77 -26h105l-5 -28h-99q-76 0 -118.5 -30t-42.5 -84q0 -49 36.5 -74.5t104.5 -25.5q101 0 167 70l20 -19q-70 -79 -185 -79q-83 0 -129 33.5t-46 94.5q0 53 32.5 86.5t91.5 42.5q-69 31 -69 110q0 59 46.5 96t120.5 37q51 0 100 -18q50 -17 76 -65
l-25 -15q-40 70 -151 70q-61 0 -98 -28.5t-37 -75.5zM295 563l58 218h38l-1 -5l-68 -213h-27z" />
    <glyph glyph-name="etatonos" unicode="&#x3ae;" horiz-adv-x="568" 
d="M491 338q0 -18 -6 -54l-81 -464h-30l82 468q5 32 5 44q0 58 -36 94t-96 36q-64 0 -109.5 -40t-58.5 -108l-56 -314h-30l64 362q5 32 5 46q0 53 -53 53q-6 0 -28 -2l5 26q12 4 29 4q34 0 55.5 -21t21.5 -59v-1q55 82 157 82q72 0 116 -42.5t44 -109.5zM328 562l58 218h38
l-1 -5l-68 -213h-27z" />
    <glyph glyph-name="iotatonos" unicode="&#x3af;" horiz-adv-x="287" 
d="M70 86q0 13 5 45l63 349h30l-63 -352q-5 -30 -5 -41q0 -33 22 -51t61 -18q27 0 61 7l-5 -27q-29 -8 -58 -8q-53 0 -82 25t-29 71zM151 562l58 218h38l-1 -5l-68 -213h-27z" />
    <glyph glyph-name="upsilondieresistonos" unicode="&#x3b0;" horiz-adv-x="541" 
d="M78 151q0 21 3 38l51 291h30l-52 -294q-3 -17 -3 -34q0 -59 39 -96.5t102 -37.5q59 0 103 38.5t55 102.5l57 321h30l-57 -323q-13 -75 -67 -121q-52 -46 -124 -46q-73 0 -120 45t-47 116zM314 562l58 218h37v-5l-68 -213h-27zM203 666q0 14 10 24t24 10t24 -10t10 -24
t-10 -24t-24 -10t-24 10t-10 24zM444 666q0 14 10 24t24 10t24 -10t10 -24t-10 -24t-24 -10t-24 10t-10 24z" />
    <glyph glyph-name="alpha" unicode="&#x3b1;" horiz-adv-x="650" 
d="M559 19l28 2l-5 -26q-9 -4 -29 -4q-35 0 -56 21.5t-21 58.5q0 1 2 25q-30 -49 -83.5 -77.5t-116.5 -28.5q-95 0 -157.5 66.5t-62.5 166.5q-2 110 75 189.5t184 77.5q75 0 132.5 -43t71.5 -107l32 140h30l-14 -60q-23 -93 -35 -164l-23 -138q-5 -35 -5 -46q0 -25 14 -39
t39 -14zM502 268q0 88 -50.5 141t-134.5 53q-94 0 -160.5 -70t-66.5 -168q0 -91 54 -148.5t139 -57.5q88 -2 154.5 74t64.5 176z" />
    <glyph glyph-name="beta" unicode="&#x3b2;" horiz-adv-x="594" 
d="M531 226q0 -103 -60.5 -169.5t-155.5 -66.5q-100 0 -156 63t-56 174q0 31 7 69l45 257q18 101 74 154t145 53q75 0 119 -40.5t44 -110.5q0 -106 -143 -192q64 -26 100.5 -77t36.5 -114zM187 551l-37 -208q185 60 270 124.5t85 143.5q0 57 -35.5 89t-99.5 32
q-151 0 -183 -181zM499 224q0 58 -36 105.5t-98 70.5q-85 -45 -221 -87l-3 -18q-7 -38 -7 -68q0 -97 48.5 -153t132.5 -56q80 0 132 57.5t52 148.5z" />
    <glyph glyph-name="gamma" unicode="&#x3b3;" horiz-adv-x="519" 
d="M517 480l-293 -475l-32 -185h-30l33 189l-124 471h31l114 -437l266 437h35z" />
    <glyph glyph-name="delta" unicode="&#x3b4;" horiz-adv-x="609" 
d="M595 750l-5 -28h-371l251 -277q82 -89 82 -187q2 -109 -77 -189.5t-185 -78.5q-98 0 -165 68.5t-67 169.5q-2 104 76.5 184t181.5 78q48 0 96 -21l-249 269l2 12h430zM317 462q-94 0 -160.5 -69t-66.5 -166q0 -90 57.5 -149.5t143.5 -59.5q94 0 161.5 69.5t67.5 166.5
q0 88 -58.5 148t-144.5 60z" />
    <glyph glyph-name="epsilon" unicode="&#x3b5;" horiz-adv-x="499" 
d="M148 358q0 -46 28 -72t77 -26h105l-5 -28h-99q-76 0 -118.5 -30t-42.5 -84q0 -49 36.5 -74.5t104.5 -25.5q101 0 167 70l20 -19q-70 -79 -185 -79q-83 0 -129 33.5t-46 94.5q0 53 32.5 86.5t91.5 42.5q-69 31 -69 110q0 59 46.5 96t120.5 37q51 0 100 -18q50 -17 76 -65
l-25 -15q-40 70 -151 70q-61 0 -98 -28.5t-37 -75.5z" />
    <glyph glyph-name="zeta" unicode="&#x3b6;" horiz-adv-x="446" 
d="M483 738l-202 -250q-109 -138 -142.5 -198.5t-35.5 -127.5q0 -48 32.5 -82t90.5 -46l42 -9q107 -23 107 -110q0 -46 -34 -95h-32q34 49 34 94q0 64 -87 82l-42 9q-67 14 -105 55.5t-38 100.5q2 74 37.5 140t148.5 205l174 216h-296l5 28h345z" />
    <glyph glyph-name="eta" unicode="&#x3b7;" horiz-adv-x="568" 
d="M491 338q0 -18 -6 -54l-81 -464h-30l82 468q5 32 5 44q0 58 -36 94t-96 36q-64 0 -109.5 -40t-58.5 -108l-56 -314h-30l64 362q5 32 5 46q0 53 -53 53q-6 0 -28 -2l5 26q12 4 29 4q34 0 55.5 -21t21.5 -59v-1q55 82 157 82q72 0 116 -42.5t44 -109.5z" />
    <glyph glyph-name="theta" unicode="&#x3b8;" horiz-adv-x="598" 
d="M557 517q1 -143 -38.5 -266t-109 -193t-150.5 -68q-89 0 -137 57t-48 163q0 73 19 165h31q-18 -101 -18 -164q0 -193 154 -193q78 0 143 78q66 81 97 208q-157 31 -232.5 93t-75.5 160q0 93 49.5 148t133.5 55q182 0 182 -243zM506 332q19 88 19 184q0 109 -37 162
t-114 53q-70 0 -110 -46.5t-40 -127.5q0 -89 68 -143.5t214 -81.5z" />
    <glyph glyph-name="iota" unicode="&#x3b9;" horiz-adv-x="287" 
d="M70 86q0 13 5 45l63 349h30l-63 -352q-5 -30 -5 -41q0 -33 22 -51t61 -18q27 0 61 7l-5 -27q-29 -8 -58 -8q-53 0 -82 25t-29 71z" />
    <glyph glyph-name="kappa" unicode="&#x3ba;" horiz-adv-x="462" 
d="M143 480h30l-85 -480h-30zM463 480l-269 -225l206 -255h-37l-211 258l266 222h45z" />
    <glyph glyph-name="lambda" unicode="&#x3bb;" horiz-adv-x="529" 
d="M455 25l28 1l-5 -26q-21 -3 -34 -3q-50 0 -63 66l-73 382l-286 -445h-33l310 485l-25 142q-10 56 -30.5 80.5t-56.5 24.5q-20 0 -42 -5l5 27q16 6 39 6q47 0 73.5 -28.5t38.5 -91.5l109 -567q5 -27 14.5 -37.5t30.5 -10.5z" />
    <glyph glyph-name="uni03BC" unicode="&#x3bc;" horiz-adv-x="578" 
d="M515 21l-5 -26q-12 -4 -29 -4q-34 0 -55.5 21t-21.5 59q-56 -81 -157 -81q-53 0 -91.5 24t-53.5 65l-46 -259h-30l117 660h30l-51 -288q-5 -32 -5 -44q0 -59 36 -94.5t96 -35.5q63 0 109.5 40.5t58.5 107.5l56 314h30l-64 -362q-5 -32 -5 -46q0 -53 53 -53q6 0 28 2z" />
    <glyph glyph-name="nu" unicode="&#x3bd;" horiz-adv-x="520" 
d="M483 480h35l-300 -490h-15l-132 490h32l116 -437z" />
    <glyph glyph-name="xi" unicode="&#x3be;" horiz-adv-x="457" 
d="M184 558q0 -70 39 -113t103 -43h93l-4 -28h-129q-86 0 -147.5 -57.5t-61.5 -137.5q0 -63 38 -102t106 -46l46 -5q55 -6 85 -35.5t30 -77.5q0 -52 -28 -93h-32q28 46 28 91q0 75 -93 86l-52 6q-73 8 -116.5 56t-43.5 119q0 82 57 144.5t142 74.5q-92 41 -92 159
q0 51 28.5 96t75.5 70h-130l5 28h387l-5 -28h-160q-69 0 -119 -48.5t-50 -115.5z" />
    <glyph glyph-name="omicron" unicode="&#x3bf;" horiz-adv-x="610" 
d="M58 226q-2 107 77 186.5t185 77.5q99 0 166 -67.5t67 -167.5q2 -107 -78 -187t-186 -78q-99 0 -165 67.5t-66 168.5zM521 254q0 88 -58 147.5t-144 59.5q-95 0 -162 -69t-67 -166q0 -90 56.5 -148.5t143.5 -58.5q95 0 163 69t68 166z" />
    <glyph glyph-name="pi" unicode="&#x3c0;" horiz-adv-x="581" 
d="M72 0l80 450h-85l6 30h520l-6 -30h-85l-80 -450h-30l80 450h-290l-80 -450h-30z" />
    <glyph glyph-name="rho" unicode="&#x3c1;" horiz-adv-x="622" 
d="M565 257q2 -109 -75 -189t-181 -78q-72 0 -131 42.5t-74 103.5l-56 -316h-30l77 447q16 99 85 161t161 62q97 0 160.5 -66t63.5 -167zM533 257q0 89 -54.5 146.5t-139.5 57.5q-94 0 -156.5 -74.5t-62.5 -184.5q0 -79 55 -131.5t136 -52.5q91 0 156.5 70.5t65.5 168.5z
" />
    <glyph glyph-name="uni03C2" unicode="&#x3c2;" horiz-adv-x="522" 
d="M355 -86q0 33 -21 53.5t-67 32.5l-38 10q-170 45 -170 222q0 109 73.5 183.5t182.5 74.5q129 0 199 -100l-24 -17q-62 88 -175 88q-95 0 -159.5 -65.5t-64.5 -162.5q0 -76 38 -126.5t107 -68.5l38 -10q59 -15 86.5 -42t27.5 -70q0 -52 -29 -96h-32q28 43 28 94z" />
    <glyph glyph-name="sigma" unicode="&#x3c3;" horiz-adv-x="613" 
d="M645 480l-5 -30h-211q54 -26 85 -77t31 -117q2 -108 -77 -188.5t-186 -77.5q-96 0 -160.5 66t-64.5 164q-2 109 77 185.5t191 74.5h320zM318 451q-97 0 -163 -65.5t-66 -161.5q0 -90 55 -148t140 -58q95 0 162 69.5t67 167.5q0 86 -54.5 141t-140.5 55z" />
    <glyph glyph-name="tau" unicode="&#x3c4;" horiz-adv-x="450" 
d="M268 452l-55 -308q-5 -32 -5 -40q0 -86 110 -86q17 0 47 3l-5 -26q-22 -5 -48 -5q-134 0 -134 111q0 13 5 45l55 306h-190l5 28h414l-5 -28h-194z" />
    <glyph glyph-name="upsilon" unicode="&#x3c5;" horiz-adv-x="541" 
d="M78 151q0 21 3 38l51 291h30l-52 -294q-3 -17 -3 -34q0 -59 39 -96.5t102 -37.5q59 0 103 38.5t55 102.5l57 321h30l-57 -323q-13 -75 -67 -121q-52 -46 -124 -46q-73 0 -120 45t-47 116z" />
    <glyph glyph-name="phi" unicode="&#x3c6;" horiz-adv-x="703" 
d="M323 -10l-30 -170h-30l30 170q-108 3 -172.5 63t-64.5 159q0 101 61 174q62 76 163 101l8 -27q-94 -25 -147 -90t-53 -156q0 -89 56 -141t154 -55l62 346q10 59 44 92t84 33q68 0 115.5 -57t47.5 -138q0 -130 -92.5 -216.5t-235.5 -87.5zM619 296q0 68 -38 116.5
t-92 48.5q-82 0 -100 -102l-61 -341q130 2 210.5 78.5t80.5 199.5z" />
    <glyph glyph-name="chi" unicode="&#x3c7;" horiz-adv-x="486" 
d="M397 -156q20 0 27 1l-5 -25q-12 -3 -37 -3q-32 0 -49.5 16t-29.5 52l-78 246l-238 -311h-37l263 342l-73 251q-11 41 -55 41q-23 0 -28 -1l5 27q16 2 29 2q60 0 77 -58l69 -239l223 295h36l-248 -326l82 -255q10 -31 24 -43t43 -12z" />
    <glyph glyph-name="psi" unicode="&#x3c8;" horiz-adv-x="692" 
d="M256 -180l30 168q-88 0 -146 54t-58 136q0 12 8 62l42 239h30l-42 -239q-7 -35 -7 -61q0 -70 50.5 -116t127.5 -46l113 643h30l-113 -643q99 0 165.5 57t83.5 156l44 250h30l-44 -250q-19 -113 -96 -178q-76 -64 -188 -64l-30 -168h-30z" />
    <glyph glyph-name="omega" unicode="&#x3c9;" horiz-adv-x="757" 
d="M698 261q0 -121 -54 -196t-142 -75q-57 0 -95.5 30t-48.5 81q-42 -111 -150 -111q-73 0 -114 52.5t-41 145.5q0 101 46 180.5t129 121.5l10 -26q-73 -43 -113 -114.5t-40 -160.5q0 -79 33 -124.5t91 -45.5q56 0 93 41t50 119l23 131h30l-23 -131q-3 -17 -3 -33
q0 -57 35 -92t91 -35q69 0 115 69t46 173q0 140 -98 203l14 26q116 -63 116 -229z" />
    <glyph glyph-name="iotadieresis" unicode="&#x3ca;" horiz-adv-x="287" 
d="M70 86q0 13 5 45l63 349h30l-63 -352q-5 -30 -5 -41q0 -33 22 -51t61 -18q27 0 61 7l-5 -27q-29 -8 -58 -8q-53 0 -82 25t-29 71zM72 666q0 14 10 24t24 10t24 -10t10 -24t-10 -24t-24 -10t-24 10t-10 24zM233 666q0 14 10 24t24 10t24 -10t10 -24t-10 -24t-24 -10
t-24 10t-10 24z" />
    <glyph glyph-name="upsilondieresis" unicode="&#x3cb;" horiz-adv-x="541" 
d="M78 151q0 21 3 38l51 291h30l-52 -294q-3 -17 -3 -34q0 -59 39 -96.5t102 -37.5q59 0 103 38.5t55 102.5l57 321h30l-57 -323q-13 -75 -67 -121q-52 -46 -124 -46q-73 0 -120 45t-47 116zM211 666q0 14 10 24t24 10t24 -10t10 -24t-10 -24t-24 -10t-24 10t-10 24z
M412 666q0 14 10 24t24 10t24 -10t10 -24t-10 -24t-24 -10t-24 10t-10 24z" />
    <glyph glyph-name="omicrontonos" unicode="&#x3cc;" horiz-adv-x="610" 
d="M58 226q-2 107 77 186.5t185 77.5q99 0 166 -67.5t67 -167.5q2 -107 -78 -187t-186 -78q-99 0 -165 67.5t-66 168.5zM521 254q0 88 -58 147.5t-144 59.5q-95 0 -162 -69t-67 -166q0 -90 56.5 -148.5t143.5 -58.5q95 0 163 69t68 166zM325 562l58 218h38l-1 -5l-68 -213
h-27z" />
    <glyph glyph-name="upsilontonos" unicode="&#x3cd;" horiz-adv-x="541" 
d="M78 151q0 21 3 38l51 291h30l-52 -294q-3 -17 -3 -34q0 -59 39 -96.5t102 -37.5q59 0 103 38.5t55 102.5l57 321h30l-57 -323q-13 -75 -67 -121q-52 -46 -124 -46q-73 0 -120 45t-47 116zM312 562l58 218h38l-1 -5l-68 -213h-27z" />
    <glyph glyph-name="omegatonos" unicode="&#x3ce;" horiz-adv-x="757" 
d="M698 261q0 -121 -54 -196t-142 -75q-57 0 -95.5 30t-48.5 81q-42 -111 -150 -111q-73 0 -114 52.5t-41 145.5q0 101 46 180.5t129 121.5l10 -26q-73 -43 -113 -114.5t-40 -160.5q0 -79 33 -124.5t91 -45.5q56 0 93 41t50 119l23 131h30l-23 -131q-3 -17 -3 -33
q0 -57 35 -92t91 -35q69 0 115 69t46 173q0 140 -98 203l14 26q116 -63 116 -229zM419 562l58 218h38l-1 -5l-68 -213h-27z" />
    <glyph glyph-name="uni0400" unicode="&#x400;" horiz-adv-x="562" 
d="M61 0l116 660h406l-5 -28h-374l-46 -259h294l-4 -28h-294l-56 -317h386l-5 -28h-418zM376 724l-74 181v5h36l63 -186h-25z" />
    <glyph glyph-name="uni0401" unicode="&#x401;" horiz-adv-x="562" 
d="M61 0l116 660h406l-5 -28h-374l-46 -259h294l-4 -28h-294l-56 -317h386l-5 -28h-418zM256 806q0 14 10 24t24 10t24 -10t10 -24t-10 -24t-24 -10t-24 10t-10 24zM477 806q0 14 10 24t24 10t24 -10t10 -24t-10 -24t-24 -10t-24 10t-10 24z" />
    <glyph glyph-name="uni0402" unicode="&#x402;" horiz-adv-x="741" 
d="M429 -10l-3 29q102 14 161 68.5t59 134.5q0 66 -47 108t-119 42q-92 0 -175 -40l-59 -332h-32l111 631h-229l5 29h520l-5 -29h-259l-47 -269q88 40 176 40q82 0 137 -51.5t55 -127.5q0 -93 -67 -156t-182 -77z" />
    <glyph glyph-name="uni0403" unicode="&#x403;" horiz-adv-x="496" 
d="M61 0l116 660h369l-5 -28h-337l-111 -632h-32zM318 724l126 186h40l-1 -5l-138 -181h-27z" />
    <glyph glyph-name="uni0404" unicode="&#x404;" horiz-adv-x="709" 
d="M112 353h360l-4 -28h-359q-1 -5 -1 -21q-2 -121 78 -203.5t198 -80.5q144 0 243 107l22 -20q-51 -56 -121.5 -86.5t-145.5 -30.5q-130 -2 -220 89t-88 224q-3 146 108 258t256 109q82 0 148.5 -37t106.5 -105l-26 -18q-80 130 -231 130q-120 2 -215 -82.5t-109 -204.5z
" />
    <glyph glyph-name="uni0405" unicode="&#x405;" horiz-adv-x="555" 
d="M32 145l29 14q75 -139 211 -139q72 0 117 39.5t45 103.5q0 42 -24.5 75.5t-81.5 67.5l-73 44q-118 71 -118 157q0 70 54 116.5t135 46.5q132 0 198 -113l-26 -16q-64 99 -172 99q-69 0 -112 -36.5t-43 -94.5q0 -39 24 -69.5t81 -65.5l69 -42q63 -39 93 -79t30 -89
q0 -75 -56.5 -124.5t-141.5 -49.5q-157 0 -238 155z" />
    <glyph glyph-name="uni0406" unicode="&#x406;" horiz-adv-x="238" 
d="M61 0l116 660h32l-116 -660h-32z" />
    <glyph glyph-name="uni0407" unicode="&#x407;" horiz-adv-x="238" 
d="M61 0l116 660h32l-116 -660h-32zM74 806q0 14 10 24t24 10t24 -10t10 -24t-10 -24t-24 -10t-24 10t-10 24zM295 806q0 14 10 24t24 10t24 -10t10 -24t-10 -24t-24 -10t-24 10t-10 24z" />
    <glyph glyph-name="uni0408" unicode="&#x408;" horiz-adv-x="362" 
d="M-11 5l5 28q51 -13 89 -13q106 0 125 110l93 530h32l-94 -532q-24 -138 -155 -138q-46 0 -95 15z" />
    <glyph glyph-name="uni0409" unicode="&#x409;" horiz-adv-x="967" 
d="M901 203q0 -90 -64.5 -146.5t-168.5 -56.5h-211l111 631h-286l-33 -160q-56 -265 -110 -367.5t-140 -105.5q-5 0 -23 2l5 30q5 -2 23 -2q66 0 116 105q52 106 98 338l38 189h349l-51 -287h152q91 0 143 -45t52 -125zM867 203q0 69 -43 105.5t-123 36.5h-152l-55 -317h174
q91 0 145 47.5t54 127.5z" />
    <glyph glyph-name="uni040A" unicode="&#x40a;" horiz-adv-x="977" 
d="M61 0l116 660h32l-51 -287h375l50 287h32l-51 -287h152q91 0 143 -45t52 -125q0 -90 -64.5 -146.5t-168.5 -56.5h-211l61 345h-374l-61 -345h-32zM504 28h174q91 0 145 47.5t54 127.5q0 69 -43 105.5t-123 36.5h-152z" />
    <glyph glyph-name="uni040B" unicode="&#x40b;" horiz-adv-x="787" 
d="M676 217q0 -14 -5 -49l-30 -168h-32l30 168q5 30 5 48q0 71 -46.5 113.5t-125.5 42.5t-167 -38l-59 -334h-32l111 632h-229l5 28h520l-5 -28h-259l-47 -268q85 38 165 38q92 0 146.5 -50t54.5 -135z" />
    <glyph glyph-name="uni040C" unicode="&#x40c;" horiz-adv-x="598" 
d="M177 660h32l-116 -660h-32zM610 660l-393 -303l299 -357h-39l-302 359l387 301h48zM296 724l126 186h40l-1 -5l-138 -181h-27z" />
    <glyph glyph-name="uni040D" unicode="&#x40d;" horiz-adv-x="714" 
d="M672 670h15l-118 -670h-32l105 599l-568 -609h-15l118 670h32l-107 -607zM430 724l-74 181v5h36l63 -186h-25z" />
    <glyph glyph-name="uni040E" unicode="&#x40e;" horiz-adv-x="610" 
d="M608 660h35l-342 -562q-64 -106 -159 -106q-40 0 -64 10l5 28q29 -8 58 -8q43 0 75 21t61 68l18 29l-169 520h33l155 -487zM263 853q0 22 7 57h31q-7 -35 -7 -53q0 -44 26 -71t69 -27t73.5 29t38.5 80l7 42h31l-7 -42q-11 -63 -49.5 -99.5t-95.5 -36.5q-53 0 -88.5 34.5
t-35.5 86.5z" />
    <glyph glyph-name="uni040F" unicode="&#x40f;" horiz-adv-x="694" 
d="M665 660l-116 -660h-228l-25 -141h-32l25 141h-228l116 660h32l-111 -631h424l111 631h32z" />
    <glyph glyph-name="uni0410" unicode="&#x410;" horiz-adv-x="666" 
d="M552 0l-43 176h-362l-103 -176h-36l398 670h15l162 -670h-31zM503 204l-99 407l-241 -407h340z" />
    <glyph glyph-name="uni0411" unicode="&#x411;" horiz-adv-x="573" 
d="M61 0l116 660h363l-5 -28h-331l-46 -261h166q86 0 137 -48t51 -128q0 -88 -63 -141.5t-167 -53.5h-221zM98 28h184q89 0 143 45.5t54 121.5q0 68 -43 108t-116 40h-167z" />
    <glyph glyph-name="uni0412" unicode="&#x412;" horiz-adv-x="610" 
d="M549 195q0 -86 -64 -140.5t-166 -54.5h-258l116 660h201q76 0 118.5 -38t42.5 -105q0 -57 -30.5 -98.5t-84.5 -58.5q58 -16 91.5 -59.5t33.5 -105.5zM204 632l-45 -259h195q68 0 110 39.5t42 103.5q0 56 -34.5 86t-98.5 30h-169zM516 195q0 67 -43.5 107.5t-115.5 40.5
h-204l-55 -315h221q87 0 142 46.5t55 120.5z" />
    <glyph glyph-name="uni0413" unicode="&#x413;" horiz-adv-x="496" 
d="M61 0l116 660h369l-5 -28h-337l-111 -632h-32z" />
    <glyph glyph-name="uni0414" unicode="&#x414;" horiz-adv-x="660" 
d="M619 660l-111 -631h85l-30 -170h-32l25 141h-556l-25 -141h-32l30 170h51q62 46 109 161t87 318l30 152h369zM64 29h412l106 602h-306l-26 -124q-82 -393 -186 -478z" />
    <glyph glyph-name="uni0415" unicode="&#x415;" horiz-adv-x="562" 
d="M61 0l116 660h406l-5 -28h-374l-46 -259h294l-4 -28h-294l-56 -317h386l-5 -28h-418z" />
    <glyph glyph-name="uni0416" unicode="&#x416;" horiz-adv-x="917" 
d="M177 660l267 -301l-401 -359h-46l403 361l-266 299h43zM516 660h32l-116 -660h-32zM930 660l-372 -306l277 -354h-41l-280 359l366 301h50z" />
    <glyph glyph-name="uni0417" unicode="&#x417;" horiz-adv-x="577" 
d="M518 203q0 -94 -66 -153.5t-170 -59.5q-172 0 -242 153l32 16q60 -139 209 -139q90 0 147.5 51t57.5 132q0 61 -45 102q-43 40 -114 40h-99l5 28h78q80 0 134 42t54 106q0 56 -38.5 87.5t-106.5 31.5q-103 0 -173 -76l-21 22q78 84 195 84q82 0 129 -39.5t47 -108.5
q0 -57 -36.5 -101t-97.5 -61q56 -16 88.5 -57.5t32.5 -99.5z" />
    <glyph glyph-name="uni0418" unicode="&#x418;" horiz-adv-x="714" 
d="M672 670h15l-118 -670h-32l105 599l-568 -609h-15l118 670h32l-107 -607z" />
    <glyph glyph-name="uni0419" unicode="&#x419;" horiz-adv-x="714" 
d="M672 670h15l-118 -670h-32l105 599l-568 -609h-15l118 670h32l-107 -607zM321 853q0 22 7 57h31q-7 -35 -7 -53q0 -44 26 -71t69 -27t73.5 29t38.5 80l7 42h31l-7 -42q-11 -63 -49.5 -99.5t-95.5 -36.5q-53 0 -88.5 34.5t-35.5 86.5z" />
    <glyph glyph-name="uni041A" unicode="&#x41a;" horiz-adv-x="598" 
d="M177 660h32l-116 -660h-32zM610 660l-393 -303l299 -357h-39l-302 359l387 301h48z" />
    <glyph glyph-name="uni041B" unicode="&#x41b;" horiz-adv-x="656" 
d="M258 660h369l-116 -660h-32l111 631h-306l-31 -151q-52 -253 -112 -368q-58 -115 -139 -115q-17 0 -26 4l5 30q11 -4 23 -4q65 0 118 110.5t100 344.5z" />
    <glyph glyph-name="uni041C" unicode="&#x41c;" horiz-adv-x="782" 
d="M740 670h15l-118 -670h-32l102 582l-310 -361h-15l-186 368l-103 -589h-32l118 670h15l202 -404z" />
    <glyph glyph-name="uni041D" unicode="&#x41d;" horiz-adv-x="704" 
d="M61 0l116 660h32l-50 -286h434l50 286h32l-116 -660h-32l61 345h-434l-61 -345h-32z" />
    <glyph glyph-name="uni041E" unicode="&#x41e;" horiz-adv-x="784" 
d="M74 304q-2 96 48 181.5t134.5 136t179.5 48.5q130 2 219 -89t87 -224q4 -147 -106.5 -258.5t-255.5 -108.5q-129 -2 -218.5 90t-87.5 224zM708 357q2 119 -77.5 201.5t-195.5 80.5q-132 2 -231 -99t-96 -236q-2 -120 77.5 -202.5t195.5 -80.5q130 -3 229.5 99.5
t97.5 236.5z" />
    <glyph glyph-name="uni041F" unicode="&#x41f;" horiz-adv-x="694" 
d="M61 0l116 660h488l-116 -660h-32l111 631h-424l-111 -631h-32z" />
    <glyph glyph-name="uni0420" unicode="&#x420;" 
d="M61 0l116 660h199q84 0 133 -43t49 -117q0 -85 -60 -137t-157 -52h-193l-55 -311h-32zM153 339h186q85 0 135 43.5t50 117.5q0 64 -39.5 98t-114.5 34h-166z" />
    <glyph glyph-name="uni0421" unicode="&#x421;" horiz-adv-x="709" 
d="M74 303q-3 146 108 258t256 109q82 0 148.5 -37t106.5 -105l-26 -18q-80 130 -231 130q-131 3 -231 -99.5t-97 -236.5q-2 -121 78 -203.5t198 -80.5q144 0 243 107l22 -20q-51 -56 -121.5 -86.5t-145.5 -30.5q-130 -2 -220 89t-88 224z" />
    <glyph glyph-name="uni0422" unicode="&#x422;" horiz-adv-x="584" 
d="M234 0l111 632h-249l5 28h530l-5 -28h-249l-111 -632h-32z" />
    <glyph glyph-name="uni0423" unicode="&#x423;" horiz-adv-x="610" 
d="M608 660h35l-342 -562q-64 -106 -159 -106q-40 0 -64 10l5 28q29 -8 58 -8q43 0 75 21t61 68l18 29l-169 520h33l155 -487z" />
    <glyph glyph-name="uni0424" unicode="&#x424;" horiz-adv-x="780" 
d="M329 -20l16 89q-116 0 -193 71.5t-77 178.5q0 125 95 201.5t249 76.5h18l15 83h32l-15 -83q112 2 191 -71.5t77 -178.5q0 -125 -95 -201.5t-249 -76.5h-16l-16 -89h-32zM350 99l82 468h-17q-138 0 -222 -67.5t-84 -179.5q0 -95 68.5 -158t172.5 -63zM382 99h15
q138 0 222 67.5t84 179.5q0 96 -67.5 158.5t-171.5 62.5z" />
    <glyph glyph-name="uni0425" unicode="&#x425;" horiz-adv-x="578" 
d="M595 660l-269 -324l170 -336h-34l-158 313l-268 -313h-39l291 341l-158 319h34l146 -297l246 297h39z" />
    <glyph glyph-name="uni0426" unicode="&#x426;" horiz-adv-x="706" 
d="M577 -142l25 141h-541l116 660h32l-111 -631h424l111 631h32l-111 -631h85l-30 -170h-32z" />
    <glyph glyph-name="uni0427" unicode="&#x427;" horiz-adv-x="657" 
d="M596 660h32l-116 -660h-32l52 297q-87 -33 -173 -33q-112 0 -170.5 51.5t-58.5 150.5q0 29 7 65l23 129h32l-23 -131q-6 -35 -6 -61q0 -85 50 -129.5t146 -44.5q92 0 179 35z" />
    <glyph glyph-name="uni0428" unicode="&#x428;" horiz-adv-x="970" 
d="M61 0l116 660h32l-111 -631h334l111 631h32l-111 -631h334l111 631h32l-116 -660h-764z" />
    <glyph glyph-name="uni0429" unicode="&#x429;" horiz-adv-x="982" 
d="M853 -141l25 141h-817l116 660h32l-111 -631h334l111 631h32l-111 -631h334l111 631h32l-111 -631h85l-30 -170h-32z" />
    <glyph glyph-name="uni042A" unicode="&#x42a;" horiz-adv-x="650" 
d="M140 0l111 631h-155l5 29h187l-51 -287h152q94 0 144.5 -44t50.5 -126q0 -93 -63 -148t-170 -55h-211zM177 28h174q92 0 145.5 47t53.5 128q0 142 -166 142h-152z" />
    <glyph glyph-name="uni042B" unicode="&#x42b;" horiz-adv-x="791" 
d="M61 0l116 660h32l-51 -287h152q94 0 144.5 -44t50.5 -126q0 -93 -63 -148t-170 -55h-211zM98 28h174q93 0 146 46.5t53 128.5q0 142 -166 142h-152zM614 0l116 660h32l-116 -660h-32z" />
    <glyph glyph-name="uni042C" unicode="&#x42c;" horiz-adv-x="571" 
d="M61 0l116 660h32l-51 -287h152q94 0 144.5 -44t50.5 -126q0 -93 -63 -148t-170 -55h-211zM98 28h174q93 0 146 46.5t53 128.5q0 142 -166 142h-152z" />
    <glyph glyph-name="uni042D" unicode="&#x42d;" horiz-adv-x="709" 
d="M667 357q3 -146 -108 -258t-256 -109q-82 0 -148.5 37t-106.5 105l26 18q80 -130 231 -130q124 -2 221 89t106 216h-363l4 28h360v3q2 121 -78 203.5t-198 80.5q-144 0 -243 -107l-22 20q51 56 121.5 86.5t145.5 30.5q130 2 220 -89t88 -224z" />
    <glyph glyph-name="uni042E" unicode="&#x42e;" horiz-adv-x="1003" 
d="M961 357q3 -146 -106 -258t-251 -109q-127 -2 -215 89.5t-86 224.5q0 7 2 41h-151l-61 -345h-32l116 660h32l-51 -287h152q22 125 124 212t226 85q127 2 215 -89t86 -224zM928 357q2 120 -77 202.5t-192 80.5q-130 2 -228 -99.5t-95 -236.5q0 -121 77 -202.5t192 -81.5
q129 -3 227 100t96 237z" />
    <glyph glyph-name="uni042F" unicode="&#x42f;" horiz-adv-x="595" 
d="M352 660h214l-116 -660h-32l50 288h-153h-16l-246 -288h-41l249 293q-66 12 -103 55.5t-37 110.5q0 90 64 145.5t167 55.5zM321 316h152l56 316h-175q-90 0 -144.5 -47t-54.5 -126q0 -69 43 -106t123 -37z" />
    <glyph glyph-name="uni0430" unicode="&#x430;" horiz-adv-x="632" 
d="M544 480h30l-85 -480h-30l17 95q-30 -49 -83 -77t-116 -28q-92 0 -156 67.5t-64 165.5q-2 108 76 188.5t184 78.5q72 0 129 -39q56 -38 76 -98zM317 462q-91 2 -160.5 -71t-67.5 -167q0 -88 55 -147t138 -59q89 -2 157 74.5t66 176.5q0 87 -52 139q-51 54 -136 54z" />
    <glyph glyph-name="uni0431" unicode="&#x431;" horiz-adv-x="628" 
d="M138 388l-3 -14q34 54 89 85t119 31q97 0 162 -68.5t65 -171.5q2 -104 -76.5 -183t-182.5 -77q-97 0 -161 65t-64 164q0 38 28 187q29 154 98.5 221.5t223.5 88.5q85 11 118 18q37 8 68 24l-6 -31q-47 -24 -153 -37q-15 -3 -28 -4q-149 -22 -209 -85.5t-88 -212.5z
M118 222q0 -89 55 -146.5t140 -57.5q94 0 159.5 68t65.5 163q0 92 -55.5 152.5t-140.5 60.5q-94 0 -159 -70t-65 -170z" />
    <glyph glyph-name="uni0432" unicode="&#x432;" horiz-adv-x="510" 
d="M440 138q0 -65 -54 -106.5t-137 -41.5q-91 0 -144 53t-53 144q0 31 12 98q18 101 75.5 153t150.5 52q70 0 113 -34.5t43 -89.5q0 -92 -102 -116q44 -11 70 -41t26 -71zM95 285l-3 -20h181q69 0 105 26t36 75q0 44 -34.5 70t-92.5 26q-78 0 -127.5 -45.5t-64.5 -131.5z
M408 136q0 47 -36.5 74t-98.5 27h-186q-4 -25 -4 -49q0 -80 44 -125t123 -45q70 0 114 32.5t44 85.5z" />
    <glyph glyph-name="uni0433" unicode="&#x433;" horiz-adv-x="455" 
d="M45 110q0 49 36 81.5t111 58.5l56 19q63 21 87.5 44.5t24.5 61.5q0 40 -29 63.5t-76 23.5q-76 0 -134 -55l-18 21q68 62 155 62q59 0 96.5 -31.5t37.5 -81.5q0 -48 -29.5 -78.5t-99.5 -54.5l-56 -19q-73 -25 -101.5 -50t-28.5 -64q0 -43 31 -68t84 -25q51 0 88 18t76 62
l19 -20q-75 -88 -183 -88q-66 0 -106.5 33t-40.5 87z" />
    <glyph glyph-name="uni0434" unicode="&#x434;" horiz-adv-x="607" 
d="M545 310q0 -149 -69.5 -234.5t-190.5 -85.5q-100 0 -164 64t-64 164q-2 109 73 186.5t181 75.5q72 0 129 -41.5t80 -110.5q-6 212 -71 307.5t-204 95.5q-46 0 -98 -11l5 29q47 11 94 11q157 0 228 -107.5t71 -342.5zM506 251q0 85 -57 143t-139 58q-90 2 -156.5 -68.5
t-64.5 -164.5q0 -87 54.5 -144t138.5 -57q97 0 160.5 66t63.5 167z" />
    <glyph glyph-name="uni0435" unicode="&#x435;" horiz-adv-x="565" 
d="M506 237h-416v-11q0 -91 56 -149.5t144 -58.5q102 0 171 75l19 -19q-76 -84 -191 -84q-99 0 -165 67t-66 168q-2 107 75 187t179 78q88 0 145 -55.5t57 -140.5q0 -33 -8 -57zM93 265h388q1 7 1 28q0 75 -47 122t-123 47q-82 0 -144.5 -56.5t-74.5 -140.5z" />
    <glyph glyph-name="uni0436" unicode="&#x436;" horiz-adv-x="698" 
d="M137 480l180 -225l-294 -255h-45l298 258l-179 222h40zM377 480h30l-85 -480h-30zM688 480l-263 -228l211 -252h-39l-212 255l256 225h47z" />
    <glyph glyph-name="uni0437" unicode="&#x437;" horiz-adv-x="474" 
d="M373 136q0 -68 -46 -107t-127 -39q-124 0 -179 97l23 17q50 -85 161 -85q63 0 99.5 31.5t36.5 85.5q0 49 -31.5 75.5t-89.5 26.5h-72l5 29h75q62 0 97.5 29t35.5 79q0 87 -106 87q-78 0 -140 -68l-17 18q62 78 160 78q62 0 98.5 -31t36.5 -84q0 -45 -28.5 -78t-78.5 -46
q87 -25 87 -115z" />
    <glyph glyph-name="uni0438" unicode="&#x438;" horiz-adv-x="550" 
d="M462 480h30l-84 -480h-30l11 66q-57 -76 -153 -76q-72 0 -116 42.5t-44 109.5q0 12 6 54l50 284h30l-51 -288q-5 -32 -5 -44q0 -58 36 -94t96 -36q64 0 109.5 40t58.5 108z" />
    <glyph glyph-name="uni0439" unicode="&#x439;" horiz-adv-x="550" 
d="M462 480h30l-84 -480h-30l11 66q-57 -76 -153 -76q-72 0 -116 42.5t-44 109.5q0 12 6 54l50 284h30l-51 -288q-5 -32 -5 -44q0 -58 36 -94t96 -36q64 0 109.5 40t58.5 108zM223 696q0 22 7 57h31q-7 -35 -7 -53q0 -44 26 -71t69 -27q44 0 74 29t38 80l7 42h31l-7 -42
q-11 -63 -49.5 -99.5t-95.5 -36.5q-53 0 -88.5 34.5t-35.5 86.5z" />
    <glyph glyph-name="uni043A" unicode="&#x43a;" horiz-adv-x="462" 
d="M143 480h30l-85 -480h-30zM463 480l-269 -225l206 -255h-37l-211 258l266 222h45z" />
    <glyph glyph-name="uni043B" unicode="&#x43b;" horiz-adv-x="542" 
d="M-12 -1l5 28q4 -1 18 -1q52 0 82.5 52t63.5 197q19 75 30.5 109t34.5 58.5t50.5 30t83.5 7.5h129l-85 -480h-30l80 452h-91q-55 0 -84 -9q-58 -19 -91 -176q-33 -156 -70.5 -213t-107.5 -57q-8 0 -18 2z" />
    <glyph glyph-name="uni043C" unicode="&#x43c;" horiz-adv-x="685" 
d="M615 490h15l-86 -490h-30l73 417l-251 -270h-16l-158 279l-75 -426h-30l86 490h15l174 -304z" />
    <glyph glyph-name="uni043D" unicode="&#x43d;" horiz-adv-x="550" 
d="M57 0l85 480h30l-36 -204h291l36 204h30l-85 -480h-30l44 247h-291l-44 -247h-30z" />
    <glyph glyph-name="uni043E" unicode="&#x43e;" horiz-adv-x="610" 
d="M58 226q-2 107 77 186.5t185 77.5q99 0 166 -67.5t67 -167.5q2 -107 -78 -187t-186 -78q-99 0 -165 67.5t-66 168.5zM521 254q0 88 -58 147.5t-144 59.5q-95 0 -162 -69t-67 -166q0 -90 56.5 -148.5t143.5 -58.5q95 0 163 69t68 166z" />
    <glyph glyph-name="uni043F" unicode="&#x43f;" horiz-adv-x="551" 
d="M475 338q0 -12 -6 -54l-51 -284h-30l52 288q5 32 5 46q0 57 -36 92.5t-96 35.5q-64 0 -109.5 -40t-58.5 -108l-57 -314h-30l85 480h30l-11 -66q57 76 153 76q72 0 116 -42.5t44 -109.5z" />
    <glyph glyph-name="uni0440" unicode="&#x440;" horiz-adv-x="630" 
d="M573 262q0 -115 -74.5 -193.5t-181.5 -78.5q-71 0 -130 38q-57 38 -77 98l-54 -306h-30l117 660h30l-17 -95q30 49 83 77t116 28q94 0 156 -65t62 -163zM350 461q-92 2 -159.5 -76.5t-65.5 -184.5q0 -78 54.5 -129.5t137.5 -51.5q94 0 159 70.5t65 171.5q0 88 -53 144
t-138 56z" />
    <glyph glyph-name="uni0441" unicode="&#x441;" horiz-adv-x="555" 
d="M58 226q-2 107 76.5 186.5t184.5 77.5q130 0 194 -100l-24 -17q-57 88 -169 88q-94 2 -163 -68t-67 -165q0 -90 57 -149.5t144 -59.5q101 0 169 74l20 -19q-72 -84 -188 -84q-100 0 -167 67.5t-67 168.5z" />
    <glyph glyph-name="uni0442" unicode="&#x442;" horiz-adv-x="861" 
d="M785 338q0 -12 -6 -54l-51 -284h-30l52 288q5 32 5 44q0 58 -34.5 94t-91.5 36q-60 0 -106 -41t-58 -107l-57 -314h-30l52 288q5 32 5 44q0 59 -34.5 94.5t-91.5 35.5q-61 0 -106 -40t-58 -108l-57 -314h-30l85 480h30l-11 -64q56 74 149 74q57 0 96 -30t51 -81
q24 52 69.5 81.5t102.5 29.5q70 0 112.5 -42t42.5 -110z" />
    <glyph glyph-name="uni0443" unicode="&#x443;" horiz-adv-x="552" 
d="M464 480h30l-87 -492q-14 -82 -68 -130t-131 -48q-58 0 -107 29t-78 82l25 17q56 -100 161 -100q65 0 110 40.5t58 111.5l13 74q-56 -74 -152 -74q-71 0 -115.5 42t-44.5 110q0 12 6 54l50 284h30l-51 -288q-5 -32 -5 -44q0 -58 36 -94t96 -36q64 0 109.5 40t58.5 108z
" />
    <glyph glyph-name="uni0444" unicode="&#x444;" horiz-adv-x="678" 
d="M621 264q0 -122 -83 -198t-217 -76h-11l-30 -170h-30l30 170q-99 5 -161 67t-62 160q0 121 84 197t216 76h9l47 260h30l-46 -260q99 -3 161.5 -66.5t62.5 -159.5zM285 18l76 444h-7q-117 0 -191 -67.5t-74 -176.5q0 -87 53.5 -141.5t142.5 -58.5zM589 263q0 87 -54 141
q-53 55 -143 58l-77 -444h9q117 0 191 68.5t74 176.5z" />
    <glyph glyph-name="uni0445" unicode="&#x445;" horiz-adv-x="467" 
d="M467 480l-212 -236l140 -244h-34l-129 223l-204 -223h-40l229 249l-133 231h34l121 -212l188 212h40z" />
    <glyph glyph-name="uni0446" unicode="&#x446;" horiz-adv-x="565" 
d="M468 24h19l-29 -165h-30l24 138q-28 3 -44.5 22t-15.5 46q-58 -75 -156 -75q-72 0 -116 42.5t-44 109.5q0 12 6 54l50 284h30l-51 -288q-5 -32 -5 -44q0 -58 36 -94t96 -36q64 0 109.5 40t58.5 108l56 314h30l-68 -388q-2 -16 -2 -22q0 -46 46 -46z" />
    <glyph glyph-name="uni0447" unicode="&#x447;" horiz-adv-x="502" 
d="M424 480h30l-85 -480h-30l40 226q-55 -26 -123 -26q-76 0 -119.5 39.5t-43.5 108.5q0 22 4 42l16 90h30l-17 -90q-4 -19 -4 -41q0 -57 36.5 -89t101.5 -32q66 0 124 27z" />
    <glyph glyph-name="uni0448" unicode="&#x448;" horiz-adv-x="859" 
d="M772 480h30l-84 -480h-30l11 66q-57 -76 -149 -76q-56 0 -96 29t-52 78q-25 -49 -70 -78t-101 -29q-71 0 -113 42t-42 110q0 12 6 54l50 284h30l-51 -288q-5 -32 -5 -44q0 -58 34.5 -94t91.5 -36q60 0 106 40t58 108l56 314h30l-51 -288q-5 -32 -5 -44q0 -58 34.5 -94
t91.5 -36q60 0 106 40t58 108z" />
    <glyph glyph-name="uni0449" unicode="&#x449;" horiz-adv-x="875" 
d="M778 24h19l-29 -165h-30l24 138q-28 3 -45 22.5t-15 47.5q-57 -77 -151 -77q-57 0 -97 29t-53 78q-25 -49 -68.5 -78t-99.5 -29q-71 0 -114 42.5t-43 109.5q0 12 6 54l50 284h30l-51 -288q-5 -32 -5 -44q0 -58 34.5 -94t93.5 -36t104.5 40.5t57.5 107.5l56 314h30
l-51 -288q-5 -32 -5 -44q0 -58 34.5 -94t91.5 -36q61 0 107 40.5t58 107.5l55 314h30l-68 -388q-2 -16 -2 -22q0 -46 46 -46z" />
    <glyph glyph-name="uni044A" unicode="&#x44a;" horiz-adv-x="575" 
d="M501 154q0 -74 -51 -119t-136 -45q-167 0 -167 134q0 24 4 44l50 284h-136l5 28h166l-32 -183h123q82 0 128 -38t46 -105zM469 152q0 56 -38 86.5t-107 30.5h-125l-18 -102q-4 -20 -4 -40q0 -109 137 -109q70 0 112.5 37t42.5 97z" />
    <glyph glyph-name="uni044B" unicode="&#x44b;" horiz-adv-x="672" 
d="M422 154q0 -73 -49 -118.5t-128 -45.5q-77 0 -119.5 35t-42.5 99q0 24 4 44l55 312h30l-32 -183h118q77 0 120.5 -38t43.5 -105zM594 480h30l-85 -480h-30zM390 152q0 56 -35.5 86.5t-99.5 30.5h-120l-18 -102q-4 -20 -4 -40q0 -53 34 -81t98 -28t104.5 37.5t40.5 96.5z
" />
    <glyph glyph-name="uni044C" unicode="&#x44c;" horiz-adv-x="511" 
d="M437 154q0 -74 -51 -119t-136 -45q-167 0 -167 134q0 24 4 44l55 312h30l-32 -183h123q82 0 128 -38t46 -105zM405 152q0 56 -38 86.5t-107 30.5h-125l-18 -102q-4 -20 -4 -40q0 -109 137 -109q70 0 112.5 37t42.5 97z" />
    <glyph glyph-name="uni044D" unicode="&#x44d;" horiz-adv-x="555" 
d="M497 253q2 -107 -76 -186t-185 -77q-61 0 -112.5 27t-82.5 74l25 17q58 -90 169 -90q91 0 157.5 63t72.5 155h-254l5 28h249q-5 88 -60.5 143t-140.5 55q-101 0 -169 -75l-20 19q75 84 188 84q102 0 168 -66.5t66 -170.5z" />
    <glyph glyph-name="uni044E" unicode="&#x44e;" horiz-adv-x="795" 
d="M738 259q2 -108 -77 -189.5t-184 -79.5q-98 0 -164 68t-64 168v13h-119l-42 -239h-30l85 481h30l-38 -214h118q15 94 89 158.5t168 64.5q97 0 162.5 -66.5t65.5 -164.5zM509 462q-92 2 -161 -70.5t-67 -169.5q0 -88 56 -146t141 -58q95 0 161.5 70t66.5 170q0 88 -56 146
t-141 58z" />
    <glyph glyph-name="uni044F" unicode="&#x44f;" horiz-adv-x="521" 
d="M299 480h165l-85 -480h-30l35 200h-130h-2l-192 -200h-42l197 204q-51 10 -81.5 43t-30.5 80q0 71 52.5 112t143.5 41zM256 228h133l40 224h-133q-76 0 -118.5 -32.5t-42.5 -91.5q0 -45 33.5 -72.5t87.5 -27.5z" />
    <glyph glyph-name="uni0450" unicode="&#x450;" horiz-adv-x="565" 
d="M506 237h-416v-11q0 -91 56 -149.5t144 -58.5q102 0 171 75l19 -19q-76 -84 -191 -84q-99 0 -165 67t-66 168q-2 107 75 187t179 78q88 0 145 -55.5t57 -140.5q0 -33 -8 -57zM93 265h388q1 7 1 28q0 75 -47 122t-123 47q-82 0 -144.5 -56.5t-74.5 -140.5zM314 562
l-34 213l2 5h33l22 -218h-23z" />
    <glyph glyph-name="uni0451" unicode="&#x451;" horiz-adv-x="565" 
d="M506 237h-416v-11q0 -91 56 -149.5t144 -58.5q102 0 171 75l19 -19q-76 -84 -191 -84q-99 0 -165 67t-66 168q-2 107 75 187t179 78q88 0 145 -55.5t57 -140.5q0 -33 -8 -57zM93 265h388q1 7 1 28q0 75 -47 122t-123 47q-82 0 -144.5 -56.5t-74.5 -140.5zM205 666
q0 14 10 24t24 10t24 -10t10 -24t-10 -24t-24 -10t-24 10t-10 24zM406 666q0 14 10 24t24 10t24 -10t10 -24t-10 -24t-24 -10t-24 10t-10 24z" />
    <glyph glyph-name="uni0452" unicode="&#x452;" horiz-adv-x="550" 
d="M474 338q0 -24 -6 -54l-61 -345q-23 -129 -140 -129q-34 0 -65 11l5 26q30 -9 61 -9q90 0 110 105l61 345q5 32 5 44q0 58 -36 94t-96 36q-64 0 -109.5 -40t-58.5 -108l-56 -314h-30l105 604h-86l5 28h86l21 118h30l-20 -118h209l-5 -28h-209l-33 -190q56 76 153 76
q72 0 116 -42.5t44 -109.5z" />
    <glyph glyph-name="uni0453" unicode="&#x453;" horiz-adv-x="455" 
d="M45 110q0 49 36 81.5t111 58.5l56 19q63 21 87.5 44.5t24.5 61.5q0 40 -29 63.5t-76 23.5q-76 0 -134 -55l-18 21q68 62 155 62q59 0 96.5 -31.5t37.5 -81.5q0 -48 -29.5 -78.5t-99.5 -54.5l-56 -19q-73 -25 -101.5 -50t-28.5 -64q0 -43 31 -68t84 -25q51 0 88 18t76 62
l19 -20q-75 -88 -183 -88q-66 0 -106.5 33t-40.5 87zM252 563l134 218h40v-5l-145 -213h-29z" />
    <glyph glyph-name="uni0454" unicode="&#x454;" horiz-adv-x="546" 
d="M93 264h256l-5 -28h-254v-9q0 -90 57.5 -149.5t143.5 -59.5q102 0 169 75l20 -19q-75 -84 -188 -84q-101 0 -167.5 67t-66.5 168q-2 107 76.5 187t184.5 78q61 0 112.5 -26.5t82.5 -74.5l-25 -16q-61 89 -169 89q-86 0 -150.5 -57t-76.5 -141z" />
    <glyph glyph-name="uni0455" unicode="&#x455;" horiz-adv-x="455" 
d="M40 101l26 17q54 -100 154 -100q53 0 88.5 28t35.5 70q0 30 -22 52.5t-78 52.5l-41 22q-54 29 -77 58t-23 68q0 52 41.5 86.5t104.5 34.5q93 0 148 -80l-23 -19q-53 71 -126 71q-50 0 -81.5 -26t-31.5 -66q0 -31 19 -53.5t67 -48.5l43 -23q59 -32 85.5 -61.5t26.5 -68.5
q0 -55 -44.5 -90t-113.5 -35q-117 0 -178 111z" />
    <glyph glyph-name="uni0456" unicode="&#x456;" horiz-adv-x="230" 
d="M58 0l84 480h30l-84 -480h-30zM157 666q0 14 10 24t24 10t24 -10t10 -24t-10 -24t-24 -10t-24 10t-10 24z" />
    <glyph glyph-name="uni0457" unicode="&#x457;" horiz-adv-x="231" 
d="M87 666q0 14 9.5 23.5t22.5 9.5q14 0 23.5 -9.5t9.5 -23.5q0 -13 -9.5 -22.5t-23.5 -9.5q-13 0 -22.5 9.5t-9.5 22.5zM208 666q0 14 9.5 23.5t22.5 9.5q14 0 23.5 -9.5t9.5 -23.5q0 -13 -9.5 -22.5t-23.5 -9.5q-13 0 -22.5 9.5t-9.5 22.5zM58 0l85 480h30l-85 -480h-30z
" />
    <glyph glyph-name="uni0458" unicode="&#x458;" horiz-adv-x="231" 
d="M-128 -179l5 26q30 -9 61 -9q93 0 109 97l96 545h30l-96 -548q-22 -122 -140 -122q-34 0 -65 11zM157 666q0 14 10 24t24 10t24 -10t10 -24t-10 -24t-24 -10t-24 10t-10 24z" />
    <glyph glyph-name="uni0459" unicode="&#x459;" horiz-adv-x="814" 
d="M740 154q0 -74 -51 -119t-136 -45q-167 0 -167 134q0 24 4 44l50 284h-81q-55 0 -84 -9q-58 -19 -91 -176q-33 -156 -70.5 -213t-107.5 -57q-8 0 -18 2l5 28q5 -1 18 -1q52 0 82.5 52t63.5 197q19 74 31 109t35.5 59t50.5 29.5t82 7.5h119l-32 -183h123q82 0 128 -38
t46 -105zM708 152q0 56 -38 86.5t-107 30.5h-125l-18 -102q-4 -20 -4 -40q0 -109 137 -109q70 0 112.5 37t42.5 97z" />
    <glyph glyph-name="uni045A" unicode="&#x45a;" horiz-adv-x="812" 
d="M737 149q0 -72 -51 -115.5t-136 -43.5q-167 0 -167 134q0 25 4 44l16 89h-271l-44 -257h-30l84 480h30l-35 -196h270l35 196h30l-34 -196h117q182 0 182 -135zM705 148q0 109 -153 109h-119l-16 -90q-4 -20 -4 -40q0 -109 137 -109q70 0 112.5 36t42.5 94z" />
    <glyph glyph-name="uni045B" unicode="&#x45b;" horiz-adv-x="549" 
d="M471 329q0 -18 -6 -54l-48 -275h-30l49 279q5 32 5 44q0 58 -36 94t-96 36q-63 0 -109.5 -40t-58.5 -108l-54 -305h-30l105 604h-85l5 28h85l21 118h30l-20 -118h210l-5 -28h-210l-35 -199q56 76 153 76q72 0 116 -42.5t44 -109.5z" />
    <glyph glyph-name="uni045C" unicode="&#x45c;" horiz-adv-x="462" 
d="M143 480h30l-85 -480h-30zM463 480l-269 -225l206 -255h-37l-211 258l266 222h45zM263 562l134 218h40v-5l-145 -213h-29z" />
    <glyph glyph-name="uni045D" unicode="&#x45d;" horiz-adv-x="550" 
d="M462 480h30l-84 -480h-30l11 66q-57 -76 -153 -76q-72 0 -116 42.5t-44 109.5q0 12 6 54l50 284h30l-51 -288q-5 -32 -5 -44q0 -58 36 -94t96 -36q64 0 109.5 40t58.5 108zM323 562l-34 213l2 5h33l22 -218h-23z" />
    <glyph glyph-name="uni045E" unicode="&#x45e;" horiz-adv-x="552" 
d="M464 480h30l-87 -492q-14 -82 -68 -130t-131 -48q-58 0 -107 29t-78 82l25 17q56 -100 161 -100q65 0 110 40.5t58 111.5l13 74q-56 -74 -152 -74q-71 0 -115.5 42t-44.5 110q0 12 6 54l50 284h30l-51 -288q-5 -32 -5 -44q0 -58 36 -94t96 -36q64 0 109.5 40t58.5 108z
M218 696q0 22 7 57h31q-7 -35 -7 -53q0 -44 26 -71t69 -27q44 0 74 29t38 80l7 42h31l-7 -42q-11 -63 -49.5 -99.5t-95.5 -36.5q-53 0 -88.5 34.5t-35.5 86.5z" />
    <glyph glyph-name="uni045F" unicode="&#x45f;" horiz-adv-x="550" 
d="M462 480h30l-84 -480h-30l11 66q-57 -76 -153 -76q-72 0 -116 42.5t-44 109.5q0 12 6 54l50 284h30l-51 -288q-5 -32 -5 -44q0 -58 36 -94t96 -36q64 0 109.5 40t58.5 108zM179 -220l30 168h28l-26 -168h-32z" />
    <glyph glyph-name="uni0462" unicode="&#x462;" horiz-adv-x="621" 
d="M111 0l90 514h-126l5 28h126l21 118h32l-21 -118h218l-5 -28h-218l-25 -141h152q91 0 143 -45t52 -125q0 -93 -63 -148t-170 -55h-211zM148 28h174q91 0 145 47.5t54 127.5q0 69 -43 105.5t-123 36.5h-152z" />
    <glyph glyph-name="uni0463" unicode="&#x463;" horiz-adv-x="843" 
d="M769 154q0 -74 -51 -119t-136 -45q-167 0 -167 134q0 25 4 44l21 120q5 32 5 46q0 57 -36 92.5t-96 35.5q-64 0 -109.5 -40t-58.5 -108l-57 -314h-30l85 480h30l-11 -66q57 76 153 76q72 0 116 -42.5t44 -109.5q0 -18 -4 -41h124q82 0 128 -38t46 -105zM737 152
q0 56 -38 86.5t-107 30.5h-126l-17 -102q-4 -21 -4 -40q0 -109 137 -109q70 0 112.5 37t42.5 97z" />
    <glyph glyph-name="uni0472" unicode="&#x472;" horiz-adv-x="784" 
d="M742 357q2 -96 -48.5 -182t-135.5 -136.5t-178 -48.5q-130 -2 -219 90.5t-87 223.5q-2 96 48.5 181.5t135.5 136t178 48.5q130 2 219 -90t87 -223zM110 343q87 34 161 34q56 0 140 -27q87 -27 138 -27q67 0 159 33v1q0 121 -77 202t-196 81q-121 2 -217.5 -86
t-107.5 -211zM707 327q-87 -34 -164 -34q-61 0 -144 28q-84 26 -133 26q-66 0 -158 -34v-9q-2 -119 77 -202.5t196 -81.5q124 -2 221 90t105 217z" />
    <glyph glyph-name="uni0473" unicode="&#x473;" horiz-adv-x="610" 
d="M553 255q2 -107 -78 -187t-186 -78q-99 0 -165 67.5t-66 168.5q-2 107 77 186.5t185 77.5q99 0 166 -67.5t67 -167.5zM92 257q57 22 113 22q42 0 104 -20q68 -20 102 -20q50 0 110 22q-3 87 -60 144t-142 57q-86 0 -151 -59t-76 -146zM520 233q-59 -22 -114 -22
q-42 0 -107 21q-70 19 -99 19q-51 0 -110 -22v-3q0 -90 57 -149t143 -59q90 0 156 62.5t74 152.5z" />
    <glyph glyph-name="uni0474" unicode="&#x474;" horiz-adv-x="696" 
d="M761 661l-5 -28q-22 2 -27 2q-55 0 -90 -61l-347 -584h-15l-162 670h31l148 -612l319 541q46 76 117 76q18 0 31 -4z" />
    <glyph glyph-name="uni0475" unicode="&#x475;" horiz-adv-x="526" 
d="M568 480l-5 -25l-20 1q-41 0 -75 -56l-252 -410h-15l-130 490h32l114 -438l227 374q40 67 98 67q12 0 26 -3z" />
    <glyph glyph-name="uni0490" unicode="&#x490;" horiz-adv-x="480" 
d="M61 0l116 660h321l21 121h32l-26 -149h-321l-111 -632h-32z" />
    <glyph glyph-name="uni0491" unicode="&#x491;" horiz-adv-x="415" 
d="M57 0l85 480h265l21 121h30l-26 -149h-265l-80 -452h-30z" />
    <glyph glyph-name="uni0492" unicode="&#x492;" horiz-adv-x="481" 
d="M535 631h-331l-54 -306h187l-5 -28h-187l-52 -297h-32l52 297h-103l5 28h103l59 335h363z" />
    <glyph glyph-name="uni0493" unicode="&#x493;" horiz-adv-x="417" 
d="M449 452h-285l-36 -201h161l-5 -28h-161l-39 -223h-30l39 223h-86l5 28h86l41 229h315z" />
    <glyph glyph-name="uni0496" unicode="&#x496;" horiz-adv-x="907" 
d="M177 660l267 -301l-401 -359h-46l403 361l-266 299h43zM516 660h32l-116 -660h-32zM559 354l251 -326h66l-30 -169h-32l25 141h-47l-278 359l366 301h50z" />
    <glyph glyph-name="uni0497" unicode="&#x497;" horiz-adv-x="761" 
d="M146 480l181 -225l-294 -255h-45l298 258l-180 222h40zM386 480h30l-84 -480h-30zM435 253l187 -225h62l-30 -169h-30l25 141h-44l-210 255l255 225h47z" />
    <glyph glyph-name="uni0498" unicode="&#x498;" horiz-adv-x="577" 
d="M518 203q0 -94 -66 -153.5t-170 -59.5q-172 0 -242 153l32 16q60 -139 209 -139q90 0 147.5 51t57.5 132q0 61 -45 102q-43 40 -114 40h-99l5 28h78q80 0 134 42t54 106q0 56 -38.5 87.5t-106.5 31.5q-103 0 -173 -76l-21 22q78 84 195 84q82 0 129 -39.5t47 -108.5
q0 -57 -36.5 -101t-97.5 -61q56 -16 88.5 -57.5t32.5 -99.5zM120 -176l5 26q46 -11 66 -11q41 0 66 23.5t25 61.5q0 39 -40 76l14 10q57 -31 57 -90q0 -46 -35 -78t-84 -32q-34 0 -74 14z" />
    <glyph glyph-name="uni0499" unicode="&#x499;" horiz-adv-x="474" 
d="M373 136q0 -68 -46 -107t-127 -39q-124 0 -179 97l23 17q50 -85 161 -85q63 0 99.5 31.5t36.5 85.5q0 49 -31.5 75.5t-89.5 26.5h-72l5 29h75q62 0 97.5 29t35.5 79q0 87 -106 87q-78 0 -140 -68l-17 18q62 78 160 78q62 0 98.5 -31t36.5 -84q0 -45 -28.5 -78t-78.5 -46
q87 -25 87 -115zM-4 -176l5 26q46 -11 66 -11q41 0 66 23.5t25 61.5q0 39 -40 76l14 10q57 -31 57 -90q0 -46 -35 -78t-84 -32q-34 0 -74 14z" />
    <glyph glyph-name="uni049A" unicode="&#x49a;" horiz-adv-x="588" 
d="M177 660h32l-116 -660h-32zM217 357l275 -329h65l-30 -169h-32l25 141h-45l-300 359l387 301h48z" />
    <glyph glyph-name="uni049B" unicode="&#x49b;" horiz-adv-x="518" 
d="M143 480h30l-85 -480h-30zM192 253l187 -225h62l-30 -169h-30l25 141h-44l-210 255l255 225h47z" />
    <glyph glyph-name="uni04A0" unicode="&#x4a0;" horiz-adv-x="776" 
d="M101 660h286l-116 -660h-32l111 632h-254zM788 660l-393 -303l299 -357h-39l-302 359l387 301h48z" />
    <glyph glyph-name="uni04A1" unicode="&#x4a1;" horiz-adv-x="545" 
d="M30 480h216l-85 -480h-30l80 452h-186zM536 480l-269 -218l206 -262h-38l-209 265l265 215h45z" />
    <glyph glyph-name="uni04A2" unicode="&#x4a2;" horiz-adv-x="716" 
d="M587 -141l25 141h-85l61 345h-434l-61 -345h-32l116 660h32l-51 -287h434l51 287h32l-111 -632h85l-30 -169h-32z" />
    <glyph glyph-name="uni04A3" unicode="&#x4a3;" horiz-adv-x="576" 
d="M439 -141l25 141h-75l44 247h-301l-44 -247h-30l85 480h30l-37 -205h301l37 205h30l-80 -452h75l-30 -169h-30z" />
    <glyph glyph-name="uni04AA" unicode="&#x4aa;" horiz-adv-x="709" 
d="M74 303q-3 146 108 258t256 109q82 0 148.5 -37t106.5 -105l-26 -18q-80 130 -231 130q-131 3 -231 -99.5t-97 -236.5q-2 -121 78 -203.5t198 -80.5q144 0 243 107l22 -20q-51 -56 -121.5 -86.5t-145.5 -30.5q-130 -2 -220 89t-88 224zM210 -176l5 26q46 -11 66 -11
q41 0 66 23.5t25 61.5q0 39 -40 76l14 10q57 -31 57 -90q0 -46 -35 -78t-84 -32q-34 0 -74 14z" />
    <glyph glyph-name="uni04AB" unicode="&#x4ab;" horiz-adv-x="555" 
d="M58 226q-2 107 76.5 186.5t184.5 77.5q130 0 194 -100l-24 -17q-57 88 -169 88q-94 2 -163 -68t-67 -165q0 -90 57 -149.5t144 -59.5q101 0 169 74l20 -19q-72 -84 -188 -84q-100 0 -167 67.5t-67 168.5zM116 -176l5 26q46 -11 66 -11q41 0 66 23.5t25 61.5q0 39 -40 76
l14 10q57 -31 57 -90q0 -46 -35 -78t-84 -32q-34 0 -74 14z" />
    <glyph glyph-name="uni04AE" unicode="&#x4ae;" horiz-adv-x="610" 
d="M619 660l-296 -375l-50 -285h-32l50 287l-164 373h31l152 -346l272 346h37z" />
    <glyph glyph-name="uni04AF" unicode="&#x4af;" horiz-adv-x="539" 
d="M534 480l-293 -475l-32 -185h-30l33 189l-124 471h31l114 -437l266 437h35z" />
    <glyph glyph-name="uni04B0" unicode="&#x4b0;" horiz-adv-x="612" 
d="M626 660l-296 -374h170l-5 -28h-170l-45 -258h-32l45 258h-170l5 28h170v1l-164 373h32l152 -346l272 346h36z" />
    <glyph glyph-name="uni04B1" unicode="&#x4b1;" horiz-adv-x="539" 
d="M244 9l-2 -9h139l-5 -28h-139l-26 -152h-30l26 152h-141l5 28h141l1 5l-125 475h31l114 -437l266 437h35z" />
    <glyph glyph-name="uni04B2" unicode="&#x4b2;" horiz-adv-x="578" 
d="M325 336l153 -308h69l-30 -169h-32l25 141h-52l-155 313l-267 -313h-39l291 341l-158 319h34l146 -296l246 296h39z" />
    <glyph glyph-name="uni04B3" unicode="&#x4b3;" horiz-adv-x="513" 
d="M254 245l125 -217h57l-30 -169h-30l25 141h-40l-129 222l-204 -222h-40l229 249l-127 231h34l115 -211l186 211h40z" />
    <glyph glyph-name="uni04B6" unicode="&#x4b6;" horiz-adv-x="669" 
d="M628 660l-111 -632h85l-30 -169h-32l25 141h-85l52 297q-87 -33 -173 -33q-112 0 -170.5 51.5t-58.5 150.5q0 29 7 65l23 129h32l-23 -131q-6 -35 -6 -61q0 -85 50 -129.5t146 -44.5q92 0 179 35l58 331h32z" />
    <glyph glyph-name="uni04B7" unicode="&#x4b7;" horiz-adv-x="527" 
d="M455 480l-80 -452h75l-30 -169h-30l25 141h-75l40 227q-56 -27 -124 -27q-76 0 -119.5 39.5t-43.5 108.5q0 22 4 42l16 90h30l-16 -90q-4 -20 -4 -41q0 -58 35.5 -89.5t101.5 -31.5q73 0 125 27l40 225h30z" />
    <glyph glyph-name="uni04BA" unicode="&#x4ba;" horiz-adv-x="657" 
d="M559 194q0 -29 -7 -65l-23 -129h-32l23 131q6 35 6 61q0 85 -50 129.5t-146 44.5q-92 0 -179 -35l-58 -331h-32l116 660h32l-52 -297q87 33 173 33q112 0 170.5 -51.5t58.5 -150.5z" />
    <glyph glyph-name="uni04BB" unicode="&#x4bb;" horiz-adv-x="551" 
d="M474 338q0 -24 -6 -54l-49 -284h-30l50 288q6 30 6 50q0 55 -37 89.5t-96 34.5q-62 0 -109 -40.5t-59 -107.5l-55 -314h-30l131 750h30l-59 -335q58 75 153 75q71 0 115.5 -42t44.5 -110z" />
    <glyph glyph-name="uni04C0" unicode="&#x4c0;" horiz-adv-x="238" 
d="M61 0l116 660h32l-116 -660h-32z" />
    <glyph glyph-name="uni04C1" unicode="&#x4c1;" horiz-adv-x="917" 
d="M177 660l267 -301l-401 -359h-46l403 361l-266 299h43zM516 660h32l-116 -660h-32zM930 660l-372 -306l277 -354h-41l-280 359l366 301h50zM424 853q0 22 7 57h31q-7 -35 -7 -53q0 -44 26 -71t69 -27t73.5 29t38.5 80l7 42h31l-7 -42q-11 -63 -49.5 -99.5t-95.5 -36.5
q-53 0 -88.5 34.5t-35.5 86.5z" />
    <glyph glyph-name="uni04C2" unicode="&#x4c2;" horiz-adv-x="698" 
d="M137 480l180 -225l-294 -255h-45l298 258l-179 222h40zM377 480h30l-85 -480h-30zM688 480l-263 -228l211 -252h-39l-212 255l256 225h47zM296 696q0 22 7 57h31q-7 -35 -7 -53q0 -44 26 -71t69 -27q44 0 74 29t38 80l7 42h31l-7 -42q-11 -63 -49.5 -99.5t-95.5 -36.5
q-53 0 -88.5 34.5t-35.5 86.5z" />
    <glyph glyph-name="uni04CF" unicode="&#x4cf;" horiz-adv-x="220" 
d="M58 0l132 750h30l-132 -750h-30z" />
    <glyph glyph-name="uni04D0" unicode="&#x4d0;" horiz-adv-x="666" 
d="M552 0l-43 176h-362l-103 -176h-36l398 670h15l162 -670h-31zM503 204l-99 407l-241 -407h340zM295 853q0 22 7 57h31q-7 -35 -7 -53q0 -44 26 -71t69 -27t73.5 29t38.5 80l7 42h31l-7 -42q-11 -63 -49.5 -99.5t-95.5 -36.5q-53 0 -88.5 34.5t-35.5 86.5z" />
    <glyph glyph-name="uni04D1" unicode="&#x4d1;" horiz-adv-x="632" 
d="M544 480h30l-85 -480h-30l17 95q-30 -49 -83 -77t-116 -28q-92 0 -156 67.5t-64 165.5q-2 108 76 188.5t184 78.5q72 0 129 -39q56 -38 76 -98zM317 462q-91 2 -160.5 -71t-67.5 -167q0 -88 55 -147t138 -59q89 -2 157 74.5t66 176.5q0 87 -52 139q-51 54 -136 54z
M224 696q0 22 7 57h31q-7 -35 -7 -53q0 -44 26 -71t69 -27q44 0 74 29t38 80l7 42h31l-7 -42q-11 -63 -49.5 -99.5t-95.5 -36.5q-53 0 -88.5 34.5t-35.5 86.5z" />
    <glyph glyph-name="uni04D4" unicode="&#x4d4;" horiz-adv-x="797" 
d="M812 632h-345l1 -259h219l-5 -28h-214l1 -317h250l-5 -28h-276v176h-302l-122 -176h-36l459 660h380zM438 204l-1 405l-281 -405h282z" />
    <glyph glyph-name="uni04D5" unicode="&#x4d5;" horiz-adv-x="901" 
d="M842 229h-413v-8q0 -89 55.5 -146t141.5 -57q102 0 171 75l19 -19q-76 -84 -191 -84q-77 0 -135.5 42t-80.5 112q-22 -72 -79.5 -113t-137.5 -41q-72 0 -116 34.5t-44 90.5q0 65 51 103.5t138 38.5h177l6 37q4 21 4 34q0 62 -36.5 98t-98.5 36q-79 0 -151 -72l-18 20
q76 80 172 80q66 0 108 -34t51 -93q34 58 91 92t123 34q88 0 144.5 -55.5t56.5 -141.5q0 -26 -8 -63zM431 257h385l2 36q0 75 -47 121.5t-123 46.5q-84 0 -144.5 -57.5t-72.5 -146.5zM385 177l8 52h-176q-73 0 -112.5 -28.5t-39.5 -81.5q0 -47 34.5 -74t92.5 -27
q73 0 128 44q55 46 65 115z" />
    <glyph glyph-name="uni04D6" unicode="&#x4d6;" horiz-adv-x="562" 
d="M61 0l116 660h406l-5 -28h-374l-46 -259h294l-4 -28h-294l-56 -317h386l-5 -28h-418zM271 853q0 22 7 57h31q-7 -35 -7 -53q0 -44 26 -71t69 -27t73.5 29t38.5 80l7 42h31l-7 -42q-11 -63 -49.5 -99.5t-95.5 -36.5q-53 0 -88.5 34.5t-35.5 86.5z" />
    <glyph glyph-name="uni04D7" unicode="&#x4d7;" horiz-adv-x="565" 
d="M506 237h-416v-11q0 -91 56 -149.5t144 -58.5q102 0 171 75l19 -19q-76 -84 -191 -84q-99 0 -165 67t-66 168q-2 107 75 187t179 78q88 0 145 -55.5t57 -140.5q0 -33 -8 -57zM93 265h388q1 7 1 28q0 75 -47 122t-123 47q-82 0 -144.5 -56.5t-74.5 -140.5zM211 696
q0 22 7 57h31q-7 -35 -7 -53q0 -44 26 -71t69 -27q44 0 74 29t38 80l7 42h31l-7 -42q-11 -63 -49.5 -99.5t-95.5 -36.5q-53 0 -88.5 34.5t-35.5 86.5z" />
    <glyph glyph-name="uni04D8" unicode="&#x4d8;" horiz-adv-x="729" 
d="M689 369q2 -98 -46 -187t-129 -141.5t-171 -50.5q-124 0 -200 75t-76 199q0 26 6 68h580q2 32 2 37q2 113 -77.5 193t-192.5 78q-71 0 -135.5 -29t-106.5 -79l-22 20q47 55 118 86.5t148 31.5q125 2 214.5 -87t87.5 -214zM649 304h-546q-2 -38 -2 -41q0 -110 67 -176.5
t177 -66.5q108 -2 197.5 82t106.5 202z" />
    <glyph glyph-name="uni04D9" unicode="&#x4d9;" horiz-adv-x="563" 
d="M505 255q2 -107 -75 -187t-179 -78q-88 0 -145 54t-57 136q0 31 8 58h416v16q0 91 -56 149.5t-142 58.5q-98 0 -165 -75l-19 19q71 84 185 84q98 0 163.5 -67.5t65.5 -167.5zM469 210h-386q-2 -24 -2 -29q0 -72 47.5 -117.5t122.5 -45.5q81 0 142.5 54.5t75.5 137.5z" />
    <glyph glyph-name="uni04E2" unicode="&#x4e2;" horiz-adv-x="714" 
d="M672 670h15l-118 -670h-32l105 599l-568 -609h-15l118 670h32l-107 -607zM315 782l5 28h272l-5 -28h-272z" />
    <glyph glyph-name="uni04E3" unicode="&#x4e3;" horiz-adv-x="550" 
d="M462 480h30l-84 -480h-30l11 66q-57 -76 -153 -76q-72 0 -116 42.5t-44 109.5q0 12 6 54l50 284h30l-51 -288q-5 -32 -5 -44q0 -58 36 -94t96 -36q64 0 109.5 40t58.5 108zM222 653l5 28h252l-5 -28h-252z" />
    <glyph glyph-name="uni04E6" unicode="&#x4e6;" horiz-adv-x="784" 
d="M74 304q-2 96 48 181.5t134.5 136t179.5 48.5q130 2 219 -89t87 -224q4 -147 -106.5 -258.5t-255.5 -108.5q-129 -2 -218.5 90t-87.5 224zM708 357q2 119 -77.5 201.5t-195.5 80.5q-132 2 -231 -99t-96 -236q-2 -120 77.5 -202.5t195.5 -80.5q130 -3 229.5 99.5
t97.5 236.5zM337 806q0 14 10 24t24 10t24 -10t10 -24t-10 -24t-24 -10t-24 10t-10 24zM558 806q0 14 10 24t24 10t24 -10t10 -24t-10 -24t-24 -10t-24 10t-10 24z" />
    <glyph glyph-name="uni04E7" unicode="&#x4e7;" horiz-adv-x="610" 
d="M58 226q-2 107 77 186.5t185 77.5q99 0 166 -67.5t67 -167.5q2 -107 -78 -187t-186 -78q-99 0 -165 67.5t-66 168.5zM521 254q0 88 -58 147.5t-144 59.5q-95 0 -162 -69t-67 -166q0 -90 56.5 -148.5t143.5 -58.5q95 0 163 69t68 166zM226 666q0 14 10 24t24 10t24 -10
t10 -24t-10 -24t-24 -10t-24 10t-10 24zM427 666q0 14 10 24t24 10t24 -10t10 -24t-10 -24t-24 -10t-24 10t-10 24z" />
    <glyph glyph-name="uni04E8" unicode="&#x4e8;" horiz-adv-x="784" 
d="M742 357q2 -95 -48 -181t-135 -137t-179 -49q-129 -2 -218.5 90t-87.5 224q-2 96 48 181.5t135 136t179 48.5q130 2 219 -89t87 -224zM111 348h597v9q2 120 -77.5 202.5t-195.5 80.5q-120 2 -215.5 -84.5t-108.5 -207.5zM706 320h-598v-16q0 -122 78 -203t195 -81
q122 -2 218 87t107 213z" />
    <glyph glyph-name="uni04E9" unicode="&#x4e9;" horiz-adv-x="610" 
d="M553 255q2 -107 -78.5 -187t-185.5 -78q-98 0 -164.5 67.5t-66.5 168.5q-2 107 77 186.5t185 77.5q97 2 166 -67t67 -168zM92 259h429q-1 87 -59.5 145t-142.5 58q-86 0 -150.5 -58t-76.5 -145zM520 231h-430v-5q0 -90 57 -149t143 -59q89 0 156 61.5t74 151.5z" />
    <glyph glyph-name="uni04EE" unicode="&#x4ee;" horiz-adv-x="610" 
d="M608 660h35l-342 -562q-64 -106 -159 -106q-40 0 -64 10l5 28q29 -8 58 -8q43 0 75 21t61 68l18 29l-169 520h33l155 -487zM257 782l5 28h272l-5 -28h-272z" />
    <glyph glyph-name="uni04EF" unicode="&#x4ef;" horiz-adv-x="552" 
d="M464 480h30l-87 -492q-14 -82 -68 -130t-131 -48q-58 0 -107 29t-78 82l25 17q56 -100 161 -100q65 0 110 40.5t58 111.5l13 74q-56 -74 -152 -74q-71 0 -115.5 42t-44.5 110q0 12 6 54l50 284h30l-51 -288q-5 -32 -5 -44q0 -58 36 -94t96 -36q64 0 109.5 40t58.5 108z
M231 653l5 28h252l-5 -28h-252z" />
    <glyph glyph-name="uni04F2" unicode="&#x4f2;" horiz-adv-x="610" 
d="M608 660h35l-342 -562q-64 -106 -159 -106q-40 0 -64 10l5 28q29 -8 58 -8q43 0 75 21t61 68l18 29l-169 520h33l155 -487zM255 724l129 186h39l-1 -5l-138 -181h-29zM459 724l129 186h39l-1 -5l-138 -181h-29z" />
    <glyph glyph-name="uni04F3" unicode="&#x4f3;" horiz-adv-x="552" 
d="M464 480h30l-87 -492q-14 -82 -68 -130t-131 -48q-58 0 -107 29t-78 82l25 17q56 -100 161 -100q65 0 110 40.5t58 111.5l13 74q-56 -74 -152 -74q-71 0 -115.5 42t-44.5 110q0 12 6 54l50 284h30l-51 -288q-5 -32 -5 -44q0 -58 36 -94t96 -36q64 0 109.5 40t58.5 108z
M230 562l134 218h40l-1 -5l-144 -213h-29zM414 562l134 218h40l-1 -5l-144 -213h-29z" />
    <glyph glyph-name="Wgrave" unicode="&#x1e80;" horiz-adv-x="1077" 
d="M1052 660h34l-357 -670h-15l-121 613l-336 -613h-15l-123 670h31l109 -608l337 618h15l120 -615zM620 724l-74 181v5h36l63 -186h-25z" />
    <glyph glyph-name="wgrave" unicode="&#x1e81;" horiz-adv-x="842" 
d="M807 480h33l-269 -490h-15l-109 439l-260 -439h-15l-101 490h32l86 -432l259 442h15l107 -445zM460 562l-34 213l2 5h33l22 -218h-23z" />
    <glyph glyph-name="Wacute" unicode="&#x1e82;" horiz-adv-x="1077" 
d="M1052 660h34l-357 -670h-15l-121 613l-336 -613h-15l-123 670h31l109 -608l337 618h15l120 -615zM616 724l126 186h40l-1 -5l-138 -181h-27z" />
    <glyph glyph-name="wacute" unicode="&#x1e83;" horiz-adv-x="842" 
d="M807 480h33l-269 -490h-15l-109 439l-260 -439h-15l-101 490h32l86 -432l259 442h15l107 -445zM444 562l134 218h40v-5l-145 -213h-29z" />
    <glyph glyph-name="Wdieresis" unicode="&#x1e84;" horiz-adv-x="1077" 
d="M1052 660h34l-357 -670h-15l-121 613l-336 -613h-15l-123 670h31l109 -608l337 618h15l120 -615zM500 806q0 14 10 24t24 10t24 -10t10 -24t-10 -24t-24 -10t-24 10t-10 24zM721 806q0 14 10 24t24 10t24 -10t10 -24t-10 -24t-24 -10t-24 10t-10 24z" />
    <glyph glyph-name="wdieresis" unicode="&#x1e85;" horiz-adv-x="842" 
d="M807 480h33l-269 -490h-15l-109 439l-260 -439h-15l-101 490h32l86 -432l259 442h15l107 -445zM351 666q0 14 10 24t24 10t24 -10t10 -24t-10 -24t-24 -10t-24 10t-10 24zM552 666q0 14 10 24t24 10t24 -10t10 -24t-10 -24t-24 -10t-24 10t-10 24z" />
    <glyph glyph-name="uni1E9E" unicode="&#x1e9e;" horiz-adv-x="694" 
d="M656 660l-2 -12l-211 -249q77 -6 129 -62t52 -135q0 -89 -63.5 -150.5t-153.5 -61.5q-110 0 -180 95l22 19q61 -83 160 -83q75 0 128.5 53t53.5 127t-51 123t-128 49h-20l2 12l210 247h-400l-111 -632h-32l116 660h479z" />
    <glyph glyph-name="Ygrave" unicode="&#x1ef2;" horiz-adv-x="610" 
d="M619 660l-296 -375l-50 -285h-32l50 287l-164 373h31l152 -346l272 346h37zM373 724l-74 181v5h36l63 -186h-25z" />
    <glyph glyph-name="ygrave" unicode="&#x1ef3;" horiz-adv-x="552" 
d="M464 480h30l-87 -492q-14 -82 -68 -130t-131 -48q-58 0 -107 29t-78 82l25 17q56 -100 161 -100q65 0 110 40.5t58 111.5l13 74q-56 -74 -152 -74q-71 0 -115.5 42t-44.5 110q0 12 6 54l50 284h30l-51 -288q-5 -32 -5 -44q0 -58 36 -94t96 -36q64 0 109.5 40t58.5 108z
M318 562l-34 213l2 5h33l22 -218h-23z" />
    <glyph glyph-name="uni2009" unicode="&#x2009;" horiz-adv-x="140" 
 />
    <glyph glyph-name="endash" unicode="&#x2013;" horiz-adv-x="500" 
d="M60 295l5 28h400l-5 -28h-400z" />
    <glyph glyph-name="emdash" unicode="&#x2014;" horiz-adv-x="1000" 
d="M60 295l5 28h900l-5 -28h-900z" />
    <glyph glyph-name="uni2015" unicode="&#x2015;" horiz-adv-x="1000" 
d="M60 295l5 28h900l-5 -28h-900z" />
    <glyph glyph-name="quoteleft" unicode="&#x2018;" horiz-adv-x="265" 
d="M134 420l74 240h27l-61 -240h-40z" />
    <glyph glyph-name="quoteright" unicode="&#x2019;" horiz-adv-x="265" 
d="M136 420l61 240h40l-74 -240h-27z" />
    <glyph glyph-name="quotesinglbase" unicode="&#x201a;" horiz-adv-x="265" 
d="M30 -177l62 240h40l-75 -240h-27z" />
    <glyph glyph-name="quotedblleft" unicode="&#x201c;" horiz-adv-x="405" 
d="M134 420l74 240h27l-61 -240h-40zM274 420l74 240h27l-61 -240h-40z" />
    <glyph glyph-name="quotedblright" unicode="&#x201d;" horiz-adv-x="405" 
d="M136 420l61 240h40l-74 -240h-27zM276 420l61 240h40l-74 -240h-27z" />
    <glyph glyph-name="quotedblbase" unicode="&#x201e;" horiz-adv-x="405" 
d="M30 -177l62 240h40l-75 -240h-27zM170 -177l62 240h40l-75 -240h-27z" />
    <glyph glyph-name="dagger" unicode="&#x2020;" horiz-adv-x="426" 
d="M224 386l37 210h-123l5 28h123l22 126h30l-22 -126h123l-5 -28h-123l-37 -210h-30z" />
    <glyph glyph-name="daggerdbl" unicode="&#x2021;" horiz-adv-x="426" 
d="M218 356l17 96h-123l5 28h123l26 146h-123l5 28h123l17 96h30l-17 -96h123l-5 -28h-123l-26 -146h123l-5 -28h-123l-17 -96h-30z" />
    <glyph glyph-name="bullet" unicode="&#x2022;" horiz-adv-x="337" 
d="M66 264q0 46 32 76t75 30t74.5 -30t31.5 -76t-31.5 -76t-74.5 -30t-75 30t-32 76z" />
    <glyph glyph-name="ellipsis" unicode="&#x2026;" horiz-adv-x="760" 
d="M304 28q0 18 11 29t27 11t28 -11t12 -29q0 -17 -12 -27.5t-28 -10.5t-27 10.5t-11 27.5zM64 28q0 18 11 29t27 11t28 -11t12 -29q0 -17 -12 -27.5t-28 -10.5t-27 10.5t-11 27.5zM544 28q0 18 11 29t27 11t28 -11t12 -29q0 -17 -12 -27.5t-28 -10.5t-27 10.5t-11 27.5z
" />
    <glyph glyph-name="perthousand" unicode="&#x2030;" horiz-adv-x="1187" 
d="M108 507q0 68 47 115.5t115 47.5q64 0 107 -44t43 -109q0 -68 -47.5 -115.5t-115.5 -47.5q-63 0 -106 44t-43 109zM141 0l515 660h33l-515 -660h-33zM388 517q0 55 -32.5 90t-84.5 35q-57 0 -94 -39q-37 -37 -37 -96q0 -54 34 -89.5t86 -35.5q55 0 91.5 38.5t36.5 96.5z
M800 145q0 68 47 115.5t115 47.5q64 0 107 -44t43 -109q0 -68 -47.5 -115.5t-115.5 -47.5q-63 0 -106 44t-43 109zM407 143q0 68 47 115.5t115 47.5q64 0 107 -44t43 -109q0 -68 -47.5 -115.5t-115.5 -47.5q-63 0 -106 44t-43 109zM1080 155q0 55 -32.5 90t-84.5 35
q-57 0 -94 -39q-37 -37 -37 -96q0 -54 34 -89.5t86 -35.5q55 0 91.5 38.5t36.5 96.5zM687 153q0 55 -32.5 90t-84.5 35q-56 0 -94 -39q-37 -37 -37 -96q0 -54 34 -89.5t86 -35.5q55 0 91.5 38.5t36.5 96.5z" />
    <glyph glyph-name="minute" unicode="&#x2032;" horiz-adv-x="212" 
d="M98 398l90 262h42l-104 -262h-28z" />
    <glyph glyph-name="second" unicode="&#x2033;" horiz-adv-x="352" 
d="M98 398l90 262h42l-104 -262h-28zM238 398l90 262h42l-104 -262h-28z" />
    <glyph glyph-name="guilsinglleft" unicode="&#x2039;" horiz-adv-x="277" 
d="M183 91l-133 172l2 12l191 172l20 -22l-174 -159l118 -158z" />
    <glyph glyph-name="guilsinglright" unicode="&#x203a;" horiz-adv-x="278" 
d="M45 91l-20 22l174 159l-118 158l24 17l133 -172l-2 -12z" />
    <glyph glyph-name="fraction" unicode="&#x2044;" horiz-adv-x="246" 
d="M-125 0l495 660h33l-495 -660h-33z" />
    <glyph glyph-name="uni2070" unicode="&#x2070;" horiz-adv-x="401" 
d="M107 514q0 42 10 87.5t30 88.5t56.5 70t83.5 26q59 0 91 -41t32 -115q0 -43 -10 -88t-29.5 -88t-56 -70t-83.5 -26q-59 0 -91.5 41.5t-32.5 114.5zM378 632q0 64 -26 95t-68 31q-38 1 -67.5 -24t-45.5 -64.5t-24 -80t-8 -77.5q0 -65 26 -95.5t69 -30.5q38 -1 67 23.5
t45.5 64t24 80.5t7.5 78z" />
    <glyph glyph-name="uni2074" unicode="&#x2074;" horiz-adv-x="346" 
d="M366 474l-5 -28h-65l-14 -82h-31l14 82h-209l2 10l194 324h34l-185 -306h169l27 151h31l-27 -151h65z" />
    <glyph glyph-name="uni2075" unicode="&#x2075;" horiz-adv-x="366" 
d="M392 752h-191l-23 -134q40 2 47 2q65 0 102 -31.5t37 -87.5q0 -63 -42 -103q-41 -40 -106 -40q-100 0 -138 92l25 14q37 -78 112 -78q52 0 84.5 31.5t32.5 81.5q0 44 -28.5 69t-80.5 25h-81l33 187h222z" />
    <glyph glyph-name="uni2076" unicode="&#x2076;" horiz-adv-x="361" 
d="M361 499q0 -58 -42 -99.5t-101 -41.5q-55 0 -92 37t-37 92q0 29 10 52q11 24 22 40q14 20 41 52l121 149h39l-137 -166q23 12 51 12q53 0 89 -37q36 -36 36 -90zM329 498q0 44 -27 72t-70 28q-47 0 -79 -32.5t-32 -79.5q0 -44 28 -72t71 -28q47 0 78 32t31 80z" />
    <glyph glyph-name="uni2077" unicode="&#x2077;" horiz-adv-x="315" 
d="M119 780h271l-2 -10l-291 -406h-35l279 388h-227z" />
    <glyph glyph-name="uni2078" unicode="&#x2078;" horiz-adv-x="376" 
d="M368 474q0 -50 -40 -82.5t-101 -32.5q-63 0 -101.5 29.5t-38.5 77.5q0 44 34.5 75.5t95.5 44.5q-72 38 -72 94q0 46 35 76t88 30t86 -26.5t33 -69.5q0 -79 -106 -110q87 -40 87 -106zM250 597q107 28 107 90q0 32 -25 52.5t-64 20.5q-41 0 -67 -22.5t-26 -56.5
q0 -24 17 -43t58 -41zM337 475q0 28 -19 47.5t-72 47.5q-128 -32 -128 -102q0 -38 29 -60.5t79 -22.5q49 0 80 25t31 65z" />
    <glyph glyph-name="uni2079" unicode="&#x2079;" horiz-adv-x="360" 
d="M388 657q0 -29 -10 -52q-12 -27 -22 -41q-8 -11 -41 -51l-121 -149h-39l137 166q-22 -12 -51 -12q-53 0 -89 36q-36 38 -36 91q0 58 42 99.5t101 41.5q56 0 92.5 -36.5t36.5 -92.5zM356 658q0 44 -28 72t-71 28q-47 0 -78 -32t-31 -80q0 -44 27 -72t70 -28q47 0 79 32.5
t32 79.5z" />
    <glyph glyph-name="uni207A" unicode="&#x207a;" horiz-adv-x="427" 
d="M228 406l27 153h-149l5 27h149l27 153h30l-27 -153h149l-5 -27h-149l-27 -153h-30z" />
    <glyph glyph-name="uni207B" unicode="&#x207b;" horiz-adv-x="427" 
d="M106 559l5 27h327l-5 -27h-327z" />
    <glyph glyph-name="uni207C" unicode="&#x207c;" horiz-adv-x="427" 
d="M127 636l5 27h312l-5 -27h-312zM100 482l4 27h312l-4 -27h-312z" />
    <glyph glyph-name="uni207D" unicode="&#x207d;" horiz-adv-x="244" 
d="M115 479q-2 139 59.5 260t152.5 161l10 -23q-84 -43 -139.5 -156.5t-53.5 -238.5q0 -147 85 -217l-16 -20q-98 74 -98 234z" />
    <glyph glyph-name="uni207E" unicode="&#x207e;" horiz-adv-x="243" 
d="M34 245l-10 23q84 43 139.5 156.5t53.5 238.5q0 147 -85 217l16 20q98 -74 98 -234q2 -139 -59.5 -260t-152.5 -161z" />
    <glyph glyph-name="uni2080" unicode="&#x2080;" horiz-adv-x="401" 
d="M22 30q0 42 10 87.5t30 88.5t56.5 70t83.5 26q59 0 91 -41t32 -115q0 -43 -10 -88t-29.5 -88t-56 -70t-83.5 -26q-59 0 -91.5 41.5t-32.5 114.5zM293 148q0 64 -26 95t-68 31q-38 1 -67.5 -24t-45.5 -64.5t-24 -80t-8 -77.5q0 -65 26 -95.5t69 -30.5q38 -1 67 23.5
t45.5 64t24 80.5t7.5 78z" />
    <glyph glyph-name="uni2081" unicode="&#x2081;" horiz-adv-x="341" 
d="M-11 -120l5 28h111l63 360h-112l5 28h142l-68 -388h101l-5 -28h-242z" />
    <glyph glyph-name="uni2082" unicode="&#x2082;" horiz-adv-x="359" 
d="M173 15l-131 -107h218l-5 -28h-281l2 9l179 147q100 81 100 151q0 40 -24 63.5t-64 23.5q-45 0 -73.5 -32t-28.5 -82q0 -15 1 -19h-31q-1 3 -1 20q0 61 38 101t96 40q53 0 86 -31t33 -82q0 -43 -26.5 -83.5t-87.5 -90.5z" />
    <glyph glyph-name="uni2083" unicode="&#x2083;" horiz-adv-x="351" 
d="M300 296l-2 -10l-144 -150q48 -6 78.5 -39.5t30.5 -80.5q0 -61 -43 -101.5t-106 -40.5q-95 0 -136 92l25 14q34 -79 111 -79q51 0 84 32t33 82q0 44 -30 70t-82 26h-20l2 10l141 147h-187l5 28h240z" />
    <glyph glyph-name="uni2084" unicode="&#x2084;" horiz-adv-x="346" 
d="M281 -10l-5 -28h-65l-14 -82h-31l14 82h-209l2 10l194 324h34l-185 -306h169l27 151h31l-27 -151h65z" />
    <glyph glyph-name="uni2085" unicode="&#x2085;" horiz-adv-x="366" 
d="M307 268h-191l-23 -134q40 2 47 2q65 0 102 -31.5t37 -87.5q0 -61 -42 -102q-43 -41 -106 -41q-100 0 -138 92l25 14q37 -78 112 -78q52 0 84.5 31.5t32.5 81.5q0 44 -28.5 69t-80.5 25h-81l33 187h222z" />
    <glyph glyph-name="uni2086" unicode="&#x2086;" horiz-adv-x="361" 
d="M276 15q0 -58 -42 -99.5t-101 -41.5q-55 0 -92 37t-37 92q0 29 10 52q11 24 22 40q14 20 41 52l121 149h39l-137 -166q22 12 51 12q53 0 89 -37q36 -36 36 -90zM244 14q0 44 -27 72t-70 28q-47 0 -79 -32.5t-32 -79.5q0 -44 28 -72t71 -28q47 0 78 32t31 80z" />
    <glyph glyph-name="uni2087" unicode="&#x2087;" horiz-adv-x="315" 
d="M34 296h271l-2 -10l-291 -406h-35l279 388h-227z" />
    <glyph glyph-name="uni2088" unicode="&#x2088;" horiz-adv-x="376" 
d="M283 -10q0 -50 -40 -82.5t-101 -32.5q-63 0 -101.5 29.5t-38.5 77.5q0 44 34.5 75.5t95.5 44.5q-72 38 -72 94q0 46 35 76t88 30t86 -26.5t33 -69.5q0 -79 -106 -110q87 -40 87 -106zM165 113q107 28 107 90q0 32 -25 52.5t-64 20.5q-41 0 -67 -22.5t-26 -56.5
q0 -24 17 -43t58 -41zM252 -9q0 28 -19 47.5t-72 47.5q-128 -32 -128 -102q0 -38 29 -60.5t79 -22.5q49 0 80 25t31 65z" />
    <glyph glyph-name="uni2089" unicode="&#x2089;" horiz-adv-x="360" 
d="M303 173q0 -29 -10 -52q-12 -27 -22 -41q-8 -11 -41 -51l-121 -149h-39l137 166q-23 -12 -51 -12q-53 0 -89 36q-36 37 -36 91q0 58 42 99.5t101 41.5q56 0 92.5 -36.5t36.5 -92.5zM271 174q0 44 -28 72t-71 28q-47 0 -78 -32t-31 -80q0 -44 27 -72t70 -28q47 0 79 32.5
t32 79.5z" />
    <glyph glyph-name="uni208A" unicode="&#x208a;" horiz-adv-x="428" 
d="M143 -79l27 153h-149l5 27h149l27 153h30l-27 -153h149l-5 -27h-149l-27 -153h-30z" />
    <glyph glyph-name="uni208B" unicode="&#x208b;" horiz-adv-x="428" 
d="M21 74l5 27h327l-5 -27h-327z" />
    <glyph glyph-name="uni208C" unicode="&#x208c;" horiz-adv-x="428" 
d="M42 151l5 27h312l-5 -27h-312zM15 -3l4 27h312l-4 -27h-312z" />
    <glyph glyph-name="uni208D" unicode="&#x208d;" horiz-adv-x="243" 
d="M29 -6q-2 139 59.5 260t152.5 161l10 -23q-84 -43 -139.5 -156.5t-53.5 -238.5q0 -147 85 -217l-16 -20q-98 74 -98 234z" />
    <glyph glyph-name="uni208E" unicode="&#x208e;" horiz-adv-x="243" 
d="M-52 -240l-10 23q84 43 139.5 156.5t53.5 238.5q0 147 -85 217l16 20q98 -74 98 -234q2 -139 -59.5 -260t-152.5 -161z" />
    <glyph glyph-name="lira" unicode="&#x20a4;" horiz-adv-x="494" 
d="M504 505l-33 -7q-9 68 -45.5 105t-94.5 37q-65 0 -107 -44q-41 -44 -41 -112q0 -37 25 -117h195l-5 -28h-182q16 -55 16 -101q0 -16 -1 -21h145l-5 -28h-144q-19 -105 -113 -161h296l-5 -28h-379l2 12q143 63 167 177h-129l5 28h128q1 4 1 17q0 44 -19 105h-88l5 28h75
q-24 79 -24 117q0 80 51.5 133t129.5 53q71 0 117.5 -44t56.5 -121z" />
    <glyph glyph-name="peseta" unicode="&#x20a7;" horiz-adv-x="563" 
d="M608 497l-5 -28h-87q-11 -72 -69 -115t-146 -43h-140l-54 -311h-32l82 469h-86l5 28h86l29 163h145q85 0 133.5 -42.5t48.5 -117.5v-3h90zM330 632h-112l-24 -135h290v3q0 64 -39.5 98t-114.5 34zM481 469h-292l-23 -130h133q76 0 124 34.5t58 95.5z" />
    <glyph glyph-name="Euro" unicode="&#x20ac;" horiz-adv-x="684" 
d="M676 564l-25 -18q-64 94 -191 94q-95 0 -172 -62q-75 -62 -108 -162h344l-13 -28h-338q-12 -48 -12 -101q0 -15 1 -20h293l-13 -28h-278q14 -100 80 -159.5t165 -59.5q109 0 176 75l21 -20q-77 -85 -200 -85q-110 0 -186 69t-90 180h-122l5 28h114v18q0 53 12 103h-102
l5 28h104q33 112 119.5 183t192.5 71q143 0 218 -106z" />
    <glyph glyph-name="uni20AE" unicode="&#x20ae;" horiz-adv-x="584" 
d="M626 632h-249l-45 -254l208 73l-5 -31l-208 -73l-21 -121l208 73l-6 -31l-208 -72l-34 -196h-32l32 185l-207 -73l6 31l207 72l21 121l-207 -72l6 31l206 72l47 265h-249l5 28h530z" />
    <glyph glyph-name="uni20B4" unicode="&#x20b4;" horiz-adv-x="545" 
d="M326 344l-61 -32q-57 -30 -78 -45h330l-5 -28h-363q-41 -36 -41 -89q0 -58 41.5 -94t109.5 -36q117 0 210 114l21 -19q-100 -125 -234 -125q-80 0 -131 45t-51 114q0 52 32 90h-73l5 28h99q40 31 118 72l62 33l29 16h-285l5 28h326q40 27 56 51.5t16 57.5q0 50 -40 82.5
t-103 32.5q-92 0 -163 -77l-20 19q79 88 188 88q76 0 124 -40.5t48 -104.5t-55 -109h99l-5 -28h-134q-26 -18 -77 -44z" />
    <glyph glyph-name="uni20B8" unicode="&#x20b8;" horiz-adv-x="584" 
d="M96 632l5 28h530l-5 -28h-530zM234 0l85 483h-249l5 28h530l-5 -28h-249l-85 -483h-32z" />
    <glyph glyph-name="uni20B9" unicode="&#x20b9;" horiz-adv-x="494" 
d="M491 660l-5 -28h-178q71 -35 77 -121h80l-5 -28h-76q-6 -78 -64.5 -125t-151.5 -47h-67l274 -311h-42l-274 311l5 28h102q79 0 128.5 38.5t55.5 105.5h-261l5 28h257q-8 121 -154 121h-81l5 28h370z" />
    <glyph glyph-name="uni20BA" unicode="&#x20ba;" horiz-adv-x="502" 
d="M451 207q0 -101 -67 -159t-180 -58q-48 0 -102 10l46 263l-115 -49l5 32l116 49l21 120l-116 -49l5 32l117 50l37 212h33l-35 -199l217 92l-5 -32l-218 -93l-21 -120l218 93l-5 -32l-219 -93l-45 -252q23 -4 59 -4q111 0 168 56t55 163h29q2 -26 2 -32z" />
    <glyph glyph-name="uni20BD" unicode="&#x20bd;" horiz-adv-x="561" 
d="M75 0l28 162h-86l5 28h86l22 121h-86l4 28h86l57 321h175q85 0 133.5 -42.5t48.5 -117.5q0 -85 -60 -137t-157 -52h-169l-22 -121h270l-5 -28h-270l-28 -162h-32zM166 339h163q85 0 135 43.5t50 117.5q0 64 -39.5 98t-114.5 34h-142z" />
    <glyph glyph-name="uni20BF" unicode="&#x20bf;" horiz-adv-x="578" 
d="M509 208q0 -73 -50.5 -121t-134.5 -55l-22 -123h-31l22 122h-111l-22 -122h-31l22 122h-85l106 599h79l22 121h31l-22 -121h92q15 0 19 -1l22 122h31l-23 -127q97 -23 97 -124q0 -54 -29.5 -93t-81.5 -53q47 -17 73.5 -55.5t26.5 -90.5zM199 601l-41 -231h194q61 0 98 35
t37 94q0 102 -118 102h-170zM476 208q0 61 -38.5 97t-102.5 36h-182l-50 -281h197q80 0 128 40.5t48 107.5z" />
    <glyph glyph-name="uni2113" unicode="&#x2113;" horiz-adv-x="363" 
d="M226 17q24 0 62 5l-5 -26q-31 -6 -60 -6q-68 0 -104.5 32t-36.5 92q0 24 7 59l8 46q-9 -8 -55 -45l-17 -14l-16 22q62 47 95 79l59 333q16 86 49.5 126t89.5 40q95 0 95 -108q0 -174 -266 -410l-13 -72q-6 -36 -6 -54q0 -99 114 -99zM193 594l-55 -309q228 210 228 368
q0 78 -64 78q-43 0 -69.5 -33t-39.5 -104z" />
    <glyph glyph-name="uni2116" unicode="&#x2116;" horiz-adv-x="1126" 
d="M538 57l105 603h32l-118 -670h-15l-345 609l-104 -599h-32l118 670h15zM1097 405q0 -68 -50 -117.5t-119 -49.5q-63 0 -105 43t-42 106q0 68 50 117.5t118 49.5q62 0 105 -43t43 -106zM1066 404q0 53 -34 87q-35 35 -84 35q-56 0 -95.5 -40.5t-39.5 -98.5q0 -52 33 -86.5
t83 -34.5q56 0 96.5 41t40.5 97zM743 120l5 28h295l-5 -28h-295z" />
    <glyph glyph-name="uni2117" unicode="&#x2117;" horiz-adv-x="793" 
d="M76 316q-3 139 105.5 248t246.5 106q130 2 226.5 -96t94.5 -230q3 -139 -105.5 -248t-246.5 -106q-131 -2 -227 96t-94 230zM718 344q2 121 -85.5 210.5t-205.5 87.5q-128 2 -225.5 -97t-94.5 -229q-2 -121 85 -210.5t206 -87.5q128 -2 225.5 97t94.5 229zM276 154
l62 355h121q54 0 84 -26t30 -73q0 -53 -37.5 -86t-97.5 -33h-107l-24 -137h-31zM336 318h103q48 0 75.5 24t27.5 66q0 74 -86 74h-91z" />
    <glyph glyph-name="trademark" unicode="&#x2122;" horiz-adv-x="939" 
d="M929 667h13l-80 -456h-32l64 370l-197 -227h-13l-123 235l-66 -378h-31l80 456h12l140 -271zM88 632l5 28h363l-5 -28h-166l-74 -421h-31l74 421h-166z" />
    <glyph glyph-name="uni2126" unicode="&#x2126;" horiz-adv-x="794" 
d="M505 28h193l-5 -28h-258l5 30q276 109 276 331q0 123 -80.5 201t-207.5 78q-133 2 -226 -95.5t-91 -236.5q0 -173 190 -278l-6 -30h-252l5 28h204q-85 50 -130 122t-45 157q-2 150 102 257.5t249 105.5q142 0 232 -86t90 -222q0 -217 -245 -334z" />
    <glyph glyph-name="estimated" unicode="&#x212e;" horiz-adv-x="795" 
d="M761 327h-544v-205q75 -104 220 -104q76 0 143.5 31.5t114.5 88.5l22 -19q-50 -62 -123 -95.5t-157 -33.5q-145 -2 -247.5 97t-99.5 239q-3 138 101 242.5t242 101.5q133 2 234 -86t98 -203q0 -29 -4 -54zM217 537v-182h421v198q-76 88 -201 88q-144 0 -220 -104z" />
    <glyph glyph-name="uni2150" unicode="&#x2150;" horiz-adv-x="902" 
d="M53 244l5 28h111l63 360h-112l5 28h142l-68 -388h101l-5 -28h-242zM216 0l495 660h33l-495 -660h-33zM642 416h271l-2 -10l-291 -406h-35l279 388h-227z" />
    <glyph glyph-name="uni2151" unicode="&#x2151;" horiz-adv-x="917" 
d="M53 244l5 28h111l63 360h-112l5 28h142l-68 -388h101l-5 -28h-242zM216 0l495 660h33l-495 -660h-33zM881 293q0 -29 -10 -52q-12 -27 -22 -41q-8 -11 -41 -51l-121 -149h-39l137 166q-23 -12 -51 -12q-53 0 -89 36q-36 37 -36 91q0 58 42 99.5t101 41.5q56 0 92.5 -36.5
t36.5 -92.5zM849 294q0 44 -28 72t-71 28q-47 0 -78 -32t-31 -80q0 -44 27 -72t70 -28q47 0 79 32.5t32 79.5z" />
    <glyph glyph-name="uni2152" unicode="&#x2152;" horiz-adv-x="1329" 
d="M53 244l5 28h111l63 360h-112l5 28h142l-68 -388h101l-5 -28h-242zM216 0l495 660h33l-495 -660h-33zM597 0l5 28h111l63 360h-112l5 28h142l-68 -388h101l-5 -28h-242zM971 150q0 42 10 87.5t30 88.5t56.5 70t83.5 26q59 0 91 -41t32 -115q0 -43 -10 -88t-29.5 -88
t-56 -70t-83.5 -26q-59 0 -91.5 41.5t-32.5 114.5zM1242 268q0 64 -26 95t-68 31q-38 1 -67.5 -24t-45.5 -64.5t-24 -80t-8 -77.5q0 -65 26 -95.5t69 -30.5q38 -1 67 23.5t45.5 64t24 80.5t7.5 78z" />
    <glyph glyph-name="uni2153" unicode="&#x2153;" horiz-adv-x="938" 
d="M53 244l5 28h111l63 360h-112l5 28h142l-68 -388h101l-5 -28h-242zM216 0l495 660h33l-495 -660h-33zM908 416l-2 -10l-144 -150q48 -6 78.5 -39.5t30.5 -80.5q0 -61 -43 -101.5t-106 -40.5q-95 0 -136 92l25 14q34 -79 111 -79q51 0 84 32t33 82q0 44 -30 70t-82 26h-20
l2 10l141 147h-187l5 28h240z" />
    <glyph glyph-name="uni2154" unicode="&#x2154;" horiz-adv-x="956" 
d="M237 379l-131 -107h218l-5 -28h-281l2 9l179 147q100 81 100 151q0 40 -24 63.5t-64 23.5q-45 0 -73.5 -32t-28.5 -82q0 -15 1 -19h-31q-1 3 -1 20q0 61 38 101t96 40q53 0 86 -31t33 -82q0 -43 -26.5 -83.5t-87.5 -90.5zM234 0l495 660h33l-495 -660h-33zM926 416
l-2 -10l-144 -150q48 -6 78.5 -39.5t30.5 -80.5q0 -61 -43 -101.5t-106 -40.5q-95 0 -136 92l25 14q34 -79 111 -79q51 0 84 32t33 82q0 44 -30 70t-82 26h-20l2 10l141 147h-187l5 28h240z" />
    <glyph glyph-name="uni2155" unicode="&#x2155;" horiz-adv-x="945" 
d="M53 244l5 28h111l63 360h-112l5 28h142l-68 -388h101l-5 -28h-242zM216 0l495 660h33l-495 -660h-33zM907 388h-191l-23 -134q40 2 47 2q65 0 102 -31.5t37 -87.5q0 -62 -42 -103q-41 -40 -106 -40q-100 0 -138 92l25 14q37 -78 112 -78q52 0 84.5 31.5t32.5 81.5
q0 44 -28.5 69t-80.5 25h-81l33 187h222z" />
    <glyph glyph-name="uni2156" unicode="&#x2156;" horiz-adv-x="963" 
d="M237 379l-131 -107h218l-5 -28h-281l2 9l179 147q100 81 100 151q0 40 -24 63.5t-64 23.5q-45 0 -73.5 -32t-28.5 -82q0 -15 1 -19h-31q-1 3 -1 20q0 61 38 101t96 40q53 0 86 -31t33 -82q0 -43 -26.5 -83.5t-87.5 -90.5zM234 0l495 660h33l-495 -660h-33zM925 388h-191
l-23 -134q40 2 47 2q65 0 102 -31.5t37 -87.5q0 -62 -42 -103q-41 -40 -106 -40q-100 0 -138 92l25 14q37 -78 112 -78q52 0 84.5 31.5t32.5 81.5q0 44 -28.5 69t-80.5 25h-81l33 187h222z" />
    <glyph glyph-name="uni2157" unicode="&#x2157;" horiz-adv-x="920" 
d="M364 660l-2 -10l-144 -150q48 -6 78.5 -39.5t30.5 -80.5q0 -61 -43 -101.5t-106 -40.5q-95 0 -136 92l25 14q34 -79 111 -79q51 0 84 32t33 82q0 44 -30 70t-82 26h-20l2 10l141 147h-187l5 28h240zM191 0l495 660h33l-495 -660h-33zM882 388h-191l-23 -134q40 2 47 2
q65 0 102 -31.5t37 -87.5q0 -62 -42 -103q-41 -40 -106 -40q-100 0 -138 92l25 14q37 -78 112 -78q52 0 84.5 31.5t32.5 81.5q0 44 -28.5 69t-80.5 25h-81l33 187h222z" />
    <glyph glyph-name="uni2158" unicode="&#x2158;" horiz-adv-x="960" 
d="M345 354l-5 -28h-65l-14 -82h-31l14 82h-209l2 10l194 324h34l-185 -306h169l27 151h31l-27 -151h65zM231 0l495 660h33l-495 -660h-33zM922 388h-191l-23 -134q40 2 47 2q65 0 102 -31.5t37 -87.5q0 -62 -42 -103q-41 -40 -106 -40q-100 0 -138 92l25 14q37 -78 112 -78
q52 0 84.5 31.5t32.5 81.5q0 44 -28.5 69t-80.5 25h-81l33 187h222z" />
    <glyph glyph-name="uni2159" unicode="&#x2159;" horiz-adv-x="868" 
d="M53 244l5 28h111l63 360h-112l5 28h142l-68 -388h101l-5 -28h-242zM216 0l495 660h33l-495 -660h-33zM804 135q0 -58 -42 -99.5t-101 -41.5q-55 0 -92 37t-37 92q0 29 10 52q11 24 22 40q14 20 41 52l121 149h39l-137 -166q22 12 51 12q53 0 89 -37q36 -36 36 -90z
M772 134q0 44 -27 72t-70 28q-47 0 -79 -32.5t-32 -79.5q0 -44 28 -72t71 -28q47 0 78 32t31 80z" />
    <glyph glyph-name="uni215A" unicode="&#x215a;" horiz-adv-x="858" 
d="M371 632h-191l-23 -134q40 2 47 2q65 0 102 -31.5t37 -87.5q0 -63 -42 -103q-41 -40 -106 -40q-100 0 -138 92l25 14q37 -78 112 -78q52 0 84.5 31.5t32.5 81.5q0 44 -28.5 69t-80.5 25h-81l33 187h222zM206 0l495 660h33l-495 -660h-33zM794 135q0 -58 -42 -99.5
t-101 -41.5q-55 0 -92 37t-37 92q0 29 10 52q11 24 22 40q14 20 41 52l121 149h39l-137 -166q22 12 51 12q53 0 89 -37q36 -36 36 -90zM762 134q0 44 -27 72t-70 28q-47 0 -79 -32.5t-32 -79.5q0 -44 28 -72t71 -28q47 0 78 32t31 80z" />
    <glyph glyph-name="oneeighth" unicode="&#x215b;" horiz-adv-x="918" 
d="M53 244l5 28h111l63 360h-112l5 28h142l-68 -388h101l-5 -28h-242zM216 0l495 660h33l-495 -660h-33zM846 110q0 -50 -40 -82.5t-101 -32.5q-63 0 -101.5 29.5t-38.5 77.5q0 44 34.5 75.5t95.5 44.5q-72 38 -72 94q0 46 35 76t88 30t86 -26.5t33 -69.5q0 -79 -106 -110
q87 -41 87 -106zM728 233q107 28 107 90q0 32 -25 52.5t-64 20.5q-41 0 -67 -22.5t-26 -56.5q0 -24 17 -43t58 -41zM815 111q0 28 -19 47.5t-72 47.5q-128 -32 -128 -102q0 -38 29 -60.5t79 -22.5q49 0 80 25t31 65z" />
    <glyph glyph-name="threeeighths" unicode="&#x215c;" horiz-adv-x="893" 
d="M364 660l-2 -10l-144 -150q48 -6 78.5 -39.5t30.5 -80.5q0 -61 -43 -101.5t-106 -40.5q-95 0 -136 92l25 14q34 -79 111 -79q51 0 84 32t33 82q0 44 -30 70t-82 26h-20l2 10l141 147h-187l5 28h240zM191 0l495 660h33l-495 -660h-33zM821 110q0 -50 -40 -82.5t-101 -32.5
q-63 0 -101.5 29.5t-38.5 77.5q0 44 34.5 75.5t95.5 44.5q-72 38 -72 94q0 46 35 76t88 30t86 -26.5t33 -69.5q0 -79 -106 -110q87 -41 87 -106zM703 233q107 28 107 90q0 32 -25 52.5t-64 20.5q-41 0 -67 -22.5t-26 -56.5q0 -24 17 -43t58 -41zM790 111q0 28 -19 47.5
t-72 47.5q-128 -32 -128 -102q0 -38 29 -60.5t79 -22.5q49 0 80 25t31 65z" />
    <glyph glyph-name="fiveeighths" unicode="&#x215d;" horiz-adv-x="908" 
d="M371 632h-191l-23 -134q40 2 47 2q65 0 102 -31.5t37 -87.5q0 -63 -42 -103q-41 -40 -106 -40q-100 0 -138 92l25 14q37 -78 112 -78q52 0 84.5 31.5t32.5 81.5q0 44 -28.5 69t-80.5 25h-81l33 187h222zM206 0l495 660h33l-495 -660h-33zM836 110q0 -50 -40 -82.5
t-101 -32.5q-63 0 -101.5 29.5t-38.5 77.5q0 44 34.5 75.5t95.5 44.5q-72 38 -72 94q0 46 35 76t88 30t86 -26.5t33 -69.5q0 -79 -106 -110q87 -41 87 -106zM718 233q107 28 107 90q0 32 -25 52.5t-64 20.5q-41 0 -67 -22.5t-26 -56.5q0 -24 17 -43t58 -41zM805 111
q0 28 -19 47.5t-72 47.5q-128 -32 -128 -102q0 -38 29 -60.5t79 -22.5q49 0 80 25t31 65z" />
    <glyph glyph-name="seveneighths" unicode="&#x215e;" horiz-adv-x="794" 
d="M98 660h271l-2 -10l-291 -406h-35l279 388h-227zM92 0l495 660h33l-495 -660h-33zM722 110q0 -50 -40 -82.5t-101 -32.5q-63 0 -101.5 29.5t-38.5 77.5q0 44 34.5 75.5t95.5 44.5q-72 38 -72 94q0 46 35 76t88 30t86 -26.5t33 -69.5q0 -79 -106 -110q87 -41 87 -106z
M604 233q107 28 107 90q0 32 -25 52.5t-64 20.5q-41 0 -67 -22.5t-26 -56.5q0 -24 17 -43t58 -41zM691 111q0 28 -19 47.5t-72 47.5q-128 -32 -128 -102q0 -38 29 -60.5t79 -22.5q49 0 80 25t31 65z" />
    <glyph glyph-name="arrowleft" unicode="&#x2190;" horiz-adv-x="650" 
d="M605 295h-457l209 -209l-19 -19l-237 237v12l237 237l19 -19l-211 -211h459v-28z" />
    <glyph glyph-name="arrowup" unicode="&#x2191;" horiz-adv-x="650" 
d="M580 305l-19 -19l-205 205v-425h-30v427l-207 -207l-19 19l234 234h12z" />
    <glyph glyph-name="arrowright" unicode="&#x2192;" horiz-adv-x="650" 
d="M342 553l237 -237v-12l-237 -237l-19 19l209 209h-457v28h459l-211 211z" />
    <glyph glyph-name="arrowdown" unicode="&#x2193;" horiz-adv-x="650" 
d="M555 335l19 -19l-234 -234h-12l-234 234l19 19l207 -207v427h30v-425z" />
    <glyph glyph-name="arrowboth" unicode="&#x2194;" horiz-adv-x="960" 
d="M652 553l237 -237v-12l-237 -237l-19 19l209 209h-694l209 -209l-19 -19l-237 237v12l237 237l19 -19l-211 -211h698l-211 211z" />
    <glyph glyph-name="arrowupdn" unicode="&#x2195;" horiz-adv-x="650" 
d="M356 0l205 205l19 -19l-234 -234h-12l-234 234l19 19l207 -207v664l-207 -207l-19 19l234 234h12l234 -234l-19 -19l-205 205v-660z" />
    <glyph glyph-name="uni2196" unicode="&#x2196;" horiz-adv-x="650" 
d="M552 109l-21 -21l-340 340v-306h-29v350l8 8h350v-28h-310z" />
    <glyph glyph-name="uni2197" unicode="&#x2197;" horiz-adv-x="650" 
d="M509 480l8 -8v-350h-29v306l-340 -340l-21 21l342 343h-310v28h350z" />
    <glyph glyph-name="uni2198" unicode="&#x2198;" horiz-adv-x="650" 
d="M489 478h29v-350l-8 -8h-350v28h310l-342 343l21 21l340 -340v306z" />
    <glyph glyph-name="uni2199" unicode="&#x2199;" horiz-adv-x="650" 
d="M211 148h310v-28h-350l-8 8v350h29v-306l340 340l21 -21z" />
    <glyph glyph-name="partialdiff" unicode="&#x2202;" horiz-adv-x="549" 
d="M517 440q1 -120 -39.5 -225t-109.5 -166t-148 -59q-80 0 -132 51t-52 130q0 98 71 161t183 63q77 0 191 -32q5 47 5 78q0 95 -44 148t-123 53q-91 0 -158 -73l-19 19q74 82 180 82q92 0 143.5 -61t51.5 -169zM478 335q-113 32 -190 32q-98 0 -159 -54.5t-61 -142.5
q0 -69 41 -110.5t109 -41.5q93 0 165 89.5t95 227.5z" />
    <glyph glyph-name="uni2206" unicode="&#x2206;" horiz-adv-x="666" 
d="M421 670l159 -658l-2 -12h-565l2 12l391 658h15zM546 28l-141 586l-346 -586h487z" />
    <glyph glyph-name="product" unicode="&#x220f;" horiz-adv-x="684" 
d="M39 -121l138 781h478l-138 -781h-32l133 753h-414l-133 -753h-32z" />
    <glyph glyph-name="summation" unicode="&#x2211;" horiz-adv-x="544" 
d="M565 660l-5 -28h-390l183 -345l-2 -12l-306 -368h399l-5 -28h-448l2 12l328 394l-194 363l2 12h436z" />
    <glyph glyph-name="minus" unicode="&#x2212;" 
d="M76 295l5 28h427l-5 -28h-427z" />
    <glyph glyph-name="uni2219" unicode="&#x2219;" horiz-adv-x="281" 
d="M114 308q0 18 11 29t27 11t28 -11t12 -29q0 -17 -12 -27.5t-28 -10.5t-27 10.5t-11 27.5z" />
    <glyph glyph-name="radical" unicode="&#x221a;" horiz-adv-x="645" 
d="M693 750h32l-513 -883h-15v368h-153v28h183v-315z" />
    <glyph glyph-name="infinity" unicode="&#x221e;" horiz-adv-x="777" 
d="M744 321q0 -65 -49 -110.5t-119 -45.5q-57 0 -96 28.5t-81 91.5q-58 -63 -102.5 -91.5t-98.5 -28.5q-61 0 -101 37t-40 94q0 65 49 110.5t119 45.5q57 0 96.5 -28.5t81.5 -90.5q56 61 101.5 90t98.5 29q61 0 101 -37t40 -94zM382 310q-41 61 -75.5 87.5t-82.5 26.5
q-59 0 -97 -37q-38 -36 -38 -90q0 -46 31 -75t80 -29q45 0 84.5 27t97.5 90zM712 320q0 46 -30.5 75t-79.5 29q-46 0 -85.5 -27.5t-96.5 -89.5q42 -62 76 -88t82 -26q57 0 95.5 36.5t38.5 90.5z" />
    <glyph glyph-name="integral" unicode="&#x222b;" horiz-adv-x="302" 
d="M-55 -116l5 25q29 -7 62 -7q77 0 108 48t31 169v411q0 139 39 197t133 58q35 0 66 -10l-5 -25q-29 7 -62 7q-77 0 -108 -50.5t-31 -176.5v-411q0 -135 -38 -190t-132 -55q-37 0 -68 10z" />
    <glyph glyph-name="approxequal" unicode="&#x2248;" 
d="M343 367l-87 58q-42 29 -66 29q-45 0 -52 -75h-29q9 103 80 103q22 0 38 -7.5t51 -30.5l87 -58q42 -29 66 -29q45 0 52 75h29q-9 -103 -80 -103q-22 0 -38 7.5t-51 30.5zM308 167l-87 58q-42 29 -66 29q-45 0 -52 -75h-29q9 103 80 103q22 0 38 -7.5t51 -30.5l87 -58
q42 -29 66 -29q45 0 52 75h29q-9 -103 -80 -103q-22 0 -38 7.5t-51 30.5z" />
    <glyph glyph-name="notequal" unicode="&#x2260;" 
d="M510 395h-131l-136 -173h237l-5 -28h-254l-94 -120h-37l94 120h-116l5 28h133l136 173h-239l5 28h256l94 119h37l-94 -119h114z" />
    <glyph glyph-name="lessequal" unicode="&#x2264;" 
d="M526 500l-5 -32l-383 -139l333 -140l-5 -29l-388 164l2 12zM31 0l5 28h407l-5 -28h-407z" />
    <glyph glyph-name="greaterequal" unicode="&#x2265;" 
d="M127 500l388 -164l-2 -12l-446 -164l5 32l383 139l-333 140zM39 0l5 28h407l-5 -28h-407z" />
    <glyph glyph-name="uni24EA" unicode="&#x24ea;" horiz-adv-x="978" 
d="M75 330q-2 114 56.5 214.5t159 159t214.5 56.5q114 2 214 -57t159 -159t57 -214q2 -114 -57 -214t-159 -159t-214 -57q-114 -2 -214.5 56.5t-159 159t-56.5 214.5zM907 330q2 106 -53 200t-149 149t-200 53q-106 2 -200.5 -53t-149 -149t-52.5 -200q-2 -80 30.5 -155
t87 -129.5t129.5 -87t155 -30.5q106 -2 200 53t149 149t53 200zM338 277q0 46 10.5 94t31 92.5t58.5 71.5t86 26q66 0 101.5 -47.5t35.5 -131.5q0 -46 -10.5 -94t-31.5 -92.5t-58.5 -71.5t-85.5 -26q-65 0 -101 47.5t-36 131.5zM631 386q0 74 -29.5 111t-79.5 37
q-39 1 -70.5 -24.5t-48.5 -66t-26 -84.5t-9 -85q0 -75 29.5 -112t79.5 -37q52 -1 88.5 44t51 102.5t14.5 114.5z" />
    <glyph glyph-name="uni24FF" unicode="&#x24ff;" horiz-adv-x="978" 
d="M75 330q-2 114 56.5 214.5t159 159t214.5 56.5q114 2 214 -57t159 -159t57 -214q2 -114 -57 -214t-159 -159t-214 -57q-114 -2 -214.5 56.5t-159 159t-56.5 214.5zM661 382q0 84 -35.5 131.5t-101.5 47.5q-48 1 -86 -26t-58.5 -71.5t-31 -92.5t-10.5 -94q0 -84 36 -131.5
t101 -47.5q48 -1 85.5 26t58.5 71.5t31.5 92.5t10.5 94zM368 274q0 41 9 85t26 84.5t48.5 66t70.5 24.5q50 0 79.5 -37t29.5 -111q0 -57 -14.5 -114.5t-51 -102.5t-88.5 -44q-50 0 -79.5 37t-29.5 112z" />
    <glyph glyph-name="filledbox" unicode="&#x25a0;" horiz-adv-x="730" 
d="M105 55v550h550v-550h-550z" />
    <glyph glyph-name="uni25A1" unicode="&#x25a1;" horiz-adv-x="730" 
d="M105 55v550h550v-550h-550zM136 84h488v492h-488v-492z" />
    <glyph glyph-name="uni25AA" unicode="&#x25aa;" horiz-adv-x="530" 
d="M65 50v380h381v-380h-381z" />
    <glyph glyph-name="uni25AB" unicode="&#x25ab;" horiz-adv-x="530" 
d="M65 50v380h381v-380h-381zM95 78h321v324h-321v-324z" />
    <glyph glyph-name="triagup" unicode="&#x25b2;" horiz-adv-x="730" 
d="M19 55l-4 10l340 595h10l340 -595l-4 -10h-682z" />
    <glyph glyph-name="uni25B3" unicode="&#x25b3;" horiz-adv-x="730" 
d="M385 660l340 -595l-4 -10h-682l-4 10l340 595h10zM680 84l-300 525l-300 -525h600z" />
    <glyph glyph-name="uni25B4" unicode="&#x25b4;" horiz-adv-x="530" 
d="M15 50l-4 10l234 409h10l234 -409l-4 -10h-470z" />
    <glyph glyph-name="uni25B5" unicode="&#x25b5;" horiz-adv-x="530" 
d="M255 469l234 -409l-4 -10h-470l-4 10l234 409h10zM445 78l-195 340l-196 -340h391z" />
    <glyph glyph-name="uni25B6" unicode="&#x25b6;" horiz-adv-x="730" 
d="M145 -10l-10 4v672l10 4l522 -335v-10z" />
    <glyph glyph-name="uni25B7" unicode="&#x25b7;" horiz-adv-x="730" 
d="M145 670l522 -335v-10l-522 -335l-10 4v672zM620 330l-454 291v-582z" />
    <glyph glyph-name="uni25B8" unicode="&#x25b8;" horiz-adv-x="530" 
d="M125 5l-10 4v463l10 4l359 -230v-10z" />
    <glyph glyph-name="uni25B9" unicode="&#x25b9;" horiz-adv-x="530" 
d="M125 476l359 -230v-10l-359 -231l-10 4v463zM439 241l-294 188v-377z" />
    <glyph glyph-name="triagrt" unicode="&#x25ba;" horiz-adv-x="961" 
d="M125 -10l-10 4v672l10 4l831 -335v-10z" />
    <glyph glyph-name="uni25BB" unicode="&#x25bb;" horiz-adv-x="961" 
d="M125 670l831 -335v-10l-831 -335l-10 4v672zM889 330l-743 300v-600z" />
    <glyph glyph-name="triagdn" unicode="&#x25bc;" horiz-adv-x="730" 
d="M61 605h682l4 -10l-340 -595h-10l-340 595z" />
    <glyph glyph-name="uni25BD" unicode="&#x25bd;" horiz-adv-x="730" 
d="M743 605l4 -10l-340 -595h-10l-340 595l4 10h682zM702 576h-600l300 -525z" />
    <glyph glyph-name="uni25BE" unicode="&#x25be;" horiz-adv-x="530" 
d="M275 11l-234 409l4 10h470l4 -10l-234 -409h-10z" />
    <glyph glyph-name="uni25BF" unicode="&#x25bf;" horiz-adv-x="530" 
d="M515 430l4 -10l-234 -409h-10l-234 409l4 10h470zM475 402h-391l196 -340z" />
    <glyph glyph-name="uni25C0" unicode="&#x25c0;" horiz-adv-x="730" 
d="M617 -10l-522 335v10l522 335l10 -4v-672z" />
    <glyph glyph-name="uni25C1" unicode="&#x25c1;" horiz-adv-x="730" 
d="M617 670l10 -4v-672l-10 -4l-522 335v10zM596 39v582l-454 -291z" />
    <glyph glyph-name="uni25C2" unicode="&#x25c2;" horiz-adv-x="530" 
d="M405 5l-359 231v10l359 230l10 -4v-463z" />
    <glyph glyph-name="uni25C3" unicode="&#x25c3;" horiz-adv-x="530" 
d="M405 476l10 -4v-463l-10 -4l-359 231v10zM385 429l-294 -188l294 -189v377z" />
    <glyph glyph-name="triaglf" unicode="&#x25c4;" horiz-adv-x="961" 
d="M868 -10l-831 335v10l831 335l10 -4v-672z" />
    <glyph glyph-name="uni25C5" unicode="&#x25c5;" horiz-adv-x="961" 
d="M868 670l10 -4v-672l-10 -4l-831 335v10zM847 30v600l-743 -300z" />
    <glyph glyph-name="lozenge" unicode="&#x25ca;" horiz-adv-x="665" 
d="M355 670l213 -340l-213 -340h-15l-213 341l213 339h15zM347 36l185 294l-185 294l-184 -293z" />
    <glyph glyph-name="circle" unicode="&#x25cb;" horiz-adv-x="730" 
d="M52 329q-3 132 96 232t231 97q132 3 231.5 -97t96.5 -232q3 -133 -96 -231t-232 -95q-133 -3 -231.5 95t-95.5 231zM676 329q2 121 -87.5 210.5t-209.5 87.5q-119 2 -208.5 -87.5t-87.5 -210.5q-2 -119 87.5 -208.5t208.5 -86.5q120 -3 209.5 86.5t87.5 208.5z" />
    <glyph glyph-name="uni25CF" unicode="&#x25cf;" horiz-adv-x="730" 
d="M52 329q-3 132 96 232t231 97q132 3 231.5 -97t96.5 -232q3 -133 -96 -231t-232 -95q-133 -3 -231.5 95t-95.5 231z" />
    <glyph glyph-name="uni261C" unicode="&#x261c;" horiz-adv-x="1210" 
d="M1134 12l-220 137q-82 -46 -187 -75t-168 -29q-90 0 -90 61q0 24 15 38q-20 5 -33.5 21.5t-13.5 36.5q0 26 24 43q-36 19 -36 53q0 26 19 39l-195 13q-95 6 -130 21t-35 52q0 39 39 53t142 14q90 0 198 -11q0 38 17.5 59.5t48.5 21.5q23 0 49 -15l232 -133l100 -32
l224 140l12 -8l-44 -169l84 -71v-12l-84 -71l44 -169zM709 438l-142 82q-19 10 -35 10q-39 0 -39 -54q118 -15 216 -38zM1101 68l-34 130l79 68l-79 68l35 131l-165 -101v-196zM907 179v173q-142 50 -315 80q-176 30 -333 30q-85 0 -115 -9q-30 -7 -30 -30q0 -21 29 -31
t108 -15l169 -11l157 -10v-28l-83 5q-17 1 -28 -8t-11 -25q0 -15 9.5 -24.5t24.5 -9.5h98v-28h-86q-13 0 -23.5 -10t-10.5 -24q0 -15 9.5 -24.5t24.5 -9.5h98v-28h-42h-26q-13 0 -22.5 -9t-9.5 -23q0 -37 63 -37q58 0 162 29q102 30 183 77z" />
    <glyph glyph-name="uni261E" unicode="&#x261e;" horiz-adv-x="1210" 
d="M140 12l-12 8l44 169l-84 71v12l84 71l-44 169l12 8l224 -140l100 32l232 133q26 15 49 15q31 0 48.5 -21.5t17.5 -59.5q108 11 198 11q103 0 142 -14t39 -53q0 -37 -35 -52t-130 -21l-195 -13q19 -13 19 -39q0 -34 -36 -53q24 -16 24 -43q0 -20 -13.5 -36.5t-33.5 -21.5
q15 -14 15 -38q0 -61 -90 -61q-64 0 -169 29q-104 28 -186 75zM781 476q0 54 -39 54q-16 0 -35 -10l-142 -82q98 23 216 38zM173 68l164 100v196l-165 101l35 -131l-79 -68l79 -68zM775 110q0 14 -9.5 23t-22.5 9h-26h-42v28h98q15 0 24.5 9.5t9.5 24.5q0 14 -10.5 24
t-23.5 10h-86v28h98q15 0 24.5 9.5t9.5 24.5q0 16 -11 25t-28 8l-83 -5v28l157 10l169 11q79 5 108 15t29 31q0 23 -30 30q-30 9 -115 9q-157 0 -333 -30q-173 -30 -315 -80v-173q81 -47 182 -77q105 -29 163 -29q63 0 63 37z" />
    <glyph glyph-name="uni2661" unicode="&#x2661;" horiz-adv-x="860" 
d="M821 474q0 -53 -25 -97q-24 -45 -83 -107l-263 -280h-10l-263 280q-52 55 -82 103q-26 44 -26 101q0 86 56 141t137 55q63 0 112 -35t71 -93q22 58 71 93t112 35q81 0 137 -55t56 -141zM787 475q0 71 -46.5 117t-113.5 46q-113 0 -177 -151h-10q-64 151 -177 151
q-67 0 -113.5 -46t-46.5 -117q0 -46 23 -88t77 -99l242 -258l242 258q55 58 77.5 100t22.5 87z" />
    <glyph glyph-name="heart" unicode="&#x2665;" horiz-adv-x="860" 
d="M440 -10l-263 280q-52 55 -82 103q-26 44 -26 101q0 86 56 141t137 55q63 0 112 -35t71 -93q22 58 71 93t112 35q81 0 137 -55t56 -141q0 -53 -25 -97q-24 -43 -83 -107l-263 -280h-10z" />
    <glyph glyph-name="uni275B" unicode="&#x275b;" horiz-adv-x="670" 
d="M629 208q0 -89 -63 -153.5t-168 -64.5q-131 -3 -230.5 100.5t-96.5 239.5q-3 138 97.5 240.5t242.5 99.5q117 0 205 -69l-16 -24q-82 64 -188 64q-130 2 -220.5 -90.5t-88.5 -221.5q0 -87 41 -160.5t113 -114.5q-64 64 -64 154q0 89 64.5 153.5t153.5 64.5t153.5 -64.5
t64.5 -153.5z" />
    <glyph glyph-name="uni275C" unicode="&#x275c;" horiz-adv-x="670" 
d="M630 330q3 -138 -97.5 -240.5t-242.5 -99.5q-116 0 -205 69l16 24q82 -64 188 -64q130 -2 220.5 90.5t88.5 221.5q0 87 -41 160.5t-113 114.5q64 -64 64 -154q0 -89 -64.5 -153.5t-153.5 -64.5t-153.5 64.5t-64.5 153.5t63 153.5t168 64.5q131 3 230 -100.5t97 -239.5z
" />
    <glyph glyph-name="uni275D" unicode="&#x275d;" horiz-adv-x="1290" 
d="M1249 208q0 -89 -63 -153.5t-168 -64.5q-131 -3 -230.5 100.5t-96.5 239.5q-3 138 97.5 240.5t242.5 99.5q117 0 205 -69l-16 -24q-82 64 -188 64q-130 2 -220.5 -90.5t-88.5 -221.5q0 -87 41 -160.5t113 -114.5q-64 64 -64 154q0 89 64.5 153.5t153.5 64.5t153.5 -64.5
t64.5 -153.5zM629 208q0 -89 -63 -153.5t-168 -64.5q-131 -3 -230.5 100.5t-96.5 239.5q-3 138 97.5 240.5t242.5 99.5q117 0 205 -69l-16 -24q-82 64 -188 64q-130 2 -220.5 -90.5t-88.5 -221.5q0 -87 41 -160.5t113 -114.5q-64 64 -64 154q0 89 64.5 153.5t153.5 64.5
t153.5 -64.5t64.5 -153.5z" />
    <glyph glyph-name="uni275E" unicode="&#x275e;" horiz-adv-x="1290" 
d="M620 330q3 -138 -97.5 -240.5t-242.5 -99.5q-116 0 -205 69l16 24q82 -64 188 -64q130 -2 220.5 90.5t88.5 221.5q0 87 -41 160.5t-113 114.5q64 -64 64 -154q0 -89 -64.5 -153.5t-153.5 -64.5t-153.5 64.5t-64.5 153.5t63 153.5t168 64.5q131 3 230 -100.5t97 -239.5z
M1250 330q3 -138 -97.5 -240.5t-242.5 -99.5q-116 0 -205 69l16 24q82 -64 188 -64q130 -2 220.5 90.5t88.5 221.5q0 87 -41 160.5t-113 114.5q64 -64 64 -154q0 -89 -64.5 -153.5t-153.5 -64.5t-153.5 64.5t-64.5 153.5t63 153.5t168 64.5q131 3 230 -100.5t97 -239.5z" />
    <glyph glyph-name="uni2776" unicode="&#x2776;" horiz-adv-x="978" 
d="M75 330q-2 114 56.5 214.5t159 159t214.5 56.5q114 2 214 -57t159 -159t57 -214q2 -114 -57 -214t-159 -159t-214 -57q-114 -2 -214.5 56.5t-159 159t-56.5 214.5zM356 105h239l5 26h-102l75 423h-130l-5 -26h102l-70 -397h-109z" />
    <glyph glyph-name="uni2777" unicode="&#x2777;" horiz-adv-x="978" 
d="M75 330q-2 114 56.5 214.5t159 159t214.5 56.5q114 2 214 -57t159 -159t57 -214q2 -114 -57 -214t-159 -159t-214 -57q-114 -2 -214.5 56.5t-159 159t-56.5 214.5zM335 105h299l4 24h-245l156 125q61 50 90 93.5t29 92.5q0 55 -34.5 88t-90.5 33q-63 0 -103 -43t-40 -108
l1 -22h28q-1 4 -1 21q0 56 32 91.5t82 35.5q45 0 71 -26.5t26 -71.5t-26.5 -82t-82.5 -84l-193 -157z" />
    <glyph glyph-name="uni2778" unicode="&#x2778;" horiz-adv-x="978" 
d="M75 330q-2 114 56.5 214.5t159 159t214.5 56.5q114 2 214 -57t159 -159t57 -214q2 -114 -57 -214t-159 -159t-214 -57q-114 -2 -214.5 56.5t-159 159t-56.5 214.5zM645 252q0 51 -35.5 88t-86.5 41l161 163l2 10h-256l-4 -24h209l-157 -162l-1 -10h17q57 0 90.5 -29
t33.5 -78q0 -56 -37 -92t-94 -36q-84 0 -123 87l-21 -13q43 -99 143 -99q68 0 113.5 44.5t45.5 109.5z" />
    <glyph glyph-name="uni2779" unicode="&#x2779;" horiz-adv-x="978" 
d="M75 330q-2 114 56.5 214.5t159 159t214.5 56.5q114 2 214 -57t159 -159t57 -214q2 -114 -57 -214t-159 -159t-214 -57q-114 -2 -214.5 56.5t-159 159t-56.5 214.5zM532 105h29l16 89h72l5 26h-72l29 166h-29l-29 -166h-187l203 334h-32l-213 -350l-2 -10h226z" />
    <glyph glyph-name="uni277A" unicode="&#x277a;" horiz-adv-x="978" 
d="M75 330q-2 114 56.5 214.5t159 159t214.5 56.5q114 2 214 -57t159 -159t57 -214q2 -114 -57 -214t-159 -159t-214 -57q-114 -2 -214.5 56.5t-159 159t-56.5 214.5zM642 251q0 60 -39.5 94t-108.5 34q-31 0 -59 -4l27 155h208l4 24h-234l-34 -198h86q57 0 89.5 -28
t32.5 -78q0 -56 -37 -92.5t-95 -36.5q-83 0 -124 87l-22 -12q44 -99 146 -99q69 0 114.5 44t45.5 110z" />
    <glyph glyph-name="uni277B" unicode="&#x277b;" horiz-adv-x="978" 
d="M75 330q-2 114 56.5 214.5t159 159t214.5 56.5q114 2 214.5 -56.5t159 -159t56.5 -214.5q2 -114 -57 -214t-159 -159t-214 -57q-114 -2 -214.5 56.5t-159 159t-56.5 214.5zM641 249q0 59 -40 98q-39 39 -98 39q-31 0 -63 -17l154 187h-34l-133 -164q-46 -56 -63 -89
q-16 -31 -16 -67q0 -58 39 -99q41 -39 100 -39q64 0 109 44t45 107zM375 235q0 53 36 89q37 37 90 37q49 0 80.5 -32t31.5 -81q0 -52 -36 -90q-36 -36 -89 -36q-49 0 -81 32t-32 81z" />
    <glyph glyph-name="uni277C" unicode="&#x277c;" horiz-adv-x="978" 
d="M75 330q-2 114 56.5 214.5t159 159t214.5 56.5q114 2 214 -57t159 -159t57 -214q2 -114 -57 -214t-159 -159t-214 -57q-114 -2 -214.5 56.5t-159 159t-56.5 214.5zM370 106h33l288 439l2 10h-291l-5 -28h250z" />
    <glyph glyph-name="uni277D" unicode="&#x277d;" horiz-adv-x="978" 
d="M75 330q-2 114 56.5 214.5t159 159t214.5 56.5q114 2 214 -57t159 -159t57 -214q2 -114 -57 -214t-159 -159t-214 -57q-114 -2 -214.5 56.5t-159 159t-56.5 214.5zM653 223q0 69 -100 117q120 30 120 118q0 46 -35 74.5t-92 28.5q-58 0 -96 -32.5t-38 -80.5
q0 -60 81 -104q-68 -15 -106 -49.5t-38 -80.5q0 -52 41.5 -84t109.5 -32q65 0 109 36t44 89zM439 449q0 38 30.5 63t76.5 25q44 0 71.5 -23t27.5 -58q0 -71 -120 -101q-47 24 -66.5 45.5t-19.5 48.5zM375 216q0 83 146 113q59 -29 82 -52t23 -53q0 -44 -35.5 -72.5
t-91.5 -28.5t-90 25.5t-34 67.5z" />
    </font>
</defs>
</svg>
