<?xml version="1.0" standalone="no"?>
<!DOCTYPE svg PUBLIC "-//W3C//DTD SVG 1.1//EN" "http://www.w3.org/Graphics/SVG/1.1/DTD/svg11.dtd" >
<svg xmlns="http://www.w3.org/2000/svg" xmlns:xlink="http://www.w3.org/1999/xlink" version="1.1">
<metadata>
Created by FontForge 20170731 at Thu May 24 22:11:30 2018
 By Aleksey,,,
Copyright (c) 2015, 2018 by Jakob Runge, under exclusive license to TypeMates. All rights reserved.
</metadata>
<defs>
<font id="CeraPro-Bold" horiz-adv-x="560" >
  <font-face 
    font-family="Cera Pro"
    font-weight="700"
    font-stretch="normal"
    units-per-em="1000"
    panose-1="0 0 8 0 0 0 0 0 0 0"
    ascent="808"
    descent="-192"
    x-height="495"
    cap-height="660"
    bbox="-475 -246 1372 1000"
    underline-thickness="87"
    underline-position="-358"
    unicode-range="U+0020-FB02"
  />
<missing-glyph horiz-adv-x="713" 
d="M76 660h561v-660h-561v660zM545 77v499h-379z" />
    <glyph glyph-name="fi" unicode="fi" horiz-adv-x="626" 
d="M225 564v-69h109v-114h-109v-381h-135v381h-70v114h70v81q0 92 50 139t141 47q38 0 74 -11v-113q-22 3 -40 3q-47 0 -68.5 -18t-21.5 -59zM424 0v495h135v-495h-135zM405 675q0 36 25 60t61 24t61.5 -24t25.5 -60q0 -35 -25.5 -59t-61.5 -24t-61 24t-25 59z" />
    <glyph glyph-name="fl" unicode="fl" horiz-adv-x="626" 
d="M225 564v-69h109v-114h-109v-381h-135v381h-70v114h70v81q0 92 50 139t141 47q38 0 74 -11v-113q-22 3 -40 3q-47 0 -68.5 -18t-21.5 -59zM424 0v750h135v-750h-135z" />
    <glyph glyph-name=".notdef" horiz-adv-x="713" 
d="M76 660h561v-660h-561v660zM545 77v499h-379z" />
    <glyph glyph-name=".null" horiz-adv-x="0" 
 />
    <glyph glyph-name="nonmarkingreturn" horiz-adv-x="333" 
 />
    <glyph glyph-name="space" unicode=" " horiz-adv-x="280" 
 />
    <glyph glyph-name="exclam" unicode="!" horiz-adv-x="347" 
d="M118 242l-26 418h161l-25 -418h-110zM81 81q0 39 26.5 66t67.5 27q39 0 65.5 -27t26.5 -66q0 -40 -26.5 -66.5t-65.5 -26.5q-41 0 -67.5 26.5t-26.5 66.5z" />
    <glyph glyph-name="quotedbl" unicode="&#x22;" horiz-adv-x="538" 
d="M83 382l5 278h154l-56 -278h-103zM320 382l5 278h154l-56 -278h-103z" />
    <glyph glyph-name="numbersign" unicode="#" horiz-adv-x="631" 
d="M605 395h-97l-17 -130h92v-113h-108l-20 -152h-109l20 152h-149l-20 -152h-109l20 152h-81v113h96l18 130h-93v113h108l20 152h110l-20 -152h148l20 152h110l-20 -152h81v-113zM232 259h149l18 142h-148z" />
    <glyph glyph-name="dollar" unicode="$" horiz-adv-x="538" 
d="M327 25v-122h-118v124q-121 27 -177 135l91 68q58 -91 151 -91q40 0 63.5 15t23.5 44q0 23 -17.5 37.5t-59.5 31.5l-68 25q-149 56 -149 174q0 60 39 104t103 59v120h118v-118q100 -21 149 -115l-90 -68q-46 68 -115 68q-32 0 -52 -13t-20 -38q0 -21 15.5 -34.5
t51.5 -28.5l75 -26q152 -56 152 -176q0 -69 -45 -116t-121 -59z" />
    <glyph glyph-name="percent" unicode="%" horiz-adv-x="861" 
d="M56 508q0 69 50 116.5t121 47.5q70 0 120 -47.5t50 -116.5t-50 -117t-120 -48q-71 0 -121 48t-50 117zM187 0l379 660h109l-380 -660h-108zM293 508q0 31 -18.5 51t-46.5 20q-30 0 -48.5 -20t-18.5 -51q0 -32 18 -52t49 -20q28 0 46.5 20t18.5 52zM464 154q0 69 50 116.5
t120 47.5t120.5 -47.5t50.5 -116.5t-50 -117t-121 -48q-70 0 -120 48t-50 117zM700 154q0 31 -18.5 51t-46.5 20q-31 0 -49 -19.5t-18 -51.5t18 -51.5t49 -19.5q28 0 46.5 20t18.5 51z" />
    <glyph glyph-name="ampersand" unicode="&#x26;" horiz-adv-x="674" 
d="M643 294l-26 -38q-60 -87 -88 -121l111 -135h-158l-40 49q-79 -61 -179 -61q-96 0 -156.5 51t-60.5 133q0 52 29 96q29 43 104 102q-58 75 -58 144q0 71 47 114.5t124 43.5q73 0 119 -40.5t46 -104.5q0 -47 -25 -87t-83 -88l97 -117q20 28 57 82q18 24 36 51zM242 512
q0 -29 39 -77l2 1q53 42 53 78q0 43 -46 43q-22 0 -35 -12t-13 -33zM364 144l-114 138q-41 -34 -55 -53.5t-14 -43.5q0 -35 25 -56.5t65 -21.5q49 0 93 37z" />
    <glyph glyph-name="quotesingle" unicode="'" horiz-adv-x="301" 
d="M83 382l5 278h154l-56 -278h-103z" />
    <glyph glyph-name="parenleft" unicode="(" horiz-adv-x="365" 
d="M68 303q0 170 59 280.5t159 155.5l53 -81q-153 -101 -153 -355q0 -253 153 -354l-53 -81q-100 45 -159 155.5t-59 279.5z" />
    <glyph glyph-name="parenright" unicode=")" horiz-adv-x="365" 
d="M80 -132l-54 81q154 102 154 354q0 254 -154 355l54 81q95 -44 156 -152q61 -107 61 -284q0 -175 -61 -284q-61 -107 -156 -151z" />
    <glyph glyph-name="asterisk" unicode="*" horiz-adv-x="467" 
d="M428 615l-91 -67l91 -68l-39 -67l-104 45l-13 -112h-77l-13 112l-104 -45l-39 67l91 68l-91 67l39 67l104 -45l13 112h77l13 -112l104 45z" />
    <glyph glyph-name="plus" unicode="+" 
d="M217 86v177h-172v115h172v176h129v-176h170v-115h-170v-177h-129z" />
    <glyph glyph-name="comma" unicode="," horiz-adv-x="280" 
d="M64 -178l6 301h154l-53 -301h-107z" />
    <glyph glyph-name="hyphen" unicode="-" horiz-adv-x="342" 
d="M45 264v113h252v-113h-252z" />
    <glyph glyph-name="period" unicode="." horiz-adv-x="280" 
d="M47 81q0 39 27 66t67 27q39 0 65.5 -27t26.5 -66q0 -40 -26 -66.5t-66 -26.5t-67 26.5t-27 66.5z" />
    <glyph glyph-name="slash" unicode="/" horiz-adv-x="672" 
d="M3 -121l523 901h143l-523 -901h-143z" />
    <glyph glyph-name="zero" unicode="0" horiz-adv-x="635" 
d="M56 335q0 152 67 244q67 93 195 93t194 -93q67 -92 67 -244q0 -153 -68 -250t-193 -97q-126 0 -194 97t-68 250zM440 334q0 213 -122 213q-123 0 -123 -213q0 -221 123 -221q122 0 122 221z" />
    <glyph glyph-name="one" unicode="1" horiz-adv-x="401" 
d="M265 660h45v-660h-135v500l-125 -40l-32 119z" />
    <glyph glyph-name="two" unicode="2" horiz-adv-x="584" 
d="M286 115h246v-115l-487 -1v29l236 256q50 55 71.5 92.5t21.5 73.5q0 43 -25 70t-67 27t-67.5 -28t-25.5 -73q0 -15 5 -48h-136q-7 25 -7 56q0 88 65.5 153t167.5 65q99 0 164 -60.5t65 -150.5q0 -67 -36 -125q-38 -60 -106 -131z" />
    <glyph glyph-name="three" unicode="3" horiz-adv-x="549" 
d="M504 216q0 -98 -72.5 -163t-176.5 -65q-80 0 -143 40t-97 110l94 66q31 -47 64.5 -69t77.5 -22q51 0 83 27.5t32 74.5q0 46 -34.5 70.5t-100.5 24.5h-83v35l138 193h-220v122h425v-36l-146 -206q66 -17 113 -71q46 -52 46 -131z" />
    <glyph glyph-name="four" unicode="4" horiz-adv-x="577" 
d="M563 222v-114h-84v-108h-135v108h-328v36l204 516h139l-175 -438h160v185h135v-185h84z" />
    <glyph glyph-name="five" unicode="5" horiz-adv-x="564" 
d="M519 217q0 -100 -73 -164.5t-180 -64.5q-82 0 -146.5 40t-98.5 110l94 66q59 -91 147 -91q52 0 85 27.5t33 74.5q0 95 -135 95h-154v350h390v-122h-260v-120q40 8 75 8q91 0 157 -56.5t66 -152.5z" />
    <glyph glyph-name="six" unicode="6" horiz-adv-x="562" 
d="M524 224q0 -100 -72 -168t-171 -68q-97 -2 -170.5 68t-71.5 169q0 37 11 72q16 48 79 135l165 228h159l-152 -212h4q85 2 153 -64.5t66 -159.5zM390 224q0 48 -31.5 79.5t-77.5 31.5t-77.5 -32t-31.5 -79t31.5 -79.5t77.5 -32.5t77.5 32t31.5 80z" />
    <glyph glyph-name="seven" unicode="7" horiz-adv-x="525" 
d="M38 660h464v-36l-302 -624h-147l268 538h-283v122z" />
    <glyph glyph-name="eight" unicode="8" horiz-adv-x="588" 
d="M541 176q0 -85 -69 -136.5t-178 -51.5q-110 0 -179 51.5t-69 136.5q0 114 130 166q-100 58 -100 155q0 82 61 128q62 47 157 47q94 0 156 -47t62 -128q0 -98 -99 -155q128 -53 128 -166zM202 491q0 -29 21 -49t71 -43q50 23 71 43t21 50q0 32 -26 51.5t-66 19.5
q-41 0 -66.5 -19.5t-25.5 -52.5zM407 181q0 37 -26.5 60t-86.5 44q-60 -22 -86.5 -45.5t-26.5 -58.5q0 -38 29.5 -60.5t83.5 -22.5t83.5 22.5t29.5 60.5z" />
    <glyph glyph-name="nine" unicode="9" horiz-adv-x="562" 
d="M524 435q0 -55 -22 -98q-20 -42 -69 -109l-164 -228h-160l153 212h-5q-84 -2 -152 64.5t-66 159.5q-2 98 71.5 168t170.5 68q99 0 171 -68t72 -169zM390 436q0 47 -31.5 79.5t-77.5 32.5q-45 0 -77 -32t-32 -80q0 -47 32 -79t77 -32q46 0 77.5 32t31.5 79z" />
    <glyph glyph-name="colon" unicode=":" horiz-adv-x="280" 
d="M47 411q0 39 27 66t67 27q39 0 65.5 -27t26.5 -66q0 -40 -26 -66.5t-66 -26.5t-67 26.5t-27 66.5zM47 81q0 39 27 66t67 27q39 0 65.5 -27t26.5 -66q0 -40 -26 -66.5t-66 -26.5t-67 26.5t-27 66.5z" />
    <glyph glyph-name="semicolon" unicode=";" horiz-adv-x="280" 
d="M47 411q0 39 27 66t67 27q39 0 65.5 -27t26.5 -66q0 -40 -26 -66.5t-66 -26.5t-67 26.5t-27 66.5zM64 -178l6 301h154l-53 -301h-107z" />
    <glyph glyph-name="less" unicode="&#x3c;" 
d="M501 544v-117l-248 -106l248 -106v-118l-464 205v37z" />
    <glyph glyph-name="equal" unicode="=" 
d="M55 371v114h451v-114h-451zM55 156v114h451v-114h-451z" />
    <glyph glyph-name="greater" unicode="&#x3e;" 
d="M59 544l464 -205v-37l-464 -205v118l248 106l-248 106v117z" />
    <glyph glyph-name="question" unicode="?" horiz-adv-x="452" 
d="M142 290q0 49 79 113q35 29 47 45.5t12 38.5q0 27 -18 44t-45 17q-55 0 -83 -76l-110 48q21 74 72.5 113t124.5 39q84 0 140.5 -49t56.5 -126q0 -41 -19 -74t-64 -72t-57.5 -54t-12.5 -34q0 -5 2 -21h-114q-11 25 -11 48zM120 81q0 39 27 66t67 27t66.5 -27t26.5 -66
q0 -40 -26.5 -66.5t-66.5 -26.5t-67 26.5t-27 66.5z" />
    <glyph glyph-name="at" unicode="@" horiz-adv-x="953" 
d="M914 282q0 -124 -78 -189q-78 -63 -208 -63h-49v50q-44 -61 -132 -61q-87 0 -144 62t-57 156t57 155.5t144 61.5q85 0 129 -56v47h113v-310q117 7 117 147q0 124 -86 202.5t-227 78.5q-150 2 -249 -90t-97 -233q-2 -140 93.5 -231.5t239.5 -89.5q54 0 119 16l21 -94
q-66 -25 -154 -25q-115 -2 -214 53t-157.5 153.5t-56.5 215.5q-2 119 59.5 218.5t166 155.5t226.5 54q88 1 167.5 -29.5t136 -83t89 -123.5t31.5 -148zM569 237q0 49 -28 77.5t-69 28.5q-43 0 -72 -29.5t-29 -76.5t28.5 -76.5t71.5 -29.5q42 0 70 28t28 78z" />
    <glyph glyph-name="A" unicode="A" horiz-adv-x="661" 
d="M502 0l-37 86h-270l-37 -86h-145l295 672h45l294 -672h-145zM418 197l-88 223l-88 -223h176z" />
    <glyph glyph-name="B" unicode="B" horiz-adv-x="621" 
d="M587 194q0 -85 -61 -139.5t-156 -54.5h-294v660h234q92 0 150.5 -51.5t58.5 -132.5q0 -73 -49 -119q117 -43 117 -163zM299 544h-93v-151h93q41 0 63.5 20t22.5 56q0 35 -22.5 55t-63.5 20zM454 199q0 38 -25 60.5t-69 22.5h-154v-166h154q44 0 69 22t25 61z" />
    <glyph glyph-name="C" unicode="C" horiz-adv-x="720" 
d="M38 330q-2 142 103 243.5t249 98.5q94 0 170.5 -43.5t120.5 -120.5l-102 -72q-71 111 -189 111q-92 0 -152.5 -62t-60.5 -156t60.5 -155t152.5 -61q118 0 189 111l102 -72q-43 -77 -120 -120.5t-172 -43.5q-145 -3 -249.5 98.5t-101.5 243.5z" />
    <glyph glyph-name="D" unicode="D" horiz-adv-x="690" 
d="M76 0v660h216q158 2 260 -90.5t100 -237.5q2 -144 -101 -239t-259 -93h-216zM211 122h80q100 0 161 57.5t61 152.5q0 96 -60 151t-162 55h-80v-416z" />
    <glyph glyph-name="E" unicode="E" horiz-adv-x="573" 
d="M76 0v660h444v-122h-309v-134h227v-115h-227v-167h321v-122h-456z" />
    <glyph glyph-name="F" unicode="F" horiz-adv-x="535" 
d="M76 0v660h434v-122h-299v-165h245v-122h-245v-251h-135z" />
    <glyph glyph-name="G" unicode="G" horiz-adv-x="747" 
d="M38 330q-3 142 101.5 243t251.5 99q177 0 278 -143l-96 -79q-70 97 -184 97q-94 0 -153 -61t-59 -156q0 -97 61 -159t159 -62q115 0 174 82v54h-182v117h317v-195q-46 -81 -129 -130q-82 -49 -186 -49q-145 -3 -250 98.5t-103 243.5z" />
    <glyph glyph-name="H" unicode="H" horiz-adv-x="713" 
d="M76 0v660h135v-253h292v253h135v-660h-135v285h-292v-285h-135z" />
    <glyph glyph-name="I" unicode="I" horiz-adv-x="286" 
d="M76 0v660h135v-660h-135z" />
    <glyph glyph-name="J" unicode="J" horiz-adv-x="389" 
d="M17 0v115q48 -4 66 -4q49 0 72 18.5t23 60.5v470h135v-484q0 -93 -51.5 -140.5t-149.5 -47.5q-47 0 -95 12z" />
    <glyph glyph-name="K" unicode="K" horiz-adv-x="670" 
d="M657 0h-163l-283 344v-344h-135v660h135v-306l252 306h161l-253 -311z" />
    <glyph glyph-name="L" unicode="L" horiz-adv-x="524" 
d="M76 0v660h135v-538h289v-122h-424z" />
    <glyph glyph-name="M" unicode="M" horiz-adv-x="798" 
d="M678 672h44v-672h-135v352l-166 -208h-44l-166 208v-352h-135v672h44l279 -357z" />
    <glyph glyph-name="N" unicode="N" horiz-adv-x="713" 
d="M503 660h135v-672h-45l-382 408v-396h-135v672h44l383 -406v394z" />
    <glyph glyph-name="O" unicode="O" horiz-adv-x="778" 
d="M38 330q-2 141 102.5 243t247.5 99q143 3 248.5 -99t103.5 -243q2 -141 -103.5 -243t-248.5 -99q-143 -3 -247.5 99t-102.5 243zM601 330q0 94 -60.5 155.5t-151.5 61.5q-92 0 -152 -61t-60 -156t60 -156t152 -61q91 0 151.5 61t60.5 156z" />
    <glyph glyph-name="P" unicode="P" horiz-adv-x="594" 
d="M76 0v660h248q104 0 171 -59t67 -154q0 -94 -67 -154t-171 -60h-113v-233h-135zM211 351h113q47 0 73.5 26.5t26.5 69.5q0 42 -27.5 68t-72.5 26h-113v-190z" />
    <glyph glyph-name="Q" unicode="Q" horiz-adv-x="778" 
d="M1057 -102v-106q-51 -13 -118 -13q-135 0 -248.5 57.5t-191.5 168.5q-56 -17 -111 -17q-143 -3 -247.5 99t-102.5 243q-2 141 102.5 243t247.5 99q143 3 248.5 -99t103.5 -243q0 -80 -34 -149t-95 -117q67 -88 152.5 -129t201.5 -41q28 0 92 4zM389 113q91 0 151.5 61
t60.5 156q0 94 -60.5 155.5t-151.5 61.5q-92 0 -152 -61t-60 -156t60 -156t152 -61z" />
    <glyph glyph-name="R" unicode="R" horiz-adv-x="640" 
d="M633 0h-152l-171 233h-99v-233h-135v660h248q104 0 171 -59t67 -154q0 -62 -30.5 -111.5t-85.5 -76.5zM211 541v-189h113q47 0 73.5 26t26.5 69q0 42 -27.5 68t-72.5 26h-113z" />
    <glyph glyph-name="S" unicode="S" horiz-adv-x="559" 
d="M30 134l93 70q70 -96 162 -96q44 0 69 19.5t25 53.5q0 28 -17 43.5t-67 38.5l-71 32q-160 71 -160 190q0 84 62 135.5t157 51.5q74 0 130 -33.5t88 -91.5l-92 -71q-51 76 -126 76q-36 0 -59 -17t-23 -47q0 -25 16.5 -40.5t60.5 -35.5l75 -33q85 -38 124 -82.5t39 -110.5
q0 -89 -65 -143.5t-166 -54.5q-83 0 -149.5 39t-105.5 107z" />
    <glyph glyph-name="T" unicode="T" horiz-adv-x="585" 
d="M225 0v538h-211v122h558v-122h-212v-538h-135z" />
    <glyph glyph-name="U" unicode="U" horiz-adv-x="700" 
d="M70 273v387h135v-397q0 -71 40 -110.5t105 -39.5q66 0 105.5 39.5t39.5 110.5v397h135v-387q0 -129 -79 -207t-201 -78q-123 0 -201.5 78t-78.5 207z" />
    <glyph glyph-name="V" unicode="V" horiz-adv-x="661" 
d="M495 660h152l-294 -672h-45l-295 672h153l165 -400z" />
    <glyph glyph-name="W" unicode="W" horiz-adv-x="1035" 
d="M860 660h150l-264 -672h-44l-184 414l-185 -414h-44l-264 672h150l147 -390l173 402h45l173 -400z" />
    <glyph glyph-name="X" unicode="X" horiz-adv-x="614" 
d="M600 0h-153l-140 219l-140 -219h-154l219 336l-206 324h154l127 -208l126 208h153l-203 -324z" />
    <glyph glyph-name="Y" unicode="Y" horiz-adv-x="624" 
d="M607 660l-227 -400v-260h-135v259l-228 401h150l146 -262l145 262h149z" />
    <glyph glyph-name="Z" unicode="Z" horiz-adv-x="588" 
d="M228 122h332v-122h-540v36l331 502h-288v122h496v-36z" />
    <glyph glyph-name="bracketleft" unicode="[" horiz-adv-x="357" 
d="M90 -130v860h229v-109h-114v-642h114v-109h-229z" />
    <glyph glyph-name="backslash" unicode="\" horiz-adv-x="672" 
d="M526 -121l-523 901h143l523 -901h-143z" />
    <glyph glyph-name="bracketright" unicode="]" horiz-adv-x="357" 
d="M38 -130v109h114v642h-114v109h230v-860h-230z" />
    <glyph glyph-name="asciicircum" unicode="^" horiz-adv-x="536" 
d="M486 276h-129l-89 184l-90 -184h-129l197 394h44z" />
    <glyph glyph-name="underscore" unicode="_" horiz-adv-x="502" 
d="M35 -171v106h432v-106h-432z" />
    <glyph glyph-name="grave" unicode="`" horiz-adv-x="600" 
d="M319 571l-137 185v24h162l73 -209h-98z" />
    <glyph glyph-name="a" unicode="a" horiz-adv-x="545" 
d="M482 294v-294h-124v48q-58 -60 -151 -60q-78 0 -124.5 41t-46.5 107q0 67 50.5 105.5t136.5 38.5h124v22q0 42 -23.5 64.5t-68.5 22.5q-37 0 -67 -16t-64 -52l-70 83q86 102 216 102q98 0 155 -55.5t57 -156.5zM347 185v6h-106q-69 0 -69 -50q0 -25 19.5 -39.5
t51.5 -14.5q45 0 74.5 27.5t29.5 70.5z" />
    <glyph glyph-name="b" unicode="b" horiz-adv-x="629" 
d="M590 247q0 -112 -68 -185.5t-172 -73.5q-105 0 -159 73v-61h-124v750h135v-303q54 59 148 59q104 0 172 -73.5t68 -185.5zM453 248q0 60 -36.5 98t-91.5 38q-54 0 -89.5 -36.5t-35.5 -100.5t35.5 -100t89.5 -36q56 0 92 38t36 99z" />
    <glyph glyph-name="c" unicode="c" horiz-adv-x="552" 
d="M39 248q0 108 77 183t188 75q146 0 215 -122l-94 -73q-50 72 -119 72q-57 0 -93.5 -38.5t-36.5 -96.5q0 -59 36.5 -97.5t93.5 -38.5q69 0 119 71l94 -72q-33 -58 -88.5 -90.5t-126.5 -32.5q-109 -2 -188 75.5t-77 184.5z" />
    <glyph glyph-name="d" unicode="d" horiz-adv-x="629" 
d="M427 750h135v-750h-124v61q-51 -73 -159 -73q-104 0 -172 73.5t-68 185.5t68 185.5t172 73.5q94 0 148 -59v303zM429 247q0 64 -36 100.5t-89 36.5q-55 0 -91.5 -38t-36.5 -98q0 -61 36 -99t92 -38q54 0 89.5 36t35.5 100z" />
    <glyph glyph-name="e" unicode="e" horiz-adv-x="569" 
d="M522 202h-347q12 -47 48.5 -72.5t90.5 -25.5q73 0 138 50l56 -92q-89 -74 -198 -74q-114 -2 -193.5 74.5t-77.5 184.5q-2 107 75 184t184 75q102 0 167.5 -66t65.5 -164q0 -36 -9 -74zM175 297h225q-1 45 -31.5 72.5t-75.5 27.5q-43 0 -75 -27t-43 -73z" />
    <glyph glyph-name="f" unicode="f" horiz-adv-x="342" 
d="M225 564v-69h109v-114h-109v-381h-135v381h-70v114h70v81q0 92 50 139t141 47q38 0 74 -11v-113q-22 3 -40 3q-47 0 -68.5 -18t-21.5 -59z" />
    <glyph glyph-name="g" unicode="g" horiz-adv-x="631" 
d="M440 495h124v-440q0 -119 -69 -183t-187 -64q-139 0 -243 92l71 94q86 -64 161 -64q61 0 96.5 30t35.5 87v27q-54 -59 -151 -59q-103 0 -170 69t-67 177q0 109 67 177t170 68q108 0 162 -73v62zM431 263q0 61 -35.5 94.5t-89.5 33.5q-56 0 -92 -35t-36 -94t36.5 -96
t91.5 -37q53 0 89 36t36 98z" />
    <glyph glyph-name="h" unicode="h" horiz-adv-x="585" 
d="M522 307v-307h-134v288q0 43 -25.5 69.5t-66.5 26.5t-67.5 -26.5t-26.5 -69.5v-288h-135v750h135v-297q53 53 136 53q84 0 134 -54.5t50 -144.5z" />
    <glyph glyph-name="i" unicode="i" horiz-adv-x="269" 
d="M67 0v495h135v-495h-135zM48 675q0 36 25 60t61 24t61.5 -24t25.5 -60q0 -35 -25.5 -59t-61.5 -24t-61 24t-25 59z" />
    <glyph glyph-name="j" unicode="j" horiz-adv-x="269" 
d="M-63 -181v113q24 -3 41 -3q46 0 67.5 18t21.5 59v489h135v-501q0 -91 -50 -138.5t-140 -47.5q-39 0 -75 11zM48 675q0 36 25 60t61 24t61.5 -24t25.5 -60q0 -35 -25.5 -59t-61.5 -24t-61 24t-25 59z" />
    <glyph glyph-name="k" unicode="k" 
d="M555 0h-154l-199 274v-274h-135v750h135v-466l178 211h160l-186 -219z" />
    <glyph glyph-name="l" unicode="l" horiz-adv-x="269" 
d="M67 0v750h135v-750h-135z" />
    <glyph glyph-name="m" unicode="m" horiz-adv-x="892" 
d="M830 307v-307h-135v288q0 44 -24 70t-64 26t-65.5 -26t-25.5 -67v-291h-135v288q0 44 -24 70t-64 26q-41 0 -66 -26t-25 -70v-288h-135v495h124v-44q52 55 140 55q97 0 147 -71q63 71 165 71q86 0 136.5 -54t50.5 -145z" />
    <glyph glyph-name="n" unicode="n" horiz-adv-x="585" 
d="M522 307v-307h-134v289q0 43 -25.5 69.5t-66.5 26.5t-67.5 -26.5t-26.5 -69.5v-289h-135v495h124v-45q56 56 145 56q86 0 136 -54t50 -145z" />
    <glyph glyph-name="o" unicode="o" horiz-adv-x="608" 
d="M39 248q-2 106 77 183t188 75q109 2 188.5 -75t77.5 -183q2 -106 -78 -183.5t-189 -75.5q-109 -2 -187.5 75.5t-76.5 183.5zM432 247q0 58 -36.5 97t-91.5 39q-56 0 -92 -38.5t-36 -97.5q0 -58 36 -96t92 -38q55 0 91.5 38t36.5 96z" />
    <glyph glyph-name="p" unicode="p" horiz-adv-x="629" 
d="M590 248q0 -111 -68.5 -185.5t-171.5 -74.5q-93 0 -148 60v-228h-135v675h124v-62q51 73 159 73q103 0 171.5 -73.5t68.5 -184.5zM453 247q0 61 -36 99t-92 38q-54 0 -89.5 -36t-35.5 -100t35.5 -100.5t89.5 -36.5q55 0 91.5 38t36.5 98z" />
    <glyph glyph-name="q" unicode="q" horiz-adv-x="629" 
d="M438 495h124v-675h-135v228q-55 -60 -148 -60q-103 0 -171.5 74.5t-68.5 185.5t68.5 184.5t171.5 73.5q108 0 159 -73v62zM429 248q0 64 -35.5 100t-89.5 36q-56 0 -92 -38t-36 -99q0 -60 36.5 -98t91.5 -38q53 0 89 36.5t36 100.5z" />
    <glyph glyph-name="r" unicode="r" horiz-adv-x="388" 
d="M371 495v-119h-36q-62 0 -97.5 -33t-35.5 -96v-247h-135v495h124v-59q52 65 136 65q25 0 44 -6z" />
    <glyph glyph-name="s" unicode="s" horiz-adv-x="455" 
d="M22 84l68 82q64 -67 139 -67q28 0 45.5 10.5t17.5 30.5q0 15 -10.5 23.5t-40.5 21.5l-53 22q-71 29 -103 63.5t-32 87.5q0 69 50 108.5t132 39.5q110 0 178 -74l-68 -83q-50 47 -111 47q-53 0 -53 -35q0 -14 11 -23t41 -21l48 -20q74 -30 106.5 -64t32.5 -87
q0 -74 -55 -116q-54 -42 -138 -42q-133 0 -205 96z" />
    <glyph glyph-name="t" unicode="t" horiz-adv-x="416" 
d="M385 113v-113q-48 -12 -93 -12q-95 0 -146.5 47t-51.5 139v207h-78v114h78v125h135v-125h140v-114h-140v-195q0 -42 21.5 -59.5t70.5 -17.5q17 0 64 4z" />
    <glyph glyph-name="u" unicode="u" horiz-adv-x="580" 
d="M62 218v277h135v-288q0 -43 26.5 -69t67.5 -26q40 0 66 26.5t26 68.5v288h135v-277q0 -102 -64.5 -166t-162.5 -64q-100 0 -164.5 63.5t-64.5 166.5z" />
    <glyph glyph-name="v" unicode="v" horiz-adv-x="559" 
d="M404 495h143l-245 -507h-45l-245 507h142l125 -280z" />
    <glyph glyph-name="w" unicode="w" horiz-adv-x="857" 
d="M703 495h142l-230 -507h-44l-142 288l-143 -288h-44l-230 507h142l117 -282l135 293h45l137 -287z" />
    <glyph glyph-name="x" unicode="x" horiz-adv-x="531" 
d="M523 0h-151l-106 158l-107 -158h-151l181 255l-169 240h151l95 -143l94 143h151l-170 -239z" />
    <glyph glyph-name="y" unicode="y" horiz-adv-x="559" 
d="M405 495h142l-237 -538q-34 -77 -81 -113t-116 -36q-42 0 -87 12v113q41 -4 58 -4q38 0 62 15t41 52l15 34l-190 465h143l121 -325z" />
    <glyph glyph-name="z" unicode="z" horiz-adv-x="468" 
d="M215 114h237v-114h-435v36l237 345h-214v114h410v-36z" />
    <glyph glyph-name="braceleft" unicode="{" horiz-adv-x="413" 
d="M255 556q0 -22 10 -79q12 -65 12 -91q0 -69 -71 -87q71 -17 71 -86q0 -18 -5 -53l-6 -36q-11 -60 -11 -81q0 -65 62 -65h58v-108h-81q-154 0 -154 140q0 34 13 108q9 50 9 72q0 52 -55 52h-62v115h62q55 0 55 52q0 21 -9 73q-13 67 -13 107q0 141 154 141h81v-109h-58
q-62 0 -62 -65z" />
    <glyph glyph-name="bar" unicode="|" horiz-adv-x="332" 
d="M110 -121v901h112v-901h-112z" />
    <glyph glyph-name="braceright" unicode="}" horiz-adv-x="413" 
d="M306 357h61v-115h-61q-55 0 -55 -52q0 -22 9 -72q13 -74 13 -108q0 -140 -154 -140h-81v108h57q63 0 63 65q0 21 -11 81l-6 36q-5 35 -5 53q0 69 70 86q-70 17 -70 87q0 26 12 91q10 57 10 79q0 65 -63 65h-57v109h81q154 0 154 -141q0 -40 -13 -107q-9 -52 -9 -73
q0 -52 55 -52z" />
    <glyph glyph-name="asciitilde" unicode="~" 
d="M318 234l-88 53q-35 23 -55 23q-33 0 -33 -39v-19h-103q-2 34 -2 37q0 62 34 102q35 41 86 41q41 0 85 -26l88 -54q38 -22 55 -22q15 0 24.5 11t9.5 27v20h102q3 -19 3 -37q0 -62 -34.5 -102.5t-86.5 -40.5q-42 0 -85 26z" />
    <glyph glyph-name="uni00A0" unicode="&#xa0;" horiz-adv-x="280" 
 />
    <glyph glyph-name="exclamdown" unicode="&#xa1;" horiz-adv-x="347" 
d="M81 414q0 40 26.5 66t67.5 26q39 0 65.5 -26t26.5 -66t-26.5 -66.5t-65.5 -26.5q-41 0 -67.5 26.5t-26.5 66.5zM93 -180l26 432h110l25 -432h-161z" />
    <glyph glyph-name="cent" unicode="&#xa2;" horiz-adv-x="557" 
d="M420 262l93 -72q-57 -103 -175 -120v-167h-118v175q-82 24 -135 92q-52 67 -52 156t52 156q53 68 135 92v175h118v-167q117 -17 176 -120l-94 -72q-50 71 -120 71q-57 0 -93 -38.5t-36 -96.5t36 -96.5t93 -38.5q70 0 120 71z" />
    <glyph glyph-name="sterling" unicode="&#xa3;" horiz-adv-x="569" 
d="M276 114h249v-114h-483v29q69 50 100.5 93.5t31.5 94.5v10h-122v114h79q-43 81 -43 138q0 86 62 139.5t156 53.5q85 0 145 -46.5t84 -134.5l-113 -41q-31 97 -107 97q-41 0 -65.5 -25t-24.5 -65q0 -26 9.5 -49.5t34.5 -66.5h161v-114h-122v-8q0 -61 -32 -105z" />
    <glyph glyph-name="currency" unicode="&#xa4;" horiz-adv-x="657" 
d="M532 203l108 -110l-80 -80l-112 114q-55 -31 -123 -31q-66 0 -121 30l-106 -113l-81 80l103 109q-39 56 -39 128q0 70 39 126l-103 105l81 81l106 -109q53 31 121 31q66 0 125 -32l109 110l81 -81l-107 -105q38 -58 38 -126q0 -72 -39 -127zM433 330q0 48 -30.5 79
t-76.5 31q-48 0 -77.5 -31t-29.5 -79t29.5 -79t77.5 -31q47 0 77 31t30 79z" />
    <glyph glyph-name="yen" unicode="&#xa5;" horiz-adv-x="599" 
d="M594 660l-196 -285h150v-109h-180v-62h180v-109h-180v-95h-135v95h-181v109h181v62h-181v109h150l-197 285h150l145 -212l145 212h149z" />
    <glyph glyph-name="brokenbar" unicode="&#xa6;" horiz-adv-x="332" 
d="M110 480v300h112v-300h-112zM110 -121v300h112v-300h-112z" />
    <glyph glyph-name="section" unicode="&#xa7;" horiz-adv-x="602" 
d="M457 53q2 -22 2 -25q0 -72 -51.5 -116.5t-135.5 -44.5q-135 0 -198 107l85 69q46 -63 113 -63q60 0 60 48q0 23 -14.5 38t-60.5 47l-91 61q-73 46 -105 86t-32 90q0 52 31 89.5t85 53.5q-2 22 -2 25q0 72 51.5 116.5t135.5 44.5q134 0 197 -107l-85 -69q-48 63 -113 63
q-60 0 -60 -48q0 -23 14 -38t62 -47l90 -61q74 -47 106 -86t32 -90q0 -52 -31 -89.5t-85 -53.5zM411 138q35 20 35 54q0 20 -16 38t-61 48l-98 65q-60 40 -82 64q-34 -19 -34 -53q0 -20 16 -37.5t62 -48.5l90 -61q59 -37 88 -69z" />
    <glyph glyph-name="dieresis" unicode="&#xa8;" horiz-adv-x="600" 
d="M100 676q0 32 24 55t58 23q32 0 56 -23t24 -55t-24 -55t-56 -23q-34 0 -58 23t-24 55zM338 676q0 32 24 55t58 23q32 0 56 -23t24 -55t-24 -55t-56 -23q-34 0 -58 23t-24 55z" />
    <glyph glyph-name="copyright" unicode="&#xa9;" horiz-adv-x="778" 
d="M38 329q-3 142 103.5 243.5t247.5 99.5q141 3 247.5 -99.5t103.5 -242.5q3 -140 -104 -242.5t-248 -99.5q-141 -2 -247 99.5t-103 241.5zM652 329q2 114 -78 189.5t-186 73.5q-107 2 -185.5 -73.5t-76.5 -189.5q-2 -114 76.5 -188.5t185.5 -72.5q106 -2 186 73t78 188z
M207 330q0 79 54.5 132.5t134.5 53.5q91 0 151 -79l-70 -61q-33 46 -80 46q-38 0 -62 -26t-24 -66q0 -39 24 -65t62 -26q47 0 80 45l70 -61q-59 -78 -152 -78q-79 0 -133.5 53.5t-54.5 131.5z" />
    <glyph glyph-name="ordfeminine" unicode="&#xaa;" horiz-adv-x="366" 
d="M320 428v-184h-95v24q-35 -32 -90 -32q-50 0 -79 27.5t-29 70.5q0 44 32.5 68t89.5 24h67v11q0 42 -50 42q-37 0 -83 -33l-42 67q58 52 137 52q67 0 104.5 -35.5t37.5 -101.5zM216 358v9h-49q-35 0 -35 -29q0 -13 9.5 -20.5t25.5 -7.5q21 0 35 13.5t14 34.5z" />
    <glyph glyph-name="guillemotleft" unicode="&#xab;" horiz-adv-x="597" 
d="M224 45l-195 209v36l195 210l86 -75l-135 -152l135 -153zM481 45l-195 209v36l195 210l86 -75l-135 -152l135 -153z" />
    <glyph glyph-name="logicalnot" unicode="&#xac;" 
d="M358 103v160h-315v115h441v-275h-126z" />
    <glyph glyph-name="uni00AD" unicode="&#xad;" horiz-adv-x="342" 
d="M45 264v113h252v-113h-252z" />
    <glyph glyph-name="registered" unicode="&#xae;" horiz-adv-x="574" 
d="M541 436q2 -104 -74.5 -181.5t-178.5 -75.5q-103 -2 -180 75.5t-75 181.5q-2 103 75 180.5t180 75.5q101 2 178 -75.5t75 -180.5zM475 436q0 81 -54.5 137t-132.5 56q-79 0 -133.5 -56t-54.5 -137q0 -82 54.5 -138t133.5 -56q78 0 132.5 56.5t54.5 137.5zM353 401l66 -91
h-77l-58 75h-27v-75h-70v251h104q45 0 73 -24.5t28 -63.5q0 -47 -39 -72zM257 500v-55h34q13 0 21 7.5t8 19.5q0 13 -8 20.5t-21 7.5h-34z" />
    <glyph glyph-name="overscore" unicode="&#xaf;" horiz-adv-x="600" 
d="M149 622v106h302v-106h-302z" />
    <glyph glyph-name="degree" unicode="&#xb0;" horiz-adv-x="361" 
d="M24 518q0 63 46 108.5t111 45.5t110.5 -45t45.5 -109t-45.5 -109t-110.5 -45t-111 45.5t-46 108.5zM248 517q0 29 -19 48.5t-48 19.5t-48 -19.5t-19 -48.5q0 -28 19 -47.5t48 -19.5t48 19.5t19 47.5z" />
    <glyph glyph-name="plusminus" unicode="&#xb1;" 
d="M216 174v141h-161v109h161v134h129v-134h161v-109h-161v-141h-129zM55 0v108h451v-108h-451z" />
    <glyph glyph-name="uni00B2" unicode="&#xb2;" horiz-adv-x="385" 
d="M214 454h132v-90l-313 -1v21l149 162q52 59 52 97q0 24 -13 38.5t-35 14.5t-35.5 -14.5t-13.5 -40.5q0 -1 0.5 -5t1 -10.5t0.5 -13.5h-99q-4 15 -4 35q0 56 42.5 98.5t108.5 42.5q64 0 107 -39q43 -37 43 -97q0 -41 -21.5 -78.5t-69.5 -85.5z" />
    <glyph glyph-name="uni00B3" unicode="&#xb3;" horiz-adv-x="360" 
d="M326 502q0 -62 -46.5 -104t-113.5 -42q-53 0 -93.5 26t-61.5 72l69 49q37 -55 83 -55q27 0 43.5 15t16.5 39q0 48 -76 48h-48v25l78 115h-133v90h275v-27l-84 -125q40 -13 65.5 -46.5t25.5 -79.5z" />
    <glyph glyph-name="acute" unicode="&#xb4;" horiz-adv-x="600" 
d="M182 571l73 209h162v-24l-137 -185h-98z" />
    <glyph glyph-name="uni00B5" unicode="&#xb5;" horiz-adv-x="613" 
d="M568 111l27 1v-112q-31 -10 -72 -10q-75 0 -106 52q-44 -54 -112 -54q-63 0 -103 45v-213h-135v675h135v-285q0 -44 25.5 -72t66.5 -28q42 0 68 28t26 72v285h134v-323q0 -61 46 -61z" />
    <glyph glyph-name="paragraph" unicode="&#xb6;" horiz-adv-x="613" 
d="M32 440q0 99 70 159.5t178 60.5h58v-443h-58q-107 0 -177.5 62.5t-70.5 160.5zM246 -180v115q48 -4 64 -4q49 0 71 18.5t22 61.5v649h135v-663q0 -94 -51 -141.5t-148 -47.5q-47 0 -93 12z" />
    <glyph glyph-name="middot" unicode="&#xb7;" horiz-adv-x="280" 
d="M47 320q0 39 27 66t67 27q39 0 65.5 -27t26.5 -66q0 -40 -26 -66.5t-66 -26.5t-67 26.5t-27 66.5z" />
    <glyph glyph-name="cedilla" unicode="&#xb8;" horiz-adv-x="600" 
d="M185 -182v89q34 -2 60 -2q62 0 62 57q0 28 -13 58l53 24q67 -37 67 -109q0 -56 -42 -91.5t-113 -35.5q-41 0 -74 10z" />
    <glyph glyph-name="uni00B9" unicode="&#xb9;" horiz-adv-x="370" 
d="M42 364v90h103v236h-94v90h195v-326h86v-90h-290z" />
    <glyph glyph-name="ordmasculine" unicode="&#xba;" horiz-adv-x="399" 
d="M29 401q0 69 50 116.5t120 47.5t120.5 -47.5t50.5 -116.5t-50 -117t-121 -48q-70 0 -120 48t-50 117zM266 401q0 32 -18.5 51.5t-48.5 19.5t-48 -19.5t-18 -51.5t18 -51.5t48 -19.5t48.5 20t18.5 51z" />
    <glyph glyph-name="guillemotright" unicode="&#xbb;" horiz-adv-x="597" 
d="M117 45l-86 75l134 153l-134 152l86 75l194 -210v-36zM374 45l-86 75l134 153l-134 152l86 75l194 -210v-36z" />
    <glyph glyph-name="onequarter" unicode="&#xbc;" horiz-adv-x="937" 
d="M42 244v90h103v236h-94v90h195v-326h86v-90h-290zM251 0l380 660h109l-380 -660h-109zM926 146v-82h-50v-64h-91v64h-212v26l124 326h103l-104 -270h89l1 109h90v-109h50z" />
    <glyph glyph-name="onehalf" unicode="&#xbd;" horiz-adv-x="971" 
d="M42 244v90h103v236h-94v90h195v-326h86v-90h-290zM251 0l380 660h109l-380 -660h-109zM800 90h132v-90l-313 -1v21l149 162q52 59 52 97q0 24 -13 38.5t-35 14.5t-35.5 -14.5t-13.5 -40.5q0 -1 0.5 -5t1 -10.5t0.5 -13.5h-99q-4 15 -4 35q0 56 42.5 98.5t108.5 42.5
q63 0 107 -39q43 -37 43 -97q0 -41 -21.5 -78.5t-69.5 -85.5z" />
    <glyph glyph-name="threequarters" unicode="&#xbe;" horiz-adv-x="892" 
d="M326 382q0 -62 -46.5 -104t-113.5 -42q-53 0 -93.5 26t-61.5 72l69 49q37 -55 83 -55q27 0 43.5 15t16.5 39q0 48 -76 48h-48v25l78 115h-133v90h275v-27l-84 -125q40 -13 65.5 -46.5t25.5 -79.5zM206 0l380 660h109l-380 -660h-109zM881 146v-82h-50v-64h-91v64h-212v26
l124 326h103l-104 -270h89l1 109h90v-109h50z" />
    <glyph glyph-name="questiondown" unicode="&#xbf;" horiz-adv-x="451" 
d="M144 414q0 40 26.5 66t66.5 26t66.5 -26t26.5 -66t-26.5 -66.5t-66.5 -26.5t-66.5 26.5t-26.5 66.5zM34 -11q0 46 19.5 79t62.5 71q43 39 56.5 56t13.5 37l-1 20h114q11 -30 11 -47q0 -30 -17 -53t-62 -64q-34 -31 -46.5 -49.5t-12.5 -40.5q0 -29 18.5 -47t45.5 -18
q53 0 81 75l111 -48q-21 -74 -72.5 -113t-123.5 -39q-84 0 -141 51t-57 130z" />
    <glyph glyph-name="Agrave" unicode="&#xc0;" horiz-adv-x="661" 
d="M502 0l-37 86h-270l-37 -86h-145l295 672h45l294 -672h-145zM418 197l-88 223l-88 -223h176zM282 724l-137 162v24h162l73 -186h-98z" />
    <glyph glyph-name="Aacute" unicode="&#xc1;" horiz-adv-x="661" 
d="M502 0l-37 86h-270l-37 -86h-145l295 672h45l294 -672h-145zM418 197l-88 223l-88 -223h176zM278 724l73 186h162v-24l-137 -162h-98z" />
    <glyph glyph-name="Acircumflex" unicode="&#xc2;" horiz-adv-x="661" 
d="M502 0l-37 86h-270l-37 -86h-145l295 672h45l294 -672h-145zM418 197l-88 223l-88 -223h176zM523 724h-103l-90 80l-90 -80h-102l148 186h89z" />
    <glyph glyph-name="Atilde" unicode="&#xc3;" horiz-adv-x="661" 
d="M502 0l-37 86h-270l-37 -86h-145l295 672h45l294 -672h-145zM418 197l-88 223l-88 -223h176zM339 747l-30 16q-29 17 -44 17q-28 0 -28 -33v-12h-103q-2 30 -2 34q0 59 33 96.5t83 37.5q35 0 74 -21l30 -18q26 -17 45 -17q28 0 28 34v12h103q2 -30 2 -33q0 -60 -33 -97.5
t-82 -37.5q-36 0 -76 22z" />
    <glyph glyph-name="Adieresis" unicode="&#xc4;" horiz-adv-x="661" 
d="M502 0l-37 86h-270l-37 -86h-145l295 672h45l294 -672h-145zM418 197l-88 223l-88 -223h176zM121 814q0 33 23.5 55.5t56.5 22.5q34 0 58 -22.5t24 -55.5q0 -31 -24 -54t-58 -23q-31 0 -55.5 23.5t-24.5 53.5zM379 813q0 33 24 56t57 23t57 -23t24 -56q0 -31 -24 -54
t-57 -23q-31 0 -56 23.5t-25 53.5z" />
    <glyph glyph-name="Aring" unicode="&#xc5;" horiz-adv-x="661" 
d="M502 0l-37 86h-270l-37 -86h-145l295 672h45l294 -672h-145zM418 197l-88 223l-88 -223h176zM204 798q0 51 36 86t90 35t90.5 -35t36.5 -86q0 -52 -36.5 -87.5t-90.5 -35.5t-90 35.5t-36 87.5zM372 798q0 17 -12 29t-29 12q-18 0 -29.5 -12t-11.5 -29q0 -18 11.5 -30
t29.5 -12q17 0 29 12t12 30z" />
    <glyph glyph-name="AE" unicode="&#xc6;" horiz-adv-x="852" 
d="M568 122h244v-122h-355l-15 86h-247l-45 -86h-145l338 660h457v-122h-301l22 -134h198v-115h-179zM380 466l-129 -269h172z" />
    <glyph glyph-name="Ccedilla" unicode="&#xc7;" horiz-adv-x="720" 
d="M38 330q-2 142 103 243.5t249 98.5q94 0 170.5 -43.5t120.5 -120.5l-102 -72q-71 111 -189 111q-92 0 -152.5 -62t-60.5 -156t60.5 -155t152.5 -61q118 0 189 111l102 -72q-43 -77 -120 -120.5t-172 -43.5q-145 -3 -249.5 98.5t-101.5 243.5zM254 -182v89q34 -2 60 -2
q62 0 62 57q0 28 -13 58l53 24q67 -37 67 -109q0 -56 -42 -91.5t-113 -35.5q-41 0 -74 10z" />
    <glyph glyph-name="Egrave" unicode="&#xc8;" horiz-adv-x="573" 
d="M76 0v660h444v-122h-309v-134h227v-115h-227v-167h321v-122h-456zM246 724l-137 162v24h162l73 -186h-98z" />
    <glyph glyph-name="Eacute" unicode="&#xc9;" horiz-adv-x="573" 
d="M76 0v660h444v-122h-309v-134h227v-115h-227v-167h321v-122h-456zM242 724l73 186h162v-24l-137 -162h-98z" />
    <glyph glyph-name="Ecircumflex" unicode="&#xca;" horiz-adv-x="573" 
d="M76 0v660h444v-122h-309v-134h227v-115h-227v-167h321v-122h-456zM487 724h-103l-90 80l-90 -80h-102l148 186h89z" />
    <glyph glyph-name="Edieresis" unicode="&#xcb;" horiz-adv-x="573" 
d="M76 0v660h444v-122h-309v-134h227v-115h-227v-167h321v-122h-456zM85 814q0 33 23.5 55.5t56.5 22.5q34 0 58 -22.5t24 -55.5q0 -31 -24 -54t-58 -23q-31 0 -55.5 23.5t-24.5 53.5zM343 813q0 33 24 56t57 23t57 -23t24 -56q0 -31 -24 -54t-57 -23q-31 0 -56 23.5
t-25 53.5z" />
    <glyph glyph-name="Igrave" unicode="&#xcc;" horiz-adv-x="286" 
d="M76 0v660h135v-660h-135zM95 724l-137 162v24h162l73 -186h-98z" />
    <glyph glyph-name="Iacute" unicode="&#xcd;" horiz-adv-x="286" 
d="M76 0v660h135v-660h-135zM91 724l73 186h162v-24l-137 -162h-98z" />
    <glyph glyph-name="Icircumflex" unicode="&#xce;" horiz-adv-x="286" 
d="M76 0v660h135v-660h-135zM336 724h-103l-90 80l-90 -80h-102l148 186h89z" />
    <glyph glyph-name="Idieresis" unicode="&#xcf;" horiz-adv-x="286" 
d="M76 0v660h135v-660h-135zM-66 814q0 33 23.5 55.5t56.5 22.5q34 0 58 -22.5t24 -55.5q0 -31 -24 -54t-58 -23q-31 0 -55.5 23.5t-24.5 53.5zM192 813q0 33 24 56t57 23t57 -23t24 -56q0 -31 -24 -54t-57 -23q-31 0 -56 23.5t-25 53.5z" />
    <glyph glyph-name="Eth" unicode="&#xd0;" horiz-adv-x="690" 
d="M652 332q2 -144 -101 -239t-259 -93h-216v257h-84v113h84v290h216q158 2 260 -90.5t100 -237.5zM513 332q0 96 -60 151t-162 55h-80v-168h108v-113h-108v-135h80q100 0 161 57.5t61 152.5z" />
    <glyph glyph-name="Ntilde" unicode="&#xd1;" horiz-adv-x="713" 
d="M503 660h135v-672h-45l-382 408v-396h-135v672h44l383 -406v394zM365 747l-30 16q-29 17 -44 17q-28 0 -28 -33v-12h-103q-2 30 -2 34q0 59 33 96.5t83 37.5q35 0 74 -21l30 -18q26 -17 45 -17q28 0 28 34v12h103q2 -30 2 -33q0 -60 -33 -97.5t-82 -37.5q-36 0 -76 22z
" />
    <glyph glyph-name="Ograve" unicode="&#xd2;" horiz-adv-x="778" 
d="M38 330q-2 141 102.5 243t247.5 99q143 3 248.5 -99t103.5 -243q2 -141 -103.5 -243t-248.5 -99q-143 -3 -247.5 99t-102.5 243zM601 330q0 94 -60.5 155.5t-151.5 61.5q-92 0 -152 -61t-60 -156t60 -156t152 -61q91 0 151.5 61t60.5 156zM340 724l-137 162v24h162
l73 -186h-98z" />
    <glyph glyph-name="Oacute" unicode="&#xd3;" horiz-adv-x="778" 
d="M38 330q-2 141 102.5 243t247.5 99q143 3 248.5 -99t103.5 -243q2 -141 -103.5 -243t-248.5 -99q-143 -3 -247.5 99t-102.5 243zM601 330q0 94 -60.5 155.5t-151.5 61.5q-92 0 -152 -61t-60 -156t60 -156t152 -61q91 0 151.5 61t60.5 156zM336 724l73 186h162v-24
l-137 -162h-98z" />
    <glyph glyph-name="Ocircumflex" unicode="&#xd4;" horiz-adv-x="778" 
d="M38 330q-2 141 102.5 243t247.5 99q143 3 248.5 -99t103.5 -243q2 -141 -103.5 -243t-248.5 -99q-143 -3 -247.5 99t-102.5 243zM601 330q0 94 -60.5 155.5t-151.5 61.5q-92 0 -152 -61t-60 -156t60 -156t152 -61q91 0 151.5 61t60.5 156zM581 724h-103l-90 80l-90 -80
h-102l148 186h89z" />
    <glyph glyph-name="Otilde" unicode="&#xd5;" horiz-adv-x="778" 
d="M38 330q-2 141 102.5 243t247.5 99q143 3 248.5 -99t103.5 -243q2 -141 -103.5 -243t-248.5 -99q-143 -3 -247.5 99t-102.5 243zM601 330q0 94 -60.5 155.5t-151.5 61.5q-92 0 -152 -61t-60 -156t60 -156t152 -61q91 0 151.5 61t60.5 156zM397 747l-30 16q-29 17 -44 17
q-28 0 -28 -33v-12h-103q-2 30 -2 34q0 59 33 96.5t83 37.5q35 0 74 -21l30 -18q25 -17 45 -17q28 0 28 34v12h103q2 -30 2 -33q0 -60 -33 -97.5t-82 -37.5q-36 0 -76 22z" />
    <glyph glyph-name="Odieresis" unicode="&#xd6;" horiz-adv-x="778" 
d="M38 330q-2 141 102.5 243t247.5 99q143 3 248.5 -99t103.5 -243q2 -141 -103.5 -243t-248.5 -99q-143 -3 -247.5 99t-102.5 243zM601 330q0 94 -60.5 155.5t-151.5 61.5q-92 0 -152 -61t-60 -156t60 -156t152 -61q91 0 151.5 61t60.5 156zM179 814q0 33 23.5 55.5
t56.5 22.5q34 0 58 -22.5t24 -55.5q0 -31 -24 -54t-58 -23q-31 0 -55.5 23.5t-24.5 53.5zM437 813q0 33 24 56t57 23t57 -23t24 -56q0 -31 -24 -54t-57 -23q-31 0 -56 23.5t-25 53.5z" />
    <glyph glyph-name="multiply" unicode="&#xd7;" 
d="M132 95l-80 81l147 147l-147 147l80 80l148 -147l147 147l80 -80l-147 -147l147 -147l-80 -81l-148 147z" />
    <glyph glyph-name="Oslash" unicode="&#xd8;" horiz-adv-x="778" 
d="M747 608l-75 -75q68 -88 68 -203q2 -141 -103.5 -243t-248.5 -99q-108 0 -200 59l-76 -76l-81 81l74 74q-67 91 -67 204q-2 141 102.5 243t247.5 99q111 0 201 -60l77 77zM171 330q0 -61 26 -111l305 304q-52 30 -113 30q-95 0 -156.5 -63t-61.5 -160zM607 330
q0 60 -27 111l-304 -305q50 -29 113 -29q93 0 155.5 63.5t62.5 159.5z" />
    <glyph glyph-name="Ugrave" unicode="&#xd9;" horiz-adv-x="700" 
d="M70 273v387h135v-397q0 -71 40 -110.5t105 -39.5q66 0 105.5 39.5t39.5 110.5v397h135v-387q0 -129 -79 -207t-201 -78q-123 0 -201.5 78t-78.5 207zM301 724l-137 162v24h162l73 -186h-98z" />
    <glyph glyph-name="Uacute" unicode="&#xda;" horiz-adv-x="700" 
d="M70 273v387h135v-397q0 -71 40 -110.5t105 -39.5q66 0 105.5 39.5t39.5 110.5v397h135v-387q0 -129 -79 -207t-201 -78q-123 0 -201.5 78t-78.5 207zM297 724l73 186h162v-24l-137 -162h-98z" />
    <glyph glyph-name="Ucircumflex" unicode="&#xdb;" horiz-adv-x="700" 
d="M70 273v387h135v-397q0 -71 40 -110.5t105 -39.5q66 0 105.5 39.5t39.5 110.5v397h135v-387q0 -129 -79 -207t-201 -78q-123 0 -201.5 78t-78.5 207zM542 724h-103l-90 80l-90 -80h-102l148 186h89z" />
    <glyph glyph-name="Udieresis" unicode="&#xdc;" horiz-adv-x="700" 
d="M70 273v387h135v-397q0 -71 40 -110.5t105 -39.5q66 0 105.5 39.5t39.5 110.5v397h135v-387q0 -129 -79 -207t-201 -78q-123 0 -201.5 78t-78.5 207zM140 814q0 33 23.5 55.5t56.5 22.5q34 0 58 -22.5t24 -55.5q0 -31 -24 -54t-58 -23q-31 0 -55.5 23.5t-24.5 53.5z
M398 813q0 33 24 56t57 23t57 -23t24 -56q0 -31 -24 -54t-57 -23q-31 0 -56 23.5t-25 53.5z" />
    <glyph glyph-name="Yacute" unicode="&#xdd;" horiz-adv-x="624" 
d="M607 660l-227 -400v-260h-135v259l-228 401h150l146 -262l145 262h149zM258 724l73 186h162v-24l-137 -162h-98z" />
    <glyph glyph-name="Thorn" unicode="&#xde;" horiz-adv-x="594" 
d="M76 0v660h135v-101h113q104 0 171 -59.5t67 -155.5t-67 -156t-171 -60h-113v-128h-135zM211 246h113q46 0 73 27t27 70q0 45 -26.5 71t-73.5 26h-113v-194z" />
    <glyph glyph-name="germandbls" unicode="&#xdf;" horiz-adv-x="650" 
d="M261 49l51 95q66 -42 125 -42q57 0 57 42q0 19 -14 31q-13 12 -64 41q-54 32 -78 59.5t-24 62.5q0 26 18 73l34 87q14 34 14 66q0 36 -20 56t-58 20q-46 0 -74 -31.5t-28 -92.5v-516h-133v522q0 113 64.5 176.5t176.5 63.5q95 0 151.5 -44.5t56.5 -117.5q0 -37 -17 -83
l-36 -93q-16 -36 -16 -55q0 -22 18 -38t62 -42q51 -32 74.5 -64t23.5 -79q0 -72 -51.5 -115t-136.5 -43q-103 0 -176 61z" />
    <glyph glyph-name="agrave" unicode="&#xe0;" horiz-adv-x="545" 
d="M482 294v-294h-124v48q-58 -60 -151 -60q-78 0 -124.5 41t-46.5 107q0 67 50.5 105.5t136.5 38.5h124v22q0 42 -23.5 64.5t-68.5 22.5q-37 0 -67 -16t-64 -52l-70 83q86 102 216 102q98 0 155 -55.5t57 -156.5zM347 185v6h-106q-69 0 -69 -50q0 -25 19.5 -39.5
t51.5 -14.5q45 0 74.5 27.5t29.5 70.5zM222 571l-137 185v24h162l73 -209h-98z" />
    <glyph glyph-name="aacute" unicode="&#xe1;" horiz-adv-x="545" 
d="M482 294v-294h-124v48q-58 -60 -151 -60q-78 0 -124.5 41t-46.5 107q0 67 50.5 105.5t136.5 38.5h124v22q0 42 -23.5 64.5t-68.5 22.5q-37 0 -67 -16t-64 -52l-70 83q86 102 216 102q98 0 155 -55.5t57 -156.5zM347 185v6h-106q-69 0 -69 -50q0 -25 19.5 -39.5
t51.5 -14.5q45 0 74.5 27.5t29.5 70.5zM221 571l73 209h162v-24l-137 -185h-98z" />
    <glyph glyph-name="acircumflex" unicode="&#xe2;" horiz-adv-x="545" 
d="M482 294v-294h-124v48q-58 -60 -151 -60q-78 0 -124.5 41t-46.5 107q0 67 50.5 105.5t136.5 38.5h124v22q0 42 -23.5 64.5t-68.5 22.5q-37 0 -67 -16t-64 -52l-70 83q86 102 216 102q98 0 155 -55.5t57 -156.5zM347 185v6h-106q-69 0 -69 -50q0 -25 19.5 -39.5
t51.5 -14.5q45 0 74.5 27.5t29.5 70.5zM449 571h-99l-80 92l-80 -92h-99l135 209h89z" />
    <glyph glyph-name="atilde" unicode="&#xe3;" horiz-adv-x="545" 
d="M482 294v-294h-124v48q-58 -60 -151 -60q-78 0 -124.5 41t-46.5 107q0 67 50.5 105.5t136.5 38.5h124v22q0 42 -23.5 64.5t-68.5 22.5q-37 0 -67 -16t-64 -52l-70 83q86 102 216 102q98 0 155 -55.5t57 -156.5zM347 185v6h-106q-69 0 -69 -50q0 -25 19.5 -39.5
t51.5 -14.5q45 0 74.5 27.5t29.5 70.5zM278 601l-28 17q-26 19 -40 19q-28 0 -28 -35v-12h-103q-2 14 -2 33q0 61 32 98.5t81 37.5q38 0 72 -22l28 -18q24 -18 40 -18q28 0 28 35v12h102q3 -18 3 -34q0 -60 -32.5 -97.5t-81.5 -37.5q-37 0 -71 22z" />
    <glyph glyph-name="adieresis" unicode="&#xe4;" horiz-adv-x="545" 
d="M482 294v-294h-124v48q-58 -60 -151 -60q-78 0 -124.5 41t-46.5 107q0 67 50.5 105.5t136.5 38.5h124v22q0 42 -23.5 64.5t-68.5 22.5q-37 0 -67 -16t-64 -52l-70 83q86 102 216 102q98 0 155 -55.5t57 -156.5zM347 185v6h-106q-69 0 -69 -50q0 -25 19.5 -39.5
t51.5 -14.5q45 0 74.5 27.5t29.5 70.5zM70 676q0 32 24 55t58 23q32 0 56 -23t24 -55t-24 -55t-56 -23q-34 0 -58 23t-24 55zM308 676q0 32 24 55t58 23q32 0 56 -23t24 -55t-24 -55t-56 -23q-34 0 -58 23t-24 55z" />
    <glyph glyph-name="aring" unicode="&#xe5;" horiz-adv-x="545" 
d="M482 294v-294h-124v48q-58 -60 -151 -60q-78 0 -124.5 41t-46.5 107q0 67 50.5 105.5t136.5 38.5h124v22q0 42 -23.5 64.5t-68.5 22.5q-37 0 -67 -16t-64 -52l-70 83q86 102 216 102q98 0 155 -55.5t57 -156.5zM347 185v6h-106q-69 0 -69 -50q0 -25 19.5 -39.5
t51.5 -14.5q45 0 74.5 27.5t29.5 70.5zM143 671q0 52 36 87t90 35q55 0 91 -34.5t36 -87.5t-36 -88t-91 -35q-54 0 -90 35t-36 88zM311 671q0 18 -12 29.5t-29 11.5t-29 -11.5t-12 -29.5t11.5 -29.5t29.5 -11.5q17 0 29 12t12 29z" />
    <glyph glyph-name="ae" unicode="&#xe6;" horiz-adv-x="878" 
d="M830 197h-345q13 -45 49.5 -69t88.5 -24q72 0 137 50l56 -92q-86 -74 -196 -74q-137 0 -208 100q-60 -100 -195 -100q-85 0 -133 41t-48 108q0 69 50.5 109t136.5 40h124v16q0 42 -23.5 64.5t-67.5 22.5q-66 0 -132 -68l-69 83q85 102 215 102q111 0 163 -73
q68 73 175 73q100 0 166 -66t66 -164q0 -45 -10 -79zM481 286h228q1 50 -28.5 80.5t-77.5 30.5q-46 0 -79 -30t-43 -81zM347 184v13h-106q-69 0 -69 -52q0 -27 19 -42t51 -15q45 0 75 27t30 69z" />
    <glyph glyph-name="ccedilla" unicode="&#xe7;" horiz-adv-x="552" 
d="M39 248q0 108 77 183t188 75q146 0 215 -122l-94 -73q-50 72 -119 72q-57 0 -93.5 -38.5t-36.5 -96.5q0 -59 36.5 -97.5t93.5 -38.5q69 0 119 71l94 -72q-33 -58 -88.5 -90.5t-126.5 -32.5q-109 -2 -188 75.5t-77 184.5zM162 -182v89q34 -2 60 -2q62 0 62 57q0 28 -13 58
l53 24q67 -37 67 -109q0 -56 -42 -91.5t-113 -35.5q-41 0 -74 10z" />
    <glyph glyph-name="egrave" unicode="&#xe8;" horiz-adv-x="569" 
d="M522 202h-347q12 -47 48.5 -72.5t90.5 -25.5q73 0 138 50l56 -92q-89 -74 -198 -74q-114 -2 -193.5 74.5t-77.5 184.5q-2 107 75 184t184 75q102 0 167.5 -66t65.5 -164q0 -36 -9 -74zM175 297h225q-1 45 -31.5 72.5t-75.5 27.5q-43 0 -75 -27t-43 -73zM249 571l-137 185
v24h162l73 -209h-98z" />
    <glyph glyph-name="eacute" unicode="&#xe9;" horiz-adv-x="569" 
d="M522 202h-347q12 -47 48.5 -72.5t90.5 -25.5q73 0 138 50l56 -92q-89 -74 -198 -74q-114 -2 -193.5 74.5t-77.5 184.5q-2 107 75 184t184 75q102 0 167.5 -66t65.5 -164q0 -36 -9 -74zM175 297h225q-1 45 -31.5 72.5t-75.5 27.5q-43 0 -75 -27t-43 -73zM249 571l73 209
h162v-24l-137 -185h-98z" />
    <glyph glyph-name="ecircumflex" unicode="&#xea;" horiz-adv-x="569" 
d="M522 202h-347q12 -47 48.5 -72.5t90.5 -25.5q73 0 138 50l56 -92q-89 -74 -198 -74q-114 -2 -193.5 74.5t-77.5 184.5q-2 107 75 184t184 75q102 0 167.5 -66t65.5 -164q0 -36 -9 -74zM175 297h225q-1 45 -31.5 72.5t-75.5 27.5q-43 0 -75 -27t-43 -73zM477 571h-99
l-80 92l-80 -92h-99l135 209h89z" />
    <glyph glyph-name="edieresis" unicode="&#xeb;" horiz-adv-x="569" 
d="M522 202h-347q12 -47 48.5 -72.5t90.5 -25.5q73 0 138 50l56 -92q-89 -74 -198 -74q-114 -2 -193.5 74.5t-77.5 184.5q-2 107 75 184t184 75q102 0 167.5 -66t65.5 -164q0 -36 -9 -74zM175 297h225q-1 45 -31.5 72.5t-75.5 27.5q-43 0 -75 -27t-43 -73zM98 676
q0 32 24 55t58 23q32 0 56 -23t24 -55t-24 -55t-56 -23q-34 0 -58 23t-24 55zM336 676q0 32 24 55t58 23q32 0 56 -23t24 -55t-24 -55t-56 -23q-34 0 -58 23t-24 55z" />
    <glyph glyph-name="igrave" unicode="&#xec;" horiz-adv-x="269" 
d="M67 0v495h135v-495h-135zM88 571l-107 185v24h162l43 -209h-98z" />
    <glyph glyph-name="iacute" unicode="&#xed;" horiz-adv-x="269" 
d="M67 0v495h135v-495h-135zM85 571l43 209h162v-24l-107 -185h-98z" />
    <glyph glyph-name="icircumflex" unicode="&#xee;" horiz-adv-x="269" 
d="M67 0v495h135v-495h-135zM314 571h-99l-80 92l-80 -92h-99l135 209h89z" />
    <glyph glyph-name="idieresis" unicode="&#xef;" horiz-adv-x="269" 
d="M67 0v495h135v-495h-135zM-56 675q0 33 23.5 56t56.5 23q34 0 58 -23t24 -56q0 -31 -24 -54t-58 -23q-31 0 -55.5 23.5t-24.5 53.5zM164 675q0 33 24 56t57 23t57 -23t24 -56q0 -31 -24 -54t-57 -23q-31 0 -56 23.5t-25 53.5z" />
    <glyph glyph-name="eth" unicode="&#xf0;" horiz-adv-x="573" 
d="M534 227q0 -103 -70.5 -171t-175.5 -68q-107 0 -178 66.5t-71 165.5q0 97 67 161t165 64h10l-61 83l-136 -67l-47 96l119 59l-53 72l101 74l67 -89l156 77l48 -95l-138 -69l79 -104q30 -39 62 -88q56 -81 56 -167zM398 221q0 49 -31.5 80.5t-80.5 31.5t-80 -31.5
t-31 -81.5q0 -49 31 -80.5t80 -31.5t80.5 32t31.5 81z" />
    <glyph glyph-name="ntilde" unicode="&#xf1;" horiz-adv-x="585" 
d="M522 307v-307h-134v289q0 43 -25.5 69.5t-66.5 26.5t-67.5 -26.5t-26.5 -69.5v-289h-135v495h124v-45q56 56 145 56q86 0 136 -54t50 -145zM289 601l-28 17q-26 19 -40 19q-28 0 -28 -35v-12h-103q-2 14 -2 33q0 61 32 98.5t81 37.5q38 0 72 -22l28 -18q24 -18 40 -18
q28 0 28 35v12h102q3 -18 3 -34q0 -60 -32.5 -97.5t-81.5 -37.5q-37 0 -71 22z" />
    <glyph glyph-name="ograve" unicode="&#xf2;" horiz-adv-x="608" 
d="M39 248q-2 106 77 183t188 75q109 2 188.5 -75t77.5 -183q2 -106 -78 -183.5t-189 -75.5q-109 -2 -187.5 75.5t-76.5 183.5zM432 247q0 58 -36.5 97t-91.5 39q-56 0 -92 -38.5t-36 -97.5q0 -58 36 -96t92 -38q55 0 91.5 38t36.5 96zM256 571l-137 185v24h162l73 -209h-98
z" />
    <glyph glyph-name="oacute" unicode="&#xf3;" horiz-adv-x="608" 
d="M39 248q-2 106 77 183t188 75q109 2 188.5 -75t77.5 -183q2 -106 -78 -183.5t-189 -75.5q-109 -2 -187.5 75.5t-76.5 183.5zM432 247q0 58 -36.5 97t-91.5 39q-56 0 -92 -38.5t-36 -97.5q0 -58 36 -96t92 -38q55 0 91.5 38t36.5 96zM255 571l73 209h162v-24l-137 -185
h-98z" />
    <glyph glyph-name="ocircumflex" unicode="&#xf4;" horiz-adv-x="608" 
d="M39 248q-2 106 77 183t188 75q109 2 188.5 -75t77.5 -183q2 -106 -78 -183.5t-189 -75.5q-109 -2 -187.5 75.5t-76.5 183.5zM432 247q0 58 -36.5 97t-91.5 39q-56 0 -92 -38.5t-36 -97.5q0 -58 36 -96t92 -38q55 0 91.5 38t36.5 96zM483 571h-99l-80 92l-80 -92h-99
l135 209h89z" />
    <glyph glyph-name="otilde" unicode="&#xf5;" horiz-adv-x="608" 
d="M39 248q-2 106 77 183t188 75q109 2 188.5 -75t77.5 -183q2 -106 -78 -183.5t-189 -75.5q-109 -2 -187.5 75.5t-76.5 183.5zM432 247q0 58 -36.5 97t-91.5 39q-56 0 -92 -38.5t-36 -97.5q0 -58 36 -96t92 -38q55 0 91.5 38t36.5 96zM312 601l-28 17q-26 19 -40 19
q-28 0 -28 -35v-12h-103q-2 14 -2 33q0 61 32 98.5t81 37.5q38 0 72 -22l28 -18q24 -18 40 -18q28 0 28 35v12h102q3 -18 3 -34q0 -60 -32.5 -97.5t-81.5 -37.5q-37 0 -71 22z" />
    <glyph glyph-name="odieresis" unicode="&#xf6;" horiz-adv-x="608" 
d="M39 248q-2 106 77 183t188 75q109 2 188.5 -75t77.5 -183q2 -106 -78 -183.5t-189 -75.5q-109 -2 -187.5 75.5t-76.5 183.5zM432 247q0 58 -36.5 97t-91.5 39q-56 0 -92 -38.5t-36 -97.5q0 -58 36 -96t92 -38q55 0 91.5 38t36.5 96zM104 676q0 32 24 55t58 23
q32 0 56 -23t24 -55t-24 -55t-56 -23q-34 0 -58 23t-24 55zM342 676q0 32 24 55t58 23q32 0 56 -23t24 -55t-24 -55t-56 -23q-34 0 -58 23t-24 55z" />
    <glyph glyph-name="divide" unicode="&#xf7;" 
d="M197 508q0 32 24 54t58 22q33 0 57 -22t24 -54q0 -33 -24 -55.5t-57 -22.5q-34 0 -58 22.5t-24 55.5zM44 263v115h471v-115h-471zM197 132q0 33 24 55t58 22q33 0 57 -22t24 -55q0 -32 -24 -54.5t-57 -22.5q-34 0 -58 22.5t-24 54.5z" />
    <glyph glyph-name="oslash" unicode="&#xf8;" horiz-adv-x="612" 
d="M582 443l-53 -53q43 -64 43 -143q0 -108 -78.5 -183.5t-188.5 -75.5q-75 0 -140 38l-54 -55l-81 81l53 53q-42 61 -42 142q-1 107 77.5 184t187.5 75q75 0 140 -38l55 55zM167 247q0 -35 12 -62l191 192q-29 15 -64 15q-61 0 -100 -40.5t-39 -104.5zM445 247q0 35 -12 62
l-193 -192q29 -15 65 -15q61 0 100.5 40.5t39.5 104.5z" />
    <glyph glyph-name="ugrave" unicode="&#xf9;" horiz-adv-x="580" 
d="M62 218v277h135v-288q0 -43 26.5 -69t67.5 -26q40 0 66 26.5t26 68.5v288h135v-277q0 -102 -64.5 -166t-162.5 -64q-100 0 -164.5 63.5t-64.5 166.5zM242 571l-137 185v24h162l73 -209h-98z" />
    <glyph glyph-name="uacute" unicode="&#xfa;" horiz-adv-x="580" 
d="M62 218v277h135v-288q0 -43 26.5 -69t67.5 -26q40 0 66 26.5t26 68.5v288h135v-277q0 -102 -64.5 -166t-162.5 -64q-100 0 -164.5 63.5t-64.5 166.5zM241 571l73 209h162v-24l-137 -185h-98z" />
    <glyph glyph-name="ucircumflex" unicode="&#xfb;" horiz-adv-x="580" 
d="M62 218v277h135v-288q0 -43 26.5 -69t67.5 -26q40 0 66 26.5t26 68.5v288h135v-277q0 -102 -64.5 -166t-162.5 -64q-100 0 -164.5 63.5t-64.5 166.5zM469 571h-99l-80 92l-80 -92h-99l135 209h89z" />
    <glyph glyph-name="udieresis" unicode="&#xfc;" horiz-adv-x="580" 
d="M62 218v277h135v-288q0 -43 26.5 -69t67.5 -26q40 0 66 26.5t26 68.5v288h135v-277q0 -102 -64.5 -166t-162.5 -64q-100 0 -164.5 63.5t-64.5 166.5zM90 676q0 32 24 55t58 23q32 0 56 -23t24 -55t-24 -55t-56 -23q-34 0 -58 23t-24 55zM328 676q0 32 24 55t58 23
q32 0 56 -23t24 -55t-24 -55t-56 -23q-34 0 -58 23t-24 55z" />
    <glyph glyph-name="yacute" unicode="&#xfd;" horiz-adv-x="559" 
d="M405 495h142l-237 -538q-34 -77 -81 -113t-116 -36q-42 0 -87 12v113q41 -4 58 -4q38 0 62 15t41 52l15 34l-190 465h143l121 -325zM230 571l73 209h162v-24l-137 -185h-98z" />
    <glyph glyph-name="thorn" unicode="&#xfe;" horiz-adv-x="629" 
d="M590 248q0 -111 -68.5 -185.5t-171.5 -74.5q-93 0 -148 60v-228h-135v930h135v-303q54 59 148 59q103 0 171.5 -73.5t68.5 -184.5zM453 247q0 61 -36 99t-92 38q-54 0 -89.5 -36t-35.5 -100t35.5 -100.5t89.5 -36.5q55 0 91.5 38t36.5 98z" />
    <glyph glyph-name="ydieresis" unicode="&#xff;" horiz-adv-x="559" 
d="M405 495h142l-237 -538q-34 -77 -81 -113t-116 -36q-42 0 -87 12v113q41 -4 58 -4q38 0 62 15t41 52l15 34l-190 465h143l121 -325zM79 676q0 32 24 55t58 23q32 0 56 -23t24 -55t-24 -55t-56 -23q-34 0 -58 23t-24 55zM317 676q0 32 24 55t58 23q32 0 56 -23t24 -55
t-24 -55t-56 -23q-34 0 -58 23t-24 55z" />
    <glyph glyph-name="Amacron" unicode="&#x100;" horiz-adv-x="661" 
d="M502 0l-37 86h-270l-37 -86h-145l295 672h45l294 -672h-145zM418 197l-88 223l-88 -223h176zM170 755v106h322v-106h-322z" />
    <glyph glyph-name="amacron" unicode="&#x101;" horiz-adv-x="545" 
d="M482 294v-294h-124v48q-58 -60 -151 -60q-78 0 -124.5 41t-46.5 107q0 67 50.5 105.5t136.5 38.5h124v22q0 42 -23.5 64.5t-68.5 22.5q-37 0 -67 -16t-64 -52l-70 83q86 102 216 102q98 0 155 -55.5t57 -156.5zM347 185v6h-106q-69 0 -69 -50q0 -25 19.5 -39.5
t51.5 -14.5q45 0 74.5 27.5t29.5 70.5zM119 622v106h302v-106h-302z" />
    <glyph glyph-name="Abreve" unicode="&#x102;" horiz-adv-x="661" 
d="M502 0l-37 86h-270l-37 -86h-145l295 672h45l294 -672h-145zM418 197l-88 223l-88 -223h176zM158 895v15h106v-15q0 -34 18 -54.5t49 -20.5t49 20t18 55v15h105v-15q0 -77 -48.5 -126.5t-123.5 -49.5q-77 0 -125 49q-48 50 -48 127z" />
    <glyph glyph-name="abreve" unicode="&#x103;" horiz-adv-x="545" 
d="M482 294v-294h-124v48q-58 -60 -151 -60q-78 0 -124.5 41t-46.5 107q0 67 50.5 105.5t136.5 38.5h124v22q0 42 -23.5 64.5t-68.5 22.5q-37 0 -67 -16t-64 -52l-70 83q86 102 216 102q98 0 155 -55.5t57 -156.5zM347 185v6h-106q-69 0 -69 -50q0 -25 19.5 -39.5
t51.5 -14.5q45 0 74.5 27.5t29.5 70.5zM97 745v28h106v-27q0 -35 18 -55t49 -20t49 20t18 55v27h105v-28q0 -77 -48 -126q-48 -48 -124 -48t-124.5 49t-48.5 125z" />
    <glyph glyph-name="Aogonek" unicode="&#x104;" horiz-adv-x="661" 
d="M502 0l-37 86h-270l-37 -86h-145l295 672h45l294 -672h-145zM418 197l-88 223l-88 -223h176zM440 -92q0 44 35.5 78t116.5 68l55 -54l-40 -25q-22 -13 -30 -21.5t-8 -19.5q0 -29 36 -29q11 0 42 6v-88q-45 -15 -86 -15q-56 0 -88.5 27.5t-32.5 72.5z" />
    <glyph glyph-name="aogonek" unicode="&#x105;" horiz-adv-x="545" 
d="M482 294v-294h-124v48q-58 -60 -151 -60q-78 0 -124.5 41t-46.5 107q0 67 50.5 105.5t136.5 38.5h124v22q0 42 -23.5 64.5t-68.5 22.5q-37 0 -67 -16t-64 -52l-70 83q86 102 216 102q98 0 155 -55.5t57 -156.5zM347 185v6h-106q-69 0 -69 -50q0 -25 19.5 -39.5
t51.5 -14.5q45 0 74.5 27.5t29.5 70.5zM275 -92q0 44 35.5 78t116.5 68l55 -54l-40 -25q-22 -13 -30 -21.5t-8 -19.5q0 -29 36 -29q10 0 42 6v-88q-45 -15 -86 -15q-56 0 -88.5 27.5t-32.5 72.5z" />
    <glyph glyph-name="Cacute" unicode="&#x106;" horiz-adv-x="720" 
d="M38 330q-2 142 103 243.5t249 98.5q94 0 170.5 -43.5t120.5 -120.5l-102 -72q-71 111 -189 111q-92 0 -152.5 -62t-60.5 -156t60.5 -155t152.5 -61q118 0 189 111l102 -72q-43 -77 -120 -120.5t-172 -43.5q-145 -3 -249.5 98.5t-101.5 243.5zM338 724l73 186h162v-24
l-137 -162h-98z" />
    <glyph glyph-name="cacute" unicode="&#x107;" horiz-adv-x="552" 
d="M39 248q0 108 77 183t188 75q146 0 215 -122l-94 -73q-50 72 -119 72q-57 0 -93.5 -38.5t-36.5 -96.5q0 -59 36.5 -97.5t93.5 -38.5q69 0 119 71l94 -72q-33 -58 -88.5 -90.5t-126.5 -32.5q-109 -2 -188 75.5t-77 184.5zM254 571l73 209h162v-24l-137 -185h-98z" />
    <glyph glyph-name="Ccircumflex" unicode="&#x108;" horiz-adv-x="720" 
d="M38 330q-2 142 103 243.5t249 98.5q94 0 170.5 -43.5t120.5 -120.5l-102 -72q-71 111 -189 111q-92 0 -152.5 -62t-60.5 -156t60.5 -155t152.5 -61q118 0 189 111l102 -72q-43 -77 -120 -120.5t-172 -43.5q-145 -3 -249.5 98.5t-101.5 243.5zM582 724h-103l-90 80
l-90 -80h-102l148 186h89z" />
    <glyph glyph-name="ccircumflex" unicode="&#x109;" horiz-adv-x="552" 
d="M39 248q0 108 77 183t188 75q146 0 215 -122l-94 -73q-50 72 -119 72q-57 0 -93.5 -38.5t-36.5 -96.5q0 -59 36.5 -97.5t93.5 -38.5q69 0 119 71l94 -72q-33 -58 -88.5 -90.5t-126.5 -32.5q-109 -2 -188 75.5t-77 184.5zM482 571h-99l-80 92l-80 -92h-99l135 209h89z" />
    <glyph glyph-name="Cdotaccent" unicode="&#x10a;" horiz-adv-x="720" 
d="M38 330q-2 142 103 243.5t249 98.5q94 0 170.5 -43.5t120.5 -120.5l-102 -72q-71 111 -189 111q-92 0 -152.5 -62t-60.5 -156t60.5 -155t152.5 -61q118 0 189 111l102 -72q-43 -77 -120 -120.5t-172 -43.5q-145 -3 -249.5 98.5t-101.5 243.5zM303 815q0 35 25 59.5
t61 24.5t61.5 -24.5t25.5 -59.5t-25.5 -59.5t-61.5 -24.5t-61 24.5t-25 59.5z" />
    <glyph glyph-name="cdotaccent" unicode="&#x10b;" horiz-adv-x="552" 
d="M39 248q0 108 77 183t188 75q146 0 215 -122l-94 -73q-50 72 -119 72q-57 0 -93.5 -38.5t-36.5 -96.5q0 -59 36.5 -97.5t93.5 -38.5q69 0 119 71l94 -72q-33 -58 -88.5 -90.5t-126.5 -32.5q-109 -2 -188 75.5t-77 184.5zM216 675q0 36 25 60t61 24t61.5 -24t25.5 -60
q0 -35 -25.5 -59t-61.5 -24t-61 24t-25 59z" />
    <glyph glyph-name="Ccaron" unicode="&#x10c;" horiz-adv-x="720" 
d="M38 330q-2 142 103 243.5t249 98.5q94 0 170.5 -43.5t120.5 -120.5l-102 -72q-71 111 -189 111q-92 0 -152.5 -62t-60.5 -156t60.5 -155t152.5 -61q118 0 189 111l102 -72q-43 -77 -120 -120.5t-172 -43.5q-145 -3 -249.5 98.5t-101.5 243.5zM479 910h103l-148 -186h-89
l-148 186h102l90 -80z" />
    <glyph glyph-name="ccaron" unicode="&#x10d;" horiz-adv-x="552" 
d="M39 248q0 108 77 183t188 75q146 0 215 -122l-94 -73q-50 72 -119 72q-57 0 -93.5 -38.5t-36.5 -96.5q0 -59 36.5 -97.5t93.5 -38.5q69 0 119 71l94 -72q-33 -58 -88.5 -90.5t-126.5 -32.5q-109 -2 -188 75.5t-77 184.5zM383 780h99l-134 -209h-89l-135 209h99l80 -92z
" />
    <glyph glyph-name="Dcaron" unicode="&#x10e;" horiz-adv-x="690" 
d="M76 0v660h216q158 2 260 -90.5t100 -237.5q2 -144 -101 -239t-259 -93h-216zM211 122h80q100 0 161 57.5t61 152.5q0 96 -60 151t-162 55h-80v-416zM369 910h103l-148 -186h-89l-148 186h102l90 -80z" />
    <glyph glyph-name="dcaron" unicode="&#x10f;" horiz-adv-x="794" 
d="M427 750h135v-750h-124v61q-51 -73 -159 -73q-104 0 -172 73.5t-68 185.5t68 185.5t172 73.5q94 0 148 -59v303zM429 247q0 64 -36 100.5t-89 36.5q-55 0 -91.5 -38t-36.5 -98q0 -61 36 -99t92 -38q54 0 89.5 36t35.5 100zM650 544l5 206h139l-49 -206h-95z" />
    <glyph glyph-name="Dcroat" unicode="&#x110;" horiz-adv-x="690" 
d="M652 332q2 -144 -101 -239t-259 -93h-216v257h-84v113h84v290h216q158 2 260 -90.5t100 -237.5zM513 332q0 96 -60 151t-162 55h-80v-168h108v-113h-108v-135h80q100 0 161 57.5t61 152.5z" />
    <glyph glyph-name="dslash" unicode="&#x111;" horiz-adv-x="636" 
d="M640 662v-109h-79v-553h-123v63q-56 -75 -163 -75q-102 0 -169.5 68.5t-67.5 175.5q0 105 68 175t168 70q97 0 153 -64v140h-204v109h204v88h134v-88h79zM429 231q0 62 -36 97t-90 35t-90.5 -36.5t-36.5 -94.5t36 -94t91 -36q54 0 90 34t36 95z" />
    <glyph glyph-name="Emacron" unicode="&#x112;" horiz-adv-x="573" 
d="M76 0v660h444v-122h-309v-134h227v-115h-227v-167h321v-122h-456zM134 755v106h322v-106h-322z" />
    <glyph glyph-name="emacron" unicode="&#x113;" horiz-adv-x="569" 
d="M522 202h-347q12 -47 48.5 -72.5t90.5 -25.5q73 0 138 50l56 -92q-89 -74 -198 -74q-114 -2 -193.5 74.5t-77.5 184.5q-2 107 75 184t184 75q102 0 167.5 -66t65.5 -164q0 -36 -9 -74zM175 297h225q-1 45 -31.5 72.5t-75.5 27.5q-43 0 -75 -27t-43 -73zM147 622v106h302
v-106h-302z" />
    <glyph glyph-name="Ebreve" unicode="&#x114;" horiz-adv-x="573" 
d="M76 0v660h444v-122h-309v-134h227v-115h-227v-167h321v-122h-456zM122 895v15h106v-15q0 -34 18 -54.5t49 -20.5t49 20t18 55v15h105v-15q0 -77 -48.5 -126.5t-123.5 -49.5q-77 0 -125 49q-48 50 -48 127z" />
    <glyph glyph-name="ebreve" unicode="&#x115;" horiz-adv-x="569" 
d="M522 202h-347q12 -47 48.5 -72.5t90.5 -25.5q73 0 138 50l56 -92q-89 -74 -198 -74q-114 -2 -193.5 74.5t-77.5 184.5q-2 107 75 184t184 75q102 0 167.5 -66t65.5 -164q0 -36 -9 -74zM175 297h225q-1 45 -31.5 72.5t-75.5 27.5q-43 0 -75 -27t-43 -73zM125 745v28h106
v-27q0 -35 18 -55t49 -20t49 20t18 55v27h105v-28q0 -77 -48 -126q-48 -48 -124 -48t-124.5 49t-48.5 125z" />
    <glyph glyph-name="Edotaccent" unicode="&#x116;" horiz-adv-x="573" 
d="M76 0v660h444v-122h-309v-134h227v-115h-227v-167h321v-122h-456zM208 815q0 35 25 59.5t61 24.5t61.5 -24.5t25.5 -59.5t-25.5 -59.5t-61.5 -24.5t-61 24.5t-25 59.5z" />
    <glyph glyph-name="edotaccent" unicode="&#x117;" horiz-adv-x="569" 
d="M522 202h-347q12 -47 48.5 -72.5t90.5 -25.5q73 0 138 50l56 -92q-89 -74 -198 -74q-114 -2 -193.5 74.5t-77.5 184.5q-2 107 75 184t184 75q102 0 167.5 -66t65.5 -164q0 -36 -9 -74zM175 297h225q-1 45 -31.5 72.5t-75.5 27.5q-43 0 -75 -27t-43 -73zM211 675
q0 36 25 60t61 24t61.5 -24t25.5 -60q0 -35 -25.5 -59t-61.5 -24t-61 24t-25 59z" />
    <glyph glyph-name="Eogonek" unicode="&#x118;" horiz-adv-x="573" 
d="M76 0v660h444v-122h-309v-134h227v-115h-227v-167h321v-122h-456zM325 -92q0 44 35.5 78t116.5 68l55 -54l-40 -25q-22 -13 -30 -21.5t-8 -19.5q0 -29 36 -29q10 0 42 6v-88q-45 -15 -86 -15q-56 0 -88.5 27.5t-32.5 72.5z" />
    <glyph glyph-name="eogonek" unicode="&#x119;" horiz-adv-x="569" 
d="M522 202h-347q12 -47 48.5 -72.5t90.5 -25.5q73 0 138 50l56 -92q-89 -74 -198 -74q-114 -2 -193.5 74.5t-77.5 184.5q-2 107 75 184t184 75q102 0 167.5 -66t65.5 -164q0 -36 -9 -74zM175 297h225q-1 45 -31.5 72.5t-75.5 27.5q-43 0 -75 -27t-43 -73zM270 -92
q0 37 21 65t94 89h122l-82 -83q-26 -26 -26 -45q0 -29 36 -29q7 0 42 6v-88q-42 -15 -86 -15q-55 0 -88 27t-33 73z" />
    <glyph glyph-name="Ecaron" unicode="&#x11a;" horiz-adv-x="573" 
d="M76 0v660h444v-122h-309v-134h227v-115h-227v-167h321v-122h-456zM384 910h103l-148 -186h-89l-148 186h102l90 -80z" />
    <glyph glyph-name="ecaron" unicode="&#x11b;" horiz-adv-x="569" 
d="M522 202h-347q12 -47 48.5 -72.5t90.5 -25.5q73 0 138 50l56 -92q-89 -74 -198 -74q-114 -2 -193.5 74.5t-77.5 184.5q-2 107 75 184t184 75q102 0 167.5 -66t65.5 -164q0 -36 -9 -74zM175 297h225q-1 45 -31.5 72.5t-75.5 27.5q-43 0 -75 -27t-43 -73zM378 780h99
l-134 -209h-89l-135 209h99l80 -92z" />
    <glyph glyph-name="Gcircumflex" unicode="&#x11c;" horiz-adv-x="747" 
d="M38 330q-3 142 101.5 243t251.5 99q177 0 278 -143l-96 -79q-70 97 -184 97q-94 0 -153 -61t-59 -156q0 -97 61 -159t159 -62q115 0 174 82v54h-182v117h317v-195q-46 -81 -129 -130q-82 -49 -186 -49q-145 -3 -250 98.5t-103 243.5zM584 724h-103l-90 80l-90 -80h-102
l148 186h89z" />
    <glyph glyph-name="gcircumflex" unicode="&#x11d;" horiz-adv-x="631" 
d="M440 495h124v-440q0 -119 -69 -183t-187 -64q-139 0 -243 92l71 94q86 -64 161 -64q61 0 96.5 30t35.5 87v27q-54 -59 -151 -59q-103 0 -170 69t-67 177q0 109 67 177t170 68q108 0 162 -73v62zM431 263q0 61 -35.5 94.5t-89.5 33.5q-56 0 -92 -35t-36 -94t36.5 -96
t91.5 -37q53 0 89 36t36 98zM492 571h-99l-80 92l-80 -92h-99l135 209h89z" />
    <glyph glyph-name="Gbreve" unicode="&#x11e;" horiz-adv-x="747" 
d="M38 330q-3 142 101.5 243t251.5 99q177 0 278 -143l-96 -79q-70 97 -184 97q-94 0 -153 -61t-59 -156q0 -97 61 -159t159 -62q115 0 174 82v54h-182v117h317v-195q-46 -81 -129 -130q-82 -49 -186 -49q-145 -3 -250 98.5t-103 243.5zM219 895v15h106v-15q0 -34 18 -54.5
t49 -20.5t49 20t18 55v15h105v-15q0 -77 -48.5 -126.5t-123.5 -49.5q-77 0 -125 49q-48 50 -48 127z" />
    <glyph glyph-name="gbreve" unicode="&#x11f;" horiz-adv-x="631" 
d="M440 495h124v-440q0 -119 -69 -183t-187 -64q-139 0 -243 92l71 94q86 -64 161 -64q61 0 96.5 30t35.5 87v27q-54 -59 -151 -59q-103 0 -170 69t-67 177q0 109 67 177t170 68q108 0 162 -73v62zM431 263q0 61 -35.5 94.5t-89.5 33.5q-56 0 -92 -35t-36 -94t36.5 -96
t91.5 -37q53 0 89 36t36 98zM140 745v28h106v-27q0 -35 18 -55t49 -20t49 20t18 55v27h105v-28q0 -77 -48 -126q-48 -48 -124 -48t-124.5 49t-48.5 125z" />
    <glyph glyph-name="Gdotaccent" unicode="&#x120;" horiz-adv-x="747" 
d="M38 330q-3 142 101.5 243t251.5 99q177 0 278 -143l-96 -79q-70 97 -184 97q-94 0 -153 -61t-59 -156q0 -97 61 -159t159 -62q115 0 174 82v54h-182v117h317v-195q-46 -81 -129 -130q-82 -49 -186 -49q-145 -3 -250 98.5t-103 243.5zM305 815q0 35 25 59.5t61 24.5
t61.5 -24.5t25.5 -59.5t-25.5 -59.5t-61.5 -24.5t-61 24.5t-25 59.5z" />
    <glyph glyph-name="gdotaccent" unicode="&#x121;" horiz-adv-x="631" 
d="M440 495h124v-440q0 -119 -69 -183t-187 -64q-139 0 -243 92l71 94q86 -64 161 -64q61 0 96.5 30t35.5 87v27q-54 -59 -151 -59q-103 0 -170 69t-67 177q0 109 67 177t170 68q108 0 162 -73v62zM431 263q0 61 -35.5 94.5t-89.5 33.5q-56 0 -92 -35t-36 -94t36.5 -96
t91.5 -37q53 0 89 36t36 98zM226 675q0 36 25 60t61 24t61.5 -24t25.5 -60q0 -35 -25.5 -59t-61.5 -24t-61 24t-25 59z" />
    <glyph glyph-name="uni0122" unicode="&#x122;" horiz-adv-x="747" 
d="M38 330q-3 142 101.5 243t251.5 99q177 0 278 -143l-96 -79q-70 97 -184 97q-94 0 -153 -61t-59 -156q0 -97 61 -159t159 -62q115 0 174 82v54h-182v117h317v-195q-46 -81 -129 -130q-82 -49 -186 -49q-145 -3 -250 98.5t-103 243.5zM327 -220l3 174h125l-26 -174h-102z
" />
    <glyph glyph-name="uni0123" unicode="&#x123;" horiz-adv-x="631" 
d="M440 495h124v-440q0 -119 -69 -183t-187 -64q-139 0 -243 92l71 94q86 -64 161 -64q61 0 96.5 30t35.5 87v27q-54 -59 -151 -59q-103 0 -170 69t-67 177q0 109 67 177t170 68q108 0 162 -73v62zM431 263q0 61 -35.5 94.5t-89.5 33.5q-56 0 -92 -35t-36 -94t36.5 -96
t91.5 -37q53 0 89 36t36 98zM246 571l34 209h98l-5 -209h-127z" />
    <glyph glyph-name="Hcircumflex" unicode="&#x124;" horiz-adv-x="713" 
d="M76 0v660h135v-253h292v253h135v-660h-135v285h-292v-285h-135zM549 724h-103l-90 80l-90 -80h-102l148 186h89z" />
    <glyph glyph-name="hcircumflex" unicode="&#x125;" horiz-adv-x="585" 
d="M522 307v-307h-134v288q0 43 -25.5 69.5t-66.5 26.5t-67.5 -26.5t-26.5 -69.5v-288h-135v750h135v-297q53 53 136 53q84 0 134 -54.5t50 -144.5zM394 814h-103l-90 80l-90 -80h-102l148 186h89z" />
    <glyph glyph-name="Hbar" unicode="&#x126;" horiz-adv-x="732" 
d="M85 0v436h-93v113h93v111h135v-111h292v111h135v-111h92v-113h-92v-436h-135v214h-292v-214h-135zM220 330h292v106h-292v-106z" />
    <glyph glyph-name="hbar" unicode="&#x127;" horiz-adv-x="593" 
d="M530 278v-278h-135v259q0 43 -25 69.5t-66 26.5q-42 0 -68.5 -26.5t-26.5 -69.5v-259h-134v551h-79v111h79v88h134v-88h191v-111h-191v-128q51 54 136 54q84 0 134.5 -54.5t50.5 -144.5z" />
    <glyph glyph-name="Itilde" unicode="&#x128;" horiz-adv-x="286" 
d="M76 0v660h135v-660h-135zM152 747l-30 16q-29 17 -44 17q-28 0 -28 -33v-12h-103q-2 30 -2 34q0 59 33 96.5t83 37.5q35 0 74 -21l30 -18q25 -17 45 -17q28 0 28 34v12h103q2 -30 2 -33q0 -60 -33 -97.5t-82 -37.5q-36 0 -76 22z" />
    <glyph glyph-name="itilde" unicode="&#x129;" horiz-adv-x="269" 
d="M67 0v495h135v-495h-135zM137 605l-19 15q-19 17 -32 17q-26 0 -26 -35v-12h-103q-3 15 -3 33q0 60 31.5 98t80.5 38q33 0 68 -26l19 -16q23 -16 32 -16q25 0 25 35v12h103q2 -26 2 -34q0 -61 -30.5 -98t-79.5 -37q-31 0 -68 26z" />
    <glyph glyph-name="Imacron" unicode="&#x12a;" horiz-adv-x="286" 
d="M76 0v660h135v-660h-135zM-17 755v106h322v-106h-322z" />
    <glyph glyph-name="imacron" unicode="&#x12b;" horiz-adv-x="269" 
d="M67 0v495h135v-495h-135zM7 622v107h256v-107h-256z" />
    <glyph glyph-name="Ibreve" unicode="&#x12c;" horiz-adv-x="286" 
d="M76 0v660h135v-660h-135zM-29 895v15h106v-15q0 -34 18 -54.5t49 -20.5t49 20t18 55v15h105v-15q0 -77 -48.5 -126.5t-123.5 -49.5q-77 0 -125 49q-48 50 -48 127z" />
    <glyph glyph-name="ibreve" unicode="&#x12d;" horiz-adv-x="269" 
d="M67 0v495h135v-495h-135zM-38 745v28h106v-27q0 -35 18 -55t49 -20t49 20t18 55v27h105v-28q0 -77 -48 -126q-48 -48 -124 -48t-124.5 49t-48.5 125z" />
    <glyph glyph-name="Iogonek" unicode="&#x12e;" horiz-adv-x="286" 
d="M76 0v660h135v-660h-135zM4 -92q0 44 35.5 78t116.5 68l55 -54l-40 -25q-22 -13 -30 -21.5t-8 -19.5q0 -29 36 -29q11 0 42 6v-88q-45 -15 -86 -15q-56 0 -88.5 27.5t-32.5 72.5z" />
    <glyph glyph-name="iogonek" unicode="&#x12f;" horiz-adv-x="269" 
d="M67 0v495h135v-495h-135zM48 675q0 36 25 60t61 24t61.5 -24t25.5 -60q0 -35 -25.5 -59t-61.5 -24t-61 24t-25 59zM-5 -92q0 44 35.5 78t116.5 68l55 -54l-40 -25q-22 -13 -30 -21.5t-8 -19.5q0 -29 36 -29q10 0 42 6v-88q-45 -15 -86 -15q-56 0 -88.5 27.5t-32.5 72.5z
" />
    <glyph glyph-name="Idot" unicode="&#x130;" horiz-adv-x="286" 
d="M76 0v660h135v-660h-135zM57 815q0 35 25 59.5t61 24.5t61.5 -24.5t25.5 -59.5t-25.5 -59.5t-61.5 -24.5t-61 24.5t-25 59.5z" />
    <glyph glyph-name="dotlessi" unicode="&#x131;" horiz-adv-x="269" 
d="M67 0v495h135v-495h-135z" />
    <glyph glyph-name="IJ" unicode="&#x132;" horiz-adv-x="675" 
d="M76 0v660h135v-660h-135zM303 0v115q48 -4 66 -4q49 0 72 18.5t23 60.5v470h135v-484q0 -93 -51.5 -140.5t-149.5 -47.5q-47 0 -95 12z" />
    <glyph glyph-name="ij" unicode="&#x133;" horiz-adv-x="538" 
d="M67 0v495h135v-495h-135zM48 675q0 36 25 60t61 24t61.5 -24t25.5 -60q0 -35 -25.5 -59t-61.5 -24t-61 24t-25 59zM206 -181v113q24 -3 41 -3q46 0 67.5 18t21.5 59v489h135v-501q0 -91 -50 -138.5t-140 -47.5q-39 0 -75 11zM317 675q0 36 25 60t61 24t61.5 -24t25.5 -60
q0 -35 -25.5 -59t-61.5 -24t-61 24t-25 59z" />
    <glyph glyph-name="Jcircumflex" unicode="&#x134;" horiz-adv-x="389" 
d="M17 0v115q48 -4 66 -4q49 0 72 18.5t23 60.5v470h135v-484q0 -93 -51.5 -140.5t-149.5 -47.5q-47 0 -95 12zM420 724h-103l-90 80l-90 -80h-102l148 186h89z" />
    <glyph glyph-name="jcircumflex" unicode="&#x135;" horiz-adv-x="269" 
d="M-63 -181v113q24 -3 41 -3q46 0 67.5 18t21.5 59v489h135v-501q0 -91 -50 -138.5t-140 -47.5q-39 0 -75 11zM314 571h-99l-80 92l-80 -92h-99l135 209h89z" />
    <glyph glyph-name="uni0136" unicode="&#x136;" horiz-adv-x="670" 
d="M657 0h-163l-283 344v-344h-135v660h135v-306l252 306h161l-253 -311zM255 -220l3 174h125l-26 -174h-102z" />
    <glyph glyph-name="uni0137" unicode="&#x137;" 
d="M555 0h-154l-199 274v-274h-135v750h135v-466l178 211h160l-186 -219zM219 -220l3 174h125l-26 -174h-102z" />
    <glyph glyph-name="Lacute" unicode="&#x139;" horiz-adv-x="524" 
d="M76 0v660h135v-538h289v-122h-424zM90 724l73 186h162v-24l-137 -162h-98z" />
    <glyph glyph-name="lacute" unicode="&#x13a;" horiz-adv-x="269" 
d="M67 0v750h135v-750h-135zM82 814l73 186h162v-24l-137 -162h-98z" />
    <glyph glyph-name="uni013B" unicode="&#x13b;" horiz-adv-x="524" 
d="M76 0v660h135v-538h289v-122h-424zM218 -220l3 174h125l-26 -174h-102z" />
    <glyph glyph-name="uni013C" unicode="&#x13c;" horiz-adv-x="269" 
d="M67 0v750h135v-750h-135zM70 -220l3 174h125l-26 -174h-102z" />
    <glyph glyph-name="Lcaron" unicode="&#x13d;" horiz-adv-x="524" 
d="M76 0v660h135v-538h289v-122h-424zM360 514l5 206h139l-49 -206h-95z" />
    <glyph glyph-name="lcaron" unicode="&#x13e;" horiz-adv-x="434" 
d="M67 0v750h135v-750h-135zM290 544l5 206h139l-49 -206h-95z" />
    <glyph glyph-name="Ldot" unicode="&#x13f;" horiz-adv-x="524" 
d="M76 0v660h135v-538h289v-122h-424zM316 378q0 39 27 66t67 27q39 0 65.5 -27t26.5 -66q0 -40 -26 -66.5t-66 -26.5t-67 26.5t-27 66.5z" />
    <glyph glyph-name="ldot" unicode="&#x140;" horiz-adv-x="406" 
d="M67 0v750h135v-750h-135zM244 320q0 39 27 66t67 27q39 0 65.5 -27t26.5 -66q0 -40 -26 -66.5t-66 -26.5t-67 26.5t-27 66.5z" />
    <glyph glyph-name="Lslash" unicode="&#x141;" horiz-adv-x="524" 
d="M211 122h289v-122h-424v205l-72 -33v124l72 33v331h135v-277l199 90v-125l-199 -90v-136z" />
    <glyph glyph-name="lslash" unicode="&#x142;" horiz-adv-x="331" 
d="M310 467v-125l-80 -37v-305h-135v253l-76 -35v125l76 35v372h135v-320z" />
    <glyph glyph-name="Nacute" unicode="&#x143;" horiz-adv-x="713" 
d="M503 660h135v-672h-45l-382 408v-396h-135v672h44l383 -406v394zM304 724l73 186h162v-24l-137 -162h-98z" />
    <glyph glyph-name="nacute" unicode="&#x144;" horiz-adv-x="585" 
d="M522 307v-307h-134v289q0 43 -25.5 69.5t-66.5 26.5t-67.5 -26.5t-26.5 -69.5v-289h-135v495h124v-45q56 56 145 56q86 0 136 -54t50 -145zM232 571l73 209h162v-24l-137 -185h-98z" />
    <glyph glyph-name="uni0145" unicode="&#x145;" horiz-adv-x="713" 
d="M503 660h135v-672h-45l-382 408v-396h-135v672h44l383 -406v394zM292 -220l3 174h125l-26 -174h-102z" />
    <glyph glyph-name="uni0146" unicode="&#x146;" horiz-adv-x="585" 
d="M522 307v-307h-134v289q0 43 -25.5 69.5t-66.5 26.5t-67.5 -26.5t-26.5 -69.5v-289h-135v495h124v-45q56 56 145 56q86 0 136 -54t50 -145zM232 -220l3 174h125l-26 -174h-102z" />
    <glyph glyph-name="Ncaron" unicode="&#x147;" horiz-adv-x="713" 
d="M503 660h135v-672h-45l-382 408v-396h-135v672h44l383 -406v394zM446 910h103l-148 -186h-89l-148 186h102l90 -80z" />
    <glyph glyph-name="ncaron" unicode="&#x148;" horiz-adv-x="585" 
d="M522 307v-307h-134v289q0 43 -25.5 69.5t-66.5 26.5t-67.5 -26.5t-26.5 -69.5v-289h-135v495h124v-45q56 56 145 56q86 0 136 -54t50 -145zM361 780h99l-134 -209h-89l-135 209h99l80 -92z" />
    <glyph glyph-name="Eng" unicode="&#x14a;" horiz-adv-x="713" 
d="M503 660h135v-666q0 -92 -50 -139t-141 -47q-38 0 -74 11v113q24 -3 41 -3q46 0 67.5 18t21.5 59v16l-292 350v-372h-135v672h44l383 -453v441z" />
    <glyph glyph-name="eng" unicode="&#x14b;" horiz-adv-x="585" 
d="M522 307v-313q0 -92 -49.5 -139t-140.5 -47q-38 0 -74 11v113q22 -3 40 -3q47 0 68.5 18t21.5 59v282q0 43 -25.5 69.5t-66.5 26.5t-67.5 -26.5t-26.5 -69.5v-288h-135v495h124v-45q56 56 145 56q86 0 136 -54t50 -145z" />
    <glyph glyph-name="Omacron" unicode="&#x14c;" horiz-adv-x="778" 
d="M38 330q-2 141 102.5 243t247.5 99q143 3 248.5 -99t103.5 -243q2 -141 -103.5 -243t-248.5 -99q-143 -3 -247.5 99t-102.5 243zM601 330q0 94 -60.5 155.5t-151.5 61.5q-92 0 -152 -61t-60 -156t60 -156t152 -61q91 0 151.5 61t60.5 156zM228 755v106h322v-106h-322z
" />
    <glyph glyph-name="omacron" unicode="&#x14d;" horiz-adv-x="608" 
d="M39 248q-2 106 77 183t188 75q109 2 188.5 -75t77.5 -183q2 -106 -78 -183.5t-189 -75.5q-109 -2 -187.5 75.5t-76.5 183.5zM432 247q0 58 -36.5 97t-91.5 39q-56 0 -92 -38.5t-36 -97.5q0 -58 36 -96t92 -38q55 0 91.5 38t36.5 96zM153 622v106h302v-106h-302z" />
    <glyph glyph-name="Obreve" unicode="&#x14e;" horiz-adv-x="778" 
d="M38 330q-2 141 102.5 243t247.5 99q143 3 248.5 -99t103.5 -243q2 -141 -103.5 -243t-248.5 -99q-143 -3 -247.5 99t-102.5 243zM601 330q0 94 -60.5 155.5t-151.5 61.5q-92 0 -152 -61t-60 -156t60 -156t152 -61q91 0 151.5 61t60.5 156zM216 895v15h106v-15
q0 -34 18 -54.5t49 -20.5t49 20t18 55v15h105v-15q0 -77 -48.5 -126.5t-123.5 -49.5q-77 0 -125 49q-48 50 -48 127z" />
    <glyph glyph-name="obreve" unicode="&#x14f;" horiz-adv-x="608" 
d="M39 248q-2 106 77 183t188 75q109 2 188.5 -75t77.5 -183q2 -106 -78 -183.5t-189 -75.5q-109 -2 -187.5 75.5t-76.5 183.5zM432 247q0 58 -36.5 97t-91.5 39q-56 0 -92 -38.5t-36 -97.5q0 -58 36 -96t92 -38q55 0 91.5 38t36.5 96zM131 745v28h106v-27q0 -35 18 -55
t49 -20t49 20t18 55v27h105v-28q0 -77 -48 -126q-48 -48 -124 -48t-124.5 49t-48.5 125z" />
    <glyph glyph-name="Ohungarumlaut" unicode="&#x150;" horiz-adv-x="778" 
d="M38 330q-2 141 102.5 243t247.5 99q143 3 248.5 -99t103.5 -243q2 -141 -103.5 -243t-248.5 -99q-143 -3 -247.5 99t-102.5 243zM601 330q0 94 -60.5 155.5t-151.5 61.5q-92 0 -152 -61t-60 -156t60 -156t152 -61q91 0 151.5 61t60.5 156zM213 724l73 186h140v-24
l-122 -162h-91zM450 724l73 186h140v-24l-122 -162h-91z" />
    <glyph glyph-name="ohungarumlaut" unicode="&#x151;" horiz-adv-x="608" 
d="M39 248q-2 106 77 183t188 75q109 2 188.5 -75t77.5 -183q2 -106 -78 -183.5t-189 -75.5q-109 -2 -187.5 75.5t-76.5 183.5zM432 247q0 58 -36.5 97t-91.5 39q-56 0 -92 -38.5t-36 -97.5q0 -58 36 -96t92 -38q55 0 91.5 38t36.5 96zM146 571l73 209h140v-24l-122 -185
h-91zM363 571l73 209h140v-24l-122 -185h-91z" />
    <glyph glyph-name="OE" unicode="&#x152;" horiz-adv-x="1098" 
d="M736 122h321v-122h-456v69q-81 -81 -214 -81q-145 -2 -248.5 98.5t-100.5 243.5q-2 143 101 243.5t249 98.5q132 0 213 -81v69h444v-122h-309v-134h228v-115h-228v-167zM601 329q0 94 -60.5 156t-152.5 62q-91 0 -151 -61.5t-60 -156.5q0 -94 59.5 -155t151.5 -61
t152.5 61t60.5 155z" />
    <glyph glyph-name="oe" unicode="&#x153;" horiz-adv-x="942" 
d="M895 201h-342q25 -97 135 -97q72 0 137 50l56 -92q-86 -74 -196 -74q-126 0 -198 91q-69 -91 -186 -91q-107 -2 -185.5 75.5t-76.5 183.5q-2 107 77 184t185 75q120 0 185 -90q71 90 188 90q99 0 164.5 -67t65.5 -163q0 -38 -9 -75zM552 296h221q-1 45 -31 73t-75 28
q-43 0 -74 -27t-41 -74zM425 247q0 59 -34 97.5t-88 38.5q-55 0 -91 -38.5t-36 -97.5t36 -97t91 -38q54 0 88 38.5t34 96.5z" />
    <glyph glyph-name="Racute" unicode="&#x154;" horiz-adv-x="640" 
d="M633 0h-152l-171 233h-99v-233h-135v660h248q104 0 171 -59t67 -154q0 -62 -30.5 -111.5t-85.5 -76.5zM211 541v-189h113q47 0 73.5 26t26.5 69q0 42 -27.5 68t-72.5 26h-113zM212 724l73 186h162v-24l-137 -162h-98z" />
    <glyph glyph-name="racute" unicode="&#x155;" horiz-adv-x="388" 
d="M371 495v-119h-36q-62 0 -97.5 -33t-35.5 -96v-247h-135v495h124v-59q52 65 136 65q25 0 44 -6zM142 571l73 209h162v-24l-137 -185h-98z" />
    <glyph glyph-name="uni0156" unicode="&#x156;" horiz-adv-x="640" 
d="M633 0h-152l-171 233h-99v-233h-135v660h248q104 0 171 -59t67 -154q0 -62 -30.5 -111.5t-85.5 -76.5zM211 541v-189h113q47 0 73.5 26t26.5 69q0 42 -27.5 68t-72.5 26h-113zM262 -220l3 174h125l-26 -174h-102z" />
    <glyph glyph-name="uni0157" unicode="&#x157;" horiz-adv-x="388" 
d="M371 495v-119h-36q-62 0 -97.5 -33t-35.5 -96v-247h-135v495h124v-59q52 65 136 65q25 0 44 -6zM70 -220l3 174h125l-26 -174h-102z" />
    <glyph glyph-name="Rcaron" unicode="&#x158;" horiz-adv-x="640" 
d="M633 0h-152l-171 233h-99v-233h-135v660h248q104 0 171 -59t67 -154q0 -62 -30.5 -111.5t-85.5 -76.5zM211 541v-189h113q47 0 73.5 26t26.5 69q0 42 -27.5 68t-72.5 26h-113zM353 910h103l-148 -186h-89l-148 186h102l90 -80z" />
    <glyph glyph-name="rcaron" unicode="&#x159;" horiz-adv-x="388" 
d="M371 495v-119h-36q-62 0 -97.5 -33t-35.5 -96v-247h-135v495h124v-59q52 65 136 65q25 0 44 -6zM271 780h99l-134 -209h-89l-135 209h99l80 -92z" />
    <glyph glyph-name="Sacute" unicode="&#x15a;" horiz-adv-x="559" 
d="M30 134l93 70q70 -96 162 -96q44 0 69 19.5t25 53.5q0 28 -17 43.5t-67 38.5l-71 32q-160 71 -160 190q0 84 62 135.5t157 51.5q74 0 130 -33.5t88 -91.5l-92 -71q-51 76 -126 76q-36 0 -59 -17t-23 -47q0 -25 16.5 -40.5t60.5 -35.5l75 -33q85 -38 124 -82.5t39 -110.5
q0 -89 -65 -143.5t-166 -54.5q-83 0 -149.5 39t-105.5 107zM228 724l73 186h162v-24l-137 -162h-98z" />
    <glyph glyph-name="sacute" unicode="&#x15b;" horiz-adv-x="455" 
d="M22 84l68 82q64 -67 139 -67q28 0 45.5 10.5t17.5 30.5q0 15 -10.5 23.5t-40.5 21.5l-53 22q-71 29 -103 63.5t-32 87.5q0 69 50 108.5t132 39.5q110 0 178 -74l-68 -83q-50 47 -111 47q-53 0 -53 -35q0 -14 11 -23t41 -21l48 -20q74 -30 106.5 -64t32.5 -87
q0 -74 -55 -116q-54 -42 -138 -42q-133 0 -205 96zM183 571l73 209h162v-24l-137 -185h-98z" />
    <glyph glyph-name="Scircumflex" unicode="&#x15c;" horiz-adv-x="559" 
d="M30 134l93 70q70 -96 162 -96q44 0 69 19.5t25 53.5q0 28 -17 43.5t-67 38.5l-71 32q-160 71 -160 190q0 84 62 135.5t157 51.5q74 0 130 -33.5t88 -91.5l-92 -71q-51 76 -126 76q-36 0 -59 -17t-23 -47q0 -25 16.5 -40.5t60.5 -35.5l75 -33q85 -38 124 -82.5t39 -110.5
q0 -89 -65 -143.5t-166 -54.5q-83 0 -149.5 39t-105.5 107zM473 724h-103l-90 80l-90 -80h-102l148 186h89z" />
    <glyph glyph-name="scircumflex" unicode="&#x15d;" horiz-adv-x="455" 
d="M22 84l68 82q64 -67 139 -67q28 0 45.5 10.5t17.5 30.5q0 15 -10.5 23.5t-40.5 21.5l-53 22q-71 29 -103 63.5t-32 87.5q0 69 50 108.5t132 39.5q110 0 178 -74l-68 -83q-50 47 -111 47q-53 0 -53 -35q0 -14 11 -23t41 -21l48 -20q74 -30 106.5 -64t32.5 -87
q0 -74 -55 -116q-54 -42 -138 -42q-133 0 -205 96zM411 571h-99l-80 92l-80 -92h-99l135 209h89z" />
    <glyph glyph-name="Scedilla" unicode="&#x15e;" horiz-adv-x="559" 
d="M30 134l93 70q70 -96 162 -96q44 0 69 19.5t25 53.5q0 28 -17 43.5t-67 38.5l-71 32q-160 71 -160 190q0 84 62 135.5t157 51.5q74 0 130 -33.5t88 -91.5l-92 -71q-51 76 -126 76q-36 0 -59 -17t-23 -47q0 -25 16.5 -40.5t60.5 -35.5l75 -33q85 -38 124 -82.5t39 -110.5
q0 -89 -65 -143.5t-166 -54.5q-83 0 -149.5 39t-105.5 107zM144 -182v89q34 -2 60 -2q62 0 62 57q0 28 -13 58l53 24q67 -37 67 -109q0 -56 -42 -91.5t-113 -35.5q-41 0 -74 10z" />
    <glyph glyph-name="scedilla" unicode="&#x15f;" horiz-adv-x="455" 
d="M22 84l68 82q64 -67 139 -67q28 0 45.5 10.5t17.5 30.5q0 15 -10.5 23.5t-40.5 21.5l-53 22q-71 29 -103 63.5t-32 87.5q0 69 50 108.5t132 39.5q110 0 178 -74l-68 -83q-50 47 -111 47q-53 0 -53 -35q0 -14 11 -23t41 -21l48 -20q74 -30 106.5 -64t32.5 -87
q0 -74 -55 -116q-54 -42 -138 -42q-133 0 -205 96zM99 -182v89q34 -2 60 -2q62 0 62 57q0 28 -13 58l53 24q67 -37 67 -109q0 -56 -42 -91.5t-113 -35.5q-41 0 -74 10z" />
    <glyph glyph-name="Scaron" unicode="&#x160;" horiz-adv-x="559" 
d="M30 134l93 70q70 -96 162 -96q44 0 69 19.5t25 53.5q0 28 -17 43.5t-67 38.5l-71 32q-160 71 -160 190q0 84 62 135.5t157 51.5q74 0 130 -33.5t88 -91.5l-92 -71q-51 76 -126 76q-36 0 -59 -17t-23 -47q0 -25 16.5 -40.5t60.5 -35.5l75 -33q85 -38 124 -82.5t39 -110.5
q0 -89 -65 -143.5t-166 -54.5q-83 0 -149.5 39t-105.5 107zM370 910h103l-148 -186h-89l-148 186h102l90 -80z" />
    <glyph glyph-name="scaron" unicode="&#x161;" horiz-adv-x="455" 
d="M22 84l68 82q64 -67 139 -67q28 0 45.5 10.5t17.5 30.5q0 15 -10.5 23.5t-40.5 21.5l-53 22q-71 29 -103 63.5t-32 87.5q0 69 50 108.5t132 39.5q110 0 178 -74l-68 -83q-50 47 -111 47q-53 0 -53 -35q0 -14 11 -23t41 -21l48 -20q74 -30 106.5 -64t32.5 -87
q0 -74 -55 -116q-54 -42 -138 -42q-133 0 -205 96zM312 780h99l-134 -209h-89l-135 209h99l80 -92z" />
    <glyph glyph-name="uni0162" unicode="&#x162;" horiz-adv-x="585" 
d="M225 0v538h-211v122h558v-122h-212v-538h-135zM152 -182v89q34 -2 60 -2q62 0 62 57q0 28 -13 58l53 24q67 -37 67 -109q0 -56 -42 -91.5t-113 -35.5q-41 0 -74 10z" />
    <glyph glyph-name="uni0163" unicode="&#x163;" horiz-adv-x="416" 
d="M385 113v-113q-48 -12 -93 -12q-95 0 -146.5 47t-51.5 139v207h-78v114h78v125h135v-125h140v-114h-140v-195q0 -42 21.5 -59.5t70.5 -17.5q17 0 64 4zM89 -182v89q34 -2 60 -2q62 0 62 57q0 28 -13 58l53 24q67 -37 67 -109q0 -56 -42 -91.5t-113 -35.5q-41 0 -74 10z
" />
    <glyph glyph-name="Tcaron" unicode="&#x164;" horiz-adv-x="585" 
d="M225 0v538h-211v122h558v-122h-212v-538h-135zM382 910h103l-148 -186h-89l-148 186h102l90 -80z" />
    <glyph glyph-name="tcaron" unicode="&#x165;" horiz-adv-x="416" 
d="M385 113v-113q-48 -12 -93 -12q-95 0 -146.5 47t-51.5 139v207h-78v114h78v125h135v-125h140v-114h-140v-195q0 -42 21.5 -59.5t70.5 -17.5q17 0 64 4zM315 544l5 206h139l-49 -206h-95z" />
    <glyph glyph-name="Tbar" unicode="&#x166;" horiz-adv-x="585" 
d="M225 0v227h-176v113h176v198h-211v122h558v-122h-212v-198h176v-113h-176v-227h-135z" />
    <glyph glyph-name="tbar" unicode="&#x167;" horiz-adv-x="431" 
d="M394 113v-113q-46 -12 -92 -12q-95 0 -146.5 47t-51.5 139v23h-79v108h79v82h-79v108h79v125h134v-125h141v-108h-141v-82h141v-108h-141v-11q0 -42 21.5 -59.5t70.5 -17.5q17 0 64 4z" />
    <glyph glyph-name="Utilde" unicode="&#x168;" horiz-adv-x="700" 
d="M70 273v387h135v-397q0 -71 40 -110.5t105 -39.5q66 0 105.5 39.5t39.5 110.5v397h135v-387q0 -129 -79 -207t-201 -78q-123 0 -201.5 78t-78.5 207zM358 747l-30 16q-29 17 -44 17q-28 0 -28 -33v-12h-103q-2 30 -2 34q0 59 33 96.5t83 37.5q35 0 74 -21l30 -18
q25 -17 45 -17q28 0 28 34v12h103q2 -30 2 -33q0 -60 -33 -97.5t-82 -37.5q-36 0 -76 22z" />
    <glyph glyph-name="utilde" unicode="&#x169;" horiz-adv-x="580" 
d="M62 218v277h135v-288q0 -43 26.5 -69t67.5 -26q40 0 66 26.5t26 68.5v288h135v-277q0 -102 -64.5 -166t-162.5 -64q-100 0 -164.5 63.5t-64.5 166.5zM298 601l-28 17q-26 19 -40 19q-28 0 -28 -35v-12h-103q-2 14 -2 33q0 61 32 98.5t81 37.5q38 0 72 -22l28 -18
q24 -18 40 -18q28 0 28 35v12h102q3 -18 3 -34q0 -60 -32.5 -97.5t-81.5 -37.5q-37 0 -71 22z" />
    <glyph glyph-name="Umacron" unicode="&#x16a;" horiz-adv-x="700" 
d="M70 273v387h135v-397q0 -71 40 -110.5t105 -39.5q66 0 105.5 39.5t39.5 110.5v397h135v-387q0 -129 -79 -207t-201 -78q-123 0 -201.5 78t-78.5 207zM189 755v106h322v-106h-322z" />
    <glyph glyph-name="umacron" unicode="&#x16b;" horiz-adv-x="580" 
d="M62 218v277h135v-288q0 -43 26.5 -69t67.5 -26q40 0 66 26.5t26 68.5v288h135v-277q0 -102 -64.5 -166t-162.5 -64q-100 0 -164.5 63.5t-64.5 166.5zM139 622v106h302v-106h-302z" />
    <glyph glyph-name="Ubreve" unicode="&#x16c;" horiz-adv-x="700" 
d="M70 273v387h135v-397q0 -71 40 -110.5t105 -39.5q66 0 105.5 39.5t39.5 110.5v397h135v-387q0 -129 -79 -207t-201 -78q-123 0 -201.5 78t-78.5 207zM177 895v15h106v-15q0 -34 18 -54.5t49 -20.5t49 20t18 55v15h105v-15q0 -77 -48.5 -126.5t-123.5 -49.5q-77 0 -125 49
q-48 50 -48 127z" />
    <glyph glyph-name="ubreve" unicode="&#x16d;" horiz-adv-x="580" 
d="M62 218v277h135v-288q0 -43 26.5 -69t67.5 -26q40 0 66 26.5t26 68.5v288h135v-277q0 -102 -64.5 -166t-162.5 -64q-100 0 -164.5 63.5t-64.5 166.5zM117 745v28h106v-27q0 -35 18 -55t49 -20t49 20t18 55v27h105v-28q0 -77 -48 -126q-48 -48 -124 -48t-124.5 49
t-48.5 125z" />
    <glyph glyph-name="Uring" unicode="&#x16e;" horiz-adv-x="700" 
d="M70 273v387h135v-397q0 -71 40 -110.5t105 -39.5q66 0 105.5 39.5t39.5 110.5v397h135v-387q0 -129 -79 -207t-201 -78q-123 0 -201.5 78t-78.5 207zM223 798q0 51 36 86t90 35t90.5 -35t36.5 -86q0 -52 -36.5 -87.5t-90.5 -35.5t-90 35.5t-36 87.5zM391 798q0 17 -12 29
t-29 12q-18 0 -29.5 -12t-11.5 -29q0 -18 11.5 -30t29.5 -12q17 0 29 12t12 30z" />
    <glyph glyph-name="uring" unicode="&#x16f;" horiz-adv-x="580" 
d="M62 218v277h135v-288q0 -43 26.5 -69t67.5 -26q40 0 66 26.5t26 68.5v288h135v-277q0 -102 -64.5 -166t-162.5 -64q-100 0 -164.5 63.5t-64.5 166.5zM163 671q0 52 36 87t90 35q55 0 91 -34.5t36 -87.5t-36 -88t-91 -35q-54 0 -90 35t-36 88zM331 671q0 18 -12 29.5
t-29 11.5t-29 -11.5t-12 -29.5t11.5 -29.5t29.5 -11.5q17 0 29 12t12 29z" />
    <glyph glyph-name="Uhungarumlaut" unicode="&#x170;" horiz-adv-x="700" 
d="M70 273v387h135v-397q0 -71 40 -110.5t105 -39.5q66 0 105.5 39.5t39.5 110.5v397h135v-387q0 -129 -79 -207t-201 -78q-123 0 -201.5 78t-78.5 207zM174 724l73 186h140v-24l-122 -162h-91zM411 724l73 186h140v-24l-122 -162h-91z" />
    <glyph glyph-name="uhungarumlaut" unicode="&#x171;" horiz-adv-x="580" 
d="M62 218v277h135v-288q0 -43 26.5 -69t67.5 -26q40 0 66 26.5t26 68.5v288h135v-277q0 -102 -64.5 -166t-162.5 -64q-100 0 -164.5 63.5t-64.5 166.5zM132 571l73 209h140v-24l-122 -185h-91zM349 571l73 209h140v-24l-122 -185h-91z" />
    <glyph glyph-name="Uogonek" unicode="&#x172;" horiz-adv-x="700" 
d="M70 273v387h135v-397q0 -71 40 -110.5t105 -39.5q66 0 105.5 39.5t39.5 110.5v397h135v-387q0 -129 -79 -207t-201 -78q-123 0 -201.5 78t-78.5 207zM309 -92q0 37 21 65t94 89h122l-82 -83q-26 -26 -26 -45q0 -29 36 -29q8 0 42 6v-88q-42 -15 -86 -15q-55 0 -88 27
t-33 73z" />
    <glyph glyph-name="uogonek" unicode="&#x173;" horiz-adv-x="580" 
d="M383 495h135v-277q0 -52 -13 -87q-15 -38 -38 -64q-28 -31 -77 -76q-33 -29 -33 -53q0 -34 38 -34q11 0 42 6v-86q-47 -16 -89 -16q-55 0 -86 24t-31 69q0 49 42 88q-93 5 -152 68t-59 161v277h135v-288q0 -43 26.5 -69t67.5 -26q40 0 66 26.5t26 68.5v288z" />
    <glyph glyph-name="Wcircumflex" unicode="&#x174;" horiz-adv-x="1035" 
d="M860 660h150l-264 -672h-44l-184 414l-185 -414h-44l-264 672h150l147 -390l173 402h45l173 -400zM710 724h-103l-90 80l-90 -80h-102l148 186h89z" />
    <glyph glyph-name="wcircumflex" unicode="&#x175;" horiz-adv-x="857" 
d="M703 495h142l-230 -507h-44l-142 288l-143 -288h-44l-230 507h142l117 -282l135 293h45l137 -287zM607 571h-99l-80 92l-80 -92h-99l135 209h89z" />
    <glyph glyph-name="Ycircumflex" unicode="&#x176;" horiz-adv-x="624" 
d="M607 660l-227 -400v-260h-135v259l-228 401h150l146 -262l145 262h149zM503 724h-103l-90 80l-90 -80h-102l148 186h89z" />
    <glyph glyph-name="ycircumflex" unicode="&#x177;" horiz-adv-x="559" 
d="M405 495h142l-237 -538q-34 -77 -81 -113t-116 -36q-42 0 -87 12v113q41 -4 58 -4q38 0 62 15t41 52l15 34l-190 465h143l121 -325zM458 571h-99l-80 92l-80 -92h-99l135 209h89z" />
    <glyph glyph-name="Ydieresis" unicode="&#x178;" horiz-adv-x="624" 
d="M607 660l-227 -400v-260h-135v259l-228 401h150l146 -262l145 262h149zM101 814q0 33 23.5 55.5t56.5 22.5q34 0 58 -22.5t24 -55.5q0 -31 -24 -54t-58 -23q-31 0 -55.5 23.5t-24.5 53.5zM359 813q0 33 24 56t57 23t57 -23t24 -56q0 -31 -24 -54t-57 -23q-31 0 -56 23.5
t-25 53.5z" />
    <glyph glyph-name="Zacute" unicode="&#x179;" horiz-adv-x="588" 
d="M228 122h332v-122h-540v36l331 502h-288v122h496v-36zM247 724l73 186h162v-24l-137 -162h-98z" />
    <glyph glyph-name="zacute" unicode="&#x17a;" horiz-adv-x="468" 
d="M215 114h237v-114h-435v36l237 345h-214v114h410v-36zM189 571l73 209h162v-24l-137 -185h-98z" />
    <glyph glyph-name="Zdotaccent" unicode="&#x17b;" horiz-adv-x="588" 
d="M228 122h332v-122h-540v36l331 502h-288v122h496v-36zM212 815q0 35 25 59.5t61 24.5t61.5 -24.5t25.5 -59.5t-25.5 -59.5t-61.5 -24.5t-61 24.5t-25 59.5z" />
    <glyph glyph-name="zdotaccent" unicode="&#x17c;" horiz-adv-x="468" 
d="M215 114h237v-114h-435v36l237 345h-214v114h410v-36zM151 675q0 36 25 60t61 24t61.5 -24t25.5 -60q0 -35 -25.5 -59t-61.5 -24t-61 24t-25 59z" />
    <glyph glyph-name="Zcaron" unicode="&#x17d;" horiz-adv-x="588" 
d="M228 122h332v-122h-540v36l331 502h-288v122h496v-36zM388 910h103l-148 -186h-89l-148 186h102l90 -80z" />
    <glyph glyph-name="zcaron" unicode="&#x17e;" horiz-adv-x="468" 
d="M215 114h237v-114h-435v36l237 345h-214v114h410v-36zM318 780h99l-134 -209h-89l-135 209h99l80 -92z" />
    <glyph glyph-name="uni018F" unicode="&#x18f;" horiz-adv-x="733" 
d="M694 331q2 -141 -99.5 -243t-241.5 -100q-132 -2 -224.5 85.5t-90.5 216.5q0 44 9 87h506q-13 78 -66 124.5t-131 46.5q-116 0 -191 -102l-91 79q49 70 121.5 108.5t160.5 38.5q143 2 241.5 -98.5t96.5 -242.5zM550 267h-381q1 -72 56 -113t131 -41q72 0 124.5 42
t69.5 112z" />
    <glyph glyph-name="florin" unicode="&#x192;" horiz-adv-x="451" 
d="M454 661v-112q-42 2 -46 2q-43 0 -64.5 -18t-25.5 -59l-8 -68h91v-115h-106l-29 -239q-22 -185 -196 -185q-43 0 -72 10l-1 113l45 -2q84 0 91 76l28 227h-87v115h101l10 80q23 186 196 186q38 0 73 -11z" />
    <glyph glyph-name="uni01D4" unicode="&#x1d4;" horiz-adv-x="580" 
d="M62 218v277h135v-288q0 -43 26.5 -69t67.5 -26q40 0 66 26.5t26 68.5v288h135v-277q0 -102 -64.5 -166t-162.5 -64q-100 0 -164.5 63.5t-64.5 166.5zM370 780h99l-134 -209h-89l-135 209h99l80 -92z" />
    <glyph glyph-name="AEacute" unicode="&#x1fc;" horiz-adv-x="852" 
d="M568 122h244v-122h-355l-15 86h-247l-45 -86h-145l338 660h457v-122h-301l22 -134h198v-115h-179zM380 466l-129 -269h172zM368 724l73 186h162v-24l-137 -162h-98z" />
    <glyph glyph-name="aeacute" unicode="&#x1fd;" horiz-adv-x="878" 
d="M830 197h-345q13 -45 49.5 -69t88.5 -24q72 0 137 50l56 -92q-86 -74 -196 -74q-137 0 -208 100q-60 -100 -195 -100q-85 0 -133 41t-48 108q0 69 50.5 109t136.5 40h124v16q0 42 -23.5 64.5t-67.5 22.5q-66 0 -132 -68l-69 83q85 102 215 102q111 0 163 -73
q68 73 175 73q100 0 166 -66t66 -164q0 -45 -10 -79zM481 286h228q1 50 -28.5 80.5t-77.5 30.5q-46 0 -79 -30t-43 -81zM347 184v13h-106q-69 0 -69 -52q0 -27 19 -42t51 -15q45 0 75 27t30 69zM383 571l73 209h162v-24l-137 -185h-98z" />
    <glyph glyph-name="Oslashacute" unicode="&#x1fe;" horiz-adv-x="778" 
d="M747 608l-75 -75q68 -88 68 -203q2 -141 -103.5 -243t-248.5 -99q-108 0 -200 59l-76 -76l-81 81l74 74q-67 91 -67 204q-2 141 102.5 243t247.5 99q111 0 201 -60l77 77zM171 330q0 -61 26 -111l305 304q-52 30 -113 30q-95 0 -156.5 -63t-61.5 -160zM607 330
q0 60 -27 111l-304 -305q50 -29 113 -29q93 0 155.5 63.5t62.5 159.5zM336 724l73 186h162v-24l-137 -162h-98z" />
    <glyph glyph-name="oslashacute" unicode="&#x1ff;" horiz-adv-x="612" 
d="M582 443l-53 -53q43 -64 43 -143q0 -108 -78.5 -183.5t-188.5 -75.5q-75 0 -140 38l-54 -55l-81 81l53 53q-42 61 -42 142q-1 107 77.5 184t187.5 75q75 0 140 -38l55 55zM167 247q0 -35 12 -62l191 192q-29 15 -64 15q-61 0 -100 -40.5t-39 -104.5zM445 247q0 35 -12 62
l-193 -192q29 -15 65 -15q61 0 100.5 40.5t39.5 104.5zM258 571l73 209h162v-24l-137 -185h-98z" />
    <glyph glyph-name="uni0218" unicode="&#x218;" horiz-adv-x="559" 
d="M30 134l93 70q70 -96 162 -96q44 0 69 19.5t25 53.5q0 28 -17 43.5t-67 38.5l-71 32q-160 71 -160 190q0 84 62 135.5t157 51.5q74 0 130 -33.5t88 -91.5l-92 -71q-51 76 -126 76q-36 0 -59 -17t-23 -47q0 -25 16.5 -40.5t60.5 -35.5l75 -33q85 -38 124 -82.5t39 -110.5
q0 -89 -65 -143.5t-166 -54.5q-83 0 -149.5 39t-105.5 107zM220 -220l3 174h125l-26 -174h-102z" />
    <glyph glyph-name="uni0219" unicode="&#x219;" horiz-adv-x="455" 
d="M22 84l68 82q64 -67 139 -67q28 0 45.5 10.5t17.5 30.5q0 15 -10.5 23.5t-40.5 21.5l-53 22q-71 29 -103 63.5t-32 87.5q0 69 50 108.5t132 39.5q110 0 178 -74l-68 -83q-50 47 -111 47q-53 0 -53 -35q0 -14 11 -23t41 -21l48 -20q74 -30 106.5 -64t32.5 -87
q0 -74 -55 -116q-54 -42 -138 -42q-133 0 -205 96zM175 -220l3 174h125l-26 -174h-102z" />
    <glyph glyph-name="uni021A" unicode="&#x21a;" horiz-adv-x="585" 
d="M225 0v538h-211v122h558v-122h-212v-538h-135zM228 -220l3 174h125l-26 -174h-102z" />
    <glyph glyph-name="uni021B" unicode="&#x21b;" horiz-adv-x="416" 
d="M385 113v-113q-48 -12 -93 -12q-95 0 -146.5 47t-51.5 139v207h-78v114h78v125h135v-125h140v-114h-140v-195q0 -42 21.5 -59.5t70.5 -17.5q17 0 64 4zM165 -220l3 174h125l-26 -174h-102z" />
    <glyph glyph-name="uni0237" unicode="&#x237;" horiz-adv-x="269" 
d="M-63 -181v113q24 -3 41 -3q46 0 67.5 18t21.5 59v489h135v-501q0 -91 -50 -138.5t-140 -47.5q-39 0 -75 11z" />
    <glyph glyph-name="uni0259" unicode="&#x259;" horiz-adv-x="569" 
d="M531 248q0 -109 -74.5 -184.5t-182.5 -75.5q-103 0 -169 66.5t-66 164.5q0 43 9 74h347q-25 97 -137 97q-77 0 -141 -49l-56 92q86 73 201 73q116 0 192.5 -74.5t76.5 -183.5zM396 198h-227q2 -45 33 -72.5t77 -27.5q43 0 74.5 26.5t42.5 73.5z" />
    <glyph glyph-name="circumflex" unicode="&#x2c6;" horiz-adv-x="600" 
d="M479 571h-99l-80 92l-80 -92h-99l135 209h89z" />
    <glyph glyph-name="caron" unicode="&#x2c7;" horiz-adv-x="600" 
d="M380 780h99l-134 -209h-89l-135 209h99l80 -92z" />
    <glyph glyph-name="breve" unicode="&#x2d8;" horiz-adv-x="600" 
d="M127 745v28h106v-27q0 -35 18 -55t49 -20t49 20t18 55v27h105v-28q0 -77 -48 -126q-48 -48 -124 -48t-124.5 49t-48.5 125z" />
    <glyph glyph-name="dotaccent" unicode="&#x2d9;" horiz-adv-x="600" 
d="M213 675q0 36 25 60t61 24t61.5 -24t25.5 -60q0 -35 -25.5 -59t-61.5 -24t-61 24t-25 59z" />
    <glyph glyph-name="ring" unicode="&#x2da;" horiz-adv-x="600" 
d="M173 671q0 52 36 87t90 35q55 0 91 -34.5t36 -87.5t-36 -88t-91 -35q-54 0 -90 35t-36 88zM341 671q0 18 -12 29.5t-29 11.5t-29 -11.5t-12 -29.5t11.5 -29.5t29.5 -11.5q17 0 29 12t12 29z" />
    <glyph glyph-name="ogonek" unicode="&#x2db;" horiz-adv-x="600" 
d="M196 -92q0 44 35.5 78t116.5 68l55 -54l-40 -25q-22 -13 -30 -21.5t-8 -19.5q0 -29 36 -29q11 0 42 6v-88q-45 -15 -86 -15q-56 0 -88.5 27.5t-32.5 72.5z" />
    <glyph glyph-name="tilde" unicode="&#x2dc;" horiz-adv-x="600" 
d="M308 601l-28 17q-26 19 -40 19q-28 0 -28 -35v-12h-103q-2 14 -2 33q0 61 32 98.5t81 37.5q38 0 72 -22l28 -18q24 -18 40 -18q28 0 28 35v12h102q3 -18 3 -34q0 -60 -32.5 -97.5t-81.5 -37.5q-37 0 -71 22z" />
    <glyph glyph-name="hungarumlaut" unicode="&#x2dd;" horiz-adv-x="600" 
d="M85 571l73 209h140v-24l-122 -185h-91zM302 571l73 209h140v-24l-122 -185h-91z" />
    <glyph glyph-name="gravecomb" unicode="&#x300;" horiz-adv-x="0" 
d="M-231 571l-137 185v24h162l73 -209h-98z" />
    <glyph glyph-name="acutecomb" unicode="&#x301;" horiz-adv-x="0" 
d="M-368 571l73 209h162v-24l-137 -185h-98z" />
    <glyph glyph-name="uni0302" unicode="&#x302;" horiz-adv-x="0" 
d="M-71 571h-99l-80 92l-80 -92h-99l135 209h89z" />
    <glyph glyph-name="tildecomb" unicode="&#x303;" horiz-adv-x="0" 
d="M-242 601l-28 17q-26 19 -40 19q-28 0 -28 -35v-12h-103q-2 14 -2 33q0 61 32 98.5t81 37.5q38 0 72 -22l28 -18q24 -18 40 -18q28 0 28 35v12h102q3 -18 3 -34q0 -60 -32.5 -97.5t-81.5 -37.5q-37 0 -71 22z" />
    <glyph glyph-name="uni0304" unicode="&#x304;" horiz-adv-x="0" 
d="M-401 622v106h302v-106h-302z" />
    <glyph glyph-name="uni0306" unicode="&#x306;" horiz-adv-x="0" 
d="M-423 745v28h106v-27q0 -35 18 -55t49 -20t49 20t18 55v27h105v-28q0 -77 -48 -126q-48 -48 -124 -48t-124.5 49t-48.5 125z" />
    <glyph glyph-name="uni0307" unicode="&#x307;" horiz-adv-x="0" 
d="M-337 675q0 36 25 60t61 24t61.5 -24t25.5 -60q0 -35 -25.5 -59t-61.5 -24t-61 24t-25 59z" />
    <glyph glyph-name="uni0308" unicode="&#x308;" horiz-adv-x="0" 
d="M-450 676q0 32 24 55t58 23q32 0 56 -23t24 -55t-24 -55t-56 -23q-34 0 -58 23t-24 55zM-212 676q0 32 24 55t58 23q32 0 56 -23t24 -55t-24 -55t-56 -23q-34 0 -58 23t-24 55z" />
    <glyph glyph-name="uni030A" unicode="&#x30a;" horiz-adv-x="0" 
d="M-377 671q0 52 36 87t90 35q55 0 91 -34.5t36 -87.5t-36 -88t-91 -35q-54 0 -90 35t-36 88zM-209 671q0 18 -12 29.5t-29 11.5t-29 -11.5t-12 -29.5t11.5 -29.5t29.5 -11.5q17 0 29 12t12 29z" />
    <glyph glyph-name="uni030B" unicode="&#x30b;" horiz-adv-x="0" 
d="M-465 571l73 209h140v-24l-122 -185h-91zM-248 571l73 209h140v-24l-122 -185h-91z" />
    <glyph glyph-name="uni030C" unicode="&#x30c;" horiz-adv-x="0" 
d="M-170 780h99l-134 -209h-89l-135 209h99l80 -92z" />
    <glyph glyph-name="uni0326" unicode="&#x326;" horiz-adv-x="0" 
d="M-314 -220l3 174h125l-26 -174h-102z" />
    <glyph glyph-name="uni0327" unicode="&#x327;" horiz-adv-x="0" 
d="M-365 -182v89q34 -2 60 -2q62 0 62 57q0 28 -13 58l53 24q67 -37 67 -109q0 -56 -42 -91.5t-113 -35.5q-41 0 -74 10z" />
    <glyph glyph-name="uni0328" unicode="&#x328;" horiz-adv-x="0" 
d="M-354 -92q0 44 35.5 78t116.5 68l55 -54l-40 -25q-22 -13 -30 -21.5t-8 -19.5q0 -29 36 -29q11 0 42 6v-88q-45 -15 -86 -15q-56 0 -88.5 27.5t-32.5 72.5z" />
    <glyph glyph-name="tonos" unicode="&#x384;" horiz-adv-x="500" 
d="M152 571l36 209h160v-24l-97 -185h-99z" />
    <glyph glyph-name="dieresistonos" unicode="&#x385;" horiz-adv-x="500" 
d="M161 571l40 209h154v-24l-101 -185h-93zM-20 675q0 32 24 55.5t55 23.5q33 0 56.5 -23t23.5 -56q0 -31 -23.5 -54t-56.5 -23q-30 0 -54.5 23.5t-24.5 53.5zM360 675q0 32 24.5 55.5t55.5 23.5q33 0 56.5 -23t23.5 -56q0 -31 -24 -54t-56 -23q-30 0 -55 23.5t-25 53.5z
" />
    <glyph glyph-name="Alphatonos" unicode="&#x386;" horiz-adv-x="661" 
d="M502 0l-37 86h-270l-37 -86h-145l295 672h45l294 -672h-145zM418 197l-88 223l-88 -223h176zM-8 454l5 206h139l-49 -206h-95z" />
    <glyph glyph-name="anoteleia" unicode="&#x387;" horiz-adv-x="280" 
d="M47 320q0 39 27 66t67 27q39 0 65.5 -27t26.5 -66q0 -40 -26 -66.5t-66 -26.5t-67 26.5t-27 66.5z" />
    <glyph glyph-name="Epsilontonos" unicode="&#x388;" horiz-adv-x="573" 
d="M76 0v660h444v-122h-309v-134h227v-115h-227v-167h321v-122h-456zM-144 454l5 206h139l-49 -206h-95z" />
    <glyph glyph-name="Etatonos" unicode="&#x389;" horiz-adv-x="713" 
d="M76 0v660h135v-253h292v253h135v-660h-135v285h-292v-285h-135zM-144 454l5 206h139l-49 -206h-95z" />
    <glyph glyph-name="Iotatonos" unicode="&#x38a;" horiz-adv-x="286" 
d="M76 0v660h135v-660h-135zM-144 454l5 206h139l-49 -206h-95z" />
    <glyph glyph-name="Omicrontonos" unicode="&#x38c;" horiz-adv-x="778" 
d="M38 330q-2 141 102.5 243t247.5 99q143 3 248.5 -99t103.5 -243q2 -141 -103.5 -243t-248.5 -99q-143 -3 -247.5 99t-102.5 243zM601 330q0 94 -60.5 155.5t-151.5 61.5q-92 0 -152 -61t-60 -156t60 -156t152 -61q91 0 151.5 61t60.5 156zM-106 454l5 206h139l-49 -206
h-95z" />
    <glyph glyph-name="Upsilontonos" unicode="&#x38e;" horiz-adv-x="624" 
d="M607 660l-227 -400v-260h-135v259l-228 401h150l146 -262l145 262h149zM-165 454l5 206h139l-49 -206h-95z" />
    <glyph glyph-name="Omegatonos" unicode="&#x38f;" horiz-adv-x="788" 
d="M628 122h107v-122h-284v122q155 74 155 218q0 90 -60.5 148.5t-152.5 58.5q-93 0 -152 -57.5t-59 -147.5q0 -146 155 -220v-122h-284v122h101q-111 90 -111 225q-3 134 101.5 230.5t248.5 94.5q143 2 249 -95t103 -230q0 -132 -117 -225zM-82 454l5 206h139l-49 -206h-95
z" />
    <glyph glyph-name="iotadieresistonos" unicode="&#x390;" horiz-adv-x="324" 
d="M65 166v329h134v-309q0 -41 15.5 -59t49.5 -18q16 0 49 4v-113q-37 -12 -82 -12q-166 0 -166 178zM58 571l40 209h154v-24l-101 -185h-93zM-123 675q0 32 24 55.5t55 23.5q33 0 56.5 -23t23.5 -56q0 -31 -23.5 -54t-56.5 -23q-30 0 -54.5 23.5t-24.5 53.5zM257 675
q0 32 24.5 55.5t55.5 23.5q33 0 56.5 -23t23.5 -56q0 -31 -24 -54t-56 -23q-30 0 -55 23.5t-25 53.5z" />
    <glyph glyph-name="Alpha" unicode="&#x391;" horiz-adv-x="661" 
d="M502 0l-37 86h-270l-37 -86h-145l295 672h45l294 -672h-145zM418 197l-88 223l-88 -223h176z" />
    <glyph glyph-name="Beta" unicode="&#x392;" horiz-adv-x="621" 
d="M587 194q0 -85 -61 -139.5t-156 -54.5h-294v660h234q92 0 150.5 -51.5t58.5 -132.5q0 -73 -49 -119q117 -43 117 -163zM299 544h-93v-151h93q41 0 63.5 20t22.5 56q0 35 -22.5 55t-63.5 20zM454 199q0 38 -25 60.5t-69 22.5h-154v-166h154q44 0 69 22t25 61z" />
    <glyph glyph-name="Gamma" unicode="&#x393;" horiz-adv-x="524" 
d="M76 0v660h424v-122h-289v-538h-135z" />
    <glyph glyph-name="uni0394" unicode="&#x394;" horiz-adv-x="661" 
d="M353 672l278 -636v-36h-602v36l279 636h45zM450 122l-119 279l-120 -279h239z" />
    <glyph glyph-name="Epsilon" unicode="&#x395;" horiz-adv-x="573" 
d="M76 0v660h444v-122h-309v-134h227v-115h-227v-167h321v-122h-456z" />
    <glyph glyph-name="Zeta" unicode="&#x396;" horiz-adv-x="588" 
d="M228 122h332v-122h-540v36l331 502h-288v122h496v-36z" />
    <glyph glyph-name="Eta" unicode="&#x397;" horiz-adv-x="713" 
d="M76 0v660h135v-253h292v253h135v-660h-135v285h-292v-285h-135z" />
    <glyph glyph-name="Theta" unicode="&#x398;" horiz-adv-x="778" 
d="M38 330q-2 141 102.5 243t247.5 99q143 3 248.5 -99t103.5 -243q2 -141 -103.5 -243t-248.5 -99q-143 -3 -247.5 99t-102.5 243zM609 329q0 98 -63 162t-158 64t-157 -63.5t-62 -162.5q0 -98 62.5 -161t156.5 -63t157.5 63.5t63.5 160.5zM248 273v111h282v-111h-282z" />
    <glyph glyph-name="Iota" unicode="&#x399;" horiz-adv-x="286" 
d="M76 0v660h135v-660h-135z" />
    <glyph glyph-name="Kappa" unicode="&#x39a;" horiz-adv-x="670" 
d="M657 0h-163l-283 344v-344h-135v660h135v-306l252 306h161l-253 -311z" />
    <glyph glyph-name="Lambda" unicode="&#x39b;" horiz-adv-x="661" 
d="M647 0h-145l-172 401l-172 -401h-145l295 672h45z" />
    <glyph glyph-name="Mu" unicode="&#x39c;" horiz-adv-x="798" 
d="M678 672h44v-672h-135v352l-166 -208h-44l-166 208v-352h-135v672h44l279 -357z" />
    <glyph glyph-name="Nu" unicode="&#x39d;" horiz-adv-x="713" 
d="M503 660h135v-672h-45l-382 408v-396h-135v672h44l383 -406v394z" />
    <glyph glyph-name="Xi" unicode="&#x39e;" horiz-adv-x="630" 
d="M41 538v122h549v-122h-549zM111 266v122h409v-122h-409zM41 0v122h549v-122h-549z" />
    <glyph glyph-name="Omicron" unicode="&#x39f;" horiz-adv-x="778" 
d="M38 330q-2 141 102.5 243t247.5 99q143 3 248.5 -99t103.5 -243q2 -141 -103.5 -243t-248.5 -99q-143 -3 -247.5 99t-102.5 243zM601 330q0 94 -60.5 155.5t-151.5 61.5q-92 0 -152 -61t-60 -156t60 -156t152 -61q91 0 151.5 61t60.5 156z" />
    <glyph glyph-name="Pi" unicode="&#x3a0;" horiz-adv-x="691" 
d="M76 0v660h539v-660h-135v538h-269v-538h-135z" />
    <glyph glyph-name="Rho" unicode="&#x3a1;" horiz-adv-x="594" 
d="M76 0v660h248q104 0 171 -59t67 -154q0 -94 -67 -154t-171 -60h-113v-233h-135zM211 351h113q47 0 73.5 26.5t26.5 69.5q0 42 -27.5 68t-72.5 26h-113v-190z" />
    <glyph glyph-name="Sigma" unicode="&#x3a3;" horiz-adv-x="570" 
d="M239 122h290v-122h-494v36l210 302l-210 286v36h482v-122h-273l141 -190v-19z" />
    <glyph glyph-name="Tau" unicode="&#x3a4;" horiz-adv-x="585" 
d="M225 0v538h-211v122h558v-122h-212v-538h-135z" />
    <glyph glyph-name="Upsilon" unicode="&#x3a5;" horiz-adv-x="624" 
d="M607 660l-227 -400v-260h-135v259l-228 401h150l146 -262l145 262h149z" />
    <glyph glyph-name="Phi" unicode="&#x3a6;" horiz-adv-x="838" 
d="M486 16v-59h-135v60q-135 4 -224.5 93.5t-88.5 221.5q0 130 89 217t224 93v60h135v-59q135 -4 224.5 -92t88.5 -219q0 -133 -88.5 -221.5t-224.5 -94.5zM351 133v394q-77 -5 -128.5 -61t-51.5 -138t50 -137q52 -54 130 -58zM667 328q0 82 -51.5 138t-129.5 61v-394
q78 4 130 58q51 54 51 137z" />
    <glyph glyph-name="Chi" unicode="&#x3a7;" horiz-adv-x="614" 
d="M600 0h-153l-140 219l-140 -219h-154l219 336l-206 324h154l127 -208l126 208h153l-203 -324z" />
    <glyph glyph-name="Psi" unicode="&#x3a8;" horiz-adv-x="807" 
d="M336 0v145q-129 7 -201 81.5t-72 202.5v231h135v-223q0 -76 37.5 -121.5t100.5 -47.5v392h135v-392q63 2 101 48t38 121v223h135v-231q0 -128 -72.5 -202.5t-201.5 -81.5v-145h-135z" />
    <glyph glyph-name="uni03A9" unicode="&#x3a9;" horiz-adv-x="788" 
d="M628 122h107v-122h-284v122q155 74 155 218q0 90 -60.5 148.5t-152.5 58.5q-93 0 -152 -57.5t-59 -147.5q0 -146 155 -220v-122h-284v122h101q-111 90 -111 225q-3 134 101.5 230.5t248.5 94.5q143 2 249 -95t103 -230q0 -132 -117 -225z" />
    <glyph glyph-name="Iotadieresis" unicode="&#x3aa;" horiz-adv-x="286" 
d="M76 0v660h135v-660h-135zM-66 814q0 33 23.5 55.5t56.5 22.5q34 0 58 -22.5t24 -55.5q0 -31 -24 -54t-58 -23q-31 0 -55.5 23.5t-24.5 53.5zM192 813q0 33 24 56t57 23t57 -23t24 -56q0 -31 -24 -54t-57 -23q-31 0 -56 23.5t-25 53.5z" />
    <glyph glyph-name="Upsilondieresis" unicode="&#x3ab;" horiz-adv-x="624" 
d="M607 660l-227 -400v-260h-135v259l-228 401h150l146 -262l145 262h149zM102 814q0 33 23.5 55.5t56.5 22.5q34 0 58 -22.5t24 -55.5q0 -31 -24 -54t-58 -23q-31 0 -55.5 23.5t-24.5 53.5zM360 813q0 33 24 56t57 23t57 -23t24 -56q0 -31 -24 -54t-57 -23q-31 0 -56 23.5
t-25 53.5z" />
    <glyph glyph-name="alphatonos" unicode="&#x3ac;" horiz-adv-x="644" 
d="M598 111l29 1v-112q-31 -10 -74 -10q-91 0 -118 77q-51 -79 -161 -79q-102 0 -168.5 73.5t-66.5 185.5q0 111 66.5 185t168.5 74q112 0 162 -80q1 28 4 69h124q-10 -143 -10 -232v-91q0 -61 44 -61zM421 247q0 63 -35 100t-88 37q-52 0 -87 -38t-35 -98q0 -61 34.5 -99
t87.5 -38t88 36t35 100zM228 571l36 209h160v-24l-97 -185h-99z" />
    <glyph glyph-name="epsilontonos" unicode="&#x3ad;" horiz-adv-x="513" 
d="M404 161l76 -80q-74 -93 -220 -93q-104 0 -161.5 38.5t-57.5 107.5q0 81 87 117q-67 38 -67 109q0 68 55 107t151 39q140 0 210 -85l-76 -81q-45 50 -132 50q-76 0 -76 -47q0 -44 60 -44h90v-100h-95q-75 0 -75 -45q0 -26 20.5 -38t66.5 -12q93 0 144 57zM197 571l36 209
h160v-24l-97 -185h-99z" />
    <glyph glyph-name="etatonos" unicode="&#x3ae;" horiz-adv-x="608" 
d="M545 307v-487h-134v468q0 43 -25.5 69.5t-66.5 26.5t-68 -27t-27 -69v-288h-134v323q0 61 -45 61l-28 -1v112q31 10 74 10q80 0 110 -57q60 58 154 58q86 0 138 -54t52 -145zM250 571l36 209h160v-24l-97 -185h-99z" />
    <glyph glyph-name="iotatonos" unicode="&#x3af;" horiz-adv-x="324" 
d="M65 166v329h134v-309q0 -41 15.5 -59t49.5 -18q16 0 49 4v-113q-37 -12 -82 -12q-166 0 -166 178zM64 571l36 209h160v-24l-97 -185h-99z" />
    <glyph glyph-name="upsilondieresistonos" unicode="&#x3b0;" horiz-adv-x="588" 
d="M62 220v275h135v-287q0 -43 27 -70.5t70 -27.5t70 27t27 71v287h135v-275q0 -104 -64 -168t-168 -64t-168 64t-64 168zM217 571l40 209h154v-24l-101 -185h-93zM36 675q0 32 24 55.5t55 23.5q33 0 56.5 -23t23.5 -56q0 -31 -23.5 -54t-56.5 -23q-30 0 -54.5 23.5
t-24.5 53.5zM416 675q0 32 24.5 55.5t55.5 23.5q33 0 56.5 -23t23.5 -56q0 -31 -24 -54t-56 -23q-30 0 -55 23.5t-25 53.5z" />
    <glyph glyph-name="alpha" unicode="&#x3b1;" horiz-adv-x="644" 
d="M598 111l29 1v-112q-31 -10 -74 -10q-91 0 -118 77q-51 -79 -161 -79q-102 0 -168.5 73.5t-66.5 185.5q0 111 66.5 185t168.5 74q112 0 162 -80q1 28 4 69h124q-10 -143 -10 -232v-91q0 -61 44 -61zM421 247q0 63 -35 100t-88 37q-52 0 -87 -38t-35 -98q0 -61 34.5 -99
t87.5 -38t88 36t35 100z" />
    <glyph glyph-name="beta" unicode="&#x3b2;" horiz-adv-x="621" 
d="M582 224q0 -101 -68.5 -168.5t-171.5 -67.5q-79 0 -140 46v-214h-135v711q0 101 67.5 166t171.5 65q97 0 160.5 -54.5t63.5 -137.5q0 -97 -75 -147q60 -25 93.5 -77t33.5 -122zM446 228q0 55 -33 87.5t-89 32.5h-60v114h37q40 0 64 24t24 65q0 39 -24 63.5t-64 24.5
q-45 0 -72 -30t-27 -80v-370q56 -47 122 -47q55 0 88.5 31.5t33.5 84.5z" />
    <glyph glyph-name="gamma" unicode="&#x3b3;" horiz-adv-x="561" 
d="M549 495l-201 -504v-171h-134v168l-202 507h142l126 -352l126 352h143z" />
    <glyph glyph-name="delta" unicode="&#x3b4;" horiz-adv-x="604" 
d="M566 247q2 -107 -76.5 -184t-187.5 -75q-112 0 -187.5 72.5t-75.5 180.5q0 98 63 167.5t162 81.5l-214 224v36h492v-122h-241l155 -160q110 -113 110 -221zM428 243q0 58 -36 96t-91 38t-90 -37.5t-35 -95.5t35 -94.5t91 -37.5q56 1 91 37.5t35 93.5z" />
    <glyph glyph-name="epsilon" unicode="&#x3b5;" horiz-adv-x="513" 
d="M404 161l76 -80q-74 -93 -220 -93q-104 0 -161.5 38.5t-57.5 107.5q0 81 87 117q-67 38 -67 109q0 68 55 107t151 39q140 0 210 -85l-76 -81q-45 50 -132 50q-76 0 -76 -47q0 -44 60 -44h90v-100h-95q-75 0 -75 -45q0 -26 20.5 -38t66.5 -12q93 0 144 57z" />
    <glyph glyph-name="zeta" unicode="&#x3b6;" horiz-adv-x="474" 
d="M483 714l-223 -327q-52 -76 -68 -105q-18 -33 -18 -63q0 -40 25.5 -63.5t85.5 -39.5l49 -14q131 -36 131 -160q0 -63 -30 -122h-132q26 50 26 89q0 36 -18.5 56.5t-60.5 32.5l-49 15q-162 48 -162 189q0 48 25 99q24 49 94 152l120 175h-225v122h430v-36z" />
    <glyph glyph-name="eta" unicode="&#x3b7;" horiz-adv-x="608" 
d="M545 307v-487h-134v468q0 43 -25.5 69.5t-66.5 26.5t-68 -27t-27 -69v-288h-134v323q0 61 -45 61l-28 -1v112q31 10 74 10q80 0 110 -57q60 58 154 58q86 0 138 -54t52 -145z" />
    <glyph glyph-name="theta" unicode="&#x3b8;" horiz-adv-x="641" 
d="M594 378q0 -186 -72 -288t-202 -102q-129 0 -201 102t-72 288q0 184 71.5 284t201.5 100t202 -100t72 -284zM187 432h267q-12 206 -134 206q-121 0 -133 -206zM454 316h-267q13 -204 133 -204q121 0 134 204z" />
    <glyph glyph-name="iota" unicode="&#x3b9;" horiz-adv-x="324" 
d="M65 166v329h134v-309q0 -41 15.5 -59t49.5 -18q16 0 49 4v-113q-37 -12 -82 -12q-166 0 -166 178z" />
    <glyph glyph-name="kappa" unicode="&#x3ba;" horiz-adv-x="561" 
d="M556 0h-153l-201 259v-259h-135v495h135v-228l187 228h160l-192 -233z" />
    <glyph glyph-name="lambda" unicode="&#x3bb;" horiz-adv-x="572" 
d="M542 113h24v-113q-30 -10 -60 -10q-48 0 -77.5 25t-49.5 82l-89 250l-151 -347h-142l227 502l-21 64q-15 41 -34.5 58t-55.5 17q-19 0 -52 -3v113q35 11 75 11q70 0 114 -37t72 -114l170 -457q15 -41 50 -41z" />
    <glyph glyph-name="uni03BC" unicode="&#x3bc;" horiz-adv-x="613" 
d="M568 111l27 1v-112q-31 -10 -72 -10q-75 0 -106 52q-44 -54 -112 -54q-63 0 -103 45v-213h-135v675h135v-285q0 -44 25.5 -72t66.5 -28q42 0 68 28t26 72v285h134v-323q0 -61 46 -61z" />
    <glyph glyph-name="nu" unicode="&#x3bd;" horiz-adv-x="559" 
d="M404 495h143l-245 -507h-45l-245 507h142l125 -280z" />
    <glyph glyph-name="xi" unicode="&#x3be;" horiz-adv-x="487" 
d="M464 -58q0 -61 -29 -122h-131q24 48 24 89q0 38 -17 57.5t-58 28.5l-34 7q-82 17 -128 70t-46 130q0 60 27.5 108t77.5 75q-81 41 -81 130q0 68 58 113h-76v122h411v-122h-157q-47 0 -74.5 -27t-27.5 -67t26.5 -67t70.5 -27h118v-115h-123q-52 0 -82.5 -27.5t-30.5 -75.5
q0 -45 28 -71.5t93 -41.5l32 -7q129 -30 129 -160z" />
    <glyph glyph-name="omicron" unicode="&#x3bf;" horiz-adv-x="608" 
d="M39 248q-2 106 77 183t188 75q109 2 188.5 -75t77.5 -183q2 -106 -78 -183.5t-189 -75.5q-109 -2 -187.5 75.5t-76.5 183.5zM432 247q0 58 -36.5 97t-91.5 39q-56 0 -92 -38.5t-36 -97.5q0 -58 36 -96t92 -38q55 0 91.5 38t36.5 96z" />
    <glyph glyph-name="pi" unicode="&#x3c0;" horiz-adv-x="593" 
d="M79 0v373h-70v122h574v-122h-69v-373h-134v373h-167v-373h-134z" />
    <glyph glyph-name="rho" unicode="&#x3c1;" horiz-adv-x="617" 
d="M579 247q0 -112 -67 -185.5t-170 -73.5q-90 0 -145 58v-226h-135v423q0 119 70.5 191t186.5 72q115 0 187.5 -72t72.5 -187zM441 247q0 61 -35 99t-90 38t-88.5 -37.5t-33.5 -99.5q0 -61 34 -98.5t89 -37.5t89.5 38.5t34.5 97.5z" />
    <glyph glyph-name="uni03C2" unicode="&#x3c2;" horiz-adv-x="531" 
d="M342 -91q0 36 -16.5 55.5t-55.5 32.5l-43 13q-188 63 -188 237q0 114 71.5 186.5t184.5 72.5q149 0 217 -124l-94 -72q-52 73 -120 73q-53 0 -87.5 -36.5t-34.5 -92.5q0 -54 29.5 -85t96.5 -52l53 -17q123 -38 123 -158q0 -59 -28 -122h-132q24 47 24 89z" />
    <glyph glyph-name="sigma" unicode="&#x3c3;" horiz-adv-x="646" 
d="M627 495v-122h-120q55 -58 55 -138q0 -105 -75.5 -176t-187.5 -71q-109 -2 -185.5 74t-74.5 183q0 111 74.5 180.5t193.5 69.5h320zM424 247q0 58 -34.5 95t-89.5 37t-89.5 -37t-34.5 -95q0 -59 35 -97t89 -38t89 38t35 97z" />
    <glyph glyph-name="tau" unicode="&#x3c4;" horiz-adv-x="498" 
d="M466 373h-171v-187q0 -41 21.5 -59t70.5 -18q17 0 64 4v-113q-47 -12 -93 -12q-96 0 -146.5 48t-50.5 138v199h-148v122h453v-122z" />
    <glyph glyph-name="upsilon" unicode="&#x3c5;" horiz-adv-x="588" 
d="M62 220v275h135v-287q0 -43 27 -70.5t70 -27.5t70 27t27 71v287h135v-275q0 -104 -64 -168t-168 -64t-168 64t-64 168z" />
    <glyph glyph-name="phi" unicode="&#x3c6;" horiz-adv-x="774" 
d="M454 -11v-169h-134v168q-124 6 -202.5 77t-78.5 183t78 182t203 76v154h134v-154q125 -6 203 -76t78 -182q0 -111 -79 -182.5t-202 -76.5zM323 103v288q-70 -4 -111.5 -42t-41.5 -102t41 -102t112 -42zM604 247q0 64 -41.5 102t-112.5 42v-288q71 4 112.5 42t41.5 102z
" />
    <glyph glyph-name="chi" unicode="&#x3c7;" horiz-adv-x="536" 
d="M540 -67v-113q-29 -10 -71 -10q-44 0 -74 22t-56 73l-71 142l-111 -227h-149l185 350l-86 172q-22 41 -62 41q-29 0 -36 -1v113q27 9 72 9q46 0 75.5 -22t54.5 -73l60 -123l103 209h149l-178 -333l97 -189q12 -23 25.5 -32t36.5 -9q29 0 36 1z" />
    <glyph glyph-name="psi" unicode="&#x3c8;" horiz-adv-x="794" 
d="M330 -180v168q-119 0 -193.5 72t-74.5 188v247h135v-236q0 -64 38 -107q37 -42 95 -42v550h134v-550q57 0 95.5 42t38.5 107v236h134v-247q0 -116 -74.5 -188t-193.5 -72v-168h-134z" />
    <glyph glyph-name="omega" unicode="&#x3c9;" horiz-adv-x="800" 
d="M761 241q0 -114 -59 -183.5t-158 -69.5q-93 0 -144 66q-49 -66 -144 -66q-99 0 -158 69.5t-59 183.5q0 100 46.5 168.5t130.5 91.5l45 -115q-87 -44 -87 -148q0 -59 24 -93.5t65 -34.5q34 0 53.5 24t19.5 67v141h127v-141q0 -43 19.5 -67t54.5 -24q41 0 65 34.5t24 93.5
q0 104 -86 148l44 115q84 -23 130.5 -91.5t46.5 -168.5z" />
    <glyph glyph-name="iotadieresis" unicode="&#x3ca;" horiz-adv-x="324" 
d="M65 166v329h134v-309q0 -41 15.5 -59t49.5 -18q16 0 49 4v-113q-37 -12 -82 -12q-166 0 -166 178zM-59 675q0 33 23.5 56t56.5 23q34 0 58 -23t24 -56q0 -31 -24 -54t-58 -23q-31 0 -55.5 23.5t-24.5 53.5zM161 675q0 33 24 56t57 23t57 -23t24 -56q0 -31 -24 -54
t-57 -23q-31 0 -56 23.5t-25 53.5z" />
    <glyph glyph-name="upsilondieresis" unicode="&#x3cb;" horiz-adv-x="588" 
d="M62 220v275h135v-287q0 -43 27 -70.5t70 -27.5t70 27t27 71v287h135v-275q0 -104 -64 -168t-168 -64t-168 64t-64 168zM91 676q0 32 24 55t58 23q32 0 56 -23t24 -55t-24 -55t-56 -23q-34 0 -58 23t-24 55zM329 676q0 32 24 55t58 23q32 0 56 -23t24 -55t-24 -55t-56 -23
q-34 0 -58 23t-24 55z" />
    <glyph glyph-name="omicrontonos" unicode="&#x3cc;" horiz-adv-x="608" 
d="M39 248q-2 106 77 183t188 75q109 2 188.5 -75t77.5 -183q2 -106 -78 -183.5t-189 -75.5q-109 -2 -187.5 75.5t-76.5 183.5zM432 247q0 58 -36.5 97t-91.5 39q-56 0 -92 -38.5t-36 -97.5q0 -58 36 -96t92 -38q55 0 91.5 38t36.5 96zM236 571l36 209h160v-24l-97 -185h-99
z" />
    <glyph glyph-name="upsilontonos" unicode="&#x3cd;" horiz-adv-x="588" 
d="M62 220v275h135v-287q0 -43 27 -70.5t70 -27.5t70 27t27 71v287h135v-275q0 -104 -64 -168t-168 -64t-168 64t-64 168zM223 571l36 209h160v-24l-97 -185h-99z" />
    <glyph glyph-name="omegatonos" unicode="&#x3ce;" horiz-adv-x="800" 
d="M761 241q0 -114 -59 -183.5t-158 -69.5q-93 0 -144 66q-49 -66 -144 -66q-99 0 -158 69.5t-59 183.5q0 100 46.5 168.5t130.5 91.5l45 -115q-87 -44 -87 -148q0 -59 24 -93.5t65 -34.5q34 0 53.5 24t19.5 67v141h127v-141q0 -43 19.5 -67t54.5 -24q41 0 65 34.5t24 93.5
q0 104 -86 148l44 115q84 -23 130.5 -91.5t46.5 -168.5zM332 571l36 209h160v-24l-97 -185h-99z" />
    <glyph glyph-name="uni0400" unicode="&#x400;" horiz-adv-x="573" 
d="M76 0v660h444v-122h-309v-134h227v-115h-227v-167h321v-122h-456zM246 724l-137 162v24h162l73 -186h-98z" />
    <glyph glyph-name="uni0401" unicode="&#x401;" horiz-adv-x="573" 
d="M76 0v660h444v-122h-309v-134h227v-115h-227v-167h321v-122h-456zM85 814q0 33 23.5 55.5t56.5 22.5q34 0 58 -22.5t24 -55.5q0 -31 -24 -54t-58 -23q-31 0 -55.5 23.5t-24.5 53.5zM343 813q0 33 24 56t57 23t57 -23t24 -56q0 -31 -24 -54t-57 -23q-31 0 -56 23.5
t-25 53.5z" />
    <glyph glyph-name="uni0402" unicode="&#x402;" horiz-adv-x="752" 
d="M481 -18l-27 120q61 9 91 31t30 67q0 42 -28.5 65t-79.5 23q-66 0 -125 -24v-264h-135v538h-193v122h550v-122h-222v-155q58 23 132 23q104 0 171.5 -55t67.5 -149q0 -102 -66 -156t-166 -64z" />
    <glyph glyph-name="uni0403" unicode="&#x403;" horiz-adv-x="524" 
d="M76 0v660h424v-122h-289v-538h-135zM227 724l73 186h162v-24l-137 -162h-98z" />
    <glyph glyph-name="uni0404" unicode="&#x404;" horiz-adv-x="720" 
d="M579 224l102 -72q-43 -77 -120 -120.5t-172 -43.5q-145 -3 -249.5 98.5t-101.5 243.5q-2 142 103 243.5t249 98.5q94 0 170.5 -43.5t120.5 -120.5l-102 -72q-71 111 -189 111q-76 0 -131.5 -42.5t-73.5 -113.5h279v-115h-281q16 -74 72.5 -118.5t134.5 -44.5
q118 0 189 111z" />
    <glyph glyph-name="uni0405" unicode="&#x405;" horiz-adv-x="559" 
d="M30 134l93 70q70 -96 162 -96q44 0 69 19.5t25 53.5q0 28 -17 43.5t-67 38.5l-71 32q-160 71 -160 190q0 84 62 135.5t157 51.5q74 0 130 -33.5t88 -91.5l-92 -71q-51 76 -126 76q-36 0 -59 -17t-23 -47q0 -25 16.5 -40.5t60.5 -35.5l75 -33q85 -38 124 -82.5t39 -110.5
q0 -89 -65 -143.5t-166 -54.5q-83 0 -149.5 39t-105.5 107z" />
    <glyph glyph-name="uni0406" unicode="&#x406;" horiz-adv-x="286" 
d="M76 0v660h135v-660h-135z" />
    <glyph glyph-name="uni0407" unicode="&#x407;" horiz-adv-x="286" 
d="M76 0v660h135v-660h-135zM-67 814q0 33 23.5 55.5t56.5 22.5q34 0 58 -22.5t24 -55.5q0 -31 -24 -54t-58 -23q-31 0 -55.5 23.5t-24.5 53.5zM191 813q0 33 24 56t57 23t57 -23t24 -56q0 -31 -24 -54t-57 -23q-31 0 -56 23.5t-25 53.5z" />
    <glyph glyph-name="uni0408" unicode="&#x408;" horiz-adv-x="389" 
d="M17 0v115q48 -4 66 -4q49 0 72 18.5t23 60.5v470h135v-484q0 -93 -51.5 -140.5t-149.5 -47.5q-47 0 -95 12z" />
    <glyph glyph-name="uni0409" unicode="&#x409;" horiz-adv-x="971" 
d="M932 217q0 -97 -67.5 -157t-173.5 -60h-255v538h-167q-3 -210 -26.5 -330t-67.5 -168t-118 -50q-30 0 -57 10v115q8 -2 27 -2q60 0 85.5 99t28.5 326l1 122h429v-227h120q106 0 173.5 -60.5t67.5 -155.5zM794 216q0 45 -27.5 72t-75.5 27h-120v-196h120q48 0 75.5 26
t27.5 71z" />
    <glyph glyph-name="uni040A" unicode="&#x40a;" horiz-adv-x="993" 
d="M76 0v660h135v-236h246v236h135v-236h121q105 0 173 -59.5t68 -152.5q0 -94 -67.5 -153t-173.5 -59h-256v302h-246v-302h-135zM592 119h121q48 0 75.5 25t27.5 67t-27.5 68t-75.5 26h-121v-186z" />
    <glyph glyph-name="uni040B" unicode="&#x40b;" horiz-adv-x="780" 
d="M718 151v-151h-135v138q0 70 -33 107t-93 37q-63 0 -115 -23v-259h-135v538h-193v122h550v-122h-222v-155q66 23 127 23q113 0 181 -67t68 -188z" />
    <glyph glyph-name="uni040C" unicode="&#x40c;" horiz-adv-x="670" 
d="M657 0h-163l-283 344v-344h-135v660h135v-306l252 306h161l-253 -311zM283 724l73 186h162v-24l-137 -162h-98z" />
    <glyph glyph-name="uni040D" unicode="&#x40d;" horiz-adv-x="717" 
d="M597 672h45v-672h-135v409l-387 -421h-44v672h135v-405zM329 724l-137 162v24h162l73 -186h-98z" />
    <glyph glyph-name="uni040E" unicode="&#x40e;" horiz-adv-x="648" 
d="M491 660h144l-225 -494q-47 -98 -90 -136.5t-128 -40.5q-37 0 -75 11v115q25 -3 53 -3q60 0 93 42l-246 506h151l168 -359zM166 895v15h108v-19q0 -36 17 -56t48 -20t48 20t17 56v19h107v-15q0 -77 -48 -127q-48 -49 -124 -49q-77 0 -125 49q-48 50 -48 127z" />
    <glyph glyph-name="uni040F" unicode="&#x40f;" horiz-adv-x="697" 
d="M622 660v-660h-208v-141h-130v141h-208v660h135v-538h276v538h135z" />
    <glyph glyph-name="uni0410" unicode="&#x410;" horiz-adv-x="661" 
d="M502 0l-37 86h-270l-37 -86h-145l295 672h45l294 -672h-145zM418 197l-88 223l-88 -223h176z" />
    <glyph glyph-name="uni0411" unicode="&#x411;" horiz-adv-x="606" 
d="M76 0v660h440v-122h-305v-137h139q99 0 160.5 -54.5t61.5 -143.5q0 -90 -62 -146.5t-160 -56.5h-274zM211 116h132q45 0 70 23.5t25 63.5t-25 63.5t-70 23.5h-132v-174z" />
    <glyph glyph-name="uni0412" unicode="&#x412;" horiz-adv-x="621" 
d="M587 194q0 -85 -61 -139.5t-156 -54.5h-294v660h234q92 0 150.5 -51.5t58.5 -132.5q0 -73 -49 -119q117 -43 117 -163zM299 544h-93v-151h93q41 0 63.5 20t22.5 56q0 35 -22.5 55t-63.5 20zM454 199q0 38 -25 60.5t-69 22.5h-154v-166h154q44 0 69 22t25 61z" />
    <glyph glyph-name="uni0413" unicode="&#x413;" horiz-adv-x="524" 
d="M76 0v660h424v-122h-289v-538h-135z" />
    <glyph glyph-name="uni0414" unicode="&#x414;" horiz-adv-x="721" 
d="M609 122h88v-263h-135v141h-411v-141h-135v263h53q81 67 81 429v109h459v-538zM216 122h258v416h-197q-5 -307 -61 -416z" />
    <glyph glyph-name="uni0415" unicode="&#x415;" horiz-adv-x="573" 
d="M76 0v660h444v-122h-309v-134h227v-115h-227v-167h321v-122h-456z" />
    <glyph glyph-name="uni0416" unicode="&#x416;" horiz-adv-x="991" 
d="M977 0h-163l-251 344v-344h-135v345l-252 -345h-163l268 348l-247 312h161l233 -307v307h135v-306l232 306h161l-246 -312z" />
    <glyph glyph-name="uni0417" unicode="&#x417;" horiz-adv-x="588" 
d="M550 195q0 -93 -68.5 -150t-182.5 -57q-87 0 -155.5 40.5t-104.5 112.5l94 68q65 -96 165 -96q52 0 85.5 24t33.5 65q0 37 -27.5 58.5t-79.5 21.5h-87v111h77q41 0 64.5 21t23.5 55q0 36 -24.5 57t-68.5 21q-87 0 -137 -86l-94 67q34 69 95.5 106.5t142.5 37.5
q101 0 160 -51.5t59 -140.5q0 -80 -66 -133q95 -46 95 -152z" />
    <glyph glyph-name="uni0418" unicode="&#x418;" horiz-adv-x="717" 
d="M597 672h45v-672h-135v409l-387 -421h-44v672h135v-405z" />
    <glyph glyph-name="uni0419" unicode="&#x419;" horiz-adv-x="717" 
d="M597 672h45v-672h-135v409l-387 -421h-44v672h135v-405zM205 895v15h108v-19q0 -36 17 -56t48 -20t48 20t17 56v19h107v-15q0 -77 -48 -127q-48 -49 -124 -49q-77 0 -125 49q-48 50 -48 127z" />
    <glyph glyph-name="uni041A" unicode="&#x41a;" horiz-adv-x="670" 
d="M657 0h-163l-283 344v-344h-135v660h135v-306l252 306h161l-253 -311z" />
    <glyph glyph-name="uni041B" unicode="&#x41b;" horiz-adv-x="671" 
d="M142 660h453v-660h-135v538h-190q-4 -211 -28.5 -331t-68 -167.5t-116.5 -49.5q-30 0 -57 10v115q8 -2 27 -2q60 0 85.5 99t28.5 326z" />
    <glyph glyph-name="uni041C" unicode="&#x41c;" horiz-adv-x="798" 
d="M678 672h44v-672h-135v352l-166 -208h-44l-166 208v-352h-135v672h44l279 -357z" />
    <glyph glyph-name="uni041D" unicode="&#x41d;" horiz-adv-x="713" 
d="M76 0v660h135v-253h292v253h135v-660h-135v285h-292v-285h-135z" />
    <glyph glyph-name="uni041E" unicode="&#x41e;" horiz-adv-x="778" 
d="M38 330q-2 141 102.5 243t247.5 99q143 3 248.5 -99t103.5 -243q2 -141 -103.5 -243t-248.5 -99q-143 -3 -247.5 99t-102.5 243zM601 330q0 94 -60.5 155.5t-151.5 61.5q-92 0 -152 -61t-60 -156t60 -156t152 -61q91 0 151.5 61t60.5 156z" />
    <glyph glyph-name="uni041F" unicode="&#x41f;" horiz-adv-x="703" 
d="M76 0v660h552v-660h-135v538h-282v-538h-135z" />
    <glyph glyph-name="uni0420" unicode="&#x420;" horiz-adv-x="594" 
d="M76 0v660h248q104 0 171 -59t67 -154q0 -94 -67 -154t-171 -60h-113v-233h-135zM211 351h113q47 0 73.5 26.5t26.5 69.5q0 42 -27.5 68t-72.5 26h-113v-190z" />
    <glyph glyph-name="uni0421" unicode="&#x421;" horiz-adv-x="720" 
d="M38 330q-2 142 103 243.5t249 98.5q94 0 170.5 -43.5t120.5 -120.5l-102 -72q-71 111 -189 111q-92 0 -152.5 -62t-60.5 -156t60.5 -155t152.5 -61q118 0 189 111l102 -72q-43 -77 -120 -120.5t-172 -43.5q-145 -3 -249.5 98.5t-101.5 243.5z" />
    <glyph glyph-name="uni0422" unicode="&#x422;" horiz-adv-x="585" 
d="M225 0v538h-211v122h558v-122h-212v-538h-135z" />
    <glyph glyph-name="uni0423" unicode="&#x423;" horiz-adv-x="648" 
d="M491 660h144l-225 -494q-47 -98 -90 -136.5t-128 -40.5q-37 0 -75 11v115q25 -3 53 -3q60 0 93 42l-246 506h151l168 -359z" />
    <glyph glyph-name="uni0424" unicode="&#x424;" horiz-adv-x="839" 
d="M486 60v-80h-135v80q-142 6 -228.5 79.5t-86.5 196.5t86 194q88 71 229 77v73h135v-73q143 -6 230 -78t87 -196q0 -123 -87 -195t-230 -78zM670 335q0 74 -48 114t-136 43v-316q87 2 135.5 43.5t48.5 115.5zM351 176v316q-85 -4 -133.5 -46t-48.5 -114t47.5 -112
t134.5 -44z" />
    <glyph glyph-name="uni0425" unicode="&#x425;" horiz-adv-x="614" 
d="M600 0h-153l-140 219l-140 -219h-154l219 336l-206 324h154l127 -208l126 208h153l-203 -324z" />
    <glyph glyph-name="uni0426" unicode="&#x426;" horiz-adv-x="734" 
d="M581 -141v141h-505v660h135v-538h276v538h135v-538h88v-263h-129z" />
    <glyph glyph-name="uni0427" unicode="&#x427;" horiz-adv-x="659" 
d="M448 660h135v-660h-135v243q-63 -23 -137 -23q-125 0 -194 67.5t-69 193.5v179h135v-166q0 -77 36.5 -114t113.5 -37q66 0 115 20v297z" />
    <glyph glyph-name="uni0428" unicode="&#x428;" horiz-adv-x="990" 
d="M76 0v660h135v-538h217v538h135v-538h217v538h135v-660h-839z" />
    <glyph glyph-name="uni0429" unicode="&#x429;" horiz-adv-x="1026" 
d="M873 -141v141h-797v660h135v-538h217v538h135v-538h217v538h135v-538h87v-263h-129z" />
    <glyph glyph-name="uni042A" unicode="&#x42a;" horiz-adv-x="699" 
d="M164 0v538h-150v122h285v-227h120q105 0 173 -61t68 -155q0 -97 -67.5 -157t-173.5 -60h-255zM299 119h120q48 0 75.5 26.5t27.5 70.5q0 45 -27.5 72t-75.5 27h-120v-196z" />
    <glyph glyph-name="uni042B" unicode="&#x42b;" horiz-adv-x="887" 
d="M76 0v660h135v-227h120q106 0 173.5 -60.5t67.5 -155.5q0 -97 -67.5 -157t-173.5 -60h-255zM211 119h120q48 0 75.5 26.5t27.5 70.5q0 45 -27.5 72t-75.5 27h-120v-196zM677 0v660h135v-660h-135z" />
    <glyph glyph-name="uni042C" unicode="&#x42c;" horiz-adv-x="611" 
d="M76 0v660h135v-227h120q106 0 173.5 -60.5t67.5 -155.5q0 -97 -67.5 -157t-173.5 -60h-255zM211 119h120q48 0 75.5 26.5t27.5 70.5q0 45 -27.5 72t-75.5 27h-120v-196z" />
    <glyph glyph-name="uni042D" unicode="&#x42d;" horiz-adv-x="720" 
d="M681 330q3 -141 -101.5 -243t-248.5 -99q-95 0 -172 43.5t-120 120.5l102 72q71 -111 189 -111q78 0 134.5 44.5t72.5 118.5h-260v115h258q-18 71 -74 113.5t-131 42.5q-118 0 -189 -111l-102 72q44 77 120.5 120.5t170.5 43.5q145 3 249.5 -98.5t101.5 -243.5z" />
    <glyph glyph-name="uni042E" unicode="&#x42e;" horiz-adv-x="1007" 
d="M969 330q2 -141 -100 -243t-241 -99q-130 0 -224 84.5t-109 212.5h-84v-285h-135v660h135v-253h89q24 117 115 191t213 74q139 3 241.5 -99t99.5 -243zM830 330q0 94 -57 155.5t-145 61.5t-145.5 -61t-57.5 -156t57.5 -156t145.5 -61t145 61.5t57 155.5z" />
    <glyph glyph-name="uni042F" unicode="&#x42f;" horiz-adv-x="632" 
d="M323 660h233v-660h-135v219h-86l-154 -219h-145l169 242q-63 27 -99.5 79.5t-36.5 118.5q0 98 70.5 159t183.5 61zM421 338v203h-102q-50 0 -81 -28t-31 -74t31 -73.5t81 -27.5h102z" />
    <glyph glyph-name="uni0430" unicode="&#x430;" horiz-adv-x="545" 
d="M482 294v-294h-124v48q-58 -60 -151 -60q-78 0 -124.5 41t-46.5 107q0 67 50.5 105.5t136.5 38.5h124v22q0 42 -23.5 64.5t-68.5 22.5q-37 0 -67 -16t-64 -52l-70 83q86 102 216 102q98 0 155 -55.5t57 -156.5zM347 185v6h-106q-69 0 -69 -50q0 -25 19.5 -39.5
t51.5 -14.5q45 0 74.5 27.5t29.5 70.5z" />
    <glyph glyph-name="uni0431" unicode="&#x431;" horiz-adv-x="617" 
d="M579 239q0 -108 -74.5 -179t-188.5 -71q-120 0 -193 81t-73 214v75q1 89 15 149t51 108t102.5 76t167.5 41q108 14 149 28v-123q-36 -14 -148 -25q-66 -8 -106.5 -22t-64 -40.5t-32.5 -59.5t-11 -88q60 85 174 85q98 0 165 -71.5t67 -177.5zM441 239q0 53 -37 89
q-36 37 -90 37q-53 0 -90 -37q-36 -36 -36 -89t36 -90q37 -37 90 -37q54 0 90 37q37 37 37 90z" />
    <glyph glyph-name="uni0432" unicode="&#x432;" horiz-adv-x="553" 
d="M511 151q0 -66 -50.5 -108.5t-127.5 -42.5h-263v495h230q77 0 125.5 -38t48.5 -101q0 -54 -40 -91q77 -34 77 -114zM198 394v-92h94q60 0 60 46t-60 46h-94zM387 155q0 25 -18.5 39t-50.5 14h-120v-108h120q32 0 50.5 15t18.5 40z" />
    <glyph glyph-name="uni0433" unicode="&#x433;" horiz-adv-x="453" 
d="M70 0v495h364v-114h-230v-381h-134z" />
    <glyph glyph-name="uni0434" unicode="&#x434;" horiz-adv-x="636" 
d="M522 114h82v-255h-129v141h-338v-141h-129v255h53q30 29 43.5 89t17.5 169l4 123h396v-381zM199 114h189v267h-142l-1 -29q-5 -157 -46 -238z" />
    <glyph glyph-name="uni0435" unicode="&#x435;" horiz-adv-x="569" 
d="M522 202h-347q12 -47 48.5 -72.5t90.5 -25.5q73 0 138 50l56 -92q-89 -74 -198 -74q-114 -2 -193.5 74.5t-77.5 184.5q-2 107 75 184t184 75q102 0 167.5 -66t65.5 -164q0 -36 -9 -74zM175 297h225q-1 45 -31.5 72.5t-75.5 27.5q-43 0 -75 -27t-43 -73z" />
    <glyph glyph-name="uni0436" unicode="&#x436;" horiz-adv-x="841" 
d="M833 0h-161l-188 258v-258h-134v259l-189 -259h-153l191 262l-181 233h159l173 -228v228h134v-227l173 227h158l-176 -229z" />
    <glyph glyph-name="uni0437" unicode="&#x437;" horiz-adv-x="491" 
d="M449 145q0 -76 -52 -116.5t-151 -40.5q-141 0 -213 93l76 80q49 -57 129 -57q38 0 59 14t21 38q0 22 -18.5 35t-51.5 13h-64v100h58q55 0 55 43t-61 43q-70 0 -117 -50l-77 81q73 85 202 85q87 0 135.5 -38t48.5 -107q0 -64 -49 -104q70 -37 70 -112z" />
    <glyph glyph-name="uni0438" unicode="&#x438;" horiz-adv-x="595" 
d="M481 506h44v-506h-135v268l-276 -280h-44v507h134v-270z" />
    <glyph glyph-name="uni0439" unicode="&#x439;" horiz-adv-x="595" 
d="M481 506h44v-506h-135v268l-276 -280h-44v507h134v-270zM136 745v28h108v-27q0 -38 17 -58.5t48 -20.5t48 20.5t17 58.5v27h107v-28q0 -77 -48 -126q-48 -48 -124 -48q-77 0 -125 48q-48 49 -48 126z" />
    <glyph glyph-name="uni043A" unicode="&#x43a;" horiz-adv-x="568" 
d="M560 0h-160l-196 262v-262h-134v495h134v-231l187 231h153l-187 -226z" />
    <glyph glyph-name="uni043B" unicode="&#x43b;" horiz-adv-x="574" 
d="M111 495h393v-495h-134v381h-133l-1 -38q-5 -193 -42.5 -271.5t-129.5 -80.5q-28 0 -51 9v111q10 -2 19 -2q41 0 58.5 61t19.5 207z" />
    <glyph glyph-name="uni043C" unicode="&#x43c;" horiz-adv-x="693" 
d="M70 0v506h44l232 -259l234 259h43v-506h-135v238l-120 -135h-45l-119 134v-237h-134z" />
    <glyph glyph-name="uni043D" unicode="&#x43d;" horiz-adv-x="591" 
d="M70 0v495h134v-181h183v181h134v-495h-134v199h-183v-199h-134z" />
    <glyph glyph-name="uni043E" unicode="&#x43e;" horiz-adv-x="608" 
d="M39 248q-2 106 77 183t188 75q109 2 188.5 -75t77.5 -183q2 -106 -78 -183.5t-189 -75.5q-109 -2 -187.5 75.5t-76.5 183.5zM432 247q0 58 -36.5 97t-91.5 39q-56 0 -92 -38.5t-36 -97.5q0 -58 36 -96t92 -38q55 0 91.5 38t36.5 96z" />
    <glyph glyph-name="uni043F" unicode="&#x43f;" horiz-adv-x="585" 
d="M70 0v495h445v-495h-135v381h-176v-381h-134z" />
    <glyph glyph-name="uni0440" unicode="&#x440;" horiz-adv-x="629" 
d="M590 248q0 -111 -68.5 -185.5t-171.5 -74.5q-93 0 -148 60v-228h-135v675h124v-62q51 73 159 73q103 0 171.5 -73.5t68.5 -184.5zM453 247q0 61 -36 99t-92 38q-54 0 -89.5 -36t-35.5 -100t35.5 -100.5t89.5 -36.5q55 0 91.5 38t36.5 98z" />
    <glyph glyph-name="uni0441" unicode="&#x441;" horiz-adv-x="552" 
d="M39 248q0 108 77 183t188 75q146 0 215 -122l-94 -73q-50 72 -119 72q-57 0 -93.5 -38.5t-36.5 -96.5q0 -59 36.5 -97.5t93.5 -38.5q69 0 119 71l94 -72q-33 -58 -88.5 -90.5t-126.5 -32.5q-109 -2 -188 75.5t-77 184.5z" />
    <glyph glyph-name="uni0442" unicode="&#x442;" horiz-adv-x="467" 
d="M166 0v381h-152v114h439v-114h-153v-381h-134z" />
    <glyph glyph-name="uni0443" unicode="&#x443;" horiz-adv-x="559" 
d="M405 495h142l-237 -538q-34 -77 -81 -113t-116 -36q-42 0 -87 12v113q41 -4 58 -4q38 0 62 15t41 52l15 34l-190 465h143l121 -325z" />
    <glyph glyph-name="uni0444" unicode="&#x444;" horiz-adv-x="774" 
d="M454 -9v-171h-134v171q-125 8 -203 75.5t-78 181.5q0 117 77.5 184.5t203.5 73.5v244h134v-244q125 -8 203 -76.5t78 -181.5q0 -116 -77.5 -183.5t-203.5 -73.5zM323 105v286q-71 -4 -110.5 -41t-39.5 -103q0 -63 40 -100t110 -42zM601 250q0 63 -40.5 101t-109.5 40
v-286q71 4 110.5 41.5t39.5 103.5z" />
    <glyph glyph-name="uni0445" unicode="&#x445;" horiz-adv-x="531" 
d="M523 0h-151l-106 158l-107 -158h-151l181 255l-169 240h151l95 -143l94 143h151l-170 -239z" />
    <glyph glyph-name="uni0446" unicode="&#x446;" horiz-adv-x="622" 
d="M461 -141v141h-391v495h134v-381h170v381h134v-381h82v-255h-129z" />
    <glyph glyph-name="uni0447" unicode="&#x447;" horiz-adv-x="554" 
d="M349 495h135v-495h-135v174q-39 -16 -107 -16q-96 0 -149.5 56.5t-53.5 158.5v122h134v-112q0 -105 97 -105q47 0 79 13v204z" />
    <glyph glyph-name="uni0448" unicode="&#x448;" horiz-adv-x="859" 
d="M70 0v495h134v-381h159v381h134v-381h159v381h134v-495h-720z" />
    <glyph glyph-name="uni0449" unicode="&#x449;" horiz-adv-x="903" 
d="M743 -141v141h-673v495h134v-381h159v381h134v-381h159v381h134v-381h81v-255h-128z" />
    <glyph glyph-name="uni044A" unicode="&#x44a;" horiz-adv-x="602" 
d="M134 0v381h-120v114h254v-143h90q89 0 148 -47q58 -46 58 -128t-58 -130q-59 -47 -148 -47h-224zM268 114h86q34 0 53.5 15.5t19.5 45.5q0 29 -20 46t-53 17h-86v-124z" />
    <glyph glyph-name="uni044B" unicode="&#x44b;" horiz-adv-x="760" 
d="M70 0v495h134v-143h90q89 0 148 -47q58 -46 58 -128q0 -84 -58 -130q-59 -47 -148 -47h-224zM556 0v495h134v-495h-134zM204 114h86q73 0 73 61q0 30 -19.5 46.5t-53.5 16.5h-86v-124z" />
    <glyph glyph-name="uni044C" unicode="&#x44c;" horiz-adv-x="539" 
d="M70 0v495h134v-143h90q90 0 148 -47q58 -46 58 -128q0 -81 -57 -129t-149 -48h-224zM204 114h86q34 0 53.5 15.5t19.5 45.5q0 29 -20 46t-53 17h-86v-124z" />
    <glyph glyph-name="uni044D" unicode="&#x44d;" horiz-adv-x="552" 
d="M514 248q0 -109 -77.5 -184.5t-189.5 -75.5q-137 0 -214 123l90 69q51 -73 124 -73q45 0 80 26.5t47 68.5h-162v96h161q-15 41 -48.5 65t-77.5 24q-71 0 -124 -72l-90 69q75 122 214 122q112 0 189.5 -74.5t77.5 -183.5z" />
    <glyph glyph-name="uni044E" unicode="&#x44e;" horiz-adv-x="814" 
d="M775 248q2 -106 -75.5 -183.5t-181.5 -75.5q-93 0 -162 59t-86 151h-66v-199h-134v495h134v-181h70q20 86 87 138q67 54 157 54q105 2 182 -75.5t75 -182.5zM640 247q0 58 -36 97q-35 39 -88 39q-55 0 -90 -38.5t-35 -97.5q0 -58 35 -96q36 -38 89 -38q54 0 89.5 38
t35.5 96z" />
    <glyph glyph-name="uni044F" unicode="&#x44f;" horiz-adv-x="555" 
d="M261 495h224v-495h-134v152h-53l-122 -152h-152l140 171q-50 20 -77.5 60t-27.5 93q0 78 55 124.5t147 46.5zM351 261v120h-85q-32 0 -51 -16t-19 -43q0 -28 19 -44.5t51 -16.5h85z" />
    <glyph glyph-name="uni0450" unicode="&#x450;" horiz-adv-x="569" 
d="M522 202h-347q12 -47 48.5 -72.5t90.5 -25.5q73 0 138 50l56 -92q-89 -74 -198 -74q-114 -2 -193.5 74.5t-77.5 184.5q-2 107 75 184t184 75q102 0 167.5 -66t65.5 -164q0 -36 -9 -74zM175 297h225q-1 45 -31.5 72.5t-75.5 27.5q-43 0 -75 -27t-43 -73zM249 571l-137 185
v24h162l73 -209h-98z" />
    <glyph glyph-name="uni0451" unicode="&#x451;" horiz-adv-x="569" 
d="M522 202h-347q12 -47 48.5 -72.5t90.5 -25.5q73 0 138 50l56 -92q-89 -74 -198 -74q-114 -2 -193.5 74.5t-77.5 184.5q-2 107 75 184t184 75q102 0 167.5 -66t65.5 -164q0 -36 -9 -74zM175 297h225q-1 45 -31.5 72.5t-75.5 27.5q-43 0 -75 -27t-43 -73zM98 676
q0 32 24 55t58 23q32 0 56 -23t24 -55t-24 -55t-56 -23q-34 0 -58 23t-24 55zM336 676q0 32 24 55t58 23q32 0 56 -23t24 -55t-24 -55t-56 -23q-34 0 -58 23t-24 55z" />
    <glyph glyph-name="uni0452" unicode="&#x452;" horiz-adv-x="593" 
d="M530 278v-284q0 -92 -50 -139t-141 -47q-38 0 -74 11v113q24 -3 41 -3q46 0 67.5 18t21.5 59v253q0 43 -25 69.5t-66 26.5q-42 0 -68.5 -26.5t-26.5 -69.5v-259h-134v552h-79v111h79v87h134v-87h191v-111h-191v-129q51 54 136 54q84 0 134.5 -54.5t50.5 -144.5z" />
    <glyph glyph-name="uni0453" unicode="&#x453;" horiz-adv-x="453" 
d="M70 0v495h364v-114h-230v-381h-134zM196 571l73 209h162v-24l-137 -185h-98z" />
    <glyph glyph-name="uni0454" unicode="&#x454;" horiz-adv-x="552" 
d="M429 180l90 -69q-77 -123 -213 -123q-111 -2 -190 75.5t-77 184.5q-2 107 77 183.5t190 74.5q139 0 213 -122l-90 -69q-49 72 -124 72q-44 0 -77 -24t-48 -65h160v-96h-161q12 -42 46.5 -68.5t79.5 -26.5q73 0 124 73z" />
    <glyph glyph-name="uni0455" unicode="&#x455;" horiz-adv-x="455" 
d="M22 84l68 82q64 -67 139 -67q28 0 45.5 10.5t17.5 30.5q0 15 -10.5 23.5t-40.5 21.5l-53 22q-71 29 -103 63.5t-32 87.5q0 69 50 108.5t132 39.5q110 0 178 -74l-68 -83q-50 47 -111 47q-53 0 -53 -35q0 -14 11 -23t41 -21l48 -20q74 -30 106.5 -64t32.5 -87
q0 -74 -55 -116q-54 -42 -138 -42q-133 0 -205 96z" />
    <glyph glyph-name="uni0456" unicode="&#x456;" horiz-adv-x="278" 
d="M52 675q0 36 25.5 60t61.5 24t61 -24t25 -60q0 -35 -25 -59t-61 -24t-61.5 24t-25.5 59zM72 0v495h134v-495h-134z" />
    <glyph glyph-name="uni0457" unicode="&#x457;" horiz-adv-x="269" 
d="M1 675q0 39 17.5 61.5t47.5 22.5q29 0 46.5 -22.5t17.5 -61.5t-17 -61t-47 -22t-47.5 22.5t-17.5 60.5zM142 675q0 39 17.5 61.5t47.5 22.5q29 0 46.5 -22.5t17.5 -61.5t-17.5 -61t-46.5 -22q-30 0 -47.5 22.5t-17.5 60.5zM67 0v495h135v-495h-135z" />
    <glyph glyph-name="uni0458" unicode="&#x458;" horiz-adv-x="269" 
d="M-63 -181v113q24 -3 41 -3q46 0 67.5 18t21.5 59v489h135v-501q0 -91 -50 -138.5t-140 -47.5q-39 0 -75 11zM48 675q0 36 25 60t61 24t61.5 -24t25.5 -60q0 -35 -25.5 -59t-61.5 -24t-61 24t-25 59z" />
    <glyph glyph-name="uni0459" unicode="&#x459;" horiz-adv-x="825" 
d="M786 180q0 -84 -58 -132q-57 -48 -148 -48h-223v381h-120l-1 -38q-5 -193 -42.5 -271.5t-129.5 -80.5q-28 0 -51 9v111q10 -2 19 -2q41 0 58.5 61t19.5 207l1 118h380v-143h89q92 0 148 -46q58 -46 58 -126zM649 178q0 27 -20.5 43.5t-52.5 16.5h-85v-124h85
q34 0 53.5 17t19.5 47z" />
    <glyph glyph-name="uni045A" unicode="&#x45a;" horiz-adv-x="837" 
d="M798 169q0 -79 -57 -124t-151 -45h-224v223h-162v-223h-134v495h134v-158h162v158h134v-158h90q92 0 150 -45q58 -43 58 -123zM661 169q0 26 -20 41.5t-52 15.5h-89v-115h89q33 0 52.5 15.5t19.5 42.5z" />
    <glyph glyph-name="uni045B" unicode="&#x45b;" horiz-adv-x="593" 
d="M530 278v-278h-135v259q0 43 -25 69.5t-66 26.5q-42 0 -68.5 -26.5t-26.5 -69.5v-259h-134v551h-79v111h79v88h134v-88h191v-111h-191v-128q51 54 136 54q84 0 134.5 -54.5t50.5 -144.5z" />
    <glyph glyph-name="uni045C" unicode="&#x45c;" horiz-adv-x="568" 
d="M560 0h-160l-196 262v-262h-134v495h134v-231l187 231h153l-187 -226zM246 571l73 209h162v-24l-137 -185h-98z" />
    <glyph glyph-name="uni045D" unicode="&#x45d;" horiz-adv-x="595" 
d="M481 506h44v-506h-135v268l-276 -280h-44v507h134v-270zM260 571l-137 185v24h162l73 -209h-98z" />
    <glyph glyph-name="uni045E" unicode="&#x45e;" horiz-adv-x="559" 
d="M405 495h142l-237 -538q-34 -77 -81 -113t-116 -36q-42 0 -87 12v113q41 -4 58 -4q38 0 62 15t41 52l15 34l-190 465h143l121 -325zM106 745v28h108v-27q0 -38 17 -58.5t48 -20.5t48 20.5t17 58.5v27h107v-28q0 -77 -48 -126q-48 -48 -124 -48q-77 0 -125 48
q-48 49 -48 126z" />
    <glyph glyph-name="uni045F" unicode="&#x45f;" horiz-adv-x="578" 
d="M509 495v-495h-155v-141h-129v141h-155v495h134v-381h171v381h134z" />
    <glyph glyph-name="uni0462" unicode="&#x462;" horiz-adv-x="699" 
d="M164 0v484h-150v110h150v78h135v-78h191v-110h-191v-84h124q110 0 173.5 -54t63.5 -147q0 -92 -64 -145.5t-175 -53.5h-257zM299 119h125q45 0 71.5 22t26.5 59t-26.5 60t-71.5 23h-125v-164z" />
    <glyph glyph-name="uni0463" unicode="&#x463;" horiz-adv-x="596" 
d="M127 0v389h-131v106h131v255h135v-255h163v-106h-163v-71h102q86 0 139 -43q54 -43 54 -115q0 -74 -54 -117q-53 -43 -139 -43h-237zM262 106h92q66 0 66 53q0 25 -17.5 39t-49.5 14h-91v-106z" />
    <glyph glyph-name="uni0472" unicode="&#x472;" horiz-adv-x="778" 
d="M740 330q2 -141 -103.5 -243t-248.5 -99q-143 -3 -247.5 99t-102.5 243q-2 141 102.5 243t247.5 99q143 3 248.5 -99t103.5 -243zM179 380q51 25 109 25q38 0 102 -16q60 -17 101 -17q50 0 104 23q-19 71 -75 113t-132 42q-80 0 -137 -46.5t-72 -123.5zM599 278
q-53 -24 -108 -24q-35 0 -103 17q-60 17 -100 17q-54 0 -106 -24q19 -70 75 -112t131 -42q81 0 137 46q58 46 74 122z" />
    <glyph glyph-name="uni0473" unicode="&#x473;" horiz-adv-x="608" 
d="M570 248q2 -107 -78 -184t-189 -75q-109 -2 -187.5 75t-76.5 184q0 108 77 183t188 75t188.5 -75t77.5 -183zM173 293q33 14 60 14q30 0 72 -13q1 0 9 -2.5t16.5 -4.5t21.5 -4t24 -2q28 0 58 13q-13 44 -48 70.5t-82 26.5q-48 0 -83 -26.5t-48 -71.5zM437 209
q-36 -14 -62 -14q-33 0 -72 13q-43 12 -70 12t-61 -14q11 -46 46.5 -73.5t84.5 -27.5q50 0 86.5 28.5t47.5 75.5z" />
    <glyph glyph-name="uni0474" unicode="&#x474;" horiz-adv-x="680" 
d="M680 659v-116q-21 3 -35 3q-27 0 -44 -14t-31 -47l-217 -497h-45l-295 672h153l165 -402l119 288q25 64 63.5 93.5t100.5 29.5q32 0 66 -10z" />
    <glyph glyph-name="uni0475" unicode="&#x475;" horiz-adv-x="558" 
d="M558 495v-113l-29 1q-22 0 -34.5 -10t-24.5 -33l-168 -352h-45l-245 507h142l126 -281l80 181q26 57 57 83t80 26q29 0 61 -9z" />
    <glyph glyph-name="uni0490" unicode="&#x490;" horiz-adv-x="499" 
d="M76 0v660h270v141h129v-263h-264v-538h-135z" />
    <glyph glyph-name="uni0491" unicode="&#x491;" horiz-adv-x="453" 
d="M70 0v495h235v141h129v-255h-230v-381h-134z" />
    <glyph glyph-name="uni0492" unicode="&#x492;" horiz-adv-x="518" 
d="M494 538h-274v-174h155v-113h-155v-251h-135v251h-83v113h83v296h409v-122z" />
    <glyph glyph-name="uni0493" unicode="&#x493;" horiz-adv-x="453" 
d="M434 381h-230v-102h124v-109h-124v-170h-134v170h-74v109h74v216h364v-114z" />
    <glyph glyph-name="uni0496" unicode="&#x496;" horiz-adv-x="994" 
d="M883 122h105v-263h-129v141h-45l-251 344v-344h-135v345l-252 -345h-163l268 348l-247 312h161l233 -307v307h135v-306l232 306h161l-246 -312z" />
    <glyph glyph-name="uni0497" unicode="&#x497;" horiz-adv-x="877" 
d="M753 114h92v-255h-129v141h-33l-195 265v-265h-134v264l-194 -264h-152l194 267l-180 228h159l173 -221v221h134v-222l173 222h158l-179 -226z" />
    <glyph glyph-name="uni0498" unicode="&#x498;" horiz-adv-x="588" 
d="M550 195q0 -93 -68.5 -150t-182.5 -57q-87 0 -155.5 40.5t-104.5 112.5l94 68q65 -96 165 -96q52 0 85.5 24t33.5 65q0 37 -27.5 58.5t-79.5 21.5h-87v111h77q41 0 64.5 21t23.5 55q0 36 -24.5 57t-68.5 21q-87 0 -137 -86l-94 67q34 69 95.5 106.5t142.5 37.5
q101 0 160 -51.5t59 -140.5q0 -80 -66 -133q95 -46 95 -152zM164 -182v89q34 -2 60 -2q62 0 62 57q0 28 -13 58l53 24q67 -37 67 -109q0 -56 -42 -91.5t-113 -35.5q-41 0 -74 10z" />
    <glyph glyph-name="uni0499" unicode="&#x499;" horiz-adv-x="491" 
d="M449 145q0 -76 -52 -116.5t-151 -40.5q-141 0 -213 93l76 80q49 -57 129 -57q38 0 59 14t21 38q0 22 -18.5 35t-51.5 13h-64v100h58q55 0 55 43t-61 43q-70 0 -117 -50l-77 81q73 85 202 85q87 0 135.5 -38t48.5 -107q0 -64 -49 -104q70 -37 70 -112zM119 -182v89
q34 -2 60 -2q62 0 62 57q0 28 -13 58l53 24q67 -37 67 -109q0 -56 -42 -91.5t-113 -35.5q-41 0 -74 10z" />
    <glyph glyph-name="uni049A" unicode="&#x49a;" horiz-adv-x="673" 
d="M559 122h108v-263h-129v141h-44l-283 344v-344h-135v660h135v-306l252 306h161l-252 -310z" />
    <glyph glyph-name="uni049B" unicode="&#x49b;" horiz-adv-x="598" 
d="M473 114h93v-255h-129v141h-33l-200 265v-265h-134v495h134v-222l184 222h154l-189 -224z" />
    <glyph glyph-name="uni04A0" unicode="&#x4a0;" horiz-adv-x="840" 
d="M826 0h-163l-283 344v-344h-135v538h-231v122h366v-306l252 306h161l-253 -311z" />
    <glyph glyph-name="uni04A1" unicode="&#x4a1;" horiz-adv-x="696" 
d="M688 0h-154l-202 268v-268h-135v381h-183v114h318v-225l186 225h154l-189 -224z" />
    <glyph glyph-name="uni04A2" unicode="&#x4a2;" horiz-adv-x="750" 
d="M596 -141v141h-93v285h-292v-285h-135v660h135v-253h292v253h135v-538h88v-263h-130z" />
    <glyph glyph-name="uni04A3" unicode="&#x4a3;" horiz-adv-x="629" 
d="M469 -141v141h-82v199h-183v-199h-134v495h134v-181h183v181h134v-381h76v-255h-128z" />
    <glyph glyph-name="uni04AA" unicode="&#x4aa;" horiz-adv-x="720" 
d="M38 330q-2 142 103 243.5t249 98.5q94 0 170.5 -43.5t120.5 -120.5l-102 -72q-71 111 -189 111q-92 0 -152.5 -62t-60.5 -156t60.5 -155t152.5 -61q118 0 189 111l102 -72q-43 -77 -120 -120.5t-172 -43.5q-145 -3 -249.5 98.5t-101.5 243.5zM254 -182v89q34 -2 60 -2
q62 0 62 57q0 28 -13 58l53 24q67 -37 67 -109q0 -56 -42 -91.5t-113 -35.5q-41 0 -74 10z" />
    <glyph glyph-name="uni04AB" unicode="&#x4ab;" horiz-adv-x="552" 
d="M39 248q0 108 77 183t188 75q146 0 215 -122l-94 -73q-50 72 -119 72q-57 0 -93.5 -38.5t-36.5 -96.5q0 -59 36.5 -97.5t93.5 -38.5q69 0 119 71l94 -72q-33 -58 -88.5 -90.5t-126.5 -32.5q-109 -2 -188 75.5t-77 184.5zM162 -182v89q34 -2 60 -2q62 0 62 57q0 28 -13 58
l53 24q67 -37 67 -109q0 -56 -42 -91.5t-113 -35.5q-41 0 -74 10z" />
    <glyph glyph-name="uni04AE" unicode="&#x4ae;" horiz-adv-x="624" 
d="M607 660l-227 -400v-260h-135v259l-228 401h150l146 -262l145 262h149z" />
    <glyph glyph-name="uni04AF" unicode="&#x4af;" horiz-adv-x="559" 
d="M547 495l-201 -496v-179h-134v177l-200 498h142l126 -361l124 361h143z" />
    <glyph glyph-name="uni04B0" unicode="&#x4b0;" horiz-adv-x="624" 
d="M607 660l-225 -396h142v-113h-144v-151h-135v151h-144v113h141l-225 396h150l146 -262l145 262h149z" />
    <glyph glyph-name="uni04B1" unicode="&#x4b1;" horiz-adv-x="559" 
d="M547 495l-198 -495h123v-108h-126v-72h-134v72h-125v108h123l-198 495h142l126 -362l124 362h143z" />
    <glyph glyph-name="uni04B2" unicode="&#x4b2;" horiz-adv-x="627" 
d="M522 122h99v-263h-129v141h-45l-140 219l-140 -219h-154l219 336l-206 324h154l127 -208l126 208h153l-203 -324z" />
    <glyph glyph-name="uni04B3" unicode="&#x4b3;" horiz-adv-x="566" 
d="M442 114h92v-255h-129v141h-33l-107 157l-107 -157h-150l182 256l-170 239h150l95 -142l96 142h150l-171 -239z" />
    <glyph glyph-name="uni04B6" unicode="&#x4b6;" horiz-adv-x="695" 
d="M583 122h88v-263h-129v141h-94v243q-63 -23 -137 -23q-125 0 -194 67.5t-69 193.5v179h135v-166q0 -77 36.5 -114t113.5 -37q66 0 115 20v297h135v-538z" />
    <glyph glyph-name="uni04B7" unicode="&#x4b7;" horiz-adv-x="598" 
d="M484 114h82v-255h-128v141h-88v181q-49 -23 -108 -23q-96 0 -149.5 56.5t-53.5 158.5v122h134v-112q0 -105 91 -105q47 0 86 19v198h134v-381z" />
    <glyph glyph-name="uni04BA" unicode="&#x4ba;" horiz-adv-x="659" 
d="M611 179v-179h-135v166q0 77 -36.5 114t-113.5 37q-66 0 -115 -20v-297h-135v660h135v-243q63 23 137 23q125 0 194 -67.5t69 -193.5z" />
    <glyph glyph-name="uni04BB" unicode="&#x4bb;" horiz-adv-x="585" 
d="M522 307v-307h-134v288q0 43 -25.5 69.5t-66.5 26.5t-67.5 -26.5t-26.5 -69.5v-288h-135v750h135v-297q53 53 136 53q84 0 134 -54.5t50 -144.5z" />
    <glyph glyph-name="uni04C0" unicode="&#x4c0;" horiz-adv-x="286" 
d="M76 0v660h135v-660h-135z" />
    <glyph glyph-name="uni04C1" unicode="&#x4c1;" horiz-adv-x="991" 
d="M977 0h-163l-251 344v-344h-135v345l-252 -345h-163l268 348l-247 312h161l233 -307v307h135v-306l232 306h161l-246 -312zM322 895v15h108v-19q0 -36 17 -56t48 -20t48 20t17 56v19h107v-15q0 -77 -48 -127q-48 -49 -124 -49q-77 0 -125 49q-48 50 -48 127z" />
    <glyph glyph-name="uni04C2" unicode="&#x4c2;" horiz-adv-x="841" 
d="M833 0h-161l-188 258v-258h-134v259l-189 -259h-153l191 262l-181 233h159l173 -228v228h134v-227l173 227h158l-176 -229zM244 745v28h108v-27q0 -38 17 -58.5t48 -20.5t48 20.5t17 58.5v27h107v-28q0 -77 -48 -126q-48 -48 -124 -48q-77 0 -125 48q-48 49 -48 126z" />
    <glyph glyph-name="uni04CF" unicode="&#x4cf;" horiz-adv-x="274" 
d="M70 0v750h134v-750h-134z" />
    <glyph glyph-name="uni04D0" unicode="&#x4d0;" horiz-adv-x="661" 
d="M502 0l-37 86h-270l-37 -86h-145l295 672h45l294 -672h-145zM418 197l-88 223l-88 -223h176zM158 895v15h108v-19q0 -36 17 -56t48 -20t48 20t17 56v19h107v-15q0 -77 -48 -127q-48 -49 -124 -49q-77 0 -125 49q-48 50 -48 127z" />
    <glyph glyph-name="uni04D1" unicode="&#x4d1;" horiz-adv-x="545" 
d="M482 294v-294h-124v48q-58 -60 -151 -60q-78 0 -124.5 41t-46.5 107q0 67 50.5 105.5t136.5 38.5h124v22q0 42 -23.5 64.5t-68.5 22.5q-37 0 -67 -16t-64 -52l-70 83q86 102 216 102q98 0 155 -55.5t57 -156.5zM347 185v6h-106q-69 0 -69 -50q0 -25 19.5 -39.5
t51.5 -14.5q45 0 74.5 27.5t29.5 70.5zM98 745v28h108v-27q0 -38 17 -58.5t48 -20.5t48 20.5t17 58.5v27h107v-28q0 -77 -48 -126q-48 -48 -124 -48q-77 0 -125 48q-48 49 -48 126z" />
    <glyph glyph-name="uni04D4" unicode="&#x4d4;" horiz-adv-x="852" 
d="M568 122h244v-122h-355l-15 86h-247l-45 -86h-145l338 660h457v-122h-301l22 -134h198v-115h-179zM380 466l-129 -269h172z" />
    <glyph glyph-name="uni04D5" unicode="&#x4d5;" horiz-adv-x="878" 
d="M830 197h-345q13 -45 49.5 -69t88.5 -24q72 0 137 50l56 -92q-86 -74 -196 -74q-137 0 -208 100q-60 -100 -195 -100q-85 0 -133 41t-48 108q0 69 50.5 109t136.5 40h124v16q0 42 -23.5 64.5t-67.5 22.5q-66 0 -132 -68l-69 83q85 102 215 102q111 0 163 -73
q68 73 175 73q100 0 166 -66t66 -164q0 -45 -10 -79zM481 286h228q1 50 -28.5 80.5t-77.5 30.5q-46 0 -79 -30t-43 -81zM347 184v13h-106q-69 0 -69 -52q0 -27 19 -42t51 -15q45 0 75 27t30 69z" />
    <glyph glyph-name="uni04D6" unicode="&#x4d6;" horiz-adv-x="573" 
d="M76 0v660h444v-122h-309v-134h227v-115h-227v-167h321v-122h-456zM114 895v15h108v-19q0 -36 17 -56t48 -20t48 20t17 56v19h107v-15q0 -77 -48 -127q-48 -49 -124 -49q-77 0 -125 49q-48 50 -48 127z" />
    <glyph glyph-name="uni04D7" unicode="&#x4d7;" horiz-adv-x="569" 
d="M522 202h-347q12 -47 48.5 -72.5t90.5 -25.5q73 0 138 50l56 -92q-89 -74 -198 -74q-114 -2 -193.5 74.5t-77.5 184.5q-2 107 75 184t184 75q102 0 167.5 -66t65.5 -164q0 -36 -9 -74zM175 297h225q-1 45 -31.5 72.5t-75.5 27.5q-43 0 -75 -27t-43 -73zM112 745v28h108
v-27q0 -38 17 -58.5t48 -20.5t48 20.5t17 58.5v27h107v-28q0 -77 -48 -126q-48 -48 -124 -48q-77 0 -125 48q-48 49 -48 126z" />
    <glyph glyph-name="uni04D8" unicode="&#x4d8;" horiz-adv-x="733" 
d="M694 331q2 -141 -99.5 -243t-241.5 -100q-132 -2 -224.5 85.5t-90.5 216.5q0 44 9 87h506q-13 78 -66 124.5t-131 46.5q-116 0 -191 -102l-91 79q49 70 121.5 108.5t160.5 38.5q143 2 241.5 -98.5t96.5 -242.5zM550 267h-381q1 -72 56 -113t131 -41q72 0 124.5 42
t69.5 112z" />
    <glyph glyph-name="uni04D9" unicode="&#x4d9;" horiz-adv-x="569" 
d="M531 248q0 -109 -74.5 -184.5t-182.5 -75.5q-103 0 -169 66.5t-66 164.5q0 43 9 74h347q-25 97 -137 97q-77 0 -141 -49l-56 92q86 73 201 73q116 0 192.5 -74.5t76.5 -183.5zM396 198h-227q2 -45 33 -72.5t77 -27.5q43 0 74.5 26.5t42.5 73.5z" />
    <glyph glyph-name="uni04E2" unicode="&#x4e2;" horiz-adv-x="717" 
d="M597 672h45v-672h-135v409l-387 -421h-44v672h135v-405zM217 755v106h322v-106h-322z" />
    <glyph glyph-name="uni04E3" unicode="&#x4e3;" horiz-adv-x="595" 
d="M481 506h44v-506h-135v268l-276 -280h-44v507h134v-270zM158 622v106h302v-106h-302z" />
    <glyph glyph-name="uni04E6" unicode="&#x4e6;" horiz-adv-x="778" 
d="M38 330q-2 141 102.5 243t247.5 99q143 3 248.5 -99t103.5 -243q2 -141 -103.5 -243t-248.5 -99q-143 -3 -247.5 99t-102.5 243zM601 330q0 94 -60.5 155.5t-151.5 61.5q-92 0 -152 -61t-60 -156t60 -156t152 -61q91 0 151.5 61t60.5 156zM179 814q0 33 23.5 55.5
t56.5 22.5q34 0 58 -22.5t24 -55.5q0 -31 -24 -54t-58 -23q-31 0 -55.5 23.5t-24.5 53.5zM437 813q0 33 24 56t57 23t57 -23t24 -56q0 -31 -24 -54t-57 -23q-31 0 -56 23.5t-25 53.5z" />
    <glyph glyph-name="uni04E7" unicode="&#x4e7;" horiz-adv-x="608" 
d="M39 248q-2 106 77 183t188 75q109 2 188.5 -75t77.5 -183q2 -106 -78 -183.5t-189 -75.5q-109 -2 -187.5 75.5t-76.5 183.5zM432 247q0 58 -36.5 97t-91.5 39q-56 0 -92 -38.5t-36 -97.5q0 -58 36 -96t92 -38q55 0 91.5 38t36.5 96zM104 676q0 32 24 55t58 23
q32 0 56 -23t24 -55t-24 -55t-56 -23q-34 0 -58 23t-24 55zM342 676q0 32 24 55t58 23q32 0 56 -23t24 -55t-24 -55t-56 -23q-34 0 -58 23t-24 55z" />
    <glyph glyph-name="uni04E8" unicode="&#x4e8;" horiz-adv-x="778" 
d="M740 330q2 -141 -103.5 -243t-248.5 -99q-143 -3 -247.5 99t-102.5 243q-2 141 102.5 243t247.5 99q143 3 248.5 -99t103.5 -243zM183 396h412q-19 70 -75 112t-131 42t-131 -42t-75 -112zM599 281h-420q14 -78 71.5 -124.5t138.5 -46.5q80 0 137.5 47t72.5 124z" />
    <glyph glyph-name="uni04E9" unicode="&#x4e9;" horiz-adv-x="608" 
d="M570 248q2 -107 -78 -184t-189 -75q-109 -2 -187.5 75t-76.5 184q0 108 77 183t188 75t188.5 -75t77.5 -183zM175 298h258q-14 43 -48.5 68t-80.5 25q-47 0 -81 -25t-48 -68zM435 202h-262q13 -45 47.5 -71t82.5 -26t83.5 26.5t48.5 70.5z" />
    <glyph glyph-name="uni04EE" unicode="&#x4ee;" horiz-adv-x="648" 
d="M491 660h144l-225 -494q-47 -98 -90 -136.5t-128 -40.5q-37 0 -75 11v115q25 -3 53 -3q60 0 93 42l-246 506h151l168 -359zM178 755v106h322v-106h-322z" />
    <glyph glyph-name="uni04EF" unicode="&#x4ef;" horiz-adv-x="559" 
d="M405 495h142l-237 -538q-34 -77 -81 -113t-116 -36q-42 0 -87 12v113q41 -4 58 -4q38 0 62 15t41 52l15 34l-190 465h143l121 -325zM129 622v106h302v-106h-302z" />
    <glyph glyph-name="uni04F2" unicode="&#x4f2;" horiz-adv-x="648" 
d="M491 660h144l-225 -494q-47 -98 -90 -136.5t-128 -40.5q-37 0 -75 11v115q25 -3 53 -3q60 0 93 42l-246 506h151l168 -359zM163 724l73 186h140v-24l-122 -162h-91zM400 724l73 186h140v-24l-122 -162h-91z" />
    <glyph glyph-name="uni04F3" unicode="&#x4f3;" horiz-adv-x="559" 
d="M405 495h142l-237 -538q-34 -77 -81 -113t-116 -36q-42 0 -87 12v113q41 -4 58 -4q38 0 62 15t41 52l15 34l-190 465h143l121 -325zM121 571l73 209h140v-24l-122 -185h-91zM338 571l73 209h140v-24l-122 -185h-91z" />
    <glyph glyph-name="Wgrave" unicode="&#x1e80;" horiz-adv-x="1035" 
d="M860 660h150l-264 -672h-44l-184 414l-185 -414h-44l-264 672h150l147 -390l173 402h45l173 -400zM469 724l-137 162v24h162l73 -186h-98z" />
    <glyph glyph-name="wgrave" unicode="&#x1e81;" horiz-adv-x="857" 
d="M703 495h142l-230 -507h-44l-142 288l-143 -288h-44l-230 507h142l117 -282l135 293h45l137 -287zM380 571l-137 185v24h162l73 -209h-98z" />
    <glyph glyph-name="Wacute" unicode="&#x1e82;" horiz-adv-x="1035" 
d="M860 660h150l-264 -672h-44l-184 414l-185 -414h-44l-264 672h150l147 -390l173 402h45l173 -400zM465 724l73 186h162v-24l-137 -162h-98z" />
    <glyph glyph-name="wacute" unicode="&#x1e83;" horiz-adv-x="857" 
d="M703 495h142l-230 -507h-44l-142 288l-143 -288h-44l-230 507h142l117 -282l135 293h45l137 -287zM379 571l73 209h162v-24l-137 -185h-98z" />
    <glyph glyph-name="Wdieresis" unicode="&#x1e84;" horiz-adv-x="1035" 
d="M860 660h150l-264 -672h-44l-184 414l-185 -414h-44l-264 672h150l147 -390l173 402h45l173 -400zM308 814q0 33 23.5 55.5t56.5 22.5q34 0 58 -22.5t24 -55.5q0 -31 -24 -54t-58 -23q-31 0 -55.5 23.5t-24.5 53.5zM566 813q0 33 24 56t57 23t57 -23t24 -56
q0 -31 -24 -54t-57 -23q-31 0 -56 23.5t-25 53.5z" />
    <glyph glyph-name="wdieresis" unicode="&#x1e85;" horiz-adv-x="857" 
d="M703 495h142l-230 -507h-44l-142 288l-143 -288h-44l-230 507h142l117 -282l135 293h45l137 -287zM228 676q0 32 24 55t58 23q32 0 56 -23t24 -55t-24 -55t-56 -23q-34 0 -58 23t-24 55zM466 676q0 32 24 55t58 23q32 0 56 -23t24 -55t-24 -55t-56 -23q-34 0 -58 23
t-24 55z" />
    <glyph glyph-name="uni1E9E" unicode="&#x1e9e;" horiz-adv-x="731" 
d="M693 208q0 -97 -66.5 -158.5t-162.5 -61.5q-112 0 -195 83l72 96q52 -55 115 -55q45 0 72.5 27t27.5 72q0 49 -35.5 74.5t-101.5 25.5h-69v34l107 193h-246v-538h-135v660h566v-36l-112 -205q72 -19 117.5 -75t45.5 -136z" />
    <glyph glyph-name="Ygrave" unicode="&#x1ef2;" horiz-adv-x="624" 
d="M607 660l-227 -400v-260h-135v259l-228 401h150l146 -262l145 262h149zM262 724l-137 162v24h162l73 -186h-98z" />
    <glyph glyph-name="ygrave" unicode="&#x1ef3;" horiz-adv-x="559" 
d="M405 495h142l-237 -538q-34 -77 -81 -113t-116 -36q-42 0 -87 12v113q41 -4 58 -4q38 0 62 15t41 52l15 34l-190 465h143l121 -325zM231 571l-137 185v24h162l73 -209h-98z" />
    <glyph glyph-name="uni2009" unicode="&#x2009;" horiz-adv-x="140" 
 />
    <glyph glyph-name="endash" unicode="&#x2013;" horiz-adv-x="502" 
d="M35 264v113h432v-113h-432z" />
    <glyph glyph-name="emdash" unicode="&#x2014;" horiz-adv-x="1000" 
d="M50 264v113h900v-113h-900z" />
    <glyph glyph-name="uni2015" unicode="&#x2015;" horiz-adv-x="1000" 
d="M50 264v113h900v-113h-900z" />
    <glyph glyph-name="quoteleft" unicode="&#x2018;" horiz-adv-x="301" 
d="M59 382l56 278h103l-5 -278h-154z" />
    <glyph glyph-name="quoteright" unicode="&#x2019;" horiz-adv-x="301" 
d="M83 382l5 278h154l-56 -278h-103z" />
    <glyph glyph-name="quotesinglbase" unicode="&#x201a;" horiz-adv-x="301" 
d="M83 -155l5 278h154l-56 -278h-103z" />
    <glyph glyph-name="quotedblleft" unicode="&#x201c;" horiz-adv-x="538" 
d="M59 382l56 278h103l-5 -278h-154zM296 382l56 278h103l-5 -278h-154z" />
    <glyph glyph-name="quotedblright" unicode="&#x201d;" horiz-adv-x="538" 
d="M83 382l5 278h154l-56 -278h-103zM320 382l5 278h154l-56 -278h-103z" />
    <glyph glyph-name="quotedblbase" unicode="&#x201e;" horiz-adv-x="538" 
d="M83 -155l5 278h154l-56 -278h-103zM320 -155l5 278h154l-56 -278h-103z" />
    <glyph glyph-name="dagger" unicode="&#x2020;" horiz-adv-x="483" 
d="M174 248v243h-127v114h127v145h135v-145h127v-114h-127v-243h-135z" />
    <glyph glyph-name="daggerdbl" unicode="&#x2021;" horiz-adv-x="483" 
d="M174 164v116h-127v114h127v127h-127v114h127v115h135v-115h127v-114h-127v-127h127v-114h-127v-116h-135z" />
    <glyph glyph-name="bullet" unicode="&#x2022;" horiz-adv-x="427" 
d="M51 271q0 67 48 113t115 46q68 0 115 -46t47 -113t-47 -112.5t-115 -45.5q-67 0 -115 46t-48 112z" />
    <glyph glyph-name="ellipsis" unicode="&#x2026;" horiz-adv-x="798" 
d="M306 81q0 39 27 66t67 27q39 0 65.5 -27t26.5 -66q0 -40 -26 -66.5t-66 -26.5t-67 26.5t-27 66.5zM47 81q0 39 27 66t67 27q39 0 65.5 -27t26.5 -66q0 -40 -26 -66.5t-66 -26.5t-67 26.5t-27 66.5zM565 81q0 39 27 66t67 27q39 0 65.5 -27t26.5 -66q0 -40 -26 -66.5
t-66 -26.5t-67 26.5t-27 66.5z" />
    <glyph glyph-name="perthousand" unicode="&#x2030;" horiz-adv-x="1227" 
d="M56 508q0 69 50 116.5t121 47.5q70 0 120 -47.5t50 -116.5t-50 -117t-120 -48q-71 0 -121 48t-50 117zM187 0l379 660h109l-380 -660h-108zM293 508q0 31 -18.5 51t-46.5 20q-30 0 -48.5 -20t-18.5 -51q0 -32 18 -52t49 -20q28 0 46.5 20t18.5 52zM830 155q0 69 50 116.5
t120 47.5t120.5 -47.5t50.5 -116.5t-50 -117t-121 -48q-70 0 -120 48t-50 117zM464 154q0 69 50 116.5t120 47.5t120.5 -47.5t50.5 -116.5t-50 -117t-121 -48q-70 0 -120 48t-50 117zM1067 155q0 31 -18.5 51t-47.5 20q-30 0 -48.5 -19.5t-18.5 -51.5t18.5 -51.5t48.5 -19.5
q29 0 47.5 20t18.5 51zM700 154q0 31 -18.5 51t-46.5 20q-31 0 -49 -19.5t-18 -51.5t18 -51.5t49 -19.5q28 0 46.5 20t18.5 51z" />
    <glyph glyph-name="minute" unicode="&#x2032;" horiz-adv-x="288" 
d="M66 376l36 284h154l-87 -284h-103z" />
    <glyph glyph-name="second" unicode="&#x2033;" horiz-adv-x="525" 
d="M66 376l36 284h154l-87 -284h-103zM303 376l36 284h154l-87 -284h-103z" />
    <glyph glyph-name="guilsinglleft" unicode="&#x2039;" horiz-adv-x="340" 
d="M224 45l-195 209v36l195 210l86 -75l-135 -152l135 -153z" />
    <glyph glyph-name="guilsinglright" unicode="&#x203a;" horiz-adv-x="340" 
d="M117 45l-86 75l134 153l-134 152l86 75l194 -210v-36z" />
    <glyph glyph-name="fraction" unicode="&#x2044;" horiz-adv-x="251" 
d="M-119 0l380 660h109l-380 -660h-109z" />
    <glyph glyph-name="uni2070" unicode="&#x2070;" horiz-adv-x="421" 
d="M42 575q0 96 44 154.5t124 58.5q82 0 126 -58t44 -155q0 -96 -44 -158q-43 -61 -126 -61q-79 0 -123.5 60.5t-44.5 158.5zM277 574q0 122 -67 122q-66 0 -66 -122q0 -126 66 -126q67 0 67 126z" />
    <glyph glyph-name="uni2074" unicode="&#x2074;" horiz-adv-x="376" 
d="M365 510v-82h-50v-64h-91v64h-212v26l124 326h103l-104 -270h89l1 109h90v-109h50z" />
    <glyph glyph-name="uni2075" unicode="&#x2075;" horiz-adv-x="371" 
d="M337 504q0 -64 -47 -106t-117 -42q-53 0 -94.5 26t-63.5 72l70 49q36 -55 84 -55q30 0 47.5 14t17.5 39q0 49 -76 49h-98v230h256v-90h-160v-59q25 5 40 5q57 0 99 -36t42 -96z" />
    <glyph glyph-name="uni2076" unicode="&#x2076;" horiz-adv-x="372" 
d="M343 508q0 -64 -47 -108t-111 -44t-110 44t-46 110q0 33 13 60.5t44 68.5l103 141h117l-93 -128q50 -3 90 -44.5t40 -99.5zM243 508q0 26 -16.5 43t-41.5 17q-24 0 -40.5 -17.5t-16.5 -42.5q0 -26 16.5 -43t40.5 -17q25 0 41.5 17t16.5 43z" />
    <glyph glyph-name="uni2077" unicode="&#x2077;" horiz-adv-x="342" 
d="M28 780h296v-27l-180 -389h-108l156 326h-164v90z" />
    <glyph glyph-name="uni2078" unicode="&#x2078;" horiz-adv-x="388" 
d="M353 477q0 -56 -44 -88.5t-115 -32.5t-115 32.5t-44 88.5q0 70 74 102q-56 38 -56 96q0 52 39 82.5t102 30.5t102 -30.5t39 -82.5q0 -60 -57 -96q75 -33 75 -102zM145 670q0 -15 11 -26t38 -24q26 13 37.5 24t11.5 26q0 17 -14 27.5t-35 10.5t-35 -10.5t-14 -27.5z
M254 481q0 19 -14 31.5t-46 25.5q-33 -13 -47 -25.5t-14 -31.5q0 -44 61 -44q60 0 60 44z" />
    <glyph glyph-name="uni2079" unicode="&#x2079;" horiz-adv-x="372" 
d="M343 634q0 -32 -12.5 -58.5t-44.5 -70.5l-104 -141h-117l94 128q-51 3 -90.5 44.5t-39.5 99.5q0 64 47 108t110 44q64 0 110.5 -44t46.5 -110zM244 636q0 26 -17 43t-41 17t-41 -17t-17 -43q0 -25 17 -42.5t41 -17.5t41 17.5t17 42.5z" />
    <glyph glyph-name="uni207A" unicode="&#x207a;" horiz-adv-x="427" 
d="M162 393v134h-129v91h129v133h102v-133h129v-91h-129v-134h-102z" />
    <glyph glyph-name="uni207B" unicode="&#x207b;" horiz-adv-x="427" 
d="M33 528v89h360v-89h-360z" />
    <glyph glyph-name="uni207C" unicode="&#x207c;" horiz-adv-x="427" 
d="M41 609v91h345v-91h-345zM41 445v92h345v-92h-345z" />
    <glyph glyph-name="uni207D" unicode="&#x207d;" horiz-adv-x="275" 
d="M48 572q0 128 45.5 212.5t122.5 118.5l41 -63q-118 -76 -118 -268q0 -191 118 -269l-41 -62q-168 86 -168 331z" />
    <glyph glyph-name="uni207E" unicode="&#x207e;" horiz-adv-x="275" 
d="M60 241l-42 62q118 76 118 269q0 189 -118 268l42 63q76 -35 121.5 -119t45.5 -212t-45.5 -212.5t-121.5 -118.5z" />
    <glyph glyph-name="uni2080" unicode="&#x2080;" horiz-adv-x="421" 
d="M42 91q0 96 44 154.5t124 58.5q82 0 126 -58t44 -155q0 -95 -44 -157t-126 -62q-79 0 -123.5 60.5t-44.5 158.5zM277 90q0 122 -67 122q-66 0 -66 -122q0 -126 66 -126q67 0 67 126z" />
    <glyph glyph-name="uni2081" unicode="&#x2081;" horiz-adv-x="370" 
d="M42 -120v90h103v236h-94v90h195v-326h86v-90h-290z" />
    <glyph glyph-name="uni2082" unicode="&#x2082;" horiz-adv-x="385" 
d="M214 -30h132v-90l-313 -1v21l149 162q52 59 52 97q0 24 -13 38.5t-35 14.5t-35.5 -14.5t-13.5 -40.5q0 -1 0.5 -5t1 -10.5t0.5 -13.5h-99q-4 15 -4 35q0 56 42.5 98.5t108.5 42.5q64 0 107 -39q43 -37 43 -97q0 -41 -21.5 -78.5t-69.5 -85.5z" />
    <glyph glyph-name="uni2083" unicode="&#x2083;" horiz-adv-x="360" 
d="M326 18q0 -62 -46.5 -104t-113.5 -42q-53 0 -93.5 26t-61.5 72l69 49q37 -55 83 -55q27 0 43.5 15t16.5 39q0 48 -76 48h-48v25l78 115h-133v90h275v-27l-84 -125q40 -13 65.5 -46.5t25.5 -79.5z" />
    <glyph glyph-name="uni2084" unicode="&#x2084;" horiz-adv-x="376" 
d="M365 26v-82h-50v-64h-91v64h-212v26l124 326h103l-104 -270h89l1 109h90v-109h50z" />
    <glyph glyph-name="uni2085" unicode="&#x2085;" horiz-adv-x="371" 
d="M337 20q0 -64 -47 -106t-117 -42q-53 0 -94.5 26t-63.5 72l70 49q36 -55 84 -55q30 0 47.5 14t17.5 39q0 49 -76 49h-98v230h256v-90h-160v-59q25 5 40 5q57 0 99 -36t42 -96z" />
    <glyph glyph-name="uni2086" unicode="&#x2086;" horiz-adv-x="372" 
d="M343 24q0 -64 -47 -108t-111 -44t-110 44t-46 110q0 33 13 60.5t44 68.5l103 141h117l-93 -128q50 -3 90 -44.5t40 -99.5zM243 24q0 26 -16.5 43t-41.5 17q-24 0 -40.5 -17.5t-16.5 -42.5q0 -26 16.5 -43t40.5 -17q25 0 41.5 17t16.5 43z" />
    <glyph glyph-name="uni2087" unicode="&#x2087;" horiz-adv-x="342" 
d="M28 296h296v-27l-180 -389h-108l156 326h-164v90z" />
    <glyph glyph-name="uni2088" unicode="&#x2088;" horiz-adv-x="388" 
d="M353 -7q0 -56 -44 -88.5t-115 -32.5t-115 32.5t-44 88.5q0 70 74 102q-56 38 -56 96q0 52 39 82.5t102 30.5t102 -30.5t39 -82.5q0 -60 -57 -96q75 -33 75 -102zM145 186q0 -15 11 -26t38 -24q26 13 37.5 24t11.5 26q0 17 -14 27.5t-35 10.5t-35 -10.5t-14 -27.5zM254 -3
q0 19 -14 31.5t-46 25.5q-33 -13 -47 -25.5t-14 -31.5q0 -44 61 -44q60 0 60 44z" />
    <glyph glyph-name="uni2089" unicode="&#x2089;" horiz-adv-x="372" 
d="M343 150q0 -32 -12.5 -58.5t-44.5 -70.5l-104 -141h-117l94 128q-51 3 -90.5 44.5t-39.5 99.5q0 64 47 108t110 44q64 0 110.5 -44t46.5 -110zM244 152q0 26 -17 43t-41 17t-41 -17t-17 -43q0 -25 17 -42.5t41 -17.5t41 17.5t17 42.5z" />
    <glyph glyph-name="uni208A" unicode="&#x208a;" horiz-adv-x="427" 
d="M162 -92v134h-129v91h129v133h102v-133h129v-91h-129v-134h-102z" />
    <glyph glyph-name="uni208B" unicode="&#x208b;" horiz-adv-x="427" 
d="M33 43v89h360v-89h-360z" />
    <glyph glyph-name="uni208C" unicode="&#x208c;" horiz-adv-x="427" 
d="M41 124v91h345v-91h-345zM41 -40v92h345v-92h-345z" />
    <glyph glyph-name="uni208D" unicode="&#x208d;" horiz-adv-x="275" 
d="M48 87q0 128 45.5 212.5t122.5 118.5l41 -63q-118 -76 -118 -268q0 -191 118 -269l-41 -62q-168 86 -168 331z" />
    <glyph glyph-name="uni208E" unicode="&#x208e;" horiz-adv-x="275" 
d="M60 -244l-42 62q118 76 118 269q0 189 -118 268l42 63q76 -35 121.5 -119t45.5 -212t-45.5 -212.5t-121.5 -118.5z" />
    <glyph glyph-name="lira" unicode="&#x20a4;" horiz-adv-x="569" 
d="M272 108h253v-108h-483v29q102 74 124 139h-114v91h116q-6 25 -24 59h-92v90h48q-12 36 -12 71q0 86 62 139.5t156 53.5q85 0 145 -46.5t84 -134.5l-113 -41q-31 97 -107 97q-41 0 -65.5 -25t-24.5 -65q0 -22 9 -49h177v-90h-130q15 -26 23 -59h107v-91h-110
q-9 -30 -29 -60z" />
    <glyph glyph-name="peseta" unicode="&#x20a7;" horiz-adv-x="626" 
d="M626 475v-109h-79q-18 -84 -89 -136q-71 -50 -172 -50h-57v-180h-135v366h-78v109h78v185h192q102 0 172.5 -50t88.5 -135h79zM286 547h-57v-79h185q-24 79 -128 79zM415 373h-186v-80h57q105 0 129 80z" />
    <glyph glyph-name="Euro" unicode="&#x20ac;" horiz-adv-x="676" 
d="M543 185l94 -73q-34 -58 -98 -91t-144 -33q-106 0 -183.5 57.5t-110.5 156.5h-99v96h80q-1 7 -1 33q0 21 1 27h-79v96h96q31 101 109.5 159.5t186.5 58.5q80 0 144 -33t98 -91l-94 -73q-52 72 -144 72q-104 0 -153 -93h236l-26 -96h-236q-1 -6 -1 -28q0 -6 2 -32h217
l-26 -96h-163q49 -89 150 -89q92 0 144 72z" />
    <glyph glyph-name="uni20AE" unicode="&#x20ae;" horiz-adv-x="585" 
d="M572 538h-212v-115l161 48v-113l-161 -48v-62l161 49v-114l-161 -48v-135h-135v103l-161 -48v114l161 47v62l-161 -48v114l161 47v147h-211v122h558v-122z" />
    <glyph glyph-name="uni20B4" unicode="&#x20b4;" horiz-adv-x="540" 
d="M474 452h58v-95h-523v95h322q10 13 10 32q0 29 -21 46t-58 17q-72 0 -129 -57l-72 88q71 94 202 94q96 0 156.5 -52t60.5 -134q0 -20 -6 -34zM9 204v94h523v-94h-345q-2 -18 -2 -20q0 -34 23 -52.5t66 -18.5q98 0 167 67l66 -89q-89 -103 -233 -103q-104 0 -166 53
q-62 54 -62 143q0 10 2 20h-39z" />
    <glyph glyph-name="uni20B8" unicode="&#x20b8;" horiz-adv-x="585" 
d="M14 538v122h558v-122h-558zM225 0v357h-211v121h558v-121h-212v-357h-135z" />
    <glyph glyph-name="uni20B9" unicode="&#x20b9;" horiz-adv-x="537" 
d="M463 564h-105q17 -25 28 -64h77v-97h-76q-12 -63 -54.5 -104.5t-109.5 -57.5l240 -241h-168l-233 233v102h77q83 0 107 68h-185v97h183q-26 60 -105 60h-77v100h401v-96z" />
    <glyph glyph-name="uni20BA" unicode="&#x20ba;" horiz-adv-x="538" 
d="M511 239q0 -119 -92.5 -184.5t-258.5 -65.5h-63v224l-85 -39v113l85 39v62l-85 -39v113l85 39v159h135v-106l169 77v-113l-169 -78v-61l169 78v-114l-169 -77v-150q76 9 119.5 45t43.5 90q0 21 -3 47h111q8 -26 8 -59z" />
    <glyph glyph-name="uni20BD" unicode="&#x20bd;" horiz-adv-x="599" 
d="M94 0v103h-78v108h78v63h-78v114h78v272h253q95 0 153 -52q60 -52 60 -141q0 -88 -59.5 -140.5t-153.5 -52.5h-118v-63h252v-108h-252v-103h-135zM229 388h109q39 0 63 21t24 57q0 37 -24 58.5t-63 21.5h-109v-158z" />
    <glyph glyph-name="uni20BF" unicode="&#x20bf;" horiz-adv-x="580" 
d="M407 42v-139h-101v130h-63v-130h-100v130h-67v595h67v121h100v-121h63v121h101v-144q88 -44 88 -144q0 -70 -50 -112q91 -43 91 -142q0 -60 -34.5 -104t-94.5 -61zM297 522h-103v-134h103q36 0 56.5 18t20.5 50q0 66 -77 66zM415 212q0 35 -22 55t-61 20h-138v-149h138
q39 0 61 19.5t22 54.5z" />
    <glyph glyph-name="uni2113" unicode="&#x2113;" horiz-adv-x="496" 
d="M337 109q28 0 98 10v-113q-67 -18 -124 -18q-93 0 -144.5 44.5t-56.5 131.5l-52 -34l-60 105l111 76v234q0 108 49.5 162.5t139.5 54.5q167 0 167 -175q0 -93 -52 -173.5t-169 -170.5v-45q0 -89 93 -89zM244 551v-152q57 51 81 92.5t24 89.5q0 67 -46 67q-59 0 -59 -97z
" />
    <glyph glyph-name="uni2116" unicode="&#x2116;" horiz-adv-x="1123" 
d="M503 266v394h135v-672h-45l-382 408v-396h-135v672h44zM744 401q0 70 49.5 117t120.5 47q70 0 120 -47.5t50 -116.5t-50 -117t-120 -48q-71 0 -120.5 47.5t-49.5 117.5zM846 401q0 -31 19 -51t49 -20t49 20t19 51t-19 51t-49 20t-49 -20t-19 -51zM752 84v85h324v-85h-324
z" />
    <glyph glyph-name="uni2117" unicode="&#x2117;" horiz-adv-x="778" 
d="M38 329q-3 141 103.5 243t246.5 100q141 3 248 -99.5t104 -242.5q3 -140 -104 -242.5t-248 -99.5q-141 -2 -247 99.5t-103 241.5zM652 329q2 114 -78 189.5t-186 73.5q-107 2 -185.5 -73.5t-76.5 -189.5q-2 -114 76.5 -188.5t185.5 -72.5q106 -2 186 73t78 188zM267 154
v350h150q62 0 101.5 -34t39.5 -89t-39.5 -89t-101.5 -34h-59v-104h-91zM358 338h59q22 0 35 11.5t13 31.5t-13 32t-35 12h-59v-87z" />
    <glyph glyph-name="trademark" unicode="&#x2122;" horiz-adv-x="966" 
d="M459 211v457h37l191 -237l191 237h35v-457h-112v202l-97 -122h-36l-96 122v-202h-113zM146 211v348h-137v101h386v-101h-137v-348h-112z" />
    <glyph glyph-name="uni2126" unicode="&#x2126;" horiz-adv-x="788" 
d="M628 122h107v-122h-284v122q155 74 155 218q0 90 -60.5 148.5t-152.5 58.5q-93 0 -152 -57.5t-59 -147.5q0 -146 155 -220v-122h-284v122h101q-111 90 -111 225q-3 134 101.5 230.5t248.5 94.5q143 2 249 -95t103 -230q0 -132 -117 -225z" />
    <glyph glyph-name="estimated" unicode="&#x212e;" horiz-adv-x="795" 
d="M731 327h-544v-198q75 -104 219 -104q76 0 142.5 31t112.5 86l26 -23q-49 -61 -122.5 -95t-157.5 -34q-146 -2 -248 97.5t-99 238.5q-3 140 101.5 243.5t240.5 100.5q81 2 158 -35t127 -105.5t48 -148.5q0 -33 -4 -54zM187 530v-168h421v183q-75 89 -201 89
q-142 0 -220 -104z" />
    <glyph glyph-name="uni2150" unicode="&#x2150;" horiz-adv-x="963" 
d="M42 244v90h103v236h-94v90h195v-326h86v-90h-290zM251 0l380 660h109l-380 -660h-109zM649 416h296v-27l-180 -389h-108l156 326h-164v90z" />
    <glyph glyph-name="uni2151" unicode="&#x2151;" horiz-adv-x="963" 
d="M42 244v90h103v236h-94v90h195v-326h86v-90h-290zM251 0l380 660h109l-380 -660h-109zM934 270q0 -32 -12.5 -58.5t-44.5 -70.5l-104 -141h-117l94 128q-51 3 -90.5 44.5t-39.5 99.5q0 64 47 108t110 44q64 0 110.5 -44t46.5 -110zM835 272q0 26 -17 43t-41 17t-41 -17
t-17 -43q0 -25 17 -42.5t41 -17.5t41 17.5t17 42.5z" />
    <glyph glyph-name="uni2152" unicode="&#x2152;" horiz-adv-x="1413" 
d="M42 244v90h103v236h-94v90h195v-326h86v-90h-290zM251 0l380 660h109l-380 -660h-109zM663 0v90h103v236h-94v90h195v-326h86v-90h-290zM1034 211q0 96 44 154.5t124 58.5q82 0 126 -58t44 -155q0 -96 -44 -158q-43 -61 -126 -61q-79 0 -123.5 60.5t-44.5 158.5z
M1269 210q0 122 -67 122q-66 0 -66 -122q0 -126 66 -126q67 0 67 126z" />
    <glyph glyph-name="uni2153" unicode="&#x2153;" horiz-adv-x="981" 
d="M42 244v90h103v236h-94v90h195v-326h86v-90h-290zM251 0l380 660h109l-380 -660h-109zM947 138q0 -62 -46.5 -104t-113.5 -42q-53 0 -93.5 26t-61.5 72l69 49q37 -55 83 -55q27 0 43.5 15t16.5 39q0 48 -76 48h-48v25l78 115h-133v90h275v-27l-84 -125q40 -13 65.5 -46.5
t25.5 -79.5z" />
    <glyph glyph-name="uni2154" unicode="&#x2154;" horiz-adv-x="996" 
d="M214 334h132v-90l-313 -1v21l149 162q52 59 52 97q0 24 -13 38.5t-35 14.5t-35.5 -14.5t-13.5 -40.5q0 -1 0.5 -5t1 -10.5t0.5 -13.5h-99q-4 15 -4 35q0 56 42.5 98.5t108.5 42.5q64 0 107 -39q43 -37 43 -97q0 -41 -21.5 -78.5t-69.5 -85.5zM266 0l380 660h109
l-380 -660h-109zM962 138q0 -62 -46.5 -104t-113.5 -42q-53 0 -93.5 26t-61.5 72l69 49q37 -55 83 -55q27 0 43.5 15t16.5 39q0 48 -76 48h-48v25l78 115h-133v90h275v-27l-84 -125q40 -13 65.5 -46.5t25.5 -79.5z" />
    <glyph glyph-name="uni2155" unicode="&#x2155;" horiz-adv-x="984" 
d="M42 244v90h103v236h-94v90h195v-326h86v-90h-290zM251 0l380 660h109l-380 -660h-109zM950 140q0 -64 -47 -106t-117 -42q-53 0 -94.5 26t-63.5 72l70 49q36 -55 84 -55q30 0 47.5 14t17.5 39q0 49 -76 49h-98v230h256v-90h-160v-59q25 5 40 5q57 0 99 -36t42 -96z" />
    <glyph glyph-name="uni2156" unicode="&#x2156;" horiz-adv-x="998" 
d="M214 334h132v-90l-313 -1v21l149 162q52 59 52 97q0 24 -13 38.5t-35 14.5t-35.5 -14.5t-13.5 -40.5q0 -1 0.5 -5t1 -10.5t0.5 -13.5h-99q-4 15 -4 35q0 56 42.5 98.5t108.5 42.5q64 0 107 -39q43 -37 43 -97q0 -41 -21.5 -78.5t-69.5 -85.5zM266 0l380 660h109
l-380 -660h-109zM965 140q0 -64 -47 -106t-117 -42q-53 0 -94.5 26t-63.5 72l70 49q36 -55 84 -55q30 0 47.5 14t17.5 39q0 49 -76 49h-98v230h256v-90h-160v-59q25 5 40 5q57 0 99 -36t42 -96z" />
    <glyph glyph-name="uni2157" unicode="&#x2157;" horiz-adv-x="939" 
d="M326 382q0 -62 -46.5 -104t-113.5 -42q-53 0 -93.5 26t-61.5 72l69 49q37 -55 83 -55q27 0 43.5 15t16.5 39q0 48 -76 48h-48v25l78 115h-133v90h275v-27l-84 -125q40 -13 65.5 -46.5t25.5 -79.5zM206 0l380 660h109l-380 -660h-109zM905 140q0 -64 -47 -106t-117 -42
q-53 0 -94.5 26t-63.5 72l70 49q36 -55 84 -55q30 0 47.5 14t17.5 39q0 49 -76 49h-98v230h256v-90h-160v-59q25 5 40 5q57 0 99 -36t42 -96z" />
    <glyph glyph-name="uni2158" unicode="&#x2158;" horiz-adv-x="999" 
d="M365 390v-82h-50v-64h-91v64h-212v26l124 326h103l-104 -270h89l1 109h90v-109h50zM267 0l380 660h109l-380 -660h-109zM966 140q0 -64 -47 -106t-117 -42q-53 0 -94.5 26t-63.5 72l70 49q36 -55 84 -55q30 0 47.5 14t17.5 39q0 49 -76 49h-98v230h256v-90h-160v-59
q25 5 40 5q57 0 99 -36t42 -96z" />
    <glyph glyph-name="uni2159" unicode="&#x2159;" horiz-adv-x="913" 
d="M42 244v90h103v236h-94v90h195v-326h86v-90h-290zM251 0l380 660h109l-380 -660h-109zM884 144q0 -64 -47 -108t-111 -44t-110 44t-46 110q0 33 13 60.5t44 68.5l103 141h117l-93 -128q50 -3 90 -44.5t40 -99.5zM784 144q0 26 -16.5 43t-41.5 17q-24 0 -40.5 -17.5
t-16.5 -42.5q0 -26 16.5 -43t40.5 -17q25 0 41.5 17t16.5 43z" />
    <glyph glyph-name="uni215A" unicode="&#x215a;" horiz-adv-x="878" 
d="M337 384q0 -64 -47 -106t-117 -42q-53 0 -94.5 26t-63.5 72l70 49q36 -55 84 -55q30 0 47.5 14t17.5 39q0 49 -76 49h-98v230h256v-90h-160v-59q25 5 40 5q57 0 99 -36t42 -96zM217 0l380 660h109l-380 -660h-109zM850 144q0 -64 -47 -108t-111 -44t-110 44t-46 110
q0 33 13 60.5t44 68.5l103 141h117l-93 -128q50 -3 90 -44.5t40 -99.5zM750 144q0 26 -16.5 43t-41.5 17q-24 0 -40.5 -17.5t-16.5 -42.5q0 -26 16.5 -43t40.5 -17q25 0 41.5 17t16.5 43z" />
    <glyph glyph-name="oneeighth" unicode="&#x215b;" horiz-adv-x="964" 
d="M42 244v90h103v236h-94v90h195v-326h86v-90h-290zM251 0l380 660h109l-380 -660h-109zM929 113q0 -56 -44 -88.5t-115 -32.5t-115 32.5t-44 88.5q0 70 74 102q-56 38 -56 96q0 52 39 82.5t102 30.5t102 -30.5t39 -82.5q0 -60 -57 -96q75 -33 75 -102zM721 306
q0 -15 11 -26t38 -24q26 13 37.5 24t11.5 26q0 17 -14 27.5t-35 10.5t-35 -10.5t-14 -27.5zM830 117q0 19 -14 31.5t-46 25.5q-33 -13 -47 -25.5t-14 -31.5q0 -44 61 -44q60 0 60 44z" />
    <glyph glyph-name="threeeighths" unicode="&#x215c;" horiz-adv-x="919" 
d="M326 382q0 -62 -46.5 -104t-113.5 -42q-53 0 -93.5 26t-61.5 72l69 49q37 -55 83 -55q27 0 43.5 15t16.5 39q0 48 -76 48h-48v25l78 115h-133v90h275v-27l-84 -125q40 -13 65.5 -46.5t25.5 -79.5zM206 0l380 660h109l-380 -660h-109zM884 113q0 -56 -44 -88.5t-115 -32.5
t-115 32.5t-44 88.5q0 70 74 102q-56 38 -56 96q0 52 39 82.5t102 30.5t102 -30.5t39 -82.5q0 -60 -57 -96q75 -33 75 -102zM676 306q0 -15 11 -26t38 -24q26 13 37.5 24t11.5 26q0 17 -14 27.5t-35 10.5t-35 -10.5t-14 -27.5zM785 117q0 19 -14 31.5t-46 25.5
q-33 -13 -47 -25.5t-14 -31.5q0 -44 61 -44q60 0 60 44z" />
    <glyph glyph-name="fiveeighths" unicode="&#x215d;" horiz-adv-x="930" 
d="M337 384q0 -64 -47 -106t-117 -42q-53 0 -94.5 26t-63.5 72l70 49q36 -55 84 -55q30 0 47.5 14t17.5 39q0 49 -76 49h-98v230h256v-90h-160v-59q25 5 40 5q57 0 99 -36t42 -96zM217 0l380 660h109l-380 -660h-109zM895 113q0 -56 -44 -88.5t-115 -32.5t-115 32.5
t-44 88.5q0 70 74 102q-56 38 -56 96q0 52 39 82.5t102 30.5t102 -30.5t39 -82.5q0 -60 -57 -96q75 -33 75 -102zM687 306q0 -15 11 -26t38 -24q26 13 37.5 24t11.5 26q0 17 -14 27.5t-35 10.5t-35 -10.5t-14 -27.5zM796 117q0 19 -14 31.5t-46 25.5q-33 -13 -47 -25.5
t-14 -31.5q0 -44 61 -44q60 0 60 44z" />
    <glyph glyph-name="seveneighths" unicode="&#x215e;" horiz-adv-x="838" 
d="M28 660h296v-27l-180 -389h-108l156 326h-164v90zM125 0l380 660h109l-380 -660h-109zM803 113q0 -56 -44 -88.5t-115 -32.5t-115 32.5t-44 88.5q0 70 74 102q-56 38 -56 96q0 52 39 82.5t102 30.5t102 -30.5t39 -82.5q0 -60 -57 -96q75 -33 75 -102zM595 306
q0 -15 11 -26t38 -24q26 13 37.5 24t11.5 26q0 17 -14 27.5t-35 10.5t-35 -10.5t-14 -27.5zM704 117q0 19 -14 31.5t-46 25.5q-33 -13 -47 -25.5t-14 -31.5q0 -44 61 -44q60 0 60 44z" />
    <glyph glyph-name="arrowleft" unicode="&#x2190;" horiz-adv-x="650" 
d="M605 264h-297l-69 3l159 -159l-79 -79l-279 278v26l279 279l79 -80l-157 -157l67 3h297v-114z" />
    <glyph glyph-name="arrowup" unicode="&#x2191;" horiz-adv-x="650" 
d="M616 324l-80 -80l-152 153l2 -64v-293h-122v293l2 64l-152 -153l-80 80l278 278h26z" />
    <glyph glyph-name="arrowright" unicode="&#x2192;" horiz-adv-x="650" 
d="M331 612l279 -279v-26l-279 -278l-79 79l159 159l-69 -3h-297v114h297l67 -3l-157 157z" />
    <glyph glyph-name="arrowdown" unicode="&#x2193;" horiz-adv-x="650" 
d="M536 397l80 -79l-278 -279h-26l-278 279l80 79l152 -153l-2 64v294h122v-294l-2 -64z" />
    <glyph glyph-name="arrowboth" unicode="&#x2194;" horiz-adv-x="972" 
d="M643 612l279 -279v-26l-279 -278l-79 79l159 159l-68 -3h-347l-69 3l159 -159l-79 -79l-279 278v26l279 279l79 -80l-157 -157l67 3h347l66 -3l-157 157z" />
    <glyph glyph-name="arrowupdn" unicode="&#x2195;" horiz-adv-x="650" 
d="M385 133l147 148l80 -79l-274 -275h-26l-274 275l80 79l148 -149l-2 64v268l2 64l-148 -149l-80 79l274 275h26l274 -275l-80 -79l-147 148l2 -63v-268z" />
    <glyph glyph-name="uni2196" unicode="&#x2196;" horiz-adv-x="650" 
d="M344 374l237 -237l-83 -83l-236 236l-39 43v-231h-117v410l18 18h404v-113h-231z" />
    <glyph glyph-name="uni2197" unicode="&#x2197;" horiz-adv-x="650" 
d="M526 530l18 -18v-410h-117v231l-39 -43l-236 -236l-83 83l237 237l47 43h-231v113h404z" />
    <glyph glyph-name="uni2198" unicode="&#x2198;" horiz-adv-x="650" 
d="M427 520h117v-410l-18 -19h-404v114h231l-47 43l-237 237l83 83l236 -236l39 -43v231z" />
    <glyph glyph-name="uni2199" unicode="&#x2199;" horiz-adv-x="650" 
d="M344 248l-47 -43h231v-114h-404l-18 19v410h117v-231l39 43l236 236l83 -83z" />
    <glyph glyph-name="partialdiff" unicode="&#x2202;" horiz-adv-x="629" 
d="M573 363q2 -160 -85 -268.5t-219 -106.5q-95 0 -158.5 54.5t-63.5 149.5q0 96 67.5 156t181.5 60q66 0 138 -21q-6 163 -124 163q-69 0 -126 -69l-85 72q71 119 217 119q119 0 188 -82.5t69 -226.5zM428 274q-76 17 -125 17q-59 0 -89 -25.5t-30 -68.5q0 -40 25.5 -65.5
t69.5 -25.5q55 0 95 43.5t54 124.5z" />
    <glyph glyph-name="uni2206" unicode="&#x2206;" horiz-adv-x="661" 
d="M353 672l278 -636v-36h-602v36l279 636h45zM450 122l-119 279l-120 -279h239z" />
    <glyph glyph-name="product" unicode="&#x220f;" horiz-adv-x="701" 
d="M76 -121v781h549v-781h-135v659h-279v-659h-135z" />
    <glyph glyph-name="summation" unicode="&#x2211;" horiz-adv-x="570" 
d="M242 1h287v-122h-494v30l210 371l-210 350v30h482v-122h-271l146 -242v-30z" />
    <glyph glyph-name="minus" unicode="&#x2212;" 
d="M44 264v114h471v-114h-471z" />
    <glyph glyph-name="uni2219" unicode="&#x2219;" horiz-adv-x="280" 
d="M47 320q0 39 27 66t67 27q39 0 65.5 -27t26.5 -66q0 -40 -26 -66.5t-66 -26.5t-67 26.5t-27 66.5z" />
    <glyph glyph-name="radical" unicode="&#x221a;" horiz-adv-x="734" 
d="M609 750h122l-513 -883h-44v309h-164v108h273v-94z" />
    <glyph glyph-name="infinity" unicode="&#x221e;" horiz-adv-x="877" 
d="M859 319q0 -82 -57 -140t-149 -58q-63 0 -113.5 29t-101.5 87q-51 -58 -101.5 -87t-113.5 -29q-91 0 -148 58t-57 140q0 83 57 141t149 58q64 0 114 -28t100 -85q50 57 100 85t113 28q93 0 150.5 -58.5t57.5 -140.5zM368 321q-36 40 -65.5 59t-64.5 19q-40 0 -64.5 -21
t-24.5 -57q0 -37 24.5 -59t65.5 -22q60 0 129 81zM728 321q0 37 -24 57.5t-66 20.5q-62 0 -129 -78q70 -81 130 -81q40 0 64.5 22t24.5 59z" />
    <glyph glyph-name="integral" unicode="&#x222b;" horiz-adv-x="359" 
d="M2 -121v113l50 -2q92 0 92 98q0 49 -31 231l-14 85q-22 133 -22 194q0 94 52 143t147 49q45 0 81 -10v-113l-50 2q-92 0 -92 -98q0 -47 30 -218q37 -220 37 -292q0 -94 -52 -143t-146 -49q-46 0 -82 10z" />
    <glyph glyph-name="approxequal" unicode="&#x2248;" 
d="M312 348l-88 53q-35 23 -55 23q-33 0 -33 -39v-19h-103q-2 34 -2 37q0 62 34 102q35 41 86 41q41 0 85 -26l88 -54q38 -22 55 -22q15 0 24.5 11t9.5 27v20h102q3 -19 3 -37q0 -62 -34.5 -102.5t-86.5 -40.5q-42 0 -85 26zM312 119l-88 53q-35 23 -55 23q-33 0 -33 -39
v-19h-103q-2 34 -2 37q0 62 34 102q35 41 86 41q41 0 85 -26l88 -54q38 -22 55 -22q15 0 24.5 11t9.5 27v20h102q3 -19 3 -37q0 -62 -34.5 -102.5t-86.5 -40.5q-42 0 -85 26z" />
    <glyph glyph-name="notequal" unicode="&#x2260;" 
d="M506 371h-136l-60 -101h196v-114h-265l-60 -100h-119l60 100h-67v114h136l61 101h-197v114h266l59 98h118l-59 -98h67v-114z" />
    <glyph glyph-name="lessequal" unicode="&#x2264;" 
d="M502 560v-116l-229 -83l229 -83v-116l-464 181v36zM51 0v108h451v-108h-451z" />
    <glyph glyph-name="greaterequal" unicode="&#x2265;" 
d="M58 560l464 -181v-36l-464 -181v116l229 83l-229 83v116zM58 0v108h451v-108h-451z" />
    <glyph glyph-name="uni24EA" unicode="&#x24ea;" horiz-adv-x="978" 
d="M57 330q-2 115 56.5 215.5t159.5 159.5t216 57q114 2 214.5 -57t159.5 -160t57 -215q2 -114 -57 -215t-159.5 -160t-214.5 -57q-86 -2 -166.5 32.5t-139.5 93.5t-93.5 139.5t-32.5 166.5zM815 330q2 138 -95 235t-231 95q-134 2 -231 -95t-95 -235q-2 -138 95 -235
t231 -95q134 -2 231 95t95 235zM306 333q0 104 48 166.5t135 62.5t135 -62.5t48 -166.5q0 -102 -47 -170q-47 -66 -136 -66q-90 0 -136 66q-47 68 -47 170zM562 332q0 130 -73 130q-72 0 -72 -130q0 -135 72 -135q73 0 73 135z" />
    <glyph glyph-name="uni24FF" unicode="&#x24ff;" horiz-adv-x="978" 
d="M57 330q-2 115 56.5 215.5t159.5 159.5t216 57q114 2 214.5 -57t159.5 -160t57 -215q2 -114 -57 -215t-159.5 -160t-214.5 -57q-86 -2 -166.5 32.5t-139.5 93.5t-93.5 139.5t-32.5 166.5zM673 333q0 104 -48 166.5t-136 62.5t-136 -62.5t-48 -166.5q0 -102 47 -170
q46 -66 137 -66q89 0 136 66q48 67 48 170zM419 332q0 128 70 128q71 0 71 -128q0 -133 -71 -133q-70 0 -70 133z" />
    <glyph glyph-name="filledbox" unicode="&#x25a0;" horiz-adv-x="730" 
d="M90 55v550h550v-550h-550z" />
    <glyph glyph-name="uni25A1" unicode="&#x25a1;" horiz-adv-x="730" 
d="M90 55v550h550v-550h-550zM207 167h316v326h-316v-326z" />
    <glyph glyph-name="uni25AA" unicode="&#x25aa;" horiz-adv-x="530" 
d="M74 58v380h381v-380h-381z" />
    <glyph glyph-name="uni25AB" unicode="&#x25ab;" horiz-adv-x="530" 
d="M74 58v380h381v-380h-381zM183 163h163v169h-163v-169z" />
    <glyph glyph-name="triagup" unicode="&#x25b2;" horiz-adv-x="730" 
d="M29 55l-9 16l336 589h18l336 -589l-9 -16h-672z" />
    <glyph glyph-name="uni25B3" unicode="&#x25b3;" horiz-adv-x="730" 
d="M374 660l336 -589l-9 -16h-672l-9 16l336 589h18zM521 170l-156 273l-156 -273h312z" />
    <glyph glyph-name="uni25B4" unicode="&#x25b4;" horiz-adv-x="530" 
d="M35 58l-9 16l230 403h18l230 -403l-9 -16h-460z" />
    <glyph glyph-name="uni25B5" unicode="&#x25b5;" horiz-adv-x="530" 
d="M274 477l230 -403l-9 -16h-460l-9 16l230 403h18zM352 145l-87 154l-87 -154h174z" />
    <glyph glyph-name="uni25B6" unicode="&#x25b6;" horiz-adv-x="730" 
d="M136 -12l-16 9v666l16 9l516 -333v-18z" />
    <glyph glyph-name="uni25B7" unicode="&#x25b7;" horiz-adv-x="730" 
d="M136 672l516 -333v-18l-516 -333l-16 9v666zM455 330l-218 140v-281z" />
    <glyph glyph-name="uni25B8" unicode="&#x25b8;" horiz-adv-x="530" 
d="M126 13l-16 8v454l16 9l353 -227v-18z" />
    <glyph glyph-name="uni25B9" unicode="&#x25b9;" horiz-adv-x="530" 
d="M126 484l353 -227v-18l-353 -226l-16 8v454zM323 248l-123 79v-157z" />
    <glyph glyph-name="triagrt" unicode="&#x25ba;" horiz-adv-x="961" 
d="M116 -12l-16 9v666l16 9l825 -333v-18z" />
    <glyph glyph-name="uni25BB" unicode="&#x25bb;" horiz-adv-x="961" 
d="M116 672l825 -333v-18l-825 -333l-16 9v666zM655 330l-438 177v-354z" />
    <glyph glyph-name="triagdn" unicode="&#x25bc;" horiz-adv-x="730" 
d="M29 605h672l9 -16l-336 -589h-18l-336 589z" />
    <glyph glyph-name="uni25BD" unicode="&#x25bd;" horiz-adv-x="730" 
d="M701 605l9 -16l-336 -589h-18l-336 589l9 16h672zM521 490h-312l156 -273z" />
    <glyph glyph-name="uni25BE" unicode="&#x25be;" horiz-adv-x="530" 
d="M256 19l-230 403l9 16h460l9 -16l-230 -403h-18z" />
    <glyph glyph-name="uni25BF" unicode="&#x25bf;" horiz-adv-x="530" 
d="M495 438l9 -16l-230 -403h-18l-230 403l9 16h460zM352 350h-173l86 -153z" />
    <glyph glyph-name="uni25C0" unicode="&#x25c0;" horiz-adv-x="730" 
d="M594 -12l-516 333v18l516 333l16 -9v-666z" />
    <glyph glyph-name="uni25C1" unicode="&#x25c1;" horiz-adv-x="730" 
d="M594 672l16 -9v-666l-16 -9l-516 333v18zM493 470l-218 -140l218 -141v281z" />
    <glyph glyph-name="uni25C2" unicode="&#x25c2;" horiz-adv-x="530" 
d="M404 13l-353 226v18l353 227l16 -9v-454z" />
    <glyph glyph-name="uni25C3" unicode="&#x25c3;" horiz-adv-x="530" 
d="M404 484l16 -9v-454l-16 -8l-353 226v18zM330 170v157l-123 -79z" />
    <glyph glyph-name="triaglf" unicode="&#x25c4;" horiz-adv-x="961" 
d="M845 -12l-825 333v18l825 333l16 -9v-666z" />
    <glyph glyph-name="uni25C5" unicode="&#x25c5;" horiz-adv-x="961" 
d="M845 672l16 -9v-666l-16 -9l-825 333v18zM744 507l-438 -177l438 -177v354z" />
    <glyph glyph-name="lozenge" unicode="&#x25ca;" horiz-adv-x="665" 
d="M355 672l213 -342l-213 -342h-45l-213 342l213 342h45zM232 330l104 -164l99 164l-101 163z" />
    <glyph glyph-name="circle" unicode="&#x25cb;" horiz-adv-x="730" 
d="M35 330q-3 131 98 231.5t233 97.5q131 3 231 -97t97 -231q3 -132 -97 -233t-231 -98q-131 -3 -232.5 98t-98.5 232zM578 331q0 89 -62 152t-150 63q-89 0 -152 -63.5t-63 -152.5q0 -90 62.5 -153.5t151.5 -63.5t151 63.5t62 154.5z" />
    <glyph glyph-name="uni25CF" unicode="&#x25cf;" horiz-adv-x="730" 
d="M35 330q-3 131 98 231.5t233 97.5q131 3 231 -97t97 -231q3 -132 -97 -233t-231 -98q-131 -3 -232.5 98t-98.5 232z" />
    <glyph glyph-name="uni261C" unicode="&#x261c;" horiz-adv-x="1210" 
d="M1177 285v-39l-88 -74l51 -177l-35 -24l-232 147q-207 -106 -358 -106q-59 0 -89.5 19.5t-30.5 54.5q0 23 13 37q-45 17 -45 58q0 30 25 48q-36 17 -36 53q0 20 11 34l-182 2q-161 1 -161 104q0 56 45 77.5t149 21.5q64 0 163 -8q2 44 31 70t69 26q41 0 81 -25l248 -152
q2 -1 27 -8.5t36 -12.5l236 149l35 -23l-51 -178zM473 502q51 -7 116 -18l-62 35q-15 9 -27 9q-22 0 -27 -26zM843 190v148q-116 48 -298 76q-188 29 -374 29q-34 0 -47.5 -5t-13.5 -18q0 -24 53 -25l106 -2q182 -3 287 -10v-69l-110 1q-14 0 -14 -13q0 -15 13 -15h122v-68
h-110q-13 0 -13 -14t13 -14h121v-69q-46 -6 -80 -6h-8q-14 0 -14 -14q0 -15 22 -15q56 0 160 29q100 27 185 74zM927 355v-179l101 -62l-28 94l74 58l-74 57l28 94z" />
    <glyph glyph-name="uni261E" unicode="&#x261e;" horiz-adv-x="1210" 
d="M1190 422q0 -103 -161 -104l-182 -2q11 -14 11 -34q0 -36 -36 -53q25 -18 25 -48q0 -41 -45 -58q13 -14 13 -37q0 -35 -30.5 -54.5t-89.5 -19.5q-151 0 -358 106l-232 -147l-35 24l51 177l-88 74v39l88 74l-51 178l35 23l236 -149q11 5 36 12.5t27 8.5l248 152
q40 25 81 25q40 0 69 -26t31 -70q99 8 163 8q104 0 149 -21.5t45 -77.5zM683 519l-62 -35q65 11 116 18q-5 26 -27 26q-12 0 -27 -9zM1100 420q0 13 -13.5 18t-47.5 5q-187 0 -375 -29q-181 -28 -297 -76v-148q85 -46 184 -74q105 -29 161 -29q22 0 22 15q0 14 -14 14h-8
q-34 0 -80 6v69h121q13 0 13 14t-13 14h-110v68h122q13 0 13 15q0 13 -14 13l-110 -1v69q105 7 287 10l106 2q31 2 42 7t11 18zM283 176v179l-101 62l28 -94l-74 -57l74 -58l-28 -94z" />
    <glyph glyph-name="uni2661" unicode="&#x2661;" horiz-adv-x="860" 
d="M807 476q0 -50 -24 -95q-25 -45 -83 -109l-260 -284h-20l-260 284q-61 65 -84 109q-24 45 -24 95q0 84 56.5 140t136.5 56q63 0 113 -35t72 -93q22 58 71.5 93t112.5 35q80 0 136.5 -56t56.5 -140zM666 464q0 36 -22 58t-56 22q-46 0 -78 -41t-45 -110h-69
q-15 69 -46.5 110t-77.5 41q-34 0 -56.5 -22t-22.5 -58q0 -31 15 -57t53 -67l169 -190l169 190q38 43 52.5 68t14.5 56z" />
    <glyph glyph-name="heart" unicode="&#x2665;" horiz-adv-x="860" 
d="M420 -12l-260 284q-61 65 -84 109q-24 45 -24 95q0 84 56.5 140t136.5 56q63 0 113 -35t72 -93q22 58 71.5 93t112.5 35q80 0 136.5 -56t56.5 -140q0 -50 -24 -95q-23 -45 -83 -109l-260 -284h-20z" />
    <glyph glyph-name="uni275B" unicode="&#x275b;" horiz-adv-x="670" 
d="M614 206q0 -91 -64.5 -154t-170.5 -63q-131 -2 -228 98t-95 239q-2 142 97.5 244t243.5 100q117 0 205 -70l-53 -86q-65 50 -145 50q-98 0 -165 -68t-67 -169q0 -36 11 -75q15 74 75.5 123.5t137.5 49.5q89 0 153.5 -64.5t64.5 -154.5z" />
    <glyph glyph-name="uni275C" unicode="&#x275c;" horiz-adv-x="670" 
d="M614 334q2 -142 -97.5 -244t-243.5 -100q-117 0 -205 70l53 86q65 -50 145 -50q98 0 165 68t67 169q0 36 -11 75q-15 -74 -75.5 -123.5t-137.5 -49.5q-89 0 -153.5 64.5t-64.5 154.5q0 91 64.5 154t170.5 63q131 2 228 -98t95 -239z" />
    <glyph glyph-name="uni275D" unicode="&#x275d;" horiz-adv-x="1284" 
d="M1228 206q0 -91 -64.5 -154t-170.5 -63q-131 -2 -228 98t-95 239q-2 142 97.5 244t243.5 100q117 0 205 -70l-53 -86q-65 50 -145 50q-98 0 -165 -68t-67 -169q0 -36 11 -75q15 74 75.5 123.5t137.5 49.5q89 0 153.5 -64.5t64.5 -154.5zM614 206q0 -91 -64.5 -154
t-170.5 -63q-131 -2 -228 98t-95 239q-2 142 97.5 244t243.5 100q117 0 205 -70l-53 -86q-65 50 -145 50q-98 0 -165 -68t-67 -169q0 -36 11 -75q15 74 75.5 123.5t137.5 49.5q89 0 153.5 -64.5t64.5 -154.5z" />
    <glyph glyph-name="uni275E" unicode="&#x275e;" horiz-adv-x="1284" 
d="M608 334q2 -142 -97.5 -244t-243.5 -100q-117 0 -205 70l53 86q65 -50 145 -50q98 0 165 68t67 169q0 36 -11 75q-15 -74 -75.5 -123.5t-137.5 -49.5q-89 0 -153.5 64.5t-64.5 154.5q0 91 64.5 154t170.5 63q131 2 228 -98t95 -239zM1228 334q2 -142 -97.5 -244
t-243.5 -100q-117 0 -205 70l53 86q65 -50 145 -50q98 0 165 68t67 169q0 36 -11 75q-15 -74 -75.5 -123.5t-137.5 -49.5q-89 0 -153.5 64.5t-64.5 154.5q0 91 64.5 154t170.5 63q131 2 228 -98t95 -239z" />
    <glyph glyph-name="uni2776" unicode="&#x2776;" horiz-adv-x="978" 
d="M57 330q-2 115 56.5 215.5t159.5 159.5t216 57q114 2 214.5 -57t159.5 -160t57 -215q2 -114 -57 -215t-159.5 -160t-214.5 -57q-86 -2 -166.5 32.5t-139.5 93.5t-93.5 139.5t-32.5 166.5zM345 105h289v93h-85v356h-198v-93h86v-263h-92v-93z" />
    <glyph glyph-name="uni2777" unicode="&#x2777;" horiz-adv-x="978" 
d="M57 330q-2 115 56.5 215.5t159.5 159.5t216 57q114 2 214.5 -57t159.5 -160t57 -215q2 -114 -57 -215t-159.5 -160t-214.5 -57q-86 -2 -166.5 32.5t-139.5 93.5t-93.5 139.5t-32.5 166.5zM321 104h341v94h-150l57 62q45 52 63 84t18 71q0 63 -47 105t-117 42
q-72 0 -119.5 -45.5t-47.5 -108.5q0 -21 4 -38h101q0 6 -0.5 12.5t-1 10.5t-0.5 6q0 27 15.5 44t42.5 17q26 0 41 -15t15 -40q0 -23 -12.5 -43.5t-46.5 -58.5l-156 -176v-23z" />
    <glyph glyph-name="uni2778" unicode="&#x2778;" horiz-adv-x="978" 
d="M57 330q-2 115 56.5 215.5t159.5 159.5t216 57q114 2 214.5 -57t159.5 -160t57 -215q2 -114 -57 -215t-159.5 -160t-214.5 -57q-86 -2 -166.5 32.5t-139.5 93.5t-93.5 139.5t-32.5 166.5zM651 254q0 49 -28 84.5t-74 50.5l94 136v29h-299v-100h134l-84 -122v-28h62
q81 0 81 -51q0 -24 -18.5 -39t-46.5 -15q-49 0 -88 58l-77 -54q24 -49 68.5 -77.5t100.5 -28.5q73 0 124 45t51 112z" />
    <glyph glyph-name="uni2779" unicode="&#x2779;" horiz-adv-x="978" 
d="M57 330q-2 115 56.5 215.5t159.5 159.5t216 57q114 2 214.5 -57t159.5 -160t57 -215q2 -114 -57 -215t-159.5 -160t-214.5 -57q-86 -2 -166.5 32.5t-139.5 93.5t-93.5 139.5t-32.5 166.5zM509 105h111v67h54v97h-54v103h-111v-103h-91l111 285h-118l-127 -352v-30h225
v-67z" />
    <glyph glyph-name="uni277A" unicode="&#x277a;" horiz-adv-x="978" 
d="M57 330q-2 115 56.5 215.5t159.5 159.5t216 57q114 2 214.5 -57t159.5 -160t57 -215q2 -114 -57 -215t-159.5 -160t-214.5 -57q-86 -2 -166.5 32.5t-139.5 93.5t-93.5 139.5t-32.5 166.5zM659 255q0 65 -45.5 104.5t-105.5 39.5q-27 0 -44 -4v59h172v100h-278v-250h106
q81 0 81 -50q0 -26 -19 -41t-49 -15q-50 0 -91 59l-77 -54q24 -49 69 -77.5t104 -28.5q75 0 126 45.5t51 112.5z" />
    <glyph glyph-name="uni277B" unicode="&#x277b;" horiz-adv-x="978" 
d="M57 330q-2 115 56.5 215.5t159.5 159.5t216 57q114 2 214.5 -57t159.5 -160t57 -215q2 -114 -57 -215t-159.5 -160t-214.5 -57q-86 -2 -166.5 32.5t-139.5 93.5t-93.5 139.5t-32.5 166.5zM650 261q0 49 -27 87.5t-70 53.5q-25 9 -47 8l106 144h-131l-112 -151
q-34 -47 -47.5 -76.5t-13.5 -64.5q0 -71 50.5 -118t119.5 -47t120.5 47t51.5 117zM418 263q0 26 17.5 43.5t42.5 17.5q26 0 44 -17.5t18 -44.5t-18 -45t-43 -18q-26 0 -43.5 18.5t-17.5 45.5z" />
    <glyph glyph-name="uni277C" unicode="&#x277c;" horiz-adv-x="978" 
d="M57 330q-2 115 56.5 215.5t159.5 159.5t216 57q114 2 214.5 -57t159.5 -160t57 -215q2 -114 -57 -215t-159.5 -160t-214.5 -57q-86 -2 -166.5 32.5t-139.5 93.5t-93.5 139.5t-32.5 166.5zM345 105h121l195 420v29h-323v-101h176z" />
    <glyph glyph-name="uni277D" unicode="&#x277d;" horiz-adv-x="978" 
d="M57 330q-2 115 56.5 215.5t159.5 159.5t216 57q114 2 214.5 -57t159.5 -160t57 -215q2 -114 -57 -215t-159.5 -160t-214.5 -57q-86 -2 -166.5 32.5t-139.5 93.5t-93.5 139.5t-32.5 166.5zM663 228q0 74 -82 110q62 38 62 102q0 56 -42.5 89t-110.5 33q-69 0 -112 -33
t-43 -90q0 -63 63 -102q-83 -35 -83 -109q0 -59 49 -95t126 -36t125 36t48 95zM439 432q0 20 14 31.5t37 11.5q22 0 36 -11.5t14 -31.5q0 -30 -51 -53q-50 23 -50 53zM425 236q0 22 15 36t49 27q33 -13 48.5 -27.5t15.5 -36.5q0 -24 -16.5 -37.5t-46.5 -13.5q-31 0 -48 14
t-17 38z" />
    <glyph glyph-name="uni277E" unicode="&#x277e;" horiz-adv-x="978" 
d="M57 330q-2 114 57 215t160 160t215 57q115 2 215.5 -57t159 -159.5t56.5 -215.5q1 -86 -33.5 -166.5t-92.5 -139.5t-138.5 -93.5t-166.5 -32.5q-114 -2 -215 57t-160 160t-57 215zM365 106h132l112 151q34 47 47.5 76.5t13.5 64.5q0 71 -50.5 118t-119.5 47t-120.5 -47
t-51.5 -117q0 -49 26.5 -87.5t69.5 -53.5q27 -9 47 -8zM438 398q0 27 18 45t43 18q26 0 43.5 -18.5t17.5 -45.5q0 -26 -17.5 -43.5t-42.5 -17.5q-26 0 -44 17.5t-18 44.5z" />
    <glyph glyph-name="uni2780" unicode="&#x2780;" horiz-adv-x="978" 
d="M57 330q-2 115 56.5 215.5t159.5 159.5t216 57q114 2 214.5 -57t159.5 -160t57 -215q2 -114 -57 -215t-159.5 -160t-214.5 -57q-86 -2 -166.5 32.5t-139.5 93.5t-93.5 139.5t-32.5 166.5zM813 330q2 137 -94 233t-230 94q-135 2 -230.5 -93.5t-93.5 -233.5
q-2 -138 93.5 -233.5t230.5 -93.5q134 -3 230 93.5t94 233.5zM345 105v93h92v263h-86v93h198v-356h85v-93h-289z" />
    <glyph glyph-name="uni2781" unicode="&#x2781;" horiz-adv-x="978" 
d="M57 330q-2 115 56.5 215.5t159.5 159.5t216 57q114 2 214.5 -57t159.5 -160t57 -215q2 -114 -57 -215t-159.5 -160t-214.5 -57q-86 -2 -166.5 32.5t-139.5 93.5t-93.5 139.5t-32.5 166.5zM813 330q2 137 -94 233t-230 94q-135 2 -230.5 -93.5t-93.5 -233.5
q-2 -138 93.5 -233.5t230.5 -93.5q134 -3 230 93.5t94 233.5zM321 104v23l156 176q34 38 46.5 58.5t12.5 43.5q0 25 -15 40t-41 15q-27 0 -42.5 -17t-15.5 -44q0 -2 0.5 -6t1 -10.5t0.5 -12.5h-101q-4 17 -4 38q0 63 47.5 108.5t119.5 45.5q70 0 117 -42t47 -105
q0 -39 -18 -71t-63 -84l-57 -62h150v-94h-341z" />
    <glyph glyph-name="uni2782" unicode="&#x2782;" horiz-adv-x="978" 
d="M57 330q-2 115 56.5 215.5t159.5 159.5t216 57q114 2 214.5 -57t159.5 -160t57 -215q2 -114 -57 -215t-159.5 -160t-214.5 -57q-86 -2 -166.5 32.5t-139.5 93.5t-93.5 139.5t-32.5 166.5zM813 330q2 137 -94 233t-230 94q-135 2 -230.5 -93.5t-93.5 -233.5
q-2 -138 93.5 -233.5t230.5 -93.5q134 -3 230 93.5t94 233.5zM307 203l77 54q39 -58 88 -58q28 0 46.5 15t18.5 39q0 51 -81 51h-62v28l84 122h-134v100h299v-29l-94 -136q46 -15 74 -50.5t28 -84.5q0 -67 -51 -112t-124 -45q-56 0 -100.5 28.5t-68.5 77.5z" />
    <glyph glyph-name="uni2783" unicode="&#x2783;" horiz-adv-x="978" 
d="M57 330q-2 115 56.5 215.5t159.5 159.5t216 57q114 2 214.5 -57t159.5 -160t57 -215q2 -114 -57 -215t-159.5 -160t-214.5 -57q-86 -2 -166.5 32.5t-139.5 93.5t-93.5 139.5t-32.5 166.5zM813 330q2 137 -94 233t-230 94q-135 2 -230.5 -93.5t-93.5 -233.5
q-2 -138 93.5 -233.5t230.5 -93.5q134 -3 230 93.5t94 233.5zM509 105v67h-225v30l127 352h118l-111 -285h91v103h111v-103h54v-97h-54v-67h-111z" />
    <glyph glyph-name="uni2784" unicode="&#x2784;" horiz-adv-x="978" 
d="M57 330q-2 115 56.5 215.5t159.5 159.5t216 57q114 2 214.5 -57t159.5 -160t57 -215q2 -114 -57 -215t-159.5 -160t-214.5 -57q-86 -2 -166.5 32.5t-139.5 93.5t-93.5 139.5t-32.5 166.5zM813 330q2 137 -94 233t-230 94q-135 2 -230.5 -93.5t-93.5 -233.5
q-2 -138 93.5 -233.5t230.5 -93.5q134 -3 230 93.5t94 233.5zM310 203l77 54q41 -59 91 -59q30 0 49 15t19 41q0 50 -81 50h-107v250h279v-100h-172v-59q17 4 44 4q61 0 106.5 -39.5t45.5 -104.5q0 -67 -51.5 -112.5t-126.5 -45.5q-59 0 -104 28t-69 78z" />
    <glyph glyph-name="uni2785" unicode="&#x2785;" horiz-adv-x="978" 
d="M57 330q-2 115 56.5 215.5t159.5 159.5t216 57q114 2 214.5 -57t159.5 -160t57 -215q2 -114 -57 -215t-159.5 -160t-214.5 -57q-86 -2 -166.5 32.5t-139.5 93.5t-93.5 139.5t-32.5 166.5zM813 330q2 137 -94 233t-230 94q-135 2 -230.5 -93.5t-93.5 -233.5
q-2 -138 93.5 -233.5t230.5 -93.5q134 -3 230 93.5t94 233.5zM308 262q0 35 13.5 64.5t47.5 76.5l112 151h131l-106 -144q17 1 47 -8q43 -15 70 -53.5t27 -87.5q0 -70 -51.5 -117t-120.5 -47t-119.5 47t-50.5 118zM540 262q0 27 -18 44.5t-44 17.5q-25 0 -42.5 -17.5
t-17.5 -43.5q0 -27 17.5 -45.5t43.5 -18.5q25 0 43 18t18 45z" />
    <glyph glyph-name="uni2786" unicode="&#x2786;" horiz-adv-x="978" 
d="M57 330q-2 115 56.5 215.5t159.5 159.5t216 57q114 2 214.5 -57t159.5 -160t57 -215q2 -114 -57 -215t-159.5 -160t-214.5 -57q-86 -2 -166.5 32.5t-139.5 93.5t-93.5 139.5t-32.5 166.5zM813 330q2 137 -94 233t-230 94q-135 2 -230.5 -93.5t-93.5 -233.5
q-2 -138 93.5 -233.5t230.5 -93.5q134 -3 230 93.5t94 233.5zM345 105l168 348h-176v101h323v-29l-194 -420h-121z" />
    <glyph glyph-name="uni2787" unicode="&#x2787;" horiz-adv-x="978" 
d="M57 330q-2 115 56.5 215.5t159.5 159.5t216 57q114 2 214.5 -57t159.5 -160t57 -215q2 -114 -57 -215t-159.5 -160t-214.5 -57q-86 -2 -166.5 32.5t-139.5 93.5t-93.5 139.5t-32.5 166.5zM813 330q2 137 -94 233t-230 94q-135 2 -230.5 -93.5t-93.5 -233.5
q-2 -138 93.5 -233.5t230.5 -93.5q134 -3 230 93.5t94 233.5zM315 228q0 74 83 109q-63 39 -63 102q0 57 43 90t112 33q68 0 110.5 -33t42.5 -89q0 -64 -62 -102q82 -36 82 -110q0 -59 -48 -95t-125 -36t-126 36t-49 95zM540 432q0 20 -14 31.5t-36 11.5q-23 0 -37 -11.5
t-14 -31.5q0 -30 50 -53q51 23 51 53zM553 235q0 22 -15.5 36.5t-48.5 27.5q-34 -13 -49 -27t-15 -36q0 -24 17 -38t48 -14q30 0 46.5 13.5t16.5 37.5z" />
    <glyph glyph-name="uni2788" unicode="&#x2788;" horiz-adv-x="978" 
d="M57 330q-2 114 57 215t160 160t215 57q115 2 215.5 -57t159 -159.5t56.5 -215.5q1 -86 -33.5 -166.5t-92.5 -139.5t-138.5 -93.5t-166.5 -32.5q-114 -2 -215 57t-160 160t-57 215zM813 330q2 138 -94 233.5t-230 93.5q-135 2 -230.5 -94t-93.5 -233q-2 -137 94 -233.5
t230 -93.5q134 -2 230 93.5t94 233.5zM365 106l106 144q-16 -1 -47 8q-43 15 -69.5 53.5t-26.5 87.5q0 70 51.5 117t120.5 47t119.5 -47t50.5 -118q0 -35 -13.5 -64.5t-47.5 -76.5l-112 -151h-132zM560 397q0 27 -17.5 45.5t-43.5 18.5q-25 0 -43 -18t-18 -45t18 -44.5
t44 -17.5q25 0 42.5 17.5t17.5 43.5z" />
    <glyph glyph-name="uni27F5" unicode="&#x27f5;" horiz-adv-x="1216" 
d="M1171 264h-863l-69 3l159 -159l-79 -79l-279 278v26l279 279l79 -80l-157 -157l67 3h863v-114z" />
    <glyph glyph-name="uni27F6" unicode="&#x27f6;" horiz-adv-x="1216" 
d="M897 612l279 -279v-26l-279 -278l-79 79l160 160l-70 -3l-863 -1v114h863l67 -3l-157 157z" />
    <glyph glyph-name="uniF8FF" unicode="&#xf8ff;" horiz-adv-x="656" 
d="M49 0v660h235l24 -285l7 -145h20l8 145l24 285h241v-660h-155v359h-21l-7 -108l-39 -251h-127l-37 251l-8 108h-21v-359h-144zM45 -168v132h566v-132h-566z" />
    <glyph glyph-name="Iacute_J.loclNLD" horiz-adv-x="675" 
d="M76 0v660h135v-660h-135zM91 724l73 186h162v-24l-137 -162h-98zM303 0v115q48 -4 66 -4q49 0 72 18.5t23 60.5v470h135v-484q0 -93 -51.5 -140.5t-149.5 -47.5q-47 0 -95 12zM461 724l73 186h162v-24l-137 -162h-98z" />
    <glyph glyph-name="Cacute.loclPLK" horiz-adv-x="720" 
d="M38 330q-2 142 103 243.5t249 98.5q94 0 170.5 -43.5t120.5 -120.5l-102 -72q-71 111 -189 111q-92 0 -152.5 -62t-60.5 -156t60.5 -155t152.5 -61q118 0 189 111l102 -72q-43 -77 -120 -120.5t-172 -43.5q-145 -3 -249.5 98.5t-101.5 243.5zM340 724l33 186h162v-24
l-97 -162h-98z" />
    <glyph glyph-name="Nacute.loclPLK" horiz-adv-x="713" 
d="M503 660h135v-672h-45l-382 408v-396h-135v672h44l383 -406v394zM307 724l33 186h162v-24l-97 -162h-98z" />
    <glyph glyph-name="Oacute.loclPLK" horiz-adv-x="778" 
d="M38 330q-2 141 102.5 243t247.5 99q143 3 248.5 -99t103.5 -243q2 -141 -103.5 -243t-248.5 -99q-143 -3 -247.5 99t-102.5 243zM601 330q0 94 -60.5 155.5t-151.5 61.5q-92 0 -152 -61t-60 -156t60 -156t152 -61q91 0 151.5 61t60.5 156zM339 724l33 186h162v-24
l-97 -162h-98z" />
    <glyph glyph-name="Sacute.loclPLK" horiz-adv-x="559" 
d="M30 134l93 70q70 -96 162 -96q44 0 69 19.5t25 53.5q0 28 -17 43.5t-67 38.5l-71 32q-160 71 -160 190q0 84 62 135.5t157 51.5q74 0 130 -33.5t88 -91.5l-92 -71q-51 76 -126 76q-36 0 -59 -17t-23 -47q0 -25 16.5 -40.5t60.5 -35.5l75 -33q85 -38 124 -82.5t39 -110.5
q0 -89 -65 -143.5t-166 -54.5q-83 0 -149.5 39t-105.5 107zM231 724l33 186h162v-24l-97 -162h-98z" />
    <glyph glyph-name="Zacute.loclPLK" horiz-adv-x="588" 
d="M228 122h332v-122h-540v36l331 502h-288v122h496v-36zM249 724l33 186h162v-24l-97 -162h-98z" />
    <glyph glyph-name="Idotaccent.loclTRK" horiz-adv-x="286" 
d="M76 0v660h135v-660h-135zM57 815q0 35 25 59.5t61 24.5t61.5 -24.5t25.5 -59.5t-25.5 -59.5t-61.5 -24.5t-61 24.5t-25 59.5z" />
    <glyph glyph-name="A.ordn" horiz-adv-x="429" 
d="M308 244l-17 45h-152l-17 -45h-112l188 424h33l188 -424h-111zM262 366l-47 117l-48 -117h95z" />
    <glyph glyph-name="O.ordn" horiz-adv-x="504" 
d="M29 452q0 91 65 153.5t157 62.5q93 0 158.5 -63t65.5 -153t-65.5 -153t-158.5 -63q-92 0 -157 62.5t-65 153.5zM370 452q0 53 -33.5 86.5t-84.5 33.5q-52 0 -84.5 -33.5t-32.5 -86.5q0 -54 32.5 -87t84.5 -33q51 0 84.5 33.5t33.5 86.5z" />
    <glyph glyph-name="iacute_j.loclNLD" horiz-adv-x="538" 
d="M67 0v495h135v-495h-135zM85 571l43 209h162v-24l-107 -185h-98zM206 -181v113q24 -3 41 -3q46 0 67.5 18t21.5 59v489h135v-501q0 -91 -50 -138.5t-140 -47.5q-39 0 -75 11zM354 571l43 209h162v-24l-107 -185h-98z" />
    <glyph glyph-name="cacute.loclPLK" horiz-adv-x="552" 
d="M39 248q0 108 77 183t188 75q146 0 215 -122l-94 -73q-50 72 -119 72q-57 0 -93.5 -38.5t-36.5 -96.5q0 -59 36.5 -97.5t93.5 -38.5q69 0 119 71l94 -72q-33 -58 -88.5 -90.5t-126.5 -32.5q-109 -2 -188 75.5t-77 184.5zM249 571l33 209h162v-24l-97 -185h-98z" />
    <glyph glyph-name="nacute.loclPLK" horiz-adv-x="585" 
d="M522 307v-307h-134v289q0 43 -25.5 69.5t-66.5 26.5t-67.5 -26.5t-26.5 -69.5v-289h-135v495h124v-45q56 56 145 56q86 0 136 -54t50 -145zM228 571l33 209h162v-24l-97 -185h-98z" />
    <glyph glyph-name="oacute.loclPLK" horiz-adv-x="608" 
d="M39 248q-2 106 77 183t188 75q109 2 188.5 -75t77.5 -183q2 -106 -78 -183.5t-189 -75.5q-109 -2 -187.5 75.5t-76.5 183.5zM432 247q0 58 -36.5 97t-91.5 39q-56 0 -92 -38.5t-36 -97.5q0 -58 36 -96t92 -38q55 0 91.5 38t36.5 96zM251 571l33 209h162v-24l-97 -185h-98
z" />
    <glyph glyph-name="sacute.loclPLK" horiz-adv-x="455" 
d="M22 84l68 82q64 -67 139 -67q28 0 45.5 10.5t17.5 30.5q0 15 -10.5 23.5t-40.5 21.5l-53 22q-71 29 -103 63.5t-32 87.5q0 69 50 108.5t132 39.5q110 0 178 -74l-68 -83q-50 47 -111 47q-53 0 -53 -35q0 -14 11 -23t41 -21l48 -20q74 -30 106.5 -64t32.5 -87
q0 -74 -55 -116q-54 -42 -138 -42q-133 0 -205 96zM179 571l33 209h162v-24l-97 -185h-98z" />
    <glyph glyph-name="zacute.loclPLK" horiz-adv-x="468" 
d="M215 114h237v-114h-435v36l237 345h-214v114h410v-36zM185 571l33 209h162v-24l-97 -185h-98z" />
    <glyph glyph-name="i.loclTRK.loclTRK" horiz-adv-x="269" 
d="M67 0v495h135v-495h-135zM48 675q0 36 25 60t61 24t61.5 -24t25.5 -60q0 -35 -25.5 -59t-61.5 -24t-61 24t-25 59z" />
    <glyph glyph-name="a.ss01" horiz-adv-x="629" 
d="M438 495h124v-495h-126v58q-54 -70 -157 -70q-104 0 -172 73.5t-68 185.5t68 185.5t172 73.5q105 0 159 -73v62zM429 247q0 64 -36 100.5t-89 36.5q-55 0 -91.5 -38.5t-36.5 -98.5t36.5 -98t91.5 -38q54 0 89.5 36t35.5 100z" />
    <glyph glyph-name="y.ss01" horiz-adv-x="585" 
d="M383 495h135v-445q0 -112 -65 -177t-172 -65q-133 0 -230 92l71 94q73 -64 145 -64q54 0 85 27.5t31 81.5v30q-55 -52 -137 -52q-84 0 -134 55t-50 145v278h135v-259q0 -44 25 -70.5t67 -26.5t68 26.5t26 69.5v260z" />
    <glyph glyph-name="aacute.ss01" horiz-adv-x="629" 
d="M438 495h124v-495h-126v58q-54 -70 -157 -70q-104 0 -172 73.5t-68 185.5t68 185.5t172 73.5q105 0 159 -73v62zM429 247q0 64 -36 100.5t-89 36.5q-55 0 -91.5 -38.5t-36.5 -98.5t36.5 -98t91.5 -38q54 0 89.5 36t35.5 100zM263 571l73 209h162v-24l-137 -185h-98z" />
    <glyph glyph-name="abreve.ss01" horiz-adv-x="629" 
d="M438 495h124v-495h-126v58q-54 -70 -157 -70q-104 0 -172 73.5t-68 185.5t68 185.5t172 73.5q105 0 159 -73v62zM429 247q0 64 -36 100.5t-89 36.5q-55 0 -91.5 -38.5t-36.5 -98.5t36.5 -98t91.5 -38q54 0 89.5 36t35.5 100zM139 745v28h106v-27q0 -35 18 -55t49 -20
t49 20t18 55v27h105v-28q0 -77 -48 -126q-48 -48 -124 -48t-124.5 49t-48.5 125z" />
    <glyph glyph-name="acircumflex.ss01" horiz-adv-x="629" 
d="M438 495h124v-495h-126v58q-54 -70 -157 -70q-104 0 -172 73.5t-68 185.5t68 185.5t172 73.5q105 0 159 -73v62zM429 247q0 64 -36 100.5t-89 36.5q-55 0 -91.5 -38.5t-36.5 -98.5t36.5 -98t91.5 -38q54 0 89.5 36t35.5 100zM491 571h-99l-80 92l-80 -92h-99l135 209h89z
" />
    <glyph glyph-name="adieresis.ss01" horiz-adv-x="629" 
d="M438 495h124v-495h-126v58q-54 -70 -157 -70q-104 0 -172 73.5t-68 185.5t68 185.5t172 73.5q105 0 159 -73v62zM429 247q0 64 -36 100.5t-89 36.5q-55 0 -91.5 -38.5t-36.5 -98.5t36.5 -98t91.5 -38q54 0 89.5 36t35.5 100zM112 676q0 32 24 55t58 23q32 0 56 -23
t24 -55t-24 -55t-56 -23q-34 0 -58 23t-24 55zM350 676q0 32 24 55t58 23q32 0 56 -23t24 -55t-24 -55t-56 -23q-34 0 -58 23t-24 55z" />
    <glyph glyph-name="agrave.ss01" horiz-adv-x="629" 
d="M438 495h124v-495h-126v58q-54 -70 -157 -70q-104 0 -172 73.5t-68 185.5t68 185.5t172 73.5q105 0 159 -73v62zM429 247q0 64 -36 100.5t-89 36.5q-55 0 -91.5 -38.5t-36.5 -98.5t36.5 -98t91.5 -38q54 0 89.5 36t35.5 100zM264 571l-137 185v24h162l73 -209h-98z" />
    <glyph glyph-name="amacron.ss01" horiz-adv-x="629" 
d="M438 495h124v-495h-126v58q-54 -70 -157 -70q-104 0 -172 73.5t-68 185.5t68 185.5t172 73.5q105 0 159 -73v62zM429 247q0 64 -36 100.5t-89 36.5q-55 0 -91.5 -38.5t-36.5 -98.5t36.5 -98t91.5 -38q54 0 89.5 36t35.5 100zM161 622v106h302v-106h-302z" />
    <glyph glyph-name="aogonek.ss01" horiz-adv-x="629" 
d="M438 495h124v-495h-126v58q-54 -70 -157 -70q-104 0 -172 73.5t-68 185.5t68 185.5t172 73.5q105 0 159 -73v62zM429 247q0 64 -36 100.5t-89 36.5q-55 0 -91.5 -38.5t-36.5 -98.5t36.5 -98t91.5 -38q54 0 89.5 36t35.5 100zM355 -92q0 44 35.5 78t116.5 68l55 -54
l-40 -25q-22 -13 -30 -21.5t-8 -19.5q0 -29 36 -29q10 0 42 6v-88q-45 -15 -86 -15q-56 0 -88.5 27.5t-32.5 72.5z" />
    <glyph glyph-name="aring.ss01" horiz-adv-x="629" 
d="M438 495h124v-495h-126v58q-54 -70 -157 -70q-104 0 -172 73.5t-68 185.5t68 185.5t172 73.5q105 0 159 -73v62zM429 247q0 64 -36 100.5t-89 36.5q-55 0 -91.5 -38.5t-36.5 -98.5t36.5 -98t91.5 -38q54 0 89.5 36t35.5 100zM185 671q0 52 36 87t90 35q55 0 91 -34.5
t36 -87.5t-36 -88t-91 -35q-54 0 -90 35t-36 88zM353 671q0 18 -12 29.5t-29 11.5t-29 -11.5t-12 -29.5t11.5 -29.5t29.5 -11.5q17 0 29 12t12 29z" />
    <glyph glyph-name="atilde.ss01" horiz-adv-x="629" 
d="M438 495h124v-495h-126v58q-54 -70 -157 -70q-104 0 -172 73.5t-68 185.5t68 185.5t172 73.5q105 0 159 -73v62zM429 247q0 64 -36 100.5t-89 36.5q-55 0 -91.5 -38.5t-36.5 -98.5t36.5 -98t91.5 -38q54 0 89.5 36t35.5 100zM320 601l-28 17q-26 19 -40 19q-28 0 -28 -35
v-12h-103q-2 14 -2 33q0 61 32 98.5t81 37.5q38 0 72 -22l28 -18q24 -18 40 -18q28 0 28 35v12h102q3 -18 3 -34q0 -60 -32.5 -97.5t-81.5 -37.5q-37 0 -71 22z" />
    </font>
</defs>
</svg>
