<?xml version="1.0" standalone="no"?>
<!DOCTYPE svg PUBLIC "-//W3C//DTD SVG 1.1//EN" "http://www.w3.org/Graphics/SVG/1.1/DTD/svg11.dtd" >
<svg xmlns="http://www.w3.org/2000/svg" xmlns:xlink="http://www.w3.org/1999/xlink" version="1.1">
<metadata>
Created by FontForge 20160407 at Tue Sep 27 17:03:56 2016
 By Jimmy Warting
Copyright 2009, 2010 Monotype Imaging Inc. All rights reserved.
</metadata>
<defs>
<font id="FelbridgePro-LightItalic" horiz-adv-x="655" >
  <font-face 
    font-family="Felbridge Pro Light"
    font-weight="300"
    font-style="italic"
    font-stretch="normal"
    units-per-em="1000"
    panose-1="2 0 3 3 4 0 3 9 3 4"
    ascent="752"
    descent="-248"
    x-height="506"
    cap-height="727"
    bbox="-261 -230 1379 956"
    underline-thickness="50"
    underline-position="-100"
    slope="-11"
    stemh="49"
    stemv="55"
    unicode-range="U+0020-FB04"
  />
<missing-glyph horiz-adv-x="500" 
d="M12 0v665h475v-665h-475zM88 618l162 -243l161 243h-323zM60 575v-484c0 -1 161 242 161 242zM440 575l-162 -242l162 -243v485zM411 48l-161 242l-162 -242h323z" />
    <glyph glyph-name="f_f" unicode="ff" horiz-adv-x="609" 
d="M221 462l-97 -479c-29 -142 -85 -176 -180 -176c-30 0 -63 8 -84 17l16 45c21 -9 44 -16 83 -16c78 0 98 51 114 130l97 479h-97l10 44h97l12 60c29 142 85 176 180 176c33 0 75 -11 93 -20l-22 -45c-21 10 -56 19 -86 19c-78 0 -98 -51 -114 -130l-12 -60h224l12 60
c29 142 85 176 180 176c33 0 75 -11 93 -20l-22 -45c-21 10 -56 19 -86 19c-78 0 -98 -51 -114 -130l-12 -60h130l-10 -44h-130l-97 -479c-29 -142 -85 -176 -180 -176c-30 0 -63 8 -84 17l16 45c21 -9 44 -16 83 -16c78 0 98 51 114 130l97 479h-224z" />
    <glyph glyph-name="f_f_i" unicode="ffi" horiz-adv-x="796" 
d="M749 627c-28 0 -38 15 -38 35c0 4 1 10 2 13c-16 11 -47 23 -96 23c-67 0 -87 -53 -103 -132l-12 -60h211c30 0 39 -15 39 -40c0 -13 -3 -28 -6 -45l-86 -421h-51l90 437c1 6 2 10 2 14c0 10 -5 11 -16 11h-193l-97 -479c-29 -142 -85 -176 -180 -176c-30 0 -63 8 -84 17
l16 45c21 -9 44 -16 83 -16c78 0 98 51 114 130l97 479h-220l-97 -479c-29 -142 -85 -176 -180 -176c-30 0 -63 8 -84 17l16 45c21 -9 44 -16 83 -16c78 0 98 51 114 130l97 479h-97l10 44h97l12 60c29 142 85 176 180 176c33 0 75 -11 93 -20l-22 -45c-21 10 -56 19 -86 19
c-78 0 -98 -51 -114 -130l-12 -60h220l12 60c29 142 83 176 167 176c56 0 108 -20 141 -44c14 -10 19 -22 19 -35c0 -19 -13 -36 -41 -36z" />
    <glyph glyph-name="f_f_l" unicode="ffl" horiz-adv-x="844" 
d="M221 462l-97 -479c-29 -142 -85 -176 -180 -176c-30 0 -63 8 -84 17l16 45c21 -9 44 -16 83 -16c78 0 98 51 114 130l97 479h-97l10 44h97l12 60c29 142 85 176 180 176c33 0 75 -11 93 -20l-22 -45c-21 10 -56 19 -86 19c-78 0 -98 -51 -114 -130l-12 -60h224l12 60
c29 142 85 176 180 176c52 0 98 -18 118 -27l49 27l-123 -603c-6 -31 -8 -49 -8 -64c0 -33 13 -45 49 -45c16 0 35 2 51 6l6 -44c-12 -3 -43 -7 -70 -7c-62 0 -87 28 -87 83c0 17 2 35 8 64l108 534c-21 10 -63 30 -116 30c-78 0 -98 -51 -114 -130l-12 -60h130l-10 -44
h-130l-97 -479c-29 -142 -85 -176 -180 -176c-30 0 -63 8 -84 17l16 45c21 -9 44 -16 83 -16c78 0 98 51 114 130l97 479h-224z" />
    <glyph glyph-name="fi" unicode="fi" horiz-adv-x="525" 
d="M478 627c-28 0 -38 15 -38 35c0 4 1 10 2 13c-16 11 -47 23 -96 23c-67 0 -87 -53 -103 -132l-12 -60h211c30 0 39 -15 39 -40c0 -13 -3 -28 -6 -45l-86 -421h-51l90 437c1 6 2 10 2 14c0 10 -5 11 -16 11h-193l-97 -479c-29 -142 -85 -176 -180 -176c-30 0 -63 8 -84 17
l16 45c21 -9 44 -16 83 -16c78 0 98 51 114 130l97 479h-97l10 44h97l12 60c29 142 83 176 167 176c56 0 108 -20 141 -44c14 -10 19 -22 19 -35c0 -19 -13 -36 -41 -36z" />
    <glyph glyph-name="fl" unicode="fl" horiz-adv-x="569" 
d="M508 36l6 -44c-12 -3 -43 -7 -70 -7c-62 0 -87 28 -87 83c0 17 2 35 8 64l108 534c-21 10 -63 30 -116 30c-78 0 -98 -51 -114 -130l-12 -60h130l-10 -44h-130l-97 -479c-29 -142 -85 -176 -180 -176c-30 0 -63 8 -84 17l16 45c21 -9 44 -16 83 -16c78 0 98 51 114 130
l97 479h-97l10 44h97l12 60c29 142 85 176 180 176c52 0 98 -18 118 -27l49 27l-123 -603c-6 -31 -8 -49 -8 -64c0 -33 13 -45 49 -45c16 0 35 2 51 6z" />
    <glyph glyph-name=".notdef" horiz-adv-x="500" 
d="M12 0v665h475v-665h-475zM88 618l162 -243l161 243h-323zM60 575v-484c0 -1 161 242 161 242zM440 575l-162 -242l162 -243v485zM411 48l-161 242l-162 -242h323z" />
    <glyph glyph-name="space" unicode=" " horiz-adv-x="240" 
 />
    <glyph glyph-name="exclam" unicode="!" horiz-adv-x="228" 
d="M247 727l-115 -536h-44l101 536h58zM132 45c0 -32 -14 -52 -54 -52c-22 0 -39 9 -39 30c0 34 16 52 54 52c21 0 39 -8 39 -30z" />
    <glyph glyph-name="quotedbl" unicode="&#x22;" horiz-adv-x="391" 
d="M342 742l-71 -269h-40l38 269h73zM176 742l-71 -269h-40l38 269h73z" />
    <glyph glyph-name="numbersign" unicode="#" horiz-adv-x="657" 
d="M621 466h-146l-52 -205h141v-44h-151l-54 -217h-46l53 217h-148l-53 -217h-46l54 217h-137v44h147l53 205h-143v44h153l54 217h46l-55 -217h148l55 217h46l-54 -217h135v-44zM430 466h-150l-52 -205h149z" />
    <glyph glyph-name="dollar" unicode="$" horiz-adv-x="527" 
d="M323 742h43l-22 -107c79 -13 133 -62 155 -115l-47 -23c-22 48 -59 83 -117 93l-48 -236c79 -26 160 -61 160 -158c0 -131 -100 -196 -232 -196l-24 -120h-43l25 123c-96 12 -152 67 -167 119l47 24c19 -48 56 -88 129 -98l55 269c-94 33 -151 71 -151 152
c0 105 82 170 216 170zM395 188c0 66 -55 95 -118 116l-52 -258c79 1 170 39 170 142zM138 475c0 -54 38 -82 109 -108l46 227c-88 0 -155 -41 -155 -119z" />
    <glyph glyph-name="percent" unicode="%" horiz-adv-x="1015" 
d="M815 742l-550 -888h-54l550 888h54zM447 585c0 -126 -49 -301 -227 -301c-105 0 -152 75 -152 159c0 133 48 299 221 299c106 0 158 -72 158 -157zM229 329c122 0 169 133 169 251c0 69 -38 117 -113 117c-124 0 -167 -120 -167 -243c0 -72 31 -125 111 -125zM961 137
c0 -126 -49 -301 -227 -301c-105 0 -152 75 -152 159c0 133 48 299 221 299c106 0 158 -72 158 -157zM743 -119c122 0 169 133 169 251c0 69 -38 117 -113 117c-124 0 -167 -120 -167 -243c0 -72 31 -125 111 -125z" />
    <glyph glyph-name="ampersand" unicode="&#x26;" horiz-adv-x="656" 
d="M555 661l-44 -24c-21 38 -57 64 -115 64c-73 0 -142 -41 -142 -134c0 -43 21 -82 51 -131l176 -287c33 30 76 90 109 164l42 -18c-30 -70 -79 -139 -128 -185l67 -110h-66l-39 69c-65 -51 -126 -84 -229 -84c-133 0 -196 89 -196 178c0 127 99 181 219 247
c-34 53 -60 96 -60 149c0 120 95 183 207 183c75 0 128 -39 148 -81zM443 108l-159 262c-89 -47 -187 -101 -187 -202c0 -92 82 -137 150 -137c93 0 163 50 196 77z" />
    <glyph glyph-name="quoteright" unicode="&#x2019;" horiz-adv-x="216" 
d="M191 701c0 -54 -43 -133 -88 -186h-38c31 37 64 91 70 142c-18 0 -36 10 -36 34c0 32 17 51 52 51c31 0 40 -19 40 -41z" />
    <glyph glyph-name="parenleft" unicode="(" horiz-adv-x="359" 
d="M227 -193h-61c-65 94 -110 232 -110 338c0 232 113 431 299 597h63c-158 -132 -313 -349 -313 -588c0 -111 50 -260 122 -347z" />
    <glyph glyph-name="parenright" unicode=")" horiz-adv-x="359" 
d="M135 742h61c65 -94 110 -211 110 -338c0 -232 -113 -431 -299 -597h-63c158 132 313 349 313 588c0 127 -50 260 -122 347z" />
    <glyph glyph-name="asterisk" unicode="*" horiz-adv-x="464" 
d="M425 493l-22 -39l-136 79l2 -135h-45l1 135l-135 -80l-23 39l143 78l-143 78l23 39l136 -80l-2 135h45l-2 -135l136 79l22 -39l-142 -77z" />
    <glyph glyph-name="plus" unicode="+" 
d="M584 265h-236v-236h-41v236h-236v41h236v236h41v-236h236v-41z" />
    <glyph glyph-name="comma" unicode="," horiz-adv-x="228" 
d="M157 37c0 -54 -43 -133 -88 -186h-38c31 37 64 91 70 142c-18 0 -36 10 -36 34c0 32 17 51 52 51c31 0 40 -19 40 -41z" />
    <glyph glyph-name="hyphen" unicode="-" horiz-adv-x="368" 
d="M327 227h-296l10 56h296z" />
    <glyph glyph-name="period" unicode="." horiz-adv-x="228" 
d="M132 45c0 -32 -14 -52 -54 -52c-22 0 -39 9 -39 30c0 34 16 52 54 52c21 0 39 -8 39 -30z" />
    <glyph glyph-name="slash" unicode="/" horiz-adv-x="362" 
d="M483 742l-550 -888h-54l550 888h54z" />
    <glyph glyph-name="zero" unicode="0" horiz-adv-x="588" 
d="M246 -15c-124 0 -206 73 -206 204c0 181 74 396 302 396c124 0 206 -75 206 -204c0 -181 -74 -396 -302 -396zM254 34c178 0 239 174 239 342c0 100 -53 160 -159 160c-178 0 -239 -174 -239 -342c0 -103 53 -160 159 -160z" />
    <glyph glyph-name="one" unicode="1" horiz-adv-x="393" 
d="M334 0h-309l9 42h138l89 440c-39 -25 -103 -53 -164 -64l8 41c81 24 148 61 203 126h28l-111 -543h118z" />
    <glyph glyph-name="two" unicode="2" horiz-adv-x="523" 
d="M440 0h-448l11 53c101 67 183 121 249 166c131 90 194 148 194 221c0 64 -55 96 -127 96s-142 -27 -192 -78l-36 36c38 38 109 91 232 91c103 0 182 -48 182 -140c0 -76 -52 -139 -121 -192c-89 -69 -196 -136 -301 -204h366z" />
    <glyph glyph-name="three" unicode="3" horiz-adv-x="535" 
d="M454 96c0 -166 -107 -262 -279 -262c-95 0 -178 40 -209 99l49 30c40 -67 106 -80 165 -80c132 0 219 68 219 209c0 91 -69 140 -169 140c-20 0 -49 -2 -70 -5l3 17l294 277h-342l10 49h400l-12 -59l-250 -236c123 -4 191 -79 191 -179z" />
    <glyph glyph-name="four" unicode="4" horiz-adv-x="538" 
d="M462 30h-86l-41 -196h-53l41 196h-338l9 47l440 508h54l-103 -508h86zM332 77l87 429l-368 -429h281z" />
    <glyph glyph-name="five" unicode="5" horiz-adv-x="548" 
d="M468 101c0 -167 -100 -267 -280 -267c-113 0 -183 52 -208 99l49 30c32 -54 86 -80 163 -80c134 0 221 65 221 218c0 83 -55 140 -163 140c-58 0 -116 -21 -156 -48h-21l111 377h344l-11 -49h-302l-72 -260c39 19 90 27 135 27c108 0 190 -67 190 -187z" />
    <glyph glyph-name="six" unicode="6" horiz-adv-x="579" 
d="M532 264c0 -154 -89 -279 -268 -279c-139 0 -221 107 -221 256c0 196 130 501 374 501c79 0 132 -32 165 -66l-39 -37c-30 28 -69 54 -134 54c-153 0 -252 -158 -288 -313c51 37 119 76 221 76c114 0 190 -80 190 -192zM276 34c126 0 201 86 201 223
c0 83 -49 150 -160 150c-75 0 -153 -37 -210 -78c-6 -29 -9 -60 -9 -91c0 -102 45 -204 178 -204z" />
    <glyph glyph-name="seven" unicode="7" horiz-adv-x="507" 
d="M499 511l-416 -677h-60l423 687h-335l-22 -108h-49l32 157h439z" />
    <glyph glyph-name="eight" unicode="8" horiz-adv-x="607" 
d="M521 212c0 -150 -125 -227 -276 -227c-137 0 -215 73 -215 169c0 128 97 196 220 235c-35 17 -123 65 -123 153c0 130 110 200 247 200c127 0 203 -61 203 -159c0 -110 -88 -157 -194 -198c74 -33 138 -86 138 -173zM182 551c0 -43 25 -92 139 -144c78 23 201 72 201 172
c0 69 -59 114 -153 114c-91 0 -187 -42 -187 -142zM246 34c103 0 220 47 220 168c0 84 -82 132 -153 164c-99 -33 -228 -77 -228 -204c0 -72 57 -128 161 -128z" />
    <glyph glyph-name="nine" unicode="9" horiz-adv-x="579" 
d="M56 306c0 154 89 279 268 279c139 0 221 -107 221 -256c0 -196 -129 -495 -373 -495c-78 0 -137 36 -166 66l39 37c24 -25 69 -55 134 -55c153 0 252 153 288 308c-51 -37 -119 -76 -221 -76c-114 0 -190 80 -190 192zM312 536c-126 0 -201 -86 -201 -223
c0 -83 49 -150 160 -150c75 0 153 37 210 78c6 29 9 60 9 91c0 102 -45 204 -178 204z" />
    <glyph glyph-name="colon" unicode=":" horiz-adv-x="228" 
d="M132 45c0 -32 -14 -52 -54 -52c-22 0 -39 9 -39 30c0 34 16 52 54 52c21 0 39 -8 39 -30zM210 432c0 -32 -14 -52 -54 -52c-22 0 -39 9 -39 30c0 34 16 52 54 52c21 0 39 -8 39 -30z" />
    <glyph glyph-name="semicolon" unicode=";" horiz-adv-x="228" 
d="M210 432c0 -32 -14 -52 -54 -52c-22 0 -39 9 -39 30c0 34 16 52 54 52c21 0 39 -8 39 -30zM132 37c0 -54 -43 -133 -88 -186h-38c31 37 64 91 70 142c-18 0 -36 10 -36 34c0 32 17 51 52 51c31 0 40 -19 40 -41z" />
    <glyph glyph-name="less" unicode="&#x3c;" 
d="M584 46l-513 225v29l513 225v-47l-446 -193l446 -192v-47z" />
    <glyph glyph-name="equal" unicode="=" 
d="M584 376h-513v41h513v-41zM584 154h-513v41h513v-41z" />
    <glyph glyph-name="greater" unicode="&#x3e;" 
d="M584 271l-513 -225v47l446 192l-446 193v47l513 -225v-29z" />
    <glyph glyph-name="question" unicode="?" horiz-adv-x="466" 
d="M487 593c0 -74 -33 -130 -88 -178c-52 -46 -116 -79 -177 -111l-23 -117h-45l30 147c43 22 90 46 132 75c65 45 116 99 116 182c0 72 -58 106 -129 106c-65 0 -117 -24 -159 -72l-38 32c53 63 120 85 200 85c99 0 181 -45 181 -149zM199 45c0 -32 -14 -52 -54 -52
c-22 0 -39 9 -39 30c0 34 16 52 54 52c21 0 39 -8 39 -30z" />
    <glyph glyph-name="at" unicode="@" horiz-adv-x="1003" 
d="M959 396c0 -153 -73 -411 -268 -411c-81 0 -93 46 -93 96c-71 -61 -129 -81 -188 -81c-92 0 -141 76 -141 171c0 162 93 349 279 349c44 0 90 -10 133 -51l8 37h60l-85 -371c-3 -15 -7 -36 -7 -51c0 -28 9 -52 43 -52c150 0 207 237 207 360c0 180 -97 305 -307 305
c-277 0 -483 -248 -483 -522c0 -190 121 -323 329 -323c80 0 135 10 201 27v-47c-70 -17 -125 -25 -212 -25c-232 0 -369 146 -369 358c0 313 229 577 538 577c233 0 355 -140 355 -346zM670 419c-41 34 -84 50 -125 50c-149 0 -215 -159 -215 -298c0 -66 31 -118 102 -118
c59 0 134 52 176 88z" />
    <glyph glyph-name="A" unicode="A" horiz-adv-x="627" 
d="M566 0h-58l-37 233h-314l-128 -233h-59l405 727h71zM464 281l-63 395l-218 -395h281z" />
    <glyph glyph-name="B" unicode="B" horiz-adv-x="640" 
d="M578 240c0 -177 -144 -240 -337 -240h-204l148 727h203c153 0 210 -66 210 -144c0 -92 -46 -162 -161 -196c78 -14 141 -61 141 -147zM306 408c120 0 238 41 238 167c0 76 -69 104 -179 104h-138l-55 -271h134zM223 48c136 0 299 15 299 187c0 97 -85 125 -222 125h-138
l-63 -312h124z" />
    <glyph glyph-name="C" unicode="C" horiz-adv-x="624" 
d="M659 612l-46 -29c-16 41 -63 110 -176 110c-199 0 -321 -186 -321 -427c0 -136 72 -232 214 -232c78 0 126 28 167 60l26 -43c-55 -39 -112 -66 -196 -66c-173 0 -267 112 -267 278c0 286 154 479 375 479c118 0 194 -51 224 -130z" />
    <glyph glyph-name="D" unicode="D" horiz-adv-x="698" 
d="M668 462c0 -272 -145 -462 -449 -462h-182l148 727h148c209 0 335 -93 335 -265zM99 48h126c257 0 387 156 387 407c0 148 -104 224 -297 224h-88z" />
    <glyph glyph-name="E" unicode="E" horiz-adv-x="592" 
d="M470 0h-433l148 727h432l-9 -48h-381l-54 -267h348l-9 -48h-349l-64 -316h380z" />
    <glyph glyph-name="F" unicode="F" horiz-adv-x="570" 
d="M601 679h-374l-53 -261h339l-10 -48h-339l-75 -370h-52l148 727h425z" />
    <glyph glyph-name="G" unicode="G" horiz-adv-x="694" 
d="M664 613l-46 -29c-24 55 -75 109 -183 109c-192 0 -319 -180 -319 -427c0 -134 73 -232 216 -232c70 0 133 22 192 50l40 196h-177l9 48h229l-55 -273c-76 -39 -161 -70 -243 -70c-183 0 -267 120 -267 282c0 239 120 475 381 475c122 0 196 -59 223 -129z" />
    <glyph glyph-name="H" unicode="H" horiz-adv-x="687" 
d="M689 727l-148 -727h-52l72 351h-401l-71 -351h-52l148 727h52l-67 -328h400l67 328h52z" />
    <glyph glyph-name="I" unicode="I" horiz-adv-x="336" 
d="M219 0h-229l8 44h89l130 639h-89l8 44h230l-8 -44h-89l-130 -639h88z" />
    <glyph glyph-name="J" unicode="J" horiz-adv-x="383" 
d="M268 168c-23 -112 -67 -183 -191 -183c-37 0 -86 11 -116 27l28 42c24 -12 58 -23 93 -23c95 0 117 50 141 171l97 478h-36c-63 0 -121 -19 -170 -56l-24 38c40 32 104 65 215 65h77z" />
    <glyph glyph-name="K" unicode="K" horiz-adv-x="621" 
d="M544 0h-59l-169 411l-177 -165l-50 -246h-52l148 727h52l-83 -407l432 407h67l-297 -278z" />
    <glyph glyph-name="L" unicode="L" horiz-adv-x="511" 
d="M442 0h-405l148 727h52l-138 -679h352z" />
    <glyph glyph-name="M" unicode="M" horiz-adv-x="810" 
d="M664 0h-50l138 674l-338 -461h-46l-142 461l-137 -674h-50l148 727h73l141 -454l333 454h78z" />
    <glyph glyph-name="N" unicode="N" horiz-adv-x="691" 
d="M545 0h-75l-245 672l-136 -672h-52l148 727h74l246 -671l136 671h52z" />
    <glyph glyph-name="O" unicode="O" horiz-adv-x="737" 
d="M707 460c0 -188 -87 -475 -380 -475c-171 0 -267 107 -267 283c0 187 88 474 378 474c173 0 269 -107 269 -282zM651 460c0 140 -76 233 -217 233c-218 0 -318 -225 -318 -426c0 -140 76 -233 217 -233c218 0 318 224 318 426z" />
    <glyph glyph-name="P" unicode="P" horiz-adv-x="592" 
d="M597 544c0 -193 -185 -238 -315 -238h-131l-62 -306h-52l148 727h176c151 0 236 -71 236 -183zM273 354c159 0 268 51 268 183c0 87 -66 142 -177 142h-137l-66 -325h112z" />
    <glyph glyph-name="Q" unicode="Q" horiz-adv-x="737" 
d="M707 460c0 -185 -85 -468 -369 -474c-7 -16 -10 -28 -10 -41c0 -51 63 -54 125 -54c47 0 118 14 136 18l6 -48c-23 -5 -100 -18 -166 -18c-104 0 -160 27 -160 95c0 15 4 32 11 50c-144 18 -220 122 -220 280c0 187 88 474 378 474c173 0 269 -107 269 -282zM651 460
c0 140 -76 233 -217 233c-218 0 -318 -225 -318 -426c0 -140 76 -233 217 -233c218 0 318 224 318 426z" />
    <glyph glyph-name="R" unicode="R" horiz-adv-x="643" 
d="M532 0h-55l-13 214c-4 68 -25 103 -86 103h-225l-64 -317h-52l148 727h218c131 0 215 -65 215 -172c0 -97 -47 -179 -167 -213c47 -15 61 -51 64 -100zM163 365h154c163 0 245 69 245 192c0 75 -56 122 -173 122h-162z" />
    <glyph glyph-name="S" unicode="S" horiz-adv-x="615" 
d="M537 217c0 -156 -114 -232 -271 -232c-143 0 -224 75 -248 142l48 25c27 -65 93 -118 210 -118c96 0 203 46 203 173c0 93 -86 126 -177 153c-100 30 -191 62 -191 166c0 142 108 216 252 216c122 0 202 -64 228 -139l-51 -26c-28 70 -84 116 -183 116
c-100 0 -189 -48 -189 -159c0 -72 76 -100 171 -130c98 -31 198 -72 198 -187z" />
    <glyph glyph-name="T" unicode="T" horiz-adv-x="525" 
d="M601 679h-240l-138 -679h-52l138 679h-240l9 48h532z" />
    <glyph glyph-name="U" unicode="U" horiz-adv-x="684" 
d="M595 279c-46 -225 -144 -294 -310 -294c-158 0 -204 75 -204 179c0 35 5 74 13 115l91 448h52l-89 -436c-9 -44 -14 -84 -14 -119c0 -84 36 -138 162 -138c150 0 212 75 248 253l90 440h52z" />
    <glyph glyph-name="V" unicode="V" horiz-adv-x="584" 
d="M664 727l-394 -727h-67l-98 727h55l87 -670l361 670h56z" />
    <glyph glyph-name="W" unicode="W" horiz-adv-x="860" 
d="M930 727l-319 -727h-74l-66 474l-260 -474h-78l-18 727h53l15 -680l268 485h61l69 -485l298 680h51z" />
    <glyph glyph-name="X" unicode="X" horiz-adv-x="589" 
d="M640 727l-303 -362l170 -365h-65l-145 320l-272 -320h-65l315 368l-168 359h65l142 -314l261 314h65z" />
    <glyph glyph-name="Y" unicode="Y" horiz-adv-x="568" 
d="M636 727l-343 -431l-60 -296h-52l60 295l-171 432h61l146 -375l295 375h64z" />
    <glyph glyph-name="Z" unicode="Z" horiz-adv-x="567" 
d="M478 0h-494l9 47l542 632h-398l10 48h468l-8 -40l-549 -639h430z" />
    <glyph glyph-name="bracketleft" unicode="[" horiz-adv-x="354" 
d="M210 -193h-211l186 920h212l-7 -39h-167l-173 -842h167z" />
    <glyph glyph-name="backslash" unicode="\" horiz-adv-x="362" 
d="M293 -146h-49l-182 888h49z" />
    <glyph glyph-name="bracketright" unicode="]" horiz-adv-x="354" 
d="M144 727h211l-186 -920h-212l7 39h167l173 842h-167z" />
    <glyph glyph-name="asciicircum" unicode="^" horiz-adv-x="577" 
d="M500 347h-42l-169 350l-170 -350h-42l185 386h53z" />
    <glyph glyph-name="underscore" unicode="_" horiz-adv-x="500" 
d="M506 -125h-512v50h512v-50z" />
    <glyph glyph-name="quoteleft" unicode="&#x2018;" horiz-adv-x="191" 
d="M60 556c0 54 43 133 88 186h38c-31 -37 -64 -91 -70 -142c18 0 36 -10 36 -34c0 -32 -17 -51 -52 -51c-31 0 -40 19 -40 41z" />
    <glyph glyph-name="a" unicode="a" horiz-adv-x="564" 
d="M531 506l-103 -506h-38l5 81c-51 -56 -111 -96 -189 -96c-122 0 -165 94 -165 200c0 156 95 336 279 336c69 0 120 -17 157 -32l35 17h19zM467 442c-41 17 -87 31 -151 31c-149 0 -220 -165 -220 -288c0 -96 35 -152 120 -152c68 0 123 41 191 115z" />
    <glyph glyph-name="b" unicode="b" horiz-adv-x="560" 
d="M519 321c0 -117 -54 -336 -261 -336c-56 0 -122 14 -160 29l-49 -14h-18l147 727h51l-63 -304c48 53 124 98 197 98c126 0 156 -120 156 -200zM258 33c164 0 206 173 206 288c0 42 -5 152 -110 152c-69 0 -140 -49 -199 -108l-61 -300c34 -15 98 -32 164 -32z" />
    <glyph glyph-name="c" unicode="c" horiz-adv-x="477" 
d="M488 436l-45 -25c-25 43 -74 64 -126 64c-158 0 -221 -155 -221 -290c0 -91 51 -154 145 -154c41 0 83 17 126 47l26 -42c-46 -31 -98 -51 -156 -51c-129 0 -196 79 -196 200c0 179 87 336 282 336c67 0 135 -26 165 -85z" />
    <glyph glyph-name="d" unicode="d" horiz-adv-x="564" 
d="M576 727l-148 -727h-38l5 81c-51 -56 -111 -96 -189 -96c-122 0 -165 94 -165 200c0 156 95 336 279 336c69 0 120 -17 157 -32l48 238h51zM467 442c-41 17 -87 31 -151 31c-149 0 -220 -165 -220 -288c0 -96 35 -152 120 -152c68 0 123 41 191 115z" />
    <glyph glyph-name="e" unicode="e" horiz-adv-x="495" 
d="M477 394c0 -53 -15 -141 -263 -158l-116 -8c-1 -11 -2 -24 -2 -38c0 -69 23 -159 136 -159c46 0 85 17 123 44l26 -41c-32 -22 -84 -49 -156 -49c-129 0 -184 86 -184 208c0 143 71 328 276 328c99 0 160 -53 160 -127zM106 275l74 5c161 11 242 35 242 105
s-63 90 -112 90c-108 0 -176 -81 -204 -200z" />
    <glyph glyph-name="f" unicode="f" horiz-adv-x="334" 
d="M221 462l-97 -479c-29 -142 -85 -176 -180 -176c-30 0 -63 8 -84 17l16 45c21 -9 44 -16 83 -16c78 0 98 51 114 130l97 479h-97l10 44h97l12 60c29 142 85 176 180 176c33 0 75 -11 93 -20l-22 -45c-21 10 -56 19 -86 19c-78 0 -98 -51 -114 -130l-12 -60h130l-10 -44
h-130z" />
    <glyph glyph-name="g" unicode="g" horiz-adv-x="571" 
d="M601 505l-11 -46c-7 3 -17 6 -35 6c-42 0 -49 -33 -62 -97l-74 -365c-26 -129 -94 -196 -242 -196c-66 0 -128 15 -154 32l21 50c39 -22 82 -33 130 -33c118 0 172 39 194 146l22 105c-61 -73 -119 -107 -191 -107c-109 0 -158 77 -158 180c0 159 94 341 276 341
c65 0 115 -18 157 -46c18 31 46 40 74 40c24 0 41 -5 53 -10zM407 189l48 238c-47 33 -89 46 -142 46c-141 0 -217 -159 -217 -293c0 -76 30 -133 112 -133c54 0 123 32 199 142z" />
    <glyph glyph-name="h" unicode="h" horiz-adv-x="564" 
d="M508 407c0 -18 -4 -49 -9 -75l-67 -332h-51l69 341c3 15 7 41 7 52c0 49 -27 79 -91 79c-66 0 -159 -59 -208 -99l-76 -373h-51l148 727h51l-61 -299c44 36 125 93 206 93c86 0 133 -47 133 -114z" />
    <glyph glyph-name="i" unicode="i" horiz-adv-x="253" 
d="M117 0h-51l84 411c4 19 7 33 7 43c0 9 -3 14 -10 14c-14 0 -39 -11 -67 -29l-19 37c30 21 70 45 105 45c34 0 45 -20 45 -44c0 -13 -1 -20 -5 -41zM247 651c0 -34 -17 -50 -48 -50c-24 0 -36 9 -36 32c0 33 16 49 48 49c25 0 36 -10 36 -31z" />
    <glyph glyph-name="j" unicode="j" horiz-adv-x="267" 
d="M261 651c0 -34 -17 -50 -48 -50c-24 0 -36 9 -36 32c0 33 16 49 48 49c25 0 36 -10 36 -31zM123 -36c-21 -105 -69 -157 -169 -157c-33 0 -63 9 -83 17l18 42c21 -9 47 -16 75 -16c69 0 95 45 113 132l87 429c4 19 7 33 7 43c0 9 -3 14 -10 14c-14 0 -39 -11 -67 -29
l-19 37c30 21 70 45 106 45c32 0 44 -20 44 -44c0 -13 -1 -20 -5 -41z" />
    <glyph glyph-name="k" unicode="k" horiz-adv-x="484" 
d="M426 37l8 -45c-17 -4 -35 -7 -49 -7c-33 0 -47 15 -72 68l-97 209l-100 -95l-34 -167h-51l147 727h51l-100 -489l283 268h67l-223 -209l107 -226c15 -31 24 -37 37 -37c7 0 17 1 26 3z" />
    <glyph glyph-name="l" unicode="l" horiz-adv-x="261" 
d="M200 36l6 -44c-12 -3 -43 -7 -70 -7c-62 0 -87 28 -87 83c0 17 2 35 8 64l117 578l57 32l-123 -603c-6 -31 -8 -49 -8 -64c0 -33 13 -45 49 -45c16 0 35 2 51 6z" />
    <glyph glyph-name="m" unicode="m" horiz-adv-x="841" 
d="M708 0h-51l61 303c7 33 13 66 13 94c0 44 -14 75 -75 75c-49 0 -123 -47 -185 -99l-76 -373h-51l62 303c7 36 12 69 12 96c0 45 -17 73 -74 73c-58 0 -136 -58 -186 -99l-76 -373h-51l103 506h51l-16 -78c50 42 121 93 190 93c66 0 109 -36 113 -100
c71 59 136 100 200 100c70 0 113 -37 113 -114c0 -21 -4 -45 -9 -71z" />
    <glyph glyph-name="n" unicode="n" horiz-adv-x="564" 
d="M508 407c0 -18 -4 -49 -9 -75l-67 -332h-51l69 341c3 15 7 41 7 52c0 49 -27 79 -91 79c-66 0 -159 -59 -208 -99l-76 -373h-51l103 506h51l-16 -78c44 36 125 93 206 93c86 0 133 -47 133 -114z" />
    <glyph glyph-name="o" unicode="o" horiz-adv-x="549" 
d="M508 323c0 -171 -81 -338 -274 -338c-116 0 -193 66 -193 200c0 168 81 336 275 336c115 0 192 -66 192 -198zM453 321c0 89 -45 154 -143 154c-151 0 -214 -159 -214 -290c0 -89 46 -154 143 -154c151 0 214 158 214 290z" />
    <glyph glyph-name="p" unicode="p" horiz-adv-x="565" 
d="M524 327c0 -183 -86 -342 -263 -342c-69 0 -130 30 -164 65l-50 -243h-50l142 699h29l10 -44c45 33 110 59 183 59c100 0 163 -68 163 -194zM262 33c143 0 207 138 207 297c0 65 -24 143 -120 143c-61 0 -123 -27 -180 -71l-62 -302c24 -27 80 -67 155 -67z" />
    <glyph glyph-name="q" unicode="q" horiz-adv-x="566" 
d="M389 -193h-51l56 273c-62 -66 -118 -95 -190 -95c-120 0 -163 96 -163 197c0 146 83 339 283 339c72 0 122 -21 154 -32l45 24h10zM407 148l60 294c-30 12 -79 31 -151 31c-133 0 -220 -139 -220 -293c0 -69 22 -147 119 -147c71 0 129 45 192 115z" />
    <glyph glyph-name="r" unicode="r" horiz-adv-x="357" 
d="M377 508l-21 -52c-8 4 -18 5 -27 5c-48 0 -111 -55 -179 -124l-69 -337h-50l103 506h51l-22 -104c73 75 126 112 179 112c13 0 26 -2 35 -6z" />
    <glyph glyph-name="s" unicode="s" horiz-adv-x="449" 
d="M427 437l-42 -27c-26 45 -87 65 -137 65c-87 0 -132 -44 -132 -101c0 -43 39 -69 116 -98c95 -36 145 -70 145 -135c0 -117 -99 -156 -209 -156c-66 0 -138 25 -173 82l42 28c32 -48 80 -64 136 -64c71 0 153 24 153 102c0 35 -23 61 -111 94c-81 30 -150 66 -150 138
c0 112 94 156 188 156c63 0 138 -25 174 -84z" />
    <glyph glyph-name="t" unicode="t" horiz-adv-x="335" 
d="M330 506l-9 -44h-122l-67 -329c-3 -17 -8 -42 -8 -54c0 -42 24 -52 63 -52c26 0 45 6 69 13l10 -42c-26 -8 -57 -13 -87 -13c-70 0 -106 22 -106 91c0 12 3 33 7 51l68 335h-98l9 44h98l32 154l56 27l-37 -181h122z" />
    <glyph glyph-name="u" unicode="u" horiz-adv-x="560" 
d="M425 0h-51l16 86c-78 -63 -140 -101 -206 -101c-101 0 -131 61 -131 123c0 14 2 36 5 49l71 349h51l-68 -333c-4 -21 -7 -41 -7 -59c0 -44 18 -80 90 -80c52 0 133 46 206 106l75 366h51z" />
    <glyph glyph-name="v" unicode="v" horiz-adv-x="469" 
d="M492 506l-288 -506h-62l-85 506h55l72 -451l254 451h54z" />
    <glyph glyph-name="w" unicode="w" horiz-adv-x="682" 
d="M708 506l-221 -506h-54l-84 344l-206 -344h-59l-26 506h53l19 -449l201 341h57l82 -336l188 444h50z" />
    <glyph glyph-name="x" unicode="x" horiz-adv-x="464" 
d="M386 0h-63l-99 215l-183 -215h-62l225 255l-122 251h63l98 -213l183 213h61l-224 -253z" />
    <glyph glyph-name="y" unicode="y" horiz-adv-x="481" 
d="M504 506l-326 -556c-63 -107 -114 -143 -189 -143c-26 0 -57 7 -69 10l16 46c15 -6 40 -9 62 -9c40 0 87 30 127 101l46 81l-111 470h59l92 -413l234 413h59z" />
    <glyph glyph-name="z" unicode="z" horiz-adv-x="430" 
d="M418 -38l-10 -47h-35c-112 0 -110 85 -267 85h-118l11 52l372 409h-298l10 45h357l-10 -49l-368 -406h44c181 0 182 -89 284 -89h28z" />
    <glyph glyph-name="braceleft" unicode="{" horiz-adv-x="399" 
d="M260 -193h-12c-85 0 -123 45 -123 118c0 69 30 136 30 209c0 68 -38 118 -121 121l10 54c125 0 170 75 192 186l15 71c23 110 71 176 180 176h20l-9 -40h-18c-77 0 -111 -57 -130 -151l-17 -81c-23 -114 -77 -173 -178 -191c67 -21 106 -66 106 -139
c0 -69 -33 -136 -33 -208c0 -55 25 -85 85 -85h12z" />
    <glyph glyph-name="bar" unicode="|" horiz-adv-x="370" 
d="M210 -193h-50v935h50v-935z" />
    <glyph glyph-name="braceright" unicode="}" horiz-adv-x="399" 
d="M137 742h12c85 0 123 -45 123 -118c0 -69 -30 -136 -30 -209c0 -68 38 -118 121 -121l-10 -54c-125 0 -170 -75 -192 -186l-15 -71c-25 -117 -77 -176 -180 -176h-20l9 40h17c80 0 112 57 131 151l17 81c23 114 77 173 178 191c-67 21 -106 66 -106 139
c0 69 33 136 33 208c0 55 -25 85 -85 85h-12z" />
    <glyph glyph-name="asciitilde" unicode="~" horiz-adv-x="645" 
d="M579 280c-40 -35 -78 -55 -133 -55c-83 0 -176 82 -237 82s-102 -27 -143 -69v52c37 34 82 56 133 56c84 0 173 -83 241 -83c57 0 102 28 139 69v-52z" />
    <glyph glyph-name="exclamdown" unicode="&#xa1;" horiz-adv-x="228" 
d="M12 -193l115 536h44l-101 -536h-58zM127 469c0 32 14 52 54 52c22 0 39 -9 39 -30c0 -34 -16 -52 -54 -52c-21 0 -39 8 -39 30z" />
    <glyph glyph-name="cent" unicode="&#xa2;" horiz-adv-x="477" 
d="M31 -166h-45l123 221c-45 35 -68 92 -68 163c0 179 87 336 282 336c20 0 41 -3 61 -8l109 196h46l-118 -210c28 -14 52 -34 67 -63l-45 -25c-11 19 -27 34 -46 44l-229 -408c20 -11 45 -16 73 -16c41 0 83 17 126 47l26 -42c-46 -31 -98 -51 -156 -51c-36 0 -68 6 -94 17
zM96 218c0 -48 14 -87 40 -115l223 400c-13 3 -28 5 -42 5c-158 0 -221 -155 -221 -290z" />
    <glyph glyph-name="sterling" unicode="&#xa3;" horiz-adv-x="576" 
d="M450 0h-487l11 52c94 40 141 177 146 268h-80l10 47h74c0 37 -8 72 -8 110c0 150 88 265 249 265c78 0 159 -26 198 -105l-47 -28c-33 63 -82 84 -153 84c-121 0 -189 -86 -189 -211c0 -45 6 -84 6 -115h205l-10 -47h-197c-5 -105 -55 -221 -136 -271h418z" />
    <glyph glyph-name="fraction" unicode="&#x2044;" horiz-adv-x="100" 
d="M361 727l-569 -878h-53l569 878h53z" />
    <glyph glyph-name="yen" unicode="&#xa5;" horiz-adv-x="568" 
d="M46 340l9 45h150l-135 342h61l146 -375l295 375h64l-272 -342h154l-9 -45h-181l-35 -44l-9 -45h207l-9 -45h-207l-42 -206h-52l42 206h-204l9 45h204l9 44l-18 45h-177z" />
    <glyph glyph-name="florin" unicode="&#x192;" horiz-adv-x="454" 
d="M453 721l-16 -50c-27 11 -44 18 -70 18c-29 0 -42 -23 -60 -101l-19 -82h92l-10 -52h-94l-108 -516c-24 -116 -74 -133 -117 -133c-31 0 -56 9 -83 21l15 49c26 -11 50 -17 71 -17c27 0 44 13 68 128l99 468h-76l12 52h75l27 111c26 105 59 125 110 125
c29 0 66 -13 84 -21z" />
    <glyph glyph-name="section" unicode="&#xa7;" horiz-adv-x="479" 
d="M439 291c0 -95 -86 -156 -168 -196c41 -34 75 -69 75 -126c0 -112 -105 -162 -213 -162c-68 0 -125 27 -159 65l44 37c36 -39 78 -50 126 -50c64 0 143 27 143 104c0 51 -73 95 -136 142c-61 45 -112 94 -112 166c0 93 83 141 163 181c-33 28 -67 72 -67 121
c0 118 103 169 207 169c71 0 132 -28 163 -65l-45 -37c-29 31 -74 50 -126 50c-50 0 -140 -15 -140 -105c0 -111 245 -155 245 -294zM234 120c48 22 151 75 151 153c0 68 -90 116 -144 155c-60 -30 -148 -78 -148 -145c0 -65 93 -131 141 -163z" />
    <glyph glyph-name="currency" unicode="&#xa4;" horiz-adv-x="627" 
d="M462 237l67 -64l-33 -34l-66 67c-32 -26 -74 -41 -118 -41c-33 0 -80 9 -118 41l-66 -67l-33 34l67 64c-23 32 -40 72 -40 117s15 87 40 117l-67 65l33 34l66 -67c41 31 85 41 118 41c37 0 84 -13 117 -41l67 67l33 -34l-67 -65c27 -35 40 -77 40 -117
c0 -45 -15 -84 -40 -117zM455 355c0 85 -71 142 -142 142c-83 0 -144 -66 -144 -142c0 -78 64 -144 143 -144s143 66 143 144z" />
    <glyph glyph-name="quotesingle" unicode="'" horiz-adv-x="225" 
d="M176 742l-71 -269h-40l38 269h73z" />
    <glyph glyph-name="quotedblleft" unicode="&#x201c;" horiz-adv-x="389" 
d="M60 556c0 54 43 133 88 186h38c-31 -37 -64 -91 -70 -142c18 0 36 -10 36 -34c0 -32 -17 -51 -52 -51c-31 0 -40 19 -40 41zM258 556c0 54 43 133 88 186h38c-31 -37 -64 -91 -70 -142c18 0 36 -10 36 -34c0 -32 -17 -51 -52 -51c-31 0 -40 19 -40 41z" />
    <glyph glyph-name="guillemotleft" unicode="&#xab;" horiz-adv-x="508" 
d="M228 26h-63l-144 228l237 227h63l-238 -227zM427 26h-63l-144 228l237 227h63l-238 -227z" />
    <glyph glyph-name="guilsinglleft" unicode="&#x2039;" horiz-adv-x="309" 
d="M239 26h-63l-144 228l237 227h63l-238 -227z" />
    <glyph glyph-name="guilsinglright" unicode="&#x203a;" horiz-adv-x="309" 
d="M81 482h63l144 -228l-237 -227h-63l238 227z" />
    <glyph glyph-name="endash" unicode="&#x2013;" horiz-adv-x="500" 
d="M500 228h-511l11 51h511z" />
    <glyph glyph-name="dagger" unicode="&#x2020;" horiz-adv-x="492" 
d="M490 424l-192 11l-113 -628h-72l144 628l-195 -11l13 62l190 -12l42 268h65l-67 -268l198 12z" />
    <glyph glyph-name="daggerdbl" unicode="&#x2021;" horiz-adv-x="492" 
d="M409 28l-192 12l-36 -233h-65l61 233l-195 -12l13 62l190 -11l28 195l51 196l-195 -11l13 62l190 -12l35 233h65l-60 -233l198 12l-13 -62l-192 11l-30 -196l-49 -195l196 11z" />
    <glyph glyph-name="periodcentered" unicode="&#xb7;" horiz-adv-x="228" 
d="M161 296c0 -32 -14 -52 -54 -52c-22 0 -39 9 -39 30c0 34 16 52 54 52c21 0 39 -8 39 -30z" />
    <glyph glyph-name="paragraph" unicode="&#xb6;" horiz-adv-x="572" 
d="M636 680h-101l-178 -873h-57l178 873h-107l-178 -873h-57l106 519c-101 0 -175 45 -175 148c0 157 116 253 269 253h309z" />
    <glyph glyph-name="bullet" unicode="&#x2022;" horiz-adv-x="333" 
d="M282 365c0 -64 -51 -116 -115 -116s-116 52 -116 116s52 115 116 115s115 -51 115 -115z" />
    <glyph glyph-name="quotesinglbase" unicode="&#x201a;" horiz-adv-x="191" 
d="M131 37c0 -54 -43 -133 -88 -186h-38c31 37 64 91 70 142c-18 0 -36 10 -36 34c0 32 17 51 52 51c31 0 40 -19 40 -41z" />
    <glyph glyph-name="quotedblbase" unicode="&#x201e;" horiz-adv-x="425" 
d="M172 37c0 -54 -43 -133 -88 -186h-38c31 37 64 91 70 142c-18 0 -36 10 -36 34c0 32 17 51 52 51c31 0 40 -19 40 -41zM370 37c0 -54 -43 -133 -88 -186h-38c31 37 64 91 70 142c-18 0 -36 10 -36 34c0 32 17 51 52 51c31 0 40 -19 40 -41z" />
    <glyph glyph-name="quotedblright" unicode="&#x201d;" horiz-adv-x="413" 
d="M191 701c0 -54 -43 -133 -88 -186h-38c31 37 64 91 70 142c-18 0 -36 10 -36 34c0 32 17 51 52 51c31 0 40 -19 40 -41zM388 701c0 -54 -43 -133 -88 -186h-38c31 37 64 91 70 142c-18 0 -36 10 -36 34c0 32 17 51 52 51c31 0 40 -19 40 -41z" />
    <glyph glyph-name="guillemotright" unicode="&#xbb;" horiz-adv-x="508" 
d="M81 482h63l144 -228l-237 -227h-63l238 227zM280 482h63l144 -228l-237 -227h-63l238 227z" />
    <glyph glyph-name="ellipsis" unicode="&#x2026;" horiz-adv-x="1000" 
d="M212 45c0 -32 -14 -52 -54 -52c-22 0 -39 9 -39 30c0 34 16 52 54 52c21 0 39 -8 39 -30zM546 45c0 -32 -14 -52 -54 -52c-22 0 -39 9 -39 30c0 34 16 52 54 52c21 0 39 -8 39 -30zM879 45c0 -32 -14 -52 -54 -52c-22 0 -39 9 -39 30c0 34 16 52 54 52c21 0 39 -8 39 -30
z" />
    <glyph glyph-name="perthousand" unicode="&#x2030;" horiz-adv-x="1416" 
d="M809 742l-550 -888h-54l550 888h54zM447 585c0 -126 -49 -301 -227 -301c-105 0 -152 75 -152 159c0 133 48 299 221 299c106 0 158 -72 158 -157zM229 329c122 0 169 133 169 251c0 69 -38 117 -113 117c-124 0 -167 -120 -167 -243c0 -72 31 -125 111 -125zM942 137
c0 -126 -49 -301 -227 -301c-105 0 -152 75 -152 159c0 133 48 299 221 299c106 0 158 -72 158 -157zM724 -119c122 0 169 133 169 251c0 69 -38 117 -113 117c-124 0 -167 -120 -167 -243c0 -72 31 -125 111 -125zM1379 137c0 -126 -49 -301 -227 -301
c-105 0 -152 75 -152 159c0 133 48 299 221 299c106 0 158 -72 158 -157zM1161 -119c122 0 169 133 169 251c0 69 -38 117 -113 117c-124 0 -167 -120 -167 -243c0 -72 31 -125 111 -125z" />
    <glyph glyph-name="questiondown" unicode="&#xbf;" horiz-adv-x="466" 
d="M28 -44c0 74 33 130 88 178c52 46 116 79 177 111l23 117h45l-30 -147c-43 -22 -90 -46 -132 -75c-65 -45 -116 -99 -116 -182c0 -72 58 -106 129 -106c65 0 117 24 159 72l38 -32c-53 -63 -120 -85 -200 -85c-99 0 -181 45 -181 149zM316 469c0 32 14 52 54 52
c22 0 39 -9 39 -30c0 -34 -16 -52 -54 -52c-21 0 -39 8 -39 30z" />
    <glyph glyph-name="grave" unicode="`" horiz-adv-x="500" 
d="M279 590h-45l-113 176h79z" />
    <glyph glyph-name="acute" unicode="&#xb4;" horiz-adv-x="500" 
d="M409 766l-183 -176h-45l149 176h79z" />
    <glyph glyph-name="circumflex" unicode="&#x2c6;" horiz-adv-x="500" 
d="M377 590h-45l-74 129l-127 -129h-44l146 176h71z" />
    <glyph glyph-name="tilde" unicode="&#x2dc;" horiz-adv-x="500" 
d="M440 745c-13 -66 -43 -134 -115 -134c-82 0 -87 90 -150 90c-45 0 -65 -57 -74 -90h-43c13 64 53 134 127 134c84 0 90 -90 145 -90c43 0 60 59 67 90h43z" />
    <glyph glyph-name="macron" unicode="&#xaf;" horiz-adv-x="500" 
d="M388 648h-288l11 57h288z" />
    <glyph glyph-name="breve" unicode="&#x2d8;" horiz-adv-x="500" 
d="M408 747c-32 -65 -82 -138 -173 -138c-93 0 -113 89 -115 138h41c12 -48 31 -79 86 -79c53 0 85 27 119 79h42z" />
    <glyph glyph-name="dotaccent" unicode="&#x2d9;" horiz-adv-x="500" 
d="M292 654c0 -36 -18 -53 -49 -53c-24 0 -37 9 -37 35c0 35 17 52 49 52c26 0 37 -10 37 -34z" />
    <glyph glyph-name="dieresis" unicode="&#xa8;" horiz-adv-x="500" 
d="M377 651c0 -34 -17 -50 -48 -50c-24 0 -36 9 -36 32c0 33 16 49 48 49c25 0 36 -10 36 -31zM205 651c0 -34 -17 -50 -48 -50c-24 0 -36 9 -36 32c0 33 16 49 48 49c25 0 36 -10 36 -31z" />
    <glyph glyph-name="ring" unicode="&#x2da;" horiz-adv-x="500" 
d="M334 679c0 -57 -36 -108 -104 -108c-47 0 -67 28 -67 64c0 56 35 108 102 108c47 0 69 -25 69 -64zM236 602c40 0 63 30 63 70c0 25 -10 40 -40 40c-39 0 -61 -32 -61 -72c0 -21 10 -38 38 -38z" />
    <glyph glyph-name="cedilla" unicode="&#xb8;" horiz-adv-x="500" 
d="M338 -86c0 -70 -69 -107 -138 -107c-41 0 -82 11 -104 21l24 36c26 -13 57 -19 94 -19c35 0 83 17 83 63c0 34 -45 51 -81 51l34 50h37l-16 -24c52 -13 67 -42 67 -71z" />
    <glyph glyph-name="hungarumlaut" unicode="&#x2dd;" horiz-adv-x="500" 
d="M444 766l-183 -176h-45l149 176h79zM274 766l-183 -176h-45l149 176h79z" />
    <glyph glyph-name="ogonek" unicode="&#x2db;" horiz-adv-x="500" 
d="M362 -161c-26 -15 -70 -32 -116 -32c-60 0 -87 32 -87 77c0 49 27 101 61 147h46c-23 -33 -55 -82 -55 -130c0 -32 20 -48 57 -48c29 0 59 9 83 19z" />
    <glyph glyph-name="caron" unicode="&#x2c7;" horiz-adv-x="500" 
d="M412 766l-146 -176h-71l-73 176h44l74 -129l127 129h45z" />
    <glyph glyph-name="emdash" unicode="&#x2014;" horiz-adv-x="1000" 
d="M1000 228h-1011l11 51h1011z" />
    <glyph glyph-name="AE" unicode="&#xc6;" horiz-adv-x="861" 
d="M732 0h-390l49 233h-256l-138 -233h-55l433 727h504l-9 -48h-338l-54 -267h305l-9 -48h-306l-64 -316h337zM399 281l81 398h-82l-236 -398h237z" />
    <glyph glyph-name="ordfeminine" unicode="&#xaa;" horiz-adv-x="381" 
d="M381 732l-67 -329h-36l3 47c-35 -33 -81 -57 -124 -57c-88 0 -112 61 -112 130c0 102 67 219 186 219c46 0 79 -11 102 -20l33 10h15zM326 682c-27 11 -52 20 -94 20c-91 0 -139 -87 -139 -179c0 -62 25 -90 73 -90c44 0 79 20 122 66z" />
    <glyph glyph-name="Lslash" unicode="&#x141;" horiz-adv-x="511" 
d="M442 0h-405l60 296l-104 -72l11 53l104 71l77 379h52l-69 -337l182 126l-10 -53l-182 -125l-59 -290h352z" />
    <glyph glyph-name="Oslash" unicode="&#xd8;" horiz-adv-x="737" 
d="M707 460c0 -188 -87 -475 -380 -475c-81 0 -146 24 -191 68l-97 -109h-60l128 144c-31 47 -47 107 -47 180c0 187 88 474 378 474c81 0 145 -24 190 -67l79 89h60l-109 -123c32 -47 49 -108 49 -181zM651 460c0 53 -11 99 -33 136l-444 -501c36 -39 90 -61 159 -61
c218 0 318 224 318 426zM116 267c0 -52 10 -98 31 -134l444 500c-37 38 -90 60 -157 60c-218 0 -318 -225 -318 -426z" />
    <glyph glyph-name="OE" unicode="&#x152;" horiz-adv-x="934" 
d="M805 0h-385c-33 -9 -71 -15 -110 -15c-171 0 -267 107 -267 283c0 187 82 474 390 474c54 0 90 -9 107 -15h412l-9 -48h-333l-54 -267h300l-9 -48h-301l-64 -316h332zM316 34c43 0 82 8 116 24l124 609c-33 18 -77 26 -131 26c-231 0 -326 -225 -326 -426
c0 -140 76 -233 217 -233z" />
    <glyph glyph-name="ordmasculine" unicode="&#xba;" horiz-adv-x="394" 
d="M364 613c0 -111 -56 -219 -187 -219c-79 0 -132 43 -132 129c0 109 53 219 185 219c79 0 134 -45 134 -129zM315 607c0 54 -28 95 -88 95c-94 0 -134 -88 -134 -176c0 -54 29 -94 90 -94c92 0 132 87 132 175z" />
    <glyph glyph-name="ae" unicode="&#xe6;" horiz-adv-x="870" 
d="M852 394c0 -53 -15 -141 -263 -158l-116 -8c-1 -11 -2 -24 -2 -38c0 -69 23 -159 136 -159c46 0 85 17 123 44l26 -41c-32 -22 -84 -49 -156 -49c-85 0 -141 38 -164 108l-17 -93h-38l5 81c-51 -56 -113 -96 -183 -96c-116 0 -162 94 -162 200c0 156 89 336 277 336
c69 0 113 -17 150 -32l35 17h19l-17 -72c49 59 116 87 192 87c92 0 155 -53 155 -127zM458 442c-41 17 -81 31 -145 31c-149 0 -217 -165 -217 -288c0 -96 39 -152 117 -152c60 0 117 41 185 115zM481 275l74 5c161 11 242 35 242 105s-63 90 -112 90
c-108 0 -176 -81 -204 -200z" />
    <glyph glyph-name="dotlessi" unicode="&#x131;" horiz-adv-x="253" 
d="M117 0h-51l84 411c4 19 7 33 7 43c0 9 -3 14 -10 14c-14 0 -39 -11 -67 -29l-19 37c30 21 70 45 105 45c34 0 45 -20 45 -44c0 -13 -1 -20 -5 -41z" />
    <glyph glyph-name="lslash" unicode="&#x142;" horiz-adv-x="261" 
d="M200 36l6 -44c-12 -3 -43 -7 -70 -7c-62 0 -87 28 -87 83c0 17 2 35 8 64l35 175l-96 -76l9 55l99 78l70 346l57 32l-68 -331l106 84l-9 -55l-108 -86l-44 -215c-6 -31 -8 -49 -8 -64c0 -33 13 -45 49 -45c16 0 35 2 51 6z" />
    <glyph glyph-name="oslash" unicode="&#xf8;" horiz-adv-x="549" 
d="M508 323c0 -171 -81 -338 -274 -338c-52 0 -97 14 -130 40l-54 -62h-54l80 92c-23 32 -35 75 -35 130c0 168 81 336 275 336c53 0 97 -14 130 -42l56 64h54l-82 -94c22 -32 34 -74 34 -126zM96 185c0 -33 6 -63 18 -87l297 341c-24 22 -57 36 -101 36
c-151 0 -214 -159 -214 -290zM453 321c0 31 -6 60 -18 84l-296 -339c24 -22 57 -35 100 -35c151 0 214 158 214 290z" />
    <glyph glyph-name="oe" unicode="&#x153;" horiz-adv-x="882" 
d="M864 394c0 -53 -15 -141 -263 -158l-108 -8c-1 -11 -2 -24 -2 -38c0 -69 19 -159 128 -159c46 0 85 17 123 44l26 -41c-32 -22 -79 -49 -151 -49c-94 0 -149 48 -171 124c-42 -74 -111 -124 -212 -124c-116 0 -193 66 -193 200c0 168 81 336 275 336
c87 0 149 -41 171 -122c42 70 111 122 217 122c99 0 160 -53 160 -127zM442 321c0 89 -40 154 -132 154c-151 0 -214 -159 -214 -290c0 -89 46 -154 143 -154c147 0 203 141 203 290zM501 275l66 5c161 11 242 35 242 105s-63 90 -112 90c-108 0 -168 -81 -196 -200z" />
    <glyph glyph-name="germandbls" unicode="&#xdf;" horiz-adv-x="558" 
d="M484 266c0 -156 -94 -281 -260 -281c-40 0 -79 10 -104 20l10 47c26 -11 59 -21 105 -21c122 0 196 104 196 228c0 105 -94 135 -214 135l11 52c101 0 226 16 226 150c0 64 -47 100 -118 100c-113 0 -153 -84 -173 -183l-108 -530c-29 -142 -85 -176 -180 -176
c-30 0 -63 8 -84 17l16 45c21 -9 44 -16 83 -16c78 0 98 51 114 130l107 526c28 136 82 233 233 233c94 0 165 -50 165 -138c0 -107 -76 -171 -186 -183c102 -8 161 -66 161 -155z" />
    <glyph glyph-name="logicalnot" unicode="&#xac;" 
d="M584 154h-41v222h-472v41h513v-263z" />
    <glyph glyph-name="mu" unicode="&#xb5;" horiz-adv-x="568" 
d="M451 0h-51l13 65c-58 -58 -115 -80 -166 -80c-53 0 -93 12 -135 55l-48 -233h-51l143 699h51l-82 -400c34 -46 78 -66 131 -66c50 0 111 29 168 80l79 386h51z" />
    <glyph glyph-name="trademark" unicode="&#x2122;" horiz-adv-x="780" 
d="M720 378h-49v265l-91 -170h-40l-87 171v-266h-49v349h64l93 -188l101 188h58v-349zM321 678h-105v-300h-50v300h-106v49h261v-49z" />
    <glyph glyph-name="Eth" unicode="&#xd0;" horiz-adv-x="698" 
d="M668 462c0 -272 -145 -462 -449 -462h-182l70 344h-85l9 48h86l68 335h148c209 0 335 -93 335 -265zM99 48h126c257 0 387 156 387 407c0 148 -104 224 -297 224h-88l-58 -287h202l-9 -48h-203z" />
    <glyph glyph-name="onehalf" unicode="&#xbd;" horiz-adv-x="1015" 
d="M839 742l-550 -888h-54l550 888h54zM309 293h-242l8 38h107l64 315c-35 -19 -80 -35 -127 -43l7 37c64 19 116 53 160 102h24l-83 -411h90zM922 -155h-350l9 45c55 35 116 73 170 112c97 69 170 112 170 176c0 51 -39 71 -101 71c-50 0 -102 -21 -143 -60l-32 28
c37 38 92 77 184 77c80 0 145 -32 145 -107c0 -77 -76 -131 -147 -181c-62 -44 -97 -68 -171 -116h275z" />
    <glyph glyph-name="plusminus" unicode="&#xb1;" 
d="M584 274h-236v-188h-41v188h-236v41h236v215h41v-215h236v-41zM584 0h-513v41h513v-41z" />
    <glyph glyph-name="Thorn" unicode="&#xde;" horiz-adv-x="592" 
d="M569 406c0 -193 -185 -238 -315 -238h-131l-34 -168h-52l148 727h52l-28 -138h124c151 0 236 -71 236 -183zM164 369l-31 -153h112c159 0 268 51 268 183c0 87 -66 142 -177 142h-137z" />
    <glyph glyph-name="onequarter" unicode="&#xbc;" horiz-adv-x="1015" 
d="M839 742l-550 -888h-54l550 888h54zM309 293h-242l8 38h107l64 315c-35 -19 -80 -35 -127 -43l7 37c64 19 116 53 160 102h24l-83 -411h90zM911 -43h-69l-25 -124h-45l25 124h-234l6 31l313 306h28l-60 -295h69zM805 -1l42 206l-212 -206h170z" />
    <glyph glyph-name="divide" unicode="&#xf7;" 
d="M367 501c0 -30 -11 -40 -40 -40c-36 0 -40 19 -40 40c0 26 7 41 40 41c37 0 40 -19 40 -41zM584 265h-513v41h513v-41zM367 69c0 -30 -11 -40 -40 -40c-36 0 -40 19 -40 40c0 26 7 41 40 41c37 0 40 -19 40 -41z" />
    <glyph glyph-name="brokenbar" unicode="&#xa6;" horiz-adv-x="370" 
d="M210 431h-50v311h50v-311zM210 -193h-50v311h50v-311z" />
    <glyph glyph-name="degree" unicode="&#xb0;" horiz-adv-x="398" 
d="M338 604c0 -78 -64 -139 -138 -139c-76 0 -140 61 -140 139c0 77 64 138 139 138c78 0 139 -63 139 -138zM293 602c0 52 -41 95 -93 95c-55 0 -95 -44 -95 -93c0 -52 42 -94 95 -94c52 0 93 41 93 92z" />
    <glyph glyph-name="thorn" unicode="&#xfe;" horiz-adv-x="565" 
d="M524 330c0 -162 -100 -345 -277 -345c-65 0 -111 24 -151 63l-49 -241h-50l187 920h50l-54 -265c38 29 98 59 171 59c125 0 173 -87 173 -191zM248 33c143 0 221 164 221 297c0 72 -34 143 -126 143c-61 0 -113 -18 -174 -66l-62 -303c24 -27 74 -71 141 -71z" />
    <glyph glyph-name="threequarters" unicode="&#xbe;" horiz-adv-x="1015" 
d="M839 742l-550 -888h-54l550 888h54zM911 -43h-69l-25 -124h-45l25 124h-234l6 31l313 306h28l-60 -295h69zM805 -1l42 206l-212 -206h170zM353 446c0 -106 -94 -162 -202 -162c-62 0 -127 25 -150 72l45 26c23 -40 65 -52 111 -52c72 0 144 27 144 113
c0 52 -50 72 -112 72c-19 0 -39 -2 -65 -7l4 19l201 164h-234l8 42h293l-8 -43l-168 -136c77 -2 133 -43 133 -108z" />
    <glyph glyph-name="registered" unicode="&#xae;" horiz-adv-x="938" 
d="M886 325c0 -230 -187 -417 -417 -417s-417 187 -417 417s187 417 417 417s417 -187 417 -417zM838 325c0 204 -165 369 -369 369s-369 -165 -369 -369s165 -369 369 -369s369 165 369 369zM644 105h-56l-36 134c-10 38 -26 51 -55 51h-127v-185h-54v447h143
c97 0 164 -28 164 -125c0 -63 -26 -98 -65 -113c21 -7 34 -25 43 -56zM569 427c0 57 -31 76 -113 76h-86v-163h84c90 0 115 19 115 87z" />
    <glyph glyph-name="minus" unicode="&#x2212;" 
d="M584 265h-513v41h513v-41z" />
    <glyph glyph-name="eth" unicode="&#xf0;" horiz-adv-x="549" 
d="M486 361c0 -169 -61 -376 -283 -376c-131 0 -191 87 -191 194c0 156 79 327 270 327c54 0 109 -14 141 -58c-11 72 -55 153 -95 201l-116 -58l-12 25l110 54c-20 26 -47 54 -72 72h54c23 -12 44 -32 62 -50l83 42l14 -25l-76 -37c69 -79 111 -188 111 -311zM208 31
c153 0 217 152 217 279c0 81 -46 150 -144 150c-143 0 -214 -135 -214 -282c0 -74 41 -147 141 -147z" />
    <glyph glyph-name="multiply" unicode="&#xd7;" 
d="M555 87l-28 -30l-199 199l-198 -199l-30 30l199 198l-198 199l29 29l198 -199l199 199l28 -28l-198 -200z" />
    <glyph glyph-name="copyright" unicode="&#xa9;" horiz-adv-x="938" 
d="M886 325c0 -230 -187 -417 -417 -417s-417 187 -417 417s187 417 417 417s417 -187 417 -417zM838 325c0 204 -165 369 -369 369s-369 -165 -369 -369s165 -369 369 -369s369 165 369 369zM652 471l-44 -32c-19 34 -55 71 -118 71c-110 0 -150 -67 -150 -184
c0 -123 45 -182 151 -182c53 0 86 22 115 44l32 -44c-50 -38 -94 -50 -147 -50c-137 0 -207 71 -207 232c0 159 70 234 207 234c78 0 130 -33 161 -89z" />
    <glyph glyph-name="Aacute" unicode="&#xc1;" horiz-adv-x="627" 
d="M566 0h-58l-37 233h-314l-128 -233h-59l405 727h71zM464 281l-63 395l-218 -395h281zM616 956l-183 -176h-45l149 176h79z" />
    <glyph glyph-name="Acircumflex" unicode="&#xc2;" horiz-adv-x="627" 
d="M566 0h-58l-37 233h-314l-128 -233h-59l405 727h71zM464 281l-63 395l-218 -395h281zM563 780h-45l-74 129l-127 -129h-44l146 176h71z" />
    <glyph glyph-name="Adieresis" unicode="&#xc4;" horiz-adv-x="627" 
d="M566 0h-58l-37 233h-314l-128 -233h-59l405 727h71zM464 281l-63 395l-218 -395h281zM552 830c0 -34 -17 -50 -48 -50c-24 0 -36 9 -36 32c0 33 16 49 48 49c25 0 36 -10 36 -31zM380 830c0 -34 -17 -50 -48 -50c-24 0 -36 9 -36 32c0 33 16 49 48 49c25 0 36 -10 36 -31
z" />
    <glyph glyph-name="Agrave" unicode="&#xc0;" horiz-adv-x="627" 
d="M566 0h-58l-37 233h-314l-128 -233h-59l405 727h71zM464 281l-63 395l-218 -395h281zM440 780h-45l-113 176h79z" />
    <glyph glyph-name="Aring" unicode="&#xc5;" horiz-adv-x="627" 
d="M566 0h-58l-37 233h-314l-128 -233h-59l391 702c-26 14 -37 40 -37 70c0 69 43 132 125 132c58 0 85 -30 85 -78c0 -57 -29 -109 -84 -127zM464 281l-63 395l-218 -395h281zM413 727h4c51 2 80 41 80 92c0 33 -13 53 -54 53c-53 0 -83 -43 -83 -95c0 -28 13 -50 53 -50z
" />
    <glyph glyph-name="Atilde" unicode="&#xc3;" horiz-adv-x="627" 
d="M566 0h-58l-37 233h-314l-128 -233h-59l405 727h71zM464 281l-63 395l-218 -395h281zM617 914c-13 -66 -43 -134 -115 -134c-82 0 -87 90 -150 90c-45 0 -65 -57 -74 -90h-43c13 64 53 134 127 134c84 0 90 -90 145 -90c43 0 60 59 67 90h43z" />
    <glyph glyph-name="Ccedilla" unicode="&#xc7;" horiz-adv-x="624" 
d="M410 -86c0 -70 -69 -107 -138 -107c-41 0 -82 11 -104 21l24 36c26 -13 57 -19 94 -19c35 0 83 17 83 63c0 34 -45 51 -81 51l18 27c-160 8 -246 118 -246 277c0 286 154 479 375 479c118 0 194 -51 224 -130l-46 -29c-16 41 -63 110 -176 110
c-199 0 -321 -186 -321 -427c0 -136 72 -232 214 -232c78 0 126 28 167 60l26 -43c-52 -37 -105 -63 -180 -66c52 -13 67 -42 67 -71z" />
    <glyph glyph-name="Eacute" unicode="&#xc9;" horiz-adv-x="592" 
d="M470 0h-433l148 727h432l-9 -48h-381l-54 -267h348l-9 -48h-349l-64 -316h380zM557 956l-183 -176h-45l149 176h79z" />
    <glyph glyph-name="Ecircumflex" unicode="&#xca;" horiz-adv-x="592" 
d="M470 0h-433l148 727h432l-9 -48h-381l-54 -267h348l-9 -48h-349l-64 -316h380zM550 780h-45l-74 129l-127 -129h-44l146 176h71z" />
    <glyph glyph-name="Edieresis" unicode="&#xcb;" horiz-adv-x="592" 
d="M470 0h-433l148 727h432l-9 -48h-381l-54 -267h348l-9 -48h-349l-64 -316h380zM533 830c0 -34 -17 -50 -48 -50c-24 0 -36 9 -36 32c0 33 16 49 48 49c25 0 36 -10 36 -31zM361 830c0 -34 -17 -50 -48 -50c-24 0 -36 9 -36 32c0 33 16 49 48 49c25 0 36 -10 36 -31z" />
    <glyph glyph-name="Egrave" unicode="&#xc8;" horiz-adv-x="592" 
d="M470 0h-433l148 727h432l-9 -48h-381l-54 -267h348l-9 -48h-349l-64 -316h380zM456 780h-45l-113 176h79z" />
    <glyph glyph-name="Iacute" unicode="&#xcd;" horiz-adv-x="336" 
d="M219 0h-229l8 44h89l130 639h-89l8 44h230l-8 -44h-89l-130 -639h88zM455 956l-183 -176h-45l149 176h79z" />
    <glyph glyph-name="Icircumflex" unicode="&#xce;" horiz-adv-x="336" 
d="M219 0h-229l8 44h89l130 639h-89l8 44h230l-8 -44h-89l-130 -639h88zM417 780h-45l-74 129l-127 -129h-44l146 176h71z" />
    <glyph glyph-name="Idieresis" unicode="&#xcf;" horiz-adv-x="336" 
d="M219 0h-229l8 44h89l130 639h-89l8 44h230l-8 -44h-89l-130 -639h88zM392 830c0 -34 -17 -50 -48 -50c-24 0 -36 9 -36 32c0 33 16 49 48 49c25 0 36 -10 36 -31zM220 830c0 -34 -17 -50 -48 -50c-24 0 -36 9 -36 32c0 33 16 49 48 49c25 0 36 -10 36 -31z" />
    <glyph glyph-name="Igrave" unicode="&#xcc;" horiz-adv-x="336" 
d="M219 0h-229l8 44h89l130 639h-89l8 44h230l-8 -44h-89l-130 -639h88zM274 780h-45l-113 176h79z" />
    <glyph glyph-name="Ntilde" unicode="&#xd1;" horiz-adv-x="691" 
d="M545 0h-75l-245 672l-136 -672h-52l148 727h74l246 -671l136 671h52zM648 914c-13 -66 -43 -134 -115 -134c-82 0 -87 90 -150 90c-45 0 -65 -57 -74 -90h-43c13 64 53 134 127 134c84 0 90 -90 145 -90c43 0 60 59 67 90h43z" />
    <glyph glyph-name="Oacute" unicode="&#xd3;" horiz-adv-x="737" 
d="M707 460c0 -188 -87 -475 -380 -475c-171 0 -267 107 -267 283c0 187 88 474 378 474c173 0 269 -107 269 -282zM651 460c0 140 -76 233 -217 233c-218 0 -318 -225 -318 -426c0 -140 76 -233 217 -233c218 0 318 224 318 426zM623 956l-183 -176h-45l149 176h79z" />
    <glyph glyph-name="Ocircumflex" unicode="&#xd4;" horiz-adv-x="737" 
d="M707 460c0 -188 -87 -475 -380 -475c-171 0 -267 107 -267 283c0 187 88 474 378 474c173 0 269 -107 269 -282zM651 460c0 140 -76 233 -217 233c-218 0 -318 -225 -318 -426c0 -140 76 -233 217 -233c218 0 318 224 318 426zM609 780h-45l-74 129l-127 -129h-44
l146 176h71z" />
    <glyph glyph-name="Odieresis" unicode="&#xd6;" horiz-adv-x="737" 
d="M707 460c0 -188 -87 -475 -380 -475c-171 0 -267 107 -267 283c0 187 88 474 378 474c173 0 269 -107 269 -282zM651 460c0 140 -76 233 -217 233c-218 0 -318 -225 -318 -426c0 -140 76 -233 217 -233c218 0 318 224 318 426zM585 830c0 -34 -17 -50 -48 -50
c-24 0 -36 9 -36 32c0 33 16 49 48 49c25 0 36 -10 36 -31zM413 830c0 -34 -17 -50 -48 -50c-24 0 -36 9 -36 32c0 33 16 49 48 49c25 0 36 -10 36 -31z" />
    <glyph glyph-name="Ograve" unicode="&#xd2;" horiz-adv-x="737" 
d="M707 460c0 -188 -87 -475 -380 -475c-171 0 -267 107 -267 283c0 187 88 474 378 474c173 0 269 -107 269 -282zM651 460c0 140 -76 233 -217 233c-218 0 -318 -225 -318 -426c0 -140 76 -233 217 -233c218 0 318 224 318 426zM493 780h-45l-113 176h79z" />
    <glyph glyph-name="Otilde" unicode="&#xd5;" horiz-adv-x="737" 
d="M707 460c0 -188 -87 -475 -380 -475c-171 0 -267 107 -267 283c0 187 88 474 378 474c173 0 269 -107 269 -282zM651 460c0 140 -76 233 -217 233c-218 0 -318 -225 -318 -426c0 -140 76 -233 217 -233c218 0 318 224 318 426zM668 914c-13 -66 -43 -134 -115 -134
c-82 0 -87 90 -150 90c-45 0 -65 -57 -74 -90h-43c13 64 53 134 127 134c84 0 90 -90 145 -90c43 0 60 59 67 90h43z" />
    <glyph glyph-name="Scaron" unicode="&#x160;" horiz-adv-x="615" 
d="M537 217c0 -156 -114 -232 -271 -232c-143 0 -224 75 -248 142l48 25c27 -65 93 -118 210 -118c96 0 203 46 203 173c0 93 -86 126 -177 153c-100 30 -191 62 -191 166c0 142 108 216 252 216c122 0 202 -64 228 -139l-51 -26c-28 70 -84 116 -183 116
c-100 0 -189 -48 -189 -159c0 -72 76 -100 171 -130c98 -31 198 -72 198 -187zM550 956l-146 -176h-71l-73 176h44l74 -129l127 129h45z" />
    <glyph glyph-name="Uacute" unicode="&#xda;" horiz-adv-x="684" 
d="M595 279c-46 -225 -144 -294 -310 -294c-158 0 -204 75 -204 179c0 35 5 74 13 115l91 448h52l-89 -436c-9 -44 -14 -84 -14 -119c0 -84 36 -138 162 -138c150 0 212 75 248 253l90 440h52zM591 956l-183 -176h-45l149 176h79z" />
    <glyph glyph-name="Ucircumflex" unicode="&#xdb;" horiz-adv-x="684" 
d="M595 279c-46 -225 -144 -294 -310 -294c-158 0 -204 75 -204 179c0 35 5 74 13 115l91 448h52l-89 -436c-9 -44 -14 -84 -14 -119c0 -84 36 -138 162 -138c150 0 212 75 248 253l90 440h52zM576 780h-45l-74 129l-127 -129h-44l146 176h71z" />
    <glyph glyph-name="Udieresis" unicode="&#xdc;" horiz-adv-x="684" 
d="M595 279c-46 -225 -144 -294 -310 -294c-158 0 -204 75 -204 179c0 35 5 74 13 115l91 448h52l-89 -436c-9 -44 -14 -84 -14 -119c0 -84 36 -138 162 -138c150 0 212 75 248 253l90 440h52zM572 830c0 -34 -17 -50 -48 -50c-24 0 -36 9 -36 32c0 33 16 49 48 49
c25 0 36 -10 36 -31zM400 830c0 -34 -17 -50 -48 -50c-24 0 -36 9 -36 32c0 33 16 49 48 49c25 0 36 -10 36 -31z" />
    <glyph glyph-name="Ugrave" unicode="&#xd9;" horiz-adv-x="684" 
d="M595 279c-46 -225 -144 -294 -310 -294c-158 0 -204 75 -204 179c0 35 5 74 13 115l91 448h52l-89 -436c-9 -44 -14 -84 -14 -119c0 -84 36 -138 162 -138c150 0 212 75 248 253l90 440h52zM511 780h-45l-113 176h79z" />
    <glyph glyph-name="Yacute" unicode="&#xdd;" horiz-adv-x="568" 
d="M636 727l-343 -431l-60 -296h-52l60 295l-171 432h61l146 -375l295 375h64zM524 956l-183 -176h-45l149 176h79z" />
    <glyph glyph-name="Ydieresis" unicode="&#x178;" horiz-adv-x="568" 
d="M636 727l-343 -431l-60 -296h-52l60 295l-171 432h61l146 -375l295 375h64zM482 830c0 -34 -17 -50 -48 -50c-24 0 -36 9 -36 32c0 33 16 49 48 49c25 0 36 -10 36 -31zM310 830c0 -34 -17 -50 -48 -50c-24 0 -36 9 -36 32c0 33 16 49 48 49c25 0 36 -10 36 -31z" />
    <glyph glyph-name="Zcaron" unicode="&#x17d;" horiz-adv-x="567" 
d="M478 0h-494l9 47l542 632h-398l10 48h468l-8 -40l-549 -639h430zM551 956l-146 -176h-71l-73 176h44l74 -129l127 129h45z" />
    <glyph glyph-name="aacute" unicode="&#xe1;" horiz-adv-x="564" 
d="M531 506l-103 -506h-38l5 81c-51 -56 -111 -96 -189 -96c-122 0 -165 94 -165 200c0 156 95 336 279 336c69 0 120 -17 157 -32l35 17h19zM467 442c-41 17 -87 31 -151 31c-149 0 -220 -165 -220 -288c0 -96 35 -152 120 -152c68 0 123 41 191 115zM519 766l-183 -176
h-45l149 176h79z" />
    <glyph glyph-name="acircumflex" unicode="&#xe2;" horiz-adv-x="564" 
d="M531 506l-103 -506h-38l5 81c-51 -56 -111 -96 -189 -96c-122 0 -165 94 -165 200c0 156 95 336 279 336c69 0 120 -17 157 -32l35 17h19zM467 442c-41 17 -87 31 -151 31c-149 0 -220 -165 -220 -288c0 -96 35 -152 120 -152c68 0 123 41 191 115zM492 590h-45l-74 129
l-127 -129h-44l146 176h71z" />
    <glyph glyph-name="adieresis" unicode="&#xe4;" horiz-adv-x="564" 
d="M531 506l-103 -506h-38l5 81c-51 -56 -111 -96 -189 -96c-122 0 -165 94 -165 200c0 156 95 336 279 336c69 0 120 -17 157 -32l35 17h19zM467 442c-41 17 -87 31 -151 31c-149 0 -220 -165 -220 -288c0 -96 35 -152 120 -152c68 0 123 41 191 115zM479 651
c0 -34 -17 -50 -48 -50c-24 0 -36 9 -36 32c0 33 16 49 48 49c25 0 36 -10 36 -31zM307 651c0 -34 -17 -50 -48 -50c-24 0 -36 9 -36 32c0 33 16 49 48 49c25 0 36 -10 36 -31z" />
    <glyph glyph-name="agrave" unicode="&#xe0;" horiz-adv-x="564" 
d="M531 506l-103 -506h-38l5 81c-51 -56 -111 -96 -189 -96c-122 0 -165 94 -165 200c0 156 95 336 279 336c69 0 120 -17 157 -32l35 17h19zM467 442c-41 17 -87 31 -151 31c-149 0 -220 -165 -220 -288c0 -96 35 -152 120 -152c68 0 123 41 191 115zM374 590h-45l-113 176
h79z" />
    <glyph glyph-name="aring" unicode="&#xe5;" horiz-adv-x="564" 
d="M531 506l-103 -506h-38l5 81c-51 -56 -111 -96 -189 -96c-122 0 -165 94 -165 200c0 156 95 336 279 336c69 0 120 -17 157 -32l35 17h19zM467 442c-41 17 -87 31 -151 31c-149 0 -220 -165 -220 -288c0 -96 35 -152 120 -152c68 0 123 41 191 115zM439 679
c0 -57 -36 -108 -104 -108c-47 0 -67 28 -67 64c0 56 35 108 102 108c47 0 69 -25 69 -64zM341 602c40 0 63 30 63 70c0 25 -10 40 -40 40c-39 0 -61 -32 -61 -72c0 -21 10 -38 38 -38z" />
    <glyph glyph-name="atilde" unicode="&#xe3;" horiz-adv-x="564" 
d="M531 506l-103 -506h-38l5 81c-51 -56 -111 -96 -189 -96c-122 0 -165 94 -165 200c0 156 95 336 279 336c69 0 120 -17 157 -32l35 17h19zM467 442c-41 17 -87 31 -151 31c-149 0 -220 -165 -220 -288c0 -96 35 -152 120 -152c68 0 123 41 191 115zM558 745
c-13 -66 -43 -134 -115 -134c-82 0 -87 90 -150 90c-45 0 -65 -57 -74 -90h-43c13 64 53 134 127 134c84 0 90 -90 145 -90c43 0 60 59 67 90h43z" />
    <glyph glyph-name="ccedilla" unicode="&#xe7;" horiz-adv-x="477" 
d="M309 -86c0 -70 -69 -107 -138 -107c-41 0 -82 11 -104 21l24 36c26 -13 57 -19 94 -19c35 0 83 17 83 63c0 34 -45 51 -81 51l19 28c-109 12 -165 87 -165 198c0 179 87 336 282 336c67 0 135 -26 165 -85l-45 -25c-25 43 -74 64 -126 64c-158 0 -221 -155 -221 -290
c0 -91 51 -154 145 -154c41 0 83 17 126 47l26 -42c-45 -30 -95 -50 -151 -51c52 -13 67 -42 67 -71z" />
    <glyph glyph-name="eacute" unicode="&#xe9;" horiz-adv-x="495" 
d="M477 394c0 -53 -15 -141 -263 -158l-116 -8c-1 -11 -2 -24 -2 -38c0 -69 23 -159 136 -159c46 0 85 17 123 44l26 -41c-32 -22 -84 -49 -156 -49c-129 0 -184 86 -184 208c0 143 71 328 276 328c99 0 160 -53 160 -127zM106 275l74 5c161 11 242 35 242 105
s-63 90 -112 90c-108 0 -176 -81 -204 -200zM459 766l-183 -176h-45l149 176h79z" />
    <glyph glyph-name="ecircumflex" unicode="&#xea;" horiz-adv-x="495" 
d="M477 394c0 -53 -15 -141 -263 -158l-116 -8c-1 -11 -2 -24 -2 -38c0 -69 23 -159 136 -159c46 0 85 17 123 44l26 -41c-32 -22 -84 -49 -156 -49c-129 0 -184 86 -184 208c0 143 71 328 276 328c99 0 160 -53 160 -127zM106 275l74 5c161 11 242 35 242 105
s-63 90 -112 90c-108 0 -176 -81 -204 -200zM470 590h-45l-74 129l-127 -129h-44l146 176h71z" />
    <glyph glyph-name="edieresis" unicode="&#xeb;" horiz-adv-x="495" 
d="M477 394c0 -53 -15 -141 -263 -158l-116 -8c-1 -11 -2 -24 -2 -38c0 -69 23 -159 136 -159c46 0 85 17 123 44l26 -41c-32 -22 -84 -49 -156 -49c-129 0 -184 86 -184 208c0 143 71 328 276 328c99 0 160 -53 160 -127zM106 275l74 5c161 11 242 35 242 105
s-63 90 -112 90c-108 0 -176 -81 -204 -200zM452 651c0 -34 -17 -50 -48 -50c-24 0 -36 9 -36 32c0 33 16 49 48 49c25 0 36 -10 36 -31zM280 651c0 -34 -17 -50 -48 -50c-24 0 -36 9 -36 32c0 33 16 49 48 49c25 0 36 -10 36 -31z" />
    <glyph glyph-name="egrave" unicode="&#xe8;" horiz-adv-x="495" 
d="M477 394c0 -53 -15 -141 -263 -158l-116 -8c-1 -11 -2 -24 -2 -38c0 -69 23 -159 136 -159c46 0 85 17 123 44l26 -41c-32 -22 -84 -49 -156 -49c-129 0 -184 86 -184 208c0 143 71 328 276 328c99 0 160 -53 160 -127zM106 275l74 5c161 11 242 35 242 105
s-63 90 -112 90c-108 0 -176 -81 -204 -200zM371 590h-45l-113 176h79z" />
    <glyph glyph-name="iacute" unicode="&#xed;" horiz-adv-x="253" 
d="M117 0h-51l84 411c4 19 7 33 7 43c0 9 -3 14 -10 14c-14 0 -39 -11 -67 -29l-19 37c30 21 70 45 105 45c34 0 45 -20 45 -44c0 -13 -1 -20 -5 -41zM355 766l-183 -176h-45l149 176h79z" />
    <glyph glyph-name="icircumflex" unicode="&#xee;" horiz-adv-x="253" 
d="M117 0h-51l84 411c4 19 7 33 7 43c0 9 -3 14 -10 14c-14 0 -39 -11 -67 -29l-19 37c30 21 70 45 105 45c34 0 45 -20 45 -44c0 -13 -1 -20 -5 -41zM337 590h-45l-74 129l-127 -129h-44l146 176h71z" />
    <glyph glyph-name="idieresis" unicode="&#xef;" horiz-adv-x="253" 
d="M117 0h-51l84 411c4 19 7 33 7 43c0 9 -3 14 -10 14c-14 0 -39 -11 -67 -29l-19 37c30 21 70 45 105 45c34 0 45 -20 45 -44c0 -13 -1 -20 -5 -41zM322 651c0 -34 -17 -50 -48 -50c-24 0 -36 9 -36 32c0 33 16 49 48 49c25 0 36 -10 36 -31zM150 651
c0 -34 -17 -50 -48 -50c-24 0 -36 9 -36 32c0 33 16 49 48 49c25 0 36 -10 36 -31z" />
    <glyph glyph-name="igrave" unicode="&#xec;" horiz-adv-x="253" 
d="M117 0h-51l84 411c4 19 7 33 7 43c0 9 -3 14 -10 14c-14 0 -39 -11 -67 -29l-19 37c30 21 70 45 105 45c34 0 45 -20 45 -44c0 -13 -1 -20 -5 -41zM206 590h-45l-113 176h79z" />
    <glyph glyph-name="ntilde" unicode="&#xf1;" horiz-adv-x="564" 
d="M508 407c0 -18 -4 -49 -9 -75l-67 -332h-51l69 341c3 15 7 41 7 52c0 49 -27 79 -91 79c-66 0 -159 -59 -208 -99l-76 -373h-51l103 506h51l-16 -78c44 36 125 93 206 93c86 0 133 -47 133 -114zM551 745c-13 -66 -43 -134 -115 -134c-82 0 -87 90 -150 90
c-45 0 -65 -57 -74 -90h-43c13 64 53 134 127 134c84 0 90 -90 145 -90c43 0 60 59 67 90h43z" />
    <glyph glyph-name="oacute" unicode="&#xf3;" horiz-adv-x="549" 
d="M508 323c0 -171 -81 -338 -274 -338c-116 0 -193 66 -193 200c0 168 81 336 275 336c115 0 192 -66 192 -198zM453 321c0 89 -45 154 -143 154c-151 0 -214 -159 -214 -290c0 -89 46 -154 143 -154c151 0 214 158 214 290zM487 766l-183 -176h-45l149 176h79z" />
    <glyph glyph-name="ocircumflex" unicode="&#xf4;" horiz-adv-x="549" 
d="M508 323c0 -171 -81 -338 -274 -338c-116 0 -193 66 -193 200c0 168 81 336 275 336c115 0 192 -66 192 -198zM453 321c0 89 -45 154 -143 154c-151 0 -214 -159 -214 -290c0 -89 46 -154 143 -154c151 0 214 158 214 290zM477 590h-45l-74 129l-127 -129h-44l146 176h71
z" />
    <glyph glyph-name="odieresis" unicode="&#xf6;" horiz-adv-x="549" 
d="M508 323c0 -171 -81 -338 -274 -338c-116 0 -193 66 -193 200c0 168 81 336 275 336c115 0 192 -66 192 -198zM453 321c0 89 -45 154 -143 154c-151 0 -214 -159 -214 -290c0 -89 46 -154 143 -154c151 0 214 158 214 290zM461 651c0 -34 -17 -50 -48 -50
c-24 0 -36 9 -36 32c0 33 16 49 48 49c25 0 36 -10 36 -31zM289 651c0 -34 -17 -50 -48 -50c-24 0 -36 9 -36 32c0 33 16 49 48 49c25 0 36 -10 36 -31z" />
    <glyph glyph-name="ograve" unicode="&#xf2;" horiz-adv-x="549" 
d="M508 323c0 -171 -81 -338 -274 -338c-116 0 -193 66 -193 200c0 168 81 336 275 336c115 0 192 -66 192 -198zM453 321c0 89 -45 154 -143 154c-151 0 -214 -159 -214 -290c0 -89 46 -154 143 -154c151 0 214 158 214 290zM353 590h-45l-113 176h79z" />
    <glyph glyph-name="otilde" unicode="&#xf5;" horiz-adv-x="549" 
d="M508 323c0 -171 -81 -338 -274 -338c-116 0 -193 66 -193 200c0 168 81 336 275 336c115 0 192 -66 192 -198zM453 321c0 89 -45 154 -143 154c-151 0 -214 -159 -214 -290c0 -89 46 -154 143 -154c151 0 214 158 214 290zM529 745c-13 -66 -43 -134 -115 -134
c-82 0 -87 90 -150 90c-45 0 -65 -57 -74 -90h-43c13 64 53 134 127 134c84 0 90 -90 145 -90c43 0 60 59 67 90h43z" />
    <glyph glyph-name="scaron" unicode="&#x161;" horiz-adv-x="449" 
d="M427 437l-42 -27c-26 45 -87 65 -137 65c-87 0 -132 -44 -132 -101c0 -43 39 -69 116 -98c95 -36 145 -70 145 -135c0 -117 -99 -156 -209 -156c-66 0 -138 25 -173 82l42 28c32 -48 80 -64 136 -64c71 0 153 24 153 102c0 35 -23 61 -111 94c-81 30 -150 66 -150 138
c0 112 94 156 188 156c63 0 138 -25 174 -84zM435 766l-146 -176h-71l-73 176h44l74 -129l127 129h45z" />
    <glyph glyph-name="uacute" unicode="&#xfa;" horiz-adv-x="560" 
d="M425 0h-51l16 86c-78 -63 -140 -101 -206 -101c-101 0 -131 61 -131 123c0 14 2 36 5 49l71 349h51l-68 -333c-4 -21 -7 -41 -7 -59c0 -44 18 -80 90 -80c52 0 133 46 206 106l75 366h51zM505 766l-183 -176h-45l149 176h79z" />
    <glyph glyph-name="ucircumflex" unicode="&#xfb;" horiz-adv-x="560" 
d="M425 0h-51l16 86c-78 -63 -140 -101 -206 -101c-101 0 -131 61 -131 123c0 14 2 36 5 49l71 349h51l-68 -333c-4 -21 -7 -41 -7 -59c0 -44 18 -80 90 -80c52 0 133 46 206 106l75 366h51zM483 590h-45l-74 129l-127 -129h-44l146 176h71z" />
    <glyph glyph-name="udieresis" unicode="&#xfc;" horiz-adv-x="560" 
d="M425 0h-51l16 86c-78 -63 -140 -101 -206 -101c-101 0 -131 61 -131 123c0 14 2 36 5 49l71 349h51l-68 -333c-4 -21 -7 -41 -7 -59c0 -44 18 -80 90 -80c52 0 133 46 206 106l75 366h51zM471 651c0 -34 -17 -50 -48 -50c-24 0 -36 9 -36 32c0 33 16 49 48 49
c25 0 36 -10 36 -31zM299 651c0 -34 -17 -50 -48 -50c-24 0 -36 9 -36 32c0 33 16 49 48 49c25 0 36 -10 36 -31z" />
    <glyph glyph-name="ugrave" unicode="&#xf9;" horiz-adv-x="560" 
d="M425 0h-51l16 86c-78 -63 -140 -101 -206 -101c-101 0 -131 61 -131 123c0 14 2 36 5 49l71 349h51l-68 -333c-4 -21 -7 -41 -7 -59c0 -44 18 -80 90 -80c52 0 133 46 206 106l75 366h51zM381 590h-45l-113 176h79z" />
    <glyph glyph-name="yacute" unicode="&#xfd;" horiz-adv-x="481" 
d="M504 506l-326 -556c-63 -107 -114 -143 -189 -143c-26 0 -57 7 -69 10l16 46c15 -6 40 -9 62 -9c40 0 87 30 127 101l46 81l-111 470h59l92 -413l234 413h59zM435 766l-183 -176h-45l149 176h79z" />
    <glyph glyph-name="ydieresis" unicode="&#xff;" horiz-adv-x="481" 
d="M504 506l-326 -556c-63 -107 -114 -143 -189 -143c-26 0 -57 7 -69 10l16 46c15 -6 40 -9 62 -9c40 0 87 30 127 101l46 81l-111 470h59l92 -413l234 413h59zM419 651c0 -34 -17 -50 -48 -50c-24 0 -36 9 -36 32c0 33 16 49 48 49c25 0 36 -10 36 -31zM247 651
c0 -34 -17 -50 -48 -50c-24 0 -36 9 -36 32c0 33 16 49 48 49c25 0 36 -10 36 -31z" />
    <glyph glyph-name="zcaron" unicode="&#x17e;" horiz-adv-x="430" 
d="M418 -38l-10 -47h-35c-112 0 -110 85 -267 85h-118l11 52l372 409h-298l10 45h357l-10 -49l-368 -406h44c181 0 182 -89 284 -89h28zM446 766l-146 -176h-71l-73 176h44l74 -129l127 129h45z" />
    <glyph glyph-name="parenleft.superior" unicode="&#x207d;" horiz-adv-x="266" 
d="M208 136h-54c-53 72 -91 176 -91 263c0 173 88 320 233 443h58c-127 -100 -250 -263 -250 -439c0 -86 43 -199 104 -267z" />
    <glyph glyph-name="parenright.superior" unicode="&#x207e;" horiz-adv-x="266" 
d="M59 842h54c54 -74 92 -163 92 -259c0 -168 -88 -323 -235 -447h-57c136 106 250 264 250 440c0 92 -37 184 -104 266z" />
    <glyph glyph-name="a.superior" unicode="&#xf6e9;" horiz-adv-x="450" 
d="M424 680l-79 -385h-32l3 59c-40 -41 -87 -70 -147 -70c-98 0 -135 71 -135 152c0 121 73 255 220 255c55 0 96 -13 125 -24l28 13h17zM326 409l45 217c-33 13 -69 23 -119 23c-118 0 -172 -123 -172 -213c0 -69 29 -110 96 -110c54 0 97 30 150 83z" />
    <glyph glyph-name="b.superior" unicode="&#xf6ea;" horiz-adv-x="447" 
d="M413 546c0 -104 -60 -262 -225 -262c-44 0 -92 14 -110 20l-36 -9h-17l112 550h43l-46 -221c37 38 88 67 144 67c101 0 135 -76 135 -145zM188 326c129 0 179 129 179 216c0 44 -13 107 -95 107c-55 0 -102 -33 -147 -75l-47 -225c21 -10 58 -23 110 -23z" />
    <glyph glyph-name="d.superior" unicode="&#xf6eb;" horiz-adv-x="444" 
d="M458 845l-113 -550h-32l3 59c-40 -41 -87 -70 -147 -70c-88 0 -135 69 -135 154c0 118 74 253 220 253c54 0 95 -13 124 -24l37 178h43zM326 411l45 215c-33 13 -69 23 -119 23c-118 0 -172 -122 -172 -213c0 -69 29 -110 96 -110c54 0 97 30 150 85z" />
    <glyph glyph-name="e.superior" unicode="&#xf6ec;" horiz-adv-x="395" 
d="M381 593c0 -41 -7 -111 -208 -122l-91 -5c-2 -8 -2 -17 -2 -26c1 -50 20 -116 109 -116c37 0 67 13 97 33l24 -35c-27 -17 -69 -38 -126 -38c-103 0 -150 65 -150 158c0 112 54 249 218 249c79 0 129 -41 129 -98zM89 507l56 4c124 8 189 26 189 75c0 50 -49 64 -87 64
c-85 0 -137 -58 -158 -143z" />
    <glyph glyph-name="i.superior" unicode="&#x2071;" horiz-adv-x="204" 
d="M100 295h-43l64 311c3 14 5 25 5 32c0 4 -2 7 -7 7c-11 0 -31 -8 -53 -21l-18 31c25 17 58 36 86 36s37 -16 37 -36c0 -10 -1 -16 -4 -31zM198 785c0 -27 -14 -40 -39 -40c-20 0 -29 7 -29 27c0 27 12 40 38 40c21 0 30 -9 30 -27z" />
    <glyph glyph-name="l.superior" unicode="&#xf6ee;" horiz-adv-x="205" 
d="M160 328l7 -39c-11 -2 -36 -5 -57 -5c-50 0 -71 22 -71 65c0 13 2 27 6 48l88 435l48 25l-94 -456c-5 -22 -6 -36 -6 -47c1 -22 11 -30 39 -30c13 0 28 1 40 4z" />
    <glyph glyph-name="m.superior" unicode="&#xf6ef;" horiz-adv-x="669" 
d="M566 295h-43l46 230c5 25 10 50 10 70c0 31 -11 53 -59 53c-39 0 -98 -35 -145 -73l-58 -280h-43l47 230c5 26 9 53 9 72c0 31 -13 51 -58 51s-107 -43 -146 -73l-58 -280h-43l79 385h43l-12 -57c40 31 95 68 148 68c52 0 87 -27 92 -74c55 44 107 74 157 74
c56 0 91 -29 92 -88c0 -17 -2 -35 -6 -54z" />
    <glyph glyph-name="n.superior" unicode="&#x207f;" horiz-adv-x="449" 
d="M404 603c0 -14 -3 -38 -7 -57l-51 -251h-42l52 259c2 11 5 30 5 38c0 35 -21 56 -71 56c-53 0 -127 -44 -164 -71l-58 -282h-43l79 385h43l-12 -57c36 27 99 68 161 68c69 0 108 -36 108 -88z" />
    <glyph glyph-name="o.superior" unicode="&#xf6f0;" horiz-adv-x="441" 
d="M407 540c0 -133 -62 -256 -216 -256c-93 0 -157 50 -157 152c0 129 62 255 217 255c92 0 156 -50 156 -151zM361 538c0 65 -37 112 -114 112c-120 0 -167 -109 -167 -214c0 -64 38 -112 115 -112c119 0 166 107 166 214z" />
    <glyph glyph-name="r.superior" unicode="&#xf6f1;" horiz-adv-x="276" 
d="M300 680l-19 -44c-6 3 -14 4 -21 4c-39 0 -88 -41 -140 -90l-53 -255h-42l79 385h43l-17 -76c57 55 99 82 140 82c10 0 21 -2 30 -6z" />
    <glyph glyph-name="s.superior" unicode="&#xf6f2;" horiz-adv-x="357" 
d="M340 624l-36 -22c-21 33 -70 51 -110 51c-68 0 -103 -33 -103 -75c0 -30 32 -49 93 -71c76 -27 117 -53 117 -103c0 -88 -78 -120 -166 -120c-52 0 -110 20 -141 65l36 23c26 -36 65 -50 109 -50c56 0 120 18 120 74c0 29 -21 45 -89 69c-64 22 -121 51 -121 108
c0 85 74 118 149 118c50 0 111 -18 142 -67z" />
    <glyph glyph-name="t.superior" unicode="&#xf6f3;" horiz-adv-x="266" 
d="M262 680l-8 -39h-97l-49 -244c-3 -14 -6 -30 -6 -42c0 -20 10 -34 49 -34c20 0 34 3 55 9l10 -36c-22 -6 -47 -10 -71 -10c-56 0 -86 15 -86 65c0 9 2 29 6 48l49 244h-78l9 39h77l28 135l49 30l-34 -165h97z" />
    <glyph glyph-name="parenleft.inferior" unicode="&#x208d;" horiz-adv-x="266" 
d="M208 -175h-54c-53 72 -91 176 -91 263c0 173 88 320 233 443h58c-127 -100 -250 -263 -250 -439c0 -86 43 -199 104 -267z" />
    <glyph glyph-name="parenright.inferior" unicode="&#x208e;" horiz-adv-x="266" 
d="M59 531h54c54 -74 92 -163 92 -259c0 -168 -88 -323 -235 -447h-57c136 106 250 264 250 440c0 92 -37 184 -104 266z" />
    <glyph glyph-name="oneeighth" unicode="&#x215b;" horiz-adv-x="1015" 
d="M818 742l-550 -888h-54l550 888h54zM299 293h-242l8 38h107l64 315c-35 -19 -80 -35 -127 -43l7 37c64 19 116 53 160 102h24l-83 -411h90zM929 -27c0 -94 -91 -137 -191 -137c-109 0 -166 41 -166 103c0 75 63 119 138 141c-48 22 -79 46 -79 94c0 88 90 120 177 120
c95 0 154 -35 154 -95c0 -62 -51 -100 -122 -122c48 -19 89 -54 89 -104zM779 97c44 10 134 34 134 94c0 39 -42 63 -106 63c-49 0 -128 -11 -128 -77c0 -27 22 -57 100 -80zM739 -120c53 0 140 15 140 89c0 47 -53 76 -108 93c-52 -11 -150 -43 -150 -117
c0 -41 43 -65 118 -65z" />
    <glyph glyph-name="threeeighths" unicode="&#x215c;" horiz-adv-x="1015" 
d="M818 742l-550 -888h-54l550 888h54zM929 -27c0 -94 -91 -137 -191 -137c-109 0 -166 41 -166 103c0 75 63 119 138 141c-48 22 -79 46 -79 94c0 88 90 120 177 120c95 0 154 -35 154 -95c0 -62 -51 -100 -122 -122c48 -19 89 -54 89 -104zM779 97c44 10 134 34 134 94
c0 39 -42 63 -106 63c-49 0 -128 -11 -128 -77c0 -27 22 -57 100 -80zM739 -120c53 0 140 15 140 89c0 47 -53 76 -108 93c-52 -11 -150 -43 -150 -117c0 -41 43 -65 118 -65zM367 446c0 -106 -94 -162 -202 -162c-62 0 -127 25 -150 72l45 26c23 -40 65 -52 111 -52
c72 0 144 27 144 113c0 52 -50 72 -112 72c-19 0 -39 -2 -65 -7l4 19l201 164h-234l8 42h293l-8 -43l-168 -136c77 -2 133 -43 133 -108z" />
    <glyph glyph-name="fiveeighths" unicode="&#x215d;" horiz-adv-x="1015" 
d="M818 742l-550 -888h-54l550 888h54zM929 -27c0 -94 -91 -137 -191 -137c-109 0 -166 41 -166 103c0 75 63 119 138 141c-48 22 -79 46 -79 94c0 88 90 120 177 120c95 0 154 -35 154 -95c0 -62 -51 -100 -122 -122c48 -19 89 -54 89 -104zM779 97c44 10 134 34 134 94
c0 39 -42 63 -106 63c-49 0 -128 -11 -128 -77c0 -27 22 -57 100 -80zM739 -120c53 0 140 15 140 89c0 47 -53 76 -108 93c-52 -11 -150 -43 -150 -117c0 -41 43 -65 118 -65zM380 453c0 -115 -96 -169 -210 -169c-89 0 -143 37 -159 68l50 23c15 -27 54 -46 109 -46
c76 0 161 27 161 117c0 57 -52 75 -114 75c-37 0 -86 -10 -123 -29h-19l86 241h252l-9 -45h-216l-51 -141c34 13 71 17 101 17c84 0 142 -40 142 -111z" />
    <glyph glyph-name="seveneighths" unicode="&#x215e;" horiz-adv-x="1015" 
d="M784 742l-550 -888h-54l550 888h54zM929 -27c0 -94 -91 -137 -191 -137c-109 0 -166 41 -166 103c0 75 63 119 138 141c-48 22 -79 46 -79 94c0 88 90 120 177 120c95 0 154 -35 154 -95c0 -62 -51 -100 -122 -122c48 -19 89 -54 89 -104zM779 97c44 10 134 34 134 94
c0 39 -42 63 -106 63c-49 0 -128 -11 -128 -77c0 -27 22 -57 100 -80zM739 -120c53 0 140 15 140 89c0 47 -53 76 -108 93c-52 -11 -150 -43 -150 -117c0 -41 43 -65 118 -65zM448 689l-287 -405h-54l287 404h-224l-15 -62h-44l22 107h324z" />
    <glyph glyph-name="onethird" unicode="&#x2153;" horiz-adv-x="1015" 
d="M818 742l-550 -888h-54l550 888h54zM299 293h-242l8 38h107l64 315c-35 -19 -80 -35 -127 -43l7 37c64 19 116 53 160 102h24l-83 -411h90zM923 -2c0 -106 -94 -162 -202 -162c-62 0 -127 25 -150 72l45 26c23 -40 65 -52 111 -52c72 0 144 27 144 113
c0 52 -50 72 -112 72c-19 0 -39 -2 -65 -7l4 19l201 164h-234l8 42h293l-8 -43l-168 -136c77 -2 133 -43 133 -108z" />
    <glyph glyph-name="twothirds" unicode="&#x2154;" horiz-adv-x="1015" 
d="M818 742l-550 -888h-54l550 888h54zM923 -2c0 -106 -94 -162 -202 -162c-62 0 -127 25 -150 72l45 26c23 -40 65 -52 111 -52c72 0 144 27 144 113c0 52 -50 72 -112 72c-19 0 -39 -2 -65 -7l4 19l201 164h-234l8 42h293l-8 -43l-168 -136c77 -2 133 -43 133 -108z
M370 293h-350l9 45c55 35 116 73 170 112c97 69 170 112 170 176c0 51 -39 71 -101 71c-50 0 -102 -21 -143 -60l-32 28c37 38 92 77 184 77c80 0 145 -32 145 -107c0 -77 -76 -131 -147 -181c-62 -44 -97 -68 -171 -116h275z" />
    <glyph glyph-name="zero.superior" unicode="&#x2070;" horiz-adv-x="428" 
d="M403 585c0 -126 -49 -301 -227 -301c-105 0 -152 75 -152 159c0 133 48 299 221 299c106 0 158 -72 158 -157zM185 329c122 0 169 133 169 251c0 69 -38 117 -113 117c-124 0 -167 -120 -167 -243c0 -72 31 -125 111 -125z" />
    <glyph glyph-name="four.superior" unicode="&#x2074;" horiz-adv-x="399" 
d="M352 405h-69l-25 -124h-45l25 124h-234l6 31l313 306h28l-60 -295h69zM246 447l42 206l-212 -206h170z" />
    <glyph glyph-name="five.superior" unicode="&#x2075;" horiz-adv-x="394" 
d="M352 453c0 -115 -96 -169 -210 -169c-89 0 -143 37 -159 68l50 23c15 -27 54 -46 109 -46c76 0 161 27 161 117c0 57 -52 75 -114 75c-37 0 -86 -10 -123 -29h-19l86 241h252l-9 -45h-216l-51 -141c34 13 71 17 101 17c84 0 142 -40 142 -111z" />
    <glyph glyph-name="six.superior" unicode="&#x2076;" horiz-adv-x="425" 
d="M381 462c0 -118 -86 -178 -201 -178c-101 0 -157 45 -157 150c0 139 79 308 255 308c58 0 108 -16 138 -41l-41 -36c-21 19 -59 32 -106 32c-100 0 -164 -89 -180 -165c41 21 100 42 159 42c82 0 133 -38 133 -112zM190 329c75 0 141 39 141 124c0 49 -37 76 -102 76
c-54 0 -112 -22 -151 -42c-3 -18 -6 -36 -6 -55c0 -62 29 -103 118 -103z" />
    <glyph glyph-name="seven.superior" unicode="&#x2077;" horiz-adv-x="378" 
d="M392 689l-287 -405h-54l287 404h-224l-15 -62h-44l22 107h324z" />
    <glyph glyph-name="eight.superior" unicode="&#x2078;" horiz-adv-x="424" 
d="M369 421c0 -94 -91 -137 -191 -137c-109 0 -166 41 -166 103c0 75 63 119 138 141c-48 22 -79 46 -79 94c0 88 90 120 177 120c95 0 154 -35 154 -95c0 -62 -51 -100 -122 -122c48 -19 89 -54 89 -104zM219 545c44 10 134 34 134 94c0 39 -42 63 -106 63
c-49 0 -128 -11 -128 -77c0 -27 22 -57 100 -80zM179 328c53 0 140 15 140 89c0 47 -53 76 -108 93c-52 -11 -150 -43 -150 -117c0 -41 43 -65 118 -65z" />
    <glyph glyph-name="nine.superior" unicode="&#x2079;" horiz-adv-x="424" 
d="M400 582c0 -131 -85 -298 -257 -298c-58 0 -101 15 -136 43l37 38c25 -23 57 -36 103 -36c104 0 160 74 186 162c-32 -20 -91 -43 -150 -43c-82 0 -141 44 -141 118c0 110 80 176 195 176c93 0 163 -44 163 -160zM199 492c54 0 101 14 146 43c4 17 5 34 5 54
c0 54 -31 108 -120 108c-75 0 -138 -42 -138 -127c0 -54 42 -78 107 -78z" />
    <glyph glyph-name="zero.inferior" unicode="&#x2080;" horiz-adv-x="428" 
d="M403 175c0 -126 -49 -301 -227 -301c-105 0 -152 75 -152 159c0 133 48 299 221 299c106 0 158 -72 158 -157zM185 -81c122 0 169 133 169 251c0 69 -38 117 -113 117c-124 0 -167 -120 -167 -243c0 -72 31 -125 111 -125z" />
    <glyph glyph-name="one.inferior" unicode="&#x2081;" horiz-adv-x="316" 
d="M244 -117h-242l8 38h107l64 315c-35 -19 -80 -35 -127 -43l7 37c64 19 116 53 160 102h24l-83 -411h90z" />
    <glyph glyph-name="two.inferior" unicode="&#x2082;" horiz-adv-x="408" 
d="M331 -117h-350l9 45c55 35 116 73 170 112c97 69 170 112 170 176c0 51 -39 71 -101 71c-50 0 -102 -21 -143 -60l-32 28c37 38 92 77 184 77c80 0 145 -32 145 -107c0 -77 -76 -131 -147 -181c-62 -44 -97 -68 -171 -116h275z" />
    <glyph glyph-name="three.inferior" unicode="&#x2083;" horiz-adv-x="395" 
d="M353 36c0 -106 -94 -162 -202 -162c-62 0 -127 25 -150 72l45 26c23 -40 65 -52 111 -52c72 0 144 27 144 113c0 52 -50 72 -112 72c-19 0 -39 -2 -65 -7l4 19l201 164h-234l8 42h293l-8 -43l-168 -136c77 -2 133 -43 133 -108z" />
    <glyph glyph-name="four.inferior" unicode="&#x2084;" horiz-adv-x="399" 
d="M352 -5h-69l-25 -124h-45l25 124h-234l6 31l313 306h28l-60 -295h69zM246 37l42 206l-212 -206h170z" />
    <glyph glyph-name="five.inferior" unicode="&#x2085;" horiz-adv-x="394" 
d="M352 43c0 -115 -96 -169 -210 -169c-89 0 -143 37 -159 68l50 23c15 -27 54 -46 109 -46c76 0 161 27 161 117c0 57 -52 75 -114 75c-37 0 -86 -10 -123 -29h-19l86 241h252l-9 -45h-216l-51 -141c34 13 71 17 101 17c84 0 142 -40 142 -111z" />
    <glyph glyph-name="six.inferior" unicode="&#x2086;" horiz-adv-x="425" 
d="M381 52c0 -118 -86 -178 -201 -178c-101 0 -157 45 -157 150c0 139 79 308 255 308c58 0 108 -16 138 -41l-41 -36c-21 19 -59 32 -106 32c-100 0 -164 -89 -180 -165c41 21 100 42 159 42c82 0 133 -38 133 -112zM190 -81c75 0 141 39 141 124c0 49 -37 76 -102 76
c-54 0 -112 -22 -151 -42c-3 -18 -6 -36 -6 -55c0 -62 29 -103 118 -103z" />
    <glyph glyph-name="seven.inferior" unicode="&#x2087;" horiz-adv-x="378" 
d="M392 279l-287 -405h-54l287 404h-224l-15 -62h-44l22 107h324z" />
    <glyph glyph-name="eight.inferior" unicode="&#x2088;" horiz-adv-x="424" 
d="M369 11c0 -94 -91 -137 -191 -137c-109 0 -166 41 -166 103c0 75 63 119 138 141c-48 22 -79 46 -79 94c0 88 90 120 177 120c95 0 154 -35 154 -95c0 -62 -51 -100 -122 -122c48 -19 89 -54 89 -104zM219 135c44 10 134 34 134 94c0 39 -42 63 -106 63
c-49 0 -128 -11 -128 -77c0 -27 22 -57 100 -80zM179 -82c53 0 140 15 140 89c0 47 -53 76 -108 93c-52 -11 -150 -43 -150 -117c0 -41 43 -65 118 -65z" />
    <glyph glyph-name="nine.inferior" unicode="&#x2089;" horiz-adv-x="424" 
d="M400 172c0 -131 -85 -298 -257 -298c-58 0 -101 15 -136 43l37 38c25 -23 57 -36 103 -36c104 0 160 74 186 162c-32 -20 -91 -43 -150 -43c-82 0 -141 44 -141 118c0 110 80 176 195 176c93 0 163 -44 163 -160zM199 82c54 0 101 14 146 43c4 17 5 34 5 54
c0 54 -31 108 -120 108c-75 0 -138 -42 -138 -127c0 -54 42 -78 107 -78z" />
    <glyph glyph-name="commaaccent" unicode="&#xf6c3;" horiz-adv-x="240" 
d="M158 -72c0 -26 -7 -68 -52 -121h-42c21 23 35 50 38 77c-18 0 -36 10 -36 34c0 32 17 51 52 51c31 0 40 -19 40 -41z" />
    <glyph glyph-name="Abreve" unicode="&#x102;" horiz-adv-x="627" 
d="M566 0h-58l-37 233h-314l-128 -233h-59l405 727h71zM464 281l-63 395l-218 -395h281zM591 918c-32 -65 -82 -138 -173 -138c-93 0 -113 89 -115 138h41c12 -48 31 -79 86 -79c53 0 85 27 119 79h42z" />
    <glyph glyph-name="Amacron" unicode="&#x100;" horiz-adv-x="627" 
d="M566 0h-58l-37 233h-314l-128 -233h-59l405 727h71zM464 281l-63 395l-218 -395h281zM558 780h-288l11 57h288z" />
    <glyph glyph-name="Aogonek" unicode="&#x104;" horiz-adv-x="627" 
d="M655 -161c-26 -15 -70 -32 -116 -32c-60 0 -87 32 -87 77s23 93 53 135l-34 214h-314l-128 -233h-59l405 727h71l120 -727h-28c-18 -29 -34 -64 -34 -99c0 -32 20 -48 57 -48c29 0 59 9 83 19zM464 281l-63 395l-218 -395h281z" />
    <glyph glyph-name="AEacute" unicode="&#x1fc;" horiz-adv-x="861" 
d="M732 0h-390l49 233h-256l-138 -233h-55l433 727h504l-9 -48h-338l-54 -267h305l-9 -48h-306l-64 -316h337zM399 281l81 398h-82l-236 -398h237zM762 956l-183 -176h-45l149 176h79z" />
    <glyph glyph-name="Cacute" unicode="&#x106;" horiz-adv-x="624" 
d="M659 612l-46 -29c-16 41 -63 110 -176 110c-199 0 -321 -186 -321 -427c0 -136 72 -232 214 -232c78 0 126 28 167 60l26 -43c-55 -39 -112 -66 -196 -66c-173 0 -267 112 -267 278c0 286 154 479 375 479c118 0 194 -51 224 -130zM585 956l-183 -176h-45l149 176h79z
" />
    <glyph glyph-name="Ccaron" unicode="&#x10c;" horiz-adv-x="624" 
d="M659 612l-46 -29c-16 41 -63 110 -176 110c-199 0 -321 -186 -321 -427c0 -136 72 -232 214 -232c78 0 126 28 167 60l26 -43c-55 -39 -112 -66 -196 -66c-173 0 -267 112 -267 278c0 286 154 479 375 479c118 0 194 -51 224 -130zM621 956l-146 -176h-71l-73 176h44
l74 -129l127 129h45z" />
    <glyph glyph-name="Ccircumflex" unicode="&#x108;" horiz-adv-x="624" 
d="M659 612l-46 -29c-16 41 -63 110 -176 110c-199 0 -321 -186 -321 -427c0 -136 72 -232 214 -232c78 0 126 28 167 60l26 -43c-55 -39 -112 -66 -196 -66c-173 0 -267 112 -267 278c0 286 154 479 375 479c118 0 194 -51 224 -130zM597 780h-45l-74 129l-127 -129h-44
l146 176h71z" />
    <glyph glyph-name="Cdotaccent" unicode="&#x10a;" horiz-adv-x="624" 
d="M659 612l-46 -29c-16 41 -63 110 -176 110c-199 0 -321 -186 -321 -427c0 -136 72 -232 214 -232c78 0 126 28 167 60l26 -43c-55 -39 -112 -66 -196 -66c-173 0 -267 112 -267 278c0 286 154 479 375 479c118 0 194 -51 224 -130zM495 833c0 -36 -18 -53 -49 -53
c-24 0 -37 9 -37 35c0 35 17 52 49 52c26 0 37 -10 37 -34z" />
    <glyph glyph-name="Dcaron" unicode="&#x10e;" horiz-adv-x="698" 
d="M668 462c0 -272 -145 -462 -449 -462h-182l148 727h148c209 0 335 -93 335 -265zM99 48h126c257 0 387 156 387 407c0 148 -104 224 -297 224h-88zM582 956l-146 -176h-71l-73 176h44l74 -129l127 129h45z" />
    <glyph glyph-name="Dcroat" unicode="&#x110;" horiz-adv-x="698" 
d="M668 462c0 -272 -145 -462 -449 -462h-182l70 344h-85l9 48h86l68 335h148c209 0 335 -93 335 -265zM99 48h126c257 0 387 156 387 407c0 148 -104 224 -297 224h-88l-58 -287h202l-9 -48h-203z" />
    <glyph glyph-name="Ebreve" unicode="&#x114;" horiz-adv-x="592" 
d="M470 0h-433l148 727h432l-9 -48h-381l-54 -267h348l-9 -48h-349l-64 -316h380zM572 918c-32 -65 -82 -138 -173 -138c-93 0 -113 89 -115 138h41c12 -48 31 -79 86 -79c53 0 85 27 119 79h42z" />
    <glyph glyph-name="Ecaron" unicode="&#x11a;" horiz-adv-x="592" 
d="M470 0h-433l148 727h432l-9 -48h-381l-54 -267h348l-9 -48h-349l-64 -316h380zM574 956l-146 -176h-71l-73 176h44l74 -129l127 129h45z" />
    <glyph glyph-name="Edotaccent" unicode="&#x116;" horiz-adv-x="592" 
d="M470 0h-433l148 727h432l-9 -48h-381l-54 -267h348l-9 -48h-349l-64 -316h380zM451 833c0 -36 -18 -53 -49 -53c-24 0 -37 9 -37 35c0 35 17 52 49 52c26 0 37 -10 37 -34z" />
    <glyph glyph-name="Emacron" unicode="&#x112;" horiz-adv-x="592" 
d="M470 0h-433l148 727h432l-9 -48h-381l-54 -267h348l-9 -48h-349l-64 -316h380zM548 780h-288l11 57h288z" />
    <glyph glyph-name="Eng" unicode="&#x14a;" horiz-adv-x="691" 
d="M546 -10c-23 -112 -70 -183 -210 -183c-28 0 -77 12 -103 25l32 49c16 -10 53 -22 88 -22c88 0 119 39 140 141l97 479c7 32 10 61 10 87c0 83 -35 128 -121 128c-95 0 -196 -66 -276 -130l-115 -564h-55l148 727h55l-20 -103c103 79 186 118 284 118
c109 0 158 -61 158 -159c0 -25 -3 -53 -9 -83z" />
    <glyph glyph-name="Eogonek" unicode="&#x118;" horiz-adv-x="592" 
d="M517 -161c-26 -15 -70 -32 -116 -32c-60 0 -87 32 -87 77c0 38 16 79 39 116h-316l148 727h432l-9 -48h-381l-54 -267h348l-9 -48h-349l-64 -316h380l-9 -48h-70c-18 -29 -34 -64 -34 -99c0 -32 20 -48 57 -48c29 0 59 9 83 19z" />
    <glyph glyph-name="Gbreve" unicode="&#x11e;" horiz-adv-x="694" 
d="M664 613l-46 -29c-24 55 -75 109 -183 109c-192 0 -319 -180 -319 -427c0 -134 73 -232 216 -232c70 0 133 22 192 50l40 196h-177l9 48h229l-55 -273c-76 -39 -161 -70 -243 -70c-183 0 -267 120 -267 282c0 239 120 475 381 475c122 0 196 -59 223 -129zM618 918
c-32 -65 -82 -138 -173 -138c-93 0 -113 89 -115 138h41c12 -48 31 -79 86 -79c53 0 85 27 119 79h42z" />
    <glyph glyph-name="Gcircumflex" unicode="&#x11c;" horiz-adv-x="694" 
d="M664 613l-46 -29c-24 55 -75 109 -183 109c-192 0 -319 -180 -319 -427c0 -134 73 -232 216 -232c70 0 133 22 192 50l40 196h-177l9 48h229l-55 -273c-76 -39 -161 -70 -243 -70c-183 0 -267 120 -267 282c0 239 120 475 381 475c122 0 196 -59 223 -129zM598 780h-45
l-74 129l-127 -129h-44l146 176h71z" />
    <glyph glyph-name="Gcommaaccent" unicode="&#x122;" horiz-adv-x="694" 
d="M664 613l-46 -29c-24 55 -75 109 -183 109c-192 0 -319 -180 -319 -427c0 -134 73 -232 216 -232c70 0 133 22 192 50l40 196h-177l9 48h229l-55 -273c-76 -39 -161 -70 -243 -70c-183 0 -267 120 -267 282c0 239 120 475 381 475c122 0 196 -59 223 -129zM366 -72
c0 -26 -7 -68 -52 -121h-42c21 23 35 50 38 77c-18 0 -36 10 -36 34c0 32 17 51 52 51c31 0 40 -19 40 -41z" />
    <glyph glyph-name="Gdotaccent" unicode="&#x120;" horiz-adv-x="694" 
d="M664 613l-46 -29c-24 55 -75 109 -183 109c-192 0 -319 -180 -319 -427c0 -134 73 -232 216 -232c70 0 133 22 192 50l40 196h-177l9 48h229l-55 -273c-76 -39 -161 -70 -243 -70c-183 0 -267 120 -267 282c0 239 120 475 381 475c122 0 196 -59 223 -129zM500 833
c0 -36 -18 -53 -49 -53c-24 0 -37 9 -37 35c0 35 17 52 49 52c26 0 37 -10 37 -34z" />
    <glyph glyph-name="Hbar" unicode="&#x126;" horiz-adv-x="687" 
d="M689 727l-32 -156h55l-10 -50h-55l-106 -521h-52l72 351h-401l-71 -351h-52l106 521h-54l10 50h54l32 156h52l-32 -156h400l32 156h52zM170 399h400l25 122h-400z" />
    <glyph glyph-name="Hcircumflex" unicode="&#x124;" horiz-adv-x="687" 
d="M689 727l-148 -727h-52l72 351h-401l-71 -351h-52l148 727h52l-67 -328h400l67 328h52zM582 780h-45l-74 129l-127 -129h-44l146 176h71z" />
    <glyph glyph-name="Ibreve" unicode="&#x12c;" horiz-adv-x="336" 
d="M219 0h-229l8 44h89l130 639h-89l8 44h230l-8 -44h-89l-130 -639h88zM421 918c-32 -65 -82 -138 -173 -138c-93 0 -113 89 -115 138h41c12 -48 31 -79 86 -79c53 0 85 27 119 79h42z" />
    <glyph glyph-name="IJ" unicode="&#x132;" horiz-adv-x="719" 
d="M219 0h-229l8 44h89l130 639h-89l8 44h230l-8 -44h-89l-130 -639h88zM604 168c-23 -112 -67 -183 -191 -183c-37 0 -86 11 -116 27l28 42c24 -12 58 -23 93 -23c95 0 117 50 141 171l97 478h-36c-63 0 -121 -19 -170 -56l-24 38c40 32 104 65 215 65h77z" />
    <glyph glyph-name="Imacron" unicode="&#x12a;" horiz-adv-x="336" 
d="M219 0h-229l8 44h89l130 639h-89l8 44h230l-8 -44h-89l-130 -639h88zM402 780h-288l11 57h288z" />
    <glyph glyph-name="Iogonek" unicode="&#x12e;" horiz-adv-x="336" 
d="M236 -161c-26 -15 -70 -32 -116 -32c-60 0 -87 32 -87 77c0 38 16 79 39 116h-82l8 44h89l130 639h-89l8 44h230l-8 -44h-89l-130 -639h88l-8 -44h-100c-18 -29 -34 -64 -34 -99c0 -32 20 -48 57 -48c29 0 59 9 83 19z" />
    <glyph glyph-name="Itilde" unicode="&#x128;" horiz-adv-x="336" 
d="M219 0h-229l8 44h89l130 639h-89l8 44h230l-8 -44h-89l-130 -639h88zM465 914c-13 -66 -43 -134 -115 -134c-82 0 -87 90 -150 90c-45 0 -65 -57 -74 -90h-43c13 64 53 134 127 134c84 0 90 -90 145 -90c43 0 60 59 67 90h43z" />
    <glyph glyph-name="Jcircumflex" unicode="&#x134;" horiz-adv-x="383" 
d="M268 168c-23 -112 -67 -183 -191 -183c-37 0 -86 11 -116 27l28 42c24 -12 58 -23 93 -23c95 0 117 50 141 171l97 478h-36c-63 0 -121 -19 -170 -56l-24 38c40 32 104 65 215 65h77zM404 780h-45l-74 129l-127 -129h-44l146 176h71z" />
    <glyph glyph-name="Kcommaaccent" unicode="&#x136;" horiz-adv-x="621" 
d="M544 0h-59l-169 411l-177 -165l-50 -246h-52l148 727h52l-83 -407l432 407h67l-297 -278zM319 -72c0 -26 -7 -68 -52 -121h-42c21 23 35 50 38 77c-18 0 -36 10 -36 34c0 32 17 51 52 51c31 0 40 -19 40 -41z" />
    <glyph glyph-name="Lacute" unicode="&#x139;" horiz-adv-x="511" 
d="M442 0h-405l148 727h52l-138 -679h352zM460 956l-183 -176h-45l149 176h79z" />
    <glyph glyph-name="Lcaron" unicode="&#x13d;" horiz-adv-x="511" 
d="M442 0h-405l148 727h52l-138 -679h352zM480 686c0 -54 -43 -133 -88 -186h-38c31 37 64 91 70 142c-18 0 -36 10 -36 34c0 32 17 51 52 51c31 0 40 -19 40 -41z" />
    <glyph glyph-name="Lcommaaccent" unicode="&#x13b;" horiz-adv-x="511" 
d="M442 0h-405l148 727h52l-138 -679h352zM302 -72c0 -26 -7 -68 -52 -121h-42c21 23 35 50 38 77c-18 0 -36 10 -36 34c0 32 17 51 52 51c31 0 40 -19 40 -41z" />
    <glyph glyph-name="Ldot" unicode="&#x13f;" horiz-adv-x="511" 
d="M442 0h-405l148 727h52l-138 -679h352zM406 329c0 -32 -14 -52 -54 -52c-22 0 -39 9 -39 30c0 34 16 52 54 52c21 0 39 -8 39 -30z" />
    <glyph glyph-name="Nacute" unicode="&#x143;" horiz-adv-x="691" 
d="M545 0h-75l-245 672l-136 -672h-52l148 727h74l246 -671l136 671h52zM625 956l-183 -176h-45l149 176h79z" />
    <glyph glyph-name="Ncaron" unicode="&#x147;" horiz-adv-x="691" 
d="M545 0h-75l-245 672l-136 -672h-52l148 727h74l246 -671l136 671h52zM630 956l-146 -176h-71l-73 176h44l74 -129l127 129h45z" />
    <glyph glyph-name="Ncommaaccent" unicode="&#x145;" horiz-adv-x="691" 
d="M545 0h-75l-245 672l-136 -672h-52l148 727h74l246 -671l136 671h52zM328 -72c0 -26 -7 -68 -52 -121h-42c21 23 35 50 38 77c-18 0 -36 10 -36 34c0 32 17 51 52 51c31 0 40 -19 40 -41z" />
    <glyph glyph-name="Obreve" unicode="&#x14e;" horiz-adv-x="737" 
d="M707 460c0 -188 -87 -475 -380 -475c-171 0 -267 107 -267 283c0 187 88 474 378 474c173 0 269 -107 269 -282zM651 460c0 140 -76 233 -217 233c-218 0 -318 -225 -318 -426c0 -140 76 -233 217 -233c218 0 318 224 318 426zM634 918c-32 -65 -82 -138 -173 -138
c-93 0 -113 89 -115 138h41c12 -48 31 -79 86 -79c53 0 85 27 119 79h42z" />
    <glyph glyph-name="Ohungarumlaut" unicode="&#x150;" horiz-adv-x="737" 
d="M707 460c0 -188 -87 -475 -380 -475c-171 0 -267 107 -267 283c0 187 88 474 378 474c173 0 269 -107 269 -282zM651 460c0 140 -76 233 -217 233c-218 0 -318 -225 -318 -426c0 -140 76 -233 217 -233c218 0 318 224 318 426zM736 956l-183 -176h-45l149 176h79z
M566 956l-183 -176h-45l149 176h79z" />
    <glyph glyph-name="Omacron" unicode="&#x14c;" horiz-adv-x="737" 
d="M707 460c0 -188 -87 -475 -380 -475c-171 0 -267 107 -267 283c0 187 88 474 378 474c173 0 269 -107 269 -282zM651 460c0 140 -76 233 -217 233c-218 0 -318 -225 -318 -426c0 -140 76 -233 217 -233c218 0 318 224 318 426zM595 780h-288l11 57h288z" />
    <glyph glyph-name="Oslashacute" unicode="&#x1fe;" horiz-adv-x="737" 
d="M707 460c0 -188 -87 -475 -380 -475c-81 0 -146 24 -191 68l-97 -109h-60l128 144c-31 47 -47 107 -47 180c0 187 88 474 378 474c81 0 145 -24 190 -67l79 89h60l-109 -123c32 -47 49 -108 49 -181zM651 460c0 53 -11 99 -33 136l-444 -501c36 -39 90 -61 159 -61
c218 0 318 224 318 426zM116 267c0 -52 10 -98 31 -134l444 500c-37 38 -90 60 -157 60c-218 0 -318 -225 -318 -426zM620 956l-183 -176h-45l149 176h79z" />
    <glyph glyph-name="Racute" unicode="&#x154;" horiz-adv-x="643" 
d="M532 0h-55l-13 214c-4 68 -25 103 -86 103h-225l-64 -317h-52l148 727h218c131 0 215 -65 215 -172c0 -97 -47 -179 -167 -213c47 -15 61 -51 64 -100zM163 365h154c163 0 245 69 245 192c0 75 -56 122 -173 122h-162zM518 956l-183 -176h-45l149 176h79z" />
    <glyph glyph-name="Rcaron" unicode="&#x158;" horiz-adv-x="643" 
d="M532 0h-55l-13 214c-4 68 -25 103 -86 103h-225l-64 -317h-52l148 727h218c131 0 215 -65 215 -172c0 -97 -47 -179 -167 -213c47 -15 61 -51 64 -100zM163 365h154c163 0 245 69 245 192c0 75 -56 122 -173 122h-162zM541 956l-146 -176h-71l-73 176h44l74 -129l127 129
h45z" />
    <glyph glyph-name="Rcommaaccent" unicode="&#x156;" horiz-adv-x="643" 
d="M532 0h-55l-13 214c-4 68 -25 103 -86 103h-225l-64 -317h-52l148 727h218c131 0 215 -65 215 -172c0 -97 -47 -179 -167 -213c47 -15 61 -51 64 -100zM163 365h154c163 0 245 69 245 192c0 75 -56 122 -173 122h-162zM313 -72c0 -26 -7 -68 -52 -121h-42
c21 23 35 50 38 77c-18 0 -36 10 -36 34c0 32 17 51 52 51c31 0 40 -19 40 -41z" />
    <glyph glyph-name="Sacute" unicode="&#x15a;" horiz-adv-x="615" 
d="M537 217c0 -156 -114 -232 -271 -232c-143 0 -224 75 -248 142l48 25c27 -65 93 -118 210 -118c96 0 203 46 203 173c0 93 -86 126 -177 153c-100 30 -191 62 -191 166c0 142 108 216 252 216c122 0 202 -64 228 -139l-51 -26c-28 70 -84 116 -183 116
c-100 0 -189 -48 -189 -159c0 -72 76 -100 171 -130c98 -31 198 -72 198 -187zM533 956l-183 -176h-45l149 176h79z" />
    <glyph glyph-name="Scedilla" unicode="&#x15e;" horiz-adv-x="615" 
d="M349 -86c0 -70 -69 -107 -138 -107c-41 0 -82 11 -104 21l24 36c26 -13 57 -19 94 -19c35 0 83 17 83 63c0 34 -45 51 -81 51l18 27c-130 7 -204 77 -227 141l48 25c27 -65 93 -118 210 -118c96 0 203 46 203 173c0 93 -86 126 -177 153c-100 30 -191 62 -191 166
c0 142 108 216 252 216c122 0 202 -64 228 -139l-51 -26c-28 70 -84 116 -183 116c-100 0 -189 -48 -189 -159c0 -72 76 -100 171 -130c98 -31 198 -72 198 -187c0 -151 -107 -227 -255 -232c52 -13 67 -42 67 -71z" />
    <glyph glyph-name="Scircumflex" unicode="&#x15c;" horiz-adv-x="615" 
d="M537 217c0 -156 -114 -232 -271 -232c-143 0 -224 75 -248 142l48 25c27 -65 93 -118 210 -118c96 0 203 46 203 173c0 93 -86 126 -177 153c-100 30 -191 62 -191 166c0 142 108 216 252 216c122 0 202 -64 228 -139l-51 -26c-28 70 -84 116 -183 116
c-100 0 -189 -48 -189 -159c0 -72 76 -100 171 -130c98 -31 198 -72 198 -187zM531 780h-45l-74 129l-127 -129h-44l146 176h71z" />
    <glyph glyph-name="Scommaaccent" unicode="&#x218;" horiz-adv-x="615" 
d="M537 217c0 -156 -114 -232 -271 -232c-143 0 -224 75 -248 142l48 25c27 -65 93 -118 210 -118c96 0 203 46 203 173c0 93 -86 126 -177 153c-100 30 -191 62 -191 166c0 142 108 216 252 216c122 0 202 -64 228 -139l-51 -26c-28 70 -84 116 -183 116
c-100 0 -189 -48 -189 -159c0 -72 76 -100 171 -130c98 -31 198 -72 198 -187zM299 -72c0 -26 -7 -68 -52 -121h-42c21 23 35 50 38 77c-18 0 -36 10 -36 34c0 32 17 51 52 51c31 0 40 -19 40 -41z" />
    <glyph glyph-name="Tbar" unicode="&#x166;" horiz-adv-x="525" 
d="M601 679h-240l-51 -251h158l-10 -52h-159l-76 -376h-52l76 376h-160l10 52h161l51 251h-240l9 48h532z" />
    <glyph glyph-name="Tcaron" unicode="&#x164;" horiz-adv-x="525" 
d="M601 679h-240l-138 -679h-52l138 679h-240l9 48h532zM531 956l-146 -176h-71l-73 176h44l74 -129l127 129h45z" />
    <glyph glyph-name="Ubreve" unicode="&#x16c;" horiz-adv-x="684" 
d="M595 279c-46 -225 -144 -294 -310 -294c-158 0 -204 75 -204 179c0 35 5 74 13 115l91 448h52l-89 -436c-9 -44 -14 -84 -14 -119c0 -84 36 -138 162 -138c150 0 212 75 248 253l90 440h52zM618 918c-32 -65 -82 -138 -173 -138c-93 0 -113 89 -115 138h41
c12 -48 31 -79 86 -79c53 0 85 27 119 79h42z" />
    <glyph glyph-name="Uhungarumlaut" unicode="&#x170;" horiz-adv-x="684" 
d="M595 279c-46 -225 -144 -294 -310 -294c-158 0 -204 75 -204 179c0 35 5 74 13 115l91 448h52l-89 -436c-9 -44 -14 -84 -14 -119c0 -84 36 -138 162 -138c150 0 212 75 248 253l90 440h52zM699 956l-183 -176h-45l149 176h79zM529 956l-183 -176h-45l149 176h79z" />
    <glyph glyph-name="Umacron" unicode="&#x16a;" horiz-adv-x="684" 
d="M595 279c-46 -225 -144 -294 -310 -294c-158 0 -204 75 -204 179c0 35 5 74 13 115l91 448h52l-89 -436c-9 -44 -14 -84 -14 -119c0 -84 36 -138 162 -138c150 0 212 75 248 253l90 440h52zM577 780h-288l11 57h288z" />
    <glyph glyph-name="Uogonek" unicode="&#x172;" horiz-adv-x="684" 
d="M435 -161c-26 -15 -70 -32 -116 -32c-60 0 -87 32 -87 77c0 34 12 68 31 102c-141 6 -182 79 -182 178c0 35 5 74 13 115l91 448h52l-89 -436c-9 -44 -14 -84 -14 -119c0 -84 36 -138 162 -138c150 0 212 75 248 253l90 440h52l-91 -448c-44 -214 -134 -286 -285 -293
c-15 -26 -26 -56 -26 -85c0 -32 20 -48 57 -48c29 0 59 9 83 19z" />
    <glyph glyph-name="Uring" unicode="&#x16e;" horiz-adv-x="684" 
d="M555 826c0 -70 -44 -133 -128 -133c-57 0 -82 35 -82 79c0 69 43 132 125 132c58 0 85 -30 85 -78zM434 727c54 0 84 40 84 92c0 33 -13 53 -54 53c-53 0 -83 -42 -83 -95c0 -28 13 -50 53 -50zM595 279c-46 -225 -144 -294 -310 -294c-158 0 -204 75 -204 179
c0 35 5 74 13 115l91 448h52l-89 -436c-9 -44 -14 -84 -14 -119c0 -84 36 -138 162 -138c150 0 212 75 248 253l90 440h52z" />
    <glyph glyph-name="Utilde" unicode="&#x168;" horiz-adv-x="684" 
d="M595 279c-46 -225 -144 -294 -310 -294c-158 0 -204 75 -204 179c0 35 5 74 13 115l91 448h52l-89 -436c-9 -44 -14 -84 -14 -119c0 -84 36 -138 162 -138c150 0 212 75 248 253l90 440h52zM646 914c-13 -66 -43 -134 -115 -134c-82 0 -87 90 -150 90
c-45 0 -65 -57 -74 -90h-43c13 64 53 134 127 134c84 0 90 -90 145 -90c43 0 60 59 67 90h43z" />
    <glyph glyph-name="Wacute" unicode="&#x1e82;" horiz-adv-x="860" 
d="M930 727l-319 -727h-74l-66 474l-260 -474h-78l-18 727h53l15 -680l268 485h61l69 -485l298 680h51zM676 956l-183 -176h-45l149 176h79z" />
    <glyph glyph-name="Wcircumflex" unicode="&#x174;" horiz-adv-x="860" 
d="M930 727l-319 -727h-74l-66 474l-260 -474h-78l-18 727h53l15 -680l268 485h61l69 -485l298 680h51zM672 780h-45l-74 129l-127 -129h-44l146 176h71z" />
    <glyph glyph-name="Wdieresis" unicode="&#x1e84;" horiz-adv-x="860" 
d="M930 727l-319 -727h-74l-66 474l-260 -474h-78l-18 727h53l15 -680l268 485h61l69 -485l298 680h51zM654 830c0 -34 -17 -50 -48 -50c-24 0 -36 9 -36 32c0 33 16 49 48 49c25 0 36 -10 36 -31zM482 830c0 -34 -17 -50 -48 -50c-24 0 -36 9 -36 32c0 33 16 49 48 49
c25 0 36 -10 36 -31z" />
    <glyph glyph-name="Wgrave" unicode="&#x1e80;" horiz-adv-x="860" 
d="M930 727l-319 -727h-74l-66 474l-260 -474h-78l-18 727h53l15 -680l268 485h61l69 -485l298 680h51zM561 780h-45l-113 176h79z" />
    <glyph glyph-name="Ycircumflex" unicode="&#x176;" horiz-adv-x="568" 
d="M636 727l-343 -431l-60 -296h-52l60 295l-171 432h61l146 -375l295 375h64zM497 780h-45l-74 129l-127 -129h-44l146 176h71z" />
    <glyph glyph-name="Ygrave" unicode="&#x1ef2;" horiz-adv-x="568" 
d="M636 727l-343 -431l-60 -296h-52l60 295l-171 432h61l146 -375l295 375h64zM407 780h-45l-113 176h79z" />
    <glyph glyph-name="Zacute" unicode="&#x179;" horiz-adv-x="567" 
d="M478 0h-494l9 47l542 632h-398l10 48h468l-8 -40l-549 -639h430zM496 956l-183 -176h-45l149 176h79z" />
    <glyph glyph-name="Zdotaccent" unicode="&#x17b;" horiz-adv-x="567" 
d="M478 0h-494l9 47l542 632h-398l10 48h468l-8 -40l-549 -639h430zM409 833c0 -36 -18 -53 -49 -53c-24 0 -37 9 -37 35c0 35 17 52 49 52c26 0 37 -10 37 -34z" />
    <glyph glyph-name="Idotaccent" unicode="&#x130;" horiz-adv-x="336" 
d="M219 0h-229l8 44h89l130 639h-89l8 44h230l-8 -44h-89l-130 -639h88zM312 833c0 -36 -18 -53 -49 -53c-24 0 -37 9 -37 35c0 35 17 52 49 52c26 0 37 -10 37 -34z" />
    <glyph glyph-name="abreve" unicode="&#x103;" horiz-adv-x="564" 
d="M531 506l-103 -506h-38l5 81c-51 -56 -111 -96 -189 -96c-122 0 -165 94 -165 200c0 156 95 336 279 336c69 0 120 -17 157 -32l35 17h19zM467 442c-41 17 -87 31 -151 31c-149 0 -220 -165 -220 -288c0 -96 35 -152 120 -152c68 0 123 41 191 115zM509 747
c-32 -65 -82 -138 -173 -138c-93 0 -113 89 -115 138h41c12 -48 31 -79 86 -79c53 0 85 27 119 79h42z" />
    <glyph glyph-name="amacron" unicode="&#x101;" horiz-adv-x="564" 
d="M531 506l-103 -506h-38l5 81c-51 -56 -111 -96 -189 -96c-122 0 -165 94 -165 200c0 156 95 336 279 336c69 0 120 -17 157 -32l35 17h19zM467 442c-41 17 -87 31 -151 31c-149 0 -220 -165 -220 -288c0 -96 35 -152 120 -152c68 0 123 41 191 115zM505 648h-288l11 57
h288z" />
    <glyph glyph-name="aogonek" unicode="&#x105;" horiz-adv-x="564" 
d="M531 506l-103 -506h-4c-17 -29 -34 -65 -34 -99c0 -32 20 -48 57 -48c29 0 59 9 83 19l11 -33c-26 -15 -70 -32 -116 -32c-60 0 -87 32 -87 77s23 93 53 136l4 61c-51 -56 -111 -96 -189 -96c-122 0 -165 94 -165 200c0 156 95 336 279 336c69 0 120 -17 157 -32l35 17
h19zM467 442c-41 17 -87 31 -151 31c-149 0 -220 -165 -220 -288c0 -96 35 -152 120 -152c68 0 123 41 191 115z" />
    <glyph glyph-name="aeacute" unicode="&#x1fd;" horiz-adv-x="870" 
d="M852 394c0 -53 -15 -141 -263 -158l-116 -8c-1 -11 -2 -24 -2 -38c0 -69 23 -159 136 -159c46 0 85 17 123 44l26 -41c-32 -22 -84 -49 -156 -49c-85 0 -141 38 -164 108l-17 -93h-38l5 81c-51 -56 -113 -96 -183 -96c-116 0 -162 94 -162 200c0 156 89 336 277 336
c69 0 113 -17 150 -32l35 17h19l-17 -72c49 59 116 87 192 87c92 0 155 -53 155 -127zM458 442c-41 17 -81 31 -145 31c-149 0 -217 -165 -217 -288c0 -96 39 -152 117 -152c60 0 117 41 185 115zM481 275l74 5c161 11 242 35 242 105s-63 90 -112 90
c-108 0 -176 -81 -204 -200zM787 766l-183 -176h-45l149 176h79z" />
    <glyph glyph-name="cacute" unicode="&#x107;" horiz-adv-x="477" 
d="M488 436l-45 -25c-25 43 -74 64 -126 64c-158 0 -221 -155 -221 -290c0 -91 51 -154 145 -154c41 0 83 17 126 47l26 -42c-46 -31 -98 -51 -156 -51c-129 0 -196 79 -196 200c0 179 87 336 282 336c67 0 135 -26 165 -85zM475 766l-183 -176h-45l149 176h79z" />
    <glyph glyph-name="ccaron" unicode="&#x10d;" horiz-adv-x="477" 
d="M488 436l-45 -25c-25 43 -74 64 -126 64c-158 0 -221 -155 -221 -290c0 -91 51 -154 145 -154c41 0 83 17 126 47l26 -42c-46 -31 -98 -51 -156 -51c-129 0 -196 79 -196 200c0 179 87 336 282 336c67 0 135 -26 165 -85zM502 766l-146 -176h-71l-73 176h44l74 -129
l127 129h45z" />
    <glyph glyph-name="ccircumflex" unicode="&#x109;" horiz-adv-x="477" 
d="M488 436l-45 -25c-25 43 -74 64 -126 64c-158 0 -221 -155 -221 -290c0 -91 51 -154 145 -154c41 0 83 17 126 47l26 -42c-46 -31 -98 -51 -156 -51c-129 0 -196 79 -196 200c0 179 87 336 282 336c67 0 135 -26 165 -85zM476 590h-45l-74 129l-127 -129h-44l146 176h71z
" />
    <glyph glyph-name="cdotaccent" unicode="&#x10b;" horiz-adv-x="477" 
d="M488 436l-45 -25c-25 43 -74 64 -126 64c-158 0 -221 -155 -221 -290c0 -91 51 -154 145 -154c41 0 83 17 126 47l26 -42c-46 -31 -98 -51 -156 -51c-129 0 -196 79 -196 200c0 179 87 336 282 336c67 0 135 -26 165 -85zM381 654c0 -36 -18 -53 -49 -53
c-24 0 -37 9 -37 35c0 35 17 52 49 52c26 0 37 -10 37 -34z" />
    <glyph glyph-name="dcaron" unicode="&#x10f;" horiz-adv-x="564" 
d="M576 727l-148 -727h-38l5 81c-51 -56 -111 -96 -189 -96c-122 0 -165 94 -165 200c0 156 95 336 279 336c69 0 120 -17 157 -32l48 238h51zM467 442c-41 17 -87 31 -151 31c-149 0 -220 -165 -220 -288c0 -96 35 -152 120 -152c68 0 123 41 191 115zM705 701
c0 -54 -43 -133 -88 -186h-38c31 37 64 91 70 142c-18 0 -36 10 -36 34c0 32 17 51 52 51c31 0 40 -19 40 -41z" />
    <glyph glyph-name="dcroat" unicode="&#x111;" horiz-adv-x="564" 
d="M576 727l-17 -83h76l-10 -49h-76l-121 -595h-38l5 81c-51 -56 -111 -96 -189 -96c-122 0 -165 94 -165 200c0 156 95 336 279 336c69 0 120 -17 157 -32l21 106h-171l10 49h171l17 83h51zM467 442c-41 17 -87 31 -151 31c-149 0 -220 -165 -220 -288
c0 -96 35 -152 120 -152c68 0 123 41 191 115z" />
    <glyph glyph-name="ebreve" unicode="&#x115;" horiz-adv-x="495" 
d="M477 394c0 -53 -15 -141 -263 -158l-116 -8c-1 -11 -2 -24 -2 -38c0 -69 23 -159 136 -159c46 0 85 17 123 44l26 -41c-32 -22 -84 -49 -156 -49c-129 0 -184 86 -184 208c0 143 71 328 276 328c99 0 160 -53 160 -127zM106 275l74 5c161 11 242 35 242 105
s-63 90 -112 90c-108 0 -176 -81 -204 -200zM493 747c-32 -65 -82 -138 -173 -138c-93 0 -113 89 -115 138h41c12 -48 31 -79 86 -79c53 0 85 27 119 79h42z" />
    <glyph glyph-name="ecaron" unicode="&#x11b;" horiz-adv-x="495" 
d="M477 394c0 -53 -15 -141 -263 -158l-116 -8c-1 -11 -2 -24 -2 -38c0 -69 23 -159 136 -159c46 0 85 17 123 44l26 -41c-32 -22 -84 -49 -156 -49c-129 0 -184 86 -184 208c0 143 71 328 276 328c99 0 160 -53 160 -127zM106 275l74 5c161 11 242 35 242 105
s-63 90 -112 90c-108 0 -176 -81 -204 -200zM504 766l-146 -176h-71l-73 176h44l74 -129l127 129h45z" />
    <glyph glyph-name="edotaccent" unicode="&#x117;" horiz-adv-x="495" 
d="M477 394c0 -53 -15 -141 -263 -158l-116 -8c-1 -11 -2 -24 -2 -38c0 -69 23 -159 136 -159c46 0 85 17 123 44l26 -41c-32 -22 -84 -49 -156 -49c-129 0 -184 86 -184 208c0 143 71 328 276 328c99 0 160 -53 160 -127zM106 275l74 5c161 11 242 35 242 105
s-63 90 -112 90c-108 0 -176 -81 -204 -200zM379 654c0 -36 -18 -53 -49 -53c-24 0 -37 9 -37 35c0 35 17 52 49 52c26 0 37 -10 37 -34z" />
    <glyph glyph-name="emacron" unicode="&#x113;" horiz-adv-x="495" 
d="M477 394c0 -53 -15 -141 -263 -158l-116 -8c-1 -11 -2 -24 -2 -38c0 -69 23 -159 136 -159c46 0 85 17 123 44l26 -41c-32 -22 -84 -49 -156 -49c-129 0 -184 86 -184 208c0 143 71 328 276 328c99 0 160 -53 160 -127zM106 275l74 5c161 11 242 35 242 105
s-63 90 -112 90c-108 0 -176 -81 -204 -200zM469 648h-288l11 57h288z" />
    <glyph glyph-name="eng" unicode="&#x14b;" horiz-adv-x="564" 
d="M425 -36c-21 -105 -65 -157 -178 -157c-23 0 -56 7 -76 15l19 46c21 -9 50 -16 78 -16c67 0 91 43 109 130l73 359c3 15 7 41 7 52c0 49 -27 79 -91 79c-66 0 -159 -59 -208 -99l-76 -373h-51l103 506h51l-16 -78c44 36 125 93 206 93c86 0 133 -47 133 -114
c0 -18 -4 -49 -9 -75z" />
    <glyph glyph-name="eogonek" unicode="&#x119;" horiz-adv-x="495" 
d="M377 -161c-26 -15 -70 -32 -116 -32c-60 0 -87 32 -87 77c0 34 12 68 31 102c-115 8 -164 91 -164 207c0 143 71 328 276 328c99 0 160 -53 160 -127c0 -53 -15 -141 -263 -158l-116 -8c-1 -11 -2 -24 -2 -38c0 -69 23 -159 136 -159h3h4c43 1 80 18 116 44l26 -41
c-28 -19 -71 -42 -129 -48c-15 -26 -26 -56 -26 -85c0 -32 20 -48 57 -48c29 0 59 9 83 19zM106 275l74 5c161 11 242 35 242 105s-63 90 -112 90c-108 0 -176 -81 -204 -200z" />
    <glyph glyph-name="gbreve" unicode="&#x11f;" horiz-adv-x="571" 
d="M601 505l-11 -46c-7 3 -17 6 -35 6c-42 0 -49 -33 -62 -97l-74 -365c-26 -129 -94 -196 -242 -196c-66 0 -128 15 -154 32l21 50c39 -22 82 -33 130 -33c118 0 172 39 194 146l22 105c-61 -73 -119 -107 -191 -107c-109 0 -158 77 -158 180c0 159 94 341 276 341
c65 0 115 -18 157 -46c18 31 46 40 74 40c24 0 41 -5 53 -10zM407 189l48 238c-47 33 -89 46 -142 46c-141 0 -217 -159 -217 -293c0 -76 30 -133 112 -133c54 0 123 32 199 142zM496 747c-32 -65 -82 -138 -173 -138c-93 0 -113 89 -115 138h41c12 -48 31 -79 86 -79
c53 0 85 27 119 79h42z" />
    <glyph glyph-name="gcircumflex" unicode="&#x11d;" horiz-adv-x="571" 
d="M601 505l-11 -46c-7 3 -17 6 -35 6c-42 0 -49 -33 -62 -97l-74 -365c-26 -129 -94 -196 -242 -196c-66 0 -128 15 -154 32l21 50c39 -22 82 -33 130 -33c118 0 172 39 194 146l22 105c-61 -73 -119 -107 -191 -107c-109 0 -158 77 -158 180c0 159 94 341 276 341
c65 0 115 -18 157 -46c18 31 46 40 74 40c24 0 41 -5 53 -10zM407 189l48 238c-47 33 -89 46 -142 46c-141 0 -217 -159 -217 -293c0 -76 30 -133 112 -133c54 0 123 32 199 142zM481 590h-45l-74 129l-127 -129h-44l146 176h71z" />
    <glyph glyph-name="gcommaaccent" unicode="&#x123;" horiz-adv-x="571" 
d="M601 505l-11 -46c-7 3 -17 6 -35 6c-42 0 -49 -33 -62 -97l-74 -365c-26 -129 -94 -196 -242 -196c-66 0 -128 15 -154 32l21 50c39 -22 82 -33 130 -33c118 0 172 39 194 146l22 105c-61 -73 -119 -107 -191 -107c-109 0 -158 77 -158 180c0 159 94 341 276 341
c65 0 115 -18 157 -46c18 31 46 40 74 40c24 0 41 -5 53 -10zM407 189l48 238c-47 33 -89 46 -142 46c-141 0 -217 -159 -217 -293c0 -76 30 -133 112 -133c54 0 123 32 199 142zM289 642c0 26 7 68 52 121h42c-21 -23 -35 -50 -38 -77c18 0 36 -10 36 -34
c0 -32 -17 -51 -52 -51c-31 0 -40 19 -40 41z" />
    <glyph glyph-name="gdotaccent" unicode="&#x121;" horiz-adv-x="571" 
d="M601 505l-11 -46c-7 3 -17 6 -35 6c-42 0 -49 -33 -62 -97l-74 -365c-26 -129 -94 -196 -242 -196c-66 0 -128 15 -154 32l21 50c39 -22 82 -33 130 -33c118 0 172 39 194 146l22 105c-61 -73 -119 -107 -191 -107c-109 0 -158 77 -158 180c0 159 94 341 276 341
c65 0 115 -18 157 -46c18 31 46 40 74 40c24 0 41 -5 53 -10zM407 189l48 238c-47 33 -89 46 -142 46c-141 0 -217 -159 -217 -293c0 -76 30 -133 112 -133c54 0 123 32 199 142zM378 654c0 -36 -18 -53 -49 -53c-24 0 -37 9 -37 35c0 35 17 52 49 52c26 0 37 -10 37 -34z
" />
    <glyph glyph-name="hbar" unicode="&#x127;" horiz-adv-x="564" 
d="M508 407c0 -18 -4 -49 -9 -75l-67 -332h-51l69 341c3 15 7 41 7 52c0 49 -27 79 -91 79c-66 0 -159 -59 -208 -99l-76 -373h-51l121 595h-53l10 49h53l17 83h51l-17 -83h220l-10 -49h-220l-34 -167c44 36 125 93 206 93c86 0 133 -47 133 -114z" />
    <glyph glyph-name="hcircumflex" unicode="&#x125;" horiz-adv-x="564" 
d="M508 407c0 -18 -4 -49 -9 -75l-67 -332h-51l69 341c3 15 7 41 7 52c0 49 -27 79 -91 79c-66 0 -159 -59 -208 -99l-76 -373h-51l148 727h51l-61 -299c44 36 125 93 206 93c86 0 133 -47 133 -114zM481 780h-45l-74 129l-127 -129h-44l146 176h71z" />
    <glyph glyph-name="ibreve" unicode="&#x12d;" horiz-adv-x="253" 
d="M117 0h-51l84 411c4 19 7 33 7 43c0 9 -3 14 -10 14c-14 0 -39 -11 -67 -29l-19 37c30 21 70 45 105 45c34 0 45 -20 45 -44c0 -13 -1 -20 -5 -41zM360 747c-32 -65 -82 -138 -173 -138c-93 0 -113 89 -115 138h41c12 -48 31 -79 86 -79c53 0 85 27 119 79h42z" />
    <glyph glyph-name="ij" unicode="&#x133;" horiz-adv-x="520" 
d="M117 0h-51l84 411c4 19 7 33 7 43c0 9 -3 14 -10 14c-14 0 -39 -11 -67 -29l-19 37c30 21 70 45 105 45c34 0 45 -20 45 -44c0 -13 -1 -20 -5 -41zM247 651c0 -34 -17 -50 -48 -50c-24 0 -36 9 -36 32c0 33 16 49 48 49c25 0 36 -10 36 -31zM514 651
c0 -34 -17 -50 -48 -50c-24 0 -36 9 -36 32c0 33 16 49 48 49c25 0 36 -10 36 -31zM376 -36c-21 -105 -69 -157 -169 -157c-33 0 -63 9 -83 17l18 42c21 -9 47 -16 75 -16c69 0 95 45 113 132l87 429c4 19 7 33 7 43c0 9 -3 14 -10 14c-14 0 -39 -11 -67 -29l-19 37
c30 21 70 45 106 45c32 0 44 -20 44 -44c0 -13 -1 -20 -5 -41z" />
    <glyph glyph-name="imacron" unicode="&#x12b;" horiz-adv-x="253" 
d="M117 0h-51l84 411c4 19 7 33 7 43c0 9 -3 14 -10 14c-14 0 -39 -11 -67 -29l-19 37c30 21 70 45 105 45c34 0 45 -20 45 -44c0 -13 -1 -20 -5 -41zM338 648h-288l11 57h288z" />
    <glyph glyph-name="iogonek" unicode="&#x12f;" horiz-adv-x="253" 
d="M117 0h-5c-19 -29 -35 -64 -35 -99c0 -32 20 -48 57 -48c29 0 59 9 83 19l11 -33c-26 -15 -70 -32 -116 -32c-60 0 -87 32 -87 77c0 39 17 80 41 118l84 409c4 19 7 33 7 43c0 9 -3 14 -10 14c-14 0 -39 -11 -67 -29l-19 37c30 21 70 45 105 45c34 0 45 -20 45 -44
c0 -13 -1 -20 -5 -41zM247 651c0 -34 -17 -50 -48 -50c-24 0 -36 9 -36 32c0 33 16 49 48 49c25 0 36 -10 36 -31z" />
    <glyph glyph-name="itilde" unicode="&#x129;" horiz-adv-x="253" 
d="M117 0h-51l84 411c4 19 7 33 7 43c0 9 -3 14 -10 14c-14 0 -39 -11 -67 -29l-19 37c30 21 70 45 105 45c34 0 45 -20 45 -44c0 -13 -1 -20 -5 -41zM389 745c-13 -66 -43 -134 -115 -134c-82 0 -87 90 -150 90c-45 0 -65 -57 -74 -90h-43c13 64 53 134 127 134
c84 0 90 -90 145 -90c43 0 60 59 67 90h43z" />
    <glyph glyph-name="jcircumflex" unicode="&#x135;" horiz-adv-x="267" 
d="M123 -36c-21 -105 -69 -157 -169 -157c-33 0 -63 9 -83 17l18 42c21 -9 47 -16 75 -16c69 0 95 45 113 132l87 429c4 19 7 33 7 43c0 9 -3 14 -10 14c-14 0 -39 -11 -67 -29l-19 37c30 21 70 45 106 45c32 0 44 -20 44 -44c0 -13 -1 -20 -5 -41zM334 590h-45l-74 129
l-127 -129h-44l146 176h71z" />
    <glyph glyph-name="kcommaaccent" unicode="&#x137;" horiz-adv-x="484" 
d="M426 37l8 -45c-17 -4 -35 -7 -49 -7c-33 0 -47 15 -72 68l-97 209l-100 -95l-34 -167h-51l147 727h51l-100 -489l283 268h67l-223 -209l107 -226c15 -31 24 -37 37 -37c7 0 17 1 26 3zM243 -72c0 -26 -7 -68 -52 -121h-42c21 23 35 50 38 77c-18 0 -36 10 -36 34
c0 32 17 51 52 51c31 0 40 -19 40 -41z" />
    <glyph glyph-name="lacute" unicode="&#x13a;" horiz-adv-x="261" 
d="M200 36l6 -44c-12 -3 -43 -7 -70 -7c-62 0 -87 28 -87 83c0 17 2 35 8 64l117 578l57 32l-123 -603c-6 -31 -8 -49 -8 -64c0 -33 13 -45 49 -45c16 0 35 2 51 6zM407 956l-183 -176h-45l149 176h79z" />
    <glyph glyph-name="lcaron" unicode="&#x13e;" horiz-adv-x="261" 
d="M200 36l6 -44c-12 -3 -43 -7 -70 -7c-62 0 -87 28 -87 83c0 17 2 35 8 64l117 578l57 32l-123 -603c-6 -31 -8 -49 -8 -64c0 -33 13 -45 49 -45c16 0 35 2 51 6zM346 686c0 -54 -43 -133 -88 -186h-38c31 37 64 91 70 142c-18 0 -36 10 -36 34c0 32 17 51 52 51
c31 0 40 -19 40 -41z" />
    <glyph glyph-name="lcommaaccent" unicode="&#x13c;" horiz-adv-x="261" 
d="M200 36l6 -44c-12 -3 -43 -7 -70 -7c-62 0 -87 28 -87 83c0 17 2 35 8 64l117 578l57 32l-123 -603c-6 -31 -8 -49 -8 -64c0 -33 13 -45 49 -45c16 0 35 2 51 6zM177 -72c0 -26 -7 -68 -52 -121h-42c21 23 35 50 38 77c-18 0 -36 10 -36 34c0 32 17 51 52 51
c31 0 40 -19 40 -41z" />
    <glyph glyph-name="ldot" unicode="&#x140;" horiz-adv-x="261" 
d="M200 36l6 -44c-12 -3 -43 -7 -70 -7c-62 0 -87 28 -87 83c0 17 2 35 8 64l117 578l57 32l-123 -603c-6 -31 -8 -49 -8 -64c0 -33 13 -45 49 -45c16 0 35 2 51 6zM295 332c0 -32 -14 -52 -54 -52c-22 0 -39 9 -39 30c0 34 16 52 54 52c21 0 39 -8 39 -30z" />
    <glyph glyph-name="nacute" unicode="&#x144;" horiz-adv-x="564" 
d="M508 407c0 -18 -4 -49 -9 -75l-67 -332h-51l69 341c3 15 7 41 7 52c0 49 -27 79 -91 79c-66 0 -159 -59 -208 -99l-76 -373h-51l103 506h51l-16 -78c44 36 125 93 206 93c86 0 133 -47 133 -114zM489 766l-183 -176h-45l149 176h79z" />
    <glyph glyph-name="ncaron" unicode="&#x148;" horiz-adv-x="564" 
d="M508 407c0 -18 -4 -49 -9 -75l-67 -332h-51l69 341c3 15 7 41 7 52c0 49 -27 79 -91 79c-66 0 -159 -59 -208 -99l-76 -373h-51l103 506h51l-16 -78c44 36 125 93 206 93c86 0 133 -47 133 -114zM523 766l-146 -176h-71l-73 176h44l74 -129l127 129h45z" />
    <glyph glyph-name="ncommaaccent" unicode="&#x146;" horiz-adv-x="564" 
d="M508 407c0 -18 -4 -49 -9 -75l-67 -332h-51l69 341c3 15 7 41 7 52c0 49 -27 79 -91 79c-66 0 -159 -59 -208 -99l-76 -373h-51l103 506h51l-16 -78c44 36 125 93 206 93c86 0 133 -47 133 -114zM274 -72c0 -26 -7 -68 -52 -121h-42c21 23 35 50 38 77
c-18 0 -36 10 -36 34c0 32 17 51 52 51c31 0 40 -19 40 -41z" />
    <glyph glyph-name="obreve" unicode="&#x14f;" horiz-adv-x="549" 
d="M508 323c0 -171 -81 -338 -274 -338c-116 0 -193 66 -193 200c0 168 81 336 275 336c115 0 192 -66 192 -198zM453 321c0 89 -45 154 -143 154c-151 0 -214 -159 -214 -290c0 -89 46 -154 143 -154c151 0 214 158 214 290zM485 747c-32 -65 -82 -138 -173 -138
c-93 0 -113 89 -115 138h41c12 -48 31 -79 86 -79c53 0 85 27 119 79h42z" />
    <glyph glyph-name="ohungarumlaut" unicode="&#x151;" horiz-adv-x="549" 
d="M508 323c0 -171 -81 -338 -274 -338c-116 0 -193 66 -193 200c0 168 81 336 275 336c115 0 192 -66 192 -198zM453 321c0 89 -45 154 -143 154c-151 0 -214 -159 -214 -290c0 -89 46 -154 143 -154c151 0 214 158 214 290zM590 766l-183 -176h-45l149 176h79zM420 766
l-183 -176h-45l149 176h79z" />
    <glyph glyph-name="omacron" unicode="&#x14d;" horiz-adv-x="549" 
d="M508 323c0 -171 -81 -338 -274 -338c-116 0 -193 66 -193 200c0 168 81 336 275 336c115 0 192 -66 192 -198zM453 321c0 89 -45 154 -143 154c-151 0 -214 -159 -214 -290c0 -89 46 -154 143 -154c151 0 214 158 214 290zM481 648h-288l11 57h288z" />
    <glyph glyph-name="oslashacute" unicode="&#x1ff;" horiz-adv-x="549" 
d="M508 323c0 -171 -81 -338 -274 -338c-52 0 -97 14 -130 40l-54 -62h-54l80 92c-23 32 -35 75 -35 130c0 168 81 336 275 336c53 0 97 -14 130 -42l56 64h54l-82 -94c22 -32 34 -74 34 -126zM96 185c0 -33 6 -63 18 -87l297 341c-24 22 -57 36 -101 36
c-151 0 -214 -159 -214 -290zM453 321c0 31 -6 60 -18 84l-296 -339c24 -22 57 -35 100 -35c151 0 214 158 214 290zM469 766l-183 -176h-45l149 176h79z" />
    <glyph glyph-name="racute" unicode="&#x155;" horiz-adv-x="357" 
d="M377 508l-21 -52c-8 4 -18 5 -27 5c-48 0 -111 -55 -179 -124l-69 -337h-50l103 506h51l-22 -104c73 75 126 112 179 112c13 0 26 -2 35 -6zM431 766l-183 -176h-45l149 176h79z" />
    <glyph glyph-name="rcaron" unicode="&#x159;" horiz-adv-x="357" 
d="M377 508l-21 -52c-8 4 -18 5 -27 5c-48 0 -111 -55 -179 -124l-69 -337h-50l103 506h51l-22 -104c73 75 126 112 179 112c13 0 26 -2 35 -6zM443 766l-146 -176h-71l-73 176h44l74 -129l127 129h45z" />
    <glyph glyph-name="rcommaaccent" unicode="&#x157;" horiz-adv-x="357" 
d="M377 508l-21 -52c-8 4 -18 5 -27 5c-48 0 -111 -55 -179 -124l-69 -337h-50l103 506h51l-22 -104c73 75 126 112 179 112c13 0 26 -2 35 -6zM132 -72c0 -26 -7 -68 -52 -121h-42c21 23 35 50 38 77c-18 0 -36 10 -36 34c0 32 17 51 52 51c31 0 40 -19 40 -41z" />
    <glyph glyph-name="sacute" unicode="&#x15b;" horiz-adv-x="449" 
d="M427 437l-42 -27c-26 45 -87 65 -137 65c-87 0 -132 -44 -132 -101c0 -43 39 -69 116 -98c95 -36 145 -70 145 -135c0 -117 -99 -156 -209 -156c-66 0 -138 25 -173 82l42 28c32 -48 80 -64 136 -64c71 0 153 24 153 102c0 35 -23 61 -111 94c-81 30 -150 66 -150 138
c0 112 94 156 188 156c63 0 138 -25 174 -84zM432 766l-183 -176h-45l149 176h79z" />
    <glyph glyph-name="scedilla" unicode="&#x15f;" horiz-adv-x="449" 
d="M264 -86c0 -70 -69 -107 -138 -107c-41 0 -82 11 -104 21l24 36c26 -13 57 -19 94 -19c35 0 83 17 83 63c0 34 -45 51 -81 51l17 26c-63 2 -131 27 -164 82l42 28c32 -48 80 -64 136 -64c71 0 153 24 153 102c0 35 -23 61 -111 94c-81 30 -150 66 -150 138
c0 112 94 156 188 156c63 0 138 -25 174 -84l-42 -27c-26 45 -87 65 -137 65c-87 0 -132 -44 -132 -101c0 -43 39 -69 116 -98c95 -36 145 -70 145 -135c0 -107 -82 -148 -180 -155v-1c52 -13 67 -42 67 -71z" />
    <glyph glyph-name="scircumflex" unicode="&#x15d;" horiz-adv-x="449" 
d="M427 437l-42 -27c-26 45 -87 65 -137 65c-87 0 -132 -44 -132 -101c0 -43 39 -69 116 -98c95 -36 145 -70 145 -135c0 -117 -99 -156 -209 -156c-66 0 -138 25 -173 82l42 28c32 -48 80 -64 136 -64c71 0 153 24 153 102c0 35 -23 61 -111 94c-81 30 -150 66 -150 138
c0 112 94 156 188 156c63 0 138 -25 174 -84zM411 590h-45l-74 129l-127 -129h-44l146 176h71z" />
    <glyph glyph-name="scommaaccent" unicode="&#x219;" horiz-adv-x="449" 
d="M427 437l-42 -27c-26 45 -87 65 -137 65c-87 0 -132 -44 -132 -101c0 -43 39 -69 116 -98c95 -36 145 -70 145 -135c0 -117 -99 -156 -209 -156c-66 0 -138 25 -173 82l42 28c32 -48 80 -64 136 -64c71 0 153 24 153 102c0 35 -23 61 -111 94c-81 30 -150 66 -150 138
c0 112 94 156 188 156c63 0 138 -25 174 -84zM216 -72c0 -26 -7 -68 -52 -121h-42c21 23 35 50 38 77c-18 0 -36 10 -36 34c0 32 17 51 52 51c31 0 40 -19 40 -41z" />
    <glyph glyph-name="tbar" unicode="&#x167;" horiz-adv-x="330" 
d="M325 506l-9 -44h-122l-27 -130h138l-9 -44h-138l-31 -155c-3 -17 -8 -42 -8 -54c0 -42 24 -52 63 -52c26 0 48 6 69 13l10 -42c-26 -8 -57 -13 -87 -13c-70 0 -106 22 -106 91c0 12 3 33 7 51l32 161h-82l9 44h82l27 130h-98l9 44h98l37 181l58 38l-44 -219h122z" />
    <glyph glyph-name="tcaron" unicode="&#x165;" horiz-adv-x="330" 
d="M325 506l-9 -44h-122l-67 -329c-3 -17 -8 -42 -8 -54c0 -42 24 -52 63 -52c26 0 45 6 69 13l10 -42c-26 -8 -57 -13 -87 -13c-70 0 -106 22 -106 91c0 12 3 33 7 51l68 335h-98l9 44h98l32 154l56 27l-37 -181h122zM371 646c0 -26 -7 -68 -52 -121h-42c21 23 35 50 38 77
c-18 0 -36 10 -36 34c0 32 17 51 52 51c31 0 40 -19 40 -41z" />
    <glyph glyph-name="ubreve" unicode="&#x16d;" horiz-adv-x="560" 
d="M425 0h-51l16 86c-78 -63 -140 -101 -206 -101c-101 0 -131 61 -131 123c0 14 2 36 5 49l71 349h51l-68 -333c-4 -21 -7 -41 -7 -59c0 -44 18 -80 90 -80c52 0 133 46 206 106l75 366h51zM509 747c-32 -65 -82 -138 -173 -138c-93 0 -113 89 -115 138h41
c12 -48 31 -79 86 -79c53 0 85 27 119 79h42z" />
    <glyph glyph-name="uhungarumlaut" unicode="&#x171;" horiz-adv-x="560" 
d="M425 0h-51l16 86c-78 -63 -140 -101 -206 -101c-101 0 -131 61 -131 123c0 14 2 36 5 49l71 349h51l-68 -333c-4 -21 -7 -41 -7 -59c0 -44 18 -80 90 -80c52 0 133 46 206 106l75 366h51zM592 766l-183 -176h-45l149 176h79zM422 766l-183 -176h-45l149 176h79z" />
    <glyph glyph-name="umacron" unicode="&#x16b;" horiz-adv-x="560" 
d="M425 0h-51l16 86c-78 -63 -140 -101 -206 -101c-101 0 -131 61 -131 123c0 14 2 36 5 49l71 349h51l-68 -333c-4 -21 -7 -41 -7 -59c0 -44 18 -80 90 -80c52 0 133 46 206 106l75 366h51zM486 648h-288l11 57h288z" />
    <glyph glyph-name="uogonek" unicode="&#x173;" horiz-adv-x="560" 
d="M527 -161c-26 -15 -70 -32 -116 -32c-60 0 -87 32 -87 77c0 46 23 94 54 137l12 65c-78 -63 -140 -101 -206 -101c-101 0 -131 61 -131 123c0 14 2 36 5 49l71 349h51l-68 -333c-4 -21 -7 -41 -7 -59c0 -44 18 -80 90 -80c52 0 133 46 206 106l75 366h51l-96 -475l-6 -31
h-15c-18 -29 -34 -64 -34 -99c0 -32 20 -48 57 -48c29 0 59 9 83 19z" />
    <glyph glyph-name="uring" unicode="&#x16f;" horiz-adv-x="560" 
d="M425 0h-51l16 86c-78 -63 -140 -101 -206 -101c-101 0 -131 61 -131 123c0 14 2 36 5 49l71 349h51l-68 -333c-4 -21 -7 -41 -7 -59c0 -44 18 -80 90 -80c52 0 133 46 206 106l75 366h51zM430 679c0 -57 -36 -108 -104 -108c-47 0 -67 28 -67 64c0 56 35 108 102 108
c47 0 69 -25 69 -64zM332 602c40 0 63 30 63 70c0 25 -10 40 -40 40c-39 0 -61 -32 -61 -72c0 -21 10 -38 38 -38z" />
    <glyph glyph-name="utilde" unicode="&#x169;" horiz-adv-x="560" 
d="M425 0h-51l16 86c-78 -63 -140 -101 -206 -101c-101 0 -131 61 -131 123c0 14 2 36 5 49l71 349h51l-68 -333c-4 -21 -7 -41 -7 -59c0 -44 18 -80 90 -80c52 0 133 46 206 106l75 366h51zM539 745c-13 -66 -43 -134 -115 -134c-82 0 -87 90 -150 90
c-45 0 -65 -57 -74 -90h-43c13 64 53 134 127 134c84 0 90 -90 145 -90c43 0 60 59 67 90h43z" />
    <glyph glyph-name="wacute" unicode="&#x1e83;" horiz-adv-x="682" 
d="M708 506l-221 -506h-54l-84 344l-206 -344h-59l-26 506h53l19 -449l201 341h57l82 -336l188 444h50zM526 766l-183 -176h-45l149 176h79z" />
    <glyph glyph-name="wcircumflex" unicode="&#x175;" horiz-adv-x="682" 
d="M708 506l-221 -506h-54l-84 344l-206 -344h-59l-26 506h53l19 -449l201 341h57l82 -336l188 444h50zM535 590h-45l-74 129l-127 -129h-44l146 176h71z" />
    <glyph glyph-name="wdieresis" unicode="&#x1e85;" horiz-adv-x="682" 
d="M708 506l-221 -506h-54l-84 344l-206 -344h-59l-26 506h53l19 -449l201 341h57l82 -336l188 444h50zM532 651c0 -34 -17 -50 -48 -50c-24 0 -36 9 -36 32c0 33 16 49 48 49c25 0 36 -10 36 -31zM360 651c0 -34 -17 -50 -48 -50c-24 0 -36 9 -36 32c0 33 16 49 48 49
c25 0 36 -10 36 -31z" />
    <glyph glyph-name="wgrave" unicode="&#x1e81;" horiz-adv-x="682" 
d="M708 506l-221 -506h-54l-84 344l-206 -344h-59l-26 506h53l19 -449l201 341h57l82 -336l188 444h50zM420 590h-45l-113 176h79z" />
    <glyph glyph-name="ycircumflex" unicode="&#x177;" horiz-adv-x="481" 
d="M504 506l-326 -556c-63 -107 -114 -143 -189 -143c-26 0 -57 7 -69 10l16 46c15 -6 40 -9 62 -9c40 0 87 30 127 101l46 81l-111 470h59l92 -413l234 413h59zM432 590h-45l-74 129l-127 -129h-44l146 176h71z" />
    <glyph glyph-name="ygrave" unicode="&#x1ef3;" horiz-adv-x="481" 
d="M504 506l-326 -556c-63 -107 -114 -143 -189 -143c-26 0 -57 7 -69 10l16 46c15 -6 40 -9 62 -9c40 0 87 30 127 101l46 81l-111 470h59l92 -413l234 413h59zM319 590h-45l-113 176h79z" />
    <glyph glyph-name="zacute" unicode="&#x17a;" horiz-adv-x="430" 
d="M418 -38l-10 -47h-35c-112 0 -110 85 -267 85h-118l11 52l372 409h-298l10 45h357l-10 -49l-368 -406h44c181 0 182 -89 284 -89h28zM425 766l-183 -176h-45l149 176h79z" />
    <glyph glyph-name="zdotaccent" unicode="&#x17c;" horiz-adv-x="430" 
d="M418 -38l-10 -47h-35c-112 0 -110 85 -267 85h-118l11 52l372 409h-298l10 45h357l-10 -49l-368 -406h44c181 0 182 -89 284 -89h28zM314 654c0 -36 -18 -53 -49 -53c-24 0 -37 9 -37 35c0 35 17 52 49 52c26 0 37 -10 37 -34z" />
    <glyph glyph-name="kgreenlandic" unicode="&#x138;" horiz-adv-x="484" 
d="M426 37l8 -45c-17 -4 -35 -7 -49 -7c-33 0 -47 15 -72 68l-97 209l-100 -95l-34 -167h-51l101 500h51l-54 -262l283 268h67l-223 -209l107 -226c15 -31 24 -37 37 -37c7 0 17 1 26 3z" />
    <glyph glyph-name="napostrophe" unicode="&#x149;" horiz-adv-x="564" 
d="M508 407c0 -18 -4 -49 -9 -75l-67 -332h-51l69 341c3 15 7 41 7 52c0 49 -27 79 -91 79c-66 0 -159 -59 -208 -99l-76 -373h-51l103 506h51l-16 -78c44 36 125 93 206 93c86 0 133 -47 133 -114zM145 686c0 -54 -43 -133 -88 -186h-38c31 37 64 91 70 142
c-18 0 -36 10 -36 34c0 32 17 51 52 51c31 0 40 -19 40 -41z" />
    <glyph glyph-name="Delta" unicode="&#x2206;" horiz-adv-x="640" 
d="M612 0h-580v33l258 667h65l257 -667v-33zM542 51c-68 177 -136 355 -203 532l-19 54l-16 -53l-204 -533h442z" />
    <glyph glyph-name="uni03A9" unicode="&#x3a9;" horiz-adv-x="735" 
d="M683 0h-229v50c65 52 169 149 169 327c0 159 -88 284 -255 284c-152 0 -259 -117 -259 -283c0 -174 99 -272 171 -328v-50h-230v50h164c-68 52 -165 156 -165 333c0 189 131 329 320 329c199 0 313 -136 313 -327c0 -162 -90 -278 -165 -335h166v-50z" />
    <glyph glyph-name="uni03BC" unicode="&#x3bc;" horiz-adv-x="568" 
d="M451 0h-51l13 65c-58 -58 -115 -80 -166 -80c-53 0 -93 12 -135 55l-48 -233h-51l143 699h51l-82 -400c34 -46 78 -66 131 -66c50 0 111 29 168 80l79 386h51z" />
    <glyph glyph-name="pi" unicode="&#x3c0;" horiz-adv-x="694" 
d="M620 49l13 -43c-14 -8 -37 -12 -59 -12c-78 0 -113 52 -113 125v333h-228v-323c0 -52 -6 -97 -14 -129h-60c11 37 15 87 15 131v321c-32 -1 -81 -11 -110 -23l-18 44c28 13 80 27 141 27h446v-48h-114v-329c0 -50 20 -81 68 -81c10 0 23 3 33 7z" />
    <glyph glyph-name="Euro" unicode="&#x20ac;" horiz-adv-x="604" 
d="M18 403l22 39h45c48 184 176 300 332 300c109 0 183 -41 219 -122l-50 -22c-20 40 -64 95 -161 95c-143 0 -241 -101 -283 -251h352l-22 -39h-339c-5 -24 -8 -49 -10 -75h315l-22 -39h-296v-23c0 -136 57 -232 198 -232c65 0 120 29 160 61l27 -42
c-48 -38 -113 -68 -190 -68c-176 0 -252 112 -252 278v26h-68l22 39h48c2 26 6 51 11 75h-58z" />
    <glyph glyph-name="litre" unicode="&#x2113;" horiz-adv-x="512" 
d="M392 91l27 -33c-24 -28 -70 -70 -134 -70c-35 0 -61 11 -79 31c-23 24 -34 63 -34 112v127l-64 -69l-31 32l95 104v238c0 109 43 165 113 165s92 -60 92 -100c0 -117 -75 -223 -149 -309v-193c0 -63 28 -91 68 -91s73 31 96 56zM326 620c0 33 -12 60 -40 60
c-37 0 -58 -34 -58 -120v-170c8 9 19 25 25 34c44 67 73 137 73 196z" />
    <glyph glyph-name="Omega" unicode="&#x2126;" horiz-adv-x="735" 
d="M683 0h-229v50c65 52 169 149 169 327c0 159 -88 284 -255 284c-152 0 -259 -117 -259 -283c0 -174 99 -272 171 -328v-50h-230v50h164c-68 52 -165 156 -165 333c0 189 131 329 320 329c199 0 313 -136 313 -327c0 -162 -90 -278 -165 -335h166v-50z" />
    <glyph glyph-name="estimated" unicode="&#x212e;" horiz-adv-x="676" 
d="M639 305h-470v-210c45 -45 101 -69 167 -69c111 0 175 57 226 139c13 -7 25 -15 37 -22c-61 -93 -133 -155 -263 -155c-181 0 -297 143 -297 318c0 176 113 318 299 318c188 0 298 -143 301 -319zM506 344v172c-43 42 -104 70 -169 70s-124 -23 -168 -69v-173h337z" />
    <glyph glyph-name="partialdiff" unicode="&#x2202;" horiz-adv-x="601" 
d="M542 489c0 -60 -9 -126 -26 -192c-38 -145 -131 -308 -284 -308c-104 0 -176 74 -176 188c0 197 142 323 274 323c79 0 128 -41 148 -82h2c3 21 5 44 5 74c0 120 -56 185 -153 185c-33 0 -73 -10 -102 -28l-18 43c24 15 75 34 128 34c119 0 202 -82 202 -237zM470 353
c-15 53 -60 99 -138 99c-114 0 -217 -118 -217 -276c0 -83 47 -138 119 -138c107 0 197 123 236 315z" />
    <glyph glyph-name="product" unicode="&#x220f;" horiz-adv-x="751" 
d="M657 -230h-58v879h-446v-879h-59v930h563v-930z" />
    <glyph glyph-name="summation" unicode="&#x2211;" horiz-adv-x="658" 
d="M628 -230h-607v24c122 149 243 296 364 445l-338 431v30h554v-50h-471l323 -410l-344 -420h519v-50z" />
    <glyph glyph-name="uni2219" unicode="&#x2219;" horiz-adv-x="228" 
d="M161 296c0 -32 -14 -52 -54 -52c-22 0 -39 9 -39 30c0 34 16 52 54 52c21 0 39 -8 39 -30z" />
    <glyph glyph-name="radical" unicode="&#x221a;" horiz-adv-x="547" 
d="M545 729l-212 -741h-48c-52 118 -102 237 -154 355l-56 -33l-20 38l104 61c50 -113 99 -227 148 -340l188 660h50z" />
    <glyph glyph-name="infinity" unicode="&#x221e;" horiz-adv-x="821" 
d="M765 294c0 -86 -58 -163 -162 -163c-85 0 -152 55 -193 120h-2c-46 -69 -113 -120 -189 -120c-105 0 -165 70 -165 159c0 93 60 163 162 163c90 0 152 -58 193 -119h2c35 53 100 119 188 119c97 0 166 -62 166 -159zM712 293c0 61 -34 113 -112 113
c-71 0 -122 -49 -165 -114c43 -72 103 -114 164 -114c80 0 113 55 113 115zM384 292c-41 69 -106 114 -165 114c-78 0 -111 -54 -111 -116c0 -66 47 -112 110 -112c68 0 125 52 166 114z" />
    <glyph glyph-name="integral" unicode="&#x222b;" horiz-adv-x="509" 
d="M438 736l-14 -47c-10 5 -30 11 -49 11c-63 0 -93 -41 -93 -108v-662c0 -103 -59 -158 -146 -158c-22 0 -54 5 -68 12c5 15 9 31 13 46c13 -5 30 -9 51 -9c62 0 92 38 92 107v664c0 97 55 156 147 156c25 0 55 -6 67 -12z" />
    <glyph glyph-name="approxequal" unicode="&#x2248;" 
d="M579 174c-40 -35 -78 -55 -133 -55c-83 0 -176 82 -237 82s-102 -27 -143 -69v52c37 34 82 56 133 56c84 0 173 -83 241 -83c57 0 102 28 139 69v-52zM579 390c-40 -35 -78 -55 -133 -55c-83 0 -176 82 -237 82s-102 -27 -143 -69v52c37 34 82 56 133 56
c84 0 173 -83 241 -83c57 0 102 28 139 69v-52z" />
    <glyph glyph-name="notequal" unicode="&#x2260;" 
d="M584 154h-297l-63 -131h-46l63 131h-170v41h190l87 181h-277v41h297l68 141h46l-68 -141h170v-41h-190l-87 -181h277v-41z" />
    <glyph glyph-name="lessequal" unicode="&#x2264;" 
d="M584 86l-513 194v29l513 194v-47l-446 -162l446 -161v-47zM584 0h-513v41h513v-41z" />
    <glyph glyph-name="greaterequal" unicode="&#x2265;" 
d="M585 0h-513v41h513v-41zM585 280l-513 -194v47l446 161l-446 162v47l513 -194v-29z" />
    <glyph glyph-name="lozenge" unicode="&#x25ca;" horiz-adv-x="587" 
d="M308 700l220 -350l-220 -350h-33c-73 116 -147 233 -219 349c72 117 146 234 219 351h33zM291 64l180 286c-59 95 -120 190 -179 285l-180 -285z" />
    <glyph glyph-name="uni00A0" unicode="&#xa0;" horiz-adv-x="240" 
 />
    <glyph glyph-name="uni00AD" unicode="&#xad;" horiz-adv-x="368" 
d="M326 225h-296l11 58h296z" />
    <glyph glyph-name="uni02C9" unicode="&#x2c9;" horiz-adv-x="500" 
d="M388 648h-288l11 57h288z" />
    <glyph glyph-name="h.superior" unicode="&#xf700;" horiz-adv-x="449" 
d="M404 603c0 -14 -3 -38 -7 -57l-51 -251h-42l52 259c2 11 5 30 5 38c0 35 -21 56 -71 56c-53 0 -127 -44 -164 -71l-58 -282h-43l113 550h43l-46 -222c36 27 99 68 161 68c69 0 108 -36 108 -88z" />
    <glyph glyph-name="zero.fitted" unicode="&#xe097;" horiz-adv-x="587" 
d="M567 526c0 -154 -60 -371 -143 -462c-45 -49 -107 -79 -192 -79c-137 0 -202 82 -202 210c0 138 54 418 186 506c40 27 89 41 149 41c144 0 202 -88 202 -216zM386 98c77 81 126 294 126 421c0 99 -34 174 -155 174c-39 0 -72 -9 -101 -26c-124 -72 -171 -338 -171 -472
c0 -105 55 -161 156 -161c59 0 107 24 145 64z" />
    <glyph glyph-name="one.fitted" unicode="&#xf6dc;" horiz-adv-x="430" 
d="M309 0h-309l9 42h138l121 597c-39 -25 -103 -53 -164 -64l8 41c81 24 148 61 203 126h28l-143 -700h118z" />
    <glyph glyph-name="two.fitted" unicode="&#xe098;" horiz-adv-x="555" 
d="M431 0h-450l12 58c83 66 171 139 246 203c140 119 222 189 222 297c0 71 -48 133 -142 133c-79 0 -138 -37 -190 -98l-35 37c23 30 96 112 235 112c123 0 194 -80 194 -177c0 -83 -38 -160 -130 -241c-96 -84 -225 -193 -329 -275h378z" />
    <glyph glyph-name="three.fitted" unicode="&#xe099;" horiz-adv-x="535" 
d="M454 247c0 -166 -107 -262 -279 -262c-95 0 -178 40 -209 99l49 30c40 -67 106 -80 165 -80c132 0 219 68 219 209c0 91 -69 140 -169 140c-20 0 -49 -2 -70 -5l3 17l294 283h-342l10 49h400l-12 -59l-250 -242c123 -4 191 -79 191 -179z" />
    <glyph glyph-name="four.fitted" unicode="&#xe09a;" horiz-adv-x="546" 
d="M462 187h-86l-43 -202h-53l43 202h-338l9 47l440 508h54l-103 -508h86zM332 234l87 429l-368 -429h281z" />
    <glyph glyph-name="five.fitted" unicode="&#xe09b;" horiz-adv-x="533" 
d="M468 252c0 -167 -100 -267 -280 -267c-113 0 -183 52 -208 99l49 30c32 -54 86 -80 163 -80c134 0 221 65 221 218c0 83 -55 140 -163 140c-58 0 -116 -21 -156 -48h-21l113 383h344l-11 -49h-302l-74 -266c39 19 90 27 135 27c108 0 190 -67 190 -187z" />
    <glyph glyph-name="six.fitted" unicode="&#xe09c;" horiz-adv-x="579" 
d="M532 264c0 -154 -89 -279 -268 -279c-139 0 -221 107 -221 256c0 196 130 501 374 501c79 0 132 -32 165 -66l-39 -37c-30 28 -69 54 -134 54c-153 0 -252 -158 -288 -313c51 37 119 76 221 76c114 0 190 -80 190 -192zM276 34c126 0 201 86 201 223
c0 83 -49 150 -160 150c-75 0 -153 -37 -210 -78c-6 -29 -9 -60 -9 -91c0 -102 45 -204 178 -204z" />
    <glyph glyph-name="seven.fitted" unicode="&#xe09d;" horiz-adv-x="507" 
d="M554 668l-420 -683h-60l427 693h-335l-22 -108h-49l32 157h439z" />
    <glyph glyph-name="eight.fitted" unicode="&#xe09e;" horiz-adv-x="607" 
d="M521 212c0 -150 -125 -227 -276 -227c-137 0 -215 73 -215 169c0 128 97 196 220 235c-35 17 -123 65 -123 153c0 130 110 200 247 200c127 0 203 -61 203 -159c0 -110 -88 -157 -194 -198c74 -33 138 -86 138 -173zM182 551c0 -43 25 -92 139 -144c78 23 201 72 201 172
c0 69 -59 114 -153 114c-91 0 -187 -42 -187 -142zM246 34c103 0 220 47 220 168c0 84 -82 132 -153 164c-99 -33 -228 -77 -228 -204c0 -72 57 -128 161 -128z" />
    <glyph glyph-name="nine.fitted" unicode="&#xe09f;" horiz-adv-x="579" 
d="M56 463c0 154 89 279 268 279c139 0 221 -107 221 -256c0 -196 -130 -501 -374 -501c-79 0 -132 32 -165 66l39 37c30 -28 69 -54 134 -54c153 0 252 158 288 313c-51 -37 -119 -76 -221 -76c-114 0 -190 80 -190 192zM312 693c-126 0 -201 -86 -201 -223
c0 -83 49 -150 160 -150c75 0 153 37 210 78c6 29 9 60 9 91c0 102 -45 204 -178 204z" />
    <glyph glyph-name="zero.taboldstyle" unicode="&#xe100;" horiz-adv-x="588" 
d="M246 -15c-124 0 -206 73 -206 204c0 181 74 396 302 396c124 0 206 -75 206 -204c0 -181 -74 -396 -302 -396zM254 34c178 0 239 174 239 342c0 100 -53 160 -159 160c-178 0 -239 -174 -239 -342c0 -103 53 -160 159 -160z" />
    <glyph glyph-name="one.taboldstyle" unicode="&#xe101;" horiz-adv-x="588" 
d="M429 0h-309l9 42h138l89 440c-39 -25 -103 -53 -164 -64l8 41c81 24 148 61 203 126h28l-111 -543h118z" />
    <glyph glyph-name="two.taboldstyle" unicode="&#xe102;" horiz-adv-x="588" 
d="M482 0h-448l11 53c101 67 183 121 249 166c131 90 194 148 194 221c0 64 -55 96 -127 96s-142 -27 -192 -78l-36 36c38 38 109 91 232 91c103 0 182 -48 182 -140c0 -76 -52 -139 -121 -192c-89 -69 -196 -136 -301 -204h366z" />
    <glyph glyph-name="three.taboldstyle" unicode="&#xe103;" horiz-adv-x="588" 
d="M504 96c0 -166 -107 -262 -279 -262c-95 0 -178 40 -209 99l49 30c40 -67 106 -80 165 -80c132 0 219 68 219 209c0 91 -69 140 -169 140c-20 0 -49 -2 -70 -5l3 17l294 277h-342l10 49h400l-12 -59l-250 -236c123 -4 191 -79 191 -179z" />
    <glyph glyph-name="four.taboldstyle" unicode="&#xe104;" horiz-adv-x="588" 
d="M512 30h-86l-41 -196h-53l41 196h-338l9 47l440 508h54l-103 -508h86zM382 77l87 429l-368 -429h281z" />
    <glyph glyph-name="five.taboldstyle" unicode="&#xe105;" horiz-adv-x="588" 
d="M503 101c0 -167 -100 -267 -280 -267c-113 0 -183 52 -208 99l49 30c32 -54 86 -80 163 -80c134 0 221 65 221 218c0 83 -55 140 -163 140c-58 0 -116 -21 -156 -48h-21l111 377h344l-11 -49h-302l-72 -260c39 19 90 27 135 27c108 0 190 -67 190 -187z" />
    <glyph glyph-name="six.taboldstyle" unicode="&#xe106;" horiz-adv-x="588" 
d="M532 264c0 -154 -89 -279 -268 -279c-139 0 -221 107 -221 256c0 196 130 501 374 501c79 0 132 -32 165 -66l-39 -37c-30 28 -69 54 -134 54c-153 0 -252 -158 -288 -313c51 37 119 76 221 76c114 0 190 -80 190 -192zM276 34c126 0 201 86 201 223
c0 83 -49 150 -160 150c-75 0 -153 -37 -210 -78c-6 -29 -9 -60 -9 -91c0 -102 45 -204 178 -204z" />
    <glyph glyph-name="seven.taboldstyle" unicode="&#xe107;" horiz-adv-x="588" 
d="M539 511l-416 -677h-60l423 687h-335l-22 -108h-49l32 157h439z" />
    <glyph glyph-name="eight.taboldstyle" unicode="&#xe108;" horiz-adv-x="588" 
d="M512 212c0 -150 -125 -227 -276 -227c-137 0 -215 73 -215 169c0 128 97 196 220 235c-35 17 -123 65 -123 153c0 130 110 200 247 200c127 0 203 -61 203 -159c0 -110 -88 -157 -194 -198c74 -33 138 -86 138 -173zM173 551c0 -43 25 -92 139 -144c78 23 201 72 201 172
c0 69 -59 114 -153 114c-91 0 -187 -42 -187 -142zM237 34c103 0 220 47 220 168c0 84 -82 132 -153 164c-99 -33 -228 -77 -228 -204c0 -72 57 -128 161 -128z" />
    <glyph glyph-name="nine.taboldstyle" unicode="&#xe109;" horiz-adv-x="588" 
d="M71 306c0 154 89 279 268 279c139 0 221 -107 221 -256c0 -196 -129 -495 -373 -495c-78 0 -137 36 -166 66l39 37c24 -25 69 -55 134 -55c153 0 252 153 288 308c-51 -37 -119 -76 -221 -76c-114 0 -190 80 -190 192zM327 536c-126 0 -201 -86 -201 -223
c0 -83 49 -150 160 -150c75 0 153 37 210 78c6 29 9 60 9 91c0 102 -45 204 -178 204z" />
    <glyph glyph-name="zero.denominator" unicode="&#xe10a;" horiz-adv-x="428" 
d="M403 137c0 -126 -49 -301 -227 -301c-105 0 -152 75 -152 159c0 133 48 299 221 299c106 0 158 -72 158 -157zM185 -119c122 0 169 133 169 251c0 69 -38 117 -113 117c-124 0 -167 -120 -167 -243c0 -72 31 -125 111 -125z" />
    <glyph glyph-name="one.denominator" unicode="&#xe10b;" horiz-adv-x="316" 
d="M244 -155h-242l8 38h107l64 315c-35 -19 -80 -35 -127 -43l7 37c64 19 116 53 160 102h24l-83 -411h90z" />
    <glyph glyph-name="two.denominator" unicode="&#xe10c;" horiz-adv-x="408" 
d="M331 -155h-350l9 45c55 35 116 73 170 112c97 69 170 112 170 176c0 51 -39 71 -101 71c-50 0 -102 -21 -143 -60l-32 28c37 38 92 77 184 77c80 0 145 -32 145 -107c0 -77 -76 -131 -147 -181c-62 -44 -97 -68 -171 -116h275z" />
    <glyph glyph-name="three.denominator" unicode="&#xe10d;" horiz-adv-x="395" 
d="M353 -2c0 -106 -94 -162 -202 -162c-62 0 -127 25 -150 72l45 26c23 -40 65 -52 111 -52c72 0 144 27 144 113c0 52 -50 72 -112 72c-19 0 -39 -2 -65 -7l4 19l201 164h-234l8 42h293l-8 -43l-168 -136c77 -2 133 -43 133 -108z" />
    <glyph glyph-name="four.denominator" unicode="&#xe10e;" horiz-adv-x="399" 
d="M352 -43h-69l-25 -124h-45l25 124h-234l6 31l313 306h28l-60 -295h69zM246 -1l42 206l-212 -206h170z" />
    <glyph glyph-name="five.denominator" unicode="&#xe10f;" horiz-adv-x="394" 
d="M352 5c0 -115 -96 -169 -210 -169c-89 0 -143 37 -159 68l50 23c15 -27 54 -46 109 -46c76 0 161 27 161 117c0 57 -52 75 -114 75c-37 0 -86 -10 -123 -29h-19l86 241h252l-9 -45h-216l-51 -141c34 13 71 17 101 17c84 0 142 -40 142 -111z" />
    <glyph glyph-name="six.denominator" unicode="&#xe110;" horiz-adv-x="425" 
d="M381 14c0 -118 -86 -178 -201 -178c-101 0 -157 45 -157 150c0 139 79 308 255 308c58 0 108 -16 138 -41l-41 -36c-21 19 -59 32 -106 32c-100 0 -164 -89 -180 -165c41 21 100 42 159 42c82 0 133 -38 133 -112zM190 -119c75 0 141 39 141 124c0 49 -37 76 -102 76
c-54 0 -112 -22 -151 -42c-3 -18 -6 -36 -6 -55c0 -62 29 -103 118 -103z" />
    <glyph glyph-name="seven.denominator" unicode="&#xe111;" horiz-adv-x="378" 
d="M392 241l-287 -405h-54l287 404h-224l-15 -62h-44l22 107h324z" />
    <glyph glyph-name="eight.denominator" unicode="&#xe112;" horiz-adv-x="424" 
d="M369 -27c0 -94 -91 -137 -191 -137c-109 0 -166 41 -166 103c0 75 63 119 138 141c-48 22 -79 46 -79 94c0 88 90 120 177 120c95 0 154 -35 154 -95c0 -62 -51 -100 -122 -122c48 -19 89 -54 89 -104zM219 97c44 10 134 34 134 94c0 39 -42 63 -106 63
c-49 0 -128 -11 -128 -77c0 -27 22 -57 100 -80zM179 -120c53 0 140 15 140 89c0 47 -53 76 -108 93c-52 -11 -150 -43 -150 -117c0 -41 43 -65 118 -65z" />
    <glyph glyph-name="nine.denominator" unicode="&#xe113;" horiz-adv-x="424" 
d="M400 134c0 -131 -85 -298 -257 -298c-58 0 -101 15 -136 43l37 38c25 -23 57 -36 103 -36c104 0 160 74 186 162c-32 -20 -91 -43 -150 -43c-82 0 -141 44 -141 118c0 110 80 176 195 176c93 0 163 -44 163 -160zM199 44c54 0 101 14 146 43c4 17 5 34 5 54
c0 54 -31 108 -120 108c-75 0 -138 -42 -138 -127c0 -54 42 -78 107 -78z" />
    <glyph glyph-name="zero.numerator" unicode="&#xe11e;" horiz-adv-x="428" 
d="M403 585c0 -126 -49 -301 -227 -301c-105 0 -152 75 -152 159c0 133 48 299 221 299c106 0 158 -72 158 -157zM185 329c122 0 169 133 169 251c0 69 -38 117 -113 117c-124 0 -167 -120 -167 -243c0 -72 31 -125 111 -125z" />
    <glyph glyph-name="one.numerator" unicode="&#xe11f;" horiz-adv-x="316" 
d="M244 293h-242l8 38h107l64 315c-35 -19 -80 -35 -127 -43l7 37c64 19 116 53 160 102h24l-83 -411h90z" />
    <glyph glyph-name="two.numerator" unicode="&#xe120;" horiz-adv-x="408" 
d="M331 293h-350l9 45c55 35 116 73 170 112c97 69 170 112 170 176c0 51 -39 71 -101 71c-50 0 -102 -21 -143 -60l-32 28c37 38 92 77 184 77c80 0 145 -32 145 -107c0 -77 -76 -131 -147 -181c-62 -44 -97 -68 -171 -116h275z" />
    <glyph glyph-name="three.numerator" unicode="&#xe121;" horiz-adv-x="395" 
d="M353 446c0 -106 -94 -162 -202 -162c-62 0 -127 25 -150 72l45 26c23 -40 65 -52 111 -52c72 0 144 27 144 113c0 52 -50 72 -112 72c-19 0 -39 -2 -65 -7l4 19l201 164h-234l8 42h293l-8 -43l-168 -136c77 -2 133 -43 133 -108z" />
    <glyph glyph-name="four.numerator" unicode="&#xe122;" horiz-adv-x="399" 
d="M352 405h-69l-25 -124h-45l25 124h-234l6 31l313 306h28l-60 -295h69zM246 447l42 206l-212 -206h170z" />
    <glyph glyph-name="five.numerator" unicode="&#xe123;" horiz-adv-x="394" 
d="M352 453c0 -115 -96 -169 -210 -169c-89 0 -143 37 -159 68l50 23c15 -27 54 -46 109 -46c76 0 161 27 161 117c0 57 -52 75 -114 75c-37 0 -86 -10 -123 -29h-19l86 241h252l-9 -45h-216l-51 -141c34 13 71 17 101 17c84 0 142 -40 142 -111z" />
    <glyph glyph-name="six.numerator" unicode="&#xe124;" horiz-adv-x="425" 
d="M381 462c0 -118 -86 -178 -201 -178c-101 0 -157 45 -157 150c0 139 79 308 255 308c58 0 108 -16 138 -41l-41 -36c-21 19 -59 32 -106 32c-100 0 -164 -89 -180 -165c41 21 100 42 159 42c82 0 133 -38 133 -112zM190 329c75 0 141 39 141 124c0 49 -37 76 -102 76
c-54 0 -112 -22 -151 -42c-3 -18 -6 -36 -6 -55c0 -62 29 -103 118 -103z" />
    <glyph glyph-name="seven.numerator" unicode="&#xe125;" horiz-adv-x="378" 
d="M392 689l-287 -405h-54l287 404h-224l-15 -62h-44l22 107h324z" />
    <glyph glyph-name="eight.numerator" unicode="&#xe126;" horiz-adv-x="424" 
d="M369 421c0 -94 -91 -137 -191 -137c-109 0 -166 41 -166 103c0 75 63 119 138 141c-48 22 -79 46 -79 94c0 88 90 120 177 120c95 0 154 -35 154 -95c0 -62 -51 -100 -122 -122c48 -19 89 -54 89 -104zM219 545c44 10 134 34 134 94c0 39 -42 63 -106 63
c-49 0 -128 -11 -128 -77c0 -27 22 -57 100 -80zM179 328c53 0 140 15 140 89c0 47 -53 76 -108 93c-52 -11 -150 -43 -150 -117c0 -41 43 -65 118 -65z" />
    <glyph glyph-name="nine.numerator" unicode="&#xe127;" horiz-adv-x="424" 
d="M400 582c0 -131 -85 -298 -257 -298c-58 0 -101 15 -136 43l37 38c25 -23 57 -36 103 -36c104 0 160 74 186 162c-32 -20 -91 -43 -150 -43c-82 0 -141 44 -141 118c0 110 80 176 195 176c93 0 163 -44 163 -160zM199 492c54 0 101 14 146 43c4 17 5 34 5 54
c0 54 -31 108 -120 108c-75 0 -138 -42 -138 -127c0 -54 42 -78 107 -78z" />
    <glyph glyph-name="I.alt" horiz-adv-x="235" 
d="M89 0h-52l148 727h52z" />
    <glyph glyph-name="J.alt" horiz-adv-x="260" 
d="M108 -10c-23 -112 -65 -183 -195 -183c-34 0 -85 13 -112 27l28 42c20 -11 59 -23 90 -23c101 0 119 50 144 171l144 703h52z" />
    <glyph glyph-name="g.alt" horiz-adv-x="556" 
d="M523 513l-104 -510c-26 -129 -94 -196 -242 -196c-66 0 -128 15 -154 32l21 50c39 -22 82 -33 130 -33c118 0 172 39 194 146l22 105c-61 -73 -119 -107 -191 -107c-109 0 -158 77 -158 180c0 159 94 341 276 341c56 0 110 -16 151 -32l44 24h11zM407 189l51 253
c-33 14 -92 31 -145 31c-141 0 -217 -159 -217 -293c0 -76 30 -133 112 -133c54 0 123 32 199 142z" />
    <glyph glyph-name="i.alt" horiz-adv-x="217" 
d="M81 0h-51l102 500h51zM218 651c0 -34 -17 -50 -48 -50c-24 0 -36 9 -36 32c0 33 16 49 48 49c25 0 36 -10 36 -31z" />
    <glyph glyph-name="j.alt" horiz-adv-x="227" 
d="M231 651c0 -34 -17 -50 -48 -50c-24 0 -36 9 -36 32c0 33 16 49 48 49c25 0 36 -10 36 -31zM83 -36c-21 -105 -69 -157 -168 -157c-33 0 -64 9 -84 17l18 42c21 -9 47 -16 75 -16c69 0 95 45 113 132l105 518h51z" />
    <glyph glyph-name="l.alt" horiz-adv-x="219" 
d="M80 0h-50l144 710l57 32z" />
    <glyph glyph-name="Iacute.alt" horiz-adv-x="235" 
d="M89 0h-52l148 727h52zM423 956l-183 -176h-45l149 176h79z" />
    <glyph glyph-name="Icircumflex.alt" horiz-adv-x="235" 
d="M89 0h-52l148 727h52zM368 780h-45l-74 129l-127 -129h-44l146 176h71z" />
    <glyph glyph-name="Idieresis.alt" horiz-adv-x="235" 
d="M89 0h-52l148 727h52zM351 830c0 -34 -17 -50 -48 -50c-24 0 -36 9 -36 32c0 33 16 49 48 49c25 0 36 -10 36 -31zM179 830c0 -34 -17 -50 -48 -50c-24 0 -36 9 -36 32c0 33 16 49 48 49c25 0 36 -10 36 -31z" />
    <glyph glyph-name="Igrave.alt" horiz-adv-x="235" 
d="M89 0h-52l148 727h52zM233 780h-45l-113 176h79z" />
    <glyph glyph-name="dotlessi.alt" horiz-adv-x="217" 
d="M81 0h-51l102 500h51z" />
    <glyph glyph-name="iacute.alt" horiz-adv-x="217" 
d="M81 0h-51l102 500h51zM372 766l-183 -176h-45l149 176h79z" />
    <glyph glyph-name="icircumflex.alt" horiz-adv-x="217" 
d="M81 0h-51l102 500h51zM328 590h-45l-74 129l-127 -129h-44l146 176h71z" />
    <glyph glyph-name="idieresis.alt" horiz-adv-x="217" 
d="M81 0h-51l102 500h51zM315 651c0 -34 -17 -50 -48 -50c-24 0 -36 9 -36 32c0 33 16 49 48 49c25 0 36 -10 36 -31zM143 651c0 -34 -17 -50 -48 -50c-24 0 -36 9 -36 32c0 33 16 49 48 49c25 0 36 -10 36 -31z" />
    <glyph glyph-name="igrave.alt" horiz-adv-x="217" 
d="M81 0h-51l102 500h51zM189 590h-45l-113 176h79z" />
    <glyph glyph-name="lslash.alt" horiz-adv-x="219" 
d="M80 0h-50l62 307l-96 -76l9 55l99 78l70 346l57 32l-67 -331l90 72l-9 -55l-93 -74z" />
    <glyph glyph-name="f_l.alt" horiz-adv-x="527" 
d="M388 0h-50l135 666c-21 10 -63 30 -116 30c-78 0 -98 -51 -114 -130l-12 -60h130l-10 -44h-130l-97 -479c-29 -142 -85 -176 -180 -176c-30 0 -63 8 -84 17l16 45c21 -9 44 -16 83 -16c78 0 98 51 114 130l97 479h-97l10 44h97l12 60c29 142 85 176 180 176
c52 0 98 -18 118 -27l49 27z" />
    <glyph glyph-name="zero.tab" horiz-adv-x="588" 
d="M562 526c0 -154 -60 -371 -143 -462c-45 -49 -107 -79 -192 -79c-137 0 -202 82 -202 210c0 138 54 418 186 506c40 27 89 41 149 41c144 0 202 -88 202 -216zM381 98c77 81 126 294 126 421c0 99 -34 174 -155 174c-39 0 -72 -9 -101 -26c-124 -72 -171 -338 -171 -472
c0 -105 55 -161 156 -161c59 0 107 24 145 64z" />
    <glyph glyph-name="one.tab" horiz-adv-x="588" 
d="M404 0h-309l9 42h138l121 597c-39 -25 -103 -53 -164 -64l8 41c81 24 148 61 203 126h28l-143 -700h118z" />
    <glyph glyph-name="two.tab" horiz-adv-x="588" 
d="M474 0h-450l12 58c83 66 171 139 246 203c140 119 222 189 222 297c0 71 -48 133 -142 133c-79 0 -138 -37 -190 -98l-35 37c23 30 96 112 235 112c123 0 194 -80 194 -177c0 -83 -38 -160 -130 -241c-96 -84 -225 -193 -329 -275h378z" />
    <glyph glyph-name="three.tab" horiz-adv-x="588" 
d="M489 247c0 -166 -107 -262 -279 -262c-95 0 -178 40 -209 99l49 30c40 -67 106 -80 165 -80c132 0 219 68 219 209c0 91 -69 140 -169 140c-20 0 -49 -2 -70 -5l3 17l294 283h-342l10 49h400l-12 -59l-250 -242c123 -4 191 -79 191 -179z" />
    <glyph glyph-name="four.tab" horiz-adv-x="588" 
d="M512 187h-86l-43 -202h-53l43 202h-338l9 47l440 508h54l-103 -508h86zM382 234l87 429l-368 -429h281z" />
    <glyph glyph-name="five.tab" horiz-adv-x="588" 
d="M508 252c0 -167 -100 -267 -280 -267c-113 0 -183 52 -208 99l49 30c32 -54 86 -80 163 -80c134 0 221 65 221 218c0 83 -55 140 -163 140c-58 0 -116 -21 -156 -48h-21l113 383h344l-11 -49h-302l-74 -266c39 19 90 27 135 27c108 0 190 -67 190 -187z" />
    <glyph glyph-name="seven.tab" horiz-adv-x="588" 
d="M569 668l-420 -683h-60l427 693h-335l-22 -108h-49l32 157h439z" />
    <glyph glyph-name="six.tab" horiz-adv-x="588" 
d="M532 264c0 -154 -89 -279 -268 -279c-139 0 -221 107 -221 256c0 196 130 501 374 501c79 0 132 -32 165 -66l-39 -37c-30 28 -69 54 -134 54c-153 0 -252 -158 -288 -313c51 37 119 76 221 76c114 0 190 -80 190 -192zM276 34c126 0 201 86 201 223
c0 83 -49 150 -160 150c-75 0 -153 -37 -210 -78c-6 -29 -9 -60 -9 -91c0 -102 45 -204 178 -204z" />
    <glyph glyph-name="eight.tab" horiz-adv-x="588" 
d="M512 212c0 -150 -125 -227 -276 -227c-137 0 -215 73 -215 169c0 128 97 196 220 235c-35 17 -123 65 -123 153c0 130 110 200 247 200c127 0 203 -61 203 -159c0 -110 -88 -157 -194 -198c74 -33 138 -86 138 -173zM173 551c0 -43 25 -92 139 -144c78 23 201 72 201 172
c0 69 -59 114 -153 114c-91 0 -187 -42 -187 -142zM237 34c103 0 220 47 220 168c0 84 -82 132 -153 164c-99 -33 -228 -77 -228 -204c0 -72 57 -128 161 -128z" />
    <glyph glyph-name="nine.tab" horiz-adv-x="588" 
d="M71 463c0 154 89 279 268 279c139 0 221 -107 221 -256c0 -196 -130 -501 -374 -501c-79 0 -132 32 -165 66l39 37c30 -28 69 -54 134 -54c153 0 252 158 288 313c-51 -37 -119 -76 -221 -76c-114 0 -190 80 -190 192zM327 693c-126 0 -201 -86 -201 -223
c0 -83 49 -150 160 -150c75 0 153 37 210 78c6 29 9 60 9 91c0 102 -45 204 -178 204z" />
    <glyph glyph-name="uni2215" unicode="&#x2215;" horiz-adv-x="100" 
d="M361 727l-569 -878h-53l569 878h53z" />
    <glyph glyph-name="IJ.alt" horiz-adv-x="618" 
d="M89 0h-52l148 727h52zM581 -10c-23 -112 -65 -183 -195 -183c-34 0 -85 13 -112 27l28 42c20 -11 59 -23 90 -23c101 0 119 50 144 171l144 703h52z" />
    <glyph glyph-name="Ibreve.alt" horiz-adv-x="235" 
d="M89 0h-52l148 727h52zM386 918c-32 -65 -82 -138 -173 -138c-93 0 -113 89 -115 138h41c12 -48 31 -79 86 -79c53 0 85 27 119 79h42z" />
    <glyph glyph-name="Idotaccent.alt" horiz-adv-x="235" 
d="M89 0h-52l148 727h52zM271 833c0 -36 -18 -53 -49 -53c-24 0 -37 9 -37 35c0 35 17 52 49 52c26 0 37 -10 37 -34z" />
    <glyph glyph-name="Imacron.alt" horiz-adv-x="235" 
d="M89 0h-52l148 727h52zM361 780h-288l11 57h288z" />
    <glyph glyph-name="Iogonek.alt" horiz-adv-x="235" 
d="M191 -161c-26 -15 -70 -32 -116 -32c-60 0 -87 32 -87 77s23 93 53 136l144 707h52l-148 -727h-15c-18 -29 -34 -64 -34 -99c0 -32 20 -48 57 -48c29 0 59 9 83 19z" />
    <glyph glyph-name="Itilde.alt" horiz-adv-x="235" 
d="M89 0h-52l148 727h52zM427 914c-13 -66 -43 -134 -115 -134c-82 0 -87 90 -150 90c-45 0 -65 -57 -74 -90h-43c13 64 53 134 127 134c84 0 90 -90 145 -90c43 0 60 59 67 90h43z" />
    <glyph glyph-name="Jcircumflex.alt" horiz-adv-x="260" 
d="M108 -10c-23 -112 -65 -183 -195 -183c-34 0 -85 13 -112 27l28 42c20 -11 59 -23 90 -23c101 0 119 50 144 171l144 703h52zM384 780h-45l-74 129l-127 -129h-44l146 176h71z" />
    <glyph glyph-name="divide.tab" 
d="M367 576c0 -30 -11 -40 -40 -40c-36 0 -40 19 -40 40c0 26 7 41 40 41c37 0 40 -19 40 -41zM584 340h-513v41h513v-41zM367 144c0 -30 -11 -40 -40 -40c-36 0 -40 19 -40 40c0 26 7 41 40 41c37 0 40 -19 40 -41z" />
    <glyph glyph-name="equal.tab" 
d="M584 451h-513v41h513v-41zM584 229h-513v41h513v-41z" />
    <glyph glyph-name="f_f_l.alt" horiz-adv-x="802" 
d="M221 462l-97 -479c-29 -142 -85 -176 -180 -176c-30 0 -63 8 -84 17l16 45c21 -9 44 -16 83 -16c78 0 98 51 114 130l97 479h-97l10 44h97l12 60c29 142 85 176 180 176c33 0 75 -11 93 -20l-22 -45c-21 10 -56 19 -86 19c-78 0 -98 -51 -114 -130l-12 -60h224l12 60
c29 142 85 176 180 176c52 0 98 -18 118 -27l49 27l-151 -742h-50l135 666c-21 10 -63 30 -116 30c-78 0 -98 -51 -114 -130l-12 -60h130l-10 -44h-130l-97 -479c-29 -142 -85 -176 -180 -176c-30 0 -63 8 -84 17l16 45c21 -9 44 -16 83 -16c78 0 98 51 114 130l97 479h-224
z" />
    <glyph glyph-name="fraction.tab" horiz-adv-x="249" 
d="M438 727l-567 -727h-55l566 727h56z" />
    <glyph glyph-name="gbreve.alt" horiz-adv-x="556" 
d="M523 513l-104 -510c-26 -129 -94 -196 -242 -196c-66 0 -128 15 -154 32l21 50c39 -22 82 -33 130 -33c118 0 172 39 194 146l22 105c-61 -73 -119 -107 -191 -107c-109 0 -158 77 -158 180c0 159 94 341 276 341c56 0 110 -16 151 -32l44 24h11zM407 189l51 253
c-33 14 -92 31 -145 31c-141 0 -217 -159 -217 -293c0 -76 30 -133 112 -133c54 0 123 32 199 142zM500 747c-32 -65 -82 -138 -173 -138c-93 0 -113 89 -115 138h41c12 -48 31 -79 86 -79c53 0 85 27 119 79h42z" />
    <glyph glyph-name="gcircumflex.alt" horiz-adv-x="556" 
d="M523 513l-104 -510c-26 -129 -94 -196 -242 -196c-66 0 -128 15 -154 32l21 50c39 -22 82 -33 130 -33c118 0 172 39 194 146l22 105c-61 -73 -119 -107 -191 -107c-109 0 -158 77 -158 180c0 159 94 341 276 341c56 0 110 -16 151 -32l44 24h11zM407 189l51 253
c-33 14 -92 31 -145 31c-141 0 -217 -159 -217 -293c0 -76 30 -133 112 -133c54 0 123 32 199 142zM489 590h-45l-74 129l-127 -129h-44l146 176h71z" />
    <glyph glyph-name="gcommaaccent.alt" horiz-adv-x="556" 
d="M523 513l-104 -510c-26 -129 -94 -196 -242 -196c-66 0 -128 15 -154 32l21 50c39 -22 82 -33 130 -33c118 0 172 39 194 146l22 105c-61 -73 -119 -107 -191 -107c-109 0 -158 77 -158 180c0 159 94 341 276 341c56 0 110 -16 151 -32l44 24h11zM407 189l51 253
c-33 14 -92 31 -145 31c-141 0 -217 -159 -217 -293c0 -76 30 -133 112 -133c54 0 123 32 199 142zM289 642c0 26 7 68 52 121h42c-21 -23 -35 -50 -38 -77c18 0 36 -10 36 -34c0 -32 -17 -51 -52 -51c-31 0 -40 19 -40 41z" />
    <glyph glyph-name="gdotaccent.alt" horiz-adv-x="556" 
d="M523 513l-104 -510c-26 -129 -94 -196 -242 -196c-66 0 -128 15 -154 32l21 50c39 -22 82 -33 130 -33c118 0 172 39 194 146l22 105c-61 -73 -119 -107 -191 -107c-109 0 -158 77 -158 180c0 159 94 341 276 341c56 0 110 -16 151 -32l44 24h11zM407 189l51 253
c-33 14 -92 31 -145 31c-141 0 -217 -159 -217 -293c0 -76 30 -133 112 -133c54 0 123 32 199 142zM387 654c0 -36 -18 -53 -49 -53c-24 0 -37 9 -37 35c0 35 17 52 49 52c26 0 37 -10 37 -34z" />
    <glyph glyph-name="greater.tab" 
d="M584 346l-513 -225v47l446 192l-446 193v47l513 -225v-29z" />
    <glyph glyph-name="i.dot" horiz-adv-x="253" 
d="M117 0h-51l84 411c4 19 7 33 7 43c0 9 -3 14 -10 14c-14 0 -39 -11 -67 -29l-19 37c30 21 70 45 105 45c34 0 45 -20 45 -44c0 -13 -1 -20 -5 -41zM247 651c0 -34 -17 -50 -48 -50c-24 0 -36 9 -36 32c0 33 16 49 48 49c25 0 36 -10 36 -31z" />
    <glyph glyph-name="ibreve.alt" horiz-adv-x="217" 
d="M81 0h-51l102 500h51zM342 747c-32 -65 -82 -138 -173 -138c-93 0 -113 89 -115 138h41c12 -48 31 -79 86 -79c53 0 85 27 119 79h42z" />
    <glyph glyph-name="ij.alt" horiz-adv-x="470" 
d="M81 0h-51l102 500h51zM218 651c0 -34 -17 -50 -48 -50c-24 0 -36 9 -36 32c0 33 16 49 48 49c25 0 36 -10 36 -31zM474 651c0 -34 -17 -50 -48 -50c-24 0 -36 9 -36 32c0 33 16 49 48 49c25 0 36 -10 36 -31zM326 -36c-21 -105 -69 -157 -168 -157c-33 0 -64 9 -84 17
l18 42c21 -9 47 -16 75 -16c69 0 95 45 113 132l105 518h51z" />
    <glyph glyph-name="imacron.alt" horiz-adv-x="217" 
d="M81 0h-51l102 500h51zM330 648h-288l11 57h288z" />
    <glyph glyph-name="iogonek.alt" horiz-adv-x="217" 
d="M181 -161c-26 -15 -70 -32 -116 -32c-60 0 -87 32 -87 77c0 48 25 97 57 142l97 474h51l-102 -500h-17c-18 -29 -34 -64 -34 -99c0 -32 20 -48 57 -48c29 0 59 9 83 19zM218 651c0 -34 -17 -50 -48 -50c-24 0 -36 9 -36 32c0 33 16 49 48 49c25 0 36 -10 36 -31z" />
    <glyph glyph-name="itilde.alt" horiz-adv-x="217" 
d="M81 0h-51l102 500h51zM381 745c-13 -66 -43 -134 -115 -134c-82 0 -87 90 -150 90c-45 0 -65 -57 -74 -90h-43c13 64 53 134 127 134c84 0 90 -90 145 -90c43 0 60 59 67 90h43z" />
    <glyph glyph-name="jcircumflex.alt" horiz-adv-x="227" 
d="M83 -36c-21 -105 -69 -157 -168 -157c-33 0 -64 9 -84 17l18 42c21 -9 47 -16 75 -16c69 0 95 45 113 132l105 518h51zM337 590h-45l-74 129l-127 -129h-44l146 176h71z" />
    <glyph glyph-name="lacute.alt" horiz-adv-x="219" 
d="M80 0h-50l144 710l57 32zM407 956l-183 -176h-45l149 176h79z" />
    <glyph glyph-name="lcaron.alt" horiz-adv-x="261" 
d="M80 0h-50l144 710l57 32zM346 701c0 -54 -43 -133 -88 -186h-38c31 37 64 91 70 142c-18 0 -36 10 -36 34c0 32 17 51 52 51c31 0 40 -19 40 -41z" />
    <glyph glyph-name="lcommaaccent.alt" horiz-adv-x="219" 
d="M80 0h-50l144 710l57 32zM89 -72c0 -26 -7 -68 -52 -121h-42c21 23 35 50 38 77c-18 0 -36 10 -36 34c0 32 17 51 52 51c31 0 40 -19 40 -41z" />
    <glyph glyph-name="ldot.alt" horiz-adv-x="261" 
d="M80 0h-50l144 710l57 32zM295 332c0 -32 -14 -52 -54 -52c-22 0 -39 9 -39 30c0 34 16 52 54 52c21 0 39 -8 39 -30z" />
    <glyph glyph-name="uni0162" unicode="&#x162;" horiz-adv-x="525" 
d="M601 679h-240l-138 -679h-52l138 679h-240l9 48h532zM233 -72c0 -26 -7 -68 -52 -121h-42c21 23 35 50 38 77c-18 0 -36 10 -36 34c0 32 17 51 52 51c31 0 40 -19 40 -41z" />
    <glyph glyph-name="uni0163" unicode="&#x163;" horiz-adv-x="330" 
d="M325 506l-9 -44h-122l-67 -329c-3 -17 -8 -42 -8 -54c0 -42 24 -52 63 -52c26 0 45 6 69 13l10 -42c-26 -8 -57 -13 -87 -13c-70 0 -106 22 -106 91c0 12 3 33 7 51l68 335h-98l9 44h98l32 154l56 27l-37 -181h122zM212 -72c0 -26 -7 -68 -52 -121h-42c21 23 35 50 38 77
c-18 0 -36 10 -36 34c0 32 17 51 52 51c31 0 40 -19 40 -41z" />
    <glyph glyph-name="uni021A" unicode="&#x21a;" horiz-adv-x="525" 
d="M601 679h-240l-138 -679h-52l138 679h-240l9 48h532zM233 -72c0 -26 -7 -68 -52 -121h-42c21 23 35 50 38 77c-18 0 -36 10 -36 34c0 32 17 51 52 51c31 0 40 -19 40 -41z" />
    <glyph glyph-name="uni021B" unicode="&#x21b;" horiz-adv-x="330" 
d="M325 506l-9 -44h-122l-67 -329c-3 -17 -8 -42 -8 -54c0 -42 24 -52 63 -52c26 0 45 6 69 13l10 -42c-26 -8 -57 -13 -87 -13c-70 0 -106 22 -106 91c0 12 3 33 7 51l68 335h-98l9 44h98l32 154l56 27l-37 -181h122zM212 -72c0 -26 -7 -68 -52 -121h-42c21 23 35 50 38 77
c-18 0 -36 10 -36 34c0 32 17 51 52 51c31 0 40 -19 40 -41z" />
    <glyph glyph-name="onesuperior" unicode="&#xb9;" horiz-adv-x="316" 
d="M244 293h-242l8 38h107l64 315c-35 -19 -80 -35 -127 -43l7 37c64 19 116 53 160 102h24l-83 -411h90z" />
    <glyph glyph-name="twosuperior" unicode="&#xb2;" horiz-adv-x="408" 
d="M331 293h-350l9 45c55 35 116 73 170 112c97 69 170 112 170 176c0 51 -39 71 -101 71c-50 0 -102 -21 -143 -60l-32 28c37 38 92 77 184 77c80 0 145 -32 145 -107c0 -77 -76 -131 -147 -181c-62 -44 -97 -68 -171 -116h275z" />
    <glyph glyph-name="threesuperior" unicode="&#xb3;" horiz-adv-x="395" 
d="M353 444c0 -106 -94 -163 -202 -163c-62 0 -127 25 -150 72l45 26c23 -40 65 -52 111 -52c72 0 144 28 144 114c0 52 -50 74 -112 74c-19 0 -39 -2 -65 -7l4 19l201 164h-234l8 42h293l-8 -43l-168 -136c77 -2 133 -45 133 -110z" />
    <glyph glyph-name="dollar.alt" horiz-adv-x="527" 
d="M470 231c0 -144 -108 -216 -252 -219l-28 -137h-43l28 138c-114 11 -178 73 -197 132l50 28c21 -55 66 -102 157 -112l62 305c-94 28 -179 67 -179 165c0 125 102 196 238 196h15l17 89h43l-20 -95c84 -16 140 -67 160 -125l-48 -25c-21 52 -61 90 -121 103l-55 -269
c88 -29 173 -71 173 -174zM413 222c0 73 -57 107 -126 131l-60 -293c89 2 186 46 186 162zM124 538c0 -62 53 -95 133 -120l53 262h-10c-94 0 -176 -45 -176 -142z" />
    <glyph glyph-name="percent.alt" horiz-adv-x="930" 
d="M395 594c0 -119 -42 -273 -212 -273c-100 0 -148 63 -148 153c0 120 42 268 209 268c101 0 151 -60 151 -148zM190 366c117 0 153 117 153 227c0 61 -35 104 -105 104c-119 0 -153 -112 -153 -219c0 -64 31 -112 105 -112zM776 727l-567 -727h-55l566 727h56zM895 265
c0 -119 -42 -273 -212 -273c-100 0 -148 63 -148 153c0 120 42 268 209 268c101 0 151 -60 151 -148zM690 37c117 0 153 117 153 227c0 61 -35 104 -105 104c-119 0 -153 -112 -153 -219c0 -64 31 -112 105 -112z" />
    <glyph glyph-name="perthousand.alt" horiz-adv-x="1340" 
d="M395 594c0 -119 -42 -273 -212 -273c-100 0 -148 63 -148 153c0 120 42 268 209 268c101 0 151 -60 151 -148zM895 265c0 -119 -42 -273 -212 -273c-100 0 -148 63 -148 153c0 120 42 268 209 268c101 0 151 -60 151 -148zM1305 265c0 -119 -42 -273 -212 -273
c-100 0 -148 63 -148 153c0 120 42 268 209 268c101 0 151 -60 151 -148zM1100 37c117 0 153 117 153 227c0 61 -35 104 -105 104c-119 0 -153 -112 -153 -219c0 -64 31 -112 105 -112zM190 366c117 0 153 117 153 227c0 61 -35 104 -105 104c-119 0 -153 -112 -153 -219
c0 -64 31 -112 105 -112zM690 37c117 0 153 117 153 227c0 61 -35 104 -105 104c-119 0 -153 -112 -153 -219c0 -64 31 -112 105 -112zM776 727l-567 -727h-55l566 727h56z" />
    <glyph glyph-name="onequarter.alt" horiz-adv-x="930" 
d="M301 329h-230l8 38h101l57 282c-34 -17 -75 -31 -120 -38l8 37c60 18 109 49 151 94h25l-76 -375h85zM834 102h-64l-24 -113h-45l23 113h-220l6 31l294 280h29l-56 -269h65zM732 144l37 181l-191 -181h154zM806 727l-567 -727h-55l566 727h56z" />
    <glyph glyph-name="onehalf.alt" horiz-adv-x="930" 
d="M301 329h-230l8 38h101l57 282c-34 -17 -75 -31 -120 -38l8 37c60 18 109 49 151 94h25l-76 -375h85zM857 0h-332l9 44c66 41 115 73 159 102s159 94 159 159c0 45 -33 63 -90 63c-47 0 -100 -20 -139 -55l-32 27c35 36 93 73 179 73c76 0 133 -30 133 -104
c0 -70 -71 -117 -137 -162c-56 -39 -86 -59 -154 -102h254zM776 727l-567 -727h-55l566 727h56z" />
    <glyph glyph-name="threequarters.alt" horiz-adv-x="930" 
d="M834 102h-64l-24 -113h-45l23 113h-220l6 31l294 280h29l-56 -269h65zM732 144l37 181l-191 -181h154zM335 465c0 -93 -88 -144 -190 -144c-59 0 -121 23 -144 68l45 25c21 -37 61 -48 104 -48c67 0 134 28 134 98c0 46 -47 67 -105 67c-17 0 -36 -2 -63 -7l5 21l184 146
h-217l8 42h279l-8 -42l-153 -121c72 -4 121 -46 121 -105zM806 727l-567 -727h-55l566 727h56z" />
    <glyph glyph-name="onethird.alt" horiz-adv-x="930" 
d="M779 727l-567 -727h-55l566 727h56zM301 329h-230l8 38h101l57 282c-34 -17 -75 -31 -120 -38l8 37c60 18 109 49 151 94h25l-76 -375h85zM871 136c0 -93 -88 -144 -190 -144c-59 0 -121 23 -144 68l45 25c21 -37 61 -48 104 -48c67 0 134 28 134 98c0 46 -47 67 -105 67
c-17 0 -36 -2 -63 -7l5 21l184 146h-217l8 42h279l-8 -42l-153 -121c72 -4 121 -46 121 -105z" />
    <glyph glyph-name="twothirds.alt" horiz-adv-x="930" 
d="M793 727l-567 -727h-55l566 727h56zM871 136c0 -93 -88 -144 -190 -144c-59 0 -121 23 -144 68l45 25c21 -37 61 -48 104 -48c67 0 134 28 134 98c0 46 -47 67 -105 67c-17 0 -36 -2 -63 -7l5 21l184 146h-217l8 42h279l-8 -42l-153 -121c72 -4 121 -46 121 -105z
M367 329h-332l9 44c66 41 115 73 159 102s159 94 159 159c0 45 -33 63 -90 63c-47 0 -100 -20 -139 -55l-32 27c35 36 93 73 179 73c76 0 133 -30 133 -104c0 -70 -71 -117 -137 -162c-56 -39 -86 -59 -154 -102h254z" />
    <glyph glyph-name="oneeighth.alt" horiz-adv-x="930" 
d="M790 727l-567 -727h-55l566 727h56zM301 329h-230l8 38h101l57 282c-34 -17 -75 -31 -120 -38l8 37c60 18 109 49 151 94h25l-76 -375h85zM862 118c0 -87 -85 -126 -179 -126c-104 0 -159 38 -159 95c0 68 56 108 125 129c-42 20 -71 42 -71 85c0 82 85 112 168 112
c90 0 146 -33 146 -89s-45 -91 -110 -111c44 -18 80 -50 80 -95zM683 36c49 0 129 13 129 79c0 41 -49 67 -100 82c-49 -10 -139 -38 -139 -104c0 -36 40 -57 110 -57zM626 304c0 -24 21 -50 93 -71c42 9 124 31 124 84c0 34 -39 55 -98 55c-46 0 -119 -10 -119 -68z" />
    <glyph glyph-name="threeeighths.alt" horiz-adv-x="930" 
d="M790 727l-567 -727h-55l566 727h56zM862 118c0 -87 -85 -126 -179 -126c-104 0 -159 38 -159 95c0 68 56 108 125 129c-42 20 -71 42 -71 85c0 82 85 112 168 112c90 0 146 -33 146 -89s-45 -91 -110 -111c44 -18 80 -50 80 -95zM683 36c49 0 129 13 129 79
c0 41 -49 67 -100 82c-49 -10 -139 -38 -139 -104c0 -36 40 -57 110 -57zM626 304c0 -24 21 -50 93 -71c42 9 124 31 124 84c0 34 -39 55 -98 55c-46 0 -119 -10 -119 -68zM335 465c0 -93 -88 -144 -190 -144c-59 0 -121 23 -144 68l45 25c21 -37 61 -48 104 -48
c67 0 134 28 134 98c0 46 -47 67 -105 67c-17 0 -36 -2 -63 -7l5 21l184 146h-217l8 42h279l-8 -42l-153 -121c72 -4 121 -46 121 -105z" />
    <glyph glyph-name="fiveeighths.alt" horiz-adv-x="930" 
d="M790 727l-567 -727h-55l566 727h56zM862 118c0 -87 -85 -126 -179 -126c-104 0 -159 38 -159 95c0 68 56 108 125 129c-42 20 -71 42 -71 85c0 82 85 112 168 112c90 0 146 -33 146 -89s-45 -91 -110 -111c44 -18 80 -50 80 -95zM683 36c49 0 129 13 129 79
c0 41 -49 67 -100 82c-49 -10 -139 -38 -139 -104c0 -36 40 -57 110 -57zM626 304c0 -24 21 -50 93 -71c42 9 124 31 124 84c0 34 -39 55 -98 55c-46 0 -119 -10 -119 -68zM352 476c0 -106 -89 -155 -197 -155c-84 0 -137 35 -153 65l49 22c15 -25 51 -42 103 -42
c71 0 149 24 149 104c0 50 -48 66 -106 66c-35 0 -81 -9 -115 -26h-20l81 223h239l-9 -45h-204l-44 -123c31 11 64 14 91 14c80 0 136 -37 136 -103z" />
    <glyph glyph-name="seveneighths.alt" horiz-adv-x="930" 
d="M705 727l-567 -727h-55l566 727h56zM827 118c0 -87 -85 -126 -179 -126c-104 0 -159 38 -159 95c0 68 56 108 125 129c-42 20 -71 42 -71 85c0 82 85 112 168 112c90 0 146 -33 146 -89s-45 -91 -110 -111c44 -18 80 -50 80 -95zM648 36c49 0 129 13 129 79
c0 41 -49 67 -100 82c-49 -10 -139 -38 -139 -104c0 -36 40 -57 110 -57zM591 304c0 -24 21 -50 93 -71c42 9 124 31 124 84c0 34 -39 55 -98 55c-46 0 -119 -10 -119 -68zM405 690l-269 -369h-54l267 367h-207c-4 -18 -8 -38 -14 -56h-44l22 101h307z" />
    <glyph glyph-name="plus.alt" 
d="M584 340h-236v-236h-41v236h-236v41h236v236h41v-236h236v-41z" />
    <glyph glyph-name="minus.alt" 
d="M584 340h-513v41h513v-41z" />
    <glyph glyph-name="multiply.alt" 
d="M555 162l-28 -30l-199 199l-198 -199l-30 30l199 198l-198 199l29 29l198 -199l199 199l28 -28l-198 -200z" />
    <glyph glyph-name="less.alt" 
d="M584 121l-513 225v29l513 225v-47l-446 -193l446 -192v-47z" />
    <glyph glyph-name="greater.alt" 
d="M584 346l-513 -225v47l446 192l-446 193v47l513 -225v-29z" />
    <glyph glyph-name="logicalnot.alt" 
d="M584 229h-41v222h-472v41h513v-263z" />
    <glyph glyph-name="equal.alt" 
d="M584 451h-513v41h513v-41zM584 229h-513v41h513v-41z" />
    <glyph glyph-name="divide.alt" 
d="M367 576c0 -30 -11 -40 -40 -40c-36 0 -40 19 -40 40c0 26 7 41 40 41c37 0 40 -19 40 -41zM584 340h-513v41h513v-41zM367 144c0 -30 -11 -40 -40 -40c-36 0 -40 19 -40 40c0 26 7 41 40 41c37 0 40 -19 40 -41z" />
    <glyph glyph-name="plusminus.alt" 
d="M584 349h-236v-188h-41v188h-236v41h236v215h41v-215h236v-41zM584 75h-513v41h513v-41z" />
    <glyph glyph-name="periodcentered.alt" horiz-adv-x="229" 
d="M161 371c0 -32 -14 -52 -54 -52c-22 0 -39 9 -39 30c0 34 16 52 54 52c21 0 39 -8 39 -30z" />
    </font>
</defs>
</svg>
