<?xml version="1.0" standalone="no"?>
<!DOCTYPE svg PUBLIC "-//W3C//DTD SVG 1.1//EN" "http://www.w3.org/Graphics/SVG/1.1/DTD/svg11.dtd" >
<svg xmlns="http://www.w3.org/2000/svg" xmlns:xlink="http://www.w3.org/1999/xlink" version="1.1">
<metadata>
Created by FontForge 20160407 at Tue Sep 27 17:07:27 2016
 By Jimmy Warting
Copyright 2010 Monotype Imaging Inc. All rights reserved.
</metadata>
<defs>
<font id="FelbridgePro-ThinItalic" horiz-adv-x="570" >
  <font-face 
    font-family="Felbridge Pro Thin"
    font-weight="250"
    font-style="italic"
    font-stretch="normal"
    units-per-em="1000"
    panose-1="2 0 2 3 4 0 3 9 3 4"
    ascent="760"
    descent="-240"
    x-height="503"
    cap-height="727"
    bbox="-251 -241 1292 957"
    underline-thickness="50"
    underline-position="-100"
    slope="-11.5"
    stemh="34"
    stemv="35"
    unicode-range="U+0020-FB04"
  />
<missing-glyph horiz-adv-x="500" 
d="M-55 0l134 665h475l-135 -665h-474zM146 618l112 -243l211 243h-323zM109 575l-99 -484c0 -1 211 242 211 242zM489 575l-211 -242l112 -243zM353 48l-112 242l-211 -242h323z" />
    <glyph glyph-name="f_f" unicode="ff" horiz-adv-x="583" 
d="M200 472l-103 -505c-26 -127 -88 -160 -166 -160c-32 0 -67 9 -86 18l12 31c22 -10 48 -19 81 -19c73 0 108 47 125 130l103 505h-84l6 31h84l16 79c26 127 84 160 165 160c32 0 70 -9 89 -18l-15 -30c-23 10 -48 19 -81 19c-76 0 -107 -48 -124 -131l-16 -79h242l16 79
c26 127 86 160 167 160c32 0 68 -8 87 -17l-15 -27c-23 10 -48 15 -81 15c-76 0 -107 -48 -124 -131l-16 -79h130l-6 -31h-130l-103 -505c-26 -127 -88 -160 -166 -160c-32 0 -67 9 -86 18l11 30c23 -10 49 -18 82 -18c73 0 108 47 125 130l103 505h-242z" />
    <glyph glyph-name="f_f_i" unicode="ffi" horiz-adv-x="776" 
d="M442 472h-242l-103 -505c-26 -127 -88 -160 -166 -160c-32 0 -67 9 -86 18l12 31c22 -10 48 -19 81 -19c73 0 108 47 125 130l103 505h-84l6 31h84l16 79c26 127 84 160 165 160c32 0 70 -9 89 -18l-15 -30c-23 10 -48 19 -81 19c-76 0 -107 -48 -124 -131l-16 -79h242
l16 79c25 122 68 160 150 160c49 0 113 -22 141 -49c8 -8 11 -16 11 -24c0 -18 -11 -29 -29 -29c-19 0 -29 11 -29 25c0 6 2 13 5 20c-11 9 -55 30 -107 30c-66 0 -91 -49 -108 -133l-16 -79h207c27 0 35 -12 35 -32c0 -12 -3 -26 -6 -43l-87 -428h-33l84 415
c4 18 7 32 7 41c0 11 -5 16 -19 16h-194l-103 -505c-26 -127 -88 -160 -166 -160c-32 0 -67 9 -86 18l11 30c23 -10 49 -18 82 -18c73 0 108 47 125 130z" />
    <glyph glyph-name="f_f_l" unicode="ffl" horiz-adv-x="824" 
d="M448 503l16 79c26 127 90 160 171 160c30 0 77 -7 125 -28l34 27l-120 -587c-8 -38 -12 -62 -12 -83c0 -32 11 -56 55 -56c16 0 33 2 51 7l4 -30c-12 -3 -39 -7 -63 -7c-62 0 -81 34 -81 82c0 19 4 40 11 77l110 544c-33 15 -68 26 -116 26c-76 0 -115 -33 -135 -132
l-16 -79h130l-6 -31h-130l-103 -505c-26 -127 -88 -160 -166 -160c-32 0 -67 9 -86 18l11 30c23 -10 49 -18 82 -18c73 0 108 47 125 130l103 505h-242l-103 -505c-26 -127 -88 -160 -166 -160c-32 0 -67 9 -86 18l12 31c22 -10 48 -19 81 -19c73 0 108 47 125 130l103 505
h-84l6 31h84l16 79c26 127 84 160 165 160c32 0 70 -9 89 -18l-15 -30c-23 10 -48 19 -81 19c-76 0 -107 -48 -124 -131l-16 -79h242z" />
    <glyph glyph-name="fi" unicode="fi" horiz-adv-x="500" 
d="M490 669c0 -18 -11 -29 -29 -29c-19 0 -29 11 -29 25c0 6 2 13 5 20c-11 9 -55 30 -107 30c-66 0 -91 -49 -108 -133l-16 -79h207c27 0 35 -12 35 -32c0 -12 -3 -26 -6 -43l-87 -428h-33l84 415c4 18 7 32 7 41c0 11 -5 16 -19 16h-194l-103 -505
c-26 -127 -88 -160 -166 -160c-32 0 -67 9 -86 18l11 30c23 -10 49 -18 82 -18c73 0 108 47 125 130l103 505h-84l6 31h84l16 79c25 122 68 160 150 160c49 0 113 -22 141 -49c8 -8 11 -16 11 -24z" />
    <glyph glyph-name="fl" unicode="fl" horiz-adv-x="548" 
d="M496 -8c-12 -3 -39 -7 -63 -7c-62 0 -81 34 -81 82c0 19 4 40 11 77l110 544c-33 15 -68 26 -116 26c-76 0 -115 -33 -135 -132l-16 -79h130l-6 -31h-130l-103 -505c-26 -127 -88 -160 -166 -160c-32 0 -67 9 -86 18l11 30c23 -10 49 -18 82 -18c73 0 108 47 125 130
l103 505h-84l6 31h84l16 79c26 127 90 160 171 160c30 0 77 -7 125 -28l34 27l-120 -587c-8 -38 -12 -62 -12 -83c0 -32 11 -56 55 -56c16 0 33 2 51 7z" />
    <glyph glyph-name=".notdef" horiz-adv-x="500" 
d="M-55 0l134 665h475l-135 -665h-474zM146 618l112 -243l211 243h-323zM109 575l-99 -484c0 -1 211 242 211 242zM489 575l-211 -242l112 -243zM353 48l-112 242l-211 -242h323z" />
    <glyph glyph-name="A" unicode="A" horiz-adv-x="608" 
d="M506 0l-40 246h-330l-140 -246h-41l421 727h44l123 -727h-37zM393 695l-238 -417h306z" />
    <glyph glyph-name="AE" unicode="&#xc6;" horiz-adv-x="859" 
d="M732 0h-378l52 256h-259l-151 -256h-41l436 727h488l-6 -34h-342l-59 -288h310l-7 -34h-310l-69 -337h342zM412 288l83 405h-86l-243 -405h246z" />
    <glyph glyph-name="AEacute" unicode="&#x1fc;" horiz-adv-x="859" 
d="M732 0h-378l52 256h-259l-151 -256h-41l436 727h488l-6 -34h-342l-59 -288h310l-7 -34h-310l-69 -337h342zM412 288l83 405h-86l-243 -405h246zM721 956l-175 -176h-35l149 176h61z" />
    <glyph glyph-name="Aacute" unicode="&#xc1;" horiz-adv-x="608" 
d="M506 0l-40 246h-330l-140 -246h-41l421 727h44l123 -727h-37zM393 695l-238 -417h306zM580 956l-175 -176h-35l149 176h61z" />
    <glyph glyph-name="Abreve" unicode="&#x102;" horiz-adv-x="608" 
d="M506 0l-40 246h-330l-140 -246h-41l421 727h44l123 -727h-37zM393 695l-238 -417h306zM564 918c-36 -81 -87 -138 -165 -138c-80 0 -101 84 -101 138h25c9 -55 28 -90 86 -90c59 0 97 37 124 90h31z" />
    <glyph glyph-name="Acircumflex" unicode="&#xc2;" horiz-adv-x="608" 
d="M506 0l-40 246h-330l-140 -246h-41l421 727h44l123 -727h-37zM393 695l-238 -417h306zM530 780h-28l-76 134l-132 -134h-30l149 176h42z" />
    <glyph glyph-name="Adieresis" unicode="&#xc4;" horiz-adv-x="608" 
d="M506 0l-40 246h-330l-140 -246h-41l421 727h44l123 -727h-37zM393 695l-238 -417h306zM367 822c0 -28 -15 -42 -40 -42c-21 0 -31 8 -31 27c0 27 14 41 40 41c21 0 31 -9 31 -26zM528 822c0 -28 -15 -42 -40 -42c-21 0 -31 8 -31 27c0 27 14 41 40 41c21 0 31 -9 31 -26z
" />
    <glyph glyph-name="Agrave" unicode="&#xc0;" horiz-adv-x="608" 
d="M506 0l-40 246h-330l-140 -246h-41l421 727h44l123 -727h-37zM393 695l-238 -417h306zM431 780h-30l-107 176h56z" />
    <glyph glyph-name="Amacron" unicode="&#x100;" horiz-adv-x="608" 
d="M506 0l-40 246h-330l-140 -246h-41l421 727h44l123 -727h-37zM393 695l-238 -417h306zM550 788h-282l9 43h282z" />
    <glyph glyph-name="Aogonek" unicode="&#x104;" horiz-adv-x="608" 
d="M506 0l-40 246h-330l-140 -246h-41l421 727h44l123 -727c-21 -34 -37 -71 -37 -111c0 -36 21 -49 61 -49c30 0 64 12 88 23l7 -25c-27 -15 -67 -31 -111 -31c-58 0 -83 32 -83 76c0 41 18 81 38 117zM393 695l-238 -417h306z" />
    <glyph glyph-name="Aring" unicode="&#xc5;" horiz-adv-x="608" 
d="M506 0l-40 246h-330l-140 -246h-41l409 706c-32 10 -47 36 -47 70c0 67 38 126 114 126c55 0 82 -30 82 -77c0 -62 -32 -109 -90 -120l120 -705h-37zM393 695l-238 -417h306zM399 728c49 0 82 37 82 95c0 34 -16 52 -56 52c-49 0 -77 -35 -77 -94c0 -35 15 -53 51 -53z
" />
    <glyph glyph-name="Atilde" unicode="&#xc3;" horiz-adv-x="608" 
d="M506 0l-40 246h-330l-140 -246h-41l421 727h44l123 -727h-37zM393 695l-238 -417h306zM585 907c-12 -60 -38 -120 -104 -120c-45 0 -67 37 -90 63c-13 14 -25 25 -43 25c-40 0 -60 -58 -66 -88h-31c13 60 42 120 109 120c31 0 51 -19 69 -40c20 -23 37 -48 63 -48
c41 0 56 57 64 88h29z" />
    <glyph glyph-name="B" unicode="B" horiz-adv-x="632" 
d="M572 228c0 -94 -50 -158 -128 -193c-59 -27 -134 -35 -215 -35h-189l147 727h185c110 0 152 -19 183 -50c27 -27 37 -61 37 -100c0 -99 -62 -170 -178 -193c98 -12 158 -70 158 -156zM157 399h154c136 0 244 54 244 176c0 40 -13 66 -33 84c-25 23 -71 36 -145 36h-160z
M82 34h149c77 0 139 7 186 25c79 31 116 90 116 166c0 97 -73 142 -227 142h-156z" />
    <glyph glyph-name="C" unicode="C" horiz-adv-x="622" 
d="M654 615l-32 -19c-25 59 -69 112 -190 112c-200 0 -329 -190 -329 -441c0 -139 66 -248 221 -248c69 0 127 26 175 62l19 -30c-59 -41 -112 -66 -198 -66c-163 0 -255 109 -255 277c0 248 125 480 369 480c116 0 188 -47 220 -127z" />
    <glyph glyph-name="Cacute" unicode="&#x106;" horiz-adv-x="622" 
d="M654 615l-32 -19c-25 59 -69 112 -190 112c-200 0 -329 -190 -329 -441c0 -139 66 -248 221 -248c69 0 127 26 175 62l19 -30c-59 -41 -112 -66 -198 -66c-163 0 -255 109 -255 277c0 248 125 480 369 480c116 0 188 -47 220 -127zM568 956l-175 -176h-35l149 176h61z
" />
    <glyph glyph-name="Ccaron" unicode="&#x10c;" horiz-adv-x="622" 
d="M654 615l-32 -19c-25 59 -69 112 -190 112c-200 0 -329 -190 -329 -441c0 -139 66 -248 221 -248c69 0 127 26 175 62l19 -30c-59 -41 -112 -66 -198 -66c-163 0 -255 109 -255 277c0 248 125 480 369 480c116 0 188 -47 220 -127zM610 956l-146 -176h-42l-78 176h27
l79 -134l129 134h31z" />
    <glyph glyph-name="Ccedilla" unicode="&#xc7;" horiz-adv-x="622" 
d="M386 -84c0 -69 -63 -109 -136 -109c-36 0 -76 11 -99 19l17 30c34 -15 64 -20 94 -20c44 0 90 24 90 74c0 37 -41 54 -79 54l14 23c-142 13 -222 118 -222 275c0 248 125 480 369 480c116 0 188 -47 220 -127l-32 -19c-25 59 -69 112 -190 112
c-200 0 -329 -190 -329 -441c0 -139 66 -248 221 -248c69 0 127 26 175 62l19 -30c-59 -41 -112 -66 -198 -66h-5c56 -11 71 -41 71 -69z" />
    <glyph glyph-name="Ccircumflex" unicode="&#x108;" horiz-adv-x="622" 
d="M654 615l-32 -19c-25 59 -69 112 -190 112c-200 0 -329 -190 -329 -441c0 -139 66 -248 221 -248c69 0 127 26 175 62l19 -30c-59 -41 -112 -66 -198 -66c-163 0 -255 109 -255 277c0 248 125 480 369 480c116 0 188 -47 220 -127zM579 780h-28l-76 134l-132 -134h-30
l149 176h42z" />
    <glyph glyph-name="Cdotaccent" unicode="&#x10a;" horiz-adv-x="622" 
d="M654 615l-32 -19c-25 59 -69 112 -190 112c-200 0 -329 -190 -329 -441c0 -139 66 -248 221 -248c69 0 127 26 175 62l19 -30c-59 -41 -112 -66 -198 -66c-163 0 -255 109 -255 277c0 248 125 480 369 480c116 0 188 -47 220 -127zM485 822c0 -28 -14 -42 -39 -42
c-19 0 -29 7 -29 28c0 27 14 41 39 41c21 0 29 -8 29 -27z" />
    <glyph glyph-name="D" unicode="D" horiz-adv-x="692" 
d="M657 432c0 -143 -55 -253 -120 -319c-80 -81 -185 -113 -338 -113h-159l147 727h141c124 0 202 -25 258 -83c48 -50 71 -127 71 -212zM203 34c124 0 231 24 310 105c64 66 106 170 106 295c0 76 -22 142 -64 186c-49 51 -116 73 -227 73h-111l-135 -659h121z" />
    <glyph glyph-name="Dcaron" unicode="&#x10e;" horiz-adv-x="692" 
d="M657 432c0 -143 -55 -253 -120 -319c-80 -81 -185 -113 -338 -113h-159l147 727h141c124 0 202 -25 258 -83c48 -50 71 -127 71 -212zM203 34c124 0 231 24 310 105c64 66 106 170 106 295c0 76 -22 142 -64 186c-49 51 -116 73 -227 73h-111l-135 -659h121zM538 956
l-146 -176h-42l-78 176h27l79 -134l129 134h31z" />
    <glyph glyph-name="Dcroat" unicode="&#x110;" horiz-adv-x="692" 
d="M657 432c0 -143 -55 -253 -120 -319c-80 -81 -185 -113 -338 -113h-159l71 352h-97l7 34h97l69 341h141c124 0 202 -25 258 -83c48 -50 71 -127 71 -212zM203 34c124 0 231 24 310 105c64 66 106 170 106 295c0 76 -22 142 -64 186c-49 51 -116 73 -227 73h-111l-63 -307
h205l-7 -34h-205l-65 -318h121z" />
    <glyph glyph-name="E" unicode="E" horiz-adv-x="581" 
d="M454 0h-414l147 727h414l-6 -34h-378l-59 -288h346l-7 -34h-346l-69 -337h378z" />
    <glyph glyph-name="Eacute" unicode="&#xc9;" horiz-adv-x="581" 
d="M454 0h-414l147 727h414l-6 -34h-378l-59 -288h346l-7 -34h-346l-69 -337h378zM528 956l-175 -176h-35l149 176h61z" />
    <glyph glyph-name="Ebreve" unicode="&#x114;" horiz-adv-x="581" 
d="M454 0h-414l147 727h414l-6 -34h-378l-59 -288h346l-7 -34h-346l-69 -337h378zM563 918c-36 -81 -87 -138 -165 -138c-80 0 -101 84 -101 138h25c9 -55 28 -90 86 -90c59 0 97 37 124 90h31z" />
    <glyph glyph-name="Ecaron" unicode="&#x11a;" horiz-adv-x="581" 
d="M454 0h-414l147 727h414l-6 -34h-378l-59 -288h346l-7 -34h-346l-69 -337h378zM572 956l-146 -176h-42l-78 176h27l79 -134l129 134h31z" />
    <glyph glyph-name="Ecircumflex" unicode="&#xca;" horiz-adv-x="581" 
d="M454 0h-414l147 727h414l-6 -34h-378l-59 -288h346l-7 -34h-346l-69 -337h378zM536 780h-28l-76 134l-132 -134h-30l149 176h42z" />
    <glyph glyph-name="Edieresis" unicode="&#xcb;" horiz-adv-x="581" 
d="M454 0h-414l147 727h414l-6 -34h-378l-59 -288h346l-7 -34h-346l-69 -337h378zM363 822c0 -28 -15 -42 -40 -42c-21 0 -31 8 -31 27c0 27 14 41 40 41c21 0 31 -9 31 -26zM524 822c0 -28 -15 -42 -40 -42c-21 0 -31 8 -31 27c0 27 14 41 40 41c21 0 31 -9 31 -26z" />
    <glyph glyph-name="Edotaccent" unicode="&#x116;" horiz-adv-x="581" 
d="M454 0h-414l147 727h414l-6 -34h-378l-59 -288h346l-7 -34h-346l-69 -337h378zM438 822c0 -28 -14 -42 -39 -42c-19 0 -29 7 -29 28c0 27 14 41 39 41c21 0 29 -8 29 -27z" />
    <glyph glyph-name="Egrave" unicode="&#xc8;" horiz-adv-x="581" 
d="M454 0h-414l147 727h414l-6 -34h-378l-59 -288h346l-7 -34h-346l-69 -337h378zM461 780h-30l-107 176h56z" />
    <glyph glyph-name="Emacron" unicode="&#x112;" horiz-adv-x="581" 
d="M454 0h-414l147 727h414l-6 -34h-378l-59 -288h346l-7 -34h-346l-69 -337h378zM538 788h-282l9 43h282z" />
    <glyph glyph-name="Eng" unicode="&#x14a;" horiz-adv-x="691" 
d="M536 -18c-21 -102 -54 -175 -182 -175c-42 0 -82 12 -106 25l21 33c15 -10 50 -24 93 -24c93 0 120 51 141 154l92 452c11 52 18 98 18 137c0 77 -29 124 -120 124c-103 0 -214 -78 -304 -151l-113 -557h-36l148 727h36l-26 -125c114 92 207 140 305 140
c107 0 147 -58 147 -150c0 -36 -6 -76 -15 -121z" />
    <glyph glyph-name="Eogonek" unicode="&#x118;" horiz-adv-x="581" 
d="M524 -162c-27 -15 -67 -31 -111 -31c-58 0 -83 32 -83 76c0 41 18 81 39 117h-329l147 727h414l-6 -34h-378l-59 -288h346l-7 -34h-346l-69 -337h378l-6 -34h-51c-19 -33 -35 -72 -35 -111c0 -36 21 -49 61 -49c30 0 65 14 88 23z" />
    <glyph glyph-name="Eth" unicode="&#xd0;" horiz-adv-x="692" 
d="M657 432c0 -143 -55 -253 -120 -319c-80 -81 -185 -113 -338 -113h-159l71 352h-97l7 34h97l69 341h141c124 0 202 -25 258 -83c48 -50 71 -127 71 -212zM203 34c124 0 231 24 310 105c64 66 106 170 106 295c0 76 -22 142 -64 186c-49 51 -116 73 -227 73h-111l-63 -307
h205l-7 -34h-205l-65 -318h121z" />
    <glyph glyph-name="Euro" unicode="&#x20ac;" horiz-adv-x="599" 
d="M51 406l19 32h43c41 161 144 304 340 304c115 0 179 -59 206 -120l-31 -16c-29 53 -77 102 -178 102c-167 0 -261 -122 -299 -270h363l-16 -32h-355c-5 -27 -9 -54 -11 -81h326l-16 -32h-312v-26c0 -146 73 -248 208 -248c85 0 134 34 169 59l16 -30
c-48 -34 -102 -63 -197 -63c-138 0 -234 106 -234 278v30h-60l20 32h42c3 27 6 54 12 81h-55z" />
    <glyph glyph-name="F" unicode="F" horiz-adv-x="565" 
d="M594 693h-377l-57 -279h341l-7 -34h-341l-77 -380h-36l147 727h413z" />
    <glyph glyph-name="G" unicode="G" horiz-adv-x="681" 
d="M656 618l-32 -19c-31 67 -90 109 -190 109c-190 0 -330 -164 -330 -437c0 -136 63 -252 224 -252c74 0 137 24 197 55l43 212h-183l6 32h219l-53 -263c-65 -40 -148 -70 -235 -70c-175 0 -257 122 -257 285c0 238 113 472 374 472c104 0 178 -42 217 -124z" />
    <glyph glyph-name="Gbreve" unicode="&#x11e;" horiz-adv-x="681" 
d="M656 618l-32 -19c-31 67 -90 109 -190 109c-190 0 -330 -164 -330 -437c0 -136 63 -252 224 -252c74 0 137 24 197 55l43 212h-183l6 32h219l-53 -263c-65 -40 -148 -70 -235 -70c-175 0 -257 122 -257 285c0 238 113 472 374 472c104 0 178 -42 217 -124zM601 918
c-36 -81 -87 -138 -165 -138c-80 0 -101 84 -101 138h25c9 -55 28 -90 86 -90c59 0 97 37 124 90h31z" />
    <glyph glyph-name="Gcircumflex" unicode="&#x11c;" horiz-adv-x="681" 
d="M656 618l-32 -19c-31 67 -90 109 -190 109c-190 0 -330 -164 -330 -437c0 -136 63 -252 224 -252c74 0 137 24 197 55l43 212h-183l6 32h219l-53 -263c-65 -40 -148 -70 -235 -70c-175 0 -257 122 -257 285c0 238 113 472 374 472c104 0 178 -42 217 -124zM586 780h-28
l-76 134l-132 -134h-30l149 176h42z" />
    <glyph glyph-name="Gcommaaccent" unicode="&#x122;" horiz-adv-x="681" 
d="M656 618l-32 -19c-31 67 -90 109 -190 109c-190 0 -330 -164 -330 -437c0 -136 63 -252 224 -252c74 0 137 24 197 55l43 212h-183l6 32h219l-53 -263c-65 -40 -148 -70 -235 -70c-175 0 -257 122 -257 285c0 238 113 472 374 472c104 0 178 -42 217 -124zM283 -68
c0 22 13 39 40 39c26 0 36 -15 36 -33c0 -49 -37 -112 -55 -131h-32c23 26 38 62 42 94c-18 0 -31 8 -31 31z" />
    <glyph glyph-name="Gdotaccent" unicode="&#x120;" horiz-adv-x="681" 
d="M656 618l-32 -19c-31 67 -90 109 -190 109c-190 0 -330 -164 -330 -437c0 -136 63 -252 224 -252c74 0 137 24 197 55l43 212h-183l6 32h219l-53 -263c-65 -40 -148 -70 -235 -70c-175 0 -257 122 -257 285c0 238 113 472 374 472c104 0 178 -42 217 -124zM483 822
c0 -28 -14 -42 -39 -42c-19 0 -29 7 -29 28c0 27 14 41 39 41c21 0 29 -8 29 -27z" />
    <glyph glyph-name="H" unicode="H" horiz-adv-x="681" 
d="M534 0h-36l73 359h-422l-73 -359h-36l147 727h36l-68 -336h422l68 336h36z" />
    <glyph glyph-name="Hbar" unicode="&#x126;" horiz-adv-x="681" 
d="M534 0h-36l73 359h-422l-73 -359h-36l110 545h-68l7 32h67l31 150h36l-31 -150h422l31 150h36l-31 -150h61l-7 -32h-60zM155 391h422l31 154h-422z" />
    <glyph glyph-name="Hcircumflex" unicode="&#x124;" horiz-adv-x="681" 
d="M534 0h-36l73 359h-422l-73 -359h-36l147 727h36l-68 -336h422l68 336h36zM560 780h-28l-76 134l-132 -134h-30l149 176h42z" />
    <glyph glyph-name="I" unicode="I" horiz-adv-x="323" 
d="M206 0h-211l6 31h87l135 665h-88l6 31h212l-6 -31h-88l-135 -665h88z" />
    <glyph glyph-name="I.alt" horiz-adv-x="223" 
d="M76 0h-36l147 727h36z" />
    <glyph glyph-name="IJ" unicode="&#x132;" horiz-adv-x="702" 
d="M206 0h-211l6 31h87l135 665h-88l6 31h212l-6 -31h-88l-135 -665h88zM591 160c-21 -102 -65 -175 -183 -175c-39 0 -79 13 -103 27l20 31c15 -10 46 -24 86 -24c93 0 125 51 146 154l107 523h-25c-84 0 -135 -15 -192 -54l-17 27c55 39 117 58 208 58h68z" />
    <glyph glyph-name="IJ.alt" horiz-adv-x="532" 
d="M76 0h-36l147 727h36zM381 -18c-21 -102 -65 -175 -183 -175c-39 0 -79 13 -103 27l20 31c15 -10 46 -24 86 -24c93 0 125 51 146 154l149 732h36z" />
    <glyph glyph-name="Iacute" unicode="&#xcd;" horiz-adv-x="323" 
d="M206 0h-211l6 31h87l135 665h-88l6 31h212l-6 -31h-88l-135 -665h88zM382 956l-175 -176h-35l149 176h61z" />
    <glyph glyph-name="Iacute.alt" horiz-adv-x="223" 
d="M76 0h-36l147 727h36zM402 956l-175 -176h-35l149 176h61z" />
    <glyph glyph-name="Ibreve" unicode="&#x12c;" horiz-adv-x="323" 
d="M206 0h-211l6 31h87l135 665h-88l6 31h212l-6 -31h-88l-135 -665h88zM411 918c-36 -81 -87 -138 -165 -138c-80 0 -101 84 -101 138h25c9 -55 28 -90 86 -90c59 0 97 37 124 90h31z" />
    <glyph glyph-name="Ibreve.alt" horiz-adv-x="223" 
d="M76 0h-36l147 727h36zM377 918c-36 -81 -87 -138 -165 -138c-80 0 -101 84 -101 138h25c9 -55 28 -90 86 -90c59 0 97 37 124 90h31z" />
    <glyph glyph-name="Icircumflex" unicode="&#xce;" horiz-adv-x="323" 
d="M206 0h-211l6 31h87l135 665h-88l6 31h212l-6 -31h-88l-135 -665h88zM387 780h-28l-76 134l-132 -134h-30l149 176h42z" />
    <glyph glyph-name="Icircumflex.alt" horiz-adv-x="223" 
d="M76 0h-36l147 727h36zM346 780h-28l-76 134l-132 -134h-30l149 176h42z" />
    <glyph glyph-name="Idieresis" unicode="&#xcf;" horiz-adv-x="323" 
d="M206 0h-211l6 31h87l135 665h-88l6 31h212l-6 -31h-88l-135 -665h88zM216 822c0 -28 -15 -42 -40 -42c-21 0 -31 8 -31 27c0 27 14 41 40 41c21 0 31 -9 31 -26zM377 822c0 -28 -15 -42 -40 -42c-21 0 -31 8 -31 27c0 27 14 41 40 41c21 0 31 -9 31 -26z" />
    <glyph glyph-name="Idieresis.alt" horiz-adv-x="223" 
d="M76 0h-36l147 727h36zM167 822c0 -28 -15 -42 -40 -42c-21 0 -31 8 -31 27c0 27 14 41 40 41c21 0 31 -9 31 -26zM328 822c0 -28 -15 -42 -40 -42c-21 0 -31 8 -31 27c0 27 14 41 40 41c21 0 31 -9 31 -26z" />
    <glyph glyph-name="Idotaccent" unicode="&#x130;" horiz-adv-x="323" 
d="M206 0h-211l6 31h87l135 665h-88l6 31h212l-6 -31h-88l-135 -665h88zM293 822c0 -28 -14 -42 -39 -42c-19 0 -29 7 -29 28c0 27 14 41 39 41c21 0 29 -8 29 -27z" />
    <glyph glyph-name="Idotaccent.alt" horiz-adv-x="223" 
d="M76 0h-36l147 727h36zM253 822c0 -28 -14 -42 -39 -42c-19 0 -29 7 -29 28c0 27 14 41 39 41c21 0 29 -8 29 -27z" />
    <glyph glyph-name="Igrave" unicode="&#xcc;" horiz-adv-x="323" 
d="M206 0h-211l6 31h87l135 665h-88l6 31h212l-6 -31h-88l-135 -665h88zM306 780h-30l-107 176h56z" />
    <glyph glyph-name="Igrave.alt" horiz-adv-x="223" 
d="M76 0h-36l147 727h36zM225 780h-30l-107 176h56z" />
    <glyph glyph-name="Imacron" unicode="&#x12a;" horiz-adv-x="323" 
d="M206 0h-211l6 31h87l135 665h-88l6 31h212l-6 -31h-88l-135 -665h88zM398 788h-282l9 43h282z" />
    <glyph glyph-name="Imacron.alt" horiz-adv-x="223" 
d="M76 0h-36l147 727h36zM354 829h-282l9 43h282z" />
    <glyph glyph-name="Iogonek" unicode="&#x12e;" horiz-adv-x="323" 
d="M239 -162c-27 -15 -67 -31 -111 -31c-58 0 -83 32 -83 76c0 41 18 81 39 117h-89l6 31h87l135 665h-88l6 31h212l-6 -31h-88l-135 -665h88l-6 -31h-88c-19 -33 -35 -72 -35 -111c0 -36 21 -49 61 -49c30 0 65 14 88 23z" />
    <glyph glyph-name="Iogonek.alt" horiz-adv-x="223" 
d="M195 -162c-27 -15 -67 -31 -111 -31c-58 0 -83 32 -83 76c0 41 18 81 39 117l147 727h36l-147 -727c-21 -34 -37 -71 -37 -111c0 -36 21 -49 61 -49c30 0 65 14 88 23z" />
    <glyph glyph-name="Itilde" unicode="&#x128;" horiz-adv-x="323" 
d="M206 0h-211l6 31h87l135 665h-88l6 31h212l-6 -31h-88l-135 -665h88zM434 907c-12 -60 -38 -120 -104 -120c-45 0 -67 37 -90 63c-13 14 -25 25 -43 25c-40 0 -60 -58 -66 -88h-31c13 60 42 120 109 120c31 0 51 -19 69 -40c20 -23 37 -48 63 -48c41 0 56 57 64 88h29z
" />
    <glyph glyph-name="Itilde.alt" horiz-adv-x="223" 
d="M76 0h-36l147 727h36zM391 906c-12 -60 -38 -120 -104 -120c-45 0 -67 37 -90 63c-13 14 -25 25 -43 25c-40 0 -60 -58 -66 -88h-31c13 60 42 120 109 120c31 0 51 -19 69 -40c20 -23 37 -48 63 -48c41 0 56 57 64 88h29z" />
    <glyph glyph-name="J" unicode="J" horiz-adv-x="377" 
d="M266 160c-21 -102 -65 -175 -183 -175c-39 0 -79 13 -103 27l20 31c15 -10 46 -24 86 -24c93 0 125 51 146 154l107 523h-25c-84 0 -135 -15 -192 -54l-17 27c55 39 117 58 208 58h68z" />
    <glyph glyph-name="J.alt" horiz-adv-x="246" 
d="M95 -18c-21 -102 -65 -175 -183 -175c-39 0 -79 13 -103 27l20 31c15 -10 46 -24 86 -24c93 0 125 51 146 154l149 732h36z" />
    <glyph glyph-name="Jcircumflex" unicode="&#x134;" horiz-adv-x="377" 
d="M266 160c-21 -102 -65 -175 -183 -175c-39 0 -79 13 -103 27l20 31c15 -10 46 -24 86 -24c93 0 125 51 146 154l107 523h-25c-84 0 -135 -15 -192 -54l-17 27c55 39 117 58 208 58h68zM406 780h-28l-76 134l-132 -134h-30l149 176h42z" />
    <glyph glyph-name="Jcircumflex.alt" horiz-adv-x="246" 
d="M95 -18c-21 -102 -65 -175 -183 -175c-39 0 -79 13 -103 27l20 31c15 -10 46 -24 86 -24c93 0 125 51 146 154l149 732h36zM369 781h-28l-76 134l-132 -134h-30l149 176h42z" />
    <glyph glyph-name="K" unicode="K" horiz-adv-x="608" 
d="M633 727l-290 -275l189 -452h-41l-175 427l-190 -180l-50 -247h-36l147 727h36l-87 -429l449 429h48z" />
    <glyph glyph-name="Kcommaaccent" unicode="&#x136;" horiz-adv-x="608" 
d="M633 727l-290 -275l189 -452h-41l-175 427l-190 -180l-50 -247h-36l147 727h36l-87 -429l449 429h48zM225 -68c0 22 13 39 40 39c26 0 36 -15 36 -33c0 -49 -37 -112 -55 -131h-32c23 26 38 62 42 94c-18 0 -31 8 -31 31z" />
    <glyph glyph-name="L" unicode="L" horiz-adv-x="496" 
d="M435 0h-395l147 727h36l-141 -693h359z" />
    <glyph glyph-name="Lacute" unicode="&#x139;" horiz-adv-x="496" 
d="M435 0h-395l147 727h36l-141 -693h359zM404 956l-175 -176h-35l149 176h61z" />
    <glyph glyph-name="Lcaron" unicode="&#x13d;" horiz-adv-x="496" 
d="M435 0h-395l147 727h36l-141 -693h359zM354 688c0 22 13 39 40 39c24 0 36 -15 36 -36c0 -49 -35 -120 -79 -171h-32c23 26 60 88 66 137c-18 0 -31 8 -31 31z" />
    <glyph glyph-name="Lcommaaccent" unicode="&#x13b;" horiz-adv-x="496" 
d="M435 0h-395l147 727h36l-141 -693h359zM219 -68c0 22 13 39 40 39c26 0 36 -15 36 -33c0 -49 -37 -112 -55 -131h-32c23 26 38 62 42 94c-18 0 -31 8 -31 31z" />
    <glyph glyph-name="Ldot" unicode="&#x13f;" horiz-adv-x="496" 
d="M435 0h-395l147 727h36l-141 -693h359zM402 328c0 -27 -12 -44 -46 -44c-19 0 -33 8 -33 25c0 29 14 45 46 45c18 0 33 -7 33 -26z" />
    <glyph glyph-name="Lslash" unicode="&#x141;" horiz-adv-x="496" 
d="M435 0h-395l61 304l-96 -66l7 43l98 67l77 379h36l-71 -350l164 113l-7 -43l-166 -114l-61 -299h359z" />
    <glyph glyph-name="M" unicode="M" horiz-adv-x="800" 
d="M653 0h-36l140 688l-355 -467h-35l-152 466l-139 -687h-36l147 727h53l152 -466l353 466h55z" />
    <glyph glyph-name="N" unicode="N" horiz-adv-x="672" 
d="M525 0h-50l-261 679l-138 -679h-36l147 727h46l264 -686l139 686h36z" />
    <glyph glyph-name="Nacute" unicode="&#x143;" horiz-adv-x="672" 
d="M525 0h-50l-261 679l-138 -679h-36l147 727h46l264 -686l139 686h36zM561 956l-175 -176h-35l149 176h61z" />
    <glyph glyph-name="Ncaron" unicode="&#x147;" horiz-adv-x="672" 
d="M525 0h-50l-261 679l-138 -679h-36l147 727h46l264 -686l139 686h36zM606 956l-146 -176h-42l-78 176h27l79 -134l129 134h31z" />
    <glyph glyph-name="Ncommaaccent" unicode="&#x145;" horiz-adv-x="672" 
d="M525 0h-50l-261 679l-138 -679h-36l147 727h46l264 -686l139 686h36zM257 -68c0 22 13 39 40 39c26 0 36 -15 36 -33c0 -49 -37 -112 -55 -131h-32c23 26 38 62 42 94c-18 0 -31 8 -31 31z" />
    <glyph glyph-name="Ntilde" unicode="&#xd1;" horiz-adv-x="672" 
d="M525 0h-50l-261 679l-138 -679h-36l147 727h46l264 -686l139 686h36zM615 907c-12 -60 -38 -120 -104 -120c-45 0 -67 37 -90 63c-13 14 -25 25 -43 25c-40 0 -60 -58 -66 -88h-31c13 60 42 120 109 120c31 0 51 -19 69 -40c20 -23 37 -48 63 -48c41 0 56 57 64 88h29z
" />
    <glyph glyph-name="O" unicode="O" horiz-adv-x="732" 
d="M697 458c0 -142 -48 -287 -128 -369c-62 -64 -142 -104 -248 -104c-175 0 -256 129 -256 280c0 138 42 281 132 375c59 61 141 102 241 102c187 0 259 -135 259 -284zM329 20c92 0 157 35 209 87c76 76 120 207 120 351c0 131 -60 249 -225 249c-79 0 -154 -31 -209 -91
c-75 -82 -121 -203 -121 -347c0 -140 75 -249 226 -249z" />
    <glyph glyph-name="OE" unicode="&#x152;" horiz-adv-x="943" 
d="M816 0h-395c-37 -10 -61 -15 -104 -15c-171 0 -252 127 -252 276c0 229 105 481 383 481c43 0 89 -6 118 -15h397l-6 -34h-333l-59 -288h301l-7 -34h-301l-69 -337h333zM455 42l131 643c-32 11 -83 23 -144 23c-218 0 -339 -197 -339 -443c0 -130 70 -246 219 -246
c48 0 93 10 133 23z" />
    <glyph glyph-name="Oacute" unicode="&#xd3;" horiz-adv-x="732" 
d="M697 458c0 -142 -48 -287 -128 -369c-62 -64 -142 -104 -248 -104c-175 0 -256 129 -256 280c0 138 42 281 132 375c59 61 141 102 241 102c187 0 259 -135 259 -284zM329 20c92 0 157 35 209 87c76 76 120 207 120 351c0 131 -60 249 -225 249c-79 0 -154 -31 -209 -91
c-75 -82 -121 -203 -121 -347c0 -140 75 -249 226 -249zM587 956l-175 -176h-35l149 176h61z" />
    <glyph glyph-name="Obreve" unicode="&#x14e;" horiz-adv-x="732" 
d="M697 458c0 -142 -48 -287 -128 -369c-62 -64 -142 -104 -248 -104c-175 0 -256 129 -256 280c0 138 42 281 132 375c59 61 141 102 241 102c187 0 259 -135 259 -284zM329 20c92 0 157 35 209 87c76 76 120 207 120 351c0 131 -60 249 -225 249c-79 0 -154 -31 -209 -91
c-75 -82 -121 -203 -121 -347c0 -140 75 -249 226 -249zM598 918c-36 -81 -87 -138 -165 -138c-80 0 -101 84 -101 138h25c9 -55 28 -90 86 -90c59 0 97 37 124 90h31z" />
    <glyph glyph-name="Ocircumflex" unicode="&#xd4;" horiz-adv-x="732" 
d="M697 458c0 -142 -48 -287 -128 -369c-62 -64 -142 -104 -248 -104c-175 0 -256 129 -256 280c0 138 42 281 132 375c59 61 141 102 241 102c187 0 259 -135 259 -284zM329 20c92 0 157 35 209 87c76 76 120 207 120 351c0 131 -60 249 -225 249c-79 0 -154 -31 -209 -91
c-75 -82 -121 -203 -121 -347c0 -140 75 -249 226 -249zM565 780h-28l-76 134l-132 -134h-30l149 176h42z" />
    <glyph glyph-name="Odieresis" unicode="&#xd6;" horiz-adv-x="732" 
d="M697 458c0 -142 -48 -287 -128 -369c-62 -64 -142 -104 -248 -104c-175 0 -256 129 -256 280c0 138 42 281 132 375c59 61 141 102 241 102c187 0 259 -135 259 -284zM329 20c92 0 157 35 209 87c76 76 120 207 120 351c0 131 -60 249 -225 249c-79 0 -154 -31 -209 -91
c-75 -82 -121 -203 -121 -347c0 -140 75 -249 226 -249zM407 822c0 -28 -15 -42 -40 -42c-21 0 -31 8 -31 27c0 27 14 41 40 41c21 0 31 -9 31 -26zM568 822c0 -28 -15 -42 -40 -42c-21 0 -31 8 -31 27c0 27 14 41 40 41c21 0 31 -9 31 -26z" />
    <glyph glyph-name="Ograve" unicode="&#xd2;" horiz-adv-x="732" 
d="M697 458c0 -142 -48 -287 -128 -369c-62 -64 -142 -104 -248 -104c-175 0 -256 129 -256 280c0 138 42 281 132 375c59 61 141 102 241 102c187 0 259 -135 259 -284zM329 20c92 0 157 35 209 87c76 76 120 207 120 351c0 131 -60 249 -225 249c-79 0 -154 -31 -209 -91
c-75 -82 -121 -203 -121 -347c0 -140 75 -249 226 -249zM521 780h-30l-107 176h56z" />
    <glyph glyph-name="Ohungarumlaut" unicode="&#x150;" horiz-adv-x="732" 
d="M697 458c0 -142 -48 -287 -128 -369c-62 -64 -142 -104 -248 -104c-175 0 -256 129 -256 280c0 138 42 281 132 375c59 61 141 102 241 102c187 0 259 -135 259 -284zM329 20c92 0 157 35 209 87c76 76 120 207 120 351c0 131 -60 249 -225 249c-79 0 -154 -31 -209 -91
c-75 -82 -121 -203 -121 -347c0 -140 75 -249 226 -249zM689 956l-177 -176h-33l151 176h59zM518 956l-176 -176h-33l150 176h59z" />
    <glyph glyph-name="Omacron" unicode="&#x14c;" horiz-adv-x="732" 
d="M697 458c0 -142 -48 -287 -128 -369c-62 -64 -142 -104 -248 -104c-175 0 -256 129 -256 280c0 138 42 281 132 375c59 61 141 102 241 102c187 0 259 -135 259 -284zM329 20c92 0 157 35 209 87c76 76 120 207 120 351c0 131 -60 249 -225 249c-79 0 -154 -31 -209 -91
c-75 -82 -121 -203 -121 -347c0 -140 75 -249 226 -249zM594 788h-282l9 43h282z" />
    <glyph glyph-name="Omega" unicode="&#x2126;" horiz-adv-x="736" 
d="M369 693c-168 0 -279 -127 -279 -307c0 -197 113 -288 188 -348v-38h-225v32h180c-89 65 -181 169 -181 350c0 203 127 345 316 345s315 -142 315 -345c0 -181 -92 -285 -181 -350h180v-32h-225v38c75 60 188 151 188 348c0 180 -113 307 -276 307z" />
    <glyph glyph-name="Oslash" unicode="&#xd8;" horiz-adv-x="732" 
d="M697 462c0 -230 -101 -477 -378 -477c-81 0 -141 27 -182 71l-98 -112h-45l121 139c-34 49 -50 113 -50 182c0 228 112 477 375 477c84 0 145 -29 187 -75l84 97h46l-109 -124c34 -50 49 -113 49 -178zM103 269c0 -59 12 -113 39 -156l460 526c-36 42 -91 69 -169 69
c-200 0 -330 -193 -330 -439zM326 19c220 0 332 193 332 439c0 55 -11 109 -36 152l-459 -525c37 -41 91 -66 163 -66z" />
    <glyph glyph-name="Oslashacute" unicode="&#x1fe;" horiz-adv-x="732" 
d="M697 462c0 -230 -101 -477 -378 -477c-81 0 -141 27 -182 71l-98 -112h-45l121 139c-34 49 -50 113 -50 182c0 228 112 477 375 477c84 0 145 -29 187 -75l84 97h46l-109 -124c34 -50 49 -113 49 -178zM103 269c0 -59 12 -113 39 -156l460 526c-36 42 -91 69 -169 69
c-200 0 -330 -193 -330 -439zM326 19c220 0 332 193 332 439c0 55 -11 109 -36 152l-459 -525c37 -41 91 -66 163 -66zM582 956l-175 -176h-35l149 176h61z" />
    <glyph glyph-name="Otilde" unicode="&#xd5;" horiz-adv-x="732" 
d="M697 458c0 -142 -48 -287 -128 -369c-62 -64 -142 -104 -248 -104c-175 0 -256 129 -256 280c0 138 42 281 132 375c59 61 141 102 241 102c187 0 259 -135 259 -284zM329 20c92 0 157 35 209 87c76 76 120 207 120 351c0 131 -60 249 -225 249c-79 0 -154 -31 -209 -91
c-75 -82 -121 -203 -121 -347c0 -140 75 -249 226 -249zM617 907c-12 -60 -38 -120 -104 -120c-45 0 -67 37 -90 63c-13 14 -25 25 -43 25c-40 0 -60 -58 -66 -88h-31c13 60 42 120 109 120c31 0 51 -19 69 -40c20 -23 37 -48 63 -48c41 0 56 57 64 88h29z" />
    <glyph glyph-name="P" unicode="P" horiz-adv-x="586" 
d="M586 549c0 -187 -147 -237 -329 -237h-118l-63 -312h-36l147 727h176c83 0 144 -20 178 -57c26 -28 45 -67 45 -121zM146 345h72c175 0 329 19 329 201c0 46 -15 80 -41 105c-31 30 -81 43 -154 43h-135z" />
    <glyph glyph-name="Q" unicode="Q" horiz-adv-x="732" 
d="M697 458c0 -142 -48 -287 -128 -369c-61 -63 -139 -102 -243 -104c-6 -15 -10 -28 -10 -41c0 -45 39 -61 137 -61c44 0 98 10 123 17l3 -34c-26 -8 -85 -16 -142 -16c-103 0 -161 23 -161 85c0 15 4 34 13 52c-153 14 -224 136 -224 278c0 138 42 281 132 375
c59 61 141 102 241 102c187 0 259 -135 259 -284zM329 20c92 0 157 35 209 87c76 76 120 207 120 351c0 131 -60 249 -225 249c-79 0 -154 -31 -209 -91c-75 -82 -121 -203 -121 -347c0 -140 75 -249 226 -249z" />
    <glyph glyph-name="R" unicode="R" horiz-adv-x="632" 
d="M519 0h-38l-13 215c-4 70 -22 106 -99 106h-228l-65 -321h-36l147 727h195c70 0 141 -15 181 -54c28 -28 44 -64 44 -115c0 -99 -47 -181 -174 -217c53 -14 65 -55 68 -97zM147 354h153c152 0 268 50 268 200c0 48 -14 76 -37 97c-35 33 -93 43 -153 43h-161z" />
    <glyph glyph-name="Racute" unicode="&#x154;" horiz-adv-x="632" 
d="M519 0h-38l-13 215c-4 70 -22 106 -99 106h-228l-65 -321h-36l147 727h195c70 0 141 -15 181 -54c28 -28 44 -64 44 -115c0 -99 -47 -181 -174 -217c53 -14 65 -55 68 -97zM147 354h153c152 0 268 50 268 200c0 48 -14 76 -37 97c-35 33 -93 43 -153 43h-161zM521 956
l-175 -176h-35l149 176h61z" />
    <glyph glyph-name="Rcaron" unicode="&#x158;" horiz-adv-x="632" 
d="M519 0h-38l-13 215c-4 70 -22 106 -99 106h-228l-65 -321h-36l147 727h195c70 0 141 -15 181 -54c28 -28 44 -64 44 -115c0 -99 -47 -181 -174 -217c53 -14 65 -55 68 -97zM147 354h153c152 0 268 50 268 200c0 48 -14 76 -37 97c-35 33 -93 43 -153 43h-161zM543 956
l-146 -176h-42l-78 176h27l79 -134l129 134h31z" />
    <glyph glyph-name="Rcommaaccent" unicode="&#x156;" horiz-adv-x="632" 
d="M519 0h-38l-13 215c-4 70 -22 106 -99 106h-228l-65 -321h-36l147 727h195c70 0 141 -15 181 -54c28 -28 44 -64 44 -115c0 -99 -47 -181 -174 -217c53 -14 65 -55 68 -97zM147 354h153c152 0 268 50 268 200c0 48 -14 76 -37 97c-35 33 -93 43 -153 43h-161zM237 -68
c0 22 13 39 40 39c26 0 36 -15 36 -33c0 -49 -37 -112 -55 -131h-32c23 26 38 62 42 94c-18 0 -31 8 -31 31z" />
    <glyph glyph-name="S" unicode="S" horiz-adv-x="606" 
d="M528 213c0 -145 -112 -228 -256 -228c-146 0 -223 77 -249 143l33 18c31 -68 100 -128 223 -128c110 0 209 60 209 191c0 95 -72 127 -176 161c-97 32 -193 71 -193 174c0 127 110 198 242 198c129 0 198 -66 227 -137l-33 -17c-31 70 -92 121 -194 121
c-124 0 -204 -64 -204 -161c0 -82 76 -113 166 -143c101 -34 205 -78 205 -192z" />
    <glyph glyph-name="Sacute" unicode="&#x15a;" horiz-adv-x="606" 
d="M528 213c0 -145 -112 -228 -256 -228c-146 0 -223 77 -249 143l33 18c31 -68 100 -128 223 -128c110 0 209 60 209 191c0 95 -72 127 -176 161c-97 32 -193 71 -193 174c0 127 110 198 242 198c129 0 198 -66 227 -137l-33 -17c-31 70 -92 121 -194 121
c-124 0 -204 -64 -204 -161c0 -82 76 -113 166 -143c101 -34 205 -78 205 -192zM500 956l-175 -176h-35l149 176h61z" />
    <glyph glyph-name="Scaron" unicode="&#x160;" horiz-adv-x="606" 
d="M528 213c0 -145 -112 -228 -256 -228c-146 0 -223 77 -249 143l33 18c31 -68 100 -128 223 -128c110 0 209 60 209 191c0 95 -72 127 -176 161c-97 32 -193 71 -193 174c0 127 110 198 242 198c129 0 198 -66 227 -137l-33 -17c-31 70 -92 121 -194 121
c-124 0 -204 -64 -204 -161c0 -82 76 -113 166 -143c101 -34 205 -78 205 -192zM531 956l-146 -176h-42l-78 176h27l79 -134l129 134h31z" />
    <glyph glyph-name="Scedilla" unicode="&#x15e;" horiz-adv-x="606" 
d="M327 -84c0 -69 -63 -109 -136 -109c-36 0 -76 11 -99 19l17 30c34 -15 64 -20 94 -20c44 0 90 24 90 74c0 37 -41 54 -79 54l15 23c-118 13 -183 82 -206 141l33 18c31 -68 100 -128 223 -128c110 0 209 60 209 191c0 95 -72 127 -176 161c-97 32 -193 71 -193 174
c0 127 110 198 242 198c129 0 198 -66 227 -137l-33 -17c-31 70 -92 121 -194 121c-124 0 -204 -64 -204 -161c0 -82 76 -113 166 -143c101 -34 205 -78 205 -192c0 -145 -112 -228 -256 -228h-16c56 -11 71 -41 71 -69z" />
    <glyph glyph-name="Scircumflex" unicode="&#x15c;" horiz-adv-x="606" 
d="M528 213c0 -145 -112 -228 -256 -228c-146 0 -223 77 -249 143l33 18c31 -68 100 -128 223 -128c110 0 209 60 209 191c0 95 -72 127 -176 161c-97 32 -193 71 -193 174c0 127 110 198 242 198c129 0 198 -66 227 -137l-33 -17c-31 70 -92 121 -194 121
c-124 0 -204 -64 -204 -161c0 -82 76 -113 166 -143c101 -34 205 -78 205 -192zM509 780h-28l-76 134l-132 -134h-30l149 176h42z" />
    <glyph glyph-name="Scommaaccent" unicode="&#x218;" horiz-adv-x="615" 
d="M528 213c0 -145 -112 -228 -256 -228c-146 0 -223 77 -249 143l33 18c31 -68 100 -128 223 -128c110 0 209 60 209 191c0 95 -72 127 -176 161c-97 32 -193 71 -193 174c0 127 110 198 242 198c129 0 198 -66 227 -137l-33 -17c-31 70 -92 121 -194 121
c-124 0 -204 -64 -204 -161c0 -82 76 -113 166 -143c101 -34 205 -78 205 -192zM229 -68c0 22 13 39 40 39c26 0 36 -15 36 -33c0 -49 -37 -112 -55 -131h-32c23 26 38 62 42 94c-18 0 -31 8 -31 31z" />
    <glyph glyph-name="T" unicode="T" horiz-adv-x="527" 
d="M609 693h-244l-141 -693h-36l141 693h-244l6 34h524z" />
    <glyph glyph-name="Tbar" unicode="&#x166;" horiz-adv-x="527" 
d="M609 693h-244l-59 -287h156l-7 -34h-156l-75 -372h-36l75 372h-151l7 34h151l59 287h-244l6 34h524z" />
    <glyph glyph-name="Tcaron" unicode="&#x164;" horiz-adv-x="527" 
d="M609 693h-244l-141 -693h-36l141 693h-244l6 34h524zM518 956l-146 -176h-42l-78 176h27l79 -134l129 134h31z" />
    <glyph glyph-name="Thorn" unicode="&#xde;" horiz-adv-x="586" 
d="M557 419c0 -168 -113 -241 -299 -241h-146l-36 -178h-36l147 727h36l-29 -143h144c122 0 219 -52 219 -165zM237 211c161 0 281 40 281 202c0 93 -65 138 -190 138h-140l-70 -340h119z" />
    <glyph glyph-name="U" unicode="U" horiz-adv-x="662" 
d="M576 278c-42 -204 -120 -293 -292 -293c-159 0 -205 79 -205 186c0 38 6 80 15 122l88 434h36l-86 -424c-10 -47 -17 -91 -17 -131c0 -89 37 -153 173 -153c161 0 217 92 253 267l90 441h36z" />
    <glyph glyph-name="Uacute" unicode="&#xda;" horiz-adv-x="662" 
d="M576 278c-42 -204 -120 -293 -292 -293c-159 0 -205 79 -205 186c0 38 6 80 15 122l88 434h36l-86 -424c-10 -47 -17 -91 -17 -131c0 -89 37 -153 173 -153c161 0 217 92 253 267l90 441h36zM583 956l-175 -176h-35l149 176h61z" />
    <glyph glyph-name="Ubreve" unicode="&#x16c;" horiz-adv-x="662" 
d="M576 278c-42 -204 -120 -293 -292 -293c-159 0 -205 79 -205 186c0 38 6 80 15 122l88 434h36l-86 -424c-10 -47 -17 -91 -17 -131c0 -89 37 -153 173 -153c161 0 217 92 253 267l90 441h36zM587 918c-36 -81 -87 -138 -165 -138c-80 0 -101 84 -101 138h25
c9 -55 28 -90 86 -90c59 0 97 37 124 90h31z" />
    <glyph glyph-name="Ucircumflex" unicode="&#xdb;" horiz-adv-x="662" 
d="M576 278c-42 -204 -120 -293 -292 -293c-159 0 -205 79 -205 186c0 38 6 80 15 122l88 434h36l-86 -424c-10 -47 -17 -91 -17 -131c0 -89 37 -153 173 -153c161 0 217 92 253 267l90 441h36zM564 780h-28l-76 134l-132 -134h-30l149 176h42z" />
    <glyph glyph-name="Udieresis" unicode="&#xdc;" horiz-adv-x="662" 
d="M576 278c-42 -204 -120 -293 -292 -293c-159 0 -205 79 -205 186c0 38 6 80 15 122l88 434h36l-86 -424c-10 -47 -17 -91 -17 -131c0 -89 37 -153 173 -153c161 0 217 92 253 267l90 441h36zM397 822c0 -28 -15 -42 -40 -42c-21 0 -31 8 -31 27c0 27 14 41 40 41
c21 0 31 -9 31 -26zM558 822c0 -28 -15 -42 -40 -42c-21 0 -31 8 -31 27c0 27 14 41 40 41c21 0 31 -9 31 -26z" />
    <glyph glyph-name="Ugrave" unicode="&#xd9;" horiz-adv-x="662" 
d="M576 278c-42 -204 -120 -293 -292 -293c-159 0 -205 79 -205 186c0 38 6 80 15 122l88 434h36l-86 -424c-10 -47 -17 -91 -17 -131c0 -89 37 -153 173 -153c161 0 217 92 253 267l90 441h36zM497 780h-30l-107 176h56z" />
    <glyph glyph-name="Uhungarumlaut" unicode="&#x170;" horiz-adv-x="662" 
d="M576 278c-42 -204 -120 -293 -292 -293c-159 0 -205 79 -205 186c0 38 6 80 15 122l88 434h36l-86 -424c-10 -47 -17 -91 -17 -131c0 -89 37 -153 173 -153c161 0 217 92 253 267l90 441h36zM678 956l-177 -176h-33l151 176h59zM507 956l-176 -176h-33l150 176h59z" />
    <glyph glyph-name="Umacron" unicode="&#x16a;" horiz-adv-x="662" 
d="M576 278c-42 -204 -120 -293 -292 -293c-159 0 -205 79 -205 186c0 38 6 80 15 122l88 434h36l-86 -424c-10 -47 -17 -91 -17 -131c0 -89 37 -153 173 -153c161 0 217 92 253 267l90 441h36zM580 788h-282l9 43h282z" />
    <glyph glyph-name="Uogonek" unicode="&#x172;" horiz-adv-x="662" 
d="M576 278c-41 -199 -117 -289 -280 -293c-15 -28 -27 -59 -27 -96c0 -36 21 -49 61 -49c30 0 65 14 88 23l7 -25c-27 -15 -67 -31 -111 -31c-58 0 -83 32 -83 76c0 36 14 71 31 103c-141 7 -183 83 -183 185c0 38 6 80 15 122l88 434h36l-86 -424
c-10 -47 -17 -91 -17 -131c0 -89 37 -153 173 -153c161 0 217 92 253 267l90 441h36z" />
    <glyph glyph-name="Uring" unicode="&#x16e;" horiz-adv-x="662" 
d="M537 828c0 -70 -43 -126 -118 -126c-55 0 -78 34 -78 77c0 67 38 126 114 126c56 0 82 -29 82 -77zM422 729c52 0 84 38 84 97c0 33 -18 54 -56 54c-49 0 -76 -38 -76 -97c0 -34 14 -54 48 -54zM576 278c-42 -204 -120 -293 -292 -293c-159 0 -205 79 -205 186
c0 38 6 80 15 122l88 434h36l-86 -424c-10 -47 -17 -91 -17 -131c0 -89 37 -153 173 -153c161 0 217 92 253 267l90 441h36z" />
    <glyph glyph-name="Utilde" unicode="&#x168;" horiz-adv-x="662" 
d="M576 278c-42 -204 -120 -293 -292 -293c-159 0 -205 79 -205 186c0 38 6 80 15 122l88 434h36l-86 -424c-10 -47 -17 -91 -17 -131c0 -89 37 -153 173 -153c161 0 217 92 253 267l90 441h36zM607 903c-12 -60 -38 -120 -104 -120c-45 0 -67 37 -90 63
c-13 14 -25 25 -43 25c-40 0 -60 -58 -66 -88h-31c13 60 42 120 109 120c31 0 51 -19 69 -40c20 -23 37 -48 63 -48c41 0 56 57 64 88h29z" />
    <glyph glyph-name="V" unicode="V" horiz-adv-x="573" 
d="M653 727l-398 -727h-47l-103 727h37l95 -690l377 690h39z" />
    <glyph glyph-name="W" unicode="W" horiz-adv-x="859" 
d="M929 727l-330 -727h-52l-75 496l-281 -496h-51l-25 727h36l23 -691l279 494h51l74 -493l314 690h37z" />
    <glyph glyph-name="Wacute" unicode="&#x1e82;" horiz-adv-x="859" 
d="M929 727l-330 -727h-52l-75 496l-281 -496h-51l-25 727h36l23 -691l279 494h51l74 -493l314 690h37zM645 956l-175 -176h-35l149 176h61z" />
    <glyph glyph-name="Wcircumflex" unicode="&#x174;" horiz-adv-x="859" 
d="M929 727l-330 -727h-52l-75 496l-281 -496h-51l-25 727h36l23 -691l279 494h51l74 -493l314 690h37zM653 780h-28l-76 134l-132 -134h-30l149 176h42z" />
    <glyph glyph-name="Wdieresis" unicode="&#x1e84;" horiz-adv-x="859" 
d="M929 727l-330 -727h-52l-75 496l-281 -496h-51l-25 727h36l23 -691l279 494h51l74 -493l314 690h37zM482 822c0 -28 -15 -42 -40 -42c-21 0 -31 8 -31 27c0 27 14 41 40 41c21 0 31 -9 31 -26zM643 822c0 -28 -15 -42 -40 -42c-21 0 -31 8 -31 27c0 27 14 41 40 41
c21 0 31 -9 31 -26z" />
    <glyph glyph-name="Wgrave" unicode="&#x1e80;" horiz-adv-x="859" 
d="M929 727l-330 -727h-52l-75 496l-281 -496h-51l-25 727h36l23 -691l279 494h51l74 -493l314 690h37zM581 780h-30l-107 176h56z" />
    <glyph glyph-name="X" unicode="X" horiz-adv-x="579" 
d="M-32 0l314 370l-165 357h40l151 -327l277 327h45l-306 -361l170 -366h-40l-156 336l-285 -336h-45z" />
    <glyph glyph-name="Y" unicode="Y" horiz-adv-x="557" 
d="M631 727l-345 -429l-60 -298h-36l60 297l-174 430h38l159 -391l315 391h43z" />
    <glyph glyph-name="Yacute" unicode="&#xdd;" horiz-adv-x="557" 
d="M631 727l-345 -429l-60 -298h-36l60 297l-174 430h38l159 -391l315 391h43zM514 956l-175 -176h-35l149 176h61z" />
    <glyph glyph-name="Ycircumflex" unicode="&#x176;" horiz-adv-x="557" 
d="M631 727l-345 -429l-60 -298h-36l60 297l-174 430h38l159 -391l315 391h43zM497 780h-28l-76 134l-132 -134h-30l149 176h42z" />
    <glyph glyph-name="Ydieresis" unicode="&#x178;" horiz-adv-x="557" 
d="M631 727l-345 -429l-60 -298h-36l60 297l-174 430h38l159 -391l315 391h43zM321 822c0 -28 -15 -42 -40 -42c-21 0 -31 8 -31 27c0 27 14 41 40 41c21 0 31 -9 31 -26zM482 822c0 -28 -15 -42 -40 -42c-21 0 -31 8 -31 27c0 27 14 41 40 41c21 0 31 -9 31 -26z" />
    <glyph glyph-name="Ygrave" unicode="&#x1ef2;" horiz-adv-x="557" 
d="M631 727l-345 -429l-60 -298h-36l60 297l-174 430h38l159 -391l315 391h43zM416 780h-30l-107 176h56z" />
    <glyph glyph-name="Z" unicode="Z" horiz-adv-x="554" 
d="M465 0h-481l5 27l553 666h-401l6 34h455l-3 -18l-559 -675h431z" />
    <glyph glyph-name="Zacute" unicode="&#x179;" horiz-adv-x="554" 
d="M465 0h-481l5 27l553 666h-401l6 34h455l-3 -18l-559 -675h431zM505 956l-175 -176h-35l149 176h61z" />
    <glyph glyph-name="Zcaron" unicode="&#x17d;" horiz-adv-x="554" 
d="M465 0h-481l5 27l553 666h-401l6 34h455l-3 -18l-559 -675h431zM538 956l-146 -176h-42l-78 176h27l79 -134l129 134h31z" />
    <glyph glyph-name="Zdotaccent" unicode="&#x17b;" horiz-adv-x="554" 
d="M465 0h-481l5 27l553 666h-401l6 34h455l-3 -18l-559 -675h431zM409 822c0 -28 -14 -42 -39 -42c-19 0 -29 7 -29 28c0 27 14 41 39 41c21 0 29 -8 29 -27z" />
    <glyph glyph-name="a" unicode="a" horiz-adv-x="541" 
d="M506 503l-101 -503h-27l13 87c-51 -56 -112 -102 -186 -102c-111 0 -161 90 -161 200c0 150 87 333 271 333c69 0 118 -17 155 -32l23 17h13zM463 455c-45 18 -84 32 -148 32c-149 0 -235 -152 -235 -302c0 -107 45 -168 130 -168c68 0 128 48 187 115z" />
    <glyph glyph-name="a.superior" unicode="&#xf6e9;" horiz-adv-x="422" 
d="M453 680l-79 -385h-21l6 65c-41 -42 -90 -76 -150 -76c-86 0 -124 71 -124 152c0 121 73 255 214 255c55 0 91 -13 120 -24l25 13h9zM368 398l49 244c-33 13 -67 23 -117 23c-115 0 -187 -110 -187 -229c0 -69 33 -126 100 -126c54 0 105 36 155 88z" />
    <glyph glyph-name="aacute" unicode="&#xe1;" horiz-adv-x="541" 
d="M506 503l-101 -503h-27l13 87c-51 -56 -112 -102 -186 -102c-111 0 -161 90 -161 200c0 150 87 333 271 333c69 0 118 -17 155 -32l23 17h13zM463 455c-45 18 -84 32 -148 32c-149 0 -235 -152 -235 -302c0 -107 45 -168 130 -168c68 0 128 48 187 115zM507 766
l-175 -176h-35l149 176h61z" />
    <glyph glyph-name="abreve" unicode="&#x103;" horiz-adv-x="541" 
d="M506 503l-101 -503h-27l13 87c-51 -56 -112 -102 -186 -102c-111 0 -161 90 -161 200c0 150 87 333 271 333c69 0 118 -17 155 -32l23 17h13zM463 455c-45 18 -84 32 -148 32c-149 0 -235 -152 -235 -302c0 -107 45 -168 130 -168c68 0 128 48 187 115zM486 747
c-36 -81 -87 -138 -165 -138c-80 0 -101 84 -101 138h25c9 -55 28 -90 86 -90c59 0 97 37 124 90h31z" />
    <glyph glyph-name="acircumflex" unicode="&#xe2;" horiz-adv-x="541" 
d="M506 503l-101 -503h-27l13 87c-51 -56 -112 -102 -186 -102c-111 0 -161 90 -161 200c0 150 87 333 271 333c69 0 118 -17 155 -32l23 17h13zM463 455c-45 18 -84 32 -148 32c-149 0 -235 -152 -235 -302c0 -107 45 -168 130 -168c68 0 128 48 187 115zM475 590h-28
l-76 134l-132 -134h-30l149 176h42z" />
    <glyph glyph-name="acute" unicode="&#xb4;" horiz-adv-x="500" 
d="M397 766l-175 -176h-35l149 176h61z" />
    <glyph glyph-name="adieresis" unicode="&#xe4;" horiz-adv-x="541" 
d="M506 503l-101 -503h-27l13 87c-51 -56 -112 -102 -186 -102c-111 0 -161 90 -161 200c0 150 87 333 271 333c69 0 118 -17 155 -32l23 17h13zM463 455c-45 18 -84 32 -148 32c-149 0 -235 -152 -235 -302c0 -107 45 -168 130 -168c68 0 128 48 187 115zM293 649
c0 -28 -15 -42 -40 -42c-21 0 -31 8 -31 27c0 27 14 41 40 41c21 0 31 -9 31 -26zM454 649c0 -28 -15 -42 -40 -42c-21 0 -31 8 -31 27c0 27 14 41 40 41c21 0 31 -9 31 -26z" />
    <glyph glyph-name="ae" unicode="&#xe6;" horiz-adv-x="860" 
d="M506 503l-20 -96c47 68 116 111 206 111c116 0 153 -60 153 -117c0 -101 -73 -152 -296 -166l-97 -6c-1 -15 -2 -30 -2 -46c0 -100 48 -166 152 -166c50 0 88 14 133 46l18 -27c-34 -26 -86 -51 -158 -51c-82 0 -146 46 -168 127l-22 -112h-27l13 87
c-51 -56 -112 -102 -186 -102c-111 0 -161 90 -161 200c0 150 87 333 271 333c69 0 118 -17 155 -32l23 17h13zM463 455c-45 18 -84 32 -148 32c-149 0 -235 -152 -235 -302c0 -107 45 -168 130 -168c68 0 128 48 187 115zM809 397c0 41 -22 90 -123 90
c-117 0 -200 -94 -227 -217l-2 -12l80 5c200 12 272 46 272 134z" />
    <glyph glyph-name="aeacute" unicode="&#x1fd;" horiz-adv-x="860" 
d="M766 766l-175 -176h-35l149 176h61zM506 503l-20 -96c47 68 116 111 206 111c116 0 153 -60 153 -117c0 -101 -73 -152 -296 -166l-97 -6c-1 -15 -2 -30 -2 -46c0 -100 48 -166 152 -166c50 0 88 14 133 46l18 -27c-34 -26 -86 -51 -158 -51c-82 0 -146 46 -168 127
l-22 -112h-27l13 87c-51 -56 -112 -102 -186 -102c-111 0 -161 90 -161 200c0 150 87 333 271 333c69 0 118 -17 155 -32l23 17h13zM463 455c-45 18 -84 32 -148 32c-149 0 -235 -152 -235 -302c0 -107 45 -168 130 -168c68 0 128 48 187 115zM809 397c0 41 -22 90 -123 90
c-117 0 -200 -94 -227 -217l-2 -12l80 5c200 12 272 46 272 134z" />
    <glyph glyph-name="agrave" unicode="&#xe0;" horiz-adv-x="541" 
d="M506 503l-101 -503h-27l13 87c-51 -56 -112 -102 -186 -102c-111 0 -161 90 -161 200c0 150 87 333 271 333c69 0 118 -17 155 -32l23 17h13zM463 455c-45 18 -84 32 -148 32c-149 0 -235 -152 -235 -302c0 -107 45 -168 130 -168c68 0 128 48 187 115zM418 590h-30
l-107 176h56z" />
    <glyph glyph-name="amacron" unicode="&#x101;" horiz-adv-x="541" 
d="M506 503l-101 -503h-27l13 87c-51 -56 -112 -102 -186 -102c-111 0 -161 90 -161 200c0 150 87 333 271 333c69 0 118 -17 155 -32l23 17h13zM463 455c-45 18 -84 32 -148 32c-149 0 -235 -152 -235 -302c0 -107 45 -168 130 -168c68 0 128 48 187 115zM492 659h-282
l9 43h282z" />
    <glyph glyph-name="ampersand" unicode="&#x26;" horiz-adv-x="654" 
d="M491 0l-43 72c-63 -54 -138 -87 -223 -87c-131 0 -195 76 -195 169c0 124 106 202 222 254c-35 59 -60 111 -60 158c0 104 77 176 192 176c73 0 126 -37 148 -80l-30 -18c-18 32 -53 66 -120 66c-88 0 -155 -53 -155 -138c0 -47 21 -90 54 -147l176 -300
c47 49 89 111 122 177l30 -10c-37 -74 -83 -143 -135 -196l57 -96h-40zM229 18c76 0 144 32 202 83l-165 281c-112 -52 -197 -122 -197 -226c0 -84 58 -138 160 -138z" />
    <glyph glyph-name="aogonek" unicode="&#x105;" horiz-adv-x="541" 
d="M506 503l-101 -503c-20 -33 -37 -72 -37 -111c0 -36 21 -49 61 -49c30 0 65 14 88 23l7 -25c-27 -15 -67 -31 -111 -31c-58 0 -83 32 -83 76c0 49 25 95 51 137l10 67c-51 -56 -112 -102 -186 -102c-111 0 -161 90 -161 200c0 150 87 333 271 333c69 0 118 -17 155 -32
l23 17h13zM463 455c-45 18 -84 32 -148 32c-149 0 -235 -152 -235 -302c0 -107 45 -168 130 -168c68 0 128 48 187 115z" />
    <glyph glyph-name="aring" unicode="&#xe5;" horiz-adv-x="541" 
d="M506 503l-101 -503h-27l13 87c-51 -56 -112 -102 -186 -102c-111 0 -161 90 -161 200c0 150 87 333 271 333c69 0 118 -17 155 -32l23 17h13zM463 455c-45 18 -84 32 -148 32c-149 0 -235 -152 -235 -302c0 -107 45 -168 130 -168c68 0 128 48 187 115zM429 677
c0 -58 -34 -103 -96 -103c-44 0 -64 28 -64 63c0 55 31 103 93 103c45 0 67 -25 67 -63zM337 599c40 0 65 28 65 75c0 27 -13 41 -44 41c-39 0 -61 -27 -61 -75c0 -27 12 -41 40 -41z" />
    <glyph glyph-name="asciicircum" unicode="^" horiz-adv-x="550" 
d="M489 347h-31l-169 364l-170 -364h-31l179 386h43z" />
    <glyph glyph-name="asciitilde" unicode="~" horiz-adv-x="633" 
d="M567 282c-50 -46 -83 -52 -133 -52c-58 0 -114 34 -144 49c-42 21 -74 30 -95 30c-51 0 -80 -12 -129 -63v39c23 25 67 53 127 53c56 0 106 -30 139 -46c37 -18 78 -33 106 -33c51 0 88 16 129 62v-39z" />
    <glyph glyph-name="asterisk" unicode="*" horiz-adv-x="390" 
d="M425 497l-15 -27l-140 82l2 -141h-32l1 141l-139 -83l-17 27l148 81l-148 80l17 28l140 -83l-2 140h32l-2 -140l140 82l15 -28l-146 -79z" />
    <glyph glyph-name="at" unicode="@" horiz-adv-x="982" 
d="M947 405c0 -140 -50 -420 -265 -420c-58 0 -83 31 -83 77c0 9 1 18 3 28c-65 -63 -127 -90 -195 -90c-92 0 -139 73 -139 175c0 157 94 343 280 343c46 0 89 -12 137 -59l10 45h44l-94 -387c-5 -21 -9 -39 -9 -54c0 -29 17 -48 56 -48c153 0 220 229 220 387
c0 186 -105 310 -320 310c-286 0 -492 -262 -492 -543c0 -203 127 -332 339 -332c81 0 138 9 201 28v-32c-65 -15 -120 -26 -208 -26c-227 0 -367 142 -367 353c0 319 230 582 530 582c234 0 352 -140 352 -337zM675 424c-38 38 -81 60 -130 60c-155 0 -235 -161 -235 -310
c0 -91 38 -139 111 -139c71 0 140 50 190 102z" />
    <glyph glyph-name="atilde" unicode="&#xe3;" horiz-adv-x="541" 
d="M506 503l-101 -503h-27l13 87c-51 -56 -112 -102 -186 -102c-111 0 -161 90 -161 200c0 150 87 333 271 333c69 0 118 -17 155 -32l23 17h13zM463 455c-45 18 -84 32 -148 32c-149 0 -235 -152 -235 -302c0 -107 45 -168 130 -168c68 0 128 48 187 115zM516 738
c-12 -60 -38 -120 -104 -120c-45 0 -67 37 -90 63c-13 14 -25 25 -43 25c-40 0 -60 -58 -66 -88h-31c13 60 42 120 109 120c31 0 51 -19 69 -40c20 -23 37 -48 63 -48c41 0 56 57 64 88h29z" />
    <glyph glyph-name="b" unicode="b" horiz-adv-x="560" 
d="M516 322c0 -172 -90 -337 -281 -337c-71 0 -125 19 -158 33l-24 -25h-15l149 734h34l-62 -300c50 46 123 91 200 91c112 0 157 -81 157 -196zM237 17c154 0 243 128 243 301c0 89 -28 167 -123 167c-71 0 -136 -36 -206 -100l-67 -334c27 -12 78 -34 153 -34z" />
    <glyph glyph-name="b.superior" unicode="&#xf6ea;" horiz-adv-x="451" 
d="M450 547c0 -126 -75 -266 -224 -266c-54 0 -102 15 -126 25l-24 -18h-6l114 560h28l-45 -223c48 41 93 64 150 64c93 0 133 -60 133 -142zM230 308c121 0 189 119 189 233c0 71 -26 120 -105 120c-59 0 -108 -31 -152 -69l-54 -259c17 -8 60 -25 122 -25z" />
    <glyph glyph-name="backslash" unicode="\" horiz-adv-x="337" 
d="M290 -146h-32l-194 888h32z" />
    <glyph glyph-name="bar" unicode="|" horiz-adv-x="362" 
d="M218 -193h-34v935h34v-935z" />
    <glyph glyph-name="braceleft" unicode="{" horiz-adv-x="360" 
d="M249 -193h-5c-79 0 -111 45 -111 114c0 18 2 36 6 57l19 92c5 23 7 43 7 61c0 84 -47 121 -114 121h-13l9 45h12c98 0 157 57 182 183l19 91c23 111 70 171 175 171h5l-6 -30h-7c-77 0 -117 -53 -138 -159l-16 -80c-25 -120 -75 -186 -179 -199c70 -15 105 -59 105 -133
c0 -20 -2 -41 -7 -65l-16 -79c-5 -25 -9 -51 -9 -71c0 -58 20 -88 82 -88h7z" />
    <glyph glyph-name="braceright" unicode="}" horiz-adv-x="360" 
d="M107 742h5c79 0 111 -45 111 -114c0 -18 -2 -36 -6 -57l-19 -92c-5 -23 -7 -43 -7 -61c0 -84 47 -121 114 -121h13l-9 -45h-12c-98 0 -157 -57 -182 -183l-19 -91c-23 -111 -70 -171 -175 -171h-5l6 30h7c77 0 117 53 138 159l16 80c25 120 75 186 179 199
c-70 15 -105 59 -105 133c0 20 2 41 7 65l16 79c5 25 9 51 9 71c0 58 -20 88 -82 88h-7z" />
    <glyph glyph-name="bracketleft" unicode="[" horiz-adv-x="320" 
d="M220 -193h-205l187 920h205l-6 -30h-169l-175 -860h169z" />
    <glyph glyph-name="bracketright" unicode="]" horiz-adv-x="320" 
d="M113 -193h-204l6 30h168l175 860h-169l6 30h205z" />
    <glyph glyph-name="breve" unicode="&#x2d8;" horiz-adv-x="500" 
d="M397 747c-36 -81 -87 -138 -165 -138c-80 0 -101 84 -101 138h25c9 -55 28 -90 86 -90c59 0 97 37 124 90h31z" />
    <glyph glyph-name="bullet" unicode="&#x2022;" horiz-adv-x="294" 
d="M244 365c0 -54 -42 -98 -96 -98s-98 44 -98 98s44 96 98 96s96 -42 96 -96z" />
    <glyph glyph-name="c" unicode="c" horiz-adv-x="475" 
d="M479 435l-30 -18c-24 41 -65 68 -130 68c-161 0 -239 -144 -239 -295c0 -94 50 -172 151 -172c60 0 100 21 139 49l17 -29c-49 -36 -95 -53 -155 -53c-127 0 -188 88 -188 202c0 158 81 331 279 331c73 0 130 -34 156 -83z" />
    <glyph glyph-name="cacute" unicode="&#x107;" horiz-adv-x="475" 
d="M479 435l-30 -18c-24 41 -65 68 -130 68c-161 0 -239 -144 -239 -295c0 -94 50 -172 151 -172c60 0 100 21 139 49l17 -29c-49 -36 -95 -53 -155 -53c-127 0 -188 88 -188 202c0 158 81 331 279 331c73 0 130 -34 156 -83zM457 766l-175 -176h-35l149 176h61z" />
    <glyph glyph-name="caron" unicode="&#x2c7;" horiz-adv-x="500" 
d="M400 766l-146 -176h-42l-78 176h27l79 -134l129 134h31z" />
    <glyph glyph-name="ccaron" unicode="&#x10d;" horiz-adv-x="475" 
d="M479 435l-30 -18c-24 41 -65 68 -130 68c-161 0 -239 -144 -239 -295c0 -94 50 -172 151 -172c60 0 100 21 139 49l17 -29c-49 -36 -95 -53 -155 -53c-127 0 -188 88 -188 202c0 158 81 331 279 331c73 0 130 -34 156 -83zM486 766l-146 -176h-42l-78 176h27l79 -134
l129 134h31z" />
    <glyph glyph-name="ccedilla" unicode="&#xe7;" horiz-adv-x="475" 
d="M306 -84c0 -69 -63 -109 -136 -109c-36 0 -76 11 -99 19l17 30c34 -15 64 -20 94 -20c44 0 90 24 90 74c0 37 -41 54 -79 54l14 22c-110 11 -163 94 -163 201c0 158 81 331 279 331c73 0 130 -34 156 -83l-30 -18c-24 41 -65 68 -130 68c-161 0 -239 -144 -239 -295
c0 -94 50 -172 151 -172c60 0 100 21 139 49l17 -29c-48 -36 -94 -52 -152 -53c56 -11 71 -41 71 -69z" />
    <glyph glyph-name="ccircumflex" unicode="&#x109;" horiz-adv-x="475" 
d="M479 435l-30 -18c-24 41 -65 68 -130 68c-161 0 -239 -144 -239 -295c0 -94 50 -172 151 -172c60 0 100 21 139 49l17 -29c-49 -36 -95 -53 -155 -53c-127 0 -188 88 -188 202c0 158 81 331 279 331c73 0 130 -34 156 -83zM469 590h-28l-76 134l-132 -134h-30l149 176h42
z" />
    <glyph glyph-name="cdotaccent" unicode="&#x10b;" horiz-adv-x="475" 
d="M479 435l-30 -18c-24 41 -65 68 -130 68c-161 0 -239 -144 -239 -295c0 -94 50 -172 151 -172c60 0 100 21 139 49l17 -29c-49 -36 -95 -53 -155 -53c-127 0 -188 88 -188 202c0 158 81 331 279 331c73 0 130 -34 156 -83zM374 649c0 -28 -14 -42 -39 -42
c-19 0 -29 7 -29 28c0 27 14 41 39 41c21 0 29 -8 29 -27z" />
    <glyph glyph-name="cedilla" unicode="&#xb8;" horiz-adv-x="500" 
d="M336 -84c0 -69 -63 -109 -136 -109c-36 0 -76 11 -99 19l17 30c34 -15 64 -20 94 -20c44 0 90 24 90 74c0 37 -41 54 -79 54l29 45h29l-16 -24c56 -11 71 -41 71 -69z" />
    <glyph glyph-name="cent" unicode="&#xa2;" horiz-adv-x="478" 
d="M-25 -166l129 226c-43 37 -64 95 -64 162c0 158 81 331 279 331c22 0 43 -3 62 -9l113 198h34l-120 -209c30 -15 53 -37 67 -63l-30 -18c-13 21 -30 39 -54 51l-246 -428c22 -14 49 -22 82 -22c60 0 100 21 139 49l17 -29c-49 -36 -95 -53 -155 -53c-40 0 -73 8 -100 24
l-120 -210h-33zM76 225c0 -53 15 -101 47 -132l240 421c-14 4 -30 6 -48 6c-161 0 -239 -144 -239 -295z" />
    <glyph glyph-name="circumflex" unicode="&#x2c6;" horiz-adv-x="500" 
d="M365 590h-28l-76 134l-132 -134h-30l149 176h42z" />
    <glyph glyph-name="colon" unicode=":" horiz-adv-x="219" 
d="M106 37c0 -27 -12 -44 -46 -44c-19 0 -33 8 -33 25c0 29 14 45 46 45c18 0 33 -7 33 -26zM185 431c0 -27 -12 -44 -46 -44c-19 0 -33 8 -33 25c0 29 14 45 46 45c18 0 33 -7 33 -26z" />
    <glyph glyph-name="comma" unicode="," horiz-adv-x="219" 
d="M101 28c0 -53 -38 -123 -79 -172h-32c27 31 59 84 66 137c-15 0 -33 7 -33 29c0 24 15 41 43 41c26 0 35 -17 35 -35z" />
    <glyph glyph-name="commaaccent" unicode="&#xf6c3;" horiz-adv-x="255" 
d="M98 -68c0 22 13 39 40 39c26 0 36 -15 36 -33c0 -49 -37 -112 -55 -131h-32c23 26 38 62 42 94c-18 0 -31 8 -31 31z" />
    <glyph glyph-name="copyright" unicode="&#xa9;" horiz-adv-x="935" 
d="M882 327c0 -114 -49 -220 -121 -292s-179 -122 -293 -122s-221 50 -293 122s-122 178 -122 292s50 221 121 293c72 72 179 122 294 122s221 -50 293 -122c71 -72 121 -179 121 -293zM850 327c0 211 -171 382 -382 382s-383 -171 -383 -382s172 -380 383 -380
s382 169 382 380zM643 480l-28 -21c-20 35 -59 71 -124 71c-121 0 -163 -78 -163 -202c0 -131 49 -199 164 -199c54 0 87 21 116 42l20 -28c-47 -35 -87 -46 -136 -46c-129 0 -200 67 -200 231c0 163 70 235 200 235c69 0 121 -28 151 -83z" />
    <glyph glyph-name="currency" unicode="&#xa4;" horiz-adv-x="559" 
d="M534 148l-23 -24l-98 98c-42 -32 -78 -42 -118 -42c-39 0 -80 13 -117 43l-100 -99l-23 24l98 99c-29 36 -43 78 -43 117c0 41 12 83 42 118l-97 99l23 23l98 -96c38 31 80 44 119 44c41 0 81 -12 119 -43l97 95l23 -23l-95 -97c31 -38 43 -79 43 -120
c0 -40 -13 -78 -43 -119zM446 364c0 80 -58 155 -151 155c-89 0 -150 -74 -150 -155c0 -82 66 -152 150 -152c88 0 151 69 151 152z" />
    <glyph glyph-name="d" unicode="d" horiz-adv-x="558" 
d="M563 727l-148 -727h-27l13 87c-51 -56 -118 -102 -192 -102c-111 0 -165 84 -165 200c0 148 91 333 275 333c69 0 124 -17 161 -32l50 241h33zM473 455c-45 18 -90 32 -154 32c-149 0 -239 -152 -239 -302c0 -112 49 -168 134 -168c68 0 134 48 193 115z" />
    <glyph glyph-name="d.superior" unicode="&#xf6eb;" horiz-adv-x="451" 
d="M379 293h-21l5 58c-37 -37 -92 -70 -151 -70c-91 0 -132 72 -132 154c0 130 86 254 222 254c46 0 91 -13 124 -30l38 190h28zM371 390l49 241c-25 14 -69 31 -118 31c-119 0 -191 -107 -191 -227c0 -58 25 -126 104 -126c66 0 110 34 156 81z" />
    <glyph glyph-name="dagger" unicode="&#x2020;" horiz-adv-x="478" 
d="M478 432l-192 11l-117 -636h-54l144 636l-195 -11l9 48l191 -12l43 274h51l-68 -274l197 12z" />
    <glyph glyph-name="daggerdbl" unicode="&#x2021;" horiz-adv-x="487" 
d="M405 30l-198 12l-37 -235h-50l61 235l-198 -12l10 48l193 -11l30 207l55 209l-199 -11l9 48l195 -12l35 234h50l-59 -234l202 12l-9 -48l-197 11l-32 -209l-53 -207l202 11z" />
    <glyph glyph-name="dcaron" unicode="&#x10f;" horiz-adv-x="558" 
d="M563 727l-148 -727h-27l13 87c-51 -56 -118 -102 -192 -102c-111 0 -165 84 -165 200c0 148 91 333 275 333c69 0 124 -17 161 -32l50 241h33zM473 455c-45 18 -90 32 -154 32c-149 0 -239 -152 -239 -302c0 -112 49 -168 134 -168c68 0 134 48 193 115zM599 688
c0 22 13 39 40 39c24 0 36 -15 36 -36c0 -49 -35 -120 -79 -171h-32c23 26 60 88 66 137c-18 0 -31 8 -31 31z" />
    <glyph glyph-name="dcroat" unicode="&#x111;" horiz-adv-x="558" 
d="M563 727l-15 -71h98l-7 -31h-97l-127 -625h-27l13 87c-51 -56 -118 -102 -192 -102c-111 0 -165 84 -165 200c0 148 91 333 275 333c69 0 124 -17 161 -32l29 139h-152l7 31h151l15 71h33zM473 455c-45 18 -90 32 -154 32c-149 0 -239 -152 -239 -302
c0 -112 49 -168 134 -168c68 0 134 48 193 115z" />
    <glyph glyph-name="degree" unicode="&#xb0;" horiz-adv-x="359" 
d="M359 604c0 -78 -64 -139 -138 -139c-76 0 -141 61 -141 139c0 77 65 138 140 138c78 0 139 -63 139 -138zM326 602c0 59 -46 107 -105 107c-62 0 -108 -50 -108 -105c0 -59 48 -106 108 -106c59 0 105 46 105 104z" />
    <glyph glyph-name="dieresis" unicode="&#xa8;" horiz-adv-x="500" 
d="M203 649c0 -28 -15 -42 -40 -42c-21 0 -31 8 -31 27c0 27 14 41 40 41c21 0 31 -9 31 -26zM364 649c0 -28 -15 -42 -40 -42c-21 0 -31 8 -31 27c0 27 14 41 40 41c21 0 31 -9 31 -26z" />
    <glyph glyph-name="dollar" unicode="$" horiz-adv-x="502" 
d="M148 -120l25 122c-97 11 -157 69 -173 120l29 15c23 -53 73 -95 150 -104l60 295c-78 24 -157 51 -157 145c0 116 100 166 219 164l22 105h31l-22 -108c78 -10 134 -56 160 -113l-29 -14c-32 58 -73 90 -137 98l-51 -253c83 -26 165 -63 165 -163
c0 -113 -80 -189 -233 -189h-4l-24 -120h-31zM404 187c0 76 -59 108 -136 132l-58 -288h4c113 0 190 55 190 156zM117 475c0 -69 59 -93 129 -114l49 246c-84 2 -178 -29 -178 -132z" />
    <glyph glyph-name="dotaccent" unicode="&#x2d9;" horiz-adv-x="500" 
d="M280 649c0 -28 -14 -42 -39 -42c-19 0 -29 7 -29 28c0 27 14 41 39 41c21 0 29 -8 29 -27z" />
    <glyph glyph-name="dotlessi" unicode="&#x131;" horiz-adv-x="243" 
d="M98 0h-33l84 415c5 23 9 42 9 53c0 12 -3 19 -15 19c-13 0 -38 -12 -71 -33l-12 23c45 29 74 41 96 41c26 0 37 -15 37 -39c0 -10 -4 -33 -8 -51z" />
    <glyph glyph-name="dotlessi.alt" horiz-adv-x="215" 
d="M74 0h-35l102 503h35z" />
    <glyph glyph-name="e" unicode="e" horiz-adv-x="489" 
d="M178 235l-97 -6c-1 -15 -2 -30 -2 -46c0 -100 48 -166 152 -166c50 0 86 14 131 46l20 -27c-34 -26 -86 -51 -158 -51c-102 0 -180 61 -180 192c0 171 94 341 274 341c113 0 156 -60 156 -117c0 -101 -73 -154 -296 -166zM438 397c0 41 -26 90 -123 90
c-121 0 -205 -101 -229 -229l80 5c200 12 272 46 272 134z" />
    <glyph glyph-name="e.superior" unicode="&#xf6ec;" horiz-adv-x="408" 
d="M102 442c0 -75 44 -135 122 -135c38 0 77 11 110 33l13 -22c-28 -18 -75 -37 -129 -37c-92 0 -144 68 -144 161c0 127 68 247 222 247c68 0 125 -33 125 -97c0 -105 -152 -113 -218 -117l-100 -6c-1 -9 -1 -18 -1 -27zM106 495l80 4c111 5 204 22 204 91
c0 50 -42 74 -100 74c-95 0 -166 -66 -184 -169z" />
    <glyph glyph-name="eacute" unicode="&#xe9;" horiz-adv-x="489" 
d="M178 235l-97 -6c-1 -15 -2 -30 -2 -46c0 -100 48 -166 152 -166c50 0 86 14 131 46l20 -27c-34 -26 -86 -51 -158 -51c-102 0 -180 61 -180 192c0 171 94 341 274 341c113 0 156 -60 156 -117c0 -101 -73 -154 -296 -166zM438 397c0 41 -26 90 -123 90
c-121 0 -205 -101 -229 -229l80 5c200 12 272 46 272 134zM469 766l-175 -176h-35l149 176h61z" />
    <glyph glyph-name="ebreve" unicode="&#x115;" horiz-adv-x="489" 
d="M178 235l-97 -6c-1 -15 -2 -30 -2 -46c0 -100 48 -166 152 -166c50 0 86 14 131 46l20 -27c-34 -26 -86 -51 -158 -51c-102 0 -180 61 -180 192c0 171 94 341 274 341c113 0 156 -60 156 -117c0 -101 -73 -154 -296 -166zM438 397c0 41 -26 90 -123 90
c-121 0 -205 -101 -229 -229l80 5c200 12 272 46 272 134zM484 747c-36 -81 -87 -138 -165 -138c-80 0 -101 84 -101 138h25c9 -55 28 -90 86 -90c59 0 97 37 124 90h31z" />
    <glyph glyph-name="ecaron" unicode="&#x11b;" horiz-adv-x="489" 
d="M178 235l-97 -6c-1 -15 -2 -30 -2 -46c0 -100 48 -166 152 -166c50 0 86 14 131 46l20 -27c-34 -26 -86 -51 -158 -51c-102 0 -180 61 -180 192c0 171 94 341 274 341c113 0 156 -60 156 -117c0 -101 -73 -154 -296 -166zM438 397c0 41 -26 90 -123 90
c-121 0 -205 -101 -229 -229l80 5c200 12 272 46 272 134zM490 766l-146 -176h-42l-78 176h27l79 -134l129 134h31z" />
    <glyph glyph-name="ecircumflex" unicode="&#xea;" horiz-adv-x="489" 
d="M178 235l-97 -6c-1 -15 -2 -30 -2 -46c0 -100 48 -166 152 -166c50 0 86 14 131 46l20 -27c-34 -26 -86 -51 -158 -51c-102 0 -180 61 -180 192c0 171 94 341 274 341c113 0 156 -60 156 -117c0 -101 -73 -154 -296 -166zM438 397c0 41 -26 90 -123 90
c-121 0 -205 -101 -229 -229l80 5c200 12 272 46 272 134zM472 590h-28l-76 134l-132 -134h-30l149 176h42z" />
    <glyph glyph-name="edieresis" unicode="&#xeb;" horiz-adv-x="489" 
d="M178 235l-97 -6c-1 -15 -2 -30 -2 -46c0 -100 48 -166 152 -166c50 0 86 14 131 46l20 -27c-34 -26 -86 -51 -158 -51c-102 0 -180 61 -180 192c0 171 94 341 274 341c113 0 156 -60 156 -117c0 -101 -73 -154 -296 -166zM438 397c0 41 -26 90 -123 90
c-121 0 -205 -101 -229 -229l80 5c200 12 272 46 272 134zM298 649c0 -28 -15 -42 -40 -42c-21 0 -31 8 -31 27c0 27 14 41 40 41c21 0 31 -9 31 -26zM459 649c0 -28 -15 -42 -40 -42c-21 0 -31 8 -31 27c0 27 14 41 40 41c21 0 31 -9 31 -26z" />
    <glyph glyph-name="edotaccent" unicode="&#x117;" horiz-adv-x="489" 
d="M178 235l-97 -6c-1 -15 -2 -30 -2 -46c0 -100 48 -166 152 -166c50 0 86 14 131 46l20 -27c-34 -26 -86 -51 -158 -51c-102 0 -180 61 -180 192c0 171 94 341 274 341c113 0 156 -60 156 -117c0 -101 -73 -154 -296 -166zM438 397c0 41 -26 90 -123 90
c-121 0 -205 -101 -229 -229l80 5c200 12 272 46 272 134zM376 649c0 -28 -14 -42 -39 -42c-19 0 -29 7 -29 28c0 27 14 41 39 41c21 0 29 -8 29 -27z" />
    <glyph glyph-name="egrave" unicode="&#xe8;" horiz-adv-x="489" 
d="M178 235l-97 -6c-1 -15 -2 -30 -2 -46c0 -100 48 -166 152 -166c50 0 86 14 131 46l20 -27c-34 -26 -86 -51 -158 -51c-102 0 -180 61 -180 192c0 171 94 341 274 341c113 0 156 -60 156 -117c0 -101 -73 -154 -296 -166zM438 397c0 41 -26 90 -123 90
c-121 0 -205 -101 -229 -229l80 5c200 12 272 46 272 134zM382 590h-30l-107 176h56z" />
    <glyph glyph-name="eight" unicode="8" horiz-adv-x="564" 
d="M121 551c0 125 110 191 240 191c128 0 196 -70 196 -155c0 -116 -100 -166 -209 -201c88 -37 154 -93 154 -181c0 -139 -117 -220 -269 -220c-129 0 -210 71 -210 166c0 140 113 195 236 236c-58 25 -138 79 -138 164zM61 157c0 -84 69 -140 174 -140
c118 0 228 60 228 180c0 85 -59 139 -159 175c-112 -36 -243 -84 -243 -215zM519 581c0 74 -48 129 -159 129c-100 0 -200 -44 -200 -155c0 -57 30 -107 145 -153c90 29 214 67 214 179z" />
    <glyph glyph-name="eight.denominator" unicode="&#xe112;" horiz-adv-x="416" 
d="M324 -24c0 -98 -98 -140 -189 -140c-104 0 -158 48 -158 108c0 82 79 119 157 135c-53 18 -94 45 -94 99c0 87 90 116 175 116c96 0 144 -46 144 -97c0 -70 -70 -103 -139 -120c66 -20 104 -49 104 -101zM326 193c0 44 -39 74 -117 74c-75 0 -136 -24 -136 -87
c0 -41 27 -66 105 -91c76 17 148 43 148 104zM141 -135c71 0 150 35 150 108c0 56 -56 74 -114 93c-78 -15 -167 -41 -167 -120c0 -46 45 -81 131 -81z" />
    <glyph glyph-name="eight.fitted" unicode="&#xe09e;" horiz-adv-x="554" 
d="M98 551c0 125 110 191 240 191c128 0 196 -70 196 -155c0 -116 -100 -166 -209 -201c88 -37 154 -93 154 -181c0 -139 -117 -220 -269 -220c-129 0 -210 71 -210 166c0 140 113 195 236 236c-58 25 -138 79 -138 164zM38 157c0 -84 69 -140 174 -140
c118 0 228 60 228 180c0 85 -59 139 -159 175c-112 -36 -243 -84 -243 -215zM496 581c0 74 -48 129 -159 129c-100 0 -200 -44 -200 -155c0 -57 30 -107 145 -153c90 29 214 67 214 179z" />
    <glyph glyph-name="eight.inferior" unicode="&#x2088;" horiz-adv-x="416" 
d="M365 15c0 -98 -98 -140 -189 -140c-104 0 -158 48 -158 108c0 82 79 119 157 135c-53 18 -94 45 -94 99c0 87 90 116 175 116c96 0 144 -46 144 -97c0 -70 -70 -103 -139 -120c66 -20 104 -49 104 -101zM367 232c0 44 -39 74 -117 74c-75 0 -136 -24 -136 -87
c0 -41 27 -66 105 -91c76 17 148 43 148 104zM182 -96c71 0 150 35 150 108c0 56 -56 74 -114 93c-78 -15 -167 -41 -167 -120c0 -46 45 -81 131 -81z" />
    <glyph glyph-name="eight.numerator" unicode="&#xe126;" horiz-adv-x="416" 
d="M403 424c0 -98 -98 -140 -189 -140c-104 0 -158 48 -158 108c0 82 79 119 157 135c-53 18 -94 45 -94 99c0 87 90 116 175 116c96 0 144 -46 144 -97c0 -70 -70 -103 -139 -120c66 -20 104 -49 104 -101zM405 641c0 44 -39 74 -117 74c-75 0 -136 -24 -136 -87
c0 -41 27 -66 105 -91c76 17 148 43 148 104zM220 313c71 0 150 35 150 108c0 56 -56 74 -114 93c-78 -15 -167 -41 -167 -120c0 -46 45 -81 131 -81z" />
    <glyph glyph-name="eight.superior" unicode="&#x2078;" horiz-adv-x="416" 
d="M395 424c0 -98 -98 -140 -189 -140c-104 0 -158 48 -158 108c0 82 79 119 157 135c-53 18 -94 45 -94 99c0 87 90 116 175 116c96 0 144 -46 144 -97c0 -70 -70 -103 -139 -120c66 -20 104 -49 104 -101zM397 641c0 44 -39 74 -117 74c-75 0 -136 -24 -136 -87
c0 -41 27 -66 105 -91c76 17 148 43 148 104zM212 313c71 0 150 35 150 108c0 56 -56 74 -114 93c-78 -15 -167 -41 -167 -120c0 -46 45 -81 131 -81z" />
    <glyph glyph-name="eight.tab" 
d="M108 551c0 125 110 191 240 191c128 0 196 -70 196 -155c0 -116 -100 -166 -209 -201c88 -37 154 -93 154 -181c0 -139 -117 -220 -269 -220c-129 0 -210 71 -210 166c0 140 113 195 236 236c-58 25 -138 79 -138 164zM48 157c0 -84 69 -140 174 -140
c118 0 228 60 228 180c0 85 -59 139 -159 175c-112 -36 -243 -84 -243 -215zM506 581c0 74 -48 129 -159 129c-100 0 -200 -44 -200 -155c0 -57 30 -107 145 -153c90 29 214 67 214 179z" />
    <glyph glyph-name="eight.taboldstyle" unicode="&#xe108;" 
d="M127 551c0 125 110 191 240 191c128 0 196 -70 196 -155c0 -116 -100 -166 -209 -201c88 -37 154 -93 154 -181c0 -139 -117 -220 -269 -220c-129 0 -210 71 -210 166c0 140 113 195 236 236c-58 25 -138 79 -138 164zM67 157c0 -84 69 -140 174 -140
c118 0 228 60 228 180c0 85 -59 139 -159 175c-112 -36 -243 -84 -243 -215zM525 581c0 74 -48 129 -159 129c-100 0 -200 -44 -200 -155c0 -57 30 -107 145 -153c90 29 214 67 214 179z" />
    <glyph glyph-name="ellipsis" unicode="&#x2026;" horiz-adv-x="886" 
d="M103 37c0 -27 -12 -44 -46 -44c-19 0 -33 8 -33 25c0 29 14 45 46 45c18 0 33 -7 33 -26zM437 37c0 -27 -12 -44 -46 -44c-19 0 -33 8 -33 25c0 29 14 45 46 45c18 0 33 -7 33 -26zM770 37c0 -27 -12 -44 -46 -44c-19 0 -33 8 -33 25c0 29 14 45 46 45c18 0 33 -7 33 -26
z" />
    <glyph glyph-name="emacron" unicode="&#x113;" horiz-adv-x="489" 
d="M178 235l-97 -6c-1 -15 -2 -30 -2 -46c0 -100 48 -166 152 -166c50 0 86 14 131 46l20 -27c-34 -26 -86 -51 -158 -51c-102 0 -180 61 -180 192c0 171 94 341 274 341c113 0 156 -60 156 -117c0 -101 -73 -154 -296 -166zM438 397c0 41 -26 90 -123 90
c-121 0 -205 -101 -229 -229l80 5c200 12 272 46 272 134zM481 659h-282l9 43h282z" />
    <glyph glyph-name="emdash" unicode="&#x2014;" horiz-adv-x="1000" 
d="M1002 234h-1011l7 36h1011z" />
    <glyph glyph-name="endash" unicode="&#x2013;" horiz-adv-x="500" 
d="M502 234h-511l7 36h511z" />
    <glyph glyph-name="eng" unicode="&#x14b;" horiz-adv-x="558" 
d="M500 407c0 -18 -4 -49 -9 -75l-76 -375c-20 -101 -59 -150 -156 -150c-32 0 -68 7 -82 14l16 32c21 -9 49 -14 75 -14c77 0 100 46 119 140l72 360c4 22 7 42 7 60c0 55 -29 89 -101 89c-79 0 -166 -63 -216 -107l-77 -381h-34l102 503h33l-17 -83c43 39 124 98 223 98
c81 0 121 -44 121 -111z" />
    <glyph glyph-name="eogonek" unicode="&#x119;" horiz-adv-x="489" 
d="M178 235l-97 -6c-1 -15 -2 -30 -2 -46c0 -100 48 -166 152 -166c50 0 86 14 131 46l20 -27c-26 -20 -62 -39 -109 -47c-17 -29 -29 -59 -29 -100c0 -36 21 -49 61 -49c30 0 65 14 88 23l7 -25c-27 -15 -67 -31 -111 -31c-58 0 -83 32 -83 76c0 39 15 72 32 102h-14
c-102 0 -180 61 -180 192c0 171 94 341 274 341c113 0 156 -60 156 -117c0 -101 -73 -154 -296 -166zM438 397c0 41 -26 90 -123 90c-121 0 -205 -101 -229 -229l80 5c200 12 272 46 272 134z" />
    <glyph glyph-name="equal" unicode="=" horiz-adv-x="649" 
d="M575 379h-501v31h501v-31zM575 159h-501v31h501v-31z" />
    <glyph glyph-name="estimated" unicode="&#x212e;" horiz-adv-x="676" 
d="M639 305h-470v-210c45 -45 101 -69 167 -69c111 0 175 57 226 139c13 -7 25 -15 37 -22c-61 -93 -133 -155 -263 -155c-181 0 -297 143 -297 318c0 176 113 318 299 318c188 0 298 -143 301 -319zM506 344v172c-43 42 -104 70 -169 70s-124 -23 -168 -69v-173h337z" />
    <glyph glyph-name="eth" unicode="&#xf0;" horiz-adv-x="546" 
d="M224 616l116 57c-22 25 -46 48 -71 69h45c19 -16 38 -34 56 -54l91 45l10 -22l-84 -42c66 -80 114 -186 114 -312c0 -179 -76 -372 -282 -372c-125 0 -176 94 -176 198c0 168 87 320 264 320c68 0 118 -23 153 -78c-13 88 -51 165 -103 229l-122 -60zM226 18
c154 0 234 155 234 290c0 86 -46 162 -150 162c-151 0 -230 -122 -230 -287c0 -87 40 -165 146 -165z" />
    <glyph glyph-name="exclam" unicode="!" horiz-adv-x="219" 
d="M213 727l-113 -540h-32l105 540h40zM94 37c0 -27 -12 -44 -46 -44c-19 0 -33 8 -33 25c0 29 14 45 46 45c18 0 33 -7 33 -26z" />
    <glyph glyph-name="exclamdown" unicode="&#xa1;" horiz-adv-x="219" 
d="M20 -193l113 540h32l-105 -540h-40zM134 476c0 27 12 44 46 44c19 0 33 -8 33 -25c0 -29 -14 -45 -46 -45c-18 0 -33 7 -33 26z" />
    <glyph glyph-name="f" unicode="f" horiz-adv-x="307" 
d="M63 -33l103 505h-84l6 31h84l16 79c26 127 84 160 165 160c32 0 70 -9 89 -18l-15 -30c-23 10 -48 19 -81 19c-76 0 -107 -48 -124 -131l-16 -79h130l-6 -31h-130l-103 -505c-26 -127 -88 -160 -166 -160c-32 0 -67 9 -86 18l12 31c22 -10 48 -19 81 -19
c73 0 108 47 125 130z" />
    <glyph glyph-name="f_f_l.alt" horiz-adv-x="781" 
d="M333 -33l103 505h-236l-103 -505c-26 -127 -88 -160 -166 -160c-32 0 -67 9 -86 18l11 30c23 -10 49 -18 82 -18c73 0 108 47 125 130l103 505h-84l6 31h84l16 79c26 127 86 160 167 160c32 0 68 -8 87 -17l-15 -27c-23 10 -48 15 -81 15c-76 0 -107 -48 -124 -131
l-16 -79h236l16 79c26 127 90 160 171 160c31 0 77 -7 125 -28l36 27l-151 -741h-35l139 688c-33 15 -68 26 -116 26c-76 0 -115 -33 -135 -132l-16 -79h130l-6 -31h-130l-103 -505c-26 -127 -88 -160 -166 -160c-32 0 -67 9 -86 18l11 30c23 -10 49 -18 82 -18
c73 0 108 47 125 130z" />
    <glyph glyph-name="f_l.alt" horiz-adv-x="511" 
d="M369 0h-35l139 688c-33 15 -68 26 -116 26c-76 0 -115 -33 -135 -132l-16 -79h130l-6 -31h-130l-103 -505c-26 -127 -88 -160 -166 -160c-32 0 -67 9 -86 18l11 30c23 -10 49 -18 82 -18c73 0 108 47 125 130l103 505h-84l6 31h84l16 79c26 127 90 160 171 160
c31 0 77 -7 125 -28l36 27z" />
    <glyph glyph-name="five" unicode="5" horiz-adv-x="522" 
d="M448 101c0 -164 -106 -267 -279 -267c-113 0 -171 62 -194 97l31 21c31 -47 84 -84 164 -84c152 0 240 87 240 226c0 94 -54 154 -166 154c-62 0 -122 -21 -171 -57h-11l111 376h335l-7 -34h-306l-83 -289c53 29 97 36 144 36c118 0 192 -72 192 -179z" />
    <glyph glyph-name="five.denominator" unicode="&#xe10f;" horiz-adv-x="379" 
d="M308 1c0 -112 -87 -164 -199 -164c-79 0 -129 34 -148 63l31 14c22 -31 61 -51 117 -51c90 0 167 33 167 136c0 56 -37 86 -117 86c-38 0 -97 -14 -136 -33h-6l82 233h243l-6 -29h-220l-60 -169c43 17 83 22 113 22c81 0 139 -37 139 -108z" />
    <glyph glyph-name="five.fitted" unicode="&#xe09b;" horiz-adv-x="522" 
d="M451 255c0 -164 -107 -270 -280 -270c-113 0 -171 62 -194 97l31 21c31 -47 84 -84 164 -84c152 0 241 90 241 229c0 94 -54 156 -166 156c-62 0 -122 -21 -171 -57h-11l112 380h335l-7 -34h-306l-84 -293c53 29 97 36 144 36c118 0 192 -74 192 -181z" />
    <glyph glyph-name="five.inferior" unicode="&#x2085;" horiz-adv-x="379" 
d="M331 30c0 -112 -87 -164 -199 -164c-79 0 -129 34 -148 63l31 14c22 -31 61 -51 117 -51c90 0 167 33 167 136c0 56 -37 86 -117 86c-38 0 -97 -14 -136 -33h-6l82 233h243l-6 -29h-220l-60 -169c43 17 83 22 113 22c81 0 139 -37 139 -108z" />
    <glyph glyph-name="five.numerator" unicode="&#xe123;" horiz-adv-x="379" 
d="M385 448c0 -112 -87 -164 -199 -164c-79 0 -129 34 -148 63l31 14c22 -31 61 -51 117 -51c90 0 167 33 167 136c0 56 -37 86 -117 86c-38 0 -97 -14 -136 -33h-6l82 233h243l-6 -29h-220l-60 -169c43 17 83 22 113 22c81 0 139 -37 139 -108z" />
    <glyph glyph-name="five.superior" unicode="&#x2075;" horiz-adv-x="379" 
d="M376 448c0 -112 -87 -164 -199 -164c-79 0 -129 34 -148 63l31 14c22 -31 61 -51 117 -51c90 0 167 33 167 136c0 56 -37 86 -117 86c-38 0 -97 -14 -136 -33h-6l82 233h243l-6 -29h-220l-60 -169c43 17 83 22 113 22c81 0 139 -37 139 -108z" />
    <glyph glyph-name="five.tab" 
d="M473 255c0 -164 -107 -270 -280 -270c-113 0 -171 62 -194 97l31 21c31 -47 84 -84 164 -84c152 0 241 90 241 229c0 94 -54 156 -166 156c-62 0 -122 -21 -171 -57h-11l112 380h335l-7 -34h-306l-84 -293c53 29 97 36 144 36c118 0 192 -74 192 -181z" />
    <glyph glyph-name="five.taboldstyle" unicode="&#xe105;" 
d="M476 101c0 -164 -106 -267 -279 -267c-113 0 -171 62 -194 97l31 21c31 -47 84 -84 164 -84c152 0 240 87 240 226c0 94 -54 154 -166 154c-62 0 -122 -21 -171 -57h-11l111 376h335l-7 -34h-306l-83 -289c53 29 97 36 144 36c118 0 192 -72 192 -179z" />
    <glyph glyph-name="fiveeighths" unicode="&#x215d;" horiz-adv-x="977" 
d="M800 727l-569 -878h-38l569 878h38zM385 448c0 -112 -87 -164 -199 -164c-79 0 -129 34 -148 63l31 14c22 -31 61 -51 117 -51c90 0 167 33 167 136c0 56 -37 86 -117 86c-38 0 -97 -14 -136 -33h-6l82 233h243l-6 -29h-220l-60 -169c43 17 83 22 113 22
c81 0 139 -37 139 -108zM896 -24c0 -98 -98 -140 -189 -140c-104 0 -158 48 -158 108c0 82 79 119 157 135c-53 18 -94 45 -94 99c0 87 90 116 175 116c96 0 144 -46 144 -97c0 -70 -70 -103 -139 -120c66 -20 104 -49 104 -101zM898 193c0 44 -39 74 -117 74
c-75 0 -136 -24 -136 -87c0 -41 27 -66 105 -91c76 17 148 43 148 104zM713 -135c71 0 150 35 150 108c0 56 -56 74 -114 93c-78 -15 -167 -41 -167 -120c0 -46 45 -81 131 -81z" />
    <glyph glyph-name="florin" unicode="&#x192;" horiz-adv-x="405" 
d="M415 721l-11 -30c-21 11 -34 18 -60 18c-34 0 -43 -31 -63 -114l-22 -92h88l-5 -31h-90l-114 -549c-12 -57 -32 -120 -86 -120c-31 0 -63 12 -82 21l13 32c26 -12 48 -18 66 -18c24 0 40 23 58 108l111 526h-72l7 31h71l34 141c23 96 61 98 92 98c18 0 44 -8 65 -21z" />
    <glyph glyph-name="four" unicode="4" horiz-adv-x="515" 
d="M441 31h-86l-41 -197h-34l41 197h-345l6 33l443 527h44l-108 -527h86zM327 64l97 477l-400 -477h303z" />
    <glyph glyph-name="four.denominator" unicode="&#xe10e;" horiz-adv-x="391" 
d="M308 -34h-73l-27 -133h-28l27 133h-235l5 25l307 303h22l-66 -303h73zM212 -9l56 252l-256 -252h200z" />
    <glyph glyph-name="four.fitted" unicode="&#xe09a;" horiz-adv-x="519" 
d="M455 182h-86l-41 -197h-34l41 197h-345l6 33l443 527h44l-108 -527h86zM341 215l97 477l-400 -477h303z" />
    <glyph glyph-name="four.inferior" unicode="&#x2084;" horiz-adv-x="391" 
d="M346 1h-73l-27 -133h-28l27 133h-235l5 25l307 303h22l-66 -303h73zM250 26l56 252l-256 -252h200z" />
    <glyph glyph-name="four.numerator" unicode="&#xe122;" horiz-adv-x="391" 
d="M387 414h-73l-27 -133h-28l27 133h-235l5 25l307 303h22l-66 -303h73zM291 439l56 252l-256 -252h200z" />
    <glyph glyph-name="four.superior" unicode="&#x2074;" horiz-adv-x="391" 
d="M387 414h-73l-27 -133h-28l27 133h-235l5 25l307 303h22l-66 -303h73zM291 439l56 252l-256 -252h200z" />
    <glyph glyph-name="four.tab" 
d="M469 182h-86l-41 -197h-34l41 197h-345l6 33l443 527h44l-108 -527h86zM355 215l97 477l-400 -477h303z" />
    <glyph glyph-name="four.taboldstyle" unicode="&#xe104;" 
d="M472 31h-86l-41 -197h-34l41 197h-345l6 33l443 527h44l-108 -527h86zM358 64l97 477l-400 -477h303z" />
    <glyph glyph-name="fraction" unicode="&#x2044;" horiz-adv-x="109" 
d="M357 727l-569 -878h-38l569 878h38z" />
    <glyph glyph-name="fraction.tab" horiz-adv-x="109" 
d="M341 727l-554 -727h-38l554 727h38z" />
    <glyph glyph-name="g" unicode="g" horiz-adv-x="561" 
d="M596 498l-7 -27c-13 5 -29 10 -40 10c-31 0 -41 -14 -53 -71l-83 -410c-25 -123 -83 -193 -226 -193c-71 0 -137 21 -159 33l14 31c31 -16 85 -31 148 -31c114 0 168 47 191 161l20 98c-58 -63 -118 -99 -194 -99c-108 0 -163 82 -163 180c0 161 93 338 274 338
c71 0 118 -24 158 -53c11 28 31 44 71 44c15 0 29 -3 49 -11zM410 146l57 285c-45 39 -98 56 -156 56c-149 0 -231 -157 -231 -306c0 -80 41 -149 129 -149c68 0 123 33 201 114z" />
    <glyph glyph-name="g.alt" horiz-adv-x="549" 
d="M514 503l-101 -503c-25 -123 -83 -193 -227 -193c-70 0 -136 21 -158 33l14 31c31 -16 85 -31 148 -31c114 0 168 47 191 161l20 98c-54 -61 -120 -99 -194 -99c-103 0 -163 75 -163 185c0 150 89 333 273 333c69 0 124 -17 161 -32l23 17h13zM471 455
c-45 18 -90 32 -154 32c-155 0 -237 -157 -237 -302c0 -107 57 -153 132 -153c73 0 136 47 198 114z" />
    <glyph glyph-name="gbreve" unicode="&#x11f;" horiz-adv-x="561" 
d="M596 498l-7 -27c-13 5 -29 10 -40 10c-31 0 -41 -14 -53 -71l-83 -410c-25 -123 -83 -193 -226 -193c-71 0 -137 21 -159 33l14 31c31 -16 85 -31 148 -31c114 0 168 47 191 161l20 98c-58 -63 -118 -99 -194 -99c-108 0 -163 82 -163 180c0 161 93 338 274 338
c71 0 118 -24 158 -53c11 28 31 44 71 44c15 0 29 -3 49 -11zM410 146l57 285c-45 39 -98 56 -156 56c-149 0 -231 -157 -231 -306c0 -80 41 -149 129 -149c68 0 123 33 201 114zM502 747c-36 -81 -87 -138 -165 -138c-80 0 -101 84 -101 138h25c9 -55 28 -90 86 -90
c59 0 97 37 124 90h31z" />
    <glyph glyph-name="gbreve.alt" horiz-adv-x="549" 
d="M514 503l-101 -503c-25 -123 -83 -193 -227 -193c-70 0 -136 21 -158 33l14 31c31 -16 85 -31 148 -31c114 0 168 47 191 161l20 98c-54 -61 -120 -99 -194 -99c-103 0 -163 75 -163 185c0 150 89 333 273 333c69 0 124 -17 161 -32l23 17h13zM471 455
c-45 18 -90 32 -154 32c-155 0 -237 -157 -237 -302c0 -107 57 -153 132 -153c73 0 136 47 198 114zM494 747c-36 -81 -87 -138 -165 -138c-80 0 -101 84 -101 138h25c9 -55 28 -90 86 -90c59 0 97 37 124 90h31z" />
    <glyph glyph-name="gcircumflex" unicode="&#x11d;" horiz-adv-x="561" 
d="M596 498l-7 -27c-13 5 -29 10 -40 10c-31 0 -41 -14 -53 -71l-83 -410c-25 -123 -83 -193 -226 -193c-71 0 -137 21 -159 33l14 31c31 -16 85 -31 148 -31c114 0 168 47 191 161l20 98c-58 -63 -118 -99 -194 -99c-108 0 -163 82 -163 180c0 161 93 338 274 338
c71 0 118 -24 158 -53c11 28 31 44 71 44c15 0 29 -3 49 -11zM410 146l57 285c-45 39 -98 56 -156 56c-149 0 -231 -157 -231 -306c0 -80 41 -149 129 -149c68 0 123 33 201 114zM468 590h-28l-76 134l-132 -134h-30l149 176h42z" />
    <glyph glyph-name="gcircumflex.alt" horiz-adv-x="549" 
d="M514 503l-101 -503c-25 -123 -83 -193 -227 -193c-70 0 -136 21 -158 33l14 31c31 -16 85 -31 148 -31c114 0 168 47 191 161l20 98c-54 -61 -120 -99 -194 -99c-103 0 -163 75 -163 185c0 150 89 333 273 333c69 0 124 -17 161 -32l23 17h13zM471 455
c-45 18 -90 32 -154 32c-155 0 -237 -157 -237 -302c0 -107 57 -153 132 -153c73 0 136 47 198 114zM471 590h-28l-76 134l-132 -134h-30l149 176h42z" />
    <glyph glyph-name="gcommaaccent" unicode="&#x123;" horiz-adv-x="561" 
d="M596 498l-7 -27c-13 5 -29 10 -40 10c-31 0 -41 -14 -53 -71l-83 -410c-25 -123 -83 -193 -226 -193c-71 0 -137 21 -159 33l14 31c31 -16 85 -31 148 -31c114 0 168 47 191 161l20 98c-58 -63 -118 -99 -194 -99c-108 0 -163 82 -163 180c0 161 93 338 274 338
c71 0 118 -24 158 -53c11 28 31 44 71 44c15 0 29 -3 49 -11zM410 146l57 285c-45 39 -98 56 -156 56c-149 0 -231 -157 -231 -306c0 -80 41 -149 129 -149c68 0 123 33 201 114zM391 647c0 -22 -13 -39 -40 -39c-26 0 -36 15 -36 33c0 49 37 112 55 131h32
c-23 -26 -38 -62 -42 -94c18 0 31 -8 31 -31z" />
    <glyph glyph-name="gcommaaccent.alt" horiz-adv-x="549" 
d="M514 503l-101 -503c-25 -123 -83 -193 -227 -193c-70 0 -136 21 -158 33l14 31c31 -16 85 -31 148 -31c114 0 168 47 191 161l20 98c-54 -61 -120 -99 -194 -99c-103 0 -163 75 -163 185c0 150 89 333 273 333c69 0 124 -17 161 -32l23 17h13zM471 455
c-45 18 -90 32 -154 32c-155 0 -237 -157 -237 -302c0 -107 57 -153 132 -153c73 0 136 47 198 114zM368 640c0 -22 -13 -39 -40 -39c-26 0 -36 15 -36 33c0 49 37 112 55 131h32c-23 -26 -38 -62 -42 -94c18 0 31 -8 31 -31z" />
    <glyph glyph-name="gdotaccent" unicode="&#x121;" horiz-adv-x="561" 
d="M596 498l-7 -27c-13 5 -29 10 -40 10c-31 0 -41 -14 -53 -71l-83 -410c-25 -123 -83 -193 -226 -193c-71 0 -137 21 -159 33l14 31c31 -16 85 -31 148 -31c114 0 168 47 191 161l20 98c-58 -63 -118 -99 -194 -99c-108 0 -163 82 -163 180c0 161 93 338 274 338
c71 0 118 -24 158 -53c11 28 31 44 71 44c15 0 29 -3 49 -11zM410 146l57 285c-45 39 -98 56 -156 56c-149 0 -231 -157 -231 -306c0 -80 41 -149 129 -149c68 0 123 33 201 114zM375 649c0 -28 -14 -42 -39 -42c-19 0 -29 7 -29 28c0 27 14 41 39 41c21 0 29 -8 29 -27z
" />
    <glyph glyph-name="gdotaccent.alt" horiz-adv-x="549" 
d="M514 503l-101 -503c-25 -123 -83 -193 -227 -193c-70 0 -136 21 -158 33l14 31c31 -16 85 -31 148 -31c114 0 168 47 191 161l20 98c-54 -61 -120 -99 -194 -99c-103 0 -163 75 -163 185c0 150 89 333 273 333c69 0 124 -17 161 -32l23 17h13zM471 455
c-45 18 -90 32 -154 32c-155 0 -237 -157 -237 -302c0 -107 57 -153 132 -153c73 0 136 47 198 114zM376 649c0 -28 -14 -42 -39 -42c-19 0 -29 7 -29 28c0 27 14 41 39 41c21 0 29 -8 29 -27z" />
    <glyph glyph-name="germandbls" unicode="&#xdf;" horiz-adv-x="601" 
d="M63 -33l110 544c27 136 86 231 225 231c103 0 164 -62 164 -139c0 -107 -77 -171 -188 -184c105 -10 163 -65 163 -157c0 -150 -85 -277 -257 -277c-45 0 -85 8 -110 18l7 34c29 -10 58 -19 109 -19c133 0 214 103 214 238c0 116 -90 147 -233 147l6 32
c89 0 252 13 252 164c0 64 -41 110 -132 110c-121 0 -163 -88 -185 -194l-111 -548c-26 -127 -88 -160 -166 -160c-32 0 -67 9 -86 18l12 31c22 -10 48 -19 81 -19c73 0 108 47 125 130z" />
    <glyph glyph-name="grave" unicode="`" horiz-adv-x="500" 
d="M268 590h-30l-107 176h56z" />
    <glyph glyph-name="greater" unicode="&#x3e;" horiz-adv-x="649" 
d="M595 278l-501 -225v34l445 197l-445 197v34l501 -224v-13z" />
    <glyph glyph-name="guillemotleft" unicode="&#xab;" horiz-adv-x="497" 
d="M221 26h-41l-145 227l238 226h46l-239 -230zM419 26h-41l-145 227l238 226h46l-239 -230z" />
    <glyph glyph-name="guillemotright" unicode="&#xbb;" horiz-adv-x="497" 
d="M276 479h41l145 -227l-238 -226h-46l239 230zM78 479h41l145 -227l-238 -226h-46l239 230z" />
    <glyph glyph-name="guilsinglleft" unicode="&#x2039;" horiz-adv-x="299" 
d="M221 26h-41l-145 227l238 226h46l-239 -230z" />
    <glyph glyph-name="guilsinglright" unicode="&#x203a;" horiz-adv-x="299" 
d="M78 479h41l145 -227l-238 -226h-46l239 230z" />
    <glyph glyph-name="h" unicode="h" horiz-adv-x="558" 
d="M424 0h-33l63 314c6 29 12 58 12 82c0 55 -24 92 -99 92c-67 0 -144 -43 -218 -107l-77 -381h-34l147 727h33l-62 -307c92 76 158 98 222 98c83 0 122 -53 122 -109c0 -20 -4 -55 -9 -78z" />
    <glyph glyph-name="h.superior" unicode="&#xf700;" horiz-adv-x="452" 
d="M380 293h-28l47 232c4 21 8 42 8 59c0 48 -22 78 -79 78c-64 0 -124 -41 -176 -84l-57 -285h-28l113 556h28l-47 -235c69 55 122 75 174 75c67 0 102 -38 102 -100c0 -13 -2 -28 -5 -43z" />
    <glyph glyph-name="hbar" unicode="&#x127;" horiz-adv-x="558" 
d="M424 0h-33l63 314c6 29 12 58 12 82c0 55 -24 92 -99 92c-67 0 -144 -43 -218 -107l-77 -381h-34l126 625h-57l7 31h56l15 71h33l-15 -71h193l-7 -31h-192l-41 -205c92 76 158 98 222 98c83 0 122 -53 122 -109c0 -20 -4 -55 -9 -78z" />
    <glyph glyph-name="hcircumflex" unicode="&#x125;" horiz-adv-x="558" 
d="M424 0h-33l63 314c6 29 12 58 12 82c0 55 -24 92 -99 92c-67 0 -144 -43 -218 -107l-77 -381h-34l147 727h33l-62 -307c92 76 158 98 222 98c83 0 122 -53 122 -109c0 -20 -4 -55 -9 -78zM432 780h-28l-76 134l-132 -134h-30l149 176h42z" />
    <glyph glyph-name="hungarumlaut" unicode="&#x2dd;" horiz-adv-x="500" 
d="M430 766l-177 -176h-33l151 176h59zM259 766l-176 -176h-33l150 176h59z" />
    <glyph glyph-name="hyphen" unicode="-" horiz-adv-x="352" 
d="M312 231h-282l9 41h282z" />
    <glyph glyph-name="i" unicode="i" horiz-adv-x="243" 
d="M98 0h-33l84 415c5 23 9 42 9 53c0 12 -3 19 -15 19c-13 0 -38 -12 -71 -33l-12 23c45 29 74 41 96 41c26 0 37 -15 37 -39c0 -10 -4 -33 -8 -51zM228 657c0 -26 -12 -39 -34 -39c-18 0 -26 7 -26 25c0 26 11 38 34 38c18 0 26 -8 26 -24z" />
    <glyph glyph-name="i.alt" horiz-adv-x="215" 
d="M74 0h-35l102 503h35zM215 657c0 -26 -12 -39 -34 -39c-18 0 -26 7 -26 25c0 26 11 38 34 38c18 0 26 -8 26 -24z" />
    <glyph glyph-name="i.dot" horiz-adv-x="243" 
d="M98 0h-33l84 415c5 23 9 42 9 53c0 12 -3 19 -15 19c-13 0 -38 -12 -71 -33l-12 23c45 29 74 41 96 41c26 0 37 -15 37 -39c0 -10 -4 -33 -8 -51zM228 657c0 -26 -12 -39 -34 -39c-18 0 -26 7 -26 25c0 26 11 38 34 38c18 0 26 -8 26 -24z" />
    <glyph glyph-name="i.superior" unicode="&#x2071;" horiz-adv-x="212" 
d="M132 293h-28l64 314c3 16 7 29 7 38s-3 14 -12 14c-10 0 -30 -9 -59 -26l-10 21c39 24 62 35 82 35c21 0 28 -11 28 -30c0 -12 -3 -26 -6 -43zM240 795c0 -22 -10 -33 -30 -33c-14 0 -21 6 -21 21c0 22 9 32 28 32c16 0 23 -7 23 -20z" />
    <glyph glyph-name="iacute" unicode="&#xed;" horiz-adv-x="243" 
d="M98 0h-33l84 415c5 23 9 42 9 53c0 12 -3 19 -15 19c-13 0 -38 -12 -71 -33l-12 23c45 29 74 41 96 41c26 0 37 -15 37 -39c0 -10 -4 -33 -8 -51zM323 766l-175 -176h-35l149 176h61z" />
    <glyph glyph-name="iacute.alt" horiz-adv-x="215" 
d="M74 0h-35l102 503h35zM356 766l-175 -176h-35l149 176h61z" />
    <glyph glyph-name="ibreve" unicode="&#x12d;" horiz-adv-x="243" 
d="M98 0h-33l84 415c5 23 9 42 9 53c0 12 -3 19 -15 19c-13 0 -38 -12 -71 -33l-12 23c45 29 74 41 96 41c26 0 37 -15 37 -39c0 -10 -4 -33 -8 -51zM337 747c-36 -81 -87 -138 -165 -138c-80 0 -101 84 -101 138h25c9 -55 28 -90 86 -90c59 0 97 37 124 90h31z" />
    <glyph glyph-name="ibreve.alt" horiz-adv-x="215" 
d="M74 0h-35l102 503h35zM338 747c-36 -81 -87 -138 -165 -138c-80 0 -101 84 -101 138h25c9 -55 28 -90 86 -90c59 0 97 37 124 90h31z" />
    <glyph glyph-name="icircumflex" unicode="&#xee;" horiz-adv-x="243" 
d="M98 0h-33l84 415c5 23 9 42 9 53c0 12 -3 19 -15 19c-13 0 -38 -12 -71 -33l-12 23c45 29 74 41 96 41c26 0 37 -15 37 -39c0 -10 -4 -33 -8 -51zM300 590h-28l-76 134l-132 -134h-30l149 176h42z" />
    <glyph glyph-name="icircumflex.alt" horiz-adv-x="215" 
d="M74 0h-35l102 503h35zM314 590h-28l-76 134l-132 -134h-30l149 176h42z" />
    <glyph glyph-name="idieresis" unicode="&#xef;" horiz-adv-x="243" 
d="M98 0h-33l84 415c5 23 9 42 9 53c0 12 -3 19 -15 19c-13 0 -38 -12 -71 -33l-12 23c45 29 74 41 96 41c26 0 37 -15 37 -39c0 -10 -4 -33 -8 -51zM133 649c0 -28 -15 -42 -40 -42c-21 0 -31 8 -31 27c0 27 14 41 40 41c21 0 31 -9 31 -26zM294 649c0 -28 -15 -42 -40 -42
c-21 0 -31 8 -31 27c0 27 14 41 40 41c21 0 31 -9 31 -26z" />
    <glyph glyph-name="idieresis.alt" horiz-adv-x="215" 
d="M74 0h-35l102 503h35zM137 649c0 -28 -15 -42 -40 -42c-21 0 -31 8 -31 27c0 27 14 41 40 41c21 0 31 -9 31 -26zM298 649c0 -28 -15 -42 -40 -42c-21 0 -31 8 -31 27c0 27 14 41 40 41c21 0 31 -9 31 -26z" />
    <glyph glyph-name="igrave" unicode="&#xec;" horiz-adv-x="243" 
d="M98 0h-33l84 415c5 23 9 42 9 53c0 12 -3 19 -15 19c-13 0 -38 -12 -71 -33l-12 23c45 29 74 41 96 41c26 0 37 -15 37 -39c0 -10 -4 -33 -8 -51zM243 590h-30l-107 176h56z" />
    <glyph glyph-name="igrave.alt" horiz-adv-x="215" 
d="M74 0h-35l102 503h35zM189 590h-30l-107 176h56z" />
    <glyph glyph-name="ij" unicode="&#x133;" horiz-adv-x="500" 
d="M98 0h-33l84 415c5 23 9 42 9 53c0 12 -3 19 -15 19c-13 0 -38 -12 -71 -33l-12 23c45 29 74 41 96 41c26 0 37 -15 37 -39c0 -10 -4 -33 -8 -51zM228 657c0 -26 -12 -39 -34 -39c-18 0 -26 7 -26 25c0 26 11 38 34 38c18 0 26 -8 26 -24zM441 428l-96 -471
c-21 -101 -59 -150 -156 -150c-32 0 -68 7 -82 14l14 31c21 -9 51 -13 77 -13c77 0 100 46 119 140l88 437c5 23 9 42 9 53c0 12 -5 18 -15 18c-13 0 -38 -12 -71 -33l-12 23c45 29 74 41 96 41c26 0 37 -15 37 -39c0 -10 -4 -33 -8 -51zM485 657c0 -26 -12 -39 -34 -39
c-18 0 -26 7 -26 25c0 26 11 38 34 38c18 0 26 -8 26 -24z" />
    <glyph glyph-name="ij.alt" horiz-adv-x="456" 
d="M74 0h-35l102 503h35zM215 657c0 -26 -12 -39 -34 -39c-18 0 -26 7 -26 25c0 26 11 38 34 38c18 0 26 -8 26 -24zM417 503l-112 -546c-21 -101 -59 -150 -156 -150c-32 0 -68 7 -82 14l14 31c21 -9 51 -13 77 -13c77 0 100 46 119 140l106 524h34zM454 657
c0 -26 -12 -39 -34 -39c-18 0 -26 7 -26 25c0 26 11 38 34 38c18 0 26 -8 26 -24z" />
    <glyph glyph-name="imacron" unicode="&#x12b;" horiz-adv-x="243" 
d="M98 0h-33l84 415c5 23 9 42 9 53c0 12 -3 19 -15 19c-13 0 -38 -12 -71 -33l-12 23c45 29 74 41 96 41c26 0 37 -15 37 -39c0 -10 -4 -33 -8 -51zM318 659h-282l9 43h282z" />
    <glyph glyph-name="imacron.alt" horiz-adv-x="215" 
d="M74 0h-35l102 503h35zM318 659h-282l9 43h282z" />
    <glyph glyph-name="integral" unicode="&#x222b;" horiz-adv-x="498" 
d="M426 756l-8 -30c-12 5 -28 8 -44 8c-72 0 -106 -47 -106 -123v-694c0 -102 -57 -156 -140 -156c-18 0 -42 3 -57 8c3 12 5 19 7 30c13 -4 28 -7 46 -7c71 0 105 44 105 122v697c0 95 53 153 141 153c20 0 42 -4 56 -8z" />
    <glyph glyph-name="iogonek" unicode="&#x12f;" horiz-adv-x="243" 
d="M98 0c-20 -34 -35 -72 -35 -111c0 -36 21 -49 61 -49c30 0 65 14 88 23l7 -25c-27 -15 -67 -31 -111 -31c-58 0 -83 32 -83 76c0 43 19 84 41 121l83 411c5 23 9 42 9 53c0 12 -3 19 -15 19c-13 0 -38 -12 -71 -33l-12 23c45 29 74 41 96 41c26 0 37 -15 37 -39
c0 -10 -4 -33 -8 -51zM228 657c0 -26 -12 -39 -34 -39c-18 0 -26 7 -26 25c0 26 11 38 34 38c18 0 26 -8 26 -24z" />
    <glyph glyph-name="iogonek.alt" horiz-adv-x="215" 
d="M74 0c-20 -34 -36 -71 -36 -111c0 -36 21 -49 61 -49c30 0 65 14 88 23l7 -25c-27 -15 -67 -31 -111 -31c-58 0 -83 32 -83 76c0 41 18 81 39 117l102 503h35zM215 657c0 -26 -12 -39 -34 -39c-18 0 -26 7 -26 25c0 26 11 38 34 38c18 0 26 -8 26 -24z" />
    <glyph glyph-name="itilde" unicode="&#x129;" horiz-adv-x="243" 
d="M98 0h-33l84 415c5 23 9 42 9 53c0 12 -3 19 -15 19c-13 0 -38 -12 -71 -33l-12 23c45 29 74 41 96 41c26 0 37 -15 37 -39c0 -10 -4 -33 -8 -51zM347 738c-12 -60 -38 -120 -104 -120c-45 0 -67 37 -90 63c-13 14 -25 25 -43 25c-40 0 -60 -58 -66 -88h-31
c13 60 42 120 109 120c31 0 51 -19 69 -40c20 -23 37 -48 63 -48c41 0 56 57 64 88h29z" />
    <glyph glyph-name="itilde.alt" horiz-adv-x="219" 
d="M74 0h-35l102 503h35zM351 738c-12 -60 -38 -120 -104 -120c-45 0 -67 37 -90 63c-13 14 -25 25 -43 25c-40 0 -60 -58 -66 -88h-31c13 60 42 120 109 120c31 0 51 -19 69 -40c20 -23 37 -48 63 -48c41 0 56 57 64 88h29z" />
    <glyph glyph-name="j" unicode="j" horiz-adv-x="253" 
d="M194 428l-96 -471c-21 -101 -59 -150 -156 -150c-32 0 -68 7 -82 14l14 31c21 -9 51 -13 77 -13c77 0 100 46 119 140l88 437c5 23 9 42 9 53c0 12 -5 18 -15 18c-13 0 -38 -12 -71 -33l-12 23c45 29 74 41 96 41c26 0 37 -15 37 -39c0 -10 -4 -33 -8 -51zM238 657
c0 -26 -12 -39 -34 -39c-18 0 -26 7 -26 25c0 26 11 38 34 38c18 0 26 -8 26 -24z" />
    <glyph glyph-name="j.alt" horiz-adv-x="239" 
d="M200 503l-112 -546c-21 -101 -59 -150 -156 -150c-32 0 -68 7 -82 14l14 31c21 -9 51 -13 77 -13c77 0 100 46 119 140l106 524h34zM237 657c0 -26 -12 -39 -34 -39c-18 0 -26 7 -26 25c0 26 11 38 34 38c18 0 26 -8 26 -24z" />
    <glyph glyph-name="jcircumflex" unicode="&#x135;" horiz-adv-x="253" 
d="M194 428l-96 -471c-21 -101 -59 -150 -156 -150c-32 0 -68 7 -82 14l16 32c21 -9 49 -14 75 -14c77 0 100 46 119 140l88 437c5 23 9 42 9 53c0 12 -5 19 -15 19c-13 0 -38 -10 -71 -31l-12 20c45 29 74 41 96 41c26 0 37 -15 37 -39c0 -10 -4 -33 -8 -51zM307 590h-28
l-76 134l-132 -134h-30l149 176h42z" />
    <glyph glyph-name="jcircumflex.alt" horiz-adv-x="239" 
d="M89 -43c-21 -101 -60 -150 -157 -150c-32 0 -67 7 -81 14l16 32c21 -9 47 -14 73 -14c75 0 100 39 120 140l106 524h34zM323 590h-28l-76 134l-132 -134h-30l149 176h42z" />
    <glyph glyph-name="k" unicode="k" horiz-adv-x="465" 
d="M465 503l-222 -207l122 -253c8 -17 17 -23 31 -23c7 0 16 2 26 5l5 -28c-15 -4 -26 -8 -41 -8c-25 0 -41 17 -56 49l-111 235l-114 -107l-33 -166h-34l147 727h34l-105 -512l305 288h46z" />
    <glyph glyph-name="kcommaaccent" unicode="&#x137;" horiz-adv-x="465" 
d="M465 503l-222 -207l122 -253c8 -17 17 -23 31 -23c7 0 16 2 26 5l5 -28c-15 -4 -26 -8 -41 -8c-25 0 -41 17 -56 49l-111 235l-114 -107l-33 -166h-34l147 727h34l-105 -512l305 288h46zM174 -68c0 22 13 39 40 39c26 0 36 -15 36 -33c0 -49 -37 -112 -55 -131h-32
c23 26 38 62 42 94c-18 0 -31 8 -31 31z" />
    <glyph glyph-name="kgreenlandic" unicode="&#x138;" horiz-adv-x="465" 
d="M465 503l-222 -208l122 -252c8 -17 17 -23 31 -23c7 0 16 2 26 5l5 -28c-15 -4 -27 -8 -42 -8c-27 0 -42 17 -57 49l-109 234l-114 -106l-33 -166h-34l101 503h34l-59 -288l306 288h45z" />
    <glyph glyph-name="l" unicode="l" horiz-adv-x="251" 
d="M199 -8c-12 -3 -39 -7 -63 -7c-62 0 -81 34 -81 82c0 19 4 40 11 77l115 566l40 31l-120 -587c-8 -38 -12 -62 -12 -83c0 -32 11 -56 55 -56c16 0 33 2 51 7z" />
    <glyph glyph-name="l.alt" horiz-adv-x="221" 
d="M77 0h-35l146 719l42 31z" />
    <glyph glyph-name="l.superior" unicode="&#xf6ee;" horiz-adv-x="201" 
d="M181 311v-24c-14 -4 -31 -6 -48 -6c-44 0 -68 21 -68 61c0 12 2 27 5 43l92 451l32 22l-94 -465c-4 -22 -6 -34 -6 -46c0 -30 14 -41 51 -41c10 0 23 2 36 5z" />
    <glyph glyph-name="lacute" unicode="&#x13a;" horiz-adv-x="251" 
d="M199 -8c-12 -3 -39 -7 -63 -7c-62 0 -81 34 -81 82c0 19 4 40 11 77l115 566l40 31l-120 -587c-8 -38 -12 -62 -12 -83c0 -32 11 -56 55 -56c16 0 33 2 51 7zM399 956l-175 -176h-35l149 176h61z" />
    <glyph glyph-name="lacute.alt" horiz-adv-x="221" 
d="M77 0h-35l146 719l42 31zM404 956l-175 -176h-35l149 176h61z" />
    <glyph glyph-name="lcaron" unicode="&#x13e;" horiz-adv-x="251" 
d="M199 -8c-12 -3 -39 -7 -63 -7c-62 0 -81 34 -81 82c0 19 4 40 11 77l115 566l40 31l-120 -587c-8 -38 -12 -62 -12 -83c0 -32 11 -56 55 -56c16 0 33 2 51 7zM263 688c0 22 13 39 40 39c24 0 36 -15 36 -36c0 -49 -35 -120 -79 -171h-32c23 26 60 88 66 137
c-18 0 -31 8 -31 31z" />
    <glyph glyph-name="lcaron.alt" horiz-adv-x="221" 
d="M77 0h-35l146 719l42 31zM259 703c0 22 13 39 40 39c24 0 36 -15 36 -36c0 -49 -35 -120 -79 -171h-32c23 26 60 88 66 137c-18 0 -31 8 -31 31z" />
    <glyph glyph-name="lcommaaccent" unicode="&#x13c;" horiz-adv-x="251" 
d="M199 -8c-12 -3 -39 -7 -63 -7c-62 0 -81 34 -81 82c0 19 4 40 11 77l115 566l40 31l-120 -587c-8 -38 -12 -62 -12 -83c0 -32 11 -56 55 -56c16 0 33 2 51 7zM96 -68c0 22 13 39 40 39c26 0 36 -15 36 -33c0 -49 -37 -112 -55 -131h-32c23 26 38 62 42 94
c-18 0 -31 8 -31 31z" />
    <glyph glyph-name="lcommaaccent.alt" horiz-adv-x="221" 
d="M77 0h-35l146 719l42 31zM11 -68c0 22 13 39 40 39c26 0 36 -15 36 -33c0 -49 -37 -112 -55 -131h-32c23 26 38 62 42 94c-18 0 -31 8 -31 31z" />
    <glyph glyph-name="ldot" unicode="&#x140;" horiz-adv-x="251" 
d="M199 -8c-12 -3 -39 -7 -63 -7c-62 0 -81 34 -81 82c0 19 4 40 11 77l115 566l40 31l-120 -587c-8 -38 -12 -62 -12 -83c0 -32 11 -56 55 -56c16 0 33 2 51 7zM285 330c0 -28 -14 -42 -39 -42c-19 0 -29 7 -29 28c0 27 14 41 39 41c21 0 29 -8 29 -27z" />
    <glyph glyph-name="ldot.alt" horiz-adv-x="221" 
d="M77 0h-35l146 719l42 31zM272 329c0 -28 -14 -42 -39 -42c-19 0 -29 7 -29 28c0 27 14 41 39 41c21 0 29 -8 29 -27z" />
    <glyph glyph-name="less" unicode="&#x3c;" horiz-adv-x="649" 
d="M545 53l-501 225v13l501 224v-34l-445 -197l445 -197v-34z" />
    <glyph glyph-name="lozenge" unicode="&#x25ca;" horiz-adv-x="581" 
d="M287 714h22l220 -357l-220 -357h-22l-219 356zM494 357l-196 319l-197 -319l196 -319z" />
    <glyph glyph-name="lslash" unicode="&#x142;" horiz-adv-x="251" 
d="M199 -8c-12 -3 -39 -7 -63 -7c-62 0 -81 34 -81 82c0 19 4 40 11 77l35 173l-103 -82l5 41l107 86l71 348l40 31l-71 -348l104 84l-5 -41l-108 -87l-40 -195c-8 -38 -12 -62 -12 -83c0 -32 11 -56 55 -56c16 0 33 2 51 7z" />
    <glyph glyph-name="lslash.alt" horiz-adv-x="221" 
d="M77 0h-35l64 316l-100 -80l8 40l100 80l74 363l42 31l-74 -360l97 77l-8 -40l-97 -77z" />
    <glyph glyph-name="m" unicode="m" horiz-adv-x="839" 
d="M706 0h-33l62 304c8 38 13 70 13 96c0 59 -23 88 -83 88s-148 -62 -202 -112c-3 -16 -6 -40 -9 -54l-65 -322h-34l62 304c5 24 11 67 11 92c0 63 -21 92 -79 92c-68 0 -147 -62 -200 -107l-77 -381h-34l102 503h33l-17 -83c76 67 137 98 201 98c68 0 104 -36 104 -109
c69 63 143 109 210 109c77 0 110 -42 110 -116c0 -22 -3 -48 -8 -75z" />
    <glyph glyph-name="m.superior" unicode="&#xf6ef;" horiz-adv-x="684" 
d="M597 293h-27l47 231c5 24 9 48 9 69c0 40 -16 70 -65 70c-48 0 -96 -30 -155 -81l-60 -289h-27l47 231c5 27 10 49 10 70c0 43 -15 69 -62 69c-49 0 -100 -28 -160 -82l-59 -288h-28l78 384h28l-13 -64c47 39 99 76 160 76c55 0 83 -27 87 -80c60 51 106 80 160 80
c58 0 89 -32 89 -90c0 -16 -3 -35 -7 -55z" />
    <glyph glyph-name="macron" unicode="&#xaf;" horiz-adv-x="500" 
d="M386 659h-282l9 43h282z" />
    <glyph glyph-name="n" unicode="n" horiz-adv-x="558" 
d="M500 407c0 -18 -4 -49 -9 -75l-67 -332h-33l68 339c4 22 7 42 7 60c0 55 -27 89 -97 89c-79 0 -169 -61 -220 -107l-77 -381h-34l102 503h33l-17 -83c43 39 124 98 223 98c81 0 121 -44 121 -111z" />
    <glyph glyph-name="n.superior" unicode="&#x207f;" horiz-adv-x="452" 
d="M380 293h-28l47 232c4 21 8 42 8 59c0 48 -22 78 -79 78c-64 0 -124 -41 -176 -84l-57 -285h-28l78 384h28l-12 -63c69 55 122 75 174 75c67 0 102 -38 102 -100c0 -13 -2 -28 -5 -43z" />
    <glyph glyph-name="nacute" unicode="&#x144;" horiz-adv-x="558" 
d="M500 407c0 -18 -4 -49 -9 -75l-67 -332h-33l68 339c4 22 7 42 7 60c0 55 -27 89 -97 89c-79 0 -169 -61 -220 -107l-77 -381h-34l102 503h33l-17 -83c43 39 124 98 223 98c81 0 121 -44 121 -111zM486 766l-175 -176h-35l149 176h61z" />
    <glyph glyph-name="napostrophe" unicode="&#x149;" horiz-adv-x="558" 
d="M500 407c0 -18 -4 -49 -9 -75l-67 -332h-33l68 339c4 22 7 42 7 60c0 55 -27 89 -97 89c-79 0 -169 -61 -220 -107l-77 -381h-34l102 503h33l-17 -83c43 39 124 98 223 98c81 0 121 -44 121 -111zM63 711c0 22 13 39 40 39c24 0 36 -15 36 -36c0 -49 -35 -120 -79 -171
h-32c23 26 60 88 66 137c-18 0 -31 8 -31 31z" />
    <glyph glyph-name="ncaron" unicode="&#x148;" horiz-adv-x="558" 
d="M500 407c0 -18 -4 -49 -9 -75l-67 -332h-33l68 339c4 22 7 42 7 60c0 55 -27 89 -97 89c-79 0 -169 -61 -220 -107l-77 -381h-34l102 503h33l-17 -83c43 39 124 98 223 98c81 0 121 -44 121 -111zM514 766l-146 -176h-42l-78 176h27l79 -134l129 134h31z" />
    <glyph glyph-name="ncommaaccent" unicode="&#x146;" horiz-adv-x="558" 
d="M500 407c0 -18 -4 -49 -9 -75l-67 -332h-33l68 339c4 22 7 42 7 60c0 55 -27 89 -97 89c-79 0 -169 -61 -220 -107l-77 -381h-34l102 503h33l-17 -83c43 39 124 98 223 98c81 0 121 -44 121 -111zM195 -68c0 22 13 39 40 39c26 0 36 -15 36 -33c0 -49 -37 -112 -55 -131
h-32c23 26 38 62 42 94c-18 0 -31 8 -31 31z" />
    <glyph glyph-name="nine" unicode="9" horiz-adv-x="580" 
d="M171 -133c159 0 274 153 310 336c-64 -54 -151 -85 -231 -85c-122 0 -195 76 -195 188c0 145 78 275 259 275c129 0 217 -89 217 -252c0 -219 -121 -495 -363 -495c-77 0 -137 38 -163 65l25 25c28 -28 72 -57 141 -57zM261 152c78 0 166 38 227 93c3 26 5 53 5 80
c0 124 -54 222 -184 222c-145 0 -215 -107 -215 -231c0 -89 39 -164 167 -164z" />
    <glyph glyph-name="nine.denominator" unicode="&#xe113;" horiz-adv-x="416" 
d="M12 122c0 106 83 172 193 172c100 0 151 -65 151 -155c0 -139 -85 -303 -255 -303c-52 0 -96 14 -125 38l26 24c25 -22 58 -34 104 -34c113 0 182 93 203 191c-48 -32 -102 -48 -160 -48c-80 0 -137 41 -137 115zM198 265c-84 0 -153 -47 -153 -140c0 -58 37 -90 114 -90
c57 0 114 22 157 52c3 14 4 37 4 48c0 69 -26 130 -122 130z" />
    <glyph glyph-name="nine.fitted" unicode="&#xe09f;" horiz-adv-x="577" 
d="M174 18c162 0 276 176 313 348c-64 -55 -152 -87 -233 -87c-121 0 -194 72 -194 187c0 152 79 276 260 276c137 0 218 -103 218 -253c0 -213 -138 -504 -371 -504c-80 0 -130 29 -161 62l28 25c27 -30 71 -54 140 -54zM265 313c84 0 169 39 230 96c3 25 5 50 5 74
c0 117 -54 225 -188 225c-145 0 -213 -105 -213 -237c0 -89 42 -158 166 -158z" />
    <glyph glyph-name="nine.inferior" unicode="&#x2089;" horiz-adv-x="416" 
d="M44 157c0 106 83 172 193 172c100 0 151 -65 151 -155c0 -139 -85 -303 -255 -303c-52 0 -96 14 -125 38l26 24c25 -22 58 -34 104 -34c113 0 182 93 203 191c-48 -32 -102 -48 -160 -48c-80 0 -137 41 -137 115zM230 300c-84 0 -153 -47 -153 -140c0 -58 37 -90 114 -90
c57 0 114 22 157 52c3 14 4 37 4 48c0 69 -26 130 -122 130z" />
    <glyph glyph-name="nine.numerator" unicode="&#xe127;" horiz-adv-x="416" 
d="M89 570c0 106 83 172 193 172c100 0 151 -65 151 -155c0 -139 -85 -303 -255 -303c-52 0 -96 14 -125 38l26 24c25 -22 58 -34 104 -34c113 0 182 93 203 191c-48 -32 -102 -48 -160 -48c-80 0 -137 41 -137 115zM275 713c-84 0 -153 -47 -153 -140c0 -58 37 -90 114 -90
c57 0 114 22 157 52c3 14 4 37 4 48c0 69 -26 130 -122 130z" />
    <glyph glyph-name="nine.superior" unicode="&#x2079;" horiz-adv-x="416" 
d="M89 570c0 106 83 172 193 172c100 0 151 -65 151 -155c0 -139 -85 -303 -255 -303c-52 0 -96 14 -125 38l26 24c25 -22 58 -34 104 -34c113 0 182 93 203 191c-48 -32 -102 -48 -160 -48c-80 0 -137 41 -137 115zM275 713c-84 0 -153 -47 -153 -140c0 -58 37 -90 114 -90
c57 0 114 22 157 52c3 14 4 37 4 48c0 69 -26 130 -122 130z" />
    <glyph glyph-name="nine.tab" 
d="M174 18c162 0 276 176 313 348c-64 -55 -152 -87 -233 -87c-121 0 -194 72 -194 187c0 152 79 276 260 276c137 0 218 -103 218 -253c0 -213 -138 -504 -371 -504c-80 0 -130 29 -161 62l28 25c27 -30 71 -54 140 -54zM265 313c84 0 169 39 230 96c3 25 5 50 5 74
c0 117 -54 225 -188 225c-145 0 -213 -105 -213 -237c0 -89 42 -158 166 -158z" />
    <glyph glyph-name="nine.taboldstyle" unicode="&#xe109;" 
d="M158 -133c159 0 274 153 310 336c-64 -54 -151 -85 -231 -85c-122 0 -195 76 -195 188c0 145 78 275 259 275c129 0 217 -89 217 -252c0 -219 -121 -495 -363 -495c-77 0 -137 38 -163 65l25 25c28 -28 72 -57 141 -57zM248 152c78 0 166 38 227 93c3 26 5 53 5 80
c0 124 -54 222 -184 222c-145 0 -215 -107 -215 -231c0 -89 39 -164 167 -164z" />
    <glyph glyph-name="ntilde" unicode="&#xf1;" horiz-adv-x="558" 
d="M500 407c0 -18 -4 -49 -9 -75l-67 -332h-33l68 339c4 22 7 42 7 60c0 55 -27 89 -97 89c-79 0 -169 -61 -220 -107l-77 -381h-34l102 503h33l-17 -83c43 39 124 98 223 98c81 0 121 -44 121 -111zM521 738c-12 -60 -38 -120 -104 -120c-45 0 -67 37 -90 63
c-13 14 -25 25 -43 25c-40 0 -60 -58 -66 -88h-31c13 60 42 120 109 120c31 0 51 -19 69 -40c20 -23 37 -48 63 -48c41 0 56 57 64 88h29z" />
    <glyph glyph-name="numbersign" unicode="#" horiz-adv-x="647" 
d="M630 473h-148l-56 -219h147v-30h-154l-55 -224h-32l55 224h-154l-56 -224h-32l56 224h-144v30h150l57 219h-150v30h157l55 224h32l-55 -224h154l56 224h32l-56 -224h141v-30zM450 473h-154l-57 -219h155z" />
    <glyph glyph-name="o" unicode="o" horiz-adv-x="544" 
d="M500 323c0 -163 -87 -338 -269 -338c-110 0 -187 70 -187 195c0 161 83 338 273 338c104 0 183 -70 183 -195zM238 18c139 0 226 141 226 304c0 93 -49 163 -153 163c-149 0 -231 -146 -231 -301c0 -98 48 -166 158 -166z" />
    <glyph glyph-name="o.superior" unicode="&#xf6f0;" horiz-adv-x="440" 
d="M445 533c0 -135 -66 -252 -215 -252c-106 0 -156 67 -156 158c0 128 67 250 219 250c100 0 152 -67 152 -156zM233 306c126 0 181 102 181 224c0 65 -28 132 -126 132c-120 0 -184 -101 -184 -219c0 -77 35 -137 129 -137z" />
    <glyph glyph-name="oacute" unicode="&#xf3;" horiz-adv-x="544" 
d="M500 323c0 -163 -87 -338 -269 -338c-110 0 -187 70 -187 195c0 161 83 338 273 338c104 0 183 -70 183 -195zM238 18c139 0 226 141 226 304c0 93 -49 163 -153 163c-149 0 -231 -146 -231 -301c0 -98 48 -166 158 -166zM478 766l-175 -176h-35l149 176h61z" />
    <glyph glyph-name="obreve" unicode="&#x14f;" horiz-adv-x="544" 
d="M500 323c0 -163 -87 -338 -269 -338c-110 0 -187 70 -187 195c0 161 83 338 273 338c104 0 183 -70 183 -195zM238 18c139 0 226 141 226 304c0 93 -49 163 -153 163c-149 0 -231 -146 -231 -301c0 -98 48 -166 158 -166zM482 747c-36 -81 -87 -138 -165 -138
c-80 0 -101 84 -101 138h25c9 -55 28 -90 86 -90c59 0 97 37 124 90h31z" />
    <glyph glyph-name="ocircumflex" unicode="&#xf4;" horiz-adv-x="544" 
d="M500 323c0 -163 -87 -338 -269 -338c-110 0 -187 70 -187 195c0 161 83 338 273 338c104 0 183 -70 183 -195zM238 18c139 0 226 141 226 304c0 93 -49 163 -153 163c-149 0 -231 -146 -231 -301c0 -98 48 -166 158 -166zM449 590h-28l-76 134l-132 -134h-30l149 176h42z
" />
    <glyph glyph-name="odieresis" unicode="&#xf6;" horiz-adv-x="544" 
d="M500 323c0 -163 -87 -338 -269 -338c-110 0 -187 70 -187 195c0 161 83 338 273 338c104 0 183 -70 183 -195zM238 18c139 0 226 141 226 304c0 93 -49 163 -153 163c-149 0 -231 -146 -231 -301c0 -98 48 -166 158 -166zM282 649c0 -28 -15 -42 -40 -42
c-21 0 -31 8 -31 27c0 27 14 41 40 41c21 0 31 -9 31 -26zM443 649c0 -28 -15 -42 -40 -42c-21 0 -31 8 -31 27c0 27 14 41 40 41c21 0 31 -9 31 -26z" />
    <glyph glyph-name="ogonek" unicode="&#x2db;" horiz-adv-x="500" 
d="M357 -162c-27 -15 -67 -31 -111 -31c-58 0 -83 32 -83 76c0 53 30 103 58 148h34c-25 -40 -54 -90 -54 -142c0 -36 21 -49 61 -49c30 0 65 14 88 23z" />
    <glyph glyph-name="ograve" unicode="&#xf2;" horiz-adv-x="544" 
d="M500 323c0 -163 -87 -338 -269 -338c-110 0 -187 70 -187 195c0 161 83 338 273 338c104 0 183 -70 183 -195zM238 18c139 0 226 141 226 304c0 93 -49 163 -153 163c-149 0 -231 -146 -231 -301c0 -98 48 -166 158 -166zM382 590h-30l-107 176h56z" />
    <glyph glyph-name="ohungarumlaut" unicode="&#x151;" horiz-adv-x="544" 
d="M500 323c0 -163 -87 -338 -269 -338c-110 0 -187 70 -187 195c0 161 83 338 273 338c104 0 183 -70 183 -195zM238 18c139 0 226 141 226 304c0 93 -49 163 -153 163c-149 0 -231 -146 -231 -301c0 -98 48 -166 158 -166zM584 766l-177 -176h-33l151 176h59zM413 766
l-176 -176h-33l150 176h59z" />
    <glyph glyph-name="omacron" unicode="&#x14d;" horiz-adv-x="544" 
d="M500 323c0 -163 -87 -338 -269 -338c-110 0 -187 70 -187 195c0 161 83 338 273 338c104 0 183 -70 183 -195zM238 18c139 0 226 141 226 304c0 93 -49 163 -153 163c-149 0 -231 -146 -231 -301c0 -98 48 -166 158 -166zM469 659h-282l9 43h282z" />
    <glyph glyph-name="one" unicode="1" horiz-adv-x="429" 
d="M320 0h-297l7 31h141l96 472c-41 -34 -109 -63 -170 -77l6 32c79 23 146 62 200 127h18l-114 -554h120z" />
    <glyph glyph-name="one.denominator" unicode="&#xe10b;" horiz-adv-x="306" 
d="M200 -154h-230l5 25h109l72 353c-36 -25 -84 -49 -132 -58l5 25c62 19 116 52 160 104h11l-86 -424h91z" />
    <glyph glyph-name="one.fitted" unicode="&#xf6dc;" horiz-adv-x="429" 
d="M297 0h-297l6 31h141l127 621c-39 -29 -106 -60 -170 -74l6 31c80 23 159 71 205 133h13l-145 -711h120z" />
    <glyph glyph-name="one.inferior" unicode="&#x2081;" horiz-adv-x="306" 
d="M231 -117h-230l5 25h109l72 353c-36 -25 -84 -49 -132 -58l5 25c62 19 116 52 160 104h11l-86 -424h91z" />
    <glyph glyph-name="one.numerator" unicode="&#xe11f;" horiz-adv-x="306" 
d="M272 293h-230l5 25h109l72 353c-36 -25 -84 -49 -132 -58l5 25c62 19 116 52 160 104h11l-86 -424h91z" />
    <glyph glyph-name="one.tab" 
d="M376 0h-297l6 31h141l127 621c-39 -29 -106 -60 -170 -74l6 31c80 23 159 71 205 133h13l-145 -711h120z" />
    <glyph glyph-name="one.taboldstyle" unicode="&#xe101;" 
d="M405 0h-297l7 31h141l96 472c-41 -34 -109 -63 -170 -77l6 32c79 23 146 62 200 127h18l-114 -554h120z" />
    <glyph glyph-name="oneeighth" unicode="&#x215b;" horiz-adv-x="977" 
d="M800 727l-569 -878h-38l569 878h38zM308 293h-230l5 25h109l72 353c-36 -25 -84 -49 -132 -58l5 25c62 19 116 52 160 104h11l-86 -424h91zM903 -24c0 -98 -98 -140 -189 -140c-104 0 -158 48 -158 108c0 82 79 119 157 135c-53 18 -94 45 -94 99c0 87 90 116 175 116
c96 0 144 -46 144 -97c0 -70 -70 -103 -139 -120c66 -20 104 -49 104 -101zM905 193c0 44 -39 74 -117 74c-75 0 -136 -24 -136 -87c0 -41 27 -66 105 -91c76 17 148 43 148 104zM720 -135c71 0 150 35 150 108c0 56 -56 74 -114 93c-78 -15 -167 -41 -167 -120
c0 -46 45 -81 131 -81z" />
    <glyph glyph-name="onehalf" unicode="&#xbd;" horiz-adv-x="977" 
d="M789 727l-569 -878h-38l569 878h38zM315 293h-230l5 25h109l72 353c-36 -25 -84 -49 -132 -58l5 25c62 19 116 52 160 104h11l-86 -424h91zM883 -154h-338l7 33c53 35 124 82 180 120c106 72 172 120 172 186c0 48 -33 84 -108 84c-71 0 -116 -29 -158 -69l-19 20
c36 37 96 75 179 75c88 0 138 -44 138 -105c0 -84 -90 -145 -172 -201c-67 -46 -94 -62 -176 -115h301z" />
    <glyph glyph-name="onequarter" unicode="&#xbc;" horiz-adv-x="977" 
d="M323 293h-230l5 25h109l72 353c-36 -25 -84 -49 -132 -58l5 25c62 19 116 52 160 104h11l-86 -424h91zM800 727l-569 -878h-38l569 878h38zM863 -34h-73l-27 -133h-28l27 133h-235l5 25l307 303h22l-66 -303h73zM767 -9l56 252l-256 -252h200z" />
    <glyph glyph-name="onethird" unicode="&#x2153;" horiz-adv-x="977" 
d="M800 727l-569 -878h-38l569 878h38zM322 293h-230l5 25h109l72 353c-36 -25 -84 -49 -132 -58l5 25c62 19 116 52 160 104h11l-86 -424h91zM896 -5c0 -103 -84 -159 -189 -159c-70 0 -121 30 -146 71l26 18c26 -40 67 -61 126 -61c75 0 149 34 149 129
c0 58 -44 83 -118 83c-19 0 -45 -3 -72 -11l2 9l226 183h-253l5 28h293l-5 -29l-194 -157c5 1 14 1 16 1c84 0 134 -41 134 -105z" />
    <glyph glyph-name="ordfeminine" unicode="&#xaa;" horiz-adv-x="355" 
d="M400 732l-70 -329h-22l4 55c-34 -37 -75 -64 -128 -64c-84 0 -109 62 -109 130c0 100 61 217 185 217c48 0 83 -11 108 -20l24 11h8zM361 694c-27 11 -59 20 -103 20c-102 0 -150 -111 -150 -190c0 -63 25 -102 82 -102c47 0 84 27 131 75z" />
    <glyph glyph-name="ordmasculine" unicode="&#xba;" horiz-adv-x="363" 
d="M383 614c0 -111 -54 -218 -182 -218c-84 0 -126 50 -126 127c0 108 52 219 181 219c79 0 127 -50 127 -128zM205 424c100 0 145 92 145 185c0 57 -28 105 -98 105c-100 0 -144 -93 -144 -186c0 -51 21 -104 97 -104z" />
    <glyph glyph-name="otilde" unicode="&#xf5;" horiz-adv-x="544" 
d="M500 323c0 -163 -87 -338 -269 -338c-110 0 -187 70 -187 195c0 161 83 338 273 338c104 0 183 -70 183 -195zM238 18c139 0 226 141 226 304c0 93 -49 163 -153 163c-149 0 -231 -146 -231 -301c0 -98 48 -166 158 -166zM490 738c-12 -60 -38 -120 -104 -120
c-45 0 -67 37 -90 63c-13 14 -25 25 -43 25c-40 0 -60 -58 -66 -88h-31c13 60 42 120 109 120c31 0 51 -19 69 -40c20 -23 37 -48 63 -48c41 0 56 57 64 88h29z" />
    <glyph glyph-name="p" unicode="p" horiz-adv-x="560" 
d="M516 331c0 -165 -80 -346 -269 -346c-60 0 -119 28 -163 70l-50 -248h-35l142 696h17l9 -49c59 40 115 64 186 64c119 0 163 -93 163 -187zM253 18c155 0 226 159 226 308c0 83 -31 159 -132 159c-65 0 -116 -20 -189 -72l-66 -320c32 -34 88 -75 161 -75z" />
    <glyph glyph-name="paragraph" unicode="&#xb6;" horiz-adv-x="556" 
d="M623 699h-106l-181 -892h-35l181 892h-125l-181 -892h-35l108 530c-102 3 -176 52 -176 156c0 139 107 234 258 234h298z" />
    <glyph glyph-name="parenleft" unicode="(" horiz-adv-x="334" 
d="M210 -193h-39c-68 101 -116 213 -116 339c0 243 120 429 304 596h45c-185 -169 -314 -340 -314 -595c0 -130 50 -237 120 -340z" />
    <glyph glyph-name="parenleft.inferior" unicode="&#x208d;" horiz-adv-x="252" 
d="M171 -126h-35c-57 77 -96 157 -96 259c0 173 89 312 237 445h37c-124 -108 -246 -257 -246 -437c0 -101 40 -188 103 -267z" />
    <glyph glyph-name="parenleft.superior" unicode="&#x207d;" horiz-adv-x="252" 
d="M212 168h-35c-57 77 -96 157 -96 259c0 173 89 312 237 445h37c-124 -108 -246 -257 -246 -437c0 -101 40 -188 103 -267z" />
    <glyph glyph-name="parenright" unicode=")" horiz-adv-x="334" 
d="M136 742h37c68 -101 116 -213 116 -339c0 -243 -120 -429 -304 -596h-45c180 165 314 346 314 601c0 130 -48 231 -118 334z" />
    <glyph glyph-name="parenright.inferior" unicode="&#x208e;" horiz-adv-x="252" 
d="M79 578h35c57 -77 96 -157 96 -259c0 -173 -89 -312 -237 -445h-37c124 108 246 257 246 437c0 101 -40 188 -103 267z" />
    <glyph glyph-name="parenright.superior" unicode="&#x207e;" horiz-adv-x="252" 
d="M118 872h35c57 -77 96 -157 96 -259c0 -173 -89 -312 -237 -445h-37c124 108 246 257 246 437c0 101 -40 188 -103 267z" />
    <glyph glyph-name="percent" unicode="%" horiz-adv-x="942" 
d="M773 727l-552 -878h-35l552 878h35zM434 584c0 -136 -51 -303 -216 -303c-97 0 -148 65 -148 162c0 145 49 299 219 299c103 0 145 -73 145 -158zM219 311c141 0 182 151 182 273c0 64 -25 128 -116 128c-136 0 -181 -135 -181 -268c0 -65 32 -133 115 -133zM872 137
c0 -136 -51 -303 -216 -303c-97 0 -148 65 -148 162c0 145 49 299 219 299c103 0 145 -73 145 -158zM657 -136c141 0 182 151 182 273c0 64 -25 128 -116 128c-136 0 -181 -135 -181 -268c0 -65 32 -133 115 -133z" />
    <glyph glyph-name="period" unicode="." horiz-adv-x="219" 
d="M106 37c0 -27 -12 -44 -46 -44c-19 0 -33 8 -33 25c0 29 14 45 46 45c18 0 33 -7 33 -26z" />
    <glyph glyph-name="periodcentered" unicode="&#xb7;" horiz-adv-x="219" 
d="M154 293c0 -27 -12 -44 -46 -44c-19 0 -33 8 -33 25c0 29 14 45 46 45c18 0 33 -7 33 -26z" />
    <glyph glyph-name="periodcentered.tab" horiz-adv-x="219" 
d="M150 381c0 -27 -12 -44 -46 -44c-19 0 -33 8 -33 25c0 29 14 45 46 45c18 0 33 -7 33 -26z" />
    <glyph glyph-name="perthousand" unicode="&#x2030;" horiz-adv-x="1361" 
d="M773 727l-552 -878h-35l552 878h35zM434 584c0 -136 -51 -303 -216 -303c-97 0 -148 65 -148 162c0 145 49 299 219 299c103 0 145 -73 145 -158zM219 311c141 0 182 151 182 273c0 64 -25 128 -116 128c-136 0 -181 -135 -181 -268c0 -65 32 -133 115 -133zM872 137
c0 -136 -51 -303 -216 -303c-97 0 -148 65 -148 162c0 145 49 299 219 299c103 0 145 -73 145 -158zM657 -136c141 0 182 151 182 273c0 64 -25 128 -116 128c-136 0 -181 -135 -181 -268c0 -65 32 -133 115 -133zM1291 137c0 -136 -51 -303 -216 -303
c-97 0 -148 65 -148 162c0 145 49 299 219 299c103 0 145 -73 145 -158zM1076 -136c141 0 182 151 182 273c0 64 -25 128 -116 128c-136 0 -181 -135 -181 -268c0 -65 32 -133 115 -133z" />
    <glyph glyph-name="pi" unicode="&#x3c0;" horiz-adv-x="690" 
d="M617 28l8 -26c-13 -6 -31 -8 -48 -8c-73 0 -106 50 -106 121v358h-256v-348c0 -50 -5 -93 -12 -125h-40c9 38 12 85 12 127v346c-36 -1 -86 -10 -117 -21l-11 28c29 12 76 23 131 23h449v-30h-117v-354c0 -59 23 -95 80 -95c8 0 18 2 27 4z" />
    <glyph glyph-name="plus" unicode="+" horiz-adv-x="649" 
d="M575 269h-235v-235h-31v235h-235v31h235v235h31v-235h235v-31z" />
    <glyph glyph-name="product" unicode="&#x220f;" horiz-adv-x="753" 
d="M654 -241h-39v922h-480v-922h-40v955h559v-955z" />
    <glyph glyph-name="q" unicode="q" horiz-adv-x="551" 
d="M375 -193h-34l59 278c-45 -51 -113 -100 -194 -100c-113 0 -162 93 -162 198c0 155 94 335 278 335c76 0 136 -23 158 -32l23 17h13zM407 132l65 322c-28 10 -73 32 -152 32c-156 0 -240 -154 -240 -305c0 -89 37 -164 132 -164c71 0 134 47 195 115z" />
    <glyph glyph-name="question" unicode="?" horiz-adv-x="452" 
d="M462 592c0 -71 -30 -120 -86 -170c-51 -45 -115 -81 -180 -115l-24 -120h-31l28 140c50 26 98 49 145 84c61 44 111 95 111 177c0 68 -40 123 -139 123c-87 0 -135 -35 -170 -72l-23 21c32 35 88 82 195 82c114 0 174 -63 174 -150zM170 36c0 -26 -13 -43 -45 -43
c-19 0 -33 8 -33 25c0 28 13 43 44 43c18 0 34 -7 34 -25z" />
    <glyph glyph-name="questiondown" unicode="&#xbf;" horiz-adv-x="452" 
d="M6 -43c0 71 30 120 86 170c51 45 115 81 180 115l24 120h31l-28 -140c-50 -26 -97 -50 -145 -84c-61 -44 -111 -95 -111 -177c0 -68 40 -123 139 -123c87 0 135 35 170 72l23 -21c-32 -35 -88 -82 -195 -82c-114 0 -174 63 -174 150zM295 477c0 26 13 43 45 43
c19 0 33 -8 33 -25c0 -28 -13 -43 -44 -43c-18 0 -34 7 -34 25z" />
    <glyph glyph-name="quotedbl" unicode="&#x22;" horiz-adv-x="252" 
d="M322 742l-69 -269h-23l40 269h52zM172 742l-69 -269h-23l40 269h52z" />
    <glyph glyph-name="quotedblbase" unicode="&#x201e;" horiz-adv-x="305" 
d="M159 19c0 22 13 39 40 39c24 0 36 -15 36 -36c0 -49 -35 -120 -79 -171h-32c23 26 60 88 66 137c-18 0 -31 8 -31 31zM-15 19c0 22 13 39 40 39c24 0 36 -15 36 -36c0 -49 -35 -120 -79 -171h-32c23 26 60 88 66 137c-18 0 -31 8 -31 31z" />
    <glyph glyph-name="quotedblleft" unicode="&#x201c;" horiz-adv-x="305" 
d="M162 574c0 -22 -13 -39 -40 -39c-24 0 -36 15 -36 36c0 49 35 120 79 171h32c-23 -26 -60 -88 -66 -137c18 0 31 -8 31 -31zM336 574c0 -22 -13 -39 -40 -39c-24 0 -36 15 -36 36c0 49 35 120 79 171h32c-23 -26 -60 -88 -66 -137c18 0 31 -8 31 -31z" />
    <glyph glyph-name="quotedblright" unicode="&#x201d;" horiz-adv-x="305" 
d="M281 703c0 22 13 39 40 39c24 0 36 -15 36 -36c0 -49 -35 -120 -79 -171h-32c23 26 60 88 66 137c-18 0 -31 8 -31 31zM107 703c0 22 13 39 40 39c24 0 36 -15 36 -36c0 -49 -35 -120 -79 -171h-32c23 26 60 88 66 137c-18 0 -31 8 -31 31z" />
    <glyph glyph-name="quoteleft" unicode="&#x2018;" horiz-adv-x="131" 
d="M162 574c0 -22 -13 -39 -40 -39c-24 0 -36 15 -36 36c0 49 35 120 79 171h32c-23 -26 -60 -88 -66 -137c18 0 31 -8 31 -31z" />
    <glyph glyph-name="quoteright" unicode="&#x2019;" horiz-adv-x="131" 
d="M107 703c0 22 13 39 40 39c24 0 36 -15 36 -36c0 -49 -35 -120 -79 -171h-32c23 26 60 88 66 137c-18 0 -31 8 -31 31z" />
    <glyph glyph-name="quotesinglbase" unicode="&#x201a;" horiz-adv-x="131" 
d="M-15 19c0 22 13 39 40 39c24 0 36 -15 36 -36c0 -49 -35 -120 -79 -171h-32c23 26 60 88 66 137c-18 0 -31 8 -31 31z" />
    <glyph glyph-name="quotesingle" unicode="'" horiz-adv-x="102" 
d="M172 742l-69 -269h-23l40 269h52z" />
    <glyph glyph-name="r" unicode="r" horiz-adv-x="345" 
d="M375 504l-13 -32c-11 3 -21 4 -29 4c-53 0 -113 -50 -187 -123l-73 -353h-35l102 503h35l-21 -106c88 90 135 114 186 114c13 0 25 -2 35 -7z" />
    <glyph glyph-name="r.superior" unicode="&#xf6f1;" horiz-adv-x="267" 
d="M339 676l-18 -30c-9 4 -18 6 -28 6c-40 0 -85 -23 -140 -76l-57 -283h-28l78 384h28l-14 -67c43 44 94 73 144 73c13 0 24 -2 35 -7z" />
    <glyph glyph-name="racute" unicode="&#x155;" horiz-adv-x="345" 
d="M375 504l-13 -32c-11 3 -21 4 -29 4c-53 0 -113 -50 -187 -123l-73 -353h-35l102 503h35l-21 -106c88 90 135 114 186 114c13 0 25 -2 35 -7zM432 766l-175 -176h-35l149 176h61z" />
    <glyph glyph-name="radical" unicode="&#x221a;" horiz-adv-x="536" 
d="M305 28l198 714h32l-211 -757h-37l-160 380l-59 -36l-11 22l89 53z" />
    <glyph glyph-name="rcaron" unicode="&#x159;" horiz-adv-x="345" 
d="M375 504l-13 -32c-11 3 -21 4 -29 4c-53 0 -113 -50 -187 -123l-73 -353h-35l102 503h35l-21 -106c88 90 135 114 186 114c13 0 25 -2 35 -7zM433 766l-146 -176h-42l-78 176h27l79 -134l129 134h31z" />
    <glyph glyph-name="rcommaaccent" unicode="&#x157;" horiz-adv-x="345" 
d="M375 504l-13 -32c-11 3 -21 4 -29 4c-53 0 -113 -50 -187 -123l-73 -353h-35l102 503h35l-21 -106c88 90 135 114 186 114c13 0 25 -2 35 -7zM31 -68c0 22 13 39 40 39c26 0 36 -15 36 -33c0 -49 -37 -112 -55 -131h-32c23 26 38 62 42 94c-18 0 -31 8 -31 31z" />
    <glyph glyph-name="registered" unicode="&#xae;" horiz-adv-x="935" 
d="M882 327c0 -114 -49 -220 -121 -292s-179 -122 -293 -122s-221 50 -293 122s-122 178 -122 292s50 221 121 293c72 72 179 122 294 122s221 -50 293 -122c71 -72 121 -179 121 -293zM850 327c0 211 -171 382 -382 382s-383 -171 -383 -382s172 -380 383 -380
s382 169 382 380zM633 105h-36l-37 134c-11 41 -27 59 -61 59h-143v-193h-34v447h133c93 0 157 -29 157 -123c0 -65 -27 -100 -76 -117c33 -9 45 -24 54 -56zM578 431c0 66 -39 89 -128 89h-94v-190h93c99 0 129 21 129 101z" />
    <glyph glyph-name="ring" unicode="&#x2da;" horiz-adv-x="500" 
d="M329 677c0 -58 -34 -103 -96 -103c-44 0 -64 28 -64 63c0 55 31 103 93 103c45 0 67 -25 67 -63zM237 599c40 0 65 28 65 75c0 27 -13 41 -44 41c-39 0 -61 -27 -61 -75c0 -27 12 -41 40 -41z" />
    <glyph glyph-name="s" unicode="s" horiz-adv-x="450" 
d="M380 130c0 -96 -79 -145 -194 -145c-81 0 -143 31 -176 80l28 19c33 -46 86 -67 150 -67c82 0 157 27 157 112c0 63 -65 87 -145 116c-64 23 -119 58 -119 126c0 101 92 147 180 147c65 0 131 -25 164 -75l-28 -19c-31 42 -75 62 -140 62c-75 0 -140 -39 -140 -112
c0 -52 45 -80 97 -99c90 -33 166 -61 166 -145z" />
    <glyph glyph-name="s.superior" unicode="&#xf6f2;" horiz-adv-x="365" 
d="M335 401c0 -79 -77 -120 -158 -120c-56 0 -108 19 -139 65l27 16c22 -34 59 -57 113 -57c70 0 129 33 129 92c0 53 -72 67 -132 92c-44 18 -81 41 -81 88c0 75 69 112 144 112c51 0 103 -18 137 -62l-24 -15c-26 34 -67 52 -114 52c-56 0 -115 -23 -115 -84
c0 -49 60 -65 116 -86c50 -18 97 -41 97 -93z" />
    <glyph glyph-name="sacute" unicode="&#x15b;" horiz-adv-x="450" 
d="M380 130c0 -96 -79 -145 -194 -145c-81 0 -143 31 -176 80l28 19c33 -46 86 -67 150 -67c82 0 157 27 157 112c0 63 -65 87 -145 116c-64 23 -119 58 -119 126c0 101 92 147 180 147c65 0 131 -25 164 -75l-28 -19c-31 42 -75 62 -140 62c-75 0 -140 -39 -140 -112
c0 -52 45 -80 97 -99c90 -33 166 -61 166 -145zM425 766l-175 -176h-35l149 176h61z" />
    <glyph glyph-name="scaron" unicode="&#x161;" horiz-adv-x="450" 
d="M380 130c0 -96 -79 -145 -194 -145c-81 0 -143 31 -176 80l28 19c33 -46 86 -67 150 -67c82 0 157 27 157 112c0 63 -65 87 -145 116c-64 23 -119 58 -119 126c0 101 92 147 180 147c65 0 131 -25 164 -75l-28 -19c-31 42 -75 62 -140 62c-75 0 -140 -39 -140 -112
c0 -52 45 -80 97 -99c90 -33 166 -61 166 -145zM441 766l-146 -176h-42l-78 176h27l79 -134l129 134h31z" />
    <glyph glyph-name="scedilla" unicode="&#x15f;" horiz-adv-x="450" 
d="M266 -84c0 -69 -63 -109 -136 -109c-36 0 -76 11 -99 19l17 30c34 -15 64 -20 94 -20c44 0 90 24 90 74c0 37 -41 54 -79 54l14 22c-72 4 -127 34 -157 79l28 19c33 -46 86 -67 150 -67c82 0 157 27 157 112c0 63 -65 87 -145 116c-64 23 -119 58 -119 126
c0 101 92 147 180 147c65 0 131 -25 164 -75l-28 -19c-31 42 -75 62 -140 62c-75 0 -140 -39 -140 -112c0 -52 45 -80 97 -99c90 -33 166 -61 166 -145c0 -94 -75 -142 -185 -145c56 -11 71 -41 71 -69z" />
    <glyph glyph-name="scircumflex" unicode="&#x15d;" horiz-adv-x="450" 
d="M380 130c0 -96 -79 -145 -194 -145c-81 0 -143 31 -176 80l28 19c33 -46 86 -67 150 -67c82 0 157 27 157 112c0 63 -65 87 -145 116c-64 23 -119 58 -119 126c0 101 92 147 180 147c65 0 131 -25 164 -75l-28 -19c-31 42 -75 62 -140 62c-75 0 -140 -39 -140 -112
c0 -52 45 -80 97 -99c90 -33 166 -61 166 -145zM417 590h-28l-76 134l-132 -134h-30l149 176h42z" />
    <glyph glyph-name="scommaaccent" unicode="&#x219;" horiz-adv-x="445" 
d="M375 130c0 -96 -79 -145 -194 -145c-81 0 -143 31 -176 80l28 19c33 -46 86 -67 150 -67c82 0 157 27 157 112c0 63 -65 87 -145 116c-64 23 -119 58 -119 126c0 101 92 147 180 147c65 0 131 -25 164 -75l-28 -19c-31 42 -75 62 -140 62c-75 0 -140 -39 -140 -112
c0 -52 45 -80 97 -99c90 -33 166 -61 166 -145zM133 -68c0 22 13 39 40 39c26 0 36 -15 36 -33c0 -49 -37 -112 -55 -131h-32c23 26 38 62 42 94c-18 0 -31 8 -31 31z" />
    <glyph glyph-name="section" unicode="&#xa7;" horiz-adv-x="468" 
d="M140 583c0 105 94 159 201 159c73 0 128 -31 156 -61l-30 -23c-35 35 -76 51 -131 51c-67 0 -158 -33 -158 -121c0 -130 251 -153 251 -303c0 -96 -80 -147 -172 -192c44 -34 79 -72 79 -127c0 -105 -94 -159 -201 -159c-73 0 -128 31 -156 61l30 23
c35 -35 76 -51 131 -51c67 0 158 33 158 121c0 130 -251 153 -251 303c0 95 79 146 172 192c-44 33 -79 71 -79 127zM392 281c0 69 -79 109 -148 157c-64 -28 -160 -80 -160 -170c0 -70 78 -110 148 -157c63 28 160 79 160 170z" />
    <glyph glyph-name="semicolon" unicode=";" horiz-adv-x="219" 
d="M172 431c0 -27 -12 -44 -46 -44c-19 0 -33 8 -33 25c0 29 14 45 46 45c18 0 33 -7 33 -26zM101 28c0 -53 -38 -123 -79 -172h-32c27 31 59 84 66 137c-15 0 -33 7 -33 29c0 24 15 41 43 41c26 0 35 -17 35 -35z" />
    <glyph glyph-name="seven" unicode="7" horiz-adv-x="533" 
d="M536 533l-427 -699h-44l431 699h-358l-23 -111h-34l29 145h433z" />
    <glyph glyph-name="seven.denominator" unicode="&#xe111;" horiz-adv-x="369" 
d="M349 250l-290 -413h-37l295 419h-253l-13 -64h-29l19 93h315z" />
    <glyph glyph-name="seven.fitted" unicode="&#xe09d;" horiz-adv-x="497" 
d="M537 693l-431 -708h-44l435 708h-358l-23 -111h-34l29 145h433z" />
    <glyph glyph-name="seven.inferior" unicode="&#x2087;" horiz-adv-x="369" 
d="M387 287l-290 -413h-37l295 419h-253l-13 -64h-29l19 93h315z" />
    <glyph glyph-name="seven.numerator" unicode="&#xe125;" horiz-adv-x="369" 
d="M426 697l-290 -413h-37l295 419h-253l-13 -64h-29l19 93h315z" />
    <glyph glyph-name="seven.superior" unicode="&#x2077;" horiz-adv-x="369" 
d="M426 697l-290 -413h-37l295 419h-253l-13 -64h-29l19 93h315z" />
    <glyph glyph-name="seven.tab" 
d="M574 693l-431 -708h-44l435 708h-358l-23 -111h-34l29 145h433z" />
    <glyph glyph-name="seven.taboldstyle" unicode="&#xe107;" 
d="M551 533l-427 -699h-44l431 699h-358l-23 -111h-34l29 145h433z" />
    <glyph glyph-name="seveneighths" unicode="&#x215e;" horiz-adv-x="977" 
d="M800 727l-569 -878h-38l569 878h38zM479 697l-290 -413h-37l295 419h-253l-13 -64h-29l19 93h315zM918 -24c0 -98 -98 -140 -189 -140c-104 0 -158 48 -158 108c0 82 79 119 157 135c-53 18 -94 45 -94 99c0 87 90 116 175 116c96 0 144 -46 144 -97
c0 -70 -70 -103 -139 -120c66 -20 104 -49 104 -101zM920 193c0 44 -39 74 -117 74c-75 0 -136 -24 -136 -87c0 -41 27 -66 105 -91c76 17 148 43 148 104zM735 -135c71 0 150 35 150 108c0 56 -56 74 -114 93c-78 -15 -167 -41 -167 -120c0 -46 45 -81 131 -81z" />
    <glyph glyph-name="six" unicode="6" 
d="M407 709c-162 0 -276 -176 -313 -348c64 55 152 87 233 87c121 0 194 -72 194 -187c0 -152 -79 -276 -260 -276c-137 0 -218 103 -218 253c0 213 138 504 371 504c80 0 130 -29 161 -62l-28 -25c-27 30 -71 54 -140 54zM316 414c-84 0 -169 -39 -230 -96
c-3 -25 -5 -50 -5 -74c0 -117 54 -225 188 -225c145 0 213 105 213 237c0 89 -42 158 -166 158z" />
    <glyph glyph-name="six.denominator" unicode="&#xe110;" horiz-adv-x="417" 
d="M332 12c0 -106 -79 -175 -190 -175c-98 0 -159 52 -159 155c0 139 90 303 260 303c52 0 92 -14 120 -35l-24 -24c-23 19 -56 30 -102 30c-113 0 -179 -87 -209 -195c51 30 111 51 169 51c84 0 135 -42 135 -110zM144 -134c87 0 155 49 155 139c0 54 -32 89 -114 89
c-57 0 -112 -23 -163 -54c-5 -20 -6 -33 -6 -50c0 -69 32 -124 128 -124z" />
    <glyph glyph-name="six.fitted" unicode="&#xe09c;" horiz-adv-x="577" 
d="M400 709c-162 0 -276 -176 -313 -348c64 55 152 87 233 87c121 0 194 -72 194 -187c0 -152 -79 -276 -260 -276c-137 0 -218 103 -218 253c0 213 138 504 371 504c80 0 130 -29 161 -62l-28 -25c-27 30 -71 54 -140 54zM309 414c-84 0 -169 -39 -230 -96
c-3 -25 -5 -50 -5 -74c0 -117 54 -225 188 -225c145 0 213 105 213 237c0 89 -42 158 -166 158z" />
    <glyph glyph-name="six.inferior" unicode="&#x2086;" horiz-adv-x="417" 
d="M372 47c0 -106 -79 -175 -190 -175c-98 0 -159 52 -159 155c0 139 90 303 260 303c52 0 92 -14 120 -35l-24 -24c-23 19 -56 30 -102 30c-113 0 -179 -87 -209 -195c51 30 111 51 169 51c84 0 135 -42 135 -110zM184 -99c87 0 155 49 155 139c0 54 -32 89 -114 89
c-57 0 -112 -23 -163 -54c-5 -20 -6 -33 -6 -50c0 -69 32 -124 128 -124z" />
    <glyph glyph-name="six.numerator" unicode="&#xe124;" horiz-adv-x="417" 
d="M412 459c0 -106 -79 -175 -190 -175c-98 0 -159 52 -159 155c0 139 90 303 260 303c52 0 92 -14 120 -35l-24 -24c-23 19 -56 30 -102 30c-113 0 -179 -87 -209 -195c51 30 111 51 169 51c84 0 135 -42 135 -110zM224 313c87 0 155 49 155 139c0 54 -32 89 -114 89
c-57 0 -112 -23 -163 -54c-5 -20 -6 -33 -6 -50c0 -69 32 -124 128 -124z" />
    <glyph glyph-name="six.superior" unicode="&#x2076;" horiz-adv-x="417" 
d="M412 459c0 -106 -79 -175 -190 -175c-98 0 -159 52 -159 155c0 139 90 303 260 303c52 0 92 -14 120 -35l-24 -24c-23 19 -56 30 -102 30c-113 0 -179 -87 -209 -195c51 30 111 51 169 51c84 0 135 -42 135 -110zM224 313c87 0 155 49 155 139c0 54 -32 89 -114 89
c-57 0 -112 -23 -163 -54c-5 -20 -6 -33 -6 -50c0 -69 32 -124 128 -124z" />
    <glyph glyph-name="six.tab" 
d="M400 709c-162 0 -276 -176 -313 -348c64 55 152 87 233 87c121 0 194 -72 194 -187c0 -152 -79 -276 -260 -276c-137 0 -218 103 -218 253c0 213 138 504 371 504c80 0 130 -29 161 -62l-28 -25c-27 30 -71 54 -140 54zM309 414c-84 0 -169 -39 -230 -96
c-3 -25 -5 -50 -5 -74c0 -117 54 -225 188 -225c145 0 213 105 213 237c0 89 -42 158 -166 158z" />
    <glyph glyph-name="six.taboldstyle" unicode="&#xe106;" 
d="M409 709c-162 0 -276 -176 -313 -348c64 55 152 87 233 87c121 0 194 -72 194 -187c0 -152 -79 -276 -260 -276c-137 0 -218 103 -218 253c0 213 138 504 371 504c80 0 130 -29 161 -62l-28 -25c-27 30 -71 54 -140 54zM318 414c-84 0 -169 -39 -230 -96
c-3 -25 -5 -50 -5 -74c0 -117 54 -225 188 -225c145 0 213 105 213 237c0 89 -42 158 -166 158z" />
    <glyph glyph-name="slash" unicode="/" horiz-adv-x="337" 
d="M469 742l-555 -888h-37l555 888h37z" />
    <glyph glyph-name="space" unicode=" " horiz-adv-x="255" 
 />
    <glyph glyph-name="sterling" unicode="&#xa3;" horiz-adv-x="562" 
d="M485 0h-483l8 37c99 42 152 183 155 290h-84l6 34h78c0 38 -8 80 -8 123c0 153 92 258 252 258c73 0 153 -30 191 -104l-31 -21c-33 59 -86 91 -161 91c-132 0 -213 -82 -213 -222c0 -42 7 -95 7 -125h212l-6 -34h-206c-3 -95 -46 -232 -142 -293h432z" />
    <glyph glyph-name="summation" unicode="&#x2211;" horiz-adv-x="659" 
d="M659 -241h-604v12l377 470l-350 455v18h549v-32h-495l340 -440l-362 -451h545v-32z" />
    <glyph glyph-name="t" unicode="t" horiz-adv-x="329" 
d="M254 -2c-27 -8 -57 -13 -87 -13c-61 0 -96 22 -96 79c0 15 6 45 11 69l69 339h-106l6 31h106l34 155l39 26l-39 -181h133l-6 -31h-133l-69 -338c-3 -17 -9 -48 -9 -63c0 -32 14 -54 64 -54c29 0 53 4 76 12z" />
    <glyph glyph-name="t.superior" unicode="&#xf6f3;" horiz-adv-x="268" 
d="M181 305c22 0 43 4 57 8l2 -23c-18 -6 -42 -9 -64 -9c-52 0 -81 18 -81 65c0 11 1 23 4 38l55 267h-82l5 25h82l30 146l32 19l-33 -165h117l-5 -25h-117l-53 -260c-3 -15 -5 -29 -5 -41c0 -27 12 -45 56 -45z" />
    <glyph glyph-name="tbar" unicode="&#x167;" horiz-adv-x="329" 
d="M254 -2c-27 -8 -57 -13 -87 -13c-61 0 -96 22 -96 79c0 15 6 45 11 69l31 155h-94l7 31h94l31 153h-106l6 31h106l34 155l39 26l-39 -181h133l-6 -31h-133l-31 -153h144l-7 -31h-144l-31 -154c-3 -17 -9 -48 -9 -63c0 -32 14 -54 64 -54c29 0 53 4 76 12z" />
    <glyph glyph-name="tcaron" unicode="&#x165;" horiz-adv-x="329" 
d="M254 -2c-27 -8 -57 -13 -87 -13c-61 0 -96 22 -96 79c0 15 6 45 11 69l69 339h-106l6 31h106l34 155l39 26l-39 -181h133l-6 -31h-133l-69 -338c-3 -17 -9 -48 -9 -63c0 -32 14 -54 64 -54c29 0 53 4 76 12zM287 645c0 22 13 39 40 39c26 0 36 -15 36 -33
c0 -49 -37 -112 -55 -131h-32c23 26 38 62 42 94c-18 0 -31 8 -31 31z" />
    <glyph glyph-name="thorn" unicode="&#xfe;" horiz-adv-x="560" 
d="M516 331c0 -165 -80 -346 -269 -346c-60 0 -116 25 -163 70l-50 -248h-35l189 920h33l-56 -274c57 39 124 65 188 65c119 0 163 -93 163 -187zM253 18c155 0 226 159 226 308c0 83 -31 159 -132 159c-65 0 -116 -20 -189 -72l-66 -319c31 -32 88 -76 161 -76z" />
    <glyph glyph-name="three" unicode="3" horiz-adv-x="527" 
d="M436 98c0 -160 -102 -264 -272 -264c-85 0 -157 34 -201 101l32 20c39 -59 99 -87 172 -87c139 0 230 82 230 227c0 94 -63 149 -173 149c-24 0 -48 -3 -72 -7l2 9l300 287h-343l7 34h388l-7 -34l-268 -259c131 0 205 -74 205 -176z" />
    <glyph glyph-name="three.denominator" unicode="&#xe10d;" horiz-adv-x="382" 
d="M307 -5c0 -103 -84 -159 -189 -159c-70 0 -121 30 -146 71l26 18c26 -40 67 -61 126 -61c75 0 149 34 149 129c0 58 -44 83 -118 83c-19 0 -45 -3 -72 -11l2 9l226 183h-253l5 28h293l-5 -29l-194 -157c5 1 14 1 16 1c84 0 134 -41 134 -105z" />
    <glyph glyph-name="three.fitted" unicode="&#xe099;" horiz-adv-x="527" 
d="M456 251c0 -160 -102 -266 -272 -266c-85 0 -157 34 -201 101l32 20c39 -59 99 -87 172 -87c139 0 230 84 230 229c0 94 -63 151 -173 151c-24 0 -48 -3 -72 -7l2 9l302 292h-343l7 34h388l-7 -34l-270 -264c131 0 205 -76 205 -178z" />
    <glyph glyph-name="three.inferior" unicode="&#x2083;" horiz-adv-x="382" 
d="M338 32c0 -103 -84 -159 -189 -159c-70 0 -121 30 -146 71l26 18c26 -40 67 -61 126 -61c75 0 149 34 149 129c0 58 -44 83 -118 83c-19 0 -45 -3 -72 -11l2 9l226 183h-253l5 28h293l-5 -29l-194 -157c5 1 14 1 16 1c84 0 134 -41 134 -105z" />
    <glyph glyph-name="three.numerator" unicode="&#xe121;" horiz-adv-x="382" 
d="M383 443c0 -103 -84 -159 -189 -159c-70 0 -121 30 -146 71l26 18c26 -40 67 -61 126 -61c75 0 149 34 149 129c0 58 -44 83 -118 83c-19 0 -45 -3 -72 -11l2 9l226 183h-253l5 28h293l-5 -29l-194 -157c5 1 14 1 16 1c84 0 134 -41 134 -105z" />
    <glyph glyph-name="three.tab" 
d="M483 251c0 -160 -102 -266 -272 -266c-85 0 -157 34 -201 101l32 20c39 -59 99 -87 172 -87c139 0 230 84 230 229c0 94 -63 151 -173 151c-24 0 -48 -3 -72 -7l2 9l302 292h-343l7 34h388l-7 -34l-270 -264c131 0 205 -76 205 -178z" />
    <glyph glyph-name="three.taboldstyle" unicode="&#xe103;" 
d="M463 98c0 -160 -102 -264 -272 -264c-85 0 -157 34 -201 101l32 20c39 -59 99 -87 172 -87c139 0 230 82 230 227c0 94 -63 149 -173 149c-24 0 -48 -3 -72 -7l2 9l300 287h-343l7 34h388l-7 -34l-268 -259c131 0 205 -74 205 -176z" />
    <glyph glyph-name="threeeighths" unicode="&#x215c;" horiz-adv-x="977" 
d="M800 727l-569 -878h-38l569 878h38zM371 443c0 -103 -84 -159 -189 -159c-70 0 -121 30 -146 71l26 18c26 -40 67 -61 126 -61c75 0 149 34 149 129c0 58 -44 83 -118 83c-19 0 -45 -3 -72 -11l2 9l226 183h-253l5 28h293l-5 -29l-194 -157c5 1 14 1 16 1
c84 0 134 -41 134 -105zM904 -24c0 -98 -98 -140 -189 -140c-104 0 -158 48 -158 108c0 82 79 119 157 135c-53 18 -94 45 -94 99c0 87 90 116 175 116c96 0 144 -46 144 -97c0 -70 -70 -103 -139 -120c66 -20 104 -49 104 -101zM906 193c0 44 -39 74 -117 74
c-75 0 -136 -24 -136 -87c0 -41 27 -66 105 -91c76 17 148 43 148 104zM721 -135c71 0 150 35 150 108c0 56 -56 74 -114 93c-78 -15 -167 -41 -167 -120c0 -46 45 -81 131 -81z" />
    <glyph glyph-name="threeeighths.tab" horiz-adv-x="977" 
d="M390 470c0 -100 -83 -150 -179 -150c-54 0 -105 16 -131 60l28 18c21 -36 60 -49 103 -49c83 0 147 35 147 116c0 52 -38 77 -103 77c-17 0 -48 -3 -75 -9l2 10l203 163h-223l5 28h263l-5 -28l-175 -141c6 1 14 1 15 1c76 0 125 -38 125 -96zM788 727l-556 -727h-37
l556 727h37zM869 119c0 -91 -90 -131 -174 -131c-95 0 -143 44 -143 100c0 76 71 112 142 126c-48 17 -86 42 -86 93c0 80 86 107 161 107c92 0 132 -42 132 -90c0 -65 -65 -96 -128 -111c61 -19 96 -46 96 -94zM870 321c0 40 -31 68 -107 68c-66 0 -124 -22 -124 -81
c0 -38 24 -60 96 -83c69 16 135 39 135 96zM701 15c65 0 137 33 137 101c0 52 -51 68 -104 85c-72 -14 -152 -38 -152 -111c0 -43 40 -75 119 -75z" />
    <glyph glyph-name="threequarters" unicode="&#xbe;" horiz-adv-x="977" 
d="M821 727l-569 -878h-38l569 878h38zM365 443c0 -103 -84 -159 -189 -159c-70 0 -121 30 -146 71l26 18c26 -40 67 -61 126 -61c75 0 149 34 149 129c0 58 -44 83 -118 83c-19 0 -45 -3 -72 -11l2 9l226 183h-253l5 28h293l-5 -29l-194 -157c5 1 14 1 16 1
c84 0 134 -41 134 -105zM873 -34h-73l-27 -133h-28l27 133h-235l5 25l307 303h22l-66 -303h73zM777 -9l56 252l-256 -252h200z" />
    <glyph glyph-name="tilde" unicode="&#x2dc;" horiz-adv-x="500" 
d="M416 738c-12 -60 -38 -120 -104 -120c-45 0 -67 37 -90 63c-13 14 -25 25 -43 25c-40 0 -60 -58 -66 -88h-31c13 60 42 120 109 120c31 0 51 -19 69 -40c20 -23 37 -48 63 -48c41 0 56 57 64 88h29z" />
    <glyph glyph-name="trademark" unicode="&#x2122;" horiz-adv-x="708" 
d="M698 378h-32v298l-104 -198h-34l-99 201v-301h-32v349h43l106 -214l112 214h40v-349zM304 697h-104v-319h-33v319h-105v30h242v-30z" />
    <glyph glyph-name="two" unicode="2" horiz-adv-x="496" 
d="M412 0h-443l7 34c68 46 167 111 241 162c154 107 216 160 216 248c0 62 -45 106 -137 106c-91 0 -149 -36 -199 -84l-23 25c46 46 111 91 224 91c107 0 173 -53 173 -135c0 -92 -62 -150 -156 -220c-95 -71 -180 -127 -282 -193h385z" />
    <glyph glyph-name="two.denominator" unicode="&#xe10c;" horiz-adv-x="398" 
d="M282 -154h-338l7 33c53 35 124 82 180 120c106 72 172 120 172 186c0 48 -33 84 -108 84c-71 0 -116 -29 -158 -69l-19 20c36 37 96 75 179 75c88 0 138 -44 138 -105c0 -84 -90 -145 -172 -201c-67 -46 -94 -62 -176 -115h301z" />
    <glyph glyph-name="two.fitted" unicode="&#xe098;" horiz-adv-x="496" 
d="M391 0h-442l7 34c199 169 330 265 407 344c62 64 90 115 90 186c0 93 -56 146 -154 146c-80 0 -143 -33 -205 -92l-23 25c51 50 119 99 232 99c134 0 188 -81 188 -176c0 -82 -31 -141 -106 -216c-76 -75 -198 -167 -379 -316h392z" />
    <glyph glyph-name="two.inferior" unicode="&#x2082;" horiz-adv-x="398" 
d="M311 -117h-338l7 33c53 35 124 82 180 120c106 72 172 120 172 186c0 48 -33 84 -108 84c-71 0 -116 -29 -158 -69l-19 20c36 37 96 75 179 75c88 0 138 -44 138 -105c0 -84 -90 -145 -172 -201c-67 -46 -94 -62 -176 -115h301z" />
    <glyph glyph-name="two.numerator" unicode="&#xe120;" horiz-adv-x="398" 
d="M365 293h-338l7 33c53 35 124 82 180 120c106 72 172 120 172 186c0 48 -33 84 -108 84c-71 0 -116 -29 -158 -69l-19 20c36 37 96 75 179 75c88 0 138 -44 138 -105c0 -84 -90 -145 -172 -201c-67 -46 -94 -62 -176 -115h301z" />
    <glyph glyph-name="two.tab" 
d="M443 0h-442l7 34c199 169 330 265 407 344c62 64 90 115 90 186c0 93 -56 146 -154 146c-80 0 -143 -33 -205 -92l-23 25c51 50 119 99 232 99c134 0 188 -81 188 -176c0 -82 -31 -141 -106 -216c-76 -75 -198 -167 -379 -316h392z" />
    <glyph glyph-name="two.taboldstyle" unicode="&#xe102;" 
d="M458 0h-443l7 34c68 46 167 111 241 162c154 107 216 160 216 248c0 62 -45 106 -137 106c-91 0 -149 -36 -199 -84l-23 25c46 46 111 91 224 91c107 0 173 -53 173 -135c0 -92 -62 -150 -156 -220c-95 -71 -180 -127 -282 -193h385z" />
    <glyph glyph-name="twothirds" unicode="&#x2154;" horiz-adv-x="977" 
d="M800 727l-569 -878h-38l569 878h38zM368 293h-338l7 33c53 35 124 82 180 120c106 72 172 120 172 186c0 48 -33 84 -108 84c-71 0 -116 -29 -158 -69l-19 20c36 37 96 75 179 75c88 0 138 -44 138 -105c0 -84 -90 -145 -172 -201c-67 -46 -94 -62 -176 -115h301zM901 -5
c0 -103 -84 -159 -189 -159c-70 0 -121 30 -146 71l26 18c26 -40 67 -61 126 -61c75 0 149 34 149 129c0 58 -44 83 -118 83c-19 0 -45 -3 -72 -11l2 9l226 183h-253l5 28h293l-5 -29l-194 -157c5 1 14 1 16 1c84 0 134 -41 134 -105z" />
    <glyph glyph-name="u" unicode="u" horiz-adv-x="552" 
d="M55 96c0 18 4 49 9 75l67 332h33l-68 -339c-4 -22 -7 -42 -7 -60c0 -55 29 -89 101 -89c88 0 173 72 216 108l77 380h34l-102 -503h-33l17 83c-41 -37 -126 -98 -218 -98c-84 0 -126 44 -126 111z" />
    <glyph glyph-name="uacute" unicode="&#xfa;" horiz-adv-x="552" 
d="M55 96c0 18 4 49 9 75l67 332h33l-68 -339c-4 -22 -7 -42 -7 -60c0 -55 29 -89 101 -89c88 0 173 72 216 108l77 380h34l-102 -503h-33l17 83c-41 -37 -126 -98 -218 -98c-84 0 -126 44 -126 111zM477 766l-175 -176h-35l149 176h61z" />
    <glyph glyph-name="ubreve" unicode="&#x16d;" horiz-adv-x="552" 
d="M55 96c0 18 4 49 9 75l67 332h33l-68 -339c-4 -22 -7 -42 -7 -60c0 -55 29 -89 101 -89c88 0 173 72 216 108l77 380h34l-102 -503h-33l17 83c-41 -37 -126 -98 -218 -98c-84 0 -126 44 -126 111zM497 747c-36 -81 -87 -138 -165 -138c-80 0 -101 84 -101 138h25
c9 -55 28 -90 86 -90c59 0 97 37 124 90h31z" />
    <glyph glyph-name="ucircumflex" unicode="&#xfb;" horiz-adv-x="552" 
d="M55 96c0 18 4 49 9 75l67 332h33l-68 -339c-4 -22 -7 -42 -7 -60c0 -55 29 -89 101 -89c88 0 173 72 216 108l77 380h34l-102 -503h-33l17 83c-41 -37 -126 -98 -218 -98c-84 0 -126 44 -126 111zM478 590h-28l-76 134l-132 -134h-30l149 176h42z" />
    <glyph glyph-name="udieresis" unicode="&#xfc;" horiz-adv-x="552" 
d="M55 96c0 18 4 49 9 75l67 332h33l-68 -339c-4 -22 -7 -42 -7 -60c0 -55 29 -89 101 -89c88 0 173 72 216 108l77 380h34l-102 -503h-33l17 83c-41 -37 -126 -98 -218 -98c-84 0 -126 44 -126 111zM308 649c0 -28 -15 -42 -40 -42c-21 0 -31 8 -31 27c0 27 14 41 40 41
c21 0 31 -9 31 -26zM469 649c0 -28 -15 -42 -40 -42c-21 0 -31 8 -31 27c0 27 14 41 40 41c21 0 31 -9 31 -26z" />
    <glyph glyph-name="ugrave" unicode="&#xf9;" horiz-adv-x="552" 
d="M55 96c0 18 4 49 9 75l67 332h33l-68 -339c-4 -22 -7 -42 -7 -60c0 -55 29 -89 101 -89c88 0 173 72 216 108l77 380h34l-102 -503h-33l17 83c-41 -37 -126 -98 -218 -98c-84 0 -126 44 -126 111zM412 590h-30l-107 176h56z" />
    <glyph glyph-name="uhungarumlaut" unicode="&#x171;" horiz-adv-x="552" 
d="M55 96c0 18 4 49 9 75l67 332h33l-68 -339c-4 -22 -7 -42 -7 -60c0 -55 29 -89 101 -89c88 0 173 72 216 108l77 380h34l-102 -503h-33l17 83c-41 -37 -126 -98 -218 -98c-84 0 -126 44 -126 111zM595 766l-177 -176h-33l151 176h59zM424 766l-176 -176h-33l150 176h59z
" />
    <glyph glyph-name="umacron" unicode="&#x16b;" horiz-adv-x="552" 
d="M55 96c0 18 4 49 9 75l67 332h33l-68 -339c-4 -22 -7 -42 -7 -60c0 -55 29 -89 101 -89c88 0 173 72 216 108l77 380h34l-102 -503h-33l17 83c-41 -37 -126 -98 -218 -98c-84 0 -126 44 -126 111zM487 659h-282l9 43h282z" />
    <glyph glyph-name="underscore" unicode="_" horiz-adv-x="500" 
d="M456 -125h-512v50h512v-50z" />
    <glyph glyph-name="uni00A0" unicode="&#xa0;" horiz-adv-x="255" 
 />
    <glyph glyph-name="uni00AD" unicode="&#xad;" horiz-adv-x="352" 
d="M312 231h-282l9 41h282z" />
    <glyph glyph-name="uni02C9" unicode="&#x2c9;" horiz-adv-x="500" 
d="M386 659h-282l9 43h282z" />
    <glyph glyph-name="uni03A9" unicode="&#x3a9;" horiz-adv-x="736" 
d="M369 693c-168 0 -279 -127 -279 -307c0 -197 113 -288 188 -348v-38h-225v32h180c-89 65 -181 169 -181 350c0 203 127 345 316 345s315 -142 315 -345c0 -181 -92 -285 -181 -350h180v-32h-225v38c75 60 188 151 188 348c0 180 -113 307 -276 307z" />
    <glyph glyph-name="uni03BC" unicode="&#x3bc;" horiz-adv-x="565" 
d="M423 0h-35l14 70c-48 -46 -106 -85 -180 -85c-57 0 -98 17 -143 63l-49 -241h-35l141 696h35l-84 -413c46 -55 88 -69 141 -69c51 0 111 26 182 90l80 392h35z" />
    <glyph glyph-name="uni2215" unicode="&#x2215;" horiz-adv-x="109" 
d="M357 727l-569 -878h-38l569 878h38z" />
    <glyph glyph-name="uni2219" unicode="&#x2219;" horiz-adv-x="219" 
d="M154 293c0 -27 -12 -44 -46 -44c-19 0 -33 8 -33 25c0 29 14 45 46 45c18 0 33 -7 33 -26z" />
    <glyph glyph-name="uogonek" unicode="&#x173;" horiz-adv-x="552" 
d="M55 96c0 18 4 49 9 75l67 332h33l-68 -339c-4 -22 -7 -42 -7 -60c0 -55 29 -89 101 -89c88 0 173 72 216 108l77 380h34l-102 -503h-8c-19 -33 -35 -71 -35 -111c0 -36 21 -49 61 -49c30 0 65 14 88 23l7 -25c-27 -15 -67 -31 -111 -31c-58 0 -83 32 -83 76
c0 50 26 97 52 140l13 60c-41 -37 -126 -98 -218 -98c-84 0 -126 44 -126 111z" />
    <glyph glyph-name="uring" unicode="&#x16f;" horiz-adv-x="552" 
d="M55 96c0 18 4 49 9 75l67 332h33l-68 -339c-4 -22 -7 -42 -7 -60c0 -55 29 -89 101 -89c88 0 173 72 216 108l77 380h34l-102 -503h-33l17 83c-41 -37 -126 -98 -218 -98c-84 0 -126 44 -126 111zM433 677c0 -58 -34 -103 -96 -103c-44 0 -64 28 -64 63
c0 55 31 103 93 103c45 0 67 -25 67 -63zM341 599c40 0 65 28 65 75c0 27 -13 41 -44 41c-39 0 -61 -27 -61 -75c0 -27 12 -41 40 -41z" />
    <glyph glyph-name="utilde" unicode="&#x169;" horiz-adv-x="552" 
d="M55 96c0 18 4 49 9 75l67 332h33l-68 -339c-4 -22 -7 -42 -7 -60c0 -55 29 -89 101 -89c88 0 173 72 216 108l77 380h34l-102 -503h-33l17 83c-41 -37 -126 -98 -218 -98c-84 0 -126 44 -126 111zM517 738c-12 -60 -38 -120 -104 -120c-45 0 -67 37 -90 63
c-13 14 -25 25 -43 25c-40 0 -60 -58 -66 -88h-31c13 60 42 120 109 120c31 0 51 -19 69 -40c20 -23 37 -48 63 -48c41 0 56 57 64 88h29z" />
    <glyph glyph-name="v" unicode="v" horiz-adv-x="459" 
d="M484 503l-292 -503h-44l-88 503h36l80 -469l270 469h38z" />
    <glyph glyph-name="w" unicode="w" horiz-adv-x="674" 
d="M694 503l-216 -503h-36l-87 354l-214 -354h-43l-18 503h35l15 -459l211 350h38l86 -348l192 457h37z" />
    <glyph glyph-name="wacute" unicode="&#x1e83;" horiz-adv-x="674" 
d="M694 503l-216 -503h-36l-87 354l-214 -354h-43l-18 503h35l15 -459l211 350h38l86 -348l192 457h37zM553 766l-175 -176h-35l149 176h61z" />
    <glyph glyph-name="wcircumflex" unicode="&#x175;" horiz-adv-x="674" 
d="M694 503l-216 -503h-36l-87 354l-214 -354h-43l-18 503h35l15 -459l211 350h38l86 -348l192 457h37zM529 590h-28l-76 134l-132 -134h-30l149 176h42z" />
    <glyph glyph-name="wdieresis" unicode="&#x1e85;" horiz-adv-x="674" 
d="M694 503l-216 -503h-36l-87 354l-214 -354h-43l-18 503h35l15 -459l211 350h38l86 -348l192 457h37zM354 649c0 -28 -15 -42 -40 -42c-21 0 -31 8 -31 27c0 27 14 41 40 41c21 0 31 -9 31 -26zM515 649c0 -28 -15 -42 -40 -42c-21 0 -31 8 -31 27c0 27 14 41 40 41
c21 0 31 -9 31 -26z" />
    <glyph glyph-name="wgrave" unicode="&#x1e81;" horiz-adv-x="674" 
d="M694 503l-216 -503h-36l-87 354l-214 -354h-43l-18 503h35l15 -459l211 350h38l86 -348l192 457h37zM463 590h-30l-107 176h56z" />
    <glyph glyph-name="x" unicode="x" horiz-adv-x="435" 
d="M465 503l-225 -253l120 -250h-39l-106 222l-197 -222h-43l225 254l-119 249h39l105 -221l195 221h45z" />
    <glyph glyph-name="y" unicode="y" horiz-adv-x="462" 
d="M487 503l-313 -539c-70 -120 -112 -157 -193 -157c-30 0 -60 8 -66 12l11 31c23 -8 41 -12 64 -12c46 0 83 19 144 122l42 73l-114 470h35l105 -430l245 430h40z" />
    <glyph glyph-name="yacute" unicode="&#xfd;" horiz-adv-x="462" 
d="M487 503l-313 -539c-70 -120 -112 -157 -193 -157c-30 0 -60 8 -66 12l11 31c23 -8 41 -12 64 -12c46 0 83 19 144 122l42 73l-114 470h35l105 -430l245 430h40zM432 766l-175 -176h-35l149 176h61z" />
    <glyph glyph-name="ycircumflex" unicode="&#x177;" horiz-adv-x="462" 
d="M487 503l-313 -539c-70 -120 -112 -157 -193 -157c-30 0 -60 8 -66 12l11 31c23 -8 41 -12 64 -12c46 0 83 19 144 122l42 73l-114 470h35l105 -430l245 430h40zM418 590h-28l-76 134l-132 -134h-30l149 176h42z" />
    <glyph glyph-name="ydieresis" unicode="&#xff;" horiz-adv-x="462" 
d="M487 503l-313 -539c-70 -120 -112 -157 -193 -157c-30 0 -60 8 -66 12l11 31c23 -8 41 -12 64 -12c46 0 83 19 144 122l42 73l-114 470h35l105 -430l245 430h40zM240 649c0 -28 -15 -42 -40 -42c-21 0 -31 8 -31 27c0 27 14 41 40 41c21 0 31 -9 31 -26zM401 649
c0 -28 -15 -42 -40 -42c-21 0 -31 8 -31 27c0 27 14 41 40 41c21 0 31 -9 31 -26z" />
    <glyph glyph-name="yen" unicode="&#xa5;" horiz-adv-x="604" 
d="M678 727l-282 -351h156l-6 -32h-176l-37 -46l-10 -52h203l-7 -32h-203l-43 -214h-36l43 214h-204l7 32h204l10 51l-18 47h-176l6 32h156l-142 351h41l158 -393l317 393h39z" />
    <glyph glyph-name="ygrave" unicode="&#x1ef3;" horiz-adv-x="462" 
d="M487 503l-313 -539c-70 -120 -112 -157 -193 -157c-30 0 -60 8 -66 12l11 31c23 -8 41 -12 64 -12c46 0 83 19 144 122l42 73l-114 470h35l105 -430l245 430h40zM343 590h-30l-107 176h56z" />
    <glyph glyph-name="z" unicode="z" horiz-adv-x="430" 
d="M413 -54l-7 -30h-33c-109 0 -104 84 -262 84h-116l8 39l390 434h-308l7 30h348l-8 -36l-394 -437h61c192 0 187 -84 275 -84h39z" />
    <glyph glyph-name="zacute" unicode="&#x17a;" horiz-adv-x="430" 
d="M413 -54l-7 -30h-33c-109 0 -104 84 -262 84h-116l8 39l390 434h-308l7 30h348l-8 -36l-394 -437h61c192 0 187 -84 275 -84h39zM397 766l-175 -176h-35l149 176h61z" />
    <glyph glyph-name="zcaron" unicode="&#x17e;" horiz-adv-x="430" 
d="M413 -54l-7 -30h-33c-109 0 -104 84 -262 84h-116l8 39l390 434h-308l7 30h348l-8 -36l-394 -437h61c192 0 187 -84 275 -84h39zM425 766l-146 -176h-42l-78 176h27l79 -134l129 134h31z" />
    <glyph glyph-name="zdotaccent" unicode="&#x17c;" horiz-adv-x="430" 
d="M413 -54l-7 -30h-33c-109 0 -104 84 -262 84h-116l8 39l390 434h-308l7 30h348l-8 -36l-394 -437h61c192 0 187 -84 275 -84h39zM309 649c0 -28 -14 -42 -39 -42c-19 0 -29 7 -29 28c0 27 14 41 39 41c21 0 29 -8 29 -27z" />
    <glyph glyph-name="zero" unicode="0" horiz-adv-x="577" 
d="M539 376c0 -183 -75 -391 -298 -391c-141 0 -199 88 -199 207c0 181 78 390 300 390c134 0 197 -90 197 -206zM251 19c189 0 249 192 249 357c0 104 -52 172 -162 172c-190 0 -257 -193 -257 -351c0 -114 53 -178 170 -178z" />
    <glyph glyph-name="zero.denominator" unicode="&#xe10a;" horiz-adv-x="420" 
d="M359 136c0 -128 -45 -300 -221 -300c-107 0 -150 73 -150 165c0 137 45 293 220 293c108 0 151 -74 151 -158zM144 -135c136 0 182 133 182 271c0 74 -37 129 -124 129c-134 0 -180 -121 -180 -265c0 -87 41 -135 122 -135z" />
    <glyph glyph-name="zero.fitted" unicode="&#xe097;" horiz-adv-x="576" 
d="M547 524c0 -144 -38 -360 -151 -470c-45 -44 -108 -69 -177 -69c-131 0 -191 81 -191 211c0 151 38 357 141 468c46 50 106 78 181 78c135 0 197 -83 197 -218zM223 19c57 0 108 23 147 61c97 95 138 297 138 438c0 118 -44 190 -159 190c-60 0 -111 -23 -149 -63
c-95 -101 -133 -295 -133 -444c0 -118 48 -182 156 -182z" />
    <glyph glyph-name="zero.inferior" unicode="&#x2080;" horiz-adv-x="420" 
d="M369 172c0 -128 -45 -300 -221 -300c-107 0 -150 73 -150 165c0 137 45 293 220 293c108 0 151 -74 151 -158zM154 -99c136 0 182 133 182 271c0 74 -37 129 -124 129c-134 0 -180 -121 -180 -265c0 -87 41 -135 122 -135z" />
    <glyph glyph-name="zero.numerator" unicode="&#xe11e;" horiz-adv-x="420" 
d="M439 584c0 -128 -45 -300 -221 -300c-107 0 -150 73 -150 165c0 137 45 293 220 293c108 0 151 -74 151 -158zM224 313c136 0 182 133 182 271c0 74 -37 129 -124 129c-134 0 -180 -121 -180 -265c0 -87 41 -135 122 -135z" />
    <glyph glyph-name="zero.superior" unicode="&#x2070;" horiz-adv-x="420" 
d="M409 584c0 -128 -45 -300 -221 -300c-107 0 -150 73 -150 165c0 137 45 293 220 293c108 0 151 -74 151 -158zM194 313c136 0 182 133 182 271c0 74 -37 129 -124 129c-134 0 -180 -121 -180 -265c0 -87 41 -135 122 -135z" />
    <glyph glyph-name="zero.tab" 
d="M547 524c0 -144 -38 -360 -151 -470c-45 -44 -108 -69 -177 -69c-131 0 -191 81 -191 211c0 151 38 357 141 468c46 50 106 78 181 78c135 0 197 -83 197 -218zM223 19c57 0 108 23 147 61c97 95 138 297 138 438c0 118 -44 190 -159 190c-60 0 -111 -23 -149 -63
c-95 -101 -133 -295 -133 -444c0 -118 48 -182 156 -182z" />
    <glyph glyph-name="zero.taboldstyle" unicode="&#xe100;" 
d="M534 376c0 -183 -75 -391 -298 -391c-141 0 -199 88 -199 207c0 181 78 390 300 390c134 0 197 -90 197 -206zM246 19c189 0 249 192 249 357c0 104 -52 172 -162 172c-190 0 -257 -193 -257 -351c0 -114 53 -178 170 -178z" />
    <glyph glyph-name="multiply" unicode="&#xd7;" horiz-adv-x="649" 
d="M544 88l-22 -22l-198 197l-196 -197l-22 22l197 196l-196 196l22 22l195 -196l196 196l22 -22l-196 -196z" />
    <glyph glyph-name="divide" unicode="&#xf7;" horiz-adv-x="649" 
d="M359 498c0 -27 -9 -36 -34 -36c-34 0 -35 19 -35 36c0 23 4 36 35 36c34 0 34 -20 34 -36zM575 269h-501v31h501v-31zM359 71c0 -27 -9 -36 -34 -36c-34 0 -35 19 -35 36c0 23 4 36 35 36c34 0 34 -20 34 -36z" />
    <glyph glyph-name="minus" unicode="&#x2212;" horiz-adv-x="649" 
d="M575 269h-501v31h501v-31z" />
    <glyph glyph-name="plusminus" unicode="&#xb1;" horiz-adv-x="649" 
d="M575 256h-235v-187h-31v187h-235v31h235v213h31v-213h235v-31zM575 0h-501v31h501v-31z" />
    <glyph glyph-name="notequal" unicode="&#x2260;" horiz-adv-x="649" 
d="M575 159h-307l-76 -136h-35l76 136h-159v31h176l106 189h-282v31h299l83 148h35l-83 -148h167v-31h-184l-106 -189h290v-31z" />
    <glyph glyph-name="lessequal" unicode="&#x2264;" horiz-adv-x="649" 
d="M575 86l-501 202v13l501 202v-34l-445 -175l445 -174v-34zM575 0h-501v31h501v-31z" />
    <glyph glyph-name="greaterequal" unicode="&#x2265;" horiz-adv-x="649" 
d="M575 288l-501 -202v34l445 174l-445 175v34l501 -202v-13zM575 0h-501v31h501v-31z" />
    <glyph glyph-name="approxequal" unicode="&#x2248;" horiz-adv-x="649" 
d="M579 435v-36c-33 -34 -78 -61 -133 -61c-83 0 -174 82 -244 82c-61 0 -99 -27 -136 -65v38c37 34 82 56 133 56c84 0 174 -83 248 -83c55 0 95 28 132 69zM579 221v-36c-33 -34 -78 -61 -133 -61c-83 0 -174 82 -244 82c-61 0 -99 -27 -136 -65v38c37 34 82 56 133 56
c84 0 174 -83 248 -83c55 0 95 28 132 69z" />
    <glyph glyph-name="logicalnot" unicode="&#xac;" horiz-adv-x="649" 
d="M575 159h-31v220h-470v31h501v-251z" />
    <glyph glyph-name="brokenbar" unicode="&#xa6;" horiz-adv-x="362" 
d="M218 431h-34v311h34v-311zM218 -193h-34v311h34v-311z" />
    <glyph glyph-name="infinity" unicode="&#x221e;" horiz-adv-x="825" 
d="M413 319c48 76 121 134 196 134c101 0 159 -68 159 -156c0 -92 -58 -161 -156 -161c-88 0 -151 61 -200 136c-48 -76 -121 -134 -196 -134c-101 0 -159 68 -159 156c0 92 58 161 156 161c88 0 151 -61 200 -136zM396 296c-45 74 -115 130 -180 130
c-87 0 -128 -53 -128 -131s57 -129 127 -129c75 0 133 54 181 130zM429 295c45 -74 115 -130 180 -130c87 0 128 53 128 131s-57 129 -127 129c-75 0 -133 -54 -181 -130z" />
    <glyph glyph-name="partialdiff" unicode="&#x2202;" horiz-adv-x="598" 
d="M537 503c0 -62 -9 -131 -26 -199c-38 -148 -131 -315 -282 -315c-101 0 -171 73 -171 187c0 200 138 327 277 327c95 0 136 -54 158 -99c5 29 6 70 6 102c0 132 -61 205 -167 205c-32 0 -70 -9 -100 -25l-11 26c26 15 72 30 119 30c116 0 197 -83 197 -239zM484 358v5
c-26 62 -67 111 -152 111c-123 0 -234 -128 -234 -299c0 -94 52 -155 133 -155c115 0 212 132 253 338z" />
    <glyph glyph-name="mu" unicode="&#xb5;" horiz-adv-x="565" 
d="M423 0h-35l14 70c-48 -46 -106 -85 -180 -85c-57 0 -98 17 -143 63l-49 -241h-35l141 696h35l-84 -413c46 -55 88 -69 141 -69c51 0 111 26 182 90l80 392h35z" />
    <glyph glyph-name="Delta" unicode="&#x2206;" horiz-adv-x="638" 
d="M586 0h-576v23l263 691h52l261 -691v-23zM539 33l-237 635h-9l-238 -635h484z" />
    <glyph glyph-name="oslash" unicode="&#xf8;" horiz-adv-x="543" 
d="M499 323c0 -155 -87 -338 -269 -338c-52 0 -97 16 -130 47l-61 -69h-39l80 92c-23 32 -37 74 -37 125c0 160 92 338 273 338c53 0 97 -16 128 -46l60 68h39l-79 -91c23 -32 35 -75 35 -126zM79 184c0 -40 8 -74 25 -102l317 363c-24 25 -61 40 -111 40
c-149 0 -231 -146 -231 -301zM237 18c148 0 226 156 226 304c0 37 -7 72 -24 99l-316 -362c26 -26 64 -41 114 -41z" />
    <glyph glyph-name="oslashacute" unicode="&#x1ff;" horiz-adv-x="543" 
d="M499 323c0 -155 -87 -338 -269 -338c-52 0 -97 16 -130 47l-61 -69h-39l80 92c-23 32 -37 74 -37 125c0 160 92 338 273 338c53 0 97 -16 128 -46l60 68h39l-79 -91c23 -32 35 -75 35 -126zM79 184c0 -40 8 -74 25 -102l317 363c-24 25 -61 40 -111 40
c-149 0 -231 -146 -231 -301zM237 18c148 0 226 156 226 304c0 37 -7 72 -24 99l-316 -362c26 -26 64 -41 114 -41zM478 766l-175 -176h-35l149 176h61z" />
    <glyph glyph-name="oe" unicode="&#x153;" horiz-adv-x="898" 
d="M587 235l-97 -6c-1 -15 -2 -30 -2 -46c0 -100 48 -166 152 -166c50 0 86 14 131 46l20 -27c-34 -26 -86 -51 -158 -51c-90 0 -161 47 -177 147c-42 -85 -116 -147 -225 -147c-110 0 -187 70 -187 195c0 161 83 338 273 338c91 0 162 -54 178 -151c44 88 122 151 232 151
c113 0 156 -60 156 -117c0 -101 -73 -154 -296 -166zM238 18c139 0 226 141 226 304c0 93 -49 163 -153 163c-149 0 -231 -146 -231 -301c0 -98 48 -166 158 -166zM847 397c0 41 -26 90 -123 90c-121 0 -205 -101 -229 -229l80 5c200 12 272 46 272 134z" />
    <glyph glyph-name="uni021B" unicode="&#x21b;" horiz-adv-x="329" 
d="M254 -2c-27 -8 -57 -13 -87 -13c-61 0 -96 22 -96 79c0 15 6 45 11 69l69 339h-106l6 31h106l34 155l39 26l-39 -181h133l-6 -31h-133l-69 -338c-3 -17 -9 -48 -9 -63c0 -32 14 -54 64 -54c29 0 53 4 76 12zM122 -68c0 22 13 39 40 39c26 0 36 -15 36 -33
c0 -49 -37 -112 -55 -131h-32c23 26 38 62 42 94c-18 0 -31 8 -31 31z" />
    <glyph glyph-name="uni021A" unicode="&#x21a;" horiz-adv-x="527" 
d="M609 693h-244l-141 -693h-36l141 693h-244l6 34h524zM152 -68c0 22 13 39 40 39c26 0 36 -15 36 -33c0 -49 -37 -112 -55 -131h-32c23 26 38 62 42 94c-18 0 -31 8 -31 31z" />
    <glyph glyph-name="onesuperior" unicode="&#xb9;" horiz-adv-x="370" 
d="M310 293h-230l5 25h109l73 356c-37 -26 -85 -52 -133 -61l5 25c62 19 116 54 160 104h11l-86 -424h91z" />
    <glyph glyph-name="twosuperior" unicode="&#xb2;" horiz-adv-x="435" 
d="M388 293h-339l7 33l154 101c93 60 198 116 198 204c0 48 -32 83 -110 83c-66 0 -110 -25 -155 -66l-19 19c36 37 94 75 177 75c88 0 140 -40 140 -105c0 -114 -130 -175 -245 -249l-105 -67h303z" />
    <glyph glyph-name="threesuperior" unicode="&#xb3;" horiz-adv-x="425" 
d="M385 442c0 -106 -97 -161 -196 -161c-65 0 -112 20 -141 64l26 18c26 -40 71 -53 119 -53c77 0 158 35 158 130c0 58 -47 83 -123 83c-19 0 -42 -2 -69 -8l2 10l224 180h-249l5 28h287l-5 -29l-193 -155c5 1 14 1 16 1c92 0 139 -45 139 -108z" />
    <glyph glyph-name="uni0394" unicode="&#x394;" horiz-adv-x="638" 
d="M586 0h-576v23l263 691h52l261 -691v-23zM539 33l-237 635h-9l-238 -635h484z" />
    <glyph glyph-name="afii61289" unicode="&#x2113;" horiz-adv-x="450" 
d="M357 74l23 -19c-22 -29 -56 -70 -112 -70c-92 0 -103 66 -103 146v130c-22 -23 -53 -58 -74 -81l-21 24l95 104v255c0 109 27 164 92 164s83 -52 83 -102c0 -83 -35 -191 -102 -280c-10 -13 -28 -38 -38 -49v-170c0 -63 10 -109 68 -109c42 0 68 29 89 57zM304 620
c0 47 -16 77 -49 77c-37 0 -55 -51 -55 -137v-213c8 9 21 29 27 38c44 67 77 150 77 235z" />
    <glyph glyph-name="uni0162" unicode="&#x162;" horiz-adv-x="527" 
d="M609 693h-244l-141 -693h-36l141 693h-244l6 34h524zM152 -68c0 22 13 39 40 39c26 0 36 -15 36 -33c0 -49 -37 -112 -55 -131h-32c23 26 38 62 42 94c-18 0 -31 8 -31 31z" />
    <glyph glyph-name="uni0163" unicode="&#x163;" horiz-adv-x="329" 
d="M254 -2c-27 -8 -57 -13 -87 -13c-61 0 -96 22 -96 79c0 15 6 45 11 69l69 339h-106l6 31h106l34 155l39 26l-39 -181h133l-6 -31h-133l-69 -338c-3 -17 -9 -48 -9 -63c0 -32 14 -54 64 -54c29 0 53 4 76 12zM122 -68c0 22 13 39 40 39c26 0 36 -15 36 -33
c0 -49 -37 -112 -55 -131h-32c23 26 38 62 42 94c-18 0 -31 8 -31 31z" />
    <glyph glyph-name="uniF8FF" unicode="&#xf8ff;" horiz-adv-x="500" 
d="M-55 0l134 665h475l-135 -665h-474zM146 618l112 -243l211 243h-323zM109 575l-99 -484c0 -1 211 242 211 242zM489 575l-211 -242l112 -243zM353 48l-112 242l-211 -242h323z" />
    <glyph glyph-name="dotlessj" unicode="&#x237;" horiz-adv-x="253" 
d="M194 428l-96 -471c-21 -101 -59 -150 -156 -150c-32 0 -68 7 -82 14l14 31c21 -9 51 -13 77 -13c77 0 100 46 119 140l88 437c5 23 9 42 9 53c0 12 -5 18 -15 18c-13 0 -38 -12 -71 -33l-12 23c45 29 74 41 96 41c26 0 37 -15 37 -39c0 -10 -4 -33 -8 -51z" />
    <glyph glyph-name="dollar.alt" 
d="M177 -125l28 139c-105 14 -163 76 -185 130l32 17c24 -54 75 -102 159 -115l66 327c-85 29 -167 67 -167 159c0 119 103 185 226 185h12l20 99h31l-21 -102c93 -13 145 -68 169 -125l-31 -16c-25 57 -71 99 -144 109l-58 -283c89 -32 177 -75 177 -175
c0 -136 -104 -213 -238 -213h-18l-27 -136h-31zM453 220c0 83 -59 113 -146 143l-65 -320h17c103 0 194 55 194 177zM146 536c0 -72 62 -101 139 -127l56 276h-5c-116 0 -190 -58 -190 -149z" />
    <glyph glyph-name="percent.alt" horiz-adv-x="981" 
d="M793 727l-556 -727h-38l556 727h38zM425 596c0 -118 -42 -276 -202 -276c-98 0 -137 67 -137 152c0 126 41 270 201 270c98 0 138 -69 138 -146zM228 349c123 0 164 121 164 247c0 66 -32 117 -111 117c-120 0 -162 -110 -162 -241c0 -78 37 -123 109 -123zM907 265
c0 -118 -42 -276 -202 -276c-98 0 -137 67 -137 152c0 126 41 270 201 270c98 0 138 -69 138 -146zM710 18c123 0 164 121 164 247c0 66 -32 117 -111 117c-120 0 -162 -110 -162 -241c0 -78 37 -123 109 -123z" />
    <glyph glyph-name="perthousand.alt" horiz-adv-x="1366" 
d="M793 727l-556 -727h-38l556 727h38zM425 596c0 -118 -42 -276 -202 -276c-98 0 -137 67 -137 152c0 126 41 270 201 270c98 0 138 -69 138 -146zM228 349c123 0 164 121 164 247c0 66 -32 117 -111 117c-120 0 -162 -110 -162 -241c0 -78 37 -123 109 -123zM907 265
c0 -118 -42 -276 -202 -276c-98 0 -137 67 -137 152c0 126 41 270 201 270c98 0 138 -69 138 -146zM710 18c123 0 164 121 164 247c0 66 -32 117 -111 117c-120 0 -162 -110 -162 -241c0 -78 37 -123 109 -123zM1292 265c0 -118 -42 -276 -202 -276c-98 0 -137 67 -137 152
c0 126 41 270 201 270c98 0 138 -69 138 -146zM1095 18c123 0 164 121 164 247c0 66 -32 117 -111 117c-120 0 -162 -110 -162 -241c0 -78 37 -123 109 -123z" />
    <glyph glyph-name="onequarter.alt" horiz-adv-x="977" 
d="M823 110h-66l-25 -121h-28l25 121h-210l5 25l269 276h25l-56 -275h66zM734 136l46 225l-220 -225h174zM790 727l-556 -727h-37l556 727h37zM329 331h-212l6 26h99l65 319c-30 -24 -78 -46 -120 -54l5 25c56 18 106 50 146 95h12l-78 -385h83z" />
    <glyph glyph-name="onehalf.alt" horiz-adv-x="977" 
d="M773 727l-556 -727h-37l556 727h37zM312 331h-212l6 26h99l65 319c-30 -24 -78 -46 -120 -54l5 25c56 18 106 50 146 95h12l-78 -385h83zM842 0h-316l7 30c49 32 117 73 169 108c98 66 159 112 159 172c0 44 -30 75 -100 75c-66 0 -108 -26 -147 -63l-17 20
c33 34 89 69 166 69c82 0 128 -41 128 -97c0 -77 -79 -132 -156 -183c-62 -42 -87 -55 -163 -103h276z" />
    <glyph glyph-name="threequarters.alt" horiz-adv-x="977" 
d="M390 470c0 -100 -83 -150 -179 -150c-54 0 -105 16 -131 60l28 18c21 -36 60 -49 103 -49c83 0 147 35 147 116c0 52 -38 77 -103 77c-17 0 -48 -3 -75 -9l2 10l203 163h-223l5 28h263l-5 -28l-175 -141c6 1 14 1 15 1c76 0 125 -38 125 -96zM829 110h-64l-25 -121h-30
l25 121h-212l5 25l271 276h27l-56 -275h64zM740 136l45 223l-219 -223h174zM818 727l-556 -727h-37l556 727h37z" />
    <glyph glyph-name="onethird.alt" horiz-adv-x="977" 
d="M791 727l-556 -727h-37l556 727h37zM330 331h-212l6 26h99l65 319c-30 -24 -78 -46 -120 -54l5 25c56 18 106 50 146 95h12l-78 -385h83zM873 141c0 -100 -83 -150 -179 -150c-54 0 -105 16 -131 60l28 18c21 -36 60 -49 103 -49c83 0 147 35 147 116
c0 52 -38 77 -103 77c-17 0 -48 -3 -75 -9l2 10l203 163h-223l5 28h263l-5 -28l-175 -141c6 1 14 1 15 1c76 0 125 -38 125 -96z" />
    <glyph glyph-name="twothirds.alt" horiz-adv-x="977" 
d="M791 727l-556 -727h-37l556 727h37zM873 141c0 -100 -83 -150 -179 -150c-54 0 -105 16 -131 60l28 18c21 -36 60 -49 103 -49c83 0 147 35 147 116c0 52 -38 77 -103 77c-17 0 -48 -3 -75 -9l2 10l203 163h-223l5 28h263l-5 -28l-175 -141c6 1 14 1 15 1
c76 0 125 -38 125 -96zM344 329h-316l7 30c49 32 117 73 169 108c98 66 159 112 159 172c0 44 -30 75 -100 75c-66 0 -108 -26 -147 -63l-17 20c33 34 89 69 166 69c82 0 128 -41 128 -97c0 -77 -79 -132 -156 -183c-62 -42 -87 -55 -163 -103h276z" />
    <glyph glyph-name="oneeighth.alt" horiz-adv-x="977" 
d="M788 727l-556 -727h-37l556 727h37zM327 331h-212l6 26h99l65 319c-30 -24 -78 -46 -120 -54l5 25c56 18 106 50 146 95h12l-78 -385h83zM869 119c0 -91 -90 -131 -174 -131c-95 0 -143 44 -143 100c0 76 71 112 142 126c-48 17 -86 42 -86 93c0 80 86 107 161 107
c92 0 132 -42 132 -90c0 -65 -65 -96 -128 -111c61 -19 96 -46 96 -94zM870 321c0 40 -31 68 -107 68c-66 0 -124 -22 -124 -81c0 -38 24 -60 96 -83c69 16 135 39 135 96zM701 15c65 0 137 33 137 101c0 52 -51 68 -104 85c-72 -14 -152 -38 -152 -111
c0 -43 40 -75 119 -75z" />
    <glyph glyph-name="threeeighths.alt" horiz-adv-x="977" 
d="M390 470c0 -100 -83 -150 -179 -150c-54 0 -105 16 -131 60l28 18c21 -36 60 -49 103 -49c83 0 147 35 147 116c0 52 -38 77 -103 77c-17 0 -48 -3 -75 -9l2 10l203 163h-223l5 28h263l-5 -28l-175 -141c6 1 14 1 15 1c76 0 125 -38 125 -96zM788 727l-556 -727h-37
l556 727h37zM869 119c0 -91 -90 -131 -174 -131c-95 0 -143 44 -143 100c0 76 71 112 142 126c-48 17 -86 42 -86 93c0 80 86 107 161 107c92 0 132 -42 132 -90c0 -65 -65 -96 -128 -111c61 -19 96 -46 96 -94zM870 321c0 40 -31 68 -107 68c-66 0 -124 -22 -124 -81
c0 -38 24 -60 96 -83c69 16 135 39 135 96zM701 15c65 0 137 33 137 101c0 52 -51 68 -104 85c-72 -14 -152 -38 -152 -111c0 -43 40 -75 119 -75z" />
    <glyph glyph-name="fiveeighths.alt" horiz-adv-x="977" 
d="M788 727l-556 -727h-37l556 727h37zM869 119c0 -91 -90 -131 -174 -131c-95 0 -143 44 -143 100c0 76 71 112 142 126c-48 17 -86 42 -86 93c0 80 86 107 161 107c92 0 132 -42 132 -90c0 -65 -65 -96 -128 -111c61 -19 96 -46 96 -94zM870 321c0 40 -31 68 -107 68
c-66 0 -124 -22 -124 -81c0 -38 24 -60 96 -83c69 16 135 39 135 96zM701 15c65 0 137 33 137 101c0 52 -51 68 -104 85c-72 -14 -152 -38 -152 -111c0 -43 40 -75 119 -75zM401 475c0 -103 -89 -155 -193 -155c-66 0 -115 29 -133 56l33 15c16 -25 56 -43 106 -43
c77 0 155 34 155 125c0 53 -37 74 -102 74c-34 0 -90 -11 -125 -28h-8l74 214h224l-6 -29h-200c-18 -50 -36 -99 -53 -150c38 15 82 19 109 19c74 0 119 -35 119 -98z" />
    <glyph glyph-name="seveneighths.alt" horiz-adv-x="977" 
d="M764 727l-556 -727h-37l556 727h37zM869 119c0 -91 -90 -131 -174 -131c-95 0 -143 44 -143 100c0 76 71 112 142 126c-48 17 -86 42 -86 93c0 80 86 107 161 107c92 0 132 -42 132 -90c0 -65 -65 -96 -128 -111c61 -19 96 -46 96 -94zM870 321c0 40 -31 68 -107 68
c-66 0 -124 -22 -124 -81c0 -38 24 -60 96 -83c69 16 135 39 135 96zM701 15c65 0 137 33 137 101c0 52 -51 68 -104 85c-72 -14 -152 -38 -152 -111c0 -43 40 -75 119 -75zM481 700l-265 -380h-37l269 384h-226l-12 -58h-29l18 87h289z" />
    <glyph glyph-name="plus.alt" horiz-adv-x="649" 
d="M575 359h-235v-235h-31v235h-235v31h235v235h31v-235h235v-31z" />
    <glyph glyph-name="minus.alt" horiz-adv-x="649" 
d="M589 359h-501v31h501v-31z" />
    <glyph glyph-name="multiply.alt" horiz-adv-x="649" 
d="M544 178l-22 -22l-198 197l-196 -197l-22 22l197 196l-196 196l22 22l195 -196l196 196l22 -22l-196 -196z" />
    <glyph glyph-name="less.alt" horiz-adv-x="649" 
d="M545 143l-501 225v13l501 224v-34l-445 -197l445 -197v-34z" />
    <glyph glyph-name="greater.alt" horiz-adv-x="649" 
d="M595 368l-501 -225v34l445 197l-445 197v34l501 -224v-13z" />
    <glyph glyph-name="logicalnot.alt" horiz-adv-x="649" 
d="M575 249h-31v220h-470v31h501v-251z" />
    <glyph glyph-name="equal.alt" horiz-adv-x="649" 
d="M575 469h-501v31h501v-31zM575 249h-501v31h501v-31z" />
    <glyph glyph-name="divide.alt" horiz-adv-x="649" 
d="M359 588c0 -27 -9 -36 -34 -36c-34 0 -35 19 -35 36c0 23 4 36 35 36c34 0 34 -20 34 -36zM575 359h-501v31h501v-31zM359 161c0 -27 -9 -36 -34 -36c-34 0 -35 19 -35 36c0 23 4 36 35 36c34 0 34 -20 34 -36z" />
    <glyph glyph-name="plusminus.alt" horiz-adv-x="649" 
d="M575 346h-235v-187h-31v187h-235v31h235v213h31v-213h235v-31zM575 90h-501v31h501v-31z" />
    <glyph glyph-name="periodcentered.alt" horiz-adv-x="219" 
d="M150 381c0 -27 -12 -44 -46 -44c-19 0 -33 8 -33 25c0 29 14 45 46 45c18 0 33 -7 33 -26z" />
    </font>
</defs>
</svg>
