<?xml version="1.0" standalone="no"?>
<!DOCTYPE svg PUBLIC "-//W3C//DTD SVG 1.1//EN" "http://www.w3.org/Graphics/SVG/1.1/DTD/svg11.dtd" >
<svg xmlns="http://www.w3.org/2000/svg" xmlns:xlink="http://www.w3.org/1999/xlink" version="1.1">
<metadata>
Created by FontForge 20160407 at Tue Sep 27 16:53:27 2016
 By Jimmy Warting
Copyright 2010 Monotype Imaging Inc. All rights reserved.
</metadata>
<defs>
<font id="FelbridgePro-BlackItalic" horiz-adv-x="497" >
  <font-face 
    font-family="Felbridge Pro Black"
    font-weight="900"
    font-style="italic"
    font-stretch="normal"
    units-per-em="1000"
    panose-1="2 0 10 3 4 0 3 9 3 4"
    ascent="778"
    descent="-222"
    x-height="535"
    cap-height="727"
    bbox="-389 -250 1543 957"
    underline-thickness="50"
    underline-position="-100"
    slope="-11"
    stemh="122"
    stemv="148"
    unicode-range="U+0020-FB04"
  />
<missing-glyph horiz-adv-x="500" 
d="M-55 0l134 665h475l-135 -665h-474zM146 618l112 -243l211 243h-323zM109 575l-99 -484c0 -1 211 242 211 242zM489 575l-211 -242l112 -243zM353 48l-112 242l-211 -242h323z" />
    <glyph glyph-name="f_f" unicode="ff" horiz-adv-x="757" 
d="M393 -1l75 368h-163l-73 -360c-21 -106 -57 -200 -248 -200c-40 0 -101 10 -126 18l56 147c10 -3 38 -14 65 -14c30 0 44 14 49 41l75 368h-68l33 163h68l2 12c15 107 57 200 248 200c40 0 101 -10 126 -18l-56 -147c-10 3 -38 14 -65 14c-30 0 -44 -14 -49 -41l-4 -20
h163l2 12c15 107 57 200 248 200c40 0 101 -10 126 -18l-56 -147c-10 3 -38 14 -65 14c-30 0 -44 -14 -49 -41l-4 -20h97l-33 -163h-97l-73 -360c-21 -106 -57 -200 -248 -200c-40 0 -101 10 -126 18l56 147c10 -3 38 -14 65 -14c30 0 44 14 49 41z" />
    <glyph glyph-name="f_f_i" unicode="ffi" horiz-adv-x="1015" 
d="M910 0h-202l59 279c5 22 11 53 11 66c0 19 -9 22 -32 22h-78l-73 -360c-21 -106 -57 -200 -248 -200c-40 0 -101 10 -126 18l56 147c10 -3 38 -14 65 -14c30 0 44 14 49 41l75 368h-161l-73 -360c-21 -106 -57 -200 -248 -200c-40 0 -101 10 -126 18l56 147
c10 -3 38 -14 65 -14c30 0 44 14 49 41l75 368h-68l33 163h68l2 12c15 107 57 200 248 200c40 0 101 -10 126 -18l-56 -147c-10 3 -38 14 -65 14c-30 0 -44 -14 -49 -41l-4 -20h161l6 35c18 106 64 177 249 177c63 0 134 -8 177 -21c42 -13 58 -36 58 -68
c0 -48 -34 -80 -93 -80c-37 0 -61 8 -76 31c-12 3 -42 5 -57 5c-32 0 -49 -13 -58 -58l-4 -21h191c79 0 105 -22 105 -79c0 -17 -5 -51 -10 -76z" />
    <glyph glyph-name="f_f_l" unicode="ffl" horiz-adv-x="1102" 
d="M391 -1l75 368h-161l-73 -360c-21 -106 -57 -200 -248 -200c-40 0 -101 10 -126 18l56 147c10 -3 38 -14 65 -14c30 0 44 14 49 41l75 368h-68l33 163h68l2 12c15 107 57 200 248 200c40 0 101 -10 126 -18l-56 -147c-10 3 -38 14 -65 14c-30 0 -44 -14 -49 -41l-4 -20
h161l6 28c25 117 69 184 239 184c80 0 162 -16 214 -27l122 53l-114 -560c-2 -8 -3 -16 -3 -22c0 -21 10 -28 28 -28c11 0 25 3 43 8l16 -153c-50 -18 -118 -28 -157 -28c-92 0 -143 32 -143 125c0 24 5 52 11 84l79 391c-35 7 -60 10 -75 10c-37 0 -51 -8 -59 -43l-5 -22
h88l-33 -163h-88l-73 -360c-21 -106 -57 -200 -248 -200c-40 0 -101 10 -126 18l56 147c10 -3 38 -14 65 -14c30 0 44 14 49 41z" />
    <glyph glyph-name="fi" unicode="fi" horiz-adv-x="652" 
d="M547 0h-202l59 279c5 22 11 53 11 66c0 19 -9 22 -32 22h-78l-73 -360c-21 -106 -57 -200 -248 -200c-40 0 -101 10 -126 18l56 147c10 -3 38 -14 65 -14c30 0 44 14 49 41l75 368h-68l33 163h68l6 35c18 106 64 177 249 177c63 0 134 -8 177 -21c42 -13 58 -36 58 -68
c0 -48 -34 -80 -93 -80c-37 0 -61 8 -76 31c-12 3 -42 5 -57 5c-32 0 -49 -13 -58 -58l-4 -21h191c79 0 105 -22 105 -79c0 -17 -5 -51 -10 -76z" />
    <glyph glyph-name="fl" unicode="fl" horiz-adv-x="739" 
d="M687 13c-50 -18 -118 -28 -157 -28c-92 0 -143 32 -143 125c0 24 5 52 11 84l79 391c-35 7 -60 10 -75 10c-37 0 -51 -8 -59 -43l-5 -22h90l-33 -163h-90l-73 -360c-21 -106 -57 -200 -248 -200c-40 0 -101 10 -126 18l56 147c10 -3 38 -14 65 -14c30 0 44 14 49 41
l75 368h-68l33 163h68l6 28c25 117 69 184 239 184c80 0 162 -16 214 -27l122 53l-114 -560c-2 -8 -3 -16 -3 -22c0 -21 10 -28 28 -28c11 0 25 3 43 8z" />
    <glyph glyph-name=".notdef" horiz-adv-x="500" 
d="M-55 0l134 665h475l-135 -665h-474zM146 618l112 -243l211 243h-323zM109 575l-99 -484c0 -1 211 242 211 242zM489 575l-211 -242l112 -243zM353 48l-112 242l-211 -242h323z" />
    <glyph glyph-name="space" unicode=" " horiz-adv-x="210" 
 />
    <glyph glyph-name="exclam" unicode="!" horiz-adv-x="351" 
d="M362 727l-129 -498h-166l72 498h223zM236 108c0 -75 -42 -123 -129 -123c-57 0 -98 34 -98 90c0 74 42 122 127 122c59 0 100 -34 100 -89z" />
    <glyph glyph-name="quotedbl" unicode="&#x22;" horiz-adv-x="526" 
d="M533 742l-83 -269h-118l27 269h174zM311 742l-83 -269h-118l27 269h174z" />
    <glyph glyph-name="numbersign" unicode="#" horiz-adv-x="716" 
d="M710 427h-128l-33 -127h104v-119h-134l-46 -181h-125l46 181h-137l-46 -181h-125l46 181h-98v119h128l32 127h-103v119h134l46 181h125l-46 -181h137l46 181h125l-46 -181h98v-119zM457 427h-138l-32 -127h137z" />
    <glyph glyph-name="dollar" unicode="$" horiz-adv-x="629" 
d="M573 225c0 -148 -107 -212 -259 -223l-25 -122h-128l25 123c-75 11 -154 49 -194 131l171 89c25 -48 80 -71 136 -71c42 0 69 14 69 42s-24 42 -87 59c-134 36 -213 80 -213 195c0 139 114 211 252 217l16 77h128l-16 -79c77 -13 138 -51 175 -120l-173 -93
c-21 41 -65 65 -113 65c-35 0 -64 -11 -64 -42c0 -27 51 -43 111 -61c91 -27 189 -68 189 -187z" />
    <glyph glyph-name="percent" unicode="%" horiz-adv-x="1113" 
d="M919 727l-574 -878h-152l574 878h152zM1050 125c0 -156 -87 -291 -266 -291c-127 0 -198 61 -198 162c0 162 87 294 265 294c140 0 199 -70 199 -165zM800 -30c63 0 82 69 82 133c0 29 -13 51 -47 51c-61 0 -81 -70 -81 -132c0 -31 13 -52 46 -52zM526 577
c0 -156 -87 -291 -266 -291c-127 0 -198 61 -198 162c0 162 87 294 265 294c140 0 199 -70 199 -165zM276 422c63 0 82 69 82 133c0 29 -13 51 -47 51c-61 0 -81 -70 -81 -132c0 -31 13 -52 46 -52z" />
    <glyph glyph-name="ampersand" unicode="&#x26;" horiz-adv-x="798" 
d="M653 612l-160 -89c-30 53 -53 70 -89 70c-28 0 -46 -21 -46 -43c0 -29 15 -51 32 -76l126 -190c26 35 49 74 69 116l157 -75c-34 -66 -77 -127 -127 -178l116 -147h-257l-21 28c-58 -28 -120 -43 -195 -43c-162 0 -243 75 -243 194c0 117 84 184 170 226
c-24 39 -44 83 -44 127c0 150 131 210 260 210c127 0 201 -45 252 -130zM294 143c23 0 45 5 67 13l-83 121c-41 -26 -53 -53 -53 -81s18 -53 69 -53z" />
    <glyph glyph-name="quoteright" unicode="&#x2019;" horiz-adv-x="305" 
d="M181 378h-133c50 48 105 123 117 155c-43 13 -60 50 -60 87c0 74 44 122 125 122c61 0 102 -34 102 -98c0 -99 -86 -211 -151 -266z" />
    <glyph glyph-name="parenleft" unicode="(" horiz-adv-x="411" 
d="M311 -193h-195c-53 79 -91 183 -91 315c0 220 95 463 270 620h215c-166 -149 -292 -372 -292 -606c0 -118 25 -224 93 -329z" />
    <glyph glyph-name="parenright" unicode=")" horiz-adv-x="411" 
d="M99 742h195c53 -79 91 -183 91 -315c0 -220 -95 -463 -270 -620h-215c166 149 292 372 292 606c0 118 -25 224 -93 329z" />
    <glyph glyph-name="asterisk" unicode="*" horiz-adv-x="520" 
d="M535 558l-113 -58l112 -60l-66 -114l-113 73l4 -142h-131l4 141l-110 -72l-66 114l112 60l-113 58l66 115l111 -70l-4 139h131l-4 -140l114 71z" />
    <glyph glyph-name="plus" unicode="+" horiz-adv-x="695" 
d="M643 222h-221v-221h-148v221h-222v148h222v222h148v-222h221v-148z" />
    <glyph glyph-name="comma" unicode="," horiz-adv-x="311" 
d="M62 -167h-133c50 48 105 123 117 155c-43 13 -60 50 -60 87c0 74 44 122 125 122c61 0 102 -34 102 -98c0 -99 -86 -211 -151 -266z" />
    <glyph glyph-name="hyphen" unicode="-" horiz-adv-x="402" 
d="M355 185h-342l33 166h342z" />
    <glyph glyph-name="period" unicode="." horiz-adv-x="311" 
d="M233 108c0 -75 -42 -123 -129 -123c-57 0 -98 34 -98 90c0 74 42 122 127 122c59 0 100 -34 100 -89z" />
    <glyph glyph-name="slash" unicode="/" horiz-adv-x="538" 
d="M598 742l-522 -888h-174l522 888h174z" />
    <glyph glyph-name="zero" unicode="0" horiz-adv-x="659" 
d="M637 373c0 -216 -119 -388 -362 -388c-188 0 -253 110 -253 225c0 224 114 396 354 396c181 0 261 -94 261 -233zM303 171c82 0 118 94 118 168c0 51 -18 81 -67 81c-87 0 -117 -97 -117 -172c0 -46 18 -77 66 -77z" />
    <glyph glyph-name="one" unicode="1" horiz-adv-x="573" 
d="M474 0h-445l35 175h129l36 178c-37 -16 -98 -32 -150 -38l32 160c98 27 163 61 224 123h148l-86 -423h112z" />
    <glyph glyph-name="two" unicode="2" horiz-adv-x="645" 
d="M543 0h-564l28 145c92 51 154 82 222 122c67 39 146 84 146 137c0 26 -18 37 -49 37c-57 0 -104 -33 -156 -73l-106 127c82 75 166 111 303 111c142 0 243 -53 243 -162c0 -133 -125 -205 -242 -269h210z" />
    <glyph glyph-name="three" unicode="3" horiz-adv-x="602" 
d="M548 119c0 -187 -119 -285 -338 -285c-101 0 -202 23 -277 100l153 134c34 -39 84 -57 129 -57c62 0 123 28 123 98c0 41 -31 71 -91 71c-31 0 -65 -6 -108 -19l21 114l153 149h-238l34 167h511l-27 -129l-173 -162c91 -28 128 -111 128 -181z" />
    <glyph glyph-name="four" unicode="4" horiz-adv-x="689" 
d="M607 -15h-79l-31 -151h-204l31 151h-336l33 170l444 443h187l-92 -454h79zM359 140l36 176l-172 -176h136z" />
    <glyph glyph-name="five" unicode="5" horiz-adv-x="626" 
d="M576 131c0 -207 -135 -297 -343 -297c-101 0 -206 31 -273 100l154 134c34 -39 89 -57 127 -57c63 0 120 29 120 98c0 44 -33 71 -103 71c-38 0 -73 -4 -113 -21h-104l134 432h448l-34 -167h-286l-27 -89c26 6 49 8 74 8c133 0 226 -78 226 -212z" />
    <glyph glyph-name="six" unicode="6" horiz-adv-x="670" 
d="M619 287c0 -179 -115 -302 -322 -302c-190 0 -283 102 -283 262c0 244 120 495 428 495c92 0 164 -26 215 -62l-121 -140c-29 21 -60 38 -111 38c-81 0 -133 -29 -160 -130c46 34 96 47 150 47c122 0 204 -76 204 -208zM299 152c66 0 105 45 105 111c0 44 -26 65 -72 65
c-34 0 -73 -7 -99 -20c-7 -28 -10 -56 -10 -72c0 -59 29 -84 76 -84z" />
    <glyph glyph-name="seven" unicode="7" horiz-adv-x="626" 
d="M654 443l-417 -609h-240l418 589h-147l-21 -104h-188l56 272h570z" />
    <glyph glyph-name="eight" unicode="8" horiz-adv-x="664" 
d="M600 223c0 -178 -168 -238 -344 -238c-160 0 -261 65 -261 183c0 101 62 170 164 211c-41 33 -74 79 -74 141c0 169 155 222 317 222c153 0 250 -64 250 -172c0 -90 -58 -156 -145 -194c52 -32 93 -89 93 -153zM354 464c30 14 86 42 86 88c0 18 -14 42 -62 42
c-51 0 -82 -21 -82 -59c0 -21 15 -48 58 -71zM285 133c40 0 102 16 102 70c0 29 -19 61 -72 87c-52 -18 -106 -51 -106 -99c0 -23 13 -58 76 -58z" />
    <glyph glyph-name="nine" unicode="9" horiz-adv-x="670" 
d="M657 332c0 -266 -128 -498 -431 -498c-72 0 -158 10 -239 68l122 149c52 -39 90 -53 139 -53c79 0 126 47 153 129c-44 -26 -99 -38 -159 -38c-117 0 -192 85 -192 211c0 204 132 306 338 306c188 0 269 -118 269 -274zM437 276c8 39 10 57 10 74c0 54 -24 89 -78 89
c-65 0 -104 -47 -104 -111c0 -46 22 -72 72 -72c32 0 72 11 100 20z" />
    <glyph glyph-name="colon" unicode=":" horiz-adv-x="311" 
d="M293 441c0 -75 -42 -123 -129 -123c-57 0 -98 34 -98 90c0 74 42 122 127 122c59 0 100 -34 100 -89zM227 108c0 -75 -42 -123 -129 -123c-57 0 -98 34 -98 90c0 74 42 122 127 122c59 0 100 -34 100 -89z" />
    <glyph glyph-name="semicolon" unicode=";" horiz-adv-x="311" 
d="M80 -167h-133c50 48 105 123 117 155c-43 13 -60 50 -60 87c0 74 44 122 125 122c61 0 102 -34 102 -98c0 -99 -86 -211 -151 -266zM291 441c0 -75 -42 -123 -129 -123c-57 0 -98 34 -98 90c0 74 42 122 127 122c59 0 100 -34 100 -89z" />
    <glyph glyph-name="less" unicode="&#x3c;" horiz-adv-x="695" 
d="M643 1l-591 224v143l591 223v-149l-400 -146l400 -146v-149z" />
    <glyph glyph-name="equal" unicode="=" horiz-adv-x="695" 
d="M643 328h-591v148h591v-148zM643 98h-591v148h591v-148z" />
    <glyph glyph-name="greater" unicode="&#x3e;" horiz-adv-x="695" 
d="M643 225l-591 -224v149l400 146l-400 146v149l591 -223v-143z" />
    <glyph glyph-name="question" unicode="?" horiz-adv-x="583" 
d="M591 570c0 -139 -123 -204 -249 -267l-15 -74h-195l31 153c16 6 60 24 103 47c58 31 116 71 116 110c0 24 -18 38 -51 38c-47 0 -91 -24 -130 -57l-130 100c79 82 171 122 290 122c129 0 230 -56 230 -172zM318 108c0 -75 -42 -123 -129 -123c-57 0 -98 34 -98 90
c0 74 42 122 127 122c59 0 100 -34 100 -89z" />
    <glyph glyph-name="at" unicode="@" horiz-adv-x="1026" 
d="M604 742c217 0 401 -94 401 -360c0 -216 -96 -400 -315 -400c-51 0 -109 6 -127 59c-39 -28 -100 -44 -150 -44c-116 0 -183 71 -183 200c0 198 134 349 310 349c33 0 80 -5 120 -30l61 22h74l-53 -283c-9 -48 -19 -108 -19 -131c0 -24 14 -31 32 -31
c73 0 126 122 126 278c0 200 -116 265 -296 265c-266 0 -427 -192 -427 -428c0 -197 108 -294 316 -294c79 0 157 8 241 28v-109c-93 -22 -164 -26 -250 -26c-270 0 -428 136 -428 383c0 322 206 552 567 552zM599 396c-17 14 -31 21 -58 21c-81 0 -126 -113 -126 -213
c0 -40 14 -79 63 -79c29 0 55 13 76 35z" />
    <glyph glyph-name="A" unicode="A" horiz-adv-x="745" 
d="M680 0h-220l-10 107h-230l-52 -107h-220l373 727h274zM434 287l-18 223l-107 -223h125z" />
    <glyph glyph-name="B" unicode="B" horiz-adv-x="693" 
d="M663 237c0 -170 -155 -237 -328 -237h-338l146 727h309c172 0 236 -63 236 -157c0 -91 -53 -158 -145 -184c79 -20 120 -72 120 -149zM361 451c49 0 98 12 98 62c0 32 -23 44 -71 44h-59l-22 -106h54zM326 170c65 0 113 12 113 67c0 33 -28 49 -82 49h-83l-24 -116h76z
" />
    <glyph glyph-name="C" unicode="C" horiz-adv-x="704" 
d="M752 560l-184 -99c-32 56 -66 80 -121 80c-123 0 -176 -114 -176 -236c0 -74 33 -119 105 -119c58 0 110 28 160 71l114 -168c-84 -71 -188 -104 -312 -104c-195 0 -301 114 -301 290c0 261 141 467 429 467c170 0 246 -93 286 -182z" />
    <glyph glyph-name="D" unicode="D" horiz-adv-x="745" 
d="M738 449c0 -293 -169 -449 -489 -449h-252l146 727h251c231 0 344 -100 344 -278zM290 196c138 0 215 83 215 217c0 81 -37 118 -144 118h-37l-69 -335h35z" />
    <glyph glyph-name="E" unicode="E" horiz-adv-x="614" 
d="M505 0h-508l146 727h509l-37 -182h-289l-18 -91h257l-36 -176h-257l-19 -96h289z" />
    <glyph glyph-name="F" unicode="F" horiz-adv-x="607" 
d="M618 539h-293l-22 -107h261l-37 -184h-261l-50 -248h-219l146 727h513z" />
    <glyph glyph-name="G" unicode="G" horiz-adv-x="753" 
d="M759 574l-203 -94c-14 31 -44 69 -108 69c-137 0 -180 -155 -180 -253c0 -72 31 -126 117 -126c24 0 54 2 79 10l14 74h-92l36 178h307l-78 -384c-70 -34 -193 -63 -296 -63c-221 0 -318 136 -318 294c0 259 149 463 438 463c159 0 245 -75 284 -168z" />
    <glyph glyph-name="H" unicode="H" horiz-adv-x="741" 
d="M627 0h-220l54 267h-191l-54 -267h-219l146 727h220l-53 -261h191l53 261h220z" />
    <glyph glyph-name="I" unicode="I" horiz-adv-x="435" 
d="M343 0h-373l36 178h76l75 371h-77l36 178h374l-36 -178h-77l-75 -371h77z" />
    <glyph glyph-name="J" unicode="J" horiz-adv-x="514" 
d="M451 220c-36 -178 -158 -235 -306 -235c-88 0 -145 19 -183 33l88 181c22 -10 62 -22 101 -22c57 0 80 44 99 138l48 234h-15c-50 0 -95 -22 -128 -41l-75 142c63 42 129 77 258 77h216z" />
    <glyph glyph-name="K" unicode="K" horiz-adv-x="722" 
d="M829 727l-325 -287l169 -440h-247l-101 282l-64 -56l-45 -226h-219l146 727h220l-45 -223l230 223h281z" />
    <glyph glyph-name="L" unicode="L" horiz-adv-x="579" 
d="M498 0h-501l146 727h220l-107 -528h281z" />
    <glyph glyph-name="M" unicode="M" horiz-adv-x="875" 
d="M761 0h-210l80 394l-168 -245h-103l-73 252l-81 -401h-209l146 727h259l65 -256l174 256h267z" />
    <glyph glyph-name="N" unicode="N" horiz-adv-x="762" 
d="M648 0h-227l-143 391l-72 -391h-209l146 727h234l135 -377l73 377h210z" />
    <glyph glyph-name="O" unicode="O" horiz-adv-x="791" 
d="M784 441c0 -252 -144 -456 -424 -456c-214 0 -323 122 -323 302c0 250 144 455 424 455c214 0 323 -122 323 -301zM379 189c108 0 172 100 172 232c0 60 -31 117 -110 117c-107 0 -171 -100 -171 -231c0 -61 31 -118 109 -118z" />
    <glyph glyph-name="P" unicode="P" horiz-adv-x="672" 
d="M686 515c0 -211 -131 -313 -332 -313h-97l-41 -202h-219l146 727h267c193 0 276 -85 276 -212zM355 390c60 0 101 29 101 86c0 36 -16 63 -80 63h-51l-30 -149h60z" />
    <glyph glyph-name="Q" unicode="Q" horiz-adv-x="791" 
d="M784 441c0 -236 -125 -411 -354 -444c-1 -2 -3 -7 -3 -13c0 -19 19 -22 66 -22c41 0 105 13 148 23l22 -154c-67 -19 -181 -31 -235 -31c-104 0 -210 17 -210 114c0 27 4 48 20 87c-133 38 -201 144 -201 286c0 250 144 455 424 455c214 0 323 -122 323 -301zM378 189
c109 0 173 100 173 232c0 60 -31 117 -109 117c-108 0 -172 -100 -172 -231c0 -61 32 -118 108 -118z" />
    <glyph glyph-name="R" unicode="R" horiz-adv-x="697" 
d="M609 0h-224l-7 176c-2 53 -14 77 -71 77h-40l-51 -253h-219l146 727h296c166 0 253 -61 253 -177c0 -106 -59 -176 -168 -210c61 -17 72 -62 75 -129zM354 429c49 0 103 14 103 71c0 28 -17 45 -60 45h-71l-23 -116h51z" />
    <glyph glyph-name="S" unicode="S" horiz-adv-x="670" 
d="M643 231c0 -172 -150 -246 -334 -246c-139 0 -253 39 -329 157l186 109c42 -67 107 -91 171 -91c33 0 75 11 75 46c0 84 -343 61 -343 306c0 155 135 230 315 230c130 0 240 -36 308 -143l-180 -99c-40 51 -93 71 -145 71c-41 0 -68 -16 -68 -46c0 -73 344 -64 344 -294z
" />
    <glyph glyph-name="T" unicode="T" horiz-adv-x="657" 
d="M687 527h-198l-107 -527h-220l107 527h-204l40 200h622z" />
    <glyph glyph-name="U" unicode="U" horiz-adv-x="726" 
d="M675 290c-43 -212 -135 -305 -360 -305c-197 0 -274 73 -274 209c0 32 5 71 13 110l86 423h220l-79 -386c-5 -26 -12 -65 -12 -86c0 -42 21 -62 74 -62c69 0 98 30 118 128l83 406h220z" />
    <glyph glyph-name="V" unicode="V" horiz-adv-x="724" 
d="M806 727l-402 -727h-207l-103 727h226l40 -407l208 407h238z" />
    <glyph glyph-name="W" unicode="W" horiz-adv-x="968" 
d="M1046 727l-313 -727h-188l-55 298l-176 -298h-198l-18 727h213v-386l159 267h148l57 -255l153 374h218z" />
    <glyph glyph-name="X" unicode="X" horiz-adv-x="709" 
d="M654 0h-230l-75 190l-140 -190h-260l296 361l-149 366h231l68 -183l136 183h258l-292 -356z" />
    <glyph glyph-name="Y" unicode="Y" horiz-adv-x="682" 
d="M772 727l-321 -424l-61 -303h-220l59 290l-146 437h227l61 -221l159 221h242z" />
    <glyph glyph-name="Z" unicode="Z" horiz-adv-x="691" 
d="M592 0h-610l30 148l370 381h-277l40 198h584l-29 -143l-377 -386h309z" />
    <glyph glyph-name="bracketleft" unicode="[" horiz-adv-x="376" 
d="M267 -193h-305l186 920h306l-28 -138h-124l-131 -644h124z" />
    <glyph glyph-name="backslash" unicode="\" horiz-adv-x="538" 
d="M450 -146h-160l-165 888h160z" />
    <glyph glyph-name="bracketright" unicode="]" horiz-adv-x="376" 
d="M227 -193h-305l28 138h123l131 644h-124l28 138h306z" />
    <glyph glyph-name="asciicircum" unicode="^" horiz-adv-x="605" 
d="M610 341h-171l-126 207l-128 -207h-170l236 386h123z" />
    <glyph glyph-name="underscore" unicode="_" horiz-adv-x="500" 
d="M456 -125h-512v50h512v-50z" />
    <glyph glyph-name="quoteleft" unicode="&#x2018;" horiz-adv-x="305" 
d="M231 742h133c-50 -48 -105 -123 -117 -155c43 -13 60 -50 60 -87c0 -74 -44 -122 -125 -122c-61 0 -102 34 -102 98c0 99 86 211 151 266z" />
    <glyph glyph-name="a" unicode="a" horiz-adv-x="629" 
d="M519 0h-177l-2 39c-43 -37 -88 -54 -147 -54c-113 0 -173 87 -173 206c0 196 109 359 300 359c58 0 90 -9 127 -25l88 16h92zM359 206l33 159c-16 8 -37 15 -58 15c-65 0 -99 -64 -99 -145c0 -47 14 -70 50 -70c22 0 47 14 74 41z" />
    <glyph glyph-name="b" unicode="b" horiz-adv-x="628" 
d="M608 342c0 -202 -101 -357 -294 -357c-45 0 -89 10 -125 26l-86 -18h-103l148 734h202l-45 -217c30 20 69 40 130 40c106 0 173 -74 173 -208zM298 160c65 0 96 68 96 148c0 49 -23 67 -52 67c-22 0 -48 -11 -70 -31l-33 -163c17 -12 38 -21 59 -21z" />
    <glyph glyph-name="c" unicode="c" horiz-adv-x="531" 
d="M560 426l-153 -95c-24 33 -46 44 -78 44c-66 0 -97 -79 -97 -140c0 -42 15 -71 64 -71c27 0 62 16 95 36l76 -156c-60 -37 -132 -59 -207 -59c-158 0 -240 80 -240 220c0 192 107 345 320 345c104 0 175 -37 220 -124z" />
    <glyph glyph-name="d" unicode="d" horiz-adv-x="635" 
d="M519 0h-177l-2 39c-43 -37 -88 -54 -147 -54c-113 0 -173 86 -173 199c0 184 97 366 295 366c50 0 84 -15 108 -28l42 205h202zM359 206l33 159c-13 8 -34 15 -62 15c-65 0 -95 -74 -95 -144c0 -49 15 -71 51 -71c22 0 51 18 73 41z" />
    <glyph glyph-name="e" unicode="e" horiz-adv-x="589" 
d="M586 395c0 -145 -138 -197 -363 -197c0 -41 16 -62 74 -62c42 0 86 14 130 40l61 -133c-83 -46 -158 -58 -235 -58c-160 0 -233 87 -233 220c0 195 117 345 350 345c157 0 216 -76 216 -155zM241 317c94 0 147 17 147 57c0 25 -17 36 -44 36c-40 0 -84 -23 -103 -93z" />
    <glyph glyph-name="f" unicode="f" horiz-adv-x="392" 
d="M28 -1l75 368h-68l33 163h68l2 12c20 122 57 200 248 200c40 0 101 -10 126 -18l-56 -147c-10 3 -38 14 -65 14c-30 0 -44 -14 -49 -41l-4 -20h97l-33 -163h-97l-73 -360c-23 -116 -57 -200 -248 -200c-40 0 -101 10 -126 18l56 147c10 -3 38 -14 65 -14
c30 0 44 14 49 41z" />
    <glyph glyph-name="g" unicode="g" horiz-adv-x="641" 
d="M671 532l-33 -161c-11 4 -20 6 -27 6c-15 0 -22 -7 -27 -33l-66 -329c-22 -112 -107 -208 -307 -208c-101 0 -175 17 -227 36l68 145c41 -20 101 -41 161 -41c62 0 95 24 104 71l4 22c-49 -24 -85 -33 -129 -33c-104 0 -172 57 -172 195c0 207 122 348 281 348
c60 0 103 -19 131 -43c24 33 70 41 131 41c36 0 80 -8 108 -16zM357 221l28 133c-16 14 -38 21 -58 21c-66 0 -92 -69 -92 -128c0 -44 17 -64 50 -64c22 0 46 15 72 38z" />
    <glyph glyph-name="h" unicode="h" horiz-adv-x="613" 
d="M515 0h-202l57 276c2 10 9 42 9 53c0 21 -9 32 -33 32c-22 0 -50 -12 -78 -33l-67 -328h-201l146 727h202l-47 -231c39 28 89 54 155 54c90 0 138 -56 138 -130c0 -28 -5 -60 -12 -96z" />
    <glyph glyph-name="i" unicode="i" horiz-adv-x="347" 
d="M242 0h-202l59 279c7 31 16 74 16 83c0 8 -2 13 -10 13s-22 -9 -36 -20l-57 116c68 41 149 74 213 74c76 0 104 -37 104 -94c0 -17 -5 -51 -10 -76zM372 674c0 -74 -51 -101 -131 -101c-62 0 -105 22 -105 74c0 74 51 101 131 101c62 0 105 -21 105 -74z" />
    <glyph glyph-name="j" unicode="j" horiz-adv-x="347" 
d="M48 35l51 244c7 31 16 74 16 83c0 8 -2 13 -10 13s-22 -9 -36 -20l-57 116c68 41 147 74 211 74c79 0 106 -37 106 -94c0 -17 -4 -51 -9 -76l-78 -378c-27 -129 -110 -190 -242 -190c-61 0 -109 8 -137 16l70 166c19 -7 44 -9 61 -9c31 0 45 12 54 55zM367 674
c0 -74 -51 -101 -131 -101c-62 0 -105 22 -105 74c0 74 51 101 131 101c62 0 105 -21 105 -74z" />
    <glyph glyph-name="k" unicode="k" horiz-adv-x="598" 
d="M414 319l51 -123c11 -26 21 -39 38 -39c8 0 14 1 23 4l24 -155c-35 -15 -76 -21 -112 -21c-87 0 -120 34 -143 95l-34 92l-32 -32l-28 -140h-201l146 727h202l-70 -333l124 141h236z" />
    <glyph glyph-name="l" unicode="l" horiz-adv-x="372" 
d="M324 13c-62 -23 -125 -28 -164 -28c-92 0 -140 36 -140 113c0 24 8 77 14 109l94 464l222 97l-110 -541c-5 -22 -7 -37 -7 -43c0 -16 7 -27 25 -27c11 0 28 3 46 9z" />
    <glyph glyph-name="m" unicode="m" horiz-adv-x="891" 
d="M790 0h-202l63 310c2 12 4 21 4 29c0 18 -8 25 -24 25c-17 0 -44 -11 -69 -29l-69 -335h-202l63 310c2 12 4 21 4 29c0 18 -8 25 -24 25s-42 -10 -69 -28l-69 -336h-201l107 535h187l-9 -46c60 43 112 61 173 61c60 0 96 -22 115 -67c54 45 109 67 168 67
c79 0 135 -41 135 -117c0 -21 -3 -44 -8 -71z" />
    <glyph glyph-name="n" unicode="n" horiz-adv-x="611" 
d="M510 0h-202l63 309c2 10 3 18 3 25c0 22 -12 29 -31 29c-22 0 -54 -15 -77 -29l-70 -334h-201l107 535h187l-9 -46c53 37 108 61 173 61c79 0 138 -37 138 -120c0 -19 -4 -50 -9 -74z" />
    <glyph glyph-name="o" unicode="o" horiz-adv-x="614" 
d="M594 328c0 -185 -111 -343 -331 -343c-176 0 -243 115 -243 216c0 194 113 349 331 349c176 0 243 -112 243 -222zM285 163c67 0 97 70 97 148c0 38 -19 61 -53 61c-69 0 -97 -74 -97 -146c0 -40 19 -63 53 -63z" />
    <glyph glyph-name="p" unicode="p" horiz-adv-x="622" 
d="M602 348c0 -213 -94 -363 -286 -363c-49 0 -87 17 -117 30l-42 -208h-201l147 728h166l13 -41c40 36 86 56 147 56c108 0 173 -77 173 -202zM292 160c67 0 96 64 96 149c0 45 -18 66 -54 66c-22 0 -45 -11 -67 -31l-34 -163c15 -11 38 -21 59 -21z" />
    <glyph glyph-name="q" unicode="q" horiz-adv-x="629" 
d="M480 -193h-202l44 218c-36 -26 -79 -40 -129 -40c-124 0 -173 97 -173 198c0 188 93 367 300 367c65 0 103 -14 127 -25l88 19h94zM359 206l33 159c-17 10 -39 15 -60 15c-70 0 -97 -77 -97 -146c0 -51 17 -69 51 -69c22 0 50 17 73 41z" />
    <glyph glyph-name="r" unicode="r" horiz-adv-x="455" 
d="M485 537l-64 -212c-14 4 -29 7 -52 7c-51 0 -88 -20 -113 -37l-60 -295h-201l108 535h187l-16 -78c36 42 93 86 162 86c17 0 37 -2 49 -6z" />
    <glyph glyph-name="s" unicode="s" horiz-adv-x="533" 
d="M492 177c0 -137 -125 -192 -261 -192c-98 0 -206 37 -260 109l151 95c33 -44 75 -67 123 -67c25 0 40 11 40 27c0 22 -44 30 -94 52c-102 45 -143 96 -143 161c0 128 109 188 249 188c96 0 196 -31 245 -106l-154 -86c-25 41 -64 54 -97 54c-24 0 -40 -9 -40 -25
c0 -15 11 -25 107 -57c81 -27 134 -77 134 -153z" />
    <glyph glyph-name="t" unicode="t" horiz-adv-x="432" 
d="M360 5c-36 -11 -108 -20 -149 -20c-111 0 -163 42 -163 121c0 20 4 52 9 76l37 185h-74l34 168h74l28 137l216 69l-42 -206h112l-34 -168h-112l-26 -131c-4 -20 -7 -36 -7 -45c0 -24 12 -28 39 -28c13 0 35 4 50 9z" />
    <glyph glyph-name="u" unicode="u" horiz-adv-x="615" 
d="M100 535h202l-58 -282c-3 -15 -8 -41 -8 -51c0 -24 12 -31 35 -31c19 0 51 12 74 31l69 333h201l-107 -535h-187l10 50c-68 -47 -123 -65 -173 -65c-91 0 -135 48 -135 132c0 21 6 63 11 88z" />
    <glyph glyph-name="v" unicode="v" horiz-adv-x="559" 
d="M609 535l-314 -535h-165l-95 535h200l28 -258l134 258h212z" />
    <glyph glyph-name="w" unicode="w" horiz-adv-x="783" 
d="M833 535l-271 -535h-144l-59 184l-132 -184h-137l-55 535h189l17 -268l109 171h110l50 -179l124 276h199z" />
    <glyph glyph-name="x" unicode="x" horiz-adv-x="548" 
d="M503 0h-209l-44 117l-87 -117h-223l227 265l-120 270h209l45 -121l91 121h216l-226 -267z" />
    <glyph glyph-name="y" unicode="y" horiz-adv-x="594" 
d="M644 535l-331 -579c-63 -110 -144 -149 -278 -149c-34 0 -103 3 -145 12l67 166c34 -10 70 -15 109 -15c34 0 64 8 76 32l6 12l-96 521h204l34 -280l147 280h207z" />
    <glyph glyph-name="z" unicode="z" horiz-adv-x="520" 
d="M435 0h-455l25 129l231 238h-176l34 168h446l-25 -127l-233 -240h187z" />
    <glyph glyph-name="braceleft" unicode="{" horiz-adv-x="481" 
d="M367 -193h-86c-133 0 -205 41 -205 146c0 67 30 130 30 199c0 38 -17 54 -70 54h-32l28 138h32c76 0 91 32 109 116l15 71c32 153 126 211 284 211h86l-28 -138h-70c-54 0 -81 -21 -91 -74l-16 -83c-15 -78 -50 -134 -117 -173c41 -34 51 -70 51 -121
c0 -56 -25 -117 -25 -168c0 -30 19 -40 63 -40h70z" />
    <glyph glyph-name="bar" unicode="|" horiz-adv-x="356" 
d="M256 -250h-156v1000h156v-1000z" />
    <glyph glyph-name="braceright" unicode="}" horiz-adv-x="481" 
d="M449 206h-32c-76 0 -93 -34 -110 -116l-15 -72c-32 -153 -126 -211 -284 -211h-85l28 138h69c55 0 81 22 91 74l16 83c15 76 58 135 116 172c-33 29 -51 69 -51 120c0 42 25 119 25 164c0 33 -19 46 -62 46h-70l28 138h86c134 0 205 -41 205 -147
c0 -56 -30 -138 -30 -197c0 -39 18 -54 71 -54h32z" />
    <glyph glyph-name="asciitilde" unicode="~" horiz-adv-x="676" 
d="M641 260c-23 -18 -30 -22 -39 -29c-40 -29 -89 -55 -143 -55c-74 0 -131 40 -196 67c-17 7 -31 10 -42 10c-58 0 -129 -44 -186 -92l1 167c86 71 145 85 187 85c71 0 128 -42 191 -67c17 -7 32 -10 44 -10c70 0 117 34 183 91v-167z" />
    <glyph glyph-name="exclamdown" unicode="&#xa1;" horiz-adv-x="351" 
d="M-25 -193l129 498h166l-72 -498h-223zM101 426c0 75 42 123 129 123c57 0 98 -34 98 -90c0 -74 -42 -122 -127 -122c-59 0 -100 34 -100 89z" />
    <glyph glyph-name="cent" unicode="&#xa2;" horiz-adv-x="531" 
d="M560 453l-153 -95c-24 33 -46 44 -78 44c-66 0 -97 -79 -97 -140c0 -42 15 -71 64 -71c27 0 62 16 95 36l76 -156c-60 -37 -132 -59 -207 -59c-20 0 -37 2 -57 4l-86 -182h-122l105 220c-53 37 -80 97 -80 178c0 192 107 345 320 345h10l79 165h122l-91 -189
c42 -19 75 -52 100 -100z" />
    <glyph glyph-name="sterling" unicode="&#xa3;" horiz-adv-x="695" 
d="M702 593l-169 -98c-24 48 -52 81 -112 81c-52 0 -91 -30 -91 -93c0 -22 5 -44 8 -65h183l-30 -149h-161c-11 -48 -33 -75 -69 -103h362l-34 -166h-616l32 157c78 15 110 65 120 112h-85l30 149h56c-2 10 -4 40 -4 56c0 185 119 268 308 268c113 0 214 -33 272 -149z" />
    <glyph glyph-name="fraction" unicode="&#x2044;" horiz-adv-x="150" 
d="M438 727l-573 -878h-157l573 878h157z" />
    <glyph glyph-name="yen" unicode="&#xa5;" horiz-adv-x="680" 
d="M747 727l-225 -298h142l-23 -113h-201l-12 -58h201l-23 -113h-201l-29 -145h-220l29 145h-201l22 113h202l11 52l-2 6h-199l23 113h138l-100 298h241l54 -211l145 211h228z" />
    <glyph glyph-name="florin" unicode="&#x192;" horiz-adv-x="643" 
d="M633 725l-47 -160c-39 12 -74 16 -100 16s-34 -17 -39 -41l-4 -19h107l-33 -151h-107l-79 -366c-23 -107 -61 -197 -229 -197c-41 0 -117 7 -163 19l51 161c38 -14 68 -19 100 -19c28 0 35 15 46 68l71 334h-77l33 151h78l5 25c25 114 66 196 223 196
c53 0 110 -6 164 -17z" />
    <glyph glyph-name="section" unicode="&#xa7;" horiz-adv-x="539" 
d="M519 302c0 -95 -58 -152 -127 -199c16 -23 26 -52 26 -92c0 -126 -110 -204 -242 -204c-76 0 -183 15 -253 110l142 102c44 -53 87 -61 111 -61c25 0 44 12 44 33c0 55 -231 72 -231 247c0 83 46 147 130 206c-18 26 -29 58 -29 102c0 126 107 196 239 196
c76 0 186 -15 256 -110l-142 -102c-44 53 -87 61 -111 61c-25 0 -44 -12 -44 -33c0 -55 231 -69 231 -256zM320 262c0 38 -33 55 -91 92c-22 -17 -41 -43 -41 -67c0 -38 32 -56 91 -93c21 18 41 43 41 68z" />
    <glyph glyph-name="currency" unicode="&#xa4;" horiz-adv-x="614" 
d="M589 178l-91 -91l-91 89c-32 -16 -63 -21 -95 -21c-31 0 -64 6 -94 22l-92 -90l-91 91l91 93c-15 30 -23 62 -23 93s6 63 22 94l-90 92l91 91l90 -88c31 16 65 23 96 23s64 -6 96 -22l90 87l91 -91l-87 -90c16 -32 22 -65 22 -96c0 -33 -8 -64 -24 -95zM385 366
c0 39 -32 71 -71 71c-40 0 -72 -32 -72 -71c0 -40 32 -72 71 -72c40 0 72 32 72 72z" />
    <glyph glyph-name="quotesingle" unicode="'" horiz-adv-x="302" 
d="M309 742l-85 -269h-114l25 269h174z" />
    <glyph glyph-name="quotedblleft" unicode="&#x201c;" horiz-adv-x="572" 
d="M231 742h133c-50 -48 -105 -123 -117 -155c43 -13 60 -50 60 -87c0 -74 -44 -122 -125 -122c-61 0 -102 34 -102 98c0 99 86 211 151 266zM499 742h133c-50 -48 -105 -123 -117 -155c43 -13 60 -50 60 -87c0 -74 -44 -122 -125 -122c-61 0 -102 34 -102 98
c0 99 86 211 151 266z" />
    <glyph glyph-name="guillemotleft" unicode="&#xab;" horiz-adv-x="747" 
d="M679 31h-204l-137 240l215 234h230l-235 -244zM357 31h-204l-137 240l215 234h230l-235 -244z" />
    <glyph glyph-name="guilsinglleft" unicode="&#x2039;" horiz-adv-x="425" 
d="M357 31h-204l-137 240l215 234h230l-235 -244z" />
    <glyph glyph-name="guilsinglright" unicode="&#x203a;" horiz-adv-x="425" 
d="M68 505h204l137 -240l-215 -234h-230l235 244z" />
    <glyph glyph-name="endash" unicode="&#x2013;" horiz-adv-x="500" 
d="M490 194h-511l30 148h512z" />
    <glyph glyph-name="dagger" unicode="&#x2020;" horiz-adv-x="583" 
d="M572 371l-181 11l-102 -575h-189l133 575l-184 -11l33 160l178 -12l34 223h183l-58 -223l186 12z" />
    <glyph glyph-name="daggerdbl" unicode="&#x2021;" horiz-adv-x="566" 
d="M483 18l-172 12l-34 -223h-181l58 223l-176 -12l32 161l172 -12l14 107l29 107l-176 -12l32 161l172 -12l34 224h181l-58 -224l177 12l-32 -161l-173 12l-15 -107l-28 -107l177 12z" />
    <glyph glyph-name="periodcentered" unicode="&#xb7;" horiz-adv-x="311" 
d="M270 305c0 -75 -42 -123 -129 -123c-57 0 -98 34 -98 90c0 74 42 122 127 122c59 0 100 -34 100 -89z" />
    <glyph glyph-name="paragraph" unicode="&#xb6;" horiz-adv-x="671" 
d="M717 593h-57l-160 -786h-156l160 786h-52l-160 -786h-156l96 471c-118 13 -172 86 -172 184c0 168 108 265 308 265h376z" />
    <glyph glyph-name="bullet" unicode="&#x2022;" horiz-adv-x="428" 
d="M384 365c0 -94 -76 -170 -170 -170s-170 76 -170 170s76 170 170 170s170 -76 170 -170z" />
    <glyph glyph-name="quotesinglbase" unicode="&#x201a;" horiz-adv-x="311" 
d="M73 -167h-133c50 48 105 123 117 155c-43 13 -60 50 -60 87c0 74 44 122 125 122c61 0 102 -34 102 -98c0 -99 -86 -211 -151 -266z" />
    <glyph glyph-name="quotedblbase" unicode="&#x201e;" horiz-adv-x="578" 
d="M341 -167h-133c50 48 105 123 117 155c-43 13 -60 50 -60 87c0 74 44 122 125 122c61 0 102 -34 102 -98c0 -99 -86 -211 -151 -266zM73 -167h-133c50 48 105 123 117 155c-43 13 -60 50 -60 87c0 74 44 122 125 122c61 0 102 -34 102 -98c0 -99 -86 -211 -151 -266z" />
    <glyph glyph-name="quotedblright" unicode="&#x201d;" horiz-adv-x="572" 
d="M449 378h-133c50 48 105 123 117 155c-43 13 -60 50 -60 87c0 74 44 122 125 122c61 0 102 -34 102 -98c0 -99 -86 -211 -151 -266zM181 378h-133c50 48 105 123 117 155c-43 13 -60 50 -60 87c0 74 44 122 125 122c61 0 102 -34 102 -98c0 -99 -86 -211 -151 -266z" />
    <glyph glyph-name="guillemotright" unicode="&#xbb;" horiz-adv-x="747" 
d="M68 505h204l137 -240l-215 -234h-230l235 244zM390 505h204l137 -240l-215 -234h-230l235 244z" />
    <glyph glyph-name="ellipsis" unicode="&#x2026;" horiz-adv-x="1000" 
d="M910 108c0 -75 -42 -123 -129 -123c-57 0 -98 34 -98 90c0 74 42 122 127 122c59 0 100 -34 100 -89zM573 108c0 -75 -42 -123 -129 -123c-57 0 -98 34 -98 90c0 74 42 122 127 122c59 0 100 -34 100 -89zM241 108c0 -75 -42 -123 -129 -123c-57 0 -98 34 -98 90
c0 74 42 122 127 122c59 0 100 -34 100 -89z" />
    <glyph glyph-name="perthousand" unicode="&#x2030;" horiz-adv-x="1606" 
d="M919 727l-574 -878h-152l574 878h152zM1543 125c0 -156 -87 -291 -266 -291c-127 0 -198 61 -198 162c0 162 87 294 265 294c140 0 199 -70 199 -165zM1293 -30c63 0 82 69 82 133c0 29 -13 51 -47 51c-61 0 -81 -70 -81 -132c0 -31 13 -52 46 -52zM526 577
c0 -156 -87 -291 -266 -291c-127 0 -198 61 -198 162c0 162 87 294 265 294c140 0 199 -70 199 -165zM276 422c63 0 82 69 82 133c0 29 -13 51 -47 51c-61 0 -81 -70 -81 -132c0 -31 13 -52 46 -52zM1050 125c0 -156 -87 -291 -266 -291c-127 0 -198 61 -198 162
c0 162 87 294 265 294c140 0 199 -70 199 -165zM800 -30c63 0 82 69 82 133c0 29 -13 51 -47 51c-61 0 -81 -70 -81 -132c0 -31 13 -52 46 -52z" />
    <glyph glyph-name="questiondown" unicode="&#xbf;" horiz-adv-x="583" 
d="M-9 -21c0 139 123 204 249 267l15 74h195l-31 -153c-16 -6 -60 -24 -103 -47c-58 -31 -116 -71 -116 -110c0 -24 18 -38 51 -38c47 0 91 24 130 57l130 -100c-79 -82 -171 -122 -290 -122c-129 0 -230 56 -230 172zM264 441c0 75 42 123 129 123c57 0 98 -34 98 -90
c0 -74 -42 -122 -127 -122c-59 0 -100 34 -100 89z" />
    <glyph glyph-name="grave" unicode="`" horiz-adv-x="500" 
d="M351 590h-131l-136 176h180z" />
    <glyph glyph-name="acute" unicode="&#xb4;" horiz-adv-x="500" 
d="M445 766l-193 -176h-145l144 176h194z" />
    <glyph glyph-name="circumflex" unicode="&#x2c6;" horiz-adv-x="500" 
d="M452 590h-147l-55 84l-70 -84h-161l177 176h141z" />
    <glyph glyph-name="tilde" unicode="&#x2dc;" horiz-adv-x="500" 
d="M476 753c-24 -84 -72 -150 -172 -150c-35 0 -60 7 -80 15c-13 5 -32 15 -47 15c-18 0 -31 -8 -38 -30h-115c22 82 73 150 169 150c43 0 72 -13 108 -26c9 -3 15 -4 20 -4c21 0 34 9 39 30h116z" />
    <glyph glyph-name="macron" unicode="&#xaf;" horiz-adv-x="500" 
d="M415 615h-355l25 125h355z" />
    <glyph glyph-name="breve" unicode="&#x2d8;" horiz-adv-x="500" 
d="M481 750c-32 -71 -86 -144 -236 -144c-142 0 -190 72 -198 144h133c9 -23 31 -40 75 -40c45 0 74 17 93 40h133z" />
    <glyph glyph-name="dotaccent" unicode="&#x2d9;" horiz-adv-x="500" 
d="M341 690c0 -57 -34 -97 -102 -97c-49 0 -80 30 -80 70c0 57 34 97 102 97c53 0 80 -30 80 -70z" />
    <glyph glyph-name="dieresis" unicode="&#xa8;" horiz-adv-x="500" 
d="M461 672c0 -57 -34 -97 -102 -97c-49 0 -80 30 -80 70c0 57 34 97 102 97c53 0 80 -30 80 -70zM220 672c0 -57 -34 -97 -102 -97c-49 0 -80 30 -80 70c0 57 34 97 102 97c53 0 80 -30 80 -70z" />
    <glyph glyph-name="ring" unicode="&#x2da;" horiz-adv-x="500" 
d="M376 702c0 -76 -57 -127 -142 -127c-79 0 -109 46 -109 93c0 79 59 127 143 127c76 0 108 -46 108 -93zM244 653c23 0 45 11 45 37c0 15 -11 27 -34 27c-26 0 -43 -14 -43 -38c0 -13 9 -26 32 -26z" />
    <glyph glyph-name="cedilla" unicode="&#xb8;" horiz-adv-x="500" 
d="M372 -84c0 -85 -92 -109 -167 -109c-53 0 -113 12 -150 30l48 81c30 -14 60 -26 102 -26c12 0 31 3 31 18c0 13 -15 20 -70 22l65 77h109l-22 -27c35 -9 54 -31 54 -66z" />
    <glyph glyph-name="hungarumlaut" unicode="&#x2dd;" horiz-adv-x="500" 
d="M531 766l-197 -176h-137l148 176h186zM310 766l-197 -176h-136l147 176h186z" />
    <glyph glyph-name="ogonek" unicode="&#x2db;" horiz-adv-x="500" 
d="M408 -153c-58 -30 -111 -40 -165 -40c-80 0 -118 37 -118 87s30 95 63 137h126c-25 -37 -45 -68 -45 -100c0 -15 9 -23 28 -23c26 0 53 9 89 28z" />
    <glyph glyph-name="caron" unicode="&#x2c7;" horiz-adv-x="500" 
d="M490 766l-187 -176h-141l-118 176h150l56 -75l88 75h152z" />
    <glyph glyph-name="emdash" unicode="&#x2014;" horiz-adv-x="1000" 
d="M990 194h-1011l30 148h1012z" />
    <glyph glyph-name="AE" unicode="&#xc6;" horiz-adv-x="994" 
d="M885 0h-509l21 107h-178l-57 -107h-214l401 727h683l-37 -182h-289l-18 -91h257l-36 -176h-257l-19 -96h289zM434 287l52 258h-29l-138 -258h115z" />
    <glyph glyph-name="ordfeminine" unicode="&#xaa;" horiz-adv-x="377" 
d="M447 737l-70 -347h-106v29c-23 -24 -57 -38 -95 -38c-79 0 -129 54 -129 140c0 123 79 221 201 221c26 0 56 -4 82 -14l59 9h58zM296 630c-13 7 -22 10 -40 10c-53 0 -74 -61 -74 -106c0 -34 14 -49 36 -49c21 0 37 8 52 23z" />
    <glyph glyph-name="Lslash" unicode="&#x141;" horiz-adv-x="579" 
d="M483 0h-501l43 214l-68 -41l26 168l77 46l68 340h220l-39 -189l152 92l-26 -168l-161 -97l-33 -166h281z" />
    <glyph glyph-name="Oslash" unicode="&#xd8;" horiz-adv-x="791" 
d="M784 441c0 -252 -144 -456 -424 -456c-72 0 -132 14 -180 39l-75 -80h-162l147 157c-35 49 -53 113 -53 186c0 250 144 455 424 455c77 0 141 -16 191 -45l63 67h162l-140 -148c31 -48 47 -108 47 -175zM270 307v-15l223 236c-14 6 -31 10 -50 10
c-110 0 -173 -100 -173 -231zM377 189c113 0 173 102 174 229l-211 -224c11 -4 23 -5 37 -5z" />
    <glyph glyph-name="OE" unicode="&#x152;" horiz-adv-x="1013" 
d="M904 0h-430c-40 -10 -77 -15 -125 -15c-207 0 -312 130 -312 294c0 266 149 463 440 463c48 0 93 -7 125 -15h449l-37 -182h-289l-18 -91h257l-36 -176h-257l-19 -96h289zM435 198l67 331c-17 6 -32 9 -57 9c-129 0 -176 -122 -176 -230c0 -75 37 -119 105 -119
c22 0 43 3 61 9z" />
    <glyph glyph-name="ordmasculine" unicode="&#xba;" horiz-adv-x="401" 
d="M432 603c0 -121 -69 -222 -212 -222c-116 0 -157 69 -157 140c0 130 75 221 215 221c112 0 154 -67 154 -139zM233 483c48 0 66 72 66 117c0 32 -18 41 -36 41c-47 0 -66 -66 -66 -113c0 -35 17 -45 36 -45z" />
    <glyph glyph-name="ae" unicode="&#xe6;" horiz-adv-x="924" 
d="M457 -8h-106l-3 57c-47 -44 -96 -64 -155 -64c-113 0 -173 87 -173 206c0 196 109 359 300 359c58 0 90 -9 127 -25l54 25h66l-10 -52c41 33 105 52 158 52c142 0 206 -76 206 -155c0 -145 -138 -197 -363 -197c0 -41 16 -62 74 -62c42 0 86 14 130 40l61 -133
c-83 -46 -161 -58 -225 -58c-51 0 -105 18 -133 51zM359 206l33 159c-16 8 -37 15 -58 15c-65 0 -99 -64 -99 -145c0 -47 14 -70 50 -70c22 0 47 14 74 41zM576 317c94 0 147 17 147 57c0 25 -17 36 -44 36c-40 0 -84 -23 -103 -93z" />
    <glyph glyph-name="dotlessi" unicode="&#x131;" horiz-adv-x="347" 
d="M242 0h-202l59 279c7 31 16 74 16 83c0 8 -2 13 -10 13s-22 -9 -36 -20l-57 114c67 42 142 76 206 76c79 0 111 -37 111 -94c0 -17 -5 -51 -10 -76z" />
    <glyph glyph-name="lslash" unicode="&#x142;" horiz-adv-x="372" 
d="M324 13c-62 -23 -125 -28 -164 -28c-92 0 -140 36 -140 113c0 24 8 77 14 109l6 32l-80 -48l33 162l80 48l55 270l222 97l-46 -228l72 44l-33 -162l-72 -44l-31 -151c-5 -22 -7 -37 -7 -43c0 -16 7 -27 25 -27c11 0 28 3 46 9z" />
    <glyph glyph-name="oslash" unicode="&#xf8;" horiz-adv-x="614" 
d="M-42 -37l105 107c-29 37 -43 85 -43 131c0 194 113 349 331 349c62 0 109 -14 144 -35l41 43h110l-93 -96c28 -38 41 -86 41 -134c0 -185 -111 -343 -331 -343c-61 0 -105 14 -141 34l-54 -56h-110zM330 379c-70 0 -101 -70 -103 -144l133 136c-9 5 -19 8 -30 8zM285 156
c66 0 98 63 102 140l-131 -134c8 -4 18 -6 29 -6z" />
    <glyph glyph-name="oe" unicode="&#x153;" horiz-adv-x="936" 
d="M933 395c0 -145 -138 -197 -368 -197c0 -41 17 -62 79 -62c42 0 86 14 130 40l61 -133c-83 -46 -161 -58 -225 -58c-79 0 -123 17 -167 60c-50 -41 -117 -60 -190 -60c-161 0 -233 115 -233 216c0 194 116 349 321 349c76 0 133 -24 174 -65c64 48 124 65 212 65
c144 0 206 -76 206 -155zM285 163c67 0 97 70 97 148c0 38 -19 61 -53 61c-69 0 -97 -74 -97 -146c0 -40 19 -63 53 -63zM588 317c94 0 147 17 147 57c0 25 -17 36 -44 36c-40 0 -84 -23 -103 -93z" />
    <glyph glyph-name="germandbls" unicode="&#xdf;" horiz-adv-x="669" 
d="M28 -1l99 490c28 139 99 253 313 253c127 0 214 -49 214 -144c0 -74 -33 -135 -109 -170c68 -32 93 -93 93 -161c0 -150 -91 -282 -271 -282c-28 0 -75 5 -97 15l30 148c11 -6 33 -12 53 -12c52 0 78 66 78 138c0 46 -24 74 -91 74l26 127c45 0 75 31 75 81
c0 22 -14 39 -38 39c-40 0 -58 -26 -71 -92l-100 -496c-21 -106 -57 -200 -248 -200c-40 0 -101 10 -126 18l56 147c10 -3 38 -14 65 -14c30 0 44 14 49 41z" />
    <glyph glyph-name="logicalnot" unicode="&#xac;" horiz-adv-x="695" 
d="M643 98h-148v230h-443v148h591v-378z" />
    <glyph glyph-name="mu" unicode="&#xb5;" horiz-adv-x="616" 
d="M507 0h-187l8 43c-27 -41 -53 -58 -85 -58c-22 0 -39 11 -49 23l-41 -201h-201l148 728h202l-70 -344c8 -12 21 -17 36 -17c27 0 60 16 79 36l67 325h202z" />
    <glyph glyph-name="trademark" unicode="&#x2122;" horiz-adv-x="823" 
d="M845 362h-117v160l-40 -82h-57l-43 79v-157h-117v365h126l62 -120l55 120h131v-365zM414 625h-111v-263h-122v263h-111v102h344v-102z" />
    <glyph glyph-name="Eth" unicode="&#xd0;" horiz-adv-x="745" 
d="M723 449c0 -293 -169 -449 -489 -449h-252l59 295h-54l27 138h55l59 294h251c231 0 344 -100 344 -278zM275 196c138 0 215 83 215 217c0 81 -37 118 -144 118h-37l-20 -98h111l-28 -138h-112l-20 -99h35z" />
    <glyph glyph-name="onehalf" unicode="&#xbd;" horiz-adv-x="1113" 
d="M391 296h-336l26 127h95l26 129c-32 -10 -65 -18 -111 -24l26 124c74 17 127 44 167 90h115l-65 -319h83zM993 -152h-423l20 104c73 39 94 49 145 80c80 49 127 80 127 112c0 13 -8 23 -31 23c-30 0 -63 -15 -120 -54l-76 97c57 47 137 84 239 84c93 0 169 -36 169 -122
c0 -95 -79 -147 -188 -203h163zM904 727l-573 -878h-157l573 878h157z" />
    <glyph glyph-name="plusminus" unicode="&#xb1;" horiz-adv-x="695" 
d="M643 377h-221v-181h-148v181h-222v148h222v202h148v-202h221v-148zM643 0h-591v148h591v-148z" />
    <glyph glyph-name="Thorn" unicode="&#xde;" horiz-adv-x="672" 
d="M666 416c0 -206 -148 -314 -356 -314h-73l-21 -102h-219l146 727h220l-20 -100h47c193 0 276 -91 276 -211zM335 290c60 0 101 29 101 86c0 36 -16 63 -80 63h-51l-30 -149h60z" />
    <glyph glyph-name="onequarter" unicode="&#xbc;" horiz-adv-x="1113" 
d="M399 296h-336l26 127h95l26 129c-32 -10 -65 -18 -111 -24l26 124c74 17 127 44 167 90h115l-65 -319h83zM990 -88h-55l-13 -64h-159l13 64h-212l24 118l262 264h163l-54 -266h55zM804 20l24 107l-103 -107h79zM923 727l-573 -878h-157l573 878h157z" />
    <glyph glyph-name="divide" unicode="&#xf7;" horiz-adv-x="695" 
d="M435 521c0 -60 -32 -84 -87 -84c-63 0 -87 34 -87 84c0 55 29 85 87 85c59 0 87 -29 87 -85zM643 222h-591v148h591v-148zM435 69c0 -60 -32 -84 -87 -84c-63 0 -87 34 -87 84c0 55 29 85 87 85c59 0 87 -29 87 -85z" />
    <glyph glyph-name="brokenbar" unicode="&#xa6;" horiz-adv-x="356" 
d="M256 431h-156v311h156v-311zM256 -192h-156v310h156v-310z" />
    <glyph glyph-name="degree" unicode="&#xb0;" horiz-adv-x="399" 
d="M409 573c0 -94 -76 -170 -169 -170c-94 0 -170 76 -170 169c0 94 76 170 169 170c94 0 170 -76 170 -169zM295 573c0 30 -25 55 -55 55s-56 -25 -56 -55s26 -56 56 -56s55 26 55 56z" />
    <glyph glyph-name="thorn" unicode="&#xfe;" horiz-adv-x="622" 
d="M602 338c0 -185 -105 -353 -295 -353c-52 0 -84 15 -108 28l-42 -206h-201l186 920h200l-49 -231c35 35 77 54 136 54c116 0 173 -87 173 -212zM292 160c62 0 96 81 96 151c0 45 -21 64 -54 64c-22 0 -45 -11 -67 -31l-34 -163c18 -12 38 -21 59 -21z" />
    <glyph glyph-name="threequarters" unicode="&#xbe;" horiz-adv-x="1113" 
d="M454 466c0 -120 -105 -180 -222 -180c-55 0 -139 8 -183 79l115 78c19 -24 37 -34 69 -34c29 0 53 14 53 46c0 19 -11 32 -39 32c-19 0 -35 -3 -57 -8l13 60l84 71h-152l25 122h334l-20 -96l-83 -78c49 -20 63 -55 63 -92zM989 -88h-55l-13 -64h-159l13 64h-212l24 118
l262 264h163l-54 -266h55zM803 20l24 107l-103 -107h79zM924 727l-573 -878h-157l573 878h157z" />
    <glyph glyph-name="registered" unicode="&#xae;" horiz-adv-x="950" 
d="M916 301c0 -244 -197 -441 -441 -441s-441 197 -441 441s197 441 441 441s441 -197 441 -441zM806 301c0 183 -148 331 -331 331s-331 -148 -331 -331s148 -331 331 -331s331 148 331 331zM679 86h-139l-27 131c-5 26 -15 34 -39 34h-41v-165h-137v448h186
c106 0 182 -19 182 -131c0 -54 -19 -89 -59 -106c30 -12 36 -35 44 -71zM524 386c0 25 -7 41 -42 41h-49v-79h41c39 0 50 13 50 38z" />
    <glyph glyph-name="minus" unicode="&#x2212;" horiz-adv-x="695" 
d="M643 222h-591v148h591v-148z" />
    <glyph glyph-name="eth" unicode="&#xf0;" horiz-adv-x="616" 
d="M568 656l-65 -21c49 -71 91 -166 91 -278c0 -223 -119 -372 -328 -372c-160 0 -246 79 -246 218c0 196 113 331 286 331c19 0 50 -4 62 -10c-6 17 -16 37 -28 58l-120 -39l-35 101l87 28c-25 27 -53 51 -82 70h218l21 -19l105 34zM287 163c65 0 94 64 94 136
c0 44 -21 65 -56 65c-63 0 -93 -72 -93 -141c0 -41 19 -60 55 -60z" />
    <glyph glyph-name="multiply" unicode="&#xd7;" horiz-adv-x="695" 
d="M648 101l-105 -105l-196 195l-194 -195l-105 105l195 195l-195 194l105 105l194 -195l194 194l105 -105l-194 -193z" />
    <glyph glyph-name="copyright" unicode="&#xa9;" horiz-adv-x="950" 
d="M916 301c0 -244 -197 -441 -441 -441s-441 197 -441 441s197 441 441 441s441 -197 441 -441zM806 301c0 183 -148 331 -331 331s-331 -148 -331 -331s148 -331 331 -331s331 148 331 331zM681 440l-113 -65c-17 30 -38 57 -83 57c-60 0 -86 -32 -86 -122
c0 -89 25 -121 86 -121c43 0 71 19 101 47l83 -92c-63 -54 -121 -67 -184 -67c-170 0 -232 91 -232 233s62 234 232 234c117 0 164 -51 196 -104z" />
    <glyph glyph-name="Aacute" unicode="&#xc1;" horiz-adv-x="745" 
d="M680 0h-220l-10 107h-230l-52 -107h-220l373 727h274zM434 287l-18 223l-107 -223h125zM724 956l-193 -176h-145l144 176h194z" />
    <glyph glyph-name="Acircumflex" unicode="&#xc2;" horiz-adv-x="745" 
d="M680 0h-220l-10 107h-230l-52 -107h-220l373 727h274zM434 287l-18 223l-107 -223h125zM699 780h-147l-55 84l-70 -84h-161l177 176h141z" />
    <glyph glyph-name="Adieresis" unicode="&#xc4;" horiz-adv-x="745" 
d="M680 0h-220l-10 107h-230l-52 -107h-220l373 727h274zM434 287l-18 223l-107 -223h125zM717 876c0 -57 -34 -97 -102 -97c-49 0 -80 30 -80 70c0 57 34 97 102 97c53 0 80 -30 80 -70zM476 876c0 -57 -34 -97 -102 -97c-49 0 -80 30 -80 70c0 57 34 97 102 97
c53 0 80 -30 80 -70z" />
    <glyph glyph-name="Agrave" unicode="&#xc0;" horiz-adv-x="745" 
d="M680 0h-220l-10 107h-230l-52 -107h-220l373 727h274zM434 287l-18 223l-107 -223h125zM565 780h-131l-136 176h180z" />
    <glyph glyph-name="Aring" unicode="&#xc5;" horiz-adv-x="745" 
d="M680 0h-220l-10 107h-230l-52 -107h-220l373 727c-6 10 -11 30 -11 42c0 93 69 148 171 148c93 0 141 -49 141 -106c0 -33 -10 -63 -27 -84zM434 287l-18 223l-107 -223h125zM459 738c34 0 66 16 66 55c0 22 -19 39 -52 39c-40 0 -64 -24 -64 -56c0 -19 15 -38 50 -38z
" />
    <glyph glyph-name="Atilde" unicode="&#xc3;" horiz-adv-x="745" 
d="M680 0h-220l-10 107h-230l-52 -107h-220l373 727h274zM434 287l-18 223l-107 -223h125zM723 930c-24 -84 -72 -150 -172 -150c-35 0 -60 7 -80 15c-13 5 -32 15 -47 15c-18 0 -31 -8 -38 -30h-115c22 82 73 150 169 150c43 0 72 -13 108 -26c9 -3 15 -4 20 -4
c21 0 34 9 39 30h116z" />
    <glyph glyph-name="Ccedilla" unicode="&#xc7;" horiz-adv-x="704" 
d="M428 -84c0 -85 -92 -109 -167 -109c-53 0 -113 12 -150 30l48 81c30 -14 60 -26 102 -26c12 0 31 3 31 18c0 13 -15 20 -70 22l47 56c-161 19 -247 128 -247 287c0 261 141 467 429 467c170 0 246 -93 286 -182l-184 -99c-32 56 -66 80 -121 80
c-123 0 -176 -114 -176 -236c0 -74 33 -119 105 -119c58 0 110 28 160 71l114 -168c-72 -61 -157 -93 -257 -102l-4 -5c35 -9 54 -31 54 -66z" />
    <glyph glyph-name="Eacute" unicode="&#xc9;" horiz-adv-x="614" 
d="M490 0h-508l146 727h509l-37 -182h-289l-18 -91h257l-36 -176h-257l-19 -96h289zM626 956l-193 -176h-145l144 176h194z" />
    <glyph glyph-name="Ecircumflex" unicode="&#xca;" horiz-adv-x="614" 
d="M490 0h-508l146 727h509l-37 -182h-289l-18 -91h257l-36 -176h-257l-19 -96h289zM610 781h-147l-55 84l-70 -84h-161l177 176h141z" />
    <glyph glyph-name="Edieresis" unicode="&#xcb;" horiz-adv-x="614" 
d="M490 0h-508l146 727h509l-37 -182h-289l-18 -91h257l-36 -176h-257l-19 -96h289zM618 878c0 -57 -34 -97 -102 -97c-49 0 -80 30 -80 70c0 57 34 97 102 97c53 0 80 -30 80 -70zM377 878c0 -57 -34 -97 -102 -97c-49 0 -80 30 -80 70c0 57 34 97 102 97
c53 0 80 -30 80 -70z" />
    <glyph glyph-name="Egrave" unicode="&#xc8;" horiz-adv-x="614" 
d="M490 0h-508l146 727h509l-37 -182h-289l-18 -91h257l-36 -176h-257l-19 -96h289zM468 780h-131l-136 176h180z" />
    <glyph glyph-name="Iacute" unicode="&#xcd;" horiz-adv-x="435" 
d="M328 0h-373l36 178h76l75 371h-77l36 178h374l-36 -178h-77l-75 -371h77zM545 956l-193 -176h-145l144 176h194z" />
    <glyph glyph-name="Icircumflex" unicode="&#xce;" horiz-adv-x="435" 
d="M328 0h-373l36 178h76l75 371h-77l36 178h374l-36 -178h-77l-75 -371h77zM515 780h-147l-55 84l-70 -84h-161l177 176h141z" />
    <glyph glyph-name="Idieresis" unicode="&#xcf;" horiz-adv-x="435" 
d="M328 0h-373l36 178h76l75 371h-77l36 178h374l-36 -178h-77l-75 -371h77zM531 877c0 -57 -34 -97 -102 -97c-49 0 -80 30 -80 70c0 57 34 97 102 97c53 0 80 -30 80 -70zM290 877c0 -57 -34 -97 -102 -97c-49 0 -80 30 -80 70c0 57 34 97 102 97c53 0 80 -30 80 -70z" />
    <glyph glyph-name="Igrave" unicode="&#xcc;" horiz-adv-x="435" 
d="M328 0h-373l36 178h76l75 371h-77l36 178h374l-36 -178h-77l-75 -371h77zM385 780h-131l-136 176h180z" />
    <glyph glyph-name="Ntilde" unicode="&#xd1;" horiz-adv-x="762" 
d="M633 0h-227l-143 391l-72 -391h-209l146 727h234l135 -377l73 377h210zM701 930c-24 -84 -72 -150 -172 -150c-35 0 -60 7 -80 15c-13 5 -32 15 -47 15c-18 0 -31 -8 -38 -30h-115c22 82 73 150 169 150c43 0 72 -13 108 -26c9 -3 15 -4 20 -4c21 0 34 9 39 30h116z" />
    <glyph glyph-name="Oacute" unicode="&#xd3;" horiz-adv-x="791" 
d="M784 441c0 -252 -144 -456 -424 -456c-214 0 -323 122 -323 302c0 250 144 455 424 455c214 0 323 -122 323 -301zM379 189c108 0 172 100 172 232c0 60 -31 117 -110 117c-107 0 -171 -100 -171 -231c0 -61 31 -118 109 -118zM739 956l-193 -176h-145l144 176h194z" />
    <glyph glyph-name="Ocircumflex" unicode="&#xd4;" horiz-adv-x="791" 
d="M784 441c0 -252 -144 -456 -424 -456c-214 0 -323 122 -323 302c0 250 144 455 424 455c214 0 323 -122 323 -301zM379 189c108 0 172 100 172 232c0 60 -31 117 -110 117c-107 0 -171 -100 -171 -231c0 -61 31 -118 109 -118zM697 780h-147l-55 84l-70 -84h-161l177 176
h141z" />
    <glyph glyph-name="Odieresis" unicode="&#xd6;" horiz-adv-x="791" 
d="M784 441c0 -252 -144 -456 -424 -456c-214 0 -323 122 -323 302c0 250 144 455 424 455c214 0 323 -122 323 -301zM379 189c108 0 172 100 172 232c0 60 -31 117 -110 117c-107 0 -171 -100 -171 -231c0 -61 31 -118 109 -118zM718 877c0 -57 -34 -97 -102 -97
c-49 0 -80 30 -80 70c0 57 34 97 102 97c53 0 80 -30 80 -70zM477 877c0 -57 -34 -97 -102 -97c-49 0 -80 30 -80 70c0 57 34 97 102 97c53 0 80 -30 80 -70z" />
    <glyph glyph-name="Ograve" unicode="&#xd2;" horiz-adv-x="791" 
d="M784 441c0 -252 -144 -456 -424 -456c-214 0 -323 122 -323 302c0 250 144 455 424 455c214 0 323 -122 323 -301zM379 189c108 0 172 100 172 232c0 60 -31 117 -110 117c-107 0 -171 -100 -171 -231c0 -61 31 -118 109 -118zM542 780h-131l-136 176h180z" />
    <glyph glyph-name="Otilde" unicode="&#xd5;" horiz-adv-x="791" 
d="M784 441c0 -252 -144 -456 -424 -456c-214 0 -323 122 -323 302c0 250 144 455 424 455c214 0 323 -122 323 -301zM379 189c108 0 172 100 172 232c0 60 -31 117 -110 117c-107 0 -171 -100 -171 -231c0 -61 31 -118 109 -118zM735 930c-24 -84 -72 -150 -172 -150
c-35 0 -60 7 -80 15c-13 5 -32 15 -47 15c-18 0 -31 -8 -38 -30h-115c22 82 73 150 169 150c43 0 72 -13 108 -26c9 -3 15 -4 20 -4c21 0 34 9 39 30h116z" />
    <glyph glyph-name="Scaron" unicode="&#x160;" horiz-adv-x="670" 
d="M628 231c0 -172 -150 -246 -334 -246c-139 0 -253 39 -329 157l186 109c42 -67 107 -91 171 -91c33 0 75 11 75 46c0 84 -343 61 -343 306c0 155 135 230 315 230c130 0 240 -36 308 -143l-180 -99c-40 51 -93 71 -145 71c-41 0 -68 -16 -68 -46c0 -73 344 -64 344 -294z
M630 956l-187 -176h-141l-118 176h150l56 -75l88 75h152z" />
    <glyph glyph-name="Uacute" unicode="&#xda;" horiz-adv-x="726" 
d="M675 290c-43 -212 -135 -305 -360 -305c-197 0 -274 73 -274 209c0 32 5 71 13 110l86 423h220l-79 -386c-5 -26 -12 -65 -12 -86c0 -42 21 -62 74 -62c69 0 98 30 118 128l83 406h220zM680 956l-193 -176h-145l144 176h194z" />
    <glyph glyph-name="Ucircumflex" unicode="&#xdb;" horiz-adv-x="726" 
d="M675 290c-43 -212 -135 -305 -360 -305c-197 0 -274 73 -274 209c0 32 5 71 13 110l86 423h220l-79 -386c-5 -26 -12 -65 -12 -86c0 -42 21 -62 74 -62c69 0 98 30 118 128l83 406h220zM675 780h-147l-55 84l-70 -84h-161l177 176h141z" />
    <glyph glyph-name="Udieresis" unicode="&#xdc;" horiz-adv-x="726" 
d="M675 290c-43 -212 -135 -305 -360 -305c-197 0 -274 73 -274 209c0 32 5 71 13 110l86 423h220l-79 -386c-5 -26 -12 -65 -12 -86c0 -42 21 -62 74 -62c69 0 98 30 118 128l83 406h220zM691 877c0 -57 -34 -97 -102 -97c-49 0 -80 30 -80 70c0 57 34 97 102 97
c53 0 80 -30 80 -70zM450 877c0 -57 -34 -97 -102 -97c-49 0 -80 30 -80 70c0 57 34 97 102 97c53 0 80 -30 80 -70z" />
    <glyph glyph-name="Ugrave" unicode="&#xd9;" horiz-adv-x="726" 
d="M675 290c-43 -212 -135 -305 -360 -305c-197 0 -274 73 -274 209c0 32 5 71 13 110l86 423h220l-79 -386c-5 -26 -12 -65 -12 -86c0 -42 21 -62 74 -62c69 0 98 30 118 128l83 406h220zM545 780h-131l-136 176h180z" />
    <glyph glyph-name="Yacute" unicode="&#xdd;" horiz-adv-x="682" 
d="M757 727l-321 -424l-61 -303h-220l59 290l-146 437h227l61 -221l159 221h242zM651 956l-193 -176h-145l144 176h194z" />
    <glyph glyph-name="Ydieresis" unicode="&#x178;" horiz-adv-x="682" 
d="M757 727l-321 -424l-61 -303h-220l59 290l-146 437h227l61 -221l159 221h242zM647 877c0 -57 -34 -97 -102 -97c-49 0 -80 30 -80 70c0 57 34 97 102 97c53 0 80 -30 80 -70zM406 877c0 -57 -34 -97 -102 -97c-49 0 -80 30 -80 70c0 57 34 97 102 97c53 0 80 -30 80 -70z
" />
    <glyph glyph-name="Zcaron" unicode="&#x17d;" horiz-adv-x="691" 
d="M577 0h-610l30 148l370 381h-277l40 198h584l-29 -143l-377 -386h309zM689 956l-187 -176h-141l-118 176h150l56 -75l88 75h152z" />
    <glyph glyph-name="aacute" unicode="&#xe1;" horiz-adv-x="629" 
d="M519 0h-177l-2 39c-43 -37 -88 -54 -147 -54c-113 0 -173 87 -173 206c0 196 109 359 300 359c58 0 90 -9 127 -25l88 16h92zM359 206l33 159c-16 8 -37 15 -58 15c-65 0 -99 -64 -99 -145c0 -47 14 -70 50 -70c22 0 47 14 74 41zM595 766l-193 -176h-145l144 176h194z
" />
    <glyph glyph-name="acircumflex" unicode="&#xe2;" horiz-adv-x="629" 
d="M519 0h-177l-2 39c-43 -37 -88 -54 -147 -54c-113 0 -173 87 -173 206c0 196 109 359 300 359c58 0 90 -9 127 -25l88 16h92zM359 206l33 159c-16 8 -37 15 -58 15c-65 0 -99 -64 -99 -145c0 -47 14 -70 50 -70c22 0 47 14 74 41zM622 590h-147l-55 84l-70 -84h-161
l177 176h141z" />
    <glyph glyph-name="adieresis" unicode="&#xe4;" horiz-adv-x="629" 
d="M519 0h-177l-2 39c-43 -37 -88 -54 -147 -54c-113 0 -173 87 -173 206c0 196 109 359 300 359c58 0 90 -9 127 -25l88 16h92zM359 206l33 159c-16 8 -37 15 -58 15c-65 0 -99 -64 -99 -145c0 -47 14 -70 50 -70c22 0 47 14 74 41zM614 672c0 -57 -34 -97 -102 -97
c-49 0 -80 30 -80 70c0 57 34 97 102 97c53 0 80 -30 80 -70zM373 672c0 -57 -34 -97 -102 -97c-49 0 -80 30 -80 70c0 57 34 97 102 97c53 0 80 -30 80 -70z" />
    <glyph glyph-name="agrave" unicode="&#xe0;" horiz-adv-x="629" 
d="M519 0h-177l-2 39c-43 -37 -88 -54 -147 -54c-113 0 -173 87 -173 206c0 196 109 359 300 359c58 0 90 -9 127 -25l88 16h92zM359 206l33 159c-16 8 -37 15 -58 15c-65 0 -99 -64 -99 -145c0 -47 14 -70 50 -70c22 0 47 14 74 41zM456 590h-131l-136 176h180z" />
    <glyph glyph-name="aring" unicode="&#xe5;" horiz-adv-x="629" 
d="M519 0h-177l-2 39c-43 -37 -88 -54 -147 -54c-113 0 -173 87 -173 206c0 196 109 359 300 359c58 0 90 -9 127 -25l88 16h92zM359 206l33 159c-16 8 -37 15 -58 15c-65 0 -99 -64 -99 -145c0 -47 14 -70 50 -70c22 0 47 14 74 41zM516 702c0 -76 -57 -127 -142 -127
c-79 0 -109 46 -109 93c0 79 59 127 143 127c76 0 108 -46 108 -93zM384 653c23 0 45 11 45 37c0 15 -11 27 -34 27c-26 0 -43 -14 -43 -38c0 -13 9 -26 32 -26z" />
    <glyph glyph-name="atilde" unicode="&#xe3;" horiz-adv-x="629" 
d="M519 0h-177l-2 39c-43 -37 -88 -54 -147 -54c-113 0 -173 87 -173 206c0 196 109 359 300 359c58 0 90 -9 127 -25l88 16h92zM359 206l33 159c-16 8 -37 15 -58 15c-65 0 -99 -64 -99 -145c0 -47 14 -70 50 -70c22 0 47 14 74 41zM638 753c-24 -84 -72 -150 -172 -150
c-35 0 -60 7 -80 15c-13 5 -32 15 -47 15c-18 0 -31 -8 -38 -30h-115c22 82 73 150 169 150c43 0 72 -13 108 -26c9 -3 15 -4 20 -4c21 0 34 9 39 30h116z" />
    <glyph glyph-name="ccedilla" unicode="&#xe7;" horiz-adv-x="531" 
d="M353 -84c0 -85 -92 -109 -167 -109c-53 0 -113 12 -150 30l48 81c30 -14 60 -26 102 -26c12 0 31 3 31 18c0 13 -15 20 -70 22l49 58c-116 19 -176 95 -176 215c0 192 107 345 320 345c104 0 175 -37 220 -124l-153 -95c-24 33 -46 44 -78 44c-66 0 -97 -79 -97 -140
c0 -42 15 -71 64 -71c27 0 62 16 95 36l76 -156c-49 -30 -105 -50 -164 -56l-4 -6c35 -9 54 -31 54 -66z" />
    <glyph glyph-name="eacute" unicode="&#xe9;" horiz-adv-x="589" 
d="M586 395c0 -145 -138 -197 -363 -197c0 -41 16 -62 74 -62c42 0 86 14 130 40l61 -133c-83 -46 -158 -58 -235 -58c-160 0 -233 87 -233 220c0 195 117 345 350 345c157 0 216 -76 216 -155zM241 317c94 0 147 17 147 57c0 25 -17 36 -44 36c-40 0 -84 -23 -103 -93z
M634 766l-193 -176h-145l144 176h194z" />
    <glyph glyph-name="ecircumflex" unicode="&#xea;" horiz-adv-x="589" 
d="M586 395c0 -145 -138 -197 -363 -197c0 -41 16 -62 74 -62c42 0 86 14 130 40l61 -133c-83 -46 -158 -58 -235 -58c-160 0 -233 87 -233 220c0 195 117 345 350 345c157 0 216 -76 216 -155zM241 317c94 0 147 17 147 57c0 25 -17 36 -44 36c-40 0 -84 -23 -103 -93z
M592 590h-147l-55 84l-70 -84h-161l177 176h141z" />
    <glyph glyph-name="edieresis" unicode="&#xeb;" horiz-adv-x="589" 
d="M586 395c0 -145 -138 -197 -363 -197c0 -41 16 -62 74 -62c42 0 86 14 130 40l61 -133c-83 -46 -158 -58 -235 -58c-160 0 -233 87 -233 220c0 195 117 345 350 345c157 0 216 -76 216 -155zM241 317c94 0 147 17 147 57c0 25 -17 36 -44 36c-40 0 -84 -23 -103 -93z
M613 672c0 -57 -34 -97 -102 -97c-49 0 -80 30 -80 70c0 57 34 97 102 97c53 0 80 -30 80 -70zM372 672c0 -57 -34 -97 -102 -97c-49 0 -80 30 -80 70c0 57 34 97 102 97c53 0 80 -30 80 -70z" />
    <glyph glyph-name="egrave" unicode="&#xe8;" horiz-adv-x="589" 
d="M586 395c0 -145 -138 -197 -363 -197c0 -41 16 -62 74 -62c42 0 86 14 130 40l61 -133c-83 -46 -158 -58 -235 -58c-160 0 -233 87 -233 220c0 195 117 345 350 345c157 0 216 -76 216 -155zM241 317c94 0 147 17 147 57c0 25 -17 36 -44 36c-40 0 -84 -23 -103 -93z
M485 590h-131l-136 176h180z" />
    <glyph glyph-name="iacute" unicode="&#xed;" horiz-adv-x="347" 
d="M242 0h-202l59 279c7 31 16 74 16 83c0 8 -2 13 -10 13s-22 -9 -36 -20l-57 114c67 42 142 76 206 76c79 0 111 -37 111 -94c0 -17 -5 -51 -10 -76zM478 766l-193 -176h-145l144 176h194z" />
    <glyph glyph-name="icircumflex" unicode="&#xee;" horiz-adv-x="347" 
d="M242 0h-202l59 279c7 31 16 74 16 83c0 8 -2 13 -10 13s-22 -9 -36 -20l-57 114c67 42 142 76 206 76c79 0 111 -37 111 -94c0 -17 -5 -51 -10 -76zM434 590h-147l-55 84l-70 -84h-161l177 176h141z" />
    <glyph glyph-name="idieresis" unicode="&#xef;" horiz-adv-x="347" 
d="M242 0h-202l59 279c7 31 16 74 16 83c0 8 -2 13 -10 13s-22 -9 -36 -20l-57 114c67 42 142 76 206 76c79 0 111 -37 111 -94c0 -17 -5 -51 -10 -76zM453 672c0 -57 -34 -97 -102 -97c-49 0 -80 30 -80 70c0 57 34 97 102 97c53 0 80 -30 80 -70zM212 672
c0 -57 -34 -97 -102 -97c-49 0 -80 30 -80 70c0 57 34 97 102 97c53 0 80 -30 80 -70z" />
    <glyph glyph-name="igrave" unicode="&#xec;" horiz-adv-x="347" 
d="M242 0h-202l59 279c7 31 16 74 16 83c0 8 -2 13 -10 13s-22 -9 -36 -20l-57 114c67 42 142 76 206 76c79 0 111 -37 111 -94c0 -17 -5 -51 -10 -76zM301 590h-131l-136 176h180z" />
    <glyph glyph-name="ntilde" unicode="&#xf1;" horiz-adv-x="611" 
d="M510 0h-202l63 309c2 10 3 18 3 25c0 22 -12 29 -31 29c-22 0 -54 -15 -77 -29l-70 -334h-201l107 535h187l-9 -46c53 37 108 61 173 61c79 0 138 -37 138 -120c0 -19 -4 -50 -9 -74zM600 753c-24 -84 -72 -150 -172 -150c-35 0 -60 7 -80 15c-13 5 -32 15 -47 15
c-18 0 -31 -8 -38 -30h-115c22 82 73 150 169 150c43 0 72 -13 108 -26c9 -3 15 -4 20 -4c21 0 34 9 39 30h116z" />
    <glyph glyph-name="oacute" unicode="&#xf3;" horiz-adv-x="614" 
d="M594 328c0 -185 -111 -343 -331 -343c-176 0 -243 115 -243 216c0 194 113 349 331 349c176 0 243 -112 243 -222zM285 163c67 0 97 70 97 148c0 38 -19 61 -53 61c-69 0 -97 -74 -97 -146c0 -40 19 -63 53 -63zM598 766l-193 -176h-145l144 176h194z" />
    <glyph glyph-name="ocircumflex" unicode="&#xf4;" horiz-adv-x="614" 
d="M594 328c0 -185 -111 -343 -331 -343c-176 0 -243 115 -243 216c0 194 113 349 331 349c176 0 243 -112 243 -222zM285 163c67 0 97 70 97 148c0 38 -19 61 -53 61c-69 0 -97 -74 -97 -146c0 -40 19 -63 53 -63zM579 590h-147l-55 84l-70 -84h-161l177 176h141z" />
    <glyph glyph-name="odieresis" unicode="&#xf6;" horiz-adv-x="614" 
d="M594 328c0 -185 -111 -343 -331 -343c-176 0 -243 115 -243 216c0 194 113 349 331 349c176 0 243 -112 243 -222zM285 163c67 0 97 70 97 148c0 38 -19 61 -53 61c-69 0 -97 -74 -97 -146c0 -40 19 -63 53 -63zM597 672c0 -57 -34 -97 -102 -97c-49 0 -80 30 -80 70
c0 57 34 97 102 97c53 0 80 -30 80 -70zM356 672c0 -57 -34 -97 -102 -97c-49 0 -80 30 -80 70c0 57 34 97 102 97c53 0 80 -30 80 -70z" />
    <glyph glyph-name="ograve" unicode="&#xf2;" horiz-adv-x="614" 
d="M594 328c0 -185 -111 -343 -331 -343c-176 0 -243 115 -243 216c0 194 113 349 331 349c176 0 243 -112 243 -222zM285 163c67 0 97 70 97 148c0 38 -19 61 -53 61c-69 0 -97 -74 -97 -146c0 -40 19 -63 53 -63zM450 590h-131l-136 176h180z" />
    <glyph glyph-name="otilde" unicode="&#xf5;" horiz-adv-x="614" 
d="M594 328c0 -185 -111 -343 -331 -343c-176 0 -243 115 -243 216c0 194 113 349 331 349c176 0 243 -112 243 -222zM285 163c67 0 97 70 97 148c0 38 -19 61 -53 61c-69 0 -97 -74 -97 -146c0 -40 19 -63 53 -63zM598 753c-24 -84 -72 -150 -172 -150c-35 0 -60 7 -80 15
c-13 5 -32 15 -47 15c-18 0 -31 -8 -38 -30h-115c22 82 73 150 169 150c43 0 72 -13 108 -26c9 -3 15 -4 20 -4c21 0 34 9 39 30h116z" />
    <glyph glyph-name="scaron" unicode="&#x161;" horiz-adv-x="533" 
d="M492 177c0 -137 -125 -192 -261 -192c-98 0 -206 37 -260 109l151 95c33 -44 75 -67 123 -67c25 0 40 11 40 27c0 22 -44 30 -94 52c-102 45 -143 96 -143 161c0 128 109 188 249 188c96 0 196 -31 245 -106l-154 -86c-25 41 -64 54 -97 54c-24 0 -40 -9 -40 -25
c0 -15 11 -25 107 -57c81 -27 134 -77 134 -153zM574 766l-187 -176h-141l-118 176h150l56 -75l88 75h152z" />
    <glyph glyph-name="uacute" unicode="&#xfa;" horiz-adv-x="615" 
d="M100 535h202l-58 -282c-3 -15 -8 -41 -8 -51c0 -24 12 -31 35 -31c19 0 51 12 74 31l69 333h201l-107 -535h-187l10 50c-68 -47 -123 -65 -173 -65c-91 0 -135 48 -135 132c0 21 6 63 11 88zM601 766l-193 -176h-145l144 176h194z" />
    <glyph glyph-name="ucircumflex" unicode="&#xfb;" horiz-adv-x="615" 
d="M100 535h202l-58 -282c-3 -15 -8 -41 -8 -51c0 -24 12 -31 35 -31c19 0 51 12 74 31l69 333h201l-107 -535h-187l10 50c-68 -47 -123 -65 -173 -65c-91 0 -135 48 -135 132c0 21 6 63 11 88zM576 590h-147l-55 84l-70 -84h-161l177 176h141z" />
    <glyph glyph-name="udieresis" unicode="&#xfc;" horiz-adv-x="615" 
d="M100 535h202l-58 -282c-3 -15 -8 -41 -8 -51c0 -24 12 -31 35 -31c19 0 51 12 74 31l69 333h201l-107 -535h-187l10 50c-68 -47 -123 -65 -173 -65c-91 0 -135 48 -135 132c0 21 6 63 11 88zM592 672c0 -57 -34 -97 -102 -97c-49 0 -80 30 -80 70c0 57 34 97 102 97
c53 0 80 -30 80 -70zM351 672c0 -57 -34 -97 -102 -97c-49 0 -80 30 -80 70c0 57 34 97 102 97c53 0 80 -30 80 -70z" />
    <glyph glyph-name="ugrave" unicode="&#xf9;" horiz-adv-x="615" 
d="M100 535h202l-58 -282c-3 -15 -8 -41 -8 -51c0 -24 12 -31 35 -31c19 0 51 12 74 31l69 333h201l-107 -535h-187l10 50c-68 -47 -123 -65 -173 -65c-91 0 -135 48 -135 132c0 21 6 63 11 88zM449 590h-131l-136 176h180z" />
    <glyph glyph-name="yacute" unicode="&#xfd;" horiz-adv-x="594" 
d="M644 535l-331 -579c-63 -110 -144 -149 -278 -149c-34 0 -103 3 -145 12l67 166c34 -10 70 -15 109 -15c34 0 64 8 76 32l6 12l-96 521h204l34 -280l147 280h207zM596 766l-193 -176h-145l144 176h194z" />
    <glyph glyph-name="ydieresis" unicode="&#xff;" horiz-adv-x="594" 
d="M644 535l-331 -579c-63 -110 -144 -149 -278 -149c-34 0 -103 3 -145 12l67 166c34 -10 70 -15 109 -15c34 0 64 8 76 32l6 12l-96 521h204l34 -280l147 280h207zM582 672c0 -57 -34 -97 -102 -97c-49 0 -80 30 -80 70c0 57 34 97 102 97c53 0 80 -30 80 -70zM341 672
c0 -57 -34 -97 -102 -97c-49 0 -80 30 -80 70c0 57 34 97 102 97c53 0 80 -30 80 -70z" />
    <glyph glyph-name="zcaron" unicode="&#x17e;" horiz-adv-x="520" 
d="M435 0h-455l25 129l231 238h-176l34 168h446l-25 -127l-233 -240h187zM579 766l-187 -176h-141l-118 176h150l56 -75l88 75h152z" />
    <glyph glyph-name="parenleft.superior" unicode="&#x207d;" horiz-adv-x="354" 
d="M312 180h-173c-47 63 -78 158 -78 244c0 158 91 313 220 417h174c-118 -93 -245 -242 -245 -408c0 -83 31 -170 102 -253z" />
    <glyph glyph-name="parenright.superior" unicode="&#x207e;" horiz-adv-x="354" 
d="M139 180h-176c118 98 240 232 240 399c0 82 -30 174 -106 262h170c54 -67 84 -162 84 -252c0 -153 -88 -307 -212 -409z" />
    <glyph glyph-name="a.superior" unicode="&#xf6e9;" horiz-adv-x="441" 
d="M402 296h-141v14c-29 -17 -64 -24 -94 -24c-93 0 -138 60 -138 148c0 133 79 263 231 263c39 0 69 -8 89 -15l43 6h90zM273 413l32 159c-9 4 -21 9 -41 9c-50 0 -73 -68 -73 -127c0 -38 14 -52 37 -52c15 0 34 5 45 11z" />
    <glyph glyph-name="b.superior" unicode="&#xf6ea;" horiz-adv-x="468" 
d="M465 552c0 -132 -77 -262 -229 -262c-34 0 -68 7 -92 20l-70 -14h-62l106 527h156l-29 -140c25 11 56 18 82 18c92 0 138 -62 138 -149zM229 407c54 0 74 77 74 125c0 36 -14 51 -38 51c-14 0 -31 -5 -42 -10l-32 -158c7 -5 21 -8 38 -8z" />
    <glyph glyph-name="d.superior" unicode="&#xf6eb;" horiz-adv-x="468" 
d="M402 296h-141v14c-29 -17 -64 -24 -94 -24c-93 0 -138 60 -138 148c0 133 79 263 231 263c25 0 49 -4 67 -10l27 132h155zM273 413l32 159c-9 4 -21 9 -41 9c-50 0 -73 -66 -73 -127c0 -38 14 -52 37 -52c15 0 34 5 45 11z" />
    <glyph glyph-name="e.superior" unicode="&#xf6ec;" horiz-adv-x="442" 
d="M459 578c0 -88 -79 -129 -207 -137l-64 -4c0 -30 26 -42 59 -42c34 0 68 13 104 35l47 -94c-40 -25 -95 -50 -178 -50c-111 0 -178 61 -178 159c0 138 98 252 253 252c102 0 164 -39 164 -119zM284 592c-32 0 -69 -23 -83 -69l56 6c39 4 57 19 57 38c0 16 -10 25 -30 25z
" />
    <glyph glyph-name="i.superior" unicode="&#x2071;" horiz-adv-x="259" 
d="M291 780c0 -53 -50 -75 -101 -75s-75 18 -75 53c0 51 52 75 101 75c39 0 75 -12 75 -53zM200 296h-154l48 217c3 12 5 24 5 30c0 10 -4 13 -11 13c-8 0 -26 -8 -40 -15l-31 87c60 34 129 52 169 52c55 0 75 -26 75 -68c0 -15 -2 -32 -6 -51z" />
    <glyph glyph-name="l.superior" unicode="&#xf6ee;" horiz-adv-x="270" 
d="M240 422l14 -104c-36 -19 -84 -32 -126 -32c-78 0 -105 30 -105 84c0 16 3 34 7 54l73 360l168 72l-82 -405c-1 -7 -3 -15 -3 -22c0 -8 3 -15 15 -15c11 0 25 2 39 8z" />
    <glyph glyph-name="m.superior" unicode="&#xf6ef;" horiz-adv-x="671" 
d="M615 296h-152l46 228c2 10 3 17 3 23c0 16 -9 20 -21 20s-32 -7 -47 -18l-52 -253h-144l46 228c2 9 3 16 3 22c0 17 -8 21 -19 21c-16 0 -35 -7 -49 -16l-52 -255h-151l78 390h144l-5 -27c39 24 78 37 115 37c52 0 72 -22 81 -45c46 29 85 45 139 45c69 0 95 -37 95 -93
c0 -16 -2 -33 -6 -51z" />
    <glyph glyph-name="n.superior" unicode="&#x207f;" horiz-adv-x="457" 
d="M411 296h-155l45 224c2 8 3 15 3 21c0 17 -8 22 -20 22c-18 0 -40 -9 -55 -17l-51 -250h-154l78 390h144l-5 -26c36 21 77 36 123 36c69 0 105 -29 105 -94c0 -15 -3 -36 -7 -54z" />
    <glyph glyph-name="o.superior" unicode="&#xf6f0;" horiz-adv-x="467" 
d="M475 545c0 -146 -87 -259 -254 -259c-139 0 -179 81 -179 157c0 134 91 254 257 254c138 0 176 -76 176 -152zM244 408c47 0 74 65 74 122c0 34 -15 45 -41 45c-52 0 -77 -70 -77 -120c0 -35 18 -47 44 -47z" />
    <glyph glyph-name="r.superior" unicode="&#xf6f1;" horiz-adv-x="342" 
d="M403 676l-49 -141c-22 6 -37 8 -54 8c-27 0 -58 -12 -76 -24l-46 -223h-155l79 390h144l-7 -34c28 24 68 39 103 39c17 0 41 -4 61 -15z" />
    <glyph glyph-name="s.superior" unicode="&#xf6f2;" horiz-adv-x="416" 
d="M409 432c0 -105 -106 -146 -207 -146c-75 0 -147 18 -187 76l115 77c31 -37 64 -45 92 -45c11 0 32 3 32 17c0 39 -183 9 -183 142c0 102 95 144 194 144c81 0 134 -25 173 -66l-101 -81c-23 27 -49 43 -83 43c-21 0 -34 -6 -34 -19c0 -43 189 -13 189 -142z" />
    <glyph glyph-name="t.superior" unicode="&#xf6f3;" horiz-adv-x="298" 
d="M279 321c-33 -20 -88 -35 -133 -35c-77 0 -105 30 -105 88c0 18 3 40 8 63l28 135h-47l23 115h47l16 81l166 60l-29 -141h81l-23 -115h-81l-22 -105c-4 -21 -6 -34 -6 -40c0 -10 6 -15 16 -15c7 0 31 4 46 9z" />
    <glyph glyph-name="parenleft.inferior" unicode="&#x208d;" horiz-adv-x="354" 
d="M259 -101h-173c-47 63 -78 158 -78 244c0 158 91 313 220 417h174c-118 -93 -245 -242 -245 -408c0 -83 31 -170 102 -253z" />
    <glyph glyph-name="parenright.inferior" unicode="&#x208e;" horiz-adv-x="354" 
d="M88 -101h-176c118 98 240 232 240 399c0 82 -30 174 -106 262h170c54 -67 84 -162 84 -252c0 -153 -88 -307 -212 -409z" />
    <glyph glyph-name="oneeighth" unicode="&#x215b;" horiz-adv-x="1113" 
d="M392 296h-336l26 127h95l26 129c-32 -10 -65 -18 -111 -24l26 124c74 17 127 44 167 90h115l-65 -319h83zM921 727l-573 -878h-157l573 878h157zM1009 -3c0 -107 -114 -159 -216 -159c-109 0 -181 36 -181 114c0 55 31 94 85 127c-17 12 -37 33 -37 72
c0 104 114 143 217 143c101 0 160 -34 160 -101c0 -60 -34 -90 -73 -114c28 -17 45 -46 45 -82zM844 125c18 8 47 24 47 48c0 11 -6 23 -33 23c-35 0 -47 -15 -47 -34c0 -13 11 -26 33 -37zM805 -55c21 0 54 10 54 39c0 14 -11 26 -38 39c-31 -11 -57 -28 -57 -50
c0 -12 7 -28 41 -28z" />
    <glyph glyph-name="threeeighths" unicode="&#x215c;" horiz-adv-x="1113" 
d="M456 466c0 -120 -105 -180 -222 -180c-55 0 -139 8 -183 79l115 78c19 -24 37 -34 69 -34c29 0 53 14 53 46c0 19 -11 32 -39 32c-19 0 -35 -3 -57 -8l13 60l84 71h-152l25 122h334l-20 -96l-83 -78c49 -20 63 -55 63 -92zM923 727l-573 -878h-157l573 878h157zM1009 -3
c0 -107 -114 -159 -216 -159c-109 0 -181 36 -181 114c0 55 31 94 85 127c-17 12 -37 33 -37 72c0 104 114 143 217 143c101 0 160 -34 160 -101c0 -60 -34 -90 -73 -114c28 -17 45 -46 45 -82zM844 125c18 8 47 24 47 48c0 11 -6 23 -33 23c-35 0 -47 -15 -47 -34
c0 -13 11 -26 33 -37zM805 -55c21 0 54 10 54 39c0 14 -11 26 -38 39c-31 -11 -57 -28 -57 -50c0 -12 7 -28 41 -28z" />
    <glyph glyph-name="fiveeighths" unicode="&#x215d;" horiz-adv-x="1113" 
d="M453 470c0 -116 -99 -184 -217 -184c-72 0 -141 17 -187 73l111 77c18 -23 44 -32 79 -32c27 0 63 10 63 43c0 19 -15 33 -52 33c-20 0 -47 -5 -68 -17h-87l77 269h318l-24 -117h-198l-10 -40s21 5 53 5c66 0 142 -26 142 -110zM1007 -3c0 -107 -114 -159 -216 -159
c-109 0 -181 36 -181 114c0 55 31 94 85 127c-17 12 -37 33 -37 72c0 104 114 143 217 143c101 0 160 -34 160 -101c0 -60 -34 -90 -73 -114c28 -17 45 -46 45 -82zM842 125c18 8 47 24 47 48c0 11 -6 23 -33 23c-35 0 -47 -15 -47 -34c0 -13 11 -26 33 -37zM803 -55
c21 0 54 10 54 39c0 14 -11 26 -38 39c-31 -11 -57 -28 -57 -50c0 -12 7 -28 41 -28zM927 727l-573 -878h-157l573 878h157z" />
    <glyph glyph-name="seveneighths" unicode="&#x215e;" horiz-adv-x="1113" 
d="M558 633l-251 -347h-171l254 339h-97l-15 -76h-130l37 183h393zM925 727l-573 -878h-157l573 878h157zM1022 -3c0 -107 -114 -159 -216 -159c-109 0 -181 36 -181 114c0 55 31 94 85 127c-17 12 -37 33 -37 72c0 104 114 143 217 143c101 0 160 -34 160 -101
c0 -60 -34 -90 -73 -114c28 -17 45 -46 45 -82zM857 125c18 8 47 24 47 48c0 11 -6 23 -33 23c-35 0 -47 -15 -47 -34c0 -13 11 -26 33 -37zM818 -55c21 0 54 10 54 39c0 14 -11 26 -38 39c-31 -11 -57 -28 -57 -50c0 -12 7 -28 41 -28z" />
    <glyph glyph-name="onethird" unicode="&#x2153;" horiz-adv-x="1113" 
d="M399 296h-336l26 127h95l26 129c-32 -10 -65 -18 -111 -24l26 124c74 17 127 44 167 90h115l-65 -319h83zM925 727l-573 -878h-157l573 878h157zM1014 18c0 -120 -105 -180 -222 -180c-55 0 -139 8 -183 79l115 78c19 -24 37 -34 69 -34c29 0 53 14 53 46
c0 19 -11 32 -39 32c-19 0 -35 -3 -57 -8l13 60l84 71h-152l25 122h334l-20 -96l-83 -78c49 -20 63 -55 63 -92z" />
    <glyph glyph-name="twothirds" unicode="&#x2154;" horiz-adv-x="1113" 
d="M442 296h-423l20 104c73 39 94 49 145 80c80 49 127 80 127 112c0 13 -8 23 -31 23c-30 0 -63 -15 -120 -54l-76 97c57 47 137 84 239 84c93 0 169 -36 169 -122c0 -95 -79 -147 -188 -203h163zM940 727l-573 -878h-157l573 878h157zM1019 18c0 -120 -105 -180 -222 -180
c-55 0 -139 8 -183 79l115 78c19 -24 37 -34 69 -34c29 0 53 14 53 46c0 19 -11 32 -39 32c-19 0 -35 -3 -57 -8l13 60l84 71h-152l25 122h334l-20 -96l-83 -78c49 -20 63 -55 63 -92z" />
    <glyph glyph-name="zero.superior" unicode="&#x2070;" 
d="M494 575c0 -154 -79 -289 -256 -289c-131 0 -179 72 -179 162c0 144 72 294 258 294c134 0 177 -78 177 -167zM258 415c51 0 76 96 76 148c0 32 -14 50 -41 50c-54 0 -76 -90 -76 -149c0 -31 15 -49 41 -49z" />
    <glyph glyph-name="four.superior" unicode="&#x2074;" 
d="M464 360h-55l-13 -64h-159l13 64h-212l24 118l262 264h163l-54 -266h55zM278 468l24 107l-103 -107h79z" />
    <glyph glyph-name="five.superior" unicode="&#x2075;" 
d="M451 470c0 -116 -99 -184 -217 -184c-72 0 -141 17 -187 73l111 77c18 -23 44 -32 79 -32c27 0 63 10 63 43c0 19 -15 33 -52 33c-20 0 -47 -5 -68 -17h-87l77 269h318l-24 -117h-198l-10 -40s21 5 53 5c66 0 142 -26 142 -110z" />
    <glyph glyph-name="six.superior" unicode="&#x2076;" 
d="M462 474c0 -127 -99 -188 -224 -188c-114 0 -172 66 -172 165c0 150 99 291 274 291c59 0 113 -11 162 -46l-81 -92c-33 27 -65 33 -94 33c-44 0 -74 -23 -90 -63c28 11 55 15 89 15c75 0 136 -38 136 -115zM256 404c28 0 56 18 56 49c0 21 -19 27 -40 27
c-24 0 -40 -5 -55 -10c-2 -12 -2 -15 -2 -22c0 -31 15 -44 41 -44z" />
    <glyph glyph-name="seven.superior" unicode="&#x2077;" 
d="M502 633l-251 -347h-171l254 339h-97l-15 -76h-130l37 183h393z" />
    <glyph glyph-name="eight.superior" unicode="&#x2078;" 
d="M456 445c0 -107 -114 -159 -216 -159c-109 0 -181 36 -181 114c0 55 31 94 85 127c-17 12 -37 33 -37 72c0 104 114 143 217 143c101 0 160 -34 160 -101c0 -60 -34 -90 -73 -114c28 -17 45 -46 45 -82zM291 573c18 8 47 24 47 48c0 11 -6 23 -33 23
c-35 0 -47 -15 -47 -34c0 -13 11 -26 33 -37zM252 393c21 0 54 10 54 39c0 14 -11 26 -38 39c-31 -11 -57 -28 -57 -50c0 -12 7 -28 41 -28z" />
    <glyph glyph-name="nine.superior" unicode="&#x2079;" 
d="M90 556c0 120 104 186 225 186s171 -73 171 -167c0 -153 -95 -289 -270 -289c-59 0 -117 11 -166 46l81 92c33 -27 65 -33 94 -33c44 0 77 22 90 62c-28 -11 -49 -14 -83 -14c-89 0 -142 40 -142 117zM293 625c-28 0 -53 -14 -53 -47c0 -21 16 -30 40 -30s42 5 57 10
c1 6 2 15 2 21c0 30 -21 46 -46 46z" />
    <glyph glyph-name="zero.inferior" unicode="&#x2080;" 
d="M447 162c0 -154 -79 -289 -256 -289c-131 0 -179 72 -179 162c0 144 72 294 258 294c134 0 177 -78 177 -167zM211 2c51 0 76 96 76 148c0 32 -14 50 -41 50c-54 0 -76 -90 -76 -149c0 -31 15 -49 41 -49z" />
    <glyph glyph-name="one.inferior" unicode="&#x2081;" 
d="M351 -117h-336l26 127h95l26 129c-32 -10 -65 -18 -111 -24l26 124c74 17 127 44 167 90h115l-65 -319h83z" />
    <glyph glyph-name="two.inferior" unicode="&#x2082;" 
d="M398 -116h-423l20 104c73 39 94 49 145 80c80 49 127 80 127 112c0 13 -8 23 -31 23c-30 0 -63 -15 -120 -54l-76 97c57 47 137 84 239 84c93 0 169 -36 169 -122c0 -95 -79 -147 -188 -203h163z" />
    <glyph glyph-name="three.inferior" unicode="&#x2083;" 
d="M404 53c0 -120 -105 -180 -222 -180c-55 0 -139 8 -183 79l115 78c19 -24 37 -34 69 -34c29 0 53 14 53 46c0 19 -11 32 -39 32c-19 0 -35 -3 -57 -8l13 60l84 71h-152l25 122h334l-20 -96l-83 -78c49 -20 63 -55 63 -92z" />
    <glyph glyph-name="four.inferior" unicode="&#x2084;" 
d="M414 -63h-55l-13 -64h-159l13 64h-212l24 118l262 264h163l-54 -266h55zM228 45l24 107l-103 -107h79z" />
    <glyph glyph-name="five.inferior" unicode="&#x2085;" 
d="M401 57c0 -116 -99 -184 -217 -184c-72 0 -141 17 -187 73l111 77c18 -23 44 -32 79 -32c27 0 63 10 63 43c0 19 -15 33 -52 33c-20 0 -47 -5 -68 -17h-87l77 269h318l-24 -117h-198l-10 -40s21 5 53 5c66 0 142 -26 142 -110z" />
    <glyph glyph-name="six.inferior" unicode="&#x2086;" 
d="M413 61c0 -127 -99 -188 -224 -188c-114 0 -172 66 -172 165c0 150 99 291 274 291c59 0 113 -11 162 -46l-81 -92c-33 27 -65 33 -94 33c-44 0 -74 -23 -90 -63c28 11 55 15 89 15c75 0 136 -38 136 -115zM207 -9c28 0 56 18 56 49c0 21 -19 27 -40 27
c-24 0 -40 -5 -55 -10c-2 -12 -2 -15 -2 -22c0 -31 15 -44 41 -44z" />
    <glyph glyph-name="seven.inferior" unicode="&#x2087;" 
d="M451 220l-251 -347h-171l254 339h-97l-15 -76h-130l37 183h393z" />
    <glyph glyph-name="eight.inferior" unicode="&#x2088;" 
d="M406 32c0 -107 -114 -159 -216 -159c-109 0 -181 36 -181 114c0 55 31 94 85 127c-17 12 -37 33 -37 72c0 104 114 143 217 143c101 0 160 -34 160 -101c0 -60 -34 -90 -73 -114c28 -17 45 -46 45 -82zM241 160c18 8 47 24 47 48c0 11 -6 23 -33 23
c-35 0 -47 -15 -47 -34c0 -13 11 -26 33 -37zM202 -20c21 0 54 10 54 39c0 14 -11 26 -38 39c-31 -11 -57 -28 -57 -50c0 -12 7 -28 41 -28z" />
    <glyph glyph-name="nine.inferior" unicode="&#x2089;" 
d="M44 143c0 120 104 186 225 186s171 -73 171 -167c0 -153 -95 -289 -270 -289c-59 0 -117 11 -166 46l81 92c33 -27 65 -33 94 -33c44 0 77 22 90 62c-28 -11 -49 -14 -83 -14c-89 0 -142 40 -142 117zM247 212c-28 0 -53 -14 -53 -47c0 -21 16 -30 40 -30s42 5 57 10
c1 6 2 15 2 21c0 30 -21 46 -46 46z" />
    <glyph glyph-name="commaaccent" unicode="&#xf6c3;" horiz-adv-x="210" 
d="M199 -89c0 -46 -35 -87 -62 -113h-100c13 15 25 44 28 57c-31 5 -40 24 -40 44c0 52 49 78 97 78c51 0 77 -26 77 -66z" />
    <glyph glyph-name="Abreve" unicode="&#x102;" horiz-adv-x="745" 
d="M680 0h-220l-10 107h-230l-52 -107h-220l373 727h274zM434 287l-18 223l-107 -223h125zM715 924c-32 -71 -86 -144 -236 -144c-142 0 -190 72 -198 144h133c9 -23 31 -40 75 -40c45 0 74 17 93 40h133z" />
    <glyph glyph-name="Amacron" unicode="&#x100;" horiz-adv-x="745" 
d="M680 0h-220l-10 107h-230l-52 -107h-220l373 727h274zM434 287l-18 223l-107 -223h125zM661 780h-355l25 125h355z" />
    <glyph glyph-name="Aogonek" unicode="&#x104;" horiz-adv-x="745" 
d="M744 -153c-58 -30 -111 -40 -165 -40c-80 0 -118 37 -118 87c0 38 17 73 39 106h-40l-10 107h-230l-52 -107h-220l373 727h274l85 -727h-51c-14 -24 -24 -46 -24 -69c0 -15 9 -23 28 -23c26 0 53 9 89 28zM434 287l-18 223l-107 -223h125z" />
    <glyph glyph-name="AEacute" unicode="&#x1fc;" horiz-adv-x="994" 
d="M885 0h-509l21 107h-178l-57 -107h-214l401 727h683l-37 -182h-289l-18 -91h257l-36 -176h-257l-19 -96h289zM434 287l52 258h-29l-138 -258h115zM935 955l-193 -176h-145l144 176h194z" />
    <glyph glyph-name="Cacute" unicode="&#x106;" horiz-adv-x="704" 
d="M669 955l-193 -176h-145l144 176h194zM737 560l-184 -99c-32 56 -66 80 -121 80c-123 0 -176 -114 -176 -236c0 -74 33 -119 105 -119c58 0 110 28 160 71l114 -168c-84 -71 -188 -104 -312 -104c-195 0 -301 114 -301 290c0 261 141 467 429 467c170 0 246 -93 286 -182
z" />
    <glyph glyph-name="Ccaron" unicode="&#x10c;" horiz-adv-x="704" 
d="M737 560l-184 -99c-32 56 -66 80 -121 80c-123 0 -176 -114 -176 -236c0 -74 33 -119 105 -119c58 0 110 28 160 71l114 -168c-84 -71 -188 -104 -312 -104c-195 0 -301 114 -301 290c0 261 141 467 429 467c170 0 246 -93 286 -182zM718 955l-187 -176h-141l-118 176
h150l56 -75l88 75h152z" />
    <glyph glyph-name="Ccircumflex" unicode="&#x108;" horiz-adv-x="704" 
d="M737 560l-184 -99c-32 56 -66 80 -121 80c-123 0 -176 -114 -176 -236c0 -74 33 -119 105 -119c58 0 110 28 160 71l114 -168c-84 -71 -188 -104 -312 -104c-195 0 -301 114 -301 290c0 261 141 467 429 467c170 0 246 -93 286 -182zM676 780h-147l-55 84l-70 -84h-161
l177 176h141z" />
    <glyph glyph-name="Cdotaccent" unicode="&#x10a;" horiz-adv-x="704" 
d="M737 560l-184 -99c-32 56 -66 80 -121 80c-123 0 -176 -114 -176 -236c0 -74 33 -119 105 -119c58 0 110 28 160 71l114 -168c-84 -71 -188 -104 -312 -104c-195 0 -301 114 -301 290c0 261 141 467 429 467c170 0 246 -93 286 -182zM554 871c0 -57 -34 -97 -102 -97
c-49 0 -80 30 -80 70c0 57 34 97 102 97c53 0 80 -30 80 -70z" />
    <glyph glyph-name="Dcaron" unicode="&#x10e;" horiz-adv-x="745" 
d="M723 449c0 -293 -169 -449 -489 -449h-252l146 727h251c231 0 344 -100 344 -278zM275 196c138 0 215 83 215 217c0 81 -37 118 -144 118h-37l-69 -335h35zM655 956l-187 -176h-141l-118 176h150l56 -75l88 75h152z" />
    <glyph glyph-name="Dcroat" unicode="&#x110;" horiz-adv-x="745" 
d="M723 449c0 -293 -169 -449 -489 -449h-252l59 294h-58l28 138h57l60 295h251c231 0 344 -100 344 -278zM275 196c138 0 215 83 215 217c0 81 -37 118 -144 118h-37l-21 -99h99l-28 -138h-99l-20 -98h35z" />
    <glyph glyph-name="Ebreve" unicode="&#x114;" horiz-adv-x="614" 
d="M490 0h-508l146 727h509l-37 -182h-289l-18 -91h257l-36 -176h-257l-19 -96h289zM645 924c-32 -71 -86 -144 -236 -144c-142 0 -190 72 -198 144h133c9 -23 31 -40 75 -40c45 0 74 17 93 40h133z" />
    <glyph glyph-name="Ecaron" unicode="&#x11a;" horiz-adv-x="614" 
d="M490 0h-508l146 727h509l-37 -182h-289l-18 -91h257l-36 -176h-257l-19 -96h289zM650 956l-187 -176h-141l-118 176h150l56 -75l88 75h152z" />
    <glyph glyph-name="Edotaccent" unicode="&#x116;" horiz-adv-x="614" 
d="M490 0h-508l146 727h509l-37 -182h-289l-18 -91h257l-36 -176h-257l-19 -96h289zM504 872c0 -57 -34 -97 -102 -97c-49 0 -80 30 -80 70c0 57 34 97 102 97c53 0 80 -30 80 -70z" />
    <glyph glyph-name="Emacron" unicode="&#x112;" horiz-adv-x="614" 
d="M490 0h-508l146 727h509l-37 -182h-289l-18 -91h257l-36 -176h-257l-19 -96h289zM558 780h-355l25 125h355z" />
    <glyph glyph-name="Eng" unicode="&#x14a;" horiz-adv-x="752" 
d="M649 -2c-37 -178 -163 -236 -292 -236c-80 0 -150 13 -187 26l92 177c28 -11 47 -19 91 -19c63 0 86 47 103 133l71 351c3 14 5 28 5 40c0 45 -19 71 -64 71c-49 0 -103 -23 -162 -59l-99 -482h-210l148 727h198l-13 -61c74 46 153 76 243 76c128 0 184 -76 184 -179
c0 -21 -2 -44 -7 -67z" />
    <glyph glyph-name="Eogonek" unicode="&#x118;" horiz-adv-x="614" 
d="M466 -153c-58 -30 -111 -40 -165 -40c-80 0 -118 37 -118 87c0 38 17 73 39 106h-240l146 727h509l-37 -182h-289l-18 -91h257l-36 -176h-257l-19 -96h289l-37 -182h-139c-14 -24 -24 -46 -24 -69c0 -15 9 -23 28 -23c26 0 53 9 89 28z" />
    <glyph glyph-name="Gbreve" unicode="&#x11e;" horiz-adv-x="753" 
d="M744 574l-203 -94c-14 31 -44 69 -108 69c-137 0 -180 -155 -180 -253c0 -72 31 -126 117 -126c24 0 54 2 79 10l14 74h-92l36 178h307l-78 -384c-70 -34 -193 -63 -296 -63c-221 0 -318 136 -318 294c0 259 149 463 438 463c159 0 245 -75 284 -168zM707 924
c-32 -71 -86 -144 -236 -144c-142 0 -190 72 -198 144h133c9 -23 31 -40 75 -40c45 0 74 17 93 40h133z" />
    <glyph glyph-name="Gcircumflex" unicode="&#x11c;" horiz-adv-x="753" 
d="M744 574l-203 -94c-14 31 -44 69 -108 69c-137 0 -180 -155 -180 -253c0 -72 31 -126 117 -126c24 0 54 2 79 10l14 74h-92l36 178h307l-78 -384c-70 -34 -193 -63 -296 -63c-221 0 -318 136 -318 294c0 259 149 463 438 463c159 0 245 -75 284 -168zM694 780h-147
l-55 84l-70 -84h-161l177 176h141z" />
    <glyph glyph-name="Gcommaaccent" unicode="&#x122;" horiz-adv-x="753" 
d="M744 574l-203 -94c-14 31 -44 69 -108 69c-137 0 -180 -155 -180 -253c0 -72 31 -126 117 -126c24 0 54 2 79 10l14 74h-92l36 178h307l-78 -384c-70 -34 -193 -63 -296 -63c-221 0 -318 136 -318 294c0 259 149 463 438 463c159 0 245 -75 284 -168zM432 -89
c0 -46 -35 -87 -62 -113h-100c13 15 25 44 28 57c-31 5 -40 24 -40 44c0 52 49 78 97 78c51 0 77 -26 77 -66z" />
    <glyph glyph-name="Gdotaccent" unicode="&#x120;" horiz-adv-x="753" 
d="M744 574l-203 -94c-14 31 -44 69 -108 69c-137 0 -180 -155 -180 -253c0 -72 31 -126 117 -126c24 0 54 2 79 10l14 74h-92l36 178h307l-78 -384c-70 -34 -193 -63 -296 -63c-221 0 -318 136 -318 294c0 259 149 463 438 463c159 0 245 -75 284 -168zM569 871
c0 -57 -34 -97 -102 -97c-49 0 -80 30 -80 70c0 57 34 97 102 97c53 0 80 -30 80 -70z" />
    <glyph glyph-name="Hbar" unicode="&#x126;" horiz-adv-x="741" 
d="M36 544l24 122h55l13 61h220l-13 -61h191l13 61h220l-13 -61h48l-25 -122h-47l-110 -544h-220l54 267h-191l-54 -267h-219l109 544h-55zM295 466h191l16 78h-191z" />
    <glyph glyph-name="Hcircumflex" unicode="&#x124;" horiz-adv-x="741" 
d="M612 0h-220l54 267h-191l-54 -267h-219l146 727h220l-53 -261h191l53 261h220zM659 780h-147l-55 84l-70 -84h-161l177 176h141z" />
    <glyph glyph-name="Ibreve" unicode="&#x12c;" horiz-adv-x="435" 
d="M328 0h-373l36 178h76l75 371h-77l36 178h374l-36 -178h-77l-75 -371h77zM537 924c-32 -71 -86 -144 -236 -144c-142 0 -190 72 -198 144h133c9 -23 31 -40 75 -40c45 0 74 17 93 40h133z" />
    <glyph glyph-name="IJ" unicode="&#x132;" horiz-adv-x="952" 
d="M343 0h-373l36 178h76l75 371h-77l36 178h374l-36 -178h-77l-75 -371h77zM889 220c-36 -178 -158 -235 -306 -235c-88 0 -145 19 -183 33l88 181c22 -10 62 -22 101 -22c57 0 80 44 99 138l48 234h-15c-50 0 -95 -22 -128 -41l-75 142c63 42 129 77 258 77h216z" />
    <glyph glyph-name="Imacron" unicode="&#x12a;" horiz-adv-x="435" 
d="M328 0h-373l36 178h76l75 371h-77l36 178h374l-36 -178h-77l-75 -371h77zM474 780h-355l25 125h355z" />
    <glyph glyph-name="Iogonek" unicode="&#x12e;" horiz-adv-x="435" 
d="M318 -153c-58 -30 -111 -40 -165 -40c-80 0 -118 37 -118 87c0 38 17 73 39 106h-119l36 178h76l75 371h-77l36 178h374l-36 -178h-77l-75 -371h77l-36 -178h-125c-14 -24 -24 -46 -24 -69c0 -15 9 -23 28 -23c26 0 53 9 89 28z" />
    <glyph glyph-name="Itilde" unicode="&#x128;" horiz-adv-x="435" 
d="M328 0h-373l36 178h76l75 371h-77l36 178h374l-36 -178h-77l-75 -371h77zM533 930c-24 -84 -72 -150 -172 -150c-35 0 -60 7 -80 15c-13 5 -32 15 -47 15c-18 0 -31 -8 -38 -30h-115c22 82 73 150 169 150c43 0 72 -13 108 -26c9 -3 15 -4 20 -4c21 0 34 9 39 30h116z
" />
    <glyph glyph-name="Jcircumflex" unicode="&#x134;" horiz-adv-x="514" 
d="M436 220c-36 -178 -158 -235 -306 -235c-88 0 -145 19 -183 33l88 181c22 -10 62 -22 101 -22c57 0 80 44 99 138l48 234h-15c-50 0 -95 -22 -128 -41l-75 142c63 42 129 77 258 77h216zM557 780h-147l-55 84l-70 -84h-161l177 176h141z" />
    <glyph glyph-name="Kcommaaccent" unicode="&#x136;" horiz-adv-x="722" 
d="M814 727l-325 -287l169 -440h-247l-101 282l-64 -56l-45 -226h-219l146 727h220l-45 -223l230 223h281zM380 -89c0 -46 -35 -87 -62 -113h-100c13 15 25 44 28 57c-31 5 -40 24 -40 44c0 52 49 78 97 78c51 0 77 -26 77 -66z" />
    <glyph glyph-name="Lacute" unicode="&#x139;" horiz-adv-x="579" 
d="M483 0h-501l146 727h220l-107 -528h281zM525 956l-193 -176h-145l144 176h194z" />
    <glyph glyph-name="Lcaron" unicode="&#x13d;" horiz-adv-x="579" 
d="M483 0h-501l146 727h220l-107 -528h281zM479 403h-118c44 43 93 110 103 139c-38 11 -53 45 -53 78c0 66 39 110 111 110c54 0 91 -31 91 -88c0 -89 -77 -190 -134 -239z" />
    <glyph glyph-name="Lcommaaccent" unicode="&#x13b;" horiz-adv-x="579" 
d="M483 0h-501l146 727h220l-107 -528h281zM314 -89c0 -46 -35 -87 -62 -113h-100c13 15 25 44 28 57c-31 5 -40 24 -40 44c0 52 49 78 97 78c51 0 77 -26 77 -66z" />
    <glyph glyph-name="Ldot" unicode="&#x13f;" horiz-adv-x="579" 
d="M483 0h-501l146 727h220l-107 -528h281zM532 394c0 -57 -34 -97 -102 -97c-49 0 -80 30 -80 70c0 57 34 97 102 97c53 0 80 -30 80 -70z" />
    <glyph glyph-name="Nacute" unicode="&#x143;" horiz-adv-x="762" 
d="M633 0h-227l-143 391l-72 -391h-209l146 727h234l135 -377l73 377h210zM687 956l-193 -176h-145l144 176h194z" />
    <glyph glyph-name="Ncaron" unicode="&#x147;" horiz-adv-x="762" 
d="M633 0h-227l-143 391l-72 -391h-209l146 727h234l135 -377l73 377h210zM719 956l-187 -176h-141l-118 176h150l56 -75l88 75h152z" />
    <glyph glyph-name="Ncommaaccent" unicode="&#x145;" horiz-adv-x="762" 
d="M633 0h-227l-143 391l-72 -391h-209l146 727h234l135 -377l73 377h210zM383 -89c0 -46 -35 -87 -62 -113h-100c13 15 25 44 28 57c-31 5 -40 24 -40 44c0 52 49 78 97 78c51 0 77 -26 77 -66z" />
    <glyph glyph-name="Obreve" unicode="&#x14e;" horiz-adv-x="791" 
d="M784 441c0 -252 -144 -456 -424 -456c-214 0 -323 122 -323 302c0 250 144 455 424 455c214 0 323 -122 323 -301zM379 189c108 0 172 100 172 232c0 60 -31 117 -110 117c-107 0 -171 -100 -171 -231c0 -61 31 -118 109 -118zM747 923c-32 -71 -86 -144 -236 -144
c-142 0 -190 72 -198 144h133c9 -23 31 -40 75 -40c45 0 74 17 93 40h133z" />
    <glyph glyph-name="Ohungarumlaut" unicode="&#x150;" horiz-adv-x="791" 
d="M784 441c0 -252 -144 -456 -424 -456c-214 0 -323 122 -323 302c0 250 144 455 424 455c214 0 323 -122 323 -301zM379 189c108 0 172 100 172 232c0 60 -31 117 -110 117c-107 0 -171 -100 -171 -231c0 -61 31 -118 109 -118zM846 955l-197 -176h-137l148 176h186z
M625 955l-197 -176h-136l147 176h186z" />
    <glyph glyph-name="Omacron" unicode="&#x14c;" horiz-adv-x="791" 
d="M784 441c0 -252 -144 -456 -424 -456c-214 0 -323 122 -323 302c0 250 144 455 424 455c214 0 323 -122 323 -301zM379 189c108 0 172 100 172 232c0 60 -31 117 -110 117c-107 0 -171 -100 -171 -231c0 -61 31 -118 109 -118zM661 780h-355l25 125h355z" />
    <glyph glyph-name="Oslashacute" unicode="&#x1fe;" horiz-adv-x="791" 
d="M699 955l-193 -176h-145l144 176h194zM784 441c0 -252 -144 -456 -424 -456c-72 0 -132 14 -180 39l-75 -80h-162l147 157c-35 49 -53 113 -53 186c0 250 144 455 424 455c77 0 141 -16 191 -45l63 67h162l-140 -148c31 -48 47 -108 47 -175zM270 307v-15l223 236
c-14 6 -31 10 -50 10c-110 0 -173 -100 -173 -231zM377 189c113 0 173 102 174 229l-211 -224c11 -4 23 -5 37 -5z" />
    <glyph glyph-name="Racute" unicode="&#x154;" horiz-adv-x="697" 
d="M594 0h-224l-7 176c-2 53 -14 77 -71 77h-40l-51 -253h-219l146 727h296c166 0 253 -61 253 -177c0 -106 -59 -176 -168 -210c61 -17 72 -62 75 -129zM339 429c49 0 103 14 103 71c0 28 -17 45 -60 45h-71l-23 -116h51zM604 956l-193 -176h-145l144 176h194z" />
    <glyph glyph-name="Rcaron" unicode="&#x158;" horiz-adv-x="697" 
d="M594 0h-224l-7 176c-2 53 -14 77 -71 77h-40l-51 -253h-219l146 727h296c166 0 253 -61 253 -177c0 -106 -59 -176 -168 -210c61 -17 72 -62 75 -129zM339 429c49 0 103 14 103 71c0 28 -17 45 -60 45h-71l-23 -116h51zM640 956l-187 -176h-141l-118 176h150l56 -75
l88 75h152z" />
    <glyph glyph-name="Rcommaaccent" unicode="&#x156;" horiz-adv-x="697" 
d="M594 0h-224l-7 176c-2 53 -14 77 -71 77h-40l-51 -253h-219l146 727h296c166 0 253 -61 253 -177c0 -106 -59 -176 -168 -210c61 -17 72 -62 75 -129zM339 429c49 0 103 14 103 71c0 28 -17 45 -60 45h-71l-23 -116h51zM363 -89c0 -46 -35 -87 -62 -113h-100
c13 15 25 44 28 57c-31 5 -40 24 -40 44c0 52 49 78 97 78c51 0 77 -26 77 -66z" />
    <glyph glyph-name="Sacute" unicode="&#x15a;" horiz-adv-x="670" 
d="M628 231c0 -172 -150 -246 -334 -246c-139 0 -253 39 -329 157l186 109c42 -67 107 -91 171 -91c33 0 75 11 75 46c0 84 -343 61 -343 306c0 155 135 230 315 230c130 0 240 -36 308 -143l-180 -99c-40 51 -93 71 -145 71c-41 0 -68 -16 -68 -46c0 -73 344 -64 344 -294z
M629 955l-193 -176h-145l144 176h194z" />
    <glyph glyph-name="Scedilla" unicode="&#x15e;" horiz-adv-x="670" 
d="M376 -84c0 -85 -92 -109 -167 -109c-53 0 -113 12 -150 30l48 81c30 -14 60 -26 102 -26c12 0 31 3 31 18c0 13 -15 20 -70 22l48 58c-105 12 -191 56 -253 152l186 109c42 -67 107 -91 171 -91c33 0 75 11 75 46c0 84 -343 61 -343 306c0 155 135 230 315 230
c130 0 240 -36 308 -143l-180 -99c-40 51 -93 71 -145 71c-41 0 -68 -16 -68 -46c0 -73 344 -64 344 -294c0 -163 -134 -237 -303 -245l-3 -4c35 -9 54 -31 54 -66z" />
    <glyph glyph-name="Scircumflex" unicode="&#x15c;" horiz-adv-x="670" 
d="M628 231c0 -172 -150 -246 -334 -246c-139 0 -253 39 -329 157l186 109c42 -67 107 -91 171 -91c33 0 75 11 75 46c0 84 -343 61 -343 306c0 155 135 230 315 230c130 0 240 -36 308 -143l-180 -99c-40 51 -93 71 -145 71c-41 0 -68 -16 -68 -46c0 -73 344 -64 344 -294z
M598 780h-147l-55 84l-70 -84h-161l177 176h141z" />
    <glyph glyph-name="Scommaaccent" unicode="&#x218;" horiz-adv-x="670" 
d="M628 231c0 -172 -150 -246 -334 -246c-139 0 -253 39 -329 157l186 109c42 -67 107 -91 171 -91c33 0 75 11 75 46c0 84 -343 61 -343 306c0 155 135 230 315 230c130 0 240 -36 308 -143l-180 -99c-40 51 -93 71 -145 71c-41 0 -68 -16 -68 -46c0 -73 344 -64 344 -294z
M344 -89c0 -46 -35 -87 -62 -113h-100c13 15 25 44 28 57c-31 5 -40 24 -40 44c0 52 49 78 97 78c51 0 77 -26 77 -66z" />
    <glyph glyph-name="Tbar" unicode="&#x166;" horiz-adv-x="657" 
d="M687 527h-198l-29 -144h97l-25 -125h-98l-52 -258h-220l52 258h-104l25 125h105l29 144h-204l40 200h622z" />
    <glyph glyph-name="Tcaron" unicode="&#x164;" horiz-adv-x="657" 
d="M687 527h-198l-107 -527h-220l107 527h-204l40 200h622zM670 956l-187 -176h-141l-118 176h150l56 -75l88 75h152z" />
    <glyph glyph-name="Ubreve" unicode="&#x16c;" horiz-adv-x="726" 
d="M675 290c-43 -212 -135 -305 -360 -305c-197 0 -274 73 -274 209c0 32 5 71 13 110l86 423h220l-79 -386c-5 -26 -12 -65 -12 -86c0 -42 21 -62 74 -62c69 0 98 30 118 128l83 406h220zM708 924c-32 -71 -86 -144 -236 -144c-142 0 -190 72 -198 144h133
c9 -23 31 -40 75 -40c45 0 74 17 93 40h133z" />
    <glyph glyph-name="Uhungarumlaut" unicode="&#x170;" horiz-adv-x="726" 
d="M675 290c-43 -212 -135 -305 -360 -305c-197 0 -274 73 -274 209c0 32 5 71 13 110l86 423h220l-79 -386c-5 -26 -12 -65 -12 -86c0 -42 21 -62 74 -62c69 0 98 30 118 128l83 406h220zM808 956l-197 -176h-137l148 176h186zM587 956l-197 -176h-136l147 176h186z" />
    <glyph glyph-name="Umacron" unicode="&#x16a;" horiz-adv-x="726" 
d="M675 290c-43 -212 -135 -305 -360 -305c-197 0 -274 73 -274 209c0 32 5 71 13 110l86 423h220l-79 -386c-5 -26 -12 -65 -12 -86c0 -42 21 -62 74 -62c69 0 98 30 118 128l83 406h220zM637 780h-355l25 125h355z" />
    <glyph glyph-name="Uogonek" unicode="&#x172;" horiz-adv-x="726" 
d="M515 -153c-58 -30 -111 -40 -165 -40c-80 0 -118 37 -118 87c0 33 13 64 31 93c-159 12 -222 83 -222 207c0 32 5 71 13 110l86 423h220l-79 -386c-5 -26 -12 -65 -12 -86c0 -42 21 -62 74 -62c69 0 98 30 118 128l83 406h220l-89 -437c-38 -185 -113 -280 -281 -300
c-11 -20 -18 -39 -18 -59c0 -15 9 -23 28 -23c26 0 53 9 89 28z" />
    <glyph glyph-name="Uring" unicode="&#x16e;" horiz-adv-x="726" 
d="M579 855c0 -76 -53 -133 -138 -133c-82 0 -113 39 -113 86c0 79 59 134 143 134c76 0 108 -37 108 -87zM445 791c29 0 57 13 57 47c0 19 -14 34 -43 34c-34 0 -55 -18 -55 -48c0 -16 11 -33 41 -33zM675 290c-43 -212 -135 -305 -360 -305c-197 0 -274 73 -274 209
c0 32 5 71 13 110l86 423h220l-79 -386c-5 -26 -12 -65 -12 -86c0 -42 21 -62 74 -62c69 0 98 30 118 128l83 406h220z" />
    <glyph glyph-name="Utilde" unicode="&#x168;" horiz-adv-x="726" 
d="M675 290c-43 -212 -135 -305 -360 -305c-197 0 -274 73 -274 209c0 32 5 71 13 110l86 423h220l-79 -386c-5 -26 -12 -65 -12 -86c0 -42 21 -62 74 -62c69 0 98 30 118 128l83 406h220zM689 930c-24 -84 -72 -150 -172 -150c-35 0 -60 7 -80 15c-13 5 -32 15 -47 15
c-18 0 -31 -8 -38 -30h-115c22 82 73 150 169 150c43 0 72 -13 108 -26c9 -3 15 -4 20 -4c21 0 34 9 39 30h116z" />
    <glyph glyph-name="Wacute" unicode="&#x1e82;" horiz-adv-x="968" 
d="M1031 727l-313 -727h-188l-55 298l-176 -298h-198l-18 727h213v-386l159 267h148l57 -255l153 374h218zM790 956l-193 -176h-145l144 176h194z" />
    <glyph glyph-name="Wcircumflex" unicode="&#x174;" horiz-adv-x="968" 
d="M1031 727l-313 -727h-188l-55 298l-176 -298h-198l-18 727h213v-386l159 267h148l57 -255l153 374h218zM791 780h-147l-55 84l-70 -84h-161l177 176h141z" />
    <glyph glyph-name="Wdieresis" unicode="&#x1e84;" horiz-adv-x="968" 
d="M1031 727l-313 -727h-188l-55 298l-176 -298h-198l-18 727h213v-386l159 267h148l57 -255l153 374h218zM800 878c0 -57 -34 -97 -102 -97c-49 0 -80 30 -80 70c0 57 34 97 102 97c53 0 80 -30 80 -70zM559 878c0 -57 -34 -97 -102 -97c-49 0 -80 30 -80 70
c0 57 34 97 102 97c53 0 80 -30 80 -70z" />
    <glyph glyph-name="Wgrave" unicode="&#x1e80;" horiz-adv-x="968" 
d="M1031 727l-313 -727h-188l-55 298l-176 -298h-198l-18 727h213v-386l159 267h148l57 -255l153 374h218zM654 780h-131l-136 176h180z" />
    <glyph glyph-name="Ycircumflex" unicode="&#x176;" horiz-adv-x="682" 
d="M757 727l-321 -424l-61 -303h-220l59 290l-146 437h227l61 -221l159 221h242zM635 780h-147l-55 84l-70 -84h-161l177 176h141z" />
    <glyph glyph-name="Ygrave" unicode="&#x1ef2;" horiz-adv-x="682" 
d="M757 727l-321 -424l-61 -303h-220l59 290l-146 437h227l61 -221l159 221h242zM509 781h-131l-136 176h180z" />
    <glyph glyph-name="Zacute" unicode="&#x179;" horiz-adv-x="691" 
d="M577 0h-610l30 148l370 381h-277l40 198h584l-29 -143l-377 -386h309zM653 956l-193 -176h-145l144 176h194z" />
    <glyph glyph-name="Zdotaccent" unicode="&#x17b;" horiz-adv-x="691" 
d="M577 0h-610l30 148l370 381h-277l40 198h584l-29 -143l-377 -386h309zM537 871c0 -57 -34 -97 -102 -97c-49 0 -80 30 -80 70c0 57 34 97 102 97c53 0 80 -30 80 -70z" />
    <glyph glyph-name="Idotaccent" unicode="&#x130;" horiz-adv-x="435" 
d="M328 0h-373l36 178h76l75 371h-77l36 178h374l-36 -178h-77l-75 -371h77zM403 871c0 -57 -34 -97 -102 -97c-49 0 -80 30 -80 70c0 57 34 97 102 97c53 0 80 -30 80 -70z" />
    <glyph glyph-name="abreve" unicode="&#x103;" horiz-adv-x="629" 
d="M519 0h-177l-2 39c-43 -37 -88 -54 -147 -54c-113 0 -173 87 -173 206c0 196 109 359 300 359c58 0 90 -9 127 -25l88 16h92zM359 206l33 159c-16 8 -37 15 -58 15c-65 0 -99 -64 -99 -145c0 -47 14 -70 50 -70c22 0 47 14 74 41zM607 750c-32 -71 -86 -144 -236 -144
c-142 0 -190 72 -198 144h133c9 -23 31 -40 75 -40c45 0 74 17 93 40h133z" />
    <glyph glyph-name="amacron" unicode="&#x101;" horiz-adv-x="629" 
d="M519 0h-177l-2 39c-43 -37 -88 -54 -147 -54c-113 0 -173 87 -173 206c0 196 109 359 300 359c58 0 90 -9 127 -25l88 16h92zM359 206l33 159c-16 8 -37 15 -58 15c-65 0 -99 -64 -99 -145c0 -47 14 -70 50 -70c22 0 47 14 74 41zM562 615h-355l25 125h355z" />
    <glyph glyph-name="aogonek" unicode="&#x105;" horiz-adv-x="629" 
d="M573 -153c-58 -30 -111 -40 -165 -40c-80 0 -118 37 -118 87c0 44 23 85 51 122l-1 23c-43 -37 -88 -54 -147 -54c-113 0 -173 87 -173 206c0 196 109 359 300 359c58 0 90 -9 127 -25l88 16h92l-108 -541h-61c-14 -24 -24 -46 -24 -69c0 -15 9 -23 28 -23
c26 0 53 9 89 28zM359 206l33 159c-16 8 -37 15 -58 15c-65 0 -99 -64 -99 -145c0 -47 14 -70 50 -70c22 0 47 14 74 41z" />
    <glyph glyph-name="aeacute" unicode="&#x1fd;" horiz-adv-x="924" 
d="M812 766l-193 -176h-145l144 176h194zM457 -8h-106l-3 57c-47 -44 -96 -64 -155 -64c-113 0 -173 87 -173 206c0 196 109 359 300 359c58 0 90 -9 127 -25l54 25h66l-10 -52c41 33 105 52 158 52c142 0 206 -76 206 -155c0 -145 -138 -197 -363 -197c0 -41 16 -62 74 -62
c42 0 86 14 130 40l61 -133c-83 -46 -161 -58 -225 -58c-51 0 -105 18 -133 51zM359 206l33 159c-16 8 -37 15 -58 15c-65 0 -99 -64 -99 -145c0 -47 14 -70 50 -70c22 0 47 14 74 41zM576 317c94 0 147 17 147 57c0 25 -17 36 -44 36c-40 0 -84 -23 -103 -93z" />
    <glyph glyph-name="cacute" unicode="&#x107;" horiz-adv-x="531" 
d="M560 426l-153 -95c-24 33 -46 44 -78 44c-66 0 -97 -79 -97 -140c0 -42 15 -71 64 -71c27 0 62 16 95 36l76 -156c-60 -37 -132 -59 -207 -59c-158 0 -240 80 -240 220c0 192 107 345 320 345c104 0 175 -37 220 -124zM597 766l-193 -176h-145l144 176h194z" />
    <glyph glyph-name="ccaron" unicode="&#x10d;" horiz-adv-x="531" 
d="M560 426l-153 -95c-24 33 -46 44 -78 44c-66 0 -97 -79 -97 -140c0 -42 15 -71 64 -71c27 0 62 16 95 36l76 -156c-60 -37 -132 -59 -207 -59c-158 0 -240 80 -240 220c0 192 107 345 320 345c104 0 175 -37 220 -124zM625 766l-187 -176h-141l-118 176h150l56 -75l88 75
h152z" />
    <glyph glyph-name="ccircumflex" unicode="&#x109;" horiz-adv-x="531" 
d="M560 426l-153 -95c-24 33 -46 44 -78 44c-66 0 -97 -79 -97 -140c0 -42 15 -71 64 -71c27 0 62 16 95 36l76 -156c-60 -37 -132 -59 -207 -59c-158 0 -240 80 -240 220c0 192 107 345 320 345c104 0 175 -37 220 -124zM562 590h-147l-55 84l-70 -84h-161l177 176h141z
" />
    <glyph glyph-name="cdotaccent" unicode="&#x10b;" horiz-adv-x="531" 
d="M560 426l-153 -95c-24 33 -46 44 -78 44c-66 0 -97 -79 -97 -140c0 -42 15 -71 64 -71c27 0 62 16 95 36l76 -156c-60 -37 -132 -59 -207 -59c-158 0 -240 80 -240 220c0 192 107 345 320 345c104 0 175 -37 220 -124zM482 690c0 -57 -34 -97 -102 -97
c-49 0 -80 30 -80 70c0 57 34 97 102 97c53 0 80 -30 80 -70z" />
    <glyph glyph-name="dcaron" unicode="&#x10f;" horiz-adv-x="823" 
d="M519 0h-177l-2 39c-43 -37 -88 -54 -147 -54c-113 0 -173 86 -173 199c0 184 97 366 295 366c50 0 84 -15 108 -28l42 205h202zM359 206l33 159c-13 8 -34 15 -62 15c-65 0 -95 -74 -95 -144c0 -49 15 -71 51 -71c22 0 51 18 73 41zM761 385h-124c47 45 98 115 109 145
c-40 12 -56 47 -56 82c0 69 41 114 117 114c57 0 95 -32 95 -92c0 -92 -80 -197 -141 -249z" />
    <glyph glyph-name="dcroat" unicode="&#x111;" horiz-adv-x="642" 
d="M519 0h-177l-2 39c-43 -37 -88 -54 -147 -54c-113 0 -173 86 -173 199c0 184 97 366 295 366c50 0 84 -15 108 -28l12 59h-139l23 114h139l7 32h202l-7 -32h40l-23 -114h-40zM359 206l33 159c-13 8 -34 15 -62 15c-65 0 -95 -74 -95 -144c0 -49 15 -71 51 -71
c22 0 51 18 73 41z" />
    <glyph glyph-name="ebreve" unicode="&#x115;" horiz-adv-x="589" 
d="M586 395c0 -145 -138 -197 -363 -197c0 -41 16 -62 74 -62c42 0 86 14 130 40l61 -133c-83 -46 -158 -58 -235 -58c-160 0 -233 87 -233 220c0 195 117 345 350 345c157 0 216 -76 216 -155zM241 317c94 0 147 17 147 57c0 25 -17 36 -44 36c-40 0 -84 -23 -103 -93z
M624 750c-32 -71 -86 -144 -236 -144c-142 0 -190 72 -198 144h133c9 -23 31 -40 75 -40c45 0 74 17 93 40h133z" />
    <glyph glyph-name="ecaron" unicode="&#x11b;" horiz-adv-x="589" 
d="M586 395c0 -145 -138 -197 -363 -197c0 -41 16 -62 74 -62c42 0 86 14 130 40l61 -133c-83 -46 -158 -58 -235 -58c-160 0 -233 87 -233 220c0 195 117 345 350 345c157 0 216 -76 216 -155zM241 317c94 0 147 17 147 57c0 25 -17 36 -44 36c-40 0 -84 -23 -103 -93z
M640 766l-187 -176h-141l-118 176h150l56 -75l88 75h152z" />
    <glyph glyph-name="edotaccent" unicode="&#x117;" horiz-adv-x="589" 
d="M586 395c0 -145 -138 -197 -363 -197c0 -41 16 -62 74 -62c42 0 86 14 130 40l61 -133c-83 -46 -158 -58 -235 -58c-160 0 -233 87 -233 220c0 195 117 345 350 345c157 0 216 -76 216 -155zM241 317c94 0 147 17 147 57c0 25 -17 36 -44 36c-40 0 -84 -23 -103 -93z
M480 690c0 -57 -34 -97 -102 -97c-49 0 -80 30 -80 70c0 57 34 97 102 97c53 0 80 -30 80 -70z" />
    <glyph glyph-name="emacron" unicode="&#x113;" horiz-adv-x="589" 
d="M586 395c0 -145 -138 -197 -363 -197c0 -41 16 -62 74 -62c42 0 86 14 130 40l61 -133c-83 -46 -158 -58 -235 -58c-160 0 -233 87 -233 220c0 195 117 345 350 345c157 0 216 -76 216 -155zM241 317c94 0 147 17 147 57c0 25 -17 36 -44 36c-40 0 -84 -23 -103 -93z
M563 615h-355l25 125h355z" />
    <glyph glyph-name="eng" unicode="&#x14b;" horiz-adv-x="612" 
d="M510 0c-28 -136 -112 -193 -244 -193c-50 0 -109 5 -139 15l66 151c18 -7 45 -11 61 -11c27 0 48 9 54 38l63 309c2 10 3 18 3 25c0 22 -15 29 -34 29c-22 0 -51 -13 -74 -29l-70 -334h-201l107 535h187l-9 -46c53 37 106 61 173 61c82 0 139 -37 139 -120
c0 -19 -3 -41 -8 -65z" />
    <glyph glyph-name="eogonek" unicode="&#x119;" horiz-adv-x="589" 
d="M438 -153c-58 -30 -111 -40 -165 -40c-80 0 -118 37 -118 87c0 35 14 66 33 97c-115 20 -168 100 -168 214c0 195 117 345 350 345c157 0 216 -76 216 -155c0 -145 -138 -197 -363 -197c0 -41 16 -62 74 -62c42 0 86 14 130 40l61 -133c-60 -34 -116 -49 -172 -55
c-11 -19 -17 -38 -17 -57c0 -15 9 -23 28 -23c26 0 53 9 89 28zM241 317c94 0 147 17 147 57c0 25 -17 36 -44 36c-40 0 -84 -23 -103 -93z" />
    <glyph glyph-name="gbreve" unicode="&#x11f;" horiz-adv-x="641" 
d="M671 532l-33 -161c-11 4 -20 6 -27 6c-15 0 -22 -7 -27 -33l-66 -329c-22 -112 -107 -208 -307 -208c-101 0 -175 17 -227 36l68 145c41 -20 101 -41 161 -41c62 0 95 24 104 71l4 22c-49 -24 -85 -33 -129 -33c-104 0 -172 57 -172 195c0 207 122 348 281 348
c60 0 103 -19 131 -43c24 33 70 41 131 41c36 0 80 -8 108 -16zM357 221l28 133c-16 14 -38 21 -58 21c-66 0 -92 -69 -92 -128c0 -44 17 -64 50 -64c22 0 46 15 72 38zM613 750c-32 -71 -86 -144 -236 -144c-142 0 -190 72 -198 144h133c9 -23 31 -40 75 -40
c45 0 74 17 93 40h133z" />
    <glyph glyph-name="gcircumflex" unicode="&#x11d;" horiz-adv-x="641" 
d="M671 532l-33 -161c-11 4 -20 6 -27 6c-15 0 -22 -7 -27 -33l-66 -329c-22 -112 -107 -208 -307 -208c-101 0 -175 17 -227 36l68 145c41 -20 101 -41 161 -41c62 0 95 24 104 71l4 22c-49 -24 -85 -33 -129 -33c-104 0 -172 57 -172 195c0 207 122 348 281 348
c60 0 103 -19 131 -43c24 33 70 41 131 41c36 0 80 -8 108 -16zM357 221l28 133c-16 14 -38 21 -58 21c-66 0 -92 -69 -92 -128c0 -44 17 -64 50 -64c22 0 46 15 72 38zM603 590h-147l-55 84l-70 -84h-161l177 176h141z" />
    <glyph glyph-name="gcommaaccent" unicode="&#x123;" horiz-adv-x="646" 
d="M676 532l-33 -161c-11 4 -20 6 -27 6c-15 0 -22 -7 -27 -33l-66 -329c-22 -112 -107 -208 -307 -208c-101 0 -175 17 -227 36l68 145c41 -20 101 -41 161 -41c62 0 95 24 104 71l4 22c-49 -24 -85 -33 -129 -33c-104 0 -172 57 -172 195c0 207 122 348 281 348
c60 0 103 -19 131 -43c24 33 70 41 131 41c36 0 80 -8 108 -16zM362 221l28 133c-16 14 -38 21 -58 21c-66 0 -92 -69 -92 -128c0 -44 17 -64 50 -64c22 0 46 15 72 38zM266 646c0 46 35 87 62 113h100c-13 -15 -25 -44 -28 -57c31 -5 40 -24 40 -44c0 -52 -49 -78 -97 -78
c-51 0 -77 26 -77 66z" />
    <glyph glyph-name="gdotaccent" unicode="&#x121;" horiz-adv-x="641" 
d="M671 532l-33 -161c-11 4 -20 6 -27 6c-15 0 -22 -7 -27 -33l-66 -329c-22 -112 -107 -208 -307 -208c-101 0 -175 17 -227 36l68 145c41 -20 101 -41 161 -41c62 0 95 24 104 71l4 22c-49 -24 -85 -33 -129 -33c-104 0 -172 57 -172 195c0 207 122 348 281 348
c60 0 103 -19 131 -43c24 33 70 41 131 41c36 0 80 -8 108 -16zM357 221l28 133c-16 14 -38 21 -58 21c-66 0 -92 -69 -92 -128c0 -44 17 -64 50 -64c22 0 46 15 72 38zM442 690c0 -57 -34 -97 -102 -97c-49 0 -80 30 -80 70c0 57 34 97 102 97c53 0 80 -30 80 -70z" />
    <glyph glyph-name="hbar" unicode="&#x127;" horiz-adv-x="613" 
d="M515 0h-202l57 276c2 10 9 42 9 53c0 21 -9 32 -33 32c-22 0 -50 -12 -78 -33l-67 -328h-201l116 581h-72l23 114h72l7 32h202l-7 -32h81l-23 -114h-81l-17 -85c39 28 89 54 155 54c90 0 138 -56 138 -130c0 -28 -5 -60 -12 -96z" />
    <glyph glyph-name="hcircumflex" unicode="&#x125;" horiz-adv-x="613" 
d="M515 0h-202l57 276c2 10 9 42 9 53c0 21 -9 32 -33 32c-22 0 -50 -12 -78 -33l-67 -328h-201l146 727h202l-47 -231c39 28 89 54 155 54c90 0 138 -56 138 -130c0 -28 -5 -60 -12 -96zM548 779h-147l-55 84l-70 -84h-161l177 176h141z" />
    <glyph glyph-name="ibreve" unicode="&#x12d;" horiz-adv-x="347" 
d="M242 0h-202l59 279c7 31 16 74 16 83c0 8 -2 13 -10 13s-22 -9 -36 -20l-57 114c67 42 142 76 206 76c79 0 111 -37 111 -94c0 -17 -5 -51 -10 -76zM472 750c-32 -71 -86 -144 -236 -144c-142 0 -190 72 -198 144h133c9 -23 31 -40 75 -40c45 0 74 17 93 40h133z" />
    <glyph glyph-name="ij" unicode="&#x133;" horiz-adv-x="712" 
d="M242 0h-202l59 279c7 31 16 74 16 83c0 8 -2 13 -10 13s-22 -9 -36 -20l-57 116c68 41 149 74 213 74c76 0 104 -37 104 -94c0 -17 -5 -51 -10 -76zM372 674c0 -74 -51 -101 -131 -101c-62 0 -105 22 -105 74c0 74 51 101 131 101c62 0 105 -21 105 -74zM413 35l51 244
c7 31 16 74 16 83c0 8 -2 13 -10 13s-22 -9 -36 -20l-57 116c68 41 147 74 211 74c79 0 106 -37 106 -94c0 -17 -4 -51 -9 -76l-78 -378c-27 -129 -110 -190 -242 -190c-61 0 -109 8 -137 16l70 166c19 -7 44 -9 61 -9c31 0 45 12 54 55zM732 674c0 -74 -51 -101 -131 -101
c-62 0 -105 22 -105 74c0 74 51 101 131 101c62 0 105 -21 105 -74z" />
    <glyph glyph-name="imacron" unicode="&#x12b;" horiz-adv-x="347" 
d="M242 0h-202l59 279c7 31 16 74 16 83c0 8 -2 13 -10 13s-22 -9 -36 -20l-57 114c67 42 142 76 206 76c79 0 111 -37 111 -94c0 -17 -5 -51 -10 -76zM412 615h-355l25 125h355z" />
    <glyph glyph-name="iogonek" unicode="&#x12f;" horiz-adv-x="347" 
d="M282 -153c-58 -30 -111 -40 -165 -40c-80 0 -118 37 -118 87c0 39 18 75 41 108l59 277c7 31 16 74 16 83c0 8 -2 13 -10 13s-22 -9 -36 -20l-57 116c68 41 149 74 213 74c76 0 104 -37 104 -94c0 -17 -5 -51 -10 -76l-77 -375h-75c-14 -24 -24 -46 -24 -69
c0 -15 9 -23 28 -23c26 0 53 9 89 28zM372 674c0 -74 -51 -101 -131 -101c-62 0 -105 22 -105 74c0 74 51 101 131 101c62 0 105 -21 105 -74z" />
    <glyph glyph-name="itilde" unicode="&#x129;" horiz-adv-x="347" 
d="M242 0h-202l59 279c7 31 16 74 16 83c0 8 -2 13 -10 13s-22 -9 -36 -20l-57 114c67 42 142 76 206 76c79 0 111 -37 111 -94c0 -17 -5 -51 -10 -76zM475 753c-24 -84 -72 -150 -172 -150c-35 0 -60 7 -80 15c-13 5 -32 15 -47 15c-18 0 -31 -8 -38 -30h-115
c22 82 73 150 169 150c43 0 72 -13 108 -26c9 -3 15 -4 20 -4c21 0 34 9 39 30h116z" />
    <glyph glyph-name="jcircumflex" unicode="&#x135;" horiz-adv-x="347" 
d="M438 590h-147l-55 84l-70 -84h-161l177 176h141zM48 35l51 244c7 31 16 74 16 83c0 8 -2 13 -10 13s-22 -9 -36 -20l-57 116c68 41 147 74 211 74c79 0 106 -37 106 -94c0 -17 -4 -51 -9 -76l-78 -378c-27 -129 -110 -190 -242 -190c-61 0 -109 8 -137 16l70 166
c19 -7 44 -9 61 -9c31 0 45 12 54 55z" />
    <glyph glyph-name="kcommaaccent" unicode="&#x137;" horiz-adv-x="598" 
d="M414 319l51 -123c11 -26 21 -39 38 -39c8 0 14 1 23 4l24 -155c-35 -15 -76 -21 -112 -21c-87 0 -120 34 -143 95l-34 92l-32 -32l-28 -140h-201l146 727h202l-70 -333l124 141h236zM347 -89c0 -46 -35 -87 -62 -113h-100c13 15 25 44 28 57c-31 5 -40 24 -40 44
c0 52 49 78 97 78c51 0 77 -26 77 -66z" />
    <glyph glyph-name="lacute" unicode="&#x13a;" horiz-adv-x="372" 
d="M324 13c-62 -23 -125 -28 -164 -28c-92 0 -140 36 -140 113c0 24 8 77 14 109l94 464l222 97l-110 -541c-5 -22 -7 -37 -7 -43c0 -16 7 -27 25 -27c11 0 28 3 46 9zM492 956l-193 -176h-145l144 176h194z" />
    <glyph glyph-name="lcaron" unicode="&#x13e;" horiz-adv-x="487" 
d="M324 13c-62 -23 -125 -28 -164 -28c-92 0 -140 36 -140 113c0 24 8 77 14 109l94 464l222 97l-110 -541c-5 -22 -7 -37 -7 -43c0 -16 7 -27 25 -27c11 0 28 3 46 9zM440 407h-124c47 45 98 115 109 145c-40 12 -56 47 -56 82c0 69 41 114 117 114c57 0 95 -32 95 -92
c0 -92 -80 -197 -141 -249z" />
    <glyph glyph-name="lcommaaccent" unicode="&#x13c;" horiz-adv-x="372" 
d="M324 13c-62 -23 -125 -28 -164 -28c-92 0 -140 36 -140 113c0 24 8 77 14 109l94 464l222 97l-110 -541c-5 -22 -7 -37 -7 -43c0 -16 7 -27 25 -27c11 0 28 3 46 9zM229 -89c0 -46 -35 -87 -62 -113h-100c13 15 25 44 28 57c-31 5 -40 24 -40 44c0 52 49 78 97 78
c51 0 77 -26 77 -66z" />
    <glyph glyph-name="ldot" unicode="&#x140;" horiz-adv-x="462" 
d="M324 13c-62 -23 -125 -28 -164 -28c-92 0 -140 36 -140 113c0 24 8 77 14 109l94 464l222 97l-110 -541c-5 -22 -7 -37 -7 -43c0 -16 7 -27 25 -27c11 0 28 3 46 9zM477 333c0 -57 -34 -97 -102 -97c-49 0 -80 30 -80 70c0 57 34 97 102 97c53 0 80 -30 80 -70z" />
    <glyph glyph-name="nacute" unicode="&#x144;" horiz-adv-x="611" 
d="M510 0h-202l63 309c2 10 3 18 3 25c0 22 -12 29 -31 29c-22 0 -54 -15 -77 -29l-70 -334h-201l107 535h187l-9 -46c53 37 108 61 173 61c79 0 138 -37 138 -120c0 -19 -4 -50 -9 -74zM571 766l-193 -176h-145l144 176h194z" />
    <glyph glyph-name="ncaron" unicode="&#x148;" horiz-adv-x="611" 
d="M510 0h-202l63 309c2 10 3 18 3 25c0 22 -12 29 -31 29c-22 0 -54 -15 -77 -29l-70 -334h-201l107 535h187l-9 -46c53 37 108 61 173 61c79 0 138 -37 138 -120c0 -19 -4 -50 -9 -74zM614 766l-187 -176h-141l-118 176h150l56 -75l88 75h152z" />
    <glyph glyph-name="ncommaaccent" unicode="&#x146;" horiz-adv-x="611" 
d="M510 0h-202l63 309c2 10 3 18 3 25c0 22 -12 29 -31 29c-22 0 -54 -15 -77 -29l-70 -334h-201l107 535h187l-9 -46c53 37 108 61 173 61c79 0 138 -37 138 -120c0 -19 -4 -50 -9 -74zM328 -89c0 -46 -35 -87 -62 -113h-100c13 15 25 44 28 57c-31 5 -40 24 -40 44
c0 52 49 78 97 78c51 0 77 -26 77 -66z" />
    <glyph glyph-name="obreve" unicode="&#x14f;" horiz-adv-x="614" 
d="M594 328c0 -185 -111 -343 -331 -343c-176 0 -243 115 -243 216c0 194 113 349 331 349c176 0 243 -112 243 -222zM285 163c67 0 97 70 97 148c0 38 -19 61 -53 61c-69 0 -97 -74 -97 -146c0 -40 19 -63 53 -63zM610 750c-32 -71 -86 -144 -236 -144
c-142 0 -190 72 -198 144h133c9 -23 31 -40 75 -40c45 0 74 17 93 40h133z" />
    <glyph glyph-name="ohungarumlaut" unicode="&#x151;" horiz-adv-x="614" 
d="M594 328c0 -185 -111 -343 -331 -343c-176 0 -243 115 -243 216c0 194 113 349 331 349c176 0 243 -112 243 -222zM285 163c67 0 97 70 97 148c0 38 -19 61 -53 61c-69 0 -97 -74 -97 -146c0 -40 19 -63 53 -63zM738 766l-197 -176h-137l148 176h186zM517 766l-197 -176
h-136l147 176h186z" />
    <glyph glyph-name="omacron" unicode="&#x14d;" horiz-adv-x="614" 
d="M594 328c0 -185 -111 -343 -331 -343c-176 0 -243 115 -243 216c0 194 113 349 331 349c176 0 243 -112 243 -222zM285 163c67 0 97 70 97 148c0 38 -19 61 -53 61c-69 0 -97 -74 -97 -146c0 -40 19 -63 53 -63zM551 615h-355l25 125h355z" />
    <glyph glyph-name="oslashacute" unicode="&#x1ff;" horiz-adv-x="614" 
d="M-42 -37l105 107c-29 37 -43 85 -43 131c0 194 113 349 331 349c62 0 109 -14 144 -35l41 43h110l-93 -96c28 -38 41 -86 41 -134c0 -185 -111 -343 -331 -343c-61 0 -105 14 -141 34l-54 -56h-110zM330 379c-70 0 -101 -70 -103 -144l133 136c-9 5 -19 8 -30 8zM285 156
c66 0 98 63 102 140l-131 -134c8 -4 18 -6 29 -6zM596 766l-193 -176h-145l144 176h194z" />
    <glyph glyph-name="racute" unicode="&#x155;" horiz-adv-x="455" 
d="M485 537l-64 -212c-14 4 -29 7 -52 7c-51 0 -88 -20 -113 -37l-60 -295h-201l108 535h187l-16 -78c36 42 93 86 162 86c17 0 37 -2 49 -6zM517 766l-193 -176h-145l144 176h194z" />
    <glyph glyph-name="rcaron" unicode="&#x159;" horiz-adv-x="455" 
d="M485 537l-64 -212c-14 4 -29 7 -52 7c-51 0 -88 -20 -113 -37l-60 -295h-201l108 535h187l-16 -78c36 42 93 86 162 86c17 0 37 -2 49 -6zM552 766l-187 -176h-141l-118 176h150l56 -75l88 75h152z" />
    <glyph glyph-name="rcommaaccent" unicode="&#x157;" horiz-adv-x="455" 
d="M485 537l-64 -212c-14 4 -29 7 -52 7c-51 0 -88 -20 -113 -37l-60 -295h-201l108 535h187l-16 -78c36 42 93 86 162 86c17 0 37 -2 49 -6zM231 -89c0 -46 -35 -87 -62 -113h-100c13 15 25 44 28 57c-31 5 -40 24 -40 44c0 52 49 78 97 78c51 0 77 -26 77 -66z" />
    <glyph glyph-name="sacute" unicode="&#x15b;" horiz-adv-x="533" 
d="M492 177c0 -137 -125 -192 -261 -192c-98 0 -206 37 -260 109l151 95c33 -44 75 -67 123 -67c25 0 40 11 40 27c0 22 -44 30 -94 52c-102 45 -143 96 -143 161c0 128 109 188 249 188c96 0 196 -31 245 -106l-154 -86c-25 41 -64 54 -97 54c-24 0 -40 -9 -40 -25
c0 -15 11 -25 107 -57c81 -27 134 -77 134 -153zM568 766l-193 -176h-145l144 176h194z" />
    <glyph glyph-name="scedilla" unicode="&#x15f;" horiz-adv-x="533" 
d="M318 -84c0 -85 -92 -109 -167 -109c-53 0 -113 12 -150 30l48 81c30 -14 60 -26 102 -26c12 0 31 3 31 18c0 13 -15 20 -70 22l50 59c-76 13 -150 47 -191 103l151 95c33 -44 75 -67 123 -67c25 0 40 11 40 27c0 22 -44 30 -94 52c-102 45 -143 96 -143 161
c0 128 109 188 249 188c96 0 196 -31 245 -106l-154 -86c-25 41 -64 54 -97 54c-24 0 -40 -9 -40 -25c0 -15 11 -25 107 -57c81 -27 134 -77 134 -153c0 -125 -104 -181 -225 -190l-3 -5c35 -9 54 -31 54 -66z" />
    <glyph glyph-name="scircumflex" unicode="&#x15d;" horiz-adv-x="533" 
d="M492 177c0 -137 -125 -192 -261 -192c-98 0 -206 37 -260 109l151 95c33 -44 75 -67 123 -67c25 0 40 11 40 27c0 22 -44 30 -94 52c-102 45 -143 96 -143 161c0 128 109 188 249 188c96 0 196 -31 245 -106l-154 -86c-25 41 -64 54 -97 54c-24 0 -40 -9 -40 -25
c0 -15 11 -25 107 -57c81 -27 134 -77 134 -153zM525 590h-147l-55 84l-70 -84h-161l177 176h141z" />
    <glyph glyph-name="scommaaccent" unicode="&#x219;" horiz-adv-x="533" 
d="M492 177c0 -137 -125 -192 -261 -192c-98 0 -206 37 -260 109l151 95c33 -44 75 -67 123 -67c25 0 40 11 40 27c0 22 -44 30 -94 52c-102 45 -143 96 -143 161c0 128 109 188 249 188c96 0 196 -31 245 -106l-154 -86c-25 41 -64 54 -97 54c-24 0 -40 -9 -40 -25
c0 -15 11 -25 107 -57c81 -27 134 -77 134 -153zM304 -89c0 -46 -35 -87 -62 -113h-100c13 15 25 44 28 57c-31 5 -40 24 -40 44c0 52 49 78 97 78c51 0 77 -26 77 -66z" />
    <glyph glyph-name="tbar" unicode="&#x167;" horiz-adv-x="432" 
d="M-15 226l21 104h80l8 37h-74l34 168h74l28 137l216 69l-42 -206h112l-34 -168h-112l-8 -37h94l-22 -104h-92c-3 -16 -5 -28 -5 -35c0 -24 12 -28 39 -28c13 0 35 4 50 9l8 -167c-36 -11 -108 -20 -149 -20c-111 0 -163 42 -163 121c0 20 4 52 9 76l9 44h-81z" />
    <glyph glyph-name="tcaron" unicode="&#x165;" horiz-adv-x="432" 
d="M360 5c-36 -11 -108 -20 -149 -20c-111 0 -163 42 -163 121c0 20 4 52 9 76l37 185h-74l34 168h74l28 137l216 69l-42 -206h112l-34 -168h-112l-26 -131c-4 -20 -7 -36 -7 -45c0 -24 12 -28 39 -28c13 0 35 4 50 9zM576 676c0 -46 -35 -87 -62 -113h-100
c13 15 25 44 28 57c-31 5 -40 24 -40 44c0 52 49 78 97 78c51 0 77 -26 77 -66z" />
    <glyph glyph-name="ubreve" unicode="&#x16d;" horiz-adv-x="615" 
d="M100 535h202l-58 -282c-3 -15 -8 -41 -8 -51c0 -24 12 -31 35 -31c19 0 51 12 74 31l69 333h201l-107 -535h-187l10 50c-68 -47 -123 -65 -173 -65c-91 0 -135 48 -135 132c0 21 6 63 11 88zM601 750c-32 -71 -86 -144 -236 -144c-142 0 -190 72 -198 144h133
c9 -23 31 -40 75 -40c45 0 74 17 93 40h133z" />
    <glyph glyph-name="uhungarumlaut" unicode="&#x171;" horiz-adv-x="615" 
d="M100 535h202l-58 -282c-3 -15 -8 -41 -8 -51c0 -24 12 -31 35 -31c19 0 51 12 74 31l69 333h201l-107 -535h-187l10 50c-68 -47 -123 -65 -173 -65c-91 0 -135 48 -135 132c0 21 6 63 11 88zM745 766l-197 -176h-137l148 176h186zM524 766l-197 -176h-136l147 176h186z
" />
    <glyph glyph-name="umacron" unicode="&#x16b;" horiz-adv-x="615" 
d="M100 535h202l-58 -282c-3 -15 -8 -41 -8 -51c0 -24 12 -31 35 -31c19 0 51 12 74 31l69 333h201l-107 -535h-187l10 50c-68 -47 -123 -65 -173 -65c-91 0 -135 48 -135 132c0 21 6 63 11 88zM541 615h-355l25 125h355z" />
    <glyph glyph-name="uogonek" unicode="&#x173;" horiz-adv-x="615" 
d="M562 -153c-58 -30 -111 -40 -165 -40c-80 0 -118 37 -118 87c0 40 19 76 43 110l9 46c-68 -47 -123 -65 -173 -65c-91 0 -135 48 -135 132c0 21 6 63 11 88l66 330h202l-58 -282c-3 -15 -8 -41 -8 -51c0 -24 12 -31 35 -31c19 0 51 12 74 31l69 333h201l-107 -535h-61
c-14 -24 -24 -46 -24 -69c0 -15 9 -23 28 -23c26 0 53 9 89 28z" />
    <glyph glyph-name="uring" unicode="&#x16f;" horiz-adv-x="615" 
d="M100 535h202l-58 -282c-3 -15 -8 -41 -8 -51c0 -24 12 -31 35 -31c19 0 51 12 74 31l69 333h201l-107 -535h-187l10 50c-68 -47 -123 -65 -173 -65c-91 0 -135 48 -135 132c0 21 6 63 11 88zM502 702c0 -76 -57 -127 -142 -127c-79 0 -109 46 -109 93
c0 79 59 127 143 127c76 0 108 -46 108 -93zM370 653c23 0 45 11 45 37c0 15 -11 27 -34 27c-26 0 -43 -14 -43 -38c0 -13 9 -26 32 -26z" />
    <glyph glyph-name="utilde" unicode="&#x169;" horiz-adv-x="615" 
d="M100 535h202l-58 -282c-3 -15 -8 -41 -8 -51c0 -24 12 -31 35 -31c19 0 51 12 74 31l69 333h201l-107 -535h-187l10 50c-68 -47 -123 -65 -173 -65c-91 0 -135 48 -135 132c0 21 6 63 11 88zM605 753c-24 -84 -72 -150 -172 -150c-35 0 -60 7 -80 15c-13 5 -32 15 -47 15
c-18 0 -31 -8 -38 -30h-115c22 82 73 150 169 150c43 0 72 -13 108 -26c9 -3 15 -4 20 -4c21 0 34 9 39 30h116z" />
    <glyph glyph-name="wacute" unicode="&#x1e83;" horiz-adv-x="783" 
d="M833 535l-271 -535h-144l-59 184l-132 -184h-137l-55 535h189l17 -268l109 171h110l50 -179l124 276h199zM674 766l-193 -176h-145l144 176h194z" />
    <glyph glyph-name="wcircumflex" unicode="&#x175;" horiz-adv-x="783" 
d="M833 535l-271 -535h-144l-59 184l-132 -184h-137l-55 535h189l17 -268l109 171h110l50 -179l124 276h199zM658 590h-147l-55 84l-70 -84h-161l177 176h141z" />
    <glyph glyph-name="wdieresis" unicode="&#x1e85;" horiz-adv-x="783" 
d="M833 535l-271 -535h-144l-59 184l-132 -184h-137l-55 535h189l17 -268l109 171h110l50 -179l124 276h199zM669 672c0 -57 -34 -97 -102 -97c-49 0 -80 30 -80 70c0 57 34 97 102 97c53 0 80 -30 80 -70zM428 672c0 -57 -34 -97 -102 -97c-49 0 -80 30 -80 70
c0 57 34 97 102 97c53 0 80 -30 80 -70z" />
    <glyph glyph-name="wgrave" unicode="&#x1e81;" horiz-adv-x="783" 
d="M833 535l-271 -535h-144l-59 184l-132 -184h-137l-55 535h189l17 -268l109 171h110l50 -179l124 276h199zM550 590h-131l-136 176h180z" />
    <glyph glyph-name="ycircumflex" unicode="&#x177;" horiz-adv-x="594" 
d="M644 535l-331 -579c-63 -110 -144 -149 -278 -149c-34 0 -103 3 -145 12l67 166c34 -10 70 -15 109 -15c34 0 64 8 76 32l6 12l-96 521h204l34 -280l147 280h207zM568 590h-147l-55 84l-70 -84h-161l177 176h141z" />
    <glyph glyph-name="ygrave" unicode="&#x1ef3;" horiz-adv-x="594" 
d="M644 535l-331 -579c-63 -110 -144 -149 -278 -149c-34 0 -103 3 -145 12l67 166c34 -10 70 -15 109 -15c34 0 64 8 76 32l6 12l-96 521h204l34 -280l147 280h207zM433 590h-131l-136 176h180z" />
    <glyph glyph-name="zacute" unicode="&#x17a;" horiz-adv-x="520" 
d="M435 0h-455l25 129l231 238h-176l34 168h446l-25 -127l-233 -240h187zM547 766l-193 -176h-145l144 176h194z" />
    <glyph glyph-name="zdotaccent" unicode="&#x17c;" horiz-adv-x="520" 
d="M435 0h-455l25 129l231 238h-176l34 168h446l-25 -127l-233 -240h187zM431 690c0 -57 -34 -97 -102 -97c-49 0 -80 30 -80 70c0 57 34 97 102 97c53 0 80 -30 80 -70z" />
    <glyph glyph-name="kgreenlandic" unicode="&#x138;" horiz-adv-x="598" 
d="M414 319l51 -123c11 -26 21 -39 38 -39c8 0 14 1 23 4l24 -155c-35 -15 -76 -21 -112 -21c-87 0 -120 34 -143 95l-34 92l-32 -32l-28 -140h-201l107 535h202l-31 -141l124 141h236z" />
    <glyph glyph-name="napostrophe" unicode="&#x149;" horiz-adv-x="771" 
d="M670 0h-202l63 309c2 10 3 18 3 25c0 22 -12 29 -31 29c-22 0 -54 -15 -77 -29l-70 -334h-201l107 535h187l-9 -46c53 37 108 61 173 61c79 0 138 -37 138 -120c0 -19 -4 -50 -9 -74zM130 427h-124c47 45 98 115 109 145c-40 12 -56 47 -56 82c0 69 41 114 117 114
c57 0 95 -32 95 -92c0 -92 -80 -197 -141 -249z" />
    <glyph glyph-name="Delta" unicode="&#x2206;" horiz-adv-x="724" 
d="M672 0h-717v101l234 609h254l229 -610v-100zM305 532l-7 -35l-106 -326h233l-107 326l-7 35h-6z" />
    <glyph glyph-name="uni03A9" unicode="&#x3a9;" horiz-adv-x="810" 
d="M762 0h-323v145c70 54 99 135 99 226c0 78 -37 162 -130 162s-137 -79 -137 -168s28 -166 98 -220v-145h-323v158h117c-77 63 -118 143 -118 244c0 176 143 320 361 320c243 0 358 -156 358 -318c0 -94 -43 -184 -120 -246h118v-158z" />
    <glyph glyph-name="uni03BC" unicode="&#x3bc;" horiz-adv-x="616" 
d="M507 0h-187l8 43c-27 -41 -53 -58 -85 -58c-22 0 -39 11 -49 23l-41 -201h-201l148 728h202l-70 -344c8 -12 21 -17 36 -17c27 0 60 16 79 36l67 325h202z" />
    <glyph glyph-name="pi" unicode="&#x3c0;" horiz-adv-x="802" 
d="M722 33c-41 -29 -99 -41 -135 -41c-103 0 -137 87 -137 167v198h-91v-198c0 -61 -8 -112 -22 -159h-177c18 64 26 118 26 164v190c-27 -3 -54 -13 -75 -23l-54 136c49 27 117 47 193 47h461v-157h-89v-185c0 -24 7 -41 27 -41c10 0 26 5 40 15c7 -22 27 -90 33 -113z" />
    <glyph glyph-name="Euro" unicode="&#x20ac;" horiz-adv-x="665" 
d="M447 384h-164c-2 -17 -4 -34 -5 -53h151l-53 -108h-91c10 -42 37 -62 86 -62c42 0 90 27 145 70l91 -145c-69 -60 -153 -101 -267 -101c-163 0 -254 93 -273 238h-75l50 108h22c1 18 3 36 6 53h-53l51 108h29c62 163 180 250 351 250c158 0 229 -71 266 -147l-175 -93
c-21 43 -54 64 -105 64c-54 0 -93 -25 -119 -74h185z" />
    <glyph glyph-name="Omega" unicode="&#x2126;" horiz-adv-x="810" 
d="M762 0h-323v145c70 54 99 135 99 226c0 78 -37 162 -130 162s-137 -79 -137 -168s28 -166 98 -220v-145h-323v158h117c-77 63 -118 143 -118 244c0 176 143 320 361 320c243 0 358 -156 358 -318c0 -94 -43 -184 -120 -246h118v-158z" />
    <glyph glyph-name="estimated" unicode="&#x212e;" horiz-adv-x="699" 
d="M651 306h-472v-211c46 -44 102 -68 168 -68c111 0 176 56 227 139l36 -23c-61 -93 -133 -155 -263 -155c-182 0 -299 144 -299 318c0 177 114 319 301 319c188 0 298 -143 302 -319zM517 345v173c-43 41 -105 69 -169 69c-66 0 -124 -23 -169 -68v-174h338z" />
    <glyph glyph-name="partialdiff" unicode="&#x2202;" horiz-adv-x="676" 
d="M636 436c0 -61 -8 -120 -26 -176c-54 -165 -162 -275 -322 -275c-149 0 -248 80 -248 230c0 203 164 272 261 272c54 0 105 -15 133 -45h3c0 73 -11 149 -109 149c-34 0 -76 -14 -113 -34c-11 32 -39 95 -50 129c58 41 135 56 194 56c183 0 277 -137 277 -306zM300 139
c48 0 88 50 108 161c-11 32 -36 50 -63 50c-56 0 -94 -70 -94 -141c0 -45 22 -70 49 -70z" />
    <glyph glyph-name="product" unicode="&#x220f;" horiz-adv-x="835" 
d="M763 -193h-215v707h-264v-707h-213v903h692v-903z" />
    <glyph glyph-name="summation" unicode="&#x2211;" horiz-adv-x="735" 
d="M699 -193h-663v131l280 330l-265 306v136h629v-185h-329l215 -253l-230 -280h363v-185z" />
    <glyph glyph-name="uni2219" unicode="&#x2219;" horiz-adv-x="311" 
d="M270 305c0 -75 -42 -123 -129 -123c-57 0 -98 34 -98 90c0 74 42 122 127 122c59 0 100 -34 100 -89z" />
    <glyph glyph-name="radical" unicode="&#x221a;" horiz-adv-x="662" 
d="M651 731l-235 -746h-141l-127 262l-59 -35l-75 120l215 124l111 -259l157 534h154z" />
    <glyph glyph-name="infinity" unicode="&#x221e;" horiz-adv-x="915" 
d="M867 294c0 -124 -92 -207 -215 -207c-91 0 -142 39 -194 97c-47 -49 -105 -97 -193 -97c-120 0 -217 75 -217 204c0 130 101 203 215 203c90 0 144 -44 195 -98c41 45 103 98 192 98c127 0 217 -83 217 -200zM277 222c49 0 80 38 105 67c-25 30 -56 70 -108 70
c-41 0 -77 -22 -77 -69c0 -46 37 -68 80 -68zM638 222c43 0 80 22 80 68c0 47 -36 69 -77 69c-52 0 -83 -40 -108 -70c25 -29 56 -67 105 -67z" />
    <glyph glyph-name="integral" unicode="&#x222b;" horiz-adv-x="589" 
d="M188 -1v509c0 143 73 234 225 234c37 0 98 -12 137 -29l-49 -164c-19 9 -42 16 -58 16c-27 0 -44 -13 -44 -40v-508c0 -143 -73 -234 -225 -234c-37 0 -98 12 -137 29l49 164c19 -9 42 -16 58 -16c27 0 44 13 44 39z" />
    <glyph glyph-name="approxequal" unicode="&#x2248;" horiz-adv-x="695" 
d="M642 348c-51 -40 -106 -80 -174 -80c-94 0 -179 77 -238 77c-61 0 -133 -45 -178 -83v161c50 42 112 81 180 81c91 0 172 -77 235 -77c73 0 123 36 175 82v-161zM642 120c-51 -40 -106 -80 -174 -80c-94 0 -179 77 -238 77c-61 0 -133 -45 -178 -83v161
c50 42 112 81 180 81c91 0 172 -77 235 -77c73 0 123 36 175 82v-161z" />
    <glyph glyph-name="notequal" unicode="&#x2260;" horiz-adv-x="695" 
d="M643 98h-335l-62 -97h-160l62 97h-96v148h190l53 82h-243v148h337l74 116h160l-74 -116h94v-148h-188l-53 -82h241v-148z" />
    <glyph glyph-name="lessequal" unicode="&#x2264;" horiz-adv-x="695" 
d="M643 0h-591v148h591v-148zM643 177l-591 204v143l591 203v-149l-400 -126l400 -126v-149z" />
    <glyph glyph-name="greaterequal" unicode="&#x2265;" horiz-adv-x="695" 
d="M643 0h-591v148h591v-148zM643 381l-591 -204v149l400 126l-400 126v149l591 -203v-143z" />
    <glyph glyph-name="lozenge" unicode="&#x25ca;" horiz-adv-x="670" 
d="M385 710l231 -356l-231 -354h-90l-242 354l242 356h90zM223 354l117 -177l117 178l-117 177z" />
    <glyph glyph-name="uni00A0" unicode="&#xa0;" horiz-adv-x="210" 
 />
    <glyph glyph-name="uni00AD" unicode="&#xad;" horiz-adv-x="402" 
d="M355 185h-342l33 166h342z" />
    <glyph glyph-name="uni02C9" unicode="&#x2c9;" horiz-adv-x="500" 
d="M415 615h-355l25 125h355z" />
    <glyph glyph-name="h.superior" unicode="&#xf700;" horiz-adv-x="457" 
d="M398 296h-154l43 210c3 13 5 26 5 34c0 19 -9 23 -23 23c-15 0 -33 -7 -53 -19l-51 -248h-154l106 522h155l-30 -146c31 14 68 24 106 24c71 0 109 -28 109 -93c0 -14 -4 -44 -8 -62z" />
    <glyph glyph-name="zero.fitted" unicode="&#xe097;" horiz-adv-x="714" 
d="M294 -15c-191 0 -267 112 -267 254c0 207 114 503 395 503c191 0 267 -112 267 -254c0 -207 -114 -503 -395 -503zM401 556c-96 0 -162 -181 -162 -291c0 -56 25 -94 76 -94c96 0 162 181 162 291c0 56 -25 94 -76 94z" />
    <glyph glyph-name="one.fitted" unicode="&#xf6dc;" horiz-adv-x="581" 
d="M463 0h-445l36 175h129l65 322c-37 -16 -98 -32 -151 -38l33 160c95 20 162 64 224 123h148l-115 -567h112z" />
    <glyph glyph-name="two.fitted" unicode="&#xe098;" horiz-adv-x="664" 
d="M544 0h-564l29 145c53 42 135 95 215 157c118 92 189 163 189 226c0 32 -25 47 -64 47c-53 0 -103 -32 -163 -89l-94 124c94 97 186 132 302 132c145 0 240 -74 240 -188c0 -101 -41 -175 -132 -252c-48 -41 -89 -72 -171 -127h249z" />
    <glyph glyph-name="three.fitted" unicode="&#xe099;" horiz-adv-x="634" 
d="M576 278c0 -182 -144 -293 -328 -293c-112 0 -212 27 -296 119l150 123c40 -46 103 -65 148 -65c60 0 116 24 116 94c0 37 -28 70 -93 70c-31 0 -65 -6 -107 -19l21 106l166 147h-254l34 167h511l-26 -129l-171 -152c93 -23 129 -100 129 -168z" />
    <glyph glyph-name="four.fitted" unicode="&#xe09a;" horiz-adv-x="698" 
d="M608 129h-79l-26 -129h-201l26 129h-333l34 170l435 443h190l-92 -454h79zM364 284l36 175l-179 -175h143z" />
    <glyph glyph-name="five.fitted" unicode="&#xe09b;" horiz-adv-x="639" 
d="M583 284c0 -185 -126 -299 -322 -299c-124 0 -230 30 -299 130l154 124c34 -43 77 -77 141 -77c61 0 111 28 111 91c0 44 -34 78 -102 78c-38 0 -72 -7 -114 -25h-104l132 421h448l-34 -167h-294l-24 -78c21 4 49 8 74 8c145 0 233 -75 233 -206z" />
    <glyph glyph-name="six.fitted" unicode="&#xe09c;" horiz-adv-x="682" 
d="M625 277c0 -182 -143 -292 -339 -292c-187 0 -266 125 -266 274c0 236 115 483 417 483c105 0 185 -42 225 -83l-126 -133c-25 26 -63 49 -114 49c-72 0 -125 -29 -154 -116c34 17 98 30 152 30c130 0 205 -93 205 -212zM307 152c60 0 103 39 103 105c0 44 -25 71 -72 71
c-34 0 -74 -11 -100 -20c-7 -24 -9 -48 -9 -64c0 -59 27 -92 78 -92z" />
    <glyph glyph-name="seven.fitted" unicode="&#xe09d;" horiz-adv-x="632" 
d="M657 579l-407 -594h-227l396 574h-148l-24 -104h-185l55 272h570z" />
    <glyph glyph-name="eight.fitted" unicode="&#xe09e;" horiz-adv-x="676" 
d="M606 232c0 -178 -179 -247 -346 -247c-160 0 -259 70 -259 183c0 101 68 163 162 208c-38 24 -72 80 -72 142c0 169 165 224 324 224c153 0 243 -66 243 -174c0 -90 -59 -150 -141 -192c53 -31 89 -80 89 -144zM360 464c30 14 86 42 86 88c0 18 -10 42 -62 42
c-37 0 -82 -16 -82 -60c0 -21 15 -47 58 -70zM291 133c40 0 102 16 102 70c0 29 -19 61 -72 87c-52 -18 -106 -47 -106 -99c0 -23 13 -58 76 -58z" />
    <glyph glyph-name="nine.fitted" unicode="&#xe09f;" horiz-adv-x="682" 
d="M56 450c0 182 143 292 339 292c187 0 266 -125 266 -274c0 -253 -115 -483 -417 -483c-105 0 -183 22 -249 70l121 143c33 -24 82 -47 142 -47c72 0 133 26 155 117c-34 -17 -98 -30 -152 -30c-130 0 -205 93 -205 212zM374 575c-60 0 -103 -39 -103 -105
c0 -44 25 -71 72 -71c34 0 69 8 96 20c7 24 9 48 9 64c0 59 -23 92 -74 92z" />
    <glyph glyph-name="zero.taboldstyle" unicode="&#xe100;" horiz-adv-x="680" 
d="M651 373c0 -216 -119 -388 -362 -388c-188 0 -253 110 -253 225c0 224 114 396 354 396c181 0 261 -94 261 -233zM317 171c82 0 118 94 118 168c0 51 -18 81 -67 81c-87 0 -117 -97 -117 -172c0 -46 18 -77 66 -77z" />
    <glyph glyph-name="one.taboldstyle" unicode="&#xe101;" horiz-adv-x="680" 
d="M519 0h-445l35 175h129l36 178c-37 -16 -98 -32 -150 -38l32 160c98 27 163 61 224 123h148l-86 -423h112z" />
    <glyph glyph-name="two.taboldstyle" unicode="&#xe102;" horiz-adv-x="680" 
d="M552 0h-564l28 145c92 51 154 82 222 122c67 39 146 84 146 137c0 26 -18 37 -49 37c-57 0 -104 -33 -156 -73l-106 127c82 75 166 111 303 111c142 0 243 -53 243 -162c0 -133 -125 -205 -242 -269h210z" />
    <glyph glyph-name="three.taboldstyle" unicode="&#xe103;" horiz-adv-x="680" 
d="M589 119c0 -187 -119 -285 -338 -285c-101 0 -202 23 -277 100l153 134c34 -39 84 -57 129 -57c62 0 123 28 123 98c0 41 -31 71 -91 71c-31 0 -65 -6 -108 -19l21 114l153 149h-238l34 167h511l-27 -129l-173 -162c91 -28 128 -111 128 -181z" />
    <glyph glyph-name="four.taboldstyle" unicode="&#xe104;" horiz-adv-x="680" 
d="M596 -15h-79l-31 -151h-204l31 151h-336l33 170l444 443h187l-92 -454h79zM348 140l36 176l-172 -176h136z" />
    <glyph glyph-name="five.taboldstyle" unicode="&#xe105;" horiz-adv-x="680" 
d="M614 131c0 -207 -135 -297 -343 -297c-101 0 -206 31 -273 100l154 134c34 -39 89 -57 127 -57c63 0 120 29 120 98c0 44 -33 71 -103 71c-38 0 -73 -4 -113 -21h-104l134 432h448l-34 -167h-286l-27 -89c26 6 49 8 74 8c133 0 226 -78 226 -212z" />
    <glyph glyph-name="six.taboldstyle" unicode="&#xe106;" horiz-adv-x="680" 
d="M624 287c0 -179 -115 -302 -322 -302c-190 0 -283 102 -283 262c0 244 120 495 428 495c92 0 164 -26 215 -62l-121 -140c-29 21 -60 38 -111 38c-81 0 -133 -29 -160 -130c46 34 96 47 150 47c122 0 204 -76 204 -208zM304 152c66 0 105 45 105 111c0 44 -26 65 -72 65
c-34 0 -73 -7 -99 -20c-7 -28 -10 -56 -10 -72c0 -59 29 -84 76 -84z" />
    <glyph glyph-name="seven.taboldstyle" unicode="&#xe107;" horiz-adv-x="680" 
d="M677 443l-417 -609h-240l418 589h-147l-21 -104h-188l56 272h570z" />
    <glyph glyph-name="eight.taboldstyle" unicode="&#xe108;" horiz-adv-x="680" 
d="M611 223c0 -178 -168 -238 -344 -238c-160 0 -261 65 -261 183c0 101 62 170 164 211c-41 33 -74 79 -74 141c0 169 155 222 317 222c153 0 250 -64 250 -172c0 -90 -58 -156 -145 -194c52 -32 93 -89 93 -153zM365 464c30 14 86 42 86 88c0 18 -14 42 -62 42
c-51 0 -82 -21 -82 -59c0 -21 15 -48 58 -71zM296 133c40 0 102 16 102 70c0 29 -19 61 -72 87c-52 -18 -106 -51 -106 -99c0 -23 13 -58 76 -58z" />
    <glyph glyph-name="nine.taboldstyle" unicode="&#xe109;" horiz-adv-x="680" 
d="M665 332c0 -266 -128 -498 -431 -498c-72 0 -158 10 -239 68l122 149c52 -39 90 -53 139 -53c79 0 126 47 153 129c-44 -26 -99 -38 -159 -38c-117 0 -192 85 -192 211c0 204 132 306 338 306c188 0 269 -118 269 -274zM445 276c8 39 10 57 10 74c0 54 -24 89 -78 89
c-65 0 -104 -47 -104 -111c0 -46 22 -72 72 -72c32 0 72 11 100 20z" />
    <glyph glyph-name="zero.denominator" unicode="&#xe10a;" 
d="M447 127c0 -154 -79 -289 -256 -289c-131 0 -179 72 -179 162c0 144 72 294 258 294c134 0 177 -78 177 -167zM211 -33c51 0 76 96 76 148c0 32 -14 50 -41 50c-54 0 -76 -90 -76 -149c0 -31 15 -49 41 -49z" />
    <glyph glyph-name="one.denominator" unicode="&#xe10b;" 
d="M349 -152h-336l26 127h95l26 129c-32 -10 -65 -18 -111 -24l26 124c74 17 127 44 167 90h115l-65 -319h83z" />
    <glyph glyph-name="two.denominator" unicode="&#xe10c;" 
d="M399 -152h-423l20 104c73 39 94 49 145 80c80 49 127 80 127 112c0 13 -8 23 -31 23c-30 0 -63 -15 -120 -54l-76 97c57 47 137 84 239 84c93 0 169 -36 169 -122c0 -95 -79 -147 -188 -203h163z" />
    <glyph glyph-name="three.denominator" unicode="&#xe10d;" 
d="M406 18c0 -120 -105 -180 -222 -180c-55 0 -139 8 -183 79l115 78c19 -24 37 -34 69 -34c29 0 53 14 53 46c0 19 -11 32 -39 32c-19 0 -35 -3 -57 -8l13 60l84 71h-152l25 122h334l-20 -96l-83 -78c49 -20 63 -55 63 -92z" />
    <glyph glyph-name="four.denominator" unicode="&#xe10e;" 
d="M414 -88h-55l-13 -64h-159l13 64h-212l24 118l262 264h163l-54 -266h55zM228 20l24 107l-103 -107h79z" />
    <glyph glyph-name="five.denominator" unicode="&#xe10f;" 
d="M401 22c0 -116 -99 -184 -217 -184c-72 0 -141 17 -187 73l111 77c18 -23 44 -32 79 -32c27 0 63 10 63 43c0 19 -15 33 -52 33c-20 0 -47 -5 -68 -17h-87l77 269h318l-24 -117h-198l-10 -40s21 5 53 5c66 0 142 -26 142 -110z" />
    <glyph glyph-name="six.denominator" unicode="&#xe110;" 
d="M411 25c0 -127 -99 -188 -224 -188c-114 0 -172 66 -172 165c0 150 99 291 274 291c59 0 113 -11 162 -46l-81 -92c-33 27 -65 33 -94 33c-44 0 -74 -23 -90 -63c28 11 55 15 89 15c75 0 136 -38 136 -115zM205 -45c28 0 56 18 56 49c0 21 -19 27 -40 27
c-24 0 -40 -5 -55 -10c-2 -12 -2 -15 -2 -22c0 -31 15 -44 41 -44z" />
    <glyph glyph-name="seven.denominator" unicode="&#xe111;" 
d="M452 185l-251 -347h-171l254 339h-97l-15 -76h-130l37 183h393z" />
    <glyph glyph-name="eight.denominator" unicode="&#xe112;" 
d="M407 -3c0 -107 -114 -159 -216 -159c-109 0 -181 36 -181 114c0 55 31 94 85 127c-17 12 -37 33 -37 72c0 104 114 143 217 143c101 0 160 -34 160 -101c0 -60 -34 -90 -73 -114c28 -17 45 -46 45 -82zM242 125c18 8 47 24 47 48c0 11 -6 23 -33 23
c-35 0 -47 -15 -47 -34c0 -13 11 -26 33 -37zM203 -55c21 0 54 10 54 39c0 14 -11 26 -38 39c-31 -11 -57 -28 -57 -50c0 -12 7 -28 41 -28z" />
    <glyph glyph-name="nine.denominator" unicode="&#xe113;" 
d="M45 108c0 120 104 186 225 186s171 -73 171 -167c0 -153 -95 -289 -270 -289c-59 0 -117 11 -166 46l81 92c33 -27 65 -33 94 -33c44 0 77 22 90 62c-28 -11 -49 -14 -83 -14c-89 0 -142 40 -142 117zM248 177c-28 0 -53 -14 -53 -47c0 -21 16 -30 40 -30s42 5 57 10
c1 6 2 15 2 21c0 30 -21 46 -46 46z" />
    <glyph glyph-name="zero.numerator" unicode="&#xe11e;" 
d="M484 575c0 -154 -79 -289 -256 -289c-131 0 -179 72 -179 162c0 144 72 294 258 294c134 0 177 -78 177 -167zM248 415c51 0 76 96 76 148c0 32 -14 50 -41 50c-54 0 -76 -90 -76 -149c0 -31 15 -49 41 -49z" />
    <glyph glyph-name="one.numerator" unicode="&#xe11f;" 
d="M406 296h-336l26 127h95l26 129c-32 -10 -65 -18 -111 -24l26 124c74 17 127 44 167 90h115l-65 -319h83z" />
    <glyph glyph-name="two.numerator" unicode="&#xe120;" 
d="M439 296h-423l20 104c73 39 94 49 145 80c80 49 127 80 127 112c0 13 -8 23 -31 23c-30 0 -63 -15 -120 -54l-76 97c57 47 137 84 239 84c93 0 169 -36 169 -122c0 -95 -79 -147 -188 -203h163z" />
    <glyph glyph-name="three.numerator" unicode="&#xe121;" 
d="M446 466c0 -120 -105 -180 -222 -180c-55 0 -139 8 -183 79l115 78c19 -24 37 -34 69 -34c29 0 53 14 53 46c0 19 -11 32 -39 32c-19 0 -35 -3 -57 -8l13 60l84 71h-152l25 122h334l-20 -96l-83 -78c49 -20 63 -55 63 -92z" />
    <glyph glyph-name="four.numerator" unicode="&#xe122;" 
d="M454 360h-55l-13 -64h-159l13 64h-212l24 118l262 264h163l-54 -266h55zM268 468l24 107l-103 -107h79z" />
    <glyph glyph-name="five.numerator" unicode="&#xe123;" 
d="M441 470c0 -116 -99 -184 -217 -184c-72 0 -141 17 -187 73l111 77c18 -23 44 -32 79 -32c27 0 63 10 63 43c0 19 -15 33 -52 33c-20 0 -47 -5 -68 -17h-87l77 269h318l-24 -117h-198l-10 -40s21 5 53 5c66 0 142 -26 142 -110z" />
    <glyph glyph-name="six.numerator" unicode="&#xe124;" 
d="M452 474c0 -127 -99 -188 -224 -188c-114 0 -172 66 -172 165c0 150 99 291 274 291c59 0 113 -11 162 -46l-81 -92c-33 27 -65 33 -94 33c-44 0 -74 -23 -90 -63c28 11 55 15 89 15c75 0 136 -38 136 -115zM246 404c28 0 56 18 56 49c0 21 -19 27 -40 27
c-24 0 -40 -5 -55 -10c-2 -12 -2 -15 -2 -22c0 -31 15 -44 41 -44z" />
    <glyph glyph-name="seven.numerator" unicode="&#xe125;" 
d="M492 633l-251 -347h-171l254 339h-97l-15 -76h-130l37 183h393z" />
    <glyph glyph-name="eight.numerator" unicode="&#xe126;" 
d="M446 445c0 -107 -114 -159 -216 -159c-109 0 -181 36 -181 114c0 55 31 94 85 127c-17 12 -37 33 -37 72c0 104 114 143 217 143c101 0 160 -34 160 -101c0 -60 -34 -90 -73 -114c28 -17 45 -46 45 -82zM281 573c18 8 47 24 47 48c0 11 -6 23 -33 23
c-35 0 -47 -15 -47 -34c0 -13 11 -26 33 -37zM242 393c21 0 54 10 54 39c0 14 -11 26 -38 39c-31 -11 -57 -28 -57 -50c0 -12 7 -28 41 -28z" />
    <glyph glyph-name="nine.numerator" unicode="&#xe127;" 
d="M80 556c0 120 104 186 225 186s171 -73 171 -167c0 -153 -95 -289 -270 -289c-59 0 -117 11 -166 46l81 92c33 -27 65 -33 94 -33c44 0 77 22 90 62c-28 -11 -49 -14 -83 -14c-89 0 -142 40 -142 117zM283 625c-28 0 -53 -14 -53 -47c0 -21 16 -30 40 -30s42 5 57 10
c1 6 2 15 2 21c0 30 -21 46 -46 46z" />
    <glyph glyph-name="I.alt" horiz-adv-x="330" 
d="M216 0h-219l146 727h220z" />
    <glyph glyph-name="J.alt" horiz-adv-x="459" 
d="M353 42c-36 -178 -158 -235 -306 -235c-79 0 -156 20 -193 33l98 181c24 -11 59 -20 96 -20c66 0 86 46 104 136l120 590h220z" />
    <glyph glyph-name="g.alt" horiz-adv-x="624" 
d="M624 535l-104 -509c-26 -126 -99 -219 -299 -219c-91 0 -182 15 -235 40l73 144c44 -26 102 -44 154 -44c53 0 92 14 110 100c-41 -29 -78 -40 -128 -40c-112 0 -174 82 -174 193c0 179 103 350 295 350c58 0 95 -16 129 -37l90 22h89zM355 206l31 152
c-15 9 -35 17 -59 17c-62 0 -92 -74 -92 -134c0 -46 26 -59 50 -59c22 0 46 7 70 24z" />
    <glyph glyph-name="i.alt" horiz-adv-x="305" 
d="M196 0h-201l108 535h202zM343 674c0 -74 -51 -101 -131 -101c-62 0 -105 22 -105 74c0 74 51 101 131 101c62 0 105 -21 105 -74z" />
    <glyph glyph-name="j.alt" horiz-adv-x="353" 
d="M244 -3c-26 -129 -110 -190 -242 -190c-62 0 -110 8 -138 16l70 166c18 -7 46 -9 62 -9c31 0 45 12 54 55l101 500h202zM392 674c0 -74 -51 -101 -131 -101c-62 0 -105 22 -105 74c0 74 51 101 131 101c62 0 105 -21 105 -74z" />
    <glyph glyph-name="l.alt" horiz-adv-x="325" 
d="M201 0h-201l136 671l222 97z" />
    <glyph glyph-name="Iacute.alt" horiz-adv-x="330" 
d="M216 0h-219l146 727h220zM508 956l-193 -176h-145l144 176h194z" />
    <glyph glyph-name="Icircumflex.alt" horiz-adv-x="330" 
d="M216 0h-219l146 727h220zM486 781h-147l-55 84l-70 -84h-161l177 176h141z" />
    <glyph glyph-name="Idieresis.alt" horiz-adv-x="330" 
d="M216 0h-219l146 727h220zM490 878c0 -57 -34 -97 -102 -97c-49 0 -80 30 -80 70c0 57 34 97 102 97c53 0 80 -30 80 -70zM249 878c0 -57 -34 -97 -102 -97c-49 0 -80 30 -80 70c0 57 34 97 102 97c53 0 80 -30 80 -70z" />
    <glyph glyph-name="Igrave.alt" horiz-adv-x="330" 
d="M216 0h-219l146 727h220zM355 781h-131l-136 176h180z" />
    <glyph glyph-name="dotlessi.alt" horiz-adv-x="305" 
d="M196 0h-201l108 535h202z" />
    <glyph glyph-name="iacute.alt" horiz-adv-x="305" 
d="M196 0h-201l108 535h202zM462 766l-193 -176h-145l144 176h194z" />
    <glyph glyph-name="icircumflex.alt" horiz-adv-x="305" 
d="M196 0h-201l108 535h202zM422 590h-147l-55 84l-70 -84h-161l177 176h141z" />
    <glyph glyph-name="idieresis.alt" horiz-adv-x="305" 
d="M196 0h-201l108 535h202zM440 672c0 -57 -34 -97 -102 -97c-49 0 -80 30 -80 70c0 57 34 97 102 97c53 0 80 -30 80 -70zM199 672c0 -57 -34 -97 -102 -97c-49 0 -80 30 -80 70c0 57 34 97 102 97c53 0 80 -30 80 -70z" />
    <glyph glyph-name="igrave.alt" horiz-adv-x="305" 
d="M196 0h-201l108 535h202zM288 590h-131l-136 176h180z" />
    <glyph glyph-name="lslash.alt" horiz-adv-x="325" 
d="M181 0h-201l44 220l-52 -29l33 162l52 28l59 290l222 97l-54 -262l59 32l-33 -162l-59 -32z" />
    <glyph glyph-name="f_l.alt" horiz-adv-x="685" 
d="M561 0h-201l118 583c-33 8 -51 10 -66 10c-37 0 -64 -15 -71 -50l-3 -13h84l-33 -163h-84l-73 -360c-21 -106 -57 -200 -248 -200c-40 0 -101 10 -126 18l56 147c10 -3 38 -14 65 -14c30 0 44 14 49 41l75 368h-68l33 163h68l2 12c15 107 69 200 260 200
c86 0 145 -14 198 -28l122 54z" />
    <glyph glyph-name="zero.tab" horiz-adv-x="680" 
d="M276 -15c-191 0 -267 112 -267 254c0 207 114 503 395 503c191 0 267 -112 267 -254c0 -207 -114 -503 -395 -503zM383 556c-96 0 -162 -181 -162 -291c0 -56 25 -94 76 -94c96 0 162 181 162 291c0 56 -25 94 -76 94z" />
    <glyph glyph-name="one.tab" horiz-adv-x="680" 
d="M503 0h-445l36 175h129l65 322c-37 -16 -98 -32 -151 -38l33 160c95 20 162 64 224 123h148l-115 -567h112z" />
    <glyph glyph-name="two.tab" horiz-adv-x="680" 
d="M544 0h-564l29 145c53 42 135 95 215 157c118 92 189 163 189 226c0 32 -25 47 -64 47c-53 0 -103 -32 -163 -89l-94 124c94 97 186 132 302 132c145 0 240 -74 240 -188c0 -101 -41 -175 -132 -252c-48 -41 -89 -72 -171 -127h249z" />
    <glyph glyph-name="three.tab" horiz-adv-x="680" 
d="M596 278c0 -182 -144 -293 -328 -293c-112 0 -212 27 -296 119l150 123c40 -46 103 -65 148 -65c60 0 116 24 116 94c0 37 -28 70 -93 70c-31 0 -65 -6 -107 -19l21 106l166 147h-254l34 167h511l-26 -129l-171 -152c93 -23 129 -100 129 -168z" />
    <glyph glyph-name="four.tab" horiz-adv-x="680" 
d="M593 129h-79l-26 -129h-201l26 129h-333l34 170l435 443h190l-92 -454h79zM349 284l36 175l-179 -175h143z" />
    <glyph glyph-name="five.tab" horiz-adv-x="680" 
d="M602 284c0 -185 -126 -299 -322 -299c-124 0 -230 30 -299 130l154 124c34 -43 77 -77 141 -77c61 0 111 28 111 91c0 44 -34 78 -102 78c-38 0 -72 -7 -114 -25h-104l132 421h448l-34 -167h-294l-24 -78c21 4 49 8 74 8c145 0 233 -75 233 -206z" />
    <glyph glyph-name="seven.tab" horiz-adv-x="680" 
d="M680 579l-407 -594h-227l396 574h-148l-24 -104h-185l55 272h570z" />
    <glyph glyph-name="six.tab" horiz-adv-x="680" 
d="M625 277c0 -182 -143 -292 -339 -292c-187 0 -266 125 -266 274c0 236 115 483 417 483c105 0 185 -42 225 -83l-126 -133c-25 26 -63 49 -114 49c-72 0 -125 -29 -154 -116c34 17 98 30 152 30c130 0 205 -93 205 -212zM307 152c60 0 103 39 103 105c0 44 -25 71 -72 71
c-34 0 -74 -11 -100 -20c-7 -24 -9 -48 -9 -64c0 -59 27 -92 78 -92z" />
    <glyph glyph-name="eight.tab" horiz-adv-x="680" 
d="M606 232c0 -178 -179 -247 -346 -247c-160 0 -259 70 -259 183c0 101 68 163 162 208c-38 24 -72 80 -72 142c0 169 165 224 324 224c153 0 243 -66 243 -174c0 -90 -59 -150 -141 -192c53 -31 89 -80 89 -144zM360 464c30 14 86 42 86 88c0 18 -10 42 -62 42
c-37 0 -82 -16 -82 -60c0 -21 15 -47 58 -70zM291 133c40 0 102 16 102 70c0 29 -19 61 -72 87c-52 -18 -106 -47 -106 -99c0 -23 13 -58 76 -58z" />
    <glyph glyph-name="nine.tab" horiz-adv-x="680" 
d="M56 450c0 182 143 292 339 292c187 0 266 -125 266 -274c0 -253 -115 -483 -417 -483c-105 0 -183 22 -249 70l121 143c33 -24 82 -47 142 -47c72 0 133 26 155 117c-34 -17 -98 -30 -152 -30c-130 0 -205 93 -205 212zM374 575c-60 0 -103 -39 -103 -105
c0 -44 25 -71 72 -71c34 0 69 8 96 20c7 24 9 48 9 64c0 59 -23 92 -74 92z" />
    <glyph glyph-name="uni2215" unicode="&#x2215;" horiz-adv-x="150" 
d="M438 727l-573 -878h-157l573 878h157z" />
    <glyph glyph-name="IJ.alt" horiz-adv-x="846" 
d="M216 0h-219l146 727h220zM740 42c-36 -178 -158 -235 -306 -235c-79 0 -156 20 -193 33l98 181c24 -11 59 -20 96 -20c66 0 86 46 104 136l120 590h220z" />
    <glyph glyph-name="Ibreve.alt" horiz-adv-x="330" 
d="M216 0h-219l146 727h220zM506 924c-32 -71 -86 -144 -236 -144c-142 0 -190 72 -198 144h133c9 -23 31 -40 75 -40c45 0 74 17 93 40h133z" />
    <glyph glyph-name="Idotaccent.alt" horiz-adv-x="330" 
d="M216 0h-219l146 727h220zM364 871c0 -57 -34 -97 -102 -97c-49 0 -80 30 -80 70c0 57 34 97 102 97c53 0 80 -30 80 -70z" />
    <glyph glyph-name="Imacron.alt" horiz-adv-x="330" 
d="M216 0h-219l146 727h220zM435 761h-355l25 125h355z" />
    <glyph glyph-name="Iogonek.alt" horiz-adv-x="330" 
d="M289 -153c-58 -30 -111 -40 -165 -40c-80 0 -118 37 -118 87c0 38 17 73 39 106h-48l146 727h220l-147 -727h-42c-14 -24 -24 -46 -24 -69c0 -15 9 -23 28 -23c26 0 53 9 89 28z" />
    <glyph glyph-name="Itilde.alt" horiz-adv-x="330" 
d="M216 0h-219l146 727h220zM487 930c-24 -84 -72 -150 -172 -150c-35 0 -60 7 -80 15c-13 5 -32 15 -47 15c-18 0 -31 -8 -38 -30h-115c22 82 73 150 169 150c43 0 72 -13 108 -26c9 -3 15 -4 20 -4c21 0 34 9 39 30h116z" />
    <glyph glyph-name="Jcircumflex.alt" horiz-adv-x="459" 
d="M353 42c-36 -178 -158 -235 -306 -235c-79 0 -156 20 -193 33l98 181c24 -11 59 -20 96 -20c66 0 86 46 104 136l120 590h220zM589 781h-147l-55 84l-70 -84h-161l177 176h141z" />
    <glyph glyph-name="f_f_l.alt" horiz-adv-x="1048" 
d="M391 -1l75 368h-161l-73 -360c-21 -106 -57 -200 -248 -200c-40 0 -101 10 -126 18l56 147c10 -3 38 -14 65 -14c30 0 44 14 49 41l75 368h-68l33 163h68l2 12c15 107 57 200 248 200c40 0 101 -10 126 -18l-56 -147c-10 3 -38 14 -65 14c-30 0 -44 -14 -49 -41l-4 -20
h161l2 12c15 107 69 200 260 200c86 0 145 -14 198 -28l122 54l-157 -768h-201l118 583c-33 8 -51 10 -66 10c-37 0 -64 -15 -71 -50l-3 -13h84l-33 -163h-84l-73 -360c-21 -106 -57 -200 -248 -200c-40 0 -101 10 -126 18l56 147c10 -3 38 -14 65 -14c30 0 44 14 49 41z
" />
    <glyph glyph-name="fraction.tab" horiz-adv-x="93" 
d="M400 727l-616 -727h-173l625 727h164z" />
    <glyph glyph-name="gbreve.alt" horiz-adv-x="624" 
d="M624 535l-104 -509c-26 -126 -99 -219 -299 -219c-91 0 -182 15 -235 40l73 144c44 -26 102 -44 154 -44c53 0 92 14 110 100c-41 -29 -78 -40 -128 -40c-112 0 -174 82 -174 193c0 179 103 350 295 350c58 0 95 -16 129 -37l90 22h89zM355 206l31 152
c-15 9 -35 17 -59 17c-62 0 -92 -74 -92 -134c0 -46 26 -59 50 -59c22 0 46 7 70 24zM609 750c-32 -71 -86 -144 -236 -144c-142 0 -190 72 -198 144h133c9 -23 31 -40 75 -40c45 0 74 17 93 40h133z" />
    <glyph glyph-name="gcircumflex.alt" horiz-adv-x="624" 
d="M624 535l-104 -509c-26 -126 -99 -219 -299 -219c-91 0 -182 15 -235 40l73 144c44 -26 102 -44 154 -44c53 0 92 14 110 100c-41 -29 -78 -40 -128 -40c-112 0 -174 82 -174 193c0 179 103 350 295 350c58 0 95 -16 129 -37l90 22h89zM355 206l31 152
c-15 9 -35 17 -59 17c-62 0 -92 -74 -92 -134c0 -46 26 -59 50 -59c22 0 46 7 70 24zM591 590h-147l-55 84l-70 -84h-161l177 176h141z" />
    <glyph glyph-name="gcommaaccent.alt" horiz-adv-x="624" 
d="M624 535l-104 -509c-26 -126 -99 -219 -299 -219c-91 0 -182 15 -235 40l73 144c44 -26 102 -44 154 -44c53 0 92 14 110 100c-41 -29 -78 -40 -128 -40c-112 0 -174 82 -174 193c0 179 103 350 295 350c58 0 95 -16 129 -37l90 22h89zM355 206l31 152
c-15 9 -35 17 -59 17c-62 0 -92 -74 -92 -134c0 -46 26 -59 50 -59c22 0 46 7 70 24zM267 659c0 46 35 87 62 113h100c-13 -15 -25 -44 -28 -57c31 -5 40 -24 40 -44c0 -52 -49 -78 -97 -78c-51 0 -77 26 -77 66z" />
    <glyph glyph-name="gdotaccent.alt" horiz-adv-x="624" 
d="M624 535l-104 -509c-26 -126 -99 -219 -299 -219c-91 0 -182 15 -235 40l73 144c44 -26 102 -44 154 -44c53 0 92 14 110 100c-41 -29 -78 -40 -128 -40c-112 0 -174 82 -174 193c0 179 103 350 295 350c58 0 95 -16 129 -37l90 22h89zM355 206l31 152
c-15 9 -35 17 -59 17c-62 0 -92 -74 -92 -134c0 -46 26 -59 50 -59c22 0 46 7 70 24zM450 690c0 -57 -34 -97 -102 -97c-49 0 -80 30 -80 70c0 57 34 97 102 97c53 0 80 -30 80 -70z" />
    <glyph glyph-name="i.dot" horiz-adv-x="347" 
d="M242 0h-202l59 279c7 31 16 74 16 83c0 8 -2 13 -10 13s-22 -9 -36 -20l-57 116c68 41 149 74 213 74c76 0 104 -37 104 -94c0 -17 -5 -51 -10 -76zM372 674c0 -74 -51 -101 -131 -101c-62 0 -105 22 -105 74c0 74 51 101 131 101c62 0 105 -21 105 -74z" />
    <glyph glyph-name="ibreve.alt" horiz-adv-x="305" 
d="M196 0h-201l108 535h202zM452 750c-32 -71 -86 -144 -236 -144c-142 0 -190 72 -198 144h133c9 -23 31 -40 75 -40c45 0 74 17 93 40h133z" />
    <glyph glyph-name="ij.alt" horiz-adv-x="637" 
d="M196 0h-201l108 535h202zM343 674c0 -74 -51 -101 -131 -101c-62 0 -105 22 -105 74c0 74 51 101 131 101c62 0 105 -21 105 -74zM528 -3c-26 -129 -110 -190 -242 -190c-62 0 -110 8 -138 16l70 166c18 -7 46 -9 62 -9c31 0 45 12 54 55l101 500h202zM676 674
c0 -74 -51 -101 -131 -101c-62 0 -105 22 -105 74c0 74 51 101 131 101c62 0 105 -21 105 -74z" />
    <glyph glyph-name="imacron.alt" horiz-adv-x="305" 
d="M196 0h-201l108 535h202zM394 615h-355l25 125h355z" />
    <glyph glyph-name="iogonek.alt" horiz-adv-x="305" 
d="M274 -153c-58 -30 -111 -40 -165 -40c-80 0 -118 37 -118 87c0 38 17 73 39 106h-35l108 535h202l-109 -535h-37c-14 -24 -24 -46 -24 -69c0 -15 9 -23 28 -23c26 0 53 9 89 28zM343 674c0 -74 -51 -101 -131 -101c-62 0 -105 22 -105 74c0 74 51 101 131 101
c62 0 105 -21 105 -74z" />
    <glyph glyph-name="itilde.alt" horiz-adv-x="305" 
d="M196 0h-201l108 535h202zM444 753c-24 -84 -72 -150 -172 -150c-35 0 -60 7 -80 15c-13 5 -32 15 -47 15c-18 0 -31 -8 -38 -30h-115c22 82 73 150 169 150c43 0 72 -13 108 -26c9 -3 15 -4 20 -4c21 0 34 9 39 30h116z" />
    <glyph glyph-name="jcircumflex.alt" horiz-adv-x="353" 
d="M468 590h-147l-55 84l-70 -84h-161l177 176h141zM244 -3c-26 -129 -110 -190 -242 -190c-62 0 -110 8 -138 16l70 166c18 -7 46 -9 62 -9c31 0 45 12 54 55l101 500h202z" />
    <glyph glyph-name="lacute.alt" horiz-adv-x="325" 
d="M181 0h-201l136 671l222 97zM504 956l-193 -176h-145l144 176h194z" />
    <glyph glyph-name="lcaron.alt" horiz-adv-x="445" 
d="M394 385h-124c47 45 98 115 109 145c-40 12 -56 47 -56 82c0 69 41 114 117 114c57 0 95 -32 95 -92c0 -92 -80 -197 -141 -249zM153 0h-201l136 671l222 97z" />
    <glyph glyph-name="lcommaaccent.alt" horiz-adv-x="325" 
d="M181 0h-201l136 671l222 97zM167 -89c0 -46 -35 -87 -62 -113h-100c13 15 25 44 28 57c-31 5 -40 24 -40 44c0 52 49 78 97 78c51 0 77 -26 77 -66z" />
    <glyph glyph-name="ldot.alt" horiz-adv-x="465" 
d="M181 0h-201l136 671l222 97zM488 368c0 -57 -34 -97 -102 -97c-49 0 -80 30 -80 70c0 57 34 97 102 97c53 0 80 -30 80 -70z" />
    <glyph glyph-name="uni021A" unicode="&#x21a;" horiz-adv-x="657" 
d="M687 527h-198l-107 -527h-220l107 527h-204l40 200h622zM346 -89c0 -46 -35 -87 -62 -113h-100c13 15 25 44 28 57c-31 5 -40 24 -40 44c0 52 49 78 97 78c51 0 77 -26 77 -66z" />
    <glyph glyph-name="uni021B" unicode="&#x21b;" horiz-adv-x="432" 
d="M360 5c-36 -11 -108 -20 -149 -20c-111 0 -163 42 -163 121c0 20 4 52 9 76l37 185h-74l34 168h74l28 137l216 69l-42 -206h112l-34 -168h-112l-26 -131c-4 -20 -7 -36 -7 -45c0 -24 12 -28 39 -28c13 0 35 4 50 9zM280 -89c0 -46 -35 -87 -62 -113h-100
c13 15 25 44 28 57c-31 5 -40 24 -40 44c0 52 49 78 97 78c51 0 77 -26 77 -66z" />
    <glyph glyph-name="onesuperior" unicode="&#xb9;" 
d="M420 296h-336l26 127h95l26 129c-34 -12 -65 -18 -111 -24l26 124c77 19 133 50 172 90h110l-65 -319h83z" />
    <glyph glyph-name="twosuperior" unicode="&#xb2;" 
d="M449 296h-423l20 104c68 35 126 67 176 97c53 32 97 58 97 91c0 16 -9 26 -32 26c-31 0 -70 -16 -119 -54l-76 98c62 52 127 84 235 84c99 0 172 -37 172 -123c0 -103 -96 -155 -180 -196h156z" />
    <glyph glyph-name="threesuperior" unicode="&#xb3;" 
d="M450 461c0 -118 -103 -178 -220 -178c-55 0 -148 16 -191 90l123 70c15 -22 31 -34 61 -34c26 0 58 12 58 44c0 19 -15 34 -42 34c-19 0 -38 -2 -57 -8l13 60l98 76h-165l24 117h339l-20 -100l-85 -76c50 -20 64 -58 64 -95z" />
    <glyph glyph-name="uni0162" unicode="&#x162;" horiz-adv-x="657" 
d="M687 527h-198l-107 -527h-220l107 527h-204l40 200h622zM346 -89c0 -46 -35 -87 -62 -113h-100c13 15 25 44 28 57c-31 5 -40 24 -40 44c0 52 49 78 97 78c51 0 77 -26 77 -66z" />
    <glyph glyph-name="uni0163" unicode="&#x163;" horiz-adv-x="432" 
d="M360 5c-36 -11 -108 -20 -149 -20c-111 0 -163 42 -163 121c0 20 4 52 9 76l37 185h-74l34 168h74l28 137l216 69l-42 -206h112l-34 -168h-112l-26 -131c-4 -20 -7 -36 -7 -45c0 -24 12 -28 39 -28c13 0 35 4 50 9zM280 -89c0 -46 -35 -87 -62 -113h-100
c13 15 25 44 28 57c-31 5 -40 24 -40 44c0 52 49 78 97 78c51 0 77 -26 77 -66z" />
    <glyph glyph-name="dotlessj" unicode="&#x237;" horiz-adv-x="347" 
d="M48 35l51 244c7 31 16 74 16 83c0 8 -2 13 -10 13s-22 -9 -36 -20l-57 116c68 41 147 74 211 74c79 0 106 -37 106 -94c0 -17 -4 -51 -9 -76l-78 -378c-27 -129 -110 -190 -242 -190c-61 0 -109 8 -137 16l70 166c19 -7 44 -9 61 -9c31 0 45 12 54 55z" />
    <glyph glyph-name="uni0394" unicode="&#x394;" horiz-adv-x="724" 
d="M672 0h-717v101l234 609h254l229 -610v-100zM305 532l-7 -35l-106 -326h233l-107 326l-7 35h-6z" />
    <glyph glyph-name="afii61289" unicode="&#x2113;" horiz-adv-x="520" 
d="M423 139l35 -94c-58 -41 -118 -60 -174 -60c-93 0 -164 41 -164 163v19l-46 -38l-50 92c15 13 32 29 87 74v188c0 146 69 244 200 244c114 0 157 -78 157 -153c0 -114 -59 -215 -176 -311v-90c0 -58 18 -69 44 -69c19 0 57 10 87 35zM357 579c0 42 -17 48 -31 48
c-27 0 -34 -31 -34 -72v-147c29 27 65 90 65 171z" />
    <glyph glyph-name="uniF8FF" unicode="&#xf8ff;" horiz-adv-x="500" 
d="M-55 0l134 665h475l-135 -665h-474zM146 618l112 -243l211 243h-323zM109 575l-99 -484c0 -1 211 242 211 242zM489 575l-211 -242l112 -243zM353 48l-112 242l-211 -242h323z" />
    <glyph glyph-name="dollar.alt" horiz-adv-x="629" 
d="M464 820l-19 -96c80 -17 150 -61 182 -122l-160 -101c-32 59 -81 77 -127 77c-31 0 -65 -13 -65 -48c0 -38 41 -49 122 -85c96 -43 172 -105 172 -206c0 -116 -70 -230 -274 -242l-24 -124h-128l26 130c-92 19 -153 69 -187 139l166 100c35 -69 87 -90 143 -90
c35 0 71 15 71 54c0 37 -32 55 -147 103c-89 37 -149 94 -149 189c0 146 108 218 252 231l18 91h128z" />
    <glyph glyph-name="percent.alt" horiz-adv-x="1120" 
d="M948 727l-618 -727h-168l627 727h159zM1059 262c0 -144 -80 -268 -244 -268c-117 0 -182 56 -182 149c0 149 80 270 243 270c129 0 183 -64 183 -151zM829 119c58 0 76 64 76 122c0 27 -12 47 -43 47c-56 0 -75 -64 -75 -121c0 -29 12 -48 42 -48zM488 591
c0 -144 -80 -268 -244 -268c-117 0 -182 56 -182 149c0 149 80 270 243 270c129 0 183 -64 183 -151zM258 448c58 0 76 64 76 122c0 27 -12 47 -43 47c-56 0 -75 -64 -75 -121c0 -29 12 -48 42 -48z" />
    <glyph glyph-name="perthousand.alt" horiz-adv-x="1576" 
d="M948 727l-618 -727h-168l627 727h159zM1515 262c0 -144 -80 -268 -244 -268c-117 0 -182 56 -182 149c0 149 80 270 243 270c129 0 183 -64 183 -151zM1285 119c58 0 76 64 76 122c0 27 -12 47 -43 47c-56 0 -75 -64 -75 -121c0 -29 12 -48 42 -48zM488 591
c0 -144 -80 -268 -244 -268c-117 0 -182 56 -182 149c0 149 80 270 243 270c129 0 183 -64 183 -151zM258 448c58 0 76 64 76 122c0 27 -12 47 -43 47c-56 0 -75 -64 -75 -121c0 -29 12 -48 42 -48zM1059 262c0 -144 -80 -268 -244 -268c-117 0 -182 56 -182 149
c0 149 80 270 243 270c129 0 183 -64 183 -151zM829 119c58 0 76 64 76 122c0 27 -12 47 -43 47c-56 0 -75 -64 -75 -121c0 -29 12 -48 42 -48z" />
    <glyph glyph-name="onequarter.alt" horiz-adv-x="1113" 
d="M948 727l-618 -727h-168l627 727h159zM383 332h-318l27 128h87l19 95c-28 -8 -59 -14 -101 -20l25 126c74 17 116 39 156 81h114l-57 -282h75zM966 47h-50l-11 -56h-153l11 56h-197l24 116l242 238h157l-48 -235h50zM794 153l18 88l-82 -88h64z" />
    <glyph glyph-name="onehalf.alt" horiz-adv-x="1113" 
d="M947 727l-618 -727h-168l627 727h159zM383 332h-318l26 128h87l19 95c-28 -8 -59 -14 -101 -20l26 126c73 17 115 39 155 81h114l-57 -282h75zM1002 0h-398l21 105c53 28 83 44 146 80c52 30 100 57 100 84c0 7 -3 16 -24 16c-31 0 -65 -13 -113 -50l-75 92
c58 46 123 83 223 83c77 0 166 -25 166 -104c0 -91 -97 -145 -162 -178h142z" />
    <glyph glyph-name="threequarters.alt" horiz-adv-x="1113" 
d="M949 727l-618 -727h-168l627 727h159zM438 492c0 -113 -103 -169 -212 -169c-51 0 -128 12 -173 83l114 71c14 -24 32 -33 59 -33c21 0 47 11 47 37c0 13 -10 23 -31 23c-17 0 -33 -3 -58 -9l12 63l77 56h-139l24 119h316l-20 -97l-66 -61c33 -14 50 -49 50 -83zM966 47
h-50l-11 -56h-153l11 56h-197l24 116l242 238h157l-48 -235h50zM794 153l18 88l-82 -88h64z" />
    <glyph glyph-name="onethird.alt" horiz-adv-x="1113" 
d="M948 727l-618 -727h-168l627 727h159zM383 332h-318l27 128h87l19 95c-28 -8 -59 -14 -101 -20l25 126c74 17 116 39 156 81h114l-57 -282h75zM1017 159c0 -113 -90 -168 -200 -168c-51 0 -138 8 -184 79l113 75c15 -24 33 -32 60 -32c21 0 46 8 46 34c0 13 -7 25 -30 25
c-17 0 -29 -1 -59 -9l13 63l76 56h-138l24 119h316l-20 -97l-67 -61c34 -16 50 -51 50 -84z" />
    <glyph glyph-name="twothirds.alt" horiz-adv-x="1113" 
d="M968 727l-618 -727h-168l627 727h159zM432 332h-398l22 105c53 28 89 47 152 84c42 25 92 54 92 80c0 7 -3 16 -23 16c-31 0 -64 -13 -113 -50l-75 92c58 46 122 83 230 83c77 0 160 -26 160 -106c0 -82 -81 -137 -158 -176h138zM1017 159c0 -113 -95 -168 -200 -168
c-51 0 -138 8 -184 79l113 75c15 -24 33 -32 60 -32c21 0 46 8 46 34c0 13 -7 25 -30 25c-17 0 -29 -1 -59 -9l13 63l76 56h-138l24 119h316l-20 -97l-67 -61c34 -16 50 -51 50 -84z" />
    <glyph glyph-name="oneeighth.alt" horiz-adv-x="1113" 
d="M948 727l-618 -727h-168l627 727h159zM383 332h-318l27 128h87l19 95c-28 -8 -59 -14 -101 -20l25 126c74 17 116 39 156 81h114l-57 -282h75zM1014 141c0 -104 -110 -150 -207 -150c-104 0 -168 48 -168 111c0 47 27 84 71 109c-11 11 -28 32 -28 64
c0 98 106 135 200 135c96 0 155 -39 155 -100c0 -41 -21 -71 -58 -98c21 -17 35 -41 35 -71zM821 95c19 0 46 7 46 30c0 11 -9 25 -32 36c-18 -4 -49 -18 -49 -42c0 -9 6 -24 35 -24zM865 314c-14 0 -37 -6 -37 -28c0 -12 10 -24 28 -34c14 6 40 18 40 38c0 11 -7 24 -31 24
z" />
    <glyph glyph-name="threeeighths.alt" horiz-adv-x="1113" 
d="M949 727l-618 -727h-168l627 727h159zM1014 141c0 -104 -110 -150 -207 -150c-104 0 -168 48 -168 111c0 47 27 84 71 109c-11 11 -28 32 -28 64c0 98 106 135 200 135c96 0 155 -39 155 -100c0 -41 -21 -71 -58 -98c21 -17 35 -41 35 -71zM821 95c19 0 46 7 46 30
c0 11 -9 25 -32 36c-18 -4 -49 -18 -49 -42c0 -9 6 -24 35 -24zM865 314c-14 0 -37 -6 -37 -28c0 -12 10 -24 28 -34c14 6 40 18 40 38c0 11 -7 24 -31 24zM433 491c0 -113 -101 -168 -200 -168c-51 0 -138 8 -184 79l113 75c15 -24 33 -33 60 -33c21 0 46 9 46 35
c0 13 -7 25 -30 25c-17 0 -29 -1 -59 -9l13 63l76 56h-138l24 119h316l-20 -97l-67 -61c34 -16 50 -51 50 -84z" />
    <glyph glyph-name="fiveeighths.alt" horiz-adv-x="1113" 
d="M949 727l-618 -727h-168l627 727h159zM435 491c0 -104 -92 -168 -204 -168c-66 0 -136 17 -178 75l108 65c23 -23 52 -27 68 -27c21 0 56 6 56 35c0 16 -16 27 -43 27c-17 0 -41 -6 -59 -16h-88l72 251h302l-23 -114h-181l-6 -30c8 1 26 3 45 3c61 0 131 -22 131 -101z
M1014 141c0 -104 -110 -150 -207 -150c-104 0 -168 48 -168 111c0 47 27 84 71 109c-11 11 -28 32 -28 64c0 98 106 135 200 135c96 0 155 -39 155 -100c0 -41 -21 -71 -58 -98c21 -17 35 -41 35 -71zM821 95c19 0 46 7 46 30c0 11 -9 25 -32 36c-18 -4 -49 -18 -49 -42
c0 -9 6 -24 35 -24zM865 314c-14 0 -37 -6 -37 -28c0 -12 10 -24 28 -34c14 6 40 18 40 38c0 11 -7 24 -31 24z" />
    <glyph glyph-name="seveneighths.alt" horiz-adv-x="1113" 
d="M949 727l-618 -727h-168l627 727h159zM506 634l-230 -311h-164l228 299h-76l-13 -67h-124l36 178h363zM1014 141c0 -104 -110 -150 -207 -150c-104 0 -168 48 -168 111c0 47 27 84 71 109c-11 11 -28 32 -28 64c0 98 106 135 200 135c96 0 155 -39 155 -100
c0 -41 -21 -71 -58 -98c21 -17 35 -41 35 -71zM821 95c19 0 46 7 46 30c0 11 -9 25 -32 36c-18 -4 -49 -18 -49 -42c0 -9 6 -24 35 -24zM865 314c-14 0 -37 -6 -37 -28c0 -12 10 -24 28 -34c14 6 40 18 40 38c0 11 -7 24 -31 24z" />
    <glyph glyph-name="plus.alt" horiz-adv-x="695" 
d="M643 282h-221v-221h-148v221h-222v148h222v222h148v-222h221v-148z" />
    <glyph glyph-name="minus.alt" horiz-adv-x="695" 
d="M643 282h-591v148h591v-148z" />
    <glyph glyph-name="multiply.alt" horiz-adv-x="695" 
d="M648 161l-105 -105l-196 195l-194 -195l-105 105l195 195l-195 194l105 105l194 -195l194 194l105 -105l-194 -193z" />
    <glyph glyph-name="less.alt" horiz-adv-x="695" 
d="M643 61l-591 224v143l591 223v-149l-400 -146l400 -146v-149z" />
    <glyph glyph-name="greater.alt" horiz-adv-x="695" 
d="M643 285l-591 -224v149l400 146l-400 146v149l591 -223v-143z" />
    <glyph glyph-name="logicalnot.alt" horiz-adv-x="695" 
d="M643 158h-148v230h-443v148h591v-378z" />
    <glyph glyph-name="equal.alt" horiz-adv-x="695" 
d="M643 388h-591v148h591v-148zM643 158h-591v148h591v-148z" />
    <glyph glyph-name="divide.alt" horiz-adv-x="695" 
d="M435 581c0 -60 -32 -84 -87 -84c-63 0 -87 34 -87 84c0 55 29 85 87 85c59 0 87 -29 87 -85zM643 282h-591v148h591v-148zM435 129c0 -60 -32 -84 -87 -84c-63 0 -87 34 -87 84c0 55 29 85 87 85c59 0 87 -29 87 -85z" />
    <glyph glyph-name="plusminus.alt" horiz-adv-x="695" 
d="M643 437h-221v-181h-148v181h-222v148h222v202h148v-202h221v-148zM643 60h-591v148h591v-148z" />
    <glyph glyph-name="periodcentered.alt" horiz-adv-x="311" 
d="M269 367c0 -75 -42 -123 -129 -123c-57 0 -98 34 -98 90c0 74 42 122 127 122c59 0 100 -34 100 -89z" />
    </font>
</defs>
</svg>
