<?xml version="1.0" standalone="no"?>
<!DOCTYPE svg PUBLIC "-//W3C//DTD SVG 1.1//EN" "http://www.w3.org/Graphics/SVG/1.1/DTD/svg11.dtd" >
<svg xmlns="http://www.w3.org/2000/svg" xmlns:xlink="http://www.w3.org/1999/xlink" version="1.1">
<metadata>
Created by FontForge 20160407 at Tue Sep 27 17:00:45 2016
 By Jimmy Warting
Copyright 2009, 2010 Monotype Imaging Inc. All rights reserved.
</metadata>
<defs>
<font id="FelbridgePro-Italic" horiz-adv-x="468" >
  <font-face 
    font-family="Felbridge Pro"
    font-weight="400"
    font-style="italic"
    font-stretch="normal"
    units-per-em="1000"
    panose-1="2 0 5 3 4 0 3 9 3 4"
    ascent="765"
    descent="-235"
    x-height="512"
    cap-height="727"
    bbox="-264 -233 1436 956"
    underline-thickness="50"
    underline-position="-100"
    slope="-11"
    stemh="78"
    stemv="88"
    unicode-range="U+0020-FB04"
  />
<missing-glyph horiz-adv-x="500" 
d="M12 0v665h475v-665h-475zM88 618l162 -243l161 243h-323zM60 575v-484c0 -1 161 242 161 242zM440 575l-162 -242l162 -243v485zM411 48l-161 242l-162 -242h323z" />
    <glyph glyph-name="f_f" unicode="ff" horiz-adv-x="590" 
d="M731 724l-32 -69c-21 10 -52 18 -76 18c-75 0 -88 -46 -100 -109l-10 -52h114l-15 -66h-114l-96 -469c-22 -106 -60 -170 -183 -170c-33 0 -67 4 -98 13l24 68c23 -7 51 -12 78 -12c65 0 87 58 97 108l93 462h-196l-96 -469c-22 -106 -60 -170 -183 -170
c-33 0 -67 4 -98 13l24 68c23 -7 51 -12 78 -12c65 0 87 58 97 108l93 462h-78l15 66h78l8 40c22 110 47 190 195 190c33 0 70 -6 100 -18l-32 -69c-21 10 -52 18 -76 18c-75 0 -88 -46 -100 -109l-10 -52h196l8 40c22 110 47 190 195 190c33 0 70 -6 100 -18z" />
    <glyph glyph-name="f_f_i" unicode="ffi" horiz-adv-x="818" 
d="M816 663c0 -33 -22 -51 -67 -51c-31 0 -49 9 -49 36l1 10c-23 10 -59 15 -78 15c-75 0 -88 -46 -100 -109l-10 -52h206c23 0 59 -6 59 -57c0 -12 -2 -26 -13 -79l-77 -376h-85l84 410c2 12 4 19 4 23c0 8 -4 13 -12 13h-181l-96 -469c-22 -106 -60 -170 -183 -170
c-33 0 -67 4 -98 13l24 68c23 -7 51 -12 78 -12c65 0 87 58 97 108l93 462h-196l-96 -469c-22 -106 -60 -170 -183 -170c-33 0 -67 4 -98 13l24 68c23 -7 51 -12 78 -12c65 0 87 58 97 108l93 462h-78l15 66h78l8 40c22 110 47 190 195 190c33 0 70 -6 100 -18l-32 -69
c-21 10 -52 18 -76 18c-75 0 -88 -46 -100 -109l-10 -52h196l8 40c22 110 47 190 195 190c39 0 107 -13 149 -33c19 -9 36 -21 36 -46z" />
    <glyph glyph-name="f_f_l" unicode="ffl" horiz-adv-x="856" 
d="M450 724l-32 -69c-21 10 -52 18 -76 18c-75 0 -88 -46 -100 -109l-10 -52h196l8 40c22 110 47 190 195 190c50 0 93 -14 122 -27l83 40l-123 -605c-3 -17 -6 -36 -6 -54c0 -34 17 -44 48 -44c20 0 34 3 53 9l9 -65c-27 -8 -61 -11 -92 -11c-64 0 -106 18 -106 88
c0 25 4 49 9 73l100 496c-34 19 -76 31 -105 31c-75 0 -88 -46 -100 -109l-10 -52h114l-15 -66h-114l-96 -469c-22 -106 -60 -170 -183 -170c-33 0 -67 4 -98 13l24 68c23 -7 51 -12 78 -12c65 0 87 58 97 108l93 462h-196l-96 -469c-22 -106 -60 -170 -183 -170
c-33 0 -67 4 -98 13l24 68c23 -7 51 -12 78 -12c65 0 87 58 97 108l93 462h-78l15 66h78l8 40c22 110 47 190 195 190c33 0 70 -6 100 -18z" />
    <glyph glyph-name="fi" unicode="fi" horiz-adv-x="537" 
d="M535 663c0 -33 -22 -51 -67 -51c-31 0 -49 9 -49 36l1 10c-23 10 -59 15 -78 15c-75 0 -88 -46 -100 -109l-10 -52h206c23 0 59 -6 59 -57c0 -12 -2 -26 -13 -79l-77 -376h-85l84 410c2 12 4 19 4 23c0 8 -4 13 -12 13h-181l-96 -469c-22 -106 -60 -170 -183 -170
c-33 0 -67 4 -98 13l24 68c23 -7 51 -12 78 -12c65 0 87 58 97 108l93 462h-78l15 66h78l8 40c22 110 47 190 195 190c39 0 107 -13 149 -33c19 -9 36 -21 36 -46z" />
    <glyph glyph-name="fl" unicode="fl" horiz-adv-x="575" 
d="M555 755l-123 -605c-3 -17 -6 -36 -6 -54c0 -34 17 -44 48 -44c20 0 34 3 53 9l9 -65c-27 -8 -61 -11 -92 -11c-64 0 -106 18 -106 88c0 25 4 49 9 73l100 496c-34 19 -76 31 -105 31c-75 0 -88 -46 -100 -109l-10 -52h114l-15 -66h-114l-96 -469
c-22 -106 -60 -170 -183 -170c-33 0 -67 4 -98 13l24 68c23 -7 51 -12 78 -12c65 0 87 58 97 108l93 462h-78l15 66h78l8 40c22 110 47 190 195 190c50 0 93 -14 122 -27z" />
    <glyph glyph-name=".notdef" horiz-adv-x="500" 
d="M12 0v665h475v-665h-475zM88 618l162 -243l161 243h-323zM60 575v-484c0 -1 161 242 161 242zM440 575l-162 -242l162 -243v485zM411 48l-161 242l-162 -242h323z" />
    <glyph glyph-name="space" unicode=" " horiz-adv-x="230" 
 />
    <glyph glyph-name="exclam" unicode="!" horiz-adv-x="247" 
d="M273 727l-119 -526h-73l94 526h98zM154 61c0 -46 -23 -68 -73 -68c-31 0 -52 12 -52 43c0 46 23 70 72 70c32 0 53 -14 53 -45z" />
    <glyph glyph-name="quotedbl" unicode="&#x22;" horiz-adv-x="418" 
d="M421 742l-74 -269h-60l34 269h100zM245 742l-74 -269h-60l34 269h100z" />
    <glyph glyph-name="numbersign" unicode="#" horiz-adv-x="676" 
d="M641 457h-141l-47 -187h131v-64h-146l-51 -206h-62l50 206h-152l-51 -206h-62l51 206h-125v64h140l48 187h-131v64h146l51 206h62l-51 -206h152l52 206h62l-51 -206h125v-64zM438 457h-153l-47 -187h153z" />
    <glyph glyph-name="dollar" unicode="$" horiz-adv-x="573" 
d="M553 529l-74 -40c-22 45 -57 71 -98 82l-40 -203c79 -27 159 -68 159 -164c0 -143 -108 -199 -234 -204l-24 -120h-65l25 123c-74 11 -145 48 -174 126l74 40c21 -57 64 -84 115 -93l46 229c-77 25 -153 65 -153 157c0 134 118 187 222 188l19 92h65l-20 -97
c66 -13 126 -50 157 -116zM318 576c-65 -3 -125 -35 -125 -106c0 -47 50 -68 87 -81zM414 190c0 54 -43 80 -90 96l-43 -212c67 6 133 43 133 116z" />
    <glyph glyph-name="percent" unicode="%" horiz-adv-x="1036" 
d="M972 130c0 -140 -66 -296 -235 -296c-110 0 -168 65 -168 165c0 134 62 296 234 296c111 0 169 -67 169 -165zM846 727l-570 -878h-79l570 878h79zM474 577c0 -140 -65 -296 -234 -296c-110 0 -169 65 -169 165c0 134 62 296 234 296c111 0 169 -67 169 -165zM884 133
c0 63 -32 98 -86 98c-103 0 -142 -133 -142 -235c0 -63 33 -98 86 -98c102 0 142 132 142 235zM387 580c0 63 -33 98 -87 98c-103 0 -142 -133 -142 -235c0 -63 34 -98 87 -98c102 0 142 132 142 235z" />
    <glyph glyph-name="ampersand" unicode="&#x26;" horiz-adv-x="684" 
d="M648 295c-31 -67 -68 -125 -125 -179l72 -116h-105l-36 59c-72 -51 -131 -74 -218 -74c-119 0 -206 64 -206 183c0 120 92 181 208 238c-27 44 -54 104 -54 154c0 125 101 182 217 182c81 0 147 -37 173 -78l-74 -41c-27 41 -67 53 -111 53c-61 0 -117 -40 -117 -106
c0 -38 13 -73 41 -117l173 -278c40 40 74 103 96 152zM418 116l-144 232c-90 -49 -153 -101 -153 -179c0 -79 57 -110 133 -110c61 0 114 20 164 57z" />
    <glyph glyph-name="quoteright" unicode="&#x2019;" horiz-adv-x="247" 
d="M269 684c0 -71 -61 -158 -106 -210h-52c27 33 81 110 81 154c-26 0 -48 15 -48 44c0 49 23 70 72 70c32 0 53 -17 53 -58z" />
    <glyph glyph-name="parenleft" unicode="(" horiz-adv-x="367" 
d="M434 742c-175 -147 -310 -365 -310 -596c0 -115 42 -249 116 -339h-88c-79 120 -108 216 -108 336c0 244 116 436 295 599h95z" />
    <glyph glyph-name="parenright" unicode=")" horiz-adv-x="367" 
d="M327 406c0 -245 -116 -436 -295 -599h-95c175 147 310 365 310 596c0 115 -42 249 -116 339h88c79 -120 108 -216 108 -336z" />
    <glyph glyph-name="asterisk" unicode="*" horiz-adv-x="435" 
d="M464 486l-30 -52l-132 76l2 -130h-61l1 130l-131 -77l-30 52l138 76l-138 76l30 52l132 -77l-2 130h61l-2 -130l132 76l30 -52l-138 -75z" />
    <glyph glyph-name="plus" unicode="+" horiz-adv-x="667" 
d="M602 253h-234v-233h-70v233h-233v70h233v234h70v-234h234v-70z" />
    <glyph glyph-name="comma" unicode="," horiz-adv-x="247" 
d="M154 51c0 -71 -61 -158 -106 -210h-52c27 33 81 110 81 154c-26 0 -48 15 -48 44c0 49 23 70 72 70c32 0 53 -17 53 -58z" />
    <glyph glyph-name="hyphen" unicode="-" horiz-adv-x="374" 
d="M346 301l-18 -88h-300l18 88h300z" />
    <glyph glyph-name="period" unicode="." horiz-adv-x="247" 
d="M154 63c0 -47 -23 -70 -73 -70c-31 0 -52 13 -52 45c0 47 23 71 72 71c32 0 53 -14 53 -46z" />
    <glyph glyph-name="slash" unicode="/" horiz-adv-x="412" 
d="M512 742l-539 -888h-84l539 888h84z" />
    <glyph glyph-name="zero" unicode="0" horiz-adv-x="601" 
d="M566 376c0 -187 -88 -391 -310 -391c-142 0 -221 84 -221 215c0 179 84 391 309 391c146 0 222 -86 222 -215zM472 380c0 87 -47 137 -134 137c-160 0 -209 -185 -209 -321c0 -87 48 -137 134 -137c160 0 209 184 209 321z" />
    <glyph glyph-name="one" unicode="1" horiz-adv-x="470" 
d="M382 66l-14 -66h-337l14 66h136l78 385c-46 -25 -109 -48 -162 -57l14 67c82 24 152 66 208 130h53l-106 -525h116z" />
    <glyph glyph-name="two" unicode="2" horiz-adv-x="528" 
d="M499 442c0 -87 -66 -145 -131 -194c-80 -59 -160 -113 -251 -169h334l-17 -79h-468l16 76c75 46 148 95 220 145c134 91 203 148 203 216c0 29 -17 77 -108 77c-69 0 -127 -29 -178 -77l-56 59c64 65 143 95 245 95c104 0 191 -47 191 -149z" />
    <glyph glyph-name="three" unicode="3" horiz-adv-x="551" 
d="M532 576l-16 -79l-225 -218c107 -9 170 -83 170 -182c0 -175 -120 -263 -283 -263c-92 0 -172 31 -216 105l70 44c26 -48 85 -75 154 -75c113 0 181 73 181 186c0 86 -64 124 -148 124c-24 0 -47 -2 -71 -6l8 42l251 244h-310l16 78h419z" />
    <glyph glyph-name="four" unicode="4" horiz-adv-x="540" 
d="M502 591l-100 -497h86l-16 -74h-86l-38 -186h-85l38 186h-339l17 84l441 487h82zM387 447l-321 -353h251z" />
    <glyph glyph-name="five" unicode="5" horiz-adv-x="551" 
d="M533 576l-16 -78h-284l-64 -218c36 12 78 20 117 20c127 0 196 -85 196 -194c0 -167 -106 -272 -290 -272c-79 0 -171 22 -219 103l71 44c28 -54 95 -73 153 -73c113 0 191 75 191 194c0 86 -63 126 -146 126c-52 0 -101 -13 -143 -37h-37l114 385h357z" />
    <glyph glyph-name="six" unicode="6" horiz-adv-x="579" 
d="M591 668l-59 -59c-36 43 -74 59 -129 59c-125 0 -205 -153 -240 -266c44 34 108 61 167 61c119 0 205 -78 205 -200c0 -167 -105 -278 -270 -278c-188 0 -224 146 -224 261c0 179 134 496 366 496c75 0 132 -19 184 -74zM444 253c0 87 -49 133 -133 133
c-57 0 -116 -26 -165 -54c-10 -38 -14 -78 -14 -117c0 -87 44 -156 136 -156c114 0 176 84 176 194z" />
    <glyph glyph-name="seven" unicode="7" horiz-adv-x="518" 
d="M545 576l-17 -82l-410 -660h-100l422 664h-294l-21 -103h-79l37 181h462z" />
    <glyph glyph-name="eight" unicode="8" horiz-adv-x="579" 
d="M585 584c0 -111 -90 -162 -186 -201c73 -36 126 -94 126 -174c0 -158 -139 -224 -279 -224c-105 0 -229 48 -229 170c0 132 94 193 213 233c-64 34 -113 81 -113 152c0 143 131 202 257 202c97 0 211 -45 211 -158zM495 580c0 70 -75 94 -130 94
c-77 0 -158 -40 -158 -130c0 -58 72 -102 115 -122c70 25 173 67 173 158zM434 201c0 74 -71 121 -129 149c-83 -32 -198 -78 -198 -186c0 -80 81 -110 146 -110c88 0 181 44 181 147z" />
    <glyph glyph-name="nine" unicode="9" horiz-adv-x="579" 
d="M537 330c0 -186 -122 -496 -374 -496c-75 0 -141 22 -192 74l59 59c34 -38 80 -59 137 -59c140 0 215 153 250 266c-55 -38 -108 -61 -169 -61c-119 0 -205 78 -205 200c0 167 111 278 267 278c106 0 227 -57 227 -261zM446 361c0 87 -53 156 -141 156
c-105 0 -171 -84 -171 -194c0 -87 53 -133 133 -133c57 0 116 26 165 54c9 39 14 78 14 117z" />
    <glyph glyph-name="colon" unicode=":" horiz-adv-x="247" 
d="M231 438c0 -46 -23 -69 -73 -69c-31 0 -52 12 -52 43c0 46 23 70 72 70c32 0 53 -12 53 -44zM154 62c0 -46 -23 -69 -73 -69c-31 0 -52 12 -52 43c0 46 23 70 72 70c32 0 53 -12 53 -44z" />
    <glyph glyph-name="semicolon" unicode=";" horiz-adv-x="247" 
d="M231 438c0 -46 -23 -69 -73 -69c-31 0 -52 12 -52 43c0 46 23 70 72 70c32 0 53 -12 53 -44zM154 49c0 -70 -61 -157 -106 -208h-52c27 32 81 110 81 153c-26 0 -48 14 -48 43c0 48 23 70 72 70c32 0 53 -17 53 -58z" />
    <glyph glyph-name="less" unicode="&#x3c;" horiz-adv-x="667" 
d="M602 32l-537 226v61l537 226v-76l-440 -181l440 -180v-76z" />
    <glyph glyph-name="equal" unicode="=" horiz-adv-x="667" 
d="M602 365h-537v70h537v-70zM602 140h-537v70h537v-70z" />
    <glyph glyph-name="greater" unicode="&#x3e;" horiz-adv-x="667" 
d="M602 258l-537 -226v76l440 180l-440 181v76l537 -226v-61z" />
    <glyph glyph-name="question" unicode="?" horiz-adv-x="465" 
d="M501 588c0 -148 -137 -220 -254 -280l-24 -112h-81l32 151c23 11 49 24 75 38c27 15 54 31 78 50c49 37 86 84 86 145c0 63 -56 86 -109 86c-59 0 -105 -23 -144 -71l-63 48c50 71 128 99 212 99c100 0 192 -43 192 -154zM219 61c0 -46 -23 -68 -73 -68
c-31 0 -52 12 -52 43c0 46 23 70 72 70c32 0 53 -14 53 -45z" />
    <glyph glyph-name="at" unicode="@" horiz-adv-x="997" 
d="M947 394c0 -171 -79 -409 -277 -409c-53 0 -105 13 -105 78c-51 -36 -106 -63 -161 -63c-91 0 -155 68 -155 167c0 171 103 360 286 360c42 0 82 -17 116 -45l7 30h85l-86 -389c-2 -10 -5 -19 -5 -29c0 -26 16 -33 40 -33c126 0 176 213 176 318c0 191 -106 288 -294 288
c-244 0 -444 -222 -444 -487c0 -190 114 -299 300 -299c70 0 138 8 210 26v-78c-76 -19 -151 -22 -226 -22c-209 0 -364 128 -364 357c0 312 215 577 539 577c209 0 358 -125 358 -347zM634 409c-27 22 -63 38 -101 38c-120 0 -192 -139 -192 -260c0 -70 23 -102 92 -102
c47 0 103 31 142 58z" />
    <glyph glyph-name="A" unicode="A" horiz-adv-x="651" 
d="M583 0h-86l-31 204h-302l-112 -204h-95l401 727h117zM455 283l-54 363l-195 -363h249z" />
    <glyph glyph-name="B" unicode="B" horiz-adv-x="618" 
d="M593 567c0 -93 -57 -158 -156 -181c87 -13 135 -68 135 -146c0 -183 -173 -240 -328 -240h-221l148 727h191c116 0 231 -32 231 -160zM505 556c0 84 -77 95 -148 95h-115l-46 -231h101c86 0 208 24 208 136zM479 238c0 100 -110 106 -182 106h-117l-52 -266h113
c106 0 238 25 238 160z" />
    <glyph glyph-name="C" unicode="C" horiz-adv-x="675" 
d="M705 606l-78 -43c-36 68 -102 103 -176 103c-204 0 -296 -208 -296 -398c0 -121 53 -207 196 -207c63 0 120 25 180 71l46 -71c-56 -41 -130 -76 -238 -76c-181 0 -278 107 -278 283c0 254 132 474 398 474c100 0 207 -45 246 -136z" />
    <glyph glyph-name="D" unicode="D" horiz-adv-x="688" 
d="M665 459c0 -294 -155 -459 -451 -459h-191l148 727h169c180 0 325 -65 325 -268zM571 457c0 159 -110 192 -251 192h-78l-115 -571h89c237 0 355 143 355 379z" />
    <glyph glyph-name="E" unicode="E" horiz-adv-x="584" 
d="M621 727l-17 -78h-362l-46 -228h331l-17 -78h-331l-52 -265h363l-17 -78h-450l148 727h450z" />
    <glyph glyph-name="F" unicode="F" horiz-adv-x="560" 
d="M617 727l-17 -78h-358l-45 -228h324l-17 -78h-324l-69 -343h-88l148 727h446z" />
    <glyph glyph-name="G" unicode="G" horiz-adv-x="725" 
d="M710 606l-78 -43c-35 66 -99 103 -179 103c-208 0 -298 -213 -298 -398c0 -129 65 -207 199 -207c57 0 125 21 176 45l32 159h-157l16 79h246l-59 -288c-62 -35 -174 -71 -265 -71c-183 0 -282 109 -282 283c0 265 140 474 401 474c99 0 208 -44 248 -136z" />
    <glyph glyph-name="H" unicode="H" horiz-adv-x="684" 
d="M699 727l-148 -727h-88l68 336h-353l-67 -336h-88l148 727h88l-64 -313h353l63 313h88z" />
    <glyph glyph-name="I" unicode="I" horiz-adv-x="345" 
d="M398 727l-15 -69h-91l-118 -589h91l-15 -69h-270l15 69h91l118 589h-91l15 69h270z" />
    <glyph glyph-name="J" unicode="J" horiz-adv-x="414" 
d="M431 727l-111 -544c-27 -132 -82 -198 -223 -198c-38 0 -94 11 -117 22l31 76c22 -10 66 -22 96 -22c86 0 110 47 133 159l88 436h-31c-64 0 -115 -22 -163 -60l-42 58c52 40 116 73 235 73h104z" />
    <glyph glyph-name="K" unicode="K" horiz-adv-x="642" 
d="M681 727l-306 -284l184 -443h-98l-154 381l-147 -138l-49 -243h-88l148 727h88l-73 -357l377 357h118z" />
    <glyph glyph-name="L" unicode="L" horiz-adv-x="524" 
d="M469 78l-17 -78h-429l148 727h88l-131 -649h341z" />
    <glyph glyph-name="M" unicode="M" horiz-adv-x="808" 
d="M823 727l-148 -727h-84l128 628l-301 -427h-58l-125 427l-128 -628h-84l148 727h120l117 -408l286 408h129z" />
    <glyph glyph-name="N" unicode="N" horiz-adv-x="697" 
d="M712 727l-148 -727h-98l-228 648l-131 -648h-84l148 727h130l208 -592l120 592h83z" />
    <glyph glyph-name="O" unicode="O" horiz-adv-x="745" 
d="M722 457c0 -241 -118 -472 -385 -472c-179 0 -276 106 -276 283c0 242 117 474 385 474c179 0 276 -107 276 -285zM628 459c0 129 -58 207 -192 207c-205 0 -281 -227 -281 -398c0 -129 57 -207 192 -207c205 0 281 227 281 398z" />
    <glyph glyph-name="P" unicode="P" horiz-adv-x="594" 
d="M605 535c0 -178 -133 -253 -328 -253h-110l-56 -282h-88l148 727h201c133 0 233 -59 233 -192zM513 531c0 73 -57 118 -153 118h-118l-58 -289h105c128 0 224 55 224 171z" />
    <glyph glyph-name="Q" unicode="Q" horiz-adv-x="745" 
d="M722 458c0 -246 -119 -452 -349 -470c-5 -10 -10 -24 -10 -33c0 -44 38 -50 102 -50c59 0 107 10 147 17l10 -69c-46 -10 -124 -23 -188 -23c-115 0 -167 33 -167 112c0 12 4 35 10 48c-139 24 -216 118 -216 279c0 241 117 473 385 473c179 0 276 -105 276 -284z
M628 459c0 129 -58 207 -192 207c-205 0 -281 -226 -281 -397c0 -129 58 -207 192 -207c205 0 281 226 281 397z" />
    <glyph glyph-name="R" unicode="R" horiz-adv-x="634" 
d="M617 548c0 -104 -60 -180 -164 -205c52 -13 63 -51 66 -91l17 -252h-90l-12 222c-3 60 -25 90 -81 90h-180l-62 -312h-88l148 727h221c132 0 225 -53 225 -179zM525 546c0 60 -43 105 -146 105h-136l-53 -263h128c126 0 207 49 207 158z" />
    <glyph glyph-name="S" unicode="S" horiz-adv-x="573" 
d="M588 606l-79 -43c-33 69 -98 102 -169 102c-74 0 -170 -38 -170 -131c0 -70 83 -93 167 -121c93 -31 190 -69 190 -191c0 -172 -133 -237 -287 -237c-104 0 -213 41 -251 146l78 43c30 -83 103 -112 186 -112c86 0 184 44 184 143c0 74 -65 104 -126 123
c-106 33 -228 63 -228 197c0 159 142 217 266 217c99 0 196 -44 239 -136z" />
    <glyph glyph-name="T" unicode="T" horiz-adv-x="504" 
d="M621 727l-17 -78h-231l-131 -649h-88l131 649h-231l17 78h550z" />
    <glyph glyph-name="U" unicode="U" horiz-adv-x="676" 
d="M694 727l-91 -445c-39 -192 -107 -297 -318 -297c-128 0 -225 43 -225 182c0 41 6 76 14 116l90 444h88l-89 -435c-7 -37 -17 -76 -17 -118c0 -92 60 -113 149 -113c146 0 194 91 222 228l89 438h88z" />
    <glyph glyph-name="V" unicode="V" horiz-adv-x="619" 
d="M699 727l-384 -727h-122l-88 727h88l76 -644l333 644h97z" />
    <glyph glyph-name="W" unicode="W" horiz-adv-x="888" 
d="M958 727l-315 -727h-100l-72 438l-237 -438h-102l-17 727h84l10 -615l237 434h87l73 -438l261 619h91z" />
    <glyph glyph-name="X" unicode="X" horiz-adv-x="611" 
d="M686 727l-312 -367l165 -360h-93l-131 301l-247 -301h-110l317 372l-162 355h94l127 -296l243 296h109z" />
    <glyph glyph-name="Y" unicode="Y" horiz-adv-x="587" 
d="M669 727l-327 -417l-62 -310h-88l63 308l-156 419h93l118 -335l259 335h100z" />
    <glyph glyph-name="Z" unicode="Z" horiz-adv-x="593" 
d="M637 727l-17 -80l-516 -569h412l-17 -78h-517l18 86l511 563h-381l17 78h490z" />
    <glyph glyph-name="bracketleft" unicode="[" horiz-adv-x="363" 
d="M414 727l-14 -63h-158l-160 -794h158l-14 -63h-235l188 920h235z" />
    <glyph glyph-name="backslash" unicode="\" horiz-adv-x="412" 
d="M347 -146h-77l-179 888h77z" />
    <glyph glyph-name="bracketright" unicode="]" horiz-adv-x="363" 
d="M371 727l-188 -920h-235l14 63h158l160 794h-158l14 63h235z" />
    <glyph glyph-name="asciicircum" unicode="^" horiz-adv-x="577" 
d="M553 347h-74l-159 311l-160 -311h-74l197 386h73z" />
    <glyph glyph-name="underscore" unicode="_" horiz-adv-x="500" 
d="M435 -125h-512v50h512v-50z" />
    <glyph glyph-name="quoteleft" unicode="&#x2018;" horiz-adv-x="247" 
d="M272 742c-27 -33 -81 -110 -81 -154c26 0 48 -15 48 -44c0 -49 -23 -70 -72 -70c-32 0 -53 17 -53 58c0 71 61 158 106 210h52z" />
    <glyph glyph-name="a" unicode="a" horiz-adv-x="555" 
d="M537 512l-103 -512h-68l2 77c-47 -54 -110 -92 -166 -92c-118 0 -170 84 -170 205c0 176 105 337 288 337c50 0 91 -11 129 -23l60 8h28zM436 433c-62 19 -82 22 -125 22c-130 0 -191 -152 -191 -264c0 -82 25 -134 99 -134c61 0 131 66 165 118z" />
    <glyph glyph-name="b" unicode="b" horiz-adv-x="552" 
d="M520 324c0 -173 -85 -339 -267 -339c-77 0 -133 18 -148 23l-60 -8h-31l148 727h85l-58 -284c55 54 105 84 170 84c113 0 161 -87 161 -203zM432 323c0 71 -18 133 -93 133c-57 0 -122 -52 -166 -94l-57 -283c16 -5 35 -11 57 -15s48 -8 81 -8c132 0 178 155 178 267z
" />
    <glyph glyph-name="c" unicode="c" horiz-adv-x="482" 
d="M495 432l-67 -37c-24 45 -67 62 -113 62c-142 0 -195 -151 -195 -270c0 -85 40 -132 127 -132c27 0 51 8 71 18c19 10 35 21 46 28l38 -62c-30 -23 -88 -54 -166 -54c-128 0 -204 74 -204 204c0 185 96 338 294 338c67 0 141 -31 169 -95z" />
    <glyph glyph-name="d" unicode="d" horiz-adv-x="555" 
d="M581 727l-147 -727h-68l2 77c-47 -54 -110 -92 -166 -92c-118 0 -170 84 -170 205c0 176 105 337 288 337c50 0 92 -12 130 -24l46 224h85zM436 433c-62 19 -82 22 -125 22c-130 0 -191 -152 -191 -264c0 -82 25 -134 99 -134c61 0 131 66 165 118z" />
    <glyph glyph-name="e" unicode="e" horiz-adv-x="510" 
d="M498 393c0 -59 -33 -148 -266 -163l-110 -7c-2 -10 -2 -23 -2 -39c0 -84 42 -129 127 -129c43 0 79 20 117 46l38 -62c-25 -20 -83 -54 -166 -54c-138 0 -204 75 -204 204c0 174 102 338 296 338c92 0 170 -41 170 -134zM416 385c0 49 -37 76 -99 76
c-86 0 -157 -71 -186 -177l81 6c135 10 204 38 204 95z" />
    <glyph glyph-name="f" unicode="f" horiz-adv-x="309" 
d="M450 724l-32 -69c-21 10 -52 18 -76 18c-75 0 -88 -46 -100 -109l-10 -52h114l-15 -66h-114l-96 -469c-22 -106 -60 -170 -183 -170c-33 0 -67 4 -98 13l24 68c23 -7 51 -12 78 -12c65 0 87 58 97 108l93 462h-78l15 66h78l8 40c22 110 47 190 195 190
c33 0 70 -6 100 -18z" />
    <glyph glyph-name="g" unicode="g" horiz-adv-x="570" 
d="M606 509l-14 -67c-11 3 -24 5 -35 5c-33 0 -46 -25 -56 -74l-73 -361c-30 -150 -94 -205 -251 -205c-56 0 -128 9 -178 31l29 70c44 -21 98 -32 161 -32c79 0 132 25 153 131l16 80c-46 -49 -100 -87 -158 -87c-122 0 -168 86 -168 200c0 165 98 327 287 327
c54 0 109 -26 143 -45c20 32 51 38 87 38c14 0 41 -4 57 -11zM430 418c-27 14 -76 38 -120 38c-134 0 -190 -152 -190 -255c0 -70 19 -130 98 -130c63 0 124 65 161 119l38 185c2 10 8 33 13 43z" />
    <glyph glyph-name="h" unicode="h" horiz-adv-x="556" 
d="M517 411c0 -9 -3 -35 -10 -69l-70 -342h-85l62 301c12 57 15 86 15 95c0 40 -29 53 -65 53c-65 0 -146 -55 -191 -87l-74 -362h-85l148 727h85l-59 -288c54 43 123 88 192 88c73 0 137 -32 137 -116z" />
    <glyph glyph-name="i" unicode="i" horiz-adv-x="282" 
d="M280 670c0 -43 -22 -63 -67 -63c-33 0 -49 11 -49 41c0 42 21 62 67 62c34 0 49 -12 49 -40zM245 471c0 -12 -5 -41 -16 -94l-77 -377h-85l76 372c3 14 12 55 12 61c0 8 -4 11 -11 11c-18 0 -44 -12 -66 -27l-32 49c33 28 91 61 140 61c18 0 59 -5 59 -56z" />
    <glyph glyph-name="j" unicode="j" horiz-adv-x="282" 
d="M280 670c0 -43 -22 -62 -67 -62c-33 0 -49 10 -49 40c0 42 21 62 67 62c34 0 49 -12 49 -40zM245 471c0 -12 -5 -40 -16 -94l-82 -403c-22 -110 -64 -167 -183 -167c-33 0 -66 4 -98 13l24 68c26 -8 53 -12 80 -12c57 0 82 48 95 112l78 385c3 13 12 54 12 60
c0 7 -3 11 -11 11c-18 0 -44 -12 -66 -27l-32 49c35 28 91 61 139 61c20 0 60 -6 60 -56z" />
    <glyph glyph-name="k" unicode="k" horiz-adv-x="482" 
d="M491 512l-226 -220l84 -178c25 -52 32 -63 53 -63c10 0 19 2 30 5l8 -64c-22 -5 -40 -7 -67 -7c-46 0 -67 34 -92 87l-77 161l-71 -68l-34 -165h-85l149 727h85l-90 -443l226 228h107z" />
    <glyph glyph-name="l" unicode="l" horiz-adv-x="273" 
d="M253 755l-123 -606c-3 -17 -6 -35 -6 -53c0 -34 17 -45 48 -45c20 0 34 4 53 10l9 -65c-30 -8 -61 -11 -92 -11c-64 0 -106 17 -106 87c0 25 4 52 9 76l114 562z" />
    <glyph glyph-name="m" unicode="m" horiz-adv-x="838" 
d="M799 412c0 -10 -4 -38 -10 -69l-70 -343h-85l63 307c5 25 14 79 14 90c0 35 -11 52 -52 52c-49 0 -138 -55 -176 -87l-74 -362h-85l63 307c7 33 14 77 14 90c0 35 -14 52 -52 52c-51 0 -137 -56 -176 -87l-74 -362h-85l105 512h85l-15 -73c50 43 120 88 182 88
c67 0 116 -37 116 -96c51 44 127 96 193 96c80 0 119 -43 119 -115z" />
    <glyph glyph-name="n" unicode="n" horiz-adv-x="556" 
d="M517 412c0 -9 -3 -35 -10 -69l-70 -343h-85l62 302c12 57 15 86 15 95c0 40 -31 52 -65 52c-65 0 -146 -55 -191 -87l-74 -362h-85l105 512h85l-15 -73c54 43 122 88 191 88c71 0 137 -31 137 -115z" />
    <glyph glyph-name="o" unicode="o" horiz-adv-x="542" 
d="M510 326c0 -181 -89 -341 -280 -341c-121 0 -198 72 -198 202c0 182 91 340 281 340c119 0 197 -72 197 -201zM422 325c0 88 -40 132 -120 132c-134 0 -182 -156 -182 -270c0 -88 40 -132 120 -132c134 0 182 156 182 270z" />
    <glyph glyph-name="p" unicode="p" horiz-adv-x="556" 
d="M524 332c0 -169 -75 -347 -271 -347c-50 0 -102 22 -140 60l-49 -238h-85l144 705h68l3 -49c49 37 103 64 168 64c114 0 162 -91 162 -195zM436 328c0 67 -22 128 -101 128c-52 0 -113 -38 -153 -68l-55 -274c34 -33 83 -58 130 -58c135 0 179 163 179 272z" />
    <glyph glyph-name="q" unicode="q" horiz-adv-x="555" 
d="M539 512l-144 -705h-85l54 265c-42 -48 -106 -87 -162 -87c-118 0 -170 84 -170 205c0 176 105 337 288 337c50 0 91 -11 129 -23l60 8h30zM437 432c-50 16 -83 23 -126 23c-130 0 -191 -152 -191 -264c0 -82 25 -134 99 -134c61 0 132 66 166 118z" />
    <glyph glyph-name="r" unicode="r" horiz-adv-x="361" 
d="M406 512l-36 -84c-11 5 -21 7 -36 7c-51 0 -119 -58 -168 -106l-67 -329h-85l105 512h78l-20 -102c56 60 116 110 172 110c25 0 40 -2 57 -8z" />
    <glyph glyph-name="s" unicode="s" horiz-adv-x="439" 
d="M428 437l-67 -40c-26 43 -64 63 -112 63c-41 0 -102 -20 -102 -79c0 -40 48 -63 101 -86c66 -29 141 -64 141 -141c0 -124 -105 -169 -211 -169c-68 0 -143 26 -183 92l65 44c25 -44 74 -68 122 -68c54 0 124 18 124 86c0 40 -41 64 -90 85c-69 30 -152 60 -152 146
c0 113 100 157 197 157c65 0 134 -25 167 -90z" />
    <glyph glyph-name="t" unicode="t" horiz-adv-x="323" 
d="M335 512l-15 -66h-115l-55 -276c-4 -21 -10 -50 -10 -64c0 -41 19 -55 59 -55c25 0 50 5 74 14l13 -65c-35 -10 -72 -15 -108 -15c-83 0 -124 26 -124 107c0 12 4 41 8 62l59 292h-77l15 66h76l29 143l95 45l-39 -188h115z" />
    <glyph glyph-name="u" unicode="u" horiz-adv-x="556" 
d="M540 512l-105 -512h-85l15 73c-51 -48 -130 -88 -181 -88c-86 0 -145 43 -145 128c0 14 2 28 8 56l70 343h85l-62 -302c-4 -20 -15 -67 -15 -88c0 -45 32 -59 75 -59c58 0 136 54 181 87l74 362h85z" />
    <glyph glyph-name="v" unicode="v" horiz-adv-x="484" 
d="M518 512l-294 -512h-84l-81 512h85l58 -409l223 409h93z" />
    <glyph glyph-name="w" unicode="w" horiz-adv-x="723" 
d="M751 512l-237 -512h-77l-81 295l-188 -295h-76l-27 512h80l16 -395l182 288h62l83 -298l174 405h89z" />
    <glyph glyph-name="x" unicode="x" horiz-adv-x="483" 
d="M521 512l-232 -261l126 -251h-92l-90 197l-169 -197h-104l233 262l-125 250h90l92 -196l166 196h105z" />
    <glyph glyph-name="y" unicode="y" horiz-adv-x="496" 
d="M531 512l-323 -551c-50 -85 -93 -154 -203 -154c-31 0 -61 4 -90 14l21 67c25 -10 47 -12 74 -12c37 0 68 28 93 62c13 17 23 36 33 53s18 33 26 46l-110 475h85l83 -384l217 384h94z" />
    <glyph glyph-name="z" unicode="z" 
d="M464 512l-12 -58l-343 -384h53c60 0 99 -17 142 -44c41 -26 73 -45 111 -45h36l-15 -70h-38c-46 0 -83 22 -120 45c-43 27 -76 44 -141 44h-151l12 62l345 384h-264l14 66h371z" />
    <glyph glyph-name="braceleft" unicode="{" horiz-adv-x="422" 
d="M480 742l-12 -62h-20c-91 0 -119 -49 -136 -131l-17 -84c-20 -100 -59 -163 -170 -186c63 -23 96 -69 96 -138c0 -66 -28 -129 -28 -195c0 -73 51 -77 110 -77l-12 -62h-33c-82 0 -144 34 -144 126c0 68 28 133 28 201c0 78 -37 112 -112 112l13 70c97 0 138 48 161 113
c14 38 21 83 30 128c23 117 77 185 214 185h32z" />
    <glyph glyph-name="bar" unicode="|" horiz-adv-x="386" 
d="M241 -193h-77v935h77v-935z" />
    <glyph glyph-name="braceright" unicode="}" horiz-adv-x="422" 
d="M385 303l-13 -70c-72 0 -113 -26 -139 -66c-29 -46 -39 -110 -52 -175c-23 -117 -77 -185 -214 -185h-32l12 62h20c91 0 120 49 137 131l17 84c20 100 59 164 169 186c-63 23 -96 69 -96 138c0 66 28 129 28 195c0 73 -51 77 -110 77l12 62h33c82 0 144 -34 144 -126
c0 -68 -28 -133 -28 -201c0 -78 37 -112 112 -112z" />
    <glyph glyph-name="asciitilde" unicode="~" horiz-adv-x="667" 
d="M602 277c-20 -15 -82 -62 -143 -62c-44 0 -73 11 -158 50c-15 7 -58 27 -89 27c-61 0 -115 -44 -147 -70v78c65 52 117 62 149 62c36 0 67 -10 143 -46c32 -15 67 -31 100 -31c61 0 115 45 145 70v-78z" />
    <glyph glyph-name="exclamdown" unicode="&#xa1;" horiz-adv-x="247" 
d="M231 483c0 -46 -23 -69 -72 -69c-32 0 -53 13 -53 44c0 46 23 69 73 69c31 0 52 -13 52 -44zM181 324l-92 -517h-99l118 517h73z" />
    <glyph glyph-name="cent" unicode="&#xa2;" horiz-adv-x="490" 
d="M547 742l-112 -211c27 -16 49 -38 62 -67l-67 -37c-8 15 -18 28 -30 37l-197 -372c14 -4 29 -5 46 -5c27 0 51 8 71 18c19 10 35 21 46 28l38 -62c-30 -23 -88 -54 -166 -54c-26 0 -49 3 -70 9l-102 -192h-71l115 218c-49 34 -76 91 -76 169c0 185 96 338 294 338
c16 0 32 -2 48 -5l100 188h71zM341 488c-8 1 -16 1 -24 1c-142 0 -195 -151 -195 -270c0 -40 9 -72 27 -94z" />
    <glyph glyph-name="sterling" unicode="&#xa3;" horiz-adv-x="579" 
d="M595 634l-71 -46c-25 51 -72 77 -128 77c-113 0 -162 -77 -162 -187c0 -28 2 -50 2 -74c0 -9 0 -18 -1 -28h184l-14 -66h-177c-8 -77 -34 -178 -113 -231h394l-17 -79h-498l17 80c88 20 121 157 130 230h-79l14 66h73c1 8 1 16 1 23c0 24 -3 46 -3 76
c0 165 97 267 262 267c89 0 155 -43 186 -108z" />
    <glyph glyph-name="fraction" unicode="&#x2044;" horiz-adv-x="120" 
d="M385 727l-570 -878h-79l570 878h79z" />
    <glyph glyph-name="yen" unicode="&#xa5;" horiz-adv-x="587" 
d="M669 727l-262 -335h161l-12 -60h-196l-18 -22l-12 -61h209l-12 -60h-209l-38 -189h-88l39 189h-207l13 60h206l12 59l-9 24h-193l13 60h158l-125 335h93l118 -335l259 335h100z" />
    <glyph glyph-name="florin" unicode="&#x192;" horiz-adv-x="507" 
d="M507 723l-23 -72c-27 9 -52 18 -80 18c-31 0 -48 -7 -67 -91l-15 -66h102l-14 -69h-103l-107 -500c-16 -75 -50 -137 -138 -137c-45 0 -85 11 -109 19l17 67c24 -7 47 -13 79 -13c43 0 57 19 78 117l95 447h-84l15 69h84l16 70c26 113 65 160 153 160c35 0 68 -7 101 -19
z" />
    <glyph glyph-name="section" unicode="&#xa7;" horiz-adv-x="498" 
d="M528 670l-67 -53c-27 33 -74 53 -116 53c-51 0 -117 -19 -117 -83c0 -61 72 -99 117 -132c59 -44 117 -94 117 -170c0 -99 -78 -147 -159 -190c37 -31 62 -71 62 -119c0 -124 -106 -169 -215 -169c-63 0 -130 23 -172 73l66 52c29 -33 73 -53 117 -53c51 0 117 19 117 83
c0 42 -40 75 -75 100c-69 51 -158 105 -158 204s78 145 157 188c-36 32 -61 71 -61 119c0 124 106 169 215 169c63 0 130 -23 172 -72zM380 265c0 30 -21 59 -46 84c-24 24 -50 43 -77 63c-50 -25 -130 -64 -130 -129c0 -57 80 -117 121 -146c49 25 132 64 132 128z" />
    <glyph glyph-name="currency" unicode="&#xa4;" horiz-adv-x="633" 
d="M479 239l68 -65c-16 -15 -31 -31 -46 -47l-68 67c-33 -25 -74 -38 -116 -38c-34 0 -79 9 -117 38l-67 -67c-16 16 -31 32 -47 47l68 65c-23 35 -37 75 -37 115s12 82 37 115l-68 66c16 15 31 31 47 47l67 -67c40 28 83 37 117 37c36 0 82 -11 115 -37l69 67
c15 -16 30 -32 46 -47l-68 -66c27 -37 37 -79 37 -115c0 -39 -12 -79 -37 -115zM450 355c0 78 -66 132 -133 132c-77 0 -134 -61 -134 -132c0 -72 60 -134 134 -134c73 0 133 61 133 134z" />
    <glyph glyph-name="quotesingle" unicode="'" horiz-adv-x="242" 
d="M245 742l-74 -269h-60l34 269h100z" />
    <glyph glyph-name="quotedblleft" unicode="&#x201c;" horiz-adv-x="464" 
d="M489 742c-27 -33 -81 -110 -81 -154c26 0 48 -15 48 -44c0 -49 -23 -70 -72 -70c-32 0 -53 17 -53 58c0 71 61 158 106 210h52zM272 742c-27 -33 -81 -110 -81 -154c26 0 48 -15 48 -44c0 -49 -23 -70 -72 -70c-32 0 -53 17 -53 58c0 71 61 158 106 210h52z" />
    <glyph glyph-name="guillemotleft" unicode="&#xab;" horiz-adv-x="568" 
d="M598 486l-246 -236l141 -224h-89l-145 230l239 230h100zM359 486l-246 -236l141 -224h-89l-145 230l239 230h100z" />
    <glyph glyph-name="guilsinglleft" unicode="&#x2039;" horiz-adv-x="329" 
d="M359 486l-246 -236l141 -224h-89l-145 230l239 230h100z" />
    <glyph glyph-name="guilsinglright" unicode="&#x203a;" horiz-adv-x="329" 
d="M312 256l-239 -230h-100l246 236l-141 224h89z" />
    <glyph glyph-name="endash" unicode="&#x2013;" horiz-adv-x="500" 
d="M513 292l-14 -70h-512l14 70h512z" />
    <glyph glyph-name="dagger" unicode="&#x2020;" horiz-adv-x="516" 
d="M530 498l-18 -87l-192 11l-109 -615h-96l141 615l-196 -11l18 87l191 -12l38 256h90l-64 -256z" />
    <glyph glyph-name="daggerdbl" unicode="&#x2021;" horiz-adv-x="516" 
d="M526 523l-18 -88l-183 12l-26 -173l-44 -173l188 12l-18 -88l-183 12l-33 -230h-91l59 230l-187 -12l18 88l182 -12l26 173l45 173l-188 -12l18 88l183 -12l33 231h91l-60 -231z" />
    <glyph glyph-name="periodcentered" unicode="&#xb7;" horiz-adv-x="247" 
d="M182 300c0 -47 -23 -70 -73 -70c-31 0 -52 13 -52 45c0 47 23 71 72 71c32 0 53 -14 53 -46z" />
    <glyph glyph-name="paragraph" unicode="&#xb6;" horiz-adv-x="595" 
d="M667 727l-13 -64h-92l-174 -856h-77l174 856h-96l-174 -856h-77l104 510c-98 0 -174 56 -174 162c0 161 112 248 280 248h319z" />
    <glyph glyph-name="bullet" unicode="&#x2022;" horiz-adv-x="358" 
d="M324 365c0 -71 -57 -128 -128 -128s-128 57 -128 128s57 128 128 128s128 -57 128 -128z" />
    <glyph glyph-name="quotesinglbase" unicode="&#x201a;" horiz-adv-x="247" 
d="M154 51c0 -71 -61 -158 -106 -210h-52c27 33 81 110 81 154c-26 0 -48 15 -48 44c0 49 23 70 72 70c32 0 53 -17 53 -58z" />
    <glyph glyph-name="quotedblbase" unicode="&#x201e;" horiz-adv-x="464" 
d="M371 51c0 -71 -61 -158 -106 -210h-52c27 33 81 110 81 154c-26 0 -48 15 -48 44c0 49 23 70 72 70c32 0 53 -17 53 -58zM154 51c0 -71 -61 -158 -106 -210h-52c27 33 81 110 81 154c-26 0 -48 15 -48 44c0 49 23 70 72 70c32 0 53 -17 53 -58z" />
    <glyph glyph-name="quotedblright" unicode="&#x201d;" horiz-adv-x="464" 
d="M486 684c0 -71 -61 -158 -106 -210h-52c27 33 81 110 81 154c-26 0 -48 15 -48 44c0 49 23 70 72 70c32 0 53 -17 53 -58zM269 684c0 -71 -61 -158 -106 -210h-52c27 33 81 110 81 154c-26 0 -48 15 -48 44c0 49 23 70 72 70c32 0 53 -17 53 -58z" />
    <glyph glyph-name="guillemotright" unicode="&#xbb;" horiz-adv-x="568" 
d="M551 256l-239 -230h-100l246 236l-141 224h89zM312 256l-239 -230h-100l246 236l-141 224h89z" />
    <glyph glyph-name="ellipsis" unicode="&#x2026;" horiz-adv-x="1000" 
d="M863 63c0 -47 -23 -70 -73 -70c-31 0 -52 13 -52 45c0 47 23 71 72 71c32 0 53 -14 53 -46zM529 63c0 -47 -23 -70 -73 -70c-31 0 -52 13 -52 45c0 47 23 71 72 71c32 0 53 -14 53 -46zM196 63c0 -47 -23 -70 -73 -70c-31 0 -52 13 -52 45c0 47 23 71 72 71
c32 0 53 -14 53 -46z" />
    <glyph glyph-name="perthousand" unicode="&#x2030;" horiz-adv-x="1500" 
d="M1436 130c0 -140 -66 -296 -235 -296c-110 0 -168 65 -168 165c0 134 62 296 234 296c111 0 169 -67 169 -165zM972 130c0 -140 -66 -296 -235 -296c-110 0 -168 65 -168 165c0 134 62 296 234 296c111 0 169 -67 169 -165zM846 727l-570 -878h-79l570 878h79zM474 577
c0 -140 -65 -296 -234 -296c-110 0 -169 65 -169 165c0 134 62 296 234 296c111 0 169 -67 169 -165zM1348 133c0 63 -32 98 -86 98c-103 0 -142 -133 -142 -235c0 -63 33 -98 86 -98c102 0 142 132 142 235zM884 133c0 63 -32 98 -86 98c-103 0 -142 -133 -142 -235
c0 -63 33 -98 86 -98c102 0 142 132 142 235zM387 580c0 63 -33 98 -87 98c-103 0 -142 -133 -142 -235c0 -63 34 -98 87 -98c102 0 142 132 142 235z" />
    <glyph glyph-name="questiondown" unicode="&#xbf;" horiz-adv-x="465" 
d="M375 484c0 -46 -23 -69 -72 -69c-32 0 -53 13 -53 44c0 46 23 68 73 68c31 0 52 -12 52 -43zM380 -94c-50 -71 -128 -99 -212 -99c-100 0 -192 43 -192 154c0 148 137 220 254 280l19 92h81l-27 -131c-23 -11 -49 -24 -75 -38c-27 -15 -54 -31 -78 -50
c-49 -37 -86 -84 -86 -145c0 -63 56 -86 109 -86c59 0 105 23 144 71z" />
    <glyph glyph-name="grave" unicode="`" horiz-adv-x="500" 
d="M302 590h-66l-119 176h110z" />
    <glyph glyph-name="acute" unicode="&#xb4;" horiz-adv-x="500" 
d="M434 766l-191 -176h-81l147 176h125z" />
    <glyph glyph-name="circumflex" unicode="&#x2c6;" horiz-adv-x="500" 
d="M398 590h-73l-66 113l-112 -113h-81l150 176h105z" />
    <glyph glyph-name="tilde" unicode="&#x2dc;" horiz-adv-x="500" 
d="M447 745c-16 -71 -56 -134 -141 -134c-76 0 -83 71 -134 71c-37 0 -53 -40 -61 -71h-59c17 75 64 134 140 134c77 0 84 -71 135 -71c37 0 53 41 61 71h59z" />
    <glyph glyph-name="macron" unicode="&#xaf;" horiz-adv-x="500" 
d="M408 712l-14 -67h-301l14 67h301z" />
    <glyph glyph-name="breve" unicode="&#x2d8;" horiz-adv-x="500" 
d="M424 747c-20 -40 -78 -138 -190 -138c-105 0 -123 92 -130 138h62c11 -44 36 -61 79 -61c48 0 86 21 117 61h62z" />
    <glyph glyph-name="dotaccent" unicode="&#x2d9;" horiz-adv-x="500" 
d="M302 671c0 -47 -24 -69 -74 -69c-36 0 -54 12 -54 45c0 47 24 68 74 68c38 0 54 -13 54 -44z" />
    <glyph glyph-name="dieresis" unicode="&#xa8;" horiz-adv-x="500" 
d="M407 670c0 -43 -22 -63 -67 -63c-33 0 -49 11 -49 41c0 42 21 62 67 62c34 0 49 -12 49 -40zM214 670c0 -43 -22 -63 -67 -63c-33 0 -49 11 -49 41c0 42 21 62 67 62c34 0 49 -12 49 -40z" />
    <glyph glyph-name="ring" unicode="&#x2da;" horiz-adv-x="500" 
d="M345 676c0 -67 -43 -111 -113 -111c-44 0 -78 27 -78 74c0 63 43 110 112 110c44 0 79 -25 79 -73zM302 673c0 25 -19 36 -43 36c-39 0 -62 -31 -62 -68c0 -25 18 -36 42 -36c41 0 63 29 63 68z" />
    <glyph glyph-name="cedilla" unicode="&#xb8;" horiz-adv-x="500" 
d="M346 -88c0 -77 -74 -105 -138 -105c-44 0 -80 7 -118 23l26 52c31 -13 71 -19 98 -19c29 0 68 8 68 45c0 34 -52 41 -77 43l41 58h52l-17 -24c39 -10 65 -33 65 -73z" />
    <glyph glyph-name="hungarumlaut" unicode="&#x2dd;" horiz-adv-x="500" 
d="M474 766l-191 -176h-81l147 176h125zM294 766l-191 -176h-81l147 176h125z" />
    <glyph glyph-name="ogonek" unicode="&#x2db;" horiz-adv-x="500" 
d="M373 -159c-39 -20 -83 -34 -127 -34c-52 0 -93 24 -93 80c0 52 32 106 61 144h68c-21 -31 -51 -80 -51 -117c0 -26 17 -39 48 -39c27 0 51 7 76 18z" />
    <glyph glyph-name="caron" unicode="&#x2c7;" horiz-adv-x="500" 
d="M428 766l-150 -176h-105l-77 176h73l66 -113l112 113h81z" />
    <glyph glyph-name="emdash" unicode="&#x2014;" horiz-adv-x="1000" 
d="M1013 292l-14 -70h-1012l14 70h1012z" />
    <glyph glyph-name="AE" unicode="&#xc6;" horiz-adv-x="884" 
d="M921 727l-17 -78h-328l-46 -228h297l-17 -78h-297l-52 -265h329l-17 -78h-416l42 204h-239l-118 -204h-95l425 727h549zM489 649h-71l-212 -366h209z" />
    <glyph glyph-name="ordfeminine" unicode="&#xaa;" horiz-adv-x="393" 
d="M432 732l-68 -333h-57l1 39c-30 -28 -67 -48 -101 -48c-82 0 -117 56 -117 134c0 112 70 218 194 218c33 0 59 -7 84 -15l38 5h26zM352 672c-35 10 -48 12 -74 12c-79 0 -118 -90 -118 -160c0 -51 15 -77 58 -77c36 0 79 38 101 70z" />
    <glyph glyph-name="Lslash" unicode="&#x141;" horiz-adv-x="524" 
d="M469 78l-17 -78h-429l55 269l-96 -67l17 83l96 67l76 375h88l-62 -304l158 110l-16 -83l-159 -110l-52 -262h341z" />
    <glyph glyph-name="Oslash" unicode="&#xd8;" horiz-adv-x="745" 
d="M788 764l-113 -127c31 -46 47 -107 47 -180c0 -241 -118 -472 -385 -472c-80 0 -143 21 -189 60l-90 -101h-82l131 147c-30 46 -46 106 -46 177c0 242 117 474 385 474c79 0 142 -21 188 -59l72 81h82zM576 618c-31 31 -77 48 -140 48c-205 0 -281 -227 -281 -398
c0 -40 5 -75 17 -104zM628 459c0 41 -6 75 -18 105l-404 -454c31 -32 78 -49 141 -49c205 0 281 227 281 398z" />
    <glyph glyph-name="OE" unicode="&#x152;" horiz-adv-x="955" 
d="M992 727l-17 -78h-326l-46 -228h295l-17 -78h-295l-52 -265h327l-17 -78h-413c-29 -9 -61 -15 -94 -15c-179 0 -276 106 -276 283c0 242 117 474 385 474c51 0 97 -7 133 -15h413zM562 648c-30 9 -74 18 -126 18c-205 0 -281 -227 -281 -398c0 -129 57 -207 192 -207
c33 0 71 6 100 20z" />
    <glyph glyph-name="ordmasculine" unicode="&#xba;" horiz-adv-x="384" 
d="M413 610c0 -115 -60 -220 -189 -220c-82 0 -134 48 -134 133c0 116 59 219 188 219c81 0 135 -47 135 -132zM343 610c0 52 -24 76 -72 76c-80 0 -111 -91 -111 -163c0 -52 23 -76 71 -76c80 0 112 91 112 163z" />
    <glyph glyph-name="ae" unicode="&#xe6;" horiz-adv-x="850" 
d="M838 393c0 -59 -33 -148 -266 -163l-109 -7c-3 -13 -3 -26 -3 -39c0 -84 54 -129 127 -129c43 0 79 20 117 46l38 -62c-25 -20 -83 -54 -166 -54c-70 0 -125 31 -153 84l-14 -69h-58l2 78c-45 -54 -110 -93 -159 -93c-109 0 -162 84 -162 205c0 176 105 337 280 337
c42 0 83 -11 121 -23l54 15h20l-16 -79c55 61 122 87 187 87c80 0 160 -41 160 -134zM756 385c0 49 -37 76 -99 76c-83 0 -159 -66 -183 -168l-2 -9l80 6c135 10 204 38 204 95zM421 436c-51 15 -82 19 -118 19c-121 0 -183 -152 -183 -264c0 -82 25 -134 91 -134
c52 0 123 66 157 118z" />
    <glyph glyph-name="dotlessi" unicode="&#x131;" horiz-adv-x="282" 
d="M245 471c0 -12 -5 -41 -16 -94l-77 -377h-85l76 372c3 14 12 55 12 61c0 8 -4 11 -11 11c-18 0 -44 -12 -66 -27l-32 49c33 28 91 61 140 61c18 0 59 -5 59 -56z" />
    <glyph glyph-name="lslash" unicode="&#x142;" horiz-adv-x="273" 
d="M297 514l-17 -83l-108 -78l-42 -204c-4 -17 -6 -35 -6 -53c0 -34 17 -45 48 -45c20 0 34 4 53 10l9 -65c-30 -8 -61 -11 -92 -11c-64 0 -106 17 -106 87c0 25 4 49 9 73l26 134l-77 -57l17 83l77 57l71 348l94 45l-64 -319z" />
    <glyph glyph-name="oslash" unicode="&#xf8;" horiz-adv-x="542" 
d="M573 549l-93 -104c19 -31 30 -71 30 -119c0 -181 -89 -341 -280 -341c-51 0 -94 12 -127 37l-53 -59h-78l91 102c-20 32 -31 73 -31 122c0 182 91 340 281 340c51 0 95 -14 128 -39l54 61h78zM387 429c-20 19 -48 28 -85 28c-134 0 -182 -156 -182 -270
c0 -19 2 -37 6 -52zM422 325c0 18 -2 35 -5 49l-261 -292c20 -18 48 -27 84 -27c134 0 182 156 182 270z" />
    <glyph glyph-name="oe" unicode="&#x153;" horiz-adv-x="869" 
d="M857 393c0 -59 -33 -148 -266 -163l-110 -7c-2 -10 -2 -23 -2 -39c0 -84 42 -129 127 -129c43 0 79 20 117 46l38 -62c-25 -20 -83 -54 -166 -54c-88 0 -146 37 -176 102c-43 -62 -112 -102 -195 -102c-114 0 -192 72 -192 202c0 182 91 340 275 340
c75 0 137 -41 166 -109c53 71 127 109 214 109c92 0 170 -41 170 -134zM775 385c0 49 -37 76 -99 76c-86 0 -161 -72 -186 -177l81 6c135 10 204 38 204 95zM410 325c0 88 -42 132 -114 132c-126 0 -176 -156 -176 -270c0 -88 41 -132 114 -132c126 0 176 156 176 270z" />
    <glyph glyph-name="germandbls" unicode="&#xdf;" horiz-adv-x="544" 
d="M534 595c0 -93 -66 -159 -163 -173c88 -11 141 -67 141 -156c0 -160 -88 -281 -256 -281c-31 0 -78 9 -107 20l16 75c21 -12 67 -24 97 -24c112 0 165 101 165 210c0 102 -104 114 -185 114l15 74c99 0 193 44 193 140c0 54 -49 75 -97 75c-103 0 -136 -95 -154 -181
l-105 -511c-22 -106 -61 -170 -180 -170c-35 0 -68 3 -101 14l25 67c22 -6 47 -11 76 -11c67 0 88 52 102 123l102 505c28 139 92 237 244 237c97 0 172 -48 172 -147z" />
    <glyph glyph-name="logicalnot" unicode="&#xac;" horiz-adv-x="667" 
d="M602 141h-70v225h-467v70h537v-295z" />
    <glyph glyph-name="mu" unicode="&#xb5;" horiz-adv-x="556" 
d="M540 512l-105 -512h-85l15 73c-51 -48 -127 -88 -171 -88c-33 0 -71 11 -93 36l-44 -214h-85c49 235 145 705 145 705h85l-70 -349c-2 -11 -7 -29 -7 -41c0 -45 32 -59 75 -59c58 0 136 54 181 87l74 362h85z" />
    <glyph glyph-name="trademark" unicode="&#x2122;" horiz-adv-x="755" 
d="M792 378h-67v236l-78 -147h-43l-76 146v-235h-67v349h80l85 -168l88 168h78v-349zM383 665h-107v-287h-69v287h-108v62h284v-62z" />
    <glyph glyph-name="Eth" unicode="&#xd0;" horiz-adv-x="688" 
d="M665 459c0 -294 -155 -459 -451 -459h-191l68 333h-61l14 67h60l67 327h169c180 0 325 -65 325 -268zM571 457c0 159 -110 192 -251 192h-78l-51 -249h189l-14 -67h-188l-51 -255h89c237 0 355 143 355 379z" />
    <glyph glyph-name="onehalf" unicode="&#xbd;" horiz-adv-x="1036" 
d="M954 183c0 -70 -52 -114 -108 -153s-113 -75 -172 -111h244l-15 -72h-371l14 67c62 37 130 79 192 123c69 48 128 93 128 137c0 28 -22 52 -81 52c-54 0 -91 -18 -129 -53l-50 50c56 54 113 73 193 73c81 0 155 -36 155 -113zM821 727l-570 -878h-79l570 878h79zM355 356
l-13 -63h-271l13 63h103l53 263c-35 -16 -77 -30 -122 -38l13 63c67 19 119 49 162 98h52l-78 -386h88z" />
    <glyph glyph-name="plusminus" unicode="&#xb1;" horiz-adv-x="667" 
d="M602 307h-234v-187h-70v187h-233v70h233v213h70v-213h234v-70zM602 0h-537v70h537v-70z" />
    <glyph glyph-name="Thorn" unicode="&#xde;" horiz-adv-x="594" 
d="M578 404c0 -178 -133 -253 -328 -253h-109l-30 -151h-88l148 727h88l-28 -131h114c133 0 233 -59 233 -192zM486 400c0 73 -57 118 -153 118h-118l-58 -289h105c128 0 224 55 224 171z" />
    <glyph glyph-name="onequarter" unicode="&#xbc;" horiz-adv-x="1036" 
d="M871 727l-570 -878h-79l570 878h79zM918 6l-14 -65h-62l-21 -107h-75l22 107h-227l12 64l294 290h67l-58 -289h62zM385 356l-13 -63h-271l13 63h103l53 263c-35 -16 -77 -30 -122 -38l13 63c67 19 119 49 162 98h52l-78 -386h88zM816 179l-176 -173h141z" />
    <glyph glyph-name="divide" unicode="&#xf7;" horiz-adv-x="667" 
d="M384 508c0 -37 -16 -49 -52 -49c-39 0 -50 18 -50 49c0 34 12 51 50 51s52 -16 52 -51zM602 253h-537v70h537v-70zM384 66c0 -37 -16 -49 -52 -49c-39 0 -50 18 -50 49c0 34 12 51 50 51s52 -16 52 -51z" />
    <glyph glyph-name="brokenbar" unicode="&#xa6;" horiz-adv-x="386" 
d="M241 431h-77v311h77v-311zM241 -193h-77v311h77v-311z" />
    <glyph glyph-name="degree" unicode="&#xb0;" horiz-adv-x="393" 
d="M354 595c0 -84 -68 -149 -148 -149c-81 0 -148 65 -148 149c0 82 67 147 147 147c84 0 149 -67 149 -147zM292 592c0 48 -32 88 -87 88s-85 -42 -85 -84c0 -48 32 -88 85 -88s87 40 87 84z" />
    <glyph glyph-name="thorn" unicode="&#xfe;" horiz-adv-x="556" 
d="M524 332c0 -169 -75 -347 -271 -347c-50 0 -102 22 -140 60l-49 -238h-85l188 920h84l-53 -261c47 35 99 61 164 61c114 0 162 -91 162 -195zM436 328c0 67 -22 128 -101 128c-52 0 -113 -38 -153 -68l-55 -274c34 -33 83 -58 130 -58c135 0 179 163 179 272z" />
    <glyph glyph-name="threequarters" unicode="&#xbe;" horiz-adv-x="1036" 
d="M871 727l-570 -878h-79l570 878h79zM918 6l-14 -65h-62l-21 -107h-75l22 107h-227l12 64l294 290h67l-58 -289h62zM474 733l-11 -61l-135 -117c54 -4 105 -43 105 -110c0 -115 -98 -164 -196 -164c-58 0 -131 23 -166 81l63 38c19 -35 62 -55 102 -55c57 0 109 29 109 98
c0 41 -35 63 -88 63c-21 0 -41 -2 -61 -6l8 32l157 134h-201l13 67h301zM816 179l-176 -173h141z" />
    <glyph glyph-name="registered" unicode="&#xae;" horiz-adv-x="944" 
d="M902 320c0 -117 -40 -216 -123 -299s-182 -124 -299 -124s-216 41 -299 124s-123 182 -123 299s40 215 123 298s182 124 299 124s216 -41 299 -124s123 -181 123 -298zM830 320c0 194 -156 352 -350 352s-350 -158 -350 -352s156 -353 350 -353s350 159 350 353zM664 105
h-79l-34 133c-9 34 -26 47 -50 47h-103v-180h-77v447h155c102 0 169 -26 169 -125c0 -58 -23 -93 -61 -111c20 -8 32 -30 40 -59zM567 422c0 48 -23 64 -91 64h-78v-135h74c74 0 95 17 95 71z" />
    <glyph glyph-name="minus" unicode="&#x2212;" horiz-adv-x="667" 
d="M602 253h-537v70h537v-70z" />
    <glyph glyph-name="eth" unicode="&#xf0;" horiz-adv-x="542" 
d="M510 355c0 -182 -65 -370 -279 -370c-120 0 -199 71 -199 195c0 163 86 332 271 332c41 0 86 -14 120 -44c-6 50 -50 129 -82 167l-114 -57l-20 41l109 53c-22 27 -48 51 -77 70h83c19 -11 37 -25 52 -41l83 41l22 -40l-74 -36c73 -88 105 -196 105 -311zM421 316
c0 78 -41 126 -119 126c-129 0 -182 -142 -182 -262c0 -78 41 -125 119 -125c131 0 182 143 182 261z" />
    <glyph glyph-name="multiply" unicode="&#xd7;" horiz-adv-x="667" 
d="M581 90l-49 -50l-199 199l-198 -199l-50 50l199 198l-199 199l50 49l198 -198l199 198l49 -49l-198 -199z" />
    <glyph glyph-name="copyright" unicode="&#xa9;" horiz-adv-x="944" 
d="M902 320c0 -117 -40 -216 -123 -299s-182 -124 -299 -124s-216 41 -299 124s-123 182 -123 299s40 215 123 298s182 124 299 124s216 -41 299 -124s123 -181 123 -298zM830 320c0 194 -156 352 -350 352s-350 -158 -350 -352s156 -353 350 -353s350 159 350 353zM668 460
l-64 -39c-19 33 -49 67 -108 67c-96 0 -131 -58 -131 -167c0 -113 38 -165 132 -165c51 0 81 20 111 44l48 -58c-52 -41 -103 -53 -159 -53c-146 0 -213 77 -213 232c0 154 67 234 213 234c89 0 140 -40 171 -95z" />
    <glyph glyph-name="Aacute" unicode="&#xc1;" horiz-adv-x="651" 
d="M594 956l-191 -176h-81l147 176h125zM583 0h-86l-31 204h-302l-112 -204h-95l401 727h117zM455 283l-54 363l-195 -363h249z" />
    <glyph glyph-name="Acircumflex" unicode="&#xc2;" horiz-adv-x="651" 
d="M588 780h-73l-66 113l-112 -113h-81l150 176h105zM583 0h-86l-31 204h-302l-112 -204h-95l401 727h117zM455 283l-54 363l-195 -363h249z" />
    <glyph glyph-name="Adieresis" unicode="&#xc4;" horiz-adv-x="651" 
d="M587 843c0 -43 -22 -63 -67 -63c-33 0 -49 11 -49 41c0 42 21 62 67 62c34 0 49 -12 49 -40zM394 843c0 -43 -22 -63 -67 -63c-33 0 -49 11 -49 41c0 42 21 62 67 62c34 0 49 -12 49 -40zM583 0h-86l-31 204h-302l-112 -204h-95l401 727h117zM455 283l-54 363l-195 -363
h249z" />
    <glyph glyph-name="Agrave" unicode="&#xc0;" horiz-adv-x="651" 
d="M469 780h-66l-119 176h110zM583 0h-86l-31 204h-302l-112 -204h-95l401 727h117zM455 283l-54 363l-195 -363h249z" />
    <glyph glyph-name="Aring" unicode="&#xc5;" horiz-adv-x="651" 
d="M583 0h-86l-31 204h-302l-112 -204h-95l389 705c-19 12 -36 37 -36 73c0 72 49 127 130 127c56 0 99 -37 99 -94c0 -52 -26 -91 -60 -108zM492 810c0 33 -28 53 -59 53c-50 0 -76 -36 -76 -83c0 -35 29 -53 59 -53c48 0 76 33 76 83zM455 283l-54 363l-195 -363h249z" />
    <glyph glyph-name="Atilde" unicode="&#xc3;" horiz-adv-x="651" 
d="M617 914c-16 -71 -56 -134 -141 -134c-76 0 -83 71 -134 71c-37 0 -53 -40 -61 -71h-59c17 75 64 134 140 134c77 0 84 -71 135 -71c37 0 53 41 61 71h59zM583 0h-86l-31 204h-302l-112 -204h-95l401 727h117zM455 283l-54 363l-195 -363h249z" />
    <glyph glyph-name="Ccedilla" unicode="&#xc7;" horiz-adv-x="675" 
d="M705 606l-78 -43c-36 68 -102 103 -176 103c-204 0 -296 -208 -296 -398c0 -121 53 -207 196 -207c63 0 120 25 180 71l46 -71c-53 -40 -125 -74 -226 -76c39 -10 65 -33 65 -73c0 -77 -74 -105 -138 -105c-44 0 -80 7 -118 23l26 52c31 -13 71 -19 98 -19
c29 0 68 8 68 45c0 34 -52 41 -77 43l25 36c-156 15 -239 118 -239 281c0 254 131 474 398 474c100 0 207 -45 246 -136z" />
    <glyph glyph-name="Eacute" unicode="&#xc9;" horiz-adv-x="584" 
d="M594 956l-191 -176h-81l147 176h125zM621 727l-17 -78h-362l-46 -228h331l-17 -78h-331l-52 -265h363l-17 -78h-450l148 727h450z" />
    <glyph glyph-name="Ecircumflex" unicode="&#xca;" horiz-adv-x="584" 
d="M568 780h-73l-66 113l-112 -113h-81l150 176h105zM621 727l-17 -78h-362l-46 -228h331l-17 -78h-331l-52 -265h363l-17 -78h-450l148 727h450z" />
    <glyph glyph-name="Edieresis" unicode="&#xcb;" horiz-adv-x="584" 
d="M547 843c0 -43 -22 -63 -67 -63c-33 0 -49 11 -49 41c0 42 21 62 67 62c34 0 49 -12 49 -40zM354 843c0 -43 -22 -63 -67 -63c-33 0 -49 11 -49 41c0 42 21 62 67 62c34 0 49 -12 49 -40zM621 727l-17 -78h-362l-46 -228h331l-17 -78h-331l-52 -265h363l-17 -78h-450
l148 727h450z" />
    <glyph glyph-name="Egrave" unicode="&#xc8;" horiz-adv-x="584" 
d="M452 780h-66l-119 176h110zM621 727l-17 -78h-362l-46 -228h331l-17 -78h-331l-52 -265h363l-17 -78h-450l148 727h450z" />
    <glyph glyph-name="Iacute" unicode="&#xcd;" horiz-adv-x="345" 
d="M444 956l-191 -176h-81l147 176h125zM398 727l-15 -69h-91l-118 -589h91l-15 -69h-270l15 69h91l118 589h-91l15 69h270z" />
    <glyph glyph-name="Icircumflex" unicode="&#xce;" horiz-adv-x="345" 
d="M442 780h-73l-66 113l-112 -113h-81l150 176h105zM398 727l-15 -69h-91l-118 -589h91l-15 -69h-270l15 69h91l118 589h-91l15 69h270z" />
    <glyph glyph-name="Idieresis" unicode="&#xcf;" horiz-adv-x="345" 
d="M437 843c0 -43 -22 -63 -67 -63c-33 0 -49 11 -49 41c0 42 21 62 67 62c34 0 49 -12 49 -40zM244 843c0 -43 -22 -63 -67 -63c-33 0 -49 11 -49 41c0 42 21 62 67 62c34 0 49 -12 49 -40zM398 727l-15 -69h-91l-118 -589h91l-15 -69h-270l15 69h91l118 589h-91l15 69h270
z" />
    <glyph glyph-name="Igrave" unicode="&#xcc;" horiz-adv-x="345" 
d="M322 780h-66l-119 176h110zM398 727l-15 -69h-91l-118 -589h91l-15 -69h-270l15 69h91l118 589h-91l15 69h270z" />
    <glyph glyph-name="Ntilde" unicode="&#xd1;" horiz-adv-x="697" 
d="M647 934c-16 -71 -56 -134 -141 -134c-76 0 -83 71 -134 71c-37 0 -53 -40 -61 -71h-59c17 75 64 134 140 134c77 0 84 -71 135 -71c37 0 53 41 61 71h59zM712 727l-148 -727h-98l-228 648l-131 -648h-84l148 727h130l208 -592l120 592h83z" />
    <glyph glyph-name="Oacute" unicode="&#xd3;" horiz-adv-x="745" 
d="M634 956l-191 -176h-81l147 176h125zM722 457c0 -241 -118 -472 -385 -472c-179 0 -276 106 -276 283c0 242 117 474 385 474c179 0 276 -107 276 -285zM628 459c0 129 -58 207 -192 207c-205 0 -281 -227 -281 -398c0 -129 57 -207 192 -207c205 0 281 227 281 398z" />
    <glyph glyph-name="Ocircumflex" unicode="&#xd4;" horiz-adv-x="745" 
d="M632 780h-73l-66 113l-112 -113h-81l150 176h105zM722 457c0 -241 -118 -472 -385 -472c-179 0 -276 106 -276 283c0 242 117 474 385 474c179 0 276 -107 276 -285zM628 459c0 129 -58 207 -192 207c-205 0 -281 -227 -281 -398c0 -129 57 -207 192 -207
c205 0 281 227 281 398z" />
    <glyph glyph-name="Odieresis" unicode="&#xd6;" horiz-adv-x="745" 
d="M617 843c0 -43 -22 -63 -67 -63c-33 0 -49 11 -49 41c0 42 21 62 67 62c34 0 49 -12 49 -40zM424 843c0 -43 -22 -63 -67 -63c-33 0 -49 11 -49 41c0 42 21 62 67 62c34 0 49 -12 49 -40zM722 457c0 -241 -118 -472 -385 -472c-179 0 -276 106 -276 283
c0 242 117 474 385 474c179 0 276 -107 276 -285zM628 459c0 129 -58 207 -192 207c-205 0 -281 -227 -281 -398c0 -129 57 -207 192 -207c205 0 281 227 281 398z" />
    <glyph glyph-name="Ograve" unicode="&#xd2;" horiz-adv-x="745" 
d="M503 780h-66l-119 176h110zM722 457c0 -241 -118 -472 -385 -472c-179 0 -276 106 -276 283c0 242 117 474 385 474c179 0 276 -107 276 -285zM628 459c0 129 -58 207 -192 207c-205 0 -281 -227 -281 -398c0 -129 57 -207 192 -207c205 0 281 227 281 398z" />
    <glyph glyph-name="Otilde" unicode="&#xd5;" horiz-adv-x="745" 
d="M647 914c-16 -71 -56 -134 -141 -134c-76 0 -83 71 -134 71c-37 0 -53 -40 -61 -71h-59c17 75 64 134 140 134c77 0 84 -71 135 -71c37 0 53 41 61 71h59zM722 457c0 -241 -118 -472 -385 -472c-179 0 -276 106 -276 283c0 242 117 474 385 474c179 0 276 -107 276 -285z
M628 459c0 129 -58 207 -192 207c-205 0 -281 -227 -281 -398c0 -129 57 -207 192 -207c205 0 281 227 281 398z" />
    <glyph glyph-name="Scaron" unicode="&#x160;" horiz-adv-x="573" 
d="M558 956l-150 -176h-105l-77 176h73l66 -113l112 113h81zM588 606l-79 -43c-33 69 -98 102 -169 102c-74 0 -170 -38 -170 -131c0 -70 83 -93 167 -121c93 -31 190 -69 190 -191c0 -172 -133 -237 -287 -237c-104 0 -213 41 -251 146l78 43c30 -83 103 -112 186 -112
c86 0 184 44 184 143c0 74 -65 104 -126 123c-106 33 -228 63 -228 197c0 159 142 217 266 217c99 0 196 -44 239 -136z" />
    <glyph glyph-name="Uacute" unicode="&#xda;" horiz-adv-x="676" 
d="M624 956l-191 -176h-81l147 176h125zM694 727l-91 -445c-39 -192 -107 -297 -318 -297c-128 0 -225 43 -225 182c0 41 6 76 14 116l90 444h88l-89 -435c-7 -37 -17 -76 -17 -118c0 -92 60 -113 149 -113c146 0 194 91 222 228l89 438h88z" />
    <glyph glyph-name="Ucircumflex" unicode="&#xdb;" horiz-adv-x="676" 
d="M596 780h-73l-66 113l-112 -113h-81l150 176h105zM694 727l-91 -445c-39 -192 -107 -297 -318 -297c-128 0 -225 43 -225 182c0 41 6 76 14 116l90 444h88l-89 -435c-7 -37 -17 -76 -17 -118c0 -92 60 -113 149 -113c146 0 194 91 222 228l89 438h88z" />
    <glyph glyph-name="Udieresis" unicode="&#xdc;" horiz-adv-x="676" 
d="M597 843c0 -43 -22 -63 -67 -63c-33 0 -49 11 -49 41c0 42 21 62 67 62c34 0 49 -12 49 -40zM404 843c0 -43 -22 -63 -67 -63c-33 0 -49 11 -49 41c0 42 21 62 67 62c34 0 49 -12 49 -40zM694 727l-91 -445c-39 -192 -107 -297 -318 -297c-128 0 -225 43 -225 182
c0 41 6 76 14 116l90 444h88l-89 -435c-7 -37 -17 -76 -17 -118c0 -92 60 -113 149 -113c146 0 194 91 222 228l89 438h88z" />
    <glyph glyph-name="Ugrave" unicode="&#xd9;" horiz-adv-x="676" 
d="M502 780h-66l-119 176h110zM694 727l-91 -445c-39 -192 -107 -297 -318 -297c-128 0 -225 43 -225 182c0 41 6 76 14 116l90 444h88l-89 -435c-7 -37 -17 -76 -17 -118c0 -92 60 -113 149 -113c146 0 194 91 222 228l89 438h88z" />
    <glyph glyph-name="Yacute" unicode="&#xdd;" horiz-adv-x="587" 
d="M574 956l-191 -176h-81l147 176h125zM669 727l-327 -417l-62 -310h-88l63 308l-156 419h93l118 -335l259 335h100z" />
    <glyph glyph-name="Ydieresis" unicode="&#x178;" horiz-adv-x="587" 
d="M537 843c0 -43 -22 -63 -67 -63c-33 0 -49 11 -49 41c0 42 21 62 67 62c34 0 49 -12 49 -40zM344 843c0 -43 -22 -63 -67 -63c-33 0 -49 11 -49 41c0 42 21 62 67 62c34 0 49 -12 49 -40zM669 727l-327 -417l-62 -310h-88l63 308l-156 419h93l118 -335l259 335h100z" />
    <glyph glyph-name="Zcaron" unicode="&#x17d;" horiz-adv-x="593" 
d="M588 956l-150 -176h-105l-77 176h73l66 -113l112 113h81zM637 727l-17 -80l-516 -569h412l-17 -78h-517l18 86l511 563h-381l17 78h490z" />
    <glyph glyph-name="aacute" unicode="&#xe1;" horiz-adv-x="555" 
d="M544 766l-191 -176h-81l147 176h125zM537 512l-103 -512h-68l2 77c-47 -54 -110 -92 -166 -92c-118 0 -170 84 -170 205c0 176 105 337 288 337c50 0 91 -11 129 -23l60 8h28zM436 433c-62 19 -82 22 -125 22c-130 0 -191 -152 -191 -264c0 -82 25 -134 99 -134
c61 0 131 66 165 118z" />
    <glyph glyph-name="acircumflex" unicode="&#xe2;" horiz-adv-x="555" 
d="M508 590h-73l-66 113l-112 -113h-81l150 176h105zM537 512l-103 -512h-68l2 77c-47 -54 -110 -92 -166 -92c-118 0 -170 84 -170 205c0 176 105 337 288 337c50 0 91 -11 129 -23l60 8h28zM436 433c-62 19 -82 22 -125 22c-130 0 -191 -152 -191 -264
c0 -82 25 -134 99 -134c61 0 131 66 165 118z" />
    <glyph glyph-name="adieresis" unicode="&#xe4;" horiz-adv-x="555" 
d="M517 670c0 -43 -22 -63 -67 -63c-33 0 -49 11 -49 41c0 42 21 62 67 62c34 0 49 -12 49 -40zM324 670c0 -43 -22 -63 -67 -63c-33 0 -49 11 -49 41c0 42 21 62 67 62c34 0 49 -12 49 -40zM537 512l-103 -512h-68l2 77c-47 -54 -110 -92 -166 -92c-118 0 -170 84 -170 205
c0 176 105 337 288 337c50 0 91 -11 129 -23l60 8h28zM436 433c-62 19 -82 22 -125 22c-130 0 -191 -152 -191 -264c0 -82 25 -134 99 -134c61 0 131 66 165 118z" />
    <glyph glyph-name="agrave" unicode="&#xe0;" horiz-adv-x="555" 
d="M412 590h-66l-119 176h110zM537 512l-103 -512h-68l2 77c-47 -54 -110 -92 -166 -92c-118 0 -170 84 -170 205c0 176 105 337 288 337c50 0 91 -11 129 -23l60 8h28zM436 433c-62 19 -82 22 -125 22c-130 0 -191 -152 -191 -264c0 -82 25 -134 99 -134
c61 0 131 66 165 118z" />
    <glyph glyph-name="aring" unicode="&#xe5;" horiz-adv-x="555" 
d="M455 676c0 -67 -43 -111 -113 -111c-44 0 -78 27 -78 74c0 63 43 110 112 110c44 0 79 -25 79 -73zM537 512l-103 -512h-68l2 77c-47 -54 -110 -92 -166 -92c-118 0 -170 84 -170 205c0 176 105 337 288 337c50 0 91 -11 129 -23l60 8h28zM412 673c0 25 -19 36 -43 36
c-39 0 -62 -31 -62 -68c0 -25 18 -36 42 -36c41 0 63 29 63 68zM436 433c-62 19 -82 22 -125 22c-130 0 -191 -152 -191 -264c0 -82 25 -134 99 -134c61 0 131 66 165 118z" />
    <glyph glyph-name="atilde" unicode="&#xe3;" horiz-adv-x="555" 
d="M557 745c-16 -71 -56 -134 -141 -134c-76 0 -83 71 -134 71c-37 0 -53 -40 -61 -71h-59c17 75 64 134 140 134c77 0 84 -71 135 -71c37 0 53 41 61 71h59zM537 512l-103 -512h-68l2 77c-47 -54 -110 -92 -166 -92c-118 0 -170 84 -170 205c0 176 105 337 288 337
c50 0 91 -11 129 -23l60 8h28zM436 433c-62 19 -82 22 -125 22c-130 0 -191 -152 -191 -264c0 -82 25 -134 99 -134c61 0 131 66 165 118z" />
    <glyph glyph-name="ccedilla" unicode="&#xe7;" horiz-adv-x="482" 
d="M495 432l-67 -37c-24 45 -67 62 -113 62c-142 0 -195 -151 -195 -270c0 -85 40 -132 127 -132c27 0 51 8 71 18c19 10 35 21 46 28l38 -62c-27 -21 -77 -48 -144 -53c28 -10 64 -25 64 -74c0 -77 -74 -105 -138 -105c-44 0 -80 7 -118 23l26 52c31 -13 71 -19 98 -19
c29 0 68 8 68 45c0 34 -52 41 -77 43l25 35c-110 11 -174 84 -174 203c0 185 96 338 294 338c67 0 141 -31 169 -95z" />
    <glyph glyph-name="eacute" unicode="&#xe9;" horiz-adv-x="510" 
d="M514 766l-191 -176h-81l147 176h125zM498 393c0 -59 -33 -148 -266 -163l-110 -7c-2 -10 -2 -23 -2 -39c0 -84 42 -129 127 -129c43 0 79 20 117 46l38 -62c-25 -20 -83 -54 -166 -54c-138 0 -204 75 -204 204c0 174 102 338 296 338c92 0 170 -41 170 -134zM416 385
c0 49 -37 76 -99 76c-86 0 -157 -71 -186 -177l81 6c135 10 204 38 204 95z" />
    <glyph glyph-name="ecircumflex" unicode="&#xea;" horiz-adv-x="510" 
d="M488 590h-73l-66 113l-112 -113h-81l150 176h105zM498 393c0 -59 -33 -148 -266 -163l-110 -7c-2 -10 -2 -23 -2 -39c0 -84 42 -129 127 -129c43 0 79 20 117 46l38 -62c-25 -20 -83 -54 -166 -54c-138 0 -204 75 -204 204c0 174 102 338 296 338c92 0 170 -41 170 -134z
M416 385c0 49 -37 76 -99 76c-86 0 -157 -71 -186 -177l81 6c135 10 204 38 204 95z" />
    <glyph glyph-name="edieresis" unicode="&#xeb;" horiz-adv-x="510" 
d="M497 670c0 -43 -22 -63 -67 -63c-33 0 -49 11 -49 41c0 42 21 62 67 62c34 0 49 -12 49 -40zM304 670c0 -43 -22 -63 -67 -63c-33 0 -49 11 -49 41c0 42 21 62 67 62c34 0 49 -12 49 -40zM498 393c0 -59 -33 -148 -266 -163l-110 -7c-2 -10 -2 -23 -2 -39
c0 -84 42 -129 127 -129c43 0 79 20 117 46l38 -62c-25 -20 -83 -54 -166 -54c-138 0 -204 75 -204 204c0 174 102 338 296 338c92 0 170 -41 170 -134zM416 385c0 49 -37 76 -99 76c-86 0 -157 -71 -186 -177l81 6c135 10 204 38 204 95z" />
    <glyph glyph-name="egrave" unicode="&#xe8;" horiz-adv-x="510" 
d="M402 590h-66l-119 176h110zM498 393c0 -59 -33 -148 -266 -163l-110 -7c-2 -10 -2 -23 -2 -39c0 -84 42 -129 127 -129c43 0 79 20 117 46l38 -62c-25 -20 -83 -54 -166 -54c-138 0 -204 75 -204 204c0 174 102 338 296 338c92 0 170 -41 170 -134zM416 385
c0 49 -37 76 -99 76c-86 0 -157 -71 -186 -177l81 6c135 10 204 38 204 95z" />
    <glyph glyph-name="iacute" unicode="&#xed;" horiz-adv-x="282" 
d="M374 766l-191 -176h-81l147 176h125zM245 471c0 -12 -5 -41 -16 -94l-77 -377h-85l76 372c3 14 12 55 12 61c0 8 -4 11 -11 11c-18 0 -44 -12 -66 -27l-32 49c33 28 91 61 140 61c18 0 59 -5 59 -56z" />
    <glyph glyph-name="icircumflex" unicode="&#xee;" horiz-adv-x="282" 
d="M348 590h-73l-66 113l-112 -113h-81l150 176h105zM245 471c0 -12 -5 -41 -16 -94l-77 -377h-85l76 372c3 14 12 55 12 61c0 8 -4 11 -11 11c-18 0 -44 -12 -66 -27l-32 49c33 28 91 61 140 61c18 0 59 -5 59 -56z" />
    <glyph glyph-name="idieresis" unicode="&#xef;" horiz-adv-x="282" 
d="M337 670c0 -43 -22 -63 -67 -63c-33 0 -49 11 -49 41c0 42 21 62 67 62c34 0 49 -12 49 -40zM144 670c0 -43 -22 -63 -67 -63c-33 0 -49 11 -49 41c0 42 21 62 67 62c34 0 49 -12 49 -40zM245 471c0 -12 -5 -41 -16 -94l-77 -377h-85l76 372c3 14 12 55 12 61
c0 8 -4 11 -11 11c-18 0 -44 -12 -66 -27l-32 49c33 28 91 61 140 61c18 0 59 -5 59 -56z" />
    <glyph glyph-name="igrave" unicode="&#xec;" horiz-adv-x="282" 
d="M282 590h-66l-119 176h110zM245 471c0 -12 -5 -41 -16 -94l-77 -377h-85l76 372c3 14 12 55 12 61c0 8 -4 11 -11 11c-18 0 -44 -12 -66 -27l-32 49c33 28 91 61 140 61c18 0 59 -5 59 -56z" />
    <glyph glyph-name="ntilde" unicode="&#xf1;" horiz-adv-x="556" 
d="M537 745c-16 -71 -56 -134 -141 -134c-76 0 -83 71 -134 71c-37 0 -53 -40 -61 -71h-59c17 75 64 134 140 134c77 0 84 -71 135 -71c37 0 53 41 61 71h59zM517 412c0 -9 -3 -35 -10 -69l-70 -343h-85l62 302c12 57 15 86 15 95c0 40 -31 52 -65 52
c-65 0 -146 -55 -191 -87l-74 -362h-85l105 512h85l-15 -73c54 43 122 88 191 88c71 0 137 -31 137 -115z" />
    <glyph glyph-name="oacute" unicode="&#xf3;" horiz-adv-x="542" 
d="M504 766l-191 -176h-81l147 176h125zM510 326c0 -181 -89 -341 -280 -341c-121 0 -198 72 -198 202c0 182 91 340 281 340c119 0 197 -72 197 -201zM422 325c0 88 -40 132 -120 132c-134 0 -182 -156 -182 -270c0 -88 40 -132 120 -132c134 0 182 156 182 270z" />
    <glyph glyph-name="ocircumflex" unicode="&#xf4;" horiz-adv-x="542" 
d="M478 590h-73l-66 113l-112 -113h-81l150 176h105zM510 326c0 -181 -89 -341 -280 -341c-121 0 -198 72 -198 202c0 182 91 340 281 340c119 0 197 -72 197 -201zM422 325c0 88 -40 132 -120 132c-134 0 -182 -156 -182 -270c0 -88 40 -132 120 -132
c134 0 182 156 182 270z" />
    <glyph glyph-name="odieresis" unicode="&#xf6;" horiz-adv-x="542" 
d="M477 670c0 -43 -22 -63 -67 -63c-33 0 -49 11 -49 41c0 42 21 62 67 62c34 0 49 -12 49 -40zM284 670c0 -43 -22 -63 -67 -63c-33 0 -49 11 -49 41c0 42 21 62 67 62c34 0 49 -12 49 -40zM510 326c0 -181 -89 -341 -280 -341c-121 0 -198 72 -198 202
c0 182 91 340 281 340c119 0 197 -72 197 -201zM422 325c0 88 -40 132 -120 132c-134 0 -182 -156 -182 -270c0 -88 40 -132 120 -132c134 0 182 156 182 270z" />
    <glyph glyph-name="ograve" unicode="&#xf2;" horiz-adv-x="542" 
d="M392 590h-66l-119 176h110zM510 326c0 -181 -89 -341 -280 -341c-121 0 -198 72 -198 202c0 182 91 340 281 340c119 0 197 -72 197 -201zM422 325c0 88 -40 132 -120 132c-134 0 -182 -156 -182 -270c0 -88 40 -132 120 -132c134 0 182 156 182 270z" />
    <glyph glyph-name="otilde" unicode="&#xf5;" horiz-adv-x="542" 
d="M517 745c-16 -71 -56 -134 -141 -134c-76 0 -83 71 -134 71c-37 0 -53 -40 -61 -71h-59c17 75 64 134 140 134c77 0 84 -71 135 -71c37 0 53 41 61 71h59zM510 326c0 -181 -89 -341 -280 -341c-121 0 -198 72 -198 202c0 182 91 340 281 340c119 0 197 -72 197 -201z
M422 325c0 88 -40 132 -120 132c-134 0 -182 -156 -182 -270c0 -88 40 -132 120 -132c134 0 182 156 182 270z" />
    <glyph glyph-name="scaron" unicode="&#x161;" horiz-adv-x="439" 
d="M448 766l-150 -176h-105l-77 176h73l66 -113l112 113h81zM416 437l-67 -40c-26 43 -64 63 -112 63c-41 0 -102 -20 -102 -79c0 -40 48 -63 101 -86c66 -29 141 -64 141 -141c0 -124 -105 -169 -211 -169c-68 0 -143 26 -183 92l65 44c25 -44 74 -68 122 -68
c54 0 124 18 124 86c0 40 -41 64 -90 85c-69 30 -152 60 -152 146c0 113 100 157 197 157c65 0 134 -25 167 -90z" />
    <glyph glyph-name="uacute" unicode="&#xfa;" horiz-adv-x="556" 
d="M534 766l-191 -176h-81l147 176h125zM540 512l-105 -512h-85l15 73c-51 -48 -130 -88 -181 -88c-86 0 -145 43 -145 128c0 14 3 29 8 56l70 343h85l-62 -302c-4 -20 -15 -67 -15 -88c0 -45 32 -59 75 -59c58 0 136 54 181 87l74 362h85z" />
    <glyph glyph-name="ucircumflex" unicode="&#xfb;" horiz-adv-x="556" 
d="M498 590h-73l-66 113l-112 -113h-81l150 176h105zM540 512l-105 -512h-85l15 73c-51 -48 -130 -88 -181 -88c-86 0 -145 43 -145 128c0 14 3 29 8 56l70 343h85l-62 -302c-4 -20 -15 -67 -15 -88c0 -45 32 -59 75 -59c58 0 136 54 181 87l74 362h85z" />
    <glyph glyph-name="udieresis" unicode="&#xfc;" horiz-adv-x="556" 
d="M487 670c0 -43 -22 -63 -67 -63c-33 0 -49 11 -49 41c0 42 21 62 67 62c34 0 49 -12 49 -40zM294 670c0 -43 -22 -63 -67 -63c-33 0 -49 11 -49 41c0 42 21 62 67 62c34 0 49 -12 49 -40zM540 512l-105 -512h-85l15 73c-51 -48 -130 -88 -181 -88c-86 0 -145 43 -145 128
c0 14 3 29 8 56l70 343h85l-62 -302c-4 -20 -15 -67 -15 -88c0 -45 32 -59 75 -59c58 0 136 54 181 87l74 362h85z" />
    <glyph glyph-name="ugrave" unicode="&#xf9;" horiz-adv-x="556" 
d="M402 590h-66l-119 176h110zM540 512l-105 -512h-85l15 73c-51 -48 -130 -88 -181 -88c-86 0 -145 43 -145 128c0 14 2 29 8 56l70 343h85l-62 -302c-7 -32 -15 -71 -15 -88c0 -45 32 -59 75 -59c58 0 136 54 181 87l74 362h85z" />
    <glyph glyph-name="yacute" unicode="&#xfd;" horiz-adv-x="496" 
d="M494 766l-191 -176h-81l147 176h125zM531 512l-323 -551c-50 -85 -93 -154 -203 -154c-31 0 -61 4 -90 14l21 67c25 -10 47 -12 74 -12c37 0 68 28 93 62c13 17 23 36 33 53s18 33 26 46l-110 475h85l83 -384l217 384h94z" />
    <glyph glyph-name="ydieresis" unicode="&#xff;" horiz-adv-x="496" 
d="M457 670c0 -43 -22 -63 -67 -63c-33 0 -49 11 -49 41c0 42 21 62 67 62c34 0 49 -12 49 -40zM264 670c0 -43 -22 -63 -67 -63c-33 0 -49 11 -49 41c0 42 21 62 67 62c34 0 49 -12 49 -40zM531 512l-323 -551c-50 -85 -93 -154 -203 -154c-31 0 -61 4 -90 14l21 67
c25 -10 47 -12 74 -12c37 0 68 28 93 62c13 17 23 36 33 53s18 33 26 46l-110 475h85l83 -384l217 384h94z" />
    <glyph glyph-name="zcaron" unicode="&#x17e;" 
d="M486 766l-150 -176h-105l-77 176h73l66 -113l112 113h81zM464 512l-12 -58l-343 -384h53c60 0 99 -17 142 -44c41 -26 73 -45 111 -45h36l-15 -70h-38c-46 0 -83 22 -120 45c-43 27 -76 44 -141 44h-151l12 62l345 384h-264l14 66h371z" />
    <glyph glyph-name="parenleft.superior" unicode="&#x207d;" horiz-adv-x="279" 
d="M354 816c-146 -118 -244 -272 -244 -424c0 -81 37 -194 100 -266h-88c-63 90 -88 176 -88 264c0 165 87 306 225 426h95z" />
    <glyph glyph-name="parenright.superior" unicode="&#x207e;" horiz-adv-x="279" 
d="M244 566c0 -179 -88 -320 -225 -440h-97c140 113 245 274 245 438c0 81 -36 180 -99 252h87c64 -90 89 -162 89 -250z" />
    <glyph glyph-name="a.superior" unicode="&#xf6e9;" horiz-adv-x="437" 
d="M423 678l-77 -385h-66l1 45c-35 -33 -78 -56 -118 -56c-95 0 -138 64 -138 156c0 131 80 251 224 251c38 0 69 -8 99 -16c14 1 30 3 44 5h31zM176 350c43 0 93 45 117 81l35 177c-40 12 -55 14 -85 14c-94 0 -136 -106 -136 -183c0 -55 18 -89 69 -89z" />
    <glyph glyph-name="b.superior" unicode="&#xf6ea;" horiz-adv-x="434" 
d="M416 535c0 -156 -89 -253 -220 -253c-31 0 -65 5 -101 17l-44 -6h-33l110 540h80l-39 -191c37 30 72 47 116 47c92 0 131 -66 131 -154zM335 534c0 47 -13 88 -64 88c-41 0 -87 -35 -119 -64l-40 -195c30 -10 61 -14 97 -14c95 0 126 108 126 185z" />
    <glyph glyph-name="d.superior" unicode="&#xf6eb;" horiz-adv-x="423" 
d="M455 833l-109 -540h-66l1 45c-35 -33 -78 -56 -118 -56c-95 0 -138 64 -138 156c0 129 80 251 224 251c35 0 66 -7 93 -15l33 159h80zM176 350c43 0 93 45 117 81l35 177c-40 12 -55 14 -85 14c-94 0 -136 -106 -136 -183c0 -55 18 -89 69 -89z" />
    <glyph glyph-name="e.superior" unicode="&#xf6ec;" horiz-adv-x="402" 
d="M393 585c0 -46 -25 -115 -208 -126l-78 -4v-21c0 -56 31 -86 90 -86c31 0 60 16 90 36l38 -57c-22 -16 -71 -45 -136 -45c-110 0 -164 57 -164 155c0 130 77 252 230 252c74 0 138 -32 138 -104zM315 579c0 30 -25 47 -68 47c-59 0 -108 -44 -130 -112l51 4
c98 7 147 25 147 61z" />
    <glyph glyph-name="i.superior" unicode="&#x2071;" horiz-adv-x="232" 
d="M230 785c0 -37 -19 -54 -58 -54c-30 0 -45 10 -45 38c0 33 17 52 57 52c31 0 46 -11 46 -36zM205 641c0 -9 -4 -31 -11 -69c-18 -91 -40 -188 -58 -279h-80l57 278c4 19 7 31 7 37c0 4 -1 6 -4 6c-10 0 -27 -7 -48 -22l-33 47c29 23 78 50 117 50c16 0 53 -4 53 -48z" />
    <glyph glyph-name="l.superior" unicode="&#xf6ee;" horiz-adv-x="220" 
d="M205 859l-92 -452c-2 -12 -4 -28 -4 -37c0 -18 10 -24 29 -24c14 0 28 3 46 9l10 -63c-29 -7 -54 -10 -78 -10c-54 0 -88 14 -89 71c0 19 3 39 6 56l84 410z" />
    <glyph glyph-name="m.superior" unicode="&#xf6ef;" horiz-adv-x="652" 
d="M622 598c0 -17 -5 -36 -10 -59l-50 -246h-80l47 231c4 18 11 56 11 64c0 19 -8 29 -33 29c-48 0 -98 -36 -126 -59c-18 -86 -36 -179 -55 -265h-80l48 231c5 24 10 55 10 64c-1 20 -9 29 -33 29c-36 0 -96 -29 -126 -51l-54 -273h-80l79 385h80l-8 -41
c36 27 90 52 133 52c49 0 79 -21 88 -66c46 38 98 66 145 66c66 0 94 -38 94 -91z" />
    <glyph glyph-name="n.superior" unicode="&#x207f;" horiz-adv-x="437" 
d="M407 598c0 -7 -2 -26 -7 -51l-52 -254h-80l47 227c4 19 9 40 9 57c0 23 -9 40 -41 40c-47 0 -104 -28 -138 -50l-54 -274h-80l79 385h80l-8 -42c38 28 92 53 139 53c64 0 106 -24 106 -91z" />
    <glyph glyph-name="o.superior" unicode="&#xf6f0;" horiz-adv-x="428" 
d="M403 536c0 -135 -68 -254 -218 -254c-97 0 -160 55 -160 154c0 135 69 253 218 253c95 0 160 -55 160 -153zM321 536c0 58 -30 87 -86 87c-96 0 -129 -108 -129 -187c0 -58 30 -88 86 -88c96 0 129 109 129 188z" />
    <glyph glyph-name="r.superior" unicode="&#xf6f1;" horiz-adv-x="268" 
d="M324 675l-32 -75c-13 5 -22 7 -32 7c-36 0 -79 -25 -119 -68l-50 -246h-80l79 385h75l-12 -58c39 36 79 64 118 64c20 0 34 -2 53 -9z" />
    <glyph glyph-name="s.superior" unicode="&#xf6f2;" horiz-adv-x="333" 
d="M325 613l-62 -36c-22 33 -50 48 -83 48c-29 0 -70 -12 -70 -49c0 -24 35 -39 73 -55c53 -22 113 -48 113 -109c0 -95 -83 -130 -167 -130c-54 0 -115 22 -150 77l61 40c21 -34 57 -52 91 -52c38 0 87 11 87 54c0 27 -32 44 -75 59c-53 19 -111 44 -111 108
c0 87 78 121 156 121c52 0 108 -21 137 -76z" />
    <glyph glyph-name="t.superior" unicode="&#xf6f3;" horiz-adv-x="258" 
d="M273 678l-14 -63h-88l-39 -199c-3 -14 -4 -25 -4 -34c0 -32 15 -36 35 -36c18 0 39 4 61 12l14 -63c-31 -8 -62 -13 -90 -13c-75 0 -103 23 -103 78c0 15 2 33 6 54l41 201h-59l15 63h57l20 101l90 40l-30 -141h88z" />
    <glyph glyph-name="parenleft.inferior" unicode="&#x208d;" horiz-adv-x="279" 
d="M354 590c-146 -118 -244 -272 -244 -424c0 -81 37 -194 100 -266h-88c-63 90 -88 176 -88 264c0 165 87 306 225 426h95z" />
    <glyph glyph-name="parenright.inferior" unicode="&#x208e;" horiz-adv-x="279" 
d="M244 340c0 -179 -88 -320 -225 -440h-97c140 113 245 274 245 438c0 81 -36 180 -99 252h87c64 -90 89 -162 89 -250z" />
    <glyph glyph-name="oneeighth" unicode="&#x215b;" horiz-adv-x="1036" 
d="M871 727l-570 -878h-79l570 878h79zM385 356l-13 -63h-271l13 63h103l53 263c-35 -16 -77 -30 -122 -38l13 63c67 19 119 49 162 98h52l-78 -386h88zM762 -169c-106 0 -172 34 -172 107c0 70 54 112 131 137c-38 18 -75 45 -75 88c0 98 113 129 188 129
c103 0 164 -34 164 -97c0 -59 -54 -96 -115 -121c44 -17 86 -44 86 -98c0 -100 -108 -145 -207 -145zM832 231c-44 0 -102 -12 -102 -64c0 -17 12 -42 79 -66c34 8 102 37 102 82c0 27 -19 48 -79 48zM795 48c-40 -12 -116 -38 -116 -97c0 -30 24 -56 89 -56
c44 0 113 15 113 75c0 34 -36 58 -86 78z" />
    <glyph glyph-name="threeeighths" unicode="&#x215c;" horiz-adv-x="1036" 
d="M871 727l-570 -878h-79l570 878h79zM762 -169c-106 0 -172 34 -172 107c0 70 54 112 131 137c-38 18 -75 45 -75 88c0 98 113 129 188 129c103 0 164 -34 164 -97c0 -59 -54 -96 -115 -121c44 -17 86 -44 86 -98c0 -100 -108 -145 -207 -145zM832 231
c-44 0 -102 -12 -102 -64c0 -17 12 -42 79 -66c34 8 102 37 102 82c0 27 -19 48 -79 48zM795 48c-40 -12 -116 -38 -116 -97c0 -30 24 -56 89 -56c44 0 113 15 113 75c0 34 -36 58 -86 78zM474 733l-11 -61l-135 -117c54 -4 105 -43 105 -110c0 -115 -98 -164 -196 -164
c-58 0 -131 23 -166 81l63 38c19 -35 62 -55 102 -55c57 0 109 29 109 98c0 41 -35 63 -88 63c-21 0 -41 -2 -61 -6l8 32l157 134h-201l13 67h301z" />
    <glyph glyph-name="fiveeighths" unicode="&#x215d;" horiz-adv-x="1036" 
d="M871 727l-570 -878h-79l570 878h79zM762 -169c-106 0 -172 34 -172 107c0 70 54 112 131 137c-38 18 -75 45 -75 88c0 98 113 129 188 129c103 0 164 -34 164 -97c0 -59 -54 -96 -115 -121c44 -17 86 -44 86 -98c0 -100 -108 -145 -207 -145zM832 231
c-44 0 -102 -12 -102 -64c0 -17 12 -42 79 -66c34 8 102 37 102 82c0 27 -19 48 -79 48zM795 48c-40 -12 -116 -38 -116 -97c0 -30 24 -56 89 -56c44 0 113 15 113 75c0 34 -36 58 -86 78zM218 281c-81 0 -139 26 -164 67l76 46c16 -26 44 -47 92 -47c56 0 127 23 127 96
c0 47 -38 69 -93 69c-35 0 -69 -7 -104 -25h-44l84 246h279l-13 -68h-209l-37 -107c26 11 57 15 85 15c81 0 143 -39 143 -115c0 -116 -108 -177 -222 -177z" />
    <glyph glyph-name="seveneighths" unicode="&#x215e;" horiz-adv-x="1036" 
d="M871 727l-570 -878h-79l570 878h79zM762 -169c-106 0 -172 34 -172 107c0 70 54 112 131 137c-38 18 -75 45 -75 88c0 98 113 129 188 129c103 0 164 -34 164 -97c0 -59 -54 -96 -115 -121c44 -17 86 -44 86 -98c0 -100 -108 -145 -207 -145zM832 231
c-44 0 -102 -12 -102 -64c0 -17 12 -42 79 -66c34 8 102 37 102 82c0 27 -19 48 -79 48zM795 48c-40 -12 -116 -38 -116 -97c0 -30 24 -56 89 -56c44 0 113 15 113 75c0 34 -36 58 -86 78zM242 281h-98l276 384h-173l-12 -58h-80l25 126h348l-12 -61z" />
    <glyph glyph-name="onethird" unicode="&#x2153;" horiz-adv-x="1036" 
d="M871 727l-570 -878h-79l570 878h79zM385 356l-13 -63h-271l13 63h103l53 263c-35 -16 -77 -30 -122 -38l13 63c67 19 119 49 162 98h52l-78 -386h88zM1002 285l-11 -61l-135 -117c54 -4 105 -43 105 -110c0 -115 -98 -164 -196 -164c-58 0 -131 23 -166 81l63 38
c19 -35 62 -55 102 -55c57 0 109 29 109 98c0 41 -35 63 -88 63c-21 0 -41 -2 -61 -6l8 32l157 134h-201l13 67h301z" />
    <glyph glyph-name="twothirds" unicode="&#x2154;" horiz-adv-x="1036" 
d="M871 727l-570 -878h-79l570 878h79zM1002 285l-11 -61l-135 -117c54 -4 105 -43 105 -110c0 -115 -98 -164 -196 -164c-58 0 -131 23 -166 81l63 38c19 -35 62 -55 102 -55c57 0 109 29 109 98c0 41 -35 63 -88 63c-21 0 -41 -2 -61 -6l8 32l157 134h-201l13 67h301z
M470 630c0 -70 -52 -115 -108 -154s-113 -75 -172 -111h244l-15 -72h-371l14 67c62 37 130 79 192 123c69 48 128 93 128 137c0 28 -22 52 -81 52c-54 0 -91 -18 -129 -53l-50 50c56 54 113 73 193 73c81 0 155 -35 155 -112z" />
    <glyph glyph-name="zero.superior" unicode="&#x2070;" 
d="M452 579c0 -142 -70 -296 -247 -296c-112 0 -175 63 -175 162c0 136 67 297 245 297c116 0 177 -66 177 -163zM367 575c0 61 -34 95 -97 95c-117 0 -151 -129 -151 -223c0 -60 34 -94 97 -94c116 0 151 127 151 222z" />
    <glyph glyph-name="four.superior" unicode="&#x2074;" 
d="M423 453l-14 -65h-62l-21 -107h-75l22 107h-227l12 64l294 290h67l-58 -289h62zM321 626l-176 -173h141z" />
    <glyph glyph-name="five.superior" unicode="&#x2075;" 
d="M200 281c-81 0 -139 26 -164 67l76 46c16 -26 44 -47 92 -47c56 0 127 23 127 96c0 47 -38 69 -93 69c-35 0 -69 -7 -104 -25h-44l84 246h279l-13 -68h-209l-37 -107c26 11 57 15 85 15c81 0 143 -39 143 -115c0 -116 -108 -177 -222 -177z" />
    <glyph glyph-name="six.superior" unicode="&#x2076;" 
d="M410 463c0 -105 -84 -182 -203 -182c-102 0 -156 62 -156 152c0 130 88 309 259 309c58 0 96 -12 134 -45l-59 -55c-30 27 -54 34 -88 34c-68 0 -113 -53 -138 -126c34 18 77 30 116 30c84 0 135 -44 135 -117zM216 347c58 0 108 45 108 110c0 45 -30 58 -77 58
c-31 0 -68 -10 -97 -22c-9 -28 -10 -48 -10 -60c0 -53 26 -86 76 -86z" />
    <glyph glyph-name="seven.superior" unicode="&#x2077;" 
d="M162 281h-98l276 384h-173l-12 -58h-80l25 126h348l-12 -61z" />
    <glyph glyph-name="eight.superior" unicode="&#x2078;" 
d="M205 281c-106 0 -172 34 -172 107c0 70 54 112 131 137c-38 18 -75 45 -75 88c0 98 113 129 188 129c103 0 164 -34 164 -97c0 -59 -54 -96 -115 -121c44 -17 86 -44 86 -98c0 -100 -108 -145 -207 -145zM275 681c-44 0 -102 -12 -102 -64c0 -17 12 -42 79 -66
c34 8 102 37 102 82c0 27 -19 48 -79 48zM238 498c-40 -12 -116 -38 -116 -97c0 -30 24 -56 89 -56c44 0 113 15 113 75c0 34 -36 58 -86 78z" />
    <glyph glyph-name="nine.superior" unicode="&#x2079;" 
d="M85 560c0 105 84 182 203 182c102 0 156 -62 156 -152c0 -130 -88 -309 -259 -309c-58 0 -96 12 -134 45l59 55c30 -27 54 -34 88 -34c68 0 113 53 138 126c-34 -18 -77 -30 -116 -30c-84 0 -135 44 -135 117zM279 676c-58 0 -108 -45 -108 -110c0 -45 30 -58 77 -58
c31 0 68 10 97 22c9 28 10 48 10 60c0 53 -26 86 -76 86z" />
    <glyph glyph-name="zero.inferior" unicode="&#x2080;" 
d="M452 169c0 -142 -70 -296 -247 -296c-112 0 -175 63 -175 162c0 136 67 297 245 297c116 0 177 -66 177 -163zM367 165c0 61 -34 95 -97 95c-117 0 -151 -129 -151 -223c0 -60 34 -94 97 -94c116 0 151 127 151 222z" />
    <glyph glyph-name="one.inferior" unicode="&#x2081;" 
d="M385 -54l-13 -63h-271l13 63h103l53 263c-35 -16 -77 -30 -122 -38l13 63c67 19 119 49 162 98h52l-78 -386h88z" />
    <glyph glyph-name="two.inferior" unicode="&#x2082;" 
d="M470 220c0 -70 -52 -115 -108 -154s-113 -75 -172 -111h244l-15 -72h-371l14 67c62 37 130 79 192 123c69 48 128 93 128 137c0 28 -22 52 -81 52c-54 0 -91 -18 -129 -53l-50 50c56 54 113 73 193 73c81 0 155 -35 155 -112z" />
    <glyph glyph-name="three.inferior" unicode="&#x2083;" 
d="M454 325l-11 -61l-135 -117c54 -4 105 -43 105 -110c0 -115 -98 -164 -196 -164c-58 0 -131 23 -166 81l63 38c19 -35 62 -55 102 -55c57 0 109 29 109 98c0 41 -35 63 -88 63c-21 0 -41 -2 -61 -6l8 32l157 134h-201l13 67h301z" />
    <glyph glyph-name="four.inferior" unicode="&#x2084;" 
d="M423 43l-14 -65h-62l-21 -107h-75l22 107h-227l12 64l294 290h67l-58 -289h62zM321 216l-176 -173h141z" />
    <glyph glyph-name="five.inferior" unicode="&#x2085;" 
d="M200 -127c-81 0 -139 26 -164 67l76 46c16 -26 44 -47 92 -47c56 0 127 23 127 96c0 47 -38 69 -93 69c-35 0 -69 -7 -104 -25h-44l84 246h279l-13 -68h-209l-37 -107c26 11 57 15 85 15c81 0 143 -39 143 -115c0 -116 -108 -177 -222 -177z" />
    <glyph glyph-name="six.inferior" unicode="&#x2086;" 
d="M410 53c0 -105 -84 -182 -203 -182c-102 0 -156 62 -156 152c0 130 88 309 259 309c58 0 96 -12 134 -45l-59 -55c-30 27 -54 34 -88 34c-68 0 -113 -53 -138 -126c34 18 77 30 116 30c84 0 135 -44 135 -117zM216 -63c58 0 108 45 108 110c0 45 -30 58 -77 58
c-31 0 -68 -10 -97 -22c-9 -28 -10 -48 -10 -60c0 -53 26 -86 76 -86z" />
    <glyph glyph-name="seven.inferior" unicode="&#x2087;" 
d="M162 -127h-98l276 384h-173l-12 -58h-80l25 126h348l-12 -61z" />
    <glyph glyph-name="eight.inferior" unicode="&#x2088;" 
d="M205 -129c-106 0 -172 34 -172 107c0 70 54 112 131 137c-38 18 -75 45 -75 88c0 98 113 129 188 129c103 0 164 -34 164 -97c0 -59 -54 -96 -115 -121c44 -17 86 -44 86 -98c0 -100 -108 -145 -207 -145zM275 271c-44 0 -102 -12 -102 -64c0 -17 12 -42 79 -66
c34 8 102 37 102 82c0 27 -19 48 -79 48zM238 88c-40 -12 -116 -38 -116 -97c0 -30 24 -56 89 -56c44 0 113 15 113 75c0 34 -36 58 -86 78z" />
    <glyph glyph-name="nine.inferior" unicode="&#x2089;" 
d="M85 150c0 105 84 182 203 182c102 0 156 -62 156 -152c0 -130 -88 -309 -259 -309c-58 0 -96 12 -134 45l59 55c30 -27 54 -34 88 -34c68 0 113 53 138 126c-34 -18 -77 -30 -116 -30c-84 0 -135 44 -135 117zM279 266c-58 0 -108 -45 -108 -110c0 -45 30 -58 77 -58
c31 0 68 10 97 22c9 28 10 48 10 60c0 53 -26 86 -76 86z" />
    <glyph glyph-name="commaaccent" unicode="&#xf6c3;" horiz-adv-x="230" 
d="M108 -193h-56c20 19 41 49 46 72c-27 1 -40 17 -40 39c0 38 20 59 64 59c34 0 49 -20 49 -47c0 -46 -30 -88 -63 -123z" />
    <glyph glyph-name="Abreve" unicode="&#x102;" horiz-adv-x="651" 
d="M583 0h-86l-31 204h-302l-112 -204h-95l401 727h117zM455 283l-54 363l-195 -363h249zM606 918c-20 -40 -78 -138 -190 -138c-105 0 -123 92 -130 138h62c11 -44 36 -61 79 -61c48 0 86 21 117 61h62z" />
    <glyph glyph-name="Amacron" unicode="&#x100;" horiz-adv-x="651" 
d="M583 0h-86l-31 204h-302l-112 -204h-95l401 727h117zM455 283l-54 363l-195 -363h249zM590 847l-14 -67h-301l14 67h301z" />
    <glyph glyph-name="Aogonek" unicode="&#x104;" horiz-adv-x="651" 
d="M583 0h-18c-16 -27 -30 -60 -30 -86s17 -39 48 -39c27 0 51 7 76 18l18 -52c-39 -20 -83 -34 -127 -34c-52 0 -93 24 -93 80c0 40 18 80 40 114l-31 203h-302l-112 -204h-95l401 727h117zM455 283l-54 363l-195 -363h249z" />
    <glyph glyph-name="AEacute" unicode="&#x1fc;" horiz-adv-x="884" 
d="M921 727l-17 -78h-328l-46 -228h297l-17 -78h-297l-52 -265h329l-17 -78h-416l42 204h-239l-118 -204h-95l425 727h549zM489 649h-71l-212 -366h209zM817 956l-191 -176h-81l147 176h125z" />
    <glyph glyph-name="Cacute" unicode="&#x106;" horiz-adv-x="675" 
d="M705 606l-78 -43c-36 68 -102 103 -176 103c-204 0 -296 -208 -296 -398c0 -121 53 -207 196 -207c63 0 120 25 180 71l46 -71c-56 -41 -130 -76 -238 -76c-181 0 -278 107 -278 283c0 254 132 474 398 474c100 0 207 -45 246 -136zM636 956l-191 -176h-81l147 176h125z
" />
    <glyph glyph-name="Ccaron" unicode="&#x10c;" horiz-adv-x="675" 
d="M705 606l-78 -43c-36 68 -102 103 -176 103c-204 0 -296 -208 -296 -398c0 -121 53 -207 196 -207c63 0 120 25 180 71l46 -71c-56 -41 -130 -76 -238 -76c-181 0 -278 107 -278 283c0 254 132 474 398 474c100 0 207 -45 246 -136zM663 956l-150 -176h-105l-77 176h73
l66 -113l112 113h81z" />
    <glyph glyph-name="Ccircumflex" unicode="&#x108;" horiz-adv-x="675" 
d="M705 606l-78 -43c-36 68 -102 103 -176 103c-204 0 -296 -208 -296 -398c0 -121 53 -207 196 -207c63 0 120 25 180 71l46 -71c-56 -41 -130 -76 -238 -76c-181 0 -278 107 -278 283c0 254 132 474 398 474c100 0 207 -45 246 -136zM645 780h-73l-66 113l-112 -113h-81
l150 176h105z" />
    <glyph glyph-name="Cdotaccent" unicode="&#x10a;" horiz-adv-x="675" 
d="M705 606l-78 -43c-36 68 -102 103 -176 103c-204 0 -296 -208 -296 -398c0 -121 53 -207 196 -207c63 0 120 25 180 71l46 -71c-56 -41 -130 -76 -238 -76c-181 0 -278 107 -278 283c0 254 132 474 398 474c100 0 207 -45 246 -136zM538 849c0 -47 -24 -69 -74 -69
c-36 0 -54 12 -54 45c0 47 24 68 74 68c38 0 54 -13 54 -44z" />
    <glyph glyph-name="Dcaron" unicode="&#x10e;" horiz-adv-x="688" 
d="M665 459c0 -294 -155 -459 -451 -459h-191l148 727h169c180 0 325 -65 325 -268zM571 457c0 159 -110 192 -251 192h-78l-115 -571h89c237 0 355 143 355 379zM583 956l-150 -176h-105l-77 176h73l66 -113l112 113h81z" />
    <glyph glyph-name="Dcroat" unicode="&#x110;" horiz-adv-x="688" 
d="M665 459c0 -294 -155 -459 -451 -459h-191l68 333h-61l14 67h60l67 327h169c180 0 325 -65 325 -268zM571 457c0 159 -110 192 -251 192h-78l-51 -249h189l-14 -67h-188l-51 -255h89c237 0 355 143 355 379z" />
    <glyph glyph-name="Ebreve" unicode="&#x114;" horiz-adv-x="584" 
d="M621 727l-17 -78h-362l-46 -228h331l-17 -78h-331l-52 -265h363l-17 -78h-450l148 727h450zM581 918c-20 -40 -78 -138 -190 -138c-105 0 -123 92 -130 138h62c11 -44 36 -61 79 -61c48 0 86 21 117 61h62z" />
    <glyph glyph-name="Ecaron" unicode="&#x11a;" horiz-adv-x="584" 
d="M621 727l-17 -78h-362l-46 -228h331l-17 -78h-331l-52 -265h363l-17 -78h-450l148 727h450zM599 956l-150 -176h-105l-77 176h73l66 -113l112 113h81z" />
    <glyph glyph-name="Edotaccent" unicode="&#x116;" horiz-adv-x="584" 
d="M621 727l-17 -78h-362l-46 -228h331l-17 -78h-331l-52 -265h363l-17 -78h-450l148 727h450zM476 849c0 -47 -24 -69 -74 -69c-36 0 -54 12 -54 45c0 47 24 68 74 68c38 0 54 -13 54 -44z" />
    <glyph glyph-name="Emacron" unicode="&#x112;" horiz-adv-x="584" 
d="M621 727l-17 -78h-362l-46 -228h331l-17 -78h-331l-52 -265h363l-17 -78h-450l148 727h450zM576 847l-14 -67h-301l14 67h301z" />
    <glyph glyph-name="Eng" unicode="&#x14a;" horiz-adv-x="697" 
d="M666 506l-102 -501c-27 -132 -75 -198 -216 -198c-38 0 -94 11 -117 22l31 76c22 -10 66 -22 96 -22c86 0 110 47 133 159l83 412c15 73 19 110 19 121c0 52 -26 85 -105 85c-104 0 -212 -70 -270 -111l-111 -549h-84l147 727h84l-20 -98c69 55 168 113 270 113
c95 0 175 -40 175 -147c0 -12 -4 -45 -13 -89z" />
    <glyph glyph-name="Eogonek" unicode="&#x118;" horiz-adv-x="584" 
d="M479 -159c-39 -20 -83 -34 -127 -34c-52 0 -93 24 -93 80c0 39 18 80 39 113h-275l148 727h450l-17 -78h-362l-46 -228h331l-17 -78h-331l-52 -265h363l-17 -78h-105c-16 -27 -31 -60 -31 -86s17 -39 48 -39c27 0 51 7 76 18z" />
    <glyph glyph-name="Gbreve" unicode="&#x11e;" horiz-adv-x="725" 
d="M710 606l-78 -43c-35 66 -99 103 -179 103c-208 0 -298 -213 -298 -398c0 -129 65 -207 199 -207c57 0 125 21 176 45l32 159h-157l16 79h246l-59 -288c-62 -35 -174 -71 -265 -71c-183 0 -282 109 -282 283c0 265 140 474 401 474c99 0 208 -44 248 -136zM648 918
c-20 -40 -78 -138 -190 -138c-105 0 -123 92 -130 138h62c11 -44 36 -61 79 -61c48 0 86 21 117 61h62z" />
    <glyph glyph-name="Gcircumflex" unicode="&#x11c;" horiz-adv-x="725" 
d="M710 606l-78 -43c-35 66 -99 103 -179 103c-208 0 -298 -213 -298 -398c0 -129 65 -207 199 -207c57 0 125 21 176 45l32 159h-157l16 79h246l-59 -288c-62 -35 -174 -71 -265 -71c-183 0 -282 109 -282 283c0 265 140 474 401 474c99 0 208 -44 248 -136zM644 780h-73
l-66 113l-112 -113h-81l150 176h105z" />
    <glyph glyph-name="Gcommaaccent" unicode="&#x122;" horiz-adv-x="725" 
d="M710 606l-78 -43c-35 66 -99 103 -179 103c-208 0 -298 -213 -298 -398c0 -129 65 -207 199 -207c57 0 125 21 176 45l32 159h-157l16 79h246l-59 -288c-62 -35 -174 -71 -265 -71c-183 0 -282 109 -282 283c0 265 140 474 401 474c99 0 208 -44 248 -136zM327 -193h-56
c20 19 41 49 46 72c-27 1 -40 17 -40 39c0 38 20 59 64 59c34 0 49 -20 49 -47c0 -46 -30 -88 -63 -123z" />
    <glyph glyph-name="Gdotaccent" unicode="&#x120;" horiz-adv-x="725" 
d="M710 606l-78 -43c-35 66 -99 103 -179 103c-208 0 -298 -213 -298 -398c0 -129 65 -207 199 -207c57 0 125 21 176 45l32 159h-157l16 79h246l-59 -288c-62 -35 -174 -71 -265 -71c-183 0 -282 109 -282 283c0 265 140 474 401 474c99 0 208 -44 248 -136zM543 849
c0 -47 -24 -69 -74 -69c-36 0 -54 12 -54 45c0 47 24 68 74 68c38 0 54 -13 54 -44z" />
    <glyph glyph-name="Hbar" unicode="&#x126;" horiz-adv-x="684" 
d="M699 727l-25 -120h60l-14 -67h-59l-110 -540h-88l68 336h-353l-67 -336h-88l110 540h-57l14 67h56l25 120h88l-25 -120h353l24 120h88zM195 414h353l25 126h-352z" />
    <glyph glyph-name="Hcircumflex" unicode="&#x124;" horiz-adv-x="684" 
d="M699 727l-148 -727h-88l68 336h-353l-67 -336h-88l148 727h88l-64 -313h353l63 313h88zM603 780h-73l-66 113l-112 -113h-81l150 176h105z" />
    <glyph glyph-name="Ibreve" unicode="&#x12c;" horiz-adv-x="345" 
d="M398 727l-15 -69h-91l-118 -589h91l-15 -69h-270l15 69h91l118 589h-91l15 69h270zM445 918c-20 -40 -78 -138 -190 -138c-105 0 -123 92 -130 138h62c11 -44 36 -61 79 -61c48 0 86 21 117 61h62z" />
    <glyph glyph-name="IJ" unicode="&#x132;" horiz-adv-x="759" 
d="M398 727l-15 -69h-91l-118 -589h91l-15 -69h-270l15 69h91l118 589h-91l15 69h270zM776 727l-111 -544c-27 -132 -82 -198 -223 -198c-38 0 -94 11 -117 22l31 76c22 -10 66 -22 96 -22c86 0 110 47 133 159l88 436h-31c-64 0 -115 -22 -163 -60l-42 58
c52 40 116 73 235 73h104z" />
    <glyph glyph-name="Imacron" unicode="&#x12a;" horiz-adv-x="345" 
d="M398 727l-15 -69h-91l-118 -589h91l-15 -69h-270l15 69h91l118 589h-91l15 69h270zM435 847l-14 -67h-301l14 67h301z" />
    <glyph glyph-name="Iogonek" unicode="&#x12e;" horiz-adv-x="345" 
d="M247 -159c-39 -20 -83 -34 -127 -34c-52 0 -93 24 -93 80c0 39 18 80 39 113h-86l15 69h91l118 589h-91l15 69h270l-15 -69h-91l-118 -589h91l-15 -69h-114c-16 -27 -31 -60 -31 -86s17 -39 48 -39c27 0 51 7 76 18z" />
    <glyph glyph-name="Itilde" unicode="&#x128;" horiz-adv-x="345" 
d="M398 727l-15 -69h-91l-118 -589h91l-15 -69h-270l15 69h91l118 589h-91l15 69h270zM484 914c-16 -71 -56 -134 -141 -134c-76 0 -83 71 -134 71c-37 0 -53 -40 -61 -71h-59c17 75 64 134 140 134c77 0 84 -71 135 -71c37 0 53 41 61 71h59z" />
    <glyph glyph-name="Jcircumflex" unicode="&#x134;" horiz-adv-x="414" 
d="M431 727l-111 -544c-27 -132 -82 -198 -223 -198c-38 0 -94 11 -117 22l31 76c22 -10 66 -22 96 -22c86 0 110 47 133 159l88 436h-31c-64 0 -115 -22 -163 -60l-42 58c52 40 116 73 235 73h104zM451 780h-73l-66 113l-112 -113h-81l150 176h105z" />
    <glyph glyph-name="Kcommaaccent" unicode="&#x136;" horiz-adv-x="642" 
d="M681 727l-306 -284l184 -443h-98l-154 381l-147 -138l-49 -243h-88l148 727h88l-73 -357l377 357h118zM244 -193h-56c20 19 41 49 46 72c-27 1 -40 17 -40 39c0 38 20 59 64 59c34 0 49 -20 49 -47c0 -46 -30 -88 -63 -123z" />
    <glyph glyph-name="Lacute" unicode="&#x139;" horiz-adv-x="524" 
d="M469 78l-17 -78h-429l148 727h88l-131 -649h341zM520 956l-191 -176h-81l147 176h125z" />
    <glyph glyph-name="Lcaron" unicode="&#x13d;" horiz-adv-x="524" 
d="M469 78l-17 -78h-429l148 727h88l-131 -649h341zM513 670c0 -71 -61 -158 -106 -210h-52c27 33 81 110 81 154c-26 0 -48 15 -48 44c0 49 23 70 72 70c32 0 53 -17 53 -58z" />
    <glyph glyph-name="Lcommaaccent" unicode="&#x13b;" horiz-adv-x="524" 
d="M469 78l-17 -78h-429l148 727h88l-131 -649h341zM235 -193h-56c20 19 41 49 46 72c-27 1 -40 17 -40 39c0 38 20 59 64 59c34 0 49 -20 49 -47c0 -46 -30 -88 -63 -123z" />
    <glyph glyph-name="Ldot" unicode="&#x13f;" horiz-adv-x="524" 
d="M469 78l-17 -78h-429l148 727h88l-131 -649h341zM453 328c0 -47 -23 -70 -73 -70c-31 0 -52 13 -52 45c0 47 23 71 72 71c32 0 53 -14 53 -46z" />
    <glyph glyph-name="Nacute" unicode="&#x143;" horiz-adv-x="697" 
d="M712 727l-148 -727h-98l-228 648l-131 -648h-84l148 727h130l208 -592l120 592h83zM665 956l-191 -176h-81l147 176h125z" />
    <glyph glyph-name="Ncaron" unicode="&#x147;" horiz-adv-x="697" 
d="M712 727l-148 -727h-98l-228 648l-131 -648h-84l148 727h130l208 -592l120 592h83zM653 956l-150 -176h-105l-77 176h73l66 -113l112 113h81z" />
    <glyph glyph-name="Ncommaaccent" unicode="&#x145;" horiz-adv-x="697" 
d="M712 727l-148 -727h-98l-228 648l-131 -648h-84l148 727h130l208 -592l120 592h83zM261 -193h-56c20 19 41 49 46 72c-27 1 -40 17 -40 39c0 38 20 59 64 59c34 0 49 -20 49 -47c0 -46 -30 -88 -63 -123z" />
    <glyph glyph-name="Obreve" unicode="&#x14e;" horiz-adv-x="745" 
d="M722 457c0 -241 -118 -472 -385 -472c-179 0 -276 106 -276 283c0 242 117 474 385 474c179 0 276 -107 276 -285zM628 459c0 129 -58 207 -192 207c-205 0 -281 -227 -281 -398c0 -129 57 -207 192 -207c205 0 281 227 281 398zM647 918c-20 -40 -78 -138 -190 -138
c-105 0 -123 92 -130 138h62c11 -44 36 -61 79 -61c48 0 86 21 117 61h62z" />
    <glyph glyph-name="Ohungarumlaut" unicode="&#x150;" horiz-adv-x="745" 
d="M722 457c0 -241 -118 -472 -385 -472c-179 0 -276 106 -276 283c0 242 117 474 385 474c179 0 276 -107 276 -285zM628 459c0 129 -58 207 -192 207c-205 0 -281 -227 -281 -398c0 -129 57 -207 192 -207c205 0 281 227 281 398zM745 956l-191 -176h-81l147 176h125z
M565 956l-191 -176h-81l147 176h125z" />
    <glyph glyph-name="Omacron" unicode="&#x14c;" horiz-adv-x="745" 
d="M722 457c0 -241 -118 -472 -385 -472c-179 0 -276 106 -276 283c0 242 117 474 385 474c179 0 276 -107 276 -285zM628 459c0 129 -58 207 -192 207c-205 0 -281 -227 -281 -398c0 -129 57 -207 192 -207c205 0 281 227 281 398zM627 847l-14 -67h-301l14 67h301z" />
    <glyph glyph-name="Oslashacute" unicode="&#x1fe;" horiz-adv-x="745" 
d="M788 764l-113 -127c31 -46 47 -107 47 -180c0 -241 -118 -472 -385 -472c-80 0 -143 21 -189 60l-90 -101h-82l131 147c-30 46 -46 106 -46 177c0 242 117 474 385 474c79 0 142 -21 188 -59l72 81h82zM576 618c-31 31 -77 48 -140 48c-205 0 -281 -227 -281 -398
c0 -40 5 -75 17 -104zM628 459c0 41 -6 75 -18 105l-404 -454c31 -32 78 -49 141 -49c205 0 281 227 281 398zM591 956l-191 -176h-81l147 176h125z" />
    <glyph glyph-name="Racute" unicode="&#x154;" horiz-adv-x="634" 
d="M617 548c0 -104 -60 -180 -164 -205c52 -13 63 -51 66 -91l17 -252h-90l-12 222c-3 60 -25 90 -81 90h-180l-62 -312h-88l148 727h221c132 0 225 -53 225 -179zM525 546c0 60 -43 105 -146 105h-136l-53 -263h128c126 0 207 49 207 158zM560 956l-191 -176h-81l147 176
h125z" />
    <glyph glyph-name="Rcaron" unicode="&#x158;" horiz-adv-x="634" 
d="M617 548c0 -104 -60 -180 -164 -205c52 -13 63 -51 66 -91l17 -252h-90l-12 222c-3 60 -25 90 -81 90h-180l-62 -312h-88l148 727h221c132 0 225 -53 225 -179zM525 546c0 60 -43 105 -146 105h-136l-53 -263h128c126 0 207 49 207 158zM576 956l-150 -176h-105l-77 176
h73l66 -113l112 113h81z" />
    <glyph glyph-name="Rcommaaccent" unicode="&#x156;" horiz-adv-x="634" 
d="M617 548c0 -104 -60 -180 -164 -205c52 -13 63 -51 66 -91l17 -252h-90l-12 222c-3 60 -25 90 -81 90h-180l-62 -312h-88l148 727h221c132 0 225 -53 225 -179zM525 546c0 60 -43 105 -146 105h-136l-53 -263h128c126 0 207 49 207 158zM243 -193h-56c20 19 41 49 46 72
c-27 1 -40 17 -40 39c0 38 20 59 64 59c34 0 49 -20 49 -47c0 -46 -30 -88 -63 -123z" />
    <glyph glyph-name="Sacute" unicode="&#x15a;" horiz-adv-x="573" 
d="M588 606l-79 -43c-33 69 -98 102 -169 102c-74 0 -170 -38 -170 -131c0 -70 83 -93 167 -121c93 -31 190 -69 190 -191c0 -172 -133 -237 -287 -237c-104 0 -213 41 -251 146l78 43c30 -83 103 -112 186 -112c86 0 184 44 184 143c0 74 -65 104 -126 123
c-106 33 -228 63 -228 197c0 159 142 217 266 217c99 0 196 -44 239 -136zM551 956l-191 -176h-81l147 176h125z" />
    <glyph glyph-name="Scedilla" unicode="&#x15e;" horiz-adv-x="573" 
d="M316 -88c0 -77 -74 -105 -138 -105c-44 0 -80 7 -118 23l26 52c31 -13 71 -19 98 -19c29 0 68 8 68 45c0 34 -52 41 -77 43l25 36c-91 10 -178 52 -211 144l78 43c30 -83 103 -112 186 -112c86 0 184 44 184 143c0 74 -65 104 -126 123c-106 33 -228 63 -228 197
c0 159 142 217 266 217c99 0 196 -44 239 -136l-79 -43c-33 69 -98 102 -169 102c-74 0 -170 -38 -170 -131c0 -70 83 -93 167 -121c93 -31 190 -69 190 -191c0 -168 -127 -234 -276 -237c39 -10 65 -33 65 -73z" />
    <glyph glyph-name="Scircumflex" unicode="&#x15c;" horiz-adv-x="573" 
d="M588 606l-79 -43c-33 69 -98 102 -169 102c-74 0 -170 -38 -170 -131c0 -70 83 -93 167 -121c93 -31 190 -69 190 -191c0 -172 -133 -237 -287 -237c-104 0 -213 41 -251 146l78 43c30 -83 103 -112 186 -112c86 0 184 44 184 143c0 74 -65 104 -126 123
c-106 33 -228 63 -228 197c0 159 142 217 266 217c99 0 196 -44 239 -136zM534 780h-73l-66 113l-112 -113h-81l150 176h105z" />
    <glyph glyph-name="Scommaaccent" unicode="&#x218;" horiz-adv-x="573" 
d="M588 606l-79 -43c-33 69 -98 102 -169 102c-74 0 -170 -38 -170 -131c0 -70 83 -93 167 -121c93 -31 190 -69 190 -191c0 -172 -133 -237 -287 -237c-104 0 -213 41 -251 146l78 43c30 -83 103 -112 186 -112c86 0 184 44 184 143c0 74 -65 104 -126 123
c-106 33 -228 63 -228 197c0 159 142 217 266 217c99 0 196 -44 239 -136zM228 -193h-56c20 19 41 49 46 72c-27 1 -40 17 -40 39c0 38 20 59 64 59c34 0 49 -20 49 -47c0 -46 -30 -88 -63 -123z" />
    <glyph glyph-name="Tbar" unicode="&#x166;" horiz-adv-x="504" 
d="M621 727l-17 -78h-231l-52 -257h150l-14 -67h-150l-65 -325h-88l65 325h-148l14 67h148l52 257h-231l17 78h550z" />
    <glyph glyph-name="Tcaron" unicode="&#x164;" horiz-adv-x="504" 
d="M621 727l-17 -78h-231l-131 -649h-88l131 649h-231l17 78h550zM539 956l-150 -176h-105l-77 176h73l66 -113l112 113h81z" />
    <glyph glyph-name="Ubreve" unicode="&#x16c;" horiz-adv-x="676" 
d="M694 727l-91 -445c-39 -192 -107 -297 -318 -297c-128 0 -225 43 -225 182c0 41 6 76 14 116l90 444h88l-89 -435c-7 -37 -17 -76 -17 -118c0 -92 60 -113 149 -113c146 0 194 91 222 228l89 438h88zM617 918c-20 -40 -78 -138 -190 -138c-105 0 -123 92 -130 138h62
c11 -44 36 -61 79 -61c48 0 86 21 117 61h62z" />
    <glyph glyph-name="Uhungarumlaut" unicode="&#x170;" horiz-adv-x="676" 
d="M694 727l-91 -445c-39 -192 -107 -297 -318 -297c-128 0 -225 43 -225 182c0 41 6 76 14 116l90 444h88l-89 -435c-7 -37 -17 -76 -17 -118c0 -92 60 -113 149 -113c146 0 194 91 222 228l89 438h88zM710 956l-191 -176h-81l147 176h125zM530 956l-191 -176h-81l147 176
h125z" />
    <glyph glyph-name="Umacron" unicode="&#x16a;" horiz-adv-x="676" 
d="M694 727l-91 -445c-39 -192 -107 -297 -318 -297c-128 0 -225 43 -225 182c0 41 6 76 14 116l90 444h88l-89 -435c-7 -37 -17 -76 -17 -118c0 -92 60 -113 149 -113c146 0 194 91 222 228l89 438h88zM601 847l-14 -67h-301l14 67h301z" />
    <glyph glyph-name="Uogonek" unicode="&#x172;" horiz-adv-x="676" 
d="M419 -159c-39 -20 -83 -34 -127 -34c-52 0 -93 24 -93 80c0 35 14 70 32 101c-101 12 -171 60 -171 179c0 41 6 76 14 116l90 444h88l-89 -435c-7 -37 -17 -76 -17 -118c0 -92 60 -113 149 -113c146 0 194 91 222 228l89 438h88l-91 -445c-38 -188 -104 -292 -304 -297
c-12 -24 -22 -49 -22 -71c0 -26 17 -39 48 -39c27 0 51 7 76 18z" />
    <glyph glyph-name="Uring" unicode="&#x16e;" horiz-adv-x="676" 
d="M547 819c0 -80 -51 -133 -135 -133c-53 0 -93 33 -93 89c0 75 51 130 134 130c52 0 94 -29 94 -86zM500 815c0 33 -25 48 -57 48c-51 0 -82 -40 -82 -89c0 -33 24 -48 55 -48c54 0 84 38 84 89zM694 727l-91 -445c-39 -192 -107 -297 -318 -297c-128 0 -225 43 -225 182
c0 41 6 76 14 116l90 444h88l-89 -435c-7 -37 -17 -76 -17 -118c0 -92 60 -113 149 -113c146 0 194 91 222 228l89 438h88z" />
    <glyph glyph-name="Utilde" unicode="&#x168;" horiz-adv-x="676" 
d="M694 727l-91 -445c-39 -192 -107 -297 -318 -297c-128 0 -225 43 -225 182c0 41 6 76 14 116l90 444h88l-89 -435c-7 -37 -17 -76 -17 -118c0 -92 60 -113 149 -113c146 0 194 91 222 228l89 438h88zM640 914c-16 -71 -56 -134 -141 -134c-76 0 -83 71 -134 71
c-37 0 -53 -40 -61 -71h-59c17 75 64 134 140 134c77 0 84 -71 135 -71c37 0 53 41 61 71h59z" />
    <glyph glyph-name="Wacute" unicode="&#x1e82;" horiz-adv-x="888" 
d="M958 727l-315 -727h-100l-72 438l-237 -438h-102l-17 727h84l10 -615l237 434h87l73 -438l261 619h91zM681 956l-191 -176h-81l147 176h125z" />
    <glyph glyph-name="Wcircumflex" unicode="&#x174;" horiz-adv-x="888" 
d="M958 727l-315 -727h-100l-72 438l-237 -438h-102l-17 727h84l10 -615l237 434h87l73 -438l261 619h91zM718 780h-73l-66 113l-112 -113h-81l150 176h105z" />
    <glyph glyph-name="Wdieresis" unicode="&#x1e84;" horiz-adv-x="888" 
d="M958 727l-315 -727h-100l-72 438l-237 -438h-102l-17 727h84l10 -615l237 434h87l73 -438l261 619h91zM703 843c0 -43 -22 -63 -67 -63c-33 0 -49 11 -49 41c0 42 21 62 67 62c34 0 49 -12 49 -40zM510 843c0 -43 -22 -63 -67 -63c-33 0 -49 11 -49 41c0 42 21 62 67 62
c34 0 49 -12 49 -40z" />
    <glyph glyph-name="Wgrave" unicode="&#x1e80;" horiz-adv-x="888" 
d="M958 727l-315 -727h-100l-72 438l-237 -438h-102l-17 727h84l10 -615l237 434h87l73 -438l261 619h91zM647 780h-66l-119 176h110z" />
    <glyph glyph-name="Ycircumflex" unicode="&#x176;" horiz-adv-x="587" 
d="M669 727l-327 -417l-62 -310h-88l63 308l-156 419h93l118 -335l259 335h100zM569 780h-73l-66 113l-112 -113h-81l150 176h105z" />
    <glyph glyph-name="Ygrave" unicode="&#x1ef2;" horiz-adv-x="587" 
d="M669 727l-327 -417l-62 -310h-88l63 308l-156 419h93l118 -335l259 335h100zM485 780h-66l-119 176h110z" />
    <glyph glyph-name="Zacute" unicode="&#x179;" horiz-adv-x="593" 
d="M637 727l-17 -80l-516 -569h412l-17 -78h-517l18 86l511 563h-381l17 78h490zM577 956l-191 -176h-81l147 176h125z" />
    <glyph glyph-name="Zdotaccent" unicode="&#x17b;" horiz-adv-x="593" 
d="M637 727l-17 -80l-516 -569h412l-17 -78h-517l18 86l511 563h-381l17 78h490zM465 849c0 -47 -24 -69 -74 -69c-36 0 -54 12 -54 45c0 47 24 68 74 68c38 0 54 -13 54 -44z" />
    <glyph glyph-name="Idotaccent" unicode="&#x130;" horiz-adv-x="345" 
d="M398 727l-15 -69h-91l-118 -589h91l-15 -69h-270l15 69h91l118 589h-91l15 69h270zM344 849c0 -47 -24 -69 -74 -69c-36 0 -54 12 -54 45c0 47 24 68 74 68c38 0 54 -13 54 -44z" />
    <glyph glyph-name="abreve" unicode="&#x103;" horiz-adv-x="555" 
d="M537 512l-103 -512h-68l2 77c-47 -54 -110 -92 -166 -92c-118 0 -170 84 -170 205c0 176 105 337 288 337c50 0 91 -11 129 -23l60 8h28zM436 433c-62 19 -82 22 -125 22c-130 0 -191 -152 -191 -264c0 -82 25 -134 99 -134c61 0 131 66 165 118zM550 747
c-20 -40 -78 -138 -190 -138c-105 0 -123 92 -130 138h62c11 -44 36 -61 79 -61c48 0 86 21 117 61h62z" />
    <glyph glyph-name="amacron" unicode="&#x101;" horiz-adv-x="555" 
d="M537 512l-103 -512h-68l2 77c-47 -54 -110 -92 -166 -92c-118 0 -170 84 -170 205c0 176 105 337 288 337c50 0 91 -11 129 -23l60 8h28zM436 433c-62 19 -82 22 -125 22c-130 0 -191 -152 -191 -264c0 -82 25 -134 99 -134c61 0 131 66 165 118zM538 712l-14 -67h-301
l14 67h301z" />
    <glyph glyph-name="aogonek" unicode="&#x105;" horiz-adv-x="555" 
d="M537 512l-103 -512h-4c-12 -27 -25 -60 -25 -86s17 -39 48 -39c27 0 51 7 76 18l18 -52c-39 -20 -83 -34 -127 -34c-52 0 -93 24 -93 80c0 39 18 80 39 113l2 77c-47 -54 -110 -92 -166 -92c-118 0 -170 84 -170 205c0 176 105 337 288 337c50 0 91 -11 129 -23l60 8h28z
M436 433c-62 19 -82 22 -125 22c-130 0 -191 -152 -191 -264c0 -82 25 -134 99 -134c61 0 131 66 165 118z" />
    <glyph glyph-name="aeacute" unicode="&#x1fd;" horiz-adv-x="850" 
d="M838 393c0 -59 -33 -148 -266 -163l-109 -7c-3 -13 -3 -26 -3 -39c0 -84 54 -129 127 -129c43 0 79 20 117 46l38 -62c-25 -20 -83 -54 -166 -54c-70 0 -125 31 -153 84l-14 -69h-58l2 78c-45 -54 -110 -93 -159 -93c-109 0 -162 84 -162 205c0 176 105 337 280 337
c42 0 83 -11 121 -23l54 15h20l-16 -79c55 61 122 87 187 87c80 0 160 -41 160 -134zM756 385c0 49 -37 76 -99 76c-83 0 -159 -66 -183 -168l-2 -9l80 6c135 10 204 38 204 95zM421 436c-51 15 -82 19 -118 19c-121 0 -183 -152 -183 -264c0 -82 25 -134 91 -134
c52 0 123 66 157 118zM824 766l-191 -176h-81l147 176h125z" />
    <glyph glyph-name="cacute" unicode="&#x107;" horiz-adv-x="482" 
d="M495 432l-67 -37c-24 45 -67 62 -113 62c-142 0 -195 -151 -195 -270c0 -85 40 -132 127 -132c27 0 51 8 71 18c19 10 35 21 46 28l38 -62c-30 -23 -88 -54 -166 -54c-128 0 -204 74 -204 204c0 185 96 338 294 338c67 0 141 -31 169 -95zM517 766l-191 -176h-81l147 176
h125z" />
    <glyph glyph-name="ccaron" unicode="&#x10d;" horiz-adv-x="482" 
d="M495 432l-67 -37c-24 45 -67 62 -113 62c-142 0 -195 -151 -195 -270c0 -85 40 -132 127 -132c27 0 51 8 71 18c19 10 35 21 46 28l38 -62c-30 -23 -88 -54 -166 -54c-128 0 -204 74 -204 204c0 185 96 338 294 338c67 0 141 -31 169 -95zM527 766l-150 -176h-105
l-77 176h73l66 -113l112 113h81z" />
    <glyph glyph-name="ccircumflex" unicode="&#x109;" horiz-adv-x="482" 
d="M495 432l-67 -37c-24 45 -67 62 -113 62c-142 0 -195 -151 -195 -270c0 -85 40 -132 127 -132c27 0 51 8 71 18c19 10 35 21 46 28l38 -62c-30 -23 -88 -54 -166 -54c-128 0 -204 74 -204 204c0 185 96 338 294 338c67 0 141 -31 169 -95zM513 590h-73l-66 113l-112 -113
h-81l150 176h105z" />
    <glyph glyph-name="cdotaccent" unicode="&#x10b;" horiz-adv-x="482" 
d="M495 432l-67 -37c-24 45 -67 62 -113 62c-142 0 -195 -151 -195 -270c0 -85 40 -132 127 -132c27 0 51 8 71 18c19 10 35 21 46 28l38 -62c-30 -23 -88 -54 -166 -54c-128 0 -204 74 -204 204c0 185 96 338 294 338c67 0 141 -31 169 -95zM424 671c0 -47 -24 -69 -74 -69
c-36 0 -54 12 -54 45c0 47 24 68 74 68c38 0 54 -13 54 -44z" />
    <glyph glyph-name="dcaron" unicode="&#x10f;" horiz-adv-x="610" 
d="M581 727l-147 -727h-68l2 77c-47 -54 -110 -92 -166 -92c-118 0 -170 84 -170 205c0 176 105 337 288 337c50 0 92 -12 130 -24l46 224h85zM436 433c-62 19 -82 22 -125 22c-130 0 -191 -152 -191 -264c0 -82 25 -134 99 -134c61 0 131 66 165 118zM727 669
c0 -71 -61 -158 -106 -210h-52c27 33 81 110 81 154c-26 0 -48 15 -48 44c0 49 23 70 72 70c32 0 53 -17 53 -58z" />
    <glyph glyph-name="dcroat" unicode="&#x111;" horiz-adv-x="555" 
d="M581 727l-14 -70h69l-14 -67h-69l-119 -590h-68l2 77c-47 -54 -110 -92 -166 -92c-118 0 -170 84 -170 205c0 176 105 337 288 337c50 0 92 -12 130 -24l18 87h-179l14 67h178l15 70h85zM436 433c-62 19 -82 22 -125 22c-130 0 -191 -152 -191 -264
c0 -82 25 -134 99 -134c61 0 131 66 165 118z" />
    <glyph glyph-name="ebreve" unicode="&#x115;" horiz-adv-x="510" 
d="M498 393c0 -59 -33 -148 -266 -163l-110 -7c-2 -10 -2 -23 -2 -39c0 -84 42 -129 127 -129c43 0 79 20 117 46l38 -62c-25 -20 -83 -54 -166 -54c-138 0 -204 75 -204 204c0 174 102 338 296 338c92 0 170 -41 170 -134zM416 385c0 49 -37 76 -99 76
c-86 0 -157 -71 -186 -177l81 6c135 10 204 38 204 95zM557 747c-20 -40 -78 -138 -190 -138c-105 0 -123 92 -130 138h62c11 -44 36 -61 79 -61c48 0 86 21 117 61h62z" />
    <glyph glyph-name="ecaron" unicode="&#x11b;" horiz-adv-x="510" 
d="M498 393c0 -59 -33 -148 -266 -163l-110 -7c-2 -10 -2 -23 -2 -39c0 -84 42 -129 127 -129c43 0 79 20 117 46l38 -62c-25 -20 -83 -54 -166 -54c-138 0 -204 75 -204 204c0 174 102 338 296 338c92 0 170 -41 170 -134zM416 385c0 49 -37 76 -99 76
c-86 0 -157 -71 -186 -177l81 6c135 10 204 38 204 95zM551 766l-150 -176h-105l-77 176h73l66 -113l112 113h81z" />
    <glyph glyph-name="edotaccent" unicode="&#x117;" horiz-adv-x="510" 
d="M498 393c0 -59 -33 -148 -266 -163l-110 -7c-2 -10 -2 -23 -2 -39c0 -84 42 -129 127 -129c43 0 79 20 117 46l38 -62c-25 -20 -83 -54 -166 -54c-138 0 -204 75 -204 204c0 174 102 338 296 338c92 0 170 -41 170 -134zM416 385c0 49 -37 76 -99 76
c-86 0 -157 -71 -186 -177l81 6c135 10 204 38 204 95zM430 671c0 -47 -24 -69 -74 -69c-36 0 -54 12 -54 45c0 47 24 68 74 68c38 0 54 -13 54 -44z" />
    <glyph glyph-name="emacron" unicode="&#x113;" horiz-adv-x="510" 
d="M498 393c0 -59 -33 -148 -266 -163l-110 -7c-2 -10 -2 -23 -2 -39c0 -84 42 -129 127 -129c43 0 79 20 117 46l38 -62c-25 -20 -83 -54 -166 -54c-138 0 -204 75 -204 204c0 174 102 338 296 338c92 0 170 -41 170 -134zM416 385c0 49 -37 76 -99 76
c-86 0 -157 -71 -186 -177l81 6c135 10 204 38 204 95zM510 712l-14 -67h-301l14 67h301z" />
    <glyph glyph-name="eng" unicode="&#x14b;" horiz-adv-x="556" 
d="M517 412c0 -9 -3 -35 -10 -69l-75 -369c-22 -110 -64 -167 -183 -167c-33 0 -66 4 -98 13l24 68c26 -8 53 -12 80 -12c57 0 82 48 95 112l73 359c6 28 6 44 6 50c0 40 -31 52 -65 52c-65 0 -146 -55 -191 -87l-74 -362h-85l105 512h85l-15 -73c54 43 122 88 191 88
c71 0 137 -31 137 -115z" />
    <glyph glyph-name="eogonek" unicode="&#x119;" horiz-adv-x="510" 
d="M406 -159c-39 -20 -83 -34 -127 -34c-52 0 -93 24 -93 80c0 34 13 68 30 99c-124 7 -184 80 -184 203c0 174 102 338 296 338c92 0 170 -41 170 -134c0 -59 -33 -148 -266 -163l-110 -7c-2 -10 -2 -23 -2 -39c0 -84 42 -129 127 -129c43 0 79 20 117 46l38 -62
c-19 -16 -58 -39 -113 -49c-14 -25 -25 -53 -25 -76c0 -26 17 -39 48 -39c27 0 51 7 76 18zM416 385c0 49 -37 76 -99 76c-86 0 -157 -71 -186 -177l81 6c135 10 204 38 204 95z" />
    <glyph glyph-name="gbreve" unicode="&#x11f;" horiz-adv-x="570" 
d="M606 509l-14 -67c-11 3 -24 5 -35 5c-33 0 -46 -25 -56 -74l-73 -361c-30 -150 -94 -205 -251 -205c-56 0 -128 9 -178 31l29 70c44 -21 98 -32 161 -32c79 0 132 25 153 131l16 80c-46 -49 -100 -87 -158 -87c-122 0 -168 86 -168 200c0 165 98 327 287 327
c54 0 109 -26 143 -45c20 32 51 38 87 38c14 0 41 -4 57 -11zM430 418c-27 14 -76 38 -120 38c-134 0 -190 -152 -190 -255c0 -70 19 -130 98 -130c63 0 124 65 161 119l38 185c2 10 8 33 13 43zM516 747c-20 -40 -78 -138 -190 -138c-105 0 -123 92 -130 138h62
c11 -44 36 -61 79 -61c48 0 86 21 117 61h62z" />
    <glyph glyph-name="gcircumflex" unicode="&#x11d;" horiz-adv-x="570" 
d="M606 509l-14 -67c-11 3 -24 5 -35 5c-33 0 -46 -25 -56 -74l-73 -361c-30 -150 -94 -205 -251 -205c-56 0 -128 9 -178 31l29 70c44 -21 98 -32 161 -32c79 0 132 25 153 131l16 80c-46 -49 -100 -87 -158 -87c-122 0 -168 86 -168 200c0 165 98 327 287 327
c54 0 109 -26 143 -45c20 32 51 38 87 38c14 0 41 -4 57 -11zM430 418c-27 14 -76 38 -120 38c-134 0 -190 -152 -190 -255c0 -70 19 -130 98 -130c63 0 124 65 161 119l38 185c2 10 8 33 13 43zM511 590h-73l-66 113l-112 -113h-81l150 176h105z" />
    <glyph glyph-name="gcommaaccent" unicode="&#x123;" horiz-adv-x="570" 
d="M606 509l-14 -67c-11 3 -24 5 -35 5c-33 0 -46 -25 -56 -74l-73 -361c-30 -150 -94 -205 -251 -205c-56 0 -128 9 -178 31l29 70c44 -21 98 -32 161 -32c79 0 132 25 153 131l16 80c-46 -49 -100 -87 -158 -87c-122 0 -168 86 -168 200c0 165 98 327 287 327
c54 0 109 -26 143 -45c20 32 51 38 87 38c14 0 41 -4 57 -11zM430 418c-27 14 -76 38 -120 38c-134 0 -190 -152 -190 -255c0 -70 19 -130 98 -130c63 0 124 65 161 119l38 185c2 10 8 33 13 43zM355 759h56c-20 -19 -41 -49 -46 -72c27 -1 40 -17 40 -39
c0 -38 -20 -59 -64 -59c-34 0 -49 20 -49 47c0 46 30 88 63 123z" />
    <glyph glyph-name="gdotaccent" unicode="&#x121;" horiz-adv-x="570" 
d="M606 509l-14 -67c-11 3 -24 5 -35 5c-33 0 -46 -25 -56 -74l-73 -361c-30 -150 -94 -205 -251 -205c-56 0 -128 9 -178 31l29 70c44 -21 98 -32 161 -32c79 0 132 25 153 131l16 80c-46 -49 -100 -87 -158 -87c-122 0 -168 86 -168 200c0 165 98 327 287 327
c54 0 109 -26 143 -45c20 32 51 38 87 38c14 0 41 -4 57 -11zM430 418c-27 14 -76 38 -120 38c-134 0 -190 -152 -190 -255c0 -70 19 -130 98 -130c63 0 124 65 161 119l38 185c2 10 8 33 13 43zM409 671c0 -47 -24 -69 -74 -69c-36 0 -54 12 -54 45c0 47 24 68 74 68
c38 0 54 -13 54 -44z" />
    <glyph glyph-name="hbar" unicode="&#x127;" horiz-adv-x="556" 
d="M517 411c0 -9 -3 -35 -10 -69l-70 -342h-85l62 301c12 57 15 86 15 95c0 40 -29 53 -65 53c-65 0 -146 -55 -191 -87l-74 -362h-85l120 590h-53l14 67h52l15 70h85l-15 -70h196l-14 -67h-195l-31 -151c54 43 123 88 192 88c73 0 137 -32 137 -116z" />
    <glyph glyph-name="hcircumflex" unicode="&#x125;" horiz-adv-x="556" 
d="M517 411c0 -9 -3 -35 -10 -69l-70 -342h-85l62 301c12 57 15 86 15 95c0 40 -29 53 -65 53c-65 0 -146 -55 -191 -87l-74 -362h-85l148 727h85l-59 -288c54 43 123 88 192 88c73 0 137 -32 137 -116zM496 780h-73l-66 113l-112 -113h-81l150 176h105z" />
    <glyph glyph-name="ibreve" unicode="&#x12d;" horiz-adv-x="282" 
d="M245 471c0 -12 -5 -41 -16 -94l-77 -377h-85l76 372c3 14 12 55 12 61c0 8 -4 11 -11 11c-18 0 -44 -12 -66 -27l-32 49c33 28 91 61 140 61c18 0 59 -5 59 -56zM382 747c-20 -40 -78 -138 -190 -138c-105 0 -123 92 -130 138h62c11 -44 36 -61 79 -61c48 0 86 21 117 61
h62z" />
    <glyph glyph-name="ij" unicode="&#x133;" horiz-adv-x="564" 
d="M280 670c0 -43 -22 -63 -67 -63c-33 0 -49 11 -49 41c0 42 21 62 67 62c34 0 49 -12 49 -40zM245 471c0 -12 -5 -41 -16 -94l-77 -377h-85l76 372c3 14 12 55 12 61c0 8 -4 11 -11 11c-18 0 -44 -12 -66 -27l-32 49c33 28 91 61 140 61c18 0 59 -5 59 -56zM562 670
c0 -43 -22 -62 -67 -62c-33 0 -49 10 -49 40c0 42 21 62 67 62c34 0 49 -12 49 -40zM527 471c0 -12 -5 -40 -16 -94l-82 -403c-22 -110 -64 -167 -183 -167c-33 0 -66 4 -98 13l24 68c26 -8 53 -12 80 -12c57 0 82 48 95 112l78 385c3 13 12 54 12 60c0 7 -3 11 -11 11
c-18 0 -44 -12 -66 -27l-32 49c35 28 91 61 139 61c20 0 60 -6 60 -56z" />
    <glyph glyph-name="imacron" unicode="&#x12b;" horiz-adv-x="282" 
d="M245 471c0 -12 -5 -41 -16 -94l-77 -377h-85l76 372c3 14 12 55 12 61c0 8 -4 11 -11 11c-18 0 -44 -12 -66 -27l-32 49c33 28 91 61 140 61c18 0 59 -5 59 -56zM379 712l-14 -67h-301l14 67h301z" />
    <glyph glyph-name="iogonek" unicode="&#x12f;" horiz-adv-x="282" 
d="M249 -159c-39 -20 -83 -34 -127 -34c-52 0 -93 24 -93 80c0 39 18 80 39 113h-1l76 372c3 14 12 55 12 61c0 8 -4 11 -11 11c-18 0 -44 -12 -66 -27l-32 49c33 28 91 61 140 61c18 0 59 -5 59 -56c0 -12 -5 -41 -16 -94l-77 -377h-14c-16 -27 -31 -60 -31 -86
s17 -39 48 -39c27 0 51 7 76 18zM280 670c0 -43 -22 -63 -67 -63c-33 0 -49 11 -49 41c0 42 21 62 67 62c34 0 49 -12 49 -40z" />
    <glyph glyph-name="itilde" unicode="&#x129;" horiz-adv-x="282" 
d="M245 471c0 -12 -5 -41 -16 -94l-77 -377h-85l76 372c3 14 12 55 12 61c0 8 -4 11 -11 11c-18 0 -44 -12 -66 -27l-32 49c33 28 91 61 140 61c18 0 59 -5 59 -56zM410 745c-16 -71 -56 -134 -141 -134c-76 0 -83 71 -134 71c-37 0 -53 -40 -61 -71h-59
c17 75 64 134 140 134c77 0 84 -71 135 -71c37 0 53 41 61 71h59z" />
    <glyph glyph-name="jcircumflex" unicode="&#x135;" horiz-adv-x="282" 
d="M245 471c0 -12 -5 -40 -16 -94l-82 -403c-22 -110 -64 -167 -183 -167c-33 0 -66 4 -98 13l24 68c26 -8 53 -12 80 -12c57 0 82 48 95 112l78 385c3 13 12 54 12 60c0 7 -3 11 -11 11c-18 0 -44 -12 -66 -27l-32 49c35 28 91 61 139 61c20 0 60 -6 60 -56zM374 590h-73
l-66 113l-112 -113h-81l150 176h105z" />
    <glyph glyph-name="kcommaaccent" unicode="&#x137;" horiz-adv-x="482" 
d="M491 512l-226 -220l84 -178c25 -52 32 -63 53 -63c10 0 19 2 30 5l8 -64c-22 -5 -40 -7 -67 -7c-46 0 -67 34 -92 87l-77 161l-71 -68l-34 -165h-85l149 727h85l-90 -443l226 228h107zM194 -193h-56c20 19 41 49 46 72c-27 1 -40 17 -40 39c0 38 20 59 64 59
c34 0 49 -20 49 -47c0 -46 -30 -88 -63 -123z" />
    <glyph glyph-name="lacute" unicode="&#x13a;" horiz-adv-x="273" 
d="M253 755l-123 -606c-3 -17 -6 -35 -6 -53c0 -34 17 -45 48 -45c20 0 34 4 53 10l9 -65c-30 -8 -61 -11 -92 -11c-64 0 -106 17 -106 87c0 25 4 52 9 76l114 562zM438 956l-191 -176h-81l147 176h125z" />
    <glyph glyph-name="lcaron" unicode="&#x13e;" horiz-adv-x="300" 
d="M253 755l-123 -606c-3 -17 -6 -35 -6 -53c0 -34 17 -45 48 -45c20 0 34 4 53 10l9 -65c-30 -8 -61 -11 -92 -11c-64 0 -106 17 -106 87c0 25 4 52 9 76l114 562zM399 669c0 -71 -61 -158 -106 -210h-52c27 33 81 110 81 154c-26 0 -48 15 -48 44c0 49 23 70 72 70
c32 0 53 -17 53 -58z" />
    <glyph glyph-name="lcommaaccent" unicode="&#x13c;" horiz-adv-x="273" 
d="M253 755l-123 -606c-3 -17 -6 -35 -6 -53c0 -34 17 -45 48 -45c20 0 34 4 53 10l9 -65c-30 -8 -61 -11 -92 -11c-64 0 -106 17 -106 87c0 25 4 52 9 76l114 562zM119 -193h-56c20 19 41 49 46 72c-27 1 -40 17 -40 39c0 38 20 59 64 59c34 0 49 -20 49 -47
c0 -46 -30 -88 -63 -123z" />
    <glyph glyph-name="ldot" unicode="&#x140;" horiz-adv-x="327" 
d="M253 755l-123 -606c-3 -17 -6 -35 -6 -53c0 -34 17 -45 48 -45c20 0 34 4 53 10l9 -65c-30 -8 -61 -11 -92 -11c-64 0 -106 17 -106 87c0 25 4 52 9 76l114 562zM345 334c0 -47 -23 -70 -73 -70c-31 0 -52 13 -52 45c0 47 23 71 72 71c32 0 53 -14 53 -46z" />
    <glyph glyph-name="nacute" unicode="&#x144;" horiz-adv-x="556" 
d="M517 412c0 -9 -3 -35 -10 -69l-70 -343h-85l62 302c12 57 15 86 15 95c0 40 -31 52 -65 52c-65 0 -146 -55 -191 -87l-74 -362h-85l105 512h85l-15 -73c54 43 122 88 191 88c71 0 137 -31 137 -115zM499 766l-191 -176h-81l147 176h125z" />
    <glyph glyph-name="ncaron" unicode="&#x148;" horiz-adv-x="556" 
d="M517 412c0 -9 -3 -35 -10 -69l-70 -343h-85l62 302c12 57 15 86 15 95c0 40 -31 52 -65 52c-65 0 -146 -55 -191 -87l-74 -362h-85l105 512h85l-15 -73c54 43 122 88 191 88c71 0 137 -31 137 -115zM555 766l-150 -176h-105l-77 176h73l66 -113l112 113h81z" />
    <glyph glyph-name="ncommaaccent" unicode="&#x146;" horiz-adv-x="556" 
d="M517 412c0 -9 -3 -35 -10 -69l-70 -343h-85l62 302c12 57 15 86 15 95c0 40 -31 52 -65 52c-65 0 -146 -55 -191 -87l-74 -362h-85l105 512h85l-15 -73c54 43 122 88 191 88c71 0 137 -31 137 -115zM222 -193h-56c20 19 41 49 46 72c-27 1 -40 17 -40 39
c0 38 20 59 64 59c34 0 49 -20 49 -47c0 -46 -30 -88 -63 -123z" />
    <glyph glyph-name="obreve" unicode="&#x14f;" horiz-adv-x="542" 
d="M510 326c0 -181 -89 -341 -280 -341c-121 0 -198 72 -198 202c0 182 91 340 281 340c119 0 197 -72 197 -201zM422 325c0 88 -40 132 -120 132c-134 0 -182 -156 -182 -270c0 -88 40 -132 120 -132c134 0 182 156 182 270zM526 747c-20 -40 -78 -138 -190 -138
c-105 0 -123 92 -130 138h62c11 -44 36 -61 79 -61c48 0 86 21 117 61h62z" />
    <glyph glyph-name="ohungarumlaut" unicode="&#x151;" horiz-adv-x="542" 
d="M510 326c0 -181 -89 -341 -280 -341c-121 0 -198 72 -198 202c0 182 91 340 281 340c119 0 197 -72 197 -201zM422 325c0 88 -40 132 -120 132c-134 0 -182 -156 -182 -270c0 -88 40 -132 120 -132c134 0 182 156 182 270zM620 766l-191 -176h-81l147 176h125zM440 766
l-191 -176h-81l147 176h125z" />
    <glyph glyph-name="omacron" unicode="&#x14d;" horiz-adv-x="542" 
d="M510 326c0 -181 -89 -341 -280 -341c-121 0 -198 72 -198 202c0 182 91 340 281 340c119 0 197 -72 197 -201zM422 325c0 88 -40 132 -120 132c-134 0 -182 -156 -182 -270c0 -88 40 -132 120 -132c134 0 182 156 182 270zM504 712l-14 -67h-301l14 67h301z" />
    <glyph glyph-name="oslashacute" unicode="&#x1ff;" horiz-adv-x="542" 
d="M573 549l-93 -104c19 -31 30 -71 30 -119c0 -181 -89 -341 -280 -341c-51 0 -94 12 -127 37l-53 -59h-78l91 102c-20 32 -31 73 -31 122c0 182 91 340 281 340c51 0 95 -14 128 -39l54 61h78zM387 429c-20 19 -48 28 -85 28c-134 0 -182 -156 -182 -270
c0 -19 2 -37 6 -52zM422 325c0 18 -2 35 -5 49l-261 -292c20 -18 48 -27 84 -27c134 0 182 156 182 270zM487 766l-191 -176h-81l147 176h125z" />
    <glyph glyph-name="racute" unicode="&#x155;" horiz-adv-x="361" 
d="M406 512l-36 -84c-11 5 -21 7 -36 7c-51 0 -119 -58 -168 -106l-67 -329h-85l105 512h78l-20 -102c56 60 116 110 172 110c25 0 40 -2 57 -8zM407 766l-191 -176h-81l147 176h125z" />
    <glyph glyph-name="rcaron" unicode="&#x159;" horiz-adv-x="361" 
d="M406 512l-36 -84c-11 5 -21 7 -36 7c-51 0 -119 -58 -168 -106l-67 -329h-85l105 512h78l-20 -102c56 60 116 110 172 110c25 0 40 -2 57 -8zM482 766l-150 -176h-105l-77 176h73l66 -113l112 113h81z" />
    <glyph glyph-name="rcommaaccent" unicode="&#x157;" horiz-adv-x="361" 
d="M406 512l-36 -84c-11 5 -21 7 -36 7c-51 0 -119 -58 -168 -106l-67 -329h-85l105 512h78l-20 -102c56 60 116 110 172 110c25 0 40 -2 57 -8zM104 -193h-56c20 19 41 49 46 72c-27 1 -40 17 -40 39c0 38 20 59 64 59c34 0 49 -20 49 -47c0 -46 -30 -88 -63 -123z" />
    <glyph glyph-name="sacute" unicode="&#x15b;" horiz-adv-x="439" 
d="M428 437l-67 -40c-26 43 -64 63 -112 63c-41 0 -102 -20 -102 -79c0 -40 48 -63 101 -86c66 -29 141 -64 141 -141c0 -124 -105 -169 -211 -169c-68 0 -143 26 -183 92l65 44c25 -44 74 -68 122 -68c54 0 124 18 124 86c0 40 -41 64 -90 85c-69 30 -152 60 -152 146
c0 113 100 157 197 157c65 0 134 -25 167 -90zM445 766l-191 -176h-81l147 176h125z" />
    <glyph glyph-name="scedilla" unicode="&#x15f;" horiz-adv-x="439" 
d="M259 -88c0 -77 -74 -105 -138 -105c-44 0 -80 7 -118 23l26 52c31 -13 71 -19 98 -19c29 0 68 8 68 45c0 34 -52 41 -77 43l25 36c-57 8 -115 35 -148 90l65 44c25 -44 74 -68 122 -68c54 0 124 18 124 86c0 40 -41 64 -90 85c-69 30 -152 60 -152 146
c0 113 100 157 197 157c65 0 134 -25 167 -90l-67 -40c-26 43 -64 63 -112 63c-41 0 -102 -20 -102 -79c0 -40 48 -63 101 -86c66 -29 141 -64 141 -141c0 -118 -95 -164 -195 -168v-1c39 -10 65 -33 65 -73z" />
    <glyph glyph-name="scircumflex" unicode="&#x15d;" horiz-adv-x="439" 
d="M428 437l-67 -40c-26 43 -64 63 -112 63c-41 0 -102 -20 -102 -79c0 -40 48 -63 101 -86c66 -29 141 -64 141 -141c0 -124 -105 -169 -211 -169c-68 0 -143 26 -183 92l65 44c25 -44 74 -68 122 -68c54 0 124 18 124 86c0 40 -41 64 -90 85c-69 30 -152 60 -152 146
c0 113 100 157 197 157c65 0 134 -25 167 -90zM452 590h-73l-66 113l-112 -113h-81l150 176h105z" />
    <glyph glyph-name="scommaaccent" unicode="&#x219;" horiz-adv-x="439" 
d="M428 437l-67 -40c-26 43 -64 63 -112 63c-41 0 -102 -20 -102 -79c0 -40 48 -63 101 -86c66 -29 141 -64 141 -141c0 -124 -105 -169 -211 -169c-68 0 -143 26 -183 92l65 44c25 -44 74 -68 122 -68c54 0 124 18 124 86c0 40 -41 64 -90 85c-69 30 -152 60 -152 146
c0 113 100 157 197 157c65 0 134 -25 167 -90zM162 -193h-56c20 19 41 49 46 72c-27 1 -40 17 -40 39c0 38 20 59 64 59c34 0 49 -20 49 -47c0 -46 -30 -88 -63 -123z" />
    <glyph glyph-name="tbar" unicode="&#x167;" horiz-adv-x="323" 
d="M335 512l-15 -66h-115l-22 -110h117l-15 -66h-115l-20 -100c-4 -21 -10 -50 -10 -64c0 -41 19 -55 59 -55c25 0 50 5 74 14l13 -65c-35 -10 -72 -15 -108 -15c-83 0 -124 26 -124 107c0 12 4 41 8 62l23 116h-76l15 66h75l22 110h-77l15 66h76l29 143l95 45l-39 -188h115
z" />
    <glyph glyph-name="tcaron" unicode="&#x165;" horiz-adv-x="323" 
d="M335 512l-15 -66h-115l-55 -276c-4 -21 -10 -50 -10 -64c0 -41 19 -55 59 -55c25 0 50 5 74 14l13 -65c-35 -10 -72 -15 -108 -15c-83 0 -124 26 -124 107c0 12 4 41 8 62l59 292h-77l15 66h76l29 143l95 45l-39 -188h115zM337 530h-56c20 19 41 49 46 72
c-27 1 -40 17 -40 39c0 38 20 59 64 59c34 0 49 -20 49 -47c0 -46 -30 -88 -63 -123z" />
    <glyph glyph-name="ubreve" unicode="&#x16d;" horiz-adv-x="556" 
d="M540 512l-105 -512h-85l15 73c-51 -48 -130 -88 -181 -88c-86 0 -145 43 -145 128c0 14 2 28 8 56l70 343h85l-62 -302c-4 -20 -15 -67 -15 -88c0 -45 32 -59 75 -59c58 0 136 54 181 87l74 362h85zM525 747c-20 -40 -78 -138 -190 -138c-105 0 -123 92 -130 138h62
c11 -44 36 -61 79 -61c48 0 86 21 117 61h62z" />
    <glyph glyph-name="uhungarumlaut" unicode="&#x171;" horiz-adv-x="556" 
d="M540 512l-105 -512h-85l15 73c-51 -48 -130 -88 -181 -88c-86 0 -145 43 -145 128c0 14 2 28 8 56l70 343h85l-62 -302c-4 -20 -15 -67 -15 -88c0 -45 32 -59 75 -59c58 0 136 54 181 87l74 362h85zM626 766l-191 -176h-81l147 176h125zM446 766l-191 -176h-81l147 176
h125z" />
    <glyph glyph-name="umacron" unicode="&#x16b;" horiz-adv-x="556" 
d="M540 512l-105 -512h-85l15 73c-51 -48 -130 -88 -181 -88c-86 0 -145 43 -145 128c0 14 2 28 8 56l70 343h85l-62 -302c-4 -20 -15 -67 -15 -88c0 -45 32 -59 75 -59c58 0 136 54 181 87l74 362h85zM525 712l-14 -67h-301l14 67h301z" />
    <glyph glyph-name="uogonek" unicode="&#x173;" horiz-adv-x="556" 
d="M531 -159c-39 -20 -83 -34 -127 -34c-52 0 -93 24 -93 80c0 39 18 80 39 113l15 73c-51 -48 -130 -88 -181 -88c-86 0 -145 43 -145 128c0 14 2 28 8 56l70 343h85l-62 -302c-4 -20 -15 -67 -15 -88c0 -45 32 -59 75 -59c58 0 136 54 181 87l74 362h85l-105 -512h-15
c-16 -27 -31 -60 -31 -86s17 -39 48 -39c27 0 51 7 76 18z" />
    <glyph glyph-name="uring" unicode="&#x16f;" horiz-adv-x="556" 
d="M540 512l-105 -512h-85l15 73c-51 -48 -130 -88 -181 -88c-86 0 -145 43 -145 128c0 14 2 28 8 56l70 343h85l-62 -302c-4 -20 -15 -67 -15 -88c0 -45 32 -59 75 -59c58 0 136 54 181 87l74 362h85zM446 676c0 -67 -43 -111 -113 -111c-44 0 -78 27 -78 74
c0 63 43 110 112 110c44 0 79 -25 79 -73zM403 673c0 25 -19 36 -43 36c-39 0 -62 -31 -62 -68c0 -25 18 -36 42 -36c41 0 63 29 63 68z" />
    <glyph glyph-name="utilde" unicode="&#x169;" horiz-adv-x="556" 
d="M540 512l-105 -512h-85l15 73c-51 -48 -130 -88 -181 -88c-86 0 -145 43 -145 128c0 14 2 28 8 56l70 343h85l-62 -302c-4 -20 -15 -67 -15 -88c0 -45 32 -59 75 -59c58 0 136 54 181 87l74 362h85zM555 745c-16 -71 -56 -134 -141 -134c-76 0 -83 71 -134 71
c-37 0 -53 -40 -61 -71h-59c17 75 64 134 140 134c77 0 84 -71 135 -71c37 0 53 41 61 71h59z" />
    <glyph glyph-name="wacute" unicode="&#x1e83;" horiz-adv-x="723" 
d="M751 512l-237 -512h-77l-81 295l-188 -295h-76l-27 512h80l16 -395l182 288h62l83 -298l174 405h89zM571 766l-191 -176h-81l147 176h125z" />
    <glyph glyph-name="wcircumflex" unicode="&#x175;" horiz-adv-x="723" 
d="M751 512l-237 -512h-77l-81 295l-188 -295h-76l-27 512h80l16 -395l182 288h62l83 -298l174 405h89zM596 590h-73l-66 113l-112 -113h-81l150 176h105z" />
    <glyph glyph-name="wdieresis" unicode="&#x1e85;" horiz-adv-x="723" 
d="M751 512l-237 -512h-77l-81 295l-188 -295h-76l-27 512h80l16 -395l182 288h62l83 -298l174 405h89zM584 670c0 -43 -22 -63 -67 -63c-33 0 -49 11 -49 41c0 42 21 62 67 62c34 0 49 -12 49 -40zM391 670c0 -43 -22 -63 -67 -63c-33 0 -49 11 -49 41c0 42 21 62 67 62
c34 0 49 -12 49 -40z" />
    <glyph glyph-name="wgrave" unicode="&#x1e81;" horiz-adv-x="723" 
d="M751 512l-237 -512h-77l-81 295l-188 -295h-76l-27 512h80l16 -395l182 288h62l83 -298l174 405h89zM496 590h-66l-119 176h110z" />
    <glyph glyph-name="ycircumflex" unicode="&#x177;" horiz-adv-x="496" 
d="M531 512l-323 -551c-50 -85 -93 -154 -203 -154c-31 0 -61 4 -90 14l21 67c25 -10 47 -12 74 -12c37 0 68 28 93 62c13 17 23 36 33 53s18 33 26 46l-110 475h85l83 -384l217 384h94zM468 590h-73l-66 113l-112 -113h-81l150 176h105z" />
    <glyph glyph-name="ygrave" unicode="&#x1ef3;" horiz-adv-x="496" 
d="M531 512l-323 -551c-50 -85 -93 -154 -203 -154c-31 0 -61 4 -90 14l21 67c25 -10 47 -12 74 -12c37 0 68 28 93 62c13 17 23 36 33 53s18 33 26 46l-110 475h85l83 -384l217 384h94zM394 590h-66l-119 176h110z" />
    <glyph glyph-name="zacute" unicode="&#x17a;" 
d="M464 512l-12 -58l-343 -384h53c60 0 99 -17 142 -44c41 -26 73 -45 111 -45h36l-15 -70h-38c-46 0 -83 22 -120 45c-43 27 -76 44 -141 44h-151l12 62l345 384h-264l14 66h371zM453 766l-191 -176h-81l147 176h125z" />
    <glyph glyph-name="zdotaccent" unicode="&#x17c;" 
d="M464 512l-12 -58l-343 -384h53c60 0 99 -17 142 -44c41 -26 73 -45 111 -45h36l-15 -70h-38c-46 0 -83 22 -120 45c-43 27 -76 44 -141 44h-151l12 62l345 384h-264l14 66h371zM358 671c0 -47 -24 -69 -74 -69c-36 0 -54 12 -54 45c0 47 24 68 74 68c38 0 54 -13 54 -44z
" />
    <glyph glyph-name="kgreenlandic" unicode="&#x138;" horiz-adv-x="482" 
d="M491 512l-226 -220l84 -178c25 -52 32 -63 53 -63c10 0 19 2 30 5l8 -64c-22 -5 -40 -7 -67 -7c-46 0 -67 34 -92 87l-77 161l-71 -68l-34 -165h-85l105 512h85l-46 -228l226 228h107z" />
    <glyph glyph-name="napostrophe" unicode="&#x149;" horiz-adv-x="556" 
d="M517 412c0 -9 -3 -35 -10 -69l-70 -343h-85l62 302c12 57 15 86 15 95c0 40 -31 52 -65 52c-65 0 -146 -55 -191 -87l-74 -362h-85l105 512h85l-15 -73c54 43 122 88 191 88c71 0 137 -31 137 -115zM137 704c0 -71 -61 -158 -106 -210h-52c27 33 81 110 81 154
c-26 0 -48 15 -48 44c0 49 23 70 72 70c32 0 53 -17 53 -58z" />
    <glyph glyph-name="Delta" unicode="&#x2206;" horiz-adv-x="655" 
d="M635 0h-616v45l246 655h127c80 -219 162 -436 243 -655v-45zM518 81l-175 475c-9 25 -13 45 -20 59c-3 -13 -9 -35 -17 -57c-57 -159 -116 -318 -175 -477h387z" />
    <glyph glyph-name="uni03A9" unicode="&#x3a9;" horiz-adv-x="748" 
d="M698 0h-251v80c61 52 148 140 148 296c0 141 -76 251 -218 251c-131 0 -224 -102 -224 -253c0 -153 85 -241 149 -294v-80h-251v80h161c-70 51 -163 145 -163 312c0 185 134 320 328 320c209 0 322 -136 322 -318c0 -151 -84 -256 -165 -314h164v-80z" />
    <glyph glyph-name="uni03BC" unicode="&#x3bc;" horiz-adv-x="556" 
d="M540 512l-105 -512h-85l15 73c-51 -48 -127 -88 -171 -88c-33 0 -71 11 -93 36l-44 -214h-85c49 235 145 705 145 705h85l-70 -349c-2 -11 -7 -29 -7 -41c0 -45 32 -59 75 -59c58 0 136 54 181 87l74 362h85z" />
    <glyph glyph-name="pi" unicode="&#x3c0;" horiz-adv-x="713" 
d="M646 74l18 -65c-18 -10 -46 -17 -79 -17c-94 0 -131 63 -131 143v291h-176v-286c0 -61 -7 -106 -17 -140h-100c13 40 19 93 19 146v280c-31 0 -78 -10 -105 -24l-27 66c29 15 86 32 154 32h459v-74h-109v-279c0 -49 16 -81 60 -81c12 0 24 3 34 8z" />
    <glyph glyph-name="Euro" unicode="&#x20ac;" horiz-adv-x="579" 
d="M629 602l-76 -37c-31 69 -73 100 -154 100c-119 0 -183 -113 -207 -208h279l-22 -60h-269c-3 -17 -8 -45 -10 -67h248l-21 -60h-231c0 -8 -1 -15 -1 -23c0 -100 37 -185 148 -185c69 0 134 29 180 66l47 -72c-62 -44 -143 -71 -236 -71c-172 0 -230 129 -230 259
c0 9 1 18 1 26h-70l22 60h51c2 22 6 48 10 67h-58l22 60h47c40 157 139 285 309 285c108 0 186 -47 221 -140z" />
    <glyph glyph-name="litre" unicode="&#x2113;" horiz-adv-x="521" 
d="M412 105l32 -52c-28 -28 -79 -67 -143 -67c-41 0 -71 13 -93 36c-26 27 -38 74 -38 122v95l-60 -61l-34 46l94 96v219c0 122 51 189 136 189c80 0 106 -64 106 -112c0 -96 -48 -177 -153 -302v-164c0 -67 27 -93 65 -93c37 0 68 27 88 48zM349 603c0 30 -12 54 -37 54
c-34 0 -53 -34 -53 -107v-150c7 8 17 20 23 29c41 58 67 123 67 174z" />
    <glyph glyph-name="Omega" unicode="&#x2126;" horiz-adv-x="748" 
d="M698 0h-251v80c61 52 148 140 148 296c0 141 -76 251 -218 251c-131 0 -224 -102 -224 -253c0 -153 85 -241 149 -294v-80h-251v80h161c-70 51 -163 145 -163 312c0 185 134 320 328 320c209 0 322 -136 322 -318c0 -151 -84 -256 -165 -314h164v-80z" />
    <glyph glyph-name="estimated" unicode="&#x212e;" horiz-adv-x="683" 
d="M640 304h-468v-210c45 -44 101 -68 166 -68c110 0 175 56 225 138c13 -7 25 -15 37 -22c-61 -92 -133 -154 -262 -154c-180 0 -295 142 -295 316c0 175 112 316 297 316c187 0 296 -142 300 -316zM507 342v171c-43 42 -104 69 -167 69c-66 0 -123 -23 -168 -68v-172h335z
" />
    <glyph glyph-name="partialdiff" unicode="&#x2202;" horiz-adv-x="613" 
d="M562 473c0 -62 -8 -126 -25 -189c-40 -152 -140 -295 -292 -295c-115 0 -195 80 -195 197c0 200 142 310 269 310c73 0 122 -36 142 -73h2c2 19 4 38 4 62c0 106 -52 169 -143 169c-34 0 -74 -11 -103 -29l-24 66c28 19 83 38 142 38c136 0 223 -94 223 -256zM450 341
c-14 46 -52 85 -116 85c-98 0 -187 -105 -187 -243c0 -71 40 -118 101 -118c96 0 172 118 202 276z" />
    <glyph glyph-name="product" unicode="&#x220f;" horiz-adv-x="767" 
d="M680 -230h-99v845h-396v-845h-98v930h593v-930z" />
    <glyph glyph-name="summation" unicode="&#x2211;" horiz-adv-x="670" 
d="M639 -230h-609v49l338 420c-105 136 -210 271 -316 406v55h563v-80h-433l294 -379c-104 -130 -209 -260 -312 -391h475v-80z" />
    <glyph glyph-name="uni2219" unicode="&#x2219;" horiz-adv-x="247" 
d="M182 300c0 -47 -23 -70 -73 -70c-31 0 -52 13 -52 45c0 47 23 71 72 71c32 0 53 -14 53 -46z" />
    <glyph glyph-name="radical" unicode="&#x221a;" horiz-adv-x="563" 
d="M539 729l-209 -741h-76l-144 331l-57 -36c-11 18 -20 35 -30 52c42 27 86 55 129 81c46 -107 92 -214 139 -320l177 633h71z" />
    <glyph glyph-name="infinity" unicode="&#x221e;" horiz-adv-x="839" 
d="M789 294c0 -97 -68 -175 -175 -175c-82 0 -151 48 -194 115h-2c-46 -66 -113 -115 -192 -115c-104 0 -177 70 -177 171c0 105 73 174 175 174c87 0 151 -52 194 -114h2c35 51 101 114 190 114c104 0 179 -68 179 -170zM710 293c0 54 -31 102 -103 102
c-64 0 -110 -43 -150 -103c39 -64 92 -104 150 -104c72 0 103 50 103 105zM380 292c-38 61 -94 103 -151 103c-68 0 -102 -48 -102 -105c0 -59 43 -102 103 -102c61 0 113 47 150 104z" />
    <glyph glyph-name="integral" unicode="&#x222b;" horiz-adv-x="518" 
d="M459 734l-20 -71c-10 5 -29 10 -49 10c-54 0 -83 -35 -83 -97v-627c0 -114 -61 -182 -167 -182c-27 0 -65 6 -82 14l20 72c12 -5 29 -10 49 -10c54 0 82 35 82 98v627c0 111 58 181 168 181c32 0 68 -7 82 -15z" />
    <glyph glyph-name="approxequal" unicode="&#x2248;" horiz-adv-x="667" 
d="M601 415c-20 -15 -78 -62 -143 -62c-44 0 -73 11 -158 50c-15 7 -58 27 -89 27c-61 0 -115 -44 -147 -70v78c65 52 117 62 149 62c36 0 67 -10 143 -46c32 -15 67 -31 100 -31c61 0 115 45 145 70v-78zM602 195c-20 -15 -78 -62 -143 -62c-44 0 -73 11 -158 50
c-15 7 -58 27 -89 27c-61 0 -115 -44 -147 -70v78c65 52 117 62 149 62c36 0 67 -10 143 -46c32 -15 67 -31 100 -31c61 0 115 45 145 70v-78z" />
    <glyph glyph-name="notequal" unicode="&#x2260;" horiz-adv-x="667" 
d="M602 140h-306l-58 -118h-76l58 118h-155v70h189l76 155h-265v70h300l69 140h75l-69 -140h162v-70h-196l-76 -155h272v-70z" />
    <glyph glyph-name="lessequal" unicode="&#x2264;" horiz-adv-x="667" 
d="M602 0h-537v70h537v-70zM602 120l-537 190v61l537 219v-76l-440 -174l440 -144v-76z" />
    <glyph glyph-name="greaterequal" unicode="&#x2265;" horiz-adv-x="667" 
d="M603 310l-537 -190v76l440 144l-440 174v76l537 -219v-61zM603 0h-537v70h537v-70z" />
    <glyph glyph-name="lozenge" unicode="&#x25ca;" horiz-adv-x="601" 
d="M545 350c-74 -117 -148 -233 -221 -350h-49l-220 349l220 351h49c73 -117 147 -233 221 -350zM300 86l165 264l-165 263l-166 -263c55 -88 110 -176 166 -264z" />
    <glyph glyph-name="uni00A0" unicode="&#xa0;" horiz-adv-x="230" 
 />
    <glyph glyph-name="uni00AD" unicode="&#xad;" horiz-adv-x="374" 
d="M346 301l-18 -88h-300l18 88h300z" />
    <glyph glyph-name="uni02C9" unicode="&#x2c9;" horiz-adv-x="500" 
d="M408 712l-14 -67h-301l14 67h301z" />
    <glyph glyph-name="h.superior" unicode="&#xf700;" horiz-adv-x="437" 
d="M407 598c0 -7 -2 -27 -7 -52l-52 -253h-80l47 227c8 40 10 61 10 67c0 23 -19 30 -42 30c-47 0 -98 -27 -137 -54l-55 -270h-80l110 540h80l-40 -197c41 31 93 53 140 53c60 0 106 -25 106 -91z" />
    <glyph glyph-name="zero.fitted" unicode="&#xe097;" horiz-adv-x="603" 
d="M262 -15c-141 0 -220 79 -220 217c0 131 72 390 165 475c42 38 91 65 176 65c139 0 219 -78 219 -216c0 -134 -72 -389 -164 -475c-42 -39 -93 -66 -176 -66zM378 668c-49 0 -84 -18 -113 -49c-68 -73 -129 -306 -129 -414c0 -87 38 -146 130 -146c48 0 83 17 113 49
c67 70 129 306 129 414c0 88 -37 146 -130 146z" />
    <glyph glyph-name="one.fitted" unicode="&#xf6dc;" horiz-adv-x="441" 
d="M361 66l-14 -66h-337l14 66h136l109 536c-46 -25 -109 -48 -162 -57l14 67c82 24 152 66 208 130h53l-137 -676h116z" />
    <glyph glyph-name="two.fitted" unicode="&#xe098;" horiz-adv-x="557" 
d="M540 571c0 -121 -74 -220 -199 -325c-84 -71 -169 -136 -215 -167h334l-17 -79h-468l16 76c75 46 220 168 286 226c125 111 169 190 169 264c0 40 -24 99 -109 99c-69 0 -126 -31 -186 -94l-57 59c83 85 156 112 261 112c106 0 185 -64 185 -171z" />
    <glyph glyph-name="three.fitted" unicode="&#xe099;" horiz-adv-x="552" 
d="M550 727l-16 -79l-225 -218c107 -9 170 -83 170 -182c0 -175 -120 -263 -283 -263c-92 0 -172 31 -216 105l70 44c26 -48 85 -75 154 -75c113 0 181 73 181 186c0 86 -64 124 -148 124c-24 0 -47 -2 -71 -6l8 42l251 244h-310l16 78h419z" />
    <glyph glyph-name="four.fitted" unicode="&#xe09a;" horiz-adv-x="595" 
d="M546 742l-100 -497h86l-16 -74h-86l-38 -186h-85l38 186h-339l17 84l441 487h82zM431 598l-321 -353h251z" />
    <glyph glyph-name="five.fitted" unicode="&#xe09b;" horiz-adv-x="549" 
d="M550 727l-16 -78h-284l-64 -217c36 12 78 20 117 20c127 0 196 -85 196 -194c0 -167 -106 -272 -290 -272c-79 0 -171 22 -219 103l71 44c28 -54 95 -73 153 -73c113 0 191 75 191 194c0 86 -63 126 -146 126c-52 0 -101 -13 -143 -37h-37l114 384h357z" />
    <glyph glyph-name="six.fitted" unicode="&#xe09c;" horiz-adv-x="584" 
d="M597 668l-59 -59c-36 43 -74 59 -129 59c-125 0 -205 -153 -240 -266c44 34 108 61 167 61c119 0 205 -78 205 -200c0 -167 -105 -278 -270 -278c-188 0 -224 146 -224 261c0 179 134 496 366 496c75 0 132 -19 184 -74zM450 253c0 87 -49 133 -133 133
c-57 0 -116 -26 -165 -54c-10 -38 -14 -78 -14 -117c0 -87 44 -156 136 -156c114 0 176 84 176 194z" />
    <glyph glyph-name="seven.fitted" unicode="&#xe09d;" horiz-adv-x="514" 
d="M577 727l-17 -82l-410 -660h-100l422 664h-294l-21 -103h-79l37 181h462z" />
    <glyph glyph-name="eight.fitted" unicode="&#xe09e;" horiz-adv-x="578" 
d="M585 584c0 -111 -90 -162 -186 -201c73 -36 126 -94 126 -174c0 -158 -139 -224 -279 -224c-105 0 -229 48 -229 170c0 132 94 193 213 233c-64 34 -113 81 -113 152c0 143 131 202 257 202c97 0 211 -45 211 -158zM495 580c0 70 -75 94 -130 94
c-77 0 -158 -40 -158 -130c0 -58 72 -102 115 -122c70 25 173 67 173 158zM434 201c0 74 -71 121 -129 149c-83 -32 -198 -78 -198 -186c0 -80 81 -110 146 -110c88 0 181 44 181 147z" />
    <glyph glyph-name="nine.fitted" unicode="&#xe09f;" horiz-adv-x="584" 
d="M569 481c0 -186 -122 -496 -374 -496c-75 0 -141 22 -192 74l59 59c34 -38 80 -59 137 -59c140 0 215 153 250 266c-55 -38 -108 -61 -169 -61c-119 0 -205 78 -205 200c0 167 111 278 267 278c106 0 227 -57 227 -261zM478 512c0 87 -53 156 -141 156
c-105 0 -171 -84 -171 -194c0 -87 53 -133 133 -133c57 0 116 26 165 54c9 39 14 78 14 117z" />
    <glyph glyph-name="zero.taboldstyle" unicode="&#xe100;" horiz-adv-x="604" 
d="M568 376c0 -187 -88 -391 -310 -391c-142 0 -221 84 -221 215c0 179 84 391 309 391c146 0 222 -86 222 -215zM474 380c0 87 -47 137 -134 137c-160 0 -209 -185 -209 -321c0 -87 48 -137 134 -137c160 0 209 184 209 321z" />
    <glyph glyph-name="one.taboldstyle" unicode="&#xe101;" horiz-adv-x="604" 
d="M473 66l-14 -66h-337l14 66h136l78 385c-46 -25 -109 -48 -162 -57l14 67c82 24 152 66 208 130h53l-106 -525h116z" />
    <glyph glyph-name="two.taboldstyle" unicode="&#xe102;" horiz-adv-x="604" 
d="M571 442c0 -87 -66 -145 -131 -194c-80 -59 -160 -113 -251 -169h334l-17 -79h-468l16 76c75 46 148 95 220 145c134 91 203 148 203 216c0 29 -17 77 -108 77c-69 0 -127 -29 -178 -77l-56 59c64 65 143 95 245 95c104 0 191 -47 191 -149z" />
    <glyph glyph-name="three.taboldstyle" unicode="&#xe103;" horiz-adv-x="604" 
d="M589 576l-16 -79l-225 -218c107 -9 170 -83 170 -182c0 -175 -120 -263 -283 -263c-92 0 -172 31 -216 105l70 44c26 -48 85 -75 154 -75c113 0 181 73 181 186c0 86 -64 124 -148 124c-24 0 -47 -2 -71 -6l8 42l251 244h-310l16 78h419z" />
    <glyph glyph-name="four.taboldstyle" unicode="&#xe104;" horiz-adv-x="604" 
d="M574 591l-100 -497h86l-16 -74h-86l-38 -186h-85l38 186h-339l17 84l441 487h82zM459 447l-321 -353h251z" />
    <glyph glyph-name="five.taboldstyle" unicode="&#xe105;" horiz-adv-x="604" 
d="M586 576l-16 -78h-284l-64 -218c36 12 78 20 117 20c127 0 196 -85 196 -194c0 -167 -106 -272 -290 -272c-79 0 -171 22 -219 103l71 44c28 -54 95 -73 153 -73c113 0 191 75 191 194c0 86 -63 126 -146 126c-52 0 -101 -13 -143 -37h-37l114 385h357z" />
    <glyph glyph-name="six.taboldstyle" unicode="&#xe106;" horiz-adv-x="604" 
d="M588 668l-59 -59c-36 43 -74 59 -129 59c-125 0 -205 -153 -240 -266c44 34 108 61 167 61c119 0 205 -78 205 -200c0 -167 -105 -278 -270 -278c-188 0 -224 146 -224 261c0 179 134 496 366 496c75 0 132 -19 184 -74zM441 253c0 87 -49 133 -133 133
c-57 0 -116 -26 -165 -54c-10 -38 -14 -78 -14 -117c0 -87 44 -156 136 -156c114 0 176 84 176 194z" />
    <glyph glyph-name="seven.taboldstyle" unicode="&#xe107;" horiz-adv-x="604" 
d="M567 576l-17 -82l-410 -660h-100l422 664h-294l-21 -103h-79l37 181h462z" />
    <glyph glyph-name="eight.taboldstyle" unicode="&#xe108;" horiz-adv-x="604" 
d="M586 584c0 -111 -90 -162 -186 -201c73 -36 126 -94 126 -174c0 -158 -139 -224 -279 -224c-105 0 -229 48 -229 170c0 132 94 193 213 233c-64 34 -113 81 -113 152c0 143 131 202 257 202c97 0 211 -45 211 -158zM496 580c0 70 -75 94 -130 94
c-77 0 -158 -40 -158 -130c0 -58 72 -102 115 -122c70 25 173 67 173 158zM435 201c0 74 -71 121 -129 149c-83 -32 -198 -78 -198 -186c0 -80 81 -110 146 -110c88 0 181 44 181 147z" />
    <glyph glyph-name="nine.taboldstyle" unicode="&#xe109;" horiz-adv-x="604" 
d="M566 330c0 -186 -122 -496 -374 -496c-75 0 -141 22 -192 74l59 59c34 -38 80 -59 137 -59c140 0 215 153 250 266c-55 -38 -108 -61 -169 -61c-119 0 -205 78 -205 200c0 167 111 278 267 278c106 0 227 -57 227 -261zM475 361c0 87 -53 156 -141 156
c-105 0 -171 -84 -171 -194c0 -87 53 -133 133 -133c57 0 116 26 165 54c9 39 14 78 14 117z" />
    <glyph glyph-name="zero.denominator" unicode="&#xe10a;" 
d="M452 129c0 -142 -70 -296 -247 -296c-112 0 -175 63 -175 162c0 136 67 297 245 297c116 0 177 -66 177 -163zM367 125c0 61 -34 95 -97 95c-117 0 -151 -129 -151 -223c0 -60 34 -94 97 -94c116 0 151 127 151 222z" />
    <glyph glyph-name="one.denominator" unicode="&#xe10b;" 
d="M385 -94l-13 -63h-271l13 63h103l53 263c-35 -16 -77 -30 -122 -38l13 63c67 19 119 49 162 98h52l-78 -386h88z" />
    <glyph glyph-name="two.denominator" unicode="&#xe10c;" 
d="M461 180c0 -70 -52 -115 -108 -154s-113 -75 -172 -111h244l-15 -72h-371l14 67c62 37 130 79 192 123c69 48 128 93 128 137c0 28 -22 52 -81 52c-54 0 -91 -18 -129 -53l-50 50c56 54 113 73 193 73c81 0 155 -35 155 -112z" />
    <glyph glyph-name="three.denominator" unicode="&#xe10d;" 
d="M454 285l-11 -61l-135 -117c54 -4 105 -43 105 -110c0 -115 -98 -164 -196 -164c-58 0 -131 23 -166 81l63 38c19 -35 62 -55 102 -55c57 0 109 29 109 98c0 41 -35 63 -88 63c-21 0 -41 -2 -61 -6l8 32l157 134h-201l13 67h301z" />
    <glyph glyph-name="four.denominator" unicode="&#xe10e;" 
d="M423 3l-14 -65h-62l-21 -107h-75l22 107h-227l12 64l294 290h67l-58 -289h62zM321 176l-176 -173h141z" />
    <glyph glyph-name="five.denominator" unicode="&#xe10f;" 
d="M200 -167c-81 0 -139 26 -164 67l76 46c16 -26 44 -47 92 -47c56 0 127 23 127 96c0 47 -38 69 -93 69c-35 0 -69 -7 -104 -25h-44l84 246h279l-13 -68h-209l-37 -107c26 11 57 15 85 15c81 0 143 -39 143 -115c0 -116 -108 -177 -222 -177z" />
    <glyph glyph-name="six.denominator" unicode="&#xe110;" 
d="M410 13c0 -105 -84 -182 -203 -182c-102 0 -156 62 -156 152c0 130 88 309 259 309c58 0 96 -12 134 -45l-59 -55c-30 27 -54 34 -88 34c-68 0 -113 -53 -138 -126c34 18 77 30 116 30c84 0 135 -44 135 -117zM216 -103c58 0 108 45 108 110c0 45 -30 58 -77 58
c-31 0 -68 -10 -97 -22c-9 -28 -10 -48 -10 -60c0 -53 26 -86 76 -86z" />
    <glyph glyph-name="seven.denominator" unicode="&#xe111;" 
d="M162 -167h-98l276 384h-173l-12 -58h-80l25 126h348l-12 -61z" />
    <glyph glyph-name="eight.denominator" unicode="&#xe112;" 
d="M205 -169c-106 0 -172 34 -172 107c0 70 54 112 131 137c-38 18 -75 45 -75 88c0 98 113 129 188 129c103 0 164 -34 164 -97c0 -59 -54 -96 -115 -121c44 -17 86 -44 86 -98c0 -100 -108 -145 -207 -145zM275 231c-44 0 -102 -12 -102 -64c0 -17 12 -42 79 -66
c34 8 102 37 102 82c0 27 -19 48 -79 48zM238 48c-40 -12 -116 -38 -116 -97c0 -30 24 -56 89 -56c44 0 113 15 113 75c0 34 -36 58 -86 78z" />
    <glyph glyph-name="nine.denominator" unicode="&#xe113;" 
d="M85 110c0 105 84 182 203 182c102 0 156 -62 156 -152c0 -130 -88 -309 -259 -309c-58 0 -96 12 -134 45l59 55c30 -27 54 -34 88 -34c68 0 113 53 138 126c-34 -18 -77 -30 -116 -30c-84 0 -135 44 -135 117zM279 226c-58 0 -108 -45 -108 -110c0 -45 30 -58 77 -58
c31 0 68 10 97 22c9 28 10 48 10 60c0 53 -26 86 -76 86z" />
    <glyph glyph-name="zero.numerator" unicode="&#xe11e;" 
d="M452 579c0 -142 -70 -296 -247 -296c-112 0 -175 63 -175 162c0 136 67 297 245 297c116 0 177 -66 177 -163zM367 575c0 61 -34 95 -97 95c-117 0 -151 -129 -151 -223c0 -60 34 -94 97 -94c116 0 151 127 151 222z" />
    <glyph glyph-name="one.numerator" unicode="&#xe11f;" 
d="M385 356l-13 -63h-271l13 63h103l53 263c-35 -16 -77 -30 -122 -38l13 63c67 19 119 49 162 98h52l-78 -386h88z" />
    <glyph glyph-name="two.numerator" unicode="&#xe120;" 
d="M470 630c0 -70 -52 -115 -108 -154s-113 -75 -172 -111h244l-15 -72h-371l14 67c62 37 130 79 192 123c69 48 128 93 128 137c0 28 -22 52 -81 52c-54 0 -91 -18 -129 -53l-50 50c56 54 113 73 193 73c81 0 155 -35 155 -112z" />
    <glyph glyph-name="three.numerator" unicode="&#xe121;" 
d="M454 733l-11 -61l-135 -117c54 -4 105 -43 105 -110c0 -115 -98 -164 -196 -164c-58 0 -131 23 -166 81l63 38c19 -35 62 -55 102 -55c57 0 109 29 109 98c0 41 -35 63 -88 63c-21 0 -41 -2 -61 -6l8 32l157 134h-201l13 67h301z" />
    <glyph glyph-name="four.numerator" unicode="&#xe122;" 
d="M423 453l-14 -65h-62l-21 -107h-75l22 107h-227l12 64l294 290h67l-58 -289h62zM321 626l-176 -173h141z" />
    <glyph glyph-name="five.numerator" unicode="&#xe123;" 
d="M200 281c-81 0 -139 26 -164 67l76 46c16 -26 44 -47 92 -47c56 0 127 23 127 96c0 47 -38 69 -93 69c-35 0 -69 -7 -104 -25h-44l84 246h279l-13 -68h-209l-37 -107c26 11 57 15 85 15c81 0 143 -39 143 -115c0 -116 -108 -177 -222 -177z" />
    <glyph glyph-name="six.numerator" unicode="&#xe124;" 
d="M410 463c0 -105 -84 -182 -203 -182c-102 0 -156 62 -156 152c0 130 88 309 259 309c58 0 96 -12 134 -45l-59 -55c-30 27 -54 34 -88 34c-68 0 -113 -53 -138 -126c34 18 77 30 116 30c84 0 135 -44 135 -117zM216 347c58 0 108 45 108 110c0 45 -30 58 -77 58
c-31 0 -68 -10 -97 -22c-9 -28 -10 -48 -10 -60c0 -53 26 -86 76 -86z" />
    <glyph glyph-name="seven.numerator" unicode="&#xe125;" 
d="M162 281h-98l276 384h-173l-12 -58h-80l25 126h348l-12 -61z" />
    <glyph glyph-name="eight.numerator" unicode="&#xe126;" 
d="M205 281c-106 0 -172 34 -172 107c0 70 54 112 131 137c-38 18 -75 45 -75 88c0 98 113 129 188 129c103 0 164 -34 164 -97c0 -59 -54 -96 -115 -121c44 -17 86 -44 86 -98c0 -100 -108 -145 -207 -145zM275 681c-44 0 -102 -12 -102 -64c0 -17 12 -42 79 -66
c34 8 102 37 102 82c0 27 -19 48 -79 48zM238 498c-40 -12 -116 -38 -116 -97c0 -30 24 -56 89 -56c44 0 113 15 113 75c0 34 -36 58 -86 78z" />
    <glyph glyph-name="nine.numerator" unicode="&#xe127;" 
d="M85 560c0 105 84 182 203 182c102 0 156 -62 156 -152c0 -130 -88 -309 -259 -309c-58 0 -96 12 -134 45l59 55c30 -27 54 -34 88 -34c68 0 113 53 138 126c-34 -18 -77 -30 -116 -30c-84 0 -135 44 -135 117zM279 676c-58 0 -108 -45 -108 -110c0 -45 30 -58 77 -58
c31 0 68 10 97 22c9 28 10 48 10 60c0 53 -26 86 -76 86z" />
    <glyph glyph-name="I.alt" horiz-adv-x="244" 
d="M259 727l-148 -727h-88l148 727h88z" />
    <glyph glyph-name="J.alt" horiz-adv-x="295" 
d="M312 727l-147 -722c-27 -132 -82 -198 -223 -198c-38 0 -94 11 -117 22l31 76c22 -10 66 -22 96 -22c86 0 111 47 133 159l136 685h91z" />
    <glyph glyph-name="g.alt" horiz-adv-x="547" 
d="M529 512l-101 -500c-30 -150 -94 -205 -251 -205c-56 0 -128 9 -178 31l29 70c44 -21 98 -32 161 -32c79 0 132 25 153 131l16 80c-46 -49 -100 -87 -158 -87c-122 0 -168 86 -168 200c0 165 98 327 287 327c54 0 98 -15 122 -24c37 7 56 9 88 9zM379 190l50 242
c-24 11 -75 24 -119 24c-134 0 -190 -152 -190 -255c0 -70 19 -130 98 -130c63 0 124 65 161 119z" />
    <glyph glyph-name="i.alt" horiz-adv-x="220" 
d="M238 670c0 -43 -22 -63 -67 -63c-33 0 -49 11 -49 41c0 42 21 62 67 62c34 0 49 -12 49 -40zM119 512h85l-105 -512h-85z" />
    <glyph glyph-name="j.alt" horiz-adv-x="246" 
d="M263 670c0 -43 -22 -62 -67 -62c-33 0 -49 10 -49 40c0 42 21 62 67 62c34 0 49 -12 49 -40zM145 512h85l-109 -538c-22 -110 -64 -167 -183 -167c-33 0 -66 4 -98 13l24 68c26 -8 53 -12 80 -12c57 0 82 48 95 112z" />
    <glyph glyph-name="l.alt" horiz-adv-x="220" 
d="M253 755l-153 -755h-85l144 710z" />
    <glyph glyph-name="Iacute.alt" horiz-adv-x="244" 
d="M259 727l-148 -727h-88l148 727h88zM449 956l-191 -176h-81l147 176h125z" />
    <glyph glyph-name="Icircumflex.alt" horiz-adv-x="244" 
d="M259 727l-148 -727h-88l148 727h88zM401 780h-73l-66 113l-112 -113h-81l150 176h105z" />
    <glyph glyph-name="Idieresis.alt" horiz-adv-x="244" 
d="M259 727l-148 -727h-88l148 727h88zM388 841c0 -43 -22 -63 -67 -63c-33 0 -49 11 -49 41c0 42 21 62 67 62c34 0 49 -12 49 -40zM195 841c0 -43 -22 -63 -67 -63c-33 0 -49 11 -49 41c0 42 21 62 67 62c34 0 49 -12 49 -40z" />
    <glyph glyph-name="Igrave.alt" horiz-adv-x="244" 
d="M259 727l-148 -727h-88l148 727h88zM256 780h-66l-119 176h110z" />
    <glyph glyph-name="dotlessi.alt" horiz-adv-x="220" 
d="M119 512h85l-105 -512h-85z" />
    <glyph glyph-name="iacute.alt" horiz-adv-x="220" 
d="M119 512h85l-105 -512h-85zM411 766l-191 -176h-81l147 176h125z" />
    <glyph glyph-name="icircumflex.alt" horiz-adv-x="220" 
d="M119 512h85l-105 -512h-85zM349 590h-73l-66 113l-112 -113h-81l150 176h105z" />
    <glyph glyph-name="idieresis.alt" horiz-adv-x="220" 
d="M119 512h85l-105 -512h-85zM344 670c0 -43 -22 -63 -67 -63c-33 0 -49 11 -49 41c0 42 21 62 67 62c34 0 49 -12 49 -40zM151 670c0 -43 -22 -63 -67 -63c-33 0 -49 11 -49 41c0 42 21 62 67 62c34 0 49 -12 49 -40z" />
    <glyph glyph-name="igrave.alt" horiz-adv-x="220" 
d="M119 512h85l-105 -512h-85zM198 590h-66l-119 176h110z" />
    <glyph glyph-name="lslash.alt" horiz-adv-x="220" 
d="M253 755l-63 -312l97 71l-17 -83l-97 -71l-73 -360h-85l58 287l-89 -65l17 83l89 65l69 340z" />
    <glyph glyph-name="f_l.alt" horiz-adv-x="522" 
d="M555 755l-153 -755h-84l129 642c-34 19 -76 31 -105 31c-75 0 -88 -46 -100 -109l-10 -52h114l-15 -66h-114l-96 -469c-22 -106 -60 -170 -183 -170c-33 0 -67 4 -98 13l24 68c23 -7 51 -12 78 -12c65 0 87 58 97 108l93 462h-78l15 66h78l8 40c22 110 47 190 195 190
c50 0 93 -14 122 -27z" />
    <glyph glyph-name="zero.tab" horiz-adv-x="604" 
d="M242 -15c-141 0 -220 79 -220 217c0 131 72 390 165 475c42 38 91 65 176 65c139 0 219 -78 219 -216c0 -134 -72 -389 -164 -475c-42 -39 -93 -66 -176 -66zM358 668c-49 0 -84 -18 -113 -49c-68 -73 -129 -306 -129 -414c0 -87 38 -146 130 -146c48 0 83 17 113 49
c67 70 129 306 129 414c0 88 -37 146 -130 146z" />
    <glyph glyph-name="one.tab" horiz-adv-x="604" 
d="M461 66l-14 -66h-337l14 66h136l109 536c-46 -25 -109 -48 -162 -57l14 67c82 24 152 66 208 130h53l-137 -676h116z" />
    <glyph glyph-name="two.tab" horiz-adv-x="604" 
d="M585 571c0 -121 -74 -220 -199 -325c-84 -71 -169 -136 -215 -167h334l-17 -79h-468l16 76c75 46 220 168 286 226c125 111 169 190 169 264c0 40 -24 99 -109 99c-69 0 -126 -31 -186 -94l-57 59c83 85 156 112 261 112c106 0 185 -64 185 -171z" />
    <glyph glyph-name="three.tab" horiz-adv-x="604" 
d="M585 727l-16 -79l-225 -218c107 -9 170 -83 170 -182c0 -175 -120 -263 -283 -263c-92 0 -172 31 -216 105l70 44c26 -48 85 -75 154 -75c113 0 181 73 181 186c0 86 -64 124 -148 124c-24 0 -47 -2 -71 -6l8 42l251 244h-310l16 78h419z" />
    <glyph glyph-name="four.tab" horiz-adv-x="604" 
d="M571 742l-100 -497h86l-16 -74h-86l-38 -186h-85l38 186h-339l17 84l441 487h82zM456 598l-321 -353h251z" />
    <glyph glyph-name="five.tab" horiz-adv-x="604" 
d="M580 727l-16 -78h-284l-64 -217c36 12 78 20 117 20c127 0 196 -85 196 -194c0 -167 -106 -272 -290 -272c-79 0 -171 22 -219 103l71 44c28 -54 95 -73 153 -73c113 0 191 75 191 194c0 86 -63 126 -146 126c-52 0 -101 -13 -143 -37h-37l114 384h357z" />
    <glyph glyph-name="seven.tab" horiz-adv-x="604" 
d="M577 727l-17 -82l-410 -660h-100l422 664h-294l-21 -103h-79l37 181h462z" />
    <glyph glyph-name="six.tab" horiz-adv-x="604" 
d="M587 668l-59 -59c-36 43 -74 59 -129 59c-125 0 -205 -153 -240 -266c44 34 108 61 167 61c119 0 205 -78 205 -200c0 -167 -105 -278 -270 -278c-188 0 -224 146 -224 261c0 179 134 496 366 496c75 0 132 -19 184 -74zM440 253c0 87 -49 133 -133 133
c-57 0 -116 -26 -165 -54c-10 -38 -14 -78 -14 -117c0 -87 44 -156 136 -156c114 0 176 84 176 194z" />
    <glyph glyph-name="eight.tab" horiz-adv-x="604" 
d="M586 584c0 -111 -90 -162 -186 -201c73 -36 126 -94 126 -174c0 -158 -139 -224 -279 -224c-105 0 -229 48 -229 170c0 132 94 193 213 233c-64 34 -113 81 -113 152c0 143 131 202 257 202c97 0 211 -45 211 -158zM496 580c0 70 -75 94 -130 94
c-77 0 -158 -40 -158 -130c0 -58 72 -102 115 -122c70 25 173 67 173 158zM435 201c0 74 -71 121 -129 149c-83 -32 -198 -78 -198 -186c0 -80 81 -110 146 -110c88 0 181 44 181 147z" />
    <glyph glyph-name="nine.tab" horiz-adv-x="604" 
d="M574 481c0 -186 -122 -496 -374 -496c-75 0 -141 22 -192 74l59 59c34 -38 80 -59 137 -59c140 0 215 153 250 266c-55 -38 -108 -61 -169 -61c-119 0 -205 78 -205 200c0 167 111 278 267 278c106 0 227 -57 227 -261zM483 512c0 87 -53 156 -141 156
c-105 0 -171 -84 -171 -194c0 -87 53 -133 133 -133c57 0 116 26 165 54c9 39 14 78 14 117z" />
    <glyph glyph-name="uni2215" unicode="&#x2215;" horiz-adv-x="120" 
d="M385 727l-570 -878h-79l570 878h79z" />
    <glyph glyph-name="i.dot" horiz-adv-x="282" 
d="M280 670c0 -43 -22 -63 -67 -63c-33 0 -49 11 -49 41c0 42 21 62 67 62c34 0 49 -12 49 -40zM245 471c0 -12 -5 -41 -16 -94l-77 -377h-85l76 372c3 14 12 55 12 61c0 8 -4 11 -11 11c-18 0 -44 -12 -66 -27l-32 49c33 28 91 61 140 61c18 0 59 -5 59 -56z" />
    <glyph glyph-name="Itilde.alt" horiz-adv-x="244" 
d="M259 727l-148 -727h-88l148 727h88zM437 914c-16 -71 -56 -134 -141 -134c-76 0 -83 71 -134 71c-37 0 -53 -40 -61 -71h-59c17 75 64 134 140 134c77 0 84 -71 135 -71c37 0 53 41 61 71h59z" />
    <glyph glyph-name="Imacron.alt" horiz-adv-x="244" 
d="M259 727l-148 -727h-88l148 727h88zM388 847l-14 -67h-301l14 67h301z" />
    <glyph glyph-name="Ibreve.alt" horiz-adv-x="244" 
d="M259 727l-148 -727h-88l148 727h88zM398 918c-20 -40 -78 -138 -190 -138c-105 0 -123 92 -130 138h62c11 -44 36 -61 79 -61c48 0 86 21 117 61h62z" />
    <glyph glyph-name="Iogonek.alt" horiz-adv-x="244" 
d="M206 -159c-39 -20 -83 -34 -127 -34c-52 0 -93 24 -93 80c0 39 18 80 39 113h-2l148 727h88l-148 -727h-16c-16 -27 -31 -60 -31 -86s17 -39 48 -39c27 0 51 7 76 18z" />
    <glyph glyph-name="Idotaccent.alt" horiz-adv-x="244" 
d="M259 727l-148 -727h-88l148 727h88zM296 849c0 -47 -24 -69 -74 -69c-36 0 -54 12 -54 45c0 47 24 68 74 68c38 0 54 -13 54 -44z" />
    <glyph glyph-name="IJ.alt" horiz-adv-x="590" 
d="M259 727l-148 -727h-88l148 727h88zM607 727l-147 -722c-27 -132 -82 -198 -223 -198c-38 0 -94 11 -117 22l31 76c22 -10 66 -22 96 -22c86 0 111 47 133 159l136 685h91z" />
    <glyph glyph-name="Jcircumflex.alt" horiz-adv-x="295" 
d="M312 727l-147 -722c-27 -132 -82 -198 -223 -198c-38 0 -94 11 -117 22l31 76c22 -10 66 -22 96 -22c86 0 111 47 133 159l136 685h91zM434 780h-73l-66 113l-112 -113h-81l150 176h105z" />
    <glyph glyph-name="gcircumflex.alt" horiz-adv-x="547" 
d="M529 512l-101 -500c-30 -150 -94 -205 -251 -205c-56 0 -128 9 -178 31l29 70c44 -21 98 -32 161 -32c79 0 132 25 153 131l16 80c-46 -49 -100 -87 -158 -87c-122 0 -168 86 -168 200c0 165 98 327 287 327c54 0 98 -15 122 -24c37 7 56 9 88 9zM379 190l50 242
c-24 11 -75 24 -119 24c-134 0 -190 -152 -190 -255c0 -70 19 -130 98 -130c63 0 124 65 161 119zM511 590h-73l-66 113l-112 -113h-81l150 176h105z" />
    <glyph glyph-name="gbreve.alt" horiz-adv-x="547" 
d="M529 512l-101 -500c-30 -150 -94 -205 -251 -205c-56 0 -128 9 -178 31l29 70c44 -21 98 -32 161 -32c79 0 132 25 153 131l16 80c-46 -49 -100 -87 -158 -87c-122 0 -168 86 -168 200c0 165 98 327 287 327c54 0 98 -15 122 -24c37 7 56 9 88 9zM379 190l50 242
c-24 11 -75 24 -119 24c-134 0 -190 -152 -190 -255c0 -70 19 -130 98 -130c63 0 124 65 161 119zM516 747c-20 -40 -78 -138 -190 -138c-105 0 -123 92 -130 138h62c11 -44 36 -61 79 -61c48 0 86 21 117 61h62z" />
    <glyph glyph-name="gcommaaccent.alt" horiz-adv-x="547" 
d="M529 512l-101 -500c-30 -150 -94 -205 -251 -205c-56 0 -128 9 -178 31l29 70c44 -21 98 -32 161 -32c79 0 132 25 153 131l16 80c-46 -49 -100 -87 -158 -87c-122 0 -168 86 -168 200c0 165 98 327 287 327c54 0 98 -15 122 -24c37 7 56 9 88 9zM379 190l50 242
c-24 11 -75 24 -119 24c-134 0 -190 -152 -190 -255c0 -70 19 -130 98 -130c63 0 124 65 161 119zM355 759h56c-20 -19 -41 -49 -46 -72c27 -1 40 -17 40 -39c0 -38 -20 -59 -64 -59c-34 0 -49 20 -49 47c0 46 30 88 63 123z" />
    <glyph glyph-name="itilde.alt" horiz-adv-x="220" 
d="M119 512h85l-105 -512h-85zM387 745c-16 -71 -56 -134 -141 -134c-76 0 -83 71 -134 71c-37 0 -53 -40 -61 -71h-59c17 75 64 134 140 134c77 0 84 -71 135 -71c37 0 53 41 61 71h59z" />
    <glyph glyph-name="gdotaccent.alt" horiz-adv-x="547" 
d="M529 512l-101 -500c-30 -150 -94 -205 -251 -205c-56 0 -128 9 -178 31l29 70c44 -21 98 -32 161 -32c79 0 132 25 153 131l16 80c-46 -49 -100 -87 -158 -87c-122 0 -168 86 -168 200c0 165 98 327 287 327c54 0 98 -15 122 -24c37 7 56 9 88 9zM379 190l50 242
c-24 11 -75 24 -119 24c-134 0 -190 -152 -190 -255c0 -70 19 -130 98 -130c63 0 124 65 161 119zM409 671c0 -47 -24 -69 -74 -69c-36 0 -54 12 -54 45c0 47 24 68 74 68c38 0 54 -13 54 -44z" />
    <glyph glyph-name="imacron.alt" horiz-adv-x="220" 
d="M119 512h85l-105 -512h-85zM353 712l-14 -67h-301l14 67h301z" />
    <glyph glyph-name="ibreve.alt" horiz-adv-x="220" 
d="M119 512h85l-105 -512h-85zM356 747c-20 -40 -78 -138 -190 -138c-105 0 -123 92 -130 138h62c11 -44 36 -61 79 -61c48 0 86 21 117 61h62z" />
    <glyph glyph-name="iogonek.alt" horiz-adv-x="220" 
d="M119 512h85l-105 -512h-18c-16 -27 -31 -60 -31 -86s17 -39 48 -39c27 0 51 7 76 18l18 -52c-39 -20 -83 -34 -127 -34c-52 0 -93 24 -93 80c0 42 21 85 43 119zM238 670c0 -43 -22 -63 -67 -63c-33 0 -49 11 -49 41c0 42 21 62 67 62c34 0 49 -12 49 -40z" />
    <glyph glyph-name="ij.alt" horiz-adv-x="486" 
d="M238 670c0 -43 -22 -63 -67 -63c-33 0 -49 11 -49 41c0 42 21 62 67 62c34 0 49 -12 49 -40zM119 512h85l-105 -512h-85zM503 670c0 -43 -22 -62 -67 -62c-33 0 -49 10 -49 40c0 42 21 62 67 62c34 0 49 -12 49 -40zM385 512h85l-109 -538c-22 -110 -64 -167 -183 -167
c-33 0 -66 4 -98 13l24 68c26 -8 53 -12 80 -12c57 0 82 48 95 112z" />
    <glyph glyph-name="jcircumflex.alt" horiz-adv-x="246" 
d="M145 512h85l-109 -538c-22 -110 -64 -167 -183 -167c-33 0 -66 4 -98 13l24 68c26 -8 53 -12 80 -12c57 0 82 48 95 112zM372 590h-73l-66 113l-112 -113h-81l150 176h105z" />
    <glyph glyph-name="lacute.alt" horiz-adv-x="220" 
d="M253 755l-153 -755h-85l144 710zM432 955l-191 -176h-81l147 176h125z" />
    <glyph glyph-name="f_f_l.alt" horiz-adv-x="803" 
d="M450 724l-32 -69c-21 10 -52 18 -76 18c-75 0 -88 -46 -100 -109l-10 -52h196l8 40c22 110 47 190 195 190c50 0 93 -14 122 -27l83 40l-154 -755h-84l130 642c-34 19 -76 31 -105 31c-75 0 -88 -46 -100 -109l-10 -52h114l-15 -66h-114l-96 -469
c-22 -106 -60 -170 -183 -170c-33 0 -67 4 -98 13l24 68c23 -7 51 -12 78 -12c65 0 87 58 97 108l93 462h-196l-96 -469c-22 -106 -60 -170 -183 -170c-33 0 -67 4 -98 13l24 68c23 -7 51 -12 78 -12c65 0 87 58 97 108l93 462h-78l15 66h78l8 40c22 110 47 190 195 190
c33 0 70 -6 100 -18z" />
    <glyph glyph-name="lcommaaccent.alt" horiz-adv-x="220" 
d="M253 755l-153 -755h-85l144 710zM43 -193h-56c20 19 41 49 46 72c-27 1 -40 17 -40 39c0 38 20 59 64 59c34 0 49 -20 49 -47c0 -46 -30 -88 -63 -123z" />
    <glyph glyph-name="lcaron.alt" horiz-adv-x="290" 
d="M253 755l-153 -755h-85l144 710zM399 669c0 -71 -61 -158 -106 -210h-52c27 33 81 110 81 154c-26 0 -48 15 -48 44c0 49 23 70 72 70c32 0 53 -17 53 -58z" />
    <glyph glyph-name="ldot.alt" horiz-adv-x="315" 
d="M253 755l-153 -755h-85l144 710zM342 334c0 -47 -23 -70 -73 -70c-31 0 -52 13 -52 45c0 47 23 71 72 71c32 0 53 -14 53 -46z" />
    <glyph glyph-name="uni0162" unicode="&#x162;" horiz-adv-x="504" 
d="M621 727l-17 -78h-231l-131 -649h-88l131 649h-231l17 78h550zM175 -193h-56c20 19 41 49 46 72c-27 1 -40 17 -40 39c0 38 20 59 64 59c34 0 49 -20 49 -47c0 -46 -30 -88 -63 -123z" />
    <glyph glyph-name="uni021A" unicode="&#x21a;" horiz-adv-x="504" 
d="M621 727l-17 -78h-231l-131 -649h-88l131 649h-231l17 78h550zM175 -193h-56c20 19 41 49 46 72c-27 1 -40 17 -40 39c0 38 20 59 64 59c34 0 49 -20 49 -47c0 -46 -30 -88 -63 -123z" />
    <glyph glyph-name="uni0163" unicode="&#x163;" horiz-adv-x="323" 
d="M335 512l-15 -66h-115l-55 -276c-4 -21 -10 -50 -10 -64c0 -41 19 -55 59 -55c25 0 50 5 74 14l13 -65c-35 -10 -72 -15 -108 -15c-83 0 -124 26 -124 107c0 12 4 41 8 62l59 292h-77l15 66h76l29 143l95 45l-39 -188h115zM158 -193h-56c20 19 41 49 46 72
c-27 1 -40 17 -40 39c0 38 20 59 64 59c34 0 49 -20 49 -47c0 -46 -30 -88 -63 -123z" />
    <glyph glyph-name="uni021B" unicode="&#x21b;" horiz-adv-x="323" 
d="M335 512l-15 -66h-115l-55 -276c-4 -21 -10 -50 -10 -64c0 -41 19 -55 59 -55c25 0 50 5 74 14l13 -65c-35 -10 -72 -15 -108 -15c-83 0 -124 26 -124 107c0 12 4 41 8 62l59 292h-77l15 66h76l29 143l95 45l-39 -188h115zM158 -193h-56c20 19 41 49 46 72
c-27 1 -40 17 -40 39c0 38 20 59 64 59c34 0 49 -20 49 -47c0 -46 -30 -88 -63 -123z" />
    <glyph glyph-name="onesuperior" unicode="&#xb9;" 
d="M385 356l-13 -63h-271l13 63h103l53 263c-35 -16 -77 -30 -122 -38l13 63c67 19 119 49 162 98h52l-78 -386h88z" />
    <glyph glyph-name="twosuperior" unicode="&#xb2;" 
d="M470 630c0 -70 -52 -115 -108 -154s-113 -75 -172 -111h244l-15 -72h-371l14 67c62 37 130 79 192 123c69 48 128 93 128 137c0 28 -22 52 -81 52c-54 0 -91 -18 -129 -53l-50 50c56 54 113 73 193 73c81 0 155 -35 155 -112z" />
    <glyph glyph-name="threesuperior" unicode="&#xb3;" 
d="M454 733l-11 -61l-135 -117c54 -4 105 -43 105 -110c0 -115 -98 -164 -196 -164c-58 0 -131 23 -166 81l63 38c19 -35 62 -55 102 -55c57 0 109 29 109 98c0 41 -35 63 -88 63c-21 0 -41 -2 -61 -6l8 32l157 134h-201l13 67h301z" />
    <glyph glyph-name="dollar.alt" horiz-adv-x="600" 
d="M637 597l-76 -43c-24 51 -63 79 -106 91l-44 -230c84 -29 170 -74 170 -179c0 -157 -116 -219 -250 -224l-26 -136h-69l28 139c-80 12 -151 53 -181 137c26 14 49 28 75 43c22 -64 64 -93 121 -103l49 258c-81 28 -159 71 -159 172c0 147 122 205 233 206l19 86h68
l-19 -91c70 -15 133 -55 167 -126zM388 649c-73 -1 -134 -39 -134 -119c0 -52 51 -76 91 -93zM493 221c0 61 -47 90 -98 109l-48 -240c74 1 146 38 146 131z" />
    <glyph glyph-name="percent.alt" horiz-adv-x="1036" 
d="M461 591c0 -130 -64 -271 -226 -271c-104 0 -162 58 -162 149c0 125 62 273 225 273c107 0 163 -61 163 -151zM378 587c-1 54 -30 84 -84 84c-102 0 -133 -116 -133 -200c0 -57 30 -82 84 -82c102 0 132 114 133 198zM939 261c0 -130 -64 -271 -226 -271
c-104 0 -162 58 -162 149c0 125 62 273 225 273c107 0 163 -61 163 -151zM856 257c-1 54 -30 84 -84 84c-102 0 -133 -116 -133 -200c0 -57 30 -82 84 -82c102 0 132 114 133 198zM851 727l-604 -727h-88l604 727h88z" />
    <glyph glyph-name="perthousand.alt" horiz-adv-x="1445" 
d="M461 591c0 -130 -64 -271 -226 -271c-104 0 -162 58 -162 149c0 125 62 273 225 273c107 0 163 -61 163 -151zM378 587c-1 54 -30 84 -84 84c-102 0 -133 -116 -133 -200c0 -57 30 -82 84 -82c102 0 132 114 133 198zM939 261c0 -130 -64 -271 -226 -271
c-104 0 -162 58 -162 149c0 125 62 273 225 273c107 0 163 -61 163 -151zM856 257c-1 54 -30 84 -84 84c-102 0 -133 -116 -133 -200c0 -57 30 -82 84 -82c102 0 132 114 133 198zM851 727l-604 -727h-88l604 727h88zM1381 261c0 -130 -64 -271 -226 -271
c-104 0 -162 58 -162 149c0 125 62 273 225 273c107 0 163 -61 163 -151zM1298 257c-1 54 -30 84 -84 84c-102 0 -133 -116 -133 -200c0 -57 30 -82 84 -82c102 0 132 114 133 198z" />
    <glyph glyph-name="onequarter.alt" horiz-adv-x="1036" 
d="M357 392l-13 -63h-253l13 63h93l47 230c-31 -14 -69 -26 -110 -33l13 63c62 18 109 45 147 90h54l-71 -350h80zM880 727l-604 -727h-88l604 727h88zM909 151l-13 -65h-56l-20 -97h-75l20 97h-205l11 62l268 265h66l-52 -262h56zM807 294l-145 -143h116z" />
    <glyph glyph-name="onehalf.alt" horiz-adv-x="1036" 
d="M357 392l-13 -63h-253l13 63h93l47 230c-31 -14 -69 -26 -110 -33l13 63c62 18 109 45 147 90h54l-71 -350h80zM992 308c0 -64 -48 -106 -99 -142c-51 -35 -94 -62 -147 -95h214l-15 -71h-342l14 65c55 33 117 72 174 112c61 43 113 83 113 122c0 24 -18 44 -68 44
c-48 0 -81 -17 -116 -49l-51 50c53 51 106 69 179 69c75 0 144 -33 144 -105zM880 727l-604 -727h-88l604 727h88z" />
    <glyph glyph-name="threequarters.alt" horiz-adv-x="1036" 
d="M880 727l-604 -727h-88l604 727h88zM909 151l-13 -65h-56l-20 -97h-75l20 97h-205l11 62l268 265h66l-52 -262h56zM807 294l-145 -143h116zM420 736l-12 -60l-117 -103c47 -6 91 -42 91 -102c0 -106 -91 -151 -181 -151c-54 0 -122 22 -155 77l63 38
c18 -33 56 -51 91 -51c49 0 95 25 95 86c0 35 -31 54 -76 54c-19 0 -38 -2 -60 -7l8 35l137 117h-177l13 67h280z" />
    <glyph glyph-name="onethird.alt" horiz-adv-x="1036" 
d="M357 392l-13 -63h-253l13 63h93l47 230c-31 -14 -69 -26 -110 -33l13 63c62 18 109 45 147 90h54l-71 -350h80zM880 727l-604 -727h-88l604 727h88zM973 406l-12 -60l-117 -103c47 -6 91 -42 91 -102c0 -106 -91 -151 -181 -151c-54 0 -122 22 -155 77l63 38
c18 -33 56 -51 91 -51c49 0 95 25 95 86c0 35 -31 54 -76 54c-19 0 -38 -2 -60 -7l8 35l137 117h-177l13 67h280z" />
    <glyph glyph-name="twothirds.alt" horiz-adv-x="1036" 
d="M880 727l-604 -727h-88l604 727h88zM973 406l-12 -60l-117 -103c47 -6 91 -42 91 -102c0 -106 -91 -151 -181 -151c-54 0 -122 22 -155 77l63 38c18 -33 56 -51 91 -51c49 0 95 25 95 86c0 35 -31 54 -76 54c-19 0 -38 -2 -60 -7l8 35l137 117h-177l13 67h280zM432 637
c0 -64 -48 -106 -99 -142c-51 -35 -94 -62 -147 -95h214l-15 -71h-342l14 65c55 33 117 72 174 112c61 43 113 83 113 122c0 24 -18 44 -68 44c-48 0 -81 -17 -116 -49l-51 50c53 51 106 69 179 69c75 0 144 -33 144 -105z" />
    <glyph glyph-name="oneeighth.alt" horiz-adv-x="1036" 
d="M357 392l-13 -63h-253l13 63h93l47 230c-31 -14 -69 -26 -110 -33l13 63c62 18 109 45 147 90h54l-71 -350h80zM880 727l-604 -727h-88l604 727h88zM771 -11c-98 0 -159 32 -159 100c0 62 47 101 114 124c-33 17 -64 42 -64 80c1 91 105 120 174 120
c95 0 152 -32 152 -91c0 -53 -46 -87 -100 -110c39 -16 74 -41 74 -89c0 -92 -100 -134 -191 -134zM875 118c-1 29 -32 50 -74 67c-36 -11 -101 -33 -102 -84c0 -26 21 -48 77 -48c38 0 99 13 99 65zM835 352c-38 0 -88 -11 -89 -56c0 -14 10 -35 68 -56c29 7 87 33 88 71
c0 23 -16 41 -67 41z" />
    <glyph glyph-name="threeeighths.alt" horiz-adv-x="1036" 
d="M880 727l-604 -727h-88l604 727h88zM771 -11c-98 0 -159 32 -159 100c0 62 47 101 114 124c-33 17 -64 42 -64 80c1 91 105 120 174 120c95 0 152 -32 152 -91c0 -53 -46 -87 -100 -110c39 -16 74 -41 74 -89c0 -92 -100 -134 -191 -134zM875 118c-1 29 -32 50 -74 67
c-36 -11 -101 -33 -102 -84c0 -26 21 -48 77 -48c38 0 99 13 99 65zM835 352c-38 0 -88 -11 -89 -56c0 -14 10 -35 68 -56c29 7 87 33 88 71c0 23 -16 41 -67 41zM435 736l-12 -60l-117 -103c47 -6 91 -42 91 -102c0 -106 -91 -151 -181 -151c-54 0 -122 22 -155 77l63 38
c18 -33 56 -51 91 -51c49 0 95 25 95 86c0 35 -31 54 -76 54c-19 0 -38 -2 -60 -7l8 35l137 117h-177l13 67h280z" />
    <glyph glyph-name="fiveeighths.alt" horiz-adv-x="1036" 
d="M880 727l-604 -727h-88l604 727h88zM771 -11c-98 0 -159 32 -159 100c0 62 47 101 114 124c-33 17 -64 42 -64 80c1 91 105 120 174 120c95 0 152 -32 152 -91c0 -53 -46 -87 -100 -110c39 -16 74 -41 74 -89c0 -92 -100 -134 -191 -134zM875 118c-1 29 -32 50 -74 67
c-36 -11 -101 -33 -102 -84c0 -26 21 -48 77 -48c38 0 99 13 99 65zM835 352c-38 0 -88 -11 -89 -56c0 -14 10 -35 68 -56c29 7 87 33 88 71c0 23 -16 41 -67 41zM203 320c-74 0 -128 25 -153 64l75 46c15 -25 41 -44 82 -44c49 0 111 20 111 84c0 40 -33 59 -80 59
c-31 0 -61 -6 -93 -22h-46l79 229h259l-13 -68h-189l-31 -89c22 8 48 11 71 11c75 0 132 -36 132 -107c0 -107 -99 -163 -204 -163z" />
    <glyph glyph-name="seveneighths.alt" horiz-adv-x="1036" 
d="M864 727l-604 -727h-88l604 727h88zM771 -11c-98 0 -159 32 -159 100c0 62 47 101 114 124c-33 17 -64 42 -64 80c1 91 105 120 174 120c95 0 152 -32 152 -91c0 -53 -46 -87 -100 -110c39 -16 74 -41 74 -89c0 -92 -100 -134 -191 -134zM875 118c-1 29 -32 50 -74 67
c-36 -11 -101 -33 -102 -84c0 -26 21 -48 77 -48c38 0 99 13 99 65zM835 352c-38 0 -88 -11 -89 -56c0 -14 10 -35 68 -56c29 7 87 33 88 71c0 23 -16 41 -67 41zM250 320h-97l250 348h-147l-10 -53h-80l23 121h322l-12 -59z" />
    <glyph glyph-name="plus.alt" horiz-adv-x="667" 
d="M602 328h-234v-233h-70v233h-233v70h233v234h70v-234h234v-70z" />
    <glyph glyph-name="minus.alt" horiz-adv-x="667" 
d="M602 328h-537v70h537v-70z" />
    <glyph glyph-name="multiply.alt" horiz-adv-x="667" 
d="M581 165l-49 -50l-199 199l-198 -199l-50 50l199 198l-199 199l50 49l198 -198l199 198l49 -49l-198 -199z" />
    <glyph glyph-name="less.alt" horiz-adv-x="667" 
d="M602 107l-537 226v61l537 226v-76l-440 -181l440 -180v-76z" />
    <glyph glyph-name="greater.alt" horiz-adv-x="667" 
d="M602 333l-537 -226v76l440 180l-440 181v76l537 -226v-61z" />
    <glyph glyph-name="logicalnot.alt" horiz-adv-x="667" 
d="M602 216h-70v225h-467v70h537v-295z" />
    <glyph glyph-name="equal.alt" horiz-adv-x="667" 
d="M602 440h-537v70h537v-70zM602 215h-537v70h537v-70z" />
    <glyph glyph-name="divide.alt" horiz-adv-x="667" 
d="M384 583c0 -37 -16 -49 -52 -49c-39 0 -50 18 -50 49c0 34 12 51 50 51s52 -16 52 -51zM602 328h-537v70h537v-70zM384 141c0 -37 -16 -49 -52 -49c-39 0 -50 18 -50 49c0 34 12 51 50 51s52 -16 52 -51z" />
    <glyph glyph-name="plusminus.alt" horiz-adv-x="667" 
d="M602 382h-234v-187h-70v187h-233v70h233v213h70v-213h234v-70zM602 75h-537v70h537v-70z" />
    <glyph glyph-name="periodcentered.alt" horiz-adv-x="247" 
d="M182 375c0 -47 -23 -70 -73 -70c-31 0 -52 13 -52 45c0 47 23 71 72 71c32 0 53 -14 53 -46z" />
    </font>
</defs>
</svg>
