<?xml version="1.0" standalone="no"?>
<!DOCTYPE svg PUBLIC "-//W3C//DTD SVG 1.1//EN" "http://www.w3.org/Graphics/SVG/1.1/DTD/svg11.dtd" >
<svg xmlns="http://www.w3.org/2000/svg" xmlns:xlink="http://www.w3.org/1999/xlink" version="1.1">
<metadata>
Created by FontForge 20160407 at Tue Sep 27 17:03:59 2016
 By Jimmy Warting
Copyright 2009, 2010 Monotype Imaging Inc. All rights reserved.
</metadata>
<defs>
<font id="FelbridgePro-Regular" horiz-adv-x="468" >
  <font-face 
    font-family="Felbridge Pro"
    font-weight="400"
    font-stretch="normal"
    units-per-em="1000"
    panose-1="2 0 5 3 4 0 3 2 3 4"
    ascent="775"
    descent="-225"
    x-height="512"
    cap-height="727"
    bbox="-198 -233 1416 956"
    underline-thickness="50"
    underline-position="-100"
    stemh="70"
    stemv="88"
    unicode-range="U+0020-FB04"
  />
<missing-glyph horiz-adv-x="500" 
d="M12 0v665h475v-665h-475zM88 618l162 -243l161 243h-323zM60 575v-484c0 -1 161 242 161 242zM440 575l-162 -242l162 -243v485zM411 48l-161 242l-162 -242h323z" />
    <glyph glyph-name="f_f" unicode="ff" horiz-adv-x="589" 
d="M624 723l-24 -72c-20 9 -54 18 -78 18c-66 0 -79 -32 -79 -107v-50h129v-70h-129v-442h-88v442h-177v-442h-88v442h-78v70h78v50c0 124 43 180 165 180c34 0 72 -8 93 -16l-24 -72c-16 7 -41 15 -67 15c-66 0 -79 -32 -79 -107v-50h177v50c0 124 43 180 165 180
c39 0 79 -9 104 -19z" />
    <glyph glyph-name="f_f_i" unicode="ffi" horiz-adv-x="791" 
d="M727 642c0 -38 -19 -53 -58 -53c-44 0 -57 21 -57 53c0 35 16 53 57 53c42 0 58 -17 58 -53zM348 726l-24 -72c-16 7 -43 15 -67 15c-66 0 -79 -32 -79 -107v-50h177v50c0 127 46 180 157 180c26 0 55 -5 75 -12l-21 -72c-15 6 -36 11 -52 11c-57 0 -71 -32 -71 -107v-50
h265v-512h-88v442h-177v-442h-88v442h-177v-442h-88v442h-78v70h78v50c0 124 43 180 165 180c39 0 73 -9 93 -16z" />
    <glyph glyph-name="f_f_l" unicode="ffl" horiz-adv-x="828" 
d="M348 726l-24 -72c-16 7 -43 15 -67 15c-66 0 -79 -32 -79 -107v-50h177v50c0 124 43 180 165 180c56 0 107 -15 129 -24l59 37v-605c0 -68 10 -95 54 -95c16 0 38 4 50 9l21 -68c-23 -7 -56 -11 -86 -11c-98 0 -127 51 -127 162v499c-26 11 -58 23 -98 23
c-66 0 -79 -32 -79 -107v-50h119v-70h-119v-442h-88v442h-177v-442h-88v442h-78v70h78v50c0 124 43 180 165 180c39 0 71 -8 93 -16z" />
    <glyph glyph-name="fi" unicode="fi" horiz-adv-x="526" 
d="M462 642c0 -38 -19 -53 -58 -53c-44 0 -57 21 -57 53c0 35 16 53 57 53c42 0 58 -17 58 -53zM443 0h-88v442h-177v-442h-88v442h-78v70h78v50c0 127 46 180 157 180c26 0 55 -5 75 -12l-21 -72c-15 6 -36 11 -52 11c-57 0 -71 -32 -71 -107v-50h265v-512z" />
    <glyph glyph-name="fl" unicode="fl" horiz-adv-x="563" 
d="M568 -4c-23 -7 -56 -11 -86 -11c-98 0 -127 51 -127 162v499c-26 11 -58 23 -98 23c-66 0 -79 -32 -79 -107v-50h119v-70h-119v-442h-88v442h-78v70h78v50c0 124 43 180 165 180c56 0 107 -15 129 -24l59 37v-605c0 -68 10 -95 54 -95c16 0 38 4 50 9z" />
    <glyph glyph-name=".notdef" horiz-adv-x="500" 
d="M12 0v665h475v-665h-475zM88 618l162 -243l161 243h-323zM60 575v-484c0 -1 161 242 161 242zM440 575l-162 -242l162 -243v485zM411 48l-161 242l-162 -242h323z" />
    <glyph glyph-name="eth" unicode="&#xf0;" horiz-adv-x="557" 
d="M515 249c0 -155 -67 -264 -236 -264c-171 0 -237 110 -237 263c0 162 75 264 216 264c41 0 84 -14 121 -39c-14 42 -64 114 -112 160l-99 -55l-28 41l94 51c-35 34 -64 57 -89 72h85c20 -10 44 -26 60 -41l75 41l30 -40l-65 -35c108 -105 185 -236 185 -418zM424 249
c0 111 -33 190 -146 190s-145 -74 -145 -191c0 -109 32 -190 146 -190c112 0 145 80 145 191z" />
    <glyph glyph-name="Lslash" unicode="&#x141;" horiz-adv-x="524" 
d="M514 0h-434v266l-80 -65v84l80 65v377h93v-302l133 109v-84l-133 -109v-259h341v-82z" />
    <glyph glyph-name="lslash" unicode="&#x142;" horiz-adv-x="280" 
d="M285 -4c-18 -5 -51 -11 -86 -11c-98 0 -127 51 -127 162v133l-68 -58v83l68 58v337l88 55v-316l90 77v-83l-90 -77v-206c0 -68 10 -95 54 -95c18 0 33 3 50 9z" />
    <glyph glyph-name="Scaron" unicode="&#x160;" horiz-adv-x="625" 
d="M580 196c0 -154 -121 -211 -266 -211c-155 0 -231 62 -279 143l77 48c38 -62 95 -111 203 -111c76 0 170 31 170 125c0 76 -61 113 -177 137c-182 38 -257 86 -257 212c0 121 86 203 255 203c130 0 205 -53 253 -130l-75 -50c-38 62 -92 100 -179 100
c-102 0 -160 -48 -160 -120c0 -67 51 -95 185 -124c148 -32 250 -79 250 -222zM480 956l-114 -176h-105l-113 176h77l89 -113l89 113h77z" />
    <glyph glyph-name="scaron" unicode="&#x161;" horiz-adv-x="475" 
d="M439 142c0 -119 -106 -157 -208 -157c-72 0 -160 25 -197 92l72 41c29 -45 77 -62 129 -62s118 14 118 79c0 45 -29 56 -130 81c-88 22 -171 51 -171 157c0 111 99 154 196 154c71 0 148 -26 186 -90l-72 -41c-26 41 -70 60 -118 60s-106 -19 -106 -76
c0 -58 64 -68 109 -79c92 -23 192 -45 192 -159zM411 766l-114 -176h-105l-113 176h77l89 -113l89 113h77z" />
    <glyph glyph-name="Yacute" unicode="&#xdd;" horiz-adv-x="607" 
d="M602 727l-252 -432v-295h-93v291l-252 436h105l195 -346l197 346h100zM468 956l-155 -176h-72l111 176h116z" />
    <glyph glyph-name="yacute" unicode="&#xfd;" horiz-adv-x="507" 
d="M499 512l-230 -551c-47 -113 -99 -154 -186 -154c-32 0 -72 7 -94 15l22 69c19 -9 54 -14 77 -14c42 0 78 37 105 107l17 44l-196 484h96l148 -375l149 375h92zM422 766l-155 -176h-72l111 176h116z" />
    <glyph glyph-name="Thorn" unicode="&#xde;" horiz-adv-x="594" 
d="M559 381c0 -163 -80 -231 -270 -231h-116v-150h-93v727h93v-130h120c171 0 266 -55 266 -216zM461 379c0 108 -64 136 -173 136h-115v-283h101c127 0 187 23 187 147z" />
    <glyph glyph-name="thorn" unicode="&#xfe;" horiz-adv-x="569" 
d="M527 260c0 -163 -77 -275 -213 -275c-62 0 -112 17 -154 49v-227h-88v920h88v-266c41 37 100 66 164 66c141 0 203 -111 203 -267zM436 258c0 104 -28 194 -129 194c-56 0 -109 -32 -147 -66v-279c42 -29 88 -47 141 -47c83 0 135 63 135 198z" />
    <glyph glyph-name="Zcaron" unicode="&#x17d;" horiz-adv-x="593" 
d="M553 0h-521v88l403 557h-386v82h494v-83l-407 -562h417v-82zM470 956l-114 -176h-105l-113 176h77l89 -113l89 113h77z" />
    <glyph glyph-name="zcaron" unicode="&#x17e;" horiz-adv-x="444" 
d="M419 0h-394v64l280 378h-274v70h380v-61l-281 -380h289v-71zM396 766l-114 -176h-105l-113 176h77l89 -113l89 113h77z" />
    <glyph glyph-name="onehalf" unicode="&#xbd;" horiz-adv-x="1036" 
d="M996 -154h-374v69c53 36 103 70 150 106c35 27 61 49 79 67c24 25 39 48 39 77c0 32 -27 57 -90 57c-51 0 -84 -17 -117 -55l-66 47c33 40 82 81 185 81c92 0 177 -36 177 -127c0 -66 -35 -103 -79 -138c-48 -38 -93 -72 -144 -109h240v-75zM754 727l-392 -878h-79
l391 878h80zM376 293h-274v66h103v257c-30 -15 -70 -30 -114 -37v65c63 19 110 49 143 98h54v-383h88v-66z" />
    <glyph glyph-name="onequarter" unicode="&#xbc;" horiz-adv-x="1036" 
d="M961 -60h-62v-106h-78v106h-227v66l235 289h70v-287h62v-68zM754 727l-392 -878h-79l391 878h80zM376 293h-274v66h103v257c-30 -15 -70 -30 -114 -37v65c63 19 110 49 143 98h54v-383h88v-66zM821 8v166l-136 -166h136z" />
    <glyph glyph-name="threequarters" unicode="&#xbe;" horiz-adv-x="1036" 
d="M961 -60h-62v-106h-78v106h-227v66l235 289h70v-287h62v-68zM774 727l-392 -878h-79l391 878h80zM417 432c0 -104 -78 -151 -188 -151c-56 0 -129 16 -167 74l64 48c25 -34 61 -55 102 -55c65 0 99 28 99 84c0 50 -40 70 -99 70c-20 0 -38 -2 -61 -7v38l128 130h-199v70
h305v-63l-105 -107c79 -9 121 -61 121 -131zM821 8v166l-136 -166h136z" />
    <glyph glyph-name="brokenbar" unicode="&#xa6;" horiz-adv-x="386" 
d="M234 431h-82v311h82v-311zM234 -193h-82v311h82v-311z" />
    <glyph glyph-name="minus" unicode="&#x2212;" horiz-adv-x="667" 
d="M602 253h-537v70h537v-70z" />
    <glyph glyph-name="multiply" unicode="&#xd7;" horiz-adv-x="667" 
d="M581 90l-49 -50l-199 199l-198 -199l-50 50l199 198l-199 199l50 49l198 -198l199 198l49 -49l-198 -199z" />
    <glyph glyph-name="space" unicode=" " horiz-adv-x="240" 
 />
    <glyph glyph-name="exclam" unicode="!" horiz-adv-x="247" 
d="M175 727l-12 -527h-77l-14 527h103zM186 51c0 -43 -20 -58 -63 -58c-48 0 -62 21 -62 58c0 41 17 58 62 58c46 0 63 -17 63 -58z" />
    <glyph glyph-name="quotedbl" unicode="&#x22;" horiz-adv-x="421" 
d="M352 742l-20 -269h-64l-20 269h104zM173 742l-20 -269h-64l-20 269h104z" />
    <glyph glyph-name="numbersign" unicode="#" horiz-adv-x="676" 
d="M642 455h-141l-46 -183h130v-67h-146l-51 -205h-65l50 205h-149l-51 -205h-65l51 205h-125v67h141l47 183h-131v67h147l51 205h65l-51 -205h149l52 205h65l-51 -205h124v-67zM436 455h-150l-46 -183h150z" />
    <glyph glyph-name="dollar" unicode="$" horiz-adv-x="587" 
d="M528 181c0 -121 -92 -177 -198 -181v-120h-68v120c-111 6 -172 65 -206 123l74 46c21 -38 58 -84 132 -93v220c-132 32 -190 75 -190 177c0 95 63 167 190 174v95h68v-95c105 -6 160 -59 195 -120l-74 -45c-22 40 -60 83 -121 89v-201c109 -30 198 -66 198 -189zM262 385
v186c-67 -3 -101 -40 -101 -95c0 -53 43 -75 101 -91zM439 176c0 54 -33 87 -109 106v-206c55 5 109 35 109 100z" />
    <glyph glyph-name="percent" unicode="%" horiz-adv-x="1036" 
d="M996 64c0 -78 -17 -135 -50 -173s-81 -57 -144 -57c-64 0 -112 19 -145 57s-49 95 -49 173s17 136 50 174s81 57 144 57c64 0 112 -20 145 -58s49 -96 49 -173zM754 727l-392 -878h-79l391 878h80zM428 511c0 -78 -17 -135 -50 -173s-81 -57 -144 -57
c-64 0 -112 19 -145 57s-49 95 -49 173s17 136 50 174s81 57 144 57c64 0 112 -20 145 -58s49 -96 49 -173zM905 64c0 60 -10 104 -26 128s-42 36 -77 36c-36 0 -62 -12 -77 -36s-26 -68 -26 -128s11 -104 26 -128s41 -35 77 -35c35 0 61 11 77 35s26 67 26 128zM337 511
c0 60 -10 104 -26 128s-42 36 -77 36c-36 0 -62 -12 -77 -36s-26 -68 -26 -128s11 -104 26 -128s41 -35 77 -35c35 0 61 11 77 35s26 67 26 128z" />
    <glyph glyph-name="ampersand" unicode="&#x26;" horiz-adv-x="684" 
d="M659 0h-116l-46 56c-46 -37 -97 -71 -200 -71c-160 0 -245 85 -245 204c0 110 53 151 156 217c-45 54 -83 114 -83 170c0 112 70 166 188 166c112 0 178 -59 178 -141c0 -92 -63 -150 -155 -209l171 -208c23 29 50 83 65 146l79 -20c-23 -90 -53 -149 -90 -191zM402 600
c0 41 -32 72 -92 72c-75 0 -97 -48 -97 -91c0 -38 36 -85 72 -128c93 62 117 102 117 147zM447 117l-187 226c-96 -66 -114 -95 -114 -156c0 -86 79 -124 153 -124c78 0 122 32 148 54z" />
    <glyph glyph-name="quotesingle" unicode="'" horiz-adv-x="242" 
d="M173 742l-20 -269h-64l-20 269h104z" />
    <glyph glyph-name="parenleft" unicode="(" horiz-adv-x="367" 
d="M342 -193h-98c-58 65 -104 131 -136 208s-48 163 -48 259s16 182 48 259s78 144 136 209h98c-85 -81 -153 -200 -184 -318c-10 -39 -17 -98 -17 -150c0 -55 7 -110 17 -149c32 -122 102 -240 184 -318z" />
    <glyph glyph-name="parenright" unicode=")" horiz-adv-x="367" 
d="M307 274c0 -96 -16 -182 -48 -259s-78 -143 -136 -208h-98c82 78 152 196 184 318c10 39 17 94 17 149c0 52 -7 111 -17 150c-31 118 -99 237 -184 318h98c58 -65 104 -132 136 -209s48 -163 48 -259z" />
    <glyph glyph-name="asterisk" unicode="*" horiz-adv-x="435" 
d="M409 487l-32 -54l-130 75l2 -128h-63l1 128l-129 -76l-32 54l136 75l-136 75l32 54l130 -76l-2 128h63l-2 -128l130 75l32 -54l-136 -74z" />
    <glyph glyph-name="plus" unicode="+" horiz-adv-x="667" 
d="M602 253h-234v-233h-70v233h-233v70h233v234h70v-234h234v-70z" />
    <glyph glyph-name="comma" unicode="," horiz-adv-x="247" 
d="M186 41c0 -83 -31 -153 -63 -200h-57c28 42 53 103 53 136c0 8 0 12 -1 16c-40 0 -57 17 -57 58c0 38 17 58 62 58c46 0 63 -24 63 -68z" />
    <glyph glyph-name="hyphen" unicode="-" horiz-adv-x="374" 
d="M339 213h-304v88h304v-88z" />
    <glyph glyph-name="period" unicode="." horiz-adv-x="247" 
d="M186 51c0 -43 -20 -58 -63 -58c-48 0 -62 21 -62 58c0 41 17 58 62 58c46 0 63 -17 63 -58z" />
    <glyph glyph-name="slash" unicode="/" horiz-adv-x="412" 
d="M422 742l-360 -888h-83l359 888h84z" />
    <glyph glyph-name="zero" unicode="0" horiz-adv-x="601" 
d="M555 289c0 -161 -46 -304 -255 -304c-207 0 -254 143 -254 303s47 303 254 303c208 0 255 -143 255 -302zM458 289c0 136 -30 224 -158 224c-126 0 -157 -89 -157 -225s30 -225 157 -225c128 0 158 89 158 226z" />
    <glyph glyph-name="one" unicode="1" horiz-adv-x="470" 
d="M430 0h-341v70h136v376c-38 -24 -98 -46 -150 -55v70c78 24 140 66 183 130h56v-521h116v-70z" />
    <glyph glyph-name="two" unicode="2" horiz-adv-x="528" 
d="M496 0h-472v79c66 46 132 92 194 141c110 87 159 137 159 204c0 52 -44 87 -129 87c-70 0 -114 -25 -154 -71l-72 52c35 45 97 99 229 99c119 0 223 -49 223 -163c0 -85 -43 -133 -100 -181c-70 -58 -136 -109 -213 -165h335v-82z" />
    <glyph glyph-name="three" unicode="3" horiz-adv-x="551" 
d="M505 75c0 -166 -107 -241 -266 -241c-82 0 -184 30 -229 105l78 48c32 -49 92 -75 149 -75c108 0 171 54 171 163c0 103 -76 141 -170 141c-24 0 -51 -3 -73 -7v41l206 244h-314v82h423v-82l-173 -207c122 -8 198 -88 198 -212z" />
    <glyph glyph-name="four" unicode="4" horiz-adv-x="557" 
d="M523 19h-86v-185h-89v185h-339v87l343 485h85v-494h86v-78zM348 97v350l-247 -350h247z" />
    <glyph glyph-name="five" unicode="5" horiz-adv-x="551" 
d="M505 80c0 -150 -90 -246 -266 -246c-113 0 -196 49 -229 105l78 48c25 -37 77 -75 149 -75c116 0 171 67 171 168c0 108 -82 146 -170 146c-52 0 -102 -12 -143 -37h-41l46 387h370v-82h-297l-26 -217c31 14 79 24 119 24c135 0 239 -62 239 -221z" />
    <glyph glyph-name="six" unicode="6" horiz-adv-x="596" 
d="M556 236c0 -160 -92 -251 -248 -251c-177 0 -262 125 -262 334c0 226 73 423 290 423c83 0 138 -17 192 -62l-53 -69c-46 38 -81 53 -139 53c-130 0 -180 -117 -191 -257c41 28 113 57 185 57c137 0 226 -71 226 -228zM461 232c0 110 -59 152 -155 152
c-56 0 -122 -23 -163 -47c-1 -16 -1 -24 -1 -39c0 -144 59 -235 167 -235c98 0 152 62 152 169z" />
    <glyph glyph-name="seven" unicode="7" horiz-adv-x="527" 
d="M499 492l-277 -658h-105l288 660h-289v-99h-83v181h466v-84z" />
    <glyph glyph-name="eight" unicode="8" horiz-adv-x="584" 
d="M544 186c0 -135 -97 -201 -252 -201c-166 0 -252 71 -252 201c0 94 54 161 160 200c-60 28 -141 69 -141 171c0 116 78 185 233 185c152 0 233 -65 233 -184c0 -92 -73 -141 -141 -172c88 -40 160 -88 160 -200zM434 556c0 69 -48 114 -142 114c-99 0 -142 -46 -142 -110
c0 -48 23 -81 142 -136c88 35 142 74 142 132zM451 186c0 85 -73 124 -159 162c-73 -29 -159 -75 -159 -163c0 -77 50 -127 159 -127c112 0 159 53 159 128z" />
    <glyph glyph-name="nine" unicode="9" horiz-adv-x="596" 
d="M550 257c0 -226 -64 -423 -295 -423c-83 0 -146 24 -199 72l58 67c40 -37 83 -61 141 -61c142 0 185 117 196 257c-41 -28 -113 -57 -185 -57c-137 0 -226 71 -226 228c0 160 99 251 251 251c177 0 259 -125 259 -334zM454 278c0 144 -56 235 -164 235
c-100 0 -155 -62 -155 -169c0 -110 59 -152 155 -152c56 0 122 23 163 47c1 16 1 24 1 39z" />
    <glyph glyph-name="colon" unicode=":" horiz-adv-x="247" 
d="M186 424c0 -43 -20 -58 -63 -58c-48 0 -62 21 -62 58c0 41 17 58 62 58c46 0 63 -17 63 -58zM186 51c0 -43 -20 -58 -63 -58c-48 0 -62 21 -62 58c0 41 17 58 62 58c46 0 63 -17 63 -58z" />
    <glyph glyph-name="semicolon" unicode=";" horiz-adv-x="247" 
d="M186 424c0 -43 -20 -58 -63 -58c-48 0 -62 21 -62 58c0 41 17 58 62 58c46 0 63 -17 63 -58zM186 41c0 -83 -31 -153 -63 -200h-57c28 42 53 103 53 136c0 8 0 12 -1 16c-40 0 -57 17 -57 58c0 38 17 58 62 58c46 0 63 -24 63 -68z" />
    <glyph glyph-name="less" unicode="&#x3c;" horiz-adv-x="667" 
d="M602 32l-537 226v61l537 226v-76l-440 -181l440 -180v-76z" />
    <glyph glyph-name="equal" unicode="=" horiz-adv-x="667" 
d="M602 365h-537v70h537v-70zM602 140h-537v70h537v-70z" />
    <glyph glyph-name="greater" unicode="&#x3e;" horiz-adv-x="667" 
d="M602 258l-537 -226v76l440 180l-440 181v76l537 -226v-61z" />
    <glyph glyph-name="question" unicode="?" horiz-adv-x="494" 
d="M456 556c0 -64 -19 -107 -61 -149c-41 -40 -95 -72 -145 -100v-112h-87v149c44 25 94 49 132 83c39 35 64 70 64 122c0 73 -47 113 -130 113c-72 0 -111 -30 -135 -69l-76 48c34 59 100 101 210 101c129 0 228 -56 228 -186zM271 51c0 -43 -20 -58 -63 -58
c-48 0 -62 21 -62 58c0 41 17 58 62 58c46 0 63 -17 63 -58z" />
    <glyph glyph-name="at" unicode="@" horiz-adv-x="1015" 
d="M963 284c0 -146 -50 -298 -215 -298c-85 0 -128 36 -135 82c-50 -36 -108 -68 -171 -68c-123 0 -179 90 -179 202c0 162 78 325 262 325c53 0 89 -18 125 -44l4 29h90l-48 -390c-1 -6 -2 -13 -2 -18c0 -34 21 -44 62 -44c97 0 127 122 127 220c0 238 -121 387 -367 387
c-225 0 -384 -170 -384 -393c0 -234 144 -393 382 -393c78 0 155 5 230 24l17 -75c-80 -19 -166 -23 -248 -23c-282 0 -461 188 -461 468c0 266 196 466 463 466c286 0 448 -174 448 -457zM639 404c-35 26 -72 43 -109 43c-131 0 -175 -130 -175 -243
c0 -82 29 -119 110 -119c48 0 103 31 142 58z" />
    <glyph glyph-name="A" unicode="A" horiz-adv-x="651" 
d="M641 0h-98l-70 203h-298l-70 -203h-95l255 727h121zM444 285l-121 353l-121 -353h242z" />
    <glyph glyph-name="B" unicode="B" horiz-adv-x="647" 
d="M602 218c0 -153 -99 -218 -284 -218h-238v727h216c195 0 258 -54 258 -166c0 -94 -47 -142 -113 -164c94 -11 161 -67 161 -179zM458 541c0 89 -54 106 -167 106h-118v-225h112c120 0 173 38 173 119zM504 214c0 110 -70 128 -201 128h-130v-260h105
c126 0 226 11 226 132z" />
    <glyph glyph-name="C" unicode="C" horiz-adv-x="675" 
d="M638 604l-76 -47c-24 44 -78 105 -182 105c-171 0 -230 -110 -230 -299c0 -197 65 -298 231 -298c89 0 142 36 179 67l56 -71c-68 -56 -147 -76 -235 -76c-225 0 -329 122 -329 378c0 255 103 379 329 379c139 0 217 -63 257 -138z" />
    <glyph glyph-name="D" unicode="D" horiz-adv-x="717" 
d="M665 363c0 -286 -126 -363 -377 -363h-208v727h206c258 0 379 -90 379 -364zM567 364c0 216 -80 281 -284 281h-110v-563h110c208 0 284 71 284 282z" />
    <glyph glyph-name="E" unicode="E" horiz-adv-x="584" 
d="M534 0h-454v727h454v-82h-361v-222h329v-82h-329v-259h361v-82z" />
    <glyph glyph-name="F" unicode="F" horiz-adv-x="560" 
d="M530 645h-357v-222h323v-82h-323v-341h-93v727h450v-82z" />
    <glyph glyph-name="G" unicode="G" horiz-adv-x="725" 
d="M653 604l-77 -47c-29 51 -91 105 -189 105c-163 0 -237 -101 -237 -295c0 -187 61 -302 244 -302c56 0 118 18 165 38v161h-157v82h250v-290c-77 -41 -165 -71 -253 -71c-247 0 -347 131 -347 379c0 236 95 378 336 378c139 0 225 -63 265 -138z" />
    <glyph glyph-name="H" unicode="H" horiz-adv-x="693" 
d="M613 0h-93v334h-347v-334h-93v727h93v-311h347v311h93v-727z" />
    <glyph glyph-name="I" unicode="I" horiz-adv-x="363" 
d="M319 0h-275v73h91v581h-91v73h275v-73h-91v-581h91v-73z" />
    <glyph glyph-name="J" unicode="J" horiz-adv-x="412" 
d="M337 184c0 -132 -54 -199 -196 -199c-39 0 -96 11 -131 25l34 77c22 -11 70 -22 96 -22c87 0 104 44 104 156v433h-158v73h251v-543z" />
    <glyph glyph-name="K" unicode="K" horiz-adv-x="642" 
d="M630 0h-106l-222 385l-129 -141v-244h-93v727h93v-367l326 367h117l-251 -273z" />
    <glyph glyph-name="L" unicode="L" horiz-adv-x="524" 
d="M514 0h-434v727h93v-645h341v-82z" />
    <glyph glyph-name="M" unicode="M" horiz-adv-x="816" 
d="M736 0h-89v618l-210 -418h-60l-208 418v-618h-89v727h130l198 -403l202 403h126v-727z" />
    <glyph glyph-name="N" unicode="N" horiz-adv-x="706" 
d="M626 0h-110l-347 639v-639h-89v727h139l318 -583v583h89v-727z" />
    <glyph glyph-name="O" unicode="O" horiz-adv-x="748" 
d="M696 363c0 -235 -83 -378 -322 -378s-322 144 -322 378c0 236 83 379 322 379s322 -143 322 -379zM598 363c0 193 -57 299 -224 299s-224 -106 -224 -299c0 -191 57 -298 224 -298s224 106 224 298z" />
    <glyph glyph-name="P" unicode="P" horiz-adv-x="594" 
d="M559 511c0 -163 -80 -231 -270 -231h-116v-280h-93v727h213c171 0 266 -55 266 -216zM461 509c0 108 -64 136 -173 136h-115v-283h101c127 0 187 23 187 147z" />
    <glyph glyph-name="Q" unicode="Q" horiz-adv-x="748" 
d="M696 363c0 -213 -68 -351 -261 -375c23 -53 51 -79 136 -79c21 0 50 2 77 10l26 -74c-33 -11 -70 -15 -108 -15c-141 0 -202 50 -236 157c-197 17 -278 144 -278 376c0 235 82 379 323 379c238 0 321 -145 321 -379zM599 363c0 193 -58 299 -224 299
c-167 0 -226 -105 -226 -299c0 -192 58 -298 226 -298c165 0 224 106 224 298z" />
    <glyph glyph-name="R" unicode="R" horiz-adv-x="639" 
d="M601 0h-94l-52 213c-15 63 -48 92 -98 92h-184v-305h-93v727h237c163 0 258 -44 258 -198c0 -113 -45 -165 -113 -187c48 -13 63 -40 79 -104zM480 522c0 95 -50 125 -164 125h-143v-262h137c126 0 170 34 170 137z" />
    <glyph glyph-name="S" unicode="S" horiz-adv-x="625" 
d="M580 196c0 -154 -121 -211 -266 -211c-155 0 -231 62 -279 143l77 48c38 -62 95 -111 203 -111c76 0 170 31 170 125c0 76 -61 113 -177 137c-182 38 -257 86 -257 212c0 121 86 203 255 203c130 0 205 -53 253 -130l-75 -50c-38 62 -92 100 -179 100
c-102 0 -160 -48 -160 -120c0 -67 51 -95 185 -124c148 -32 250 -79 250 -222z" />
    <glyph glyph-name="T" unicode="T" horiz-adv-x="591" 
d="M571 645h-229v-645h-93v645h-229v82h551v-82z" />
    <glyph glyph-name="U" unicode="U" horiz-adv-x="686" 
d="M610 282c0 -218 -70 -297 -267 -297s-267 80 -267 297v445h93v-435c0 -163 38 -227 174 -227c141 0 174 68 174 225v437h93v-445z" />
    <glyph glyph-name="V" unicode="V" horiz-adv-x="619" 
d="M609 727l-238 -727h-125l-236 727h98l203 -640l203 640h95z" />
    <glyph glyph-name="W" unicode="W" horiz-adv-x="888" 
d="M868 727l-169 -727h-103l-154 431l-152 -431h-105l-165 727h93l133 -606l153 426h90l155 -430l134 610h90z" />
    <glyph glyph-name="X" unicode="X" horiz-adv-x="611" 
d="M599 0h-110l-184 298l-189 -298h-104l241 364l-234 363h110l180 -293l186 293h104l-238 -359z" />
    <glyph glyph-name="Y" unicode="Y" horiz-adv-x="607" 
d="M602 727l-252 -432v-295h-93v291l-252 436h105l195 -346l197 346h100z" />
    <glyph glyph-name="Z" unicode="Z" horiz-adv-x="593" 
d="M553 0h-521v88l403 557h-386v82h494v-83l-407 -562h417v-82z" />
    <glyph glyph-name="bracketleft" unicode="[" horiz-adv-x="363" 
d="M318 -193h-238v920h238v-65h-158v-790h158v-65z" />
    <glyph glyph-name="backslash" unicode="\" horiz-adv-x="412" 
d="M433 -146h-83l-360 888h84z" />
    <glyph glyph-name="bracketright" unicode="]" horiz-adv-x="363" 
d="M283 -193h-238v65h158v790h-158v65h238v-920z" />
    <glyph glyph-name="asciicircum" unicode="^" horiz-adv-x="577" 
d="M522 347h-74l-159 311l-160 -311h-74l197 386h73z" />
    <glyph glyph-name="underscore" unicode="_" horiz-adv-x="500" 
d="M506 -125h-512v50h512v-50z" />
    <glyph glyph-name="grave" unicode="`" horiz-adv-x="500" 
d="M320 590h-72l-155 176h116z" />
    <glyph glyph-name="a" unicode="a" horiz-adv-x="531" 
d="M463 0h-88v64c-55 -45 -107 -79 -176 -79c-102 0 -161 66 -161 159c0 126 92 160 205 172c43 5 83 8 132 11v25c0 79 -49 102 -124 102c-66 0 -107 -19 -139 -48l-51 63c40 36 100 58 192 58c143 0 210 -43 210 -179v-348zM375 135v125l-86 -8c-94 -8 -160 -28 -160 -106
c0 -61 35 -86 97 -86c53 0 104 40 149 75z" />
    <glyph glyph-name="b" unicode="b" horiz-adv-x="569" 
d="M527 260c0 -141 -57 -275 -211 -275c-78 0 -134 19 -156 25l-59 -17h-29v734h88v-266c41 37 100 66 164 66c145 0 203 -112 203 -267zM436 258c0 103 -25 194 -129 194c-55 0 -108 -31 -147 -66v-296c29 -17 66 -30 138 -30c83 0 138 63 138 198z" />
    <glyph glyph-name="c" unicode="c" horiz-adv-x="493" 
d="M466 433l-73 -42c-25 39 -61 63 -114 63c-104 0 -146 -74 -146 -199c0 -116 34 -197 150 -197c53 0 91 23 118 45l53 -66c-30 -23 -80 -52 -174 -52c-176 0 -238 111 -238 270c0 166 68 272 239 272c88 0 150 -35 185 -94z" />
    <glyph glyph-name="d" unicode="d" horiz-adv-x="569" 
d="M497 0h-88v51c-41 -37 -100 -66 -164 -66c-141 0 -203 111 -203 267c0 163 77 275 213 275c60 0 109 -19 154 -52v252h88v-727zM409 126v276c-39 26 -84 50 -141 50c-83 0 -135 -63 -135 -198c0 -104 28 -194 129 -194c56 0 109 32 147 66z" />
    <glyph glyph-name="e" unicode="e" horiz-adv-x="520" 
d="M483 232h-350c0 -93 36 -174 149 -174c47 0 94 23 115 44l52 -65c-31 -25 -82 -52 -164 -52c-157 0 -243 77 -243 267c0 162 58 275 232 275c152 0 209 -92 209 -234v-61zM396 302c0 96 -33 155 -126 155c-84 0 -128 -54 -136 -155h262z" />
    <glyph glyph-name="f" unicode="f" horiz-adv-x="324" 
d="M359 723l-24 -72c-20 9 -54 18 -78 18c-66 0 -79 -32 -79 -107v-50h129v-70h-129v-442h-88v442h-78v70h78v50c0 124 43 180 165 180c39 0 79 -9 104 -19z" />
    <glyph glyph-name="g" unicode="g" horiz-adv-x="565" 
d="M547 442h-60v-432c0 -139 -69 -203 -229 -203c-67 0 -142 23 -172 42l31 69c33 -21 88 -41 141 -41c96 0 141 36 141 128v51c-42 -32 -91 -56 -155 -56c-138 0 -202 108 -202 261c0 130 56 266 219 266c65 0 114 -31 143 -54v39h143v-70zM399 131v273
c-44 27 -89 48 -133 48c-99 0 -133 -98 -133 -189c0 -103 28 -188 124 -188c50 0 102 23 142 56z" />
    <glyph glyph-name="h" unicode="h" horiz-adv-x="566" 
d="M498 0h-88v302c0 100 -14 144 -91 144c-41 0 -104 -37 -159 -84v-362h-88v727h88v-291c50 47 117 91 178 91c111 0 160 -67 160 -195v-332z" />
    <glyph glyph-name="i" unicode="i" horiz-adv-x="288" 
d="M224 642c0 -38 -19 -53 -58 -53c-44 0 -57 21 -57 53c0 35 16 53 57 53c42 0 58 -17 58 -53zM210 0h-88v442h-88v70h176v-512z" />
    <glyph glyph-name="j" unicode="j" horiz-adv-x="282" 
d="M224 642c0 -38 -19 -53 -58 -53c-44 0 -57 21 -57 53c0 35 16 53 57 53c42 0 58 -17 58 -53zM210 -22c0 -113 -37 -171 -161 -171c-24 0 -63 5 -96 15l22 69c24 -9 49 -14 77 -14c57 0 70 39 70 111v454h-88v70h176v-534z" />
    <glyph glyph-name="k" unicode="k" horiz-adv-x="506" 
d="M498 0h-109l-154 248l-75 -79v-169h-88v727h88v-454l218 239h109l-193 -202z" />
    <glyph glyph-name="l" unicode="l" horiz-adv-x="280" 
d="M285 -4c-18 -5 -54 -11 -86 -11c-98 0 -127 51 -127 162v553l88 55v-605c0 -68 10 -95 54 -95c16 0 37 4 50 9z" />
    <glyph glyph-name="m" unicode="m" horiz-adv-x="848" 
d="M780 0h-88v302c0 106 -16 144 -77 144c-39 0 -100 -41 -145 -84v-362h-88v302c0 115 -21 144 -75 144c-45 0 -107 -46 -147 -84v-362h-88v512h88v-76c46 48 104 91 166 91c72 0 122 -34 135 -100c56 56 109 100 176 100c107 0 143 -67 143 -185v-342z" />
    <glyph glyph-name="n" unicode="n" horiz-adv-x="566" 
d="M498 0h-88v302c0 100 -14 144 -91 144c-39 0 -99 -33 -159 -84v-362h-88v512h88v-76c56 53 121 91 178 91c111 0 160 -66 160 -195v-332z" />
    <glyph glyph-name="o" unicode="o" horiz-adv-x="557" 
d="M515 255c0 -161 -68 -270 -236 -270c-169 0 -237 109 -237 270c0 164 68 272 237 272c168 0 236 -109 236 -272zM424 255c0 117 -37 199 -145 199c-109 0 -146 -82 -146 -199c0 -114 37 -197 146 -197c107 0 145 83 145 197z" />
    <glyph glyph-name="p" unicode="p" horiz-adv-x="569" 
d="M527 260c0 -163 -77 -275 -213 -275c-62 0 -112 17 -154 49v-227h-88v705h88v-51c41 37 100 66 164 66c141 0 203 -111 203 -267zM436 258c0 104 -28 194 -129 194c-56 0 -109 -32 -147 -66v-279c43 -30 88 -47 141 -47c83 0 135 63 135 198z" />
    <glyph glyph-name="q" unicode="q" horiz-adv-x="569" 
d="M497 -193h-88v234c-42 -33 -94 -56 -161 -56c-147 0 -206 112 -206 267c0 148 57 275 224 275c56 0 113 -13 143 -25l59 17h29v-712zM409 116v306c-39 21 -85 30 -134 30c-87 0 -142 -63 -142 -198c0 -103 25 -194 129 -194c55 0 108 24 147 56z" />
    <glyph glyph-name="r" unicode="r" horiz-adv-x="366" 
d="M361 510l-19 -84c-10 4 -26 6 -36 6c-61 0 -103 -38 -146 -78v-354h-88v512h88v-83c48 48 93 91 152 91c20 0 35 -3 49 -10z" />
    <glyph glyph-name="s" unicode="s" horiz-adv-x="475" 
d="M439 142c0 -119 -106 -157 -208 -157c-72 0 -160 25 -197 92l72 41c29 -45 77 -62 129 -62s118 14 118 79c0 45 -29 56 -130 81c-88 22 -171 51 -171 157c0 111 99 154 196 154c71 0 148 -26 186 -90l-72 -41c-26 41 -70 60 -118 60s-106 -19 -106 -76
c0 -58 64 -68 109 -79c92 -23 192 -45 192 -159z" />
    <glyph glyph-name="t" unicode="t" horiz-adv-x="352" 
d="M341 0c-25 -8 -66 -15 -101 -15c-98 0 -141 41 -141 165v292h-87v70h87v160l88 55v-215h132v-70h-132v-286c0 -63 6 -101 65 -101c24 0 47 6 67 13z" />
    <glyph glyph-name="u" unicode="u" horiz-adv-x="566" 
d="M494 0h-88v76c-56 -53 -121 -91 -178 -91c-111 0 -160 66 -160 195v332h88v-302c0 -100 14 -144 91 -144c39 0 99 33 159 84v362h88v-512z" />
    <glyph glyph-name="v" unicode="v" horiz-adv-x="484" 
d="M474 512l-189 -512h-87l-188 512h94l140 -402l139 402h91z" />
    <glyph glyph-name="w" unicode="w" horiz-adv-x="702" 
d="M686 512l-132 -512h-77l-126 297l-125 -297h-77l-133 512h89l92 -393l121 287h70l120 -283l92 389h86z" />
    <glyph glyph-name="x" unicode="x" horiz-adv-x="486" 
d="M474 0h-110l-124 195l-128 -195h-100l178 253l-176 259h108l124 -194l127 194h101l-178 -253z" />
    <glyph glyph-name="y" unicode="y" horiz-adv-x="507" 
d="M499 512l-230 -551c-47 -113 -99 -154 -186 -154c-32 0 -72 7 -94 15l22 69c19 -9 54 -14 77 -14c42 0 78 37 105 107l17 44l-196 484h96l148 -375l149 375h92z" />
    <glyph glyph-name="z" unicode="z" horiz-adv-x="444" 
d="M419 0h-394v64l280 378h-274v70h380v-61l-281 -380h289v-71z" />
    <glyph glyph-name="braceleft" unicode="{" horiz-adv-x="422" 
d="M387 -193h-34c-121 0 -177 66 -177 186v72c0 101 -29 174 -132 174h-9v72h9c104 0 132 71 132 174v71c0 122 58 186 177 186h34v-65h-21c-87 0 -109 -44 -109 -129v-84c0 -102 -42 -160 -127 -190c86 -29 127 -89 127 -189v-84c0 -85 22 -129 109 -129h21v-65z" />
    <glyph glyph-name="bar" unicode="|" horiz-adv-x="386" 
d="M234 -193h-82v935h82v-935z" />
    <glyph glyph-name="braceright" unicode="}" horiz-adv-x="422" 
d="M387 239h-9c-103 0 -132 -73 -132 -174v-72c0 -120 -56 -186 -177 -186h-34v65h21c87 0 109 44 109 129v84c0 100 41 160 127 189c-85 30 -127 88 -127 190v84c0 85 -22 129 -109 129h-21v65h34c119 0 177 -64 177 -186v-71c0 -103 28 -174 132 -174h9v-72z" />
    <glyph glyph-name="asciitilde" unicode="~" horiz-adv-x="667" 
d="M602 277c-20 -15 -78 -62 -143 -62c-44 0 -73 11 -158 50c-15 7 -58 27 -89 27c-61 0 -115 -44 -147 -70v78c65 52 117 62 149 62c36 0 67 -10 143 -46c32 -15 67 -31 100 -31c61 0 115 45 145 70v-78z" />
    <glyph glyph-name="Adieresis" unicode="&#xc4;" horiz-adv-x="651" 
d="M641 0h-98l-70 203h-298l-70 -203h-95l255 727h121zM444 285l-121 353l-121 -353h242zM473 832c0 -39 -16 -52 -55 -52c-42 0 -53 19 -53 52c0 36 13 54 53 54c41 0 55 -17 55 -54zM280 832c0 -39 -16 -52 -55 -52c-42 0 -53 19 -53 52c0 36 13 54 53 54
c41 0 55 -17 55 -54z" />
    <glyph glyph-name="Aring" unicode="&#xc5;" horiz-adv-x="651" 
d="M641 0h-98l-70 203h-298l-70 -203h-95l246 702c-29 19 -42 53 -42 93c0 66 35 110 111 110c77 0 111 -42 111 -110c0 -42 -13 -74 -41 -92zM391 795c0 45 -23 68 -66 68c-42 0 -66 -25 -66 -68c0 -40 19 -68 66 -68s66 26 66 68zM444 285l-121 353l-121 -353h242z" />
    <glyph glyph-name="Ccedilla" unicode="&#xc7;" horiz-adv-x="675" 
d="M638 604l-76 -47c-24 44 -78 105 -182 105c-171 0 -230 -110 -230 -299c0 -197 65 -298 231 -298c89 0 142 36 179 67l56 -71c-66 -54 -143 -75 -228 -76c54 -15 80 -51 80 -90c0 -56 -50 -88 -127 -88c-50 0 -103 15 -119 24l26 50c19 -6 62 -16 95 -16
c38 0 58 11 58 36c0 34 -48 46 -87 48l20 38c-193 17 -282 138 -282 376c0 255 103 379 329 379c139 0 217 -63 257 -138z" />
    <glyph glyph-name="Eacute" unicode="&#xc9;" horiz-adv-x="584" 
d="M534 0h-454v727h454v-82h-361v-222h329v-82h-329v-259h361v-82zM477 956l-155 -176h-72l111 176h116z" />
    <glyph glyph-name="Ntilde" unicode="&#xd1;" horiz-adv-x="706" 
d="M626 0h-110l-347 639v-639h-89v727h139l318 -583v583h89v-727zM535 914c-3 -47 -15 -77 -35 -100s-47 -34 -80 -34c-32 0 -60 12 -84 33l-19 16l-15 12c-9 6 -19 8 -30 8c-15 0 -26 -5 -33 -17c-7 -13 -12 -28 -13 -52h-62c2 46 15 77 36 100s48 34 78 34
c31 0 60 -13 83 -33c18 -15 41 -34 66 -34c14 0 25 6 33 18s12 27 13 49h62z" />
    <glyph glyph-name="Odieresis" unicode="&#xd6;" horiz-adv-x="748" 
d="M696 363c0 -235 -83 -378 -322 -378s-322 144 -322 378c0 236 83 379 322 379s322 -143 322 -379zM598 363c0 193 -57 299 -224 299s-224 -106 -224 -299c0 -191 57 -298 224 -298s224 106 224 298zM523 832c0 -39 -16 -52 -55 -52c-42 0 -53 19 -53 52c0 36 13 54 53 54
c41 0 55 -17 55 -54zM330 832c0 -39 -16 -52 -55 -52c-42 0 -53 19 -53 52c0 36 13 54 53 54c41 0 55 -17 55 -54z" />
    <glyph glyph-name="Udieresis" unicode="&#xdc;" horiz-adv-x="686" 
d="M610 282c0 -218 -70 -297 -267 -297s-267 80 -267 297v445h93v-435c0 -163 38 -227 174 -227c141 0 174 68 174 225v437h93v-445zM493 832c0 -39 -16 -52 -55 -52c-42 0 -53 19 -53 52c0 36 13 54 53 54c41 0 55 -17 55 -54zM300 832c0 -39 -16 -52 -55 -52
c-42 0 -53 19 -53 52c0 36 13 54 53 54c41 0 55 -17 55 -54z" />
    <glyph glyph-name="aacute" unicode="&#xe1;" horiz-adv-x="531" 
d="M463 0h-88v64c-55 -45 -107 -79 -176 -79c-102 0 -161 66 -161 159c0 126 92 160 205 172c43 5 83 8 132 11v25c0 79 -49 102 -124 102c-66 0 -107 -19 -139 -48l-51 63c40 36 100 58 192 58c143 0 210 -43 210 -179v-348zM375 135v125l-86 -8c-94 -8 -160 -28 -160 -106
c0 -61 35 -86 97 -86c53 0 104 40 149 75zM427 766l-155 -176h-72l111 176h116z" />
    <glyph glyph-name="agrave" unicode="&#xe0;" horiz-adv-x="531" 
d="M463 0h-88v64c-55 -45 -107 -79 -176 -79c-102 0 -161 66 -161 159c0 126 92 160 205 172c43 5 83 8 132 11v25c0 79 -49 102 -124 102c-66 0 -107 -19 -139 -48l-51 63c40 36 100 58 192 58c143 0 210 -43 210 -179v-348zM375 135v125l-86 -8c-94 -8 -160 -28 -160 -106
c0 -61 35 -86 97 -86c53 0 104 40 149 75zM343 590h-72l-155 176h116z" />
    <glyph glyph-name="acircumflex" unicode="&#xe2;" horiz-adv-x="531" 
d="M463 0h-88v64c-55 -45 -107 -79 -176 -79c-102 0 -161 66 -161 159c0 126 92 160 205 172c43 5 83 8 132 11v25c0 79 -49 102 -124 102c-66 0 -107 -19 -139 -48l-51 63c40 36 100 58 192 58c143 0 210 -43 210 -179v-348zM375 135v125l-86 -8c-94 -8 -160 -28 -160 -106
c0 -61 35 -86 97 -86c53 0 104 40 149 75zM433 590h-77l-89 113l-89 -113h-77l114 176h105z" />
    <glyph glyph-name="adieresis" unicode="&#xe4;" horiz-adv-x="531" 
d="M463 0h-88v64c-55 -45 -107 -79 -176 -79c-102 0 -161 66 -161 159c0 126 92 160 205 172c43 5 83 8 132 11v25c0 79 -49 102 -124 102c-66 0 -107 -19 -139 -48l-51 63c40 36 100 58 192 58c143 0 210 -43 210 -179v-348zM375 135v125l-86 -8c-94 -8 -160 -28 -160 -106
c0 -61 35 -86 97 -86c53 0 104 40 149 75zM413 641c0 -39 -16 -52 -55 -52c-42 0 -53 19 -53 52c0 36 13 54 53 54c41 0 55 -17 55 -54zM220 641c0 -39 -16 -52 -55 -52c-42 0 -53 19 -53 52c0 36 13 54 53 54c41 0 55 -17 55 -54z" />
    <glyph glyph-name="atilde" unicode="&#xe3;" horiz-adv-x="531" 
d="M463 0h-88v64c-55 -45 -107 -79 -176 -79c-102 0 -161 66 -161 159c0 126 92 160 205 172c43 5 83 8 132 11v25c0 79 -49 102 -124 102c-66 0 -107 -19 -139 -48l-51 63c40 36 100 58 192 58c143 0 210 -43 210 -179v-348zM375 135v125l-86 -8c-94 -8 -160 -28 -160 -106
c0 -61 35 -86 97 -86c53 0 104 40 149 75zM445 745c-3 -47 -15 -77 -35 -100s-47 -34 -80 -34c-32 0 -60 12 -84 33l-19 16l-15 12c-9 6 -19 8 -30 8c-15 0 -26 -5 -33 -17c-7 -13 -12 -28 -13 -52h-62c2 46 15 77 36 100s48 34 78 34c31 0 60 -13 83 -33
c18 -15 41 -34 66 -34c14 0 25 6 33 18s12 27 13 49h62z" />
    <glyph glyph-name="aring" unicode="&#xe5;" horiz-adv-x="531" 
d="M463 0h-88v64c-55 -45 -107 -79 -176 -79c-102 0 -161 66 -161 159c0 126 92 160 205 172c43 5 83 8 132 11v25c0 79 -49 102 -124 102c-66 0 -107 -19 -139 -48l-51 63c40 36 100 58 192 58c143 0 210 -43 210 -179v-348zM375 135v125l-86 -8c-94 -8 -160 -28 -160 -106
c0 -61 35 -86 97 -86c53 0 104 40 149 75zM347 657c0 -56 -30 -92 -93 -92c-65 0 -92 39 -92 92c0 55 29 92 92 92c64 0 93 -36 93 -92zM303 657c0 34 -17 50 -49 50c-31 0 -48 -18 -48 -50c0 -30 14 -50 48 -50c35 0 49 18 49 50z" />
    <glyph glyph-name="ccedilla" unicode="&#xe7;" horiz-adv-x="493" 
d="M466 433l-73 -42c-25 39 -61 63 -114 63c-104 0 -146 -74 -146 -199c0 -116 34 -197 150 -197c53 0 91 23 118 45l53 -66c-30 -23 -80 -52 -174 -52h-1c54 -15 80 -51 80 -90c0 -56 -50 -88 -127 -88c-50 0 -103 15 -119 24l26 50c19 -6 62 -16 95 -16c38 0 58 11 58 36
c0 34 -48 46 -87 48l21 40c-135 21 -184 125 -184 266c0 166 68 272 239 272c88 0 150 -35 185 -94z" />
    <glyph glyph-name="eacute" unicode="&#xe9;" horiz-adv-x="520" 
d="M483 232h-350c0 -93 36 -174 149 -174c47 0 94 23 115 44l52 -65c-31 -25 -82 -52 -164 -52c-157 0 -243 77 -243 267c0 162 58 275 232 275c152 0 209 -92 209 -234v-61zM396 302c0 96 -33 155 -126 155c-84 0 -128 -54 -136 -155h262zM430 766l-155 -176h-72l111 176
h116z" />
    <glyph glyph-name="egrave" unicode="&#xe8;" horiz-adv-x="520" 
d="M483 232h-350c0 -93 36 -174 149 -174c47 0 94 23 115 44l52 -65c-31 -25 -82 -52 -164 -52c-157 0 -243 77 -243 267c0 162 58 275 232 275c152 0 209 -92 209 -234v-61zM396 302c0 96 -33 155 -126 155c-84 0 -128 -54 -136 -155h262zM345 590h-72l-155 176h116z" />
    <glyph glyph-name="ecircumflex" unicode="&#xea;" horiz-adv-x="520" 
d="M483 232h-350c0 -93 36 -174 149 -174c47 0 94 23 115 44l52 -65c-31 -25 -82 -52 -164 -52c-157 0 -243 77 -243 267c0 162 58 275 232 275c152 0 209 -92 209 -234v-61zM396 302c0 96 -33 155 -126 155c-84 0 -128 -54 -136 -155h262zM441 590h-77l-89 113l-89 -113
h-77l114 176h105z" />
    <glyph glyph-name="edieresis" unicode="&#xeb;" horiz-adv-x="520" 
d="M483 232h-350c0 -93 36 -174 149 -174c47 0 94 23 115 44l52 -65c-31 -25 -82 -52 -164 -52c-157 0 -243 77 -243 267c0 162 58 275 232 275c152 0 209 -92 209 -234v-61zM396 302c0 96 -33 155 -126 155c-84 0 -128 -54 -136 -155h262zM423 641c0 -39 -16 -52 -55 -52
c-42 0 -53 19 -53 52c0 36 13 54 53 54c41 0 55 -17 55 -54zM230 641c0 -39 -16 -52 -55 -52c-42 0 -53 19 -53 52c0 36 13 54 53 54c41 0 55 -17 55 -54z" />
    <glyph glyph-name="iacute" unicode="&#xed;" horiz-adv-x="288" 
d="M210 0h-88v442h-88v70h176v-512zM304 766l-155 -176h-72l111 176h116z" />
    <glyph glyph-name="igrave" unicode="&#xec;" horiz-adv-x="288" 
d="M210 0h-88v442h-88v70h176v-512zM213 590h-72l-155 176h116z" />
    <glyph glyph-name="icircumflex" unicode="&#xee;" horiz-adv-x="288" 
d="M210 0h-88v442h-88v70h176v-512zM310 590h-77l-89 113l-89 -113h-77l114 176h105z" />
    <glyph glyph-name="idieresis" unicode="&#xef;" horiz-adv-x="288" 
d="M210 0h-88v442h-88v70h176v-512zM294 641c0 -39 -16 -52 -55 -52c-42 0 -53 19 -53 52c0 36 13 54 53 54c41 0 55 -17 55 -54zM101 641c0 -39 -16 -52 -55 -52c-42 0 -53 19 -53 52c0 36 13 54 53 54c41 0 55 -17 55 -54z" />
    <glyph glyph-name="ntilde" unicode="&#xf1;" horiz-adv-x="566" 
d="M498 0h-88v302c0 100 -14 144 -91 144c-39 0 -99 -33 -159 -84v-362h-88v512h88v-76c56 53 121 91 178 91c111 0 160 -66 160 -195v-332zM475 745c-3 -47 -15 -77 -35 -100s-47 -34 -80 -34c-32 0 -60 12 -84 33l-19 16l-15 12c-9 6 -19 8 -30 8c-15 0 -26 -5 -33 -17
c-7 -13 -12 -28 -13 -52h-62c2 46 15 77 36 100s48 34 78 34c31 0 60 -13 83 -33c18 -15 41 -34 66 -34c14 0 25 6 33 18s12 27 13 49h62z" />
    <glyph glyph-name="oacute" unicode="&#xf3;" horiz-adv-x="557" 
d="M515 255c0 -161 -68 -270 -236 -270c-169 0 -237 109 -237 270c0 164 68 272 237 272c168 0 236 -109 236 -272zM424 255c0 117 -37 199 -145 199c-109 0 -146 -82 -146 -199c0 -114 37 -197 146 -197c107 0 145 83 145 197zM442 766l-155 -176h-72l111 176h116z" />
    <glyph glyph-name="ograve" unicode="&#xf2;" horiz-adv-x="557" 
d="M515 255c0 -161 -68 -270 -236 -270c-169 0 -237 109 -237 270c0 164 68 272 237 272c168 0 236 -109 236 -272zM424 255c0 117 -37 199 -145 199c-109 0 -146 -82 -146 -199c0 -114 37 -197 146 -197c107 0 145 83 145 197zM355 590h-72l-155 176h116z" />
    <glyph glyph-name="ocircumflex" unicode="&#xf4;" horiz-adv-x="557" 
d="M515 255c0 -161 -68 -270 -236 -270c-169 0 -237 109 -237 270c0 164 68 272 237 272c168 0 236 -109 236 -272zM424 255c0 117 -37 199 -145 199c-109 0 -146 -82 -146 -199c0 -114 37 -197 146 -197c107 0 145 83 145 197zM446 590h-77l-89 113l-89 -113h-77l114 176
h105z" />
    <glyph glyph-name="odieresis" unicode="&#xf6;" horiz-adv-x="557" 
d="M515 255c0 -161 -68 -270 -236 -270c-169 0 -237 109 -237 270c0 164 68 272 237 272c168 0 236 -109 236 -272zM424 255c0 117 -37 199 -145 199c-109 0 -146 -82 -146 -199c0 -114 37 -197 146 -197c107 0 145 83 145 197zM428 641c0 -39 -16 -52 -55 -52
c-42 0 -53 19 -53 52c0 36 13 54 53 54c41 0 55 -17 55 -54zM235 641c0 -39 -16 -52 -55 -52c-42 0 -53 19 -53 52c0 36 13 54 53 54c41 0 55 -17 55 -54z" />
    <glyph glyph-name="otilde" unicode="&#xf5;" horiz-adv-x="557" 
d="M515 255c0 -161 -68 -270 -236 -270c-169 0 -237 109 -237 270c0 164 68 272 237 272c168 0 236 -109 236 -272zM424 255c0 117 -37 199 -145 199c-109 0 -146 -82 -146 -199c0 -114 37 -197 146 -197c107 0 145 83 145 197zM465 745c-3 -47 -15 -77 -35 -100
s-47 -34 -80 -34c-32 0 -60 12 -84 33l-19 16l-15 12c-9 6 -19 8 -30 8c-15 0 -26 -5 -33 -17c-7 -13 -12 -28 -13 -52h-62c2 46 15 77 36 100s48 34 78 34c31 0 60 -13 83 -33c18 -15 41 -34 66 -34c14 0 25 6 33 18s12 27 13 49h62z" />
    <glyph glyph-name="uacute" unicode="&#xfa;" horiz-adv-x="566" 
d="M494 0h-88v76c-56 -53 -121 -91 -178 -91c-111 0 -160 66 -160 195v332h88v-302c0 -100 14 -144 91 -144c39 0 99 33 159 84v362h88v-512zM447 766l-155 -176h-72l111 176h116z" />
    <glyph glyph-name="ugrave" unicode="&#xf9;" horiz-adv-x="566" 
d="M494 0h-88v76c-56 -53 -121 -91 -178 -91c-111 0 -160 66 -160 195v332h88v-302c0 -100 14 -144 91 -144c39 0 99 33 159 84v362h88v-512zM360 590h-72l-155 176h116z" />
    <glyph glyph-name="ucircumflex" unicode="&#xfb;" horiz-adv-x="566" 
d="M494 0h-88v76c-56 -53 -121 -91 -178 -91c-111 0 -160 66 -160 195v332h88v-302c0 -100 14 -144 91 -144c39 0 99 33 159 84v362h88v-512zM446 590h-77l-89 113l-89 -113h-77l114 176h105z" />
    <glyph glyph-name="udieresis" unicode="&#xfc;" horiz-adv-x="566" 
d="M494 0h-88v76c-56 -53 -121 -91 -178 -91c-111 0 -160 66 -160 195v332h88v-302c0 -100 14 -144 91 -144c39 0 99 33 159 84v362h88v-512zM427 641c0 -39 -16 -52 -55 -52c-42 0 -53 19 -53 52c0 36 13 54 53 54c41 0 55 -17 55 -54zM234 641c0 -39 -16 -52 -55 -52
c-42 0 -53 19 -53 52c0 36 13 54 53 54c41 0 55 -17 55 -54z" />
    <glyph glyph-name="dagger" unicode="&#x2020;" horiz-adv-x="525" 
d="M490 409l-194 11l15 -613h-99l16 613l-193 -11v90l193 -12l-13 255h93l-12 -255l194 12v-90z" />
    <glyph glyph-name="degree" unicode="&#xb0;" horiz-adv-x="393" 
d="M354 595c0 -84 -68 -149 -148 -149c-81 0 -148 65 -148 149c0 82 67 147 147 147c84 0 149 -67 149 -147zM292 592c0 48 -32 88 -87 88s-85 -42 -85 -84c0 -48 32 -88 85 -88s87 40 87 84z" />
    <glyph glyph-name="cent" unicode="&#xa2;" horiz-adv-x="493" 
d="M466 465l-73 -42c-10 16 -19 28 -32 37l-119 -366c12 -3 24 -4 41 -4c53 0 91 23 118 45l53 -66c-30 -23 -80 -52 -174 -52c-24 0 -43 1 -61 5l-62 -188h-72l69 210c-80 41 -112 130 -112 243c0 166 68 272 239 272c14 0 26 -1 39 -3l61 186h72l-67 -204
c33 -15 61 -40 80 -73zM297 485c-6 1 -11 1 -18 1c-105 0 -146 -74 -146 -199c0 -71 12 -127 48 -161z" />
    <glyph glyph-name="sterling" unicode="&#xa3;" horiz-adv-x="603" 
d="M567 0h-527v82c89 20 103 165 94 227h-81v68h70c-9 38 -34 96 -34 171c0 132 101 194 238 194c107 0 185 -36 232 -115l-77 -47c-30 50 -85 82 -152 82c-102 0 -145 -43 -145 -126c0 -56 27 -118 35 -159h194v-68h-184c9 -71 -13 -175 -85 -227h422v-82z" />
    <glyph glyph-name="section" unicode="&#xa7;" horiz-adv-x="501" 
d="M463 262c0 -80 -56 -124 -117 -164c44 -32 89 -74 89 -133c0 -116 -92 -158 -195 -158c-74 0 -144 18 -189 80l64 51c33 -37 74 -53 123 -53c54 0 106 12 106 76c0 102 -306 140 -306 325c0 78 56 128 117 167c-44 33 -86 73 -86 132c0 115 91 157 194 157
c72 0 145 -18 189 -79l-64 -52c-30 37 -76 53 -123 53c-52 0 -105 -13 -105 -75c0 -102 303 -149 303 -327zM378 258c0 64 -107 122 -156 152c-40 -27 -99 -67 -99 -121c0 -65 108 -121 157 -149c40 28 98 63 98 118z" />
    <glyph glyph-name="bullet" unicode="&#x2022;" horiz-adv-x="358" 
d="M310 365c0 -72 -59 -131 -131 -131s-131 59 -131 131s59 131 131 131s131 -59 131 -131z" />
    <glyph glyph-name="paragraph" unicode="&#xb6;" horiz-adv-x="595" 
d="M575 660h-92v-853h-80v853h-93v-853h-80v508c-116 0 -210 66 -210 207c0 126 91 205 234 205h321v-67z" />
    <glyph glyph-name="germandbls" unicode="&#xdf;" horiz-adv-x="565" 
d="M523 224c0 -143 -56 -239 -210 -239c-28 0 -68 7 -98 15v79c28 -10 63 -20 95 -20c86 0 122 59 122 169c0 130 -89 152 -205 152v74c89 0 157 25 157 121c0 64 -38 94 -108 94c-97 0 -120 -65 -120 -160v-509h-88v505c0 137 41 237 210 237c117 0 195 -49 195 -158
c0 -102 -55 -146 -131 -158c119 -13 181 -91 181 -202z" />
    <glyph glyph-name="registered" unicode="&#xae;" horiz-adv-x="944" 
d="M894 320c0 -117 -40 -216 -123 -299s-182 -124 -299 -124s-216 41 -299 124s-123 182 -123 299s40 215 123 298s182 124 299 124s216 -41 299 -124s123 -181 123 -298zM822 320c0 194 -156 352 -350 352s-350 -158 -350 -352s156 -353 350 -353s350 159 350 353zM656 105
h-79l-34 133c-9 34 -26 47 -50 47h-103v-180h-77v447h155c102 0 169 -26 169 -125c0 -58 -23 -93 -61 -111c20 -8 32 -30 40 -59zM559 422c0 48 -23 64 -91 64h-78v-135h74c74 0 95 17 95 71z" />
    <glyph glyph-name="copyright" unicode="&#xa9;" horiz-adv-x="944" 
d="M894 320c0 -117 -40 -216 -123 -299s-182 -124 -299 -124s-216 41 -299 124s-123 182 -123 299s40 215 123 298s182 124 299 124s216 -41 299 -124s123 -181 123 -298zM822 320c0 194 -156 352 -350 352s-350 -158 -350 -352s156 -353 350 -353s350 159 350 353zM660 460
l-64 -39c-19 33 -49 67 -108 67c-96 0 -131 -58 -131 -167c0 -113 38 -165 132 -165c51 0 81 20 111 44l48 -58c-52 -41 -103 -53 -159 -53c-146 0 -213 77 -213 232c0 154 67 234 213 234c89 0 140 -40 171 -95z" />
    <glyph glyph-name="trademark" unicode="&#x2122;" horiz-adv-x="755" 
d="M715 378h-67v236l-78 -147h-43l-76 146v-235h-67v349h80l85 -168l88 168h78v-349zM306 665h-107v-287h-69v287h-108v62h284v-62z" />
    <glyph glyph-name="acute" unicode="&#xb4;" horiz-adv-x="500" 
d="M407 766l-155 -176h-72l111 176h116z" />
    <glyph glyph-name="dieresis" unicode="&#xa8;" horiz-adv-x="500" 
d="M403 641c0 -39 -16 -52 -55 -52c-42 0 -53 19 -53 52c0 36 13 54 53 54c41 0 55 -17 55 -54zM210 641c0 -39 -16 -52 -55 -52c-42 0 -53 19 -53 52c0 36 13 54 53 54c41 0 55 -17 55 -54z" />
    <glyph glyph-name="AE" unicode="&#xc6;" horiz-adv-x="886" 
d="M836 0h-414v203h-240l-77 -203h-95l279 727h547v-82h-321v-222h289v-82h-289v-259h321v-82zM422 285v360h-72l-137 -360h209z" />
    <glyph glyph-name="Oslash" unicode="&#xd8;" horiz-adv-x="748" 
d="M696 363c0 -235 -83 -378 -322 -378c-80 0 -143 16 -186 44l-59 -85h-83l89 129c-57 63 -83 163 -83 290c0 236 83 379 322 379c81 0 145 -16 190 -46l46 68h82l-76 -112c57 -65 80 -163 80 -289zM513 623c-33 25 -79 39 -139 39c-167 0 -224 -106 -224 -299
c0 -89 13 -161 41 -208zM598 363c0 89 -12 157 -39 207l-321 -467c32 -24 77 -38 136 -38c167 0 224 106 224 298z" />
    <glyph glyph-name="plusminus" unicode="&#xb1;" horiz-adv-x="667" 
d="M602 307h-234v-187h-70v187h-233v70h233v213h70v-213h234v-70zM602 0h-537v70h537v-70z" />
    <glyph glyph-name="yen" unicode="&#xa5;" horiz-adv-x="607" 
d="M602 727l-191 -328h146v-63h-183l-24 -41v-38h207v-63h-207v-194h-93v194h-206v63h206v34l-26 45h-180v63h143l-189 328h105l195 -346l197 346h100z" />
    <glyph glyph-name="mu" unicode="&#xb5;" horiz-adv-x="562" 
d="M494 0h-83l-5 58c-38 -49 -76 -73 -129 -73c-47 0 -79 7 -121 40v-218h-88v705h88v-386c26 -33 74 -56 120 -56c48 0 93 23 130 69v373h88v-512z" />
    <glyph glyph-name="ordfeminine" unicode="&#xaa;" horiz-adv-x="367" 
d="M317 399h-69v35c-33 -25 -66 -44 -109 -44c-69 0 -110 43 -110 105c0 84 65 106 138 114c27 3 51 5 81 7v10c0 45 -28 59 -75 59c-42 0 -67 -12 -91 -33l-40 49c28 26 74 41 135 41c93 0 140 -29 140 -118v-225zM248 492v70l-50 -4c-62 -5 -99 -17 -99 -61
c0 -35 20 -49 58 -49c31 0 62 22 91 44z" />
    <glyph glyph-name="ordmasculine" unicode="&#xba;" horiz-adv-x="388" 
d="M353 565c0 -103 -45 -175 -159 -175s-159 71 -159 175c0 105 45 177 159 177s159 -72 159 -177zM283 565c0 73 -24 120 -89 120c-66 0 -89 -47 -89 -120c0 -71 23 -119 89 -119c65 0 89 48 89 119z" />
    <glyph glyph-name="ae" unicode="&#xe6;" horiz-adv-x="830" 
d="M793 232h-340c0 -90 33 -174 144 -174c43 0 89 23 110 44l52 -65c-31 -25 -82 -52 -159 -52c-76 0 -149 18 -196 89c-55 -45 -141 -89 -210 -89c-96 0 -156 66 -156 159c0 126 93 160 200 172c43 5 78 8 127 11v25c0 79 -44 102 -119 102c-63 0 -102 -19 -134 -48l-51 63
c40 36 98 58 187 58c90 0 145 -23 177 -74c32 44 82 74 164 74c148 0 204 -92 204 -234v-61zM706 302c0 96 -32 155 -121 155c-81 0 -125 -44 -131 -155h252zM378 133c-8 22 -13 55 -13 89v38c-26 -2 -46 -5 -81 -8c-90 -7 -155 -28 -155 -106c0 -61 35 -87 92 -86
c53 1 112 38 157 73z" />
    <glyph glyph-name="oslash" unicode="&#xf8;" horiz-adv-x="557" 
d="M521 549l-64 -93c39 -45 58 -116 58 -201c0 -161 -68 -270 -236 -270c-52 0 -93 10 -126 29l-35 -51h-78l62 91c-40 45 -60 116 -60 201c0 164 68 272 237 272c53 0 99 -12 128 -30l36 52h78zM362 431c-18 13 -48 23 -83 23c-109 0 -146 -82 -146 -199
c0 -50 7 -91 23 -124zM424 255c0 49 -6 90 -21 123l-204 -298c18 -14 46 -22 80 -22c108 0 145 83 145 197z" />
    <glyph glyph-name="questiondown" unicode="&#xbf;" horiz-adv-x="494" 
d="M348 469c0 -41 -17 -58 -62 -58c-46 0 -63 17 -63 58c0 43 20 58 63 58c48 0 62 -21 62 -58zM476 -92c-34 -59 -100 -101 -210 -101c-129 0 -228 56 -228 186c0 64 19 107 61 149c41 40 95 72 145 100v92h87v-129c-44 -25 -94 -49 -132 -83c-39 -35 -64 -70 -64 -122
c0 -73 47 -113 130 -113c72 0 111 30 135 69z" />
    <glyph glyph-name="exclamdown" unicode="&#xa1;" horiz-adv-x="247" 
d="M186 469c0 -41 -17 -58 -62 -58c-46 0 -63 17 -63 58c0 43 20 58 63 58c48 0 62 -21 62 -58zM175 -193h-103l12 517h77z" />
    <glyph glyph-name="logicalnot" unicode="&#xac;" horiz-adv-x="667" 
d="M602 141h-70v225h-467v70h537v-295z" />
    <glyph glyph-name="florin" unicode="&#x192;" horiz-adv-x="507" 
d="M509 723l-24 -75c-27 9 -52 18 -81 18c-30 0 -48 -5 -66 -89l-14 -65h102l-15 -72h-103l-107 -496c-9 -41 -30 -138 -139 -138c-46 0 -87 11 -111 19l18 70c24 -7 47 -13 80 -13c42 0 56 17 77 115l94 443h-84l16 72h84l16 69c26 113 65 161 154 161c22 0 42 -3 59 -7
s32 -8 44 -12z" />
    <glyph glyph-name="guillemotleft" unicode="&#xab;" horiz-adv-x="568" 
d="M547 26h-96l-192 230l192 230h96l-192 -230zM308 26h-96l-192 230l192 230h96l-192 -230z" />
    <glyph glyph-name="guillemotright" unicode="&#xbb;" horiz-adv-x="568" 
d="M548 256l-192 -230h-96l192 230l-192 230h96zM309 256l-192 -230h-96l192 230l-192 230h96z" />
    <glyph glyph-name="ellipsis" unicode="&#x2026;" horiz-adv-x="1000" 
d="M895 51c0 -43 -20 -58 -63 -58c-48 0 -62 21 -62 58c0 41 17 58 62 58c46 0 63 -17 63 -58zM562 51c0 -43 -20 -58 -63 -58c-48 0 -62 21 -62 58c0 41 17 58 62 58c46 0 63 -17 63 -58zM229 51c0 -43 -20 -58 -63 -58c-48 0 -62 21 -62 58c0 41 17 58 62 58
c46 0 63 -17 63 -58z" />
    <glyph glyph-name="Agrave" unicode="&#xc0;" horiz-adv-x="651" 
d="M641 0h-98l-70 203h-298l-70 -203h-95l255 727h121zM444 285l-121 353l-121 -353h242zM400 780h-72l-155 176h116z" />
    <glyph glyph-name="Atilde" unicode="&#xc3;" horiz-adv-x="651" 
d="M641 0h-98l-70 203h-298l-70 -203h-95l255 727h121zM444 285l-121 353l-121 -353h242zM505 914c-3 -47 -15 -77 -35 -100s-47 -34 -80 -34c-32 0 -60 12 -84 33l-19 16l-15 12c-9 6 -19 8 -30 8c-15 0 -26 -5 -33 -17c-7 -13 -12 -28 -13 -52h-62c2 46 15 77 36 100
s48 34 78 34c31 0 60 -13 83 -33c18 -15 41 -34 66 -34c14 0 25 6 33 18s12 27 13 49h62z" />
    <glyph glyph-name="Otilde" unicode="&#xd5;" horiz-adv-x="748" 
d="M696 363c0 -235 -83 -378 -322 -378s-322 144 -322 378c0 236 83 379 322 379s322 -143 322 -379zM598 363c0 193 -57 299 -224 299s-224 -106 -224 -299c0 -191 57 -298 224 -298s224 106 224 298zM555 914c-3 -47 -15 -77 -35 -100s-47 -34 -80 -34
c-32 0 -60 12 -84 33l-19 16l-15 12c-9 6 -19 8 -30 8c-15 0 -26 -5 -33 -17c-7 -13 -12 -28 -13 -52h-62c2 46 15 77 36 100s48 34 78 34c31 0 60 -13 83 -33c18 -15 41 -34 66 -34c14 0 25 6 33 18s12 27 13 49h62z" />
    <glyph glyph-name="OE" unicode="&#x152;" horiz-adv-x="944" 
d="M894 0h-401c-35 -10 -74 -15 -119 -15c-239 0 -322 144 -322 378c0 236 83 379 322 379c45 0 84 -5 119 -15h401v-82h-321v-222h289v-82h-289v-259h321v-82zM480 85v557c-29 13 -64 20 -106 20c-167 0 -224 -106 -224 -299c0 -191 57 -298 224 -298c42 0 77 7 106 20z
" />
    <glyph glyph-name="oe" unicode="&#x153;" horiz-adv-x="879" 
d="M842 232h-340c0 -93 36 -174 144 -174c44 0 89 23 110 44l52 -65c-31 -25 -81 -52 -159 -52c-90 0 -150 32 -192 93c-39 -56 -94 -93 -183 -93c-164 0 -232 109 -232 270c0 164 66 272 232 272c89 0 148 -40 183 -94c35 56 90 94 181 94c148 0 204 -92 204 -234v-61z
M755 302c0 96 -31 155 -121 155c-84 0 -126 -51 -131 -155h252zM414 255c0 117 -32 199 -140 199c-105 0 -141 -82 -141 -199c0 -114 35 -197 141 -197c107 0 140 83 140 197z" />
    <glyph glyph-name="endash" unicode="&#x2013;" horiz-adv-x="500" 
d="M506 220h-512v74h512v-74z" />
    <glyph glyph-name="emdash" unicode="&#x2014;" horiz-adv-x="1000" 
d="M1006 220h-1012v74h1012v-74z" />
    <glyph glyph-name="quotedblleft" unicode="&#x201c;" horiz-adv-x="463" 
d="M402 532c0 -38 -17 -58 -62 -58c-46 0 -63 24 -63 68c0 83 31 153 63 200h57c-28 -42 -53 -103 -53 -136c0 -8 0 -12 1 -16c40 0 57 -17 57 -58zM186 532c0 -38 -17 -58 -62 -58c-46 0 -63 24 -63 68c0 83 31 153 63 200h57c-28 -42 -53 -103 -53 -136c0 -8 0 -12 1 -16
c40 0 57 -17 57 -58z" />
    <glyph glyph-name="quotedblright" unicode="&#x201d;" horiz-adv-x="463" 
d="M402 674c0 -83 -31 -153 -63 -200h-57c28 42 53 103 53 136c0 8 0 12 -1 16c-40 0 -57 17 -57 58c0 38 17 58 62 58c46 0 63 -24 63 -68zM186 674c0 -83 -31 -153 -63 -200h-57c28 42 53 103 53 136c0 8 0 12 -1 16c-40 0 -57 17 -57 58c0 38 17 58 62 58
c46 0 63 -24 63 -68z" />
    <glyph glyph-name="quoteleft" unicode="&#x2018;" horiz-adv-x="247" 
d="M186 532c0 -38 -17 -58 -62 -58c-46 0 -63 24 -63 68c0 83 31 153 63 200h57c-28 -42 -53 -103 -53 -136c0 -8 0 -12 1 -16c40 0 57 -17 57 -58z" />
    <glyph glyph-name="quoteright" unicode="&#x2019;" horiz-adv-x="247" 
d="M186 674c0 -83 -31 -153 -63 -200h-57c28 42 53 103 53 136c0 8 0 12 -1 16c-40 0 -57 17 -57 58c0 38 17 58 62 58c46 0 63 -24 63 -68z" />
    <glyph glyph-name="divide" unicode="&#xf7;" horiz-adv-x="667" 
d="M384 508c0 -37 -16 -49 -52 -49c-39 0 -50 18 -50 49c0 34 12 51 50 51s52 -16 52 -51zM602 253h-537v70h537v-70zM384 66c0 -37 -16 -49 -52 -49c-39 0 -50 18 -50 49c0 34 12 51 50 51s52 -16 52 -51z" />
    <glyph glyph-name="ydieresis" unicode="&#xff;" horiz-adv-x="507" 
d="M499 512l-230 -551c-47 -113 -99 -154 -186 -154c-32 0 -72 7 -94 15l22 69c19 -9 54 -14 77 -14c42 0 78 37 105 107l17 44l-196 484h96l148 -375l149 375h92zM408 641c0 -39 -16 -52 -55 -52c-42 0 -53 19 -53 52c0 36 13 54 53 54c41 0 55 -17 55 -54zM215 641
c0 -39 -16 -52 -55 -52c-42 0 -53 19 -53 52c0 36 13 54 53 54c41 0 55 -17 55 -54z" />
    <glyph glyph-name="Ydieresis" unicode="&#x178;" horiz-adv-x="607" 
d="M602 727l-252 -432v-295h-93v291l-252 436h105l195 -346l197 346h100zM456 832c0 -39 -16 -52 -55 -52c-42 0 -53 19 -53 52c0 36 13 54 53 54c41 0 55 -17 55 -54zM263 832c0 -39 -16 -52 -55 -52c-42 0 -53 19 -53 52c0 36 13 54 53 54c41 0 55 -17 55 -54z" />
    <glyph glyph-name="fraction" unicode="&#x2044;" horiz-adv-x="100" 
d="M288 727l-392 -878h-83l391 878h84z" />
    <glyph glyph-name="currency" unicode="&#xa4;" horiz-adv-x="572" 
d="M536 158l-44 -44l-95 93c-38 -27 -73 -34 -111 -34c-37 0 -75 10 -109 35l-96 -94l-45 44l95 97c-24 33 -35 72 -35 109c0 38 9 77 34 110l-94 95l45 45l94 -93c35 26 74 37 111 37c38 0 77 -10 112 -36l94 92l44 -45l-91 -93c26 -35 36 -74 36 -112s-12 -74 -37 -111z
M410 364c0 67 -49 126 -124 126c-71 0 -119 -58 -119 -126c0 -67 51 -123 119 -123c72 0 124 55 124 123z" />
    <glyph glyph-name="guilsinglleft" unicode="&#x2039;" horiz-adv-x="329" 
d="M308 26h-96l-192 230l192 230h96l-192 -230z" />
    <glyph glyph-name="guilsinglright" unicode="&#x203a;" horiz-adv-x="329" 
d="M309 256l-192 -230h-96l192 230l-192 230h96z" />
    <glyph glyph-name="daggerdbl" unicode="&#x2021;" horiz-adv-x="508" 
d="M473 24l-185 12l13 -229h-94l13 229l-185 -12v91l185 -12l-9 171l9 171l-185 -12v91l185 -12l-13 230h94l-13 -230l185 12v-91l-185 12l9 -171l-9 -171l185 12v-91z" />
    <glyph glyph-name="periodcentered" unicode="&#xb7;" horiz-adv-x="247" 
d="M186 288c0 -43 -20 -58 -63 -58c-48 0 -62 21 -62 58c0 41 17 58 62 58c46 0 63 -17 63 -58z" />
    <glyph glyph-name="quotesinglbase" unicode="&#x201a;" horiz-adv-x="247" 
d="M186 41c0 -83 -31 -153 -63 -200h-57c28 42 53 103 53 136c0 8 0 12 -1 16c-40 0 -57 17 -57 58c0 38 17 58 62 58c46 0 63 -24 63 -68z" />
    <glyph glyph-name="quotedblbase" unicode="&#x201e;" horiz-adv-x="463" 
d="M402 41c0 -83 -31 -153 -63 -200h-57c28 42 53 103 53 136c0 8 0 12 -1 16c-40 0 -57 17 -57 58c0 38 17 58 62 58c46 0 63 -24 63 -68zM186 41c0 -83 -31 -153 -63 -200h-57c28 42 53 103 53 136c0 8 0 12 -1 16c-40 0 -57 17 -57 58c0 38 17 58 62 58
c46 0 63 -24 63 -68z" />
    <glyph glyph-name="perthousand" unicode="&#x2030;" horiz-adv-x="1456" 
d="M1416 64c0 -78 -17 -135 -50 -173s-81 -57 -144 -57c-64 0 -112 19 -145 57s-49 95 -49 173s17 136 50 174s81 57 144 57c64 0 112 -20 145 -58s49 -96 49 -173zM956 64c0 -78 -17 -135 -50 -173s-81 -57 -144 -57c-64 0 -112 19 -145 57s-49 95 -49 173s17 136 50 174
s81 57 144 57c64 0 112 -20 145 -58s49 -96 49 -173zM734 727l-392 -878h-79l391 878h80zM428 511c0 -78 -17 -135 -50 -173s-81 -57 -144 -57c-64 0 -112 19 -145 57s-49 95 -49 173s17 136 50 174s81 57 144 57c64 0 112 -20 145 -58s49 -96 49 -173zM1325 64
c0 60 -10 104 -26 128s-42 36 -77 36c-36 0 -62 -12 -77 -36s-26 -68 -26 -128s11 -104 26 -128s41 -35 77 -35c35 0 61 11 77 35s26 67 26 128zM865 64c0 60 -10 104 -26 128s-42 36 -77 36c-36 0 -62 -12 -77 -36s-26 -68 -26 -128s11 -104 26 -128s41 -35 77 -35
c35 0 61 11 77 35s26 67 26 128zM337 511c0 60 -10 104 -26 128s-42 36 -77 36c-36 0 -62 -12 -77 -36s-26 -68 -26 -128s11 -104 26 -128s41 -35 77 -35c35 0 61 11 77 35s26 67 26 128z" />
    <glyph glyph-name="Acircumflex" unicode="&#xc2;" horiz-adv-x="651" 
d="M641 0h-98l-70 203h-298l-70 -203h-95l255 727h121zM444 285l-121 353l-121 -353h242zM486 780h-77l-89 113l-89 -113h-77l114 176h105z" />
    <glyph glyph-name="Ecircumflex" unicode="&#xca;" horiz-adv-x="584" 
d="M534 0h-454v727h454v-82h-361v-222h329v-82h-329v-259h361v-82zM476 780h-77l-89 113l-89 -113h-77l114 176h105z" />
    <glyph glyph-name="Aacute" unicode="&#xc1;" horiz-adv-x="651" 
d="M641 0h-98l-70 203h-298l-70 -203h-95l255 727h121zM444 285l-121 353l-121 -353h242zM467 956l-155 -176h-72l111 176h116z" />
    <glyph glyph-name="Edieresis" unicode="&#xcb;" horiz-adv-x="584" 
d="M534 0h-454v727h454v-82h-361v-222h329v-82h-329v-259h361v-82zM463 832c0 -39 -16 -52 -55 -52c-42 0 -53 19 -53 52c0 36 13 54 53 54c41 0 55 -17 55 -54zM270 832c0 -39 -16 -52 -55 -52c-42 0 -53 19 -53 52c0 36 13 54 53 54c41 0 55 -17 55 -54z" />
    <glyph glyph-name="Egrave" unicode="&#xc8;" horiz-adv-x="584" 
d="M534 0h-454v727h454v-82h-361v-222h329v-82h-329v-259h361v-82zM370 780h-72l-155 176h116z" />
    <glyph glyph-name="Iacute" unicode="&#xcd;" horiz-adv-x="363" 
d="M319 0h-275v73h91v581h-91v73h275v-73h-91v-581h91v-73zM337 956l-155 -176h-72l111 176h116z" />
    <glyph glyph-name="Icircumflex" unicode="&#xce;" horiz-adv-x="363" 
d="M320 0h-275v73h91v581h-91v73h275v-73h-91v-581h91v-73zM347 780h-77l-89 113l-89 -113h-77l114 176h105z" />
    <glyph glyph-name="Idieresis" unicode="&#xcf;" horiz-adv-x="363" 
d="M320 0h-275v73h91v581h-91v73h275v-73h-91v-581h91v-73zM333 832c0 -39 -16 -52 -55 -52c-42 0 -53 19 -53 52c0 36 13 54 53 54c41 0 55 -17 55 -54zM140 832c0 -39 -16 -52 -55 -52c-42 0 -53 19 -53 52c0 36 13 54 53 54c41 0 55 -17 55 -54z" />
    <glyph glyph-name="Igrave" unicode="&#xcc;" horiz-adv-x="363" 
d="M319 0h-275v73h91v581h-91v73h275v-73h-91v-581h91v-73zM250 780h-72l-155 176h116z" />
    <glyph glyph-name="Oacute" unicode="&#xd3;" horiz-adv-x="748" 
d="M696 363c0 -235 -83 -378 -322 -378s-322 144 -322 378c0 236 83 379 322 379s322 -143 322 -379zM598 363c0 193 -57 299 -224 299s-224 -106 -224 -299c0 -191 57 -298 224 -298s224 106 224 298zM523 956l-153 -176h-72l110 176h115z" />
    <glyph glyph-name="Ocircumflex" unicode="&#xd4;" horiz-adv-x="748" 
d="M696 363c0 -235 -83 -378 -322 -378s-322 144 -322 378c0 236 83 379 322 379s322 -143 322 -379zM598 363c0 193 -57 299 -224 299s-224 -106 -224 -299c0 -191 57 -298 224 -298s224 106 224 298zM539 780h-77l-89 113l-89 -113h-77l114 176h105z" />
    <glyph glyph-name="Ograve" unicode="&#xd2;" horiz-adv-x="748" 
d="M696 363c0 -235 -83 -378 -322 -378s-322 144 -322 378c0 236 83 379 322 379s322 -143 322 -379zM598 363c0 193 -57 299 -224 299s-224 -106 -224 -299c0 -191 57 -298 224 -298s224 106 224 298zM440 780h-72l-155 176h116z" />
    <glyph glyph-name="Uacute" unicode="&#xda;" horiz-adv-x="686" 
d="M610 282c0 -218 -70 -297 -267 -297s-267 80 -267 297v445h93v-435c0 -163 38 -227 174 -227c141 0 174 68 174 225v437h93v-445zM508 956l-155 -176h-72l111 176h116z" />
    <glyph glyph-name="Ucircumflex" unicode="&#xdb;" horiz-adv-x="686" 
d="M610 282c0 -218 -70 -297 -267 -297s-267 80 -267 297v445h93v-435c0 -163 38 -227 174 -227c141 0 174 68 174 225v437h93v-445zM512 780h-77l-89 113l-89 -113h-77l114 176h105z" />
    <glyph glyph-name="Ugrave" unicode="&#xd9;" horiz-adv-x="686" 
d="M610 282c0 -218 -70 -297 -267 -297s-267 80 -267 297v445h93v-435c0 -163 38 -227 174 -227c141 0 174 68 174 225v437h93v-445zM420 780h-72l-155 176h116z" />
    <glyph glyph-name="circumflex" unicode="&#x2c6;" horiz-adv-x="500" 
d="M416 590h-77l-89 113l-89 -113h-77l114 176h105z" />
    <glyph glyph-name="tilde" unicode="&#x2dc;" horiz-adv-x="500" 
d="M435 745c-3 -47 -15 -77 -35 -100s-47 -34 -80 -34c-32 0 -60 12 -84 33l-19 16l-15 12c-9 6 -19 8 -30 8c-15 0 -26 -5 -33 -17c-7 -13 -12 -28 -13 -52h-62c2 46 15 77 36 100s48 34 78 34c31 0 60 -13 83 -33c18 -15 41 -34 66 -34c14 0 25 6 33 18s12 27 13 49h62z
" />
    <glyph glyph-name="macron" unicode="&#xaf;" horiz-adv-x="500" 
d="M401 643h-301v71h301v-71z" />
    <glyph glyph-name="breve" unicode="&#x2d8;" horiz-adv-x="500" 
d="M412 747c-13 -36 -49 -138 -164 -138c-108 0 -144 94 -160 138h65c25 -41 46 -60 96 -60c45 0 75 20 98 60h65z" />
    <glyph glyph-name="dotaccent" unicode="&#x2d9;" horiz-adv-x="500" 
d="M300 642c0 -39 -16 -53 -54 -53c-43 0 -53 20 -53 53c0 36 13 53 53 53s54 -17 54 -53z" />
    <glyph glyph-name="ring" unicode="&#x2da;" horiz-adv-x="500" 
d="M342 657c0 -56 -30 -92 -93 -92c-65 0 -92 39 -92 92c0 55 29 92 92 92c64 0 93 -36 93 -92zM298 657c0 34 -17 50 -49 50c-31 0 -48 -18 -48 -50c0 -30 14 -50 48 -50c35 0 49 18 49 50z" />
    <glyph glyph-name="cedilla" unicode="&#xb8;" horiz-adv-x="500" 
d="M348 -105c0 -56 -50 -88 -127 -88c-50 0 -103 15 -119 24l26 50c19 -6 62 -16 95 -16c38 0 58 11 58 36c0 34 -48 46 -87 48l31 60h55l-12 -24c54 -15 80 -51 80 -90z" />
    <glyph glyph-name="hungarumlaut" unicode="&#x2dd;" horiz-adv-x="500" 
d="M446 766l-155 -176h-72l111 176h116zM277 766l-155 -176h-72l111 176h116z" />
    <glyph glyph-name="ogonek" unicode="&#x2db;" horiz-adv-x="500" 
d="M390 -159c-30 -18 -73 -34 -121 -34c-77 0 -113 47 -113 106c0 50 15 94 24 118h71c-13 -32 -22 -59 -22 -86c0 -37 18 -68 59 -68c28 0 53 8 76 19z" />
    <glyph glyph-name="caron" unicode="&#x2c7;" horiz-adv-x="500" 
d="M416 766l-114 -176h-105l-113 176h77l89 -113l89 113h77z" />
    <glyph glyph-name="uni00A0" unicode="&#xa0;" horiz-adv-x="240" 
 />
    <glyph glyph-name="uni00AD" unicode="&#xad;" horiz-adv-x="374" 
d="M339 213h-304v88h304v-88z" />
    <glyph glyph-name="Amacron" unicode="&#x100;" horiz-adv-x="651" 
d="M476 780h-301v71h301v-71zM641 0h-98l-70 203h-298l-70 -203h-95l255 727h121zM444 285l-121 353l-121 -353h242z" />
    <glyph glyph-name="amacron" unicode="&#x101;" horiz-adv-x="531" 
d="M463 0h-88v64c-55 -45 -107 -79 -176 -79c-102 0 -161 66 -161 159c0 126 92 160 205 172c43 5 83 8 132 11v25c0 79 -49 102 -124 102c-66 0 -107 -19 -139 -48l-51 63c40 36 100 58 192 58c143 0 210 -43 210 -179v-348zM375 135v125l-86 -8c-94 -8 -160 -28 -160 -106
c0 -61 35 -86 97 -86c53 0 104 40 149 75zM411 606h-301v71h301v-71z" />
    <glyph glyph-name="Abreve" unicode="&#x102;" horiz-adv-x="651" 
d="M641 0h-98l-70 203h-298l-70 -203h-95l255 727h121zM444 285l-121 353l-121 -353h242zM487 918c-13 -36 -49 -138 -164 -138c-108 0 -144 94 -160 138h65c25 -41 46 -60 96 -60c45 0 75 20 98 60h65z" />
    <glyph glyph-name="abreve" unicode="&#x103;" horiz-adv-x="531" 
d="M463 0h-88v64c-55 -45 -107 -79 -176 -79c-102 0 -161 66 -161 159c0 126 92 160 205 172c43 5 83 8 132 11v25c0 79 -49 102 -124 102c-66 0 -107 -19 -139 -48l-51 63c40 36 100 58 192 58c143 0 210 -43 210 -179v-348zM375 135v125l-86 -8c-94 -8 -160 -28 -160 -106
c0 -61 35 -86 97 -86c53 0 104 40 149 75zM424 747c-13 -36 -49 -138 -164 -138c-108 0 -144 94 -160 138h65c25 -41 46 -60 96 -60c45 0 75 20 98 60h65z" />
    <glyph glyph-name="Aogonek" unicode="&#x104;" horiz-adv-x="651" 
d="M732 -159c-30 -18 -73 -34 -121 -34c-77 0 -113 48 -113 91c0 52 26 81 45 102l-70 203h-298l-70 -203h-95l255 727h121l255 -727h-27c-23 -21 -43 -46 -43 -73c0 -30 18 -50 59 -50c28 0 53 8 76 19zM444 285l-121 353l-121 -353h242z" />
    <glyph glyph-name="aogonek" unicode="&#x105;" horiz-adv-x="531" 
d="M564 -159c-30 -18 -73 -34 -121 -34c-77 0 -113 48 -113 91c0 50 23 77 45 102v64c-55 -45 -107 -79 -176 -79c-102 0 -161 66 -161 159c0 126 92 160 205 172c43 5 83 8 132 11v25c0 79 -49 102 -124 102c-66 0 -107 -19 -139 -48l-51 63c40 36 100 58 192 58
c143 0 210 -43 210 -179v-348h-17c-24 -23 -43 -46 -43 -73c0 -30 18 -50 59 -50c28 0 53 8 76 19zM375 135v125l-86 -8c-94 -8 -160 -28 -160 -106c0 -61 35 -86 97 -86c53 0 104 40 149 75z" />
    <glyph glyph-name="Cacute" unicode="&#x106;" horiz-adv-x="675" 
d="M537 956l-155 -176h-72l111 176h116zM638 604l-76 -47c-24 44 -78 105 -182 105c-171 0 -230 -110 -230 -299c0 -197 65 -298 231 -298c89 0 142 36 179 67l56 -71c-68 -56 -147 -76 -235 -76c-225 0 -329 122 -329 378c0 255 103 379 329 379c139 0 217 -63 257 -138z
" />
    <glyph glyph-name="cacute" unicode="&#x107;" horiz-adv-x="493" 
d="M437 766l-155 -176h-72l111 176h116zM466 433l-73 -42c-25 39 -61 63 -114 63c-104 0 -146 -74 -146 -199c0 -116 34 -197 150 -197c53 0 91 23 118 45l53 -66c-30 -23 -80 -52 -174 -52c-176 0 -238 111 -238 270c0 166 68 272 239 272c88 0 150 -35 185 -94z" />
    <glyph glyph-name="Ccircumflex" unicode="&#x108;" horiz-adv-x="675" 
d="M638 604l-76 -47c-24 44 -78 105 -182 105c-171 0 -230 -110 -230 -299c0 -197 65 -298 231 -298c89 0 142 36 179 67l56 -71c-68 -56 -147 -76 -235 -76c-225 0 -329 122 -329 378c0 255 103 379 329 379c139 0 217 -63 257 -138zM542 780h-77l-89 113l-89 -113h-77
l114 176h105z" />
    <glyph glyph-name="ccircumflex" unicode="&#x109;" horiz-adv-x="493" 
d="M466 433l-73 -42c-25 39 -61 63 -114 63c-104 0 -146 -74 -146 -199c0 -116 34 -197 150 -197c53 0 91 23 118 45l53 -66c-30 -23 -80 -52 -174 -52c-176 0 -238 111 -238 270c0 166 68 272 239 272c88 0 150 -35 185 -94zM438 590h-77l-89 113l-89 -113h-77l114 176h105
z" />
    <glyph glyph-name="Cdotaccent" unicode="&#x10a;" horiz-adv-x="675" 
d="M638 604l-76 -47c-24 44 -78 105 -182 105c-171 0 -230 -110 -230 -299c0 -197 65 -298 231 -298c89 0 142 36 179 67l56 -71c-68 -56 -147 -76 -235 -76c-225 0 -329 122 -329 378c0 255 103 379 329 379c139 0 217 -63 257 -138zM412 833c0 -39 -16 -53 -54 -53
c-43 0 -53 20 -53 53c0 36 13 53 53 53s54 -17 54 -53z" />
    <glyph glyph-name="cdotaccent" unicode="&#x10b;" horiz-adv-x="493" 
d="M466 433l-73 -42c-25 39 -61 63 -114 63c-104 0 -146 -74 -146 -199c0 -116 34 -197 150 -197c53 0 91 23 118 45l53 -66c-30 -23 -80 -52 -174 -52c-176 0 -238 111 -238 270c0 166 68 272 239 272c88 0 150 -35 185 -94zM324 642c0 -39 -16 -53 -54 -53
c-43 0 -53 20 -53 53c0 36 13 53 53 53s54 -17 54 -53z" />
    <glyph glyph-name="Ccaron" unicode="&#x10c;" horiz-adv-x="675" 
d="M537 956l-114 -176h-105l-113 176h77l89 -113l89 113h77zM638 604l-76 -47c-24 44 -78 105 -182 105c-171 0 -230 -110 -230 -299c0 -197 65 -298 231 -298c89 0 142 36 179 67l56 -71c-68 -56 -147 -76 -235 -76c-225 0 -329 122 -329 378c0 255 103 379 329 379
c139 0 217 -63 257 -138z" />
    <glyph glyph-name="ccaron" unicode="&#x10d;" horiz-adv-x="493" 
d="M438 766l-114 -176h-105l-113 176h77l89 -113l89 113h77zM466 433l-73 -42c-25 39 -61 63 -114 63c-104 0 -146 -74 -146 -199c0 -116 34 -197 150 -197c53 0 91 23 118 45l53 -66c-30 -23 -80 -52 -174 -52c-176 0 -238 111 -238 270c0 166 68 272 239 272
c88 0 150 -35 185 -94z" />
    <glyph glyph-name="Dcaron" unicode="&#x10e;" horiz-adv-x="717" 
d="M506 956l-114 -176h-105l-113 176h77l89 -113l89 113h77zM665 363c0 -286 -126 -363 -377 -363h-208v727h206c258 0 379 -90 379 -364zM567 364c0 216 -80 281 -284 281h-110v-563h110c208 0 284 71 284 282z" />
    <glyph glyph-name="dcaron" unicode="&#x10f;" horiz-adv-x="612" 
d="M638 673c0 -66 -25 -123 -51 -160h-46c22 33 43 83 43 109c0 7 0 9 -1 12c-32 0 -46 14 -46 47c0 30 14 46 50 46c37 0 51 -19 51 -54zM497 0h-88v51c-41 -37 -100 -66 -164 -66c-141 0 -203 111 -203 267c0 163 77 275 213 275c60 0 109 -19 154 -52v252h88v-727z
M409 126v276c-39 26 -84 50 -141 50c-83 0 -135 -63 -135 -198c0 -104 28 -194 129 -194c56 0 109 32 147 66z" />
    <glyph glyph-name="Dcroat" unicode="&#x110;" horiz-adv-x="717" 
d="M665 363c0 -286 -126 -363 -377 -363h-208v332h-60v69h60v326h206c258 0 379 -90 379 -364zM567 364c0 216 -80 281 -284 281h-110v-244h192v-69h-192v-250h110c208 0 284 71 284 282z" />
    <glyph glyph-name="dcroat" unicode="&#x111;" horiz-adv-x="569" 
d="M557 595h-60v-595h-88v51c-41 -37 -100 -66 -164 -66c-141 0 -203 111 -203 267c0 163 77 275 213 275c60 0 109 -19 154 -52v120h-181v63h181v69h88v-69h60v-63zM409 126v276c-39 26 -84 50 -141 50c-83 0 -135 -63 -135 -198c0 -104 28 -194 129 -194
c56 0 109 32 147 66z" />
    <glyph glyph-name="Emacron" unicode="&#x112;" horiz-adv-x="584" 
d="M457 780h-301v71h301v-71zM534 0h-454v727h454v-82h-361v-222h329v-82h-329v-259h361v-82z" />
    <glyph glyph-name="emacron" unicode="&#x113;" horiz-adv-x="520" 
d="M410 606h-301v71h301v-71zM483 232h-350c0 -93 36 -174 149 -174c47 0 94 23 115 44l52 -65c-31 -25 -82 -52 -164 -52c-157 0 -243 77 -243 267c0 162 58 275 232 275c152 0 209 -92 209 -234v-61zM396 302c0 96 -33 155 -126 155c-84 0 -128 -54 -136 -155h262z" />
    <glyph glyph-name="Ebreve" unicode="&#x114;" horiz-adv-x="584" 
d="M534 0h-454v727h454v-82h-361v-222h329v-82h-329v-259h361v-82zM464 918c-13 -36 -49 -138 -164 -138c-108 0 -144 94 -160 138h65c25 -41 46 -60 96 -60c45 0 75 20 98 60h65z" />
    <glyph glyph-name="ebreve" unicode="&#x115;" horiz-adv-x="520" 
d="M483 232h-350c0 -93 36 -174 149 -174c47 0 94 23 115 44l52 -65c-31 -25 -82 -52 -164 -52c-157 0 -243 77 -243 267c0 162 58 275 232 275c152 0 209 -92 209 -234v-61zM396 302c0 96 -33 155 -126 155c-84 0 -128 -54 -136 -155h262zM428 747
c-13 -36 -49 -138 -164 -138c-108 0 -144 94 -160 138h65c25 -41 46 -60 96 -60c45 0 75 20 98 60h65z" />
    <glyph glyph-name="Edotaccent" unicode="&#x116;" horiz-adv-x="584" 
d="M534 0h-454v727h454v-82h-361v-222h329v-82h-329v-259h361v-82zM359 833c0 -39 -16 -53 -54 -53c-43 0 -53 20 -53 53c0 36 13 53 53 53s54 -17 54 -53z" />
    <glyph glyph-name="edotaccent" unicode="&#x117;" horiz-adv-x="520" 
d="M483 232h-350c0 -93 36 -174 149 -174c47 0 94 23 115 44l52 -65c-31 -25 -82 -52 -164 -52c-157 0 -243 77 -243 267c0 162 58 275 232 275c152 0 209 -92 209 -234v-61zM396 302c0 96 -33 155 -126 155c-84 0 -128 -54 -136 -155h262zM319 642c0 -39 -16 -53 -54 -53
c-43 0 -53 20 -53 53c0 36 13 53 53 53s54 -17 54 -53z" />
    <glyph glyph-name="Eogonek" unicode="&#x118;" horiz-adv-x="584" 
d="M584 -159c-30 -18 -73 -34 -121 -34c-77 0 -113 47 -113 106c0 33 6 63 13 87h-283v727h454v-82h-361v-222h329v-82h-329v-259h361v-82h-101c-6 -19 -10 -37 -10 -55c0 -37 18 -68 59 -68c28 0 53 8 76 19z" />
    <glyph glyph-name="eogonek" unicode="&#x119;" horiz-adv-x="520" 
d="M483 232h-350c0 -93 36 -174 149 -174c47 0 94 23 115 44l52 -65c-30 -25 -78 -50 -155 -52c-4 -14 -6 -27 -6 -40c0 -37 18 -68 59 -68c28 0 53 8 76 19l26 -55c-30 -18 -73 -34 -121 -34c-77 0 -113 47 -113 106c0 28 5 54 10 76c-119 19 -183 99 -183 263
c0 162 58 275 232 275c152 0 209 -92 209 -234v-61zM396 302c0 96 -33 155 -126 155c-84 0 -128 -54 -136 -155h262z" />
    <glyph glyph-name="Ecaron" unicode="&#x11a;" horiz-adv-x="584" 
d="M466 956l-114 -176h-105l-113 176h77l89 -113l89 113h77zM534 0h-454v727h454v-82h-361v-222h329v-82h-329v-259h361v-82z" />
    <glyph glyph-name="ecaron" unicode="&#x11b;" horiz-adv-x="520" 
d="M436 766l-114 -176h-105l-113 176h77l89 -113l89 113h77zM483 232h-350c0 -93 36 -174 149 -174c47 0 94 23 115 44l52 -65c-31 -25 -82 -52 -164 -52c-157 0 -243 77 -243 267c0 162 58 275 232 275c152 0 209 -92 209 -234v-61zM396 302c0 96 -33 155 -126 155
c-84 0 -128 -54 -136 -155h262z" />
    <glyph glyph-name="Gcircumflex" unicode="&#x11c;" horiz-adv-x="725" 
d="M653 604l-77 -47c-29 51 -91 105 -189 105c-163 0 -237 -101 -237 -295c0 -187 61 -302 244 -302c56 0 118 18 165 38v161h-157v82h250v-290c-77 -41 -165 -71 -253 -71c-247 0 -347 131 -347 379c0 236 95 378 336 378c139 0 225 -63 265 -138zM549 780h-77l-89 113
l-89 -113h-77l114 176h105z" />
    <glyph glyph-name="gcircumflex" unicode="&#x11d;" horiz-adv-x="565" 
d="M547 442h-60v-432c0 -139 -69 -203 -229 -203c-67 0 -142 23 -172 42l31 69c33 -21 88 -41 141 -41c96 0 141 36 141 128v51c-42 -32 -91 -56 -155 -56c-138 0 -202 108 -202 261c0 130 56 266 219 266c65 0 114 -31 143 -54v39h143v-70zM399 131v273
c-44 27 -89 48 -133 48c-99 0 -133 -98 -133 -189c0 -103 28 -188 124 -188c50 0 102 23 142 56zM453 590h-77l-89 113l-89 -113h-77l114 176h105z" />
    <glyph glyph-name="Gbreve" unicode="&#x11e;" horiz-adv-x="725" 
d="M653 604l-77 -47c-29 51 -91 105 -189 105c-163 0 -237 -101 -237 -295c0 -187 61 -302 244 -302c56 0 118 18 165 38v161h-157v82h250v-290c-77 -41 -165 -71 -253 -71c-247 0 -347 131 -347 379c0 236 95 378 336 378c139 0 225 -63 265 -138zM531 918
c-13 -36 -49 -138 -164 -138c-108 0 -144 94 -160 138h65c25 -41 46 -60 96 -60c36 0 64 10 85 39c5 7 9 14 13 21h65z" />
    <glyph glyph-name="gbreve" unicode="&#x11f;" horiz-adv-x="565" 
d="M547 442h-60v-432c0 -139 -69 -203 -229 -203c-67 0 -142 23 -172 42l31 69c33 -21 88 -41 141 -41c96 0 141 36 141 128v51c-42 -32 -91 -56 -155 -56c-138 0 -202 108 -202 261c0 130 56 266 219 266c65 0 114 -31 143 -54v39h143v-70zM399 131v273
c-44 27 -89 48 -133 48c-99 0 -133 -98 -133 -189c0 -103 28 -188 124 -188c50 0 102 23 142 56zM435 747c-13 -36 -49 -138 -164 -138c-108 0 -144 94 -160 138h65c25 -41 46 -60 96 -60c45 0 75 20 98 60h65z" />
    <glyph glyph-name="Gdotaccent" unicode="&#x120;" horiz-adv-x="725" 
d="M653 604l-77 -47c-29 51 -91 105 -189 105c-163 0 -237 -101 -237 -295c0 -187 61 -302 244 -302c56 0 118 18 165 38v161h-157v82h250v-290c-77 -41 -165 -71 -253 -71c-247 0 -347 131 -347 379c0 236 95 378 336 378c139 0 225 -63 265 -138zM422 833
c0 -39 -16 -53 -54 -53c-43 0 -53 20 -53 53c0 36 13 53 53 53s54 -17 54 -53z" />
    <glyph glyph-name="gdotaccent" unicode="&#x121;" horiz-adv-x="565" 
d="M547 442h-60v-432c0 -139 -69 -203 -229 -203c-67 0 -142 23 -172 42l31 69c33 -21 88 -41 141 -41c96 0 141 36 141 128v51c-42 -32 -91 -56 -155 -56c-138 0 -202 108 -202 261c0 130 56 266 219 266c65 0 114 -31 143 -54v39h143v-70zM399 131v273
c-44 27 -89 48 -133 48c-99 0 -133 -98 -133 -189c0 -103 28 -188 124 -188c50 0 102 23 142 56zM324 642c0 -39 -16 -53 -54 -53c-43 0 -53 20 -53 53c0 36 13 53 53 53s54 -17 54 -53z" />
    <glyph glyph-name="Gcommaaccent" unicode="&#x122;" horiz-adv-x="725" 
d="M653 604l-77 -47c-29 51 -91 105 -189 105c-163 0 -237 -101 -237 -295c0 -187 61 -302 244 -302c56 0 118 18 165 38v161h-157v82h250v-290c-77 -41 -165 -71 -253 -71c-247 0 -347 131 -347 379c0 236 95 378 336 378c139 0 225 -63 265 -138zM418 -193h-56
c16 19 31 49 31 72c-33 1 -48 16 -48 49c0 32 17 49 55 49c39 0 56 -20 56 -56c0 -61 -25 -96 -38 -114z" />
    <glyph glyph-name="gcommaaccent" unicode="&#x123;" horiz-adv-x="565" 
d="M547 442h-60v-432c0 -139 -69 -203 -229 -203c-67 0 -142 23 -172 42l31 69c33 -21 88 -41 141 -41c96 0 141 37 141 128v51c-42 -33 -91 -56 -155 -56c-138 0 -202 108 -202 261c0 130 56 266 219 266c65 0 114 -31 143 -54v39h143v-70zM399 131v273
c-44 27 -89 48 -133 48c-99 0 -133 -98 -133 -189c0 -103 28 -188 124 -188c50 0 102 23 142 56zM267 590c-39 0 -55 22 -55 57c0 59 25 102 37 119h56c-14 -17 -31 -52 -31 -72v-7c32 -1 47 -17 47 -49c0 -31 -16 -48 -54 -48z" />
    <glyph glyph-name="Hcircumflex" unicode="&#x124;" horiz-adv-x="693" 
d="M613 0h-93v334h-347v-334h-93v727h93v-311h347v311h93v-727zM512 780h-77l-89 113l-89 -113h-77l114 176h105z" />
    <glyph glyph-name="hcircumflex" unicode="&#x125;" horiz-adv-x="566" 
d="M498 0h-88v302c0 100 -14 144 -91 144c-41 0 -104 -37 -159 -84v-362h-88v727h88v-291c50 47 117 91 178 91c111 0 160 -67 160 -195v-332zM404 780h-77l-89 113l-89 -113h-77l114 176h105z" />
    <glyph glyph-name="Hbar" unicode="&#x126;" horiz-adv-x="693" 
d="M520 537h-347v-121h347v121zM30 606h50v121h93v-121h347v121h93v-121h50v-69h-50v-537h-93v334h-347v-334h-93v537h-50v69z" />
    <glyph glyph-name="hbar" unicode="&#x127;" horiz-adv-x="566" 
d="M12 658h60v69h88v-69h171v-63h-171v-159c50 47 117 91 178 91c111 0 160 -67 160 -195v-332h-88v302c0 100 -14 144 -91 144c-41 0 -104 -37 -159 -84v-362h-88v595h-60v63z" />
    <glyph glyph-name="Itilde" unicode="&#x128;" horiz-adv-x="363" 
d="M319 0h-275v73h91v581h-91v73h275v-73h-91v-581h91v-73zM367 914c-3 -47 -15 -77 -35 -100s-47 -34 -80 -34c-32 0 -60 12 -84 33l-19 16l-15 12c-9 6 -19 8 -30 8c-15 0 -26 -5 -33 -17c-7 -13 -12 -28 -13 -52h-62c2 46 15 77 36 100s48 34 78 34c31 0 60 -13 83 -33
c18 -15 41 -34 66 -34c14 0 25 6 33 18s12 27 13 49h62z" />
    <glyph glyph-name="itilde" unicode="&#x129;" horiz-adv-x="288" 
d="M210 0h-88v442h-88v70h176v-512zM301 745c-3 -47 -13 -77 -30 -100s-40 -34 -68 -34s-51 12 -71 33c-15 15 -32 36 -52 36c-11 0 -20 -5 -26 -17c-6 -13 -11 -28 -12 -52h-56c2 46 12 77 30 100s41 34 67 34c27 0 50 -13 70 -33c15 -15 36 -34 54 -34c11 0 19 6 26 18
s11 27 12 49h56z" />
    <glyph glyph-name="Imacron" unicode="&#x12a;" horiz-adv-x="363" 
d="M332 780h-301v71h301v-71zM319 0h-275v73h91v581h-91v73h275v-73h-91v-581h91v-73z" />
    <glyph glyph-name="imacron" unicode="&#x12b;" horiz-adv-x="288" 
d="M288 606h-288v71h288v-71zM210 0h-88v442h-88v70h176v-512z" />
    <glyph glyph-name="Ibreve" unicode="&#x12c;" horiz-adv-x="363" 
d="M319 0h-275v73h91v581h-91v73h275v-73h-91v-581h91v-73zM343 918c-13 -36 -49 -138 -164 -138c-108 0 -144 94 -160 138h65c25 -41 46 -60 96 -60c45 0 75 20 98 60h65z" />
    <glyph glyph-name="ibreve" unicode="&#x12d;" horiz-adv-x="288" 
d="M210 0h-88v442h-88v70h176v-512zM306 747c-13 -36 -49 -138 -164 -138c-108 0 -144 94 -160 138h65c25 -41 46 -60 96 -60c36 0 64 10 85 39c5 7 9 14 13 21h65z" />
    <glyph glyph-name="Iogonek" unicode="&#x12e;" horiz-adv-x="363" 
d="M363 -159c-30 -18 -73 -34 -121 -34c-77 0 -113 47 -113 106c0 33 6 63 13 87h-98v73h91v581h-91v73h275v-73h-91v-581h91v-73h-107c-6 -19 -10 -37 -10 -55c0 -37 18 -68 59 -68c28 0 53 8 76 19z" />
    <glyph glyph-name="iogonek" unicode="&#x12f;" horiz-adv-x="288" 
d="M311 -159c-30 -18 -73 -34 -121 -34c-77 0 -113 48 -113 91c0 50 25 81 45 102v442h-88v70h176v-512h-17c-24 -22 -43 -46 -43 -73c0 -30 18 -50 59 -50c28 0 53 8 76 19zM224 642c0 -38 -19 -53 -58 -53c-44 0 -57 21 -57 53c0 35 16 53 57 53c42 0 58 -17 58 -53z" />
    <glyph glyph-name="Idotaccent" unicode="&#x130;" horiz-adv-x="363" 
d="M319 0h-275v73h91v581h-91v73h275v-73h-91v-581h91v-73zM234 833c0 -39 -16 -53 -54 -53c-43 0 -53 20 -53 53c0 36 13 53 53 53s54 -17 54 -53z" />
    <glyph glyph-name="IJ" unicode="&#x132;" horiz-adv-x="762" 
d="M319 0h-275v73h91v581h-91v73h275v-73h-91v-581h91v-73zM687 184c0 -132 -54 -199 -196 -199c-39 0 -96 11 -131 25l34 77c22 -11 70 -22 96 -22c87 0 104 44 104 156v433h-158v73h251v-543z" />
    <glyph glyph-name="ij" unicode="&#x133;" horiz-adv-x="547" 
d="M224 642c0 -38 -19 -53 -58 -53c-44 0 -57 21 -57 53c0 35 16 53 57 53c42 0 58 -17 58 -53zM210 0h-88v442h-88v70h176v-512zM489 642c0 -38 -19 -53 -58 -53c-44 0 -57 21 -57 53c0 35 16 53 57 53c42 0 58 -17 58 -53zM475 -22c0 -113 -37 -171 -161 -171
c-24 0 -63 5 -96 15l22 69c24 -9 49 -14 77 -14c57 0 70 39 70 111v454h-88v70h176v-534z" />
    <glyph glyph-name="Jcircumflex" unicode="&#x134;" horiz-adv-x="412" 
d="M337 184c0 -132 -54 -199 -196 -199c-39 0 -96 11 -131 25l34 77c22 -11 70 -22 96 -22c87 0 104 44 104 156v433h-158v73h251v-543zM378 780h-77l-89 113l-89 -113h-77l114 176h105z" />
    <glyph glyph-name="jcircumflex" unicode="&#x135;" horiz-adv-x="282" 
d="M210 -22c0 -113 -37 -171 -161 -171c-24 0 -63 5 -96 15l22 69c24 -9 49 -14 77 -14c57 0 70 39 70 111v454h-88v70h176v-534zM289 590h-77l-89 113l-89 -113h-77l114 176h105z" />
    <glyph glyph-name="Kcommaaccent" unicode="&#x136;" horiz-adv-x="642" 
d="M630 0h-106l-222 385l-129 -141v-244h-93v727h93v-367l326 367h117l-251 -273zM348 -193h-56c14 17 31 44 31 71c-33 1 -48 16 -48 49c0 32 17 49 55 49c39 0 56 -20 56 -56c0 -61 -25 -95 -38 -113z" />
    <glyph glyph-name="kcommaaccent" unicode="&#x137;" horiz-adv-x="506" 
d="M498 0h-109l-154 248l-75 -79v-169h-88v727h88v-454l218 239h109l-193 -202zM279 -193h-56c14 17 31 44 31 71c-33 1 -48 16 -48 49c0 32 17 49 55 49c39 0 56 -20 56 -56c0 -61 -25 -95 -38 -113z" />
    <glyph glyph-name="kgreenlandic" unicode="&#x138;" horiz-adv-x="506" 
d="M498 0h-109l-154 248l-75 -79v-169h-88v512h88v-239l218 239h109l-193 -202z" />
    <glyph glyph-name="Lacute" unicode="&#x139;" horiz-adv-x="524" 
d="M407 956l-155 -176h-72l111 176h116zM514 0h-434v727h93v-645h341v-82z" />
    <glyph glyph-name="lacute" unicode="&#x13a;" horiz-adv-x="280" 
d="M313 956l-155 -176h-72l111 176h116zM285 -4c-18 -5 -54 -11 -86 -11c-98 0 -127 51 -127 162v553l88 55v-605c0 -68 10 -95 54 -95c16 0 37 4 50 9z" />
    <glyph glyph-name="Lcommaaccent" unicode="&#x13b;" horiz-adv-x="524" 
d="M514 0h-434v727h93v-645h341v-82zM318 -193h-56c14 17 31 44 31 71c-33 1 -48 16 -48 49c0 32 17 49 55 49c39 0 56 -20 56 -56c0 -61 -25 -95 -38 -113z" />
    <glyph glyph-name="lcommaaccent" unicode="&#x13c;" horiz-adv-x="280" 
d="M285 -4c-18 -5 -54 -11 -86 -11c-98 0 -127 52 -127 162v553l88 55v-605c0 -68 10 -95 54 -95c16 0 37 4 50 9zM219 -193h-56c14 17 31 44 31 71c-33 1 -48 16 -48 49c0 32 17 49 55 49c39 0 56 -20 56 -56c0 -61 -25 -95 -38 -113z" />
    <glyph glyph-name="Lcaron" unicode="&#x13d;" horiz-adv-x="524" 
d="M514 0h-434v727h93v-645h341v-82zM389 513h-55c26 38 46 85 46 109v8c-32 1 -47 17 -47 49s16 48 54 48c39 0 55 -20 55 -56c0 -65 -26 -120 -53 -158z" />
    <glyph glyph-name="lcaron" unicode="&#x13e;" horiz-adv-x="280" 
d="M301 673c0 -66 -25 -123 -51 -160h-46c22 33 43 83 43 109c0 7 0 9 -1 12c-32 0 -46 14 -46 47c0 30 14 46 50 46c37 0 51 -19 51 -54zM285 -4c-18 -5 -54 -11 -86 -11c-98 0 -127 51 -127 162v553l88 55v-605c0 -68 10 -95 54 -95c16 0 37 4 50 9z" />
    <glyph glyph-name="Ldot" unicode="&#x13f;" horiz-adv-x="524" 
d="M514 0h-434v727h93v-645h341v-82zM446 361c0 -42 -17 -57 -59 -57c-46 0 -57 22 -57 57c0 39 14 58 57 58c44 0 59 -18 59 -58z" />
    <glyph glyph-name="ldot" unicode="&#x140;" horiz-adv-x="308" 
d="M285 -4c-18 -5 -54 -11 -86 -11c-98 0 -127 51 -127 162v553l88 55v-605c0 -68 10 -95 54 -95c16 0 37 4 50 9zM324 361c0 -39 -16 -52 -55 -52c-42 0 -53 19 -53 52c0 36 13 54 53 54c41 0 55 -17 55 -54z" />
    <glyph glyph-name="Nacute" unicode="&#x143;" horiz-adv-x="706" 
d="M527 956l-155 -176h-72l111 176h116zM626 0h-110l-347 639v-639h-89v727h139l318 -583v583h89v-727z" />
    <glyph glyph-name="nacute" unicode="&#x144;" horiz-adv-x="566" 
d="M457 766l-155 -176h-72l111 176h116zM498 0h-88v302c0 100 -14 144 -91 144c-39 0 -99 -33 -159 -84v-362h-88v512h88v-76c56 53 121 91 178 91c111 0 160 -66 160 -195v-332z" />
    <glyph glyph-name="Ncommaaccent" unicode="&#x145;" horiz-adv-x="706" 
d="M626 0h-110l-347 639v-639h-89v727h139l318 -583v583h89v-727zM369 -193h-56c14 17 31 44 31 71c-33 1 -48 16 -48 49c0 32 17 49 55 49c39 0 56 -20 56 -56c0 -61 -25 -95 -38 -113z" />
    <glyph glyph-name="ncommaaccent" unicode="&#x146;" horiz-adv-x="566" 
d="M498 0h-88v302c0 100 -14 144 -91 144c-39 0 -99 -33 -159 -84v-362h-88v512h88v-76c56 53 121 91 178 91c111 0 160 -66 160 -195v-332zM298 -193h-56c14 17 31 44 31 71c-33 1 -48 16 -48 49c0 32 17 49 55 49c39 0 56 -20 56 -56c0 -61 -25 -95 -38 -113z" />
    <glyph glyph-name="Ncaron" unicode="&#x147;" horiz-adv-x="706" 
d="M524 956l-114 -176h-105l-113 176h77l89 -113l89 113h77zM626 0h-110l-347 639v-639h-89v727h139l318 -583v583h89v-727z" />
    <glyph glyph-name="ncaron" unicode="&#x148;" horiz-adv-x="566" 
d="M451 766l-114 -176h-105l-113 176h77l89 -113l89 113h77zM498 0h-88v302c0 100 -14 144 -91 144c-39 0 -99 -33 -159 -84v-362h-88v512h88v-76c56 53 121 91 178 91c111 0 160 -66 160 -195v-332z" />
    <glyph glyph-name="napostrophe" unicode="&#x149;" horiz-adv-x="618" 
d="M550 0h-88v302c0 100 -14 144 -91 144c-39 0 -99 -33 -159 -84v-362h-88v512h88v-76c56 53 121 91 178 91c111 0 160 -66 160 -195v-332zM91 701c0 -66 -25 -123 -51 -160h-46c22 33 43 83 43 109c0 7 0 9 -1 12c-32 0 -46 14 -46 47c0 30 14 46 50 46
c37 0 51 -19 51 -54z" />
    <glyph glyph-name="Eng" unicode="&#x14a;" horiz-adv-x="693" 
d="M286 -168l34 77c21 -11 70 -22 96 -22c87 0 104 44 104 159v440c0 127 -34 176 -125 176c-74 0 -158 -65 -222 -122v-540h-93v727h93v-95c64 54 140 110 240 110c180 0 200 -155 200 -239v-503c0 -128 -56 -193 -196 -193c-40 0 -96 10 -131 25z" />
    <glyph glyph-name="eng" unicode="&#x14b;" horiz-adv-x="566" 
d="M263 -109c25 -9 48 -14 77 -14c56 0 70 38 70 111v314c0 100 -14 144 -91 144c-39 0 -99 -33 -159 -84v-362h-88v512h88v-76c56 53 121 91 178 91c111 0 160 -66 160 -195v-354c0 -112 -37 -171 -161 -171c-17 0 -63 5 -96 15z" />
    <glyph glyph-name="Omacron" unicode="&#x14c;" horiz-adv-x="748" 
d="M525 780h-301v71h301v-71zM696 363c0 -235 -83 -378 -322 -378s-322 144 -322 378c0 236 83 379 322 379s322 -143 322 -379zM598 363c0 193 -57 299 -224 299s-224 -106 -224 -299c0 -191 57 -298 224 -298s224 106 224 298z" />
    <glyph glyph-name="omacron" unicode="&#x14d;" horiz-adv-x="557" 
d="M429 606h-301v71h301v-71zM515 255c0 -161 -68 -270 -236 -270c-169 0 -237 109 -237 270c0 164 68 272 237 272c168 0 236 -109 236 -272zM424 255c0 117 -37 199 -145 199c-109 0 -146 -82 -146 -199c0 -114 37 -197 146 -197c107 0 145 83 145 197z" />
    <glyph glyph-name="Obreve" unicode="&#x14e;" horiz-adv-x="748" 
d="M696 363c0 -235 -83 -378 -322 -378s-322 144 -322 378c0 236 83 379 322 379s322 -143 322 -379zM598 363c0 193 -57 299 -224 299s-224 -106 -224 -299c0 -191 57 -298 224 -298s224 106 224 298zM536 918c-13 -36 -49 -138 -164 -138c-108 0 -144 94 -160 138h65
c25 -41 46 -60 96 -60c45 0 75 20 98 60h65z" />
    <glyph glyph-name="obreve" unicode="&#x14f;" horiz-adv-x="557" 
d="M515 255c0 -161 -68 -270 -236 -270c-169 0 -237 109 -237 270c0 164 68 272 237 272c168 0 236 -109 236 -272zM424 255c0 117 -37 199 -145 199c-109 0 -146 -82 -146 -199c0 -114 37 -197 146 -197c107 0 145 83 145 197zM440 747c-13 -36 -49 -138 -164 -138
c-108 0 -144 94 -160 138h65c25 -41 46 -60 96 -60c36 0 64 10 85 39c5 7 9 14 13 21h65z" />
    <glyph glyph-name="Ohungarumlaut" unicode="&#x150;" horiz-adv-x="748" 
d="M626 956l-155 -176h-72l111 176h116zM457 956l-155 -176h-72l111 176h116zM696 363c0 -235 -83 -378 -322 -378s-322 144 -322 378c0 236 83 379 322 379s322 -143 322 -379zM598 363c0 193 -57 299 -224 299s-224 -106 -224 -299c0 -191 57 -298 224 -298
s224 106 224 298z" />
    <glyph glyph-name="ohungarumlaut" unicode="&#x151;" horiz-adv-x="557" 
d="M516 766l-155 -176h-62l111 176h106zM357 766l-155 -176h-62l111 176h106zM515 255c0 -161 -68 -270 -236 -270c-169 0 -237 109 -237 270c0 164 68 272 237 272c168 0 236 -109 236 -272zM424 255c0 117 -37 199 -145 199c-109 0 -146 -82 -146 -199
c0 -114 37 -197 146 -197c107 0 145 83 145 197z" />
    <glyph glyph-name="Racute" unicode="&#x154;" horiz-adv-x="639" 
d="M470 956l-155 -176h-72l111 176h116zM601 0h-94l-52 213c-15 63 -48 92 -98 92h-184v-305h-93v727h237c163 0 258 -44 258 -198c0 -113 -45 -165 -113 -187c48 -13 63 -40 79 -104zM480 522c0 95 -50 125 -164 125h-143v-262h137c126 0 170 34 170 137z" />
    <glyph glyph-name="racute" unicode="&#x155;" horiz-adv-x="366" 
d="M359 766l-155 -176h-72l111 176h116zM361 510l-19 -84c-10 4 -26 6 -36 6c-61 0 -103 -38 -146 -78v-354h-88v512h88v-83c48 48 93 91 152 91c20 0 35 -3 49 -10z" />
    <glyph glyph-name="Rcommaaccent" unicode="&#x156;" horiz-adv-x="639" 
d="M601 0h-94l-52 213c-15 63 -48 92 -98 92h-184v-305h-93v727h237c163 0 258 -44 258 -198c0 -113 -45 -165 -113 -187c48 -13 63 -40 79 -104zM480 522c0 95 -50 125 -164 125h-143v-262h137c126 0 170 34 170 137zM348 -193h-56c14 17 31 44 31 71c-33 1 -48 16 -48 49
c0 32 17 49 55 49c39 0 56 -20 56 -56c0 -61 -25 -95 -38 -113z" />
    <glyph glyph-name="rcommaaccent" unicode="&#x157;" horiz-adv-x="366" 
d="M361 510l-19 -84c-10 4 -26 6 -36 6c-61 0 -103 -38 -146 -78v-354h-88v512h88v-83c48 49 93 91 152 91c20 0 35 -3 49 -10zM188 -193h-56c14 17 31 44 31 71c-33 1 -48 16 -48 49c0 32 17 49 55 49c39 0 56 -20 56 -56c0 -61 -25 -95 -38 -113z" />
    <glyph glyph-name="Rcaron" unicode="&#x158;" horiz-adv-x="639" 
d="M601 0h-94l-52 213c-15 63 -48 92 -98 92h-184v-305h-93v727h237c163 0 258 -44 258 -198c0 -113 -45 -165 -113 -187c48 -13 63 -40 79 -104zM480 522c0 95 -50 125 -164 125h-143v-262h137c126 0 170 34 170 137zM471 956l-114 -176h-105l-113 176h77l89 -113l89 113
h77z" />
    <glyph glyph-name="rcaron" unicode="&#x159;" horiz-adv-x="366" 
d="M361 510l-19 -84c-10 4 -26 6 -36 6c-61 0 -103 -38 -146 -78v-354h-88v512h88v-83c48 48 93 91 152 91c20 0 35 -3 49 -10zM352 766l-114 -176h-105l-113 176h77l89 -113l89 113h77z" />
    <glyph glyph-name="Sacute" unicode="&#x15a;" horiz-adv-x="625" 
d="M477 956l-155 -176h-72l111 176h116zM580 196c0 -154 -121 -211 -266 -211c-155 0 -231 62 -279 143l77 48c38 -62 95 -111 203 -111c76 0 170 31 170 125c0 76 -61 113 -177 137c-182 38 -257 86 -257 212c0 121 86 203 255 203c130 0 205 -53 253 -130l-75 -50
c-38 62 -92 100 -179 100c-102 0 -160 -48 -160 -120c0 -67 51 -95 185 -124c148 -32 250 -79 250 -222z" />
    <glyph glyph-name="sacute" unicode="&#x15b;" horiz-adv-x="475" 
d="M410 766l-155 -176h-72l111 176h116zM439 142c0 -119 -106 -157 -208 -157c-72 0 -160 25 -197 92l72 41c29 -45 77 -62 129 -62s118 14 118 79c0 45 -29 56 -130 81c-88 22 -171 51 -171 157c0 111 99 154 196 154c71 0 148 -26 186 -90l-72 -41c-26 41 -70 60 -118 60
s-106 -19 -106 -76c0 -58 64 -68 109 -79c92 -23 192 -45 192 -159z" />
    <glyph glyph-name="Scircumflex" unicode="&#x15c;" horiz-adv-x="625" 
d="M580 196c0 -154 -121 -211 -266 -211c-155 0 -231 62 -279 143l77 48c38 -62 95 -111 203 -111c76 0 170 31 170 125c0 76 -61 113 -177 137c-182 38 -257 86 -257 212c0 121 86 203 255 203c130 0 205 -53 253 -130l-75 -50c-38 62 -92 100 -179 100
c-102 0 -160 -48 -160 -120c0 -67 51 -95 185 -124c148 -32 250 -79 250 -222zM477 780h-77l-89 113l-89 -113h-77l114 176h105z" />
    <glyph glyph-name="scircumflex" unicode="&#x15d;" horiz-adv-x="475" 
d="M439 142c0 -119 -106 -157 -208 -157c-72 0 -160 25 -197 92l72 41c29 -45 77 -62 129 -62s118 14 118 79c0 45 -29 56 -130 81c-88 22 -171 51 -171 157c0 111 99 154 196 154c71 0 148 -26 186 -90l-72 -41c-26 41 -70 60 -118 60s-106 -19 -106 -76
c0 -58 64 -68 109 -79c92 -23 192 -45 192 -159zM406 590h-77l-89 113l-89 -113h-77l114 176h105z" />
    <glyph glyph-name="Tcaron" unicode="&#x164;" horiz-adv-x="591" 
d="M462 956l-114 -176h-105l-113 176h77l89 -113l89 113h77zM571 645h-229v-645h-93v645h-229v82h551v-82z" />
    <glyph glyph-name="tcaron" unicode="&#x165;" horiz-adv-x="352" 
d="M352 673c0 -53 -18 -95 -41 -126h-46c18 25 33 55 33 75c0 7 0 9 -1 12c-32 0 -46 14 -46 47c0 30 14 46 50 46c37 0 51 -19 51 -54zM341 0c-25 -8 -66 -15 -101 -15c-98 0 -141 41 -141 165v292h-87v70h87v160l88 55v-215h132v-70h-132v-286c0 -63 6 -101 65 -101
c24 0 47 6 67 13z" />
    <glyph glyph-name="Tbar" unicode="&#x166;" horiz-adv-x="591" 
d="M100 401h149v244h-229v82h551v-82h-229v-244h149v-69h-149v-332h-93v332h-149v69z" />
    <glyph glyph-name="tbar" unicode="&#x167;" horiz-adv-x="352" 
d="M12 300h87v142h-87v70h87v160l88 55v-215h132v-70h-132v-142h132v-63h-132v-81c0 -63 6 -101 65 -101c24 0 47 6 67 13l22 -68c-25 -8 -66 -15 -101 -15c-98 0 -141 41 -141 165v87h-87v63z" />
    <glyph glyph-name="Utilde" unicode="&#x168;" horiz-adv-x="686" 
d="M610 282c0 -218 -70 -297 -267 -297s-267 80 -267 297v445h93v-435c0 -163 38 -227 174 -227c141 0 174 68 174 225v437h93v-445zM530 914c-3 -47 -15 -77 -35 -100s-47 -34 -80 -34c-32 0 -60 12 -84 33l-19 16l-15 12c-9 6 -19 8 -30 8c-15 0 -26 -5 -33 -17
c-7 -13 -12 -28 -13 -52h-62c2 46 15 77 36 100s48 34 78 34c31 0 60 -13 83 -33c18 -15 41 -34 66 -34c14 0 25 6 33 18s12 27 13 49h62z" />
    <glyph glyph-name="utilde" unicode="&#x169;" horiz-adv-x="566" 
d="M494 0h-88v76c-56 -53 -121 -91 -178 -91c-111 0 -160 66 -160 195v332h88v-302c0 -100 14 -144 91 -144c39 0 99 33 159 84v362h88v-512zM471 745c-3 -47 -15 -77 -35 -100s-47 -34 -80 -34c-32 0 -60 12 -84 33l-19 16l-15 12c-9 6 -19 8 -30 8c-15 0 -26 -5 -33 -17
c-7 -13 -12 -28 -13 -52h-62c2 46 15 77 36 100s48 34 78 34c31 0 60 -13 83 -33c18 -15 41 -34 66 -34c14 0 25 6 33 18s12 27 13 49h62z" />
    <glyph glyph-name="Umacron" unicode="&#x16a;" horiz-adv-x="686" 
d="M492 780h-301v71h301v-71zM610 282c0 -218 -70 -297 -267 -297s-267 80 -267 297v445h93v-435c0 -163 38 -227 174 -227c141 0 174 68 174 225v437h93v-445z" />
    <glyph glyph-name="umacron" unicode="&#x16b;" horiz-adv-x="566" 
d="M429 606h-301v71h301v-71zM494 0h-88v76c-56 -53 -121 -91 -178 -91c-111 0 -160 66 -160 195v332h88v-302c0 -100 14 -144 91 -144c39 0 99 33 159 84v362h88v-512z" />
    <glyph glyph-name="Ubreve" unicode="&#x16c;" horiz-adv-x="686" 
d="M610 282c0 -218 -70 -297 -267 -297s-267 80 -267 297v445h93v-435c0 -163 38 -227 174 -227c141 0 174 68 174 225v437h93v-445zM505 918c-13 -36 -49 -138 -164 -138c-108 0 -144 94 -160 138h65c25 -41 46 -60 96 -60c45 0 75 20 98 60h65z" />
    <glyph glyph-name="ubreve" unicode="&#x16d;" horiz-adv-x="566" 
d="M494 0h-88v76c-56 -53 -121 -91 -178 -91c-111 0 -160 66 -160 195v332h88v-302c0 -100 14 -144 91 -144c39 0 99 33 159 84v362h88v-512zM439 747c-13 -36 -49 -138 -164 -138c-108 0 -144 94 -160 138h65c25 -41 46 -60 96 -60c36 0 64 10 85 39c5 7 9 14 13 21h65z
" />
    <glyph glyph-name="Uring" unicode="&#x16e;" horiz-adv-x="686" 
d="M455 794c0 -68 -36 -112 -113 -112c-78 0 -111 47 -111 112c0 66 35 111 111 111c78 0 113 -44 113 -111zM610 282c0 -218 -70 -297 -267 -297s-267 80 -267 297v445h93v-435c0 -163 38 -227 174 -227c141 0 174 68 174 225v437h93v-445zM408 796c0 45 -22 66 -66 66
c-42 0 -64 -24 -64 -66c0 -43 18 -69 64 -69c48 0 66 24 66 69z" />
    <glyph glyph-name="uring" unicode="&#x16f;" horiz-adv-x="566" 
d="M373 657c0 -56 -30 -92 -93 -92c-65 0 -92 39 -92 92c0 55 29 92 92 92c64 0 93 -36 93 -92zM494 0h-88v76c-56 -53 -121 -91 -178 -91c-111 0 -160 66 -160 195v332h88v-302c0 -100 14 -144 91 -144c39 0 99 33 159 84v362h88v-512zM329 657c0 34 -17 50 -49 50
c-31 0 -48 -18 -48 -50c0 -30 14 -50 48 -50c35 0 49 18 49 50z" />
    <glyph glyph-name="Uhungarumlaut" unicode="&#x170;" horiz-adv-x="686" 
d="M607 956l-155 -176h-72l111 176h116zM438 956l-155 -176h-72l111 176h116zM610 282c0 -218 -70 -297 -267 -297s-267 80 -267 297v445h93v-435c0 -163 38 -227 174 -227c141 0 174 68 174 225v437h93v-445z" />
    <glyph glyph-name="uhungarumlaut" unicode="&#x171;" horiz-adv-x="566" 
d="M516 766l-155 -176h-62l111 176h106zM357 766l-155 -176h-62l111 176h106zM494 0h-88v76c-56 -53 -121 -91 -178 -91c-111 0 -160 66 -160 195v332h88v-302c0 -100 14 -144 91 -144c39 0 99 33 159 84v362h88v-512z" />
    <glyph glyph-name="Uogonek" unicode="&#x172;" horiz-adv-x="686" 
d="M610 282c0 -205 -62 -287 -233 -296c-4 -14 -6 -28 -6 -41c0 -37 18 -68 59 -68c28 0 53 8 76 19l26 -55c-30 -18 -73 -34 -121 -34c-77 0 -113 47 -113 106c0 27 4 52 10 73c-170 10 -232 93 -232 296v445h93v-435c0 -163 38 -227 174 -227c141 0 174 68 174 225v437h93
v-445z" />
    <glyph glyph-name="uogonek" unicode="&#x173;" horiz-adv-x="566" 
d="M595 -159c-30 -18 -73 -34 -121 -34c-77 0 -113 48 -113 91c0 50 23 77 45 102v76c-56 -53 -121 -91 -178 -91c-111 0 -160 66 -160 195v332h88v-302c0 -100 14 -144 91 -144c39 0 99 33 159 84v362h88v-512h-17c-24 -23 -43 -46 -43 -73c0 -30 18 -50 59 -50
c28 0 53 8 76 19z" />
    <glyph glyph-name="Wcircumflex" unicode="&#x174;" horiz-adv-x="888" 
d="M868 727l-169 -727h-103l-154 431l-152 -431h-105l-165 727h93l133 -606l153 426h90l155 -430l134 610h90zM610 780h-77l-89 113l-89 -113h-77l114 176h105z" />
    <glyph glyph-name="wcircumflex" unicode="&#x175;" horiz-adv-x="702" 
d="M686 512l-132 -512h-77l-126 297l-125 -297h-77l-133 512h89l92 -393l121 287h70l120 -283l92 389h86zM517 590h-77l-89 113l-89 -113h-77l114 176h105z" />
    <glyph glyph-name="Ycircumflex" unicode="&#x176;" horiz-adv-x="607" 
d="M602 727l-252 -432v-295h-93v291l-252 436h105l195 -346l197 346h100zM469 780h-77l-89 113l-89 -113h-77l114 176h105z" />
    <glyph glyph-name="ycircumflex" unicode="&#x177;" horiz-adv-x="507" 
d="M499 512l-230 -551c-47 -113 -99 -154 -186 -154c-32 0 -72 7 -94 15l22 69c19 -9 54 -14 77 -14c42 0 78 37 105 107l17 44l-196 484h96l148 -375l149 375h92zM418 590h-77l-89 113l-89 -113h-77l114 176h105z" />
    <glyph glyph-name="Zacute" unicode="&#x179;" horiz-adv-x="593" 
d="M553 0h-521v88l403 557h-386v82h494v-83l-407 -562h417v-82zM452 956l-155 -176h-72l111 176h116z" />
    <glyph glyph-name="zacute" unicode="&#x17a;" horiz-adv-x="444" 
d="M419 0h-394v64l280 378h-274v70h380v-61l-281 -380h289v-71zM387 766l-155 -176h-72l111 176h116z" />
    <glyph glyph-name="Zdotaccent" unicode="&#x17b;" horiz-adv-x="593" 
d="M553 0h-521v88l403 557h-386v82h494v-83l-407 -562h417v-82zM349 833c0 -39 -16 -53 -54 -53c-43 0 -53 20 -53 53c0 36 13 53 53 53s54 -17 54 -53z" />
    <glyph glyph-name="zdotaccent" unicode="&#x17c;" horiz-adv-x="444" 
d="M419 0h-394v64l280 378h-274v70h380v-61l-281 -380h289v-71zM272 642c0 -39 -16 -53 -54 -53c-43 0 -53 20 -53 53c0 36 13 53 53 53s54 -17 54 -53z" />
    <glyph glyph-name="AEacute" unicode="&#x1fc;" horiz-adv-x="886" 
d="M836 0h-414v203h-240l-77 -203h-95l279 727h547v-82h-321v-222h289v-82h-289v-259h321v-82zM422 285v360h-72l-137 -360h209zM687 956l-155 -176h-72l111 176h116z" />
    <glyph glyph-name="aeacute" unicode="&#x1fd;" horiz-adv-x="830" 
d="M793 232h-340c0 -90 33 -174 144 -174c43 0 89 23 110 44l52 -65c-31 -25 -82 -52 -159 -52c-76 0 -149 18 -196 89c-55 -45 -141 -89 -210 -89c-96 0 -156 66 -156 159c0 126 93 160 200 172c43 5 78 8 127 11v25c0 79 -44 102 -119 102c-63 0 -102 -19 -134 -48l-51 63
c40 36 98 58 187 58c90 0 145 -23 177 -74c32 44 82 74 164 74c148 0 204 -92 204 -234v-61zM706 302c0 96 -32 155 -121 155c-81 0 -125 -44 -131 -155h252zM378 133c-8 22 -13 55 -13 89v38c-26 -2 -46 -5 -81 -8c-90 -7 -155 -28 -155 -106c0 -61 35 -87 92 -86
c53 1 112 38 157 73zM577 766l-155 -176h-72l111 176h116z" />
    <glyph glyph-name="Oslashacute" unicode="&#x1fe;" horiz-adv-x="748" 
d="M696 363c0 -235 -83 -378 -322 -378c-80 0 -143 16 -186 44l-59 -85h-83l89 129c-57 63 -83 163 -83 290c0 236 83 379 322 379c81 0 145 -16 190 -46l46 68h82l-76 -112c57 -65 80 -163 80 -289zM513 623c-33 25 -79 39 -139 39c-167 0 -224 -106 -224 -299
c0 -89 13 -161 41 -208zM598 363c0 89 -12 157 -39 207l-321 -467c32 -24 77 -38 136 -38c167 0 224 106 224 298zM527 956l-155 -176h-72l111 176h116z" />
    <glyph glyph-name="oslashacute" unicode="&#x1ff;" horiz-adv-x="557" 
d="M521 549l-64 -93c39 -45 58 -116 58 -201c0 -161 -68 -270 -236 -270c-52 0 -93 10 -126 29l-35 -51h-78l62 91c-40 45 -60 116 -60 201c0 164 68 272 237 272c53 0 99 -12 128 -30l36 52h78zM362 431c-18 13 -48 23 -83 23c-109 0 -146 -82 -146 -199
c0 -50 7 -91 23 -124zM424 255c0 49 -6 90 -21 123l-204 -298c18 -14 46 -22 80 -22c108 0 145 83 145 197zM435 766l-155 -176h-72l111 176h116z" />
    <glyph glyph-name="uni02C9" unicode="&#x2c9;" horiz-adv-x="500" 
d="M401 643h-301v71h301v-71z" />
    <glyph glyph-name="uni03BC" unicode="&#x3bc;" horiz-adv-x="562" 
d="M494 0h-83l-5 58c-38 -49 -76 -73 -129 -73c-47 0 -79 7 -121 40v-218h-88v705h88v-386c26 -33 74 -56 120 -56c48 0 93 23 130 69v373h88v-512z" />
    <glyph glyph-name="Wgrave" unicode="&#x1e80;" horiz-adv-x="888" 
d="M868 727l-169 -727h-103l-154 431l-152 -431h-105l-165 727h93l133 -606l153 426h90l155 -430l134 610h90zM488 780h-72l-155 176h116z" />
    <glyph glyph-name="wgrave" unicode="&#x1e81;" horiz-adv-x="702" 
d="M686 512l-132 -512h-77l-126 297l-125 -297h-77l-133 512h89l92 -393l121 287h70l120 -283l92 389h86zM398 590h-72l-155 176h116z" />
    <glyph glyph-name="Wacute" unicode="&#x1e82;" horiz-adv-x="888" 
d="M868 727l-169 -727h-103l-154 431l-152 -431h-105l-165 727h93l133 -606l153 426h90l155 -430l134 610h90zM597 956l-155 -176h-72l111 176h116z" />
    <glyph glyph-name="wacute" unicode="&#x1e83;" horiz-adv-x="702" 
d="M686 512l-132 -512h-77l-126 297l-125 -297h-77l-133 512h89l92 -393l121 287h70l120 -283l92 389h86zM517 766l-155 -176h-72l111 176h116z" />
    <glyph glyph-name="Wdieresis" unicode="&#x1e84;" horiz-adv-x="888" 
d="M868 727l-169 -727h-103l-154 431l-152 -431h-105l-165 727h93l133 -606l153 426h90l155 -430l134 610h90zM594 832c0 -39 -16 -52 -55 -52c-42 0 -53 19 -53 52c0 36 13 54 53 54c41 0 55 -17 55 -54zM401 832c0 -39 -16 -52 -55 -52c-42 0 -53 19 -53 52
c0 36 13 54 53 54c41 0 55 -17 55 -54z" />
    <glyph glyph-name="wdieresis" unicode="&#x1e85;" horiz-adv-x="702" 
d="M686 512l-132 -512h-77l-126 297l-125 -297h-77l-133 512h89l92 -393l121 287h70l120 -283l92 389h86zM501 641c0 -39 -16 -52 -55 -52c-42 0 -53 19 -53 52c0 36 13 54 53 54c41 0 55 -17 55 -54zM308 641c0 -39 -16 -52 -55 -52c-42 0 -53 19 -53 52c0 36 13 54 53 54
c41 0 55 -17 55 -54z" />
    <glyph glyph-name="Ygrave" unicode="&#x1ef2;" horiz-adv-x="607" 
d="M602 727l-252 -432v-295h-93v291l-252 436h105l195 -346l197 346h100zM350 780h-72l-155 176h116z" />
    <glyph glyph-name="ygrave" unicode="&#x1ef3;" horiz-adv-x="507" 
d="M499 512l-230 -551c-47 -113 -99 -154 -186 -154c-32 0 -72 7 -94 15l22 69c19 -9 54 -14 77 -14c42 0 78 37 105 107l17 44l-196 484h96l148 -375l149 375h92zM300 590h-72l-155 176h116z" />
    <glyph glyph-name="Euro" unicode="&#x20ac;" horiz-adv-x="614" 
d="M593 604l-75 -42c-24 43 -65 100 -158 100c-128 0 -179 -78 -191 -206h300l-19 -58h-285c0 -10 -1 -25 -1 -35v-33h269l-19 -58h-245c12 -135 69 -207 192 -207c79 0 126 41 155 66l57 -70c-44 -36 -104 -76 -218 -76c-175 0 -263 94 -284 287h-71l20 58h46v33
c0 10 1 25 1 35h-67l19 58h52c18 182 112 286 290 286c125 0 196 -63 232 -138z" />
    <glyph glyph-name="litre" unicode="&#x2113;" horiz-adv-x="394" 
d="M234 -15c-91 0 -126 46 -126 157v108c-19 -20 -39 -39 -59 -59c-12 17 -26 31 -38 48c32 33 66 65 97 99v221c0 58 12 105 36 136c24 32 59 47 100 47c66 0 104 -49 104 -112c0 -48 -11 -92 -33 -134c-22 -41 -47 -83 -82 -124l-20 -24c-7 -8 -12 -15 -17 -20v-180
c0 -51 3 -93 54 -93c29 0 68 11 96 20l18 -69c-26 -8 -83 -21 -130 -21zM247 672c-32 0 -51 -32 -51 -108v-142l4 5c39 48 80 130 80 193c0 26 -7 52 -33 52z" />
    <glyph glyph-name="onethird" unicode="&#x2153;" horiz-adv-x="1036" 
d="M754 727l-392 -878h-79l391 878h80zM376 293h-274v66h103v257c-30 -15 -70 -30 -114 -37v65c63 19 110 49 143 98h54v-383h88v-66zM981 -15c0 -104 -78 -151 -188 -151c-56 0 -129 16 -167 74l64 48c25 -34 60 -55 102 -55c65 0 99 28 99 84c0 50 -40 70 -99 70
c-20 0 -38 -2 -61 -7v38l128 130h-199v70h305v-63l-105 -107c79 -9 121 -61 121 -131z" />
    <glyph glyph-name="twothirds" unicode="&#x2154;" horiz-adv-x="1036" 
d="M774 727l-392 -878h-79l391 878h80zM981 -15c0 -104 -78 -151 -188 -151c-56 0 -129 16 -167 74l64 48c25 -34 60 -55 102 -55c65 0 99 28 99 84c0 50 -40 70 -99 70c-20 0 -38 -2 -61 -7v38l128 130h-199v70h305v-63l-105 -107c79 -9 121 -61 121 -131zM432 293h-374v69
c53 36 103 70 150 106c35 27 61 49 79 67c24 25 39 48 39 77c0 32 -27 57 -90 57c-51 0 -84 -17 -117 -55l-66 47c33 40 82 81 185 81c92 0 177 -36 177 -127c0 -66 -35 -103 -79 -138c-48 -38 -93 -72 -144 -109h240v-75z" />
    <glyph glyph-name="oneeighth" unicode="&#x215b;" horiz-adv-x="1036" 
d="M754 727l-392 -878h-79l391 878h80zM376 293h-274v66h103v257c-30 -15 -70 -30 -114 -37v65c63 19 110 49 143 98h54v-383h88v-66zM803 -166c-119 0 -187 43 -187 128c0 54 35 93 99 116c-42 16 -86 45 -86 99c0 76 63 118 174 118c109 0 174 -39 174 -118
c0 -51 -41 -81 -88 -99c54 -19 101 -53 101 -116c0 -88 -77 -128 -187 -128zM803 232c-67 0 -88 -24 -88 -53c0 -20 8 -40 88 -71c61 21 88 43 88 68c0 32 -25 56 -88 56zM803 47c-52 -17 -100 -44 -100 -86c0 -36 26 -63 100 -63c75 0 100 29 100 64c0 40 -40 63 -100 85z
" />
    <glyph glyph-name="threeeighths" unicode="&#x215c;" horiz-adv-x="1036" 
d="M754 727l-392 -878h-79l391 878h80zM417 432c0 -104 -78 -151 -188 -151c-56 0 -129 16 -167 74l64 48c25 -34 60 -55 102 -55c65 0 99 28 99 84c0 50 -40 70 -99 70c-20 0 -38 -2 -61 -7v38l128 130h-199v70h305v-63l-105 -107c79 -9 121 -61 121 -131zM803 -166
c-119 0 -187 43 -187 128c0 54 35 93 99 116c-42 16 -86 45 -86 99c0 76 63 118 174 118c109 0 174 -39 174 -118c0 -51 -41 -81 -88 -99c54 -19 101 -53 101 -116c0 -88 -77 -128 -187 -128zM803 232c-67 0 -88 -24 -88 -53c0 -20 8 -40 88 -71c61 21 88 43 88 68
c0 32 -25 56 -88 56zM803 47c-52 -17 -100 -44 -100 -86c0 -36 26 -63 100 -63c75 0 100 29 100 64c0 40 -40 63 -100 85z" />
    <glyph glyph-name="fiveeighths" unicode="&#x215d;" horiz-adv-x="1036" 
d="M754 727l-392 -878h-79l391 878h80zM224 281c-81 0 -144 29 -177 75l74 38c21 -26 54 -47 101 -47c76 0 109 35 109 87c0 53 -48 75 -108 75c-35 0 -69 -7 -98 -22h-44l36 246h279v-68h-209l-15 -101c22 6 48 9 70 9c97 0 179 -38 179 -139c0 -95 -69 -153 -197 -153z
M803 -166c-119 0 -187 43 -187 128c0 54 35 93 99 116c-42 16 -86 45 -86 99c0 76 63 118 174 118c109 0 174 -39 174 -118c0 -51 -41 -81 -88 -99c54 -19 101 -53 101 -116c0 -88 -77 -128 -187 -128zM803 232c-67 0 -88 -24 -88 -53c0 -20 8 -40 88 -71c61 21 88 43 88 68
c0 32 -25 56 -88 56zM803 47c-52 -17 -100 -44 -100 -86c0 -36 26 -63 100 -63c75 0 100 29 100 64c0 40 -40 63 -100 85z" />
    <glyph glyph-name="seveneighths" unicode="&#x215e;" horiz-adv-x="1036" 
d="M754 727l-392 -878h-79l391 878h80zM256 281h-98l201 384h-173v-58h-80v126h348v-61zM803 -166c-119 0 -187 43 -187 128c0 54 35 93 99 116c-42 16 -86 45 -86 99c0 76 63 118 174 118c109 0 174 -39 174 -118c0 -51 -41 -81 -88 -99c54 -19 101 -53 101 -116
c0 -88 -77 -128 -187 -128zM803 232c-67 0 -88 -24 -88 -53c0 -20 8 -40 88 -71c61 21 88 43 88 68c0 32 -25 56 -88 56zM803 47c-52 -17 -100 -44 -100 -86c0 -36 26 -63 100 -63c75 0 100 29 100 64c0 40 -40 63 -100 85z" />
    <glyph glyph-name="uni2215" unicode="&#x2215;" horiz-adv-x="100" 
d="M288 727l-392 -878h-83l391 878h84z" />
    <glyph glyph-name="uni2219" unicode="&#x2219;" horiz-adv-x="247" 
d="M186 288c0 -43 -20 -58 -63 -58c-48 0 -62 21 -62 58c0 41 17 58 62 58c46 0 63 -17 63 -58z" />
    <glyph glyph-name="Eth" unicode="&#xd0;" horiz-adv-x="717" 
d="M665 363c0 -286 -126 -363 -377 -363h-208v332h-60v69h60v326h206c258 0 379 -90 379 -364zM567 364c0 216 -80 281 -284 281h-110v-244h192v-69h-192v-250h110c208 0 284 71 284 282z" />
    <glyph glyph-name="Scedilla" unicode="&#x15e;" horiz-adv-x="625" 
d="M417 -105c0 -56 -50 -88 -127 -88c-50 0 -103 15 -119 24l26 50c19 -6 62 -16 95 -16c38 0 58 11 58 36c0 34 -48 46 -87 48l19 37c-133 8 -203 67 -247 142l77 48c38 -62 95 -111 203 -111c76 0 170 31 170 125c0 76 -61 113 -177 137c-182 38 -257 86 -257 212
c0 121 86 203 255 203c130 0 205 -53 253 -130l-75 -50c-38 62 -92 100 -179 100c-102 0 -160 -48 -160 -120c0 -67 51 -95 185 -124c148 -32 250 -79 250 -222c0 -146 -109 -205 -243 -210v-1c54 -15 80 -51 80 -90z" />
    <glyph glyph-name="Scommaaccent" unicode="&#x218;" horiz-adv-x="625" 
d="M580 196c0 -154 -121 -211 -266 -211c-155 0 -231 62 -279 143l77 48c38 -62 95 -111 203 -111c76 0 170 31 170 125c0 76 -61 113 -177 137c-182 38 -257 86 -257 212c0 121 86 203 255 203c130 0 205 -53 253 -130l-75 -50c-38 62 -92 100 -179 100
c-102 0 -160 -48 -160 -120c0 -67 51 -95 185 -124c148 -32 250 -79 250 -222zM329 -193h-56c16 19 31 49 31 72c-33 1 -48 16 -48 49c0 32 17 49 55 49c39 0 56 -20 56 -56c0 -61 -25 -96 -38 -114z" />
    <glyph glyph-name="scedilla" unicode="&#x15f;" horiz-adv-x="475" 
d="M354 -105c0 -56 -50 -88 -127 -88c-50 0 -103 15 -119 24l26 50c19 -6 62 -16 95 -16c38 0 58 11 58 36c0 34 -48 46 -87 48l19 36c-70 3 -150 29 -185 92l72 41c29 -45 77 -62 129 -62s118 14 118 79c0 45 -29 56 -130 81c-88 22 -171 51 -171 157c0 111 99 154 196 154
c71 0 148 -26 186 -90l-72 -41c-26 41 -70 60 -118 60s-106 -19 -106 -76c0 -58 64 -68 109 -79c92 -23 192 -45 192 -159c0 -102 -78 -144 -164 -154l-1 -3c54 -15 80 -51 80 -90z" />
    <glyph glyph-name="scommaaccent" unicode="&#x219;" horiz-adv-x="475" 
d="M439 142c0 -119 -106 -157 -208 -157c-72 0 -160 25 -197 92l72 41c29 -45 77 -62 129 -62s118 14 118 79c0 45 -29 56 -130 81c-88 22 -171 51 -171 157c0 111 99 154 196 154c71 0 148 -26 186 -90l-72 -41c-26 41 -70 60 -118 60s-106 -19 -106 -76
c0 -58 64 -68 109 -79c92 -23 192 -45 192 -159zM256 -193h-56c16 19 31 49 31 72c-33 1 -48 16 -48 49c0 32 17 49 55 49c39 0 56 -20 56 -56c0 -61 -25 -96 -38 -114z" />
    <glyph glyph-name="multiply.tab" horiz-adv-x="667" 
d="M581 166l-49 -50l-199 199l-198 -199l-50 50l199 198l-199 199l50 49l198 -198l199 198l49 -49l-198 -199z" />
    <glyph glyph-name="zero.tab" horiz-adv-x="600" 
d="M559 365c0 -237 -54 -380 -260 -380c-204 0 -259 144 -259 379s55 378 259 378c206 0 260 -144 260 -377zM460 365c0 205 -31 299 -161 299c-129 0 -160 -93 -160 -300c0 -208 31 -301 160 -301c131 0 161 94 161 302z" />
    <glyph glyph-name="one.tab" horiz-adv-x="600" 
d="M477 0h-341v70h136v527c-38 -24 -98 -46 -150 -55v70c78 24 140 66 183 130h56v-672h116v-70z" />
    <glyph glyph-name="two.tab" horiz-adv-x="600" 
d="M539 0h-481v79c45 41 107 94 172 158c123 120 188 196 188 296c0 77 -39 129 -132 129c-81 0 -128 -42 -158 -91l-74 46c39 66 104 125 235 125c122 0 228 -59 228 -204c0 -106 -60 -190 -133 -266c-65 -68 -140 -135 -201 -190h356v-82z" />
    <glyph glyph-name="three.tab" horiz-adv-x="600" 
d="M520 226c0 -166 -107 -241 -266 -241c-82 0 -184 30 -229 105l78 48c32 -49 92 -75 149 -75c108 0 171 54 171 163c0 103 -76 141 -170 141c-24 0 -51 -3 -73 -7v41l206 244h-314v82h423v-82l-173 -207c122 -8 198 -88 198 -212z" />
    <glyph glyph-name="four.tab" horiz-adv-x="600" 
d="M549 170h-86v-185h-89v185h-339v87l343 485h85v-494h86v-78zM374 248v350l-247 -350h247z" />
    <glyph glyph-name="five.tab" horiz-adv-x="600" 
d="M531 231c0 -150 -90 -246 -266 -246c-113 0 -196 49 -229 105l78 48c25 -37 77 -75 149 -75c116 0 171 67 171 168c0 108 -82 146 -170 146c-52 0 -102 -12 -143 -37h-41l46 387h370v-82h-297l-26 -217c31 14 79 24 119 24c135 0 239 -62 239 -221z" />
    <glyph glyph-name="six.tab" horiz-adv-x="600" 
d="M556 236c0 -160 -92 -251 -248 -251c-177 0 -262 125 -262 334c0 226 73 423 290 423c83 0 138 -17 192 -62l-53 -69c-46 38 -81 53 -139 53c-130 0 -180 -117 -191 -257c41 28 113 57 185 57c137 0 226 -71 226 -228zM461 232c0 110 -59 152 -155 152
c-56 0 -122 -23 -163 -47c-1 -16 -1 -24 -1 -39c0 -144 59 -235 167 -235c98 0 152 62 152 169z" />
    <glyph glyph-name="seven.tab" horiz-adv-x="600" 
d="M533 643l-277 -658h-105l288 660h-289v-99h-83v181h466v-84z" />
    <glyph glyph-name="eight.tab" horiz-adv-x="600" 
d="M552 186c0 -135 -97 -201 -252 -201c-166 0 -252 71 -252 201c0 94 54 161 160 200c-60 28 -141 69 -141 171c0 116 78 185 233 185c152 0 233 -65 233 -184c0 -92 -73 -141 -141 -172c88 -40 160 -88 160 -200zM442 556c0 69 -48 114 -142 114c-99 0 -142 -46 -142 -110
c0 -48 23 -81 142 -136c88 35 142 74 142 132zM459 186c0 85 -73 124 -159 162c-73 -29 -159 -75 -159 -163c0 -77 50 -127 159 -127c112 0 159 53 159 128z" />
    <glyph glyph-name="nine.tab" horiz-adv-x="600" 
d="M554 408c0 -226 -64 -423 -295 -423c-83 0 -146 24 -199 72l58 67c40 -37 83 -61 141 -61c142 0 185 117 196 257c-41 -28 -113 -57 -185 -57c-137 0 -226 71 -226 228c0 160 99 251 251 251c177 0 259 -125 259 -334zM458 429c0 144 -56 235 -164 235
c-100 0 -155 -62 -155 -169c0 -110 59 -152 155 -152c56 0 122 23 163 47c1 16 1 24 1 39z" />
    <glyph glyph-name="fraction.tab" horiz-adv-x="75" 
d="M273 727l-392 -742h-79l391 742h80z" />
    <glyph glyph-name="lslash.alt" horiz-adv-x="232" 
d="M229 415l-69 -59v-356h-88v280l-68 -58v83l68 58v337l88 55v-316l69 59v-83z" />
    <glyph glyph-name="I.alt" horiz-adv-x="257" 
d="M175 0h-93v727h93v-727z" />
    <glyph glyph-name="J.alt" horiz-adv-x="309" 
d="M227 6c0 -132 -54 -199 -196 -199c-39 0 -96 11 -131 25l34 77c22 -11 70 -22 96 -22c87 0 104 44 104 156v684h93v-721z" />
    <glyph glyph-name="i.alt" horiz-adv-x="243" 
d="M179 642c0 -38 -19 -53 -58 -53c-44 0 -57 21 -57 53c0 35 16 53 57 53c42 0 58 -17 58 -53zM165 0h-88v512h88v-512z" />
    <glyph glyph-name="j.alt" horiz-adv-x="250" 
d="M186 642c0 -38 -19 -53 -58 -53c-44 0 -57 21 -57 53c0 35 16 53 57 53c42 0 58 -17 58 -53zM172 -22c0 -113 -37 -171 -161 -171c-24 0 -63 5 -96 15l22 69c24 -9 49 -14 77 -14c57 0 70 39 70 111v524h88v-534z" />
    <glyph glyph-name="l.alt" horiz-adv-x="232" 
d="M160 0h-88v700l88 55v-755z" />
    <glyph glyph-name="Itilde.alt" horiz-adv-x="257" 
d="M175 0h-93v727h93v-727zM286 914c-3 -47 -13 -77 -30 -100s-40 -34 -68 -34s-51 12 -71 33c-15 15 -32 36 -52 36c-11 0 -20 -5 -26 -17c-6 -13 -11 -28 -12 -52h-56c2 46 12 77 30 100s41 34 67 34c27 0 50 -13 70 -33c15 -15 36 -34 54 -34c11 0 19 6 26 18
s11 27 12 49h56z" />
    <glyph glyph-name="Imacron.alt" horiz-adv-x="257" 
d="M175 0h-93v727h93v-727zM279 780h-301v71h301v-71z" />
    <glyph glyph-name="Ibreve.alt" horiz-adv-x="257" 
d="M175 0h-93v727h93v-727zM291 918c-13 -36 -49 -138 -164 -138c-108 0 -144 94 -160 138h65c25 -41 46 -60 96 -60c45 0 75 20 98 60h65z" />
    <glyph glyph-name="Iogonek.alt" horiz-adv-x="257" 
d="M302 -159c-30 -18 -73 -34 -121 -34c-77 0 -113 47 -113 106c0 34 7 63 14 87v727h93v-727h-24c-6 -19 -10 -37 -10 -55c0 -37 18 -68 59 -68c28 0 53 8 76 19z" />
    <glyph glyph-name="Idotaccent.alt" horiz-adv-x="257" 
d="M175 0h-93v727h93v-727zM182 833c0 -39 -16 -53 -54 -53c-43 0 -53 20 -53 53c0 36 13 53 53 53s54 -17 54 -53z" />
    <glyph glyph-name="IJ.alt" horiz-adv-x="522" 
d="M440 6c0 -132 -54 -199 -196 -199c-39 0 -96 11 -131 25l34 77c22 -11 70 -22 96 -22c87 0 104 44 104 156v684h93v-721zM175 0h-93v727h93v-727z" />
    <glyph glyph-name="Jcircumflex.alt" horiz-adv-x="309" 
d="M227 6c0 -132 -54 -199 -196 -199c-39 0 -96 11 -131 25l34 77c22 -11 70 -22 96 -22c87 0 104 44 104 156v684h93v-721zM325 780h-77l-89 113l-89 -113h-77l114 176h105z" />
    <glyph glyph-name="gcircumflex.alt" horiz-adv-x="559" 
d="M453 590h-77l-89 113l-89 -113h-77l114 176h105zM487 10c0 -139 -69 -203 -229 -203c-67 0 -143 22 -173 41l32 70c33 -21 88 -41 141 -41c96 0 141 36 141 128v51c-42 -32 -91 -56 -155 -56c-138 0 -202 108 -202 261c0 130 56 266 219 266c63 0 109 -21 138 -38v30h88
v-509zM399 131v282c-37 21 -77 39 -129 39c-103 0 -137 -98 -137 -189c0 -103 28 -188 124 -188c50 0 102 23 142 56z" />
    <glyph glyph-name="gbreve.alt" horiz-adv-x="559" 
d="M435 747c-13 -36 -49 -138 -164 -138c-108 0 -144 94 -160 138h65c25 -41 46 -60 96 -60c45 0 75 20 98 60h65zM487 10c0 -139 -69 -203 -229 -203c-67 0 -143 22 -173 41l32 70c33 -21 88 -41 141 -41c96 0 141 36 141 128v51c-42 -32 -91 -56 -155 -56
c-138 0 -202 108 -202 261c0 130 56 266 219 266c63 0 109 -21 138 -38v30h88v-509zM399 131v282c-37 21 -77 39 -129 39c-103 0 -137 -98 -137 -189c0 -103 28 -188 124 -188c50 0 102 23 142 56z" />
    <glyph glyph-name="gdotaccent.alt" horiz-adv-x="559" 
d="M324 642c0 -39 -16 -53 -54 -53c-43 0 -53 20 -53 53c0 36 13 53 53 53s54 -17 54 -53zM487 10c0 -139 -69 -203 -229 -203c-67 0 -143 22 -173 41l32 70c33 -21 88 -41 141 -41c96 0 141 36 141 128v51c-42 -32 -91 -56 -155 -56c-138 0 -202 108 -202 261
c0 130 56 266 219 266c63 0 109 -21 138 -38v30h88v-509zM399 131v282c-37 21 -77 39 -129 39c-103 0 -137 -98 -137 -189c0 -103 28 -188 124 -188c50 0 102 23 142 56z" />
    <glyph glyph-name="gcommaaccent.alt" horiz-adv-x="559" 
d="M267 590c-39 0 -55 22 -55 57c0 59 25 102 37 119h56c-14 -17 -31 -52 -31 -72v-7c32 -1 47 -17 47 -49c0 -31 -16 -48 -54 -48zM487 10c0 -139 -69 -203 -229 -203c-67 0 -143 22 -173 41l32 70c33 -21 88 -41 141 -41c96 0 141 36 141 128v51c-42 -32 -91 -56 -155 -56
c-138 0 -202 108 -202 261c0 130 56 266 219 266c63 0 109 -21 138 -38v30h88v-509zM399 131v282c-37 21 -77 39 -129 39c-103 0 -137 -98 -137 -189c0 -103 28 -188 124 -188c50 0 102 23 142 56z" />
    <glyph glyph-name="itilde.alt" horiz-adv-x="243" 
d="M165 0h-88v512h88v-512zM279 745c-3 -47 -13 -77 -30 -100s-40 -34 -68 -34s-51 12 -71 33c-15 15 -32 36 -52 36c-11 0 -20 -5 -26 -17c-6 -13 -11 -28 -12 -52h-56c2 46 12 77 30 100s41 34 67 34c27 0 50 -13 70 -33c15 -15 36 -34 54 -34c11 0 19 6 26 18
s11 27 12 49h56z" />
    <glyph glyph-name="imacron.alt" horiz-adv-x="243" 
d="M165 0h-88v512h88v-512zM266 606h-288v71h288v-71z" />
    <glyph glyph-name="ibreve.alt" horiz-adv-x="243" 
d="M165 0h-88v512h88v-512zM284 747c-13 -36 -49 -138 -164 -138c-108 0 -144 94 -160 138h65c25 -41 46 -60 96 -60c45 0 75 20 98 60h65z" />
    <glyph glyph-name="iogonek.alt" horiz-adv-x="243" 
d="M266 -159c-30 -18 -73 -34 -121 -34c-77 0 -113 48 -113 91c0 50 25 80 45 102v512h88v-512h-17c-26 -25 -43 -46 -43 -73c0 -30 18 -50 59 -50c28 0 53 8 76 19zM179 642c0 -38 -19 -53 -58 -53c-44 0 -57 21 -57 53c0 35 16 53 57 53c42 0 58 -17 58 -53z" />
    <glyph glyph-name="ij.alt" horiz-adv-x="493" 
d="M429 642c0 -38 -19 -53 -58 -53c-44 0 -57 21 -57 53c0 35 16 53 57 53c42 0 58 -17 58 -53zM415 -22c0 -113 -37 -171 -161 -171c-24 0 -63 5 -96 15l22 69c24 -9 49 -14 77 -14c57 0 70 39 70 111v524h88v-534zM179 642c0 -38 -19 -53 -58 -53c-44 0 -57 21 -57 53
c0 35 16 53 57 53c42 0 58 -17 58 -53zM165 0h-88v512h88v-512z" />
    <glyph glyph-name="jcircumflex.alt" horiz-adv-x="250" 
d="M172 -22c0 -113 -37 -171 -161 -171c-24 0 -63 5 -96 15l22 69c24 -9 49 -14 77 -14c57 0 70 39 70 111v524h88v-534zM279 590h-77l-89 113l-89 -113h-77l114 176h105z" />
    <glyph glyph-name="iacute.alt" horiz-adv-x="243" 
d="M165 0h-88v512h88v-512zM274 766l-155 -176h-72l111 176h116z" />
    <glyph glyph-name="igrave.alt" horiz-adv-x="243" 
d="M165 0h-88v512h88v-512zM196 590h-72l-155 176h116z" />
    <glyph glyph-name="icircumflex.alt" horiz-adv-x="243" 
d="M165 0h-88v512h88v-512zM288 590h-77l-89 113l-89 -113h-77l114 176h105z" />
    <glyph glyph-name="idieresis.alt" horiz-adv-x="243" 
d="M165 0h-88v512h88v-512zM262 641c0 -39 -16 -52 -55 -52c-42 0 -53 19 -53 52c0 36 13 54 53 54c41 0 55 -17 55 -54zM89 641c0 -39 -16 -52 -55 -52c-42 0 -53 19 -53 52c0 36 13 54 53 54c41 0 55 -17 55 -54z" />
    <glyph glyph-name="lacute.alt" horiz-adv-x="232" 
d="M160 0h-88v700l88 55v-755zM263 956l-155 -176h-72l111 176h116z" />
    <glyph glyph-name="lcommaaccent.alt" horiz-adv-x="232" 
d="M160 0h-88v700l88 55v-755zM132 -193h-56c14 17 31 52 31 73v7c-33 1 -48 16 -48 49c0 32 17 49 55 49c39 0 56 -20 56 -56c0 -61 -25 -104 -38 -122z" />
    <glyph glyph-name="lcaron.alt" horiz-adv-x="271" 
d="M160 0h-88v700l88 55v-755zM301 673c0 -66 -25 -123 -51 -160h-46c22 33 43 83 43 109c0 7 0 9 -1 12c-32 0 -46 14 -46 47c0 30 14 46 50 46c37 0 51 -19 51 -54z" />
    <glyph glyph-name="ldot.alt" horiz-adv-x="290" 
d="M160 0h-88v700l88 55v-755zM315 361c0 -39 -16 -52 -55 -52c-42 0 -53 19 -53 52c0 36 13 54 53 54c41 0 55 -17 55 -54z" />
    <glyph glyph-name="f_f_l.alt" horiz-adv-x="780" 
d="M348 726l-24 -72c-15 7 -43 15 -67 15c-66 0 -79 -32 -79 -107v-50h177v50c0 124 43 180 165 180c56 0 107 -15 129 -24l59 37v-755h-88v646c-26 11 -58 23 -98 23c-66 0 -79 -32 -79 -107v-50h119v-70h-119v-442h-88v442h-177v-442h-88v442h-78v70h78v50
c0 124 43 180 165 180c39 0 73 -9 93 -16z" />
    <glyph glyph-name="f_l.alt" horiz-adv-x="515" 
d="M355 0v646c-26 11 -58 23 -98 23c-66 0 -79 -32 -79 -107v-50h119v-70h-119v-442h-88v442h-78v70h78v50c0 124 43 180 165 180c56 0 107 -15 129 -24l59 37v-755h-88z" />
    <glyph glyph-name="Iacute.alt" horiz-adv-x="257" 
d="M175 0h-93v727h93v-727zM277 956l-155 -176h-72l111 176h116z" />
    <glyph glyph-name="Icircumflex.alt" horiz-adv-x="257" 
d="M175 0h-93v727h93v-727zM295 780h-77l-89 113l-89 -113h-77l114 176h105z" />
    <glyph glyph-name="Idieresis.alt" horiz-adv-x="257" 
d="M175 0h-93v727h93v-727zM269 832c0 -39 -16 -52 -55 -52c-42 0 -53 19 -53 52c0 36 13 54 53 54c41 0 55 -17 55 -54zM96 832c0 -39 -16 -52 -55 -52c-42 0 -53 19 -53 52c0 36 13 54 53 54c41 0 55 -17 55 -54z" />
    <glyph glyph-name="Igrave.alt" horiz-adv-x="257" 
d="M175 0h-93v727h93v-727zM207 780h-72l-155 176h116z" />
    <glyph glyph-name="dotlessi" unicode="&#x131;" horiz-adv-x="288" 
d="M210 0h-88v442h-88v70h176v-512z" />
    <glyph glyph-name="dotlessi.alt" horiz-adv-x="243" 
d="M165 0h-88v512h88v-512z" />
    <glyph glyph-name="g.alt2" horiz-adv-x="527" 
d="M512 -45c0 -131 -152 -148 -236 -148c-113 0 -246 15 -246 134c0 57 43 90 90 109c-41 14 -61 37 -61 72c0 34 21 61 56 86c-41 36 -56 84 -56 135c0 103 58 184 202 184c42 0 93 -8 128 -36c26 22 63 36 104 36h19v-72h-19c-12 0 -40 -3 -62 -9c22 -31 31 -63 31 -104
c0 -115 -73 -182 -202 -182c-43 0 -74 8 -93 17c-16 -11 -29 -31 -29 -48c0 -21 32 -32 141 -36c116 -4 233 -15 233 -138zM373 343c0 71 -39 114 -110 114c-77 0 -115 -42 -115 -113c0 -69 35 -114 115 -114c73 0 110 45 110 113zM429 -45c0 55 -63 63 -234 70
c-26 -11 -82 -31 -82 -79c0 -60 67 -69 166 -69c71 0 150 8 150 78z" />
    <glyph glyph-name="gcircumflex.alt2" horiz-adv-x="527" 
d="M512 -45c0 -131 -152 -148 -236 -148c-113 0 -246 15 -246 134c0 57 43 90 90 109c-41 14 -61 37 -61 72c0 34 21 61 56 86c-41 36 -56 84 -56 135c0 103 58 184 202 184c42 0 93 -8 128 -36c26 22 63 36 104 36h19v-72h-19c-12 0 -40 -3 -62 -9c22 -31 31 -63 31 -104
c0 -115 -73 -182 -202 -182c-43 0 -74 8 -93 17c-16 -11 -29 -31 -29 -48c0 -21 32 -32 141 -36c116 -4 233 -15 233 -138zM373 343c0 71 -39 114 -110 114c-77 0 -115 -42 -115 -113c0 -69 35 -114 115 -114c73 0 110 45 110 113zM429 -45c0 55 -63 63 -234 70
c-26 -11 -82 -31 -82 -79c0 -60 67 -69 166 -69c71 0 150 8 150 78zM429 590h-77l-89 113l-89 -113h-77l114 176h105z" />
    <glyph glyph-name="gbreve.alt2" horiz-adv-x="527" 
d="M512 -45c0 -131 -152 -148 -236 -148c-113 0 -246 15 -246 134c0 57 43 90 90 109c-41 14 -61 37 -61 72c0 34 21 61 56 86c-41 36 -56 84 -56 135c0 103 58 184 202 184c42 0 93 -8 128 -36c26 22 63 36 104 36h19v-72h-19c-12 0 -40 -3 -62 -9c22 -31 31 -63 31 -104
c0 -115 -73 -182 -202 -182c-43 0 -74 8 -93 17c-16 -11 -29 -31 -29 -48c0 -21 32 -32 141 -36c116 -4 233 -15 233 -138zM373 343c0 71 -39 114 -110 114c-77 0 -115 -42 -115 -113c0 -69 35 -114 115 -114c73 0 110 45 110 113zM429 -45c0 55 -63 63 -234 70
c-26 -11 -82 -31 -82 -79c0 -60 67 -69 166 -69c71 0 150 8 150 78zM427 747c-13 -36 -49 -138 -164 -138c-108 0 -144 94 -160 138h65c25 -41 46 -60 96 -60c45 0 75 20 98 60h65z" />
    <glyph glyph-name="gdotaccent.alt2" horiz-adv-x="527" 
d="M512 -45c0 -131 -152 -148 -236 -148c-113 0 -246 15 -246 134c0 57 43 90 90 109c-41 14 -61 37 -61 72c0 34 21 61 56 86c-41 36 -56 84 -56 135c0 103 58 184 202 184c42 0 93 -8 128 -36c26 22 63 36 104 36h19v-72h-19c-12 0 -40 -3 -62 -9c22 -31 31 -63 31 -104
c0 -115 -73 -182 -202 -182c-43 0 -74 8 -93 17c-16 -11 -29 -31 -29 -48c0 -21 32 -32 141 -36c116 -4 233 -15 233 -138zM373 343c0 71 -39 114 -110 114c-77 0 -115 -42 -115 -113c0 -69 35 -114 115 -114c73 0 110 45 110 113zM429 -45c0 55 -63 63 -234 70
c-26 -11 -82 -31 -82 -79c0 -60 67 -69 166 -69c71 0 150 8 150 78zM316 642c0 -39 -16 -53 -54 -53c-43 0 -53 20 -53 53c0 36 13 53 53 53s54 -17 54 -53z" />
    <glyph glyph-name="gcommaaccent.alt2" horiz-adv-x="527" 
d="M512 -45c0 -131 -152 -148 -236 -148c-113 0 -246 15 -246 134c0 57 43 90 90 109c-41 14 -61 37 -61 72c0 34 21 61 56 86c-41 36 -56 84 -56 135c0 103 58 184 202 184c42 0 93 -8 128 -36c26 22 63 36 104 36h19v-72h-19c-12 0 -40 -3 -62 -9c22 -31 31 -63 31 -104
c0 -115 -73 -182 -202 -182c-43 0 -74 8 -93 17c-16 -11 -29 -31 -29 -48c0 -21 32 -32 141 -36c116 -4 233 -15 233 -138zM373 343c0 71 -39 114 -110 114c-77 0 -115 -42 -115 -113c0 -69 35 -114 115 -114c73 0 110 45 110 113zM429 -45c0 55 -63 63 -234 70
c-26 -11 -82 -31 -82 -79c0 -60 67 -69 166 -69c71 0 150 8 150 78zM260 590c-39 0 -55 22 -55 57c0 59 25 102 37 119h56c-14 -17 -31 -52 -31 -72v-7c32 -1 47 -17 47 -49c0 -31 -16 -48 -54 -48z" />
    <glyph glyph-name="i.dot" horiz-adv-x="288" 
d="M224 642c0 -38 -19 -53 -58 -53c-44 0 -57 21 -57 53c0 35 16 53 57 53c42 0 58 -17 58 -53zM210 0h-88v442h-88v70h176v-512z" />
    <glyph glyph-name="zero.taboldstyle" unicode="&#xe100;" horiz-adv-x="600" 
d="M555 289c0 -161 -46 -304 -255 -304c-207 0 -254 143 -254 303s47 303 254 303c208 0 255 -143 255 -302zM458 289c0 136 -30 224 -158 224c-126 0 -157 -89 -157 -225s30 -225 157 -225c128 0 158 89 158 226z" />
    <glyph glyph-name="one.taboldstyle" unicode="&#xe101;" horiz-adv-x="600" 
d="M490 0h-341v70h136v376c-38 -24 -98 -46 -150 -55v70c78 24 140 66 183 130h56v-521h116v-70z" />
    <glyph glyph-name="two.taboldstyle" unicode="&#xe102;" horiz-adv-x="600" 
d="M526 0h-472v79c66 46 132 92 194 141c110 87 159 137 159 204c0 52 -44 87 -129 87c-70 0 -114 -25 -154 -71l-72 52c35 45 97 99 229 99c119 0 223 -49 223 -163c0 -85 -43 -133 -100 -181c-70 -58 -136 -109 -213 -165h335v-82z" />
    <glyph glyph-name="three.taboldstyle" unicode="&#xe103;" horiz-adv-x="600" 
d="M535 75c0 -166 -107 -241 -266 -241c-82 0 -184 30 -229 105l78 48c32 -49 92 -75 149 -75c108 0 171 54 171 163c0 103 -76 141 -170 141c-24 0 -51 -3 -73 -7v41l206 244h-314v82h423v-82l-173 -207c122 -8 198 -88 198 -212z" />
    <glyph glyph-name="four.taboldstyle" unicode="&#xe104;" horiz-adv-x="600" 
d="M554 19h-86v-185h-89v185h-339v87l343 485h85v-494h86v-78zM379 97v350l-247 -350h247z" />
    <glyph glyph-name="five.taboldstyle" unicode="&#xe105;" horiz-adv-x="600" 
d="M545 80c0 -150 -90 -246 -266 -246c-113 0 -196 49 -229 105l78 48c25 -37 77 -75 149 -75c116 0 171 67 171 168c0 108 -82 146 -170 146c-52 0 -102 -12 -143 -37h-41l46 387h370v-82h-297l-26 -217c31 14 79 24 119 24c135 0 239 -62 239 -221z" />
    <glyph glyph-name="six.taboldstyle" unicode="&#xe106;" horiz-adv-x="600" 
d="M558 236c0 -160 -92 -251 -248 -251c-177 0 -262 125 -262 334c0 226 73 423 290 423c83 0 138 -17 192 -62l-53 -69c-46 38 -81 53 -139 53c-130 0 -180 -117 -191 -257c41 28 113 57 185 57c137 0 226 -71 226 -228zM463 232c0 110 -59 152 -155 152
c-56 0 -122 -23 -163 -47c-1 -16 -1 -24 -1 -39c0 -144 59 -235 167 -235c98 0 152 62 152 169z" />
    <glyph glyph-name="seven.taboldstyle" unicode="&#xe107;" horiz-adv-x="600" 
d="M539 492l-277 -658h-105l288 660h-289v-99h-83v181h466v-84z" />
    <glyph glyph-name="eight.taboldstyle" unicode="&#xe108;" horiz-adv-x="600" 
d="M552 186c0 -135 -97 -201 -252 -201c-166 0 -252 71 -252 201c0 94 54 161 160 200c-60 28 -141 69 -141 171c0 116 78 185 233 185c152 0 233 -65 233 -184c0 -92 -73 -141 -141 -172c88 -40 160 -88 160 -200zM442 556c0 69 -48 114 -142 114c-99 0 -142 -46 -142 -110
c0 -48 23 -81 142 -136c88 35 142 74 142 132zM459 186c0 85 -73 124 -159 162c-73 -29 -159 -75 -159 -163c0 -77 50 -127 159 -127c112 0 159 53 159 128z" />
    <glyph glyph-name="nine.taboldstyle" unicode="&#xe109;" horiz-adv-x="600" 
d="M552 257c0 -226 -64 -423 -295 -423c-83 0 -146 24 -199 72l58 67c40 -37 83 -61 141 -61c142 0 185 117 196 257c-41 -28 -113 -57 -185 -57c-137 0 -226 71 -226 228c0 160 99 251 251 251c177 0 259 -125 259 -334zM456 278c0 144 -56 235 -164 235
c-100 0 -155 -62 -155 -169c0 -110 59 -152 155 -152c56 0 122 23 163 47c1 16 1 24 1 39z" />
    <glyph glyph-name="zero.fitted" unicode="&#xe097;" horiz-adv-x="599" 
d="M559 365c0 -237 -54 -380 -260 -380c-204 0 -259 144 -259 379s55 378 259 378c206 0 260 -144 260 -377zM460 365c0 205 -31 299 -161 299c-129 0 -160 -93 -160 -300c0 -208 31 -301 160 -301c131 0 161 94 161 302z" />
    <glyph glyph-name="one.fitted" unicode="&#xf6dc;" horiz-adv-x="455" 
d="M415 0h-341v70h136v527c-38 -24 -98 -46 -150 -55v70c78 24 140 66 183 130h56v-672h116v-70z" />
    <glyph glyph-name="two.fitted" unicode="&#xe098;" horiz-adv-x="540" 
d="M515 0h-481v79c45 41 107 94 172 158c123 120 188 196 188 296c0 77 -39 129 -132 129c-81 0 -128 -42 -158 -91l-74 46c39 66 104 125 235 125c122 0 228 -59 228 -204c0 -106 -60 -190 -133 -266c-65 -68 -140 -135 -201 -190h356v-82z" />
    <glyph glyph-name="three.fitted" unicode="&#xe099;" horiz-adv-x="565" 
d="M510 226c0 -166 -107 -241 -266 -241c-82 0 -184 30 -229 105l78 48c32 -49 92 -75 149 -75c108 0 171 54 171 163c0 103 -76 141 -170 141c-24 0 -51 -3 -73 -7v41l206 244h-314v82h423v-82l-173 -207c122 -8 198 -88 198 -212z" />
    <glyph glyph-name="four.fitted" unicode="&#xe09a;" horiz-adv-x="554" 
d="M524 170h-86v-185h-89v185h-339v87l343 485h85v-494h86v-78zM349 248v350l-247 -350h247z" />
    <glyph glyph-name="five.fitted" unicode="&#xe09b;" horiz-adv-x="550" 
d="M505 231c0 -150 -90 -246 -266 -246c-113 0 -196 49 -229 105l78 48c25 -37 77 -75 149 -75c116 0 171 67 171 168c0 108 -82 146 -170 146c-52 0 -102 -12 -143 -37h-41l46 387h370v-82h-297l-26 -217c31 14 79 24 119 24c135 0 239 -62 239 -221z" />
    <glyph glyph-name="six.fitted" unicode="&#xe09c;" horiz-adv-x="596" 
d="M556 236c0 -160 -92 -251 -248 -251c-177 0 -262 125 -262 334c0 226 73 423 290 423c83 0 138 -17 192 -62l-53 -69c-46 38 -81 53 -139 53c-130 0 -180 -117 -191 -257c41 28 113 57 185 57c137 0 226 -71 226 -228zM461 232c0 110 -59 152 -155 152
c-56 0 -122 -23 -163 -47c-1 -16 -1 -24 -1 -39c0 -144 59 -235 167 -235c98 0 152 62 152 169z" />
    <glyph glyph-name="seven.fitted" unicode="&#xe09d;" horiz-adv-x="525" 
d="M498 643l-277 -658h-105l288 660h-289v-99h-83v181h466v-84z" />
    <glyph glyph-name="eight.fitted" unicode="&#xe09e;" horiz-adv-x="584" 
d="M544 186c0 -135 -97 -201 -252 -201c-166 0 -252 71 -252 201c0 94 54 161 160 200c-60 28 -141 69 -141 171c0 116 78 185 233 185c152 0 233 -65 233 -184c0 -92 -73 -141 -141 -172c88 -40 160 -88 160 -200zM434 556c0 69 -48 114 -142 114c-99 0 -142 -46 -142 -110
c0 -48 23 -81 142 -136c88 35 142 74 142 132zM451 186c0 85 -73 124 -159 162c-73 -29 -159 -75 -159 -163c0 -77 50 -127 159 -127c112 0 159 53 159 128z" />
    <glyph glyph-name="nine.fitted" unicode="&#xe09f;" horiz-adv-x="596" 
d="M550 408c0 -226 -64 -423 -295 -423c-83 0 -146 24 -199 72l58 67c40 -37 83 -61 141 -61c142 0 185 117 196 257c-41 -28 -113 -57 -185 -57c-137 0 -226 71 -226 228c0 160 99 251 251 251c177 0 259 -125 259 -334zM454 429c0 144 -56 235 -164 235
c-100 0 -155 -62 -155 -169c0 -110 59 -152 155 -152c56 0 122 23 163 47c1 16 1 24 1 39z" />
    <glyph glyph-name="estimated" unicode="&#x212e;" horiz-adv-x="683" 
d="M640 304h-468v-210c45 -44 101 -68 166 -68c110 0 175 56 225 138c13 -7 25 -15 37 -22c-61 -92 -133 -154 -262 -154c-180 0 -295 142 -295 316c0 175 112 316 297 316c187 0 296 -142 300 -316zM507 342v171c-43 42 -104 69 -167 69c-66 0 -123 -23 -168 -68v-172h335z
" />
    <glyph glyph-name="notequal" unicode="&#x2260;" horiz-adv-x="667" 
d="M602 140h-306l-58 -118h-76l58 118h-155v70h189l76 155h-265v70h300l69 140h75l-69 -140h162v-70h-196l-76 -155h272v-70z" />
    <glyph glyph-name="lessequal" unicode="&#x2264;" horiz-adv-x="667" 
d="M602 0h-537v70h537v-70zM602 120l-537 190v61l537 219v-76l-440 -174l440 -144v-76z" />
    <glyph glyph-name="greaterequal" unicode="&#x2265;" horiz-adv-x="667" 
d="M603 310l-537 -190v76l440 144l-440 174v76l537 -219v-61zM603 0h-537v70h537v-70z" />
    <glyph glyph-name="approxequal" unicode="&#x2248;" horiz-adv-x="667" 
d="M601 415c-20 -15 -78 -62 -143 -62c-44 0 -73 11 -158 50c-15 7 -58 27 -89 27c-61 0 -115 -44 -147 -70v78c65 52 117 62 149 62c36 0 67 -10 143 -46c32 -15 67 -31 100 -31c61 0 115 45 145 70v-78zM602 195c-20 -15 -78 -62 -143 -62c-44 0 -73 11 -158 50
c-15 7 -58 27 -89 27c-61 0 -115 -44 -147 -70v78c65 52 117 62 149 62c36 0 67 -10 143 -46c32 -15 67 -31 100 -31c61 0 115 45 145 70v-78z" />
    <glyph glyph-name="infinity" unicode="&#x221e;" horiz-adv-x="839" 
d="M789 294c0 -97 -68 -175 -175 -175c-82 0 -151 48 -194 115h-2c-46 -66 -113 -115 -192 -115c-104 0 -177 70 -177 171c0 105 73 174 175 174c87 0 151 -52 194 -114h2c35 51 101 114 190 114c104 0 179 -68 179 -170zM710 293c0 54 -31 102 -103 102
c-64 0 -110 -43 -150 -103c39 -64 92 -104 150 -104c72 0 103 50 103 105zM380 292c-38 61 -94 103 -151 103c-68 0 -102 -48 -102 -105c0 -59 43 -102 103 -102c61 0 113 47 150 104z" />
    <glyph glyph-name="partialdiff" unicode="&#x2202;" horiz-adv-x="613" 
d="M562 473c0 -62 -8 -126 -25 -189c-40 -152 -140 -295 -292 -295c-115 0 -195 80 -195 197c0 200 142 310 269 310c73 0 122 -36 142 -73h2c2 19 4 38 4 62c0 106 -52 169 -143 169c-34 0 -74 -11 -103 -29l-24 66c28 19 83 38 142 38c136 0 223 -94 223 -256zM450 341
c-14 46 -52 85 -116 85c-98 0 -187 -105 -187 -243c0 -71 40 -118 101 -118c96 0 172 118 202 276z" />
    <glyph glyph-name="Delta" unicode="&#x2206;" horiz-adv-x="655" 
d="M635 0h-616v45l246 655h127c80 -219 162 -436 243 -655v-45zM518 81l-175 475l-20 59l-17 -57c-57 -159 -116 -318 -175 -477h387z" />
    <glyph glyph-name="Omega" unicode="&#x2126;" horiz-adv-x="748" 
d="M698 0h-251v80c61 52 148 140 148 296c0 141 -76 251 -218 251c-131 0 -224 -102 -224 -253c0 -153 85 -241 149 -294v-80h-251v80h161c-70 51 -163 145 -163 312c0 185 134 320 328 320c209 0 322 -136 322 -318c0 -151 -84 -256 -165 -314h164v-80z" />
    <glyph glyph-name="summation" unicode="&#x2211;" horiz-adv-x="670" 
d="M639 -230h-609v49l338 420c-105 136 -210 271 -316 406v55h563v-80h-433l294 -379c-104 -130 -209 -260 -312 -391h475v-80z" />
    <glyph glyph-name="product" unicode="&#x220f;" horiz-adv-x="767" 
d="M680 -230h-99v845h-396v-845h-98v930h593v-930z" />
    <glyph glyph-name="integral" unicode="&#x222b;" horiz-adv-x="518" 
d="M459 734l-20 -71c-10 5 -29 10 -49 10c-54 0 -83 -35 -83 -97v-627c0 -114 -61 -182 -167 -182c-27 0 -65 6 -82 14l20 72c12 -5 29 -10 49 -10c54 0 82 35 82 98v627c0 111 58 181 168 181c32 0 68 -7 82 -15z" />
    <glyph glyph-name="radical" unicode="&#x221a;" horiz-adv-x="563" 
d="M539 729l-209 -741h-76l-144 331l-57 -36c-11 18 -20 35 -30 52c42 27 86 55 129 81c46 -107 92 -214 139 -320l177 633h71z" />
    <glyph glyph-name="lozenge" unicode="&#x25ca;" horiz-adv-x="601" 
d="M545 350c-74 -117 -148 -233 -221 -350h-49l-220 349l220 351h49c73 -117 147 -233 221 -350zM300 86l165 264l-165 263l-166 -263c55 -88 110 -176 166 -264z" />
    <glyph glyph-name="uni03A9" unicode="&#x3a9;" horiz-adv-x="748" 
d="M698 0h-251v80c61 52 148 140 148 296c0 141 -76 251 -218 251c-131 0 -224 -102 -224 -253c0 -153 85 -241 149 -294v-80h-251v80h161c-70 51 -163 145 -163 312c0 185 134 320 328 320c209 0 322 -136 322 -318c0 -151 -84 -256 -165 -314h164v-80z" />
    <glyph glyph-name="pi" unicode="&#x3c0;" horiz-adv-x="713" 
d="M646 74l18 -65c-18 -10 -46 -17 -79 -17c-94 0 -131 63 -131 143v291h-176v-286c0 -61 -7 -106 -17 -140h-100c13 40 19 93 19 146v280c-31 0 -78 -10 -105 -24l-27 66c29 15 86 32 154 32h459v-74h-109v-279c0 -49 16 -81 60 -81c12 0 24 3 34 8z" />
    <glyph glyph-name="zero.superior" unicode="&#x2070;" 
d="M438 513c0 -123 -37 -231 -205 -231c-166 0 -203 108 -203 230c0 121 37 230 203 230c167 0 205 -109 205 -229zM349 513c0 95 -22 157 -116 157c-92 0 -114 -62 -114 -158s22 -159 114 -159c94 0 116 63 116 160z" />
    <glyph glyph-name="i.superior" unicode="&#x2071;" horiz-adv-x="235" 
d="M186 764c0 -33 -17 -46 -52 -46c-39 0 -51 19 -51 46c0 31 14 46 51 46c38 0 52 -14 52 -46zM175 293h-82v319h-67v66h149v-385z" />
    <glyph glyph-name="four.superior" unicode="&#x2074;" 
d="M405 387h-62v-106h-78v106h-227v66l235 289h70v-287h62v-68zM265 455v166l-136 -166h136z" />
    <glyph glyph-name="five.superior" unicode="&#x2075;" 
d="M224 281c-81 0 -144 29 -177 75l74 38c21 -26 54 -47 101 -47c76 0 109 35 109 87c0 53 -48 75 -108 75c-35 0 -69 -7 -98 -22h-44l36 246h279v-68h-209l-15 -101c22 6 48 9 70 9c97 0 179 -38 179 -139c0 -95 -69 -153 -197 -153z" />
    <glyph glyph-name="six.superior" unicode="&#x2076;" 
d="M413 437c0 -99 -65 -156 -175 -156c-124 0 -184 77 -184 205c0 137 51 256 202 256c58 0 99 -12 143 -45l-50 -57c-35 26 -59 36 -93 36c-68 0 -98 -52 -109 -122c29 13 67 26 106 26c97 0 160 -44 160 -143zM325 435c0 57 -34 78 -88 78c-31 0 -66 -8 -92 -20
c-1 -8 -2 -13 -2 -20c0 -77 34 -126 96 -126c55 0 86 32 86 88z" />
    <glyph glyph-name="seven.superior" unicode="&#x2077;" 
d="M213 281h-98l201 384h-173v-58h-80v126h348v-61z" />
    <glyph glyph-name="eight.superior" unicode="&#x2078;" 
d="M234 281c-119 0 -187 43 -187 128c0 54 35 93 99 116c-42 16 -86 45 -86 99c0 76 63 118 174 118c109 0 174 -39 174 -118c0 -51 -41 -81 -88 -99c54 -19 101 -53 101 -116c0 -88 -77 -128 -187 -128zM234 679c-67 0 -88 -24 -88 -53c0 -20 8 -40 88 -71
c61 21 88 43 88 68c0 32 -25 56 -88 56zM234 494c-52 -17 -100 -44 -100 -86c0 -36 26 -63 100 -63c75 0 100 29 100 64c0 40 -40 63 -100 85z" />
    <glyph glyph-name="nine.superior" unicode="&#x2079;" 
d="M414 538c0 -137 -44 -257 -205 -257c-59 0 -105 17 -148 51l54 56c31 -25 60 -41 94 -41c74 0 102 53 112 121c-29 -13 -67 -25 -105 -25c-98 0 -161 44 -161 143s70 156 177 156c125 0 182 -76 182 -204zM325 550c0 77 -32 126 -94 126c-56 0 -88 -32 -88 -88
s34 -78 88 -78c32 0 67 8 93 20c1 6 1 13 1 20z" />
    <glyph glyph-name="parenleft.superior" unicode="&#x207d;" horiz-adv-x="282" 
d="M266 166h-94c-76 84 -112 195 -112 312c0 112 37 221 118 313h94c-78 -83 -135 -192 -135 -313c0 -115 47 -215 129 -312z" />
    <glyph glyph-name="parenright.superior" unicode="&#x207e;" horiz-adv-x="282" 
d="M110 166h-94c82 97 129 197 129 312c0 121 -57 230 -135 313h94c81 -92 118 -201 118 -313c0 -117 -36 -228 -112 -312z" />
    <glyph glyph-name="n.superior" unicode="&#x207f;" horiz-adv-x="446" 
d="M394 293h-82v226c0 67 -10 96 -62 96c-27 0 -70 -22 -113 -56v-266h-82v385h82v-46c41 34 87 57 128 57c89 0 129 -50 129 -148v-248z" />
    <glyph glyph-name="a.superior" unicode="&#xf6e9;" horiz-adv-x="419" 
d="M367 293h-82v39c-38 -29 -77 -50 -126 -50c-82 0 -130 51 -130 123c0 97 73 123 163 132c32 3 56 5 93 7v11c0 51 -34 66 -86 66c-48 0 -80 -15 -107 -38l-49 57c36 31 85 49 157 49c114 0 167 -33 167 -137v-259zM285 402v78c-10 -1 -19 -1 -57 -5
c-67 -6 -114 -18 -114 -69c0 -38 23 -54 66 -54c36 0 73 26 105 50z" />
    <glyph glyph-name="b.superior" unicode="&#xf6ea;" horiz-adv-x="448" 
d="M416 489c0 -106 -45 -207 -168 -207c-54 0 -94 11 -119 18l-43 -12h-31v545h82v-183c32 23 72 39 117 39c116 0 162 -84 162 -200zM331 487c0 70 -17 132 -90 132c-38 0 -76 -20 -104 -43v-205c21 -11 47 -19 97 -19c59 0 97 43 97 135z" />
    <glyph glyph-name="d.superior" unicode="&#xf6eb;" horiz-adv-x="448" 
d="M393 293h-82v29c-32 -23 -72 -40 -117 -40c-112 0 -162 84 -162 201c0 122 62 206 170 206c41 0 77 -11 109 -31v175h82v-540zM311 396v191c-28 17 -60 32 -99 32c-59 0 -95 -43 -95 -135c0 -71 19 -132 90 -132c39 0 77 21 104 44z" />
    <glyph glyph-name="e.superior" unicode="&#xf6ec;" horiz-adv-x="410" 
d="M382 461h-265c2 -60 29 -110 105 -110c34 0 70 18 88 35l50 -59c-28 -22 -71 -45 -136 -45c-124 0 -192 58 -192 201c0 121 46 206 184 206c121 0 166 -69 166 -177v-51zM213 623c-57 0 -87 -34 -95 -96h183c-2 60 -26 96 -88 96z" />
    <glyph glyph-name="l.superior" unicode="&#xf6ee;" horiz-adv-x="226" 
d="M232 300c-20 -13 -48 -18 -73 -18c-80 0 -104 40 -104 125v404l82 48v-450c0 -43 6 -61 34 -61c11 0 29 4 42 9z" />
    <glyph glyph-name="m.superior" unicode="&#xf6ef;" horiz-adv-x="660" 
d="M608 293h-82v226c0 71 -11 96 -51 96c-27 0 -70 -27 -102 -56v-266h-83v226c0 77 -13 96 -49 96c-31 0 -75 -30 -104 -56v-266h-82v385h82v-45c34 31 75 56 119 56c53 0 92 -22 106 -65c41 37 80 65 130 65c87 0 116 -51 116 -141v-255z" />
    <glyph glyph-name="o.superior" unicode="&#xf6f0;" horiz-adv-x="439" 
d="M407 485c0 -121 -54 -203 -187 -203c-134 0 -188 82 -188 203c0 123 54 204 188 204c133 0 187 -82 187 -204zM322 485c0 80 -26 136 -102 136c-77 0 -103 -56 -103 -136c0 -78 26 -134 103 -134c75 0 102 56 102 134z" />
    <glyph glyph-name="r.superior" unicode="&#xf6f1;" horiz-adv-x="295" 
d="M291 673l-18 -75c-12 5 -26 7 -33 7c-42 0 -73 -25 -103 -52v-260h-82v385h82v-50c33 31 66 56 108 56c16 0 30 -3 46 -11z" />
    <glyph glyph-name="s.superior" unicode="&#xf6f2;" horiz-adv-x="379" 
d="M352 403c0 -91 -84 -121 -166 -121c-56 0 -127 21 -160 78l68 36c23 -34 58 -47 95 -47s82 9 82 49c0 27 -20 34 -92 51c-70 17 -136 39 -136 121c0 86 79 119 156 119c56 0 119 -22 152 -75l-68 -37c-20 31 -53 45 -87 45c-33 0 -73 -11 -73 -47c0 -33 50 -44 77 -49
c83 -17 152 -34 152 -123z" />
    <glyph glyph-name="t.superior" unicode="&#xf6f3;" horiz-adv-x="282" 
d="M274 303c-24 -15 -56 -21 -84 -21c-79 0 -114 32 -114 127v203h-67v66h67v112l82 49v-161h100v-66h-100v-198c0 -41 4 -66 41 -66c18 0 38 6 56 12z" />
    <glyph glyph-name="h.superior" unicode="&#xf700;" horiz-adv-x="446" 
d="M394 293h-82v226c0 67 -10 96 -62 96c-28 0 -73 -25 -113 -56v-266h-82v540h82v-201c38 31 84 57 128 57c89 0 129 -51 129 -148v-248z" />
    <glyph glyph-name="zero.inferior" unicode="&#x2080;" 
d="M438 104c0 -123 -37 -231 -205 -231c-166 0 -203 108 -203 230c0 121 37 230 203 230c167 0 205 -109 205 -229zM349 104c0 95 -22 157 -116 157c-92 0 -114 -62 -114 -158s22 -159 114 -159c94 0 116 63 116 160z" />
    <glyph glyph-name="one.inferior" unicode="&#x2081;" 
d="M376 -117h-274v66h103v257c-30 -15 -70 -30 -114 -37v65c63 19 110 49 143 98h54v-383h88v-66z" />
    <glyph glyph-name="two.inferior" unicode="&#x2082;" 
d="M432 -117h-374v69c53 36 103 70 150 106c35 27 61 49 79 67c24 25 39 48 39 77c0 32 -27 57 -90 57c-51 0 -84 -17 -117 -55l-66 47c33 40 82 81 185 81c92 0 177 -36 177 -127c0 -66 -35 -103 -79 -138c-48 -38 -93 -72 -144 -109h240v-75z" />
    <glyph glyph-name="three.inferior" unicode="&#x2083;" 
d="M407 24c0 -104 -78 -151 -188 -151c-56 0 -129 16 -167 74l64 48c25 -34 60 -55 102 -55c65 0 99 28 99 84c0 50 -40 70 -99 70c-20 0 -38 -2 -61 -7v38l128 130h-199v70h305v-63l-105 -107c79 -9 121 -61 121 -131z" />
    <glyph glyph-name="four.inferior" unicode="&#x2084;" 
d="M405 -22h-62v-106h-78v106h-227v66l235 289h70v-287h62v-68zM265 46v166l-136 -166h136z" />
    <glyph glyph-name="five.inferior" unicode="&#x2085;" 
d="M224 -127c-81 0 -144 29 -177 75l74 38c21 -26 54 -47 101 -47c76 0 109 35 109 87c0 53 -48 75 -108 75c-35 0 -69 -7 -98 -22h-44l36 246h279v-68h-209l-15 -101c22 6 48 9 70 9c97 0 179 -38 179 -139c0 -95 -69 -153 -197 -153z" />
    <glyph glyph-name="six.inferior" unicode="&#x2086;" 
d="M413 29c0 -99 -65 -156 -175 -156c-124 0 -184 77 -184 205c0 137 51 256 202 256c58 0 99 -12 143 -45l-50 -57c-35 26 -59 36 -93 36c-68 0 -98 -52 -109 -122c29 13 67 26 106 26c97 0 160 -44 160 -143zM325 27c0 57 -34 78 -88 78c-31 0 -66 -8 -92 -20
c-1 -8 -2 -13 -2 -20c0 -77 34 -126 96 -126c55 0 86 32 86 88z" />
    <glyph glyph-name="seven.inferior" unicode="&#x2087;" 
d="M213 -127h-98l201 384h-173v-58h-80v126h348v-61z" />
    <glyph glyph-name="eight.inferior" unicode="&#x2088;" 
d="M234 -127c-119 0 -187 43 -187 128c0 54 35 93 99 116c-42 16 -86 45 -86 99c0 76 63 118 174 118c109 0 174 -39 174 -118c0 -51 -41 -81 -88 -99c54 -19 101 -53 101 -116c0 -88 -77 -128 -187 -128zM234 271c-67 0 -88 -24 -88 -53c0 -20 8 -40 88 -71
c61 21 88 43 88 68c0 32 -25 56 -88 56zM234 86c-52 -17 -100 -44 -100 -86c0 -36 26 -63 100 -63c75 0 100 29 100 64c0 40 -40 63 -100 85z" />
    <glyph glyph-name="nine.inferior" unicode="&#x2089;" 
d="M414 130c0 -137 -44 -257 -205 -257c-59 0 -105 17 -148 51l54 56c31 -25 60 -41 94 -41c74 0 102 53 112 121c-29 -13 -67 -25 -105 -25c-98 0 -161 44 -161 143s70 156 177 156c125 0 182 -76 182 -204zM325 142c0 77 -32 126 -94 126c-56 0 -88 -32 -88 -88
s34 -78 88 -78c32 0 67 8 93 20c1 6 1 13 1 20z" />
    <glyph glyph-name="parenleft.inferior" unicode="&#x208d;" horiz-adv-x="282" 
d="M266 -113h-94c-76 84 -112 195 -112 312c0 112 37 221 118 313h94c-78 -83 -135 -192 -135 -313c0 -115 47 -215 129 -312z" />
    <glyph glyph-name="parenright.inferior" unicode="&#x208e;" horiz-adv-x="282" 
d="M110 -114h-94c82 97 129 197 129 312c0 121 -57 230 -135 313h94c81 -92 118 -201 118 -313c0 -117 -36 -228 -112 -312z" />
    <glyph glyph-name="one.numerator" unicode="&#xe11f;" 
d="M376 293h-274v66h103v257c-30 -15 -70 -30 -114 -37v65c63 19 110 49 143 98h54v-383h88v-66z" />
    <glyph glyph-name="two.numerator" unicode="&#xe120;" 
d="M432 293h-374v69c53 36 103 70 150 106c35 27 61 49 79 67c24 25 39 48 39 77c0 32 -27 57 -90 57c-51 0 -84 -17 -117 -55l-66 47c33 40 82 81 185 81c92 0 177 -36 177 -127c0 -66 -35 -103 -79 -138c-48 -38 -93 -72 -144 -109h240v-75z" />
    <glyph glyph-name="three.numerator" unicode="&#xe121;" 
d="M407 432c0 -104 -78 -151 -188 -151c-56 0 -129 16 -167 74l64 48c25 -34 60 -55 102 -55c65 0 99 28 99 84c0 50 -40 70 -99 70c-20 0 -38 -2 -61 -7v38l128 130h-199v70h305v-63l-105 -107c79 -9 121 -61 121 -131z" />
    <glyph glyph-name="four.numerator" unicode="&#xe122;" 
d="M405 387h-62v-106h-78v106h-227v66l235 289h70v-287h62v-68zM265 455v166l-136 -166h136z" />
    <glyph glyph-name="five.numerator" unicode="&#xe123;" 
d="M224 281c-81 0 -144 29 -177 75l74 38c21 -26 54 -47 101 -47c76 0 109 35 109 87c0 53 -48 75 -108 75c-35 0 -69 -7 -98 -22h-44l36 246h279v-68h-209l-15 -101c22 6 48 9 70 9c97 0 179 -38 179 -139c0 -95 -69 -153 -197 -153z" />
    <glyph glyph-name="six.numerator" unicode="&#xe124;" 
d="M413 437c0 -99 -65 -156 -175 -156c-124 0 -184 77 -184 205c0 137 51 256 202 256c58 0 99 -12 143 -45l-50 -57c-35 26 -59 36 -93 36c-68 0 -98 -52 -109 -122c29 13 67 26 106 26c97 0 160 -44 160 -143zM325 435c0 57 -34 78 -88 78c-31 0 -66 -8 -92 -20
c-1 -8 -2 -13 -2 -20c0 -77 34 -126 96 -126c55 0 86 32 86 88z" />
    <glyph glyph-name="seven.numerator" unicode="&#xe125;" 
d="M213 281h-98l201 384h-173v-58h-80v126h348v-61z" />
    <glyph glyph-name="eight.numerator" unicode="&#xe126;" 
d="M234 281c-119 0 -187 43 -187 128c0 54 35 93 99 116c-42 16 -86 45 -86 99c0 76 63 118 174 118c109 0 174 -39 174 -118c0 -51 -41 -81 -88 -99c54 -19 101 -53 101 -116c0 -88 -77 -128 -187 -128zM234 679c-67 0 -88 -24 -88 -53c0 -20 8 -40 88 -71
c61 21 88 43 88 68c0 32 -25 56 -88 56zM234 494c-52 -17 -100 -44 -100 -86c0 -36 26 -63 100 -63c75 0 100 29 100 64c0 40 -40 63 -100 85z" />
    <glyph glyph-name="nine.numerator" unicode="&#xe127;" 
d="M414 538c0 -137 -44 -257 -205 -257c-59 0 -105 17 -148 51l54 56c31 -25 60 -41 94 -41c74 0 102 53 112 121c-29 -13 -67 -25 -105 -25c-98 0 -161 44 -161 143s70 156 177 156c125 0 182 -76 182 -204zM325 550c0 77 -32 126 -94 126c-56 0 -88 -32 -88 -88
s34 -78 88 -78c32 0 67 8 93 20c1 6 1 13 1 20z" />
    <glyph glyph-name="zero.numerator" unicode="&#xe11e;" 
d="M438 513c0 -123 -37 -231 -205 -231c-166 0 -203 108 -203 230c0 121 37 230 203 230c167 0 205 -109 205 -229zM349 513c0 95 -22 157 -116 157c-92 0 -114 -62 -114 -158s22 -159 114 -159c94 0 116 63 116 160z" />
    <glyph glyph-name="zero.denominator" unicode="&#xe10a;" 
d="M438 65c0 -123 -37 -231 -205 -231c-166 0 -203 108 -203 230c0 121 37 230 203 230c167 0 205 -109 205 -229zM349 65c0 95 -22 157 -116 157c-92 0 -114 -62 -114 -158s22 -159 114 -159c94 0 116 63 116 160z" />
    <glyph glyph-name="one.denominator" unicode="&#xe10b;" 
d="M376 -154h-274v66h103v257c-30 -15 -70 -30 -114 -37v65c63 19 110 49 143 98h54v-383h88v-66z" />
    <glyph glyph-name="two.denominator" unicode="&#xe10c;" 
d="M432 -154h-374v69c53 36 103 70 150 106c35 27 61 49 79 67c24 25 39 48 39 77c0 32 -27 57 -90 57c-51 0 -84 -17 -117 -55l-66 47c33 40 82 81 185 81c92 0 177 -36 177 -127c0 -66 -35 -103 -79 -138c-48 -38 -93 -72 -144 -109h240v-75z" />
    <glyph glyph-name="three.denominator" unicode="&#xe10d;" 
d="M407 -15c0 -104 -78 -151 -188 -151c-56 0 -129 16 -167 74l64 48c25 -34 60 -55 102 -55c65 0 99 28 99 84c0 50 -40 70 -99 70c-20 0 -38 -2 -61 -7v38l128 130h-199v70h305v-63l-105 -107c79 -9 121 -61 121 -131z" />
    <glyph glyph-name="four.denominator" unicode="&#xe10e;" 
d="M405 -60h-62v-106h-78v106h-227v66l235 289h70v-287h62v-68zM265 8v166l-136 -166h136z" />
    <glyph glyph-name="five.denominator" unicode="&#xe10f;" 
d="M224 -166c-81 0 -144 29 -177 75l74 38c21 -26 54 -47 101 -47c76 0 109 35 109 87c0 53 -48 75 -108 75c-35 0 -69 -7 -98 -22h-44l36 246h279v-68h-209l-15 -101c22 6 48 9 70 9c97 0 179 -38 179 -139c0 -95 -69 -153 -197 -153z" />
    <glyph glyph-name="six.denominator" unicode="&#xe110;" 
d="M413 -10c0 -99 -65 -156 -175 -156c-124 0 -184 77 -184 205c0 137 51 256 202 256c58 0 99 -12 143 -45l-50 -57c-35 26 -59 36 -93 36c-68 0 -98 -52 -109 -122c29 13 67 26 106 26c97 0 160 -44 160 -143zM325 -12c0 57 -34 78 -88 78c-31 0 -66 -8 -92 -20
c-1 -8 -2 -13 -2 -20c0 -77 34 -126 96 -126c55 0 86 32 86 88z" />
    <glyph glyph-name="seven.denominator" unicode="&#xe111;" 
d="M213 -166h-98l201 384h-173v-58h-80v126h348v-61z" />
    <glyph glyph-name="eight.denominator" unicode="&#xe112;" 
d="M234 -166c-119 0 -187 43 -187 128c0 54 35 93 99 116c-42 16 -86 45 -86 99c0 76 63 118 174 118c109 0 174 -39 174 -118c0 -51 -41 -81 -88 -99c54 -19 101 -53 101 -116c0 -88 -77 -128 -187 -128zM234 232c-67 0 -88 -24 -88 -53c0 -20 8 -40 88 -71
c61 21 88 43 88 68c0 32 -25 56 -88 56zM234 47c-52 -17 -100 -44 -100 -86c0 -36 26 -63 100 -63c75 0 100 29 100 64c0 40 -40 63 -100 85z" />
    <glyph glyph-name="nine.denominator" unicode="&#xe113;" 
d="M414 91c0 -137 -44 -257 -205 -257c-59 0 -105 17 -148 51l54 56c31 -25 60 -41 94 -41c74 0 102 53 112 121c-29 -13 -67 -25 -105 -25c-98 0 -161 44 -161 143s70 156 177 156c125 0 182 -76 182 -204zM325 103c0 77 -32 126 -94 126c-56 0 -88 -32 -88 -88
s34 -78 88 -78c32 0 67 8 93 20c1 6 1 13 1 20z" />
    <glyph glyph-name="uni0162" unicode="&#x162;" horiz-adv-x="591" 
d="M571 645h-229v-645h-93v645h-229v82h551v-82zM311 -193h-56c14 17 31 52 31 73v7c-33 1 -48 16 -48 49c0 32 17 49 55 49c39 0 56 -20 56 -56c0 -61 -25 -104 -38 -122z" />
    <glyph glyph-name="uni0163" unicode="&#x163;" horiz-adv-x="352" 
d="M341 0c-25 -8 -66 -15 -101 -15c-98 0 -141 41 -141 165v292h-87v70h87v160l88 55v-215h132v-70h-132v-286c0 -63 6 -101 65 -101c24 0 47 6 67 13zM258 -193h-56c16 19 31 49 31 72c-33 1 -48 16 -48 49c0 32 17 49 55 49c39 0 56 -20 56 -56c0 -61 -25 -96 -38 -114z
" />
    <glyph glyph-name="uni021A" unicode="&#x21a;" horiz-adv-x="591" 
d="M571 645h-229v-645h-93v645h-229v82h551v-82zM311 -193h-56c14 17 31 52 31 73v7c-33 1 -48 16 -48 49c0 32 17 49 55 49c39 0 56 -20 56 -56c0 -61 -25 -104 -38 -122z" />
    <glyph glyph-name="uni021B" unicode="&#x21b;" horiz-adv-x="352" 
d="M341 0c-25 -8 -66 -15 -101 -15c-98 0 -141 41 -141 165v292h-87v70h87v160l88 55v-215h132v-70h-132v-286c0 -63 6 -101 65 -101c24 0 47 6 67 13zM258 -193h-56c16 19 31 49 31 72c-33 1 -48 16 -48 49c0 32 17 49 55 49c39 0 56 -20 56 -56c0 -61 -25 -96 -38 -114z
" />
    <glyph glyph-name="onesuperior" unicode="&#xb9;" 
d="M376 293h-274v66h103v257c-30 -15 -70 -30 -114 -37v65c63 19 110 49 143 98h54v-383h88v-66z" />
    <glyph glyph-name="twosuperior" unicode="&#xb2;" 
d="M432 293h-374v69c53 36 103 70 150 106c35 27 61 49 79 67c24 25 39 48 39 77c0 32 -27 57 -90 57c-51 0 -84 -17 -117 -55l-66 47c33 40 82 81 185 81c92 0 177 -36 177 -127c0 -66 -35 -103 -79 -138c-48 -38 -93 -72 -144 -109h240v-75z" />
    <glyph glyph-name="threesuperior" unicode="&#xb3;" 
d="M407 432c0 -104 -78 -151 -188 -151c-56 0 -129 16 -167 74l64 48c25 -34 60 -55 102 -55c65 0 99 28 99 84c0 50 -40 70 -99 70c-20 0 -38 -2 -61 -7v38l128 130h-199v70h305v-63l-105 -107c79 -9 121 -61 121 -131z" />
    <glyph glyph-name="g.alt" horiz-adv-x="559" 
d="M487 10c0 -139 -69 -203 -229 -203c-67 0 -143 22 -173 41l32 70c33 -21 88 -41 141 -41c96 0 141 36 141 128v51c-42 -32 -91 -56 -155 -56c-138 0 -202 108 -202 261c0 130 56 266 219 266c63 0 109 -21 138 -38v30h88v-509zM399 131v282c-37 21 -77 39 -129 39
c-103 0 -137 -98 -137 -189c0 -103 28 -188 124 -188c50 0 102 23 142 56z" />
    <glyph glyph-name="dollar.alt" horiz-adv-x="600" 
d="M533 207c0 -133 -94 -195 -202 -199v-132h-70v132c-113 6 -175 71 -210 135l75 46c22 -42 60 -95 135 -105v254c-127 37 -193 78 -193 190c0 104 63 185 193 192v94h70v-94c108 -7 163 -65 199 -132l-74 -43c-25 48 -63 92 -125 99v-234c112 -36 202 -76 202 -203z
M261 426v218c-69 -4 -103 -47 -103 -112c0 -68 45 -88 103 -106zM442 201c0 71 -34 101 -111 122v-239c56 5 111 42 111 117z" />
    <glyph glyph-name="percent.alt" horiz-adv-x="967" 
d="M932 197c0 -72 -15 -124 -46 -159s-74 -53 -132 -53c-59 0 -103 18 -133 53s-45 88 -45 159c0 72 15 125 46 160s74 53 132 53c59 0 103 -19 133 -54s45 -88 45 -159zM716 727l-392 -742h-79l391 742h80zM391 529c0 -72 -15 -124 -46 -159s-74 -53 -132 -53
c-59 0 -103 18 -133 53s-45 88 -45 159c0 72 15 125 46 160s74 53 132 53c59 0 103 -19 133 -54s45 -88 45 -159zM849 197c0 55 -10 96 -24 118s-39 33 -71 33c-33 0 -57 -11 -71 -33s-24 -63 -24 -118s10 -96 24 -118s38 -32 71 -32c32 0 57 10 71 32s24 62 24 118z
M308 529c0 55 -10 96 -24 118s-39 33 -71 33c-33 0 -57 -11 -71 -33s-24 -63 -24 -118s10 -96 24 -118s38 -32 71 -32c32 0 57 10 71 32s24 62 24 118z" />
    <glyph glyph-name="perthousand.alt" horiz-adv-x="1393" 
d="M1358 197c0 -72 -15 -124 -46 -159s-74 -53 -132 -53c-59 0 -103 18 -133 53s-45 88 -45 159c0 72 15 125 46 160s74 53 132 53c59 0 103 -19 133 -54s45 -88 45 -159zM932 197c0 -72 -15 -124 -46 -159s-74 -53 -132 -53c-59 0 -103 18 -133 53s-45 88 -45 159
c0 72 15 125 46 160s74 53 132 53c59 0 103 -19 133 -54s45 -88 45 -159zM716 727l-392 -742h-79l391 742h80zM391 529c0 -72 -15 -124 -46 -159s-74 -53 -132 -53c-59 0 -103 18 -133 53s-45 88 -45 159c0 72 15 125 46 160s74 53 132 53c59 0 103 -19 133 -54
s45 -88 45 -159zM1275 197c0 55 -10 96 -24 118s-39 33 -71 33c-33 0 -57 -11 -71 -33s-24 -63 -24 -118s10 -96 24 -118s38 -32 71 -32c32 0 57 10 71 32s24 62 24 118zM849 197c0 55 -10 96 -24 118s-39 33 -71 33c-33 0 -57 -11 -71 -33s-24 -63 -24 -118s10 -96 24 -118
s38 -32 71 -32c32 0 57 10 71 32s24 62 24 118zM308 529c0 55 -10 96 -24 118s-39 33 -71 33c-33 0 -57 -11 -71 -33s-24 -63 -24 -118s10 -96 24 -118s38 -32 71 -32c32 0 57 10 71 32s24 62 24 118z" />
    <glyph glyph-name="onequarter.alt" horiz-adv-x="967" 
d="M889 83h-57v-98h-71v98h-209v61l216 266h64v-264h57v-63zM711 727l-392 -742h-79l391 742h80zM330 329h-252v61h94v236c-27 -14 -64 -27 -105 -34v60c58 17 101 45 132 90h50v-352h81v-61zM761 146v152l-126 -152h126z" />
    <glyph glyph-name="onehalf.alt" horiz-adv-x="967" 
d="M925 0h-344v63c49 33 95 65 138 98c33 25 55 45 72 62c23 23 36 43 36 70c0 30 -24 53 -82 53c-47 0 -77 -16 -108 -51l-61 44c30 37 75 74 170 74c84 0 163 -34 163 -117c0 -61 -31 -94 -72 -127c-44 -35 -86 -66 -133 -100h221v-69zM688 727l-392 -742h-79l391 742h80z
M327 329h-252v61h94v236c-27 -14 -64 -27 -105 -34v60c58 17 101 45 132 90h50v-352h81v-61z" />
    <glyph glyph-name="threequarters.alt" horiz-adv-x="967" 
d="M889 83h-57v-98h-71v98h-209v61l216 266h64v-264h57v-63zM727 727l-392 -742h-79l391 742h80zM381 450c0 -96 -72 -139 -173 -139c-51 0 -119 15 -154 68l59 44c23 -31 56 -50 94 -50c60 0 91 26 91 77c0 46 -37 64 -91 64c-18 0 -35 -1 -56 -6v35l118 120h-184v64h281
v-58l-97 -98c73 -8 112 -56 112 -121zM761 146v152l-126 -152h126z" />
    <glyph glyph-name="onethird.alt" horiz-adv-x="967" 
d="M698 727l-392 -742h-79l391 742h80zM327 329h-252v61h94v236c-27 -14 -64 -27 -105 -34v60c58 17 101 45 132 90h50v-352h81v-61zM915 124c0 -96 -72 -139 -173 -139c-51 0 -119 15 -154 68l59 44c23 -31 56 -50 94 -50c60 0 91 26 91 77c0 46 -37 64 -91 64
c-18 0 -35 -1 -56 -6v35l118 120h-184v64h281v-58l-97 -98c73 -8 112 -56 112 -121z" />
    <glyph glyph-name="twothirds.alt" horiz-adv-x="967" 
d="M748 727l-392 -742h-79l391 742h80zM925 124c0 -96 -72 -139 -173 -139c-51 0 -119 15 -154 68l59 44c23 -31 56 -50 94 -50c60 0 91 26 91 77c0 46 -37 64 -91 64c-18 0 -35 -1 -56 -6v35l118 120h-184v64h281v-58l-97 -98c73 -8 112 -56 112 -121zM407 329h-344v63
c49 33 95 65 138 98c33 25 55 45 72 62c23 23 36 43 36 70c0 30 -24 53 -82 53c-47 0 -77 -16 -108 -51l-61 44c30 37 75 74 170 74c84 0 163 -34 163 -117c0 -61 -31 -94 -72 -127c-44 -35 -86 -66 -133 -100h221v-69z" />
    <glyph glyph-name="oneeighth.alt" horiz-adv-x="967" 
d="M698 727l-392 -742h-79l391 742h80zM327 329h-252v61h94v236c-27 -14 -64 -27 -105 -34v60c58 17 101 45 132 90h50v-352h81v-61zM755 -15c-110 0 -174 39 -174 117c0 49 32 86 92 108c-38 16 -79 41 -79 91c0 70 58 109 161 109c101 0 161 -37 161 -109
c0 -47 -38 -74 -81 -92c52 -21 94 -49 94 -107c0 -81 -72 -117 -174 -117zM755 352c-62 0 -82 -24 -82 -50c0 -18 7 -36 82 -65c56 19 82 40 82 63c0 29 -23 52 -82 52zM755 182c-48 -16 -93 -42 -93 -80c0 -33 24 -59 93 -59c70 0 93 26 93 59c0 37 -37 59 -93 80z" />
    <glyph glyph-name="threeeighths.alt" horiz-adv-x="967" 
d="M715 727l-392 -742h-79l391 742h80zM755 -15c-110 0 -174 39 -174 117c0 49 32 86 92 108c-38 16 -79 41 -79 91c0 70 58 109 161 109c101 0 161 -37 161 -109c0 -47 -38 -74 -81 -92c52 -21 94 -49 94 -107c0 -81 -72 -117 -174 -117zM755 352c-62 0 -82 -24 -82 -50
c0 -18 7 -36 82 -65c56 19 82 40 82 63c0 29 -23 52 -82 52zM755 182c-48 -16 -93 -42 -93 -80c0 -33 24 -59 93 -59c70 0 93 26 93 59c0 37 -37 59 -93 80zM381 450c0 -96 -72 -139 -173 -139c-51 0 -119 15 -154 68l59 44c23 -31 56 -50 94 -50c60 0 91 26 91 77
c0 46 -37 64 -91 64c-18 0 -35 -1 -56 -6v35l118 120h-184v64h281v-58l-97 -98c73 -8 112 -56 112 -121z" />
    <glyph glyph-name="fiveeighths.alt" horiz-adv-x="967" 
d="M929 102c0 -81 -72 -117 -174 -117c-110 0 -174 39 -174 117c0 49 32 86 92 108c-38 16 -79 41 -79 91c0 70 58 109 161 109c101 0 161 -37 161 -109c0 -47 -38 -74 -81 -92c52 -21 94 -49 94 -107zM719 727l-392 -742h-79l391 742h80zM837 300c0 29 -23 52 -82 52
c-62 0 -82 -24 -82 -50c0 -18 7 -36 82 -65c56 19 82 40 82 63zM848 102c0 37 -37 59 -93 80c-48 -16 -93 -42 -93 -80c0 -33 24 -59 93 -59c70 0 93 26 93 59zM206 311c-75 0 -133 27 -164 69l69 35c19 -24 50 -43 94 -43c71 0 101 32 101 80c0 49 -45 69 -101 69
c-32 0 -63 -7 -90 -20h-41l33 226h259v-63h-194l-14 -92c20 5 44 8 65 8c90 0 166 -35 166 -128c0 -87 -65 -141 -183 -141z" />
    <glyph glyph-name="seveneighths.alt" horiz-adv-x="967" 
d="M929 102c0 -81 -72 -117 -174 -117c-110 0 -174 39 -174 117c0 49 32 86 92 108c-38 16 -79 41 -79 91c0 70 58 109 161 109c101 0 161 -37 161 -109c0 -47 -38 -74 -81 -92c52 -21 94 -49 94 -107zM685 727l-392 -742h-79l391 742h80zM837 300c0 29 -23 52 -82 52
c-62 0 -82 -24 -82 -50c0 -18 7 -36 82 -65c56 19 82 40 82 63zM848 102c0 37 -37 59 -93 80c-48 -16 -93 -42 -93 -80c0 -33 24 -59 93 -59c70 0 93 26 93 59zM212 311h-90l187 353h-162v-53h-74v116h323v-57z" />
    <glyph glyph-name="plus.alt" horiz-adv-x="667" 
d="M602 328h-234v-233h-70v233h-233v70h233v234h70v-234h234v-70z" />
    <glyph glyph-name="minus.alt" horiz-adv-x="667" 
d="M602 328h-537v70h537v-70z" />
    <glyph glyph-name="multiply.alt" horiz-adv-x="667" 
d="M581 166l-49 -50l-199 199l-198 -199l-50 50l199 198l-199 199l50 49l198 -198l199 198l49 -49l-198 -199z" />
    <glyph glyph-name="less.alt" horiz-adv-x="667" 
d="M602 107l-537 226v61l537 226v-76l-440 -181l440 -180v-76z" />
    <glyph glyph-name="greater.alt" horiz-adv-x="667" 
d="M602 333l-537 -226v76l440 180l-440 181v76l537 -226v-61z" />
    <glyph glyph-name="logicalnot.alt" horiz-adv-x="667" 
d="M602 216h-70v225h-467v70h537v-295z" />
    <glyph glyph-name="equal.alt" horiz-adv-x="667" 
d="M602 441h-537v70h537v-70zM602 216h-537v70h537v-70z" />
    <glyph glyph-name="divide.alt" horiz-adv-x="667" 
d="M384 583c0 -37 -16 -49 -52 -49c-39 0 -50 18 -50 49c0 34 12 51 50 51s52 -16 52 -51zM602 328h-537v70h537v-70zM384 141c0 -37 -16 -49 -52 -49c-39 0 -50 18 -50 49c0 34 12 51 50 51s52 -16 52 -51z" />
    <glyph glyph-name="plusminus.alt" horiz-adv-x="667" 
d="M602 376h-234v-187h-70v187h-233v70h233v213h70v-213h234v-70zM602 69h-537v70h537v-70z" />
    <glyph glyph-name="periodcentered.alt" horiz-adv-x="247" 
d="M186 364c0 -43 -20 -58 -63 -58c-48 0 -62 21 -62 58c0 41 17 58 62 58c46 0 63 -17 63 -58z" />
    </font>
</defs>
</svg>
