<?xml version="1.0" standalone="no"?>
<!DOCTYPE svg PUBLIC "-//W3C//DTD SVG 1.1//EN" "http://www.w3.org/Graphics/SVG/1.1/DTD/svg11.dtd" >
<svg xmlns="http://www.w3.org/2000/svg" xmlns:xlink="http://www.w3.org/1999/xlink" version="1.1">
<metadata>
Created by FontForge 20160407 at Tue Sep 27 16:57:41 2016
 By Jimmy Warting
Copyright 2010 Monotype Imaging Inc. All rights reserved.
</metadata>
<defs>
<font id="FelbridgePro-ExtraBoldIt" horiz-adv-x="497" >
  <font-face 
    font-family="Felbridge Pro ExtraBold"
    font-weight="800"
    font-style="italic"
    font-stretch="normal"
    units-per-em="1000"
    panose-1="2 0 9 3 4 0 3 9 3 4"
    ascent="778"
    descent="-222"
    x-height="527"
    cap-height="727"
    bbox="-290 -250 1503 957"
    underline-thickness="50"
    underline-position="-100"
    slope="-11.5"
    stemh="118"
    stemv="162"
    unicode-range="U+0020-FB04"
  />
<missing-glyph horiz-adv-x="500" 
d="M-55 0l134 665h475l-135 -665h-474zM146 618l112 -243l211 243h-323zM109 575l-99 -484c0 -1 211 242 211 242zM489 575l-211 -242l112 -243zM353 48l-112 242l-211 -242h323z" />
    <glyph glyph-name="f_f" unicode="ff" horiz-adv-x="755" 
d="M638 409l-83 -412c-18 -89 -46 -190 -223 -190c-46 0 -86 8 -123 21l46 121c19 -8 45 -16 71 -16c38 0 57 16 67 64l83 412h-177l-83 -412c-18 -89 -46 -190 -223 -190c-46 0 -86 8 -123 21l46 121c19 -8 45 -16 71 -16c38 0 57 16 67 64l83 412h-71l24 118h71l7 35
c23 116 78 180 228 180c46 0 94 -9 130 -20l-46 -121c-19 8 -51 15 -77 15c-38 0 -65 -14 -75 -64l-5 -25h177l7 35c23 116 78 180 228 180c46 0 94 -9 130 -20l-46 -121c-19 8 -51 15 -77 15c-38 0 -65 -14 -75 -64l-5 -25h107l-24 -118h-107z" />
    <glyph glyph-name="f_f_i" unicode="ffi" horiz-adv-x="978" 
d="M299 409l-83 -412c-18 -89 -46 -190 -223 -190c-46 0 -86 8 -123 21l46 121c19 -8 45 -16 71 -16c38 0 57 16 67 64l83 412h-71l24 118h71l7 35c23 116 78 180 228 180c46 0 94 -9 130 -20l-46 -121c-19 8 -51 15 -77 15c-38 0 -65 -14 -75 -64l-5 -25h178l5 25
c19 95 49 190 219 190c59 0 133 -7 186 -24c41 -13 54 -37 54 -64c0 -47 -41 -69 -82 -69c-30 0 -61 8 -72 36c-11 3 -49 6 -73 6c-41 0 -59 -22 -70 -75l-5 -25h208c67 0 87 -26 87 -68c0 -14 -2 -30 -6 -48l-84 -411h-162l76 343c3 15 5 27 5 36c0 21 -10 30 -39 30h-109
l-83 -412c-17 -84 -48 -190 -223 -190c-46 0 -86 8 -123 21l46 121c15 -6 45 -16 71 -16c38 0 56 11 67 64l83 412h-178z" />
    <glyph glyph-name="f_f_l" unicode="ffl" horiz-adv-x="1058" 
d="M299 409l-83 -412c-18 -89 -46 -190 -223 -190c-46 0 -86 8 -123 21l46 121c19 -8 45 -16 71 -16c38 0 57 16 67 64l83 412h-71l24 118h71l7 35c23 116 78 180 228 180c46 0 94 -9 130 -20l-46 -121c-19 8 -51 15 -77 15c-38 0 -65 -14 -75 -64l-5 -25h177l8 40
c20 101 62 175 224 175c57 0 113 -13 165 -32l126 58l-113 -552c-7 -32 -12 -56 -12 -70c0 -19 7 -32 28 -32c17 0 34 3 51 8l13 -118c-55 -15 -92 -19 -129 -19c-94 0 -131 37 -131 110c0 22 5 49 11 78l86 428c-24 10 -61 17 -85 17c-44 0 -64 -14 -73 -57l-7 -34h107
l-24 -118h-107l-83 -412c-19 -92 -48 -190 -223 -190c-46 0 -86 8 -123 21l46 121c15 -6 45 -16 71 -16c34 0 56 11 67 64l83 412h-177z" />
    <glyph glyph-name="fi" unicode="fi" horiz-adv-x="638" 
d="M299 409l-83 -412c-17 -84 -48 -190 -223 -190c-46 0 -86 8 -123 21l46 121c15 -6 45 -16 71 -16c38 0 56 11 67 64l83 412h-71l24 118h71l5 25c19 95 49 190 219 190c59 0 133 -7 186 -24c41 -13 54 -37 54 -64c0 -47 -41 -69 -82 -69c-30 0 -61 8 -72 36
c-11 3 -49 6 -73 6c-41 0 -59 -22 -70 -75l-5 -25h208c67 0 87 -26 87 -68c0 -14 -2 -30 -6 -48l-84 -411h-162l76 343c3 15 5 27 5 36c0 21 -10 30 -39 30h-109z" />
    <glyph glyph-name="fl" unicode="fl" horiz-adv-x="719" 
d="M651 4c-55 -15 -92 -19 -129 -19c-94 0 -131 37 -131 110c0 22 5 49 11 78l86 428c-24 10 -61 17 -85 17c-44 0 -64 -14 -73 -57l-7 -34h107l-24 -118h-107l-83 -412c-19 -92 -48 -190 -223 -190c-46 0 -86 8 -123 21l46 121c15 -6 45 -16 71 -16c34 0 56 11 67 64
l83 412h-71l24 118h71l8 40c20 101 62 175 224 175c57 0 113 -13 165 -32l126 58l-113 -552c-7 -32 -12 -56 -12 -70c0 -19 7 -32 28 -32c17 0 34 3 51 8z" />
    <glyph glyph-name=".notdef" horiz-adv-x="500" 
d="M-55 0l134 665h475l-135 -665h-474zM146 618l112 -243l211 243h-323zM109 575l-99 -484c0 -1 211 242 211 242zM489 575l-211 -242l112 -243zM353 48l-112 242l-211 -242h323z" />
    <glyph glyph-name="space" unicode=" " horiz-adv-x="220" 
 />
    <glyph glyph-name="exclam" unicode="!" horiz-adv-x="318" 
d="M324 727l-129 -507h-128l76 507h181zM201 89c0 -72 -37 -104 -106 -104c-48 0 -85 20 -85 68c0 71 40 104 107 104c45 0 84 -20 84 -68z" />
    <glyph glyph-name="quotedbl" unicode="&#x22;" horiz-adv-x="502" 
d="M502 742l-83 -269h-100l27 269h156zM293 742l-83 -269h-100l27 269h156z" />
    <glyph glyph-name="numbersign" unicode="#" horiz-adv-x="704" 
d="M696 436h-127l-36 -145h106v-106h-132l-46 -185h-109l46 185h-153l-46 -185h-109l46 185h-100v106h126l36 145h-105v106h132l46 186h109l-46 -186h153l46 186h109l-46 -186h100v-106zM460 436h-153l-36 -145h153z" />
    <glyph glyph-name="dollar" unicode="$" horiz-adv-x="622" 
d="M554 205c0 -130 -119 -200 -251 -206l-24 -119h-108l25 123c-82 13 -151 58 -188 128l144 76c23 -52 75 -80 143 -80c32 0 99 8 99 61c0 93 -306 57 -306 267c0 131 104 208 243 211l15 76h108l-16 -80c64 -12 134 -50 164 -114l-141 -73c-27 45 -68 65 -121 65
c-40 0 -91 -17 -91 -65c0 -88 305 -59 305 -270z" />
    <glyph glyph-name="percent" unicode="%" horiz-adv-x="1070" 
d="M883 727l-574 -878h-132l574 878h132zM500 568c0 -155 -87 -282 -260 -282c-123 0 -190 67 -190 174c0 156 87 282 260 282c123 0 190 -67 190 -174zM254 411c64 0 93 96 93 138c0 38 -12 68 -52 68c-63 0 -92 -96 -92 -140c0 -36 12 -66 51 -66zM1015 123
c0 -155 -87 -282 -260 -282c-123 0 -190 67 -190 174c0 156 87 282 260 282c123 0 190 -67 190 -174zM769 -34c64 0 93 96 93 138c0 38 -12 68 -52 68c-63 0 -92 -96 -92 -140c0 -36 12 -66 51 -66z" />
    <glyph glyph-name="ampersand" unicode="&#x26;" horiz-adv-x="684" 
d="M675 319c-28 -54 -68 -122 -125 -182l89 -137h-210l-19 29c-55 -27 -119 -44 -192 -44c-166 0 -231 83 -231 189c0 107 59 174 183 231c-21 32 -47 82 -47 141c0 139 119 196 245 196c120 0 190 -43 234 -122l-136 -78c-28 52 -59 70 -99 70c-32 0 -66 -19 -66 -57
c0 -23 10 -47 33 -82l140 -218c32 40 58 84 77 124zM239 117c35 0 68 8 99 23l-101 156c-38 -23 -79 -52 -79 -110c0 -40 29 -69 81 -69z" />
    <glyph glyph-name="quotesingle" unicode="'" horiz-adv-x="293" 
d="M293 742l-83 -269h-100l27 269h156z" />
    <glyph glyph-name="parenleft" unicode="(" horiz-adv-x="384" 
d="M264 -193h-155c-59 91 -94 214 -94 315c0 219 99 465 272 620h180c-171 -147 -299 -368 -299 -605c0 -123 29 -232 96 -330z" />
    <glyph glyph-name="parenright" unicode=")" horiz-adv-x="384" 
d="M72 742h162c59 -91 90 -214 90 -315c0 -219 -99 -465 -272 -620h-180c171 147 299 368 299 605c0 123 -32 232 -99 330z" />
    <glyph glyph-name="asterisk" unicode="*" horiz-adv-x="508" 
d="M508 569l-119 -61l118 -63l-58 -100l-119 77l5 -149h-115l5 148l-116 -76l-58 100l118 63l-119 61l58 101l116 -74l-4 146h115l-4 -147l119 75z" />
    <glyph glyph-name="plus" unicode="+" horiz-adv-x="695" 
d="M643 228h-227v-227h-136v227h-228v136h228v228h136v-228h227v-136z" />
    <glyph glyph-name="comma" unicode="," horiz-adv-x="281" 
d="M177 75c0 -92 -73 -186 -126 -234h-93c27 29 86 93 98 144c-49 0 -65 39 -65 70c0 61 38 102 107 102c52 0 79 -36 79 -82z" />
    <glyph glyph-name="hyphen" unicode="-" horiz-adv-x="386" 
d="M322 196h-322l27 136h322z" />
    <glyph glyph-name="period" unicode="." horiz-adv-x="281" 
d="M173 91c0 -72 -36 -102 -104 -102c-48 0 -84 20 -84 67c0 70 35 102 105 102c45 0 83 -19 83 -67z" />
    <glyph glyph-name="slash" unicode="/" horiz-adv-x="528" 
d="M578 742l-515 -888h-151l515 888h151z" />
    <glyph glyph-name="zero" unicode="0" horiz-adv-x="637" 
d="M598 378c0 -190 -99 -393 -338 -393c-181 0 -245 113 -245 220c0 198 96 401 340 401c179 0 243 -109 243 -228zM271 121c105 0 157 133 157 250c0 61 -28 99 -89 99c-102 0 -153 -133 -153 -248c0 -60 25 -101 85 -101z" />
    <glyph glyph-name="one" unicode="1" horiz-adv-x="541" 
d="M412 0h-405l27 136h129l51 247c-47 -21 -112 -39 -152 -44l27 133c88 25 156 64 214 126h118l-94 -462h112z" />
    <glyph glyph-name="two" unicode="2" horiz-adv-x="613" 
d="M501 0h-518l22 112c86 50 153 89 223 136c118 79 171 114 171 168c0 24 -16 51 -74 51c-64 0 -103 -22 -167 -74l-87 105c65 60 143 108 282 108c124 0 222 -53 222 -163c0 -95 -57 -155 -154 -219c-58 -38 -89 -55 -146 -88h254z" />
    <glyph glyph-name="three" unicode="3" horiz-adv-x="567" 
d="M495 105c0 -177 -129 -271 -320 -271c-97 0 -199 33 -252 113l121 99c32 -52 83 -76 136 -76c78 0 144 45 144 130c0 62 -39 98 -112 98c-33 0 -61 -4 -89 -12l17 83l180 186h-257l28 136h476l-23 -113l-184 -185c90 -26 135 -97 135 -188z" />
    <glyph glyph-name="four" unicode="4" horiz-adv-x="675" 
d="M575 0h-86l-34 -166h-169l34 166h-346l28 142l448 456h160l-94 -462h86zM347 136l50 227l-213 -227h163z" />
    <glyph glyph-name="five" unicode="5" horiz-adv-x="595" 
d="M519 118c0 -188 -130 -284 -330 -284c-109 0 -194 42 -250 118l119 98c38 -52 84 -80 143 -80c88 0 142 53 142 133c0 59 -44 98 -122 98c-49 0 -82 -8 -113 -28h-92l128 418h434l-28 -136h-302l-41 -136c29 9 59 11 87 11c140 0 225 -82 225 -212z" />
    <glyph glyph-name="six" unicode="6" horiz-adv-x="643" 
d="M587 273c0 -168 -105 -288 -297 -288c-185 0 -268 112 -268 253c0 223 130 504 407 504c88 0 156 -23 208 -70l-108 -109c-33 30 -59 46 -114 46c-89 0 -152 -64 -188 -175c50 35 102 48 161 48c117 0 199 -83 199 -209zM288 121c81 0 125 53 125 134c0 58 -30 91 -88 91
c-45 0 -98 -16 -122 -27c-6 -32 -10 -59 -10 -83c0 -75 32 -115 95 -115z" />
    <glyph glyph-name="seven" unicode="7" horiz-adv-x="608" 
d="M600 480l-429 -646h-186l419 620h-196l-21 -99h-148l49 236h535z" />
    <glyph glyph-name="eight" unicode="8" horiz-adv-x="632" 
d="M575 218c0 -168 -142 -233 -309 -233s-260 72 -260 179c0 108 68 178 184 223c-48 38 -90 80 -90 147c0 146 142 208 293 208c142 0 233 -64 233 -160c0 -95 -55 -151 -155 -199c66 -49 104 -96 104 -165zM344 459c42 18 110 50 110 104c0 24 -16 55 -80 55
c-42 0 -105 -18 -105 -74c0 -29 25 -59 75 -85zM277 111c59 0 122 23 122 90c0 30 -19 71 -87 109c-55 -18 -133 -59 -133 -129c0 -33 26 -70 98 -70z" />
    <glyph glyph-name="nine" unicode="9" horiz-adv-x="651" 
d="M41 313c0 168 112 293 300 293c193 0 265 -126 265 -267c0 -248 -124 -504 -401 -504c-88 0 -156 19 -214 70l85 117c33 -30 89 -54 144 -54c89 0 145 67 181 182c-50 -35 -102 -48 -161 -48c-117 0 -199 74 -199 211zM340 470c-78 0 -125 -60 -125 -134
c0 -58 30 -98 88 -98c45 0 96 16 120 27c8 28 12 66 12 90c0 75 -32 115 -95 115z" />
    <glyph glyph-name="colon" unicode=":" horiz-adv-x="281" 
d="M173 91c0 -72 -36 -102 -104 -102c-48 0 -84 20 -84 67c0 70 35 102 105 102c45 0 83 -19 83 -67zM243 440c0 -72 -36 -102 -104 -102c-48 0 -84 20 -84 67c0 70 35 102 105 102c45 0 83 -19 83 -67z" />
    <glyph glyph-name="semicolon" unicode=";" horiz-adv-x="281" 
d="M254 442c0 -72 -36 -102 -104 -102c-48 0 -84 20 -84 67c0 70 35 102 105 102c45 0 83 -19 83 -67zM177 75c0 -92 -73 -186 -126 -234h-93c27 29 86 93 98 144c-49 0 -65 39 -65 70c0 61 38 102 107 102c52 0 79 -36 79 -82z" />
    <glyph glyph-name="less" unicode="&#x3c;" horiz-adv-x="695" 
d="M623 0l-591 228v136l591 227v-136l-413 -159l413 -160v-136z" />
    <glyph glyph-name="equal" unicode="=" horiz-adv-x="695" 
d="M643 334h-591v136h591v-136zM643 104h-591v136h591v-136z" />
    <glyph glyph-name="greater" unicode="&#x3e;" horiz-adv-x="695" 
d="M663 229l-591 -229v136l413 160l-413 159v136l591 -227v-135z" />
    <glyph glyph-name="question" unicode="?" horiz-adv-x="558" 
d="M564 579c0 -137 -105 -208 -250 -272l-18 -87h-155l33 159c63 29 218 81 218 172c0 31 -20 55 -68 55c-49 0 -86 -18 -132 -68l-108 83c65 72 152 121 259 121c144 0 221 -58 221 -163zM289 91c0 -72 -36 -102 -104 -102c-48 0 -84 20 -84 67c0 70 35 102 105 102
c45 0 83 -19 83 -67z" />
    <glyph glyph-name="at" unicode="@" horiz-adv-x="1016" 
d="M982 400c0 -232 -93 -415 -329 -415c-55 0 -101 13 -109 63c-47 -35 -98 -48 -151 -48c-107 0 -185 68 -185 185c0 187 114 357 323 357c34 0 72 -7 107 -29l60 21h68l-67 -379c-4 -25 -5 -35 -5 -46c0 -19 8 -30 27 -30c95 0 151 143 151 313c0 163 -112 256 -307 256
c-249 0 -440 -182 -440 -464c0 -171 110 -282 304 -282c81 0 160 7 243 26v-96c-89 -20 -177 -25 -264 -25c-244 0 -391 152 -391 371c0 344 243 564 567 564c244 0 398 -130 398 -342zM590 402c-16 14 -35 25 -66 25c-82 0 -145 -117 -145 -232c0 -49 16 -80 61 -80
c33 0 71 16 98 40z" />
    <glyph glyph-name="A" unicode="A" horiz-adv-x="716" 
d="M634 0h-175l-14 139h-250l-69 -139h-184l381 727h226zM431 277l-28 275l-139 -275h167z" />
    <glyph glyph-name="B" unicode="B" horiz-adv-x="697" 
d="M628 244c0 -174 -133 -244 -320 -244h-308l146 727h284c166 0 222 -66 222 -159c0 -91 -55 -154 -150 -178c75 -19 126 -71 126 -146zM332 447c65 0 122 17 122 81c0 38 -19 56 -80 56h-77l-27 -137h62zM313 143c71 0 129 21 129 94c0 45 -31 70 -89 70h-112l-33 -164
h105z" />
    <glyph glyph-name="C" unicode="C" horiz-adv-x="688" 
d="M714 589l-153 -75c-20 47 -57 84 -133 84c-131 0 -212 -137 -212 -306c0 -96 39 -163 129 -163c78 0 145 51 176 74l89 -133c-95 -67 -184 -85 -281 -85c-225 0 -303 138 -303 292c0 249 136 465 418 465c165 0 239 -78 270 -153z" />
    <glyph glyph-name="D" unicode="D" horiz-adv-x="747" 
d="M721 439c0 -271 -167 -439 -474 -439h-247l146 727h258c215 0 317 -114 317 -288zM261 146c167 0 269 111 269 283c0 99 -53 152 -180 152h-53l-89 -435h53z" />
    <glyph glyph-name="E" unicode="E" horiz-adv-x="620" 
d="M493 0h-493l146 727h494l-30 -148h-314l-27 -133h282l-29 -144h-282l-31 -154h314z" />
    <glyph glyph-name="F" unicode="F" horiz-adv-x="614" 
d="M614 579h-318l-30 -147h286l-29 -144h-286l-58 -288h-179l146 727h498z" />
    <glyph glyph-name="G" unicode="G" horiz-adv-x="752" 
d="M744 583l-154 -73c-21 50 -64 88 -140 88c-153 0 -233 -138 -233 -302c0 -103 47 -167 154 -167c37 0 71 7 106 20l18 90h-116l30 148h296l-67 -329c-57 -31 -171 -73 -289 -73c-219 0 -323 130 -323 295c0 255 148 462 438 462c159 0 239 -70 280 -159z" />
    <glyph glyph-name="H" unicode="H" horiz-adv-x="726" 
d="M592 0h-180l61 301h-233l-61 -301h-179l146 727h180l-56 -278h233l56 278h180z" />
    <glyph glyph-name="I" unicode="I" horiz-adv-x="450" 
d="M341 0h-373l28 138h96l91 451h-97l28 138h374l-28 -138h-97l-91 -451h97z" />
    <glyph glyph-name="J" unicode="J" horiz-adv-x="510" 
d="M425 220c-36 -178 -146 -235 -294 -235c-60 0 -129 13 -170 27l63 142c27 -12 67 -25 115 -25c70 0 97 46 115 136l66 324h-18c-44 0 -92 -17 -148 -50l-62 123c50 34 134 65 258 65h178z" />
    <glyph glyph-name="K" unicode="K" horiz-adv-x="712" 
d="M445 0l-118 322l-102 -92l-46 -230h-179l146 727h180l-55 -268l281 268h225l-307 -277l174 -450h-199z" />
    <glyph glyph-name="L" unicode="L" horiz-adv-x="598" 
d="M493 0h-493l146 727h180l-117 -579h314z" />
    <glyph glyph-name="M" unicode="M" horiz-adv-x="838" 
d="M704 0h-170l97 470l-205 -299h-84l-80 299l-93 -470h-169l146 727h213l74 -302l202 302h216z" />
    <glyph glyph-name="N" unicode="N" horiz-adv-x="749" 
d="M615 0h-189l-169 462l-91 -462h-166l146 727h196l162 -443l91 443h167z" />
    <glyph glyph-name="O" unicode="O" horiz-adv-x="784" 
d="M429 598c-144 0 -213 -174 -213 -305c0 -89 37 -164 139 -164c144 0 213 174 213 305c0 89 -37 164 -139 164zM442 742c223 0 316 -138 316 -302c0 -237 -136 -455 -414 -455c-225 0 -318 138 -318 302c0 237 136 455 416 455z" />
    <glyph glyph-name="P" unicode="P" horiz-adv-x="651" 
d="M651 521c0 -190 -143 -299 -354 -299h-72l-45 -222h-180l146 727h251c188 0 254 -92 254 -206zM322 371c85 0 136 48 136 129c0 49 -25 79 -94 79h-67l-42 -208h67z" />
    <glyph glyph-name="Q" unicode="Q" horiz-adv-x="784" 
d="M442 742c223 0 316 -138 316 -302c0 -221 -119 -426 -361 -452c-3 -11 -4 -20 -4 -27c0 -28 34 -32 89 -32c39 0 98 8 143 21l18 -120c-51 -17 -147 -30 -204 -30c-117 0 -216 19 -216 114c0 28 8 55 18 83c-151 35 -215 154 -215 290c0 237 136 455 416 455zM429 598
c-144 0 -213 -174 -213 -305c0 -89 37 -164 139 -164c144 0 213 174 213 305c0 89 -37 164 -139 164z" />
    <glyph glyph-name="R" unicode="R" horiz-adv-x="677" 
d="M584 0h-181l-10 213c-3 54 -18 76 -70 76h-86l-58 -289h-179l146 727h281c149 0 240 -61 240 -175c0 -105 -62 -176 -173 -206c62 -13 77 -50 81 -139zM353 429c63 0 121 22 121 95c0 33 -20 60 -77 60h-100l-31 -155h87z" />
    <glyph glyph-name="S" unicode="S" horiz-adv-x="625" 
d="M585 232c0 -173 -153 -247 -327 -247c-147 0 -245 63 -291 149l154 85c31 -55 80 -90 153 -90c60 0 122 22 122 77c0 44 -50 64 -112 85c-108 36 -231 74 -231 221c0 137 117 230 302 230c121 0 214 -45 269 -142l-146 -84c-32 54 -67 85 -145 85c-42 0 -93 -20 -93 -68
c0 -45 55 -62 140 -90c96 -32 205 -85 205 -211z" />
    <glyph glyph-name="T" unicode="T" horiz-adv-x="632" 
d="M662 579h-211l-117 -579h-180l117 579h-211l30 148h602z" />
    <glyph glyph-name="U" unicode="U" horiz-adv-x="717" 
d="M646 290c-39 -192 -122 -305 -348 -305c-177 0 -257 65 -257 203c0 30 4 73 19 146l81 393h180l-78 -383c-10 -50 -19 -102 -19 -124c0 -67 31 -91 92 -91c90 0 129 62 151 168l88 430h180z" />
    <glyph glyph-name="V" unicode="V" horiz-adv-x="712" 
d="M770 727l-405 -727h-169l-108 727h177l61 -480l261 480h183z" />
    <glyph glyph-name="W" unicode="W" horiz-adv-x="938" 
d="M1000 727l-313 -727h-148l-67 348l-204 -348h-158l-18 727h173v-448l179 303h140l60 -292l179 437h177z" />
    <glyph glyph-name="X" unicode="X" horiz-adv-x="679" 
d="M736 727l-297 -362l159 -365h-189l-94 215l-177 -215h-202l311 373l-154 354h189l89 -205l171 205h194z" />
    <glyph glyph-name="Y" unicode="Y" horiz-adv-x="676" 
d="M739 727l-328 -434l-59 -293h-180l57 280l-149 447h183l85 -269l199 269h192z" />
    <glyph glyph-name="Z" unicode="Z" horiz-adv-x="671" 
d="M562 0h-580l24 118l414 461h-305l30 148h554l-23 -113l-421 -466h337z" />
    <glyph glyph-name="bracketleft" unicode="[" horiz-adv-x="370" 
d="M251 -193h-289l186 920h290l-24 -118h-138l-139 -684h138z" />
    <glyph glyph-name="backslash" unicode="\" horiz-adv-x="528" 
d="M435 -146h-134l-177 888h134z" />
    <glyph glyph-name="bracketright" unicode="]" horiz-adv-x="370" 
d="M188 -193h-289l24 118h137l139 684h-138l24 118h290z" />
    <glyph glyph-name="asciicircum" unicode="^" horiz-adv-x="577" 
d="M572 341h-152l-131 223l-133 -223h-151l227 386h113z" />
    <glyph glyph-name="underscore" unicode="_" horiz-adv-x="500" 
d="M456 -125h-512v50h512v-50z" />
    <glyph glyph-name="grave" unicode="`" horiz-adv-x="500" 
d="M346 590h-109l-145 176h162z" />
    <glyph glyph-name="a" unicode="a" horiz-adv-x="601" 
d="M489 0h-135l-3 44c-45 -39 -93 -59 -152 -59c-113 0 -174 85 -174 209c0 171 96 348 291 348c63 0 111 -14 134 -25l75 17h72zM362 168l47 239c-16 9 -42 20 -75 20c-100 0 -140 -142 -140 -223c0 -75 24 -104 66 -104c34 0 78 39 102 68z" />
    <glyph glyph-name="b" unicode="b" horiz-adv-x="602" 
d="M577 340c0 -190 -94 -355 -294 -355c-40 0 -86 8 -131 25l-76 -17h-71l148 734h162l-46 -226c43 26 86 41 137 41c112 0 171 -88 171 -202zM273 100c92 0 134 128 134 233c0 62 -25 94 -66 94c-35 0 -70 -19 -95 -40l-55 -267c19 -7 49 -20 82 -20z" />
    <glyph glyph-name="c" unicode="c" horiz-adv-x="521" 
d="M538 433l-118 -69c-19 34 -42 50 -86 50c-90 0 -139 -109 -139 -202c0 -69 27 -99 88 -99c42 0 78 20 104 35l60 -113c-62 -37 -132 -50 -195 -50c-151 0 -227 77 -227 212c0 165 85 345 318 345c85 0 158 -34 195 -109z" />
    <glyph glyph-name="d" unicode="d" horiz-adv-x="607" 
d="M489 0h-135l-3 44c-45 -39 -93 -59 -152 -59c-113 0 -174 85 -174 209c0 171 93 348 291 348c50 0 91 -15 116 -28l43 213h162zM362 168l47 237c-16 9 -40 22 -75 22c-100 0 -140 -142 -140 -223c0 -75 24 -104 66 -104c34 0 78 39 102 68z" />
    <glyph glyph-name="e" unicode="e" horiz-adv-x="549" 
d="M542 394c0 -152 -159 -187 -351 -194c-1 -5 -1 -8 -1 -12c0 -56 37 -75 84 -75c46 0 95 23 117 36l59 -114c-47 -25 -114 -50 -211 -50c-130 0 -214 69 -214 208c0 176 110 349 315 349c132 0 202 -60 202 -148zM203 308c144 3 181 35 181 77c0 27 -19 42 -53 42
c-49 0 -107 -40 -128 -119z" />
    <glyph glyph-name="f" unicode="f" horiz-adv-x="416" 
d="M299 409l-83 -412c-18 -89 -46 -190 -223 -190c-46 0 -86 8 -123 21l46 121c19 -8 45 -16 71 -16c38 0 57 16 67 64l83 412h-71l24 118h71l7 35c23 116 78 180 228 180c46 0 94 -9 130 -20l-46 -121c-19 8 -51 15 -77 15c-38 0 -65 -14 -75 -64l-5 -25h107l-24 -118h-107
z" />
    <glyph glyph-name="g" unicode="g" horiz-adv-x="616" 
d="M651 527l-24 -118c-13 5 -24 7 -33 7c-24 0 -35 -16 -41 -44l-70 -345c-33 -162 -123 -220 -275 -220c-69 0 -154 14 -212 42l55 116c41 -23 101 -41 156 -41c65 0 95 31 107 88l6 29c-46 -33 -86 -41 -132 -41c-111 0 -163 77 -163 194c0 187 108 348 292 348
c51 0 97 -18 130 -39c22 28 65 36 109 36c30 0 62 -4 95 -12zM353 179l45 222c-15 13 -43 26 -70 26c-96 0 -133 -147 -133 -229c0 -55 18 -83 59 -83c33 0 69 32 99 64z" />
    <glyph glyph-name="h" unicode="h" horiz-adv-x="586" 
d="M480 0h-162l63 310c5 24 10 55 10 64c0 29 -16 36 -42 36c-30 0 -79 -26 -109 -48l-74 -362h-161l146 727h162l-48 -240c47 32 96 55 158 55c77 0 137 -38 137 -123c0 -19 -3 -45 -7 -63z" />
    <glyph glyph-name="i" unicode="i" horiz-adv-x="312" 
d="M202 0h-162l75 343c4 19 10 42 10 53c0 10 -3 14 -12 14s-27 -10 -50 -24l-45 87c75 47 132 69 189 69c69 0 87 -37 87 -74c0 -10 -4 -34 -8 -55zM339 672c0 -69 -42 -94 -107 -94c-51 0 -86 21 -86 69c0 69 42 94 107 94c51 0 86 -20 86 -69z" />
    <glyph glyph-name="j" unicode="j" horiz-adv-x="329" 
d="M60 11l72 332c4 19 10 41 10 52c0 10 -3 15 -12 15s-27 -10 -50 -24l-45 87c75 47 132 69 189 69c69 0 87 -37 87 -74c0 -10 -4 -34 -8 -55l-82 -404c-28 -138 -91 -202 -230 -202c-26 0 -67 3 -116 17l39 123c24 -7 48 -12 77 -12s57 21 69 76zM356 672
c0 -69 -42 -94 -107 -94c-51 0 -86 21 -86 69c0 69 42 94 107 94c51 0 86 -20 86 -69z" />
    <glyph glyph-name="k" unicode="k" horiz-adv-x="564" 
d="M579 527l-228 -216l71 -163c15 -34 28 -36 41 -36c8 0 18 2 30 6l21 -120c-25 -6 -61 -13 -88 -13c-71 0 -102 25 -132 93l-56 125l-44 -41l-33 -162h-161l146 727h162l-72 -358l164 158h179z" />
    <glyph glyph-name="l" unicode="l" horiz-adv-x="345" 
d="M269 122l16 -117c-47 -14 -97 -20 -132 -20c-87 0 -129 37 -129 110c0 22 6 65 12 94l100 497l179 82l-113 -552c-7 -32 -13 -64 -13 -74c0 -19 7 -28 29 -28c17 0 34 3 51 8z" />
    <glyph glyph-name="m" unicode="m" horiz-adv-x="866" 
d="M759 0h-162l64 315c5 26 9 47 9 61c0 28 -12 34 -32 34c-28 0 -71 -21 -103 -44l-75 -366h-162l64 315c5 25 9 47 9 59c0 28 -9 36 -34 36c-24 0 -72 -23 -102 -49l-74 -361h-161l107 527h147l-11 -52c46 35 107 67 169 67c74 0 107 -37 120 -72c53 37 108 72 180 72
c87 0 127 -54 127 -123c0 -14 -2 -40 -7 -63z" />
    <glyph glyph-name="n" unicode="n" horiz-adv-x="581" 
d="M475 0h-162l63 310c5 23 10 55 10 64c0 29 -16 36 -42 36c-30 0 -79 -26 -109 -48l-74 -362h-161l107 527h147l-11 -51c61 43 113 66 175 66c77 0 137 -38 137 -123c0 -18 -2 -39 -7 -62z" />
    <glyph glyph-name="o" unicode="o" horiz-adv-x="595" 
d="M570 329c0 -174 -102 -344 -317 -344c-167 0 -228 106 -228 206c0 182 103 351 316 351c162 0 229 -96 229 -213zM272 113c80 0 128 117 128 208c0 65 -28 93 -75 93c-87 0 -130 -125 -130 -211c0 -64 31 -90 77 -90z" />
    <glyph glyph-name="p" unicode="p" horiz-adv-x="601" 
d="M576 342c0 -202 -92 -357 -280 -357c-44 0 -87 14 -126 34l-43 -212h-161l145 720h127l11 -44c42 33 87 59 154 59c117 0 173 -83 173 -200zM272 100c101 0 134 134 134 227c0 62 -18 100 -63 100c-35 0 -64 -18 -99 -45l-53 -257c15 -10 38 -25 81 -25z" />
    <glyph glyph-name="q" unicode="q" horiz-adv-x="603" 
d="M450 -193h-162l44 219c-32 -20 -74 -41 -133 -41c-113 0 -174 85 -174 209c0 171 96 348 291 348c64 0 112 -14 135 -25l75 17h72zM362 168l48 239c-16 9 -42 20 -76 20c-101 0 -140 -142 -140 -223c0 -75 24 -104 66 -104c35 0 78 39 102 68z" />
    <glyph glyph-name="r" unicode="r" horiz-adv-x="433" 
d="M468 525l-49 -154c-14 4 -31 6 -54 6c-51 0 -101 -24 -138 -57l-65 -320h-162l107 527h147l-16 -79c36 38 100 87 174 87c19 0 43 -3 56 -10z" />
    <glyph glyph-name="s" unicode="s" horiz-adv-x="502" 
d="M459 168c0 -138 -117 -183 -242 -183c-100 0 -181 32 -228 109l116 72c39 -51 88 -60 128 -60c36 0 62 9 62 35c0 32 -63 48 -126 73c-57 23 -113 65 -113 143c0 126 104 185 234 185c96 0 171 -33 212 -103l-120 -65c-21 36 -54 50 -102 50c-42 0 -65 -16 -65 -41
c0 -23 24 -35 101 -62c68 -24 143 -64 143 -153z" />
    <glyph glyph-name="t" unicode="t" horiz-adv-x="390" 
d="M320 5c-34 -10 -88 -20 -129 -20c-108 0 -144 40 -144 115c0 24 4 51 10 82l46 227h-69l24 118h69l27 131l176 69l-41 -200h112l-24 -118h-112l-41 -203c-5 -26 -8 -45 -8 -59c0 -27 17 -32 37 -32c11 0 31 3 52 9z" />
    <glyph glyph-name="u" unicode="u" horiz-adv-x="582" 
d="M104 527h162l-63 -310c-5 -23 -10 -55 -10 -64c0 -29 16 -36 42 -36c30 0 79 26 109 48l74 362h161l-107 -527h-147l11 51c-61 -43 -113 -66 -175 -66c-77 0 -137 38 -137 123c0 18 2 39 7 62z" />
    <glyph glyph-name="v" unicode="v" horiz-adv-x="525" 
d="M566 527l-309 -527h-113l-94 527h157l37 -298l159 298h163z" />
    <glyph glyph-name="w" unicode="w" horiz-adv-x="772" 
d="M808 527l-266 -527h-105l-65 218l-153 -218h-102l-62 527h154l25 -301l133 199h81l64 -198l140 300h156z" />
    <glyph glyph-name="x" unicode="x" horiz-adv-x="536" 
d="M470 0h-173l-62 146l-105 -146h-171l215 267l-127 260h172l69 -154l119 154h170l-226 -269z" />
    <glyph glyph-name="y" unicode="y" horiz-adv-x="571" 
d="M612 527l-326 -571c-67 -116 -150 -149 -252 -149c-34 0 -81 5 -122 18l50 124c34 -13 65 -19 86 -19c46 0 70 11 101 69l10 19l-93 509h161l46 -319l174 319h165z" />
    <glyph glyph-name="z" unicode="z" horiz-adv-x="549" 
d="M445 0h-445l19 93l288 316h-218l24 118h431l-18 -90l-291 -318h234z" />
    <glyph glyph-name="braceleft" unicode="{" horiz-adv-x="469" 
d="M348 -193h-78c-130 0 -197 40 -197 142c0 62 28 137 28 197c0 45 -19 67 -75 67h-24l25 124h24c83 0 107 40 129 168c33 189 110 237 281 237h78l-24 -118h-75c-59 0 -91 -27 -107 -118c-28 -154 -58 -190 -135 -232c45 -24 59 -62 59 -115c0 -59 -29 -127 -29 -179
c0 -37 20 -55 69 -55h75z" />
    <glyph glyph-name="bar" unicode="|" horiz-adv-x="346" 
d="M241 -250h-136v1000h136v-1000z" />
    <glyph glyph-name="braceright" unicode="}" horiz-adv-x="469" 
d="M93 742h78c130 0 197 -40 197 -142c0 -62 -28 -137 -28 -197c0 -45 19 -67 75 -67h24l-25 -124h-24c-83 0 -107 -40 -129 -168c-33 -189 -110 -237 -281 -237h-78l24 118h75c59 0 91 27 107 118c28 154 58 190 135 232c-45 24 -58 65 -58 118c0 59 28 124 28 176
c0 37 -20 55 -69 55h-75z" />
    <glyph glyph-name="asciitilde" unicode="~" horiz-adv-x="667" 
d="M628 264c-51 -40 -106 -80 -174 -80c-94 0 -179 77 -238 77c-61 0 -133 -45 -178 -83v146c50 42 112 81 180 81c91 0 172 -77 235 -77c73 0 123 36 175 82v-146z" />
    <glyph glyph-name="uni00A0" unicode="&#xa0;" horiz-adv-x="220" 
 />
    <glyph glyph-name="exclamdown" unicode="&#xa1;" horiz-adv-x="318" 
d="M-7 -193l129 507h128l-76 -507h-181zM116 445c0 72 37 104 106 104c48 0 85 -20 85 -68c0 -71 -40 -104 -107 -104c-45 0 -84 20 -84 68z" />
    <glyph glyph-name="cent" unicode="&#xa2;" horiz-adv-x="521" 
d="M538 466l-118 -69c-19 34 -42 50 -86 50c-90 0 -139 -109 -139 -202c0 -69 27 -99 88 -99c42 0 78 20 104 35l60 -113c-62 -37 -132 -50 -195 -50c-19 0 -37 1 -54 3l-90 -187h-106l106 219c-55 35 -83 95 -83 177c0 165 85 345 318 345c4 0 9 -1 14 -1l81 168h106
l-92 -190c36 -18 66 -46 86 -86z" />
    <glyph glyph-name="sterling" unicode="&#xa3;" horiz-adv-x="663" 
d="M671 602l-138 -72c-19 45 -51 76 -122 76c-75 0 -122 -47 -122 -124c0 -29 7 -57 9 -81h178l-24 -118h-161c-12 -58 -38 -103 -97 -147h381l-28 -136h-578l27 131c81 17 122 91 128 152h-85l24 118h62c-2 25 -5 47 -5 71c0 173 107 270 298 270c113 0 217 -49 253 -140z
" />
    <glyph glyph-name="currency" unicode="&#xa4;" horiz-adv-x="642" 
d="M495 241l70 -66l-61 -61l-69 68c-34 -24 -75 -35 -115 -35c-34 0 -77 9 -115 35l-69 -68l-60 61l69 66c-24 39 -35 79 -35 113s10 76 35 113l-69 67l60 61l69 -68c39 26 81 35 115 35c37 0 80 -11 115 -35l69 68l61 -61l-70 -67c27 -40 35 -81 35 -113
c0 -34 -10 -74 -35 -113zM444 355c0 71 -61 122 -123 122c-71 0 -125 -56 -125 -122c0 -67 56 -123 124 -123s124 56 124 123z" />
    <glyph glyph-name="yen" unicode="&#xa5;" horiz-adv-x="667" 
d="M725 727l-229 -304h149l-20 -96h-202l-11 -15l-9 -45h210l-20 -96h-210l-34 -171h-180l34 171h-210l19 96h211l7 35l-8 25h-198l20 96h146l-102 304h195l78 -249l184 249h180z" />
    <glyph glyph-name="brokenbar" unicode="&#xa6;" horiz-adv-x="346" 
d="M241 431h-136v311h136v-311zM241 -192h-136v310h136v-310z" />
    <glyph glyph-name="section" unicode="&#xa7;" horiz-adv-x="501" 
d="M413 1c0 -133 -108 -194 -239 -194c-87 0 -176 26 -227 100l115 86c21 -33 65 -57 117 -57c27 0 66 9 66 47c0 28 -21 44 -121 100c-60 34 -113 89 -113 167c0 82 49 147 123 191c-26 30 -44 65 -44 108c0 133 108 194 239 194c87 0 176 -26 227 -100l-115 -86
c-21 33 -65 57 -117 57c-27 0 -66 -9 -66 -47c0 -28 21 -44 121 -100c60 -34 113 -89 113 -167c0 -82 -49 -148 -124 -192c26 -29 45 -64 45 -107zM174 283c0 -34 47 -63 99 -98c27 17 56 46 56 82c0 33 -47 62 -100 97c-26 -17 -55 -46 -55 -81z" />
    <glyph glyph-name="dieresis" unicode="&#xa8;" horiz-adv-x="500" 
d="M210 672c0 -53 -34 -85 -90 -85c-36 0 -70 20 -70 59c0 57 34 88 89 88c40 0 71 -21 71 -62zM450 672c0 -53 -34 -85 -90 -85c-36 0 -70 20 -70 59c0 57 34 88 89 88c40 0 71 -21 71 -62z" />
    <glyph glyph-name="copyright" unicode="&#xa9;" horiz-adv-x="944" 
d="M907 307c0 -240 -195 -435 -435 -435s-435 195 -435 435s195 435 435 435s435 -195 435 -435zM809 307c0 186 -151 337 -337 337s-337 -151 -337 -337s151 -337 337 -337s337 151 337 337zM674 446l-103 -52c-19 32 -38 56 -86 56c-67 0 -94 -39 -94 -134
c0 -94 27 -133 94 -133c46 0 70 18 101 45l77 -80c-55 -49 -117 -65 -178 -65c-165 0 -224 90 -224 233c0 144 59 234 224 234c114 0 159 -53 189 -104z" />
    <glyph glyph-name="ordfeminine" unicode="&#xaa;" horiz-adv-x="364" 
d="M427 734l-69 -344h-95l-2 29c-23 -23 -58 -38 -96 -38c-83 0 -118 61 -118 135c0 122 64 226 193 226c26 0 59 -6 80 -14l57 6h50zM293 640c-17 8 -37 10 -49 10c-54 0 -80 -62 -80 -119c0 -40 12 -58 39 -58c18 0 42 9 63 35z" />
    <glyph glyph-name="guillemotleft" unicode="&#xab;" horiz-adv-x="705" 
d="M304 27h-160l-126 237l215 237h171l-220 -243zM607 27h-160l-126 237l215 237h171l-220 -243z" />
    <glyph glyph-name="logicalnot" unicode="&#xac;" horiz-adv-x="695" 
d="M643 104h-135v230h-456v136h591v-366z" />
    <glyph glyph-name="uni00AD" unicode="&#xad;" horiz-adv-x="386" 
d="M340 196h-322l27 136h322z" />
    <glyph glyph-name="registered" unicode="&#xae;" horiz-adv-x="944" 
d="M907 307c0 -240 -195 -435 -435 -435s-435 195 -435 435s195 435 435 435s435 -195 435 -435zM809 307c0 186 -151 337 -337 337s-337 -151 -337 -337s151 -337 337 -337s337 151 337 337zM669 92h-122l-27 132c-6 30 -18 42 -47 42h-48v-174h-121v448h178
c106 0 174 -21 174 -124c0 -56 -24 -90 -63 -105c29 -12 39 -42 46 -75zM532 401c0 25 -10 43 -50 43h-57v-83h49c41 0 58 10 58 40z" />
    <glyph glyph-name="macron" unicode="&#xaf;" horiz-adv-x="500" 
d="M406 636h-333l21 103h333z" />
    <glyph glyph-name="degree" unicode="&#xb0;" horiz-adv-x="393" 
d="M398 578c0 -92 -76 -165 -164 -165c-90 0 -165 73 -165 165c0 91 75 164 164 164c92 0 165 -75 165 -164zM298 577c0 36 -28 65 -64 65c-38 0 -65 -31 -65 -64c0 -36 28 -65 65 -65c36 0 64 29 64 64z" />
    <glyph glyph-name="plusminus" unicode="&#xb1;" horiz-adv-x="695" 
d="M643 383h-227v-187h-136v187h-228v136h228v208h136v-208h227v-136zM643 0h-591v136h591v-136z" />
    <glyph glyph-name="twosuperior" unicode="&#xb2;" 
d="M441 296h-408l19 95l124 70c110 62 155 86 155 130c0 19 -10 37 -43 37c-38 0 -72 -19 -120 -53l-70 84c50 43 115 83 229 83c90 0 164 -31 164 -122c0 -98 -76 -149 -167 -193l-31 -15h172z" />
    <glyph glyph-name="threesuperior" unicode="&#xb3;" 
d="M443 470c0 -117 -93 -184 -215 -184c-53 0 -124 11 -169 89l105 59c11 -18 31 -37 63 -37c37 0 63 20 63 56c0 19 -15 37 -45 37c-20 0 -35 -3 -49 -6l11 53l93 85h-158l23 110h318l-18 -89l-86 -83c44 -17 64 -51 64 -90z" />
    <glyph glyph-name="acute" unicode="&#xb4;" horiz-adv-x="500" 
d="M435 766l-196 -176h-122l153 176h165z" />
    <glyph glyph-name="mu" unicode="&#xb5;" horiz-adv-x="586" 
d="M459 0h-147l10 51c-32 -42 -67 -66 -112 -66c-31 0 -53 17 -63 27l-42 -205h-161l146 720h162l-74 -363c4 -18 28 -41 58 -41c44 0 72 21 96 49l72 355h162z" />
    <glyph glyph-name="paragraph" unicode="&#xb6;" horiz-adv-x="647" 
d="M697 614h-72l-164 -807h-132l164 807h-61l-164 -807h-132l98 482c-109 11 -172 81 -172 179c0 164 104 259 296 259h362z" />
    <glyph glyph-name="periodcentered" unicode="&#xb7;" horiz-adv-x="281" 
d="M235 316c0 -72 -36 -102 -104 -102c-48 0 -84 20 -84 67c0 70 35 102 105 102c45 0 83 -19 83 -67z" />
    <glyph glyph-name="cedilla" unicode="&#xb8;" horiz-adv-x="500" 
d="M366 -89c0 -79 -81 -104 -162 -104c-52 0 -100 10 -131 26l40 73c22 -9 48 -19 95 -19c15 0 33 4 33 22c0 16 -17 27 -68 28l61 72h97l-21 -27c30 -8 56 -32 56 -71z" />
    <glyph glyph-name="onesuperior" unicode="&#xb9;" 
d="M399 296h-320l24 116h95l31 153c-35 -12 -72 -21 -112 -27l23 113c73 19 125 44 164 91h103l-67 -330h83z" />
    <glyph glyph-name="ordmasculine" unicode="&#xba;" horiz-adv-x="387" 
d="M409 600c0 -127 -77 -219 -212 -219c-111 0 -141 78 -141 143c0 112 70 218 210 218c110 0 143 -77 143 -142zM215 471c61 0 78 78 78 129c0 37 -20 52 -43 52c-61 0 -77 -74 -77 -126c0 -38 17 -55 42 -55z" />
    <glyph glyph-name="guillemotright" unicode="&#xbb;" horiz-adv-x="705" 
d="M352 501h160l126 -237l-215 -237h-171l220 243zM49 501h160l126 -237l-215 -237h-171l220 243z" />
    <glyph glyph-name="onequarter" unicode="&#xbc;" horiz-adv-x="1076" 
d="M400 296h-320l24 116h95l32 157c-34 -19 -78 -27 -113 -31l23 113c73 19 121 44 164 91h103l-67 -330h83zM980 -75h-55l-16 -76h-139l16 76h-216l22 111l257 258h151l-54 -265h55zM812 23l26 124l-120 -124h94zM924 727l-573 -878h-141l573 878h141z" />
    <glyph glyph-name="onehalf" unicode="&#xbd;" horiz-adv-x="1076" 
d="M393 296h-320l24 116h95l32 157c-34 -19 -78 -27 -113 -31l23 113c73 19 121 44 164 91h103l-67 -330h83zM897 727l-573 -878h-141l573 878h141zM979 -150h-408l19 95c69 38 96 56 148 88c59 37 131 74 131 120c0 16 -12 27 -40 27c-38 0 -71 -17 -119 -51l-74 84
c53 43 128 83 229 83c96 0 166 -36 166 -112c0 -105 -95 -164 -196 -218h168z" />
    <glyph glyph-name="threequarters" unicode="&#xbe;" horiz-adv-x="1076" 
d="M437 470c0 -117 -98 -182 -217 -182c-53 0 -122 11 -167 89l105 59c11 -18 33 -37 65 -37c33 0 61 18 61 54c0 19 -11 40 -45 40c-20 0 -35 -3 -49 -7l11 53l99 85h-164l23 110h318l-18 -89l-86 -83c46 -14 64 -53 64 -92zM913 727l-573 -878h-141l573 878h141zM973 -75
h-55l-16 -76h-139l16 76h-216l22 111l257 258h151l-54 -265h55zM805 23l26 124l-120 -124h94z" />
    <glyph glyph-name="questiondown" unicode="&#xbf;" horiz-adv-x="558" 
d="M-6 -30c0 137 105 208 250 272l18 87h155l-33 -159c-63 -29 -218 -81 -218 -172c0 -31 20 -55 68 -55c49 0 86 18 132 68l108 -83c-65 -72 -152 -121 -259 -121c-144 0 -221 58 -221 163zM269 458c0 72 36 102 104 102c48 0 84 -20 84 -67c0 -70 -35 -102 -105 -102
c-45 0 -83 19 -83 67z" />
    <glyph glyph-name="Agrave" unicode="&#xc0;" horiz-adv-x="716" 
d="M634 0h-175l-14 139h-250l-69 -139h-184l381 727h226zM431 277l-28 275l-139 -275h167zM515 780h-109l-145 176h162z" />
    <glyph glyph-name="Aacute" unicode="&#xc1;" horiz-adv-x="716" 
d="M634 0h-175l-14 139h-250l-69 -139h-184l381 727h226zM431 277l-28 275l-139 -275h167zM668 956l-196 -176h-122l153 176h165z" />
    <glyph glyph-name="Acircumflex" unicode="&#xc2;" horiz-adv-x="716" 
d="M634 0h-175l-14 139h-250l-69 -139h-184l381 727h226zM431 277l-28 275l-139 -275h167zM643 780h-122l-66 85l-98 -85h-120l172 176h131z" />
    <glyph glyph-name="Atilde" unicode="&#xc3;" horiz-adv-x="716" 
d="M634 0h-175l-14 139h-250l-69 -139h-184l381 727h226zM431 277l-28 275l-139 -275h167zM651 914c-21 -73 -65 -134 -159 -134c-67 0 -96 30 -127 30c-20 0 -43 -15 -46 -30h-99c18 71 67 134 157 134c64 0 104 -30 128 -30s44 17 47 30h99z" />
    <glyph glyph-name="Adieresis" unicode="&#xc4;" horiz-adv-x="716" 
d="M634 0h-175l-14 139h-250l-69 -139h-184l381 727h226zM431 277l-28 275l-139 -275h167zM403 865c0 -53 -34 -85 -90 -85c-36 0 -70 20 -70 59c0 57 34 88 89 88c40 0 71 -21 71 -62zM643 865c0 -53 -34 -85 -90 -85c-36 0 -70 20 -70 59c0 57 34 88 89 88
c40 0 71 -21 71 -62z" />
    <glyph glyph-name="Aring" unicode="&#xc5;" horiz-adv-x="716" 
d="M634 0h-175l-14 139h-250l-69 -139h-184l380 725c-12 15 -15 40 -15 58c0 78 61 132 151 132c80 0 122 -48 122 -102c0 -37 -11 -66 -31 -89zM431 277l-28 275l-139 -275h167zM436 742c32 0 64 19 64 59c0 24 -18 43 -51 43s-64 -20 -64 -60c0 -23 18 -42 51 -42z" />
    <glyph glyph-name="AE" unicode="&#xc6;" horiz-adv-x="984" 
d="M857 0h-470l28 139h-198l-76 -139h-199l419 727h643l-30 -148h-290l-27 -133h258l-29 -144h-258l-31 -154h290zM443 277l61 302h-49l-166 -302h154z" />
    <glyph glyph-name="Ccedilla" unicode="&#xc7;" horiz-adv-x="688" 
d="M417 -89c0 -79 -81 -104 -162 -104c-52 0 -100 10 -131 26l40 73c22 -9 48 -19 95 -19c15 0 33 4 33 22c0 16 -17 27 -68 28l44 52c-178 23 -242 149 -242 288c0 249 136 465 418 465c165 0 239 -78 270 -153l-153 -75c-20 47 -57 84 -133 84c-131 0 -212 -137 -212 -306
c0 -96 39 -163 129 -163c78 0 145 51 176 74l89 -133c-84 -59 -163 -80 -246 -84l-3 -4c30 -8 56 -32 56 -71z" />
    <glyph glyph-name="Egrave" unicode="&#xc8;" horiz-adv-x="620" 
d="M493 0h-493l146 727h494l-30 -148h-314l-27 -133h282l-29 -144h-282l-31 -154h314zM521 780h-109l-145 176h162z" />
    <glyph glyph-name="Eacute" unicode="&#xc9;" horiz-adv-x="620" 
d="M493 0h-493l146 727h494l-30 -148h-314l-27 -133h282l-29 -144h-282l-31 -154h314zM600 956l-196 -176h-122l153 176h165z" />
    <glyph glyph-name="Ecircumflex" unicode="&#xca;" horiz-adv-x="620" 
d="M493 0h-493l146 727h494l-30 -148h-314l-27 -133h282l-29 -144h-282l-31 -154h314zM601 780h-122l-66 85l-98 -85h-120l172 176h131z" />
    <glyph glyph-name="Edieresis" unicode="&#xcb;" horiz-adv-x="620" 
d="M493 0h-493l146 727h494l-30 -148h-314l-27 -133h282l-29 -144h-282l-31 -154h314zM378 865c0 -53 -34 -85 -90 -85c-36 0 -70 20 -70 59c0 57 34 88 89 88c40 0 71 -21 71 -62zM618 865c0 -53 -34 -85 -90 -85c-36 0 -70 20 -70 59c0 57 34 88 89 88c40 0 71 -21 71 -62
z" />
    <glyph glyph-name="Igrave" unicode="&#xcc;" horiz-adv-x="450" 
d="M341 0h-373l28 138h96l91 451h-97l28 138h374l-28 -138h-97l-91 -451h97zM390 780h-109l-145 176h162z" />
    <glyph glyph-name="Iacute" unicode="&#xcd;" horiz-adv-x="450" 
d="M341 0h-373l28 138h96l91 451h-97l28 138h374l-28 -138h-97l-91 -451h97zM541 956l-196 -176h-122l153 176h165z" />
    <glyph glyph-name="Icircumflex" unicode="&#xce;" horiz-adv-x="450" 
d="M341 0h-373l28 138h96l91 451h-97l28 138h374l-28 -138h-97l-91 -451h97zM515 780h-122l-66 85l-98 -85h-120l172 176h131z" />
    <glyph glyph-name="Idieresis" unicode="&#xcf;" horiz-adv-x="450" 
d="M341 0h-373l28 138h96l91 451h-97l28 138h374l-28 -138h-97l-91 -451h97zM279 864c0 -53 -34 -85 -90 -85c-36 0 -70 20 -70 59c0 57 34 88 89 88c40 0 71 -21 71 -62zM519 864c0 -53 -34 -85 -90 -85c-36 0 -70 20 -70 59c0 57 34 88 89 88c40 0 71 -21 71 -62z" />
    <glyph glyph-name="Eth" unicode="&#xd0;" horiz-adv-x="747" 
d="M721 439c0 -271 -167 -439 -474 -439h-247l61 305h-73l24 118h73l61 304h258c215 0 317 -114 317 -288zM261 146c167 0 269 111 269 283c0 99 -53 152 -180 152h-53l-33 -158h145l-25 -118h-144l-32 -159h53z" />
    <glyph glyph-name="Ntilde" unicode="&#xd1;" horiz-adv-x="749" 
d="M615 0h-189l-169 462l-91 -462h-166l146 727h196l162 -443l91 443h167zM677 914c-21 -73 -65 -134 -159 -134c-67 0 -96 30 -127 30c-20 0 -43 -15 -46 -30h-99c18 71 67 134 157 134c64 0 104 -30 128 -30s44 17 47 30h99z" />
    <glyph glyph-name="Ograve" unicode="&#xd2;" horiz-adv-x="784" 
d="M429 598c-144 0 -213 -174 -213 -305c0 -89 37 -164 139 -164c144 0 213 174 213 305c0 89 -37 164 -139 164zM442 742c223 0 316 -138 316 -302c0 -237 -136 -455 -414 -455c-225 0 -318 138 -318 302c0 237 136 455 416 455zM599 780h-109l-145 176h162z" />
    <glyph glyph-name="Oacute" unicode="&#xd3;" horiz-adv-x="784" 
d="M429 598c-144 0 -213 -174 -213 -305c0 -89 37 -164 139 -164c144 0 213 174 213 305c0 89 -37 164 -139 164zM442 742c223 0 316 -138 316 -302c0 -237 -136 -455 -414 -455c-225 0 -318 138 -318 302c0 237 136 455 416 455zM684 956l-196 -176h-122l153 176h165z" />
    <glyph glyph-name="Ocircumflex" unicode="&#xd4;" horiz-adv-x="784" 
d="M429 598c-144 0 -213 -174 -213 -305c0 -89 37 -164 139 -164c144 0 213 174 213 305c0 89 -37 164 -139 164zM442 742c223 0 316 -138 316 -302c0 -237 -136 -455 -414 -455c-225 0 -318 138 -318 302c0 237 136 455 416 455zM635 780h-122l-66 85l-98 -85h-120l172 176
h131z" />
    <glyph glyph-name="Otilde" unicode="&#xd5;" horiz-adv-x="784" 
d="M429 598c-144 0 -213 -174 -213 -305c0 -89 37 -164 139 -164c144 0 213 174 213 305c0 89 -37 164 -139 164zM442 742c223 0 316 -138 316 -302c0 -237 -136 -455 -414 -455c-225 0 -318 138 -318 302c0 237 136 455 416 455zM666 914c-21 -73 -65 -134 -159 -134
c-67 0 -96 30 -127 30c-20 0 -43 -15 -46 -30h-99c18 71 67 134 157 134c64 0 104 -30 128 -30s44 17 47 30h99z" />
    <glyph glyph-name="Odieresis" unicode="&#xd6;" horiz-adv-x="784" 
d="M429 598c-144 0 -213 -174 -213 -305c0 -89 37 -164 139 -164c144 0 213 174 213 305c0 89 -37 164 -139 164zM442 742c223 0 316 -138 316 -302c0 -237 -136 -455 -414 -455c-225 0 -318 138 -318 302c0 237 136 455 416 455zM429 865c0 -53 -34 -85 -90 -85
c-36 0 -70 20 -70 59c0 57 34 88 89 88c40 0 71 -21 71 -62zM669 865c0 -53 -34 -85 -90 -85c-36 0 -70 20 -70 59c0 57 34 88 89 88c40 0 71 -21 71 -62z" />
    <glyph glyph-name="multiply" unicode="&#xd7;" horiz-adv-x="695" 
d="M643 97l-96 -96l-199 199l-200 -199l-96 96l200 199l-200 199l96 96l200 -198l199 196l96 -96l-199 -197z" />
    <glyph glyph-name="Oslash" unicode="&#xd8;" horiz-adv-x="784" 
d="M442 742c81 0 145 -19 193 -50l67 72h146l-137 -147c32 -50 47 -112 47 -177c0 -237 -136 -455 -414 -455c-76 0 -136 16 -183 42l-78 -83h-145l143 154c-38 52 -55 118 -55 189c0 237 136 455 416 455zM429 598c-144 0 -213 -174 -213 -305c0 -16 1 -32 4 -47l299 322
c-21 18 -51 30 -90 30zM568 434c0 10 -1 19 -2 28l-291 -312c21 -14 47 -21 80 -21c144 0 213 174 213 305z" />
    <glyph glyph-name="Ugrave" unicode="&#xd9;" horiz-adv-x="717" 
d="M646 290c-39 -192 -122 -305 -348 -305c-177 0 -257 65 -257 203c0 30 4 73 19 146l81 393h180l-78 -383c-10 -50 -19 -102 -19 -124c0 -67 31 -91 92 -91c90 0 129 62 151 168l88 430h180zM559 780h-109l-145 176h162z" />
    <glyph glyph-name="Uacute" unicode="&#xda;" horiz-adv-x="717" 
d="M646 290c-39 -192 -122 -305 -348 -305c-177 0 -257 65 -257 203c0 30 4 73 19 146l81 393h180l-78 -383c-10 -50 -19 -102 -19 -124c0 -67 31 -91 92 -91c90 0 129 62 151 168l88 430h180zM653 956l-196 -176h-122l153 176h165z" />
    <glyph glyph-name="Ucircumflex" unicode="&#xdb;" horiz-adv-x="717" 
d="M646 290c-39 -192 -122 -305 -348 -305c-177 0 -257 65 -257 203c0 30 4 73 19 146l81 393h180l-78 -383c-10 -50 -19 -102 -19 -124c0 -67 31 -91 92 -91c90 0 129 62 151 168l88 430h180zM646 780h-122l-66 85l-98 -85h-120l172 176h131z" />
    <glyph glyph-name="Udieresis" unicode="&#xdc;" horiz-adv-x="717" 
d="M646 290c-39 -192 -122 -305 -348 -305c-177 0 -257 65 -257 203c0 30 4 73 19 146l81 393h180l-78 -383c-10 -50 -19 -102 -19 -124c0 -67 31 -91 92 -91c90 0 129 62 151 168l88 430h180zM417 865c0 -53 -34 -85 -90 -85c-36 0 -70 20 -70 59c0 57 34 88 89 88
c40 0 71 -21 71 -62zM657 865c0 -53 -34 -85 -90 -85c-36 0 -70 20 -70 59c0 57 34 88 89 88c40 0 71 -21 71 -62z" />
    <glyph glyph-name="Yacute" unicode="&#xdd;" horiz-adv-x="676" 
d="M739 727l-328 -434l-59 -293h-180l57 280l-149 447h183l85 -269l199 269h192zM636 956l-196 -176h-122l153 176h165z" />
    <glyph glyph-name="Thorn" unicode="&#xde;" horiz-adv-x="660" 
d="M628 415c0 -218 -162 -304 -374 -304h-52l-22 -111h-180l146 727h181l-22 -111h58c191 0 265 -82 265 -201zM298 260c84 0 137 46 137 131c0 44 -24 77 -93 77h-68l-42 -208h66z" />
    <glyph glyph-name="germandbls" unicode="&#xdf;" horiz-adv-x="656" 
d="M317 500l-101 -503c-17 -84 -48 -190 -223 -190c-46 0 -86 8 -123 21l46 121c15 -6 45 -16 71 -16c38 0 57 11 68 67l99 496c28 139 97 246 287 246c110 0 190 -50 190 -143c0 -80 -50 -153 -126 -173c74 -22 109 -86 109 -158c0 -166 -92 -283 -261 -283
c-26 0 -59 4 -83 11l24 120c21 -6 40 -8 58 -8c67 0 94 82 94 165c0 56 -33 82 -101 82l24 118c55 1 92 43 92 100c0 23 -13 52 -49 52c-51 0 -77 -39 -95 -125z" />
    <glyph glyph-name="agrave" unicode="&#xe0;" horiz-adv-x="601" 
d="M489 0h-135l-3 44c-45 -39 -93 -59 -152 -59c-113 0 -174 85 -174 209c0 171 96 348 291 348c63 0 111 -14 134 -25l75 17h72zM362 168l47 239c-16 9 -42 20 -75 20c-100 0 -140 -142 -140 -223c0 -75 24 -104 66 -104c34 0 78 39 102 68zM478 590h-109l-145 176h162z
" />
    <glyph glyph-name="aacute" unicode="&#xe1;" horiz-adv-x="601" 
d="M489 0h-135l-3 44c-45 -39 -93 -59 -152 -59c-113 0 -174 85 -174 209c0 171 96 348 291 348c63 0 111 -14 134 -25l75 17h72zM362 168l47 239c-16 9 -42 20 -75 20c-100 0 -140 -142 -140 -223c0 -75 24 -104 66 -104c34 0 78 39 102 68zM599 766l-196 -176h-122
l153 176h165z" />
    <glyph glyph-name="acircumflex" unicode="&#xe2;" horiz-adv-x="601" 
d="M489 0h-135l-3 44c-45 -39 -93 -59 -152 -59c-113 0 -174 85 -174 209c0 171 96 348 291 348c63 0 111 -14 134 -25l75 17h72zM362 168l47 239c-16 9 -42 20 -75 20c-100 0 -140 -142 -140 -223c0 -75 24 -104 66 -104c34 0 78 39 102 68zM605 590h-122l-66 85l-98 -85
h-120l172 176h131z" />
    <glyph glyph-name="atilde" unicode="&#xe3;" horiz-adv-x="601" 
d="M489 0h-135l-3 44c-45 -39 -93 -59 -152 -59c-113 0 -174 85 -174 209c0 171 96 348 291 348c63 0 111 -14 134 -25l75 17h72zM362 168l47 239c-16 9 -42 20 -75 20c-100 0 -140 -142 -140 -223c0 -75 24 -104 66 -104c34 0 78 39 102 68zM638 745
c-21 -73 -65 -134 -159 -134c-67 0 -96 30 -127 30c-20 0 -43 -15 -46 -30h-99c18 71 67 134 157 134c64 0 104 -30 128 -30s44 17 47 30h99z" />
    <glyph glyph-name="adieresis" unicode="&#xe4;" horiz-adv-x="601" 
d="M489 0h-135l-3 44c-45 -39 -93 -59 -152 -59c-113 0 -174 85 -174 209c0 171 96 348 291 348c63 0 111 -14 134 -25l75 17h72zM362 168l47 239c-16 9 -42 20 -75 20c-100 0 -140 -142 -140 -223c0 -75 24 -104 66 -104c34 0 78 39 102 68zM378 672c0 -53 -34 -85 -90 -85
c-36 0 -70 20 -70 59c0 57 34 88 89 88c40 0 71 -21 71 -62zM618 672c0 -53 -34 -85 -90 -85c-36 0 -70 20 -70 59c0 57 34 88 89 88c40 0 71 -21 71 -62z" />
    <glyph glyph-name="aring" unicode="&#xe5;" horiz-adv-x="601" 
d="M489 0h-135l-3 44c-45 -39 -93 -59 -152 -59c-113 0 -174 85 -174 209c0 171 96 348 291 348c63 0 111 -14 134 -25l75 17h72zM362 168l47 239c-16 9 -42 20 -75 20c-100 0 -140 -142 -140 -223c0 -75 24 -104 66 -104c34 0 78 39 102 68zM528 702
c0 -76 -54 -123 -135 -123c-69 0 -102 43 -102 88c0 75 56 122 136 122c68 0 101 -40 101 -87zM403 643c26 0 53 14 53 47c0 20 -13 35 -41 35c-27 0 -51 -15 -51 -47c0 -19 13 -35 39 -35z" />
    <glyph glyph-name="ae" unicode="&#xe6;" horiz-adv-x="905" 
d="M447 -8h-93l-3 52c-45 -39 -93 -59 -152 -59c-111 0 -174 88 -174 202c0 171 90 355 291 355c64 0 111 -14 134 -25l48 25h59l-13 -65c38 35 107 65 169 65c110 0 180 -61 180 -148c0 -152 -165 -190 -363 -194c-1 -5 -1 -8 -1 -12c0 -53 45 -75 99 -75
c43 0 92 23 114 36l59 -114c-47 -25 -118 -50 -189 -50c-65 0 -122 28 -151 75zM362 168l47 238c-16 9 -36 21 -75 21c-101 0 -140 -142 -140 -223c0 -68 20 -104 65 -104c35 0 79 39 103 68zM548 308c150 3 187 35 187 77c0 27 -23 42 -53 42c-51 0 -110 -33 -134 -119z
" />
    <glyph glyph-name="ccedilla" unicode="&#xe7;" horiz-adv-x="521" 
d="M339 -89c0 -79 -81 -104 -162 -104c-52 0 -100 10 -131 26l40 73c22 -9 48 -19 95 -19c15 0 33 4 33 22c0 16 -17 27 -68 28l44 53c-110 18 -165 91 -165 207c0 165 85 345 318 345c85 0 158 -34 195 -109l-118 -69c-19 34 -42 50 -86 50c-90 0 -139 -109 -139 -202
c0 -69 27 -99 88 -99c42 0 78 20 104 35l60 -113c-51 -31 -107 -44 -161 -48l-3 -5c30 -8 56 -32 56 -71z" />
    <glyph glyph-name="egrave" unicode="&#xe8;" horiz-adv-x="549" 
d="M542 394c0 -152 -159 -187 -351 -194c-1 -5 -1 -8 -1 -12c0 -56 37 -75 84 -75c46 0 95 23 117 36l59 -114c-47 -25 -114 -50 -211 -50c-130 0 -214 69 -214 208c0 176 110 349 315 349c132 0 202 -60 202 -148zM203 308c144 3 181 35 181 77c0 27 -19 42 -53 42
c-49 0 -107 -40 -128 -119zM438 590h-109l-145 176h162z" />
    <glyph glyph-name="eacute" unicode="&#xe9;" horiz-adv-x="549" 
d="M542 394c0 -152 -159 -187 -351 -194c-1 -5 -1 -8 -1 -12c0 -56 37 -75 84 -75c46 0 95 23 117 36l59 -114c-47 -25 -114 -50 -211 -50c-130 0 -214 69 -214 208c0 176 110 349 315 349c132 0 202 -60 202 -148zM203 308c144 3 181 35 181 77c0 27 -19 42 -53 42
c-49 0 -107 -40 -128 -119zM562 766l-196 -176h-122l153 176h165z" />
    <glyph glyph-name="ecircumflex" unicode="&#xea;" horiz-adv-x="549" 
d="M542 394c0 -152 -159 -187 -351 -194c-1 -5 -1 -8 -1 -12c0 -56 37 -75 84 -75c46 0 95 23 117 36l59 -114c-47 -25 -114 -50 -211 -50c-130 0 -214 69 -214 208c0 176 110 349 315 349c132 0 202 -60 202 -148zM203 308c144 3 181 35 181 77c0 27 -19 42 -53 42
c-49 0 -107 -40 -128 -119zM542 590h-122l-66 85l-98 -85h-120l172 176h131z" />
    <glyph glyph-name="edieresis" unicode="&#xeb;" horiz-adv-x="549" 
d="M542 394c0 -152 -159 -187 -351 -194c-1 -5 -1 -8 -1 -12c0 -56 37 -75 84 -75c46 0 95 23 117 36l59 -114c-47 -25 -114 -50 -211 -50c-130 0 -214 69 -214 208c0 176 110 349 315 349c132 0 202 -60 202 -148zM203 308c144 3 181 35 181 77c0 27 -19 42 -53 42
c-49 0 -107 -40 -128 -119zM305 672c0 -53 -34 -85 -90 -85c-36 0 -70 20 -70 59c0 57 34 88 89 88c40 0 71 -21 71 -62zM545 672c0 -53 -34 -85 -90 -85c-36 0 -70 20 -70 59c0 57 34 88 89 88c40 0 71 -21 71 -62z" />
    <glyph glyph-name="igrave" unicode="&#xec;" horiz-adv-x="312" 
d="M202 0h-162l75 343c4 19 10 41 10 52c0 10 -3 15 -12 15s-27 -10 -50 -24l-45 87c75 47 132 69 189 69c69 0 87 -37 87 -74c0 -10 -4 -34 -8 -55zM322 590h-109l-145 176h162z" />
    <glyph glyph-name="iacute" unicode="&#xed;" horiz-adv-x="312" 
d="M202 0h-162l75 343c4 19 10 41 10 52c0 10 -3 15 -12 15s-27 -10 -50 -24l-45 87c75 47 132 69 189 69c69 0 87 -37 87 -74c0 -10 -4 -34 -8 -55zM421 766l-196 -176h-122l153 176h165z" />
    <glyph glyph-name="icircumflex" unicode="&#xee;" horiz-adv-x="312" 
d="M202 0h-162l75 343c4 19 10 41 10 52c0 10 -3 15 -12 15s-27 -10 -50 -24l-45 87c75 47 132 69 189 69c69 0 87 -37 87 -74c0 -10 -4 -34 -8 -55zM412 590h-122l-66 85l-98 -85h-120l172 176h131z" />
    <glyph glyph-name="idieresis" unicode="&#xef;" horiz-adv-x="312" 
d="M202 0h-162l75 343c4 19 10 41 10 52c0 10 -3 15 -12 15s-27 -10 -50 -24l-45 87c75 47 132 69 189 69c69 0 87 -37 87 -74c0 -10 -4 -34 -8 -55zM165 672c0 -53 -34 -85 -90 -85c-36 0 -70 20 -70 59c0 57 34 88 89 88c40 0 71 -21 71 -62zM405 672
c0 -53 -34 -85 -90 -85c-36 0 -70 20 -70 59c0 57 34 88 89 88c40 0 71 -21 71 -62z" />
    <glyph glyph-name="eth" unicode="&#xf0;" horiz-adv-x="601" 
d="M190 645l86 28c-26 27 -53 52 -81 69h197c9 -7 17 -15 26 -23l115 38l27 -89l-77 -25c53 -76 88 -172 88 -278c0 -190 -82 -380 -311 -380c-156 0 -235 73 -235 210c0 193 114 334 288 334c28 0 46 -4 60 -11c-5 20 -18 47 -37 77l-116 -38zM268 114
c87 0 130 119 130 204c0 48 -19 82 -74 82c-92 0 -132 -109 -132 -200c0 -47 20 -86 76 -86z" />
    <glyph glyph-name="ntilde" unicode="&#xf1;" horiz-adv-x="581" 
d="M475 0h-162l63 310c5 23 10 55 10 64c0 29 -16 36 -42 36c-30 0 -79 -26 -109 -48l-74 -362h-161l107 527h147l-11 -51c61 43 113 66 175 66c77 0 137 -38 137 -123c0 -18 -2 -39 -7 -62zM596 745c-21 -73 -65 -134 -159 -134c-67 0 -96 30 -127 30
c-20 0 -43 -15 -46 -30h-99c18 71 67 134 157 134c64 0 104 -30 128 -30s44 17 47 30h99z" />
    <glyph glyph-name="ograve" unicode="&#xf2;" horiz-adv-x="595" 
d="M570 329c0 -174 -102 -344 -317 -344c-167 0 -228 106 -228 206c0 182 103 351 316 351c162 0 229 -96 229 -213zM272 113c80 0 128 117 128 208c0 65 -28 93 -75 93c-87 0 -130 -125 -130 -211c0 -64 31 -90 77 -90zM444 590h-109l-145 176h162z" />
    <glyph glyph-name="oacute" unicode="&#xf3;" horiz-adv-x="595" 
d="M570 329c0 -174 -102 -344 -317 -344c-167 0 -228 106 -228 206c0 182 103 351 316 351c162 0 229 -96 229 -213zM272 113c80 0 128 117 128 208c0 65 -28 93 -75 93c-87 0 -130 -125 -130 -211c0 -64 31 -90 77 -90zM596 766l-196 -176h-122l153 176h165z" />
    <glyph glyph-name="ocircumflex" unicode="&#xf4;" horiz-adv-x="595" 
d="M570 329c0 -174 -102 -344 -317 -344c-167 0 -228 106 -228 206c0 182 103 351 316 351c162 0 229 -96 229 -213zM272 113c80 0 128 117 128 208c0 65 -28 93 -75 93c-87 0 -130 -125 -130 -211c0 -64 31 -90 77 -90zM562 590h-122l-66 85l-98 -85h-120l172 176h131z" />
    <glyph glyph-name="otilde" unicode="&#xf5;" horiz-adv-x="595" 
d="M570 329c0 -174 -102 -344 -317 -344c-167 0 -228 106 -228 206c0 182 103 351 316 351c162 0 229 -96 229 -213zM272 113c80 0 128 117 128 208c0 65 -28 93 -75 93c-87 0 -130 -125 -130 -211c0 -64 31 -90 77 -90zM574 745c-21 -73 -65 -134 -159 -134
c-67 0 -96 30 -127 30c-20 0 -43 -15 -46 -30h-99c18 71 67 134 157 134c64 0 104 -30 128 -30s44 17 47 30h99z" />
    <glyph glyph-name="odieresis" unicode="&#xf6;" horiz-adv-x="595" 
d="M570 329c0 -174 -102 -344 -317 -344c-167 0 -228 106 -228 206c0 182 103 351 316 351c162 0 229 -96 229 -213zM272 113c80 0 128 117 128 208c0 65 -28 93 -75 93c-87 0 -130 -125 -130 -211c0 -64 31 -90 77 -90zM313 672c0 -53 -34 -85 -90 -85c-36 0 -70 20 -70 59
c0 57 34 88 89 88c40 0 71 -21 71 -62zM553 672c0 -53 -34 -85 -90 -85c-36 0 -70 20 -70 59c0 57 34 88 89 88c40 0 71 -21 71 -62z" />
    <glyph glyph-name="divide" unicode="&#xf7;" horiz-adv-x="695" 
d="M429 522c0 -56 -29 -78 -81 -78c-59 0 -81 31 -81 78c0 52 26 79 81 79c56 0 81 -26 81 -79zM643 228h-591v136h591v-136zM429 68c0 -56 -29 -78 -81 -78c-59 0 -81 31 -81 78c0 52 26 79 81 79c56 0 81 -26 81 -79z" />
    <glyph glyph-name="oslash" unicode="&#xf8;" horiz-adv-x="595" 
d="M570 329c0 -174 -102 -344 -317 -344c-55 0 -99 12 -133 30l-48 -52h-95l90 97c-30 38 -42 85 -42 131c0 182 103 351 316 351c59 0 106 -13 141 -36l41 44h96l-86 -92c25 -36 37 -81 37 -129zM195 203v-6l183 197c-13 13 -31 20 -53 20c-87 0 -130 -125 -130 -211z
M272 113c78 0 126 112 128 202l-176 -189c12 -9 29 -13 48 -13z" />
    <glyph glyph-name="ugrave" unicode="&#xf9;" horiz-adv-x="582" 
d="M104 527h162l-63 -310c-5 -23 -10 -55 -10 -64c0 -29 16 -36 42 -36c30 0 79 26 109 48l74 362h161l-107 -527h-147l11 51c-61 -43 -113 -66 -175 -66c-77 0 -137 38 -137 123c0 18 2 39 7 62zM489 590h-109l-145 176h162z" />
    <glyph glyph-name="uacute" unicode="&#xfa;" horiz-adv-x="582" 
d="M104 527h162l-63 -310c-5 -23 -10 -55 -10 -64c0 -29 16 -36 42 -36c30 0 79 26 109 48l74 362h161l-107 -527h-147l11 51c-61 -43 -113 -66 -175 -66c-77 0 -137 38 -137 123c0 18 2 39 7 62zM560 766l-196 -176h-122l153 176h165z" />
    <glyph glyph-name="ucircumflex" unicode="&#xfb;" horiz-adv-x="582" 
d="M104 527h162l-63 -310c-5 -23 -10 -55 -10 -64c0 -29 16 -36 42 -36c30 0 79 26 109 48l74 362h161l-107 -527h-147l11 51c-61 -43 -113 -66 -175 -66c-77 0 -137 38 -137 123c0 18 2 39 7 62zM547 590h-122l-66 85l-98 -85h-120l172 176h131z" />
    <glyph glyph-name="udieresis" unicode="&#xfc;" horiz-adv-x="582" 
d="M104 527h162l-63 -310c-5 -23 -10 -55 -10 -64c0 -29 16 -36 42 -36c30 0 79 26 109 48l74 362h161l-107 -527h-147l11 51c-61 -43 -113 -66 -175 -66c-77 0 -137 38 -137 123c0 18 2 39 7 62zM323 672c0 -53 -34 -85 -90 -85c-36 0 -70 20 -70 59c0 57 34 88 89 88
c40 0 71 -21 71 -62zM563 672c0 -53 -34 -85 -90 -85c-36 0 -70 20 -70 59c0 57 34 88 89 88c40 0 71 -21 71 -62z" />
    <glyph glyph-name="yacute" unicode="&#xfd;" horiz-adv-x="571" 
d="M612 527l-326 -571c-67 -116 -150 -149 -252 -149c-34 0 -81 5 -122 18l50 124c34 -13 65 -19 86 -19c46 0 70 11 101 69l10 19l-93 509h161l46 -319l174 319h165zM579 766l-196 -176h-122l153 176h165z" />
    <glyph glyph-name="thorn" unicode="&#xfe;" horiz-adv-x="601" 
d="M576 342c0 -202 -92 -357 -280 -357c-44 0 -87 14 -126 34l-43 -212h-161l193 961h162l-56 -273c37 27 79 47 138 47c117 0 173 -83 173 -200zM272 100c101 0 134 134 134 227c0 62 -18 100 -63 100c-35 0 -64 -18 -99 -45l-53 -257c15 -10 38 -25 81 -25z" />
    <glyph glyph-name="ydieresis" unicode="&#xff;" horiz-adv-x="571" 
d="M612 527l-326 -571c-67 -116 -150 -149 -252 -149c-34 0 -81 5 -122 18l50 124c34 -13 65 -19 86 -19c46 0 70 11 101 69l10 19l-93 509h161l46 -319l174 319h165zM303 672c0 -53 -34 -85 -90 -85c-36 0 -70 20 -70 59c0 57 34 88 89 88c40 0 71 -21 71 -62zM543 672
c0 -53 -34 -85 -90 -85c-36 0 -70 20 -70 59c0 57 34 88 89 88c40 0 71 -21 71 -62z" />
    <glyph glyph-name="Amacron" unicode="&#x100;" horiz-adv-x="716" 
d="M634 0h-175l-14 139h-250l-69 -139h-184l381 727h226zM431 277l-28 275l-139 -275h167zM614 780h-333l21 103h333z" />
    <glyph glyph-name="amacron" unicode="&#x101;" horiz-adv-x="601" 
d="M489 0h-135l-3 44c-45 -39 -93 -59 -152 -59c-113 0 -174 85 -174 209c0 171 96 348 291 348c63 0 111 -14 134 -25l75 17h72zM362 168l47 239c-16 9 -42 20 -75 20c-100 0 -140 -142 -140 -223c0 -75 24 -104 66 -104c34 0 78 39 102 68zM585 636h-333l21 103h333z" />
    <glyph glyph-name="Abreve" unicode="&#x102;" horiz-adv-x="716" 
d="M634 0h-175l-14 139h-250l-69 -139h-184l381 727h226zM431 277l-28 275l-139 -275h167zM656 918c-31 -66 -95 -138 -226 -138c-129 0 -164 72 -167 138h96c7 -25 36 -46 84 -46c55 0 92 21 111 46h102z" />
    <glyph glyph-name="abreve" unicode="&#x103;" horiz-adv-x="601" 
d="M489 0h-135l-3 44c-45 -39 -93 -59 -152 -59c-113 0 -174 85 -174 209c0 171 96 348 291 348c63 0 111 -14 134 -25l75 17h72zM362 168l47 239c-16 9 -42 20 -75 20c-100 0 -140 -142 -140 -223c0 -75 24 -104 66 -104c34 0 78 39 102 68zM628 747
c-31 -66 -95 -138 -226 -138c-129 0 -164 72 -167 138h96c7 -25 36 -46 84 -46c55 0 92 21 111 46h102z" />
    <glyph glyph-name="Aogonek" unicode="&#x104;" horiz-adv-x="716" 
d="M686 -156c-52 -23 -97 -37 -150 -37c-77 0 -113 33 -113 87c0 37 16 73 36 106l-14 139h-250l-69 -139h-184l381 727h226l85 -727h-62c-12 -21 -21 -45 -21 -70c0 -19 11 -31 34 -31c24 0 45 7 75 22zM431 277l-28 275l-139 -275h167z" />
    <glyph glyph-name="aogonek" unicode="&#x105;" horiz-adv-x="601" 
d="M588 -156c-52 -23 -97 -37 -150 -37c-77 0 -113 33 -113 87c0 37 16 73 36 106h-7l-3 44c-45 -39 -93 -59 -152 -59c-113 0 -174 85 -174 209c0 171 96 348 291 348c63 0 111 -14 134 -25l75 17h72l-108 -534h-15c-12 -21 -21 -45 -21 -70c0 -19 11 -31 34 -31
c24 0 45 7 75 22zM362 168l47 239c-16 9 -42 20 -75 20c-100 0 -140 -142 -140 -223c0 -75 24 -104 66 -104c34 0 78 39 102 68z" />
    <glyph glyph-name="Cacute" unicode="&#x106;" horiz-adv-x="688" 
d="M714 589l-153 -75c-20 47 -57 84 -133 84c-131 0 -212 -137 -212 -306c0 -96 39 -163 129 -163c78 0 145 51 176 74l89 -133c-95 -67 -184 -85 -281 -85c-225 0 -303 138 -303 292c0 249 136 465 418 465c165 0 239 -78 270 -153zM666 956l-196 -176h-122l153 176h165z
" />
    <glyph glyph-name="cacute" unicode="&#x107;" horiz-adv-x="521" 
d="M538 433l-118 -69c-19 34 -42 50 -86 50c-90 0 -139 -109 -139 -202c0 -69 27 -99 88 -99c42 0 78 20 104 35l60 -113c-62 -37 -132 -50 -195 -50c-151 0 -227 77 -227 212c0 165 85 345 318 345c85 0 158 -34 195 -109zM550 766l-196 -176h-122l153 176h165z" />
    <glyph glyph-name="Ccircumflex" unicode="&#x108;" horiz-adv-x="688" 
d="M714 589l-153 -75c-20 47 -57 84 -133 84c-131 0 -212 -137 -212 -306c0 -96 39 -163 129 -163c78 0 145 51 176 74l89 -133c-95 -67 -184 -85 -281 -85c-225 0 -303 138 -303 292c0 249 136 465 418 465c165 0 239 -78 270 -153zM650 780h-122l-66 85l-98 -85h-120
l172 176h131z" />
    <glyph glyph-name="ccircumflex" unicode="&#x109;" horiz-adv-x="521" 
d="M538 433l-118 -69c-19 34 -42 50 -86 50c-90 0 -139 -109 -139 -202c0 -69 27 -99 88 -99c42 0 78 20 104 35l60 -113c-62 -37 -132 -50 -195 -50c-151 0 -227 77 -227 212c0 165 85 345 318 345c85 0 158 -34 195 -109zM542 590h-122l-66 85l-98 -85h-120l172 176h131z
" />
    <glyph glyph-name="Cdotaccent" unicode="&#x10a;" horiz-adv-x="688" 
d="M714 589l-153 -75c-20 47 -57 84 -133 84c-131 0 -212 -137 -212 -306c0 -96 39 -163 129 -163c78 0 145 51 176 74l89 -133c-95 -67 -184 -85 -281 -85c-225 0 -303 138 -303 292c0 249 136 465 418 465c165 0 239 -78 270 -153zM553 873c0 -54 -35 -85 -91 -85
c-35 0 -71 21 -71 60c0 57 34 87 90 87c40 0 72 -21 72 -62z" />
    <glyph glyph-name="cdotaccent" unicode="&#x10b;" horiz-adv-x="521" 
d="M538 433l-118 -69c-19 34 -42 50 -86 50c-90 0 -139 -109 -139 -202c0 -69 27 -99 88 -99c42 0 78 20 104 35l60 -113c-62 -37 -132 -50 -195 -50c-151 0 -227 77 -227 212c0 165 85 345 318 345c85 0 158 -34 195 -109zM431 680c0 -54 -35 -85 -91 -85
c-35 0 -71 21 -71 60c0 57 34 87 90 87c40 0 72 -21 72 -62z" />
    <glyph glyph-name="Ccaron" unicode="&#x10c;" horiz-adv-x="688" 
d="M714 589l-153 -75c-20 47 -57 84 -133 84c-131 0 -212 -137 -212 -306c0 -96 39 -163 129 -163c78 0 145 51 176 74l89 -133c-95 -67 -184 -85 -281 -85c-225 0 -303 138 -303 292c0 249 136 465 418 465c165 0 239 -78 270 -153zM682 956l-173 -176h-131l-103 176h114
l70 -85l104 85h119z" />
    <glyph glyph-name="ccaron" unicode="&#x10d;" horiz-adv-x="521" 
d="M538 433l-118 -69c-19 34 -42 50 -86 50c-90 0 -139 -109 -139 -202c0 -69 27 -99 88 -99c42 0 78 20 104 35l60 -113c-62 -37 -132 -50 -195 -50c-151 0 -227 77 -227 212c0 165 85 345 318 345c85 0 158 -34 195 -109zM591 766l-173 -176h-131l-103 176h114l70 -85
l104 85h119z" />
    <glyph glyph-name="Dcaron" unicode="&#x10e;" horiz-adv-x="747" 
d="M721 439c0 -271 -167 -439 -474 -439h-247l146 727h258c215 0 317 -114 317 -288zM261 146c167 0 269 111 269 283c0 99 -53 152 -180 152h-53l-89 -435h53zM622 956l-173 -176h-131l-103 176h114l70 -85l104 85h119z" />
    <glyph glyph-name="dcaron" unicode="&#x10f;" horiz-adv-x="720" 
d="M489 0h-135l-3 44c-45 -39 -93 -59 -152 -59c-113 0 -174 85 -174 209c0 171 93 348 291 348c50 0 91 -15 116 -28l43 213h162zM362 168l47 237c-16 9 -40 22 -75 22c-100 0 -140 -142 -140 -223c0 -75 24 -104 66 -104c34 0 78 39 102 68zM659 621c0 62 38 106 106 106
c52 0 81 -34 81 -77c0 -86 -71 -171 -132 -239h-87c52 57 90 114 103 144c-55 0 -71 35 -71 66z" />
    <glyph glyph-name="Dcroat" unicode="&#x110;" horiz-adv-x="747" 
d="M721 439c0 -271 -167 -439 -474 -439h-247l61 305h-73l24 118h73l61 304h258c215 0 317 -114 317 -288zM261 146c167 0 269 111 269 283c0 99 -53 152 -180 152h-53l-33 -158h145l-25 -118h-144l-32 -159h53z" />
    <glyph glyph-name="dcroat" unicode="&#x111;" horiz-adv-x="607" 
d="M489 0h-135l-3 44c-45 -39 -93 -59 -152 -59c-113 0 -174 85 -174 209c0 171 93 348 291 348c50 0 91 -15 116 -28l14 69h-142l21 103h141l9 41h162l-9 -41h77l-21 -103h-77zM362 168l47 237c-16 9 -40 22 -75 22c-100 0 -140 -142 -140 -223c0 -75 24 -104 66 -104
c34 0 78 39 102 68z" />
    <glyph glyph-name="Emacron" unicode="&#x112;" horiz-adv-x="620" 
d="M493 0h-493l146 727h494l-30 -148h-314l-27 -133h282l-29 -144h-282l-31 -154h314zM576 780h-333l21 103h333z" />
    <glyph glyph-name="emacron" unicode="&#x113;" horiz-adv-x="549" 
d="M542 394c0 -152 -159 -187 -351 -194c-1 -5 -1 -8 -1 -12c0 -56 37 -75 84 -75c46 0 95 23 117 36l59 -114c-47 -25 -114 -50 -211 -50c-130 0 -214 69 -214 208c0 176 110 349 315 349c132 0 202 -60 202 -148zM203 308c144 3 181 35 181 77c0 27 -19 42 -53 42
c-49 0 -107 -40 -128 -119zM511 636h-333l21 103h333z" />
    <glyph glyph-name="Ebreve" unicode="&#x114;" horiz-adv-x="620" 
d="M493 0h-493l146 727h494l-30 -148h-314l-27 -133h282l-29 -144h-282l-31 -154h314zM640 918c-31 -66 -95 -138 -226 -138c-129 0 -164 72 -167 138h96c7 -25 36 -46 84 -46c55 0 92 21 111 46h102z" />
    <glyph glyph-name="ebreve" unicode="&#x115;" horiz-adv-x="549" 
d="M542 394c0 -152 -159 -187 -351 -194c-1 -5 -1 -8 -1 -12c0 -56 37 -75 84 -75c46 0 95 23 117 36l59 -114c-47 -25 -114 -50 -211 -50c-130 0 -214 69 -214 208c0 176 110 349 315 349c132 0 202 -60 202 -148zM203 308c144 3 181 35 181 77c0 27 -19 42 -53 42
c-49 0 -107 -40 -128 -119zM566 747c-31 -66 -95 -138 -226 -138c-129 0 -164 72 -167 138h96c7 -25 36 -46 84 -46c55 0 92 21 111 46h102z" />
    <glyph glyph-name="Edotaccent" unicode="&#x116;" horiz-adv-x="620" 
d="M493 0h-493l146 727h494l-30 -148h-314l-27 -133h282l-29 -144h-282l-31 -154h314zM501 873c0 -54 -35 -85 -91 -85c-35 0 -71 21 -71 60c0 57 34 87 90 87c40 0 72 -21 72 -62z" />
    <glyph glyph-name="edotaccent" unicode="&#x117;" horiz-adv-x="549" 
d="M542 394c0 -152 -159 -187 -351 -194c-1 -5 -1 -8 -1 -12c0 -56 37 -75 84 -75c46 0 95 23 117 36l59 -114c-47 -25 -114 -50 -211 -50c-130 0 -214 69 -214 208c0 176 110 349 315 349c132 0 202 -60 202 -148zM203 308c144 3 181 35 181 77c0 27 -19 42 -53 42
c-49 0 -107 -40 -128 -119zM430 680c0 -54 -35 -85 -91 -85c-35 0 -71 21 -71 60c0 57 34 87 90 87c40 0 72 -21 72 -62z" />
    <glyph glyph-name="Eogonek" unicode="&#x118;" horiz-adv-x="620" 
d="M576 -156c-52 -23 -97 -37 -150 -37c-77 0 -113 33 -113 87c0 37 16 73 36 106h-349l146 727h494l-30 -148h-314l-27 -133h282l-29 -144h-282l-31 -154h314l-30 -148h-31c-12 -21 -21 -45 -21 -70c0 -19 11 -31 34 -31c24 0 45 7 75 22z" />
    <glyph glyph-name="eogonek" unicode="&#x119;" horiz-adv-x="549" 
d="M420 -156c-52 -23 -97 -37 -150 -37c-77 0 -113 33 -113 87c0 33 12 65 29 95c-99 17 -161 84 -161 204c0 176 110 349 315 349c132 0 202 -60 202 -148c0 -152 -159 -187 -351 -194c-1 -5 -1 -8 -1 -12c0 -56 37 -75 84 -75c46 0 95 23 117 36l59 -114
c-37 -20 -85 -39 -150 -46c-9 -18 -15 -38 -15 -59c0 -19 11 -31 34 -31c24 0 45 7 75 22zM203 308c144 3 181 35 181 77c0 27 -19 42 -53 42c-49 0 -107 -40 -128 -119z" />
    <glyph glyph-name="Ecaron" unicode="&#x11a;" horiz-adv-x="620" 
d="M493 0h-493l146 727h494l-30 -148h-314l-27 -133h282l-29 -144h-282l-31 -154h314zM656 956l-173 -176h-131l-103 176h114l70 -85l104 85h119z" />
    <glyph glyph-name="ecaron" unicode="&#x11b;" horiz-adv-x="549" 
d="M542 394c0 -152 -159 -187 -351 -194c-1 -5 -1 -8 -1 -12c0 -56 37 -75 84 -75c46 0 95 23 117 36l59 -114c-47 -25 -114 -50 -211 -50c-130 0 -214 69 -214 208c0 176 110 349 315 349c132 0 202 -60 202 -148zM203 308c144 3 181 35 181 77c0 27 -19 42 -53 42
c-49 0 -107 -40 -128 -119zM580 766l-173 -176h-131l-103 176h114l70 -85l104 85h119z" />
    <glyph glyph-name="Gcircumflex" unicode="&#x11c;" horiz-adv-x="752" 
d="M744 583l-154 -73c-21 50 -64 88 -140 88c-153 0 -233 -138 -233 -302c0 -103 47 -167 154 -167c37 0 71 7 106 20l18 90h-116l30 148h296l-67 -329c-57 -31 -171 -73 -289 -73c-219 0 -323 130 -323 295c0 255 148 462 438 462c159 0 239 -70 280 -159zM678 780h-122
l-66 85l-98 -85h-120l172 176h131z" />
    <glyph glyph-name="gcircumflex" unicode="&#x11d;" horiz-adv-x="616" 
d="M651 527l-24 -118c-13 5 -24 7 -33 7c-24 0 -35 -16 -41 -44l-70 -345c-33 -162 -123 -220 -275 -220c-69 0 -154 14 -212 42l55 116c41 -23 101 -41 156 -41c65 0 95 31 107 88l6 29c-46 -33 -86 -41 -132 -41c-111 0 -163 77 -163 194c0 187 108 348 292 348
c51 0 97 -18 130 -39c22 28 65 36 109 36c30 0 62 -4 95 -12zM353 179l45 222c-15 13 -43 26 -70 26c-96 0 -133 -147 -133 -229c0 -55 18 -83 59 -83c33 0 69 32 99 64zM551 582h-122l-66 85l-98 -85h-120l172 176h131z" />
    <glyph glyph-name="Gbreve" unicode="&#x11e;" horiz-adv-x="752" 
d="M744 583l-154 -73c-21 50 -64 88 -140 88c-153 0 -233 -138 -233 -302c0 -103 47 -167 154 -167c37 0 71 7 106 20l18 90h-116l30 148h296l-67 -329c-57 -31 -171 -73 -289 -73c-219 0 -323 130 -323 295c0 255 148 462 438 462c159 0 239 -70 280 -159zM677 918
c-31 -66 -95 -138 -226 -138c-129 0 -164 72 -167 138h96c7 -25 36 -46 84 -46c55 0 92 21 111 46h102z" />
    <glyph glyph-name="gbreve" unicode="&#x11f;" horiz-adv-x="616" 
d="M651 527l-24 -118c-13 5 -24 7 -33 7c-24 0 -35 -16 -41 -44l-70 -345c-33 -162 -123 -220 -275 -220c-69 0 -154 14 -212 42l55 116c41 -23 101 -41 156 -41c65 0 95 31 107 88l6 29c-46 -33 -86 -41 -132 -41c-111 0 -163 77 -163 194c0 187 108 348 292 348
c51 0 97 -18 130 -39c22 28 65 36 109 36c30 0 62 -4 95 -12zM353 179l45 222c-15 13 -43 26 -70 26c-96 0 -133 -147 -133 -229c0 -55 18 -83 59 -83c33 0 69 32 99 64zM547 747c-31 -66 -95 -138 -226 -138c-129 0 -164 72 -167 138h96c7 -25 36 -46 84 -46
c55 0 92 21 111 46h102z" />
    <glyph glyph-name="Gdotaccent" unicode="&#x120;" horiz-adv-x="752" 
d="M744 583l-154 -73c-21 50 -64 88 -140 88c-153 0 -233 -138 -233 -302c0 -103 47 -167 154 -167c37 0 71 7 106 20l18 90h-116l30 148h296l-67 -329c-57 -31 -171 -73 -289 -73c-219 0 -323 130 -323 295c0 255 148 462 438 462c159 0 239 -70 280 -159zM545 873
c0 -54 -35 -85 -91 -85c-35 0 -71 21 -71 60c0 57 34 87 90 87c40 0 72 -21 72 -62z" />
    <glyph glyph-name="gdotaccent" unicode="&#x121;" horiz-adv-x="616" 
d="M651 527l-24 -118c-13 5 -24 7 -33 7c-24 0 -35 -16 -41 -44l-70 -345c-33 -162 -123 -220 -275 -220c-69 0 -154 14 -212 42l55 116c41 -23 101 -41 156 -41c65 0 95 31 107 88l6 29c-46 -33 -86 -41 -132 -41c-111 0 -163 77 -163 194c0 187 108 348 292 348
c51 0 97 -18 130 -39c22 28 65 36 109 36c30 0 62 -4 95 -12zM353 179l45 222c-15 13 -43 26 -70 26c-96 0 -133 -147 -133 -229c0 -55 18 -83 59 -83c33 0 69 32 99 64zM410 680c0 -54 -35 -85 -91 -85c-35 0 -71 21 -71 60c0 57 34 87 90 87c40 0 72 -21 72 -62z" />
    <glyph glyph-name="Gcommaaccent" unicode="&#x122;" horiz-adv-x="752" 
d="M744 583l-154 -73c-21 50 -64 88 -140 88c-153 0 -233 -138 -233 -302c0 -103 47 -167 154 -167c37 0 71 7 106 20l18 90h-116l30 148h296l-67 -329c-57 -31 -171 -73 -289 -73c-219 0 -323 130 -323 295c0 255 148 462 438 462c159 0 239 -70 280 -159zM424 -86
c0 -40 -24 -81 -59 -112h-88c12 13 25 35 28 52c-33 2 -45 24 -45 45c0 50 41 77 93 77c46 0 71 -26 71 -62z" />
    <glyph glyph-name="gcommaaccent" unicode="&#x123;" horiz-adv-x="616" 
d="M651 527l-24 -118c-13 5 -24 7 -33 7c-24 0 -35 -16 -41 -44l-70 -345c-33 -162 -123 -220 -275 -220c-69 0 -154 14 -212 42l55 116c41 -23 101 -41 156 -41c65 0 95 31 107 88l6 29c-46 -33 -86 -41 -132 -41c-111 0 -163 77 -163 194c0 187 108 348 292 348
c51 0 97 -18 130 -39c22 28 65 36 109 36c30 0 62 -4 95 -12zM353 179l45 222c-15 13 -43 26 -70 26c-96 0 -133 -147 -133 -229c0 -55 18 -83 59 -83c33 0 69 32 99 64zM258 647c0 40 24 81 59 112h88c-12 -13 -25 -35 -28 -52c33 -2 45 -24 45 -45c0 -50 -41 -77 -93 -77
c-46 0 -71 26 -71 62z" />
    <glyph glyph-name="Hcircumflex" unicode="&#x124;" horiz-adv-x="726" 
d="M592 0h-180l61 301h-233l-61 -301h-179l146 727h180l-56 -278h233l56 278h180zM643 780h-122l-66 85l-98 -85h-120l172 176h131z" />
    <glyph glyph-name="hcircumflex" unicode="&#x125;" horiz-adv-x="586" 
d="M480 0h-162l63 310c5 24 10 55 10 64c0 29 -16 36 -42 36c-30 0 -79 -26 -109 -48l-74 -362h-161l146 727h162l-48 -240c47 32 96 55 158 55c77 0 137 -38 137 -123c0 -19 -3 -45 -7 -63zM525 780h-122l-66 85l-98 -85h-120l172 176h131z" />
    <glyph glyph-name="Hbar" unicode="&#x126;" horiz-adv-x="726" 
d="M592 0h-180l61 301h-233l-61 -301h-179l106 528h-61l20 103h61l20 96h180l-20 -96h233l20 96h180l-20 -96h59l-21 -103h-58zM270 449h233l16 79h-233z" />
    <glyph glyph-name="hbar" unicode="&#x127;" horiz-adv-x="586" 
d="M480 0h-162l63 310c5 24 10 55 10 64c0 29 -16 36 -42 36c-30 0 -79 -26 -109 -48l-74 -362h-161l117 583h-74l21 103h73l9 41h162l-9 -41h145l-21 -103h-144l-19 -96c47 32 96 55 158 55c77 0 137 -38 137 -123c0 -19 -3 -45 -7 -63z" />
    <glyph glyph-name="Itilde" unicode="&#x128;" horiz-adv-x="450" 
d="M341 0h-373l28 138h96l91 451h-97l28 138h374l-28 -138h-97l-91 -451h97zM540 914c-21 -73 -65 -134 -159 -134c-67 0 -96 30 -127 30c-20 0 -43 -15 -46 -30h-99c18 71 67 134 157 134c64 0 104 -30 128 -30s44 17 47 30h99z" />
    <glyph glyph-name="itilde" unicode="&#x129;" horiz-adv-x="312" 
d="M202 0h-162l75 343c4 19 10 41 10 52c0 10 -3 15 -12 15s-27 -10 -50 -24l-45 87c75 47 132 69 189 69c69 0 87 -37 87 -74c0 -10 -4 -34 -8 -55zM421 745c-21 -73 -65 -134 -159 -134c-67 0 -96 30 -127 30c-20 0 -43 -15 -46 -30h-99c18 71 67 134 157 134
c64 0 104 -30 128 -30s44 17 47 30h99z" />
    <glyph glyph-name="Imacron" unicode="&#x12a;" horiz-adv-x="450" 
d="M341 0h-373l28 138h96l91 451h-97l28 138h374l-28 -138h-97l-91 -451h97zM471 780h-333l21 103h333z" />
    <glyph glyph-name="imacron" unicode="&#x12b;" horiz-adv-x="312" 
d="M202 0h-162l75 343c4 19 10 41 10 52c0 10 -3 15 -12 15s-27 -10 -50 -24l-45 87c75 47 132 69 189 69c69 0 87 -37 87 -74c0 -10 -4 -34 -8 -55zM363 636h-333l21 103h333z" />
    <glyph glyph-name="Ibreve" unicode="&#x12c;" horiz-adv-x="450" 
d="M341 0h-373l28 138h96l91 451h-97l28 138h374l-28 -138h-97l-91 -451h97zM522 918c-31 -66 -95 -138 -226 -138c-129 0 -164 72 -167 138h96c7 -25 36 -46 84 -46c55 0 92 21 111 46h102z" />
    <glyph glyph-name="ibreve" unicode="&#x12d;" horiz-adv-x="312" 
d="M202 0h-162l75 343c4 19 10 41 10 52c0 10 -3 15 -12 15s-27 -10 -50 -24l-45 87c75 47 132 69 189 69c69 0 87 -37 87 -74c0 -10 -4 -34 -8 -55zM426 747c-31 -66 -95 -138 -226 -138c-129 0 -164 72 -167 138h96c7 -25 36 -46 84 -46c55 0 92 21 111 46h102z" />
    <glyph glyph-name="Iogonek" unicode="&#x12e;" horiz-adv-x="450" 
d="M335 -156c-52 -23 -97 -37 -150 -37c-77 0 -113 33 -113 87c0 37 16 73 36 106h-140l28 138h96l91 451h-97l28 138h374l-28 -138h-97l-91 -451h97l-28 -138h-120c-12 -21 -21 -45 -21 -70c0 -19 11 -31 34 -31c24 0 45 7 75 22z" />
    <glyph glyph-name="iogonek" unicode="&#x12f;" horiz-adv-x="312" 
d="M267 -156c-52 -23 -97 -37 -150 -37c-77 0 -113 33 -113 87c0 37 16 73 36 106h-10l75 343c4 19 10 42 10 53c0 10 -3 14 -12 14s-27 -10 -50 -24l-45 87c75 47 132 69 189 69c69 0 87 -37 87 -74c0 -10 -4 -34 -8 -55l-84 -413h-39c-12 -21 -21 -45 -21 -70
c0 -19 11 -31 34 -31c24 0 45 7 75 22zM329 672c0 -69 -42 -94 -107 -94c-51 0 -86 21 -86 69c0 69 42 94 107 94c51 0 86 -20 86 -69z" />
    <glyph glyph-name="Idotaccent" unicode="&#x130;" horiz-adv-x="450" 
d="M341 0h-373l28 138h96l91 451h-97l28 138h374l-28 -138h-97l-91 -451h97zM402 873c0 -54 -35 -85 -91 -85c-35 0 -71 21 -71 60c0 57 34 87 90 87c40 0 72 -21 72 -62z" />
    <glyph glyph-name="dotlessi" unicode="&#x131;" horiz-adv-x="312" 
d="M202 0h-162l75 343c4 19 10 41 10 52c0 10 -3 15 -12 15s-27 -10 -50 -24l-45 87c75 47 132 69 189 69c69 0 87 -37 87 -74c0 -10 -4 -34 -8 -55z" />
    <glyph glyph-name="IJ" unicode="&#x132;" horiz-adv-x="950" 
d="M341 0h-373l28 138h96l91 451h-97l28 138h374l-28 -138h-97l-91 -451h97zM865 220c-36 -178 -146 -235 -294 -235c-60 0 -129 13 -170 27l63 142c27 -12 67 -25 115 -25c70 0 97 46 115 136l66 324h-18c-44 0 -92 -17 -148 -50l-62 123c50 34 134 65 258 65h178z" />
    <glyph glyph-name="ij" unicode="&#x133;" horiz-adv-x="643" 
d="M192 0h-162l75 343c4 19 10 42 10 53c0 10 -3 14 -12 14s-27 -10 -50 -24l-45 87c75 47 132 69 189 69c69 0 87 -37 87 -74c0 -10 -4 -34 -8 -55zM329 672c0 -69 -42 -94 -107 -94c-51 0 -86 21 -86 69c0 69 42 94 107 94c51 0 86 -20 86 -69zM374 11l72 332
c4 19 10 41 10 52c0 10 -3 15 -12 15s-27 -10 -50 -24l-45 87c75 47 132 69 189 69c69 0 87 -37 87 -74c0 -10 -4 -34 -8 -55l-82 -404c-28 -138 -91 -202 -230 -202c-26 0 -67 3 -116 17l39 123c24 -7 48 -12 77 -12s57 21 69 76zM670 672c0 -69 -42 -94 -107 -94
c-51 0 -86 21 -86 69c0 69 42 94 107 94c51 0 86 -20 86 -69z" />
    <glyph glyph-name="Jcircumflex" unicode="&#x134;" horiz-adv-x="510" 
d="M425 220c-36 -178 -146 -235 -294 -235c-60 0 -129 13 -170 27l63 142c27 -12 67 -25 115 -25c70 0 97 46 115 136l66 324h-18c-44 0 -92 -17 -148 -50l-62 123c50 34 134 65 258 65h178zM540 780h-122l-66 85l-98 -85h-120l172 176h131z" />
    <glyph glyph-name="jcircumflex" unicode="&#x135;" horiz-adv-x="329" 
d="M60 11l72 332c4 19 10 41 10 52c0 10 -3 15 -12 15s-27 -10 -50 -24l-45 87c75 47 132 69 189 69c69 0 87 -37 87 -74c0 -10 -4 -34 -8 -55l-82 -404c-28 -138 -91 -202 -230 -202c-26 0 -67 3 -116 17l39 123c24 -7 48 -12 77 -12s57 21 69 76zM435 590h-122l-66 85
l-98 -85h-120l172 176h131z" />
    <glyph glyph-name="Kcommaaccent" unicode="&#x136;" horiz-adv-x="712" 
d="M445 0l-118 322l-102 -92l-46 -230h-179l146 727h180l-55 -268l281 268h225l-307 -277l174 -450h-199zM359 -86c0 -40 -24 -81 -59 -112h-88c12 13 25 35 28 52c-33 2 -45 24 -45 45c0 50 41 77 93 77c46 0 71 -26 71 -62z" />
    <glyph glyph-name="kcommaaccent" unicode="&#x137;" horiz-adv-x="564" 
d="M579 527l-228 -216l71 -163c15 -34 28 -36 41 -36c8 0 18 2 30 6l21 -120c-25 -6 -61 -13 -88 -13c-71 0 -102 25 -132 93l-56 125l-44 -41l-33 -162h-161l146 727h162l-72 -358l164 158h179zM329 -86c0 -40 -24 -81 -59 -112h-88c12 13 25 35 28 52c-33 2 -45 24 -45 45
c0 50 41 77 93 77c46 0 71 -26 71 -62z" />
    <glyph glyph-name="kgreenlandic" unicode="&#x138;" horiz-adv-x="564" 
d="M579 527l-228 -216l71 -163c15 -34 28 -36 41 -36c8 0 18 2 30 6l21 -120c-25 -6 -61 -13 -88 -13c-71 0 -102 25 -132 93l-56 125l-44 -41l-33 -162h-161l105 527h162l-31 -158l164 158h179z" />
    <glyph glyph-name="Lacute" unicode="&#x139;" horiz-adv-x="598" 
d="M493 0h-493l146 727h180l-117 -579h314zM484 956l-196 -176h-122l153 176h165z" />
    <glyph glyph-name="lacute" unicode="&#x13a;" horiz-adv-x="350" 
d="M269 122l16 -117c-47 -14 -97 -20 -132 -20c-87 0 -129 37 -129 110c0 22 6 65 12 94l100 497l179 82l-113 -552c-7 -32 -13 -64 -13 -74c0 -19 7 -28 29 -28c17 0 34 3 51 8zM461 956l-196 -176h-122l153 176h165z" />
    <glyph glyph-name="Lcommaaccent" unicode="&#x13b;" horiz-adv-x="598" 
d="M493 0h-493l146 727h180l-117 -579h314zM335 -86c0 -40 -24 -81 -59 -112h-88c12 13 25 35 28 52c-33 2 -45 24 -45 45c0 50 41 77 93 77c46 0 71 -26 71 -62z" />
    <glyph glyph-name="lcommaaccent" unicode="&#x13c;" horiz-adv-x="350" 
d="M269 122l16 -117c-47 -14 -97 -20 -132 -20c-87 0 -129 37 -129 110c0 22 6 65 12 94l100 497l179 82l-113 -552c-7 -32 -13 -64 -13 -74c0 -19 7 -28 29 -28c17 0 34 3 51 8zM210 -86c0 -40 -24 -81 -59 -112h-88c12 13 25 35 28 52c-33 2 -45 24 -45 45
c0 50 41 77 93 77c46 0 71 -26 71 -62z" />
    <glyph glyph-name="Lcaron" unicode="&#x13d;" horiz-adv-x="598" 
d="M493 0h-493l146 727h180l-117 -579h314zM380 621c0 62 38 106 106 106c52 0 81 -34 81 -77c0 -86 -71 -171 -132 -239h-87c52 57 90 114 103 144c-55 0 -71 35 -71 66z" />
    <glyph glyph-name="lcaron" unicode="&#x13e;" horiz-adv-x="429" 
d="M269 122l16 -117c-47 -14 -97 -20 -132 -20c-87 0 -129 37 -129 110c0 22 6 65 12 94l100 497l179 82l-113 -552c-7 -32 -13 -64 -13 -74c0 -19 7 -28 29 -28c17 0 34 3 51 8zM342 629c0 62 38 106 106 106c52 0 81 -34 81 -77c0 -86 -71 -171 -132 -239h-87
c52 57 90 114 103 144c-55 0 -71 35 -71 66z" />
    <glyph glyph-name="Ldot" unicode="&#x13f;" horiz-adv-x="598" 
d="M493 0h-493l146 727h180l-117 -579h314zM502 380c0 -54 -35 -85 -91 -85c-35 0 -71 21 -71 60c0 57 34 87 90 87c40 0 72 -21 72 -62z" />
    <glyph glyph-name="ldot" unicode="&#x140;" horiz-adv-x="430" 
d="M269 122l16 -117c-47 -14 -97 -20 -132 -20c-87 0 -129 37 -129 110c0 22 6 65 12 94l100 497l179 82l-113 -552c-7 -32 -13 -64 -13 -74c0 -19 7 -28 29 -28c17 0 34 3 51 8zM436 344c0 -54 -35 -85 -91 -85c-35 0 -71 21 -71 60c0 57 34 87 90 87c40 0 72 -21 72 -62z
" />
    <glyph glyph-name="Lslash" unicode="&#x141;" horiz-adv-x="598" 
d="M493 0h-493l47 234l-91 -59l29 142l90 59l71 351h180l-43 -214l147 97l-30 -144l-146 -96l-45 -222h314z" />
    <glyph glyph-name="lslash" unicode="&#x142;" horiz-adv-x="350" 
d="M269 122l16 -117c-47 -14 -97 -20 -132 -20c-87 0 -129 37 -129 110c0 22 6 65 12 94l14 70l-75 -50l27 132l74 50l60 295l179 82l-52 -252l81 54l-27 -134l-81 -54l-34 -166c-7 -32 -13 -64 -13 -74c0 -19 7 -28 29 -28c17 0 34 3 51 8z" />
    <glyph glyph-name="Nacute" unicode="&#x143;" horiz-adv-x="749" 
d="M615 0h-189l-169 462l-91 -462h-166l146 727h196l162 -443l91 443h167zM685 956l-196 -176h-122l153 176h165z" />
    <glyph glyph-name="nacute" unicode="&#x144;" horiz-adv-x="581" 
d="M475 0h-162l63 310c5 23 10 55 10 64c0 29 -16 36 -42 36c-30 0 -79 -26 -109 -48l-74 -362h-161l107 527h147l-11 -51c61 43 113 66 175 66c77 0 137 -38 137 -123c0 -18 -2 -39 -7 -62zM558 766l-196 -176h-122l153 176h165z" />
    <glyph glyph-name="Ncommaaccent" unicode="&#x145;" horiz-adv-x="749" 
d="M615 0h-189l-169 462l-91 -462h-166l146 727h196l162 -443l91 443h167zM373 -86c0 -40 -24 -81 -59 -112h-88c12 13 25 35 28 52c-33 2 -45 24 -45 45c0 50 41 77 93 77c46 0 71 -26 71 -62z" />
    <glyph glyph-name="ncommaaccent" unicode="&#x146;" horiz-adv-x="581" 
d="M475 0h-162l63 310c5 23 10 55 10 64c0 29 -16 36 -42 36c-30 0 -79 -26 -109 -48l-74 -362h-161l107 527h147l-11 -51c61 43 113 66 175 66c77 0 137 -38 137 -123c0 -18 -2 -39 -7 -62zM298 -86c0 -40 -24 -81 -59 -112h-88c12 13 25 35 28 52c-33 2 -45 24 -45 45
c0 50 41 77 93 77c46 0 71 -26 71 -62z" />
    <glyph glyph-name="Ncaron" unicode="&#x147;" horiz-adv-x="749" 
d="M615 0h-189l-169 462l-91 -462h-166l146 727h196l162 -443l91 443h167zM690 956l-173 -176h-131l-103 176h114l70 -85l104 85h119z" />
    <glyph glyph-name="ncaron" unicode="&#x148;" horiz-adv-x="581" 
d="M475 0h-162l63 310c5 23 10 55 10 64c0 29 -16 36 -42 36c-30 0 -79 -26 -109 -48l-74 -362h-161l107 527h147l-11 -51c61 43 113 66 175 66c77 0 137 -38 137 -123c0 -18 -2 -39 -7 -62zM585 766l-173 -176h-131l-103 176h114l70 -85l104 85h119z" />
    <glyph glyph-name="napostrophe" unicode="&#x149;" horiz-adv-x="688" 
d="M582 0h-162l63 310c5 23 10 55 10 64c0 29 -16 36 -42 36c-30 0 -79 -26 -109 -48l-74 -362h-161l107 527h147l-11 -51c61 43 113 66 175 66c77 0 137 -38 137 -123c0 -18 -2 -39 -7 -62zM52 644c0 62 38 106 106 106c52 0 81 -34 81 -77c0 -86 -71 -171 -132 -239h-87
c52 57 90 114 103 144c-55 0 -71 35 -71 66z" />
    <glyph glyph-name="Eng" unicode="&#x14a;" horiz-adv-x="745" 
d="M616 -3c-37 -178 -133 -235 -281 -235c-71 0 -144 18 -181 33l74 142c27 -12 62 -31 115 -31c70 0 97 46 115 136l86 426c3 17 5 31 5 44c0 69 -45 75 -86 75c-66 0 -141 -48 -196 -99l-100 -488h-167l148 727h181l-14 -69c72 54 135 84 228 84c109 0 184 -49 184 -158
c0 -28 -4 -59 -11 -95z" />
    <glyph glyph-name="eng" unicode="&#x14b;" horiz-adv-x="581" 
d="M548 357l-71 -348c-28 -138 -91 -202 -230 -202c-26 0 -67 3 -116 17l39 123c24 -7 48 -12 77 -12s58 21 69 76l60 299c5 23 7 41 7 55c0 38 -17 45 -41 45c-33 0 -77 -26 -107 -48l-74 -362h-161l107 527h147l-11 -51c61 43 125 66 187 66c77 0 125 -38 125 -123
c0 -18 -2 -39 -7 -62z" />
    <glyph glyph-name="Omacron" unicode="&#x14c;" horiz-adv-x="784" 
d="M429 598c-144 0 -213 -174 -213 -305c0 -89 37 -164 139 -164c144 0 213 174 213 305c0 89 -37 164 -139 164zM442 742c223 0 316 -138 316 -302c0 -237 -136 -455 -414 -455c-225 0 -318 138 -318 302c0 237 136 455 416 455zM634 780h-333l21 103h333z" />
    <glyph glyph-name="omacron" unicode="&#x14d;" horiz-adv-x="595" 
d="M570 329c0 -174 -102 -344 -317 -344c-167 0 -228 106 -228 206c0 182 103 351 316 351c162 0 229 -96 229 -213zM272 113c80 0 128 117 128 208c0 65 -28 93 -75 93c-87 0 -130 -125 -130 -211c0 -64 31 -90 77 -90zM510 636h-333l21 103h333z" />
    <glyph glyph-name="Obreve" unicode="&#x14e;" horiz-adv-x="784" 
d="M429 598c-144 0 -213 -174 -213 -305c0 -89 37 -164 139 -164c144 0 213 174 213 305c0 89 -37 164 -139 164zM442 742c223 0 316 -138 316 -302c0 -237 -136 -455 -414 -455c-225 0 -318 138 -318 302c0 237 136 455 416 455zM662 918c-31 -66 -95 -138 -226 -138
c-129 0 -164 72 -167 138h96c7 -25 36 -46 84 -46c55 0 92 21 111 46h102z" />
    <glyph glyph-name="obreve" unicode="&#x14f;" horiz-adv-x="595" 
d="M570 329c0 -174 -102 -344 -317 -344c-167 0 -228 106 -228 206c0 182 103 351 316 351c162 0 229 -96 229 -213zM272 113c80 0 128 117 128 208c0 65 -28 93 -75 93c-87 0 -130 -125 -130 -211c0 -64 31 -90 77 -90zM569 747c-31 -66 -95 -138 -226 -138
c-129 0 -164 72 -167 138h96c7 -25 36 -46 84 -46c55 0 92 21 111 46h102z" />
    <glyph glyph-name="Ohungarumlaut" unicode="&#x150;" horiz-adv-x="784" 
d="M429 598c-144 0 -213 -174 -213 -305c0 -89 37 -164 139 -164c144 0 213 174 213 305c0 89 -37 164 -139 164zM442 742c223 0 316 -138 316 -302c0 -237 -136 -455 -414 -455c-225 0 -318 138 -318 302c0 237 136 455 416 455zM766 956l-180 -176h-117l141 176h156z
M566 956l-180 -176h-116l140 176h156z" />
    <glyph glyph-name="ohungarumlaut" unicode="&#x151;" horiz-adv-x="595" 
d="M570 329c0 -174 -102 -344 -317 -344c-167 0 -228 106 -228 206c0 182 103 351 316 351c162 0 229 -96 229 -213zM272 113c80 0 128 117 128 208c0 65 -28 93 -75 93c-87 0 -130 -125 -130 -211c0 -64 31 -90 77 -90zM622 766l-180 -176h-117l141 176h156zM422 766
l-180 -176h-116l140 176h156z" />
    <glyph glyph-name="OE" unicode="&#x152;" horiz-adv-x="987" 
d="M860 0h-409c-35 -10 -64 -15 -113 -15c-206 0 -312 127 -312 300c0 260 149 457 421 457c49 0 111 -5 147 -15h413l-30 -148h-304l-27 -133h272l-29 -144h-272l-31 -154h304zM403 136l93 455c-12 2 -35 7 -65 7c-150 0 -215 -173 -215 -311c0 -97 51 -158 137 -158
c28 0 39 4 50 7z" />
    <glyph glyph-name="oe" unicode="&#x153;" horiz-adv-x="909" 
d="M902 394c0 -155 -166 -189 -360 -194c-1 -5 -1 -8 -1 -12c0 -53 44 -75 91 -75c46 0 97 23 119 36l59 -114c-47 -25 -114 -50 -207 -50c-72 0 -130 24 -164 66c-48 -41 -105 -66 -186 -66c-167 0 -228 106 -228 206c0 182 103 351 316 351c84 0 139 -29 173 -72
c45 40 108 72 186 72c132 0 202 -61 202 -148zM272 113c80 0 128 117 128 208c0 65 -28 93 -75 93c-87 0 -130 -125 -130 -211c0 -64 31 -90 77 -90zM563 308c144 3 181 35 181 77c0 27 -19 42 -53 42c-51 0 -107 -40 -128 -119z" />
    <glyph glyph-name="Racute" unicode="&#x154;" horiz-adv-x="677" 
d="M584 0h-181l-10 213c-3 54 -18 76 -70 76h-86l-58 -289h-179l146 727h281c149 0 240 -61 240 -175c0 -105 -62 -176 -173 -206c62 -13 77 -50 81 -139zM353 429c63 0 121 22 121 95c0 33 -20 60 -77 60h-100l-31 -155h87zM572 956l-196 -176h-122l153 176h165z" />
    <glyph glyph-name="racute" unicode="&#x155;" horiz-adv-x="433" 
d="M468 525l-49 -154c-14 4 -31 6 -54 6c-51 0 -101 -24 -138 -57l-65 -320h-162l107 527h147l-16 -79c36 38 100 87 174 87c19 0 43 -3 56 -10zM491 766l-196 -176h-122l153 176h165z" />
    <glyph glyph-name="Rcommaaccent" unicode="&#x156;" horiz-adv-x="677" 
d="M584 0h-181l-10 213c-3 54 -18 76 -70 76h-86l-58 -289h-179l146 727h281c149 0 240 -61 240 -175c0 -105 -62 -176 -173 -206c62 -13 77 -50 81 -139zM353 429c63 0 121 22 121 95c0 33 -20 60 -77 60h-100l-31 -155h87zM364 -86c0 -40 -24 -81 -59 -112h-88
c12 13 25 35 28 52c-33 2 -45 24 -45 45c0 50 41 77 93 77c46 0 71 -26 71 -62z" />
    <glyph glyph-name="rcommaaccent" unicode="&#x157;" horiz-adv-x="433" 
d="M468 525l-49 -154c-14 4 -31 6 -54 6c-51 0 -101 -24 -138 -57l-65 -320h-162l107 527h147l-16 -79c36 38 100 87 174 87c19 0 43 -3 56 -10zM199 -86c0 -40 -24 -81 -59 -112h-88c12 13 25 35 28 52c-33 2 -45 24 -45 45c0 50 41 77 93 77c46 0 71 -26 71 -62z" />
    <glyph glyph-name="Rcaron" unicode="&#x158;" horiz-adv-x="677" 
d="M584 0h-181l-10 213c-3 54 -18 76 -70 76h-86l-58 -289h-179l146 727h281c149 0 240 -61 240 -175c0 -105 -62 -176 -173 -206c62 -13 77 -50 81 -139zM353 429c63 0 121 22 121 95c0 33 -20 60 -77 60h-100l-31 -155h87zM627 956l-173 -176h-131l-103 176h114l70 -85
l104 85h119z" />
    <glyph glyph-name="rcaron" unicode="&#x159;" horiz-adv-x="433" 
d="M468 525l-49 -154c-14 4 -31 6 -54 6c-51 0 -101 -24 -138 -57l-65 -320h-162l107 527h147l-16 -79c36 38 100 87 174 87c19 0 43 -3 56 -10zM538 766l-173 -176h-131l-103 176h114l70 -85l104 85h119z" />
    <glyph glyph-name="Sacute" unicode="&#x15a;" horiz-adv-x="625" 
d="M585 232c0 -173 -153 -247 -327 -247c-147 0 -245 63 -291 149l154 85c31 -55 80 -90 153 -90c60 0 122 22 122 77c0 44 -50 64 -112 85c-108 36 -231 74 -231 221c0 137 117 230 302 230c121 0 214 -45 269 -142l-146 -84c-32 54 -67 85 -145 85c-42 0 -93 -20 -93 -68
c0 -45 55 -62 140 -90c96 -32 205 -85 205 -211zM559 956l-196 -176h-122l153 176h165z" />
    <glyph glyph-name="sacute" unicode="&#x15b;" horiz-adv-x="502" 
d="M459 168c0 -138 -117 -183 -242 -183c-100 0 -181 32 -228 109l116 72c39 -51 88 -60 128 -60c36 0 62 9 62 35c0 32 -63 48 -126 73c-57 23 -113 65 -113 143c0 126 104 185 234 185c96 0 171 -33 212 -103l-120 -65c-21 36 -54 50 -102 50c-42 0 -65 -16 -65 -41
c0 -23 24 -35 101 -62c68 -24 143 -64 143 -153zM528 766l-196 -176h-122l153 176h165z" />
    <glyph glyph-name="Scircumflex" unicode="&#x15c;" horiz-adv-x="625" 
d="M585 232c0 -173 -153 -247 -327 -247c-147 0 -245 63 -291 149l154 85c31 -55 80 -90 153 -90c60 0 122 22 122 77c0 44 -50 64 -112 85c-108 36 -231 74 -231 221c0 137 117 230 302 230c121 0 214 -45 269 -142l-146 -84c-32 54 -67 85 -145 85c-42 0 -93 -20 -93 -68
c0 -45 55 -62 140 -90c96 -32 205 -85 205 -211zM559 780h-122l-66 85l-98 -85h-120l172 176h131z" />
    <glyph glyph-name="scircumflex" unicode="&#x15d;" horiz-adv-x="502" 
d="M459 168c0 -138 -117 -183 -242 -183c-100 0 -181 32 -228 109l116 72c39 -51 88 -60 128 -60c36 0 62 9 62 35c0 32 -63 48 -126 73c-57 23 -113 65 -113 143c0 126 104 185 234 185c96 0 171 -33 212 -103l-120 -65c-21 36 -54 50 -102 50c-42 0 -65 -16 -65 -41
c0 -23 24 -35 101 -62c68 -24 143 -64 143 -153zM497 590h-122l-66 85l-98 -85h-120l172 176h131z" />
    <glyph glyph-name="Scedilla" unicode="&#x15e;" horiz-adv-x="625" 
d="M356 -89c0 -79 -81 -104 -162 -104c-52 0 -100 10 -131 26l40 73c22 -9 48 -19 95 -19c15 0 33 4 33 22c0 16 -17 27 -68 28l43 51c-119 13 -199 70 -239 146l154 85c31 -55 80 -90 153 -90c60 0 122 22 122 77c0 44 -50 64 -112 85c-108 36 -231 74 -231 221
c0 137 117 230 302 230c121 0 214 -45 269 -142l-146 -84c-32 54 -67 85 -145 85c-42 0 -93 -20 -93 -68c0 -45 55 -62 140 -90c96 -32 205 -85 205 -211c0 -158 -127 -233 -282 -245l-3 -5c30 -8 56 -32 56 -71z" />
    <glyph glyph-name="scedilla" unicode="&#x15f;" horiz-adv-x="502" 
d="M319 -89c0 -79 -81 -104 -162 -104c-52 0 -100 10 -131 26l40 73c22 -9 48 -19 95 -19c15 0 33 4 33 22c0 16 -17 27 -68 28l43 51c-78 9 -141 42 -180 106l116 72c39 -51 88 -60 128 -60c36 0 62 9 62 35c0 32 -63 48 -126 73c-57 23 -113 65 -113 143
c0 126 104 185 234 185c96 0 171 -33 212 -103l-120 -65c-21 36 -54 50 -102 50c-42 0 -65 -16 -65 -41c0 -23 24 -35 101 -62c68 -24 143 -64 143 -153c0 -120 -88 -169 -192 -180l-4 -6c30 -8 56 -32 56 -71z" />
    <glyph glyph-name="Scaron" unicode="&#x160;" horiz-adv-x="625" 
d="M585 232c0 -173 -153 -247 -327 -247c-147 0 -245 63 -291 149l154 85c31 -55 80 -90 153 -90c60 0 122 22 122 77c0 44 -50 64 -112 85c-108 36 -231 74 -231 221c0 137 117 230 302 230c121 0 214 -45 269 -142l-146 -84c-32 54 -67 85 -145 85c-42 0 -93 -20 -93 -68
c0 -45 55 -62 140 -90c96 -32 205 -85 205 -211zM602 956l-173 -176h-131l-103 176h114l70 -85l104 85h119z" />
    <glyph glyph-name="scaron" unicode="&#x161;" horiz-adv-x="502" 
d="M459 168c0 -138 -117 -183 -242 -183c-100 0 -181 32 -228 109l116 72c39 -51 88 -60 128 -60c36 0 62 9 62 35c0 32 -63 48 -126 73c-57 23 -113 65 -113 143c0 126 104 185 234 185c96 0 171 -33 212 -103l-120 -65c-21 36 -54 50 -102 50c-42 0 -65 -16 -65 -41
c0 -23 24 -35 101 -62c68 -24 143 -64 143 -153zM532 766l-173 -176h-131l-103 176h114l70 -85l104 85h119z" />
    <glyph glyph-name="uni0162" unicode="&#x162;" horiz-adv-x="632" 
d="M668 579h-211l-117 -579h-180l117 579h-211l30 148h602zM311 -86c0 -40 -24 -81 -59 -112h-88c12 13 25 35 28 52c-33 2 -45 24 -45 45c0 50 41 77 93 77c46 0 71 -26 71 -62z" />
    <glyph glyph-name="uni0163" unicode="&#x163;" horiz-adv-x="390" 
d="M320 5c-34 -10 -88 -20 -129 -20c-108 0 -144 40 -144 115c0 24 4 51 10 82l46 227h-69l24 118h69l27 131l176 69l-41 -200h112l-24 -118h-112l-41 -203c-5 -26 -8 -45 -8 -59c0 -27 17 -32 37 -32c11 0 31 3 52 9zM254 -86c0 -40 -24 -81 -59 -112h-88
c12 13 25 35 28 52c-33 2 -45 24 -45 45c0 50 41 77 93 77c46 0 71 -26 71 -62z" />
    <glyph glyph-name="uni021A" unicode="&#x21a;" horiz-adv-x="632" 
d="M668 579h-211l-117 -579h-180l117 579h-211l30 148h602zM311 -86c0 -40 -24 -81 -59 -112h-88c12 13 25 35 28 52c-33 2 -45 24 -45 45c0 50 41 77 93 77c46 0 71 -26 71 -62z" />
    <glyph glyph-name="uni021B" unicode="&#x21b;" horiz-adv-x="390" 
d="M320 5c-34 -10 -88 -20 -129 -20c-108 0 -144 40 -144 115c0 24 4 51 10 82l46 227h-69l24 118h69l27 131l176 69l-41 -200h112l-24 -118h-112l-41 -203c-5 -26 -8 -45 -8 -59c0 -27 17 -32 37 -32c11 0 31 3 52 9zM254 -86c0 -40 -24 -81 -59 -112h-88
c12 13 25 35 28 52c-33 2 -45 24 -45 45c0 50 41 77 93 77c46 0 71 -26 71 -62z" />
    <glyph glyph-name="Tcaron" unicode="&#x164;" horiz-adv-x="632" 
d="M668 579h-211l-117 -579h-180l117 579h-211l30 148h602zM633 956l-173 -176h-131l-103 176h114l70 -85l104 85h119z" />
    <glyph glyph-name="tcaron" unicode="&#x165;" horiz-adv-x="390" 
d="M320 5c-34 -10 -88 -20 -129 -20c-108 0 -144 40 -144 115c0 24 4 51 10 82l46 227h-69l24 118h69l27 131l176 69l-41 -200h112l-24 -118h-112l-41 -203c-5 -26 -8 -45 -8 -59c0 -27 17 -32 37 -32c11 0 31 3 52 9zM519 669c0 -40 -24 -81 -59 -112h-88
c12 13 25 35 28 52c-33 2 -45 24 -45 45c0 50 41 77 93 77c46 0 71 -26 71 -62z" />
    <glyph glyph-name="Tbar" unicode="&#x166;" horiz-adv-x="632" 
d="M668 579h-211l-41 -203h138l-21 -103h-138l-55 -273h-180l55 273h-138l21 103h138l41 203h-211l30 148h602z" />
    <glyph glyph-name="tbar" unicode="&#x167;" horiz-adv-x="390" 
d="M-2 214l24 118h65l16 77h-69l24 118h69l27 131l176 69l-41 -200h112l-24 -118h-112l-16 -77h116l-25 -118h-115l-1 -8c-5 -26 -8 -45 -8 -59c0 -27 17 -32 37 -32c11 0 31 3 52 9l15 -119c-34 -10 -88 -20 -129 -20c-108 0 -144 40 -144 115c0 24 4 51 10 82l6 32h-65z
" />
    <glyph glyph-name="Utilde" unicode="&#x168;" horiz-adv-x="717" 
d="M646 290c-39 -192 -122 -305 -348 -305c-177 0 -257 65 -257 203c0 30 4 73 19 146l81 393h180l-78 -383c-10 -50 -19 -102 -19 -124c0 -67 31 -91 92 -91c90 0 129 62 151 168l88 430h180zM668 910c-21 -73 -65 -134 -159 -134c-67 0 -96 30 -127 30
c-20 0 -43 -15 -46 -30h-99c18 71 67 134 157 134c64 0 104 -30 128 -30s44 17 47 30h99z" />
    <glyph glyph-name="utilde" unicode="&#x169;" horiz-adv-x="582" 
d="M104 527h162l-63 -310c-5 -23 -10 -55 -10 -64c0 -29 16 -36 42 -36c30 0 79 26 109 48l74 362h161l-107 -527h-147l11 51c-61 -43 -113 -66 -175 -66c-77 0 -137 38 -137 123c0 18 2 39 7 62zM577 745c-21 -73 -65 -134 -159 -134c-67 0 -96 30 -127 30
c-20 0 -43 -15 -46 -30h-99c18 71 67 134 157 134c64 0 104 -30 128 -30s44 17 47 30h99z" />
    <glyph glyph-name="Umacron" unicode="&#x16a;" horiz-adv-x="717" 
d="M646 290c-39 -192 -122 -305 -348 -305c-177 0 -257 65 -257 203c0 30 4 73 19 146l81 393h180l-78 -383c-10 -50 -19 -102 -19 -124c0 -67 31 -91 92 -91c90 0 129 62 151 168l88 430h180zM600 780h-333l21 103h333z" />
    <glyph glyph-name="umacron" unicode="&#x16b;" horiz-adv-x="582" 
d="M104 527h162l-63 -310c-5 -23 -10 -55 -10 -64c0 -29 16 -36 42 -36c30 0 79 26 109 48l74 362h161l-107 -527h-147l11 51c-61 -43 -113 -66 -175 -66c-77 0 -137 38 -137 123c0 18 2 39 7 62zM516 636h-333l21 103h333z" />
    <glyph glyph-name="Ubreve" unicode="&#x16c;" horiz-adv-x="717" 
d="M646 290c-39 -192 -122 -305 -348 -305c-177 0 -257 65 -257 203c0 30 4 73 19 146l81 393h180l-78 -383c-10 -50 -19 -102 -19 -124c0 -67 31 -91 92 -91c90 0 129 62 151 168l88 430h180zM663 918c-31 -66 -95 -138 -226 -138c-129 0 -164 72 -167 138h96
c7 -25 36 -46 84 -46c55 0 92 21 111 46h102z" />
    <glyph glyph-name="ubreve" unicode="&#x16d;" horiz-adv-x="582" 
d="M104 527h162l-63 -310c-5 -23 -10 -55 -10 -64c0 -29 16 -36 42 -36c30 0 79 26 109 48l74 362h161l-107 -527h-147l11 51c-61 -43 -113 -66 -175 -66c-77 0 -137 38 -137 123c0 18 2 39 7 62zM569 747c-31 -66 -95 -138 -226 -138c-129 0 -164 72 -167 138h96
c7 -25 36 -46 84 -46c55 0 92 21 111 46h102z" />
    <glyph glyph-name="Uring" unicode="&#x16e;" horiz-adv-x="717" 
d="M646 290c-39 -192 -122 -305 -348 -305c-177 0 -257 65 -257 203c0 30 4 73 19 146l81 393h180l-78 -383c-10 -50 -19 -102 -19 -124c0 -67 31 -91 92 -91c90 0 129 62 151 168l88 430h180zM563 844c0 -76 -54 -123 -135 -123c-69 0 -102 43 -102 88c0 75 56 122 136 122
c68 0 101 -40 101 -87zM438 785c26 0 53 14 53 47c0 20 -13 35 -41 35c-27 0 -51 -15 -51 -47c0 -19 13 -35 39 -35z" />
    <glyph glyph-name="uring" unicode="&#x16f;" horiz-adv-x="582" 
d="M104 527h162l-63 -310c-5 -23 -10 -55 -10 -64c0 -29 16 -36 42 -36c30 0 79 26 109 48l74 362h161l-107 -527h-147l11 51c-61 -43 -113 -66 -175 -66c-77 0 -137 38 -137 123c0 18 2 39 7 62zM471 702c0 -76 -54 -123 -135 -123c-69 0 -102 43 -102 88
c0 75 56 122 136 122c68 0 101 -40 101 -87zM346 643c26 0 53 14 53 47c0 20 -13 35 -41 35c-27 0 -51 -15 -51 -47c0 -19 13 -35 39 -35z" />
    <glyph glyph-name="Uhungarumlaut" unicode="&#x170;" horiz-adv-x="717" 
d="M646 290c-39 -192 -122 -305 -348 -305c-177 0 -257 65 -257 203c0 30 4 73 19 146l81 393h180l-78 -383c-10 -50 -19 -102 -19 -124c0 -67 31 -91 92 -91c90 0 129 62 151 168l88 430h180zM767 956l-180 -176h-117l141 176h156zM567 956l-180 -176h-116l140 176h156z
" />
    <glyph glyph-name="uhungarumlaut" unicode="&#x171;" horiz-adv-x="582" 
d="M104 527h162l-63 -310c-5 -23 -10 -55 -10 -64c0 -29 16 -36 42 -36c30 0 79 26 109 48l74 362h161l-107 -527h-147l11 51c-61 -43 -113 -66 -175 -66c-77 0 -137 38 -137 123c0 18 2 39 7 62zM671 766l-180 -176h-117l141 176h156zM471 766l-180 -176h-116l140 176h156z
" />
    <glyph glyph-name="Uogonek" unicode="&#x172;" horiz-adv-x="717" 
d="M465 -156c-52 -23 -97 -37 -150 -37c-77 0 -113 33 -113 87c0 33 12 65 29 95c-130 15 -190 79 -190 199c0 30 4 73 19 146l81 393h180l-78 -383c-10 -50 -19 -102 -19 -124c0 -67 31 -91 92 -91c90 0 129 62 151 168l88 430h180l-89 -437c-36 -178 -111 -288 -302 -303
c-8 -18 -14 -37 -14 -57c0 -19 11 -31 34 -31c24 0 45 7 75 22z" />
    <glyph glyph-name="uogonek" unicode="&#x173;" horiz-adv-x="582" 
d="M551 -156c-52 -23 -97 -37 -150 -37c-77 0 -113 33 -113 87c0 38 17 74 37 108l11 49c-61 -43 -113 -66 -175 -66c-77 0 -137 38 -137 123c0 18 2 39 7 62l73 357h162l-63 -310c-5 -23 -10 -55 -10 -64c0 -29 16 -36 42 -36c30 0 79 26 109 48l74 362h161l-107 -527h-35
c-12 -21 -21 -45 -21 -70c0 -19 11 -31 34 -31c24 0 45 7 75 22z" />
    <glyph glyph-name="Wcircumflex" unicode="&#x174;" horiz-adv-x="938" 
d="M1000 727l-313 -727h-148l-67 348l-204 -348h-158l-18 727h173v-448l179 303h140l60 -292l179 437h177zM753 780h-122l-66 85l-98 -85h-120l172 176h131z" />
    <glyph glyph-name="wcircumflex" unicode="&#x175;" horiz-adv-x="772" 
d="M808 527l-266 -527h-105l-65 218l-153 -218h-102l-62 527h154l25 -301l133 199h81l64 -198l140 300h156zM634 590h-122l-66 85l-98 -85h-120l172 176h131z" />
    <glyph glyph-name="Ycircumflex" unicode="&#x176;" horiz-adv-x="676" 
d="M739 727l-328 -434l-59 -293h-180l57 280l-149 447h183l85 -269l199 269h192zM605 780h-122l-66 85l-98 -85h-120l172 176h131z" />
    <glyph glyph-name="ycircumflex" unicode="&#x177;" horiz-adv-x="571" 
d="M612 527l-326 -571c-67 -116 -150 -149 -252 -149c-34 0 -81 5 -122 18l50 124c34 -13 65 -19 86 -19c46 0 70 11 101 69l10 19l-93 509h161l46 -319l174 319h165zM544 590h-122l-66 85l-98 -85h-120l172 176h131z" />
    <glyph glyph-name="Ydieresis" unicode="&#x178;" horiz-adv-x="676" 
d="M739 727l-328 -434l-59 -293h-180l57 280l-149 447h183l85 -269l199 269h192zM385 865c0 -53 -34 -85 -90 -85c-36 0 -70 20 -70 59c0 57 34 88 89 88c40 0 71 -21 71 -62zM625 865c0 -53 -34 -85 -90 -85c-36 0 -70 20 -70 59c0 57 34 88 89 88c40 0 71 -21 71 -62z" />
    <glyph glyph-name="Zacute" unicode="&#x179;" horiz-adv-x="671" 
d="M562 0h-580l24 118l414 461h-305l30 148h554l-23 -113l-421 -466h337zM627 956l-196 -176h-122l153 176h165z" />
    <glyph glyph-name="zacute" unicode="&#x17a;" horiz-adv-x="549" 
d="M445 0h-445l19 93l288 316h-218l24 118h431l-18 -90l-291 -318h234zM537 766l-196 -176h-122l153 176h165z" />
    <glyph glyph-name="Zdotaccent" unicode="&#x17b;" horiz-adv-x="671" 
d="M562 0h-580l24 118l414 461h-305l30 148h554l-23 -113l-421 -466h337zM511 873c0 -54 -35 -85 -91 -85c-35 0 -71 21 -71 60c0 57 34 87 90 87c40 0 72 -21 72 -62z" />
    <glyph glyph-name="zdotaccent" unicode="&#x17c;" horiz-adv-x="549" 
d="M445 0h-445l19 93l288 316h-218l24 118h431l-18 -90l-291 -318h234zM423 680c0 -54 -35 -85 -91 -85c-35 0 -71 21 -71 60c0 57 34 87 90 87c40 0 72 -21 72 -62z" />
    <glyph glyph-name="Zcaron" unicode="&#x17d;" horiz-adv-x="671" 
d="M562 0h-580l24 118l414 461h-305l30 148h554l-23 -113l-421 -466h337zM671 956l-173 -176h-131l-103 176h114l70 -85l104 85h119z" />
    <glyph glyph-name="zcaron" unicode="&#x17e;" horiz-adv-x="549" 
d="M445 0h-445l19 93l288 316h-218l24 118h431l-18 -90l-291 -318h234zM569 766l-173 -176h-131l-103 176h114l70 -85l104 85h119z" />
    <glyph glyph-name="florin" unicode="&#x192;" horiz-adv-x="586" 
d="M596 724l-38 -126c-24 8 -62 16 -91 16c-35 0 -45 -12 -55 -62l-8 -40h107l-25 -118h-107l-83 -397c-23 -109 -55 -190 -209 -190c-39 0 -114 11 -138 19l38 126c18 -9 67 -17 91 -17c40 0 46 16 61 87l78 372h-78l25 118h78l8 40c18 92 47 190 204 190
c51 0 110 -11 142 -18z" />
    <glyph glyph-name="Scommaaccent" unicode="&#x218;" horiz-adv-x="625" 
d="M585 232c0 -173 -153 -247 -327 -247c-147 0 -245 63 -291 149l154 85c31 -55 80 -90 153 -90c60 0 122 22 122 77c0 44 -50 64 -112 85c-108 36 -231 74 -231 221c0 137 117 230 302 230c121 0 214 -45 269 -142l-146 -84c-32 54 -67 85 -145 85c-42 0 -93 -20 -93 -68
c0 -45 55 -62 140 -90c96 -32 205 -85 205 -211zM332 -86c0 -40 -24 -81 -59 -112h-88c12 13 25 35 28 52c-33 2 -45 24 -45 45c0 50 41 77 93 77c46 0 71 -26 71 -62z" />
    <glyph glyph-name="scommaaccent" unicode="&#x219;" horiz-adv-x="512" 
d="M459 168c0 -138 -117 -183 -242 -183c-100 0 -181 32 -228 109l116 72c39 -51 88 -60 128 -60c36 0 62 9 62 35c0 32 -63 48 -126 73c-57 23 -113 65 -113 143c0 126 104 185 234 185c96 0 171 -33 212 -103l-120 -65c-21 36 -54 50 -102 50c-42 0 -65 -16 -65 -41
c0 -23 24 -35 101 -62c68 -24 143 -64 143 -153zM285 -86c0 -40 -24 -81 -59 -112h-88c12 13 25 35 28 52c-33 2 -45 24 -45 45c0 50 41 77 93 77c46 0 71 -26 71 -62z" />
    <glyph glyph-name="dotlessj" unicode="&#x237;" horiz-adv-x="329" 
d="M60 11l72 332c4 19 10 41 10 52c0 10 -3 15 -12 15s-27 -10 -50 -24l-45 87c75 47 132 69 189 69c69 0 87 -37 87 -74c0 -10 -4 -34 -8 -55l-82 -404c-28 -138 -91 -202 -230 -202c-26 0 -67 3 -116 17l39 123c24 -7 48 -12 77 -12s57 21 69 76z" />
    <glyph glyph-name="circumflex" unicode="&#x2c6;" horiz-adv-x="500" 
d="M435 590h-122l-66 85l-98 -85h-120l172 176h131z" />
    <glyph glyph-name="caron" unicode="&#x2c7;" horiz-adv-x="500" 
d="M471 766l-173 -176h-131l-103 176h114l70 -85l104 85h119z" />
    <glyph glyph-name="uni02C9" unicode="&#x2c9;" horiz-adv-x="500" 
d="M406 636h-333l21 103h333z" />
    <glyph glyph-name="breve" unicode="&#x2d8;" horiz-adv-x="500" 
d="M461 747c-31 -66 -95 -138 -226 -138c-129 0 -164 72 -167 138h96c7 -25 36 -46 84 -46c55 0 92 21 111 46h102z" />
    <glyph glyph-name="dotaccent" unicode="&#x2d9;" horiz-adv-x="500" 
d="M334 680c0 -54 -35 -85 -91 -85c-35 0 -71 21 -71 60c0 57 34 87 90 87c40 0 72 -21 72 -62z" />
    <glyph glyph-name="ring" unicode="&#x2da;" horiz-adv-x="500" 
d="M368 702c0 -76 -54 -123 -135 -123c-69 0 -102 43 -102 88c0 75 56 122 136 122c68 0 101 -40 101 -87zM243 643c26 0 53 14 53 47c0 20 -13 35 -41 35c-27 0 -51 -15 -51 -47c0 -19 13 -35 39 -35z" />
    <glyph glyph-name="ogonek" unicode="&#x2db;" horiz-adv-x="500" 
d="M396 -156c-52 -23 -97 -37 -150 -37c-77 0 -113 33 -113 87c0 49 28 95 56 137h112c-18 -27 -40 -63 -40 -101c0 -19 11 -31 34 -31c24 0 45 7 75 22z" />
    <glyph glyph-name="tilde" unicode="&#x2dc;" horiz-adv-x="500" 
d="M465 745c-21 -73 -65 -134 -159 -134c-67 0 -96 30 -127 30c-20 0 -43 -15 -46 -30h-99c18 71 67 134 157 134c64 0 104 -30 128 -30s44 17 47 30h99z" />
    <glyph glyph-name="hungarumlaut" unicode="&#x2dd;" horiz-adv-x="500" 
d="M507 766l-180 -176h-117l141 176h156zM307 766l-180 -176h-116l140 176h156z" />
    <glyph glyph-name="commaaccent" unicode="&#xf6c3;" horiz-adv-x="220" 
d="M201 -86c0 -40 -24 -81 -59 -112h-88c12 13 25 35 28 52c-33 2 -45 24 -45 45c0 50 41 77 93 77c46 0 71 -26 71 -62z" />
    <glyph glyph-name="uni0394" unicode="&#x394;" horiz-adv-x="689" 
d="M632 0h-682v69l227 631h233l222 -631v-69zM428 138l-123 366c-10 29 -15 58 -17 67h-5c-2 -9 -6 -34 -16 -63c-41 -124 -83 -247 -124 -370h285z" />
    <glyph glyph-name="uni03A9" unicode="&#x3a9;" horiz-adv-x="775" 
d="M706 0h-294v137c57 53 110 123 110 239c0 106 -56 186 -152 186c-92 0 -160 -73 -160 -193c0 -114 59 -185 110 -232v-137h-295v137h161c-76 48 -162 127 -162 273c0 175 138 302 346 302c231 0 338 -139 338 -299c0 -131 -70 -218 -167 -276h165v-137z" />
    <glyph glyph-name="uni03BC" unicode="&#x3bc;" horiz-adv-x="586" 
d="M459 0h-147l10 51c-32 -42 -67 -66 -112 -66c-31 0 -53 17 -63 27l-42 -205h-161l146 720h162l-74 -363c4 -18 28 -41 58 -41c44 0 67 17 96 49l72 355h162z" />
    <glyph glyph-name="pi" unicode="&#x3c0;" horiz-adv-x="758" 
d="M665 11c-16 -11 -58 -20 -92 -20c-103 0 -141 78 -141 150v244h-131v-244c0 -63 -5 -107 -14 -141h-138c11 43 16 92 16 147v238c-24 -1 -61 -11 -84 -23c-10 25 -20 79 -31 104c33 20 92 34 151 34h457v-115h-90v-229c0 -47 13 -79 48 -79c12 0 20 4 29 9
c7 -25 14 -50 20 -75z" />
    <glyph glyph-name="Wgrave" unicode="&#x1e80;" horiz-adv-x="938" 
d="M1000 727l-313 -727h-148l-67 348l-204 -348h-158l-18 727h173v-448l179 303h140l60 -292l179 437h177zM642 780h-109l-145 176h162z" />
    <glyph glyph-name="wgrave" unicode="&#x1e81;" horiz-adv-x="772" 
d="M808 527l-266 -527h-105l-65 218l-153 -218h-102l-62 527h154l25 -301l133 199h81l64 -198l140 300h156zM511 590h-109l-145 176h162z" />
    <glyph glyph-name="Wacute" unicode="&#x1e82;" horiz-adv-x="938" 
d="M1000 727l-313 -727h-148l-67 348l-204 -348h-158l-18 727h173v-448l179 303h140l60 -292l179 437h177zM757 956l-196 -176h-122l153 176h165z" />
    <glyph glyph-name="wacute" unicode="&#x1e83;" horiz-adv-x="772" 
d="M808 527l-266 -527h-105l-65 218l-153 -218h-102l-62 527h154l25 -301l133 199h81l64 -198l140 300h156zM647 766l-196 -176h-122l153 176h165z" />
    <glyph glyph-name="Wdieresis" unicode="&#x1e84;" horiz-adv-x="938" 
d="M1000 727l-313 -727h-148l-67 348l-204 -348h-158l-18 727h173v-448l179 303h140l60 -292l179 437h177zM517 864c0 -53 -34 -85 -90 -85c-36 0 -70 20 -70 59c0 57 34 88 89 88c40 0 71 -21 71 -62zM757 864c0 -53 -34 -85 -90 -85c-36 0 -70 20 -70 59c0 57 34 88 89 88
c40 0 71 -21 71 -62z" />
    <glyph glyph-name="wdieresis" unicode="&#x1e85;" horiz-adv-x="772" 
d="M808 527l-266 -527h-105l-65 218l-153 -218h-102l-62 527h154l25 -301l133 199h81l64 -198l140 300h156zM408 672c0 -53 -34 -85 -90 -85c-36 0 -70 20 -70 59c0 57 34 88 89 88c40 0 71 -21 71 -62zM648 672c0 -53 -34 -85 -90 -85c-36 0 -70 20 -70 59
c0 57 34 88 89 88c40 0 71 -21 71 -62z" />
    <glyph glyph-name="Ygrave" unicode="&#x1ef2;" horiz-adv-x="676" 
d="M739 727l-328 -434l-59 -293h-180l57 280l-149 447h183l85 -269l199 269h192zM504 780h-109l-145 176h162z" />
    <glyph glyph-name="ygrave" unicode="&#x1ef3;" horiz-adv-x="571" 
d="M612 527l-326 -571c-67 -116 -150 -149 -252 -149c-34 0 -81 5 -122 18l50 124c34 -13 65 -19 86 -19c46 0 70 11 101 69l10 19l-93 509h161l46 -319l174 319h165zM430 590h-109l-145 176h162z" />
    <glyph glyph-name="endash" unicode="&#x2013;" horiz-adv-x="500" 
d="M493 203h-511l24 118h512z" />
    <glyph glyph-name="emdash" unicode="&#x2014;" horiz-adv-x="1000" 
d="M993 203h-1011l24 118h1012z" />
    <glyph glyph-name="quoteleft" unicode="&#x2018;" horiz-adv-x="281" 
d="M280 532c0 -62 -38 -106 -106 -106c-52 0 -81 34 -81 77c0 86 71 171 132 239h87c-52 -57 -90 -114 -103 -144c55 0 71 -35 71 -66z" />
    <glyph glyph-name="quoteright" unicode="&#x2019;" horiz-adv-x="281" 
d="M95 636c0 62 38 106 106 106c52 0 81 -34 81 -77c0 -86 -71 -171 -132 -239h-87c52 57 90 114 103 144c-55 0 -71 35 -71 66z" />
    <glyph glyph-name="quotesinglbase" unicode="&#x201a;" horiz-adv-x="281" 
d="M21 50c0 62 38 106 106 106c52 0 81 -34 81 -77c0 -86 -71 -171 -132 -239h-87c52 57 90 114 103 144c-55 0 -71 35 -71 66z" />
    <glyph glyph-name="quotedblleft" unicode="&#x201c;" horiz-adv-x="521" 
d="M270 532c0 -62 -38 -106 -106 -106c-52 0 -81 34 -81 77c0 86 71 171 132 239h87c-52 -57 -90 -114 -103 -144c55 0 71 -35 71 -66zM508 532c0 -62 -38 -106 -106 -106c-52 0 -81 34 -81 77c0 86 71 171 132 239h87c-52 -57 -90 -114 -103 -144c55 0 71 -35 71 -66z" />
    <glyph glyph-name="quotedblright" unicode="&#x201d;" horiz-adv-x="521" 
d="M343 636c0 62 38 106 106 106c52 0 81 -34 81 -77c0 -86 -71 -171 -132 -239h-87c52 57 90 114 103 144c-55 0 -71 35 -71 66zM105 636c0 62 38 106 106 106c52 0 81 -34 81 -77c0 -86 -71 -171 -132 -239h-87c52 57 90 114 103 144c-55 0 -71 35 -71 66z" />
    <glyph glyph-name="quotedblbase" unicode="&#x201e;" horiz-adv-x="521" 
d="M249 51c0 62 38 106 106 106c52 0 81 -34 81 -77c0 -86 -71 -171 -132 -239h-87c52 57 90 114 103 144c-55 0 -71 35 -71 66zM11 51c0 62 38 106 106 106c52 0 81 -34 81 -77c0 -86 -71 -171 -132 -239h-87c52 57 90 114 103 144c-55 0 -71 35 -71 66z" />
    <glyph glyph-name="dagger" unicode="&#x2020;" horiz-adv-x="567" 
d="M558 381l-191 11l-104 -585h-153l135 585l-194 -11l30 146l189 -12l34 227h147l-59 -227l196 12z" />
    <glyph glyph-name="daggerdbl" unicode="&#x2021;" horiz-adv-x="567" 
d="M477 22l-181 12l-34 -227h-149l60 227l-185 -12l29 147l181 -12l15 117l32 117l-185 -12l30 147l180 -12l34 228h149l-60 -228l187 12l-30 -147l-182 12l-16 -117l-31 -117l186 12z" />
    <glyph glyph-name="bullet" unicode="&#x2022;" horiz-adv-x="414" 
d="M364 365c0 -87 -70 -157 -157 -157s-157 70 -157 157s70 157 157 157s157 -70 157 -157z" />
    <glyph glyph-name="ellipsis" unicode="&#x2026;" horiz-adv-x="1000" 
d="M212 91c0 -72 -36 -102 -104 -102c-48 0 -84 20 -84 67c0 70 35 102 105 102c45 0 83 -19 83 -67zM544 91c0 -72 -36 -102 -104 -102c-48 0 -84 20 -84 67c0 70 35 102 105 102c45 0 83 -19 83 -67zM879 91c0 -72 -36 -102 -104 -102c-48 0 -84 20 -84 67
c0 70 35 102 105 102c45 0 83 -19 83 -67z" />
    <glyph glyph-name="perthousand" unicode="&#x2030;" horiz-adv-x="1558" 
d="M883 727l-574 -878h-132l574 878h132zM500 568c0 -155 -87 -282 -260 -282c-123 0 -190 67 -190 174c0 156 87 282 260 282c123 0 190 -67 190 -174zM254 411c64 0 93 96 93 138c0 38 -12 68 -52 68c-63 0 -92 -96 -92 -140c0 -36 12 -66 51 -66zM1015 123
c0 -155 -87 -282 -260 -282c-123 0 -190 67 -190 174c0 156 87 282 260 282c123 0 190 -67 190 -174zM769 -34c64 0 93 96 93 138c0 38 -12 68 -52 68c-63 0 -92 -96 -92 -140c0 -36 12 -66 51 -66zM1503 123c0 -155 -87 -282 -260 -282c-123 0 -190 67 -190 174
c0 156 87 282 260 282c123 0 190 -67 190 -174zM1257 -34c64 0 93 96 93 138c0 38 -12 68 -52 68c-63 0 -92 -96 -92 -140c0 -36 12 -66 51 -66z" />
    <glyph glyph-name="guilsinglleft" unicode="&#x2039;" horiz-adv-x="374" 
d="M304 27h-160l-126 237l215 237h171l-220 -243z" />
    <glyph glyph-name="guilsinglright" unicode="&#x203a;" horiz-adv-x="374" 
d="M60 501h160l126 -237l-215 -237h-171l220 243z" />
    <glyph glyph-name="fraction" unicode="&#x2044;" horiz-adv-x="130" 
d="M424 727l-573 -878h-141l573 878h141z" />
    <glyph glyph-name="Euro" unicode="&#x20ac;" horiz-adv-x="636" 
d="M13 393l41 96h42c57 140 170 253 353 253c134 0 205 -60 234 -139l-136 -81c-18 50 -51 81 -117 81c-75 0 -125 -49 -158 -114h222l-41 -96h-216c-5 -20 -8 -40 -11 -60h190l-41 -96h-155c2 -68 39 -113 113 -113c63 0 119 33 166 75l69 -117c-54 -46 -134 -97 -263 -97
c-182 0 -253 106 -255 252h-68l40 96h34c2 20 6 40 10 60h-53z" />
    <glyph glyph-name="afii61289" unicode="&#x2113;" horiz-adv-x="541" 
d="M406 117l38 -70c-37 -30 -89 -62 -157 -62c-53 0 -92 13 -121 42c-33 34 -44 84 -44 129v23l-53 -48l-41 74l94 85v202c0 141 61 236 179 236c99 0 140 -56 140 -135c0 -119 -87 -229 -167 -312v-102c0 -74 25 -98 61 -98c31 0 56 22 71 36zM350 598c0 24 -10 41 -31 41
c-27 0 -45 -25 -45 -81v-154c37 51 76 131 76 194z" />
    <glyph glyph-name="trademark" unicode="&#x2122;" horiz-adv-x="809" 
d="M819 378h-101v186l-53 -108h-47l-56 102v-180h-101v349h113l67 -130l60 130h118v-349zM388 641h-111v-263h-106v263h-111v86h328v-86z" />
    <glyph glyph-name="Omega" unicode="&#x2126;" horiz-adv-x="775" 
d="M706 0h-294v137c57 53 110 123 110 239c0 106 -56 186 -152 186c-92 0 -160 -73 -160 -193c0 -114 59 -185 110 -232v-137h-295v137h161c-76 48 -162 127 -162 273c0 175 138 302 346 302c231 0 338 -139 338 -299c0 -131 -70 -218 -167 -276h165v-137z" />
    <glyph glyph-name="estimated" unicode="&#x212e;" horiz-adv-x="699" 
d="M651 306h-472v-211c46 -44 102 -68 168 -68c111 0 176 56 227 139l36 -23c-61 -93 -133 -155 -263 -155c-182 0 -299 144 -299 318c0 177 114 319 301 319c188 0 298 -143 302 -319zM517 345v173c-43 41 -105 69 -169 69c-66 0 -124 -23 -169 -68v-174h338z" />
    <glyph glyph-name="partialdiff" unicode="&#x2202;" horiz-adv-x="640" 
d="M600 448c0 -63 -8 -126 -25 -185c-50 -168 -153 -275 -305 -275c-138 0 -230 92 -230 212c0 199 137 288 257 288c61 0 110 -25 133 -58h2c1 14 2 25 2 41c0 82 -42 139 -124 139c-36 0 -74 -12 -104 -30l-33 109c35 25 98 45 168 45c171 0 259 -119 259 -286zM412 318
c-12 35 -37 58 -76 58c-68 0 -124 -86 -124 -182c0 -48 24 -79 65 -79c72 0 119 103 135 203z" />
    <glyph glyph-name="Delta" unicode="&#x2206;" horiz-adv-x="689" 
d="M632 0h-682v69l227 631h233l222 -631v-69zM428 138l-123 366c-10 29 -15 58 -17 67h-5c-2 -9 -6 -34 -16 -63c-41 -124 -83 -247 -124 -370h285z" />
    <glyph glyph-name="product" unicode="&#x220f;" horiz-adv-x="802" 
d="M729 -230h-175v781h-308v-781h-174v930h657v-930z" />
    <glyph glyph-name="summation" unicode="&#x2211;" horiz-adv-x="700" 
d="M684 -230h-628v95l296 375c-94 119 -187 240 -281 359v101h593v-137h-369c82 -107 162 -213 244 -319l-259 -337h404v-137z" />
    <glyph glyph-name="minus" unicode="&#x2212;" horiz-adv-x="695" 
d="M643 228h-591v136h591v-136z" />
    <glyph glyph-name="uni2215" unicode="&#x2215;" horiz-adv-x="130" 
d="M424 727l-573 -878h-141l573 878h141z" />
    <glyph glyph-name="uni2219" unicode="&#x2219;" horiz-adv-x="281" 
d="M235 316c0 -72 -36 -102 -104 -102c-48 0 -84 20 -84 67c0 70 35 102 105 102c45 0 83 -19 83 -67z" />
    <glyph glyph-name="radical" unicode="&#x221a;" horiz-adv-x="600" 
d="M586 729l-216 -741h-120l-129 291l-61 -39c-15 27 -31 52 -46 79l174 111c41 -95 81 -188 121 -283l168 582h109z" />
    <glyph glyph-name="infinity" unicode="&#x221e;" horiz-adv-x="881" 
d="M817 294c0 -117 -84 -195 -196 -195c-76 0 -148 37 -194 105h-2c-42 -56 -112 -105 -195 -105c-109 0 -198 71 -198 192c0 122 92 191 196 191c82 0 150 -42 196 -105h2c34 48 101 105 193 105c116 0 198 -78 198 -188zM692 292c0 42 -27 79 -85 79
c-47 0 -86 -29 -120 -80c30 -47 71 -82 123 -82c54 0 82 40 82 83zM361 291c-31 44 -72 81 -122 81c-49 0 -83 -35 -83 -81s34 -82 86 -82c47 0 89 36 119 82z" />
    <glyph glyph-name="integral" unicode="&#x222b;" horiz-adv-x="537" 
d="M499 730l-34 -117c-9 4 -28 11 -48 11c-37 0 -64 -24 -64 -78v-561c0 -138 -67 -225 -207 -225c-36 0 -85 8 -109 19l32 119c11 -6 29 -10 47 -10c40 0 65 26 65 77v559c0 140 65 227 206 227c45 0 92 -10 112 -21z" />
    <glyph glyph-name="approxequal" unicode="&#x2248;" horiz-adv-x="695" 
d="M643 149c-51 -40 -106 -80 -174 -80c-94 0 -179 77 -238 77c-61 0 -134 -45 -179 -83v146c50 42 113 81 181 81c91 0 172 -77 235 -77c73 0 123 36 175 82v-146zM642 374c-51 -40 -106 -80 -174 -80c-94 0 -179 77 -238 77c-61 0 -133 -45 -178 -83v146
c50 42 112 81 180 81c91 0 172 -77 235 -77c73 0 123 36 175 82v-146z" />
    <glyph glyph-name="notequal" unicode="&#x2260;" horiz-adv-x="695" 
d="M643 104h-318l-55 -104h-152l55 104h-121v136h194l51 94h-245v136h318l62 116h151l-62 -116h122v-136h-195l-50 -94h245v-136z" />
    <glyph glyph-name="lessequal" unicode="&#x2264;" horiz-adv-x="695" 
d="M643 0h-591v136h591v-136zM643 196l-591 186v136l591 209v-136l-413 -141l413 -118v-136z" />
    <glyph glyph-name="greaterequal" unicode="&#x2265;" horiz-adv-x="695" 
d="M644 382l-591 -186v136l413 118l-413 141v136l591 -209v-136zM644 0h-591v136h591v-136z" />
    <glyph glyph-name="lozenge" unicode="&#x25ca;" horiz-adv-x="631" 
d="M353 700l223 -350l-223 -350h-76l-223 349l223 351h76zM315 127l140 223l-140 223c-46 -75 -94 -149 -140 -223c46 -75 93 -149 140 -223z" />
    <glyph glyph-name="uniF8FF" unicode="&#xf8ff;" horiz-adv-x="500" 
d="M-55 0l134 665h475l-135 -665h-474zM146 618l112 -243l211 243h-323zM109 575l-99 -484c0 -1 211 242 211 242zM489 575l-211 -242l112 -243zM353 48l-112 242l-211 -242h323z" />
    <glyph glyph-name="zero.superior" unicode="&#x2070;" 
d="M484 580c0 -148 -73 -292 -247 -292c-129 0 -184 76 -184 165c0 143 75 289 252 289c131 0 179 -79 179 -162zM250 404c67 0 86 109 86 163c0 38 -16 59 -47 59c-65 0 -87 -111 -87 -167c0 -37 18 -55 48 -55z" />
    <glyph glyph-name="four.superior" unicode="&#x2074;" 
d="M442 362h-55l-16 -76h-139l16 76h-216l22 111l257 258h151l-54 -265h55zM274 460l26 124l-120 -124h94z" />
    <glyph glyph-name="five.superior" unicode="&#x2075;" 
d="M442 462c0 -114 -93 -174 -209 -174c-76 0 -144 19 -185 71l104 73c24 -23 54 -33 85 -33c36 0 64 15 64 48c0 25 -19 39 -57 39c-24 0 -51 -6 -77 -17h-75l76 265h310l-23 -110h-200l-14 -47c11 2 32 5 59 5c85 0 142 -40 142 -120z" />
    <glyph glyph-name="six.superior" unicode="&#x2076;" 
d="M451 463c0 -103 -81 -175 -207 -175s-185 78 -185 170c0 155 102 284 270 284c59 0 109 -11 157 -47l-70 -81c-32 21 -67 29 -97 29c-48 0 -87 -17 -106 -76c30 14 64 19 100 19c88 0 138 -47 138 -123zM249 398c34 0 65 18 65 56c0 26 -18 36 -47 36
c-28 0 -51 -6 -71 -14c-2 -9 -3 -17 -3 -24c0 -38 25 -54 56 -54z" />
    <glyph glyph-name="seven.superior" unicode="&#x2077;" 
d="M478 647l-256 -359h-143l251 344h-104l-14 -69h-116l35 171h365z" />
    <glyph glyph-name="eight.superior" unicode="&#x2078;" 
d="M445 434c0 -103 -97 -146 -215 -146c-116 0 -171 50 -171 115c0 60 35 99 88 125c-20 13 -41 42 -41 80c0 96 107 134 205 134c115 0 163 -40 163 -101c0 -52 -28 -88 -80 -113c37 -24 51 -58 51 -94zM281 568c22 9 58 26 58 56c0 18 -11 30 -44 30
c-30 0 -53 -12 -53 -41c0 -17 13 -31 39 -45zM245 383c33 0 61 12 61 41c0 15 -11 35 -46 51c-29 -8 -67 -25 -67 -58c0 -15 12 -34 52 -34z" />
    <glyph glyph-name="nine.superior" unicode="&#x2079;" 
d="M85 565c0 103 88 177 214 177s177 -68 177 -167c0 -155 -92 -287 -260 -287c-59 0 -119 11 -167 47l70 81c32 -21 67 -29 97 -29c48 0 93 20 106 76c-30 -14 -64 -19 -100 -19c-88 0 -137 45 -137 121zM286 632c-34 0 -65 -18 -65 -56c0 -26 18 -36 47 -36
c28 0 51 6 71 14c2 9 3 17 3 24c0 38 -25 54 -56 54z" />
    <glyph glyph-name="zero.denominator" unicode="&#xe10a;" 
d="M424 134c0 -148 -73 -292 -247 -292c-129 0 -184 76 -184 165c0 143 75 289 252 289c131 0 179 -79 179 -162zM190 -42c67 0 86 109 86 163c0 38 -16 59 -47 59c-65 0 -87 -111 -87 -167c0 -37 18 -55 48 -55z" />
    <glyph glyph-name="one.denominator" unicode="&#xe10b;" 
d="M338 -150h-320l24 116h95l32 157c-34 -19 -78 -27 -113 -31l23 113c73 19 121 44 164 91h103l-67 -330h83z" />
    <glyph glyph-name="two.denominator" unicode="&#xe10c;" 
d="M369 -150h-408l19 95c69 38 96 56 148 88c59 37 131 74 131 120c0 16 -12 27 -40 27c-38 0 -71 -17 -119 -51l-74 84c53 43 128 83 229 83c96 0 166 -36 166 -112c0 -105 -95 -164 -196 -218h168z" />
    <glyph glyph-name="three.denominator" unicode="&#xe10d;" 
d="M383 22c0 -117 -98 -182 -217 -182c-53 0 -122 11 -167 89l105 59c11 -18 33 -37 65 -37c33 0 61 18 61 54c0 19 -11 40 -45 40c-20 0 -35 -3 -49 -7l11 53l99 85h-164l23 110h318l-18 -89l-86 -83c46 -14 64 -53 64 -92z" />
    <glyph glyph-name="four.denominator" unicode="&#xe10e;" 
d="M382 -75h-55l-16 -76h-139l16 76h-216l22 111l257 258h151l-54 -265h55zM214 23l26 124l-120 -124h94z" />
    <glyph glyph-name="five.denominator" unicode="&#xe10f;" 
d="M382 15c0 -114 -93 -174 -209 -174c-76 0 -144 19 -185 71l104 73c24 -23 54 -33 85 -33c36 0 64 15 64 48c0 25 -19 39 -57 39c-24 0 -51 -6 -77 -17h-75l76 265h310l-23 -110h-200l-14 -47c11 2 32 5 59 5c85 0 142 -40 142 -120z" />
    <glyph glyph-name="six.denominator" unicode="&#xe110;" 
d="M392 16c0 -103 -81 -175 -207 -175s-185 78 -185 170c0 155 102 284 270 284c59 0 109 -11 157 -47l-70 -81c-32 21 -67 29 -97 29c-48 0 -87 -17 -106 -76c30 14 64 19 100 19c88 0 138 -47 138 -123zM190 -49c34 0 65 18 65 56c0 26 -18 36 -47 36
c-28 0 -51 -6 -71 -14c-2 -9 -3 -17 -3 -24c0 -38 25 -54 56 -54z" />
    <glyph glyph-name="seven.denominator" unicode="&#xe111;" 
d="M418 199l-256 -359h-143l251 344h-104l-14 -69h-116l35 171h365z" />
    <glyph glyph-name="eight.denominator" unicode="&#xe112;" 
d="M387 -13c0 -103 -97 -146 -215 -146c-116 0 -171 50 -171 115c0 60 35 99 88 125c-20 13 -41 42 -41 80c0 96 107 134 205 134c115 0 163 -40 163 -101c0 -52 -28 -88 -80 -113c37 -24 51 -58 51 -94zM223 121c22 9 58 26 58 56c0 18 -11 30 -44 30
c-30 0 -53 -12 -53 -41c0 -17 13 -31 39 -45zM187 -64c33 0 61 12 61 41c0 15 -11 35 -46 51c-29 -8 -67 -25 -67 -58c0 -15 12 -34 52 -34z" />
    <glyph glyph-name="nine.denominator" unicode="&#xe113;" 
d="M24 118c0 103 88 177 214 177s177 -68 177 -167c0 -155 -92 -287 -260 -287c-59 0 -119 11 -167 47l70 81c32 -21 67 -29 97 -29c48 0 93 20 106 76c-30 -14 -64 -19 -100 -19c-88 0 -137 45 -137 121zM225 185c-34 0 -65 -18 -65 -56c0 -26 18 -36 47 -36
c28 0 51 6 71 14c2 9 3 17 3 24c0 38 -25 54 -56 54z" />
    <glyph glyph-name="zero.numerator" unicode="&#xe11e;" 
d="M484 580c0 -148 -73 -292 -247 -292c-129 0 -184 76 -184 165c0 143 75 289 252 289c131 0 179 -79 179 -162zM250 404c67 0 86 109 86 163c0 38 -16 59 -47 59c-65 0 -87 -111 -87 -167c0 -37 18 -55 48 -55z" />
    <glyph glyph-name="one.numerator" unicode="&#xe11f;" 
d="M399 296h-320l24 116h95l32 157c-34 -19 -78 -27 -113 -31l23 113c73 19 121 44 164 91h103l-67 -330h83z" />
    <glyph glyph-name="two.numerator" unicode="&#xe120;" 
d="M431 296h-408l19 95c69 38 96 56 148 88c59 37 131 74 131 120c0 16 -12 27 -40 27c-38 0 -71 -17 -119 -51l-74 84c53 43 128 83 229 83c96 0 166 -36 166 -112c0 -105 -95 -164 -196 -218h168z" />
    <glyph glyph-name="three.numerator" unicode="&#xe121;" 
d="M443 470c0 -117 -98 -182 -217 -182c-53 0 -122 11 -167 89l105 59c11 -18 33 -37 65 -37c33 0 61 18 61 54c0 19 -11 40 -45 40c-20 0 -35 -3 -49 -7l11 53l99 85h-164l23 110h318l-18 -89l-86 -83c46 -14 64 -53 64 -92z" />
    <glyph glyph-name="four.numerator" unicode="&#xe122;" 
d="M442 362h-55l-16 -76h-139l16 76h-216l22 111l257 258h151l-54 -265h55zM274 460l26 124l-120 -124h94z" />
    <glyph glyph-name="five.numerator" unicode="&#xe123;" 
d="M442 462c0 -114 -93 -174 -209 -174c-76 0 -144 19 -185 71l104 73c24 -23 54 -33 85 -33c36 0 64 15 64 48c0 25 -19 39 -57 39c-24 0 -51 -6 -77 -17h-75l76 265h310l-23 -110h-200l-14 -47c11 2 32 5 59 5c85 0 142 -40 142 -120z" />
    <glyph glyph-name="six.numerator" unicode="&#xe124;" 
d="M451 463c0 -103 -81 -175 -207 -175s-185 78 -185 170c0 155 102 284 270 284c59 0 109 -11 157 -47l-70 -81c-32 21 -67 29 -97 29c-48 0 -87 -17 -106 -76c30 14 64 19 100 19c88 0 138 -47 138 -123zM249 398c34 0 65 18 65 56c0 26 -18 36 -47 36
c-28 0 -51 -6 -71 -14c-2 -9 -3 -17 -3 -24c0 -38 25 -54 56 -54z" />
    <glyph glyph-name="seven.numerator" unicode="&#xe125;" 
d="M478 647l-256 -359h-143l251 344h-104l-14 -69h-116l35 171h365z" />
    <glyph glyph-name="eight.numerator" unicode="&#xe126;" 
d="M445 434c0 -103 -97 -146 -215 -146c-116 0 -171 50 -171 115c0 60 35 99 88 125c-20 13 -41 42 -41 80c0 96 107 134 205 134c115 0 163 -40 163 -101c0 -52 -28 -88 -80 -113c37 -24 51 -58 51 -94zM281 568c22 9 58 26 58 56c0 18 -11 30 -44 30
c-30 0 -53 -12 -53 -41c0 -17 13 -31 39 -45zM245 383c33 0 61 12 61 41c0 15 -11 35 -46 51c-29 -8 -67 -25 -67 -58c0 -15 12 -34 52 -34z" />
    <glyph glyph-name="nine.numerator" unicode="&#xe127;" 
d="M85 565c0 103 88 177 214 177s177 -68 177 -167c0 -155 -92 -287 -260 -287c-59 0 -119 11 -167 47l70 81c32 -21 67 -29 97 -29c48 0 93 20 106 76c-30 -14 -64 -19 -100 -19c-88 0 -137 45 -137 121zM286 632c-34 0 -65 -18 -65 -56c0 -26 18 -36 47 -36
c28 0 51 6 71 14c2 9 3 17 3 24c0 38 -25 54 -56 54z" />
    <glyph glyph-name="zero.inferior" unicode="&#x2080;" 
d="M422 167c0 -148 -73 -292 -247 -292c-129 0 -184 76 -184 165c0 143 75 289 252 289c131 0 179 -79 179 -162zM188 -9c67 0 86 109 86 163c0 38 -16 59 -47 59c-65 0 -87 -111 -87 -167c0 -37 18 -55 48 -55z" />
    <glyph glyph-name="one.inferior" unicode="&#x2081;" 
d="M339 -116h-320l24 116h95l32 157c-34 -19 -78 -27 -113 -31l23 113c73 19 121 44 164 91h103l-67 -330h83z" />
    <glyph glyph-name="two.inferior" unicode="&#x2082;" 
d="M369 -118h-408l19 95c69 38 96 56 148 88c59 37 131 74 131 120c0 16 -12 27 -40 27c-38 0 -71 -17 -119 -51l-74 84c53 43 128 83 229 83c96 0 166 -36 166 -112c0 -105 -95 -164 -196 -218h168z" />
    <glyph glyph-name="three.inferior" unicode="&#x2083;" 
d="M383 57c0 -117 -98 -182 -217 -182c-53 0 -122 11 -167 89l105 59c11 -18 33 -37 65 -37c33 0 61 18 61 54c0 19 -11 40 -45 40c-20 0 -35 -3 -49 -7l11 53l99 85h-164l23 110h318l-18 -89l-86 -83c46 -14 64 -53 64 -92z" />
    <glyph glyph-name="four.inferior" unicode="&#x2084;" 
d="M383 -49h-55l-16 -76h-139l16 76h-216l22 111l257 258h151l-54 -265h55zM215 49l26 124l-120 -124h94z" />
    <glyph glyph-name="five.inferior" unicode="&#x2085;" 
d="M381 49c0 -114 -93 -174 -209 -174c-76 0 -144 19 -185 71l104 73c24 -23 54 -33 85 -33c36 0 64 15 64 48c0 25 -19 39 -57 39c-24 0 -51 -6 -77 -17h-75l76 265h310l-23 -110h-200l-14 -47c11 2 32 5 59 5c85 0 142 -40 142 -120z" />
    <glyph glyph-name="six.inferior" unicode="&#x2086;" 
d="M388 50c0 -103 -81 -175 -207 -175s-185 78 -185 170c0 155 102 284 270 284c59 0 109 -11 157 -47l-70 -81c-32 21 -67 29 -97 29c-48 0 -87 -17 -106 -76c30 14 64 19 100 19c88 0 138 -47 138 -123zM186 -15c34 0 65 18 65 56c0 26 -18 36 -47 36
c-28 0 -51 -6 -71 -14c-2 -9 -3 -17 -3 -24c0 -38 25 -54 56 -54z" />
    <glyph glyph-name="seven.inferior" unicode="&#x2087;" 
d="M418 234l-256 -359h-143l251 344h-104l-14 -69h-116l35 171h365z" />
    <glyph glyph-name="eight.inferior" unicode="&#x2088;" 
d="M388 21c0 -103 -97 -146 -215 -146c-116 0 -171 50 -171 115c0 60 35 99 88 125c-20 13 -41 42 -41 80c0 96 107 134 205 134c115 0 163 -40 163 -101c0 -52 -28 -88 -80 -113c37 -24 51 -58 51 -94zM224 155c22 9 58 26 58 56c0 18 -11 30 -44 30c-30 0 -53 -12 -53 -41
c0 -17 13 -31 39 -45zM188 -30c33 0 61 12 61 41c0 15 -11 35 -46 51c-29 -8 -67 -25 -67 -58c0 -15 12 -34 52 -34z" />
    <glyph glyph-name="nine.inferior" unicode="&#x2089;" 
d="M18 152c0 103 88 177 214 177s177 -68 177 -167c0 -155 -92 -287 -260 -287c-59 0 -119 11 -167 47l70 81c32 -21 67 -29 97 -29c48 0 93 20 106 76c-30 -14 -64 -19 -100 -19c-88 0 -137 45 -137 121zM219 219c-34 0 -65 -18 -65 -56c0 -26 18 -36 47 -36
c28 0 51 6 71 14c2 9 3 17 3 24c0 38 -25 54 -56 54z" />
    <glyph glyph-name="AEacute" unicode="&#x1fc;" horiz-adv-x="984" 
d="M857 0h-470l28 139h-198l-76 -139h-199l419 727h643l-30 -148h-290l-27 -133h258l-29 -144h-258l-31 -154h290zM443 277l61 302h-49l-166 -302h154zM905 956l-196 -176h-122l153 176h165z" />
    <glyph glyph-name="I.alt" horiz-adv-x="313" 
d="M179 0h-179l146 727h180z" />
    <glyph glyph-name="IJ.alt" horiz-adv-x="760" 
d="M179 0h-179l146 727h180zM634 42c-36 -178 -146 -235 -294 -235c-70 0 -142 18 -180 33l74 136c27 -12 62 -25 114 -25c70 0 97 46 115 136l130 640h180z" />
    <glyph glyph-name="Iacute.alt" horiz-adv-x="313" 
d="M179 0h-179l146 727h180zM476 957l-196 -176h-122l153 176h165z" />
    <glyph glyph-name="Ibreve.alt" horiz-adv-x="313" 
d="M179 0h-179l146 727h180zM472 918c-31 -66 -95 -138 -226 -138c-129 0 -164 72 -167 138h96c7 -25 36 -46 84 -46c55 0 92 21 111 46h102z" />
    <glyph glyph-name="Icircumflex.alt" horiz-adv-x="313" 
d="M179 0h-179l146 727h180zM443 780h-122l-66 85l-98 -85h-120l172 176h131z" />
    <glyph glyph-name="Idieresis.alt" horiz-adv-x="313" 
d="M179 0h-179l146 727h180zM207 865c0 -53 -34 -85 -90 -85c-36 0 -70 20 -70 59c0 57 34 88 89 88c40 0 71 -21 71 -62zM447 865c0 -53 -34 -85 -90 -85c-36 0 -70 20 -70 59c0 57 34 88 89 88c40 0 71 -21 71 -62z" />
    <glyph glyph-name="Idotaccent.alt" horiz-adv-x="313" 
d="M179 0h-179l146 727h180zM334 873c0 -54 -35 -85 -91 -85c-35 0 -71 21 -71 60c0 57 34 87 90 87c40 0 72 -21 72 -62z" />
    <glyph glyph-name="Igrave.alt" horiz-adv-x="313" 
d="M179 0h-179l146 727h180zM322 780h-109l-145 176h162z" />
    <glyph glyph-name="Imacron.alt" horiz-adv-x="313" 
d="M179 0h-179l146 727h180zM398 790h-333l21 103h333z" />
    <glyph glyph-name="Iogonek.alt" horiz-adv-x="313" 
d="M265 -156c-52 -23 -97 -37 -150 -37c-77 0 -113 33 -113 87c0 37 16 73 36 106h-38l146 727h180l-147 -727h-28c-12 -21 -21 -45 -21 -70c0 -19 11 -31 34 -31c24 0 45 7 75 22z" />
    <glyph glyph-name="Itilde.alt" horiz-adv-x="313" 
d="M179 0h-179l146 727h180zM455 914c-21 -73 -65 -134 -159 -134c-67 0 -96 30 -127 30c-20 0 -43 -15 -46 -30h-99c18 71 67 134 157 134c64 0 104 -30 128 -30s44 17 47 30h99z" />
    <glyph glyph-name="J.alt" horiz-adv-x="420" 
d="M294 42c-36 -178 -146 -235 -294 -235c-70 0 -142 18 -180 33l74 136c27 -12 62 -25 114 -25c70 0 97 46 115 136l130 640h180z" />
    <glyph glyph-name="Jcircumflex.alt" horiz-adv-x="420" 
d="M294 42c-36 -178 -146 -235 -294 -235c-70 0 -142 18 -180 33l74 136c27 -12 62 -25 114 -25c70 0 97 46 115 136l130 640h180zM542 781h-122l-66 85l-98 -85h-120l172 176h131z" />
    <glyph glyph-name="Oslashacute" unicode="&#x1fe;" horiz-adv-x="784" 
d="M620 956l-196 -176h-122l153 176h165zM442 742c81 0 145 -19 193 -50l67 72h146l-137 -147c32 -50 47 -112 47 -177c0 -237 -136 -455 -414 -455c-76 0 -136 16 -183 42l-78 -83h-145l143 154c-38 52 -55 118 -55 189c0 237 136 455 416 455zM429 598
c-144 0 -213 -174 -213 -305c0 -16 1 -32 4 -47l299 322c-21 18 -51 30 -90 30zM568 434c0 10 -1 19 -2 28l-291 -312c21 -14 47 -21 80 -21c144 0 213 174 213 305z" />
    <glyph glyph-name="a.superior" unicode="&#xf6e9;" horiz-adv-x="441" 
d="M404 299h-119l-1 33c-38 -31 -70 -44 -108 -44c-90 0 -142 52 -142 153c0 127 78 253 227 253c32 0 73 -7 93 -15l43 9h86zM290 428l31 152c-11 7 -33 14 -54 14c-62 0 -86 -93 -86 -148c0 -40 13 -57 44 -57c20 0 47 18 65 39z" />
    <glyph glyph-name="aeacute" unicode="&#x1fd;" horiz-adv-x="905" 
d="M719 766l-196 -176h-122l153 176h165zM447 -8h-93l-3 52c-45 -39 -93 -59 -152 -59c-111 0 -174 88 -174 202c0 171 90 355 291 355c64 0 111 -14 134 -25l48 25h59l-13 -65c38 35 107 65 169 65c110 0 180 -61 180 -148c0 -152 -165 -190 -363 -194c-1 -5 -1 -8 -1 -12
c0 -53 45 -75 99 -75c43 0 92 23 114 36l59 -114c-47 -25 -118 -50 -189 -50c-65 0 -122 28 -151 75zM362 168l47 238c-16 9 -36 21 -75 21c-101 0 -140 -142 -140 -223c0 -68 20 -104 65 -104c35 0 79 39 103 68zM548 308c150 3 187 35 187 77c0 27 -23 42 -53 42
c-51 0 -110 -33 -134 -119z" />
    <glyph glyph-name="b.superior" unicode="&#xf6ea;" horiz-adv-x="468" 
d="M456 548c0 -151 -83 -260 -224 -260c-36 0 -67 7 -94 21l-77 -15h-52l106 527h141l-31 -152c32 17 63 25 96 25c90 0 135 -60 135 -146zM223 390c63 0 86 88 86 146c0 40 -17 57 -47 57c-23 0 -43 -8 -56 -17l-35 -173c10 -6 27 -13 52 -13z" />
    <glyph glyph-name="d.superior" unicode="&#xf6eb;" horiz-adv-x="468" 
d="M395 299h-119l-1 33c-38 -31 -70 -44 -108 -44c-90 0 -142 52 -142 153c0 127 78 253 227 253c32 0 59 -7 79 -15l29 142h141zM281 428l31 152c-11 7 -33 14 -54 14c-62 0 -86 -93 -86 -148c0 -40 13 -57 44 -57c19 0 47 18 65 39z" />
    <glyph glyph-name="dotlessi.alt" horiz-adv-x="272" 
d="M162 0h-162l107 527h162z" />
    <glyph glyph-name="e.superior" unicode="&#xf6ec;" horiz-adv-x="442" 
d="M445 580c0 -86 -75 -124 -185 -133l-83 -7c0 -46 35 -49 63 -49c30 0 65 11 99 32l45 -87c-42 -23 -94 -48 -175 -48c-104 0 -170 49 -170 158c0 137 97 248 246 248c106 0 160 -44 160 -114zM272 601c-34 0 -73 -25 -87 -79l52 6c46 5 75 16 75 45c0 18 -15 28 -40 28z
" />
    <glyph glyph-name="eight.fitted" unicode="&#xe09e;" horiz-adv-x="676" 
d="M589 218c0 -168 -142 -233 -309 -233s-260 72 -260 179c0 108 68 178 184 223c-48 38 -90 80 -90 147c0 146 142 208 293 208c142 0 233 -64 233 -160c0 -95 -55 -151 -155 -199c66 -49 104 -96 104 -165zM358 459c42 18 110 50 110 104c0 24 -16 55 -80 55
c-42 0 -105 -18 -105 -74c0 -29 25 -59 75 -85zM291 111c59 0 122 23 122 90c0 30 -19 71 -87 109c-55 -18 -133 -59 -133 -129c0 -33 26 -70 98 -70z" />
    <glyph glyph-name="eight.tab" horiz-adv-x="675" 
d="M584 218c0 -168 -142 -233 -309 -233s-260 72 -260 179c0 108 68 178 184 223c-48 38 -90 80 -90 147c0 146 142 208 293 208c142 0 233 -64 233 -160c0 -95 -55 -151 -155 -199c66 -49 104 -96 104 -165zM353 459c42 18 110 50 110 104c0 24 -16 55 -80 55
c-42 0 -105 -18 -105 -74c0 -29 25 -59 75 -85zM286 111c59 0 122 23 122 90c0 30 -19 71 -87 109c-55 -18 -133 -59 -133 -129c0 -33 26 -70 98 -70z" />
    <glyph glyph-name="eight.taboldstyle" unicode="&#xe108;" horiz-adv-x="675" 
d="M590 218c0 -168 -142 -233 -309 -233s-260 72 -260 179c0 108 68 178 184 223c-48 38 -90 80 -90 147c0 146 142 208 293 208c142 0 233 -64 233 -160c0 -95 -55 -151 -155 -199c66 -49 104 -96 104 -165zM359 459c42 18 110 50 110 104c0 24 -16 55 -80 55
c-42 0 -105 -18 -105 -74c0 -29 25 -59 75 -85zM292 111c59 0 122 23 122 90c0 30 -19 71 -87 109c-55 -18 -133 -59 -133 -129c0 -33 26 -70 98 -70z" />
    <glyph glyph-name="f_f_l.alt" horiz-adv-x="993" 
d="M637 409l-83 -412c-18 -89 -46 -190 -223 -190c-46 0 -86 8 -123 21l46 121c19 -8 45 -16 71 -16c38 0 57 16 67 64l83 412h-176l-83 -412c-18 -89 -46 -190 -223 -190c-46 0 -86 8 -123 21l46 121c19 -8 45 -16 71 -16c38 0 57 16 67 64l83 412h-71l24 118h71l7 35
c23 116 78 180 228 180c46 0 94 -9 130 -20l-46 -121c-19 8 -51 15 -77 15c-38 0 -65 -14 -75 -64l-5 -25h176l7 35c23 116 78 180 228 180c45 0 106 -8 161 -33l128 59l-157 -768h-161l122 601c-20 9 -50 17 -85 17c-38 0 -66 -16 -76 -66l-5 -25h107l-24 -118h-107z" />
    <glyph glyph-name="f_l.alt" horiz-adv-x="655" 
d="M528 0h-161l122 601c-20 9 -50 17 -85 17c-38 0 -66 -16 -76 -66l-5 -25h107l-24 -118h-107l-83 -412c-18 -89 -46 -190 -223 -190c-46 0 -86 8 -123 21l46 121c19 -8 45 -16 71 -16c38 0 57 16 67 64l83 412h-71l24 118h71l7 35c23 116 78 180 228 180
c45 0 106 -8 161 -33l128 59z" />
    <glyph glyph-name="five.fitted" unicode="&#xe09b;" horiz-adv-x="625" 
d="M567 263c0 -188 -138 -278 -329 -278c-110 0 -195 42 -251 118l119 98c38 -52 84 -80 143 -80c88 0 142 50 142 127c0 58 -48 94 -122 94c-49 0 -82 -8 -113 -28h-91l125 413h435l-28 -136h-302l-40 -131c29 9 60 11 88 11c127 0 224 -71 224 -208z" />
    <glyph glyph-name="five.tab" horiz-adv-x="675" 
d="M571 263c0 -188 -138 -278 -329 -278c-110 0 -195 42 -251 118l119 98c38 -52 84 -80 143 -80c88 0 142 50 142 127c0 58 -48 94 -122 94c-49 0 -82 -8 -113 -28h-91l125 413h435l-28 -136h-302l-40 -131c29 9 60 11 88 11c127 0 224 -71 224 -208z" />
    <glyph glyph-name="five.taboldstyle" unicode="&#xe105;" horiz-adv-x="675" 
d="M563 118c0 -188 -130 -284 -330 -284c-109 0 -194 42 -250 118l119 98c38 -52 84 -80 143 -80c88 0 142 53 142 133c0 59 -44 98 -122 98c-49 0 -82 -8 -113 -28h-92l128 418h434l-28 -136h-302l-41 -136c29 9 59 11 87 11c140 0 225 -82 225 -212z" />
    <glyph glyph-name="fiveeighths" unicode="&#x215d;" horiz-adv-x="1076" 
d="M444 462c0 -114 -93 -174 -209 -174c-76 0 -144 19 -185 71l104 73c24 -23 54 -33 85 -33c36 0 64 15 64 48c0 25 -19 39 -57 39c-24 0 -51 -6 -77 -17h-75l76 265h310l-23 -110h-200l-14 -47c11 2 32 5 59 5c85 0 142 -40 142 -120zM996 -13c0 -103 -97 -146 -215 -146
c-116 0 -171 50 -171 115c0 60 35 99 88 125c-20 13 -41 42 -41 80c0 96 107 134 205 134c115 0 163 -40 163 -101c0 -52 -28 -88 -80 -113c37 -24 51 -58 51 -94zM832 121c22 9 58 26 58 56c0 18 -11 30 -44 30c-30 0 -53 -12 -53 -41c0 -17 13 -31 39 -45zM796 -64
c33 0 61 12 61 41c0 15 -11 35 -46 51c-29 -8 -67 -25 -67 -58c0 -15 12 -34 52 -34zM907 727l-573 -878h-141l573 878h141z" />
    <glyph glyph-name="four.fitted" unicode="&#xe09a;" horiz-adv-x="675" 
d="M587 143h-86l-29 -143h-164l29 143h-338l28 142l448 456h148l-94 -462h86zM365 279l43 213l-213 -213h170z" />
    <glyph glyph-name="four.tab" horiz-adv-x="675" 
d="M587 143h-86l-29 -143h-164l29 143h-338l28 142l448 456h148l-94 -462h86zM365 279l43 213l-213 -213h170z" />
    <glyph glyph-name="four.taboldstyle" unicode="&#xe104;" horiz-adv-x="675" 
d="M576 0h-86l-34 -166h-169l34 166h-346l28 142l448 456h160l-94 -462h86zM348 136l50 227l-213 -227h163z" />
    <glyph glyph-name="fraction.tab" horiz-adv-x="247" 
d="M465 727l-507 -742h-155l507 742h155z" />
    <glyph glyph-name="g.alt" horiz-adv-x="589" 
d="M584 527l-101 -500c-33 -162 -123 -220 -275 -220c-69 0 -154 14 -212 42l55 116c41 -23 101 -41 156 -41c65 0 95 31 107 88l6 29c-46 -33 -86 -41 -132 -41c-111 0 -163 77 -163 194c0 187 108 348 292 348c35 0 89 -8 122 -29l76 14h69zM353 179l45 222
c-15 13 -43 26 -70 26c-96 0 -133 -147 -133 -229c0 -55 18 -83 59 -83c33 0 69 32 99 64z" />
    <glyph glyph-name="gbreve.alt" horiz-adv-x="589" 
d="M584 527l-101 -500c-33 -162 -123 -220 -275 -220c-69 0 -154 14 -212 42l55 116c41 -23 101 -41 156 -41c65 0 95 31 107 88l6 29c-46 -33 -86 -41 -132 -41c-111 0 -163 77 -163 194c0 187 108 348 292 348c35 0 89 -8 122 -29l76 14h69zM353 179l45 222
c-15 13 -43 26 -70 26c-96 0 -133 -147 -133 -229c0 -55 18 -83 59 -83c33 0 69 32 99 64zM573 747c-31 -66 -95 -138 -226 -138c-129 0 -164 72 -167 138h96c7 -25 36 -46 84 -46c55 0 92 21 111 46h102z" />
    <glyph glyph-name="gcircumflex.alt" horiz-adv-x="589" 
d="M584 527l-101 -500c-33 -162 -123 -220 -275 -220c-69 0 -154 14 -212 42l55 116c41 -23 101 -41 156 -41c65 0 95 31 107 88l6 29c-46 -33 -86 -41 -132 -41c-111 0 -163 77 -163 194c0 187 108 348 292 348c35 0 89 -8 122 -29l76 14h69zM353 179l45 222
c-15 13 -43 26 -70 26c-96 0 -133 -147 -133 -229c0 -55 18 -83 59 -83c33 0 69 32 99 64zM547 590h-122l-66 85l-98 -85h-120l172 176h131z" />
    <glyph glyph-name="gcommaaccent.alt" horiz-adv-x="589" 
d="M584 527l-101 -500c-33 -162 -123 -220 -275 -220c-69 0 -154 14 -212 42l55 116c41 -23 101 -41 156 -41c65 0 95 31 107 88l6 29c-46 -33 -86 -41 -132 -41c-111 0 -163 77 -163 194c0 187 108 348 292 348c35 0 89 -8 122 -29l76 14h69zM353 179l45 222
c-15 13 -43 26 -70 26c-96 0 -133 -147 -133 -229c0 -55 18 -83 59 -83c33 0 69 32 99 64zM269 649c0 40 24 81 59 112h88c-12 -13 -25 -35 -28 -52c33 -2 45 -24 45 -45c0 -50 -41 -77 -93 -77c-46 0 -71 26 -71 62z" />
    <glyph glyph-name="gdotaccent.alt" horiz-adv-x="589" 
d="M584 527l-101 -500c-33 -162 -123 -220 -275 -220c-69 0 -154 14 -212 42l55 116c41 -23 101 -41 156 -41c65 0 95 31 107 88l6 29c-46 -33 -86 -41 -132 -41c-111 0 -163 77 -163 194c0 187 108 348 292 348c35 0 89 -8 122 -29l76 14h69zM353 179l45 222
c-15 13 -43 26 -70 26c-96 0 -133 -147 -133 -229c0 -55 18 -83 59 -83c33 0 69 32 99 64zM431 680c0 -54 -35 -85 -91 -85c-35 0 -71 21 -71 60c0 57 34 87 90 87c40 0 72 -21 72 -62z" />
    <glyph glyph-name="h.superior" unicode="&#xf700;" horiz-adv-x="457" 
d="M389 296h-141l46 224c2 11 4 21 4 28c0 21 -15 26 -31 26c-24 0 -47 -12 -68 -25l-52 -253h-141l108 522h129l-36 -172c43 28 80 45 135 45c68 0 105 -29 105 -92c0 -14 -2 -29 -5 -46z" />
    <glyph glyph-name="i.alt" horiz-adv-x="272" 
d="M162 0h-161l106 527h162zM305 672c0 -69 -42 -94 -107 -94c-51 0 -86 21 -86 69c0 69 42 94 107 94c51 0 86 -20 86 -69z" />
    <glyph glyph-name="i.dot" horiz-adv-x="312" 
d="M192 0h-162l75 343c4 19 10 42 10 53c0 10 -3 14 -12 14s-27 -10 -50 -24l-45 87c75 47 132 69 189 69c69 0 87 -37 87 -74c0 -10 -4 -34 -8 -55zM329 672c0 -69 -42 -94 -107 -94c-51 0 -86 21 -86 69c0 69 42 94 107 94c51 0 86 -20 86 -69z" />
    <glyph glyph-name="i.superior" unicode="&#x2071;" horiz-adv-x="259" 
d="M197 296h-139l51 231c4 17 5 26 5 33c0 9 -3 12 -10 12c-8 0 -20 -6 -34 -13l-34 74c60 34 108 48 148 48c55 0 74 -26 74 -68c0 -15 -2 -32 -6 -51zM297 780c0 -51 -36 -69 -91 -69c-44 0 -74 15 -74 50c0 51 36 69 92 69c43 0 73 -15 73 -50z" />
    <glyph glyph-name="iacute.alt" horiz-adv-x="272" 
d="M162 0h-162l107 527h162zM434 766l-196 -176h-122l153 176h165z" />
    <glyph glyph-name="ibreve.alt" horiz-adv-x="272" 
d="M162 0h-162l107 527h162zM418 747c-31 -66 -95 -138 -226 -138c-129 0 -164 72 -167 138h96c7 -25 36 -46 84 -46c55 0 92 21 111 46h102z" />
    <glyph glyph-name="icircumflex.alt" horiz-adv-x="272" 
d="M162 0h-162l107 527h162zM405 590h-122l-66 85l-98 -85h-120l172 176h131z" />
    <glyph glyph-name="idieresis.alt" horiz-adv-x="272" 
d="M162 0h-162l107 527h162zM176 672c0 -53 -34 -85 -90 -85c-36 0 -70 20 -70 59c0 57 34 88 89 88c40 0 71 -21 71 -62zM416 672c0 -53 -34 -85 -90 -85c-36 0 -70 20 -70 59c0 57 34 88 89 88c40 0 71 -21 71 -62z" />
    <glyph glyph-name="igrave.alt" horiz-adv-x="272" 
d="M162 0h-162l107 527h162zM263 590h-109l-145 176h162z" />
    <glyph glyph-name="ij.alt" horiz-adv-x="595" 
d="M162 0h-161l106 527h162zM305 672c0 -69 -42 -94 -107 -94c-51 0 -86 21 -86 69c0 69 42 94 107 94c51 0 86 -20 86 -69zM487 9c-26 -130 -91 -202 -230 -202c-26 0 -77 4 -128 21l64 119c24 -9 49 -12 68 -12c37 0 54 21 65 76l105 516h162zM629 672
c0 -69 -42 -94 -107 -94c-51 0 -86 21 -86 69c0 69 42 94 107 94c51 0 86 -20 86 -69z" />
    <glyph glyph-name="imacron.alt" horiz-adv-x="272" 
d="M162 0h-162l107 527h162zM363 636h-333l21 103h333z" />
    <glyph glyph-name="iogonek.alt" horiz-adv-x="272" 
d="M252 -156c-52 -23 -97 -37 -150 -37c-77 0 -113 33 -113 87c0 37 16 73 36 106h-24l106 527h162l-107 -527h-24c-12 -21 -21 -45 -21 -70c0 -19 11 -31 34 -31c24 0 45 7 75 22zM305 672c0 -69 -42 -94 -107 -94c-51 0 -86 21 -86 69c0 69 42 94 107 94
c51 0 86 -20 86 -69z" />
    <glyph glyph-name="itilde.alt" horiz-adv-x="272" 
d="M162 0h-162l107 527h162zM416 745c-21 -73 -65 -134 -159 -134c-67 0 -96 30 -127 30c-20 0 -43 -15 -46 -30h-99c18 71 67 134 157 134c64 0 104 -30 128 -30s44 17 47 30h99z" />
    <glyph glyph-name="j.alt" horiz-adv-x="316" 
d="M208 9c-26 -130 -91 -202 -230 -202c-26 0 -77 4 -128 21l64 119c24 -9 49 -12 68 -12c37 0 54 21 65 76l105 516h162zM350 672c0 -69 -42 -94 -107 -94c-51 0 -86 21 -86 69c0 69 42 94 107 94c51 0 86 -20 86 -69z" />
    <glyph glyph-name="jcircumflex.alt" horiz-adv-x="316" 
d="M208 9c-26 -130 -91 -202 -230 -202c-26 0 -77 4 -128 21l64 119c24 -9 49 -12 68 -12c37 0 54 21 65 76l105 516h162zM440 590h-122l-66 85l-98 -85h-120l172 176h131z" />
    <glyph glyph-name="l.alt" horiz-adv-x="293" 
d="M166 0h-161l139 686l179 82z" />
    <glyph glyph-name="l.superior" unicode="&#xf6ee;" horiz-adv-x="270" 
d="M238 309c-34 -13 -83 -21 -109 -21c-83 0 -108 32 -108 82c0 15 2 33 6 51l75 369l153 64l-82 -405c-2 -11 -4 -23 -4 -31c0 -12 4 -17 16 -17c10 0 23 3 41 8z" />
    <glyph glyph-name="lacute.alt" horiz-adv-x="293" 
d="M166 0h-161l139 686l179 82zM491 956l-196 -176h-122l153 176h165z" />
    <glyph glyph-name="lcaron.alt" horiz-adv-x="410" 
d="M166 0h-161l139 686l179 82zM348 661c0 62 38 106 106 106c52 0 81 -34 81 -77c0 -86 -71 -171 -132 -239h-87c52 57 90 114 103 144c-55 0 -71 35 -71 66z" />
    <glyph glyph-name="lcommaaccent.alt" horiz-adv-x="293" 
d="M166 0h-161l139 686l179 82zM151 -86c0 -40 -24 -81 -59 -112h-88c12 13 25 35 28 52c-33 2 -45 24 -45 45c0 50 41 77 93 77c46 0 71 -26 71 -62z" />
    <glyph glyph-name="ldot.alt" horiz-adv-x="424" 
d="M166 0h-161l139 686l179 82zM434 342c0 -54 -35 -85 -91 -85c-35 0 -71 21 -71 60c0 57 34 87 90 87c40 0 72 -21 72 -62z" />
    <glyph glyph-name="logicalnot.tab" horiz-adv-x="695" 
d="M643 174h-135v230h-456v136h591v-366z" />
    <glyph glyph-name="lslash.alt" horiz-adv-x="272" 
d="M138 0h-161l50 247l-72 -49l27 132l72 50l62 306l179 82l-54 -264l89 60l-27 -134l-89 -59z" />
    <glyph glyph-name="m.superior" unicode="&#xf6ef;" horiz-adv-x="671" 
d="M612 296h-137l44 214c6 28 7 38 7 46c0 17 -12 22 -27 22c-18 0 -43 -10 -65 -25l-53 -257h-130l47 228c2 12 3 21 3 28c0 20 -9 26 -25 26c-23 0 -44 -10 -66 -25l-53 -257h-137l79 385h129l-8 -37c43 31 91 47 133 47c53 0 73 -25 80 -50c43 30 87 50 145 50
c65 0 92 -35 92 -88c0 -16 -4 -42 -9 -65z" />
    <glyph glyph-name="n.superior" unicode="&#x207f;" horiz-adv-x="457" 
d="M403 296h-141l46 224c2 11 4 21 4 28c0 21 -15 26 -31 26c-24 0 -47 -12 -68 -25l-52 -253h-141l79 385h129l-7 -35c43 28 80 45 135 45c68 0 105 -29 105 -92c0 -14 -2 -29 -5 -46z" />
    <glyph glyph-name="nine.fitted" unicode="&#xe09f;" horiz-adv-x="645" 
d="M228 118c89 0 147 69 181 175c-50 -35 -102 -48 -161 -48c-117 0 -199 74 -199 209c0 163 112 288 299 288c185 0 266 -116 266 -268c0 -233 -124 -489 -401 -489c-88 0 -162 23 -214 70l85 117c33 -30 89 -54 144 -54zM312 381c44 0 95 16 119 27c8 28 12 65 12 87
c0 71 -32 111 -95 111c-78 0 -125 -60 -125 -129c0 -56 30 -96 89 -96z" />
    <glyph glyph-name="nine.tab" horiz-adv-x="675" 
d="M245 118c89 0 147 69 181 175c-50 -35 -102 -48 -161 -48c-117 0 -199 74 -199 209c0 163 112 288 299 288c185 0 266 -116 266 -268c0 -233 -124 -489 -401 -489c-88 0 -162 23 -214 70l85 117c33 -30 89 -54 144 -54zM329 381c44 0 95 16 119 27c8 28 12 65 12 87
c0 71 -32 111 -95 111c-78 0 -125 -60 -125 -129c0 -56 30 -96 89 -96z" />
    <glyph glyph-name="nine.taboldstyle" unicode="&#xe109;" horiz-adv-x="675" 
d="M50 313c0 168 112 293 300 293c193 0 265 -126 265 -267c0 -248 -124 -504 -401 -504c-88 0 -156 19 -214 70l85 117c33 -30 89 -54 144 -54c89 0 145 67 181 182c-50 -35 -102 -48 -161 -48c-117 0 -199 74 -199 211zM349 470c-78 0 -125 -60 -125 -134
c0 -58 30 -98 88 -98c45 0 96 16 120 27c8 28 12 66 12 90c0 75 -32 115 -95 115z" />
    <glyph glyph-name="o.superior" unicode="&#xf6f0;" horiz-adv-x="467" 
d="M461 537c0 -143 -89 -249 -246 -249c-137 0 -183 78 -183 152c0 144 85 254 250 254c135 0 179 -82 179 -157zM229 395c68 0 89 77 89 133c0 40 -21 60 -53 60c-68 0 -90 -75 -90 -130c0 -48 21 -63 54 -63z" />
    <glyph glyph-name="one.fitted" unicode="&#xf6dc;" horiz-adv-x="535" 
d="M413 0h-405l28 136h129l79 391c-46 -21 -112 -39 -152 -44l27 133c88 25 156 64 215 126h118l-123 -606h112z" />
    <glyph glyph-name="one.tab" horiz-adv-x="675" 
d="M491 0h-405l28 136h129l79 391c-46 -21 -112 -39 -152 -44l27 133c88 25 156 64 215 126h118l-123 -606h112z" />
    <glyph glyph-name="one.taboldstyle" unicode="&#xe101;" horiz-adv-x="675" 
d="M480 0h-405l27 136h129l51 247c-47 -21 -112 -39 -152 -44l27 133c88 25 156 64 214 126h118l-94 -462h112z" />
    <glyph glyph-name="oneeighth" unicode="&#x215b;" horiz-adv-x="1076" 
d="M373 296h-320l24 116h95l32 157c-34 -19 -78 -27 -113 -31l23 113c73 19 121 44 164 91h103l-67 -330h83zM1002 -13c0 -103 -97 -146 -215 -146c-116 0 -171 50 -171 115c0 60 35 99 88 125c-20 13 -41 42 -41 80c0 96 107 134 205 134c115 0 163 -40 163 -101
c0 -52 -28 -88 -80 -113c37 -24 51 -58 51 -94zM838 121c22 9 58 26 58 56c0 18 -11 30 -44 30c-30 0 -53 -12 -53 -41c0 -17 13 -31 39 -45zM802 -64c33 0 61 12 61 41c0 15 -11 35 -46 51c-29 -8 -67 -25 -67 -58c0 -15 12 -34 52 -34zM907 727l-573 -878h-141l573 878
h141z" />
    <glyph glyph-name="onethird" unicode="&#x2153;" horiz-adv-x="1076" 
d="M372 296h-320l24 116h95l32 157c-34 -19 -78 -27 -113 -31l23 113c73 19 121 44 164 91h103l-67 -330h83zM904 727l-573 -878h-141l573 878h141zM1001 22c0 -117 -98 -182 -217 -182c-53 0 -122 11 -167 89l105 59c11 -18 33 -37 65 -37c33 0 61 18 61 54
c0 19 -11 40 -45 40c-20 0 -35 -3 -49 -7l11 53l99 85h-164l23 110h318l-18 -89l-86 -83c46 -14 64 -53 64 -92z" />
    <glyph glyph-name="oslashacute" unicode="&#x1ff;" horiz-adv-x="595" 
d="M555 766l-196 -176h-122l153 176h165zM570 329c0 -174 -102 -344 -317 -344c-55 0 -99 12 -133 30l-48 -52h-95l90 97c-30 38 -42 85 -42 131c0 182 103 351 316 351c59 0 106 -13 141 -36l41 44h96l-86 -92c25 -36 37 -81 37 -129zM195 203v-6l183 197
c-13 13 -31 20 -53 20c-87 0 -130 -125 -130 -211zM272 113c78 0 126 112 128 202l-176 -189c12 -9 29 -13 48 -13z" />
    <glyph glyph-name="parenleft.inferior" unicode="&#x208d;" horiz-adv-x="351" 
d="M267 -102h-151c-38 58 -71 158 -71 242c0 151 78 317 206 424h161c-122 -98 -233 -251 -233 -419c0 -84 26 -164 88 -247z" />
    <glyph glyph-name="parenleft.superior" unicode="&#x207d;" horiz-adv-x="351" 
d="M283 187h-151c-38 58 -71 158 -71 242c0 151 78 317 206 424h161c-122 -98 -233 -251 -233 -419c0 -84 26 -164 88 -247z" />
    <glyph glyph-name="parenright.inferior" unicode="&#x208e;" horiz-adv-x="351" 
d="M107 -103h-165c120 97 232 250 232 418c0 82 -26 164 -98 248h158c48 -69 75 -151 75 -236c0 -157 -84 -325 -202 -430z" />
    <glyph glyph-name="parenright.superior" unicode="&#x207e;" horiz-adv-x="351" 
d="M128 187h-165c120 97 232 250 232 418c0 82 -26 164 -98 248h158c48 -69 75 -151 75 -236c0 -157 -84 -325 -202 -430z" />
    <glyph glyph-name="periodcentered.tab" horiz-adv-x="281" 
d="M236 385c0 -72 -36 -102 -104 -102c-48 0 -84 20 -84 67c0 70 35 102 105 102c45 0 83 -19 83 -67z" />
    <glyph glyph-name="r.superior" unicode="&#xf6f1;" horiz-adv-x="342" 
d="M390 675l-43 -128c-16 4 -31 6 -48 6c-35 0 -69 -14 -91 -30l-46 -227h-141l78 385h129l-9 -47c37 32 72 52 119 52c15 0 37 -3 52 -11z" />
    <glyph glyph-name="s.superior" unicode="&#xf6f2;" horiz-adv-x="416" 
d="M388 414c0 -98 -93 -126 -190 -126c-78 0 -141 21 -187 74l104 67c24 -30 62 -44 93 -44c23 0 38 4 38 21c0 22 -50 28 -99 48c-44 18 -85 47 -85 103c0 95 85 137 177 137c74 0 128 -28 161 -75l-86 -66c-15 25 -49 47 -87 47c-20 0 -29 -7 -29 -21c0 -17 33 -26 74 -42
c54 -22 116 -55 116 -123z" />
    <glyph glyph-name="seven.fitted" unicode="&#xe09d;" horiz-adv-x="625" 
d="M635 616l-408 -631h-188l409 605h-196l-20 -99h-148l48 236h526z" />
    <glyph glyph-name="seven.tab" horiz-adv-x="675" 
d="M646 616l-408 -631h-188l409 605h-196l-20 -99h-148l48 236h526z" />
    <glyph glyph-name="seven.taboldstyle" unicode="&#xe107;" horiz-adv-x="675" 
d="M636 480l-429 -646h-186l419 620h-196l-21 -99h-148l49 236h535z" />
    <glyph glyph-name="seveneighths" unicode="&#x215e;" horiz-adv-x="1076" 
d="M528 647l-256 -359h-143l251 344h-104l-14 -69h-116l35 171h365zM907 727l-573 -878h-141l573 878h141zM1016 -13c0 -103 -97 -146 -215 -146c-116 0 -171 50 -171 115c0 60 35 99 88 125c-20 13 -41 42 -41 80c0 96 107 134 205 134c115 0 163 -40 163 -101
c0 -52 -28 -88 -80 -113c37 -24 51 -58 51 -94zM852 121c22 9 58 26 58 56c0 18 -11 30 -44 30c-30 0 -53 -12 -53 -41c0 -17 13 -31 39 -45zM816 -64c33 0 61 12 61 41c0 15 -11 35 -46 51c-29 -8 -67 -25 -67 -58c0 -15 12 -34 52 -34z" />
    <glyph glyph-name="six.fitted" unicode="&#xe09c;" horiz-adv-x="645" 
d="M590 273c0 -168 -105 -288 -297 -288c-185 0 -268 112 -268 253c0 223 130 504 407 504c88 0 156 -23 208 -70l-108 -109c-33 30 -59 46 -114 46c-89 0 -152 -64 -188 -175c50 35 102 48 161 48c117 0 199 -83 199 -209zM291 121c81 0 125 53 125 134c0 58 -30 91 -88 91
c-45 0 -98 -16 -122 -27c-6 -32 -10 -59 -10 -83c0 -75 32 -115 95 -115z" />
    <glyph glyph-name="six.tab" horiz-adv-x="675" 
d="M604 273c0 -168 -105 -288 -297 -288c-185 0 -268 112 -268 253c0 223 130 504 407 504c88 0 156 -23 208 -70l-108 -109c-33 30 -59 46 -114 46c-89 0 -152 -64 -188 -175c50 35 102 48 161 48c117 0 199 -83 199 -209zM305 121c81 0 125 53 125 134c0 58 -30 91 -88 91
c-45 0 -98 -16 -122 -27c-6 -32 -10 -59 -10 -83c0 -75 32 -115 95 -115z" />
    <glyph glyph-name="six.taboldstyle" unicode="&#xe106;" horiz-adv-x="675" 
d="M602 273c0 -168 -105 -288 -297 -288c-185 0 -268 112 -268 253c0 223 130 504 407 504c88 0 156 -23 208 -70l-108 -109c-33 30 -59 46 -114 46c-89 0 -152 -64 -188 -175c50 35 102 48 161 48c117 0 199 -83 199 -209zM303 121c81 0 125 53 125 134c0 58 -30 91 -88 91
c-45 0 -98 -16 -122 -27c-6 -32 -10 -59 -10 -83c0 -75 32 -115 95 -115z" />
    <glyph glyph-name="t.superior" unicode="&#xf6f3;" horiz-adv-x="298" 
d="M265 317c-30 -16 -83 -29 -114 -29c-83 0 -110 31 -110 87c0 18 2 37 7 60l30 150h-49l20 99h49l18 87l150 54l-29 -141h84l-20 -99h-84l-27 -133c-3 -15 -5 -26 -5 -34c0 -15 6 -19 21 -19c7 0 24 3 44 10z" />
    <glyph glyph-name="three.fitted" unicode="&#xe099;" horiz-adv-x="620" 
d="M554 257c0 -178 -129 -272 -321 -272c-93 0 -194 30 -251 113l121 99c32 -52 84 -76 137 -76c77 0 143 45 143 133c0 52 -38 88 -111 88c-33 0 -72 -8 -97 -16l16 79l186 186h-258l28 136h476l-23 -113l-176 -173c83 -22 130 -94 130 -184z" />
    <glyph glyph-name="three.tab" horiz-adv-x="675" 
d="M581 257c0 -178 -129 -272 -321 -272c-93 0 -194 30 -251 113l121 99c32 -52 84 -76 137 -76c77 0 143 45 143 133c0 52 -38 88 -111 88c-33 0 -72 -8 -97 -16l16 79l186 186h-258l28 136h476l-23 -113l-176 -173c83 -22 130 -94 130 -184z" />
    <glyph glyph-name="three.taboldstyle" unicode="&#xe103;" horiz-adv-x="675" 
d="M549 105c0 -177 -129 -271 -320 -271c-97 0 -199 33 -252 113l121 99c32 -52 83 -76 136 -76c78 0 144 45 144 130c0 62 -39 98 -112 98c-33 0 -61 -4 -89 -12l17 83l180 186h-257l28 136h476l-23 -113l-184 -185c90 -26 135 -97 135 -188z" />
    <glyph glyph-name="threeeighths" unicode="&#x215c;" horiz-adv-x="1076" 
d="M441 470c0 -117 -98 -182 -217 -182c-53 0 -122 11 -167 89l105 59c11 -18 33 -37 65 -37c33 0 61 18 61 54c0 19 -11 40 -45 40c-20 0 -35 -3 -49 -7l11 53l99 85h-164l23 110h318l-18 -89l-86 -83c46 -14 64 -53 64 -92zM997 -13c0 -103 -97 -146 -215 -146
c-116 0 -171 50 -171 115c0 60 35 99 88 125c-20 13 -41 42 -41 80c0 96 107 134 205 134c115 0 163 -40 163 -101c0 -52 -28 -88 -80 -113c37 -24 51 -58 51 -94zM833 121c22 9 58 26 58 56c0 18 -11 30 -44 30c-30 0 -53 -12 -53 -41c0 -17 13 -31 39 -45zM797 -64
c33 0 61 12 61 41c0 15 -11 35 -46 51c-29 -8 -67 -25 -67 -58c0 -15 12 -34 52 -34zM910 727l-573 -878h-141l573 878h141z" />
    <glyph glyph-name="two.fitted" unicode="&#xe098;" horiz-adv-x="655" 
d="M527 0h-555l24 117c92 62 159 111 235 167c133 97 200 179 200 259c0 35 -25 60 -81 60c-68 0 -129 -48 -169 -89l-91 103c68 70 153 125 294 125c127 0 230 -52 230 -184c0 -92 -50 -170 -120 -239c-74 -74 -171 -135 -252 -183h313z" />
    <glyph glyph-name="two.tab" horiz-adv-x="675" 
d="M538 0h-555l24 117c92 62 159 111 235 167c133 97 200 179 200 259c0 35 -25 60 -81 60c-68 0 -129 -48 -169 -89l-91 103c68 70 153 125 294 125c127 0 230 -52 230 -184c0 -92 -50 -170 -120 -239c-74 -74 -171 -135 -252 -183h313z" />
    <glyph glyph-name="two.taboldstyle" unicode="&#xe102;" horiz-adv-x="675" 
d="M529 0h-518l22 112c86 50 153 89 223 136c118 79 171 114 171 168c0 24 -16 51 -74 51c-64 0 -103 -22 -167 -74l-87 105c65 60 143 108 282 108c124 0 222 -53 222 -163c0 -95 -57 -155 -154 -219c-58 -38 -89 -55 -146 -88h254z" />
    <glyph glyph-name="twothirds" unicode="&#x2154;" horiz-adv-x="1076" 
d="M420 296h-408l19 95c69 38 96 56 148 88c59 37 131 74 131 120c0 16 -12 27 -40 27c-38 0 -71 -17 -119 -51l-74 84c53 43 128 83 229 83c96 0 166 -36 166 -112c0 -105 -95 -164 -196 -218h168zM952 727l-573 -878h-141l573 878h141zM1025 22c0 -117 -98 -182 -217 -182
c-53 0 -122 11 -167 89l105 59c11 -18 33 -37 65 -37c33 0 61 18 61 54c0 19 -11 40 -45 40c-20 0 -35 -3 -49 -7l11 53l99 85h-164l23 110h318l-18 -89l-86 -83c46 -14 64 -53 64 -92z" />
    <glyph glyph-name="zero.fitted" unicode="&#xe097;" horiz-adv-x="675" 
d="M387 606c-25 0 -53 -7 -81 -34c-64 -64 -109 -239 -109 -336c0 -65 28 -115 90 -115c25 0 53 7 81 34c64 64 110 239 110 336c0 65 -26 115 -91 115zM280 -15c-182 0 -255 105 -255 240c0 138 49 328 150 429c59 59 122 88 219 88c182 0 256 -105 256 -242
c0 -138 -49 -326 -150 -428c-58 -59 -123 -87 -220 -87z" />
    <glyph glyph-name="zero.tab" horiz-adv-x="675" 
d="M387 606c-25 0 -53 -7 -81 -34c-64 -64 -109 -239 -109 -336c0 -65 28 -115 90 -115c25 0 53 7 81 34c64 64 110 239 110 336c0 65 -26 115 -91 115zM280 -15c-182 0 -255 105 -255 240c0 138 49 328 150 429c59 59 122 88 219 88c182 0 256 -105 256 -242
c0 -138 -49 -326 -150 -428c-58 -59 -123 -87 -220 -87z" />
    <glyph glyph-name="zero.taboldstyle" unicode="&#xe100;" horiz-adv-x="675" 
d="M612 378c0 -190 -99 -393 -338 -393c-181 0 -245 113 -245 220c0 198 96 401 340 401c179 0 243 -109 243 -228zM285 121c105 0 157 133 157 250c0 61 -28 99 -89 99c-102 0 -153 -133 -153 -248c0 -60 25 -101 85 -101z" />
    <glyph glyph-name="dollar.alt" horiz-adv-x="675" 
d="M572 240c0 -145 -108 -224 -247 -232l-28 -135h-108l28 135c-84 15 -137 52 -172 135l140 82c20 -58 66 -89 126 -89c43 0 106 17 106 77c0 58 -93 73 -173 116c-61 33 -115 85 -115 175c0 131 91 212 233 219l20 97h108l-20 -97c73 -12 123 -53 151 -119
c-44 -28 -89 -54 -132 -80c-19 42 -60 72 -111 72c-50 0 -94 -18 -94 -73c0 -57 97 -75 179 -120c58 -32 109 -79 109 -163z" />
    <glyph glyph-name="percent.alt" horiz-adv-x="1077" 
d="M487 595c0 -141 -81 -270 -239 -270c-137 0 -170 69 -170 149c0 141 75 268 240 268c129 0 169 -68 169 -147zM264 438c66 0 83 97 83 138c0 35 -15 53 -44 53c-66 0 -83 -95 -83 -140c0 -37 16 -51 44 -51zM925 727l-615 -727h-155l615 727h155zM1004 255
c0 -141 -81 -270 -239 -270c-137 0 -170 69 -170 149c0 141 75 268 240 268c129 0 169 -68 169 -147zM781 98c66 0 83 97 83 138c0 35 -15 53 -44 53c-66 0 -83 -95 -83 -140c0 -37 16 -51 44 -51z" />
    <glyph glyph-name="perthousand.alt" horiz-adv-x="1527" 
d="M487 595c0 -141 -81 -270 -239 -270c-137 0 -170 69 -170 149c0 141 75 268 240 268c129 0 169 -68 169 -147zM264 438c66 0 83 97 83 138c0 35 -15 53 -44 53c-66 0 -83 -95 -83 -140c0 -37 16 -51 44 -51zM925 727l-615 -727h-155l615 727h155zM1004 255
c0 -141 -81 -270 -239 -270c-137 0 -170 69 -170 149c0 141 75 268 240 268c129 0 169 -68 169 -147zM781 98c66 0 83 97 83 138c0 35 -15 53 -44 53c-66 0 -83 -95 -83 -140c0 -37 16 -51 44 -51zM1454 255c0 -141 -81 -270 -239 -270c-137 0 -170 69 -170 149
c0 141 75 268 240 268c129 0 169 -68 169 -147zM1231 98c66 0 83 97 83 138c0 35 -15 53 -44 53c-66 0 -83 -95 -83 -140c0 -37 16 -51 44 -51z" />
    <glyph glyph-name="onequarter.alt" horiz-adv-x="1135" 
d="M942 727l-616 -727h-155l616 727h155zM960 52h-49l-14 -68h-135l14 68h-194l22 107l231 235h146l-48 -237h49zM802 152l21 106l-100 -106h79zM385 332h-299l24 116h84l25 123c-28 -12 -68 -20 -99 -24l23 112c63 13 110 41 149 83h104l-60 -294h73z" />
    <glyph glyph-name="onehalf.alt" horiz-adv-x="1135" 
d="M940 727l-616 -727h-155l616 727h155zM385 332h-299l24 116h84l25 123c-28 -12 -68 -20 -99 -24l23 112c63 13 110 41 149 83h104l-60 -294h73zM982 0h-376l19 94c51 29 96 53 148 86c39 25 94 60 94 93c0 15 -9 23 -25 23c-28 0 -61 -17 -102 -51l-77 85
c51 42 118 80 217 80c86 0 149 -38 149 -114c0 -79 -70 -124 -160 -180h137z" />
    <glyph glyph-name="threequarters.alt" horiz-adv-x="1135" 
d="M942 727l-616 -727h-155l616 727h155zM961 52h-49l-14 -68h-135l14 68h-194l22 107l231 235h146l-49 -237h49zM802 152l22 106l-101 -106h79zM424 484c0 -102 -89 -160 -191 -160c-66 0 -126 18 -165 87l97 59c15 -25 31 -37 56 -37c30 0 54 15 54 45c0 18 -13 35 -38 35
c-17 0 -29 -3 -46 -9l11 54l92 72h-149l21 104h297l-18 -87l-77 -71c40 -19 56 -56 56 -92z" />
    <glyph glyph-name="onethird.alt" horiz-adv-x="1135" 
d="M385 332h-299l24 116h84l25 123c-28 -12 -68 -20 -99 -24l23 112c63 13 110 41 149 83h104l-60 -294h73zM942 727l-616 -727h-155l616 727h155zM1007 144c0 -102 -89 -160 -191 -160c-66 0 -126 18 -165 87l97 59c15 -25 31 -37 56 -37c30 0 54 15 54 45
c0 18 -13 35 -38 35c-17 0 -29 -3 -46 -9l11 54l92 72h-149l21 104h297l-18 -87l-77 -71c40 -19 56 -56 56 -92z" />
    <glyph glyph-name="twothirds.alt" horiz-adv-x="1135" 
d="M942 727l-616 -727h-155l616 727h155zM414 332h-376l19 94c51 29 96 53 148 86c39 25 94 60 94 93c0 15 -9 23 -25 23c-28 0 -61 -17 -102 -51l-77 85c51 42 118 80 217 80c86 0 149 -38 149 -114c0 -79 -70 -124 -160 -180h137zM1007 144c0 -102 -89 -160 -191 -160
c-66 0 -126 18 -165 87l97 59c15 -25 31 -37 56 -37c30 0 54 15 54 45c0 18 -13 35 -38 35c-17 0 -29 -3 -46 -9l11 54l92 72h-149l21 104h297l-18 -87l-77 -71c40 -19 56 -56 56 -92z" />
    <glyph glyph-name="oneeighth.alt" horiz-adv-x="1135" 
d="M941 727l-615 -727h-155l615 727h155zM996 126c0 -93 -107 -141 -203 -141c-114 0 -161 49 -161 110c0 52 28 81 80 110c-17 12 -31 33 -31 64c0 92 103 133 194 133c93 0 147 -42 147 -100c0 -44 -22 -75 -66 -96c27 -19 40 -50 40 -80zM845 241c19 9 45 22 45 47
c0 10 -5 25 -33 25c-24 0 -44 -11 -44 -35c0 -14 10 -25 32 -37zM861 114c0 15 -8 31 -35 44c-32 -9 -56 -27 -56 -48c0 -12 6 -30 39 -30c32 0 52 13 52 34zM385 332h-299l24 116h84l25 123c-28 -12 -68 -20 -99 -24l23 112c63 13 110 41 149 83h104l-60 -294h73z" />
    <glyph glyph-name="threeeighths.alt" horiz-adv-x="1135" 
d="M942 727l-616 -727h-155l616 727h155zM996 126c0 -93 -107 -141 -203 -141c-114 0 -161 49 -161 110c0 52 28 81 80 110c-17 12 -31 33 -31 64c0 92 103 133 194 133c93 0 147 -42 147 -100c0 -44 -22 -75 -66 -96c27 -19 40 -50 40 -80zM845 241c19 9 45 22 45 47
c0 10 -5 25 -33 25c-24 0 -44 -11 -44 -35c0 -14 10 -25 32 -37zM861 114c0 15 -8 31 -35 44c-32 -9 -56 -27 -56 -48c0 -12 6 -30 39 -30c32 0 52 13 52 34zM425 485c0 -102 -89 -160 -191 -160c-66 0 -126 18 -165 87l97 59c15 -25 31 -37 56 -37c30 0 54 15 54 45
c0 18 -13 35 -38 35c-17 0 -29 -3 -46 -9l11 54l92 72h-149l21 104h297l-18 -87l-77 -71c40 -19 56 -56 56 -92z" />
    <glyph glyph-name="fiveeighths.alt" horiz-adv-x="1135" 
d="M942 727l-616 -727h-155l616 727h155zM425 486c0 -102 -99 -161 -204 -161c-69 0 -122 19 -162 70l101 67c26 -28 47 -34 72 -34c26 0 53 13 53 43c0 22 -15 34 -40 34c-19 0 -43 -4 -68 -16h-77l70 246h289l-22 -107h-182l-9 -34c11 1 31 2 39 2c88 0 140 -36 140 -110z
M996 126c0 -93 -107 -141 -203 -141c-114 0 -161 49 -161 110c0 52 28 81 80 110c-17 12 -31 33 -31 64c0 92 103 133 194 133c93 0 147 -42 147 -100c0 -44 -22 -75 -66 -96c27 -19 40 -50 40 -80zM845 241c19 9 45 22 45 47c0 10 -5 25 -33 25c-24 0 -44 -11 -44 -35
c0 -14 10 -25 32 -37zM861 114c0 15 -8 31 -35 44c-32 -9 -56 -27 -56 -48c0 -12 6 -30 39 -30c32 0 52 13 52 34z" />
    <glyph glyph-name="seveneighths.alt" horiz-adv-x="1135" 
d="M942 727l-616 -727h-155l616 727h155zM522 650l-222 -325h-145l220 315h-86l-16 -70h-111l34 165h343zM996 126c0 -93 -107 -141 -203 -141c-114 0 -161 49 -161 110c0 52 28 81 80 110c-17 12 -31 33 -31 64c0 92 103 133 194 133c93 0 147 -42 147 -100
c0 -44 -22 -75 -66 -96c27 -19 40 -50 40 -80zM845 241c19 9 45 22 45 47c0 10 -5 25 -33 25c-24 0 -44 -11 -44 -35c0 -14 10 -25 32 -37zM861 114c0 15 -8 31 -35 44c-32 -9 -56 -27 -56 -48c0 -12 6 -30 39 -30c32 0 52 13 52 34z" />
    <glyph glyph-name="plus.alt" horiz-adv-x="695" 
d="M643 298h-227v-227h-136v227h-228v136h228v228h136v-228h227v-136z" />
    <glyph glyph-name="minus.alt" horiz-adv-x="695" 
d="M643 298h-591v136h591v-136z" />
    <glyph glyph-name="multiply.alt" horiz-adv-x="695" 
d="M643 167l-96 -96l-199 199l-200 -199l-96 96l200 199l-200 199l96 96l200 -198l199 196l96 -96l-199 -197z" />
    <glyph glyph-name="less.alt" horiz-adv-x="695" 
d="M643 70l-591 228v136l591 227v-136l-413 -159l413 -160v-136z" />
    <glyph glyph-name="greater.alt" horiz-adv-x="695" 
d="M643 299l-591 -229v136l413 160l-413 159v136l591 -227v-135z" />
    <glyph glyph-name="logicalnot.alt" horiz-adv-x="695" 
d="M643 174h-135v230h-456v136h591v-366z" />
    <glyph glyph-name="equal.alt" horiz-adv-x="695" 
d="M643 404h-591v136h591v-136zM643 174h-591v136h591v-136z" />
    <glyph glyph-name="divide.alt" horiz-adv-x="695" 
d="M429 592c0 -56 -29 -78 -81 -78c-59 0 -81 31 -81 78c0 52 26 79 81 79c56 0 81 -26 81 -79zM643 298h-591v136h591v-136zM429 138c0 -56 -29 -78 -81 -78c-59 0 -81 31 -81 78c0 52 26 79 81 79c56 0 81 -26 81 -79z" />
    <glyph glyph-name="plusminus.alt" horiz-adv-x="695" 
d="M643 453h-227v-187h-136v187h-228v136h228v208h136v-208h227v-136zM643 70h-591v136h591v-136z" />
    <glyph glyph-name="periodcentered.alt" horiz-adv-x="281" 
d="M236 385c0 -72 -36 -102 -104 -102c-48 0 -84 20 -84 67c0 70 35 102 105 102c45 0 83 -19 83 -67z" />
    </font>
</defs>
</svg>
