<?xml version="1.0" standalone="no"?>
<!DOCTYPE svg PUBLIC "-//W3C//DTD SVG 1.1//EN" "http://www.w3.org/Graphics/SVG/1.1/DTD/svg11.dtd" >
<svg xmlns="http://www.w3.org/2000/svg" xmlns:xlink="http://www.w3.org/1999/xlink" version="1.1">
<metadata>
Created by FontForge 20160407 at Tue Sep 27 16:55:30 2016
 By Jimmy Warting
Copyright 2009, 2010 Monotype Imaging Inc. All rights reserved.
</metadata>
<defs>
<font id="FelbridgePro-Bold" horiz-adv-x="484" >
  <font-face 
    font-family="Felbridge Pro"
    font-weight="700"
    font-stretch="normal"
    units-per-em="1000"
    panose-1="2 0 8 3 4 0 3 2 3 4"
    ascent="772"
    descent="-228"
    x-height="520"
    cap-height="727"
    bbox="-190 -238 1478 956"
    underline-thickness="50"
    underline-position="-100"
    stemh="97"
    stemv="129"
    unicode-range="U+0020-FB04"
  />
<missing-glyph horiz-adv-x="500" 
d="M12 0v665h475v-665h-475zM88 618l162 -243l161 243h-323zM60 575v-484c0 -1 161 242 161 242zM440 575l-162 -242l162 -243v485zM411 48l-161 242l-162 -242h323z" />
    <glyph glyph-name="f_f" unicode="ff" horiz-adv-x="629" 
d="M676 722l-28 -98c-18 7 -49 15 -74 15c-50 0 -69 -19 -69 -82v-37h117v-96h-117v-424h-129v424h-162v-424h-129v424h-74v96h74v37c0 102 32 185 183 185c43 0 85 -10 117 -20l-28 -98c-18 7 -49 15 -74 15c-50 0 -69 -19 -69 -82v-37h162v37c0 102 32 185 183 185
c43 0 85 -10 117 -20z" />
    <glyph glyph-name="f_f_i" unicode="ffi" horiz-adv-x="882" 
d="M385 722l-28 -98c-18 7 -49 15 -74 15c-50 0 -69 -19 -69 -82v-37h177v37c0 105 34 185 179 185c30 0 63 -6 83 -12l-26 -99c-14 5 -32 8 -47 8c-48 0 -60 -29 -60 -82v-37h291v-520h-129v424h-162v-424h-129v424h-177v-424h-129v424h-74v96h74v37c0 102 32 185 183 185
c43 0 85 -10 117 -20zM822 658c0 -44 -25 -64 -70 -64c-49 0 -71 24 -71 64c0 42 25 63 71 63c45 0 70 -20 70 -63z" />
    <glyph glyph-name="f_f_l" unicode="ffl" horiz-adv-x="934" 
d="M385 722l-28 -98c-18 7 -49 15 -74 15c-50 0 -69 -19 -69 -82v-37h177v37c0 102 27 185 195 185c54 0 117 -16 145 -26l79 39v-587c0 -59 11 -79 44 -79c15 0 35 3 50 8l30 -97c-39 -11 -70 -15 -108 -15c-114 0 -145 59 -145 169v466c-26 10 -59 19 -86 19
c-59 0 -75 -21 -75 -82v-37h107v-96h-107v-424h-129v424h-177v-424h-129v424h-74v96h74v37c0 102 32 185 183 185c43 0 85 -10 117 -20z" />
    <glyph glyph-name="fi" unicode="fi" horiz-adv-x="576" 
d="M516 658c0 -44 -25 -64 -70 -64c-49 0 -71 24 -71 64c0 42 25 63 71 63c45 0 70 -20 70 -63zM505 0h-129v424h-162v-424h-129v424h-74v96h74v37c0 105 34 185 179 185c30 0 63 -6 83 -12l-26 -99c-14 5 -32 8 -47 8c-48 0 -60 -29 -60 -82v-37h291v-520z" />
    <glyph glyph-name="fl" unicode="fl" horiz-adv-x="628" 
d="M628 0c-39 -11 -70 -15 -108 -15c-114 0 -145 59 -145 169v466c-26 10 -59 19 -86 19c-59 0 -75 -21 -75 -82v-37h107v-96h-107v-424h-129v424h-74v96h74v37c0 102 27 185 195 185c54 0 117 -16 145 -26l79 39v-587c0 -59 11 -79 44 -79c15 0 35 3 50 8z" />
    <glyph glyph-name=".notdef" horiz-adv-x="500" 
d="M12 0v665h475v-665h-475zM88 618l162 -243l161 243h-323zM60 575v-484c0 -1 161 242 161 242zM440 575l-162 -242l162 -243v485zM411 48l-161 242l-162 -242h323z" />
    <glyph glyph-name="space" unicode=" " horiz-adv-x="229" 
 />
    <glyph glyph-name="exclam" unicode="!" horiz-adv-x="286" 
d="M215 727l-19 -516h-105l-22 516h146zM221 62c0 -54 -29 -73 -79 -73c-57 0 -77 28 -77 73c0 50 24 73 77 73s79 -22 79 -73z" />
    <glyph glyph-name="quotedbl" unicode="&#x22;" horiz-adv-x="468" 
d="M398 742l-25 -269h-84l-24 269h133zM202 742l-24 -269h-84l-24 269h132z" />
    <glyph glyph-name="numbersign" unicode="#" horiz-adv-x="692" 
d="M672 445h-133l-41 -163h117v-88h-139l-48 -194h-89l48 194h-151l-49 -194h-89l48 194h-111v88h133l41 163h-117v88h139l48 194h89l-48 -194h151l49 194h89l-48 -194h111v-88zM449 445h-151l-41 -163h152z" />
    <glyph glyph-name="dollar" unicode="$" horiz-adv-x="579" 
d="M538 183c0 -107 -78 -171 -204 -182v-121h-88v121c-102 10 -163 54 -209 125l100 61c25 -40 59 -69 109 -81v183c-125 29 -195 72 -195 185c0 100 70 170 195 182v86h88v-87c85 -10 144 -49 184 -113l-97 -59c-21 33 -49 58 -87 69v-165c106 -25 204 -67 204 -204z
M246 408v146c-49 -10 -73 -39 -73 -76c0 -36 25 -55 73 -70zM416 180c0 43 -24 68 -82 87v-164c44 8 82 32 82 77z" />
    <glyph glyph-name="percent" unicode="%" horiz-adv-x="1059" 
d="M1023 63c0 -78 -18 -136 -56 -175c-35 -36 -85 -54 -151 -54s-116 18 -150 54c-37 39 -56 98 -56 175c0 78 19 136 57 175c35 35 84 54 149 54c66 0 117 -18 151 -54c37 -39 56 -98 56 -175zM783 727l-393 -878h-113l393 878h113zM448 513c0 -78 -18 -136 -56 -175
c-35 -36 -84 -54 -150 -54s-117 18 -151 54c-37 39 -55 98 -55 175c0 78 18 136 56 175c35 35 85 54 150 54c66 0 117 -18 151 -54c37 -39 55 -98 55 -175zM900 63c0 44 -7 81 -22 102c-13 18 -33 28 -62 28s-48 -11 -61 -29c-15 -22 -22 -58 -22 -102s7 -80 22 -101
c13 -18 32 -28 61 -28s49 10 62 28c15 21 22 58 22 102zM325 513c0 44 -6 81 -21 102c-13 18 -33 28 -62 28s-49 -11 -62 -29c-15 -22 -21 -58 -21 -102s6 -80 21 -101c13 -18 33 -28 62 -28s48 10 61 28c15 21 22 58 22 102z" />
    <glyph glyph-name="ampersand" unicode="&#x26;" horiz-adv-x="684" 
d="M689 0h-167l-36 42c-32 -23 -87 -57 -189 -57c-166 0 -259 82 -259 210c0 99 53 154 144 210c-41 50 -77 105 -77 160c0 117 82 177 206 177c119 0 194 -61 194 -153c0 -91 -53 -148 -139 -204l136 -163c22 31 41 76 53 126l116 -28c-21 -83 -54 -150 -89 -192zM382 587
c0 23 -18 57 -72 57c-63 0 -77 -40 -77 -68c0 -30 25 -64 61 -106c73 47 88 87 88 117zM411 131l-155 185c-61 -42 -84 -69 -84 -123c0 -60 52 -98 124 -98c51 0 90 18 115 36z" />
    <glyph glyph-name="quoteright" unicode="&#x2019;" horiz-adv-x="266" 
d="M211 662c0 -95 -43 -168 -74 -214h-74c34 50 64 108 64 140c0 5 -7 6 -11 8c-47 4 -61 31 -61 69c0 47 20 77 77 77c54 0 79 -31 79 -80z" />
    <glyph glyph-name="parenleft" unicode="(" horiz-adv-x="376" 
d="M365 -193h-140c-56 59 -98 131 -127 210c-31 84 -46 176 -46 257c0 83 14 174 45 257c29 79 72 152 128 211h140c-90 -90 -149 -206 -176 -319c-11 -46 -17 -100 -17 -149c0 -51 6 -103 17 -148c27 -116 88 -231 176 -319z" />
    <glyph glyph-name="parenright" unicode=")" horiz-adv-x="376" 
d="M325 274c0 -81 -15 -173 -46 -257c-29 -79 -71 -151 -127 -210h-141c88 88 150 203 177 319c11 45 17 97 17 148c0 49 -6 103 -17 149c-27 113 -87 229 -177 319h141c56 -59 98 -132 127 -211c31 -83 46 -174 46 -257z" />
    <glyph glyph-name="asterisk" unicode="*" horiz-adv-x="475" 
d="M450 599l-127 -67l126 -68l-46 -79l-124 76l4 -140h-92l3 139l-122 -76l-46 79l126 69l-127 67l47 80l122 -75l-3 138h92l-4 -138l124 75z" />
    <glyph glyph-name="plus" unicode="+" horiz-adv-x="682" 
d="M624 239h-230v-230h-106v230h-230v107h230v230h106v-230h230v-107z" />
    <glyph glyph-name="comma" unicode="," horiz-adv-x="266" 
d="M211 56c0 -95 -43 -169 -74 -215h-74c32 46 62 111 62 134c0 6 0 10 -1 14c-52 0 -69 30 -69 70c0 47 20 76 77 76c54 0 79 -30 79 -79z" />
    <glyph glyph-name="hyphen" unicode="-" horiz-adv-x="380" 
d="M347 204h-314v114h314v-114z" />
    <glyph glyph-name="period" unicode="." horiz-adv-x="266" 
d="M211 62c0 -54 -29 -73 -79 -73c-57 0 -77 28 -77 73c0 50 24 73 77 73s79 -22 79 -73z" />
    <glyph glyph-name="slash" unicode="/" horiz-adv-x="476" 
d="M458 742l-352 -888h-114l352 888h114z" />
    <glyph glyph-name="zero" unicode="0" horiz-adv-x="621" 
d="M579 293c0 -158 -48 -308 -269 -308c-220 0 -268 150 -268 307s48 307 268 307c221 0 269 -150 269 -306zM442 293c0 126 -28 196 -132 196c-103 0 -131 -70 -131 -197s28 -197 131 -197c104 0 132 70 132 198z" />
    <glyph glyph-name="one" unicode="1" horiz-adv-x="509" 
d="M465 0h-377v106h133v301c-40 -22 -102 -42 -147 -49v105c81 25 143 65 187 128h90v-485h114v-106z" />
    <glyph glyph-name="two" unicode="2" horiz-adv-x="575" 
d="M536 0h-501v97c72 48 130 92 192 140c109 84 151 123 151 176c0 37 -29 75 -112 75c-67 0 -107 -22 -147 -65l-88 75c39 47 110 101 246 101c128 0 237 -52 237 -174c0 -96 -51 -146 -101 -186c-59 -48 -108 -81 -171 -127h294v-112z" />
    <glyph glyph-name="three" unicode="3" horiz-adv-x="560" 
d="M518 82c0 -171 -111 -248 -276 -248c-82 0 -186 27 -244 108l92 76c39 -47 92 -74 147 -74c93 0 145 47 145 138c0 81 -57 124 -146 124c-29 0 -57 -4 -79 -10v62l177 215h-293v111h452v-99l-155 -193c119 -13 180 -102 180 -210z" />
    <glyph glyph-name="four" unicode="4" horiz-adv-x="622" 
d="M584 9h-86v-175h-130v175h-339v117l349 465h120v-473h86v-109zM368 118v271l-205 -271h205z" />
    <glyph glyph-name="five" unicode="5" horiz-adv-x="575" 
d="M534 88c0 -154 -87 -254 -276 -254c-113 0 -201 46 -247 112l90 76c35 -44 87 -78 152 -78c91 0 143 52 143 137c0 90 -68 130 -151 130c-46 0 -89 -11 -127 -29h-67l44 402h403v-111h-300l-19 -173c30 10 68 17 101 17c140 0 254 -64 254 -229z" />
    <glyph glyph-name="six" unicode="6" horiz-adv-x="619" 
d="M580 240c0 -162 -98 -255 -262 -255c-189 0 -276 130 -276 336c0 218 65 421 304 421c86 0 147 -20 205 -66l-71 -91c-42 34 -78 49 -134 49c-107 0 -157 -90 -165 -214c43 31 105 54 170 54c132 0 229 -74 229 -234zM444 236c0 97 -56 127 -128 127
c-44 0 -94 -16 -126 -32c-6 -11 -11 -27 -11 -56c0 -113 57 -180 140 -180c79 0 125 46 125 141z" />
    <glyph glyph-name="seven" unicode="7" horiz-adv-x="550" 
d="M534 485l-282 -651h-148l291 638h-238v-99h-119v211h496v-99z" />
    <glyph glyph-name="eight" unicode="8" horiz-adv-x="610" 
d="M571 189c0 -139 -107 -204 -266 -204c-171 0 -266 69 -266 204c0 89 45 154 141 197c-56 28 -122 72 -122 170c0 117 87 186 247 186c157 0 247 -64 247 -185c0 -91 -61 -141 -123 -172c83 -42 142 -91 142 -196zM419 553c0 45 -29 87 -114 87c-88 0 -114 -43 -114 -86
c0 -40 28 -68 115 -109c76 32 113 64 113 108zM436 191c0 58 -44 95 -131 135c-76 -33 -131 -75 -131 -136c0 -56 34 -103 131 -103s131 47 131 104z" />
    <glyph glyph-name="nine" unicode="9" horiz-adv-x="619" 
d="M577 260c0 -218 -59 -426 -306 -426c-75 0 -147 17 -217 69l68 94c42 -32 90 -55 146 -55c121 0 163 96 170 218c-40 -29 -105 -53 -170 -53c-138 0 -229 75 -229 235c0 162 105 257 264 257c189 0 274 -132 274 -339zM433 251c5 15 7 35 7 57c0 104 -49 181 -138 181
c-80 0 -127 -51 -127 -143c0 -97 56 -129 128 -129c43 0 97 18 130 34z" />
    <glyph glyph-name="colon" unicode=":" horiz-adv-x="266" 
d="M211 424c0 -54 -29 -73 -79 -73c-57 0 -77 28 -77 73c0 50 24 73 77 73s79 -22 79 -73zM211 62c0 -54 -29 -73 -79 -73c-57 0 -77 28 -77 73c0 50 24 73 77 73s79 -22 79 -73z" />
    <glyph glyph-name="semicolon" unicode=";" horiz-adv-x="266" 
d="M211 424c0 -54 -29 -73 -79 -73c-57 0 -77 28 -77 73c0 50 24 73 77 73s79 -22 79 -73zM211 56c0 -95 -43 -169 -74 -215h-74c32 46 62 111 62 134c0 6 0 10 -1 14c-52 0 -69 30 -69 70c0 47 20 76 77 76c54 0 79 -30 79 -79z" />
    <glyph glyph-name="less" unicode="&#x3c;" horiz-adv-x="682" 
d="M625 14l-567 228v101l567 227v-109l-425 -169l425 -169v-109z" />
    <glyph glyph-name="equal" unicode="=" horiz-adv-x="682" 
d="M625 348h-567v106h567v-106zM625 120h-567v106h567v-106z" />
    <glyph glyph-name="greater" unicode="&#x3e;" horiz-adv-x="682" 
d="M625 242l-567 -228v109l425 169l-425 169v109l567 -227v-101z" />
    <glyph glyph-name="question" unicode="?" horiz-adv-x="529" 
d="M493 550c0 -65 -21 -109 -66 -152c-39 -37 -89 -66 -135 -91v-98h-125v154c39 21 93 45 133 78c35 29 59 61 59 103c0 55 -37 87 -104 87c-62 0 -98 -25 -126 -68l-107 63c45 75 119 116 233 116c130 0 238 -54 238 -192zM310 62c0 -54 -28 -73 -78 -73
c-57 0 -78 28 -78 73c0 50 25 73 78 73s78 -22 78 -73z" />
    <glyph glyph-name="at" unicode="@" horiz-adv-x="1015" 
d="M970 284c0 -158 -81 -299 -251 -299c-69 0 -121 25 -134 72c-42 -33 -99 -57 -157 -57c-128 0 -184 88 -184 208c0 158 81 327 271 327c42 0 80 -12 118 -36l42 28h80l-48 -390c0 -4 -1 -8 -1 -12c0 -39 13 -55 53 -55c72 0 116 114 116 214c0 237 -117 373 -358 373
c-220 0 -377 -163 -377 -382c0 -230 143 -383 375 -383c79 0 158 6 235 25l19 -86c-83 -20 -170 -24 -255 -24c-283 0 -469 187 -469 469c0 268 204 466 471 466c287 0 454 -173 454 -458zM610 403c-30 22 -53 33 -87 33c-107 0 -145 -133 -145 -225c0 -74 20 -110 91 -110
c40 0 81 24 110 49z" />
    <glyph glyph-name="A" unicode="A" horiz-adv-x="691" 
d="M678 0h-146l-55 168h-271l-54 -168h-139l239 727h183zM441 281l-100 310l-101 -310h201z" />
    <glyph glyph-name="B" unicode="B" horiz-adv-x="666" 
d="M624 213c0 -135 -89 -213 -277 -213h-277v727h253c177 0 255 -49 255 -169c0 -93 -50 -139 -110 -160c98 -16 156 -72 156 -185zM432 528c0 65 -40 84 -128 84h-93v-174h84c105 0 137 38 137 90zM478 221c0 81 -51 105 -147 105h-120v-210h105c95 0 162 21 162 105z" />
    <glyph glyph-name="C" unicode="C" horiz-adv-x="683" 
d="M663 594l-114 -63c-26 45 -69 96 -161 96c-142 0 -194 -91 -194 -264c0 -176 54 -263 194 -263c87 0 137 42 170 70l85 -98c-73 -65 -162 -87 -255 -87c-244 0 -342 134 -342 378s98 379 342 379c161 0 234 -74 275 -148z" />
    <glyph glyph-name="D" unicode="D" horiz-adv-x="719" 
d="M673 363c0 -286 -132 -363 -383 -363h-220v727h218c258 0 385 -90 385 -364zM525 364c0 173 -56 246 -246 246h-68v-493h68c196 0 246 73 246 247z" />
    <glyph glyph-name="E" unicode="E" horiz-adv-x="596" 
d="M546 0h-476v727h476v-118h-335v-173h303v-116h-303v-202h335v-118z" />
    <glyph glyph-name="F" unicode="F" horiz-adv-x="584" 
d="M546 609h-335v-181h302v-116h-302v-312h-141v727h476v-118z" />
    <glyph glyph-name="G" unicode="G" horiz-adv-x="746" 
d="M680 594l-114 -63c-28 49 -82 96 -168 96c-143 0 -204 -87 -204 -262c0 -172 55 -265 213 -265c49 0 97 13 131 27v123h-135v119h276v-312c-63 -36 -168 -72 -273 -72c-259 0 -360 137 -360 378c0 236 97 379 352 379c160 0 238 -70 282 -148z" />
    <glyph glyph-name="H" unicode="H" horiz-adv-x="706" 
d="M636 0h-141v316h-284v-316h-141v727h141v-293h284v293h141v-727z" />
    <glyph glyph-name="I" unicode="I" horiz-adv-x="409" 
d="M369 0h-329v109h94v509h-94v109h329v-109h-94v-509h94v-109z" />
    <glyph glyph-name="J" unicode="J" horiz-adv-x="461" 
d="M396 204c0 -157 -79 -219 -224 -219c-57 0 -124 14 -162 29l41 110c26 -11 68 -24 109 -24c78 0 95 45 95 145v373h-161v109h302v-523z" />
    <glyph glyph-name="K" unicode="K" horiz-adv-x="674" 
d="M660 0h-161l-190 351l-98 -110v-241h-141v727h141v-307l264 307h165l-235 -267z" />
    <glyph glyph-name="L" unicode="L" horiz-adv-x="564" 
d="M537 0h-467v727h141v-609h326v-118z" />
    <glyph glyph-name="M" unicode="M" horiz-adv-x="823" 
d="M753 0h-134v532l-167 -348h-73l-175 347v-531h-134v727h176l170 -347l164 347h173v-727z" />
    <glyph glyph-name="N" unicode="N" horiz-adv-x="725" 
d="M655 0h-154l-299 533v-533h-132v727h170l283 -501v501h132v-727z" />
    <glyph glyph-name="O" unicode="O" horiz-adv-x="769" 
d="M723 363c0 -234 -88 -378 -338 -378s-339 144 -339 378c0 236 89 379 339 379c249 0 338 -143 338 -379zM575 363c0 175 -51 264 -190 264c-141 0 -191 -89 -191 -264c0 -174 50 -263 191 -263c139 0 190 89 190 263z" />
    <glyph glyph-name="P" unicode="P" horiz-adv-x="623" 
d="M585 491c0 -162 -79 -243 -283 -243h-91v-248h-141v727h233c197 0 282 -73 282 -236zM437 490c0 84 -43 119 -139 119h-87v-242h86c104 0 140 31 140 123z" />
    <glyph glyph-name="Q" unicode="Q" horiz-adv-x="769" 
d="M723 363c0 -208 -69 -345 -260 -373c20 -48 46 -70 119 -70c19 0 49 3 89 14l35 -99c-52 -17 -89 -21 -129 -21c-145 0 -213 51 -254 174c-199 23 -277 155 -277 375c0 236 88 379 339 379c250 0 338 -144 338 -379zM575 363c0 174 -50 264 -190 264
c-141 0 -191 -89 -191 -264c0 -174 50 -263 191 -263c140 0 190 91 190 263z" />
    <glyph glyph-name="R" unicode="R" horiz-adv-x="659" 
d="M620 0h-142l-47 213c-13 58 -36 83 -90 83h-130v-296h-141v727h261c167 0 267 -39 267 -198c0 -107 -46 -161 -118 -181c56 -12 74 -52 88 -116zM454 512c0 70 -37 100 -124 100h-119v-203h109c93 0 134 25 134 103z" />
    <glyph glyph-name="S" unicode="S" horiz-adv-x="625" 
d="M596 196c0 -136 -109 -211 -280 -211c-151 0 -234 52 -295 146l115 69c38 -60 92 -100 183 -100c64 0 137 26 137 93c0 66 -47 93 -173 120c-157 33 -246 82 -246 218c0 127 97 211 271 211c127 0 212 -47 266 -133l-112 -68c-33 52 -82 86 -154 86
c-88 0 -131 -39 -131 -92c0 -56 53 -76 154 -98c133 -28 265 -70 265 -241z" />
    <glyph glyph-name="T" unicode="T" horiz-adv-x="605" 
d="M593 609h-220v-609h-141v609h-220v118h581v-118z" />
    <glyph glyph-name="U" unicode="U" horiz-adv-x="697" 
d="M632 286c0 -215 -71 -301 -284 -301c-212 0 -283 86 -283 301v441h141v-431c0 -144 32 -196 142 -196c113 0 143 56 143 194v433h141v-441z" />
    <glyph glyph-name="V" unicode="V" horiz-adv-x="670" 
d="M657 727l-249 -727h-149l-246 727h146l178 -552l182 552h138z" />
    <glyph glyph-name="W" unicode="W" horiz-adv-x="917" 
d="M899 727l-167 -727h-129l-144 385l-142 -385h-134l-165 727h141l110 -519l133 358h118l135 -354l110 515h134z" />
    <glyph glyph-name="X" unicode="X" horiz-adv-x="649" 
d="M635 0h-159l-155 261l-159 -261h-148l235 362l-228 365h158l151 -254l156 254h148l-231 -357z" />
    <glyph glyph-name="Y" unicode="Y" horiz-adv-x="647" 
d="M639 727l-246 -433v-294h-141v286l-244 441h154l164 -304l169 304h144z" />
    <glyph glyph-name="Z" unicode="Z" horiz-adv-x="637" 
d="M593 0h-554v104l361 505h-344v118h527v-99l-366 -510h376v-118z" />
    <glyph glyph-name="bracketleft" unicode="[" horiz-adv-x="367" 
d="M336 -193h-267v920h267v-94h-147v-732h147v-94z" />
    <glyph glyph-name="backslash" unicode="\" horiz-adv-x="476" 
d="M484 -146h-114l-352 888h114z" />
    <glyph glyph-name="bracketright" unicode="]" horiz-adv-x="367" 
d="M298 -193h-267v94h147v732h-147v94h267v-920z" />
    <glyph glyph-name="asciicircum" unicode="^" horiz-adv-x="577" 
d="M550 348h-117l-144 262l-145 -262h-117l214 386h95z" />
    <glyph glyph-name="underscore" unicode="_" horiz-adv-x="500" 
d="M506 -125h-512v50h512v-50z" />
    <glyph glyph-name="quoteleft" unicode="&#x2018;" horiz-adv-x="266" 
d="M211 524c0 -47 -21 -76 -78 -76c-54 0 -78 30 -78 79c0 95 43 169 74 215h73c-34 -50 -64 -108 -64 -140c0 -5 7 -6 11 -8c47 -4 62 -32 62 -70z" />
    <glyph glyph-name="a" unicode="a" horiz-adv-x="551" 
d="M491 0h-121v53c-45 -35 -96 -68 -168 -68c-101 0 -164 69 -164 167c0 126 94 166 220 178l104 9v21c0 58 -37 78 -102 78c-67 0 -106 -19 -140 -49l-63 86c48 40 116 60 210 60c148 0 224 -49 224 -184v-351zM362 139v114l-67 -7c-87 -9 -127 -33 -127 -92
c0 -48 31 -69 75 -69c41 0 79 24 119 54z" />
    <glyph glyph-name="b" unicode="b" horiz-adv-x="586" 
d="M548 264c0 -168 -79 -279 -223 -279c-57 0 -105 13 -132 24l-76 -16h-53v734h129v-244c39 31 95 52 147 52c142 0 208 -108 208 -271zM414 262c0 114 -29 176 -109 176c-44 0 -85 -22 -112 -51v-278c24 -13 50 -27 110 -27c68 0 111 52 111 180z" />
    <glyph glyph-name="c" unicode="c" horiz-adv-x="501" 
d="M487 434l-94 -58c-23 36 -55 56 -101 56c-97 0 -120 -74 -120 -173c0 -97 25 -171 126 -171c47 0 83 20 108 38l66 -88c-48 -32 -102 -53 -182 -53c-180 0 -252 107 -252 274c0 171 73 276 252 276c87 0 152 -31 197 -101z" />
    <glyph glyph-name="d" unicode="d" horiz-adv-x="586" 
d="M522 0h-121v47c-38 -35 -94 -62 -155 -62c-140 0 -208 108 -208 271c0 178 80 279 219 279c55 0 101 -17 136 -39v231h129v-727zM393 134v268c-29 19 -64 36 -111 36c-68 0 -110 -52 -110 -180c0 -114 32 -176 110 -176c42 0 84 24 111 52z" />
    <glyph glyph-name="e" unicode="e" horiz-adv-x="544" 
d="M508 216h-336c4 -78 46 -128 124 -128c49 0 88 20 113 40l65 -89c-35 -25 -92 -54 -187 -54c-156 0 -249 82 -249 272c0 162 62 278 246 278c161 0 224 -95 224 -242v-77zM384 310c0 87 -31 129 -99 129c-70 0 -106 -40 -113 -129h212z" />
    <glyph glyph-name="f" unicode="f" horiz-adv-x="338" 
d="M385 722l-28 -98c-18 7 -49 15 -74 15c-50 0 -69 -19 -69 -82v-37h117v-96h-117v-424h-129v424h-74v96h74v37c0 102 32 185 183 185c43 0 85 -10 117 -20z" />
    <glyph glyph-name="g" unicode="g" horiz-adv-x="588" 
d="M568 424h-56v-405c0 -151 -82 -212 -237 -212c-73 0 -149 18 -197 42l42 93c40 -22 89 -39 149 -39c80 0 114 33 114 106v36c-39 -26 -86 -45 -140 -45c-141 0 -205 114 -205 265c0 146 68 270 215 270c60 0 105 -24 137 -52v37h178v-96zM383 139v260
c-31 21 -64 39 -102 39c-84 0 -109 -78 -109 -171c0 -92 21 -170 101 -170c44 0 73 14 110 42z" />
    <glyph glyph-name="h" unicode="h" horiz-adv-x="578" 
d="M518 0h-129v306c0 87 -14 117 -67 117c-36 0 -88 -31 -129 -65v-358h-129v727h129v-263c46 38 106 71 167 71c106 0 158 -61 158 -189v-346z" />
    <glyph glyph-name="i" unicode="i" horiz-adv-x="305" 
d="M245 652c0 -47 -29 -68 -79 -68c-52 0 -79 23 -79 68c0 46 30 69 79 69c39 0 79 -16 79 -69zM236 0h-129v424h-82v96h211v-520z" />
    <glyph glyph-name="j" unicode="j" horiz-adv-x="302" 
d="M245 652c0 -47 -29 -68 -79 -68c-52 0 -79 23 -79 68c0 46 30 69 79 69c39 0 79 -16 79 -69zM236 -5c0 -122 -43 -188 -175 -188c-25 0 -71 4 -116 18l32 97c25 -9 48 -13 77 -13c42 0 53 29 53 92v423h-82v96h211v-525z" />
    <glyph glyph-name="k" unicode="k" horiz-adv-x="527" 
d="M522 0h-147l-130 229l-52 -58v-171h-129v727h129v-401l167 194h146l-176 -195z" />
    <glyph glyph-name="l" unicode="l" horiz-adv-x="313" 
d="M313 0c-37 -10 -70 -15 -108 -15c-114 0 -144 59 -144 169v538l129 70v-594c0 -59 10 -79 43 -79c16 0 36 3 50 8z" />
    <glyph glyph-name="m" unicode="m" horiz-adv-x="859" 
d="M799 0h-129v306c0 91 -11 117 -56 117c-32 0 -83 -32 -118 -65v-358h-129v306c0 95 -14 117 -56 117c-35 0 -87 -35 -118 -65v-358h-129v520h121v-63c41 39 103 78 165 78c73 0 114 -32 130 -83c50 46 109 83 174 83c112 0 145 -73 145 -185v-350z" />
    <glyph glyph-name="n" unicode="n" horiz-adv-x="578" 
d="M518 0h-129v306c0 87 -14 117 -67 117c-35 0 -86 -29 -129 -65v-358h-129v520h121v-62c53 45 115 77 175 77c106 0 158 -60 158 -189v-346z" />
    <glyph glyph-name="o" unicode="o" horiz-adv-x="579" 
d="M541 259c0 -143 -55 -274 -251 -274c-197 0 -252 131 -252 274c0 146 54 276 252 276c196 0 251 -131 251 -276zM407 259c0 121 -38 173 -117 173c-80 0 -118 -52 -118 -173c0 -118 38 -171 118 -171c79 0 117 54 117 171z" />
    <glyph glyph-name="p" unicode="p" horiz-adv-x="586" 
d="M548 264c0 -176 -78 -279 -219 -279c-50 0 -95 11 -136 35v-213h-129v713h121v-47c38 35 94 62 155 62c140 0 208 -108 208 -271zM414 262c0 112 -31 176 -109 176c-43 0 -85 -24 -112 -52v-272c33 -19 64 -32 111 -32c68 0 110 52 110 180z" />
    <glyph glyph-name="q" unicode="q" horiz-adv-x="586" 
d="M522 -193h-129v225c-34 -26 -87 -47 -146 -47c-143 0 -209 108 -209 271c0 172 80 279 230 279c47 0 94 -10 125 -24l76 16h53v-720zM393 128v283c-29 15 -59 27 -108 27c-70 0 -113 -50 -113 -180c0 -114 29 -176 110 -176c44 0 84 20 111 46z" />
    <glyph glyph-name="r" unicode="r" horiz-adv-x="402" 
d="M395 518l-19 -124c-13 4 -29 6 -46 6c-57 0 -102 -32 -137 -65v-335h-129v520h121v-86c37 43 90 94 156 94c19 0 40 -3 54 -10z" />
    <glyph glyph-name="s" unicode="s" horiz-adv-x="498" 
d="M465 151c0 -121 -110 -166 -222 -166c-88 0 -174 28 -215 100l94 57c27 -43 75 -60 122 -60c45 0 97 11 97 55c0 30 -25 43 -90 59c-110 27 -206 57 -206 178c0 116 105 161 210 161c86 0 161 -29 203 -95l-94 -56c-23 35 -63 54 -111 54c-52 0 -84 -17 -84 -53
c0 -38 46 -49 116 -67c85 -22 180 -49 180 -167z" />
    <glyph glyph-name="t" unicode="t" horiz-adv-x="363" 
d="M355 3c-29 -9 -76 -18 -114 -18c-122 0 -159 58 -159 183v256h-74v96h74v144l129 63v-207h121v-96h-121v-241c0 -70 6 -96 55 -96c17 0 38 4 58 12z" />
    <glyph glyph-name="u" unicode="u" horiz-adv-x="578" 
d="M514 0h-121v62c-53 -45 -115 -77 -175 -77c-106 0 -158 61 -158 190v345h129v-306c0 -87 14 -117 67 -117c35 0 86 29 129 65v358h129v-520z" />
    <glyph glyph-name="v" unicode="v" horiz-adv-x="515" 
d="M504 520l-196 -520h-102l-195 520h133l116 -345l117 345h127z" />
    <glyph glyph-name="w" unicode="w" horiz-adv-x="743" 
d="M729 520l-146 -520h-94l-117 254l-120 -254h-89l-149 520h127l86 -342l111 238h77l108 -236l85 340h121z" />
    <glyph glyph-name="x" unicode="x" horiz-adv-x="513" 
d="M501 0h-144l-103 177l-102 -177h-140l167 260l-165 260h143l105 -176l103 176h136l-166 -259z" />
    <glyph glyph-name="y" unicode="y" horiz-adv-x="543" 
d="M533 520l-219 -562c-45 -115 -114 -151 -209 -151c-33 0 -80 6 -114 17l29 99c29 -11 64 -17 85 -17c44 0 71 28 97 90l10 24l-198 500h133l128 -344l130 344h128z" />
    <glyph glyph-name="z" unicode="z" horiz-adv-x="502" 
d="M464 0h-423v79l254 345h-248v96h409v-77l-255 -346h263v-97z" />
    <glyph glyph-name="braceleft" unicode="{" horiz-adv-x="448" 
d="M421 -193h-58c-140 0 -208 61 -208 198v72c0 92 -19 148 -111 148h-17v100h17c93 0 111 54 111 148v71c0 137 69 198 208 198h58v-94h-51c-72 0 -94 -34 -94 -104v-88c0 -91 -37 -148 -105 -182c68 -32 105 -92 105 -181v-88c0 -69 22 -104 94 -104h51v-94z" />
    <glyph glyph-name="bar" unicode="|" horiz-adv-x="364" 
d="M238 -224h-112v970h112v-970z" />
    <glyph glyph-name="braceright" unicode="}" horiz-adv-x="448" 
d="M421 225h-17c-92 0 -111 -56 -111 -148v-72c0 -137 -68 -198 -208 -198h-58v94h50c72 0 95 35 95 104v88c0 89 37 149 105 181c-68 34 -105 91 -105 182v88c0 70 -23 104 -95 104h-50v94h58c139 0 208 -61 208 -198v-71c0 -94 18 -148 111 -148h17v-100z" />
    <glyph glyph-name="asciitilde" unicode="~" horiz-adv-x="667" 
d="M617 273c-46 -35 -108 -70 -167 -70c-90 0 -162 70 -248 70c-43 0 -100 -31 -152 -65v104c42 31 103 70 171 70c85 0 160 -70 244 -70c46 0 109 36 152 65v-104z" />
    <glyph glyph-name="exclamdown" unicode="&#xa1;" horiz-adv-x="286" 
d="M221 462c0 -51 -25 -74 -78 -74s-78 24 -78 74c0 48 23 73 78 73c52 0 78 -22 78 -73zM215 -193h-146l21 518h105z" />
    <glyph glyph-name="cent" unicode="&#xa2;" horiz-adv-x="509" 
d="M487 466l-94 -58c-5 8 -12 15 -18 22l-90 -310h13c47 0 83 20 108 38l66 -88c-48 -32 -102 -53 -182 -53c-12 0 -23 0 -34 1l-54 -184h-89l59 203c-94 39 -134 130 -134 254c0 171 73 276 252 276c12 0 25 -1 36 -2l51 177h89l-58 -201c31 -17 57 -41 79 -75zM296 464h-4
c-97 0 -120 -75 -120 -173c0 -56 9 -104 35 -135z" />
    <glyph glyph-name="sterling" unicode="&#xa3;" horiz-adv-x="636" 
d="M598 0h-556v109c76 17 97 102 97 162c0 9 0 17 -1 24h-83v95h66c-12 42 -30 91 -30 151c0 140 106 201 255 201c105 0 199 -43 249 -129l-103 -60c-29 47 -74 78 -143 78c-85 0 -121 -38 -121 -107c0 -48 23 -97 32 -134h185v-95h-172c0 -76 -22 -139 -75 -183h400v-112z
" />
    <glyph glyph-name="fraction" unicode="&#x2044;" horiz-adv-x="132" 
d="M321 727l-394 -878h-117l393 878h118z" />
    <glyph glyph-name="yen" unicode="&#xa5;" horiz-adv-x="639" 
d="M629 727l-178 -315h148v-81h-194l-15 -27v-42h209v-81h-209v-181h-141v181h-208v81h208v35l-19 34h-189v81h144l-175 315h155l158 -293l163 293h143z" />
    <glyph glyph-name="florin" unicode="&#x192;" horiz-adv-x="498" 
d="M523 723l-39 -104c-22 9 -59 19 -85 19c-30 0 -67 -10 -82 -75l-15 -66h127l-20 -97h-127s-90 -426 -92 -427c-14 -65 -62 -166 -215 -166c-42 0 -92 10 -116 19l36 101c21 -8 58 -16 86 -16c54 0 73 24 89 100l83 389h-81l21 97h81l15 68c21 97 78 177 222 177
c21 0 44 -3 64 -7c19 -4 36 -8 48 -12z" />
    <glyph glyph-name="section" unicode="&#xa7;" horiz-adv-x="501" 
d="M477 263c0 -76 -48 -122 -101 -159c37 -30 74 -71 74 -126c0 -128 -106 -171 -210 -171c-75 0 -153 23 -208 94l89 66c30 -35 69 -54 119 -54c49 0 83 15 83 55c0 35 -36 57 -141 115c-78 43 -158 104 -158 202c0 74 48 125 101 162c-37 31 -71 70 -71 125
c0 127 104 170 208 170c73 0 152 -20 208 -94l-90 -70c-32 39 -76 58 -116 58c-47 0 -83 -13 -83 -56c0 -21 15 -37 38 -54c87 -65 258 -124 258 -263zM355 259c0 23 -17 43 -49 68c-27 22 -58 40 -83 55c-39 -24 -77 -53 -77 -94c0 -50 90 -97 132 -120c33 22 77 51 77 91z
" />
    <glyph glyph-name="currency" unicode="&#xa4;" horiz-adv-x="642" 
d="M495 241l70 -66c-21 -20 -41 -41 -61 -61l-69 68c-34 -24 -75 -35 -115 -35c-34 0 -77 9 -115 35l-69 -68l-60 61l69 66c-24 39 -35 79 -35 113s10 76 35 113l-69 67l60 61l69 -68c39 26 81 35 115 35c37 0 80 -11 115 -35l69 68c20 -20 40 -41 61 -61
c-24 -23 -47 -44 -70 -67c27 -40 35 -81 35 -113c0 -34 -10 -74 -35 -113zM444 355c0 71 -61 122 -123 122c-71 0 -125 -56 -125 -122c0 -67 56 -123 124 -123s124 56 124 123z" />
    <glyph glyph-name="quotesingle" unicode="'" horiz-adv-x="272" 
d="M202 742l-24 -269h-84l-24 269h132z" />
    <glyph glyph-name="quotedblleft" unicode="&#x201c;" horiz-adv-x="495" 
d="M440 524c0 -47 -20 -76 -77 -76c-54 0 -79 30 -79 79c0 95 43 169 74 215h74c-34 -50 -64 -108 -64 -140c0 -5 7 -6 11 -8c47 -4 61 -32 61 -70zM211 524c0 -47 -21 -76 -78 -76c-54 0 -78 30 -78 79c0 95 43 169 74 215h73c-34 -50 -64 -108 -64 -140c0 -5 7 -6 11 -8
c47 -4 62 -32 62 -70z" />
    <glyph glyph-name="guillemotleft" unicode="&#xab;" horiz-adv-x="643" 
d="M624 27h-137l-179 233l179 234h137l-178 -234zM334 27h-137l-178 233l178 234h137l-178 -234z" />
    <glyph glyph-name="guilsinglleft" unicode="&#x2039;" horiz-adv-x="353" 
d="M334 27h-137l-178 233l178 234h137l-178 -234z" />
    <glyph glyph-name="guilsinglright" unicode="&#x203a;" horiz-adv-x="353" 
d="M334 260l-178 -233h-137l178 233l-178 234h137z" />
    <glyph glyph-name="endash" unicode="&#x2013;" horiz-adv-x="500" 
d="M506 211h-512v98h512v-98z" />
    <glyph glyph-name="dagger" unicode="&#x2020;" horiz-adv-x="544" 
d="M514 394l-194 11l15 -598h-128l16 598l-193 -11v120l193 -12l-13 240h123l-12 -240l193 12v-120z" />
    <glyph glyph-name="daggerdbl" unicode="&#x2021;" horiz-adv-x="544" 
d="M505 23l-184 12l13 -228h-124l13 228l-184 -12v122l184 -12l-8 141l8 141l-184 -12v122l184 -12l-13 229h124l-13 -229l184 12v-122l-184 12l8 -141l-8 -141l184 12v-122z" />
    <glyph glyph-name="periodcentered" unicode="&#xb7;" horiz-adv-x="266" 
d="M211 292c0 -54 -29 -73 -79 -73c-57 0 -77 28 -77 73c0 50 24 74 77 74s79 -23 79 -74z" />
    <glyph glyph-name="paragraph" unicode="&#xb6;" horiz-adv-x="624" 
d="M604 635h-81v-828h-109v828h-75v-828h-109v494c-125 7 -210 73 -210 213c0 131 99 213 248 213h336v-92z" />
    <glyph glyph-name="bullet" unicode="&#x2022;" horiz-adv-x="389" 
d="M340 365c0 -80 -66 -145 -146 -145s-145 65 -145 145s65 145 145 145s146 -65 146 -145z" />
    <glyph glyph-name="quotesinglbase" unicode="&#x201a;" horiz-adv-x="266" 
d="M211 56c0 -95 -43 -169 -74 -215h-74c34 50 64 108 64 140c0 5 -7 6 -11 8c-47 4 -61 32 -61 70c0 47 20 76 77 76c54 0 79 -30 79 -79z" />
    <glyph glyph-name="quotedblbase" unicode="&#x201e;" horiz-adv-x="495" 
d="M440 56c0 -95 -43 -169 -74 -215h-74c34 50 64 108 64 140c0 5 -7 6 -11 8c-47 4 -61 32 -61 70c0 47 21 76 78 76c54 0 78 -30 78 -79zM211 56c0 -95 -43 -169 -74 -215h-74c34 50 64 108 64 140c0 5 -7 6 -11 8c-47 4 -61 32 -61 70c0 47 20 76 77 76
c54 0 79 -30 79 -79z" />
    <glyph glyph-name="quotedblright" unicode="&#x201d;" horiz-adv-x="495" 
d="M440 662c0 -95 -43 -168 -74 -214h-74c34 50 64 108 64 140c0 5 -7 6 -11 8c-47 4 -61 31 -61 69c0 47 21 77 78 77c54 0 78 -31 78 -80zM211 662c0 -95 -43 -168 -74 -214h-74c34 50 64 108 64 140c0 5 -7 6 -11 8c-47 4 -61 31 -61 69c0 47 20 77 77 77
c54 0 79 -31 79 -80z" />
    <glyph glyph-name="guillemotright" unicode="&#xbb;" horiz-adv-x="643" 
d="M624 260l-178 -233h-137l178 233l-178 234h137zM335 260l-178 -233h-138l179 233l-179 234h138z" />
    <glyph glyph-name="ellipsis" unicode="&#x2026;" horiz-adv-x="1000" 
d="M911 62c0 -54 -28 -73 -78 -73c-57 0 -78 28 -78 73c0 50 25 73 78 73s78 -22 78 -73zM578 62c0 -54 -28 -73 -78 -73c-57 0 -78 28 -78 73c0 50 25 73 78 73s78 -22 78 -73zM245 62c0 -54 -28 -73 -78 -73c-57 0 -78 28 -78 73c0 50 25 73 78 73s78 -22 78 -73z" />
    <glyph glyph-name="perthousand" unicode="&#x2030;" horiz-adv-x="1514" 
d="M1478 63c0 -78 -18 -136 -56 -175c-35 -36 -85 -54 -151 -54s-116 18 -150 54c-37 39 -56 98 -56 175c0 78 19 136 57 175c35 35 84 54 149 54c66 0 117 -18 151 -54c37 -39 56 -98 56 -175zM1005 63c0 -78 -18 -136 -56 -175c-35 -36 -84 -54 -150 -54s-117 18 -151 54
c-37 39 -55 98 -55 175c0 78 18 136 56 175c35 35 85 54 150 54c66 0 117 -18 151 -54c37 -39 55 -98 55 -175zM775 727l-394 -878h-113l393 878h114zM449 513c0 -78 -19 -136 -57 -175c-35 -36 -84 -54 -150 -54s-117 18 -151 54c-37 39 -55 98 -55 175c0 78 18 136 56 175
c35 35 85 54 150 54c66 0 117 -18 151 -54c37 -39 56 -98 56 -175zM1355 63c0 44 -7 81 -22 102c-13 18 -33 28 -62 28s-48 -11 -61 -29c-15 -22 -22 -58 -22 -102s7 -80 22 -101c13 -18 32 -28 61 -28s49 10 62 28c15 21 22 58 22 102zM882 63c0 44 -6 81 -21 102
c-13 18 -33 28 -62 28s-49 -11 -62 -29c-15 -22 -22 -58 -22 -102s7 -80 22 -101c13 -18 33 -28 62 -28s48 10 61 28c15 21 22 58 22 102zM326 513c0 44 -7 81 -22 102c-13 18 -33 28 -62 28s-48 -11 -61 -29c-15 -22 -22 -58 -22 -102s7 -80 22 -101c13 -18 32 -28 61 -28
s49 10 62 28c15 21 22 58 22 102z" />
    <glyph glyph-name="questiondown" unicode="&#xbf;" horiz-adv-x="529" 
d="M375 462c0 -50 -24 -73 -77 -73s-79 22 -79 73c0 54 29 73 79 73c57 0 77 -28 77 -73zM507 -77c-45 -75 -119 -116 -233 -116c-130 0 -238 54 -238 192c0 65 21 109 66 152c39 37 89 66 135 91v88h125v-144c-39 -21 -93 -45 -133 -78c-35 -29 -59 -61 -59 -103
c0 -55 37 -87 104 -87c62 0 98 25 126 68z" />
    <glyph glyph-name="grave" unicode="`" horiz-adv-x="500" 
d="M345 590h-97l-161 176h138z" />
    <glyph glyph-name="acute" unicode="&#xb4;" horiz-adv-x="500" 
d="M413 766l-161 -176h-97l120 176h138z" />
    <glyph glyph-name="circumflex" unicode="&#x2c6;" horiz-adv-x="500" 
d="M436 590h-103l-83 98l-88 -98h-98l126 176h120z" />
    <glyph glyph-name="tilde" unicode="&#x2dc;" horiz-adv-x="500" 
d="M444 745c-3 -44 -15 -79 -39 -103c-20 -20 -48 -31 -85 -31c-31 0 -56 9 -78 22l-20 11c-5 3 -9 6 -14 8c-9 4 -19 7 -28 7c-11 0 -20 -4 -27 -11c-9 -9 -15 -21 -15 -37h-83c2 43 15 79 40 103c21 20 48 31 83 31c30 0 56 -9 78 -21s44 -26 63 -26c11 0 20 5 27 12
c9 9 16 21 16 35h82z" />
    <glyph glyph-name="macron" unicode="&#xaf;" horiz-adv-x="500" 
d="M409 606h-318v89h318v-89z" />
    <glyph glyph-name="breve" unicode="&#x2d8;" horiz-adv-x="500" 
d="M435 747c-15 -53 -51 -138 -186 -138c-132 0 -168 82 -184 138h91c19 -32 44 -52 93 -52c36 0 64 11 82 33c5 6 9 12 13 19h91z" />
    <glyph glyph-name="dotaccent" unicode="&#x2d9;" horiz-adv-x="500" 
d="M315 652c0 -47 -22 -64 -67 -64c-51 0 -67 25 -67 64c0 44 20 64 67 64s67 -19 67 -64z" />
    <glyph glyph-name="dieresis" unicode="&#xa8;" horiz-adv-x="500" 
d="M428 651c0 -47 -23 -63 -68 -63c-50 0 -67 24 -67 63c0 44 20 65 67 65c48 0 68 -20 68 -65zM209 651c0 -47 -23 -63 -68 -63c-50 0 -66 24 -66 63c0 44 19 65 66 65c48 0 68 -20 68 -65z" />
    <glyph glyph-name="ring" unicode="&#x2da;" horiz-adv-x="500" 
d="M355 672c0 -59 -33 -99 -105 -99c-74 0 -105 43 -105 99c0 58 33 99 105 99c73 0 105 -40 105 -99zM297 672c0 30 -17 43 -47 43c-31 0 -47 -15 -47 -43c0 -27 14 -43 47 -43c32 0 47 15 47 43z" />
    <glyph glyph-name="cedilla" unicode="&#xb8;" horiz-adv-x="500" 
d="M358 -104c0 -59 -53 -89 -137 -89c-51 0 -107 14 -133 27l35 60c22 -8 57 -16 95 -16c28 0 41 9 41 24c0 27 -29 38 -79 40l39 67h78l-14 -26c43 -9 75 -42 75 -87z" />
    <glyph glyph-name="hungarumlaut" unicode="&#x2dd;" horiz-adv-x="500" 
d="M500 766l-141 -176h-97l99 176h139zM313 766l-142 -176h-97l100 176h139z" />
    <glyph glyph-name="ogonek" unicode="&#x2db;" horiz-adv-x="500" 
d="M404 -156c-40 -21 -84 -37 -135 -37c-83 0 -124 48 -124 107c0 47 16 89 28 117h93c-19 -42 -21 -65 -21 -88c0 -31 17 -54 50 -54c26 0 47 8 72 21z" />
    <glyph glyph-name="caron" unicode="&#x2c7;" horiz-adv-x="500" 
d="M436 766l-127 -176h-119l-127 176h99l88 -98l88 98h98z" />
    <glyph glyph-name="emdash" unicode="&#x2014;" horiz-adv-x="1000" 
d="M1006 211h-1012v98h1012v-98z" />
    <glyph glyph-name="AE" unicode="&#xc6;" horiz-adv-x="924" 
d="M874 0h-445v168h-220l-60 -168h-142l270 727h597v-118h-304v-173h272v-116h-272v-202h304v-118zM429 281v328h-58l-121 -328h179z" />
    <glyph glyph-name="ordfeminine" unicode="&#xaa;" horiz-adv-x="365" 
d="M325 394h-87v30c-27 -20 -60 -39 -103 -39c-68 0 -109 45 -109 110c0 80 64 110 145 117l62 5v9c0 32 -16 46 -61 46c-41 0 -65 -11 -90 -32l-45 60c34 29 81 42 141 42c95 0 147 -31 147 -121v-227zM233 489v63l-37 -2c-55 -3 -78 -21 -78 -54c0 -26 17 -39 43 -39
c24 0 47 14 72 32z" />
    <glyph glyph-name="Lslash" unicode="&#x141;" horiz-adv-x="564" 
d="M537 0h-467v246l-69 -54v116l69 54v365h141v-256l140 110v-117l-140 -110v-236h326v-118z" />
    <glyph glyph-name="Oslash" unicode="&#xd8;" horiz-adv-x="769" 
d="M732 764l-86 -121c54 -65 77 -161 77 -280c0 -234 -88 -378 -338 -378c-73 0 -133 13 -180 36l-55 -77h-118l96 135c-58 65 -82 162 -82 284c0 236 89 379 339 379c76 0 138 -14 186 -39l43 61h118zM496 598c-28 20 -65 29 -111 29c-141 0 -191 -89 -191 -264
c0 -65 7 -117 23 -158zM575 363c0 61 -6 111 -20 151l-276 -388c27 -17 62 -26 106 -26c139 0 190 89 190 263z" />
    <glyph glyph-name="OE" unicode="&#x152;" horiz-adv-x="967" 
d="M917 0h-407c-34 -10 -78 -15 -125 -15c-250 0 -339 144 -339 378c0 236 89 379 339 379c47 0 89 -5 125 -15h407v-118h-311v-173h279v-116h-279v-202h311v-118zM465 113v501c-19 7 -45 13 -80 13c-141 0 -191 -89 -191 -264c0 -174 50 -263 191 -263c35 0 61 5 80 13z
" />
    <glyph glyph-name="ordmasculine" unicode="&#xba;" horiz-adv-x="387" 
d="M359 563c0 -92 -36 -178 -165 -178c-130 0 -166 86 -166 178c0 93 36 179 166 179c129 0 165 -86 165 -179zM264 563c0 75 -24 104 -70 104c-47 0 -71 -29 -71 -104c0 -73 24 -103 71 -103c46 0 70 30 70 103z" />
    <glyph glyph-name="ae" unicode="&#xe6;" horiz-adv-x="854" 
d="M818 216h-332c3 -72 42 -128 120 -128c45 0 84 17 113 40l64 -89c-35 -25 -92 -54 -187 -54c-92 0 -156 35 -193 88c-52 -44 -124 -88 -203 -88c-99 0 -162 69 -162 167c0 126 95 166 218 178l102 9v21c0 58 -36 77 -101 77s-103 -18 -137 -48l-63 86
c48 40 116 60 208 60c80 0 142 -21 172 -65c34 38 80 65 160 65c161 0 221 -97 221 -242v-77zM370 142c-7 20 -12 50 -12 78v33c-12 -1 -46 -6 -62 -7c-85 -8 -128 -30 -128 -93c0 -47 32 -68 73 -68c40 0 87 23 129 57zM694 310c0 86 -30 129 -98 129
c-67 0 -104 -37 -109 -129h207z" />
    <glyph glyph-name="dotlessi" unicode="&#x131;" horiz-adv-x="305" 
d="M236 0h-129v424h-82v96h211v-520z" />
    <glyph glyph-name="lslash" unicode="&#x142;" horiz-adv-x="313" 
d="M313 0c-37 -10 -68 -15 -108 -15c-114 0 -144 59 -144 169v108l-58 -47v110l58 47v320l129 70v-287l87 70v-111l-87 -70v-196c0 -60 10 -79 43 -79c16 0 35 3 50 8z" />
    <glyph glyph-name="oslash" unicode="&#xf8;" horiz-adv-x="579" 
d="M547 557l-67 -94c45 -52 61 -126 61 -204c0 -143 -55 -274 -251 -274c-53 0 -97 9 -131 26l-34 -48h-87l64 91c-48 52 -64 126 -64 205c0 146 54 276 252 276c55 0 99 -11 134 -29l36 51h87zM357 413c-18 13 -40 19 -67 19c-80 0 -118 -52 -118 -173c0 -37 4 -68 11 -92z
M407 259c0 35 -4 64 -10 88l-171 -242c17 -11 38 -17 64 -17c79 0 117 54 117 171z" />
    <glyph glyph-name="oe" unicode="&#x153;" horiz-adv-x="898" 
d="M862 216h-331c2 -75 45 -128 122 -128c45 0 85 21 110 40l65 -89c-37 -27 -98 -54 -181 -54c-78 0 -140 23 -182 77c-38 -47 -93 -77 -178 -77c-195 0 -249 131 -249 274c0 146 53 276 249 276c85 0 142 -30 178 -78c37 49 95 78 177 78c153 0 220 -90 220 -242v-77z
M738 310c0 87 -30 129 -96 129c-70 0 -105 -38 -111 -129h207zM402 259c0 121 -36 173 -115 173c-78 0 -115 -52 -115 -173c0 -118 36 -171 115 -171s115 54 115 171z" />
    <glyph glyph-name="germandbls" unicode="&#xdf;" horiz-adv-x="581" 
d="M543 229c0 -142 -51 -244 -206 -244c-27 0 -64 6 -92 13v101c25 -8 52 -13 76 -13c61 0 89 48 89 147c0 109 -60 133 -158 133v98c71 0 110 32 110 104c0 43 -24 77 -80 77c-74 0 -93 -51 -93 -141v-504h-129v500c0 138 43 242 224 242c120 0 209 -50 209 -166
c0 -86 -44 -131 -109 -150c106 -18 159 -90 159 -197z" />
    <glyph glyph-name="logicalnot" unicode="&#xac;" horiz-adv-x="682" 
d="M625 121h-106v227h-461v107h567v-334z" />
    <glyph glyph-name="mu" unicode="&#xb5;" horiz-adv-x="581" 
d="M517 0h-118l-2 54c-30 -45 -63 -69 -112 -69c-38 0 -66 12 -92 33v-211h-129v713h129v-373c16 -24 53 -48 90 -48c46 0 77 20 106 58v363h128v-520z" />
    <glyph glyph-name="trademark" unicode="&#x2122;" horiz-adv-x="785" 
d="M745 378h-86v209l-64 -126h-45l-65 122v-205h-86v349h98l75 -147l73 147h100v-349zM324 652h-110v-274h-89v274h-110v75h309v-75z" />
    <glyph glyph-name="Eth" unicode="&#xd0;" horiz-adv-x="719" 
d="M673 363c0 -286 -132 -363 -383 -363h-220v317h-60v96h60v314h218c258 0 385 -90 385 -364zM525 364c0 173 -56 246 -246 246h-68v-197h163v-96h-163v-200h68c196 0 246 73 246 247z" />
    <glyph glyph-name="onehalf" unicode="&#xbd;" horiz-adv-x="1058" 
d="M998 -154h-393v83c57 37 102 71 148 105c30 23 52 40 68 55c24 23 35 43 35 65c0 25 -19 44 -68 44c-44 0 -73 -14 -111 -50l-79 65c39 42 91 82 197 82c91 0 187 -35 187 -132c0 -57 -26 -92 -61 -124c-38 -34 -81 -65 -126 -96h203v-97zM762 727l-394 -878h-113
l393 878h114zM383 293h-299v93h98v202c-31 -14 -68 -26 -109 -32v92c66 19 111 46 144 94h81v-356h85v-93z" />
    <glyph glyph-name="plusminus" unicode="&#xb1;" horiz-adv-x="682" 
d="M625 349h-231v-187h-106v187h-230v106h230v210h106v-210h231v-106zM625 0h-567v106h567v-106z" />
    <glyph glyph-name="Thorn" unicode="&#xde;" horiz-adv-x="623" 
d="M585 371c0 -162 -79 -243 -283 -243h-91v-128h-141v727h141v-120h92c197 0 282 -73 282 -236zM437 370c0 84 -43 119 -139 119h-87v-242h86c104 0 140 31 140 123z" />
    <glyph glyph-name="onequarter" unicode="&#xbc;" horiz-adv-x="1058" 
d="M1002 -72h-58v-94h-114v94h-219v90l218 277h115v-279h58v-88zM795 727l-394 -878h-113l393 878h114zM403 293h-299v93h98v202c-31 -14 -68 -26 -109 -32v92c66 19 111 46 144 94h81v-356h85v-93zM833 12v145l-113 -145h113z" />
    <glyph glyph-name="divide" unicode="&#xf7;" horiz-adv-x="682" 
d="M408 516c0 -47 -23 -64 -68 -64c-50 0 -66 25 -66 64c0 44 19 66 66 66c48 0 68 -21 68 -66zM625 239h-567v107h567v-107zM408 67c0 -47 -23 -64 -68 -64c-50 0 -66 25 -66 64c0 44 19 66 66 66c48 0 68 -21 68 -66z" />
    <glyph glyph-name="brokenbar" unicode="&#xa6;" horiz-adv-x="364" 
d="M238 431h-112v311h112v-311zM238 -193h-112v311h112v-311z" />
    <glyph glyph-name="degree" unicode="&#xb0;" horiz-adv-x="393" 
d="M349 590c0 -86 -70 -154 -152 -154c-84 0 -153 68 -153 154c0 85 69 152 152 152c86 0 153 -69 153 -152zM267 589c0 39 -31 71 -70 71c-41 0 -71 -34 -71 -70c0 -39 31 -71 71 -71c39 0 70 32 70 70z" />
    <glyph glyph-name="thorn" unicode="&#xfe;" horiz-adv-x="586" 
d="M548 264c0 -176 -78 -279 -219 -279c-50 0 -95 11 -136 35v-213h-129v920h129v-247c37 30 86 55 147 55c140 0 208 -108 208 -271zM414 262c0 112 -31 176 -109 176c-43 0 -85 -24 -112 -52v-272c33 -19 64 -32 111 -32c68 0 110 52 110 180z" />
    <glyph glyph-name="threequarters" unicode="&#xbe;" horiz-adv-x="1058" 
d="M1002 -71h-58v-95h-114v95h-219v90l218 276h115v-278h58v-88zM803 727l-394 -878h-113l393 878h114zM426 437c0 -107 -82 -156 -189 -156c-54 0 -121 13 -172 82l80 54c19 -25 48 -45 84 -45c49 0 74 25 74 66c0 35 -28 58 -74 58c-20 0 -37 -2 -54 -6v46l100 105h-177
v92h312v-77l-85 -94c70 -14 101 -64 101 -125zM833 13v144l-113 -144h113z" />
    <glyph glyph-name="registered" unicode="&#xae;" horiz-adv-x="944" 
d="M901 313c0 -119 -44 -223 -125 -304s-185 -126 -304 -126s-223 45 -304 126s-125 185 -125 304s45 222 125 303c81 81 185 126 304 126s223 -45 304 -126c80 -81 125 -184 125 -303zM815 313c0 190 -153 344 -343 344s-343 -154 -343 -344s153 -344 343 -344
s343 154 343 344zM664 98h-103l-30 132c-7 32 -22 44 -47 44h-75v-176h-101v448h168c108 0 173 -28 173 -125c0 -52 -20 -92 -65 -108c26 -8 38 -40 44 -65zM545 410c0 34 -16 52 -66 52h-70v-105h64c55 0 72 15 72 53z" />
    <glyph glyph-name="minus" unicode="&#x2212;" horiz-adv-x="682" 
d="M624 239h-566v107h566v-107z" />
    <glyph glyph-name="eth" unicode="&#xf0;" horiz-adv-x="579" 
d="M541 253c0 -150 -68 -268 -252 -268c-183 0 -251 118 -251 267c0 156 77 269 231 269c25 0 51 -6 73 -19c-14 31 -45 76 -77 109l-109 -39l-29 70l84 30c-30 29 -63 54 -91 70h146c17 -9 36 -21 50 -33l92 33l34 -68l-64 -23c101 -102 163 -236 163 -398zM407 253
c0 98 -30 165 -117 165s-118 -64 -118 -166c0 -96 29 -164 117 -164c89 0 118 69 118 165z" />
    <glyph glyph-name="multiply" unicode="&#xd7;" horiz-adv-x="682" 
d="M615 94l-75 -75l-199 199l-199 -199l-75 75l199 198l-199 199l75 75l199 -198l199 197l75 -75l-198 -198z" />
    <glyph glyph-name="copyright" unicode="&#xa9;" horiz-adv-x="944" 
d="M901 313c0 -119 -44 -223 -125 -304s-185 -126 -304 -126s-223 45 -304 126s-125 185 -125 304s45 222 125 303c81 81 185 126 304 126s223 -45 304 -126c80 -81 125 -184 125 -303zM815 313c0 190 -153 344 -343 344s-343 -154 -343 -344s153 -344 343 -344
s343 154 343 344zM668 452l-86 -46c-19 33 -43 61 -96 61c-80 0 -110 -48 -110 -149c0 -103 32 -147 111 -147c48 0 74 18 105 44l64 -70c-54 -46 -110 -59 -169 -59c-156 0 -219 83 -219 232c0 148 63 234 219 234c103 0 150 -47 181 -100z" />
    <glyph glyph-name="Aacute" unicode="&#xc1;" horiz-adv-x="691" 
d="M506 956l-161 -176h-97l120 176h138zM678 0h-146l-55 168h-271l-54 -168h-139l239 727h183zM441 281l-100 310l-101 -310h201z" />
    <glyph glyph-name="Acircumflex" unicode="&#xc2;" horiz-adv-x="691" 
d="M529 780h-103l-83 98l-88 -98h-98l126 176h120zM678 0h-146l-55 168h-271l-54 -168h-139l239 727h183zM441 281l-100 310l-101 -310h201z" />
    <glyph glyph-name="Adieresis" unicode="&#xc4;" horiz-adv-x="691" 
d="M520 843c0 -47 -23 -63 -68 -63c-50 0 -67 24 -67 63c0 44 20 65 67 65c48 0 68 -20 68 -65zM301 843c0 -47 -23 -63 -68 -63c-50 0 -66 24 -66 63c0 44 19 65 66 65c48 0 68 -20 68 -65zM678 0h-146l-55 168h-271l-54 -168h-139l239 727h183zM441 281l-100 310
l-101 -310h201z" />
    <glyph glyph-name="Agrave" unicode="&#xc0;" horiz-adv-x="691" 
d="M447 780h-97l-161 176h138zM678 0h-146l-55 168h-271l-54 -168h-139l239 727h183zM441 281l-100 310l-101 -310h201z" />
    <glyph glyph-name="Aring" unicode="&#xc5;" horiz-adv-x="691" 
d="M678 0h-146l-55 168h-271l-54 -168h-139l234 711c-18 19 -27 45 -27 77c0 68 37 118 122 118c86 0 123 -48 123 -118c0 -32 -8 -58 -25 -76zM407 788c0 41 -25 61 -65 61c-41 0 -63 -22 -63 -61c0 -37 20 -61 63 -61c42 0 65 22 65 61zM441 281l-100 310l-101 -310h201z
" />
    <glyph glyph-name="Atilde" unicode="&#xc3;" horiz-adv-x="691" 
d="M539 914c-7 -77 -38 -134 -124 -134c-68 0 -102 48 -140 48c-26 0 -42 -24 -42 -48h-83c3 75 42 134 123 134c66 0 106 -47 141 -47c24 0 41 25 43 47h82zM678 0h-146l-55 168h-271l-54 -168h-139l239 727h183zM441 281l-100 310l-101 -310h201z" />
    <glyph glyph-name="Ccedilla" unicode="&#xc7;" horiz-adv-x="683" 
d="M663 594l-114 -63c-26 45 -69 96 -161 96c-142 0 -194 -91 -194 -264c0 -176 54 -263 194 -263c87 0 137 42 170 70l85 -98c-68 -60 -149 -84 -234 -87l-1 -2c43 -9 75 -42 75 -87c0 -59 -53 -89 -137 -89c-51 0 -107 14 -133 27l35 60c22 -8 57 -16 95 -16
c28 0 41 9 41 24c0 27 -29 38 -79 40l27 46c-203 20 -286 150 -286 375c0 244 98 379 342 379c161 0 234 -74 275 -148z" />
    <glyph glyph-name="Eacute" unicode="&#xc9;" horiz-adv-x="596" 
d="M494 956l-161 -176h-97l120 176h138zM546 0h-476v727h476v-118h-335v-173h303v-116h-303v-202h335v-118z" />
    <glyph glyph-name="Ecircumflex" unicode="&#xca;" horiz-adv-x="596" 
d="M493 780h-103l-83 98l-88 -98h-98l126 176h120zM546 0h-476v727h476v-118h-335v-173h303v-116h-303v-202h335v-118z" />
    <glyph glyph-name="Edieresis" unicode="&#xcb;" horiz-adv-x="596" 
d="M486 843c0 -47 -23 -63 -68 -63c-50 0 -67 24 -67 63c0 44 20 65 67 65c48 0 68 -20 68 -65zM267 843c0 -47 -23 -63 -68 -63c-50 0 -66 24 -66 63c0 44 19 65 66 65c48 0 68 -20 68 -65zM546 0h-476v727h476v-118h-335v-173h303v-116h-303v-202h335v-118z" />
    <glyph glyph-name="Egrave" unicode="&#xc8;" horiz-adv-x="596" 
d="M384 780h-97l-161 176h138zM546 0h-476v727h476v-118h-335v-173h303v-116h-303v-202h335v-118z" />
    <glyph glyph-name="Iacute" unicode="&#xcd;" horiz-adv-x="409" 
d="M383 956l-161 -176h-97l120 176h138zM369 0h-329v109h94v509h-94v109h329v-109h-94v-509h94v-109z" />
    <glyph glyph-name="Icircumflex" unicode="&#xce;" horiz-adv-x="409" 
d="M389 780h-103l-83 98l-88 -98h-98l126 176h120zM369 0h-329v109h94v509h-94v109h329v-109h-94v-509h94v-109z" />
    <glyph glyph-name="Idieresis" unicode="&#xcf;" horiz-adv-x="409" 
d="M381 843c0 -47 -23 -63 -68 -63c-50 0 -67 24 -67 63c0 44 20 65 67 65c48 0 68 -20 68 -65zM162 843c0 -47 -23 -63 -68 -63c-50 0 -66 24 -66 63c0 44 19 65 66 65c48 0 68 -20 68 -65zM369 0h-329v109h94v509h-94v109h329v-109h-94v-509h94v-109z" />
    <glyph glyph-name="Igrave" unicode="&#xcc;" horiz-adv-x="409" 
d="M286 780h-97l-161 176h138zM369 0h-329v109h94v509h-94v109h329v-109h-94v-509h94v-109z" />
    <glyph glyph-name="Ntilde" unicode="&#xd1;" horiz-adv-x="725" 
d="M556 914c-5 -77 -40 -134 -124 -134c-68 0 -102 48 -140 48c-27 0 -41 -24 -42 -48h-83c3 75 42 134 123 134c67 0 105 -47 141 -47c23 0 43 25 43 47h82zM655 0h-154l-299 533v-533h-132v727h170l283 -501v501h132v-727z" />
    <glyph glyph-name="Oacute" unicode="&#xd3;" horiz-adv-x="769" 
d="M551 956l-160 -176h-96l119 176h137zM723 363c0 -234 -88 -378 -338 -378s-339 144 -339 378c0 236 89 379 339 379c249 0 338 -143 338 -379zM575 363c0 175 -51 264 -190 264c-141 0 -191 -89 -191 -264c0 -174 50 -263 191 -263c139 0 190 89 190 263z" />
    <glyph glyph-name="Ocircumflex" unicode="&#xd4;" horiz-adv-x="769" 
d="M568 780h-103l-83 98l-88 -98h-98l126 176h120zM723 363c0 -234 -88 -378 -338 -378s-339 144 -339 378c0 236 89 379 339 379c249 0 338 -143 338 -379zM575 363c0 175 -51 264 -190 264c-141 0 -191 -89 -191 -264c0 -174 50 -263 191 -263c139 0 190 89 190 263z" />
    <glyph glyph-name="Odieresis" unicode="&#xd6;" horiz-adv-x="769" 
d="M558 843c0 -47 -23 -63 -68 -63c-50 0 -67 24 -67 63c0 44 20 65 67 65c48 0 68 -20 68 -65zM339 843c0 -47 -23 -63 -68 -63c-50 0 -66 24 -66 63c0 44 19 65 66 65c48 0 68 -20 68 -65zM723 363c0 -234 -88 -378 -338 -378s-339 144 -339 378c0 236 89 379 339 379
c249 0 338 -143 338 -379zM575 363c0 175 -51 264 -190 264c-141 0 -191 -89 -191 -264c0 -174 50 -263 191 -263c139 0 190 89 190 263z" />
    <glyph glyph-name="Ograve" unicode="&#xd2;" horiz-adv-x="769" 
d="M468 780h-97l-161 176h138zM723 363c0 -234 -88 -378 -338 -378s-339 144 -339 378c0 236 89 379 339 379c249 0 338 -143 338 -379zM575 363c0 175 -51 264 -190 264c-141 0 -191 -89 -191 -264c0 -174 50 -263 191 -263c139 0 190 89 190 263z" />
    <glyph glyph-name="Otilde" unicode="&#xd5;" horiz-adv-x="769" 
d="M577 914c-5 -77 -40 -134 -124 -134c-68 0 -102 48 -140 48c-27 0 -41 -24 -42 -48h-83c3 75 42 134 123 134c66 0 105 -47 141 -47c23 0 43 25 43 47h82zM723 363c0 -234 -88 -378 -338 -378s-339 144 -339 378c0 236 89 379 339 379c249 0 338 -143 338 -379zM575 363
c0 175 -51 264 -190 264c-141 0 -191 -89 -191 -264c0 -174 50 -263 191 -263c139 0 190 89 190 263z" />
    <glyph glyph-name="Scaron" unicode="&#x160;" horiz-adv-x="625" 
d="M500 956l-127 -176h-119l-127 176h99l88 -98l88 98h98zM596 196c0 -136 -109 -211 -280 -211c-151 0 -234 52 -295 146l115 69c38 -60 92 -100 183 -100c64 0 137 26 137 93c0 66 -47 93 -173 120c-157 33 -246 82 -246 218c0 127 97 211 271 211c127 0 212 -47 266 -133
l-112 -68c-33 52 -82 86 -154 86c-88 0 -131 -39 -131 -92c0 -56 53 -76 154 -98c133 -28 265 -70 265 -241z" />
    <glyph glyph-name="Uacute" unicode="&#xda;" horiz-adv-x="697" 
d="M522 956l-161 -176h-97l120 176h138zM632 286c0 -215 -71 -301 -284 -301c-212 0 -283 86 -283 301v441h141v-431c0 -144 32 -196 142 -196c113 0 143 56 143 194v433h141v-441z" />
    <glyph glyph-name="Ucircumflex" unicode="&#xdb;" horiz-adv-x="697" 
d="M535 780h-103l-83 98l-88 -98h-98l126 176h120zM632 286c0 -215 -71 -301 -284 -301c-212 0 -283 86 -283 301v441h141v-431c0 -144 32 -196 142 -196c113 0 143 56 143 194v433h141v-441z" />
    <glyph glyph-name="Udieresis" unicode="&#xdc;" horiz-adv-x="697" 
d="M525 843c0 -47 -23 -63 -68 -63c-51 0 -67 24 -67 63c0 44 20 65 67 65s68 -20 68 -65zM306 843c0 -47 -23 -63 -68 -63c-51 0 -66 24 -66 63c0 44 19 65 66 65s68 -20 68 -65zM632 286c0 -215 -71 -301 -284 -301c-212 0 -283 86 -283 301v441h141v-431
c0 -144 32 -196 142 -196c113 0 143 56 143 194v433h141v-441z" />
    <glyph glyph-name="Ugrave" unicode="&#xd9;" horiz-adv-x="697" 
d="M441 780h-97l-161 176h138zM632 286c0 -215 -71 -301 -284 -301c-212 0 -283 86 -283 301v441h141v-431c0 -144 32 -196 142 -196c113 0 143 56 143 194v433h141v-441z" />
    <glyph glyph-name="Yacute" unicode="&#xdd;" horiz-adv-x="647" 
d="M504 956l-161 -176h-97l120 176h138zM639 727l-246 -433v-294h-141v286l-244 441h154l164 -304l169 304h144z" />
    <glyph glyph-name="Ydieresis" unicode="&#x178;" horiz-adv-x="647" 
d="M500 843c0 -47 -23 -63 -68 -63c-50 0 -67 24 -67 63c0 44 20 65 67 65c48 0 68 -20 68 -65zM281 843c0 -47 -23 -63 -68 -63c-50 0 -66 24 -66 63c0 44 19 65 66 65c48 0 68 -20 68 -65zM639 727l-246 -433v-294h-141v286l-244 441h154l164 -304l169 304h144z" />
    <glyph glyph-name="Zcaron" unicode="&#x17d;" horiz-adv-x="637" 
d="M505 956l-127 -176h-119l-127 176h99l88 -98l88 98h98zM593 0h-554v104l361 505h-344v118h527v-99l-366 -510h376v-118z" />
    <glyph glyph-name="aacute" unicode="&#xe1;" horiz-adv-x="551" 
d="M491 0h-121v53c-45 -35 -96 -68 -168 -68c-101 0 -164 69 -164 167c0 126 94 166 220 178l104 9v21c0 58 -37 78 -102 78c-67 0 -106 -19 -140 -49l-63 86c48 40 116 60 210 60c148 0 224 -49 224 -184v-351zM362 139v114l-67 -7c-87 -9 -127 -33 -127 -92
c0 -48 31 -69 75 -69c41 0 79 24 119 54zM449 766l-161 -176h-97l120 176h138z" />
    <glyph glyph-name="acircumflex" unicode="&#xe2;" horiz-adv-x="551" 
d="M491 0h-121v53c-45 -35 -96 -68 -168 -68c-101 0 -164 69 -164 167c0 126 94 166 220 178l104 9v21c0 58 -37 78 -102 78c-67 0 -106 -19 -140 -49l-63 86c48 40 116 60 210 60c148 0 224 -49 224 -184v-351zM457 590h-103l-83 98l-88 -98h-98l126 176h120zM362 139v114
l-67 -7c-87 -9 -127 -33 -127 -92c0 -48 31 -69 75 -69c41 0 79 24 119 54z" />
    <glyph glyph-name="adieresis" unicode="&#xe4;" horiz-adv-x="551" 
d="M491 0h-121v53c-45 -35 -96 -68 -168 -68c-101 0 -164 69 -164 167c0 126 94 166 220 178l104 9v21c0 58 -37 78 -102 78c-67 0 -106 -19 -140 -49l-63 86c48 40 116 60 210 60c148 0 224 -49 224 -184v-351zM362 139v114l-67 -7c-87 -9 -127 -33 -127 -92
c0 -48 31 -69 75 -69c41 0 79 24 119 54zM448 651c0 -47 -23 -63 -68 -63c-50 0 -67 24 -67 63c0 44 20 65 67 65c48 0 68 -20 68 -65zM229 651c0 -47 -23 -63 -68 -63c-50 0 -66 24 -66 63c0 44 19 65 66 65c48 0 68 -20 68 -65z" />
    <glyph glyph-name="agrave" unicode="&#xe0;" horiz-adv-x="551" 
d="M491 0h-121v53c-45 -35 -96 -68 -168 -68c-101 0 -164 69 -164 167c0 126 94 166 220 178l104 9v21c0 58 -37 78 -102 78c-67 0 -106 -19 -140 -49l-63 86c48 40 116 60 210 60c148 0 224 -49 224 -184v-351zM362 139v114l-67 -7c-87 -9 -127 -33 -127 -92
c0 -48 31 -69 75 -69c41 0 79 24 119 54zM361 590h-97l-161 176h138z" />
    <glyph glyph-name="aring" unicode="&#xe5;" horiz-adv-x="551" 
d="M491 0h-121v53c-45 -35 -96 -68 -168 -68c-101 0 -164 69 -164 167c0 126 94 166 220 178l104 9v21c0 58 -37 78 -102 78c-67 0 -106 -19 -140 -49l-63 86c48 40 116 60 210 60c148 0 224 -49 224 -184v-351zM372 672c0 -59 -33 -99 -105 -99c-75 0 -105 43 -105 99
c0 58 32 99 105 99c72 0 105 -40 105 -99zM362 139v114l-67 -7c-87 -9 -127 -33 -127 -92c0 -48 31 -69 75 -69c41 0 79 24 119 54zM314 672c0 30 -17 43 -47 43c-31 0 -47 -15 -47 -43c0 -27 14 -43 47 -43c32 0 47 15 47 43z" />
    <glyph glyph-name="atilde" unicode="&#xe3;" horiz-adv-x="551" 
d="M491 0h-121v53c-45 -35 -96 -68 -168 -68c-101 0 -164 69 -164 167c0 126 94 166 220 178l104 9v21c0 58 -37 78 -102 78c-67 0 -106 -19 -140 -49l-63 86c48 40 116 60 210 60c148 0 224 -49 224 -184v-351zM464 745c-5 -77 -40 -134 -124 -134c-68 0 -102 48 -140 48
c-26 0 -42 -24 -42 -48h-83c3 75 42 134 123 134c67 0 105 -47 141 -47c24 0 41 25 43 47h82zM362 139v114l-67 -7c-87 -9 -127 -33 -127 -92c0 -48 31 -69 75 -69c41 0 79 24 119 54z" />
    <glyph glyph-name="ccedilla" unicode="&#xe7;" horiz-adv-x="501" 
d="M487 434l-94 -58c-23 36 -55 56 -101 56c-97 0 -120 -74 -120 -173c0 -97 25 -171 126 -171c47 0 83 20 108 38l66 -88c-43 -29 -93 -49 -161 -52l-1 -3c43 -9 75 -42 75 -87c0 -59 -53 -89 -137 -89c-51 0 -107 14 -133 27l35 60c22 -8 57 -16 95 -16c28 0 41 9 41 24
c0 27 -29 38 -79 40l27 47c-139 21 -196 121 -196 270c0 171 73 276 252 276c87 0 152 -31 197 -101z" />
    <glyph glyph-name="eacute" unicode="&#xe9;" horiz-adv-x="544" 
d="M451 766l-161 -176h-97l120 176h138zM508 216h-336c4 -78 46 -128 124 -128c49 0 88 20 113 40l65 -89c-35 -25 -92 -54 -187 -54c-156 0 -249 82 -249 272c0 162 62 278 246 278c161 0 224 -95 224 -242v-77zM384 310c0 87 -31 129 -99 129c-70 0 -106 -40 -113 -129
h212z" />
    <glyph glyph-name="ecircumflex" unicode="&#xea;" horiz-adv-x="544" 
d="M465 590h-103l-83 98l-88 -98h-98l126 176h120zM508 216h-336c4 -78 46 -128 124 -128c49 0 88 20 113 40l65 -89c-35 -25 -92 -54 -187 -54c-156 0 -249 82 -249 272c0 162 62 278 246 278c161 0 224 -95 224 -242v-77zM384 310c0 87 -31 129 -99 129
c-70 0 -106 -40 -113 -129h212z" />
    <glyph glyph-name="edieresis" unicode="&#xeb;" horiz-adv-x="544" 
d="M456 651c0 -47 -23 -63 -68 -63c-51 0 -67 24 -67 63c0 44 20 65 67 65c48 0 68 -20 68 -65zM237 651c0 -47 -23 -63 -68 -63c-51 0 -66 24 -66 63c0 44 19 65 66 65c48 0 68 -20 68 -65zM508 216h-336c4 -78 46 -128 124 -128c49 0 88 20 113 40l65 -89
c-35 -25 -92 -54 -187 -54c-156 0 -249 82 -249 272c0 162 62 278 246 278c161 0 224 -95 224 -242v-77zM384 310c0 87 -31 129 -99 129c-70 0 -106 -40 -113 -129h212z" />
    <glyph glyph-name="egrave" unicode="&#xe8;" horiz-adv-x="544" 
d="M367 590h-97l-161 176h138zM508 216h-336c4 -78 46 -128 124 -128c49 0 88 20 113 40l65 -89c-35 -25 -92 -54 -187 -54c-156 0 -249 82 -249 272c0 162 62 278 246 278c161 0 224 -95 224 -242v-77zM384 310c0 87 -31 129 -99 129c-70 0 -106 -40 -113 -129h212z" />
    <glyph glyph-name="iacute" unicode="&#xed;" horiz-adv-x="305" 
d="M323 766l-161 -176h-97l120 176h138zM236 0h-129v424h-82v96h211v-520z" />
    <glyph glyph-name="icircumflex" unicode="&#xee;" horiz-adv-x="305" 
d="M335 590h-103l-83 98l-88 -98h-98l126 176h120zM236 0h-129v424h-82v96h211v-520z" />
    <glyph glyph-name="idieresis" unicode="&#xef;" horiz-adv-x="305" 
d="M325 651c0 -47 -23 -63 -68 -63c-50 0 -67 24 -67 63c0 44 20 65 67 65c48 0 68 -20 68 -65zM106 651c0 -47 -23 -63 -68 -63c-50 0 -66 24 -66 63c0 44 19 65 66 65c48 0 68 -20 68 -65zM236 0h-129v424h-82v96h211v-520z" />
    <glyph glyph-name="igrave" unicode="&#xec;" horiz-adv-x="305" 
d="M236 590h-97l-161 176h138zM236 0h-129v424h-82v96h211v-520z" />
    <glyph glyph-name="ntilde" unicode="&#xf1;" horiz-adv-x="578" 
d="M483 745c-5 -77 -40 -134 -124 -134c-69 0 -101 48 -140 48c-27 0 -41 -24 -42 -48h-83c5 75 41 134 123 134c65 0 106 -47 141 -47c23 0 43 25 43 47h82zM518 0h-129v306c0 87 -14 117 -67 117c-35 0 -86 -29 -129 -65v-358h-129v520h121v-62c53 45 115 77 175 77
c106 0 158 -60 158 -189v-346z" />
    <glyph glyph-name="oacute" unicode="&#xf3;" horiz-adv-x="579" 
d="M458 766l-161 -176h-97l120 176h138zM541 259c0 -143 -55 -274 -251 -274c-197 0 -252 131 -252 274c0 146 54 276 252 276c196 0 251 -131 251 -276zM407 259c0 121 -38 173 -117 173c-80 0 -118 -52 -118 -173c0 -118 38 -171 118 -171c79 0 117 54 117 171z" />
    <glyph glyph-name="ocircumflex" unicode="&#xf4;" horiz-adv-x="579" 
d="M475 590h-103l-83 98l-88 -98h-98l126 176h120zM541 259c0 -143 -55 -274 -251 -274c-197 0 -252 131 -252 274c0 146 54 276 252 276c196 0 251 -131 251 -276zM407 259c0 121 -38 173 -117 173c-80 0 -118 -52 -118 -173c0 -118 38 -171 118 -171c79 0 117 54 117 171z
" />
    <glyph glyph-name="odieresis" unicode="&#xf6;" horiz-adv-x="579" 
d="M465 651c0 -47 -23 -63 -68 -63c-51 0 -67 24 -67 63c0 44 20 65 67 65s68 -20 68 -65zM246 651c0 -47 -23 -63 -68 -63c-51 0 -66 24 -66 63c0 44 19 65 66 65s68 -20 68 -65zM541 259c0 -143 -55 -274 -251 -274c-197 0 -252 131 -252 274c0 146 54 276 252 276
c196 0 251 -131 251 -276zM407 259c0 121 -38 173 -117 173c-80 0 -118 -52 -118 -173c0 -118 38 -171 118 -171c79 0 117 54 117 171z" />
    <glyph glyph-name="ograve" unicode="&#xf2;" horiz-adv-x="579" 
d="M385 590h-97l-161 176h138zM541 259c0 -143 -55 -274 -251 -274c-197 0 -252 131 -252 274c0 146 54 276 252 276c196 0 251 -131 251 -276zM407 259c0 121 -38 173 -117 173c-80 0 -118 -52 -118 -173c0 -118 38 -171 118 -171c79 0 117 54 117 171z" />
    <glyph glyph-name="otilde" unicode="&#xf5;" horiz-adv-x="579" 
d="M484 745c-5 -77 -40 -134 -124 -134c-69 0 -101 48 -140 48c-27 0 -41 -24 -42 -48h-83c5 75 41 134 123 134c65 0 106 -47 141 -47c23 0 43 25 43 47h82zM541 259c0 -143 -55 -274 -251 -274c-197 0 -252 131 -252 274c0 146 54 276 252 276c196 0 251 -131 251 -276z
M407 259c0 121 -38 173 -117 173c-80 0 -118 -52 -118 -173c0 -118 38 -171 118 -171c79 0 117 54 117 171z" />
    <glyph glyph-name="scaron" unicode="&#x161;" horiz-adv-x="498" 
d="M443 766l-127 -176h-119l-127 176h99l88 -98l88 98h98zM465 151c0 -121 -110 -166 -222 -166c-88 0 -174 28 -215 100l94 57c27 -43 75 -60 122 -60c45 0 97 11 97 55c0 30 -25 43 -90 59c-110 27 -206 57 -206 178c0 116 105 161 210 161c86 0 161 -29 203 -95l-94 -56
c-23 35 -63 54 -111 54c-52 0 -84 -17 -84 -53c0 -38 46 -49 116 -67c85 -22 180 -49 180 -167z" />
    <glyph glyph-name="uacute" unicode="&#xfa;" horiz-adv-x="578" 
d="M467 766l-161 -176h-97l120 176h138zM514 0h-121v62c-53 -45 -115 -77 -175 -77c-106 0 -158 61 -158 190v345h129v-306c0 -87 14 -117 67 -117c35 0 86 29 129 65v358h129v-520z" />
    <glyph glyph-name="ucircumflex" unicode="&#xfb;" horiz-adv-x="578" 
d="M471 590h-103l-83 98l-88 -98h-98l126 176h120zM514 0h-121v62c-53 -45 -115 -77 -175 -77c-106 0 -158 61 -158 190v345h129v-306c0 -87 14 -117 67 -117c35 0 86 29 129 65v358h129v-520z" />
    <glyph glyph-name="udieresis" unicode="&#xfc;" horiz-adv-x="578" 
d="M461 651c0 -47 -23 -63 -68 -63c-50 0 -67 24 -67 63c0 44 20 65 67 65c48 0 68 -20 68 -65zM242 651c0 -47 -23 -63 -68 -63c-50 0 -66 24 -66 63c0 44 19 65 66 65c48 0 68 -20 68 -65zM514 0h-121v62c-53 -45 -115 -77 -175 -77c-106 0 -158 61 -158 190v345h129v-306
c0 -87 14 -117 67 -117c35 0 86 29 129 65v358h129v-520z" />
    <glyph glyph-name="ugrave" unicode="&#xf9;" horiz-adv-x="578" 
d="M377 590h-97l-161 176h138zM514 0h-121v62c-53 -45 -115 -77 -175 -77c-106 0 -158 61 -158 190v345h129v-306c0 -87 14 -117 67 -117c35 0 86 29 129 65v358h129v-520z" />
    <glyph glyph-name="yacute" unicode="&#xfd;" horiz-adv-x="543" 
d="M448 766l-161 -176h-97l120 176h138zM533 520l-219 -562c-45 -115 -114 -151 -209 -151c-33 0 -80 6 -114 17l29 99c29 -11 64 -17 85 -17c44 0 71 28 97 90l10 24l-198 500h133l128 -344l130 344h128z" />
    <glyph glyph-name="ydieresis" unicode="&#xff;" horiz-adv-x="543" 
d="M451 651c0 -47 -23 -63 -68 -63c-50 0 -67 24 -67 63c0 44 20 65 67 65c48 0 68 -20 68 -65zM232 651c0 -47 -23 -63 -68 -63c-50 0 -66 24 -66 63c0 44 19 65 66 65c48 0 68 -20 68 -65zM533 520l-219 -562c-45 -115 -114 -151 -209 -151c-33 0 -80 6 -114 17l29 99
c29 -11 64 -17 85 -17c44 0 71 28 97 90l10 24l-198 500h133l128 -344l130 344h128z" />
    <glyph glyph-name="zcaron" unicode="&#x17e;" horiz-adv-x="502" 
d="M449 766l-127 -176h-119l-127 176h99l88 -98l88 98h98zM464 0h-423v79l254 345h-248v96h409v-77l-255 -346h263v-97z" />
    <glyph glyph-name="parenleft.superior" unicode="&#x207d;" horiz-adv-x="260" 
d="M274 166h-122c-76 84 -112 195 -112 312c0 112 37 221 118 313h122c-78 -83 -135 -192 -135 -313c0 -115 47 -215 129 -312z" />
    <glyph glyph-name="parenright.superior" unicode="&#x207e;" horiz-adv-x="260" 
d="M108 166h-122c82 97 129 197 129 312c0 121 -57 230 -135 313h122c81 -92 118 -201 118 -313c0 -117 -36 -228 -112 -312z" />
    <glyph glyph-name="a.superior" unicode="&#xf6e9;" horiz-adv-x="427" 
d="M383 293h-109v32c-31 -21 -68 -43 -115 -43c-80 0 -131 50 -131 127c0 91 74 120 172 132c20 2 42 4 68 5v10c0 34 -24 49 -66 49c-37 0 -78 -15 -107 -39l-54 70c42 30 97 53 169 53c116 0 173 -37 173 -139v-257zM268 404v67l-39 -4c-58 -6 -85 -21 -85 -56
c0 -28 19 -40 46 -40c26 0 51 15 78 33z" />
    <glyph glyph-name="b.superior" unicode="&#xf6ea;" horiz-adv-x="453" 
d="M425 490c0 -124 -64 -206 -171 -206c-36 0 -70 6 -104 22l-53 -16h-50v536h116v-163c28 17 64 28 98 28c112 0 164 -80 164 -201zM306 489c0 75 -19 115 -71 115c-28 0 -54 -13 -72 -30v-188c15 -7 35 -15 71 -15c44 0 72 34 72 118z" />
    <glyph glyph-name="d.superior" unicode="&#xf6eb;" horiz-adv-x="453" 
d="M406 293h-110v23c-28 -20 -65 -34 -104 -34c-110 0 -164 80 -164 201c0 131 63 206 172 206c35 0 66 -9 91 -21v156h115v-531zM291 400v181c-22 13 -39 21 -73 21c-44 0 -71 -34 -71 -118c0 -75 21 -115 71 -115c28 0 54 13 73 31z" />
    <glyph glyph-name="e.superior" unicode="&#xf6ec;" horiz-adv-x="422" 
d="M395 448h-247c5 -45 33 -73 81 -73c33 0 70 15 93 29l52 -74c-31 -21 -79 -46 -152 -46c-121 0 -194 61 -194 201c0 120 54 206 192 206c126 0 175 -71 175 -180v-63zM221 608c-46 0 -67 -26 -73 -76h136c-2 49 -20 76 -63 76z" />
    <glyph glyph-name="i.superior" unicode="&#x2071;" horiz-adv-x="244" 
d="M200 762c0 -39 -25 -57 -68 -57c-45 0 -69 20 -69 57c0 39 26 58 69 58c33 0 68 -13 68 -58zM193 293h-115v299h-60v86h175v-385z" />
    <glyph glyph-name="l.superior" unicode="&#xf6ee;" horiz-adv-x="251" 
d="M226 384l27 -86c-25 -7 -62 -14 -91 -14c-93 0 -117 45 -117 129v385l115 59v-434c0 -35 9 -47 25 -47c11 0 22 2 41 8z" />
    <glyph glyph-name="m.superior" unicode="&#xf6ef;" horiz-adv-x="654" 
d="M610 293h-115v225c0 57 -5 74 -35 74c-22 0 -50 -14 -74 -36v-263h-115v225c0 60 -10 74 -35 74c-26 0 -53 -18 -73 -36v-263h-116v385h110v-40c31 31 69 51 112 51c52 0 82 -21 98 -59c36 34 80 59 126 59c91 0 117 -55 117 -140v-256z" />
    <glyph glyph-name="n.superior" unicode="&#x207f;" horiz-adv-x="447" 
d="M403 293h-115v225c0 55 -11 74 -43 74c-26 0 -54 -15 -82 -41v-258h-116v385h110v-34c37 27 78 45 119 45c85 0 127 -46 127 -143v-253z" />
    <glyph glyph-name="o.superior" unicode="&#xf6f0;" horiz-adv-x="448" 
d="M415 487c0 -106 -43 -203 -196 -203s-196 97 -196 203c0 108 42 204 196 204c153 0 196 -97 196 -204zM296 487c0 79 -25 113 -77 113s-77 -34 -77 -113c0 -77 25 -112 77 -112s77 35 77 112z" />
    <glyph glyph-name="r.superior" unicode="&#xf6f1;" horiz-adv-x="318" 
d="M313 673l-17 -105c-16 5 -30 7 -42 7c-37 0 -68 -19 -91 -40v-242h-116v385h110v-46c27 27 62 52 105 52c15 0 35 -4 51 -11z" />
    <glyph glyph-name="s.superior" unicode="&#xf6f2;" horiz-adv-x="391" 
d="M367 411c0 -92 -87 -127 -174 -127c-69 0 -138 22 -175 78l74 56c22 -33 74 -50 110 -50c23 0 53 3 53 30c0 21 -20 28 -59 38c-84 21 -160 41 -160 132c0 88 83 123 165 123c67 0 132 -27 165 -75l-69 -52c-23 26 -63 43 -102 43c-32 0 -47 -12 -47 -31
c0 -27 31 -29 78 -41c66 -16 141 -34 141 -124z" />
    <glyph glyph-name="t.superior" unicode="&#xf6f3;" horiz-adv-x="288" 
d="M256 386l28 -84c-22 -7 -67 -18 -96 -18c-98 0 -127 44 -127 139v171h-55v86h55v98l115 54v-152h89v-86h-89v-161c0 -43 3 -59 31 -59c11 0 28 4 49 12z" />
    <glyph glyph-name="parenleft.inferior" unicode="&#x208d;" horiz-adv-x="260" 
d="M274 -91h-122c-76 84 -112 195 -112 312c0 112 37 221 118 313h122c-78 -83 -135 -192 -135 -313c0 -115 47 -215 129 -312z" />
    <glyph glyph-name="parenright.inferior" unicode="&#x208e;" horiz-adv-x="260" 
d="M108 -90h-122c82 97 129 197 129 312c0 121 -57 230 -135 313h122c81 -92 118 -201 118 -313c0 -117 -36 -228 -112 -312z" />
    <glyph glyph-name="oneeighth" unicode="&#x215b;" horiz-adv-x="1058" 
d="M1004 -34c0 -80 -75 -132 -188 -132c-121 0 -188 47 -188 127c0 43 32 89 79 115c-30 18 -67 49 -67 100c0 70 62 116 176 116c112 0 176 -40 176 -116c0 -46 -33 -80 -65 -100c42 -24 77 -59 77 -110zM874 162c0 23 -15 46 -58 46c-44 0 -58 -25 -58 -45
c0 -23 14 -39 59 -55c40 13 57 32 57 54zM885 -30c0 25 -24 53 -69 69c-39 -16 -69 -38 -69 -70c0 -26 18 -51 69 -51s69 25 69 52zM798 727l-394 -878h-117l393 878h118zM403 293h-299v93h98v202c-31 -14 -68 -26 -109 -32v92c66 19 111 46 144 94h81v-356h85v-93z" />
    <glyph glyph-name="threeeighths" unicode="&#x215c;" horiz-adv-x="1058" 
d="M1004 -34c0 -80 -75 -132 -188 -132c-121 0 -188 47 -188 127c0 43 32 89 79 115c-30 18 -67 49 -67 100c0 70 62 116 176 116c112 0 176 -40 176 -116c0 -46 -33 -80 -65 -100c42 -24 77 -59 77 -110zM874 162c0 23 -15 46 -58 46c-44 0 -58 -25 -58 -45
c0 -23 14 -39 59 -55c40 13 57 32 57 54zM885 -30c0 25 -24 53 -69 69c-39 -16 -69 -38 -69 -70c0 -26 18 -51 69 -51s69 25 69 52zM798 727l-394 -878h-117l393 878h118zM421 437c0 -107 -82 -156 -189 -156c-54 0 -121 13 -172 82l80 54c19 -25 49 -45 85 -45
c49 0 73 25 73 66c0 35 -28 58 -74 58c-20 0 -36 -2 -53 -6v46l99 105h-176v92h312v-77l-85 -94c70 -14 100 -64 100 -125z" />
    <glyph glyph-name="fiveeighths" unicode="&#x215d;" horiz-adv-x="1058" 
d="M1004 -34c0 -80 -75 -132 -188 -132c-121 0 -188 47 -188 127c0 43 32 89 79 115c-30 18 -67 49 -67 100c0 70 62 116 176 116c112 0 176 -40 176 -116c0 -46 -33 -80 -65 -100c42 -24 77 -59 77 -110zM874 162c0 23 -15 46 -58 46c-44 0 -58 -25 -58 -45
c0 -23 14 -39 59 -55c40 13 57 32 57 54zM885 -30c0 25 -24 53 -69 69c-39 -16 -69 -38 -69 -70c0 -26 18 -51 69 -51s69 25 69 52zM798 727l-394 -878h-117l393 878h118zM439 442c0 -81 -61 -158 -194 -158c-78 0 -144 35 -184 84l75 56c26 -28 68 -48 106 -48
c48 0 76 25 76 62c0 38 -37 58 -81 58c-28 0 -56 -8 -80 -20h-64l33 257h290v-90h-199l-7 -62c15 3 48 5 62 5c83 0 167 -39 167 -144z" />
    <glyph glyph-name="seveneighths" unicode="&#x215e;" horiz-adv-x="1058" 
d="M1004 -34c0 -80 -75 -132 -188 -132c-121 0 -188 47 -188 127c0 43 32 89 79 115c-30 18 -67 49 -67 100c0 70 62 116 176 116c112 0 176 -40 176 -116c0 -46 -33 -80 -65 -100c42 -24 77 -59 77 -110zM874 162c0 23 -15 46 -58 46c-44 0 -58 -25 -58 -45
c0 -23 14 -39 59 -55c40 13 57 32 57 54zM885 -30c0 25 -24 53 -69 69c-39 -16 -69 -38 -69 -70c0 -26 18 -51 69 -51s69 25 69 52zM798 727l-394 -878h-117l393 878h118zM487 657l-174 -373h-128l172 357h-133v-60h-89v152h352v-76z" />
    <glyph glyph-name="onethird" unicode="&#x2153;" horiz-adv-x="1058" 
d="M798 727l-394 -878h-117l393 878h118zM403 293h-299v93h98v202c-31 -14 -68 -26 -109 -32v92c66 19 111 46 144 94h81v-356h85v-93zM1001 -10c0 -107 -82 -156 -189 -156c-54 0 -121 13 -172 82l80 54c19 -25 49 -45 85 -45c49 0 73 25 73 66c0 35 -28 58 -74 58
c-20 0 -36 -2 -53 -6v46l99 105h-176v92h312v-77l-85 -94c70 -14 100 -64 100 -125z" />
    <glyph glyph-name="twothirds" unicode="&#x2154;" horiz-adv-x="1058" 
d="M798 727l-394 -878h-117l393 878h118zM1001 -10c0 -107 -82 -156 -189 -156c-54 0 -121 13 -172 82l80 54c19 -25 49 -45 85 -45c49 0 73 25 73 66c0 35 -28 58 -74 58c-20 0 -36 -2 -53 -6v46l99 105h-176v92h312v-77l-85 -94c70 -14 100 -64 100 -125zM429 293h-393v83
c57 37 101 71 147 105c30 23 53 40 69 55c24 23 35 43 35 65c0 25 -20 44 -69 44c-44 0 -73 -14 -111 -50l-78 65c39 42 90 82 196 82c91 0 188 -35 188 -132c0 -57 -27 -92 -62 -124c-38 -34 -80 -65 -125 -96h203v-97z" />
    <glyph glyph-name="zero.superior" unicode="&#x2070;" 
d="M438 513c0 -130 -39 -229 -196 -229s-196 100 -196 229c0 130 39 229 196 229s196 -99 196 -229zM318 513c0 104 -18 136 -76 136c-57 0 -75 -33 -75 -136c0 -100 18 -136 75 -136c58 0 76 34 76 136z" />
    <glyph glyph-name="four.superior" unicode="&#x2074;" 
d="M434 375h-58v-94h-114v94h-219v90l218 277h115v-279h58v-88zM265 459v145l-113 -145h113z" />
    <glyph glyph-name="five.superior" unicode="&#x2075;" 
d="M424 442c0 -81 -61 -158 -194 -158c-78 0 -144 35 -184 84l75 56c26 -28 68 -48 106 -48c48 0 76 25 76 62c0 38 -37 58 -81 58c-28 0 -56 -8 -80 -20h-64l33 257h290v-90h-199l-7 -62c15 3 48 5 62 5c83 0 167 -39 167 -144z" />
    <glyph glyph-name="six.superior" unicode="&#x2076;" 
d="M432 444c0 -95 -69 -160 -185 -160c-133 0 -195 88 -195 205c0 131 46 253 213 253c59 0 106 -15 152 -47l-54 -75c-32 22 -66 32 -99 32c-48 0 -91 -26 -91 -86c30 16 65 21 95 21c81 0 164 -42 164 -143zM312 442c0 41 -29 58 -67 58c-25 0 -54 -9 -71 -19
c-1 -8 -1 -11 -1 -17c2 -51 31 -84 74 -84c41 0 65 20 65 62z" />
    <glyph glyph-name="seven.superior" unicode="&#x2077;" 
d="M425 657l-174 -373h-128l172 357h-133v-60h-89v152h352v-76z" />
    <glyph glyph-name="eight.superior" unicode="&#x2078;" 
d="M430 416c0 -80 -75 -132 -188 -132c-121 0 -188 47 -188 127c0 43 32 89 79 115c-30 18 -67 49 -67 100c0 70 62 116 176 116c112 0 176 -40 176 -116c0 -46 -33 -80 -65 -100c42 -24 77 -59 77 -110zM300 612c0 23 -15 46 -58 46c-44 0 -58 -25 -58 -45
c0 -23 14 -39 59 -55c40 13 57 32 57 54zM311 420c0 25 -24 53 -69 69c-39 -16 -69 -38 -69 -70c0 -26 18 -51 69 -51s69 25 69 52z" />
    <glyph glyph-name="nine.superior" unicode="&#x2079;" 
d="M52 582c0 95 69 160 185 160c133 0 195 -88 195 -205c0 -131 -46 -253 -213 -253c-59 0 -106 15 -152 47l54 75c32 -22 66 -32 99 -32c48 0 91 28 91 88c-30 -16 -65 -21 -95 -21c-81 0 -164 40 -164 141zM172 584c0 -41 29 -56 67 -56c25 0 54 7 71 17c1 8 1 13 1 19
c-2 51 -31 82 -74 82c-41 0 -65 -20 -65 -62z" />
    <glyph glyph-name="zero.inferior" unicode="&#x2080;" 
d="M438 103c0 -130 -39 -229 -196 -229s-196 100 -196 229c0 130 39 229 196 229s196 -99 196 -229zM318 103c0 104 -18 136 -76 136c-57 0 -75 -33 -75 -136c0 -100 18 -136 75 -136c58 0 76 34 76 136z" />
    <glyph glyph-name="one.inferior" unicode="&#x2081;" 
d="M403 -117h-299v93h98v202c-31 -14 -68 -26 -109 -32v92c66 19 111 46 144 94h81v-356h85v-93z" />
    <glyph glyph-name="two.inferior" unicode="&#x2082;" 
d="M446 -117h-393v83c57 37 101 71 147 105c30 23 53 40 69 55c24 23 35 43 35 65c0 25 -20 44 -69 44c-44 0 -73 -14 -111 -50l-78 65c39 42 90 82 196 82c91 0 188 -35 188 -132c0 -57 -27 -92 -62 -124c-38 -34 -80 -65 -125 -96h203v-97z" />
    <glyph glyph-name="three.inferior" unicode="&#x2083;" 
d="M416 30c0 -107 -82 -156 -189 -156c-54 0 -121 13 -172 82l80 54c19 -25 49 -45 85 -45c49 0 73 25 73 66c0 35 -28 58 -74 58c-20 0 -36 -2 -53 -6v46l99 105h-176v92h312v-77l-85 -94c70 -14 100 -64 100 -125z" />
    <glyph glyph-name="four.inferior" unicode="&#x2084;" 
d="M434 -35h-58v-94h-114v94h-219v90l218 277h115v-279h58v-88zM265 49v145l-113 -145h113z" />
    <glyph glyph-name="five.inferior" unicode="&#x2085;" 
d="M424 35c0 -81 -61 -158 -194 -158c-78 0 -144 35 -184 84l75 56c26 -28 68 -48 106 -48c48 0 76 25 76 62c0 38 -37 58 -81 58c-28 0 -56 -8 -80 -20h-64l33 257h290v-90h-199l-7 -62c15 3 48 5 62 5c83 0 167 -39 167 -144z" />
    <glyph glyph-name="six.inferior" unicode="&#x2086;" 
d="M432 34c0 -95 -69 -160 -185 -160c-133 0 -195 88 -195 205c0 131 46 253 213 253c59 0 106 -15 152 -47l-54 -75c-32 22 -66 32 -99 32c-48 0 -91 -26 -91 -86c30 16 65 21 95 21c81 0 164 -42 164 -143zM312 32c0 41 -29 58 -67 58c-25 0 -54 -9 -71 -19
c-1 -8 -1 -11 -1 -17c2 -51 31 -84 74 -84c41 0 65 20 65 62z" />
    <glyph glyph-name="seven.inferior" unicode="&#x2087;" 
d="M425 250l-174 -373h-128l172 357h-133v-60h-89v152h352v-76z" />
    <glyph glyph-name="eight.inferior" unicode="&#x2088;" 
d="M430 6c0 -80 -75 -132 -188 -132c-121 0 -188 47 -188 127c0 43 32 89 79 115c-30 18 -67 49 -67 100c0 70 62 116 176 116c112 0 176 -40 176 -116c0 -46 -33 -80 -65 -100c42 -24 77 -59 77 -110zM300 202c0 23 -15 46 -58 46c-44 0 -58 -25 -58 -45
c0 -23 14 -39 59 -55c40 13 57 32 57 54zM311 10c0 25 -24 53 -69 69c-39 -16 -69 -38 -69 -70c0 -26 18 -51 69 -51s69 25 69 52z" />
    <glyph glyph-name="nine.inferior" unicode="&#x2089;" 
d="M52 172c0 95 69 160 185 160c133 0 195 -88 195 -205c0 -131 -46 -253 -213 -253c-59 0 -106 15 -152 47l54 75c32 -22 66 -32 99 -32c48 0 91 28 91 88c-30 -16 -65 -21 -95 -21c-81 0 -164 40 -164 141zM172 174c0 -41 29 -56 67 -56c25 0 54 7 71 17c1 8 1 13 1 19
c-2 51 -31 82 -74 82c-41 0 -65 -20 -65 -62z" />
    <glyph glyph-name="commaaccent" unicode="&#xf6c3;" horiz-adv-x="229" 
d="M189 -104c0 -40 -25 -77 -42 -91h-74c13 13 23 34 24 54c-41 0 -57 29 -57 52c0 35 22 65 75 65c52 0 74 -33 74 -80z" />
    <glyph glyph-name="Abreve" unicode="&#x102;" horiz-adv-x="691" 
d="M678 0h-146l-55 168h-271l-54 -168h-139l239 727h183zM441 281l-100 310l-101 -310h201zM530 918c-15 -53 -51 -138 -186 -138c-132 0 -168 82 -184 138h91c19 -32 44 -52 93 -52c36 0 64 11 82 33c5 6 9 12 13 19h91z" />
    <glyph glyph-name="Amacron" unicode="&#x100;" horiz-adv-x="691" 
d="M678 0h-146l-55 168h-271l-54 -168h-139l239 727h183zM441 281l-100 310l-101 -310h201zM504 780h-318v89h318v-89z" />
    <glyph glyph-name="Aogonek" unicode="&#x104;" horiz-adv-x="691" 
d="M775 -156c-40 -21 -84 -37 -135 -37c-83 0 -124 48 -124 107c0 32 7 62 16 86l-55 168h-271l-54 -168h-139l239 727h183l243 -727h-54c-7 -23 -8 -40 -8 -57c0 -31 17 -54 50 -54c26 0 47 8 72 21zM441 281l-100 310l-101 -310h201z" />
    <glyph glyph-name="AEacute" unicode="&#x1fc;" horiz-adv-x="924" 
d="M874 0h-445v168h-220l-60 -168h-142l270 727h597v-118h-304v-173h272v-116h-272v-202h304v-118zM429 281v328h-58l-121 -328h179zM694 956l-161 -176h-97l120 176h138z" />
    <glyph glyph-name="Cacute" unicode="&#x106;" horiz-adv-x="683" 
d="M663 594l-114 -63c-26 45 -69 96 -161 96c-142 0 -194 -91 -194 -264c0 -176 54 -263 194 -263c87 0 137 42 170 70l85 -98c-73 -65 -162 -87 -255 -87c-244 0 -342 134 -342 378s98 379 342 379c161 0 234 -74 275 -148zM533 956l-161 -176h-97l120 176h138z" />
    <glyph glyph-name="Ccaron" unicode="&#x10c;" horiz-adv-x="683" 
d="M663 594l-114 -63c-26 45 -69 96 -161 96c-142 0 -194 -91 -194 -264c0 -176 54 -263 194 -263c87 0 137 42 170 70l85 -98c-73 -65 -162 -87 -255 -87c-244 0 -342 134 -342 378s98 379 342 379c161 0 234 -74 275 -148zM558 956l-127 -176h-119l-127 176h99l88 -98
l88 98h98z" />
    <glyph glyph-name="Ccircumflex" unicode="&#x108;" horiz-adv-x="683" 
d="M663 594l-114 -63c-26 45 -69 96 -161 96c-142 0 -194 -91 -194 -264c0 -176 54 -263 194 -263c87 0 137 42 170 70l85 -98c-73 -65 -162 -87 -255 -87c-244 0 -342 134 -342 378s98 379 342 379c161 0 234 -74 275 -148zM570 780h-103l-83 98l-88 -98h-98l126 176h120z
" />
    <glyph glyph-name="Cdotaccent" unicode="&#x10a;" horiz-adv-x="683" 
d="M663 594l-114 -63c-26 45 -69 96 -161 96c-142 0 -194 -91 -194 -264c0 -176 54 -263 194 -263c87 0 137 42 170 70l85 -98c-73 -65 -162 -87 -255 -87c-244 0 -342 134 -342 378s98 379 342 379c161 0 234 -74 275 -148zM438 844c0 -47 -22 -64 -67 -64
c-51 0 -67 25 -67 64c0 44 20 64 67 64s67 -19 67 -64z" />
    <glyph glyph-name="Dcaron" unicode="&#x10e;" horiz-adv-x="719" 
d="M673 363c0 -286 -132 -363 -383 -363h-220v727h218c258 0 385 -90 385 -364zM525 364c0 173 -56 246 -246 246h-68v-493h68c196 0 246 73 246 247zM540 956l-127 -176h-119l-127 176h99l88 -98l88 98h98z" />
    <glyph glyph-name="Dcroat" unicode="&#x110;" horiz-adv-x="719" 
d="M673 363c0 -286 -132 -363 -383 -363h-220v317h-60v96h60v314h218c258 0 385 -90 385 -364zM525 364c0 173 -56 246 -246 246h-68v-197h163v-96h-163v-200h68c196 0 246 73 246 247z" />
    <glyph glyph-name="Ebreve" unicode="&#x114;" horiz-adv-x="596" 
d="M546 0h-476v727h476v-118h-335v-173h303v-116h-303v-202h335v-118zM496 918c-15 -53 -51 -138 -186 -138c-132 0 -168 82 -184 138h91c19 -32 44 -52 93 -52c36 0 64 11 82 33c5 6 9 12 13 19h91z" />
    <glyph glyph-name="Ecaron" unicode="&#x11a;" horiz-adv-x="596" 
d="M546 0h-476v727h476v-118h-335v-173h303v-116h-303v-202h335v-118zM498 956l-127 -176h-119l-127 176h99l88 -98l88 98h98z" />
    <glyph glyph-name="Edotaccent" unicode="&#x116;" horiz-adv-x="596" 
d="M546 0h-476v727h476v-118h-335v-173h303v-116h-303v-202h335v-118zM377 844c0 -47 -22 -64 -67 -64c-51 0 -67 25 -67 64c0 44 20 64 67 64s67 -19 67 -64z" />
    <glyph glyph-name="Emacron" unicode="&#x112;" horiz-adv-x="596" 
d="M546 0h-476v727h476v-118h-335v-173h303v-116h-303v-202h335v-118zM466 780h-318v89h318v-89z" />
    <glyph glyph-name="Eng" unicode="&#x14a;" horiz-adv-x="725" 
d="M652 -19c0 -157 -79 -219 -224 -219c-57 0 -124 14 -162 29l41 110c26 -11 68 -24 109 -24c78 0 104 45 104 145v442c0 137 -55 163 -116 163c-64 0 -144 -41 -203 -90v-537h-133v727h122v-92c73 63 159 107 243 107c147 0 219 -83 219 -262v-499z" />
    <glyph glyph-name="Eogonek" unicode="&#x118;" horiz-adv-x="596" 
d="M562 -156c-40 -21 -84 -37 -135 -37c-83 0 -124 48 -124 107c0 32 7 62 15 86h-248v727h476v-118h-335v-173h303v-116h-303v-202h335v-118h-135c-7 -23 -8 -40 -8 -57c0 -31 17 -54 50 -54c26 0 47 8 72 21z" />
    <glyph glyph-name="Gbreve" unicode="&#x11e;" horiz-adv-x="746" 
d="M680 594l-114 -63c-28 49 -82 96 -168 96c-143 0 -204 -87 -204 -262c0 -172 55 -265 213 -265c49 0 97 13 131 27v123h-135v119h276v-312c-63 -36 -168 -72 -273 -72c-259 0 -360 137 -360 378c0 236 97 379 352 379c160 0 238 -70 282 -148zM558 918
c-15 -53 -51 -138 -186 -138c-132 0 -168 82 -184 138h91c19 -32 44 -52 93 -52c36 0 64 11 82 33c5 6 9 12 13 19h91z" />
    <glyph glyph-name="Gcircumflex" unicode="&#x11c;" horiz-adv-x="746" 
d="M680 594l-114 -63c-28 49 -82 96 -168 96c-143 0 -204 -87 -204 -262c0 -172 55 -265 213 -265c49 0 97 13 131 27v123h-135v119h276v-312c-63 -36 -168 -72 -273 -72c-259 0 -360 137 -360 378c0 236 97 379 352 379c160 0 238 -70 282 -148zM574 780h-103l-83 98
l-88 -98h-98l126 176h120z" />
    <glyph glyph-name="Gcommaaccent" unicode="&#x122;" horiz-adv-x="746" 
d="M680 594l-114 -63c-28 49 -82 96 -168 96c-143 0 -204 -87 -204 -262c0 -172 55 -265 213 -265c49 0 97 13 131 27v123h-135v119h276v-312c-63 -36 -168 -72 -273 -72c-259 0 -360 137 -360 378c0 236 97 379 352 379c160 0 238 -70 282 -148zM467 -104
c0 -40 -25 -77 -42 -91h-74c13 13 23 34 24 54c-41 0 -57 29 -57 52c0 35 22 65 75 65c52 0 74 -33 74 -80z" />
    <glyph glyph-name="Gdotaccent" unicode="&#x120;" horiz-adv-x="746" 
d="M680 594l-114 -63c-28 49 -82 96 -168 96c-143 0 -204 -87 -204 -262c0 -172 55 -265 213 -265c49 0 97 13 131 27v123h-135v119h276v-312c-63 -36 -168 -72 -273 -72c-259 0 -360 137 -360 378c0 236 97 379 352 379c160 0 238 -70 282 -148zM438 844
c0 -47 -22 -64 -67 -64c-51 0 -67 25 -67 64c0 44 20 64 67 64s67 -19 67 -64z" />
    <glyph glyph-name="Hbar" unicode="&#x126;" horiz-adv-x="706" 
d="M636 0h-141v316h-284v-316h-141v520h-60v89h60v118h141v-118h284v118h141v-118h61v-89h-61v-520zM211 434h284v86h-284v-86z" />
    <glyph glyph-name="Hcircumflex" unicode="&#x124;" horiz-adv-x="706" 
d="M636 0h-141v316h-284v-316h-141v727h141v-293h284v293h141v-727zM539 780h-103l-83 98l-88 -98h-98l126 176h120z" />
    <glyph glyph-name="Ibreve" unicode="&#x12c;" horiz-adv-x="409" 
d="M369 0h-329v109h94v509h-94v109h329v-109h-94v-509h94v-109zM390 918c-15 -53 -51 -138 -186 -138c-132 0 -168 82 -184 138h91c19 -32 44 -52 93 -52c36 0 64 11 82 33c5 6 9 12 13 19h91z" />
    <glyph glyph-name="IJ" unicode="&#x132;" horiz-adv-x="870" 
d="M369 0h-329v109h94v509h-94v109h329v-109h-94v-509h94v-109zM805 204c0 -157 -79 -219 -224 -219c-57 0 -124 14 -162 29l41 110c26 -11 68 -24 109 -24c78 0 95 45 95 145v373h-161v109h302v-523z" />
    <glyph glyph-name="Imacron" unicode="&#x12a;" horiz-adv-x="409" 
d="M369 0h-329v109h94v509h-94v109h329v-109h-94v-509h94v-109zM364 780h-318v89h318v-89z" />
    <glyph glyph-name="Iogonek" unicode="&#x12e;" horiz-adv-x="409" 
d="M405 -156c-40 -21 -84 -37 -135 -37c-83 0 -124 48 -124 107c0 32 7 62 15 86h-121v109h94v509h-94v109h329v-109h-94v-509h94v-109h-115c-7 -23 -8 -40 -8 -57c0 -31 17 -54 50 -54c26 0 47 8 72 21z" />
    <glyph glyph-name="Itilde" unicode="&#x128;" horiz-adv-x="409" 
d="M369 0h-329v109h94v509h-94v109h329v-109h-94v-509h94v-109zM398 914c-3 -44 -15 -79 -39 -103c-20 -20 -48 -31 -85 -31c-31 0 -56 9 -78 22l-20 11c-5 3 -9 6 -14 8c-9 4 -19 7 -28 7c-11 0 -20 -4 -27 -11c-9 -9 -15 -21 -15 -37h-83c2 43 15 79 40 103
c21 20 48 31 83 31c30 0 56 -9 78 -21s44 -26 63 -26c11 0 20 5 27 12c9 9 16 21 16 35h82z" />
    <glyph glyph-name="Jcircumflex" unicode="&#x134;" horiz-adv-x="461" 
d="M396 204c0 -157 -79 -219 -224 -219c-57 0 -124 14 -162 29l41 110c26 -11 68 -24 109 -24c78 0 95 45 95 145v373h-161v109h302v-523zM430 780h-103l-83 98l-88 -98h-98l126 176h120z" />
    <glyph glyph-name="Kcommaaccent" unicode="&#x136;" horiz-adv-x="674" 
d="M660 0h-161l-190 351l-98 -110v-241h-141v727h141v-307l264 307h165l-235 -267zM411 -104c0 -40 -25 -77 -42 -91h-74c13 13 23 34 24 54c-41 0 -57 29 -57 52c0 35 22 65 75 65c52 0 74 -33 74 -80z" />
    <glyph glyph-name="Lacute" unicode="&#x139;" horiz-adv-x="564" 
d="M537 0h-467v727h141v-609h326v-118zM418 956l-161 -176h-97l120 176h138z" />
    <glyph glyph-name="Lcaron" unicode="&#x13d;" horiz-adv-x="564" 
d="M537 0h-467v727h141v-609h326v-118zM465 647c0 -95 -43 -168 -74 -214h-74c34 50 64 108 64 140c0 5 -7 6 -11 8c-47 4 -61 31 -61 69c0 47 20 77 77 77c54 0 79 -31 79 -80z" />
    <glyph glyph-name="Lcommaaccent" unicode="&#x13b;" horiz-adv-x="564" 
d="M537 0h-467v727h141v-609h326v-118zM356 -104c0 -40 -25 -77 -42 -91h-74c13 13 23 34 24 54c-41 0 -57 29 -57 52c0 35 22 65 75 65c52 0 74 -33 74 -80z" />
    <glyph glyph-name="Ldot" unicode="&#x13f;" horiz-adv-x="564" 
d="M537 0h-467v727h141v-609h326v-118zM454 360c0 -54 -29 -73 -79 -73c-57 0 -77 28 -77 73c0 50 24 74 77 74s79 -23 79 -74z" />
    <glyph glyph-name="Nacute" unicode="&#x143;" horiz-adv-x="725" 
d="M655 0h-154l-299 533v-533h-132v727h170l283 -501v501h132v-727zM549 956l-161 -176h-97l120 176h138z" />
    <glyph glyph-name="Ncaron" unicode="&#x147;" horiz-adv-x="725" 
d="M655 0h-154l-299 533v-533h-132v727h170l283 -501v501h132v-727zM572 956l-127 -176h-119l-127 176h99l88 -98l88 98h98z" />
    <glyph glyph-name="Ncommaaccent" unicode="&#x145;" horiz-adv-x="725" 
d="M655 0h-154l-299 533v-533h-132v727h170l283 -501v501h132v-727zM437 -104c0 -40 -25 -77 -42 -91h-74c13 13 23 34 24 54c-41 0 -57 29 -57 52c0 35 22 65 75 65c52 0 74 -33 74 -80z" />
    <glyph glyph-name="Obreve" unicode="&#x14e;" horiz-adv-x="769" 
d="M723 363c0 -234 -88 -378 -338 -378s-339 144 -339 378c0 236 89 379 339 379c249 0 338 -143 338 -379zM575 363c0 175 -51 264 -190 264c-141 0 -191 -89 -191 -264c0 -174 50 -263 191 -263c139 0 190 89 190 263zM569 918c-15 -53 -51 -138 -186 -138
c-132 0 -168 82 -184 138h91c19 -32 44 -52 93 -52c36 0 64 11 82 33c5 6 9 12 13 19h91z" />
    <glyph glyph-name="Ohungarumlaut" unicode="&#x150;" horiz-adv-x="769" 
d="M723 363c0 -234 -88 -378 -338 -378s-339 144 -339 378c0 236 89 379 339 379c249 0 338 -143 338 -379zM575 363c0 175 -51 264 -190 264c-141 0 -191 -89 -191 -264c0 -174 50 -263 191 -263c139 0 190 89 190 263zM660 956l-141 -176h-97l99 176h139zM473 956
l-142 -176h-97l100 176h139z" />
    <glyph glyph-name="Omacron" unicode="&#x14c;" horiz-adv-x="769" 
d="M723 363c0 -234 -88 -378 -338 -378s-339 144 -339 378c0 236 89 379 339 379c249 0 338 -143 338 -379zM575 363c0 175 -51 264 -190 264c-141 0 -191 -89 -191 -264c0 -174 50 -263 191 -263c139 0 190 89 190 263zM543 780h-318v89h318v-89z" />
    <glyph glyph-name="Oslashacute" unicode="&#x1fe;" horiz-adv-x="769" 
d="M560 956l-161 -176h-97l120 176h138zM732 764l-86 -121c54 -65 77 -161 77 -280c0 -234 -88 -378 -338 -378c-73 0 -133 13 -180 36l-55 -77h-118l96 135c-58 65 -82 162 -82 284c0 236 89 379 339 379c76 0 138 -14 186 -39l43 61h118zM496 598c-28 20 -65 29 -111 29
c-141 0 -191 -89 -191 -264c0 -65 7 -117 23 -158zM575 363c0 61 -6 111 -20 151l-276 -388c27 -17 62 -26 106 -26c139 0 190 89 190 263z" />
    <glyph glyph-name="Racute" unicode="&#x154;" horiz-adv-x="659" 
d="M620 0h-142l-47 213c-13 58 -36 83 -90 83h-130v-296h-141v727h261c167 0 267 -39 267 -198c0 -107 -46 -161 -118 -181c56 -12 74 -52 88 -116zM454 512c0 70 -37 100 -124 100h-119v-203h109c93 0 134 25 134 103zM496 956l-161 -176h-97l120 176h138z" />
    <glyph glyph-name="Rcaron" unicode="&#x158;" horiz-adv-x="659" 
d="M620 0h-142l-47 213c-13 58 -36 83 -90 83h-130v-296h-141v727h261c167 0 267 -39 267 -198c0 -107 -46 -161 -118 -181c56 -12 74 -52 88 -116zM454 512c0 70 -37 100 -124 100h-119v-203h109c93 0 134 25 134 103zM504 956l-127 -176h-119l-127 176h99l88 -98l88 98h98
z" />
    <glyph glyph-name="Rcommaaccent" unicode="&#x156;" horiz-adv-x="659" 
d="M620 0h-142l-47 213c-13 58 -36 83 -90 83h-130v-296h-141v727h261c167 0 267 -39 267 -198c0 -107 -46 -161 -118 -181c56 -12 74 -52 88 -116zM454 512c0 70 -37 100 -124 100h-119v-203h109c93 0 134 25 134 103zM404 -104c0 -40 -25 -77 -42 -91h-74
c13 13 23 34 24 54c-41 0 -57 29 -57 52c0 35 22 65 75 65c52 0 74 -33 74 -80z" />
    <glyph glyph-name="Sacute" unicode="&#x15a;" horiz-adv-x="625" 
d="M596 196c0 -136 -109 -211 -280 -211c-151 0 -234 52 -295 146l115 69c38 -60 92 -100 183 -100c64 0 137 26 137 93c0 66 -47 93 -173 120c-157 33 -246 82 -246 218c0 127 97 211 271 211c127 0 212 -47 266 -133l-112 -68c-33 52 -82 86 -154 86
c-88 0 -131 -39 -131 -92c0 -56 53 -76 154 -98c133 -28 265 -70 265 -241zM483 956l-161 -176h-97l120 176h138z" />
    <glyph glyph-name="Scedilla" unicode="&#x15e;" horiz-adv-x="625" 
d="M425 -104c0 -59 -53 -89 -137 -89c-51 0 -107 14 -133 27l35 60c22 -8 57 -16 95 -16c28 0 41 9 41 24c0 27 -29 38 -79 40l26 45c-125 9 -197 59 -252 144l115 69c38 -60 92 -100 183 -100c64 0 137 26 137 93c0 66 -47 93 -173 120c-157 33 -246 82 -246 218
c0 127 97 211 271 211c127 0 212 -47 266 -133l-112 -68c-33 52 -82 86 -154 86c-88 0 -131 -39 -131 -92c0 -56 53 -76 154 -98c133 -28 265 -70 265 -241c0 -127 -94 -200 -245 -210l-1 -3c43 -9 75 -42 75 -87z" />
    <glyph glyph-name="Scircumflex" unicode="&#x15c;" horiz-adv-x="625" 
d="M596 196c0 -136 -109 -211 -280 -211c-151 0 -234 52 -295 146l115 69c38 -60 92 -100 183 -100c64 0 137 26 137 93c0 66 -47 93 -173 120c-157 33 -246 82 -246 218c0 127 97 211 271 211c127 0 212 -47 266 -133l-112 -68c-33 52 -82 86 -154 86
c-88 0 -131 -39 -131 -92c0 -56 53 -76 154 -98c133 -28 265 -70 265 -241zM498 780h-103l-83 98l-88 -98h-98l126 176h120z" />
    <glyph glyph-name="Scommaaccent" unicode="&#x218;" horiz-adv-x="625" 
d="M596 196c0 -136 -109 -211 -280 -211c-151 0 -234 52 -295 146l115 69c38 -60 92 -100 183 -100c64 0 137 26 137 93c0 66 -47 93 -173 120c-157 33 -246 82 -246 218c0 127 97 211 271 211c127 0 212 -47 266 -133l-112 -68c-33 52 -82 86 -154 86
c-88 0 -131 -39 -131 -92c0 -56 53 -76 154 -98c133 -28 265 -70 265 -241zM386 -104c0 -40 -25 -77 -42 -91h-74c13 13 23 34 24 54c-41 0 -57 29 -57 52c0 35 22 65 75 65c52 0 74 -33 74 -80z" />
    <glyph glyph-name="Tbar" unicode="&#x166;" horiz-adv-x="605" 
d="M593 609h-220v-217h135v-89h-135v-303h-141v303h-135v89h135v217h-220v118h581v-118z" />
    <glyph glyph-name="Tcaron" unicode="&#x164;" horiz-adv-x="605" 
d="M593 609h-220v-609h-141v609h-220v118h581v-118zM489 956l-127 -176h-119l-127 176h99l88 -98l88 98h98z" />
    <glyph glyph-name="Ubreve" unicode="&#x16c;" horiz-adv-x="697" 
d="M632 286c0 -215 -71 -301 -284 -301c-212 0 -283 86 -283 301v441h141v-431c0 -144 32 -196 142 -196c113 0 143 56 143 194v433h141v-441zM533 918c-15 -53 -51 -138 -186 -138c-132 0 -168 82 -184 138h91c19 -32 44 -52 93 -52c36 0 64 11 82 33c5 6 9 12 13 19h91z
" />
    <glyph glyph-name="Uhungarumlaut" unicode="&#x170;" horiz-adv-x="697" 
d="M632 286c0 -215 -71 -301 -284 -301c-212 0 -283 86 -283 301v441h141v-431c0 -144 32 -196 142 -196c113 0 143 56 143 194v433h141v-441zM623 956l-141 -176h-97l99 176h139zM436 956l-142 -176h-97l100 176h139z" />
    <glyph glyph-name="Umacron" unicode="&#x16a;" horiz-adv-x="697" 
d="M632 286c0 -215 -71 -301 -284 -301c-212 0 -283 86 -283 301v441h141v-431c0 -144 32 -196 142 -196c113 0 143 56 143 194v433h141v-441zM507 780h-318v89h318v-89z" />
    <glyph glyph-name="Uogonek" unicode="&#x172;" horiz-adv-x="697" 
d="M565 -156c-40 -21 -84 -37 -135 -37c-83 0 -124 48 -124 107c0 26 4 50 11 72c-188 8 -252 95 -252 300v441h141v-431c0 -144 32 -196 142 -196c113 0 143 56 143 194v433h141v-441c0 -192 -57 -281 -221 -298c-4 -17 -5 -31 -5 -45c0 -31 17 -54 50 -54c26 0 47 8 72 21
z" />
    <glyph glyph-name="Uring" unicode="&#x16e;" horiz-adv-x="697" 
d="M466 790c0 -69 -39 -117 -124 -117c-88 0 -123 51 -123 117c0 67 38 116 123 116c86 0 124 -48 124 -116zM408 789c0 42 -24 61 -65 61c-44 0 -64 -21 -64 -61c0 -39 17 -61 64 -61c45 0 65 20 65 61zM632 286c0 -215 -71 -301 -284 -301c-212 0 -283 86 -283 301v441
h141v-431c0 -144 32 -196 142 -196c113 0 143 56 143 194v433h141v-441z" />
    <glyph glyph-name="Utilde" unicode="&#x168;" horiz-adv-x="697" 
d="M632 286c0 -215 -71 -301 -284 -301c-212 0 -283 86 -283 301v441h141v-431c0 -144 32 -196 142 -196c113 0 143 56 143 194v433h141v-441zM543 914c-3 -44 -15 -79 -39 -103c-20 -20 -48 -31 -85 -31c-31 0 -56 9 -78 22l-20 11c-5 3 -9 6 -14 8c-9 4 -19 7 -28 7
c-11 0 -20 -4 -27 -11c-9 -9 -15 -21 -15 -37h-83c2 43 15 79 40 103c21 20 48 31 83 31c30 0 56 -9 78 -21s44 -26 63 -26c11 0 20 5 27 12c9 9 16 21 16 35h82z" />
    <glyph glyph-name="Wacute" unicode="&#x1e82;" horiz-adv-x="917" 
d="M899 727l-167 -727h-129l-144 385l-142 -385h-134l-165 727h141l110 -519l133 358h118l135 -354l110 515h134zM633 956l-161 -176h-97l120 176h138z" />
    <glyph glyph-name="Wcircumflex" unicode="&#x174;" horiz-adv-x="917" 
d="M899 727l-167 -727h-129l-144 385l-142 -385h-134l-165 727h141l110 -519l133 358h118l135 -354l110 515h134zM644 780h-103l-83 98l-88 -98h-98l126 176h120z" />
    <glyph glyph-name="Wdieresis" unicode="&#x1e84;" horiz-adv-x="917" 
d="M899 727l-167 -727h-129l-144 385l-142 -385h-134l-165 727h141l110 -519l133 358h118l135 -354l110 515h134zM635 843c0 -47 -23 -63 -68 -63c-50 0 -67 24 -67 63c0 44 20 65 67 65c48 0 68 -20 68 -65zM416 843c0 -47 -23 -63 -68 -63c-50 0 -66 24 -66 63
c0 44 19 65 66 65c48 0 68 -20 68 -65z" />
    <glyph glyph-name="Wgrave" unicode="&#x1e80;" horiz-adv-x="917" 
d="M899 727l-167 -727h-129l-144 385l-142 -385h-134l-165 727h141l110 -519l133 358h118l135 -354l110 515h134zM555 780h-97l-161 176h138z" />
    <glyph glyph-name="Ycircumflex" unicode="&#x176;" horiz-adv-x="647" 
d="M639 727l-246 -433v-294h-141v286l-244 441h154l164 -304l169 304h144zM509 780h-103l-83 98l-88 -98h-98l126 176h120z" />
    <glyph glyph-name="Ygrave" unicode="&#x1ef2;" horiz-adv-x="647" 
d="M639 727l-246 -433v-294h-141v286l-244 441h154l164 -304l169 304h144zM429 780h-97l-161 176h138z" />
    <glyph glyph-name="Zacute" unicode="&#x179;" horiz-adv-x="637" 
d="M593 0h-554v104l361 505h-344v118h527v-99l-366 -510h376v-118zM447 956l-161 -176h-97l120 176h138z" />
    <glyph glyph-name="Zdotaccent" unicode="&#x17b;" horiz-adv-x="637" 
d="M593 0h-554v104l361 505h-344v118h527v-99l-366 -510h376v-118zM383 844c0 -47 -22 -64 -67 -64c-51 0 -67 25 -67 64c0 44 20 64 67 64s67 -19 67 -64z" />
    <glyph glyph-name="Idotaccent" unicode="&#x130;" horiz-adv-x="409" 
d="M369 0h-329v109h94v509h-94v109h329v-109h-94v-509h94v-109zM270 844c0 -47 -22 -64 -67 -64c-51 0 -67 25 -67 64c0 44 20 64 67 64s67 -19 67 -64z" />
    <glyph glyph-name="abreve" unicode="&#x103;" horiz-adv-x="551" 
d="M491 0h-121v53c-45 -35 -96 -68 -168 -68c-101 0 -164 69 -164 167c0 126 94 166 220 178l104 9v21c0 58 -37 78 -102 78c-67 0 -106 -19 -140 -49l-63 86c48 40 116 60 210 60c148 0 224 -49 224 -184v-351zM456 747c-15 -53 -51 -138 -186 -138
c-132 0 -168 82 -184 138h91c19 -32 44 -52 93 -52c36 0 64 11 82 33c5 6 9 12 13 19h91zM362 139v114l-67 -7c-87 -9 -127 -33 -127 -92c0 -48 31 -69 75 -69c41 0 79 24 119 54z" />
    <glyph glyph-name="amacron" unicode="&#x101;" horiz-adv-x="551" 
d="M491 0h-121v53c-45 -35 -96 -68 -168 -68c-101 0 -164 69 -164 167c0 126 94 166 220 178l104 9v21c0 58 -37 78 -102 78c-67 0 -106 -19 -140 -49l-63 86c48 40 116 60 210 60c148 0 224 -49 224 -184v-351zM434 606h-318v89h318v-89zM362 139v114l-67 -7
c-87 -9 -127 -33 -127 -92c0 -48 31 -69 75 -69c41 0 79 24 119 54z" />
    <glyph glyph-name="aogonek" unicode="&#x105;" horiz-adv-x="551" 
d="M613 -156c-40 -21 -84 -37 -135 -37c-83 0 -124 48 -124 107c0 33 7 63 16 87v52c-45 -35 -96 -68 -168 -68c-101 0 -164 69 -164 167c0 126 94 166 220 178l104 9v21c0 58 -37 78 -102 78c-67 0 -106 -19 -140 -49l-63 86c48 40 116 60 210 60c148 0 224 -49 224 -184
v-351h-29c-7 -23 -8 -40 -8 -57c0 -31 17 -54 50 -54c26 0 47 8 72 21zM362 139v114l-67 -7c-87 -9 -127 -33 -127 -92c0 -48 31 -69 75 -69c41 0 79 24 119 54z" />
    <glyph glyph-name="aeacute" unicode="&#x1fd;" horiz-adv-x="854" 
d="M818 216h-332c3 -72 42 -128 120 -128c45 0 84 17 113 40l64 -89c-35 -25 -92 -54 -187 -54c-92 0 -156 35 -193 88c-52 -44 -124 -88 -203 -88c-99 0 -162 69 -162 167c0 126 95 166 218 178l102 9v21c0 58 -36 77 -101 77s-103 -18 -137 -48l-63 86
c48 40 116 60 208 60c80 0 142 -21 172 -65c34 38 80 65 160 65c161 0 221 -97 221 -242v-77zM370 142c-7 20 -12 50 -12 78v33c-12 -1 -46 -6 -62 -7c-85 -8 -128 -30 -128 -93c0 -47 32 -68 73 -68c40 0 87 23 129 57zM694 310c0 86 -30 129 -98 129
c-67 0 -104 -37 -109 -129h207zM687 766l-161 -176h-97l120 176h138z" />
    <glyph glyph-name="cacute" unicode="&#x107;" horiz-adv-x="501" 
d="M487 434l-94 -58c-23 36 -55 56 -101 56c-97 0 -120 -74 -120 -173c0 -97 25 -171 126 -171c47 0 83 20 108 38l66 -88c-48 -32 -102 -53 -182 -53c-180 0 -252 107 -252 274c0 171 73 276 252 276c87 0 152 -31 197 -101zM437 766l-161 -176h-97l120 176h138z" />
    <glyph glyph-name="ccaron" unicode="&#x10d;" horiz-adv-x="501" 
d="M487 434l-94 -58c-23 36 -55 56 -101 56c-97 0 -120 -74 -120 -173c0 -97 25 -171 126 -171c47 0 83 20 108 38l66 -88c-48 -32 -102 -53 -182 -53c-180 0 -252 107 -252 274c0 171 73 276 252 276c87 0 152 -31 197 -101zM458 766l-127 -176h-119l-127 176h99l88 -98
l88 98h98z" />
    <glyph glyph-name="ccircumflex" unicode="&#x109;" horiz-adv-x="501" 
d="M487 434l-94 -58c-23 36 -55 56 -101 56c-97 0 -120 -74 -120 -173c0 -97 25 -171 126 -171c47 0 83 20 108 38l66 -88c-48 -32 -102 -53 -182 -53c-180 0 -252 107 -252 274c0 171 73 276 252 276c87 0 152 -31 197 -101zM463 590h-103l-83 98l-88 -98h-98l126 176h120z
" />
    <glyph glyph-name="cdotaccent" unicode="&#x10b;" horiz-adv-x="501" 
d="M487 434l-94 -58c-23 36 -55 56 -101 56c-97 0 -120 -74 -120 -173c0 -97 25 -171 126 -171c47 0 83 20 108 38l66 -88c-48 -32 -102 -53 -182 -53c-180 0 -252 107 -252 274c0 171 73 276 252 276c87 0 152 -31 197 -101zM349 652c0 -47 -22 -64 -67 -64
c-51 0 -67 25 -67 64c0 44 20 64 67 64s67 -19 67 -64z" />
    <glyph glyph-name="dcaron" unicode="&#x10f;" horiz-adv-x="670" 
d="M522 0h-121v47c-38 -35 -94 -62 -155 -62c-140 0 -208 108 -208 271c0 178 80 279 219 279c55 0 101 -17 136 -39v231h129v-727zM393 134v268c-29 19 -64 36 -111 36c-68 0 -110 -52 -110 -180c0 -114 32 -176 110 -176c42 0 84 24 111 52zM705 647
c0 -95 -43 -168 -74 -214h-74c34 50 64 108 64 140c0 5 -7 6 -11 8c-47 4 -61 31 -61 69c0 47 20 77 77 77c54 0 79 -31 79 -80z" />
    <glyph glyph-name="dcroat" unicode="&#x111;" horiz-adv-x="586" 
d="M522 0h-121v47c-38 -35 -94 -62 -155 -62c-140 0 -208 108 -208 271c0 178 80 279 219 279c55 0 101 -17 136 -39v94h-152v86h152v51h129v-51h63v-86h-63v-590zM393 134v268c-29 19 -64 36 -111 36c-68 0 -110 -52 -110 -180c0 -114 32 -176 110 -176c42 0 84 24 111 52z
" />
    <glyph glyph-name="ebreve" unicode="&#x115;" horiz-adv-x="544" 
d="M508 216h-336c4 -78 46 -128 124 -128c49 0 88 20 113 40l65 -89c-35 -25 -92 -54 -187 -54c-156 0 -249 82 -249 272c0 162 62 278 246 278c161 0 224 -95 224 -242v-77zM384 310c0 87 -31 129 -99 129c-70 0 -106 -40 -113 -129h212zM457 747
c-15 -53 -51 -138 -186 -138c-132 0 -168 82 -184 138h91c19 -32 44 -52 93 -52c36 0 64 11 82 33c5 6 9 12 13 19h91z" />
    <glyph glyph-name="ecaron" unicode="&#x11b;" horiz-adv-x="544" 
d="M508 216h-336c4 -78 46 -128 124 -128c49 0 88 20 113 40l65 -89c-35 -25 -92 -54 -187 -54c-156 0 -249 82 -249 272c0 162 62 278 246 278c161 0 224 -95 224 -242v-77zM384 310c0 87 -31 129 -99 129c-70 0 -106 -40 -113 -129h212zM458 766l-127 -176h-119l-127 176
h99l88 -98l88 98h98z" />
    <glyph glyph-name="edotaccent" unicode="&#x117;" horiz-adv-x="544" 
d="M508 216h-336c4 -78 46 -128 124 -128c49 0 88 20 113 40l65 -89c-35 -25 -92 -54 -187 -54c-156 0 -249 82 -249 272c0 162 62 278 246 278c161 0 224 -95 224 -242v-77zM384 310c0 87 -31 129 -99 129c-70 0 -106 -40 -113 -129h212zM343 652c0 -47 -22 -64 -67 -64
c-51 0 -67 25 -67 64c0 44 20 64 67 64s67 -19 67 -64z" />
    <glyph glyph-name="emacron" unicode="&#x113;" horiz-adv-x="544" 
d="M508 216h-336c4 -78 46 -128 124 -128c49 0 88 20 113 40l65 -89c-35 -25 -92 -54 -187 -54c-156 0 -249 82 -249 272c0 162 62 278 246 278c161 0 224 -95 224 -242v-77zM384 310c0 87 -31 129 -99 129c-70 0 -106 -40 -113 -129h212zM447 606h-318v89h318v-89z" />
    <glyph glyph-name="eng" unicode="&#x14b;" horiz-adv-x="578" 
d="M518 -5c0 -122 -43 -188 -175 -188c-25 0 -71 4 -116 18l32 97c25 -9 48 -13 77 -13c42 0 53 29 53 92v305c0 87 -14 117 -67 117c-35 0 -86 -29 -129 -65v-358h-129v520h121v-62c53 45 115 77 175 77c106 0 158 -60 158 -189v-351z" />
    <glyph glyph-name="eogonek" unicode="&#x119;" horiz-adv-x="544" 
d="M495 -156c-40 -21 -84 -37 -135 -37c-83 0 -124 48 -124 107c0 27 5 52 11 73c-132 13 -209 96 -209 270c0 162 62 278 246 278c161 0 224 -95 224 -242v-77h-336c4 -78 46 -128 124 -128c49 0 88 20 113 40l65 -89c-28 -20 -70 -42 -133 -50c-4 -18 -5 -32 -5 -46
c0 -31 17 -54 50 -54c26 0 47 8 72 21zM384 310c0 87 -31 129 -99 129c-70 0 -106 -40 -113 -129h212z" />
    <glyph glyph-name="gbreve" unicode="&#x11f;" horiz-adv-x="588" 
d="M568 424h-56v-405c0 -151 -82 -212 -237 -212c-73 0 -149 18 -197 42l42 93c40 -22 89 -39 149 -39c80 0 114 33 114 106v36c-39 -26 -86 -45 -140 -45c-141 0 -205 114 -205 265c0 146 68 270 215 270c60 0 105 -24 137 -52v37h178v-96zM383 139v260
c-31 21 -64 39 -102 39c-84 0 -109 -78 -109 -171c0 -92 21 -170 101 -170c44 0 73 14 110 42zM484 747c-15 -53 -51 -138 -186 -138c-132 0 -168 82 -184 138h91c19 -32 44 -52 93 -52c36 0 64 11 82 33c5 6 9 12 13 19h91z" />
    <glyph glyph-name="gcircumflex" unicode="&#x11d;" horiz-adv-x="588" 
d="M568 424h-56v-405c0 -151 -82 -212 -237 -212c-73 0 -149 18 -197 42l42 93c40 -22 89 -39 149 -39c80 0 114 33 114 106v36c-39 -26 -86 -45 -140 -45c-141 0 -205 114 -205 265c0 146 68 270 215 270c60 0 105 -24 137 -52v37h178v-96zM383 139v260
c-31 21 -64 39 -102 39c-84 0 -109 -78 -109 -171c0 -92 21 -170 101 -170c44 0 73 14 110 42zM498 590h-103l-83 98l-88 -98h-98l126 176h120z" />
    <glyph glyph-name="gcommaaccent" unicode="&#x123;" horiz-adv-x="588" 
d="M568 424h-56v-405c0 -151 -82 -212 -237 -212c-73 0 -149 18 -197 42l42 93c40 -22 89 -39 149 -39c80 0 114 33 114 106v36c-39 -26 -86 -45 -140 -45c-141 0 -205 114 -205 265c0 146 68 270 215 270c60 0 105 -24 137 -52v37h178v-96zM383 139v260
c-31 21 -64 39 -102 39c-84 0 -109 -78 -109 -171c0 -92 21 -170 101 -170c44 0 73 14 110 42zM227 668c0 40 25 77 42 91h74c-13 -13 -23 -34 -24 -54c41 0 57 -29 57 -52c0 -35 -22 -65 -75 -65c-52 0 -74 33 -74 80z" />
    <glyph glyph-name="gdotaccent" unicode="&#x121;" horiz-adv-x="588" 
d="M568 424h-56v-405c0 -151 -82 -212 -237 -212c-73 0 -149 18 -197 42l42 93c40 -22 89 -39 149 -39c80 0 114 33 114 106v36c-39 -26 -86 -45 -140 -45c-141 0 -205 114 -205 265c0 146 68 270 215 270c60 0 105 -24 137 -52v37h178v-96zM383 139v260
c-31 21 -64 39 -102 39c-84 0 -109 -78 -109 -171c0 -92 21 -170 101 -170c44 0 73 14 110 42zM361 652c0 -47 -22 -64 -67 -64c-51 0 -67 25 -67 64c0 44 20 64 67 64s67 -19 67 -64z" />
    <glyph glyph-name="hbar" unicode="&#x127;" horiz-adv-x="578" 
d="M518 0h-129v306c0 87 -14 117 -67 117c-36 0 -88 -31 -129 -65v-358h-129v590h-64v86h64v51h129v-51h151v-86h-151v-126c46 38 106 71 167 71c106 0 158 -61 158 -189v-346z" />
    <glyph glyph-name="hcircumflex" unicode="&#x125;" horiz-adv-x="578" 
d="M518 0h-129v306c0 87 -14 117 -67 117c-36 0 -88 -31 -129 -65v-358h-129v727h129v-263c46 38 106 71 167 71c106 0 158 -61 158 -189v-346zM437 780h-103l-83 98l-88 -98h-98l126 176h120z" />
    <glyph glyph-name="ibreve" unicode="&#x12d;" horiz-adv-x="305" 
d="M236 0h-129v424h-82v96h211v-520zM338 747c-15 -53 -51 -138 -186 -138c-132 0 -168 82 -184 138h91c19 -32 44 -52 93 -52c36 0 64 11 82 33c5 6 9 12 13 19h91z" />
    <glyph glyph-name="ij" unicode="&#x133;" horiz-adv-x="607" 
d="M245 652c0 -47 -29 -68 -79 -68c-52 0 -79 23 -79 68c0 46 30 69 79 69c39 0 79 -16 79 -69zM236 0h-129v424h-82v96h211v-520zM550 652c0 -47 -29 -68 -79 -68c-52 0 -79 23 -79 68c0 46 30 69 79 69c39 0 79 -16 79 -69zM541 -5c0 -122 -43 -188 -175 -188
c-25 0 -71 4 -116 18l32 97c25 -9 48 -13 77 -13c42 0 53 29 53 92v423h-82v96h211v-525z" />
    <glyph glyph-name="imacron" unicode="&#x12b;" horiz-adv-x="305" 
d="M236 0h-129v424h-82v96h211v-520zM312 606h-318v89h318v-89z" />
    <glyph glyph-name="iogonek" unicode="&#x12f;" horiz-adv-x="305" 
d="M369 -156c-40 -21 -84 -37 -135 -37c-83 0 -124 48 -124 107c0 32 7 62 15 86h-18v424h-82v96h211v-520h-18c-7 -23 -8 -40 -8 -57c0 -31 17 -54 50 -54c26 0 47 8 72 21zM245 652c0 -47 -29 -68 -79 -68c-52 0 -79 23 -79 68c0 46 30 69 79 69c39 0 79 -16 79 -69z" />
    <glyph glyph-name="itilde" unicode="&#x129;" horiz-adv-x="305" 
d="M236 0h-129v424h-82v96h211v-520zM347 745c-3 -44 -15 -79 -39 -103c-20 -20 -48 -31 -85 -31c-31 0 -56 9 -78 22l-20 11c-5 3 -9 6 -14 8c-9 4 -19 7 -28 7c-11 0 -20 -4 -27 -11c-9 -9 -15 -21 -15 -37h-83c2 43 15 79 40 103c21 20 48 31 83 31c30 0 56 -9 78 -21
s44 -26 63 -26c11 0 20 5 27 12c9 9 16 21 16 35h82z" />
    <glyph glyph-name="jcircumflex" unicode="&#x135;" horiz-adv-x="302" 
d="M236 -5c0 -122 -43 -188 -175 -188c-25 0 -71 4 -116 18l32 97c25 -9 48 -13 77 -13c42 0 53 29 53 92v423h-82v96h211v-525zM337 590h-103l-83 98l-88 -98h-98l126 176h120z" />
    <glyph glyph-name="kcommaaccent" unicode="&#x137;" horiz-adv-x="527" 
d="M522 0h-147l-130 229l-52 -58v-171h-129v727h129v-401l167 194h146l-176 -195zM359 -104c0 -40 -25 -77 -42 -91h-74c13 13 23 34 24 54c-41 0 -57 29 -57 52c0 35 22 65 75 65c52 0 74 -33 74 -80z" />
    <glyph glyph-name="lacute" unicode="&#x13a;" horiz-adv-x="313" 
d="M313 0c-37 -10 -70 -15 -108 -15c-114 0 -144 59 -144 169v538l129 70v-594c0 -59 10 -79 43 -79c16 0 36 3 50 8zM351 956l-161 -176h-97l120 176h138z" />
    <glyph glyph-name="lcaron" unicode="&#x13e;" horiz-adv-x="370" 
d="M313 0c-37 -10 -70 -15 -108 -15c-114 0 -144 59 -144 169v538l129 70v-594c0 -59 10 -79 43 -79c16 0 36 3 50 8zM388 647c0 -95 -43 -168 -74 -214h-74c34 50 64 108 64 140c0 5 -7 6 -11 8c-47 4 -61 31 -61 69c0 47 20 77 77 77c54 0 79 -31 79 -80z" />
    <glyph glyph-name="lcommaaccent" unicode="&#x13c;" horiz-adv-x="313" 
d="M313 0c-37 -10 -70 -15 -108 -15c-114 0 -144 59 -144 169v538l129 70v-594c0 -59 10 -79 43 -79c16 0 36 3 50 8zM275 -104c0 -40 -25 -77 -42 -91h-74c13 13 23 34 24 54c-41 0 -57 29 -57 52c0 35 22 65 75 65c52 0 74 -33 74 -80z" />
    <glyph glyph-name="ldot" unicode="&#x140;" horiz-adv-x="340" 
d="M313 0c-37 -10 -70 -15 -108 -15c-114 0 -144 59 -144 169v538l129 70v-594c0 -59 10 -79 43 -79c16 0 36 3 50 8zM359 351c0 -47 -22 -64 -67 -64c-51 0 -67 25 -67 64c0 44 20 64 67 64s67 -19 67 -64z" />
    <glyph glyph-name="nacute" unicode="&#x144;" horiz-adv-x="578" 
d="M518 0h-129v306c0 87 -14 117 -67 117c-35 0 -86 -29 -129 -65v-358h-129v520h121v-62c53 45 115 77 175 77c106 0 158 -60 158 -189v-346zM453 766l-161 -176h-97l120 176h138z" />
    <glyph glyph-name="ncaron" unicode="&#x148;" horiz-adv-x="578" 
d="M518 0h-129v306c0 87 -14 117 -67 117c-35 0 -86 -29 -129 -65v-358h-129v520h121v-62c53 45 115 77 175 77c106 0 158 -60 158 -189v-346zM475 766l-127 -176h-119l-127 176h99l88 -98l88 98h98z" />
    <glyph glyph-name="ncommaaccent" unicode="&#x146;" horiz-adv-x="578" 
d="M518 0h-129v306c0 87 -14 117 -67 117c-35 0 -86 -29 -129 -65v-358h-129v520h121v-62c53 45 115 77 175 77c106 0 158 -60 158 -189v-346zM363 -104c0 -40 -25 -77 -42 -91h-74c13 13 23 34 24 54c-41 0 -57 29 -57 52c0 35 22 65 75 65c52 0 74 -33 74 -80z" />
    <glyph glyph-name="obreve" unicode="&#x14f;" horiz-adv-x="579" 
d="M541 259c0 -143 -55 -274 -251 -274c-197 0 -252 131 -252 274c0 146 54 276 252 276c196 0 251 -131 251 -276zM407 259c0 121 -38 173 -117 173c-80 0 -118 -52 -118 -173c0 -118 38 -171 118 -171c79 0 117 54 117 171zM474 747c-15 -53 -51 -138 -186 -138
c-132 0 -168 82 -184 138h91c19 -32 44 -52 93 -52c36 0 64 11 82 33c5 6 9 12 13 19h91z" />
    <glyph glyph-name="ohungarumlaut" unicode="&#x151;" horiz-adv-x="579" 
d="M541 259c0 -143 -55 -274 -251 -274c-197 0 -252 131 -252 274c0 146 54 276 252 276c196 0 251 -131 251 -276zM407 259c0 121 -38 173 -117 173c-80 0 -118 -52 -118 -173c0 -118 38 -171 118 -171c79 0 117 54 117 171zM531 766l-141 -176h-97l99 176h139zM344 766
l-142 -176h-97l100 176h139z" />
    <glyph glyph-name="omacron" unicode="&#x14d;" horiz-adv-x="579" 
d="M541 259c0 -143 -55 -274 -251 -274c-197 0 -252 131 -252 274c0 146 54 276 252 276c196 0 251 -131 251 -276zM407 259c0 121 -38 173 -117 173c-80 0 -118 -52 -118 -173c0 -118 38 -171 118 -171c79 0 117 54 117 171zM450 606h-318v89h318v-89z" />
    <glyph glyph-name="oslashacute" unicode="&#x1ff;" horiz-adv-x="579" 
d="M457 766l-161 -176h-97l120 176h138zM547 557l-67 -94c45 -52 61 -126 61 -204c0 -143 -55 -274 -251 -274c-53 0 -97 9 -131 26l-34 -48h-87l64 91c-48 52 -64 126 -64 205c0 146 54 276 252 276c55 0 99 -11 134 -29l36 51h87zM357 413c-18 13 -40 19 -67 19
c-80 0 -118 -52 -118 -173c0 -37 4 -68 11 -92zM407 259c0 35 -4 64 -10 88l-171 -242c17 -11 38 -17 64 -17c79 0 117 54 117 171z" />
    <glyph glyph-name="racute" unicode="&#x155;" horiz-adv-x="402" 
d="M395 518l-19 -124c-13 4 -29 6 -46 6c-57 0 -102 -32 -137 -65v-335h-129v520h121v-86c37 43 90 94 156 94c19 0 40 -3 54 -10zM351 766l-161 -176h-97l120 176h138z" />
    <glyph glyph-name="rcaron" unicode="&#x159;" horiz-adv-x="402" 
d="M395 518l-19 -124c-13 4 -29 6 -46 6c-57 0 -102 -32 -137 -65v-335h-129v520h121v-86c37 43 90 94 156 94c19 0 40 -3 54 -10zM388 766l-127 -176h-119l-127 176h99l88 -98l88 98h98z" />
    <glyph glyph-name="rcommaaccent" unicode="&#x157;" horiz-adv-x="402" 
d="M395 518l-19 -124c-13 4 -29 6 -46 6c-57 0 -102 -32 -137 -65v-335h-129v520h121v-86c37 43 90 94 156 94c19 0 40 -3 54 -10zM277 -104c0 -40 -25 -77 -42 -91h-74c13 13 23 34 24 54c-41 0 -57 29 -57 52c0 35 22 65 75 65c52 0 74 -33 74 -80z" />
    <glyph glyph-name="sacute" unicode="&#x15b;" horiz-adv-x="498" 
d="M465 151c0 -121 -110 -166 -222 -166c-88 0 -174 28 -215 100l94 57c27 -43 75 -60 122 -60c45 0 97 11 97 55c0 30 -25 43 -90 59c-110 27 -206 57 -206 178c0 116 105 161 210 161c86 0 161 -29 203 -95l-94 -56c-23 35 -63 54 -111 54c-52 0 -84 -17 -84 -53
c0 -38 46 -49 116 -67c85 -22 180 -49 180 -167zM419 766l-161 -176h-97l120 176h138z" />
    <glyph glyph-name="scedilla" unicode="&#x15f;" horiz-adv-x="498" 
d="M351 -104c0 -59 -53 -89 -137 -89c-51 0 -107 14 -133 27l35 60c22 -8 57 -16 95 -16c28 0 41 9 41 24c0 27 -29 38 -79 40l26 46c-72 8 -137 37 -171 97l94 57c27 -43 75 -60 122 -60c45 0 97 11 97 55c0 30 -25 43 -90 59c-110 27 -206 57 -206 178
c0 116 105 161 210 161c86 0 161 -29 203 -95l-94 -56c-23 35 -63 54 -111 54c-52 0 -84 -17 -84 -53c0 -38 46 -49 116 -67c85 -22 180 -49 180 -167c0 -109 -88 -156 -187 -164l-2 -4c43 -9 75 -42 75 -87z" />
    <glyph glyph-name="scircumflex" unicode="&#x15d;" horiz-adv-x="498" 
d="M465 151c0 -121 -110 -166 -222 -166c-88 0 -174 28 -215 100l94 57c27 -43 75 -60 122 -60c45 0 97 11 97 55c0 30 -25 43 -90 59c-110 27 -206 57 -206 178c0 116 105 161 210 161c86 0 161 -29 203 -95l-94 -56c-23 35 -63 54 -111 54c-52 0 -84 -17 -84 -53
c0 -38 46 -49 116 -67c85 -22 180 -49 180 -167zM435 590h-103l-83 98l-88 -98h-98l126 176h120z" />
    <glyph glyph-name="scommaaccent" unicode="&#x219;" horiz-adv-x="498" 
d="M465 151c0 -121 -110 -166 -222 -166c-88 0 -174 28 -215 100l94 57c27 -43 75 -60 122 -60c45 0 97 11 97 55c0 30 -25 43 -90 59c-110 27 -206 57 -206 178c0 116 105 161 210 161c86 0 161 -29 203 -95l-94 -56c-23 35 -63 54 -111 54c-52 0 -84 -17 -84 -53
c0 -38 46 -49 116 -67c85 -22 180 -49 180 -167zM323 -104c0 -40 -25 -77 -42 -91h-74c13 13 23 34 24 54c-41 0 -57 29 -57 52c0 35 22 65 75 65c52 0 74 -33 74 -80z" />
    <glyph glyph-name="tbar" unicode="&#x167;" horiz-adv-x="363" 
d="M355 3c-29 -9 -76 -18 -114 -18c-122 0 -159 58 -159 183v42h-74v96h74v118h-74v96h74v144l129 63v-207h121v-96h-121v-118h121v-96h-121v-27c0 -70 6 -96 55 -96c17 0 38 4 58 12z" />
    <glyph glyph-name="tcaron" unicode="&#x165;" horiz-adv-x="363" 
d="M397 648c0 -43 -21 -85 -43 -113h-75c17 21 32 41 32 76c-47 2 -63 28 -63 51c0 35 18 65 73 65c52 0 76 -30 76 -79zM355 3c-29 -9 -76 -18 -114 -18c-122 0 -159 58 -159 183v256h-74v96h74v144l129 63v-207h121v-96h-121v-241c0 -70 6 -96 55 -96c17 0 38 4 58 12z
" />
    <glyph glyph-name="ubreve" unicode="&#x16d;" horiz-adv-x="578" 
d="M514 0h-121v62c-53 -45 -115 -77 -175 -77c-106 0 -158 61 -158 190v345h129v-306c0 -87 14 -117 67 -117c35 0 86 29 129 65v358h129v-520zM474 747c-15 -53 -51 -138 -186 -138c-132 0 -168 82 -184 138h91c19 -32 44 -52 93 -52c36 0 64 11 82 33c5 6 9 12 13 19h91z
" />
    <glyph glyph-name="uhungarumlaut" unicode="&#x171;" horiz-adv-x="578" 
d="M514 0h-121v62c-53 -45 -115 -77 -175 -77c-106 0 -158 61 -158 190v345h129v-306c0 -87 14 -117 67 -117c35 0 86 29 129 65v358h129v-520zM558 766l-141 -176h-97l99 176h139zM371 766l-142 -176h-97l100 176h139z" />
    <glyph glyph-name="umacron" unicode="&#x16b;" horiz-adv-x="578" 
d="M514 0h-121v62c-53 -45 -115 -77 -175 -77c-106 0 -158 61 -158 190v345h129v-306c0 -87 14 -117 67 -117c35 0 86 29 129 65v358h129v-520zM448 606h-318v89h318v-89z" />
    <glyph glyph-name="uogonek" unicode="&#x173;" horiz-adv-x="578" 
d="M636 -156c-40 -21 -84 -37 -135 -37c-83 0 -124 48 -124 107c0 33 7 63 16 87v61c-53 -45 -115 -77 -175 -77c-106 0 -158 61 -158 190v345h129v-306c0 -87 14 -117 67 -117c35 0 86 29 129 65v358h129v-520h-29c-7 -23 -8 -40 -8 -57c0 -31 17 -54 50 -54
c26 0 47 8 72 21z" />
    <glyph glyph-name="uring" unicode="&#x16f;" horiz-adv-x="578" 
d="M514 0h-121v62c-53 -45 -115 -77 -175 -77c-106 0 -158 61 -158 190v345h129v-306c0 -87 14 -117 67 -117c35 0 86 29 129 65v358h129v-520zM394 672c0 -59 -33 -99 -105 -99c-74 0 -105 43 -105 99c0 58 33 99 105 99c73 0 105 -40 105 -99zM336 672c0 30 -17 43 -47 43
c-31 0 -47 -15 -47 -43c0 -27 14 -43 47 -43c32 0 47 15 47 43z" />
    <glyph glyph-name="utilde" unicode="&#x169;" horiz-adv-x="578" 
d="M514 0h-121v62c-53 -45 -115 -77 -175 -77c-106 0 -158 61 -158 190v345h129v-306c0 -87 14 -117 67 -117c35 0 86 29 129 65v358h129v-520zM483 745c-3 -44 -15 -79 -39 -103c-20 -20 -48 -31 -85 -31c-31 0 -56 9 -78 22l-20 11c-5 3 -9 6 -14 8c-9 4 -19 7 -28 7
c-11 0 -20 -4 -27 -11c-9 -9 -15 -21 -15 -37h-83c2 43 15 79 40 103c21 20 48 31 83 31c30 0 56 -9 78 -21s44 -26 63 -26c11 0 20 5 27 12c9 9 16 21 16 35h82z" />
    <glyph glyph-name="wacute" unicode="&#x1e83;" horiz-adv-x="743" 
d="M729 520l-146 -520h-94l-117 254l-120 -254h-89l-149 520h127l86 -342l111 238h77l108 -236l85 340h121zM540 766l-161 -176h-97l120 176h138z" />
    <glyph glyph-name="wcircumflex" unicode="&#x175;" horiz-adv-x="743" 
d="M729 520l-146 -520h-94l-117 254l-120 -254h-89l-149 520h127l86 -342l111 238h77l108 -236l85 340h121zM557 590h-103l-83 98l-88 -98h-98l126 176h120z" />
    <glyph glyph-name="wdieresis" unicode="&#x1e85;" horiz-adv-x="743" 
d="M729 520l-146 -520h-94l-117 254l-120 -254h-89l-149 520h127l86 -342l111 238h77l108 -236l85 340h121zM548 651c0 -47 -23 -63 -68 -63c-50 0 -67 24 -67 63c0 44 20 65 67 65c48 0 68 -20 68 -65zM329 651c0 -47 -23 -63 -68 -63c-50 0 -66 24 -66 63
c0 44 19 65 66 65c48 0 68 -20 68 -65z" />
    <glyph glyph-name="wgrave" unicode="&#x1e81;" horiz-adv-x="743" 
d="M729 520l-146 -520h-94l-117 254l-120 -254h-89l-149 520h127l86 -342l111 238h77l108 -236l85 340h121zM490 590h-97l-161 176h138z" />
    <glyph glyph-name="ycircumflex" unicode="&#x177;" horiz-adv-x="543" 
d="M533 520l-219 -562c-45 -115 -114 -151 -209 -151c-33 0 -80 6 -114 17l29 99c29 -11 64 -17 85 -17c44 0 71 28 97 90l10 24l-198 500h133l128 -344l130 344h128zM457 590h-103l-83 98l-88 -98h-98l126 176h120z" />
    <glyph glyph-name="ygrave" unicode="&#x1ef3;" horiz-adv-x="543" 
d="M533 520l-219 -562c-45 -115 -114 -151 -209 -151c-33 0 -80 6 -114 17l29 99c29 -11 64 -17 85 -17c44 0 71 28 97 90l10 24l-198 500h133l128 -344l130 344h128zM383 590h-97l-161 176h138z" />
    <glyph glyph-name="zacute" unicode="&#x17a;" horiz-adv-x="502" 
d="M464 0h-423v79l254 345h-248v96h409v-77l-255 -346h263v-97zM446 766l-161 -176h-97l120 176h138z" />
    <glyph glyph-name="zdotaccent" unicode="&#x17c;" horiz-adv-x="502" 
d="M464 0h-423v79l254 345h-248v96h409v-77l-255 -346h263v-97zM316 652c0 -47 -22 -64 -67 -64c-51 0 -67 25 -67 64c0 44 20 64 67 64s67 -19 67 -64z" />
    <glyph glyph-name="kgreenlandic" unicode="&#x138;" horiz-adv-x="527" 
d="M522 0h-147l-130 229l-52 -58v-171h-129v520h129v-194l167 194h146l-176 -195z" />
    <glyph glyph-name="napostrophe" unicode="&#x149;" horiz-adv-x="686" 
d="M626 0h-129v306c0 87 -14 117 -67 117c-35 0 -86 -29 -129 -65v-358h-129v520h121v-62c53 45 115 77 175 77c106 0 158 -60 158 -189v-346zM146 682c0 -95 -43 -168 -74 -214h-74c34 50 64 108 64 140c0 5 -7 6 -11 8c-47 4 -61 31 -61 69c0 47 20 77 77 77
c54 0 79 -31 79 -80z" />
    <glyph glyph-name="Delta" unicode="&#x2206;" horiz-adv-x="674" 
d="M663 0h-653v58c78 214 156 428 235 642h186l232 -642v-58zM497 112l-146 416c-9 27 -14 52 -17 63h-4c-3 -11 -7 -35 -16 -61l-148 -418h331z" />
    <glyph glyph-name="uni03A9" unicode="&#x3a9;" horiz-adv-x="763" 
d="M714 0h-274v112c58 51 127 130 127 263c0 123 -65 216 -182 216c-110 0 -189 -86 -189 -220c0 -132 71 -210 127 -259v-112h-275v112h161c-73 48 -162 134 -162 290c0 179 136 310 338 310c221 0 331 -137 331 -307c0 -141 -77 -236 -166 -293h164v-112z" />
    <glyph glyph-name="uni03BC" unicode="&#x3bc;" horiz-adv-x="581" 
d="M517 0h-118l-2 54c-30 -45 -63 -69 -112 -69c-38 0 -66 12 -92 33v-211h-129v713h129v-373c16 -24 53 -48 90 -48c46 0 77 20 106 58v363h128v-520z" />
    <glyph glyph-name="pi" unicode="&#x3c0;" horiz-adv-x="738" 
d="M672 100l23 -87c-23 -14 -55 -22 -100 -22c-110 0 -150 73 -150 161v248h-127v-249c0 -71 -7 -115 -20 -151h-141c14 42 22 100 22 162v238c-29 0 -74 -11 -99 -25l-38 87c31 19 92 38 169 38h478v-100h-105v-229c0 -48 13 -81 52 -81c15 0 26 5 36 10z" />
    <glyph glyph-name="Euro" unicode="&#x20ac;" horiz-adv-x="626" 
d="M623 603l-99 -63c-26 47 -67 90 -145 90c-100 0 -146 -57 -159 -156h261l-25 -79h-245c0 -10 -1 -22 -1 -32c0 -9 1 -22 1 -31h229l-26 -79h-194c13 -100 62 -156 160 -156c70 0 119 37 153 71l76 -95c-50 -41 -115 -88 -237 -88c-183 0 -266 95 -291 268h-70l26 79h37
v63h-63l26 79h44c23 168 111 268 296 268c130 0 207 -61 246 -139z" />
    <glyph glyph-name="litre" unicode="&#x2113;" horiz-adv-x="532" 
d="M465 48c-33 -29 -89 -64 -155 -64c-48 0 -81 14 -107 40c-30 31 -43 86 -43 133v62l-56 -54l-37 62l93 89v198c0 133 58 214 161 214c88 0 121 -68 121 -125c0 -97 -51 -175 -123 -254c-11 -12 -27 -31 -35 -39v-135c0 -71 26 -96 63 -96c33 0 62 24 80 41
c12 -24 25 -48 38 -72zM364 586c0 27 -11 47 -34 47c-30 0 -46 -34 -46 -93v-129c5 6 14 16 19 23c38 49 61 108 61 152z" />
    <glyph glyph-name="Omega" unicode="&#x2126;" horiz-adv-x="763" 
d="M714 0h-274v112c58 51 127 130 127 263c0 123 -65 216 -182 216c-110 0 -189 -86 -189 -220c0 -132 71 -210 127 -259v-112h-275v112h161c-73 48 -162 134 -162 290c0 179 136 310 338 310c221 0 331 -137 331 -307c0 -141 -77 -236 -166 -293h164v-112z" />
    <glyph glyph-name="estimated" unicode="&#x212e;" horiz-adv-x="692" 
d="M645 304h-468v-210c45 -44 100 -68 166 -68c110 0 175 57 226 139l36 -23c-61 -92 -132 -154 -262 -154c-181 0 -296 143 -296 317c0 175 112 316 298 316c188 0 297 -142 300 -317zM512 343v172c-43 41 -104 69 -168 69c-65 0 -123 -23 -167 -68v-173h335z" />
    <glyph glyph-name="partialdiff" unicode="&#x2202;" horiz-adv-x="628" 
d="M583 459c0 -64 -9 -127 -26 -187c-45 -160 -147 -284 -298 -284c-128 0 -215 87 -215 206c0 201 140 298 263 298c66 0 116 -30 137 -65h2c2 16 3 31 3 51c0 92 -47 152 -133 152c-36 0 -75 -12 -104 -30l-29 90c32 22 91 41 156 41c155 0 244 -106 244 -272zM429 328
c-13 40 -43 70 -94 70c-82 0 -153 -92 -153 -209c0 -58 31 -97 82 -97c83 0 143 111 165 236z" />
    <glyph glyph-name="product" unicode="&#x220f;" horiz-adv-x="786" 
d="M707 -230h-140v810h-348v-810h-140v930h628v-930z" />
    <glyph glyph-name="summation" unicode="&#x2211;" horiz-adv-x="687" 
d="M652 -230h-617v74l314 396c-99 126 -197 253 -296 380v80h578v-112h-398l267 -345c-94 -121 -189 -241 -283 -361h435v-112z" />
    <glyph glyph-name="uni2219" unicode="&#x2219;" horiz-adv-x="266" 
d="M211 292c0 -54 -29 -73 -79 -73c-57 0 -77 28 -77 73c0 50 24 74 77 74s79 -23 79 -74z" />
    <glyph glyph-name="radical" unicode="&#x221a;" horiz-adv-x="584" 
d="M565 729c-70 -247 -140 -494 -211 -741h-101l-136 308l-59 -37l-39 66l154 99c43 -100 86 -200 130 -300l171 605h91z" />
    <glyph glyph-name="infinity" unicode="&#x221e;" horiz-adv-x="862" 
d="M814 294c0 -108 -76 -187 -187 -187c-78 0 -149 43 -194 110h-2c-44 -61 -113 -110 -194 -110c-107 0 -190 70 -190 184s85 184 188 184c84 0 150 -47 195 -110h2c35 50 101 110 193 110c111 0 189 -75 189 -181zM711 292c0 48 -30 91 -94 91c-56 0 -98 -36 -134 -91
c34 -56 80 -93 135 -93c63 0 93 45 93 93zM379 292c-35 52 -83 91 -136 91c-58 0 -92 -41 -92 -92c0 -52 38 -92 94 -92c54 0 101 41 134 93z" />
    <glyph glyph-name="integral" unicode="&#x222b;" horiz-adv-x="529" 
d="M454 636c-10 4 -29 10 -49 10c-45 0 -72 -29 -72 -87v-590c0 -127 -64 -206 -190 -206c-32 0 -76 7 -96 16l26 98c12 -5 29 -10 48 -10c46 0 73 30 73 87v589c0 127 61 207 189 207c39 0 81 -9 99 -18c-10 -32 -19 -64 -28 -96z" />
    <glyph glyph-name="approxequal" unicode="&#x2248;" horiz-adv-x="682" 
d="M624 147c-46 -35 -108 -70 -167 -70c-90 0 -162 70 -248 70c-43 0 -100 -31 -152 -65v104c42 31 103 70 171 70c85 0 160 -70 244 -70c46 0 109 36 152 65v-104zM624 377c-46 -35 -108 -70 -167 -70c-90 0 -162 70 -248 70c-43 0 -100 -31 -152 -65v104
c42 31 103 70 171 70c85 0 160 -70 244 -70c46 0 109 36 152 65v-104z" />
    <glyph glyph-name="notequal" unicode="&#x2260;" horiz-adv-x="682" 
d="M624 119h-315l-55 -109h-117l55 109h-135v106h189l66 124h-255v106h309l63 127h117l-63 -127h141v-106h-196l-65 -124h261v-106z" />
    <glyph glyph-name="lessequal" unicode="&#x2264;" horiz-adv-x="682" 
d="M625 0h-567v106h567v-106zM625 162l-567 189v101l567 213v-109l-425 -155l425 -130v-109z" />
    <glyph glyph-name="greaterequal" unicode="&#x2265;" horiz-adv-x="682" 
d="M626 351l-567 -189v109l425 130l-425 155v109l567 -213v-101zM626 0h-567v106h567v-106z" />
    <glyph glyph-name="lozenge" unicode="&#x25ca;" horiz-adv-x="617" 
d="M340 700l222 -350l-222 -350h-64l-222 349l222 351h64zM308 109l152 241l-152 241l-152 -241c50 -81 101 -161 152 -241z" />
    <glyph glyph-name="uni00A0" unicode="&#xa0;" horiz-adv-x="229" 
 />
    <glyph glyph-name="uni00AD" unicode="&#xad;" horiz-adv-x="380" 
d="M347 204h-314v114h314v-114z" />
    <glyph glyph-name="uni02C9" unicode="&#x2c9;" horiz-adv-x="500" 
d="M409 633h-318v89h318v-89z" />
    <glyph glyph-name="h.superior" unicode="&#xf700;" horiz-adv-x="447" 
d="M403 293h-115v225c0 55 -11 74 -42 74c-23 0 -50 -11 -83 -41v-258h-116v531h116v-176c32 23 72 41 113 41c85 0 127 -46 127 -143v-253z" />
    <glyph glyph-name="zero.fitted" unicode="&#xe097;" horiz-adv-x="622" 
d="M580 364c0 -215 -47 -379 -269 -379s-269 164 -269 378c0 215 47 379 269 379s269 -164 269 -378zM443 364c0 171 -23 268 -132 268s-132 -97 -132 -269c0 -170 23 -268 132 -268s132 98 132 269z" />
    <glyph glyph-name="one.fitted" unicode="&#xf6dc;" horiz-adv-x="485" 
d="M446 0h-377v106h133v452c-40 -22 -102 -42 -147 -49v105c81 25 143 65 187 128h90v-636h114v-106z" />
    <glyph glyph-name="two.fitted" unicode="&#xe098;" horiz-adv-x="610" 
d="M566 0h-521v102c74 60 136 115 200 174c113 104 157 182 157 248c0 53 -30 107 -116 107c-70 0 -118 -37 -156 -88l-89 75c51 65 115 124 256 124c142 0 247 -61 247 -209c0 -119 -53 -187 -105 -237c-62 -59 -143 -128 -210 -184h337v-112z" />
    <glyph glyph-name="three.fitted" unicode="&#xe099;" horiz-adv-x="585" 
d="M545 231c0 -171 -111 -246 -276 -246c-82 0 -186 27 -244 108l92 76c39 -47 92 -74 147 -74c93 0 145 45 145 136c0 81 -57 122 -146 122c-29 0 -57 -4 -79 -10v62l177 211h-293v111h452v-99l-155 -189c119 -13 180 -100 180 -208z" />
    <glyph glyph-name="four.fitted" unicode="&#xe09a;" horiz-adv-x="620" 
d="M585 160h-86v-175h-130v175h-339v117l349 465h120v-473h86v-109zM369 269v271l-205 -271h205z" />
    <glyph glyph-name="five.fitted" unicode="&#xe09b;" horiz-adv-x="590" 
d="M548 236c0 -154 -87 -251 -276 -251c-113 0 -201 46 -247 112l90 76c35 -44 87 -78 152 -78c91 0 143 49 143 134c0 90 -68 128 -151 128c-46 0 -89 -11 -127 -29h-67l44 399h403v-111h-300l-19 -170c30 10 68 17 101 17c140 0 254 -62 254 -227z" />
    <glyph glyph-name="six.fitted" unicode="&#xe09c;" horiz-adv-x="622" 
d="M580 240c0 -162 -98 -255 -262 -255c-189 0 -276 130 -276 336c0 218 65 421 304 421c86 0 147 -20 205 -66l-71 -91c-42 34 -78 49 -134 49c-107 0 -157 -90 -165 -214c43 31 105 54 170 54c132 0 229 -74 229 -234zM444 236c0 97 -56 127 -128 127
c-44 0 -99 -17 -131 -33c-5 -18 -6 -33 -6 -55c0 -113 57 -180 140 -180c79 0 125 46 125 141z" />
    <glyph glyph-name="seven.fitted" unicode="&#xe09d;" horiz-adv-x="565" 
d="M531 628l-278 -643h-148l287 630h-238v-99h-119v211h496v-99z" />
    <glyph glyph-name="eight.fitted" unicode="&#xe09e;" horiz-adv-x="622" 
d="M572 189c0 -139 -107 -204 -266 -204c-171 0 -266 69 -266 204c0 89 45 154 141 197c-56 28 -122 72 -122 170c0 117 87 186 247 186c157 0 247 -64 247 -185c0 -91 -61 -141 -123 -172c83 -42 142 -91 142 -196zM420 553c0 45 -29 87 -114 87c-88 0 -114 -43 -114 -86
c0 -40 28 -68 115 -109c76 32 113 64 113 108zM437 191c0 58 -44 95 -131 135c-76 -33 -131 -75 -131 -136c0 -56 34 -103 131 -103s131 47 131 104z" />
    <glyph glyph-name="nine.fitted" unicode="&#xe09f;" horiz-adv-x="622" 
d="M580 409c0 -218 -59 -424 -306 -424c-75 0 -147 17 -217 69l68 94c42 -32 90 -55 146 -55c121 0 163 94 170 216c-40 -29 -105 -53 -170 -53c-138 0 -229 72 -229 232c0 162 105 254 264 254c189 0 274 -126 274 -333zM444 430c0 91 -26 202 -139 202
c-80 0 -127 -48 -127 -140c0 -97 56 -126 128 -126c43 0 102 18 136 37c2 8 2 17 2 27z" />
    <glyph glyph-name="zero.taboldstyle" unicode="&#xe100;" horiz-adv-x="622" 
d="M579 293c0 -158 -48 -308 -269 -308c-220 0 -268 150 -268 307s48 307 268 307c221 0 269 -150 269 -306zM442 293c0 126 -28 196 -132 196c-103 0 -131 -70 -131 -197s28 -197 131 -197c104 0 132 70 132 198z" />
    <glyph glyph-name="one.taboldstyle" unicode="&#xe101;" horiz-adv-x="622" 
d="M514 0h-377v106h133v301c-40 -22 -102 -42 -147 -49v105c81 25 143 65 187 128h90v-485h114v-106z" />
    <glyph glyph-name="two.taboldstyle" unicode="&#xe102;" horiz-adv-x="622" 
d="M560 0h-501v97c72 48 130 92 192 140c109 84 151 123 151 176c0 37 -29 75 -112 75c-67 0 -107 -22 -147 -65l-88 75c39 47 110 101 246 101c128 0 237 -52 237 -174c0 -96 -51 -146 -101 -186c-59 -48 -108 -81 -171 -127h294v-112z" />
    <glyph glyph-name="three.taboldstyle" unicode="&#xe103;" horiz-adv-x="622" 
d="M555 82c0 -171 -111 -248 -276 -248c-82 0 -186 27 -244 108l92 76c39 -47 92 -74 147 -74c93 0 145 47 145 138c0 81 -57 124 -146 124c-29 0 -57 -4 -79 -10v62l177 215h-293v111h452v-99l-155 -193c119 -13 180 -102 180 -210z" />
    <glyph glyph-name="four.taboldstyle" unicode="&#xe104;" horiz-adv-x="622" 
d="M585 9h-86v-175h-130v175h-339v117l349 465h120v-473h86v-109zM369 118v271l-205 -271h205z" />
    <glyph glyph-name="five.taboldstyle" unicode="&#xe105;" horiz-adv-x="622" 
d="M568 88c0 -154 -87 -254 -276 -254c-113 0 -201 46 -247 112l90 76c35 -44 87 -78 152 -78c91 0 143 52 143 137c0 90 -68 130 -151 130c-46 0 -89 -11 -127 -29h-67l44 402h403v-111h-300l-19 -173c30 10 68 17 101 17c140 0 254 -64 254 -229z" />
    <glyph glyph-name="six.taboldstyle" unicode="&#xe106;" horiz-adv-x="622" 
d="M583 240c0 -162 -98 -255 -262 -255c-189 0 -276 130 -276 336c0 218 65 421 304 421c86 0 147 -20 205 -66l-71 -91c-42 34 -78 49 -134 49c-107 0 -157 -90 -165 -214c43 31 105 54 170 54c132 0 229 -74 229 -234zM447 236c0 97 -56 127 -128 127
c-44 0 -94 -16 -126 -32c-6 -11 -11 -27 -11 -56c0 -113 57 -180 140 -180c79 0 125 46 125 141z" />
    <glyph glyph-name="seven.taboldstyle" unicode="&#xe107;" horiz-adv-x="622" 
d="M560 485l-282 -651h-148l291 638h-238v-99h-119v211h496v-99z" />
    <glyph glyph-name="eight.taboldstyle" unicode="&#xe108;" horiz-adv-x="622" 
d="M577 189c0 -139 -107 -204 -266 -204c-171 0 -266 69 -266 204c0 89 45 154 141 197c-56 28 -122 72 -122 170c0 117 87 186 247 186c157 0 247 -64 247 -185c0 -91 -61 -141 -123 -172c83 -42 142 -91 142 -196zM425 553c0 45 -29 87 -114 87c-88 0 -114 -43 -114 -86
c0 -40 28 -68 115 -109c76 32 113 64 113 108zM442 191c0 58 -44 95 -131 135c-76 -33 -131 -75 -131 -136c0 -56 34 -103 131 -103s131 47 131 104z" />
    <glyph glyph-name="nine.taboldstyle" unicode="&#xe109;" horiz-adv-x="622" 
d="M577 260c0 -218 -59 -426 -306 -426c-75 0 -147 17 -217 69l68 94c42 -32 90 -55 146 -55c121 0 163 96 170 218c-40 -29 -105 -53 -170 -53c-138 0 -229 75 -229 235c0 162 105 257 264 257c189 0 274 -132 274 -339zM433 251c5 15 7 35 7 57c0 104 -49 181 -138 181
c-80 0 -127 -51 -127 -143c0 -97 56 -129 128 -129c43 0 97 18 130 34z" />
    <glyph glyph-name="zero.denominator" unicode="&#xe10a;" 
d="M438 63c0 -130 -39 -229 -196 -229s-196 100 -196 229c0 130 39 229 196 229s196 -99 196 -229zM318 63c0 104 -18 136 -76 136c-57 0 -75 -33 -75 -136c0 -100 18 -136 75 -136c58 0 76 34 76 136z" />
    <glyph glyph-name="one.denominator" unicode="&#xe10b;" 
d="M403 -154h-299v93h98v202c-31 -14 -68 -26 -109 -32v92c66 19 111 46 144 94h81v-356h85v-93z" />
    <glyph glyph-name="two.denominator" unicode="&#xe10c;" 
d="M446 -154h-393v83c57 37 101 71 147 105c30 23 53 40 69 55c24 23 35 43 35 65c0 25 -20 44 -69 44c-44 0 -73 -14 -111 -50l-78 65c39 42 90 82 196 82c91 0 188 -35 188 -132c0 -57 -27 -92 -62 -124c-38 -34 -80 -65 -125 -96h203v-97z" />
    <glyph glyph-name="three.denominator" unicode="&#xe10d;" 
d="M416 -10c0 -107 -82 -156 -189 -156c-54 0 -121 13 -172 82l80 54c19 -25 49 -45 85 -45c49 0 73 25 73 66c0 35 -28 58 -74 58c-20 0 -36 -2 -53 -6v46l99 105h-176v92h312v-77l-85 -94c70 -14 100 -64 100 -125z" />
    <glyph glyph-name="four.denominator" unicode="&#xe10e;" 
d="M434 -72h-58v-94h-114v94h-219v90l218 277h115v-279h58v-88zM265 12v145l-113 -145h113z" />
    <glyph glyph-name="five.denominator" unicode="&#xe10f;" 
d="M424 -8c0 -81 -61 -158 -194 -158c-78 0 -144 35 -184 84l75 56c26 -28 68 -48 106 -48c48 0 76 25 76 62c0 38 -37 58 -81 58c-28 0 -56 -8 -80 -20h-64l33 257h290v-90h-199l-7 -62c15 3 48 5 62 5c83 0 167 -39 167 -144z" />
    <glyph glyph-name="six.denominator" unicode="&#xe110;" 
d="M432 -6c0 -95 -69 -160 -185 -160c-133 0 -195 88 -195 205c0 131 46 253 213 253c59 0 106 -15 152 -47l-54 -75c-32 22 -66 32 -99 32c-48 0 -91 -26 -91 -86c30 16 65 21 95 21c81 0 164 -42 164 -143zM312 -8c0 41 -29 58 -67 58c-25 0 -54 -9 -71 -19
c-1 -8 -1 -11 -1 -17c2 -51 31 -84 74 -84c41 0 65 20 65 62z" />
    <glyph glyph-name="seven.denominator" unicode="&#xe111;" 
d="M425 207l-174 -373h-128l172 357h-133v-60h-89v152h352v-76z" />
    <glyph glyph-name="eight.denominator" unicode="&#xe112;" 
d="M430 -34c0 -80 -75 -132 -188 -132c-121 0 -188 47 -188 127c0 43 32 89 79 115c-30 18 -67 49 -67 100c0 70 62 116 176 116c112 0 176 -40 176 -116c0 -46 -33 -80 -65 -100c42 -24 77 -59 77 -110zM300 162c0 23 -15 46 -58 46c-44 0 -58 -25 -58 -45
c0 -23 14 -39 59 -55c40 13 57 32 57 54zM311 -30c0 25 -24 53 -69 69c-39 -16 -69 -38 -69 -70c0 -26 18 -51 69 -51s69 25 69 52z" />
    <glyph glyph-name="nine.denominator" unicode="&#xe113;" 
d="M52 132c0 95 69 160 185 160c133 0 195 -88 195 -205c0 -131 -46 -253 -213 -253c-59 0 -106 15 -152 47l54 75c32 -22 66 -32 99 -32c48 0 91 28 91 88c-30 -16 -65 -21 -95 -21c-81 0 -164 40 -164 141zM172 134c0 -41 29 -56 67 -56c25 0 54 7 71 17c1 8 1 13 1 19
c-2 51 -31 82 -74 82c-41 0 -65 -20 -65 -62z" />
    <glyph glyph-name="zero.numerator" unicode="&#xe11e;" 
d="M438 513c0 -130 -39 -229 -196 -229s-196 100 -196 229c0 130 39 229 196 229s196 -99 196 -229zM318 513c0 104 -18 136 -76 136c-57 0 -75 -33 -75 -136c0 -100 18 -136 75 -136c58 0 76 34 76 136z" />
    <glyph glyph-name="one.numerator" unicode="&#xe11f;" 
d="M403 293h-299v93h98v202c-31 -14 -68 -26 -109 -32v92c66 19 111 46 144 94h81v-356h85v-93z" />
    <glyph glyph-name="two.numerator" unicode="&#xe120;" 
d="M446 293h-393v83c57 37 101 71 147 105c30 23 53 40 69 55c24 23 35 43 35 65c0 25 -20 44 -69 44c-44 0 -73 -14 -111 -50l-78 65c39 42 90 82 196 82c91 0 188 -35 188 -132c0 -57 -27 -92 -62 -124c-38 -34 -80 -65 -125 -96h203v-97z" />
    <glyph glyph-name="three.numerator" unicode="&#xe121;" 
d="M416 437c0 -107 -82 -156 -189 -156c-54 0 -121 13 -172 82l80 54c19 -25 49 -45 85 -45c49 0 73 25 73 66c0 35 -28 58 -74 58c-20 0 -36 -2 -53 -6v46l99 105h-176v92h312v-77l-85 -94c70 -14 100 -64 100 -125z" />
    <glyph glyph-name="four.numerator" unicode="&#xe122;" 
d="M434 375h-58v-94h-114v94h-219v90l218 277h115v-279h58v-88zM265 459v145l-113 -145h113z" />
    <glyph glyph-name="five.numerator" unicode="&#xe123;" 
d="M424 442c0 -81 -61 -158 -194 -158c-78 0 -144 35 -184 84l75 56c26 -28 68 -48 106 -48c48 0 76 25 76 62c0 38 -37 58 -81 58c-28 0 -56 -8 -80 -20h-64l33 257h290v-90h-199l-7 -62c15 3 48 5 62 5c83 0 167 -39 167 -144z" />
    <glyph glyph-name="six.numerator" unicode="&#xe124;" 
d="M432 444c0 -95 -69 -160 -185 -160c-133 0 -195 88 -195 205c0 131 46 253 213 253c59 0 106 -15 152 -47l-54 -75c-32 22 -66 32 -99 32c-48 0 -91 -26 -91 -86c30 16 65 21 95 21c81 0 164 -42 164 -143zM312 442c0 41 -29 58 -67 58c-25 0 -54 -9 -71 -19
c-1 -8 -1 -11 -1 -17c2 -51 31 -84 74 -84c41 0 65 20 65 62z" />
    <glyph glyph-name="seven.numerator" unicode="&#xe125;" 
d="M425 657l-174 -373h-128l172 357h-133v-60h-89v152h352v-76z" />
    <glyph glyph-name="eight.numerator" unicode="&#xe126;" 
d="M430 416c0 -80 -75 -132 -188 -132c-121 0 -188 47 -188 127c0 43 32 89 79 115c-30 18 -67 49 -67 100c0 70 62 116 176 116c112 0 176 -40 176 -116c0 -46 -33 -80 -65 -100c42 -24 77 -59 77 -110zM300 612c0 23 -15 46 -58 46c-44 0 -58 -25 -58 -45
c0 -23 14 -39 59 -55c40 13 57 32 57 54zM311 420c0 25 -24 53 -69 69c-39 -16 -69 -38 -69 -70c0 -26 18 -51 69 -51s69 25 69 52z" />
    <glyph glyph-name="nine.numerator" unicode="&#xe127;" 
d="M52 582c0 95 69 160 185 160c133 0 195 -88 195 -205c0 -131 -46 -253 -213 -253c-59 0 -106 15 -152 47l54 75c32 -22 66 -32 99 -32c48 0 91 28 91 88c-30 -16 -65 -21 -95 -21c-81 0 -164 40 -164 141zM172 584c0 -41 29 -56 67 -56c25 0 54 7 71 17c1 8 1 13 1 19
c-2 51 -31 82 -74 82c-41 0 -65 -20 -65 -62z" />
    <glyph glyph-name="I.alt" horiz-adv-x="281" 
d="M211 0h-141v727h141v-727z" />
    <glyph glyph-name="J.alt" horiz-adv-x="336" 
d="M266 26c0 -157 -79 -219 -224 -219c-57 0 -124 14 -162 29l41 110c26 -11 68 -24 109 -24c78 0 95 45 95 145v660h141v-701z" />
    <glyph glyph-name="g.alt" horiz-adv-x="576" 
d="M512 527v-508c0 -151 -82 -212 -237 -212c-73 0 -149 18 -197 42l42 93c40 -22 89 -39 149 -39c80 0 114 33 114 106v36c-39 -26 -86 -45 -140 -45c-141 0 -205 114 -205 265c0 146 66 270 215 270c54 0 94 -13 130 -44v36h129zM383 139v262c-30 25 -59 37 -97 37
c-84 0 -114 -78 -114 -171c0 -92 21 -170 101 -170c44 0 73 14 110 42z" />
    <glyph glyph-name="i.alt" horiz-adv-x="278" 
d="M218 652c0 -47 -29 -68 -79 -68c-52 0 -79 23 -79 68c0 46 30 69 79 69c39 0 79 -16 79 -69zM203 0h-129v520h129v-520z" />
    <glyph glyph-name="j.alt" horiz-adv-x="287" 
d="M234 652c0 -47 -29 -68 -79 -68c-52 0 -79 23 -79 68c0 46 30 69 79 69c39 0 79 -16 79 -69zM221 -5c0 -122 -43 -188 -175 -188c-25 0 -71 4 -116 18l32 97c25 -9 48 -13 77 -13c42 0 53 29 53 92v519h129v-525z" />
    <glyph glyph-name="l.alt" horiz-adv-x="279" 
d="M204 0h-129v692l129 70v-762z" />
    <glyph glyph-name="g.alt2" horiz-adv-x="562" 
d="M547 -38c0 -141 -164 -155 -254 -155c-121 0 -263 9 -263 130c0 57 37 95 76 111c-37 20 -48 48 -48 78c0 34 17 64 50 90c-38 40 -50 85 -50 131c0 106 64 188 221 188c40 0 96 -7 132 -33c28 21 60 33 100 33h36v-94h-30c-12 0 -32 -2 -44 -6c18 -30 25 -60 25 -89
c0 -119 -80 -190 -220 -190c-37 0 -72 6 -93 13c-6 -8 -10 -18 -10 -28c0 -28 40 -27 122 -32c152 -9 250 -33 250 -147zM366 347c0 56 -28 88 -87 88c-60 0 -89 -31 -89 -91c0 -58 28 -88 90 -88c57 0 86 32 86 91zM421 -39c0 42 -66 45 -223 54c-24 -11 -42 -30 -42 -59
c0 -46 54 -52 137 -52c59 0 128 6 128 57z" />
    <glyph glyph-name="Iacute.alt" horiz-adv-x="281" 
d="M211 0h-141v727h141v-727zM311 956l-161 -176h-97l120 176h138z" />
    <glyph glyph-name="Icircumflex.alt" horiz-adv-x="281" 
d="M211 0h-141v727h141v-727zM327 780h-103l-83 98l-88 -98h-98l126 176h120z" />
    <glyph glyph-name="Idieresis.alt" horiz-adv-x="281" 
d="M211 0h-141v727h141v-727zM319 843c0 -47 -23 -63 -68 -63c-50 0 -67 24 -67 63c0 44 20 65 67 65c48 0 68 -20 68 -65zM100 843c0 -47 -23 -63 -68 -63c-50 0 -66 24 -66 63c0 44 19 65 66 65c48 0 68 -20 68 -65z" />
    <glyph glyph-name="Igrave.alt" horiz-adv-x="281" 
d="M211 0h-141v727h141v-727zM230 780h-97l-161 176h138z" />
    <glyph glyph-name="dotlessi.alt" horiz-adv-x="278" 
d="M203 0h-129v520h129v-520z" />
    <glyph glyph-name="iacute.alt" horiz-adv-x="278" 
d="M203 0h-129v520h129v-520zM312 766l-161 -176h-97l120 176h138z" />
    <glyph glyph-name="icircumflex.alt" horiz-adv-x="278" 
d="M203 0h-129v520h129v-520zM330 590h-103l-83 98l-88 -98h-98l126 176h120z" />
    <glyph glyph-name="idieresis.alt" horiz-adv-x="278" 
d="M203 0h-129v520h129v-520zM316 651c0 -47 -23 -63 -68 -63c-50 0 -67 24 -67 63c0 44 20 65 67 65c48 0 68 -20 68 -65zM97 651c0 -47 -23 -63 -68 -63c-50 0 -66 24 -66 63c0 44 19 65 66 65c48 0 68 -20 68 -65z" />
    <glyph glyph-name="igrave.alt" horiz-adv-x="278" 
d="M203 0h-129v520h129v-520zM218 590h-97l-161 176h138z" />
    <glyph glyph-name="lslash.alt" horiz-adv-x="279" 
d="M204 0h-129v262l-64 -51v110l64 51v320l129 70v-287l73 58v-111l-73 -58v-364z" />
    <glyph glyph-name="f_l.alt" horiz-adv-x="579" 
d="M504 0h-129v620c-26 10 -59 19 -86 19c-59 0 -75 -21 -75 -82v-37h107v-96h-107v-424h-129v424h-74v96h74v37c0 102 27 185 195 185c54 0 117 -16 145 -26l79 39v-755z" />
    <glyph glyph-name="zero.tab" horiz-adv-x="622" 
d="M580 364c0 -215 -47 -379 -269 -379s-269 164 -269 378c0 215 47 379 269 379s269 -164 269 -378zM443 364c0 171 -23 268 -132 268s-132 -97 -132 -269c0 -170 23 -268 132 -268s132 98 132 269z" />
    <glyph glyph-name="one.tab" horiz-adv-x="622" 
d="M525 0h-377v106h133v452c-40 -22 -102 -42 -147 -49v105c81 25 143 65 187 128h90v-636h114v-106z" />
    <glyph glyph-name="two.tab" horiz-adv-x="622" 
d="M566 0h-521v102c74 60 136 115 200 174c113 104 157 182 157 248c0 53 -30 107 -116 107c-70 0 -118 -37 -156 -88l-89 75c51 65 115 124 256 124c142 0 247 -61 247 -209c0 -119 -53 -187 -105 -237c-62 -59 -143 -128 -210 -184h337v-112z" />
    <glyph glyph-name="three.tab" horiz-adv-x="622" 
d="M546 231c0 -171 -111 -246 -276 -246c-82 0 -186 27 -244 108l92 76c39 -47 92 -74 147 -74c93 0 145 45 145 136c0 81 -57 122 -146 122c-29 0 -57 -4 -79 -10v62l177 211h-293v111h452v-99l-155 -189c119 -13 180 -100 180 -208z" />
    <glyph glyph-name="four.tab" horiz-adv-x="622" 
d="M584 160h-86v-175h-130v175h-339v117l349 465h120v-473h86v-109zM368 269v271l-205 -271h205z" />
    <glyph glyph-name="five.tab" horiz-adv-x="622" 
d="M552 236c0 -154 -87 -251 -276 -251c-113 0 -201 46 -247 112l90 76c35 -44 87 -78 152 -78c91 0 143 49 143 134c0 90 -68 128 -151 128c-46 0 -89 -11 -127 -29h-67l44 399h403v-111h-300l-19 -170c30 10 68 17 101 17c140 0 254 -62 254 -227z" />
    <glyph glyph-name="seven.tab" horiz-adv-x="622" 
d="M571 628l-278 -643h-148l287 630h-238v-99h-119v211h496v-99z" />
    <glyph glyph-name="six.tab" horiz-adv-x="622" 
d="M580 240c0 -162 -98 -255 -262 -255c-189 0 -276 130 -276 336c0 218 65 421 304 421c86 0 147 -20 205 -66l-71 -91c-42 34 -78 49 -134 49c-107 0 -157 -90 -165 -214c43 31 105 54 170 54c132 0 229 -74 229 -234zM444 236c0 97 -56 127 -128 127
c-44 0 -94 -16 -126 -32c-6 -11 -11 -27 -11 -56c0 -113 57 -180 140 -180c79 0 125 46 125 141z" />
    <glyph glyph-name="eight.tab" horiz-adv-x="622" 
d="M577 189c0 -139 -107 -204 -266 -204c-171 0 -266 69 -266 204c0 89 45 154 141 197c-56 28 -122 72 -122 170c0 117 87 186 247 186c157 0 247 -64 247 -185c0 -91 -61 -141 -123 -172c83 -42 142 -91 142 -196zM425 553c0 45 -29 87 -114 87c-88 0 -114 -43 -114 -86
c0 -40 28 -68 115 -109c76 32 113 64 113 108zM442 191c0 58 -44 95 -131 135c-76 -33 -131 -75 -131 -136c0 -56 34 -103 131 -103s131 47 131 104z" />
    <glyph glyph-name="nine.tab" horiz-adv-x="622" 
d="M578 409c0 -218 -59 -424 -306 -424c-75 0 -147 17 -217 69l68 94c42 -32 90 -55 146 -55c121 0 163 94 170 216c-40 -29 -105 -53 -170 -53c-138 0 -229 72 -229 232c0 162 105 254 264 254c189 0 274 -126 274 -333zM442 430c0 91 -26 202 -139 202
c-80 0 -127 -48 -127 -140c0 -97 56 -126 128 -126c43 0 102 18 136 37c2 9 2 17 2 27z" />
    <glyph glyph-name="uni2215" unicode="&#x2215;" horiz-adv-x="132" 
d="M321 727l-394 -878h-117l393 878h118z" />
    <glyph glyph-name="IJ.alt" horiz-adv-x="584" 
d="M211 0h-141v727h141v-727zM589 26c0 -157 -79 -219 -224 -219c-57 0 -124 14 -162 29l41 110c26 -11 68 -24 109 -24c78 0 95 45 95 145v660h141v-701z" />
    <glyph glyph-name="Ibreve.alt" horiz-adv-x="281" 
d="M211 0h-141v727h141v-727zM326 918c-15 -53 -51 -138 -186 -138c-132 0 -168 82 -184 138h91c19 -32 44 -52 93 -52c36 0 64 11 82 33c5 6 9 12 13 19h91z" />
    <glyph glyph-name="Idotaccent.alt" horiz-adv-x="281" 
d="M211 0h-141v727h141v-727zM206 844c0 -47 -22 -64 -67 -64c-51 0 -67 25 -67 64c0 44 20 64 67 64s67 -19 67 -64z" />
    <glyph glyph-name="Imacron.alt" horiz-adv-x="281" 
d="M211 0h-141v727h141v-727zM298 752h-318v89h318v-89z" />
    <glyph glyph-name="Iogonek.alt" horiz-adv-x="281" 
d="M334 -156c-40 -21 -84 -37 -135 -37c-83 0 -124 48 -124 107c0 32 7 62 15 86h-20v727h141v-727h-28c-7 -23 -8 -40 -8 -57c0 -31 17 -54 50 -54c26 0 47 8 72 21z" />
    <glyph glyph-name="Itilde.alt" horiz-adv-x="281" 
d="M211 0h-141v727h141v-727zM318 913c-3 -44 -15 -79 -39 -103c-20 -20 -48 -31 -85 -31c-31 0 -56 9 -78 22l-20 11c-5 3 -9 6 -14 8c-9 4 -19 7 -28 7c-11 0 -20 -4 -27 -11c-9 -9 -15 -21 -15 -37h-83c2 43 15 79 40 103c21 20 48 31 83 31c30 0 56 -9 78 -21
s44 -26 63 -26c11 0 20 5 27 12c9 9 16 21 16 35h82z" />
    <glyph glyph-name="Jcircumflex.alt" horiz-adv-x="336" 
d="M266 26c0 -157 -79 -219 -224 -219c-57 0 -124 14 -162 29l41 110c26 -11 68 -24 109 -24c78 0 95 45 95 145v660h141v-701zM365 780h-103l-83 98l-88 -98h-98l126 176h120z" />
    <glyph glyph-name="f_f_l.alt" horiz-adv-x="885" 
d="M385 722l-28 -98c-18 7 -49 15 -74 15c-50 0 -69 -19 -69 -82v-37h177v37c0 102 27 185 195 185c54 0 117 -16 145 -26l79 39v-755h-129v620c-26 10 -59 19 -86 19c-59 0 -75 -21 -75 -82v-37h107v-96h-107v-424h-129v424h-177v-424h-129v424h-74v96h74v37
c0 102 32 185 183 185c43 0 85 -10 117 -20z" />
    <glyph glyph-name="gbreve.alt" horiz-adv-x="576" 
d="M473 728c-15 -53 -51 -138 -186 -138c-132 0 -168 82 -184 138h91c19 -32 44 -52 93 -52c36 0 64 11 82 33c5 6 9 12 13 19h91zM512 527v-508c0 -151 -82 -212 -237 -212c-73 0 -149 18 -197 42l42 93c40 -22 89 -39 149 -39c80 0 114 33 114 106v36
c-39 -26 -86 -45 -140 -45c-141 0 -205 114 -205 265c0 146 66 270 215 270c54 0 94 -13 130 -44v36h129zM383 139v262c-30 25 -59 37 -97 37c-84 0 -114 -78 -114 -171c0 -92 21 -170 101 -170c44 0 73 14 110 42z" />
    <glyph glyph-name="gbreve.alt2" horiz-adv-x="562" 
d="M547 -38c0 -141 -164 -155 -254 -155c-121 0 -263 9 -263 130c0 57 37 95 76 111c-37 20 -48 48 -48 78c0 34 17 64 50 90c-38 40 -50 85 -50 131c0 106 64 188 221 188c40 0 96 -7 132 -33c28 21 60 33 100 33h36v-94h-30c-12 0 -32 -2 -44 -6c18 -30 25 -60 25 -89
c0 -119 -80 -190 -220 -190c-37 0 -72 6 -93 13c-6 -8 -10 -18 -10 -28c0 -28 40 -27 122 -32c152 -9 250 -33 250 -147zM366 347c0 56 -28 88 -87 88c-60 0 -89 -31 -89 -91c0 -58 28 -88 90 -88c57 0 86 32 86 91zM421 -39c0 42 -66 45 -223 54c-24 -11 -42 -30 -42 -59
c0 -46 54 -52 137 -52c59 0 128 6 128 57zM460 728c-15 -53 -51 -138 -186 -138c-132 0 -168 82 -184 138h91c19 -32 44 -52 93 -52c36 0 64 11 82 33c5 6 9 12 13 19h91z" />
    <glyph glyph-name="gcircumflex.alt" horiz-adv-x="576" 
d="M473 590h-103l-83 98l-88 -98h-98l126 176h120zM512 527v-508c0 -151 -82 -212 -237 -212c-73 0 -149 18 -197 42l42 93c40 -22 89 -39 149 -39c80 0 114 33 114 106v36c-39 -26 -86 -45 -140 -45c-141 0 -205 114 -205 265c0 146 66 270 215 270c54 0 94 -13 130 -44v36
h129zM383 139v262c-30 25 -59 37 -97 37c-84 0 -114 -78 -114 -171c0 -92 21 -170 101 -170c44 0 73 14 110 42z" />
    <glyph glyph-name="gcircumflex.alt2" horiz-adv-x="562" 
d="M547 -38c0 -141 -164 -155 -254 -155c-121 0 -263 9 -263 130c0 57 37 95 76 111c-37 20 -48 48 -48 78c0 34 17 64 50 90c-38 40 -50 85 -50 131c0 106 64 188 221 188c40 0 96 -7 132 -33c28 21 60 33 100 33h36v-94h-30c-12 0 -32 -2 -44 -6c18 -30 25 -60 25 -89
c0 -119 -80 -190 -220 -190c-37 0 -72 6 -93 13c-6 -8 -10 -18 -10 -28c0 -28 40 -27 122 -32c152 -9 250 -33 250 -147zM366 347c0 56 -28 88 -87 88c-60 0 -89 -31 -89 -91c0 -58 28 -88 90 -88c57 0 86 32 86 91zM421 -39c0 42 -66 45 -223 54c-24 -11 -42 -30 -42 -59
c0 -46 54 -52 137 -52c59 0 128 6 128 57zM465 590h-103l-83 98l-88 -98h-98l126 176h120z" />
    <glyph glyph-name="gcommaaccent.alt" horiz-adv-x="576" 
d="M184 668c0 40 25 77 42 91h74c-13 -13 -23 -34 -24 -54c41 0 57 -29 57 -52c0 -35 -22 -65 -75 -65c-52 0 -74 33 -74 80zM512 527v-508c0 -151 -82 -212 -237 -212c-73 0 -149 18 -197 42l42 93c40 -22 89 -39 149 -39c80 0 114 33 114 106v36c-39 -26 -86 -45 -140 -45
c-141 0 -205 114 -205 265c0 146 66 270 215 270c54 0 94 -13 130 -44v36h129zM383 139v262c-30 25 -59 37 -97 37c-84 0 -114 -78 -114 -171c0 -92 21 -170 101 -170c44 0 73 14 110 42z" />
    <glyph glyph-name="gcommaaccent.alt2" horiz-adv-x="562" 
d="M547 -38c0 -141 -164 -155 -254 -155c-121 0 -263 9 -263 130c0 57 37 95 76 111c-37 20 -48 48 -48 78c0 34 17 64 50 90c-38 40 -50 85 -50 131c0 106 64 188 221 188c40 0 96 -7 132 -33c28 21 60 33 100 33h36v-94h-30c-12 0 -32 -2 -44 -6c18 -30 25 -60 25 -89
c0 -119 -80 -190 -220 -190c-37 0 -72 6 -93 13c-6 -8 -10 -18 -10 -28c0 -28 40 -27 122 -32c152 -9 250 -33 250 -147zM366 347c0 56 -28 88 -87 88c-60 0 -89 -31 -89 -91c0 -58 28 -88 90 -88c57 0 86 32 86 91zM421 -39c0 42 -66 45 -223 54c-24 -11 -42 -30 -42 -59
c0 -46 54 -52 137 -52c59 0 128 6 128 57zM203 668c0 40 25 77 42 91h74c-13 -13 -23 -34 -24 -54c41 0 57 -29 57 -52c0 -35 -22 -65 -75 -65c-52 0 -74 33 -74 80z" />
    <glyph glyph-name="gdotaccent.alt" horiz-adv-x="576" 
d="M340 652c0 -47 -22 -64 -67 -64c-51 0 -67 25 -67 64c0 44 20 64 67 64s67 -19 67 -64zM512 527v-508c0 -151 -82 -212 -237 -212c-73 0 -149 18 -197 42l42 93c40 -22 89 -39 149 -39c80 0 114 33 114 106v36c-39 -26 -86 -45 -140 -45c-141 0 -205 114 -205 265
c0 146 66 270 215 270c54 0 94 -13 130 -44v36h129zM383 139v262c-30 25 -59 37 -97 37c-84 0 -114 -78 -114 -171c0 -92 21 -170 101 -170c44 0 73 14 110 42z" />
    <glyph glyph-name="gdotaccent.alt2" horiz-adv-x="562" 
d="M547 -38c0 -141 -164 -155 -254 -155c-121 0 -263 9 -263 130c0 57 37 95 76 111c-37 20 -48 48 -48 78c0 34 17 64 50 90c-38 40 -50 85 -50 131c0 106 64 188 221 188c40 0 96 -7 132 -33c28 21 60 33 100 33h36v-94h-30c-12 0 -32 -2 -44 -6c18 -30 25 -60 25 -89
c0 -119 -80 -190 -220 -190c-37 0 -72 6 -93 13c-6 -8 -10 -18 -10 -28c0 -28 40 -27 122 -32c152 -9 250 -33 250 -147zM366 347c0 56 -28 88 -87 88c-60 0 -89 -31 -89 -91c0 -58 28 -88 90 -88c57 0 86 32 86 91zM421 -39c0 42 -66 45 -223 54c-24 -11 -42 -30 -42 -59
c0 -46 54 -52 137 -52c59 0 128 6 128 57zM342 652c0 -47 -22 -64 -67 -64c-51 0 -67 25 -67 64c0 44 20 64 67 64s67 -19 67 -64z" />
    <glyph glyph-name="i.dot" horiz-adv-x="305" 
d="M245 652c0 -47 -29 -68 -79 -68c-52 0 -79 23 -79 68c0 46 30 69 79 69c39 0 79 -16 79 -69zM236 0h-129v424h-82v96h211v-520z" />
    <glyph glyph-name="ibreve.alt" horiz-adv-x="278" 
d="M204 0h-129v520h129v-520zM326 728c-15 -53 -51 -138 -186 -138c-132 0 -168 82 -184 138h91c19 -32 44 -52 93 -52c36 0 64 11 82 33c5 6 9 12 13 19h91z" />
    <glyph glyph-name="ij.alt" horiz-adv-x="555" 
d="M218 652c0 -47 -29 -68 -79 -68c-52 0 -79 23 -79 68c0 46 30 69 79 69c39 0 79 -16 79 -69zM203 0h-129v520h129v-520zM502 652c0 -47 -29 -68 -79 -68c-52 0 -79 23 -79 68c0 46 30 69 79 69c39 0 79 -16 79 -69zM489 -5c0 -122 -43 -188 -175 -188
c-25 0 -71 4 -116 18l32 97c25 -9 48 -13 77 -13c42 0 53 29 53 92v519h129v-525z" />
    <glyph glyph-name="imacron.alt" horiz-adv-x="278" 
d="M204 0h-129v520h129v-520zM299 563h-318v89h318v-89z" />
    <glyph glyph-name="iogonek.alt" horiz-adv-x="278" 
d="M329 -156c-40 -21 -84 -37 -135 -37c-83 0 -124 48 -124 107c0 32 7 62 15 86h-11v520h129v-520h-25c-7 -23 -8 -40 -8 -57c0 -31 17 -54 50 -54c26 0 47 8 72 21zM218 652c0 -47 -29 -68 -79 -68c-52 0 -79 23 -79 68c0 46 30 69 79 69c39 0 79 -16 79 -69z" />
    <glyph glyph-name="itilde.alt" horiz-adv-x="278" 
d="M204 0h-129v520h129v-520zM333 745c-3 -44 -15 -79 -39 -103c-20 -20 -48 -31 -85 -31c-31 0 -56 9 -78 22l-20 11c-5 3 -9 6 -14 8c-9 4 -19 7 -28 7c-11 0 -20 -4 -27 -11c-9 -9 -15 -21 -15 -37h-83c2 43 15 79 40 103c21 20 48 31 83 31c30 0 56 -9 78 -21
s44 -26 63 -26c11 0 20 5 27 12c9 9 16 21 16 35h82z" />
    <glyph glyph-name="jcircumflex.alt" horiz-adv-x="287" 
d="M221 -5c0 -122 -43 -188 -175 -188c-25 0 -71 4 -116 18l32 97c25 -9 48 -13 77 -13c42 0 53 29 53 92v519h129v-525zM342 590h-103l-83 98l-88 -98h-98l126 176h120z" />
    <glyph glyph-name="lacute.alt" horiz-adv-x="279" 
d="M204 0h-129v692l129 70v-762zM298 956l-161 -176h-97l120 176h138z" />
    <glyph glyph-name="lcaron.alt" horiz-adv-x="356" 
d="M204 0h-129v692l129 70v-762zM395 647c0 -95 -43 -168 -74 -214h-74c34 50 64 108 64 140c0 5 -7 6 -11 8c-47 4 -61 31 -61 69c0 47 20 77 77 77c54 0 79 -31 79 -80z" />
    <glyph glyph-name="lcommaaccent.alt" horiz-adv-x="279" 
d="M204 0h-129v692l129 70v-762zM213 -104c0 -40 -25 -77 -42 -91h-74c13 13 23 34 24 54c-41 0 -57 29 -57 52c0 35 22 65 75 65c52 0 74 -33 74 -80z" />
    <glyph glyph-name="ldot.alt" horiz-adv-x="331" 
d="M204 0h-129v692l129 70v-762zM368 351c0 -47 -22 -64 -67 -64c-51 0 -67 25 -67 64c0 44 20 64 67 64s67 -19 67 -64z" />
    <glyph glyph-name="perthousand.tab" horiz-adv-x="1391" 
d="M220 339c-58 0 -98 16 -131 51c-34 38 -53 88 -53 153c0 63 16 114 52 152c30 31 74 47 132 47s102 -16 132 -47c36 -38 52 -89 52 -152c0 -65 -19 -115 -53 -153c-33 -35 -73 -51 -131 -51zM219 649c-23 0 -39 -10 -48 -23c-13 -17 -20 -48 -20 -84s8 -69 24 -89
c8 -10 21 -18 44 -18c24 0 37 8 45 18c16 20 24 53 24 89s-7 67 -20 84c-9 13 -25 23 -49 23zM751 727l-410 -742h-128l409 742h129zM756 -15c-58 0 -98 16 -131 51c-34 38 -53 88 -53 153c0 63 16 114 52 152c30 31 74 47 132 47s102 -16 132 -47c36 -38 52 -89 52 -152
c0 -65 -19 -115 -53 -153c-33 -35 -73 -51 -131 -51zM755 295c-23 0 -39 -10 -48 -23c-13 -17 -20 -48 -20 -84s8 -69 24 -89c8 -10 21 -18 44 -18c24 0 37 8 45 18c16 20 24 53 24 89s-7 67 -20 84c-9 13 -25 23 -49 23zM1171 -15c-58 0 -98 16 -131 51
c-34 38 -53 88 -53 153c0 63 16 114 52 152c30 31 74 47 132 47s102 -16 132 -47c36 -38 52 -89 52 -152c0 -65 -19 -115 -53 -153c-33 -35 -73 -51 -131 -51zM1170 295c-23 0 -39 -10 -48 -23c-13 -17 -20 -48 -20 -84s8 -69 24 -89c8 -10 21 -18 44 -18c24 0 37 8 45 18
c16 20 24 53 24 89s-7 67 -20 84c-9 13 -25 23 -49 23z" />
    <glyph glyph-name="uni0162" unicode="&#x162;" horiz-adv-x="605" 
d="M593 609h-220v-609h-141v609h-220v118h581v-118zM377 -104c0 -40 -25 -77 -42 -91h-74c13 13 23 34 24 54c-41 0 -57 29 -57 52c0 35 22 65 75 65c52 0 74 -33 74 -80z" />
    <glyph glyph-name="uni021A" unicode="&#x21a;" horiz-adv-x="605" 
d="M593 609h-220v-609h-141v609h-220v118h581v-118zM377 -104c0 -40 -25 -77 -42 -91h-74c13 13 23 34 24 54c-41 0 -57 29 -57 52c0 35 22 65 75 65c52 0 74 -33 74 -80z" />
    <glyph glyph-name="uni0163" unicode="&#x163;" horiz-adv-x="363" 
d="M355 3c-29 -9 -76 -18 -114 -18c-122 0 -159 58 -159 183v256h-74v96h74v144l129 63v-207h121v-96h-121v-241c0 -70 6 -96 55 -96c17 0 38 4 58 12zM302 -104c0 -40 -25 -77 -42 -91h-74c13 13 23 34 24 54c-41 0 -57 29 -57 52c0 35 22 65 75 65c52 0 74 -33 74 -80z
" />
    <glyph glyph-name="uni021B" unicode="&#x21b;" horiz-adv-x="363" 
d="M355 3c-29 -9 -76 -18 -114 -18c-122 0 -159 58 -159 183v256h-74v96h74v144l129 63v-207h121v-96h-121v-241c0 -70 6 -96 55 -96c17 0 38 4 58 12zM302 -104c0 -40 -25 -77 -42 -91h-74c13 13 23 34 24 54c-41 0 -57 29 -57 52c0 35 22 65 75 65c52 0 74 -33 74 -80z
" />
    <glyph glyph-name="onesuperior" unicode="&#xb9;" 
d="M403 293h-299v93h98v202c-31 -14 -68 -26 -109 -32v92c66 19 111 46 144 94h81v-356h85v-93z" />
    <glyph glyph-name="twosuperior" unicode="&#xb2;" 
d="M446 293h-393v83c57 37 101 71 147 105c30 23 53 40 69 55c24 23 35 43 35 65c0 25 -20 44 -69 44c-44 0 -73 -14 -111 -50l-78 65c39 42 90 82 196 82c91 0 188 -35 188 -132c0 -57 -27 -92 -62 -124c-38 -34 -80 -65 -125 -96h203v-97z" />
    <glyph glyph-name="threesuperior" unicode="&#xb3;" 
d="M416 437c0 -107 -82 -156 -189 -156c-54 0 -121 13 -172 82l80 54c19 -25 49 -45 85 -45c49 0 73 25 73 66c0 35 -28 58 -74 58c-20 0 -36 -2 -53 -6v46l99 105h-176v92h312v-77l-85 -94c70 -14 100 -64 100 -125z" />
    <glyph glyph-name="dollar.alt" horiz-adv-x="682" 
d="M584 208c0 -113 -80 -192 -209 -204v-134h-88v134c-107 11 -165 59 -213 129l99 75c26 -46 60 -88 114 -96v201c-127 36 -200 85 -200 202c0 110 71 182 200 198v93h88v-94c86 -14 147 -54 187 -118l-92 -69c-23 34 -58 68 -95 82v-191c103 -31 209 -70 209 -208z
M287 438v168c-53 -12 -78 -47 -78 -87s25 -58 78 -81zM463 198c0 47 -28 68 -88 90v-179c50 4 88 36 88 89z" />
    <glyph glyph-name="percent.alt" horiz-adv-x="1004" 
d="M234 339c-58 0 -98 16 -131 51c-34 38 -53 88 -53 153c0 63 16 114 52 152c30 31 74 47 132 47s102 -16 132 -47c36 -38 52 -89 52 -152c0 -65 -19 -115 -53 -153c-33 -35 -73 -51 -131 -51zM233 649c-23 0 -39 -10 -48 -23c-13 -17 -20 -48 -20 -84s8 -69 24 -89
c8 -10 21 -18 44 -18c24 0 37 8 45 18c16 20 24 53 24 89s-7 67 -20 84c-9 13 -25 23 -49 23zM765 727l-410 -742h-128l409 742h129zM770 -15c-58 0 -98 16 -131 51c-34 38 -53 88 -53 153c0 63 16 114 52 152c30 31 74 47 132 47s102 -16 132 -47c36 -38 52 -89 52 -152
c0 -65 -19 -115 -53 -153c-33 -35 -73 -51 -131 -51zM769 295c-23 0 -39 -10 -48 -23c-13 -17 -20 -48 -20 -84s8 -69 24 -89c8 -10 21 -18 44 -18c24 0 37 8 45 18c16 20 24 53 24 89s-7 67 -20 84c-9 13 -25 23 -49 23z" />
    <glyph glyph-name="perthousand.alt" horiz-adv-x="1391" 
d="M220 339c-58 0 -98 16 -131 51c-34 38 -53 88 -53 153c0 63 16 114 52 152c30 31 74 47 132 47s102 -16 132 -47c36 -38 52 -89 52 -152c0 -65 -19 -115 -53 -153c-33 -35 -73 -51 -131 -51zM219 649c-23 0 -39 -10 -48 -23c-13 -17 -20 -48 -20 -84s8 -69 24 -89
c8 -10 21 -18 44 -18c24 0 37 8 45 18c16 20 24 53 24 89s-7 67 -20 84c-9 13 -25 23 -49 23zM751 727l-410 -742h-128l409 742h129zM756 -15c-58 0 -98 16 -131 51c-34 38 -53 88 -53 153c0 63 16 114 52 152c30 31 74 47 132 47s102 -16 132 -47c36 -38 52 -89 52 -152
c0 -65 -19 -115 -53 -153c-33 -35 -73 -51 -131 -51zM755 295c-23 0 -39 -10 -48 -23c-13 -17 -20 -48 -20 -84s8 -69 24 -89c8 -10 21 -18 44 -18c24 0 37 8 45 18c16 20 24 53 24 89s-7 67 -20 84c-9 13 -25 23 -49 23zM1171 -15c-58 0 -98 16 -131 51
c-34 38 -53 88 -53 153c0 63 16 114 52 152c30 31 74 47 132 47s102 -16 132 -47c36 -38 52 -89 52 -152c0 -65 -19 -115 -53 -153c-33 -35 -73 -51 -131 -51zM1170 295c-23 0 -39 -10 -48 -23c-13 -17 -20 -48 -20 -84s8 -69 24 -89c8 -10 21 -18 44 -18c24 0 37 8 45 18
c16 20 24 53 24 89s-7 67 -20 84c-9 13 -25 23 -49 23z" />
    <glyph glyph-name="onequarter.alt" horiz-adv-x="1058" 
d="M768 730l-410 -742h-128l409 742h129zM366 346h-269v88h82v162c-27 -12 -56 -23 -92 -28v91c58 17 101 41 130 83h78v-308h71v-88zM939 69h-47v-83h-108v83h-197v88l197 232h108v-238h47v-82zM785 150v115l-98 -115h98z" />
    <glyph glyph-name="onehalf.alt" horiz-adv-x="1058" 
d="M728 730l-410 -742h-128l409 742h129zM326 346h-269v88h82v162c-27 -12 -56 -23 -92 -28v91c58 17 101 41 130 83h78v-308h71v-88zM966 0h-350v82c42 29 79 52 117 76c30 19 94 60 94 105c0 19 -14 38 -54 38c-30 0 -60 -12 -94 -44l-72 62c31 35 88 77 181 77
c83 0 164 -31 164 -120c0 -44 -29 -81 -57 -109c-35 -33 -68 -53 -91 -70h162v-97z" />
    <glyph glyph-name="threequarters.alt" horiz-adv-x="1058" 
d="M808 730l-410 -742h-128l409 742h129zM979 69h-47v-83h-108v83h-197v88l197 232h108v-238h47v-82zM825 150v115l-98 -115h98zM393 478c0 -94 -78 -139 -174 -139c-44 0 -105 11 -153 80l79 50c16 -22 38 -39 68 -39c40 0 58 19 58 49c0 27 -22 44 -59 44
c-20 0 -34 -2 -49 -5v46l84 80h-151v89h281v-70l-71 -72c56 -16 87 -59 87 -113z" />
    <glyph glyph-name="onethird.alt" horiz-adv-x="1058" 
d="M808 730l-410 -742h-128l409 742h129zM406 346h-269v88h82v162c-27 -12 -56 -23 -92 -28v91c58 17 101 41 130 83h78v-308h71v-88zM1006 124c0 -94 -78 -139 -174 -139c-44 0 -105 11 -153 80l79 50c16 -22 38 -39 68 -39c40 0 58 19 58 49c0 27 -22 44 -59 44
c-20 0 -34 -2 -49 -5v46l84 80h-151v89h281v-70l-71 -72c56 -16 87 -59 87 -113z" />
    <glyph glyph-name="twothirds.alt" horiz-adv-x="1058" 
d="M808 730l-410 -742h-128l409 742h129zM1006 124c0 -94 -78 -139 -174 -139c-44 0 -105 11 -153 80l79 50c16 -22 38 -39 68 -39c40 0 58 19 58 49c0 27 -22 44 -59 44c-20 0 -34 -2 -49 -5v46l84 80h-151v89h281v-70l-71 -72c56 -16 87 -59 87 -113zM391 346h-350v82
c42 29 79 52 117 76c30 19 94 60 94 105c0 19 -14 38 -54 38c-30 0 -60 -12 -94 -44l-72 62c31 35 88 77 181 77c83 0 164 -31 164 -120c0 -44 -29 -81 -57 -109c-35 -33 -68 -53 -91 -70h162v-97z" />
    <glyph glyph-name="oneeighth.alt" horiz-adv-x="1058" 
d="M808 730l-410 -742h-128l409 742h129zM406 346h-269v88h82v162c-27 -12 -56 -23 -92 -28v91c58 17 101 41 130 83h78v-308h71v-88zM992 104c0 -81 -68 -119 -169 -119c-108 0 -168 40 -168 119c0 44 22 74 66 94c-24 16 -55 39 -55 84c0 63 55 106 157 106
c101 0 158 -40 158 -105c0 -47 -30 -68 -55 -85c41 -17 66 -45 66 -94zM867 280c0 12 -11 31 -45 31c-33 0 -42 -19 -42 -30c0 -21 11 -35 45 -48c29 10 42 27 42 47zM878 102c0 29 -20 44 -55 58c-35 -14 -54 -29 -54 -59c0 -18 15 -43 54 -43c41 0 55 25 55 44z" />
    <glyph glyph-name="threeeighths.alt" horiz-adv-x="1058" 
d="M808 730l-410 -742h-128l409 742h129zM992 104c0 -81 -68 -119 -169 -119c-108 0 -168 40 -168 119c0 44 22 74 66 94c-24 16 -55 39 -55 84c0 63 55 106 157 106c101 0 158 -40 158 -105c0 -47 -30 -68 -55 -85c41 -17 66 -45 66 -94zM867 280c0 12 -11 31 -45 31
c-33 0 -42 -19 -42 -30c0 -21 11 -35 45 -48c29 10 42 27 42 47zM878 102c0 29 -20 44 -55 58c-35 -14 -54 -29 -54 -59c0 -18 15 -43 54 -43c41 0 55 25 55 44zM405 478c0 -94 -78 -139 -174 -139c-44 0 -105 11 -153 80l79 50c16 -22 38 -39 68 -39c40 0 58 19 58 49
c0 27 -22 44 -59 44c-20 0 -34 -2 -49 -5v46l84 80h-151v89h281v-70l-71 -72c56 -16 87 -59 87 -113z" />
    <glyph glyph-name="fiveeighths.alt" horiz-adv-x="1058" 
d="M808 730l-410 -742h-128l409 742h129zM992 104c0 -81 -68 -119 -169 -119c-108 0 -168 40 -168 119c0 44 22 74 66 94c-24 16 -55 39 -55 84c0 63 55 106 157 106c101 0 158 -40 158 -105c0 -47 -30 -68 -55 -85c41 -17 66 -45 66 -94zM867 280c0 12 -11 31 -45 31
c-33 0 -42 -19 -42 -30c0 -21 11 -35 45 -48c29 10 42 27 42 47zM878 102c0 29 -20 44 -55 58c-35 -14 -54 -29 -54 -59c0 -18 15 -43 54 -43c41 0 55 25 55 44zM422 480c0 -79 -55 -141 -174 -141c-69 0 -129 33 -167 79l74 54c23 -26 52 -50 89 -50c44 0 60 26 60 53
c0 32 -29 50 -69 50c-22 0 -43 -2 -69 -16h-57l30 226h263v-90h-177l-7 -48c16 3 32 4 49 4c74 0 155 -31 155 -121z" />
    <glyph glyph-name="seveneighths.alt" horiz-adv-x="1058" 
d="M808 730l-410 -742h-128l409 742h129zM992 104c0 -81 -68 -119 -169 -119c-108 0 -168 40 -168 119c0 44 22 74 66 94c-24 16 -55 39 -55 84c0 63 55 106 157 106c101 0 158 -40 158 -105c0 -47 -30 -68 -55 -85c41 -17 66 -45 66 -94zM867 280c0 12 -11 31 -45 31
c-33 0 -42 -19 -42 -30c0 -21 11 -35 45 -48c29 10 42 27 42 47zM878 102c0 29 -20 44 -55 58c-35 -14 -54 -29 -54 -59c0 -18 15 -43 54 -43c41 0 55 25 55 44zM451 661l-148 -322h-122l148 306h-108v-49h-86v139h316v-74z" />
    <glyph glyph-name="plus.alt" horiz-adv-x="682" 
d="M624 314h-230v-230h-106v230h-230v107h230v230h106v-230h230v-107z" />
    <glyph glyph-name="minus.alt" horiz-adv-x="682" 
d="M624 314h-566v107h566v-107z" />
    <glyph glyph-name="multiply.alt" horiz-adv-x="682" 
d="M615 169l-75 -75l-199 199l-199 -199l-75 75l199 198l-199 199l75 75l199 -198l199 197l75 -75l-198 -198z" />
    <glyph glyph-name="less.alt" horiz-adv-x="682" 
d="M625 89l-567 228v101l567 227v-109l-425 -169l425 -169v-109z" />
    <glyph glyph-name="greater.alt" horiz-adv-x="682" 
d="M625 317l-567 -228v109l425 169l-425 169v109l567 -227v-101z" />
    <glyph glyph-name="logicalnot.alt" horiz-adv-x="682" 
d="M625 196h-106v227h-461v107h567v-334z" />
    <glyph glyph-name="equal.alt" horiz-adv-x="682" 
d="M625 423h-567v106h567v-106zM625 195h-567v106h567v-106z" />
    <glyph glyph-name="divide.alt" horiz-adv-x="682" 
d="M408 591c0 -47 -23 -64 -68 -64c-50 0 -66 25 -66 64c0 44 19 66 66 66c48 0 68 -21 68 -66zM625 314h-567v107h567v-107zM408 142c0 -47 -23 -64 -68 -64c-50 0 -66 25 -66 64c0 44 19 66 66 66c48 0 68 -21 68 -66z" />
    <glyph glyph-name="plusminus.alt" horiz-adv-x="682" 
d="M625 424h-231v-187h-106v187h-230v106h230v210h106v-210h231v-106zM625 75h-567v106h567v-106z" />
    <glyph glyph-name="periodcentered.alt" horiz-adv-x="266" 
d="M211 367c0 -54 -29 -73 -79 -73c-57 0 -77 28 -77 73c0 50 24 74 77 74s79 -23 79 -74z" />
    </font>
</defs>
</svg>
