<?xml version="1.0" standalone="no"?>
<!DOCTYPE svg PUBLIC "-//W3C//DTD SVG 1.1//EN" "http://www.w3.org/Graphics/SVG/1.1/DTD/svg11.dtd" >
<svg xmlns="http://www.w3.org/2000/svg" xmlns:xlink="http://www.w3.org/1999/xlink" version="1.1">
<metadata>
Created by FontForge 20160407 at Tue Sep 27 17:00:45 2016
 By Jimmy Warting
Copyright 2009, 2010 Monotype Imaging Inc. All rights reserved.
</metadata>
<defs>
<font id="FelbridgePro-Light" horiz-adv-x="655" >
  <font-face 
    font-family="Felbridge Pro Light"
    font-weight="300"
    font-stretch="normal"
    units-per-em="1000"
    panose-1="2 0 3 3 4 0 3 2 3 4"
    ascent="760"
    descent="-240"
    x-height="506"
    cap-height="727"
    bbox="-171 -230 1367 957"
    underline-thickness="50"
    underline-position="-100"
    stemh="52"
    stemv="54"
    unicode-range="U+0020-FB04"
  />
<missing-glyph horiz-adv-x="500" 
d="M12 0v665h475v-665h-475zM88 618l162 -243l161 243h-323zM60 575v-484c0 -1 161 242 161 242zM440 575l-162 -242l162 -243v485zM411 48l-161 242l-162 -242h323z" />
    <glyph glyph-name="f_f" unicode="ff" horiz-adv-x="553" 
d="M613 724l-20 -48c-23 10 -52 17 -82 17c-78 0 -88 -48 -88 -127v-60h130v-47h-130v-459h-54v459h-220v-459h-54v459h-81v47h81v60c0 142 52 176 151 176c36 0 73 -9 93 -18l-20 -48c-23 10 -52 17 -82 17c-78 0 -88 -48 -88 -127v-60h220v60c0 142 52 176 151 176
c36 0 73 -9 93 -18z" />
    <glyph glyph-name="f_f_i" unicode="ffi" horiz-adv-x="783" 
d="M697 0h-54v459h-220v-459h-54v459h-220v-459h-54v459h-81v47h81v60c0 142 52 176 151 176c36 0 73 -9 93 -18l-20 -48c-23 10 -52 17 -82 17c-78 0 -88 -48 -88 -127v-60h220v60c0 142 52 176 151 176c41 0 71 -10 86 -16l-20 -48c-16 7 -45 15 -75 15
c-78 0 -88 -48 -88 -127v-60h274v-506zM705 641c0 -30 -11 -40 -40 -40c-36 0 -40 19 -40 40c0 26 7 41 40 41c37 0 40 -19 40 -41z" />
    <glyph glyph-name="f_f_l" unicode="ffl" horiz-adv-x="816" 
d="M339 724l-20 -48c-23 10 -52 17 -82 17c-78 0 -88 -48 -88 -127v-60h220v60c0 142 52 176 151 176c47 0 86 -13 121 -26l46 34v-614c0 -72 13 -106 65 -106c16 0 36 2 50 7l12 -44c-12 -3 -42 -8 -69 -8c-85 0 -112 50 -112 142v536c-24 11 -73 30 -122 30
c-78 0 -88 -48 -88 -127v-60h130v-47h-130v-459h-54v459h-220v-459h-54v459h-81v47h81v60c0 142 52 176 151 176c36 0 73 -9 93 -18z" />
    <glyph glyph-name="fi" unicode="fi" horiz-adv-x="509" 
d="M431 641c0 -30 -11 -40 -40 -40c-36 0 -40 19 -40 40c0 26 7 41 40 41c37 0 40 -19 40 -41zM423 0h-54v459h-220v-459h-54v459h-81v47h81v60c0 142 52 176 151 176c41 0 71 -10 86 -16l-20 -48c-16 7 -45 15 -75 15c-78 0 -88 -48 -88 -127v-60h274v-506z" />
    <glyph glyph-name="fl" unicode="fl" horiz-adv-x="542" 
d="M540 -7c-12 -3 -42 -8 -69 -8c-85 0 -112 50 -112 142v536c-24 11 -73 30 -122 30c-78 0 -88 -48 -88 -127v-60h130v-47h-130v-459h-54v459h-81v47h81v60c0 142 52 176 151 176c47 0 86 -13 121 -26l46 34v-614c0 -72 13 -106 65 -106c16 0 36 2 50 7z" />
    <glyph glyph-name=".notdef" horiz-adv-x="500" 
d="M12 0v665h475v-665h-475zM88 618l162 -243l161 243h-323zM60 575v-484c0 -1 161 242 161 242zM440 575l-162 -242l162 -243v485zM411 48l-161 242l-162 -242h323z" />
    <glyph glyph-name="A" unicode="A" horiz-adv-x="627" 
d="M615 0h-59l-83 231h-320l-84 -231h-57l267 727h72zM455 281l-142 395l-142 -395h284z" />
    <glyph glyph-name="AE" unicode="&#xc6;" horiz-adv-x="861" 
d="M806 0h-390v236h-254l-92 -236h-58l287 727h507v-52h-335v-263h303v-52h-303v-308h335v-52zM416 288v387h-83l-151 -387h234z" />
    <glyph glyph-name="AEacute" unicode="&#x1fc;" horiz-adv-x="861" 
d="M806 0h-390v236h-254l-92 -236h-58l287 727h507v-52h-335v-263h303v-52h-303v-308h335v-52zM416 288v387h-83l-151 -387h234zM621 956l-148 -176h-45l114 176h79z" />
    <glyph glyph-name="Aacute" unicode="&#xc1;" horiz-adv-x="627" 
d="M456 956l-148 -176h-45l114 176h79zM615 0h-59l-83 231h-320l-84 -231h-57l267 727h72zM455 281l-142 395l-142 -395h284z" />
    <glyph glyph-name="Abreve" unicode="&#x102;" horiz-adv-x="627" 
d="M615 0h-59l-83 231h-320l-84 -231h-57l267 727h72zM455 281l-142 395l-142 -395h284zM457 918c-18 -65 -56 -138 -147 -138c-89 0 -129 89 -141 138h41c22 -48 47 -76 102 -76c53 0 80 24 103 76h42z" />
    <glyph glyph-name="Acircumflex" unicode="&#xc2;" horiz-adv-x="627" 
d="M462 780h-47l-102 129l-99 -129h-46l111 176h75zM615 0h-59l-83 231h-320l-84 -231h-57l267 727h72zM455 281l-142 395l-142 -395h284z" />
    <glyph glyph-name="Adieresis" unicode="&#xc4;" horiz-adv-x="627" 
d="M439 820c0 -30 -11 -40 -40 -40c-36 0 -40 19 -40 40c0 26 7 41 40 41c37 0 40 -19 40 -41zM267 820c0 -30 -11 -40 -40 -40c-36 0 -40 19 -40 40c0 26 7 41 40 41c37 0 40 -19 40 -41zM615 0h-59l-83 231h-320l-84 -231h-57l267 727h72zM455 281l-142 395l-142 -395h284
z" />
    <glyph glyph-name="Agrave" unicode="&#xc0;" horiz-adv-x="627" 
d="M359 780h-45l-148 176h79zM615 0h-59l-83 231h-320l-84 -231h-57l267 727h72zM455 281l-142 395l-142 -395h284z" />
    <glyph glyph-name="Amacron" unicode="&#x100;" horiz-adv-x="627" 
d="M615 0h-59l-83 231h-320l-84 -231h-57l267 727h72zM455 281l-142 395l-142 -395h284zM457 780h-288v57h288v-57z" />
    <glyph glyph-name="Aogonek" unicode="&#x104;" horiz-adv-x="627" 
d="M615 0h-11c-7 -21 -13 -48 -13 -74c0 -50 21 -71 67 -71c29 0 57 7 79 17l18 -33c-23 -15 -64 -32 -110 -32c-72 0 -105 46 -105 105c0 33 8 65 16 88l-83 231h-320l-84 -231h-57l267 727h72zM455 281l-142 395l-142 -395h284z" />
    <glyph glyph-name="Aring" unicode="&#xc5;" horiz-adv-x="627" 
d="M615 0h-59l-83 231h-320l-84 -231h-57l259 703c-39 14 -58 51 -58 98c0 62 38 103 102 103c63 0 102 -39 102 -103c0 -49 -19 -84 -58 -98zM382 801c0 48 -27 71 -67 71c-42 0 -67 -25 -67 -71c0 -42 18 -74 67 -74c47 0 67 29 67 74zM455 281l-142 395l-142 -395h284z
" />
    <glyph glyph-name="Atilde" unicode="&#xc3;" horiz-adv-x="627" 
d="M486 914c0 -66 -33 -134 -105 -134c-33 0 -62 14 -88 41c-20 21 -40 46 -63 46c-45 0 -54 -54 -56 -87h-43c0 64 32 134 106 134c33 0 61 -13 88 -42c15 -16 37 -45 64 -45c43 0 53 56 54 87h43zM615 0h-59l-83 231h-320l-84 -231h-57l267 727h72zM455 281l-142 395
l-142 -395h284z" />
    <glyph glyph-name="B" unicode="B" horiz-adv-x="639" 
d="M586 219c0 -163 -107 -219 -289 -219h-207v727h211c183 0 236 -64 236 -172c0 -89 -46 -139 -116 -161c91 -8 165 -65 165 -175zM482 549c0 109 -65 128 -199 128h-138v-269h134c132 0 203 43 203 141zM528 208c0 133 -89 150 -245 150h-138v-306h125
c152 0 258 18 258 156z" />
    <glyph glyph-name="C" unicode="C" horiz-adv-x="663" 
d="M623 610l-46 -30c-26 46 -87 110 -200 110c-194 0 -259 -118 -259 -327c0 -222 74 -326 260 -326c90 0 146 32 187 64l35 -44c-57 -45 -138 -72 -222 -72c-211 0 -318 112 -318 378c0 264 106 379 318 379c121 0 204 -55 245 -132z" />
    <glyph glyph-name="Cacute" unicode="&#x106;" horiz-adv-x="663" 
d="M623 610l-46 -30c-26 46 -87 110 -200 110c-194 0 -259 -118 -259 -327c0 -222 74 -326 260 -326c90 0 146 32 187 64l35 -44c-57 -45 -138 -72 -222 -72c-211 0 -318 112 -318 378c0 264 106 379 318 379c121 0 204 -55 245 -132zM500 956l-148 -176h-45l114 176h79z
" />
    <glyph glyph-name="Ccaron" unicode="&#x10c;" horiz-adv-x="663" 
d="M623 610l-46 -30c-26 46 -87 110 -200 110c-194 0 -259 -118 -259 -327c0 -222 74 -326 260 -326c90 0 146 32 187 64l35 -44c-57 -45 -138 -72 -222 -72c-211 0 -318 112 -318 378c0 264 106 379 318 379c121 0 204 -55 245 -132zM524 956l-111 -176h-75l-108 176h47
l102 -129l99 129h46z" />
    <glyph glyph-name="Ccedilla" unicode="&#xc7;" horiz-adv-x="663" 
d="M623 610l-46 -30c-26 46 -87 110 -200 110c-194 0 -259 -118 -259 -327c0 -222 74 -326 260 -326c90 0 146 32 187 64l35 -44c-57 -45 -138 -72 -222 -72h-2c66 -16 83 -56 83 -90c0 -54 -42 -88 -118 -88c-41 0 -86 13 -108 21l16 36c31 -12 67 -19 98 -19
c46 0 71 17 71 55c0 39 -53 59 -92 59l13 27c-185 13 -279 128 -279 377c0 264 106 379 318 379c121 0 204 -55 245 -132z" />
    <glyph glyph-name="Ccircumflex" unicode="&#x108;" horiz-adv-x="663" 
d="M623 610l-46 -30c-26 46 -87 110 -200 110c-194 0 -259 -118 -259 -327c0 -222 74 -326 260 -326c90 0 146 32 187 64l35 -44c-57 -45 -138 -72 -222 -72c-211 0 -318 112 -318 378c0 264 106 379 318 379c121 0 204 -55 245 -132zM515 780h-47l-102 129l-99 -129h-46
l111 176h75z" />
    <glyph glyph-name="Cdotaccent" unicode="&#x10a;" horiz-adv-x="663" 
d="M623 610l-46 -30c-26 46 -87 110 -200 110c-194 0 -259 -118 -259 -327c0 -222 74 -326 260 -326c90 0 146 32 187 64l35 -44c-57 -45 -138 -72 -222 -72c-211 0 -318 112 -318 378c0 264 106 379 318 379c121 0 204 -55 245 -132zM406 820c0 -30 -11 -40 -40 -40
c-36 0 -40 18 -40 40c0 26 7 41 40 41c37 0 40 -19 40 -41z" />
    <glyph glyph-name="D" unicode="D" horiz-adv-x="721" 
d="M661 363c0 -283 -124 -363 -373 -363h-198v727h216c238 0 355 -90 355 -364zM603 364c0 250 -101 311 -315 311h-143v-623h143c222 0 315 71 315 312z" />
    <glyph glyph-name="Dcaron" unicode="&#x10e;" horiz-adv-x="721" 
d="M661 363c0 -283 -124 -363 -373 -363h-198v727h216c238 0 355 -90 355 -364zM603 364c0 250 -101 311 -315 311h-143v-623h143c222 0 315 71 315 312zM485 956l-111 -176h-75l-108 176h47l102 -129l99 129h46z" />
    <glyph glyph-name="Dcroat" unicode="&#x110;" horiz-adv-x="721" 
d="M661 363c0 -283 -124 -363 -373 -363h-198v344h-72v48h72v335h216c238 0 355 -90 355 -364zM603 364c0 250 -101 311 -315 311h-143v-283h213v-48h-213v-292h143c222 0 315 71 315 312z" />
    <glyph glyph-name="Delta" unicode="&#x2206;" horiz-adv-x="640" 
d="M612 0h-580v33l258 667h65l257 -667v-33zM542 51c-68 177 -136 355 -203 532l-19 54l-16 -53l-204 -533h442z" />
    <glyph glyph-name="E" unicode="E" horiz-adv-x="581" 
d="M526 0h-436v727h436v-52h-381v-263h349v-52h-349v-308h381v-52z" />
    <glyph glyph-name="Eacute" unicode="&#xc9;" horiz-adv-x="581" 
d="M443 956l-148 -176h-45l114 176h79zM526 0h-436v727h436v-52h-381v-263h349v-52h-349v-308h381v-52z" />
    <glyph glyph-name="Ebreve" unicode="&#x114;" horiz-adv-x="581" 
d="M526 0h-436v727h436v-52h-381v-263h349v-52h-349v-308h381v-52zM457 918c-18 -65 -56 -138 -147 -138c-89 0 -129 89 -141 138h41c22 -48 47 -76 102 -76c53 0 80 24 103 76h42z" />
    <glyph glyph-name="Ecaron" unicode="&#x11a;" horiz-adv-x="581" 
d="M526 0h-436v727h436v-52h-381v-263h349v-52h-349v-308h381v-52zM462 956l-111 -176h-75l-108 176h47l102 -129l99 129h46z" />
    <glyph glyph-name="Ecircumflex" unicode="&#xca;" horiz-adv-x="581" 
d="M460 780h-47l-102 129l-99 -129h-46l111 176h75zM526 0h-436v727h436v-52h-381v-263h349v-52h-349v-308h381v-52z" />
    <glyph glyph-name="Edieresis" unicode="&#xcb;" horiz-adv-x="581" 
d="M438 820c0 -30 -11 -40 -40 -40c-36 0 -40 19 -40 40c0 26 7 41 40 41c37 0 40 -19 40 -41zM266 820c0 -30 -11 -40 -40 -40c-36 0 -40 19 -40 40c0 26 7 41 40 41c37 0 40 -19 40 -41zM526 0h-436v727h436v-52h-381v-263h349v-52h-349v-308h381v-52z" />
    <glyph glyph-name="Edotaccent" unicode="&#x116;" horiz-adv-x="581" 
d="M526 0h-436v727h436v-52h-381v-263h349v-52h-349v-308h381v-52zM345 820c0 -30 -11 -40 -40 -40c-36 0 -40 18 -40 40c0 26 7 41 40 41c37 0 40 -19 40 -41z" />
    <glyph glyph-name="Egrave" unicode="&#xc8;" horiz-adv-x="581" 
d="M356 780h-45l-148 176h79zM526 0h-436v727h436v-52h-381v-263h349v-52h-349v-308h381v-52z" />
    <glyph glyph-name="Emacron" unicode="&#x112;" horiz-adv-x="581" 
d="M526 0h-436v727h436v-52h-381v-263h349v-52h-349v-308h381v-52zM452 780h-288v57h288v-57z" />
    <glyph glyph-name="Eng" unicode="&#x14a;" horiz-adv-x="695" 
d="M605 -10c0 -112 -32 -183 -172 -183c-28 0 -80 12 -108 25l22 49c18 -10 57 -22 92 -22c88 0 111 39 111 141v479c0 137 -44 215 -156 215c-89 0 -171 -60 -249 -137v-557h-55v727h55v-116c86 85 165 131 263 131c137 0 197 -96 197 -242v-510z" />
    <glyph glyph-name="Eogonek" unicode="&#x118;" horiz-adv-x="581" 
d="M526 -161c-23 -15 -64 -32 -110 -32c-72 0 -105 46 -105 105c0 33 8 65 16 88h-237v727h436v-52h-381v-263h349v-52h-349v-308h381v-52h-152c-7 -21 -12 -48 -12 -74c0 -50 21 -71 67 -71c29 0 57 7 79 17z" />
    <glyph glyph-name="Eth" unicode="&#xd0;" horiz-adv-x="721" 
d="M661 363c0 -283 -124 -363 -373 -363h-198v344h-72v48h72v335h216c238 0 355 -90 355 -364zM603 364c0 250 -101 311 -315 311h-143v-283h213v-48h-213v-292h143c222 0 315 71 315 312z" />
    <glyph glyph-name="Euro" unicode="&#x20ac;" horiz-adv-x="604" 
d="M589 605l-50 -25c-22 40 -69 110 -174 110c-150 0 -212 -95 -223 -248h337l-14 -42h-325c0 -10 -1 -27 -1 -37v-35h308l-13 -42h-292c12 -163 74 -249 224 -249c86 0 148 50 167 65l34 -43c-42 -35 -105 -74 -206 -74c-165 0 -261 92 -278 301h-72l15 42h54v35
c0 10 1 27 1 37h-70l14 42h58c14 193 112 300 285 300c121 0 188 -64 221 -137z" />
    <glyph glyph-name="F" unicode="F" horiz-adv-x="554" 
d="M519 675h-374v-257h339v-52h-339v-366h-55v727h429v-52z" />
    <glyph glyph-name="G" unicode="G" horiz-adv-x="714" 
d="M634 610l-46 -30c-37 60 -99 110 -207 110c-179 0 -263 -102 -263 -321c0 -220 75 -332 269 -332c70 0 135 21 191 47v194h-174v50h229v-273c-68 -39 -155 -70 -237 -70c-236 0 -336 125 -336 380c0 238 93 377 323 377c122 0 205 -51 251 -132z" />
    <glyph glyph-name="Gbreve" unicode="&#x11e;" horiz-adv-x="714" 
d="M634 610l-46 -30c-37 60 -99 110 -207 110c-179 0 -263 -102 -263 -321c0 -220 75 -332 269 -332c70 0 135 21 191 47v194h-174v50h229v-273c-68 -39 -155 -70 -237 -70c-236 0 -336 125 -336 380c0 238 93 377 323 377c122 0 205 -51 251 -132zM509 918
c-18 -65 -56 -138 -147 -138c-89 0 -129 89 -141 138h41c22 -48 47 -76 102 -76c53 0 80 24 103 76h42z" />
    <glyph glyph-name="Gcircumflex" unicode="&#x11c;" horiz-adv-x="714" 
d="M634 610l-46 -30c-37 60 -99 110 -207 110c-179 0 -263 -102 -263 -321c0 -220 75 -332 269 -332c70 0 135 21 191 47v194h-174v50h229v-273c-68 -39 -155 -70 -237 -70c-236 0 -336 125 -336 380c0 238 93 377 323 377c122 0 205 -51 251 -132zM517 780h-47l-102 129
l-99 -129h-46l111 176h75z" />
    <glyph glyph-name="Gcommaaccent" unicode="&#x122;" horiz-adv-x="714" 
d="M634 610l-46 -30c-37 60 -99 110 -207 110c-179 0 -263 -102 -263 -321c0 -220 75 -332 269 -332c70 0 135 21 191 47v194h-174v50h229v-273c-68 -39 -155 -70 -237 -70c-236 0 -336 125 -336 380c0 238 93 377 323 377c122 0 205 -51 251 -132zM438 -82
c0 -23 -2 -59 -31 -111h-40c12 21 22 46 22 80c-21 0 -43 7 -43 45c0 28 17 40 44 40c35 0 48 -17 48 -54z" />
    <glyph glyph-name="Gdotaccent" unicode="&#x120;" horiz-adv-x="714" 
d="M634 610l-46 -30c-37 60 -99 110 -207 110c-179 0 -263 -102 -263 -321c0 -220 75 -332 269 -332c70 0 135 21 191 47v194h-174v50h229v-273c-68 -39 -155 -70 -237 -70c-236 0 -336 125 -336 380c0 238 93 377 323 377c122 0 205 -51 251 -132zM417 820
c0 -30 -11 -40 -40 -40c-36 0 -40 18 -40 40c0 26 7 41 40 41c37 0 40 -19 40 -41z" />
    <glyph glyph-name="H" unicode="H" horiz-adv-x="687" 
d="M597 0h-55v350h-397v-350h-55v727h55v-327h397v327h55v-727z" />
    <glyph glyph-name="Hbar" unicode="&#x126;" horiz-adv-x="687" 
d="M597 0h-55v350h-397v-350h-55v521h-53v48h53v158h55v-158h397v158h55v-158h53v-48h-53v-521zM145 400h397v121h-397v-121z" />
    <glyph glyph-name="Hcircumflex" unicode="&#x124;" horiz-adv-x="687" 
d="M597 0h-55v350h-397v-350h-55v727h55v-327h397v327h55v-727zM485 780h-47l-102 129l-99 -129h-46l111 176h75z" />
    <glyph glyph-name="I" unicode="I" horiz-adv-x="333" 
d="M283 0h-233v47h89v633h-89v47h233v-47h-89v-633h89v-47z" />
    <glyph glyph-name="I.alt" horiz-adv-x="235" 
d="M145 0h-55v727h55v-727z" />
    <glyph glyph-name="IJ" unicode="&#x132;" horiz-adv-x="710" 
d="M283 0h-233v47h89v633h-89v47h233v-47h-89v-633h89v-47zM625 168c0 -112 -32 -183 -172 -183c-28 0 -80 12 -108 25l22 49c18 -10 57 -22 92 -22c95 0 111 44 111 165v478h-155v47h210v-559z" />
    <glyph glyph-name="IJ.alt" horiz-adv-x="503" 
d="M145 0h-55v727h55v-727zM418 -10c0 -112 -32 -183 -172 -183c-28 0 -80 12 -108 25l22 49c18 -10 57 -22 92 -22c95 0 111 44 111 165v703h55v-737z" />
    <glyph glyph-name="Iacute" unicode="&#xcd;" horiz-adv-x="333" 
d="M300 956l-148 -176h-45l114 176h79zM283 0h-233v47h89v633h-89v47h233v-47h-89v-633h89v-47z" />
    <glyph glyph-name="Iacute.alt" horiz-adv-x="235" 
d="M145 0h-55v727h55v-727zM284 956l-148 -176h-45l114 176h79z" />
    <glyph glyph-name="Ibreve" unicode="&#x12c;" horiz-adv-x="333" 
d="M283 0h-233v47h89v633h-89v47h233v-47h-89v-633h89v-47zM311 918c-18 -65 -56 -138 -147 -138c-89 0 -129 89 -141 138h41c22 -48 47 -76 102 -76c53 0 80 24 103 76h42z" />
    <glyph glyph-name="Ibreve.alt" horiz-adv-x="235" 
d="M145 0h-55v727h55v-727zM262 918c-18 -65 -56 -138 -147 -138c-89 0 -129 89 -141 138h41c22 -48 47 -76 102 -76c53 0 80 24 103 76h42z" />
    <glyph glyph-name="Icircumflex" unicode="&#xce;" horiz-adv-x="333" 
d="M313 780h-47l-102 129l-99 -129h-46l111 176h75zM283 0h-233v47h89v633h-89v47h233v-47h-89v-633h89v-47z" />
    <glyph glyph-name="Icircumflex.alt" horiz-adv-x="235" 
d="M145 0h-55v727h55v-727zM264 780h-47l-102 129l-99 -129h-46l111 176h75z" />
    <glyph glyph-name="Idieresis" unicode="&#xcf;" horiz-adv-x="333" 
d="M291 820c0 -30 -11 -40 -40 -40c-36 0 -40 19 -40 40c0 26 7 41 40 41c37 0 40 -19 40 -41zM119 820c0 -30 -11 -40 -40 -40c-36 0 -40 19 -40 40c0 26 7 41 40 41c37 0 40 -19 40 -41zM283 0h-233v47h89v633h-89v47h233v-47h-89v-633h89v-47z" />
    <glyph glyph-name="Idieresis.alt" horiz-adv-x="235" 
d="M145 0h-55v727h55v-727zM243 820c0 -30 -11 -40 -40 -40c-36 0 -40 19 -40 40c0 26 7 41 40 41c37 0 40 -19 40 -41zM71 820c0 -30 -11 -40 -40 -40c-36 0 -40 19 -40 40c0 26 7 41 40 41c37 0 40 -19 40 -41z" />
    <glyph glyph-name="Idotaccent" unicode="&#x130;" horiz-adv-x="333" 
d="M283 0h-233v47h89v633h-89v47h233v-47h-89v-633h89v-47zM203 820c0 -30 -11 -40 -40 -40c-36 0 -40 18 -40 40c0 26 7 41 40 41c37 0 40 -19 40 -41z" />
    <glyph glyph-name="Idotaccent.alt" horiz-adv-x="235" 
d="M145 0h-55v727h55v-727zM154 820c0 -30 -11 -40 -40 -40c-36 0 -40 18 -40 40c0 26 7 41 40 41c37 0 40 -19 40 -41z" />
    <glyph glyph-name="Igrave" unicode="&#xcc;" horiz-adv-x="333" 
d="M218 780h-45l-148 176h79zM283 0h-233v47h89v633h-89v47h233v-47h-89v-633h89v-47z" />
    <glyph glyph-name="Igrave.alt" horiz-adv-x="235" 
d="M145 0h-55v727h55v-727zM144 780h-45l-148 176h79z" />
    <glyph glyph-name="Imacron" unicode="&#x12a;" horiz-adv-x="333" 
d="M283 0h-233v47h89v633h-89v47h233v-47h-89v-633h89v-47zM311 780h-288v57h288v-57z" />
    <glyph glyph-name="Imacron.alt" horiz-adv-x="235" 
d="M145 0h-55v727h55v-727zM262 739h-288v57h288v-57z" />
    <glyph glyph-name="Iogonek" unicode="&#x12e;" horiz-adv-x="333" 
d="M329 -161c-23 -15 -64 -32 -110 -32c-72 0 -105 46 -105 105c0 33 8 65 16 88h-80v47h89v633h-89v47h233v-47h-89v-633h89v-47h-106c-7 -21 -12 -48 -12 -74c0 -50 21 -71 67 -71c29 0 57 7 79 17z" />
    <glyph glyph-name="Iogonek.alt" horiz-adv-x="235" 
d="M279 -161c-23 -15 -64 -32 -110 -32c-72 0 -105 46 -105 105c0 49 18 94 26 116v699h55v-727h-18c-7 -21 -12 -48 -12 -74c0 -50 21 -71 67 -71c29 0 57 7 79 17z" />
    <glyph glyph-name="Itilde" unicode="&#x128;" horiz-adv-x="333" 
d="M283 0h-233v47h89v633h-89v47h233v-47h-89v-633h89v-47zM344 914c0 -66 -33 -134 -105 -134c-33 0 -62 14 -88 41c-20 21 -41 46 -63 46c-45 0 -54 -54 -56 -87h-43c0 64 32 134 106 134c33 0 61 -13 88 -42c15 -16 37 -45 64 -45c43 0 53 56 54 87h43z" />
    <glyph glyph-name="Itilde.alt" horiz-adv-x="235" 
d="M145 0h-55v727h55v-727zM295 914c0 -66 -33 -134 -105 -134c-33 0 -62 14 -88 41c-20 21 -41 46 -63 46c-45 0 -54 -54 -56 -87h-43c0 64 32 134 106 134c33 0 61 -13 88 -42c15 -16 37 -45 64 -45c43 0 53 56 54 87h43z" />
    <glyph glyph-name="J" unicode="J" horiz-adv-x="377" 
d="M292 168c0 -112 -32 -183 -172 -183c-28 0 -80 12 -108 25l22 49c18 -10 57 -22 92 -22c95 0 111 44 111 165v478h-155v47h210v-559z" />
    <glyph glyph-name="J.alt" horiz-adv-x="275" 
d="M190 -10c0 -112 -32 -183 -172 -183c-28 0 -80 12 -108 25l22 49c18 -10 57 -22 92 -22c95 0 111 44 111 165v703h55v-737z" />
    <glyph glyph-name="Jcircumflex" unicode="&#x134;" horiz-adv-x="377" 
d="M292 168c0 -112 -32 -183 -172 -183c-28 0 -80 12 -108 25l22 49c18 -10 57 -22 92 -22c95 0 111 44 111 165v478h-155v47h210v-559zM338 780h-47l-102 129l-99 -129h-46l111 176h75z" />
    <glyph glyph-name="Jcircumflex.alt" horiz-adv-x="275" 
d="M190 -10c0 -112 -32 -183 -172 -183c-28 0 -80 12 -108 25l22 49c18 -10 57 -22 92 -22c95 0 111 44 111 165v703h55v-737zM292 780h-47l-102 129l-99 -129h-46l111 176h75z" />
    <glyph glyph-name="K" unicode="K" horiz-adv-x="622" 
d="M608 0h-65l-252 400l-146 -154v-246h-55v727h55v-412l383 412h71l-271 -286z" />
    <glyph glyph-name="Kcommaaccent" unicode="&#x136;" horiz-adv-x="622" 
d="M608 0h-65l-252 400l-146 -154v-246h-55v727h55v-412l383 412h71l-271 -286zM357 -82c0 -23 -2 -59 -31 -111h-40c12 21 22 46 22 80c-21 0 -43 7 -43 45c0 28 17 40 44 40c35 0 48 -17 48 -54z" />
    <glyph glyph-name="L" unicode="L" horiz-adv-x="510" 
d="M498 0h-408v727h55v-675h353v-52z" />
    <glyph glyph-name="Lacute" unicode="&#x139;" horiz-adv-x="510" 
d="M498 0h-408v727h55v-675h353v-52zM322 956l-148 -176h-45l114 176h79z" />
    <glyph glyph-name="Lcaron" unicode="&#x13d;" horiz-adv-x="510" 
d="M498 0h-408v727h55v-675h353v-52zM402 673c0 -68 -20 -129 -50 -173h-40c22 35 42 89 42 126c0 9 0 12 -1 16c-25 0 -43 7 -43 45c0 28 14 40 44 40c36 0 48 -17 48 -54z" />
    <glyph glyph-name="Lcommaaccent" unicode="&#x13b;" horiz-adv-x="510" 
d="M498 0h-408v727h55v-675h353v-52zM352 -82c0 -23 -2 -59 -31 -111h-40c12 21 22 46 22 80c-21 0 -43 7 -43 45c0 28 17 40 44 40c35 0 48 -17 48 -54z" />
    <glyph glyph-name="Ldot" unicode="&#x13f;" horiz-adv-x="510" 
d="M498 0h-408v727h55v-675h353v-52zM413 360c0 -32 -11 -42 -46 -42c-37 0 -46 14 -46 42c0 31 10 43 46 43c37 0 46 -12 46 -43z" />
    <glyph glyph-name="Lslash" unicode="&#x141;" horiz-adv-x="510" 
d="M498 0h-408v285l-90 -76v58l90 76v384h55v-337l125 106v-58l-125 -106v-280h353v-52z" />
    <glyph glyph-name="M" unicode="M" horiz-adv-x="814" 
d="M724 0h-53v669l-244 -456h-50l-234 456v-669h-53v727h80l234 -456l243 456h77v-727z" />
    <glyph glyph-name="N" unicode="N" horiz-adv-x="695" 
d="M605 0h-79l-381 661v-661h-55v727h78l382 -662v662h55v-727z" />
    <glyph glyph-name="Nacute" unicode="&#x143;" horiz-adv-x="695" 
d="M605 0h-79l-381 661v-661h-55v727h78l382 -662v662h55v-727zM498 956l-148 -176h-45l114 176h79z" />
    <glyph glyph-name="Ncaron" unicode="&#x147;" horiz-adv-x="695" 
d="M605 0h-79l-381 661v-661h-55v727h78l382 -662v662h55v-727zM520 956l-111 -176h-75l-108 176h47l102 -129l99 129h46z" />
    <glyph glyph-name="Ncommaaccent" unicode="&#x145;" horiz-adv-x="695" 
d="M605 0h-79l-381 661v-661h-55v727h78l382 -662v662h55v-727zM393 -82c0 -23 -2 -59 -31 -111h-40c12 21 22 46 22 80c-21 0 -43 7 -43 45c0 28 17 40 44 40c35 0 48 -17 48 -54z" />
    <glyph glyph-name="Ntilde" unicode="&#xd1;" horiz-adv-x="695" 
d="M526 914c0 -66 -33 -134 -105 -134c-33 0 -62 14 -88 41c-20 21 -40 46 -63 46c-45 0 -54 -54 -56 -87h-43c0 64 32 134 106 134c33 0 61 -13 88 -42c16 -16 37 -45 64 -45c43 0 53 56 54 87h43zM605 0h-79l-381 661v-661h-55v727h78l382 -662v662h55v-727z" />
    <glyph glyph-name="O" unicode="O" horiz-adv-x="737" 
d="M677 363c0 -230 -78 -378 -309 -378s-308 150 -308 378c0 229 77 379 308 379s309 -149 309 -379zM619 363c0 208 -62 327 -251 327c-188 0 -250 -119 -250 -327c0 -206 62 -326 250 -326c189 0 251 120 251 326z" />
    <glyph glyph-name="OE" unicode="&#x152;" horiz-adv-x="934" 
d="M879 0h-397c-35 -10 -70 -15 -114 -15c-226 0 -308 144 -308 378c0 236 82 379 308 379c44 0 80 -5 113 -15h398v-52h-329v-263h297v-52h-297v-308h329v-52zM495 59v609c-32 12 -78 22 -127 22c-188 0 -250 -119 -250 -327c0 -206 62 -326 250 -326c46 0 93 9 127 22z
" />
    <glyph glyph-name="Oacute" unicode="&#xd3;" horiz-adv-x="737" 
d="M500 956l-146 -176h-44l112 176h78zM677 363c0 -230 -78 -378 -309 -378s-308 150 -308 378c0 229 77 379 308 379s309 -149 309 -379zM619 363c0 208 -62 327 -251 327c-188 0 -250 -119 -250 -327c0 -206 62 -326 250 -326c189 0 251 120 251 326z" />
    <glyph glyph-name="Obreve" unicode="&#x14e;" horiz-adv-x="737" 
d="M677 363c0 -230 -78 -378 -309 -378s-308 150 -308 378c0 229 77 379 308 379s309 -149 309 -379zM619 363c0 208 -62 327 -251 327c-188 0 -250 -119 -250 -327c0 -206 62 -326 250 -326c189 0 251 120 251 326zM512 918c-18 -65 -56 -138 -147 -138
c-89 0 -129 89 -141 138h41c22 -48 47 -76 102 -76c53 0 80 24 103 76h42z" />
    <glyph glyph-name="Ocircumflex" unicode="&#xd4;" horiz-adv-x="737" 
d="M513 780h-47l-102 129l-99 -129h-46l111 176h75zM677 363c0 -230 -78 -378 -309 -378s-308 150 -308 378c0 229 77 379 308 379s309 -149 309 -379zM619 363c0 208 -62 327 -251 327c-188 0 -250 -119 -250 -327c0 -206 62 -326 250 -326c189 0 251 120 251 326z" />
    <glyph glyph-name="Odieresis" unicode="&#xd6;" horiz-adv-x="737" 
d="M495 820c0 -30 -11 -40 -40 -40c-36 0 -40 19 -40 40c0 26 7 41 40 41c37 0 40 -19 40 -41zM323 820c0 -30 -11 -40 -40 -40c-36 0 -40 19 -40 40c0 26 7 41 40 41c37 0 40 -19 40 -41zM677 363c0 -230 -78 -378 -309 -378s-308 150 -308 378c0 229 77 379 308 379
s309 -149 309 -379zM619 363c0 208 -62 327 -251 327c-188 0 -250 -119 -250 -327c0 -206 62 -326 250 -326c189 0 251 120 251 326z" />
    <glyph glyph-name="Ograve" unicode="&#xd2;" horiz-adv-x="737" 
d="M425 780h-45l-148 176h79zM677 363c0 -230 -78 -378 -309 -378s-308 150 -308 378c0 229 77 379 308 379s309 -149 309 -379zM619 363c0 208 -62 327 -251 327c-188 0 -250 -119 -250 -327c0 -206 62 -326 250 -326c189 0 251 120 251 326z" />
    <glyph glyph-name="Ohungarumlaut" unicode="&#x150;" horiz-adv-x="737" 
d="M677 363c0 -230 -78 -378 -309 -378s-308 150 -308 378c0 229 77 379 308 379s309 -149 309 -379zM619 363c0 208 -62 327 -251 327c-188 0 -250 -119 -250 -327c0 -206 62 -326 250 -326c189 0 251 120 251 326zM569 956l-148 -176h-45l114 176h79zM399 956l-148 -176
h-45l114 176h79z" />
    <glyph glyph-name="Omacron" unicode="&#x14c;" horiz-adv-x="737" 
d="M677 363c0 -230 -78 -378 -309 -378s-308 150 -308 378c0 229 77 379 308 379s309 -149 309 -379zM619 363c0 208 -62 327 -251 327c-188 0 -250 -119 -250 -327c0 -206 62 -326 250 -326c189 0 251 120 251 326zM512 780h-288v57h288v-57z" />
    <glyph glyph-name="Omega" unicode="&#x2126;" horiz-adv-x="735" 
d="M683 0h-229v50c65 52 169 149 169 327c0 159 -88 284 -255 284c-152 0 -259 -117 -259 -283c0 -174 99 -272 171 -328v-50h-230v50h164c-68 52 -165 156 -165 333c0 189 131 329 320 329c199 0 313 -136 313 -327c0 -162 -90 -278 -165 -335h166v-50z" />
    <glyph glyph-name="Oslash" unicode="&#xd8;" horiz-adv-x="737" 
d="M677 363c0 -230 -78 -378 -309 -378c-81 0 -143 19 -190 53l-65 -94h-60l88 128c-58 66 -81 167 -81 291c0 229 77 379 308 379c84 0 148 -20 195 -56l53 78h60l-77 -112c56 -66 78 -166 78 -289zM619 363c0 103 -16 184 -54 240l-356 -519c38 -31 90 -47 159 -47
c189 0 251 120 251 326zM531 641c-39 32 -92 49 -163 49c-188 0 -250 -119 -250 -327c0 -104 16 -186 56 -242z" />
    <glyph glyph-name="Oslashacute" unicode="&#x1fe;" horiz-adv-x="737" 
d="M677 363c0 -230 -78 -378 -309 -378c-81 0 -143 19 -190 53l-65 -94h-60l88 128c-58 66 -81 167 -81 291c0 229 77 379 308 379c84 0 148 -20 195 -56l53 78h60l-77 -112c56 -66 78 -166 78 -289zM619 363c0 103 -16 184 -54 240l-356 -519c38 -31 90 -47 159 -47
c189 0 251 120 251 326zM531 641c-39 32 -92 49 -163 49c-188 0 -250 -119 -250 -327c0 -104 16 -186 56 -242zM490 956l-148 -176h-45l114 176h79z" />
    <glyph glyph-name="Otilde" unicode="&#xd5;" horiz-adv-x="737" 
d="M546 914c0 -66 -33 -134 -105 -134c-33 0 -62 14 -88 41c-19 21 -40 46 -63 46c-45 0 -54 -54 -56 -87h-43c0 64 32 134 106 134c33 0 61 -13 88 -42c16 -16 37 -45 64 -45c43 0 53 56 54 87h43zM677 363c0 -230 -78 -378 -309 -378s-308 150 -308 378
c0 229 77 379 308 379s309 -149 309 -379zM619 363c0 208 -62 327 -251 327c-188 0 -250 -119 -250 -327c0 -206 62 -326 250 -326c189 0 251 120 251 326z" />
    <glyph glyph-name="P" unicode="P" horiz-adv-x="580" 
d="M540 525c0 -163 -80 -219 -259 -219h-136v-306h-55v727h197c150 0 253 -42 253 -202zM482 524c0 124 -80 151 -200 151h-137v-317h113c146 0 224 18 224 166z" />
    <glyph glyph-name="Q" unicode="Q" horiz-adv-x="737" 
d="M677 363c0 -216 -69 -360 -269 -376c21 -63 58 -93 155 -93c23 0 53 3 70 7l12 -48c-22 -5 -61 -10 -83 -10c-112 0 -188 34 -222 143c-209 12 -280 158 -280 377c0 229 77 379 308 379s309 -149 309 -379zM619 363c0 208 -62 327 -251 327c-188 0 -250 -119 -250 -327
c0 -206 62 -326 250 -326c189 0 251 120 251 326z" />
    <glyph glyph-name="R" unicode="R" horiz-adv-x="633" 
d="M588 0h-58l-56 214c-18 68 -44 101 -105 101h-224v-315h-55v727h228c146 0 241 -43 241 -196c0 -117 -48 -167 -109 -191c41 -15 59 -49 72 -98zM503 530c0 111 -58 147 -196 147h-162v-312h159c151 0 199 45 199 165z" />
    <glyph glyph-name="Racute" unicode="&#x154;" horiz-adv-x="633" 
d="M588 0h-58l-56 214c-18 68 -44 101 -105 101h-224v-315h-55v727h228c146 0 241 -43 241 -196c0 -117 -48 -167 -109 -191c41 -15 59 -49 72 -98zM503 530c0 111 -58 147 -196 147h-162v-312h159c151 0 199 45 199 165zM444 956l-148 -176h-45l114 176h79z" />
    <glyph glyph-name="Rcaron" unicode="&#x158;" horiz-adv-x="633" 
d="M588 0h-58l-56 214c-18 68 -44 101 -105 101h-224v-315h-55v727h228c146 0 241 -43 241 -196c0 -117 -48 -167 -109 -191c41 -15 59 -49 72 -98zM503 530c0 111 -58 147 -196 147h-162v-312h159c151 0 199 45 199 165zM448 956l-111 -176h-75l-108 176h47l102 -129
l99 129h46z" />
    <glyph glyph-name="Rcommaaccent" unicode="&#x156;" horiz-adv-x="633" 
d="M588 0h-58l-56 214c-18 68 -44 101 -105 101h-224v-315h-55v727h228c146 0 241 -43 241 -196c0 -117 -48 -167 -109 -191c41 -15 59 -49 72 -98zM503 530c0 111 -58 147 -196 147h-162v-312h159c151 0 199 45 199 165zM379 -82c0 -23 -2 -59 -31 -111h-40
c12 21 22 46 22 80c-21 0 -43 7 -43 45c0 28 17 40 44 40c35 0 48 -17 48 -54z" />
    <glyph glyph-name="S" unicode="S" horiz-adv-x="625" 
d="M567 193c0 -162 -133 -208 -255 -208c-154 0 -230 73 -266 141l48 30c38 -64 97 -119 218 -119c93 0 196 35 196 151c0 83 -59 128 -180 153c-188 39 -266 83 -266 204c0 115 83 197 242 197c134 0 201 -53 243 -128l-46 -29c-42 70 -99 105 -198 105
c-114 0 -184 -55 -184 -142c0 -78 49 -114 210 -149c146 -32 238 -82 238 -206z" />
    <glyph glyph-name="Sacute" unicode="&#x15a;" horiz-adv-x="625" 
d="M567 193c0 -162 -133 -208 -255 -208c-154 0 -230 73 -266 141l48 30c38 -64 97 -119 218 -119c93 0 196 35 196 151c0 83 -59 128 -180 153c-188 39 -266 83 -266 204c0 115 83 197 242 197c134 0 201 -53 243 -128l-46 -29c-42 70 -99 105 -198 105
c-114 0 -184 -55 -184 -142c0 -78 49 -114 210 -149c146 -32 238 -82 238 -206zM438 956l-148 -176h-45l114 176h79z" />
    <glyph glyph-name="Scaron" unicode="&#x160;" horiz-adv-x="625" 
d="M461 956l-111 -176h-75l-108 176h47l102 -129l99 129h46zM567 193c0 -162 -133 -208 -255 -208c-154 0 -230 73 -266 141l48 30c38 -64 97 -119 218 -119c93 0 196 35 196 151c0 83 -59 128 -180 153c-188 39 -266 83 -266 204c0 115 83 197 242 197
c134 0 201 -53 243 -128l-46 -29c-42 70 -99 105 -198 105c-114 0 -184 -55 -184 -142c0 -78 49 -114 210 -149c146 -32 238 -82 238 -206z" />
    <glyph glyph-name="Scedilla" unicode="&#x15e;" horiz-adv-x="625" 
d="M425 -105c0 -54 -42 -88 -118 -88c-41 0 -86 13 -108 21l16 36c31 -12 67 -19 98 -19c46 0 71 17 71 55c0 39 -53 59 -92 59l12 26c-149 3 -223 74 -258 141l48 30c38 -64 97 -119 218 -119c93 0 196 35 196 151c0 83 -59 128 -180 153c-188 39 -266 83 -266 204
c0 115 83 197 242 197c134 0 201 -53 243 -128l-46 -29c-42 70 -99 105 -198 105c-114 0 -184 -55 -184 -142c0 -78 49 -114 210 -149c146 -32 238 -82 238 -206c0 -149 -112 -199 -225 -207v-1c66 -16 83 -56 83 -90z" />
    <glyph glyph-name="Scircumflex" unicode="&#x15c;" horiz-adv-x="625" 
d="M567 193c0 -162 -133 -208 -255 -208c-154 0 -230 73 -266 141l48 30c38 -64 97 -119 218 -119c93 0 196 35 196 151c0 83 -59 128 -180 153c-188 39 -266 83 -266 204c0 115 83 197 242 197c134 0 201 -53 243 -128l-46 -29c-42 70 -99 105 -198 105
c-114 0 -184 -55 -184 -142c0 -78 49 -114 210 -149c146 -32 238 -82 238 -206zM449 780h-47l-102 129l-99 -129h-46l111 176h75z" />
    <glyph glyph-name="Scommaaccent" unicode="&#x218;" horiz-adv-x="625" 
d="M567 193c0 -162 -133 -208 -255 -208c-154 0 -230 73 -266 141l48 30c38 -64 97 -119 218 -119c93 0 196 35 196 151c0 83 -59 128 -180 153c-188 39 -266 83 -266 204c0 115 83 197 242 197c134 0 201 -53 243 -128l-46 -29c-42 70 -99 105 -198 105
c-114 0 -184 -55 -184 -142c0 -78 49 -114 210 -149c146 -32 238 -82 238 -206zM366 -82c0 -23 -2 -59 -31 -111h-40c12 21 22 46 22 80c-21 0 -43 7 -43 45c0 28 17 40 44 40c35 0 48 -17 48 -54z" />
    <glyph glyph-name="T" unicode="T" horiz-adv-x="545" 
d="M540 675h-240v-675h-55v675h-240v52h535v-52z" />
    <glyph glyph-name="Tbar" unicode="&#x166;" horiz-adv-x="545" 
d="M540 675h-240v-249h158v-48h-158v-378h-55v378h-158v48h158v249h-240v52h535v-52z" />
    <glyph glyph-name="Tcaron" unicode="&#x164;" horiz-adv-x="545" 
d="M540 675h-240v-675h-55v675h-240v52h535v-52zM419 956l-111 -176h-75l-108 176h47l102 -129l99 129h46z" />
    <glyph glyph-name="Thorn" unicode="&#xde;" horiz-adv-x="580" 
d="M540 387c0 -163 -80 -219 -259 -219h-136v-168h-55v727h55v-138h142c150 0 253 -42 253 -202zM482 386c0 124 -80 151 -200 151h-137v-317h113c146 0 224 18 224 166z" />
    <glyph glyph-name="U" unicode="U" horiz-adv-x="677" 
d="M592 279c0 -220 -68 -294 -253 -294s-254 76 -254 294v448h55v-438c0 -179 42 -252 199 -252c163 0 198 78 198 250v440h55v-448z" />
    <glyph glyph-name="Uacute" unicode="&#xda;" horiz-adv-x="677" 
d="M487 956l-148 -176h-45l114 176h79zM592 279c0 -220 -68 -294 -253 -294s-254 76 -254 294v448h55v-438c0 -179 42 -252 199 -252c163 0 198 78 198 250v440h55v-448z" />
    <glyph glyph-name="Ubreve" unicode="&#x16c;" horiz-adv-x="677" 
d="M592 279c0 -220 -68 -294 -253 -294s-254 76 -254 294v448h55v-438c0 -179 42 -252 199 -252c163 0 198 78 198 250v440h55v-448zM482 918c-18 -65 -56 -138 -147 -138c-89 0 -129 89 -141 138h41c22 -48 47 -76 102 -76c53 0 80 24 103 76h42z" />
    <glyph glyph-name="Ucircumflex" unicode="&#xdb;" horiz-adv-x="677" 
d="M490 780h-47l-102 129l-99 -129h-46l111 176h75zM592 279c0 -220 -68 -294 -253 -294s-254 76 -254 294v448h55v-438c0 -179 42 -252 199 -252c163 0 198 78 198 250v440h55v-448z" />
    <glyph glyph-name="Udieresis" unicode="&#xdc;" horiz-adv-x="677" 
d="M466 820c0 -30 -11 -40 -40 -40c-36 0 -40 19 -40 40c0 26 7 41 40 41c37 0 40 -19 40 -41zM294 820c0 -30 -11 -40 -40 -40c-36 0 -40 19 -40 40c0 26 7 41 40 41c37 0 40 -19 40 -41zM592 279c0 -220 -68 -294 -253 -294s-254 76 -254 294v448h55v-438
c0 -179 42 -252 199 -252c163 0 198 78 198 250v440h55v-448z" />
    <glyph glyph-name="Ugrave" unicode="&#xd9;" horiz-adv-x="677" 
d="M401 780h-45l-148 176h79zM592 279c0 -220 -68 -294 -253 -294s-254 76 -254 294v448h55v-438c0 -179 42 -252 199 -252c163 0 198 78 198 250v440h55v-448z" />
    <glyph glyph-name="Uhungarumlaut" unicode="&#x170;" horiz-adv-x="677" 
d="M592 279c0 -220 -68 -294 -253 -294s-254 76 -254 294v448h55v-438c0 -179 42 -252 199 -252c163 0 198 78 198 250v440h55v-448zM567 956l-148 -176h-45l114 176h79zM397 956l-148 -176h-45l114 176h79z" />
    <glyph glyph-name="Umacron" unicode="&#x16a;" horiz-adv-x="677" 
d="M592 279c0 -220 -68 -294 -253 -294s-254 76 -254 294v448h55v-438c0 -179 42 -252 199 -252c163 0 198 78 198 250v440h55v-448zM482 780h-288v57h288v-57z" />
    <glyph glyph-name="Uogonek" unicode="&#x172;" horiz-adv-x="677" 
d="M523 -161c-23 -15 -64 -32 -110 -32c-72 0 -105 46 -105 105c0 27 5 52 11 73c-170 6 -234 84 -234 294v448h55v-438c0 -179 42 -252 199 -252c163 0 198 78 198 250v440h55v-448c0 -209 -61 -286 -225 -293c-5 -19 -8 -39 -8 -60c0 -50 21 -71 67 -71c29 0 57 7 79 17z
" />
    <glyph glyph-name="Uring" unicode="&#x16e;" horiz-adv-x="677" 
d="M442 798c0 -66 -35 -107 -103 -107c-71 0 -101 45 -101 107c0 64 33 106 101 106c70 0 103 -41 103 -106zM407 797c0 50 -25 75 -69 75c-40 0 -65 -27 -65 -75c0 -44 16 -75 65 -75s69 29 69 75zM592 279c0 -220 -68 -294 -253 -294s-254 76 -254 294v448h55v-438
c0 -179 42 -252 199 -252c163 0 198 78 198 250v440h55v-448z" />
    <glyph glyph-name="Utilde" unicode="&#x168;" horiz-adv-x="677" 
d="M592 279c0 -220 -68 -294 -253 -294s-254 76 -254 294v448h55v-438c0 -179 42 -252 199 -252c163 0 198 78 198 250v440h55v-448zM516 914c0 -66 -33 -134 -105 -134c-33 0 -62 14 -88 41c-20 21 -41 46 -63 46c-45 0 -54 -54 -56 -87h-43c0 64 32 134 106 134
c33 0 61 -13 88 -42c15 -16 37 -45 64 -45c43 0 53 56 54 87h43z" />
    <glyph glyph-name="V" unicode="V" horiz-adv-x="587" 
d="M575 727l-247 -727h-71l-245 727h58l223 -670l225 670h57z" />
    <glyph glyph-name="W" unicode="W" horiz-adv-x="865" 
d="M843 727l-172 -727h-79l-162 474l-164 -474h-79l-165 727h56l152 -676l167 481h67l166 -482l159 677h54z" />
    <glyph glyph-name="Wacute" unicode="&#x1e82;" horiz-adv-x="865" 
d="M843 727l-172 -727h-79l-162 474l-164 -474h-79l-165 727h56l152 -676l167 481h67l166 -482l159 677h54zM564 956l-148 -176h-45l114 176h79z" />
    <glyph glyph-name="Wcircumflex" unicode="&#x174;" horiz-adv-x="865" 
d="M843 727l-172 -727h-79l-162 474l-164 -474h-79l-165 727h56l152 -676l167 481h67l166 -482l159 677h54zM579 780h-47l-102 129l-99 -129h-46l111 176h75z" />
    <glyph glyph-name="Wdieresis" unicode="&#x1e84;" horiz-adv-x="865" 
d="M843 727l-172 -727h-79l-162 474l-164 -474h-79l-165 727h56l152 -676l167 481h67l166 -482l159 677h54zM558 820c0 -30 -11 -40 -40 -40c-36 0 -40 19 -40 40c0 26 7 41 40 41c37 0 40 -19 40 -41zM386 820c0 -30 -11 -40 -40 -40c-36 0 -40 19 -40 40c0 26 7 41 40 41
c37 0 40 -19 40 -41z" />
    <glyph glyph-name="Wgrave" unicode="&#x1e80;" horiz-adv-x="865" 
d="M843 727l-172 -727h-79l-162 474l-164 -474h-79l-165 727h56l152 -676l167 481h67l166 -482l159 677h54zM493 780h-45l-148 176h79z" />
    <glyph glyph-name="X" unicode="X" horiz-adv-x="589" 
d="M575 727l-246 -361l245 -366h-68l-211 321l-215 -321h-66l249 365l-242 362h68l208 -317l212 317h66z" />
    <glyph glyph-name="Y" unicode="Y" horiz-adv-x="581" 
d="M575 727l-256 -431v-296h-55v295l-258 432h64l222 -377l221 377h62z" />
    <glyph glyph-name="Yacute" unicode="&#xdd;" horiz-adv-x="581" 
d="M429 957l-148 -176h-45l114 176h79zM575 727l-256 -431v-296h-55v295l-258 432h64l222 -377l221 377h62z" />
    <glyph glyph-name="Ycircumflex" unicode="&#x176;" horiz-adv-x="581" 
d="M575 727l-256 -431v-296h-55v295l-258 432h64l222 -377l221 377h62zM437 780h-47l-102 129l-99 -129h-46l111 176h75z" />
    <glyph glyph-name="Ydieresis" unicode="&#x178;" horiz-adv-x="581" 
d="M414 820c0 -30 -11 -40 -40 -40c-36 0 -40 19 -40 40c0 26 7 41 40 41c37 0 40 -19 40 -41zM242 820c0 -30 -11 -40 -40 -40c-36 0 -40 19 -40 40c0 26 7 41 40 41c37 0 40 -19 40 -41zM575 727l-256 -431v-296h-55v295l-258 432h64l222 -377l221 377h62z" />
    <glyph glyph-name="Ygrave" unicode="&#x1ef2;" horiz-adv-x="581" 
d="M575 727l-256 -431v-296h-55v295l-258 432h64l222 -377l221 377h62zM376 780h-45l-148 176h79z" />
    <glyph glyph-name="Z" unicode="Z" horiz-adv-x="567" 
d="M527 0h-495v47l413 628h-396v52h468v-40l-417 -635h427v-52z" />
    <glyph glyph-name="Zacute" unicode="&#x179;" horiz-adv-x="567" 
d="M527 0h-495v47l413 628h-396v52h468v-40l-417 -635h427v-52zM400 956l-148 -176h-45l114 176h79z" />
    <glyph glyph-name="Zcaron" unicode="&#x17d;" horiz-adv-x="567" 
d="M426 956l-111 -176h-75l-108 176h47l102 -129l99 129h46zM527 0h-495v47l413 628h-396v52h468v-40l-417 -635h427v-52z" />
    <glyph glyph-name="Zdotaccent" unicode="&#x17b;" horiz-adv-x="567" 
d="M527 0h-495v47l413 628h-396v52h468v-40l-417 -635h427v-52zM324 820c0 -30 -11 -40 -40 -40c-36 0 -40 18 -40 40c0 26 7 41 40 41c37 0 40 -19 40 -41z" />
    <glyph glyph-name="a" unicode="a" horiz-adv-x="526" 
d="M448 0h-54v72c-55 -48 -113 -87 -190 -87c-102 0 -159 64 -159 153c0 123 91 152 193 164c62 7 85 8 156 13v31c0 98 -54 126 -143 126c-70 0 -108 -21 -142 -54l-39 41c43 39 101 62 182 62c131 0 196 -39 196 -175v-346zM394 124v144c-37 -4 -52 -5 -103 -9
c-100 -8 -190 -22 -190 -119c0 -72 40 -106 112 -106c62 0 131 43 181 90z" />
    <glyph glyph-name="a.superior" unicode="&#xf6e9;" horiz-adv-x="421" 
d="M359 295h-45v53c-44 -36 -90 -64 -150 -64c-82 0 -128 49 -128 117c0 129 132 121 248 133l30 3v20c0 71 -43 91 -113 91c-55 0 -85 -15 -112 -40l-35 34c36 31 84 49 148 49c105 0 157 -30 157 -134v-262zM314 393v103l-66 -5c-91 -7 -165 -20 -165 -88
c0 -52 32 -77 88 -77c49 0 103 32 143 67z" />
    <glyph glyph-name="aacute" unicode="&#xe1;" horiz-adv-x="526" 
d="M399 766l-148 -176h-45l114 176h79zM448 0h-54v72c-55 -48 -113 -87 -190 -87c-102 0 -159 64 -159 153c0 123 91 152 193 164c62 7 85 8 156 13v31c0 98 -54 126 -143 126c-70 0 -108 -21 -142 -54l-39 41c43 39 101 62 182 62c131 0 196 -39 196 -175v-346zM394 124
v144c-37 -4 -52 -5 -103 -9c-100 -8 -190 -22 -190 -119c0 -72 40 -106 112 -106c62 0 131 43 181 90z" />
    <glyph glyph-name="abreve" unicode="&#x103;" horiz-adv-x="526" 
d="M448 0h-54v72c-55 -48 -113 -87 -190 -87c-102 0 -159 64 -159 153c0 123 91 152 193 164c62 7 85 8 156 13v31c0 98 -54 126 -143 126c-70 0 -108 -21 -142 -54l-39 41c43 39 101 62 182 62c131 0 196 -39 196 -175v-346zM394 124v144c-37 -4 -52 -5 -103 -9
c-100 -8 -190 -22 -190 -119c0 -72 40 -106 112 -106c62 0 131 43 181 90zM407 747c-18 -65 -56 -138 -147 -138c-89 0 -129 89 -141 138h41c22 -48 47 -76 102 -76c53 0 80 24 103 76h42z" />
    <glyph glyph-name="acircumflex" unicode="&#xe2;" horiz-adv-x="526" 
d="M411 590h-47l-102 129l-99 -129h-46l111 176h75zM448 0h-54v72c-55 -48 -113 -87 -190 -87c-102 0 -159 64 -159 153c0 123 91 152 193 164c62 7 85 8 156 13v31c0 98 -54 126 -143 126c-70 0 -108 -21 -142 -54l-39 41c43 39 101 62 182 62c131 0 196 -39 196 -175v-346
zM394 124v144c-37 -4 -52 -5 -103 -9c-100 -8 -190 -22 -190 -119c0 -72 40 -106 112 -106c62 0 131 43 181 90z" />
    <glyph glyph-name="acute" unicode="&#xb4;" horiz-adv-x="500" 
d="M392 766l-148 -176h-45l114 176h79z" />
    <glyph glyph-name="adieresis" unicode="&#xe4;" horiz-adv-x="526" 
d="M381 641c0 -30 -11 -40 -40 -40c-36 0 -40 19 -40 40c0 26 7 41 40 41c37 0 40 -19 40 -41zM209 641c0 -30 -11 -40 -40 -40c-36 0 -40 19 -40 40c0 26 7 41 40 41c37 0 40 -19 40 -41zM448 0h-54v72c-55 -48 -113 -87 -190 -87c-102 0 -159 64 -159 153
c0 123 91 152 193 164c62 7 85 8 156 13v31c0 98 -54 126 -143 126c-70 0 -108 -21 -142 -54l-39 41c43 39 101 62 182 62c131 0 196 -39 196 -175v-346zM394 124v144c-37 -4 -52 -5 -103 -9c-100 -8 -190 -22 -190 -119c0 -72 40 -106 112 -106c62 0 131 43 181 90z" />
    <glyph glyph-name="ae" unicode="&#xe6;" horiz-adv-x="822" 
d="M780 246h-348c0 -112 39 -212 165 -212c45 0 92 27 116 46l32 -44c-30 -27 -91 -50 -136 -50c-62 0 -147 5 -200 97c-85 -67 -141 -98 -210 -98c-93 0 -154 64 -154 153c0 126 92 154 186 165c62 7 76 7 147 12v31c0 94 -51 126 -134 126c-61 0 -105 -24 -135 -54l-39 41
c34 34 91 62 174 62c99 0 147 -26 175 -88c41 59 87 88 171 88c138 0 190 -89 190 -228v-47zM391 125c-8 24 -13 60 -13 99v44c-37 -4 -46 -5 -97 -9c-94 -8 -180 -20 -180 -119c0 -72 42 -106 111 -106c62 0 131 54 179 91zM723 295c0 113 -34 177 -140 177
c-78 0 -143 -51 -149 -177h289z" />
    <glyph glyph-name="aeacute" unicode="&#x1fd;" horiz-adv-x="822" 
d="M780 246h-348c0 -112 39 -212 165 -212c45 0 92 27 116 46l32 -44c-30 -27 -91 -50 -136 -50c-62 0 -147 5 -200 97c-85 -67 -141 -98 -210 -98c-93 0 -154 64 -154 153c0 126 92 154 186 165c62 7 76 7 147 12v31c0 94 -51 126 -134 126c-61 0 -105 -24 -135 -54l-39 41
c34 34 91 62 174 62c99 0 147 -26 175 -88c41 59 87 88 171 88c138 0 190 -89 190 -228v-47zM391 125c-8 24 -13 60 -13 99v44c-37 -4 -46 -5 -97 -9c-94 -8 -180 -20 -180 -119c0 -72 42 -106 111 -106c62 0 131 54 179 91zM723 295c0 113 -34 177 -140 177
c-78 0 -143 -51 -149 -177h289zM636 766l-148 -176h-45l114 176h79z" />
    <glyph glyph-name="agrave" unicode="&#xe0;" horiz-adv-x="526" 
d="M326 590h-45l-148 176h79zM448 0h-54v72c-55 -48 -113 -87 -190 -87c-102 0 -159 64 -159 153c0 123 91 152 193 164c62 7 85 8 156 13v31c0 98 -54 126 -143 126c-70 0 -108 -21 -142 -54l-39 41c43 39 101 62 182 62c131 0 196 -39 196 -175v-346zM394 124v144
c-37 -4 -52 -5 -103 -9c-100 -8 -190 -22 -190 -119c0 -72 40 -106 112 -106c62 0 131 43 181 90z" />
    <glyph glyph-name="amacron" unicode="&#x101;" horiz-adv-x="526" 
d="M448 0h-54v72c-55 -48 -113 -87 -190 -87c-102 0 -159 64 -159 153c0 123 91 152 193 164c62 7 85 8 156 13v31c0 98 -54 126 -143 126c-70 0 -108 -21 -142 -54l-39 41c43 39 101 62 182 62c131 0 196 -39 196 -175v-346zM394 124v144c-37 -4 -52 -5 -103 -9
c-100 -8 -190 -22 -190 -119c0 -72 40 -106 112 -106c62 0 131 43 181 90zM407 607h-288v57h288v-57z" />
    <glyph glyph-name="ampersand" unicode="&#x26;" horiz-adv-x="656" 
d="M628 300c-15 -70 -51 -144 -91 -190l89 -110h-70l-55 68c-55 -51 -106 -83 -209 -83c-154 0 -232 87 -232 198c0 127 83 172 165 226c-49 60 -90 120 -90 177c0 100 62 156 175 156c106 0 162 -56 162 -130c0 -92 -73 -149 -168 -214l202 -249c27 30 58 90 76 164z
M417 612c0 54 -48 86 -112 86c-83 0 -115 -54 -115 -102c0 -56 33 -99 82 -160c111 75 145 113 145 176zM470 107l-212 261c-104 -66 -140 -108 -140 -187c0 -109 102 -147 178 -147c93 0 146 46 174 73z" />
    <glyph glyph-name="aogonek" unicode="&#x105;" horiz-adv-x="526" 
d="M448 0h-6c-7 -22 -13 -47 -13 -74c0 -50 21 -71 67 -71c29 0 57 7 79 17l18 -33c-23 -15 -64 -32 -110 -32c-72 0 -105 46 -105 105c0 33 8 65 16 88v72c-55 -48 -113 -87 -190 -87c-102 0 -159 64 -159 153c0 123 91 152 193 164c62 7 85 8 156 13v31
c0 98 -54 126 -143 126c-70 0 -108 -21 -142 -54l-39 41c43 39 101 62 182 62c131 0 196 -39 196 -175v-346zM394 124v144c-37 -4 -52 -5 -103 -9c-100 -8 -190 -22 -190 -119c0 -72 40 -106 112 -106c62 0 131 43 181 90z" />
    <glyph glyph-name="approxequal" unicode="&#x2248;" 
d="M584 174c-40 -35 -78 -55 -133 -55c-83 0 -176 82 -237 82s-102 -27 -143 -69v52c37 34 82 56 133 56c84 0 173 -83 241 -83c57 0 102 28 139 69v-52zM584 390c-40 -35 -78 -55 -133 -55c-83 0 -176 82 -237 82s-102 -27 -143 -69v52c37 34 82 56 133 56
c84 0 173 -83 241 -83c57 0 102 28 139 69v-52z" />
    <glyph glyph-name="aring" unicode="&#xe5;" horiz-adv-x="526" 
d="M342 657c0 -53 -29 -86 -84 -86c-58 0 -81 36 -81 86c0 52 25 86 81 86c57 0 84 -33 84 -86zM448 0h-54v72c-55 -48 -113 -87 -190 -87c-102 0 -159 64 -159 153c0 123 91 152 193 164c62 7 85 8 156 13v31c0 98 -54 126 -143 126c-70 0 -108 -21 -142 -54l-39 41
c43 39 101 62 182 62c131 0 196 -39 196 -175v-346zM309 657c0 37 -18 55 -51 55c-31 0 -48 -20 -48 -55c0 -32 12 -55 48 -55s51 21 51 55zM394 124v144c-37 -4 -52 -5 -103 -9c-100 -8 -190 -22 -190 -119c0 -72 40 -106 112 -106c62 0 131 43 181 90z" />
    <glyph glyph-name="asciicircum" unicode="^" horiz-adv-x="577" 
d="M500 347h-42l-169 350l-170 -350h-42l185 386h53z" />
    <glyph glyph-name="asciitilde" unicode="~" horiz-adv-x="645" 
d="M579 280c-40 -35 -78 -55 -133 -55c-83 0 -176 82 -237 82s-102 -27 -143 -69v52c37 34 82 56 133 56c84 0 173 -83 241 -83c57 0 102 28 139 69v-52z" />
    <glyph glyph-name="asterisk" unicode="*" horiz-adv-x="418" 
d="M388 493l-22 -39l-136 79l2 -135h-45l1 135l-135 -80l-23 39l143 78l-143 78l23 39l136 -80l-2 135h45l-2 -135l136 79l22 -39l-142 -77z" />
    <glyph glyph-name="at" unicode="@" horiz-adv-x="1003" 
d="M943 284c0 -150 -50 -299 -201 -299c-81 0 -115 40 -124 96c-65 -51 -123 -81 -182 -81c-113 0 -165 90 -165 200c0 164 76 320 248 320c49 0 83 -14 137 -54l4 40h62l-46 -387c-1 -7 -2 -17 -2 -23c0 -47 33 -64 76 -64c113 0 141 150 141 248c0 252 -126 414 -381 414
c-234 0 -398 -183 -398 -420c0 -249 150 -420 396 -420c80 0 147 10 219 27l11 -49c-75 -17 -144 -25 -231 -25c-274 0 -447 187 -447 468c0 266 190 466 449 466c278 0 434 -173 434 -457zM651 415c-43 33 -86 52 -127 52c-144 0 -190 -148 -190 -265
c0 -96 32 -147 123 -147c59 0 118 44 160 76z" />
    <glyph glyph-name="atilde" unicode="&#xe3;" horiz-adv-x="526" 
d="M437 745c0 -66 -33 -134 -105 -134c-33 0 -62 14 -88 41c-20 21 -41 46 -63 46c-45 0 -54 -54 -56 -87h-43c0 64 32 134 106 134c33 0 61 -13 88 -42c15 -16 37 -45 64 -45c43 0 53 56 54 87h43zM448 0h-54v72c-55 -48 -113 -87 -190 -87c-102 0 -159 64 -159 153
c0 123 91 152 193 164c62 7 85 8 156 13v31c0 98 -54 126 -143 126c-70 0 -108 -21 -142 -54l-39 41c43 39 101 62 182 62c131 0 196 -39 196 -175v-346zM394 124v144c-37 -4 -52 -5 -103 -9c-100 -8 -190 -22 -190 -119c0 -72 40 -106 112 -106c62 0 131 43 181 90z" />
    <glyph glyph-name="b" unicode="b" horiz-adv-x="562" 
d="M512 257c0 -119 -48 -272 -214 -272c-77 0 -128 15 -162 26l-44 -18h-10v734h54v-284c40 40 102 78 175 78c144 0 201 -114 201 -264zM456 255c0 95 -23 215 -145 215c-69 0 -125 -35 -175 -85v-317c30 -13 86 -32 160 -32c102 0 160 79 160 219z" />
    <glyph glyph-name="b.superior" unicode="&#xf6ea;" horiz-adv-x="449" 
d="M409 490c0 -90 -39 -206 -171 -206c-61 0 -102 11 -129 19l-35 -13h-9v555h45v-211c32 30 81 57 138 57c115 0 161 -86 161 -201zM362 489c0 70 -18 158 -114 158c-55 0 -99 -26 -138 -62v-234c24 -9 68 -23 126 -23c80 0 126 58 126 161z" />
    <glyph glyph-name="backslash" unicode="\" horiz-adv-x="362" 
d="M393 -146h-54l-370 888h54z" />
    <glyph glyph-name="bar" unicode="|" horiz-adv-x="370" 
d="M210 -193h-50v935h50v-935z" />
    <glyph glyph-name="braceleft" unicode="{" horiz-adv-x="399" 
d="M359 -193h-15c-106 0 -152 69 -152 176v72c0 108 -36 193 -152 193v52c116 0 152 84 152 195v71c0 109 49 176 152 176h15v-42h-12c-80 0 -106 -55 -106 -149v-81c0 -114 -43 -170 -135 -196c93 -26 135 -85 135 -195v-81c0 -94 26 -149 106 -149h12v-42z" />
    <glyph glyph-name="braceright" unicode="}" horiz-adv-x="399" 
d="M359 248c-116 0 -152 -85 -152 -193v-72c0 -107 -46 -176 -152 -176h-15v42h12c80 0 106 55 106 149v81c0 110 42 169 135 195c-92 26 -135 82 -135 196v81c0 94 -26 149 -106 149h-12v42h15c103 0 152 -67 152 -176v-71c0 -111 36 -195 152 -195v-52z" />
    <glyph glyph-name="bracketleft" unicode="[" horiz-adv-x="354" 
d="M304 -193h-215v920h215v-42h-167v-836h167v-42z" />
    <glyph glyph-name="bracketright" unicode="]" horiz-adv-x="354" 
d="M265 -193h-215v42h167v836h-167v42h215v-920z" />
    <glyph glyph-name="breve" unicode="&#x2d8;" horiz-adv-x="500" 
d="M394 747c-18 -65 -56 -138 -147 -138c-89 0 -129 89 -141 138h41c22 -48 47 -76 102 -76c53 0 80 24 103 76h42z" />
    <glyph glyph-name="brokenbar" unicode="&#xa6;" horiz-adv-x="370" 
d="M210 431h-50v311h50v-311zM210 -193h-50v311h50v-311z" />
    <glyph glyph-name="bullet" unicode="&#x2022;" horiz-adv-x="333" 
d="M282 365c0 -64 -51 -116 -115 -116s-116 52 -116 116s52 115 116 115s115 -51 115 -115z" />
    <glyph glyph-name="c" unicode="c" horiz-adv-x="477" 
d="M452 434l-45 -28c-30 47 -74 66 -133 66c-111 0 -168 -74 -168 -220c0 -131 48 -218 170 -218c58 0 101 26 130 47l32 -44c-40 -29 -90 -52 -161 -52c-176 0 -227 115 -227 267c0 162 65 269 229 269c88 0 140 -32 173 -87z" />
    <glyph glyph-name="cacute" unicode="&#x107;" horiz-adv-x="477" 
d="M452 434l-45 -28c-30 47 -74 66 -133 66c-111 0 -168 -74 -168 -220c0 -131 48 -218 170 -218c58 0 101 26 130 47l32 -44c-40 -29 -90 -52 -161 -52c-176 0 -227 115 -227 267c0 162 65 269 229 269c88 0 140 -32 173 -87zM397 766l-148 -176h-45l114 176h79z" />
    <glyph glyph-name="caron" unicode="&#x2c7;" horiz-adv-x="500" 
d="M397 766l-111 -176h-75l-108 176h47l102 -129l99 129h46z" />
    <glyph glyph-name="ccaron" unicode="&#x10d;" horiz-adv-x="477" 
d="M452 434l-45 -28c-30 47 -74 66 -133 66c-111 0 -168 -74 -168 -220c0 -131 48 -218 170 -218c58 0 101 26 130 47l32 -44c-40 -29 -90 -52 -161 -52c-176 0 -227 115 -227 267c0 162 65 269 229 269c88 0 140 -32 173 -87zM415 766l-111 -176h-75l-108 176h47l102 -129
l99 129h46z" />
    <glyph glyph-name="ccedilla" unicode="&#xe7;" horiz-adv-x="477" 
d="M452 434l-45 -28c-30 47 -74 66 -133 66c-111 0 -168 -74 -168 -220c0 -131 48 -218 170 -218c58 0 101 26 130 47l32 -44c-40 -29 -90 -52 -161 -52h-11c66 -16 83 -56 83 -90c0 -54 -42 -88 -118 -88c-41 0 -86 13 -108 21l16 36c31 -12 67 -19 98 -19
c46 0 71 17 71 55c0 39 -53 59 -92 59l14 29c-138 19 -180 126 -180 264c0 162 65 269 229 269c88 0 140 -32 173 -87z" />
    <glyph glyph-name="ccircumflex" unicode="&#x109;" horiz-adv-x="477" 
d="M452 434l-45 -28c-30 47 -74 66 -133 66c-111 0 -168 -74 -168 -220c0 -131 48 -218 170 -218c58 0 101 26 130 47l32 -44c-40 -29 -90 -52 -161 -52c-176 0 -227 115 -227 267c0 162 65 269 229 269c88 0 140 -32 173 -87zM413 590h-47l-102 129l-99 -129h-46l111 176
h75z" />
    <glyph glyph-name="cdotaccent" unicode="&#x10b;" horiz-adv-x="477" 
d="M452 434l-45 -28c-30 47 -74 66 -133 66c-111 0 -168 -74 -168 -220c0 -131 48 -218 170 -218c58 0 101 26 130 47l32 -44c-40 -29 -90 -52 -161 -52c-176 0 -227 115 -227 267c0 162 65 269 229 269c88 0 140 -32 173 -87zM307 641c0 -30 -11 -40 -40 -40
c-36 0 -40 18 -40 40c0 26 7 41 40 41c37 0 40 -19 40 -41z" />
    <glyph glyph-name="cedilla" unicode="&#xb8;" horiz-adv-x="500" 
d="M339 -105c0 -54 -42 -88 -118 -88c-41 0 -86 13 -108 21l16 36c31 -12 67 -19 98 -19c46 0 71 17 71 55c0 39 -53 59 -92 59l24 50h37l-11 -24c66 -16 83 -56 83 -90z" />
    <glyph glyph-name="cent" unicode="&#xa2;" horiz-adv-x="483" 
d="M454 469l-45 -28c-14 22 -32 38 -52 49l-146 -410c19 -7 42 -11 67 -11c58 0 101 26 130 47l32 -44c-40 -29 -90 -52 -161 -52c-37 0 -65 6 -84 13l-71 -199h-46l76 214c-77 43 -102 132 -102 239c0 162 65 269 229 269c19 0 36 -1 52 -4l68 190h46l-72 -203
c35 -15 60 -38 79 -70zM316 504c-13 2 -26 3 -40 3c-111 0 -168 -74 -168 -220c0 -83 19 -149 65 -186z" />
    <glyph glyph-name="circumflex" unicode="&#x2c6;" horiz-adv-x="500" 
d="M397 590h-47l-102 129l-99 -129h-46l111 176h75z" />
    <glyph glyph-name="colon" unicode=":" horiz-adv-x="228" 
d="M160 422c0 -32 -11 -42 -46 -42c-37 0 -46 14 -46 42c0 31 10 43 46 43c37 0 46 -12 46 -43zM160 35c0 -32 -11 -42 -46 -42c-37 0 -46 14 -46 42c0 31 10 43 46 43c37 0 46 -12 46 -43z" />
    <glyph glyph-name="comma" unicode="," horiz-adv-x="228" 
d="M160 24c0 -68 -20 -129 -50 -173h-40c22 35 42 89 42 126c0 9 0 12 -1 16c-25 0 -43 7 -43 45c0 28 14 40 44 40c36 0 48 -17 48 -54z" />
    <glyph glyph-name="commaaccent" unicode="&#xf6c3;" horiz-adv-x="250" 
d="M171 -82c0 -23 -2 -59 -31 -111h-40c12 21 22 46 22 80c-21 0 -43 7 -43 45c0 28 17 40 44 40c35 0 48 -17 48 -54z" />
    <glyph glyph-name="copyright" unicode="&#xa9;" horiz-adv-x="938" 
d="M886 325c0 -230 -187 -417 -417 -417s-417 187 -417 417s187 417 417 417s417 -187 417 -417zM838 325c0 204 -165 369 -369 369s-369 -165 -369 -369s165 -369 369 -369s369 165 369 369zM652 471l-44 -32c-19 34 -55 71 -118 71c-110 0 -150 -67 -150 -184
c0 -123 45 -182 151 -182c53 0 86 22 115 44l32 -44c-50 -38 -94 -50 -147 -50c-137 0 -207 71 -207 232c0 159 70 234 207 234c78 0 130 -33 161 -89z" />
    <glyph glyph-name="currency" unicode="&#xa4;" horiz-adv-x="627" 
d="M462 237l67 -64l-33 -34l-66 67c-32 -26 -74 -41 -118 -41c-33 0 -80 9 -118 41l-66 -67l-33 34l67 64c-23 32 -40 72 -40 117s15 87 40 117l-67 65l33 34l66 -67c41 31 85 41 118 41c37 0 84 -13 117 -41l67 67l33 -34l-67 -65c27 -35 40 -77 40 -117
c0 -45 -15 -84 -40 -117zM455 355c0 85 -71 142 -142 142c-83 0 -144 -66 -144 -142c0 -78 64 -144 143 -144s143 66 143 144z" />
    <glyph glyph-name="d" unicode="d" horiz-adv-x="562" 
d="M480 0h-54v63c-38 -40 -98 -78 -172 -78c-148 0 -204 114 -204 264c0 151 72 272 208 272c65 0 116 -21 168 -63v269h54v-727zM426 121v281c-43 34 -96 68 -164 68c-96 0 -156 -78 -156 -219c0 -96 24 -215 145 -215c72 0 128 41 175 85z" />
    <glyph glyph-name="d.superior" unicode="&#xf6eb;" horiz-adv-x="449" 
d="M384 295h-45v46c-31 -30 -77 -57 -135 -57c-119 0 -164 86 -164 200c0 115 58 207 167 207c50 0 91 -15 132 -46v200h45v-550zM339 390v207c-34 25 -75 50 -129 50c-75 0 -123 -57 -123 -161c0 -71 19 -158 114 -158c57 0 101 30 138 62z" />
    <glyph glyph-name="dagger" unicode="&#x2020;" horiz-adv-x="492" 
d="M460 424l-194 11l15 -628h-72l16 628l-193 -11v62l193 -12l-13 268h65l-12 -268l195 12v-62z" />
    <glyph glyph-name="daggerdbl" unicode="&#x2021;" horiz-adv-x="492" 
d="M460 28l-195 12l12 -233h-65l13 233l-193 -12v62l193 -11l-11 195l11 196l-193 -11v62l193 -12l-13 233h65l-12 -233l195 12v-62l-194 11l10 -196l-10 -195l194 11v-62z" />
    <glyph glyph-name="dcaron" unicode="&#x10f;" horiz-adv-x="562" 
d="M480 0h-54v63c-38 -40 -98 -78 -172 -78c-148 0 -204 114 -204 264c0 151 72 272 208 272c65 0 116 -21 168 -63v269h54v-727zM426 121v281c-43 34 -96 68 -164 68c-96 0 -156 -78 -156 -219c0 -96 24 -215 145 -215c72 0 128 41 175 85zM603 673
c0 -68 -20 -129 -50 -173h-40c22 35 42 89 42 126c0 9 0 12 -1 16c-25 0 -43 7 -43 45c0 28 14 40 44 40c36 0 48 -17 48 -54z" />
    <glyph glyph-name="dcroat" unicode="&#x111;" horiz-adv-x="562" 
d="M480 0h-54v63c-38 -40 -98 -78 -172 -78c-148 0 -204 114 -204 264c0 151 72 272 208 272c65 0 116 -21 168 -63v137h-213v49h213v83h54v-83h57v-49h-57v-595zM426 121v281c-43 34 -96 68 -164 68c-96 0 -156 -78 -156 -219c0 -96 24 -215 145 -215c72 0 128 41 175 85z
" />
    <glyph glyph-name="degree" unicode="&#xb0;" horiz-adv-x="398" 
d="M338 604c0 -78 -64 -139 -138 -139c-76 0 -140 61 -140 139c0 77 64 138 139 138c78 0 139 -63 139 -138zM293 602c0 52 -41 95 -93 95c-55 0 -95 -44 -95 -93c0 -52 42 -94 95 -94c52 0 93 41 93 92z" />
    <glyph glyph-name="dieresis" unicode="&#xa8;" horiz-adv-x="500" 
d="M376 641c0 -30 -11 -40 -40 -40c-36 0 -40 19 -40 40c0 26 7 41 40 41c37 0 40 -19 40 -41zM204 641c0 -30 -11 -40 -40 -40c-36 0 -40 19 -40 40c0 26 7 41 40 41c37 0 40 -19 40 -41z" />
    <glyph glyph-name="divide" unicode="&#xf7;" 
d="M367 501c0 -30 -11 -40 -40 -40c-36 0 -40 19 -40 40c0 26 7 41 40 41c37 0 40 -19 40 -41zM584 265h-513v41h513v-41zM367 69c0 -30 -11 -40 -40 -40c-36 0 -40 19 -40 40c0 26 7 41 40 41c37 0 40 -19 40 -41z" />
    <glyph glyph-name="dollar" unicode="$" horiz-adv-x="527" 
d="M477 177c0 -129 -100 -172 -198 -177v-120h-43v121c-116 7 -175 64 -205 120l44 29c30 -51 75 -95 161 -101v258c-95 22 -191 49 -191 165c0 94 66 163 191 168v102h43v-103c103 -7 151 -48 188 -109l-44 -28c-32 51 -68 83 -144 88v-239c120 -27 198 -70 198 -174z
M236 361v230c-86 -5 -137 -49 -137 -116c0 -57 31 -87 137 -114zM422 173c0 80 -66 105 -143 124v-248c72 5 143 37 143 124z" />
    <glyph glyph-name="dotaccent" unicode="&#x2d9;" horiz-adv-x="500" 
d="M286 641c0 -30 -11 -40 -40 -40c-36 0 -40 18 -40 40c0 26 7 41 40 41c37 0 40 -19 40 -41z" />
    <glyph glyph-name="dotlessi" unicode="&#x131;" horiz-adv-x="276" 
d="M190 0h-54v459h-104v47h158v-506z" />
    <glyph glyph-name="dotlessi.alt" horiz-adv-x="218" 
d="M136 0h-54v506h54v-506z" />
    <glyph glyph-name="e" unicode="e" horiz-adv-x="510" 
d="M468 246h-362c0 -112 34 -212 170 -212c46 0 91 21 125 46l32 -44c-30 -23 -80 -51 -156 -51c-143 0 -227 73 -227 263c0 162 60 273 221 273c145 0 197 -91 197 -228v-47zM411 295c0 110 -33 177 -146 177c-96 0 -149 -66 -157 -177h303z" />
    <glyph glyph-name="e.superior" unicode="&#xf6ec;" horiz-adv-x="408" 
d="M375 479h-288c1 -81 28 -153 134 -153c37 0 73 16 100 35l28 -37c-25 -18 -67 -40 -127 -40c-114 0 -182 55 -182 200c0 123 48 207 177 207c116 0 158 -69 158 -174v-38zM212 648c-74 0 -116 -47 -123 -126h238c-1 79 -27 126 -115 126z" />
    <glyph glyph-name="eacute" unicode="&#xe9;" horiz-adv-x="510" 
d="M403 766l-148 -176h-45l114 176h79zM468 246h-362c0 -112 34 -212 170 -212c46 0 91 21 125 46l32 -44c-30 -23 -80 -51 -156 -51c-143 0 -227 73 -227 263c0 162 60 273 221 273c145 0 197 -91 197 -228v-47zM411 295c0 110 -33 177 -146 177c-96 0 -149 -66 -157 -177
h303z" />
    <glyph glyph-name="ebreve" unicode="&#x115;" horiz-adv-x="510" 
d="M468 246h-362c0 -112 34 -212 170 -212c46 0 91 21 125 46l32 -44c-30 -23 -80 -51 -156 -51c-143 0 -227 73 -227 263c0 162 60 273 221 273c145 0 197 -91 197 -228v-47zM411 295c0 110 -33 177 -146 177c-96 0 -149 -66 -157 -177h303zM409 747
c-18 -65 -56 -138 -147 -138c-89 0 -129 89 -141 138h41c22 -48 47 -76 102 -76c53 0 80 24 103 76h42z" />
    <glyph glyph-name="ecaron" unicode="&#x11b;" horiz-adv-x="510" 
d="M468 246h-362c0 -112 34 -212 170 -212c46 0 91 21 125 46l32 -44c-30 -23 -80 -51 -156 -51c-143 0 -227 73 -227 263c0 162 60 273 221 273c145 0 197 -91 197 -228v-47zM411 295c0 110 -33 177 -146 177c-96 0 -149 -66 -157 -177h303zM416 766l-111 -176h-75
l-108 176h47l102 -129l99 129h46z" />
    <glyph glyph-name="ecircumflex" unicode="&#xea;" horiz-adv-x="510" 
d="M419 590h-47l-102 129l-99 -129h-46l111 176h75zM468 246h-362c0 -112 34 -212 170 -212c46 0 91 21 125 46l32 -44c-30 -23 -80 -51 -156 -51c-143 0 -227 73 -227 263c0 162 60 273 221 273c145 0 197 -91 197 -228v-47zM411 295c0 110 -33 177 -146 177
c-96 0 -149 -66 -157 -177h303z" />
    <glyph glyph-name="edieresis" unicode="&#xeb;" horiz-adv-x="510" 
d="M390 641c0 -30 -11 -40 -40 -40c-36 0 -40 19 -40 40c0 26 7 41 40 41c37 0 40 -19 40 -41zM218 641c0 -30 -11 -40 -40 -40c-36 0 -40 19 -40 40c0 26 7 41 40 41c37 0 40 -19 40 -41zM468 246h-362c0 -112 34 -212 170 -212c46 0 91 21 125 46l32 -44
c-30 -23 -80 -51 -156 -51c-143 0 -227 73 -227 263c0 162 60 273 221 273c145 0 197 -91 197 -228v-47zM411 295c0 110 -33 177 -146 177c-96 0 -149 -66 -157 -177h303z" />
    <glyph glyph-name="edotaccent" unicode="&#x117;" horiz-adv-x="510" 
d="M468 246h-362c0 -112 34 -212 170 -212c46 0 91 21 125 46l32 -44c-30 -23 -80 -51 -156 -51c-143 0 -227 73 -227 263c0 162 60 273 221 273c145 0 197 -91 197 -228v-47zM411 295c0 110 -33 177 -146 177c-96 0 -149 -66 -157 -177h303zM307 641c0 -30 -11 -40 -40 -40
c-36 0 -40 18 -40 40c0 26 7 41 40 41c37 0 40 -19 40 -41z" />
    <glyph glyph-name="egrave" unicode="&#xe8;" horiz-adv-x="510" 
d="M324 590h-45l-148 176h79zM468 246h-362c0 -112 34 -212 170 -212c46 0 91 21 125 46l32 -44c-30 -23 -80 -51 -156 -51c-143 0 -227 73 -227 263c0 162 60 273 221 273c145 0 197 -91 197 -228v-47zM411 295c0 110 -33 177 -146 177c-96 0 -149 -66 -157 -177h303z" />
    <glyph glyph-name="eight" unicode="8" horiz-adv-x="565" 
d="M523 184c0 -132 -92 -199 -240 -199c-159 0 -241 73 -241 199c0 98 61 166 175 202c-64 27 -156 70 -156 172c0 116 74 184 222 184c145 0 221 -65 221 -183c0 -94 -81 -141 -155 -172c92 -38 174 -85 174 -203zM448 558c0 88 -63 136 -165 136
c-108 0 -166 -48 -166 -129c0 -59 21 -92 165 -156c98 36 166 80 166 149zM465 182c0 107 -95 146 -182 182c-84 -31 -183 -73 -183 -183c0 -94 63 -146 183 -146c124 0 182 58 182 147z" />
    <glyph glyph-name="eight.denominator" unicode="&#xe112;" horiz-adv-x="424" 
d="M388 -39c0 -82 -67 -124 -175 -124c-117 0 -177 45 -177 124c0 56 39 96 107 119c-43 16 -93 43 -93 104c0 72 54 111 163 111c106 0 162 -39 162 -104c0 -64 -47 -93 -95 -111c59 -22 108 -52 108 -119zM328 182c0 50 -44 70 -115 70c-76 0 -116 -25 -116 -68
c0 -30 14 -48 115 -84c68 20 116 39 116 82zM340 -40c0 56 -67 78 -127 99c-59 -18 -128 -42 -128 -100c0 -50 44 -78 128 -78c86 0 127 31 127 79z" />
    <glyph glyph-name="eight.fitted" unicode="&#xe09e;" horiz-adv-x="581" 
d="M531 184c0 -132 -92 -199 -240 -199c-159 0 -241 73 -241 199c0 98 61 166 175 202c-64 27 -156 70 -156 172c0 116 74 184 222 184c145 0 221 -65 221 -183c0 -94 -81 -141 -155 -172c92 -38 174 -85 174 -203zM456 558c0 88 -63 136 -165 136
c-108 0 -166 -48 -166 -129c0 -59 21 -92 165 -156c98 36 166 80 166 149zM473 182c0 107 -95 146 -182 182c-84 -31 -183 -73 -183 -183c0 -94 63 -146 183 -146c124 0 182 58 182 147z" />
    <glyph glyph-name="eight.inferior" unicode="&#x2088;" horiz-adv-x="424" 
d="M388 -2c0 -82 -67 -124 -175 -124c-117 0 -177 45 -177 124c0 56 39 96 107 119c-43 16 -93 43 -93 104c0 72 54 111 163 111c106 0 162 -39 162 -104c0 -64 -47 -93 -95 -111c59 -22 108 -52 108 -119zM328 219c0 50 -44 70 -115 70c-76 0 -116 -25 -116 -68
c0 -30 14 -48 115 -84c68 20 116 39 116 82zM340 -3c0 56 -67 78 -127 99c-59 -18 -128 -42 -128 -100c0 -50 44 -78 128 -78c86 0 127 31 127 79z" />
    <glyph glyph-name="eight.numerator" unicode="&#xe126;" horiz-adv-x="424" 
d="M388 408c0 -82 -67 -124 -175 -124c-117 0 -177 45 -177 124c0 56 39 96 107 119c-43 16 -93 43 -93 104c0 72 54 111 163 111c106 0 162 -39 162 -104c0 -64 -47 -93 -95 -111c59 -22 108 -52 108 -119zM328 629c0 50 -44 70 -115 70c-76 0 -116 -25 -116 -68
c0 -30 14 -48 115 -84c68 20 116 39 116 82zM340 407c0 56 -67 78 -127 99c-59 -18 -128 -42 -128 -100c0 -50 44 -78 128 -78c86 0 127 31 127 79z" />
    <glyph glyph-name="eight.superior" unicode="&#x2078;" horiz-adv-x="424" 
d="M388 408c0 -82 -67 -124 -175 -124c-117 0 -177 45 -177 124c0 56 39 96 107 119c-43 16 -93 43 -93 104c0 72 54 111 163 111c106 0 162 -39 162 -104c0 -64 -47 -93 -95 -111c59 -22 108 -52 108 -119zM328 629c0 50 -44 70 -115 70c-76 0 -116 -25 -116 -68
c0 -30 14 -48 115 -84c68 20 116 39 116 82zM340 407c0 56 -67 78 -127 99c-59 -18 -128 -42 -128 -100c0 -50 44 -78 128 -78c86 0 127 31 127 79z" />
    <glyph glyph-name="eight.tab" horiz-adv-x="585" 
d="M533 184c0 -132 -92 -199 -240 -199c-159 0 -241 73 -241 199c0 98 61 166 175 202c-64 27 -156 70 -156 172c0 116 74 184 222 184c145 0 221 -65 221 -183c0 -94 -81 -141 -155 -172c92 -38 174 -85 174 -203zM458 558c0 88 -63 136 -165 136
c-108 0 -166 -48 -166 -129c0 -59 21 -92 165 -156c98 36 166 80 166 149zM475 182c0 107 -95 146 -182 182c-84 -31 -183 -73 -183 -183c0 -94 63 -146 183 -146c124 0 182 58 182 147z" />
    <glyph glyph-name="eight.taboldstyle" unicode="&#xe108;" horiz-adv-x="585" 
d="M533 184c0 -132 -92 -199 -240 -199c-159 0 -241 73 -241 199c0 98 61 166 175 202c-64 27 -156 70 -156 172c0 116 74 184 222 184c145 0 221 -65 221 -183c0 -94 -81 -141 -155 -172c92 -38 174 -85 174 -203zM458 558c0 88 -63 136 -165 136
c-108 0 -166 -48 -166 -129c0 -59 21 -92 165 -156c98 36 166 80 166 149zM475 182c0 107 -95 146 -182 182c-84 -31 -183 -73 -183 -183c0 -94 63 -146 183 -146c124 0 182 58 182 147z" />
    <glyph glyph-name="ellipsis" unicode="&#x2026;" horiz-adv-x="1000" 
d="M879 35c0 -32 -11 -42 -46 -42c-37 0 -46 14 -46 42c0 31 10 43 46 43c37 0 46 -12 46 -43zM546 35c0 -32 -11 -42 -46 -42c-37 0 -46 14 -46 42c0 31 10 43 46 43c37 0 46 -12 46 -43zM213 35c0 -32 -11 -42 -46 -42c-37 0 -46 14 -46 42c0 31 10 43 46 43
c37 0 46 -12 46 -43z" />
    <glyph glyph-name="emacron" unicode="&#x113;" horiz-adv-x="510" 
d="M468 246h-362c0 -112 34 -212 170 -212c46 0 91 21 125 46l32 -44c-30 -23 -80 -51 -156 -51c-143 0 -227 73 -227 263c0 162 60 273 221 273c145 0 197 -91 197 -228v-47zM411 295c0 110 -33 177 -146 177c-96 0 -149 -66 -157 -177h303zM416 607h-288v57h288v-57z" />
    <glyph glyph-name="emdash" unicode="&#x2014;" horiz-adv-x="1000" 
d="M1006 228h-1012v51h1012v-51z" />
    <glyph glyph-name="endash" unicode="&#x2013;" horiz-adv-x="500" 
d="M506 228h-512v51h512v-51z" />
    <glyph glyph-name="eng" unicode="&#x14b;" horiz-adv-x="564" 
d="M486 -36c0 -105 -36 -157 -150 -157c-23 0 -59 5 -80 13l15 50c23 -9 48 -15 76 -15c68 0 85 40 85 127v322c0 99 -23 165 -111 165c-52 0 -124 -44 -185 -104v-365h-54v506h54v-88c67 67 130 103 196 103c107 0 154 -75 154 -190v-367z" />
    <glyph glyph-name="eogonek" unicode="&#x119;" horiz-adv-x="510" 
d="M468 -161c-23 -15 -64 -32 -110 -32c-72 0 -105 46 -105 105c0 27 5 52 11 73c-135 5 -214 78 -214 263c0 162 60 273 221 273c145 0 197 -91 197 -228v-47h-362c0 -112 34 -212 170 -212c46 0 91 21 125 46l32 -44c-25 -19 -64 -42 -120 -49c-5 -18 -9 -40 -9 -61
c0 -50 21 -71 67 -71c29 0 57 7 79 17zM411 295c0 110 -33 177 -146 177c-96 0 -149 -66 -157 -177h303z" />
    <glyph glyph-name="equal" unicode="=" 
d="M584 376h-513v41h513v-41zM584 154h-513v41h513v-41z" />
    <glyph glyph-name="equal.tab" 
d="M584 456h-513v41h513v-41zM584 234h-513v41h513v-41z" />
    <glyph glyph-name="estimated" unicode="&#x212e;" horiz-adv-x="676" 
d="M639 305h-470v-210c45 -45 101 -69 167 -69c111 0 175 57 226 139c13 -7 25 -15 37 -22c-61 -93 -133 -155 -263 -155c-181 0 -297 143 -297 318c0 176 113 318 299 318c188 0 298 -143 301 -319zM506 344v172c-43 42 -104 70 -169 70s-124 -23 -168 -69v-173h337z" />
    <glyph glyph-name="eth" unicode="&#xf0;" horiz-adv-x="549" 
d="M499 246c0 -154 -66 -261 -223 -261c-162 0 -226 110 -226 260c0 167 78 261 204 261c54 0 103 -12 150 -50c-23 61 -75 129 -130 188l-100 -65l-19 28l95 62c-29 29 -59 54 -84 73h54c23 -15 45 -31 66 -49l76 49l20 -27l-69 -45c112 -104 186 -245 186 -424zM443 246
c0 121 -44 211 -170 211c-138 0 -167 -102 -167 -212c0 -112 42 -211 170 -211c131 0 167 107 167 212z" />
    <glyph glyph-name="exclam" unicode="!" horiz-adv-x="228" 
d="M145 727l-6 -536h-47l-8 536h61zM160 35c0 -32 -11 -42 -46 -42c-37 0 -46 14 -46 42c0 31 10 43 46 43c37 0 46 -12 46 -43z" />
    <glyph glyph-name="exclamdown" unicode="&#xa1;" horiz-adv-x="228" 
d="M160 479c0 -31 -10 -43 -46 -43c-37 0 -46 12 -46 43c0 32 11 42 46 42c37 0 46 -14 46 -42zM144 -193h-61l6 536h47z" />
    <glyph glyph-name="f" unicode="f" horiz-adv-x="279" 
d="M339 724l-20 -48c-23 10 -52 17 -82 17c-78 0 -88 -48 -88 -127v-60h130v-47h-130v-459h-54v459h-81v47h81v60c0 142 52 176 151 176c36 0 73 -9 93 -18z" />
    <glyph glyph-name="f_f_l.alt" horiz-adv-x="786" 
d="M356 724l-20 -48c-23 10 -52 17 -82 17c-78 0 -88 -48 -88 -127v-60h220v60c0 142 52 176 151 176c47 0 86 -13 121 -26l46 34v-750h-54v663c-24 11 -73 30 -122 30c-78 0 -88 -48 -88 -127v-60h130v-47h-130v-459h-54v459h-220v-459h-54v459h-81v47h81v60
c0 142 52 176 151 176c36 0 73 -9 93 -18z" />
    <glyph glyph-name="f_l.alt" horiz-adv-x="495" 
d="M413 0h-54v663c-24 11 -73 30 -122 30c-78 0 -88 -48 -88 -127v-60h130v-47h-130v-459h-54v459h-81v47h81v60c0 142 52 176 151 176c47 0 86 -13 121 -26l46 34v-750z" />
    <glyph glyph-name="five" unicode="5" horiz-adv-x="532" 
d="M482 74c0 -146 -92 -240 -258 -240c-113 0 -186 56 -215 99l54 31c27 -45 84 -78 161 -78c135 0 200 79 200 193c0 124 -87 159 -192 159c-51 0 -110 -17 -156 -48h-21l49 380h344v-52h-300l-34 -263c42 24 96 33 141 33c131 0 227 -60 227 -214z" />
    <glyph glyph-name="five.denominator" unicode="&#xe10f;" horiz-adv-x="394" 
d="M365 -16c0 -90 -67 -148 -189 -148c-81 0 -139 37 -162 68l47 23c20 -27 60 -46 115 -46c95 0 140 37 140 106c0 67 -60 86 -134 86c-37 0 -79 -10 -112 -29h-19l37 241h252v-45h-216l-22 -141c31 13 67 17 97 17c96 0 166 -37 166 -132z" />
    <glyph glyph-name="five.fitted" unicode="&#xe09b;" horiz-adv-x="533" 
d="M493 225c0 -146 -92 -240 -258 -240c-113 0 -186 56 -215 99l54 31c27 -45 84 -78 161 -78c135 0 200 79 200 193c0 124 -87 159 -192 159c-51 0 -110 -17 -156 -48h-21l49 386h344v-52h-300l-34 -269c42 24 96 33 141 33c131 0 227 -60 227 -214z" />
    <glyph glyph-name="five.inferior" unicode="&#x2085;" horiz-adv-x="394" 
d="M365 22c0 -90 -67 -148 -189 -148c-81 0 -139 37 -162 68l47 23c20 -27 60 -46 115 -46c95 0 140 37 140 106c0 67 -60 86 -134 86c-37 0 -79 -10 -112 -29h-19l37 241h252v-45h-216l-22 -141c31 13 67 17 97 17c96 0 166 -37 166 -132z" />
    <glyph glyph-name="five.numerator" unicode="&#xe123;" horiz-adv-x="394" 
d="M365 432c0 -90 -67 -148 -189 -148c-81 0 -139 37 -162 68l47 23c20 -27 60 -46 115 -46c95 0 140 37 140 106c0 67 -60 86 -134 86c-37 0 -79 -10 -112 -29h-19l37 241h252v-45h-216l-22 -141c31 13 67 17 97 17c96 0 166 -37 166 -132z" />
    <glyph glyph-name="five.superior" unicode="&#x2075;" horiz-adv-x="394" 
d="M365 432c0 -90 -67 -148 -189 -148c-81 0 -139 37 -162 68l47 23c20 -27 60 -46 115 -46c95 0 140 37 140 106c0 67 -60 86 -134 86c-37 0 -79 -10 -112 -29h-19l37 241h252v-45h-216l-22 -141c31 13 67 17 97 17c96 0 166 -37 166 -132z" />
    <glyph glyph-name="five.tab" horiz-adv-x="585" 
d="M512 225c0 -146 -92 -240 -258 -240c-113 0 -186 56 -215 99l54 31c27 -45 84 -78 161 -78c135 0 200 79 200 193c0 124 -87 159 -192 159c-51 0 -110 -17 -156 -48h-21l49 386h344v-52h-300l-34 -269c42 24 96 33 141 33c131 0 227 -60 227 -214z" />
    <glyph glyph-name="five.taboldstyle" unicode="&#xe105;" horiz-adv-x="585" 
d="M517 74c0 -146 -92 -240 -258 -240c-113 0 -186 56 -215 99l54 31c27 -45 84 -78 161 -78c135 0 200 79 200 193c0 124 -87 159 -192 159c-51 0 -110 -17 -156 -48h-21l49 380h344v-52h-300l-34 -263c42 24 96 33 141 33c131 0 227 -60 227 -214z" />
    <glyph glyph-name="fiveeighths" unicode="&#x215d;" horiz-adv-x="1017" 
d="M942 -39c0 -82 -67 -124 -175 -124c-117 0 -177 45 -177 124c0 56 39 96 107 119c-43 16 -93 43 -93 104c0 72 54 111 163 111c106 0 162 -39 162 -104c0 -64 -47 -93 -95 -111c59 -22 108 -52 108 -119zM882 182c0 50 -44 70 -115 70c-76 0 -116 -25 -116 -68
c0 -30 14 -48 115 -84c68 20 116 39 116 82zM894 -40c0 56 -67 78 -127 99c-59 -18 -128 -42 -128 -100c0 -50 44 -78 128 -78c86 0 127 31 127 79zM731 727l-391 -878h-51l391 878h51zM393 432c0 -90 -67 -148 -189 -148c-81 0 -139 37 -162 68l47 23
c20 -27 60 -46 115 -46c95 0 140 37 140 106c0 67 -60 86 -134 86c-37 0 -79 -10 -112 -29h-19l37 241h252v-45h-216l-22 -141c31 13 67 17 97 17c96 0 166 -37 166 -132z" />
    <glyph glyph-name="florin" unicode="&#x192;" horiz-adv-x="454" 
d="M453 721l-16 -50c-27 11 -44 18 -70 18c-29 0 -42 -23 -60 -101l-19 -82h92l-10 -52h-94l-108 -516c-24 -116 -74 -133 -117 -133c-31 0 -56 9 -83 21l15 49c26 -11 50 -17 71 -17c27 0 44 13 68 128l99 468h-76l12 52h75l27 111c26 105 59 125 110 125
c29 0 66 -13 84 -21z" />
    <glyph glyph-name="four" unicode="4" horiz-adv-x="529" 
d="M493 27h-86v-193h-56v193h-339v50l338 514h57v-514h86v-50zM351 77v427l-281 -427h281z" />
    <glyph glyph-name="four.denominator" unicode="&#xe10e;" horiz-adv-x="399" 
d="M376 -42h-69v-124h-45v124h-234v31l251 306h28v-295h69v-42zM262 0v206l-170 -206h170z" />
    <glyph glyph-name="four.fitted" unicode="&#xe09a;" horiz-adv-x="546" 
d="M511 178h-86v-193h-56v193h-339v50l338 514h57v-514h86v-50zM369 228v427l-281 -427h281z" />
    <glyph glyph-name="four.inferior" unicode="&#x2084;" horiz-adv-x="399" 
d="M376 -5h-69v-124h-45v124h-234v31l251 306h28v-295h69v-42zM262 37v206l-170 -206h170z" />
    <glyph glyph-name="four.numerator" unicode="&#xe122;" horiz-adv-x="399" 
d="M374 405h-69v-124h-45v124h-234v31l251 306h28v-295h69v-42zM260 447v206l-170 -206h170z" />
    <glyph glyph-name="four.superior" unicode="&#x2074;" horiz-adv-x="399" 
d="M374 405h-69v-124h-45v124h-234v31l251 306h28v-295h69v-42zM260 447v206l-170 -206h170z" />
    <glyph glyph-name="four.tab" horiz-adv-x="585" 
d="M493 178h-86v-193h-56v193h-339v50l338 514h57v-514h86v-50zM351 228v427l-281 -427h281z" />
    <glyph glyph-name="four.taboldstyle" unicode="&#xe104;" horiz-adv-x="585" 
d="M523 27h-86v-193h-56v193h-339v50l338 514h57v-514h86v-50zM381 77v427l-281 -427h281z" />
    <glyph glyph-name="fraction" unicode="&#x2044;" horiz-adv-x="100" 
d="M271 727l-391 -878h-51l391 878h51z" />
    <glyph glyph-name="fraction.tab" horiz-adv-x="249" 
d="M357 727l-450 -727h-51l450 727h51z" />
    <glyph glyph-name="g" unicode="g" horiz-adv-x="560" 
d="M545 459h-73v-456c0 -129 -59 -196 -223 -196c-66 0 -134 28 -153 41l24 49c29 -20 86 -41 134 -41c109 0 164 39 164 146v69c-42 -38 -96 -71 -168 -71c-138 0 -200 103 -200 258c0 118 53 263 206 263c69 0 121 -29 165 -61v46h124v-47zM418 129v277
c-53 40 -106 64 -159 64c-115 0 -153 -112 -153 -210c0 -112 34 -210 143 -210c54 0 116 32 169 79z" />
    <glyph glyph-name="g.alt" horiz-adv-x="554" 
d="M472 506v-503c0 -129 -59 -196 -223 -196c-66 0 -134 28 -153 41l24 49c29 -20 86 -41 134 -41c109 0 164 39 164 146v69c-42 -38 -96 -71 -168 -71c-138 0 -200 103 -200 258c0 118 53 263 206 263c69 0 121 -29 165 -61v46h51zM418 129v277c-53 40 -106 64 -159 64
c-115 0 -153 -112 -153 -210c0 -112 34 -210 143 -210c54 0 116 32 169 79z" />
    <glyph glyph-name="g.alt2" horiz-adv-x="517" 
d="M502 -56c0 -114 -136 -137 -231 -137c-119 0 -241 17 -241 119c0 51 44 95 102 118c-61 21 -71 49 -71 76c0 31 19 58 59 86c-43 41 -58 86 -58 137c0 99 57 178 195 178c39 0 92 -11 132 -43c32 29 63 43 112 43v-49c-27 0 -60 -5 -88 -19c25 -33 35 -69 35 -110
c0 -111 -70 -177 -194 -177c-41 0 -74 9 -98 21c-27 -18 -46 -39 -46 -61c0 -34 34 -46 164 -56c123 -9 228 -17 228 -126zM394 343c0 82 -49 132 -136 132c-95 0 -142 -49 -142 -131c0 -80 43 -132 142 -132c95 0 136 52 136 131zM447 -57c0 66 -64 73 -263 83l-10 -4
c-34 -14 -89 -44 -89 -91c0 -58 67 -76 190 -76c92 0 172 21 172 88z" />
    <glyph glyph-name="gbreve" unicode="&#x11f;" horiz-adv-x="560" 
d="M545 459h-73v-456c0 -129 -59 -196 -223 -196c-66 0 -134 28 -153 41l24 49c29 -20 86 -41 134 -41c109 0 164 39 164 146v69c-42 -38 -96 -71 -168 -71c-138 0 -200 103 -200 258c0 118 53 263 206 263c69 0 121 -29 165 -61v46h124v-47zM418 129v277
c-53 40 -106 64 -159 64c-115 0 -153 -112 -153 -210c0 -112 34 -210 143 -210c54 0 116 32 169 79zM403 747c-18 -65 -56 -138 -147 -138c-89 0 -129 89 -141 138h41c22 -48 47 -76 102 -76c53 0 80 24 103 76h42z" />
    <glyph glyph-name="gbreve.alt" horiz-adv-x="554" 
d="M472 506v-503c0 -129 -59 -196 -223 -196c-66 0 -134 28 -153 41l24 49c29 -20 86 -41 134 -41c109 0 164 39 164 146v69c-42 -38 -96 -71 -168 -71c-138 0 -200 103 -200 258c0 118 53 263 206 263c69 0 121 -29 165 -61v46h51zM418 129v277c-53 40 -106 64 -159 64
c-115 0 -153 -112 -153 -210c0 -112 34 -210 143 -210c54 0 116 32 169 79zM403 747c-18 -65 -56 -138 -147 -138c-89 0 -129 89 -141 138h41c22 -48 47 -76 102 -76c53 0 80 24 103 76h42z" />
    <glyph glyph-name="gbreve.alt2" horiz-adv-x="517" 
d="M502 -56c0 -114 -136 -137 -231 -137c-119 0 -241 17 -241 119c0 51 44 95 102 118c-61 21 -71 49 -71 76c0 31 19 58 59 86c-43 41 -58 86 -58 137c0 99 57 178 195 178c39 0 92 -11 132 -43c32 29 63 43 112 43v-49c-27 0 -60 -5 -88 -19c25 -33 35 -69 35 -110
c0 -111 -70 -177 -194 -177c-41 0 -74 9 -98 21c-27 -18 -46 -39 -46 -61c0 -34 34 -46 164 -56c123 -9 228 -17 228 -126zM394 343c0 82 -49 132 -136 132c-95 0 -142 -49 -142 -131c0 -80 43 -132 142 -132c95 0 136 52 136 131zM447 -57c0 66 -64 73 -263 83l-10 -4
c-34 -14 -89 -44 -89 -91c0 -58 67 -76 190 -76c92 0 172 21 172 88zM399 747c-18 -65 -56 -138 -147 -138c-89 0 -129 89 -141 138h41c22 -48 47 -76 102 -76c53 0 80 24 103 76h42z" />
    <glyph glyph-name="gcircumflex" unicode="&#x11d;" horiz-adv-x="560" 
d="M545 459h-73v-456c0 -129 -59 -196 -223 -196c-66 0 -134 28 -153 41l24 49c29 -20 86 -41 134 -41c109 0 164 39 164 146v69c-42 -38 -96 -71 -168 -71c-138 0 -200 103 -200 258c0 118 53 263 206 263c69 0 121 -29 165 -61v46h124v-47zM418 129v277
c-53 40 -106 64 -159 64c-115 0 -153 -112 -153 -210c0 -112 34 -210 143 -210c54 0 116 32 169 79zM411 590h-47l-102 129l-99 -129h-46l111 176h75z" />
    <glyph glyph-name="gcircumflex.alt" horiz-adv-x="554" 
d="M472 506v-503c0 -129 -59 -196 -223 -196c-66 0 -134 28 -153 41l24 49c29 -20 86 -41 134 -41c109 0 164 39 164 146v69c-42 -38 -96 -71 -168 -71c-138 0 -200 103 -200 258c0 118 53 263 206 263c69 0 121 -29 165 -61v46h51zM418 129v277c-53 40 -106 64 -159 64
c-115 0 -153 -112 -153 -210c0 -112 34 -210 143 -210c54 0 116 32 169 79zM411 590h-47l-102 129l-99 -129h-46l111 176h75z" />
    <glyph glyph-name="gcircumflex.alt2" horiz-adv-x="517" 
d="M502 -56c0 -114 -136 -137 -231 -137c-119 0 -241 17 -241 119c0 51 44 95 102 118c-61 21 -71 49 -71 76c0 31 19 58 59 86c-43 41 -58 86 -58 137c0 99 57 178 195 178c39 0 92 -11 132 -43c32 29 63 43 112 43v-49c-27 0 -60 -5 -88 -19c25 -33 35 -69 35 -110
c0 -111 -70 -177 -194 -177c-41 0 -74 9 -98 21c-27 -18 -46 -39 -46 -61c0 -34 34 -46 164 -56c123 -9 228 -17 228 -126zM394 343c0 82 -49 132 -136 132c-95 0 -142 -49 -142 -131c0 -80 43 -132 142 -132c95 0 136 52 136 131zM447 -57c0 66 -64 73 -263 83l-10 -4
c-34 -14 -89 -44 -89 -91c0 -58 67 -76 190 -76c92 0 172 21 172 88zM397 590h-47l-102 129l-99 -129h-46l111 176h75z" />
    <glyph glyph-name="gcommaaccent" unicode="&#x123;" horiz-adv-x="560" 
d="M545 459h-73v-456c0 -129 -59 -196 -223 -196c-66 0 -134 28 -153 41l24 49c29 -20 86 -41 134 -41c109 0 164 39 164 146v69c-42 -38 -96 -71 -168 -71c-138 0 -200 103 -200 258c0 118 53 263 206 263c69 0 121 -29 165 -61v46h124v-47zM418 129v277
c-53 40 -106 64 -159 64c-115 0 -153 -112 -153 -210c0 -112 34 -210 143 -210c54 0 116 32 169 79zM211 655c0 23 2 59 31 111h40c-12 -21 -22 -46 -22 -80c21 0 43 -7 43 -45c0 -28 -17 -40 -44 -40c-35 0 -48 17 -48 54z" />
    <glyph glyph-name="gcommaaccent.alt" horiz-adv-x="554" 
d="M472 506v-503c0 -129 -59 -196 -223 -196c-66 0 -134 28 -153 41l24 49c29 -20 86 -41 134 -41c109 0 164 39 164 146v69c-42 -38 -96 -71 -168 -71c-138 0 -200 103 -200 258c0 118 53 263 206 263c69 0 121 -29 165 -61v46h51zM418 129v277c-53 40 -106 64 -159 64
c-115 0 -153 -112 -153 -210c0 -112 34 -210 143 -210c54 0 116 32 169 79zM211 655c0 23 2 59 31 111h40c-12 -21 -22 -46 -22 -80c21 0 43 -7 43 -45c0 -28 -17 -40 -44 -40c-35 0 -48 17 -48 54z" />
    <glyph glyph-name="gcommaaccent.alt2" horiz-adv-x="517" 
d="M502 -56c0 -114 -136 -137 -231 -137c-119 0 -241 17 -241 119c0 51 44 95 102 118c-61 21 -71 49 -71 76c0 31 19 58 59 86c-43 41 -58 86 -58 137c0 99 57 178 195 178c39 0 92 -11 132 -43c32 29 63 43 112 43v-49c-27 0 -60 -5 -88 -19c25 -33 35 -69 35 -110
c0 -111 -70 -177 -194 -177c-41 0 -74 9 -98 21c-27 -18 -46 -39 -46 -61c0 -34 34 -46 164 -56c123 -9 228 -17 228 -126zM394 343c0 82 -49 132 -136 132c-95 0 -142 -49 -142 -131c0 -80 43 -132 142 -132c95 0 136 52 136 131zM447 -57c0 66 -64 73 -263 83l-10 -4
c-34 -14 -89 -44 -89 -91c0 -58 67 -76 190 -76c92 0 172 21 172 88zM211 655c0 23 2 59 31 111h40c-12 -21 -22 -46 -22 -80c21 0 43 -7 43 -45c0 -28 -17 -40 -44 -40c-35 0 -48 17 -48 54z" />
    <glyph glyph-name="gdotaccent" unicode="&#x121;" horiz-adv-x="560" 
d="M545 459h-73v-456c0 -129 -59 -196 -223 -196c-66 0 -134 28 -153 41l24 49c29 -20 86 -41 134 -41c109 0 164 39 164 146v69c-42 -38 -96 -71 -168 -71c-138 0 -200 103 -200 258c0 118 53 263 206 263c69 0 121 -29 165 -61v46h124v-47zM418 129v277
c-53 40 -106 64 -159 64c-115 0 -153 -112 -153 -210c0 -112 34 -210 143 -210c54 0 116 32 169 79zM295 641c0 -30 -11 -40 -40 -40c-36 0 -40 18 -40 40c0 26 7 41 40 41c37 0 40 -19 40 -41z" />
    <glyph glyph-name="gdotaccent.alt" horiz-adv-x="554" 
d="M472 506v-503c0 -129 -59 -196 -223 -196c-66 0 -134 28 -153 41l24 49c29 -20 86 -41 134 -41c109 0 164 39 164 146v69c-42 -38 -96 -71 -168 -71c-138 0 -200 103 -200 258c0 118 53 263 206 263c69 0 121 -29 165 -61v46h51zM418 129v277c-53 40 -106 64 -159 64
c-115 0 -153 -112 -153 -210c0 -112 34 -210 143 -210c54 0 116 32 169 79zM295 641c0 -30 -11 -40 -40 -40c-36 0 -40 18 -40 40c0 26 7 41 40 41c37 0 40 -19 40 -41z" />
    <glyph glyph-name="gdotaccent.alt2" horiz-adv-x="517" 
d="M502 -56c0 -114 -136 -137 -231 -137c-119 0 -241 17 -241 119c0 51 44 95 102 118c-61 21 -71 49 -71 76c0 31 19 58 59 86c-43 41 -58 86 -58 137c0 99 57 178 195 178c39 0 92 -11 132 -43c32 29 63 43 112 43v-49c-27 0 -60 -5 -88 -19c25 -33 35 -69 35 -110
c0 -111 -70 -177 -194 -177c-41 0 -74 9 -98 21c-27 -18 -46 -39 -46 -61c0 -34 34 -46 164 -56c123 -9 228 -17 228 -126zM394 343c0 82 -49 132 -136 132c-95 0 -142 -49 -142 -131c0 -80 43 -132 142 -132c95 0 136 52 136 131zM447 -57c0 66 -64 73 -263 83l-10 -4
c-34 -14 -89 -44 -89 -91c0 -58 67 -76 190 -76c92 0 172 21 172 88zM293 641c0 -30 -11 -40 -40 -40c-36 0 -40 18 -40 40c0 26 7 41 40 41c37 0 40 -19 40 -41z" />
    <glyph glyph-name="germandbls" unicode="&#xdf;" horiz-adv-x="558" 
d="M508 220c0 -144 -58 -235 -212 -235c-29 0 -71 6 -103 15v56c31 -12 73 -22 110 -22c106 0 149 72 149 190c0 150 -113 167 -243 167v55c104 0 195 20 195 135c0 81 -49 112 -131 112c-113 0 -141 -81 -141 -180v-513h-54v509c0 136 46 233 197 233
c107 0 184 -48 184 -152c0 -115 -65 -158 -149 -164c131 -8 198 -83 198 -206z" />
    <glyph glyph-name="grave" unicode="`" horiz-adv-x="500" 
d="M297 590h-45l-148 176h79z" />
    <glyph glyph-name="greater" unicode="&#x3e;" 
d="M584 271l-513 -225v47l446 192l-446 193v47l513 -225v-29z" />
    <glyph glyph-name="greaterequal" unicode="&#x2265;" 
d="M585 0h-513v41h513v-41zM585 280l-513 -194v47l446 161l-446 162v47l513 -194v-29z" />
    <glyph glyph-name="guillemotleft" unicode="&#xab;" horiz-adv-x="508" 
d="M485 26h-63l-202 228l202 227h63l-203 -227zM286 26h-63l-202 228l202 227h63l-203 -227z" />
    <glyph glyph-name="guillemotright" unicode="&#xbb;" horiz-adv-x="508" 
d="M487 254l-202 -228h-63l203 228l-203 227h63zM288 254l-202 -228h-63l203 228l-203 227h63z" />
    <glyph glyph-name="guilsinglleft" unicode="&#x2039;" horiz-adv-x="309" 
d="M286 26h-63l-202 228l202 227h63l-203 -227z" />
    <glyph glyph-name="guilsinglright" unicode="&#x203a;" horiz-adv-x="309" 
d="M288 254l-202 -228h-63l203 228l-203 227h63z" />
    <glyph glyph-name="h" unicode="h" horiz-adv-x="564" 
d="M486 0h-54v304c0 99 -23 165 -111 165c-52 0 -124 -44 -185 -104v-365h-54v727h54v-309c67 67 130 103 196 103c107 0 154 -75 154 -190v-331z" />
    <glyph glyph-name="h.superior" unicode="&#xf700;" horiz-adv-x="450" 
d="M388 284h-45v231c0 72 -18 120 -87 120c-41 0 -98 -32 -146 -76v-275h-45v550h45v-230c53 50 103 76 155 76c85 0 123 -57 123 -145v-251z" />
    <glyph glyph-name="hbar" unicode="&#x127;" horiz-adv-x="564" 
d="M486 0h-54v304c0 99 -23 165 -111 165c-52 0 -124 -44 -185 -104v-365h-54v595h-60v49h60v83h54v-83h210v-49h-210v-177c67 67 130 103 196 103c107 0 154 -75 154 -190v-331z" />
    <glyph glyph-name="hcircumflex" unicode="&#x125;" horiz-adv-x="564" 
d="M486 0h-54v304c0 99 -23 165 -111 165c-52 0 -124 -44 -185 -104v-365h-54v727h54v-309c67 67 130 103 196 103c107 0 154 -75 154 -190v-331zM375 780h-47l-102 129l-99 -129h-46l111 176h75z" />
    <glyph glyph-name="hungarumlaut" unicode="&#x2dd;" horiz-adv-x="500" 
d="M427 766l-148 -176h-45l114 176h79zM257 766l-148 -176h-45l114 176h79z" />
    <glyph glyph-name="hyphen" unicode="-" horiz-adv-x="368" 
d="M332 225h-296v58h296v-58z" />
    <glyph glyph-name="i" unicode="i" horiz-adv-x="276" 
d="M198 641c0 -30 -11 -40 -40 -40c-36 0 -40 19 -40 40c0 26 7 41 40 41c37 0 40 -19 40 -41zM190 0h-54v459h-104v47h158v-506z" />
    <glyph glyph-name="i.alt" horiz-adv-x="218" 
d="M149 641c0 -30 -11 -40 -40 -40c-36 0 -40 19 -40 40c0 26 7 41 40 41c37 0 40 -19 40 -41zM136 0h-54v506h54v-506z" />
    <glyph glyph-name="i.dot" horiz-adv-x="276" 
d="M198 641c0 -30 -11 -40 -40 -40c-36 0 -40 19 -40 40c0 26 7 41 40 41c37 0 40 -19 40 -41zM190 0h-54v459h-104v47h158v-506z" />
    <glyph glyph-name="i.superior" unicode="&#x2071;" horiz-adv-x="221" 
d="M159 778c0 -25 -9 -33 -33 -33c-29 0 -33 16 -33 33c0 21 6 34 33 34c31 0 33 -16 33 -34zM153 295h-45v344h-83v41h128v-385z" />
    <glyph glyph-name="iacute" unicode="&#xed;" horiz-adv-x="276" 
d="M272 766l-148 -176h-45l114 176h79zM190 0h-54v459h-104v47h158v-506z" />
    <glyph glyph-name="iacute.alt" horiz-adv-x="218" 
d="M269 766l-148 -176h-45l114 176h79zM136 0h-54v506h54v-506z" />
    <glyph glyph-name="ibreve" unicode="&#x12d;" horiz-adv-x="276" 
d="M190 0h-54v459h-104v47h158v-506zM282 747c-18 -65 -56 -138 -147 -138c-89 0 -129 89 -141 138h41c22 -48 47 -76 102 -76c53 0 80 24 103 76h42z" />
    <glyph glyph-name="ibreve.alt" horiz-adv-x="218" 
d="M136 0h-54v506h54v-506zM254 747c-18 -65 -56 -138 -147 -138c-89 0 -129 89 -141 138h41c22 -48 47 -76 102 -76c53 0 80 24 103 76h42z" />
    <glyph glyph-name="icircumflex" unicode="&#xee;" horiz-adv-x="276" 
d="M287 590h-47l-102 129l-99 -129h-46l111 176h75zM190 0h-54v459h-104v47h158v-506z" />
    <glyph glyph-name="icircumflex.alt" horiz-adv-x="218" 
d="M136 0h-54v506h54v-506zM256 590h-47l-102 129l-99 -129h-46l111 176h75z" />
    <glyph glyph-name="idieresis" unicode="&#xef;" horiz-adv-x="276" 
d="M262 641c0 -30 -11 -40 -40 -40c-36 0 -40 19 -40 40c0 26 7 41 40 41c37 0 40 -19 40 -41zM90 641c0 -30 -11 -40 -40 -40c-36 0 -40 19 -40 40c0 26 7 41 40 41c37 0 40 -19 40 -41zM190 0h-54v459h-104v47h158v-506z" />
    <glyph glyph-name="idieresis.alt" horiz-adv-x="218" 
d="M136 0h-54v506h54v-506zM236 641c0 -30 -11 -40 -40 -40c-36 0 -40 19 -40 40c0 26 7 41 40 41c37 0 40 -19 40 -41zM64 641c0 -30 -11 -40 -40 -40c-36 0 -40 19 -40 40c0 26 7 41 40 41c37 0 40 -19 40 -41z" />
    <glyph glyph-name="igrave" unicode="&#xec;" horiz-adv-x="276" 
d="M191 590h-45l-148 176h79zM190 0h-54v459h-104v47h158v-506z" />
    <glyph glyph-name="igrave.alt" horiz-adv-x="218" 
d="M136 0h-54v506h54v-506zM135 590h-45l-148 176h79z" />
    <glyph glyph-name="ij" unicode="&#x133;" horiz-adv-x="552" 
d="M198 641c0 -30 -11 -40 -40 -40c-36 0 -40 19 -40 40c0 26 7 41 40 41c37 0 40 -19 40 -41zM190 0h-54v459h-104v47h158v-506zM474 641c0 -30 -11 -40 -40 -40c-36 0 -40 19 -40 40c0 26 7 41 40 41c37 0 40 -19 40 -41zM466 -36c0 -105 -36 -157 -150 -157
c-23 0 -59 5 -80 13l15 50c23 -9 48 -15 76 -15c68 0 85 40 85 127v477h-104v47h158v-542z" />
    <glyph glyph-name="ij.alt" horiz-adv-x="435" 
d="M149 641c0 -30 -11 -40 -40 -40c-36 0 -40 19 -40 40c0 26 7 41 40 41c37 0 40 -19 40 -41zM136 0h-54v506h54v-506zM362 641c0 -30 -11 -40 -40 -40c-36 0 -40 19 -40 40c0 26 7 41 40 41c37 0 40 -19 40 -41zM349 -36c0 -105 -36 -157 -150 -157c-23 0 -59 5 -80 13
l15 50c23 -9 48 -15 76 -15c68 0 85 40 85 127v524h54v-542z" />
    <glyph glyph-name="imacron" unicode="&#x12b;" horiz-adv-x="276" 
d="M190 0h-54v459h-104v47h158v-506zM282 607h-288v57h288v-57z" />
    <glyph glyph-name="imacron.alt" horiz-adv-x="218" 
d="M136 0h-54v506h54v-506zM253 607h-288v57h288v-57z" />
    <glyph glyph-name="infinity" unicode="&#x221e;" horiz-adv-x="821" 
d="M765 294c0 -86 -58 -163 -162 -163c-85 0 -152 55 -193 120h-2c-46 -69 -113 -120 -189 -120c-105 0 -165 70 -165 159c0 93 60 163 162 163c90 0 152 -58 193 -119h2c35 53 100 119 188 119c97 0 166 -62 166 -159zM712 293c0 61 -34 113 -112 113
c-71 0 -122 -49 -165 -114c43 -72 103 -114 164 -114c80 0 113 55 113 115zM384 292c-41 69 -106 114 -165 114c-78 0 -111 -54 -111 -116c0 -66 47 -112 110 -112c68 0 125 52 166 114z" />
    <glyph glyph-name="integral" unicode="&#x222b;" horiz-adv-x="509" 
d="M438 736l-14 -47c-10 5 -30 11 -49 11c-63 0 -93 -41 -93 -108v-662c0 -103 -59 -158 -146 -158c-22 0 -54 5 -68 12c5 15 9 31 13 46c13 -5 30 -9 51 -9c62 0 92 38 92 107v664c0 97 55 156 147 156c25 0 55 -6 67 -12z" />
    <glyph glyph-name="iogonek" unicode="&#x12f;" horiz-adv-x="276" 
d="M190 0h-6c-7 -22 -13 -47 -13 -74c0 -50 21 -71 67 -71c29 0 57 7 79 17l18 -33c-23 -15 -64 -32 -110 -32c-72 0 -105 46 -105 105c0 33 8 65 16 88v459h-104v47h158v-506zM198 641c0 -30 -11 -40 -40 -40c-36 0 -40 19 -40 40c0 26 7 41 40 41c37 0 40 -19 40 -41z" />
    <glyph glyph-name="iogonek.alt" horiz-adv-x="218" 
d="M136 0h-4c-7 -22 -13 -47 -13 -74c0 -50 21 -71 67 -71c29 0 57 7 79 17l18 -33c-23 -15 -64 -32 -110 -32c-72 0 -105 46 -105 105c0 33 8 65 14 88v506h54v-506zM149 641c0 -30 -11 -40 -40 -40c-36 0 -40 19 -40 40c0 26 7 41 40 41c37 0 40 -19 40 -41z" />
    <glyph glyph-name="itilde" unicode="&#x129;" horiz-adv-x="276" 
d="M190 0h-54v459h-104v47h158v-506zM316 745c0 -66 -33 -134 -105 -134c-33 0 -62 14 -88 41c-20 21 -41 46 -63 46c-45 0 -54 -54 -56 -87h-43c0 64 32 134 106 134c33 0 61 -13 88 -42c15 -16 37 -45 64 -45c43 0 53 56 54 87h43z" />
    <glyph glyph-name="itilde.alt" horiz-adv-x="218" 
d="M284 745c0 -66 -33 -134 -105 -134c-33 0 -62 14 -88 41c-20 21 -41 46 -63 46c-45 0 -54 -54 -56 -87h-43c0 64 32 134 106 134c33 0 61 -13 88 -42c15 -16 37 -45 64 -45c43 0 53 56 54 87h43zM136 0h-54v506h54v-506z" />
    <glyph glyph-name="j" unicode="j" horiz-adv-x="276" 
d="M198 641c0 -30 -11 -40 -40 -40c-36 0 -40 19 -40 40c0 26 7 41 40 41c37 0 40 -19 40 -41zM190 -36c0 -105 -36 -157 -150 -157c-23 0 -59 5 -80 13l15 50c23 -9 48 -15 76 -15c68 0 85 40 85 127v477h-104v47h158v-542z" />
    <glyph glyph-name="j.alt" horiz-adv-x="236" 
d="M163 641c0 -30 -11 -40 -40 -40c-36 0 -40 19 -40 40c0 26 7 41 40 41c37 0 40 -19 40 -41zM150 -36c0 -105 -36 -157 -150 -157c-23 0 -59 5 -80 13l15 50c23 -9 48 -15 76 -15c68 0 85 40 85 127v524h54v-542z" />
    <glyph glyph-name="jcircumflex" unicode="&#x135;" horiz-adv-x="276" 
d="M190 -36c0 -105 -36 -157 -150 -157c-23 0 -59 5 -80 13l15 50c23 -9 48 -15 76 -15c68 0 85 40 85 127v477h-104v47h158v-542zM260 590h-47l-102 129l-99 -129h-46l111 176h75z" />
    <glyph glyph-name="jcircumflex.alt" horiz-adv-x="236" 
d="M150 -36c0 -105 -36 -157 -150 -157c-23 0 -59 5 -80 13l15 50c23 -9 48 -15 76 -15c68 0 85 40 85 127v524h54v-542zM270 590h-47l-102 129l-99 -129h-46l111 176h75z" />
    <glyph glyph-name="k" unicode="k" horiz-adv-x="491" 
d="M481 0h-69l-183 261l-93 -94v-167h-54v727h54v-491l264 270h74l-208 -209z" />
    <glyph glyph-name="kcommaaccent" unicode="&#x137;" horiz-adv-x="491" 
d="M481 0h-69l-183 261l-93 -94v-167h-54v727h54v-491l264 270h74l-208 -209zM291 -82c0 -23 -2 -59 -31 -111h-40c12 21 22 46 22 80c-21 0 -43 7 -43 45c0 28 17 40 44 40c35 0 48 -17 48 -54z" />
    <glyph glyph-name="kgreenlandic" unicode="&#x138;" horiz-adv-x="491" 
d="M481 0h-69l-183 261l-93 -94v-167h-54v507h54v-271l264 270h74l-208 -209z" />
    <glyph glyph-name="l" unicode="l" horiz-adv-x="265" 
d="M263 -7c-12 -3 -42 -8 -69 -8c-85 0 -112 50 -112 142v583l54 40v-614c0 -72 13 -106 65 -106c16 0 36 2 50 7z" />
    <glyph glyph-name="l.alt" horiz-adv-x="218" 
d="M136 0h-54v710l54 40v-750z" />
    <glyph glyph-name="l.superior" unicode="&#xf6ee;" horiz-adv-x="213" 
d="M201 329l10 -36c-11 -4 -35 -9 -56 -9c-68 0 -90 38 -90 109v439l45 31v-463c0 -52 10 -77 51 -77c12 0 28 2 40 6z" />
    <glyph glyph-name="lacute" unicode="&#x13a;" horiz-adv-x="265" 
d="M263 -7c-12 -3 -42 -8 -69 -8c-85 0 -112 50 -112 142v583l54 40v-614c0 -72 13 -106 65 -106c16 0 36 2 50 7zM280 956l-148 -176h-45l114 176h79z" />
    <glyph glyph-name="lacute.alt" horiz-adv-x="218" 
d="M136 0h-54v710l54 40v-750zM280 956l-148 -176h-45l114 176h79z" />
    <glyph glyph-name="lcaron" unicode="&#x13e;" horiz-adv-x="265" 
d="M263 -7c-12 -3 -42 -8 -69 -8c-85 0 -112 50 -112 142v583l54 40v-614c0 -72 13 -106 65 -106c16 0 36 2 50 7zM270 673c0 -68 -20 -129 -50 -173h-40c22 35 42 89 42 126c0 9 0 12 -1 16c-25 0 -43 7 -43 45c0 28 14 40 44 40c36 0 48 -17 48 -54z" />
    <glyph glyph-name="lcaron.alt" horiz-adv-x="218" 
d="M136 0h-54v710l54 40v-750zM257 673c0 -68 -20 -129 -50 -173h-40c22 35 42 89 42 126c0 9 0 12 -1 16c-25 0 -43 7 -43 45c0 28 14 40 44 40c36 0 48 -17 48 -54z" />
    <glyph glyph-name="lcommaaccent" unicode="&#x13c;" horiz-adv-x="265" 
d="M263 -7c-12 -3 -42 -8 -69 -8c-85 0 -112 50 -112 142v583l54 40v-614c0 -72 13 -106 65 -106c16 0 36 2 50 7zM232 -82c0 -23 -2 -59 -31 -111h-40c12 21 22 46 22 80c-21 0 -43 7 -43 45c0 28 17 40 44 40c35 0 48 -17 48 -54z" />
    <glyph glyph-name="lcommaaccent.alt" horiz-adv-x="218" 
d="M136 0h-54v710l54 40v-750zM158 -82c0 -23 -2 -59 -31 -111h-40c12 21 22 46 22 80c-21 0 -43 7 -43 45c0 28 17 40 44 40c35 0 48 -17 48 -54z" />
    <glyph glyph-name="ldot" unicode="&#x140;" horiz-adv-x="265" 
d="M263 -7c-12 -3 -42 -8 -69 -8c-85 0 -112 50 -112 142v583l54 40v-614c0 -72 13 -106 65 -106c16 0 36 2 50 7zM276 359c0 -30 -11 -40 -40 -40c-36 0 -40 18 -40 40c0 26 7 41 40 41c37 0 40 -19 40 -41z" />
    <glyph glyph-name="ldot.alt" horiz-adv-x="218" 
d="M136 0h-54v710l54 40v-750zM254 359c0 -30 -11 -40 -40 -40c-36 0 -40 18 -40 40c0 26 7 41 40 41c37 0 40 -19 40 -41z" />
    <glyph glyph-name="less" unicode="&#x3c;" 
d="M584 46l-513 225v29l513 225v-47l-446 -193l446 -192v-47z" />
    <glyph glyph-name="lessequal" unicode="&#x2264;" 
d="M584 86l-513 194v29l513 194v-47l-446 -162l446 -161v-47zM584 0h-513v41h513v-41z" />
    <glyph glyph-name="litre" unicode="&#x2113;" horiz-adv-x="512" 
d="M392 91l27 -33c-24 -28 -70 -70 -134 -70c-35 0 -61 11 -79 31c-23 24 -34 63 -34 112v127l-64 -69l-31 32l95 104v238c0 109 43 165 113 165s92 -60 92 -100c0 -117 -75 -223 -149 -309v-193c0 -63 28 -91 68 -91s73 31 96 56zM326 620c0 33 -12 60 -40 60
c-37 0 -58 -34 -58 -120v-170c8 9 19 25 25 34c44 67 73 137 73 196z" />
    <glyph glyph-name="logicalnot" unicode="&#xac;" 
d="M584 154h-41v222h-472v41h513v-263z" />
    <glyph glyph-name="lozenge" unicode="&#x25ca;" horiz-adv-x="587" 
d="M308 700l220 -350l-220 -350h-33c-73 116 -147 233 -219 349c72 117 146 234 219 351h33zM291 64l180 286c-59 95 -120 190 -179 285l-180 -285z" />
    <glyph glyph-name="lslash" unicode="&#x142;" horiz-adv-x="265" 
d="M263 -7c-12 -3 -42 -8 -69 -8c-85 0 -112 50 -112 142v174l-77 -71v56l77 71v353l54 40v-344l92 85v-56l-92 -85v-214c0 -72 13 -106 65 -106c16 0 36 2 50 7z" />
    <glyph glyph-name="lslash.alt" horiz-adv-x="218" 
d="M136 0h-54v304l-79 -74v56l79 74v350l54 40v-340l79 74v-56l-79 -74v-354z" />
    <glyph glyph-name="m" unicode="m" horiz-adv-x="844" 
d="M766 0h-54v303c0 85 -5 166 -95 166c-49 0 -115 -49 -167 -105l1 -29v-335h-54v303c0 83 -4 166 -95 166c-54 0 -121 -56 -166 -104v-365h-54v506h54v-88c47 58 109 103 177 103c72 0 117 -36 129 -112c60 68 112 112 186 112c95 0 138 -62 138 -185v-336z" />
    <glyph glyph-name="m.superior" unicode="&#xf6ef;" horiz-adv-x="672" 
d="M610 295h-45v230c0 62 -4 121 -74 121c-39 0 -91 -36 -131 -77v-274h-45v230c0 61 -3 121 -74 121c-43 0 -96 -41 -131 -76v-275h-45v385h45v-65c38 43 87 76 139 76c57 0 93 -26 104 -83c47 51 89 83 147 83c76 0 110 -47 110 -141v-255z" />
    <glyph glyph-name="macron" unicode="&#xaf;" horiz-adv-x="500" 
d="M394 607h-288v57h288v-57z" />
    <glyph glyph-name="minus" unicode="&#x2212;" 
d="M584 265h-513v41h513v-41z" />
    <glyph glyph-name="mu" unicode="&#xb5;" horiz-adv-x="568" 
d="M486 0h-54v65c-45 -52 -93 -80 -150 -80c-53 0 -100 5 -146 46v-224h-54v699h54v-397c44 -46 92 -66 145 -66c50 0 105 29 151 80v383h54v-506z" />
    <glyph glyph-name="multiply" unicode="&#xd7;" 
d="M555 87l-28 -30l-199 199l-198 -199l-30 30l199 198l-198 199l29 29l198 -199l199 199l28 -28l-198 -200z" />
    <glyph glyph-name="n" unicode="n" horiz-adv-x="564" 
d="M486 0h-54v304c0 99 -23 165 -111 165c-52 0 -124 -44 -185 -104v-365h-54v506h54v-88c67 67 130 103 196 103c107 0 154 -75 154 -190v-331z" />
    <glyph glyph-name="n.superior" unicode="&#x207f;" horiz-adv-x="450" 
d="M388 295h-45v231c0 72 -18 120 -87 120c-41 0 -98 -32 -146 -76v-275h-45v385h45v-65c53 50 103 76 155 76c85 0 123 -57 123 -145v-251z" />
    <glyph glyph-name="nacute" unicode="&#x144;" horiz-adv-x="564" 
d="M486 0h-54v304c0 99 -23 165 -111 165c-52 0 -124 -44 -185 -104v-365h-54v506h54v-88c67 67 130 103 196 103c107 0 154 -75 154 -190v-331zM379 766l-148 -176h-45l114 176h79z" />
    <glyph glyph-name="napostrophe" unicode="&#x149;" horiz-adv-x="582" 
d="M504 0h-54v304c0 99 -23 165 -111 165c-52 0 -124 -44 -185 -104v-365h-54v506h54v-88c67 67 130 103 196 103c107 0 154 -75 154 -190v-331zM82 708c0 -68 -20 -129 -50 -173h-40c22 35 42 89 42 126c0 9 0 12 -1 16c-25 0 -43 7 -43 45c0 28 14 40 44 40
c36 0 48 -17 48 -54z" />
    <glyph glyph-name="ncaron" unicode="&#x148;" horiz-adv-x="564" 
d="M486 0h-54v304c0 99 -23 165 -111 165c-52 0 -124 -44 -185 -104v-365h-54v506h54v-88c67 67 130 103 196 103c107 0 154 -75 154 -190v-331zM448 766l-111 -176h-75l-108 176h47l102 -129l99 129h46z" />
    <glyph glyph-name="ncommaaccent" unicode="&#x146;" horiz-adv-x="564" 
d="M486 0h-54v304c0 99 -23 165 -111 165c-52 0 -124 -44 -185 -104v-365h-54v506h54v-88c67 67 130 103 196 103c107 0 154 -75 154 -190v-331zM328 -82c0 -23 -2 -59 -31 -111h-40c12 21 22 46 22 80c-21 0 -43 7 -43 45c0 28 17 40 44 40c35 0 48 -17 48 -54z" />
    <glyph glyph-name="nine" unicode="9" horiz-adv-x="579" 
d="M530 252c0 -232 -79 -418 -279 -418c-81 0 -142 25 -192 66l38 47c41 -38 90 -61 154 -61c153 0 210 139 219 303c-49 -36 -126 -76 -214 -76c-129 0 -214 68 -214 223c0 159 90 248 237 248c174 0 251 -120 251 -332zM473 240c0 125 -18 292 -195 292
c-114 0 -178 -70 -178 -192c0 -125 61 -175 171 -175c75 0 152 41 202 75z" />
    <glyph glyph-name="nine.denominator" unicode="&#xe113;" horiz-adv-x="424" 
d="M388 90c0 -140 -57 -253 -203 -253c-58 0 -105 17 -146 45l36 36c29 -23 64 -36 110 -36c104 0 145 74 153 162c-36 -21 -90 -43 -149 -43c-95 0 -157 44 -157 139c0 98 66 155 173 155c127 0 183 -76 183 -205zM199 46c54 0 107 23 142 42c-1 70 -16 162 -137 162
c-79 0 -124 -40 -124 -107c0 -68 43 -97 119 -97z" />
    <glyph glyph-name="nine.fitted" unicode="&#xe09f;" horiz-adv-x="583" 
d="M533 405c0 -232 -79 -420 -279 -420c-81 0 -142 25 -192 66l38 47c41 -38 90 -61 154 -61c153 0 210 141 219 305c-49 -36 -126 -76 -214 -76c-129 0 -214 70 -214 225c0 159 90 251 237 251c174 0 251 -125 251 -337zM476 393c0 125 -18 297 -195 297
c-114 0 -178 -73 -178 -195c0 -125 61 -177 171 -177c75 0 152 41 202 75z" />
    <glyph glyph-name="nine.inferior" unicode="&#x2089;" horiz-adv-x="424" 
d="M388 127c0 -140 -57 -253 -203 -253c-58 0 -105 17 -146 45l36 36c29 -23 64 -36 110 -36c104 0 145 74 153 162c-36 -21 -90 -43 -149 -43c-95 0 -157 44 -157 139c0 98 66 155 173 155c127 0 183 -76 183 -205zM199 83c54 0 107 23 142 42c-1 70 -16 162 -137 162
c-79 0 -124 -40 -124 -107c0 -68 43 -97 119 -97z" />
    <glyph glyph-name="nine.numerator" unicode="&#xe127;" horiz-adv-x="424" 
d="M388 537c0 -140 -57 -253 -203 -253c-58 0 -105 17 -146 45l36 36c29 -23 64 -36 110 -36c104 0 145 74 153 162c-36 -21 -90 -43 -149 -43c-95 0 -157 44 -157 139c0 98 66 155 173 155c127 0 183 -76 183 -205zM199 493c54 0 107 23 142 42c-1 70 -16 162 -137 162
c-79 0 -124 -40 -124 -107c0 -68 43 -97 119 -97z" />
    <glyph glyph-name="nine.superior" unicode="&#x2079;" horiz-adv-x="424" 
d="M388 537c0 -140 -57 -253 -203 -253c-58 0 -105 17 -146 45l36 36c29 -23 64 -36 110 -36c104 0 145 74 153 162c-36 -21 -90 -43 -149 -43c-95 0 -157 44 -157 139c0 98 66 155 173 155c127 0 183 -76 183 -205zM199 493c54 0 107 23 142 42c-1 70 -16 162 -137 162
c-79 0 -124 -40 -124 -107c0 -68 43 -97 119 -97z" />
    <glyph glyph-name="nine.tab" horiz-adv-x="585" 
d="M533 405c0 -232 -79 -420 -279 -420c-81 0 -142 25 -192 66l38 47c41 -38 90 -61 154 -61c153 0 210 141 219 305c-49 -36 -126 -76 -214 -76c-129 0 -214 70 -214 225c0 159 90 251 237 251c174 0 251 -125 251 -337zM476 393c0 125 -18 297 -195 297
c-114 0 -178 -73 -178 -195c0 -125 61 -177 171 -177c75 0 152 41 202 75z" />
    <glyph glyph-name="nine.taboldstyle" unicode="&#xe109;" horiz-adv-x="585" 
d="M535 252c0 -232 -79 -418 -279 -418c-81 0 -142 25 -192 66l38 47c41 -38 90 -61 154 -61c153 0 210 139 219 303c-49 -36 -126 -76 -214 -76c-129 0 -214 68 -214 223c0 159 90 248 237 248c174 0 251 -120 251 -332zM478 240c0 125 -18 292 -195 292
c-114 0 -178 -70 -178 -192c0 -125 61 -175 171 -175c75 0 152 41 202 75z" />
    <glyph glyph-name="notequal" unicode="&#x2260;" 
d="M584 154h-297l-63 -131h-46l63 131h-170v41h190l87 181h-277v41h297l68 141h46l-68 -141h170v-41h-190l-87 -181h277v-41z" />
    <glyph glyph-name="ntilde" unicode="&#xf1;" horiz-adv-x="564" 
d="M467 745c0 -66 -33 -134 -105 -134c-33 0 -62 14 -88 41c-19 21 -40 46 -63 46c-45 0 -54 -54 -56 -87h-43c0 64 32 134 106 134c33 0 61 -13 88 -42c16 -16 37 -45 64 -45c43 0 53 56 54 87h43zM486 0h-54v304c0 99 -23 165 -111 165c-52 0 -124 -44 -185 -104v-365h-54
v506h54v-88c67 67 130 103 196 103c107 0 154 -75 154 -190v-331z" />
    <glyph glyph-name="numbersign" unicode="#" horiz-adv-x="657" 
d="M621 466h-146l-52 -205h141v-44h-151l-54 -217h-46l53 217h-148l-53 -217h-46l54 217h-137v44h147l53 205h-143v44h153l54 217h46l-55 -217h148l55 217h46l-54 -217h135v-44zM430 466h-150l-52 -205h149z" />
    <glyph glyph-name="o" unicode="o" horiz-adv-x="549" 
d="M499 252c0 -175 -78 -267 -224 -267s-225 91 -225 267c0 178 78 269 225 269c146 0 224 -92 224 -269zM443 252c0 113 -37 220 -168 220c-133 0 -169 -107 -169 -220c0 -112 37 -218 169 -218c131 0 168 106 168 218z" />
    <glyph glyph-name="o.superior" unicode="&#xf6f0;" horiz-adv-x="439" 
d="M399 487c0 -133 -62 -203 -179 -203c-116 0 -180 69 -180 203c0 135 63 204 180 204s179 -70 179 -204zM352 487c0 83 -29 161 -132 161c-104 0 -133 -78 -133 -161s29 -161 133 -161c103 0 132 78 132 161z" />
    <glyph glyph-name="oacute" unicode="&#xf3;" horiz-adv-x="549" 
d="M419 766l-148 -176h-45l114 176h79zM499 252c0 -175 -78 -267 -224 -267s-225 91 -225 267c0 178 78 269 225 269c146 0 224 -92 224 -269zM443 252c0 113 -37 220 -168 220c-133 0 -169 -107 -169 -220c0 -112 37 -218 169 -218c131 0 168 106 168 218z" />
    <glyph glyph-name="obreve" unicode="&#x14f;" horiz-adv-x="549" 
d="M499 252c0 -175 -78 -267 -224 -267s-225 91 -225 267c0 178 78 269 225 269c146 0 224 -92 224 -269zM443 252c0 113 -37 220 -168 220c-133 0 -169 -107 -169 -220c0 -112 37 -218 169 -218c131 0 168 106 168 218zM425 747c-18 -65 -56 -138 -147 -138
c-89 0 -129 89 -141 138h41c22 -48 47 -76 102 -76c53 0 80 24 103 76h42z" />
    <glyph glyph-name="ocircumflex" unicode="&#xf4;" horiz-adv-x="549" 
d="M420 590h-47l-102 129l-99 -129h-46l111 176h75zM499 252c0 -175 -78 -267 -224 -267s-225 91 -225 267c0 178 78 269 225 269c146 0 224 -92 224 -269zM443 252c0 113 -37 220 -168 220c-133 0 -169 -107 -169 -220c0 -112 37 -218 169 -218c131 0 168 106 168 218z" />
    <glyph glyph-name="odieresis" unicode="&#xf6;" horiz-adv-x="549" 
d="M402 641c0 -30 -11 -40 -40 -40c-36 0 -40 19 -40 40c0 26 7 41 40 41c37 0 40 -19 40 -41zM230 641c0 -30 -11 -40 -40 -40c-36 0 -40 19 -40 40c0 26 7 41 40 41c37 0 40 -19 40 -41zM499 252c0 -175 -78 -267 -224 -267s-225 91 -225 267c0 178 78 269 225 269
c146 0 224 -92 224 -269zM443 252c0 113 -37 220 -168 220c-133 0 -169 -107 -169 -220c0 -112 37 -218 169 -218c131 0 168 106 168 218z" />
    <glyph glyph-name="oe" unicode="&#x153;" horiz-adv-x="873" 
d="M831 246h-347c0 -112 36 -212 163 -212c48 0 96 29 117 46l32 -44c-28 -24 -84 -51 -140 -51c-100 0 -160 30 -200 110c-41 -75 -95 -110 -187 -110c-146 0 -219 91 -219 267c0 178 77 269 219 269c99 0 151 -41 187 -112c32 69 87 112 185 112c145 0 190 -95 190 -228
v-47zM774 295c0 110 -30 177 -139 177c-87 0 -145 -62 -149 -177h288zM429 252c0 113 -33 220 -160 220s-163 -107 -163 -220c0 -112 35 -218 163 -218c127 0 160 106 160 218z" />
    <glyph glyph-name="ogonek" unicode="&#x2db;" horiz-adv-x="500" 
d="M379 -161c-23 -15 -64 -32 -110 -32c-72 0 -105 46 -105 105c0 51 20 99 27 119h48c-9 -23 -24 -64 -24 -105c0 -50 21 -71 67 -71c29 0 57 7 79 17z" />
    <glyph glyph-name="ograve" unicode="&#xf2;" horiz-adv-x="549" 
d="M328 590h-45l-148 176h79zM499 252c0 -175 -78 -267 -224 -267s-225 91 -225 267c0 178 78 269 225 269c146 0 224 -92 224 -269zM443 252c0 113 -37 220 -168 220c-133 0 -169 -107 -169 -220c0 -112 37 -218 169 -218c131 0 168 106 168 218z" />
    <glyph glyph-name="ohungarumlaut" unicode="&#x151;" horiz-adv-x="549" 
d="M499 252c0 -175 -78 -267 -224 -267s-225 91 -225 267c0 178 78 269 225 269c146 0 224 -92 224 -269zM443 252c0 113 -37 220 -168 220c-133 0 -169 -107 -169 -220c0 -112 37 -218 169 -218c131 0 168 106 168 218zM503 766l-148 -176h-45l114 176h79zM333 766
l-148 -176h-45l114 176h79z" />
    <glyph glyph-name="omacron" unicode="&#x14d;" horiz-adv-x="549" 
d="M499 252c0 -175 -78 -267 -224 -267s-225 91 -225 267c0 178 78 269 225 269c146 0 224 -92 224 -269zM443 252c0 113 -37 220 -168 220c-133 0 -169 -107 -169 -220c0 -112 37 -218 169 -218c131 0 168 106 168 218zM420 607h-288v57h288v-57z" />
    <glyph glyph-name="one" unicode="1" horiz-adv-x="443" 
d="M402 0h-312v45h138v432c-36 -25 -94 -49 -152 -60v42c76 24 139 67 180 132h28v-546h118v-45z" />
    <glyph glyph-name="one.denominator" unicode="&#xe10b;" horiz-adv-x="316" 
d="M290 -154h-244v38h107v315c-31 -19 -73 -35 -118 -43v37c60 19 107 53 141 102h24v-411h90v-38z" />
    <glyph glyph-name="one.fitted" unicode="&#xf6dc;" horiz-adv-x="430" 
d="M387 0h-312v45h138v583c-36 -25 -94 -49 -152 -60v42c76 24 139 67 180 132h28v-697h118v-45z" />
    <glyph glyph-name="one.inferior" unicode="&#x2081;" horiz-adv-x="316" 
d="M290 -117h-244v38h107v315c-31 -19 -73 -35 -118 -43v37c60 19 107 53 141 102h24v-411h90v-38z" />
    <glyph glyph-name="one.numerator" unicode="&#xe11f;" horiz-adv-x="316" 
d="M290 293h-244v38h107v315c-31 -19 -73 -35 -118 -43v37c60 19 107 53 141 102h24v-411h90v-38z" />
    <glyph glyph-name="one.tab" horiz-adv-x="585" 
d="M467 0h-312v45h138v583c-36 -25 -94 -49 -152 -60v42c76 24 139 67 180 132h28v-697h118v-45z" />
    <glyph glyph-name="one.taboldstyle" unicode="&#xe101;" horiz-adv-x="585" 
d="M457 0h-312v45h138v432c-36 -25 -94 -49 -152 -60v42c76 24 139 67 180 132h28v-546h118v-45z" />
    <glyph glyph-name="oneeighth" unicode="&#x215b;" horiz-adv-x="1017" 
d="M942 -39c0 -82 -67 -124 -175 -124c-117 0 -177 45 -177 124c0 56 39 96 107 119c-43 16 -93 43 -93 104c0 72 54 111 163 111c106 0 162 -39 162 -104c0 -64 -47 -93 -95 -111c59 -22 108 -52 108 -119zM882 182c0 50 -44 70 -115 70c-76 0 -116 -25 -116 -68
c0 -30 14 -48 115 -84c68 20 116 39 116 82zM894 -40c0 56 -67 78 -127 99c-59 -18 -128 -42 -128 -100c0 -50 44 -78 128 -78c86 0 127 31 127 79zM731 727l-391 -878h-51l391 878h51zM347 293h-244v38h107v315c-31 -19 -73 -35 -118 -43v37c60 19 107 53 141 102h24v-411
h90v-38z" />
    <glyph glyph-name="onehalf" unicode="&#xbd;" horiz-adv-x="1017" 
d="M954 -154h-351v45c49 35 104 78 151 116c71 57 132 97 132 165c0 44 -39 77 -112 77c-63 0 -102 -20 -135 -59l-38 28c30 38 79 77 171 77s165 -40 165 -121c0 -66 -42 -115 -115 -171c-55 -42 -83 -64 -147 -112h279v-45zM711 727l-391 -878h-52l392 878h51zM327 293
h-244v38h107v315c-31 -19 -73 -35 -118 -43v37c60 19 107 53 141 102h24v-411h90v-38z" />
    <glyph glyph-name="onequarter" unicode="&#xbc;" horiz-adv-x="1017" 
d="M928 -42h-69v-124h-45v124h-234v31l251 306h28v-295h69v-42zM731 727l-391 -878h-52l392 878h51zM347 293h-244v38h107v315c-31 -19 -73 -35 -118 -43v37c60 19 107 53 141 102h24v-411h90v-38zM814 0v206l-170 -206h170z" />
    <glyph glyph-name="onethird" unicode="&#x2153;" horiz-adv-x="1017" 
d="M731 727l-391 -878h-51l391 878h51zM347 293h-244v38h107v315c-31 -19 -73 -35 -118 -43v37c60 19 107 53 141 102h24v-411h90v-38zM947 -18c0 -100 -72 -146 -179 -146c-62 0 -123 25 -155 72l41 28c28 -41 67 -54 113 -54c80 0 129 27 129 99c0 67 -59 89 -128 89
c-19 0 -39 -2 -64 -7v19l168 164h-234v42h293v-43l-138 -134c95 -2 154 -53 154 -129z" />
    <glyph glyph-name="ordfeminine" unicode="&#xaa;" horiz-adv-x="369" 
d="M310 403h-48v42c-39 -32 -77 -51 -120 -51c-70 0 -109 41 -109 100c0 87 63 106 131 112c0 0 43 4 98 8v13c0 58 -38 71 -88 71c-42 0 -69 -12 -92 -33l-34 38c23 23 68 39 128 39c91 0 134 -26 134 -115v-224zM262 493v79c-28 -3 -62 -7 -62 -7
c-67 -8 -117 -13 -117 -68c0 -43 23 -59 71 -59c30 0 59 18 82 35c9 6 17 13 26 20z" />
    <glyph glyph-name="ordmasculine" unicode="&#xba;" horiz-adv-x="389" 
d="M348 567c0 -113 -53 -173 -154 -173c-102 0 -153 60 -153 173c0 114 52 175 153 175s154 -61 154 -175zM298 567c0 71 -24 132 -104 132c-81 0 -103 -61 -103 -132c0 -70 22 -132 103 -132c80 0 104 62 104 132z" />
    <glyph glyph-name="oslash" unicode="&#xf8;" horiz-adv-x="549" 
d="M499 252c0 -175 -78 -267 -224 -267c-51 0 -94 11 -128 33l-37 -55h-54l56 84c-41 45 -62 114 -62 205c0 178 78 269 225 269c52 0 96 -12 130 -35l38 57h54l-58 -87c40 -45 60 -113 60 -204zM443 252c0 58 -10 114 -37 155l-230 -344c25 -18 57 -29 99 -29
c131 0 168 106 168 218zM375 441c-25 19 -57 31 -100 31c-133 0 -169 -107 -169 -220c0 -58 11 -115 39 -156z" />
    <glyph glyph-name="oslashacute" unicode="&#x1ff;" horiz-adv-x="549" 
d="M499 252c0 -175 -78 -267 -224 -267c-51 0 -94 11 -128 33l-37 -55h-54l56 84c-41 45 -62 114 -62 205c0 178 78 269 225 269c52 0 96 -12 130 -35l38 57h54l-58 -87c40 -45 60 -113 60 -204zM443 252c0 58 -10 114 -37 155l-230 -344c25 -18 57 -29 99 -29
c131 0 168 106 168 218zM375 441c-25 19 -57 31 -100 31c-133 0 -169 -107 -169 -220c0 -58 11 -115 39 -156zM392 766l-148 -176h-45l114 176h79z" />
    <glyph glyph-name="otilde" unicode="&#xf5;" horiz-adv-x="549" 
d="M449 745c0 -66 -33 -134 -105 -134c-34 0 -63 14 -88 41c-20 21 -41 46 -63 46c-45 0 -55 -54 -56 -87h-43c0 64 32 134 106 134c33 0 61 -13 88 -42c15 -16 37 -45 64 -45c43 0 53 56 54 87h43zM499 252c0 -175 -78 -267 -224 -267s-225 91 -225 267
c0 178 78 269 225 269c146 0 224 -92 224 -269zM443 252c0 113 -37 220 -168 220c-133 0 -169 -107 -169 -220c0 -112 37 -218 169 -218c131 0 168 106 168 218z" />
    <glyph glyph-name="p" unicode="p" horiz-adv-x="562" 
d="M512 257c0 -151 -72 -272 -208 -272c-65 0 -116 21 -168 63v-241h-54v699h54v-63c40 40 102 78 175 78c144 0 201 -114 201 -264zM456 255c0 96 -24 215 -145 215c-69 0 -125 -35 -175 -85v-281c44 -32 99 -68 164 -68c96 0 156 78 156 219z" />
    <glyph glyph-name="paragraph" unicode="&#xb6;" horiz-adv-x="572" 
d="M552 680h-101v-873h-57v873h-107v-873h-57v519c-117 0 -210 60 -210 202c0 122 85 199 223 199h309v-47z" />
    <glyph glyph-name="parenleft" unicode="(" horiz-adv-x="359" 
d="M323 -193h-64c-61 68 -106 132 -141 207c-33 70 -52 152 -52 260c0 106 18 190 51 261c35 74 83 141 142 207h64c-91 -87 -164 -211 -190 -317c-8 -35 -17 -96 -17 -151c0 -58 8 -115 17 -150c30 -119 110 -240 190 -317z" />
    <glyph glyph-name="parenleft.inferior" unicode="&#x208d;" horiz-adv-x="272" 
d="M262 -128h-57c-92 97 -155 205 -155 353c0 146 58 251 155 354h57c-100 -92 -170 -213 -170 -354c0 -137 68 -256 170 -353z" />
    <glyph glyph-name="parenleft.superior" unicode="&#x207d;" horiz-adv-x="272" 
d="M262 153h-57c-92 97 -155 205 -155 353c0 146 58 251 155 354h57c-100 -92 -170 -213 -170 -354c0 -137 68 -256 170 -353z" />
    <glyph glyph-name="parenright" unicode=")" horiz-adv-x="359" 
d="M293 274c0 -108 -18 -190 -51 -260c-35 -75 -81 -139 -142 -207h-64c80 77 160 198 190 317c9 35 17 92 17 150c0 55 -9 116 -17 151c-26 106 -99 230 -190 317h64c59 -66 107 -133 142 -207c33 -71 51 -155 51 -261z" />
    <glyph glyph-name="parenright.inferior" unicode="&#x208e;" horiz-adv-x="272" 
d="M67 -128h-57c102 97 170 216 170 353c0 141 -70 262 -170 354h57c97 -103 155 -208 155 -354c0 -148 -63 -256 -155 -353z" />
    <glyph glyph-name="parenright.superior" unicode="&#x207e;" horiz-adv-x="272" 
d="M67 153h-57c102 97 170 216 170 353c0 141 -70 262 -170 354h57c97 -103 155 -208 155 -354c0 -148 -63 -256 -155 -353z" />
    <glyph glyph-name="partialdiff" unicode="&#x2202;" horiz-adv-x="601" 
d="M542 489c0 -60 -9 -126 -26 -192c-38 -145 -131 -308 -284 -308c-104 0 -176 74 -176 188c0 197 142 323 274 323c79 0 128 -41 148 -82h2c3 21 5 44 5 74c0 120 -56 185 -153 185c-33 0 -73 -10 -102 -28l-18 43c24 15 75 34 128 34c119 0 202 -82 202 -237zM470 353
c-15 53 -60 99 -138 99c-114 0 -217 -118 -217 -276c0 -83 47 -138 119 -138c107 0 197 123 236 315z" />
    <glyph glyph-name="percent" unicode="%" horiz-adv-x="1017" 
d="M968 62c0 -78 -13 -132 -43 -169c-32 -40 -75 -59 -135 -59c-62 0 -105 19 -136 59c-29 37 -43 91 -43 169s13 137 43 174c32 40 76 59 136 59c62 0 102 -19 135 -59c30 -37 43 -97 43 -174zM731 727l-391 -878h-52l391 878h52zM406 509c0 -78 -13 -132 -43 -169
c-32 -40 -75 -59 -135 -59c-62 0 -105 19 -136 59c-29 37 -43 91 -43 169s13 137 43 174c32 40 76 59 136 59c62 0 102 -19 135 -59c30 -37 43 -97 43 -174zM917 62c0 104 -19 187 -127 187s-128 -82 -128 -186c0 -101 20 -183 128 -183s127 84 127 182zM355 509
c0 104 -19 187 -127 187s-128 -82 -128 -186c0 -101 20 -183 128 -183s127 84 127 182z" />
    <glyph glyph-name="period" unicode="." horiz-adv-x="228" 
d="M160 35c0 -32 -11 -42 -46 -42c-37 0 -46 14 -46 42c0 31 10 43 46 43c37 0 46 -12 46 -43z" />
    <glyph glyph-name="periodcentered" unicode="&#xb7;" horiz-adv-x="228" 
d="M160 284c0 -32 -11 -42 -46 -42c-37 0 -46 14 -46 42c0 31 10 43 46 43c37 0 46 -12 46 -43z" />
    <glyph glyph-name="perthousand" unicode="&#x2030;" horiz-adv-x="1416" 
d="M1367 62c0 -78 -13 -132 -43 -169c-32 -40 -75 -59 -135 -59c-62 0 -105 19 -136 59c-29 37 -43 91 -43 169s13 137 43 174c32 40 76 59 136 59c62 0 102 -19 135 -59c30 -37 43 -97 43 -174zM928 62c0 -78 -13 -132 -43 -169c-32 -40 -75 -59 -135 -59
c-62 0 -105 19 -136 59c-29 37 -43 91 -43 169s13 137 43 174c32 40 76 59 136 59c62 0 102 -19 135 -59c30 -37 43 -97 43 -174zM711 727l-391 -878h-52l391 878h52zM406 509c0 -78 -13 -132 -43 -169c-32 -40 -75 -59 -135 -59c-62 0 -105 19 -136 59
c-29 37 -43 91 -43 169s13 137 43 174c32 40 76 59 136 59c62 0 102 -19 135 -59c30 -37 43 -97 43 -174zM1316 62c0 104 -19 187 -127 187s-128 -82 -128 -186c0 -101 20 -183 128 -183s127 84 127 182zM877 62c0 104 -19 187 -127 187s-128 -82 -128 -186
c0 -101 20 -183 128 -183s127 84 127 182zM355 509c0 104 -19 187 -127 187s-128 -82 -128 -186c0 -101 20 -183 128 -183s127 84 127 182z" />
    <glyph glyph-name="pi" unicode="&#x3c0;" horiz-adv-x="694" 
d="M620 49l13 -43c-14 -8 -37 -12 -59 -12c-78 0 -113 52 -113 125v333h-228v-323c0 -52 -6 -97 -14 -129h-60c11 37 15 87 15 131v321c-32 -1 -81 -11 -110 -23l-18 44c28 13 80 27 141 27h446v-48h-114v-329c0 -50 20 -81 68 -81c10 0 23 3 33 7z" />
    <glyph glyph-name="plus" unicode="+" 
d="M584 265h-236v-236h-41v236h-236v41h236v236h41v-236h236v-41z" />
    <glyph glyph-name="plusminus" unicode="&#xb1;" 
d="M584 274h-236v-188h-41v188h-236v41h236v215h41v-215h236v-41zM584 0h-513v41h513v-41z" />
    <glyph glyph-name="product" unicode="&#x220f;" horiz-adv-x="751" 
d="M657 -230h-58v879h-446v-879h-59v930h563v-930z" />
    <glyph glyph-name="q" unicode="q" horiz-adv-x="562" 
d="M480 -193h-54v256c-38 -40 -98 -78 -172 -78c-148 0 -204 114 -204 264c0 119 48 272 217 272c77 0 125 -15 159 -26l44 18h10v-706zM426 121v321c-34 12 -86 28 -160 28c-102 0 -160 -79 -160 -219c0 -95 23 -215 145 -215c69 0 124 37 175 85z" />
    <glyph glyph-name="question" unicode="?" horiz-adv-x="466" 
d="M422 563c0 -63 -17 -105 -56 -146c-41 -43 -99 -78 -154 -110v-121h-48v145c45 26 91 50 130 85c43 39 69 76 69 139c0 91 -54 139 -151 139c-82 0 -122 -33 -147 -69l-45 32c24 41 82 85 190 85c127 0 212 -57 212 -179zM236 35c0 -32 -11 -42 -46 -42
c-37 0 -46 14 -46 42c0 31 10 43 46 43c37 0 46 -12 46 -43z" />
    <glyph glyph-name="questiondown" unicode="&#xbf;" horiz-adv-x="466" 
d="M322 479c0 -31 -10 -43 -46 -43c-37 0 -46 12 -46 43c0 32 11 42 46 42c37 0 46 -14 46 -42zM446 -108c-22 -41 -86 -85 -190 -85c-127 0 -212 57 -212 179c0 63 17 105 56 146c41 43 99 78 154 110v106h48v-130c-45 -26 -91 -50 -130 -85c-43 -39 -69 -76 -69 -139
c0 -91 54 -139 151 -139c78 0 123 32 147 69z" />
    <glyph glyph-name="quotedbl" unicode="&#x22;" horiz-adv-x="391" 
d="M315 742l-16 -269h-40l-17 269h73zM149 742l-16 -269h-40l-17 269h73z" />
    <glyph glyph-name="quotedblbase" unicode="&#x201e;" horiz-adv-x="425" 
d="M357 24c0 -68 -20 -129 -50 -173h-40c22 35 42 89 42 126c0 9 0 12 -1 16c-25 0 -43 7 -43 45c0 28 14 40 44 40c36 0 48 -17 48 -54zM160 24c0 -68 -20 -129 -50 -173h-40c22 35 42 89 42 126c0 9 0 12 -1 16c-25 0 -43 7 -43 45c0 28 14 40 44 40c36 0 48 -17 48 -54z
" />
    <glyph glyph-name="quotedblleft" unicode="&#x201c;" horiz-adv-x="425" 
d="M357 555c0 -28 -14 -40 -44 -40c-36 0 -48 17 -48 54c0 68 20 129 50 173h40c-22 -35 -42 -89 -42 -126c0 -9 0 -12 1 -16c25 0 43 -7 43 -45zM160 555c0 -28 -14 -40 -44 -40c-36 0 -48 17 -48 54c0 68 20 129 50 173h40c-22 -35 -42 -89 -42 -126c0 -9 0 -12 1 -16
c25 0 43 -7 43 -45z" />
    <glyph glyph-name="quotedblright" unicode="&#x201d;" horiz-adv-x="425" 
d="M357 688c0 -68 -20 -129 -50 -173h-40c22 35 42 89 42 126c0 9 0 12 -1 16c-25 0 -43 7 -43 45c0 28 14 40 44 40c36 0 48 -17 48 -54zM160 688c0 -68 -20 -129 -50 -173h-40c22 35 42 89 42 126c0 9 0 12 -1 16c-25 0 -43 7 -43 45c0 28 14 40 44 40c36 0 48 -17 48 -54
z" />
    <glyph glyph-name="quoteleft" unicode="&#x2018;" horiz-adv-x="228" 
d="M160 555c0 -28 -14 -40 -44 -40c-36 0 -48 17 -48 54c0 68 20 129 50 173h40c-22 -35 -42 -89 -42 -126c0 -9 0 -12 1 -16c25 0 43 -7 43 -45z" />
    <glyph glyph-name="quoteright" unicode="&#x2019;" horiz-adv-x="228" 
d="M160 688c0 -68 -20 -129 -50 -173h-40c22 35 42 89 42 126c0 9 0 12 -1 16c-25 0 -43 7 -43 45c0 28 14 40 44 40c36 0 48 -17 48 -54z" />
    <glyph glyph-name="quotesinglbase" unicode="&#x201a;" horiz-adv-x="228" 
d="M160 24c0 -68 -20 -129 -50 -173h-40c22 35 42 89 42 126c0 9 0 12 -1 16c-25 0 -43 7 -43 45c0 28 14 40 44 40c36 0 48 -17 48 -54z" />
    <glyph glyph-name="quotesingle" unicode="'" horiz-adv-x="225" 
d="M149 742l-16 -269h-40l-17 269h73z" />
    <glyph glyph-name="r" unicode="r" horiz-adv-x="343" 
d="M336 504l-19 -52c-8 4 -24 6 -28 6c-64 0 -103 -44 -153 -89v-369h-54v506h54v-82c57 53 102 90 155 90c21 0 31 -3 45 -10z" />
    <glyph glyph-name="r.superior" unicode="&#xf6f1;" horiz-adv-x="276" 
d="M270 677l-17 -44c-7 3 -19 5 -23 5c-50 0 -87 -35 -120 -66v-277h-45v385h45v-60c45 39 81 66 122 66c17 0 25 -3 38 -9z" />
    <glyph glyph-name="racute" unicode="&#x155;" horiz-adv-x="343" 
d="M336 504l-19 -52c-8 4 -24 6 -28 6c-64 0 -103 -44 -153 -89v-369h-54v506h54v-82c57 53 102 90 155 90c21 0 31 -3 45 -10zM311 766l-148 -176h-45l114 176h79z" />
    <glyph glyph-name="radical" unicode="&#x221a;" horiz-adv-x="547" 
d="M545 729l-212 -741h-48c-52 118 -102 237 -154 355l-56 -33l-20 38l104 61c50 -113 99 -227 148 -340l188 660h50z" />
    <glyph glyph-name="rcaron" unicode="&#x159;" horiz-adv-x="343" 
d="M336 504l-19 -52c-8 4 -24 6 -28 6c-64 0 -103 -44 -153 -89v-369h-54v506h54v-82c57 53 102 90 155 90c21 0 31 -3 45 -10zM353 766l-111 -176h-75l-108 176h47l102 -129l99 129h46z" />
    <glyph glyph-name="rcommaaccent" unicode="&#x157;" horiz-adv-x="343" 
d="M336 504l-19 -52c-8 4 -24 6 -28 6c-64 0 -103 -44 -153 -89v-369h-54v506h54v-82c57 53 102 90 155 90c21 0 31 -3 45 -10zM198 -82c0 -23 -2 -59 -31 -111h-40c12 21 22 46 22 80c-21 0 -43 7 -43 45c0 28 17 40 44 40c35 0 48 -17 48 -54z" />
    <glyph glyph-name="registered" unicode="&#xae;" horiz-adv-x="938" 
d="M886 325c0 -230 -187 -417 -417 -417s-417 187 -417 417s187 417 417 417s417 -187 417 -417zM838 325c0 204 -165 369 -369 369s-369 -165 -369 -369s165 -369 369 -369s369 165 369 369zM644 105h-56l-36 134c-10 38 -26 51 -55 51h-127v-185h-54v447h143
c97 0 164 -28 164 -125c0 -63 -26 -98 -65 -113c21 -7 34 -25 43 -56zM569 427c0 57 -31 76 -113 76h-86v-163h84c90 0 115 19 115 87z" />
    <glyph glyph-name="ring" unicode="&#x2da;" horiz-adv-x="500" 
d="M332 657c0 -53 -29 -86 -84 -86c-57 0 -81 36 -81 86c0 52 26 86 81 86c57 0 84 -33 84 -86zM299 657c0 37 -18 55 -51 55c-30 0 -48 -20 -48 -55c0 -32 12 -55 48 -55s51 21 51 55z" />
    <glyph glyph-name="s" unicode="s" horiz-adv-x="461" 
d="M418 135c0 -117 -104 -150 -197 -150c-60 0 -146 24 -180 83l45 30c31 -49 87 -64 142 -64c57 0 137 18 137 99c0 53 -40 70 -132 93c-83 21 -175 39 -175 146c0 104 93 149 184 149c67 0 137 -22 173 -86l-45 -28c-28 46 -77 65 -133 65c-48 0 -126 -23 -126 -93
c0 -61 37 -78 135 -101c88 -21 172 -43 172 -143z" />
    <glyph glyph-name="s.superior" unicode="&#xf6f2;" horiz-adv-x="370" 
d="M336 399c0 -90 -83 -115 -158 -115c-47 0 -116 19 -145 66l38 24c25 -36 69 -51 113 -51c45 0 107 13 107 72c0 37 -31 52 -103 69c-67 16 -140 32 -140 113c0 80 74 114 147 114c53 0 110 -17 140 -69l-38 -22c-23 34 -61 51 -106 51c-37 0 -99 -19 -99 -69
c0 -43 30 -56 107 -73c70 -16 137 -32 137 -110z" />
    <glyph glyph-name="sacute" unicode="&#x15b;" horiz-adv-x="461" 
d="M418 135c0 -117 -104 -150 -197 -150c-60 0 -146 24 -180 83l45 30c31 -49 87 -64 142 -64c57 0 137 18 137 99c0 53 -40 70 -132 93c-83 21 -175 39 -175 146c0 104 93 149 184 149c67 0 137 -22 173 -86l-45 -28c-28 46 -77 65 -133 65c-48 0 -126 -23 -126 -93
c0 -61 37 -78 135 -101c88 -21 172 -43 172 -143zM381 766l-148 -176h-45l114 176h79z" />
    <glyph glyph-name="scaron" unicode="&#x161;" horiz-adv-x="461" 
d="M382 766l-111 -176h-75l-108 176h47l102 -129l99 129h46zM418 135c0 -117 -104 -150 -197 -150c-60 0 -146 24 -180 83l45 30c31 -49 87 -64 142 -64c57 0 137 18 137 99c0 53 -40 70 -132 93c-83 21 -175 39 -175 146c0 104 93 149 184 149c67 0 137 -22 173 -86
l-45 -28c-28 46 -77 65 -133 65c-48 0 -126 -23 -126 -93c0 -61 37 -78 135 -101c88 -21 172 -43 172 -143z" />
    <glyph glyph-name="scedilla" unicode="&#x15f;" horiz-adv-x="461" 
d="M343 -105c0 -54 -42 -88 -118 -88c-41 0 -86 13 -108 21l16 36c31 -12 67 -19 98 -19c46 0 71 17 71 55c0 39 -53 59 -92 59l12 26h-1c-60 0 -146 24 -180 83l45 30c31 -49 87 -64 142 -64c57 0 137 18 137 99c0 53 -40 70 -132 93c-83 21 -175 39 -175 146
c0 104 93 149 184 149c67 0 137 -22 173 -86l-45 -28c-28 46 -77 65 -133 65c-48 0 -126 -23 -126 -93c0 -61 37 -78 135 -101c88 -21 172 -43 172 -143c0 -101 -77 -139 -157 -148l-1 -2c66 -16 83 -56 83 -90z" />
    <glyph glyph-name="scircumflex" unicode="&#x15d;" horiz-adv-x="461" 
d="M418 135c0 -117 -104 -150 -197 -150c-60 0 -146 24 -180 83l45 30c31 -49 87 -64 142 -64c57 0 137 18 137 99c0 53 -40 70 -132 93c-83 21 -175 39 -175 146c0 104 93 149 184 149c67 0 137 -22 173 -86l-45 -28c-28 46 -77 65 -133 65c-48 0 -126 -23 -126 -93
c0 -61 37 -78 135 -101c88 -21 172 -43 172 -143zM380 590h-47l-102 129l-99 -129h-46l111 176h75z" />
    <glyph glyph-name="scommaaccent" unicode="&#x219;" horiz-adv-x="461" 
d="M418 135c0 -117 -104 -150 -197 -150c-60 0 -146 24 -180 83l45 30c31 -49 87 -64 142 -64c57 0 137 18 137 99c0 53 -40 70 -132 93c-83 21 -175 39 -175 146c0 104 93 149 184 149c67 0 137 -22 173 -86l-45 -28c-28 46 -77 65 -133 65c-48 0 -126 -23 -126 -93
c0 -61 37 -78 135 -101c88 -21 172 -43 172 -143zM276 -82c0 -23 -2 -59 -31 -111h-40c12 21 22 46 22 80c-21 0 -43 7 -43 45c0 28 17 40 44 40c35 0 48 -17 48 -54z" />
    <glyph glyph-name="section" unicode="&#xa7;" horiz-adv-x="479" 
d="M439 261c0 -82 -61 -126 -132 -171c52 -35 103 -76 103 -136c0 -101 -79 -147 -181 -147c-72 0 -135 17 -174 65l38 37c35 -39 84 -50 132 -50c58 0 127 15 127 95c0 31 -24 56 -53 78c-46 35 -100 61 -148 94c-54 37 -111 85 -111 161c0 79 62 130 132 172
c-52 36 -100 77 -100 137c0 100 79 146 181 146c70 0 136 -20 171 -65l-38 -37c-29 34 -79 50 -131 50c-56 0 -125 -17 -125 -93c0 -23 13 -44 33 -63c47 -46 112 -74 166 -111c60 -42 110 -88 110 -162zM387 257c0 38 -30 75 -61 101c-36 30 -77 52 -116 77l-36 -26
c-37 -28 -82 -69 -82 -119c0 -40 32 -75 69 -105c33 -26 71 -50 108 -71c48 35 118 75 118 143z" />
    <glyph glyph-name="semicolon" unicode=";" horiz-adv-x="228" 
d="M160 422c0 -32 -11 -42 -46 -42c-37 0 -46 14 -46 42c0 31 10 43 46 43c37 0 46 -12 46 -43zM160 24c0 -68 -20 -129 -50 -173h-40c22 35 42 89 42 126c0 9 0 12 -1 16c-25 0 -43 7 -43 45c0 28 14 40 44 40c36 0 48 -17 48 -54z" />
    <glyph glyph-name="seven" unicode="7" horiz-adv-x="507" 
d="M477 511l-279 -677h-63l284 684h-332v-105h-52v157h442v-59z" />
    <glyph glyph-name="seven.denominator" unicode="&#xe111;" horiz-adv-x="378" 
d="M356 241l-205 -405h-54l205 404h-226v-62h-44v107h324v-44z" />
    <glyph glyph-name="seven.fitted" unicode="&#xe09d;" horiz-adv-x="517" 
d="M487 668l-282 -683h-63l287 690h-332v-105h-52v157h442v-59z" />
    <glyph glyph-name="seven.inferior" unicode="&#x2087;" horiz-adv-x="378" 
d="M356 288l-205 -405h-54l205 404h-226v-62h-44v107h324v-44z" />
    <glyph glyph-name="seven.numerator" unicode="&#xe125;" horiz-adv-x="378" 
d="M356 689l-205 -405h-54l205 404h-226v-62h-44v107h324v-44z" />
    <glyph glyph-name="seven.superior" unicode="&#x2077;" horiz-adv-x="378" 
d="M356 689l-205 -405h-54l205 404h-226v-62h-44v107h324v-44z" />
    <glyph glyph-name="seven.tab" horiz-adv-x="585" 
d="M515 668l-282 -683h-63l287 690h-332v-105h-52v157h442v-59z" />
    <glyph glyph-name="seven.taboldstyle" unicode="&#xe107;" horiz-adv-x="585" 
d="M527 511l-279 -677h-63l284 684h-332v-105h-52v157h442v-59z" />
    <glyph glyph-name="seveneighths" unicode="&#x215e;" horiz-adv-x="1017" 
d="M942 -39c0 -82 -67 -124 -175 -124c-117 0 -177 45 -177 124c0 56 39 96 107 119c-43 16 -93 43 -93 104c0 72 54 111 163 111c106 0 162 -39 162 -104c0 -64 -47 -93 -95 -111c59 -22 108 -52 108 -119zM882 182c0 50 -44 70 -115 70c-76 0 -116 -25 -116 -68
c0 -30 14 -48 115 -84c68 20 116 39 116 82zM894 -40c0 56 -67 78 -127 99c-59 -18 -128 -42 -128 -100c0 -50 44 -78 128 -78c86 0 127 31 127 79zM731 727l-391 -878h-51l391 878h51zM450 689l-205 -405h-54l205 404h-226v-62h-44v107h324v-44z" />
    <glyph glyph-name="six" unicode="6" horiz-adv-x="579" 
d="M537 233c0 -159 -87 -248 -237 -248c-168 0 -251 120 -251 332c0 232 79 425 279 425c81 0 140 -23 182 -59l-36 -47c-35 32 -81 54 -146 54c-153 0 -210 -146 -219 -310c49 36 126 76 214 76c129 0 214 -68 214 -223zM479 229c0 125 -61 175 -171 175
c-75 0 -152 -41 -202 -75c0 -125 22 -292 195 -292c114 0 178 70 178 192z" />
    <glyph glyph-name="six.denominator" unicode="&#xe110;" horiz-adv-x="425" 
d="M393 -11c0 -97 -64 -152 -173 -152c-123 0 -184 73 -184 202c0 139 58 256 204 256c58 0 103 -16 138 -41l-33 -36c-25 19 -58 32 -105 32c-104 0 -145 -77 -153 -165c36 21 90 42 149 42c95 0 157 -42 157 -138zM345 -13c0 68 -43 95 -119 95c-54 0 -107 -22 -142 -42
c1 -69 17 -158 137 -158c79 0 124 38 124 105z" />
    <glyph glyph-name="six.fitted" unicode="&#xe09c;" horiz-adv-x="583" 
d="M538 233c0 -159 -87 -248 -237 -248c-168 0 -251 120 -251 332c0 232 79 425 279 425c81 0 140 -23 182 -59l-36 -47c-35 32 -81 54 -146 54c-153 0 -210 -146 -219 -310c49 36 126 76 214 76c129 0 214 -68 214 -223zM480 229c0 125 -61 175 -171 175
c-75 0 -152 -41 -202 -75c0 -125 22 -292 195 -292c114 0 178 70 178 192z" />
    <glyph glyph-name="six.inferior" unicode="&#x2086;" horiz-adv-x="425" 
d="M393 26c0 -97 -64 -152 -173 -152c-123 0 -184 73 -184 202c0 139 58 256 204 256c58 0 103 -16 138 -41l-33 -36c-25 19 -58 32 -105 32c-104 0 -145 -77 -153 -165c36 21 90 42 149 42c95 0 157 -42 157 -138zM345 24c0 68 -43 95 -119 95c-54 0 -107 -22 -142 -42
c1 -69 17 -158 137 -158c79 0 124 38 124 105z" />
    <glyph glyph-name="six.numerator" unicode="&#xe124;" horiz-adv-x="425" 
d="M393 436c0 -97 -64 -152 -173 -152c-123 0 -184 73 -184 202c0 139 58 256 204 256c58 0 103 -16 138 -41l-33 -36c-25 19 -58 32 -105 32c-104 0 -145 -77 -153 -165c36 21 90 42 149 42c95 0 157 -42 157 -138zM345 434c0 68 -43 95 -119 95c-54 0 -107 -22 -142 -42
c1 -69 17 -158 137 -158c79 0 124 38 124 105z" />
    <glyph glyph-name="six.superior" unicode="&#x2076;" horiz-adv-x="425" 
d="M393 436c0 -97 -64 -152 -173 -152c-123 0 -184 73 -184 202c0 139 58 256 204 256c58 0 103 -16 138 -41l-33 -36c-25 19 -58 32 -105 32c-104 0 -145 -77 -153 -165c36 21 90 42 149 42c95 0 157 -42 157 -138zM345 434c0 68 -43 95 -119 95c-54 0 -107 -22 -142 -42
c1 -69 17 -158 137 -158c79 0 124 38 124 105z" />
    <glyph glyph-name="six.tab" horiz-adv-x="585" 
d="M540 233c0 -159 -87 -248 -237 -248c-168 0 -251 120 -251 332c0 232 79 425 279 425c81 0 140 -23 182 -59l-36 -47c-35 32 -81 54 -146 54c-153 0 -210 -146 -219 -310c49 36 126 76 214 76c129 0 214 -68 214 -223zM482 229c0 125 -61 175 -171 175
c-75 0 -152 -41 -202 -75c0 -125 22 -292 195 -292c114 0 178 70 178 192z" />
    <glyph glyph-name="six.taboldstyle" unicode="&#xe106;" horiz-adv-x="585" 
d="M538 233c0 -159 -87 -248 -237 -248c-168 0 -251 120 -251 332c0 232 79 425 279 425c81 0 140 -23 182 -59l-36 -47c-35 32 -81 54 -146 54c-153 0 -210 -146 -219 -310c49 36 126 76 214 76c129 0 214 -68 214 -223zM480 229c0 125 -61 175 -171 175
c-75 0 -152 -41 -202 -75c0 -125 22 -292 195 -292c114 0 178 70 178 192z" />
    <glyph glyph-name="slash" unicode="/" horiz-adv-x="362" 
d="M393 742l-370 -888h-54l370 888h54z" />
    <glyph glyph-name="space" unicode=" " horiz-adv-x="250" 
 />
    <glyph glyph-name="sterling" unicode="&#xa3;" horiz-adv-x="576" 
d="M542 0h-504v52c78 23 96 151 96 219c0 16 0 33 -3 49h-80v47h74c-4 23 -14 45 -20 68c-11 39 -18 78 -18 119c0 130 107 188 225 188c93 0 165 -23 218 -104l-49 -36c-35 55 -91 86 -166 86c-95 0 -168 -38 -168 -142c0 -62 26 -119 37 -179h205v-47h-197
c3 -16 3 -32 3 -48c0 -80 -18 -170 -84 -220h431v-52z" />
    <glyph glyph-name="summation" unicode="&#x2211;" horiz-adv-x="658" 
d="M628 -230h-607v24c122 149 243 296 364 445l-338 431v30h554v-50h-471l323 -410l-344 -420h519v-50z" />
    <glyph glyph-name="t" unicode="t" horiz-adv-x="343" 
d="M329 -2c-22 -7 -57 -13 -89 -13c-83 0 -126 30 -126 141v333h-98v47h98v181l54 40v-221h142v-47h-142v-325c0 -57 5 -104 74 -104c30 0 54 6 74 13z" />
    <glyph glyph-name="t.superior" unicode="&#xf6f3;" horiz-adv-x="275" 
d="M264 297c-18 -9 -46 -13 -71 -13c-67 0 -102 23 -102 108v247h-78v41h78v135l46 31v-166h112v-41h-112v-241c0 -41 4 -75 57 -75c24 0 43 5 59 10z" />
    <glyph glyph-name="tbar" unicode="&#x167;" horiz-adv-x="343" 
d="M329 -2c-22 -7 -57 -13 -89 -13c-83 0 -126 30 -126 141v159h-98v47h98v127h-98v47h98v181l54 40v-221h142v-47h-142v-127h142v-47h-142v-151c0 -57 5 -104 74 -104c30 0 54 6 74 13z" />
    <glyph glyph-name="tcaron" unicode="&#x165;" horiz-adv-x="343" 
d="M329 -2c-22 -7 -57 -13 -89 -13c-83 0 -126 30 -126 141v333h-98v47h98v181l54 40v-221h142v-47h-142v-325c0 -57 5 -104 74 -104c30 0 54 6 74 13zM309 673c0 -23 -2 -59 -31 -111h-40c12 21 22 46 22 80c-21 0 -43 7 -43 45c0 28 17 40 44 40c35 0 48 -17 48 -54z" />
    <glyph glyph-name="thorn" unicode="&#xfe;" horiz-adv-x="562" 
d="M512 257c0 -151 -72 -272 -208 -272c-65 0 -116 21 -168 63v-241h-54v920h54v-284c40 40 102 78 175 78c144 0 201 -114 201 -264zM456 255c0 96 -24 215 -145 215c-69 0 -125 -35 -175 -85v-281c44 -32 99 -68 164 -68c96 0 156 78 156 219z" />
    <glyph glyph-name="three" unicode="3" horiz-adv-x="535" 
d="M487 69c0 -161 -104 -235 -258 -235c-83 0 -171 34 -217 103l54 32c34 -60 104 -83 163 -83c121 0 200 60 200 183c0 122 -82 163 -197 163c-20 0 -48 -2 -69 -5v17l236 274h-337v52h400v-59l-197 -228c141 0 222 -78 222 -214z" />
    <glyph glyph-name="three.denominator" unicode="&#xe10d;" horiz-adv-x="395" 
d="M367 -18c0 -100 -72 -146 -179 -146c-62 0 -123 25 -155 72l41 28c28 -41 67 -54 113 -54c80 0 129 27 129 99c0 67 -59 89 -128 89c-19 0 -39 -2 -64 -7v19l168 164h-234v42h293v-43l-138 -134c95 -2 154 -53 154 -129z" />
    <glyph glyph-name="three.fitted" unicode="&#xe099;" horiz-adv-x="535" 
d="M495 220c0 -161 -104 -235 -258 -235c-83 0 -171 34 -217 103l54 32c34 -60 104 -83 163 -83c121 0 200 60 200 183c0 122 -82 163 -197 163c-20 0 -48 -2 -69 -5v17l236 280h-337v52h400v-59l-197 -234c141 0 222 -78 222 -214z" />
    <glyph glyph-name="three.inferior" unicode="&#x2083;" horiz-adv-x="395" 
d="M367 20c0 -100 -72 -146 -179 -146c-62 0 -123 25 -155 72l41 28c28 -41 67 -54 113 -54c80 0 129 27 129 99c0 67 -59 89 -128 89c-19 0 -39 -2 -64 -7v19l168 164h-234v42h293v-43l-138 -134c95 -2 154 -53 154 -129z" />
    <glyph glyph-name="three.numerator" unicode="&#xe121;" horiz-adv-x="395" 
d="M367 427c0 -100 -72 -146 -179 -146c-62 0 -123 25 -155 72l41 28c28 -41 67 -54 113 -54c80 0 129 27 129 99c0 67 -59 89 -128 89c-19 0 -39 -2 -64 -7v19l168 164h-234v42h293v-43l-138 -134c95 -2 154 -53 154 -129z" />
    <glyph glyph-name="three.tab" horiz-adv-x="585" 
d="M509 220c0 -161 -104 -235 -258 -235c-83 0 -171 34 -217 103l54 32c34 -60 104 -83 163 -83c121 0 200 60 200 183c0 122 -82 163 -197 163c-20 0 -48 -2 -69 -5v17l236 280h-337v52h400v-59l-197 -234c141 0 222 -78 222 -214z" />
    <glyph glyph-name="three.taboldstyle" unicode="&#xe103;" horiz-adv-x="585" 
d="M517 69c0 -161 -104 -235 -258 -235c-83 0 -171 34 -217 103l54 32c34 -60 104 -83 163 -83c121 0 200 60 200 183c0 122 -82 163 -197 163c-20 0 -48 -2 -69 -5v17l236 274h-337v52h400v-59l-197 -228c141 0 222 -78 222 -214z" />
    <glyph glyph-name="threeeighths" unicode="&#x215c;" horiz-adv-x="1017" 
d="M942 -39c0 -82 -67 -124 -175 -124c-117 0 -177 45 -177 124c0 56 39 96 107 119c-43 16 -93 43 -93 104c0 72 54 111 163 111c106 0 162 -39 162 -104c0 -64 -47 -93 -95 -111c59 -22 108 -52 108 -119zM882 182c0 50 -44 70 -115 70c-76 0 -116 -25 -116 -68
c0 -30 14 -48 115 -84c68 20 116 39 116 82zM894 -40c0 56 -67 78 -127 99c-59 -18 -128 -42 -128 -100c0 -50 44 -78 128 -78c86 0 127 31 127 79zM731 727l-391 -878h-51l391 878h51zM392 427c0 -100 -72 -146 -179 -146c-62 0 -123 25 -155 72l41 28
c28 -41 67 -54 113 -54c80 0 129 27 129 99c0 67 -59 89 -128 89c-19 0 -39 -2 -64 -7v19l168 164h-234v42h293v-43l-138 -134c95 -2 154 -53 154 -129z" />
    <glyph glyph-name="threequarters" unicode="&#xbe;" horiz-adv-x="1017" 
d="M928 -42h-69v-124h-45v124h-234v31l251 306h28v-295h69v-42zM731 727l-391 -878h-52l392 878h51zM392 427c0 -100 -72 -146 -179 -146c-62 0 -123 25 -155 72l41 28c28 -41 67 -54 113 -54c80 0 129 27 129 99c0 67 -59 89 -128 89c-19 0 -39 -2 -64 -7v19l168 164h-234
v42h293v-43l-138 -134c95 -2 154 -53 154 -129zM814 0v206l-170 -206h170z" />
    <glyph glyph-name="tilde" unicode="&#x2dc;" horiz-adv-x="500" 
d="M427 745c0 -66 -33 -134 -105 -134c-33 0 -62 14 -88 41c-20 21 -41 46 -63 46c-45 0 -54 -54 -56 -87h-43c0 64 32 134 106 134c33 0 61 -13 88 -42c15 -16 37 -45 64 -45c43 0 53 56 54 87h43z" />
    <glyph glyph-name="trademark" unicode="&#x2122;" horiz-adv-x="722" 
d="M682 378h-49v265l-91 -170h-40l-87 171v-266h-49v349h64l93 -188l101 188h58v-349zM283 678h-105v-300h-50v300h-106v49h261v-49z" />
    <glyph glyph-name="two" unicode="2" horiz-adv-x="507" 
d="M473 0h-449v53c61 46 134 103 196 153c111 90 169 145 169 223c0 66 -63 102 -150 102c-79 0 -126 -25 -166 -76l-48 35c31 42 94 95 217 95c112 0 205 -49 205 -155c0 -77 -39 -132 -89 -178c-75 -69 -163 -135 -251 -200h366v-52z" />
    <glyph glyph-name="two.denominator" unicode="&#xe10c;" horiz-adv-x="408" 
d="M377 -154h-351v45c49 35 104 78 151 116c71 57 132 97 132 165c0 44 -39 77 -112 77c-63 0 -102 -20 -135 -59l-38 28c30 38 79 77 171 77s165 -40 165 -121c0 -66 -42 -115 -115 -171c-55 -42 -83 -64 -147 -112h279v-45z" />
    <glyph glyph-name="two.fitted" unicode="&#xe098;" horiz-adv-x="556" 
d="M501 0h-459v61c269 228 390 346 390 472c0 90 -50 155 -159 155c-74 0 -124 -27 -166 -81l-50 31c37 48 100 104 222 104c124 0 216 -72 216 -206c0 -162 -166 -306 -378 -484h384v-52z" />
    <glyph glyph-name="two.inferior" unicode="&#x2082;" horiz-adv-x="408" 
d="M377 -117h-351v45c49 35 104 78 151 116c71 57 132 97 132 165c0 44 -39 77 -112 77c-63 0 -102 -20 -135 -59l-38 28c30 38 79 77 171 77s165 -40 165 -121c0 -66 -42 -115 -115 -171c-55 -42 -83 -64 -147 -112h279v-45z" />
    <glyph glyph-name="two.numerator" unicode="&#xe120;" horiz-adv-x="408" 
d="M377 293h-351v45c49 35 104 78 151 116c71 57 132 97 132 165c0 44 -39 77 -112 77c-63 0 -102 -20 -135 -59l-38 28c30 38 79 77 171 77s165 -40 165 -121c0 -66 -42 -115 -115 -171c-55 -42 -83 -64 -147 -112h279v-45z" />
    <glyph glyph-name="two.tab" horiz-adv-x="585" 
d="M508 0h-459v61c269 228 390 346 390 472c0 90 -50 155 -159 155c-74 0 -124 -27 -166 -81l-50 31c37 48 100 104 222 104c124 0 216 -72 216 -206c0 -162 -166 -306 -378 -484h384v-52z" />
    <glyph glyph-name="two.taboldstyle" unicode="&#xe102;" horiz-adv-x="585" 
d="M513 0h-449v53c61 46 134 103 196 153c111 90 169 145 169 223c0 66 -63 102 -150 102c-79 0 -126 -25 -166 -76l-48 35c31 42 94 95 217 95c112 0 205 -49 205 -155c0 -77 -39 -132 -89 -178c-75 -69 -163 -135 -251 -200h366v-52z" />
    <glyph glyph-name="twothirds" unicode="&#x2154;" horiz-adv-x="1017" 
d="M731 727l-391 -878h-51l391 878h51zM947 -18c0 -100 -72 -146 -179 -146c-62 0 -123 25 -155 72l41 28c28 -41 67 -54 113 -54c80 0 129 27 129 99c0 67 -59 89 -128 89c-19 0 -39 -2 -64 -7v19l168 164h-234v42h293v-43l-138 -134c95 -2 154 -53 154 -129zM377 293h-351
v45c49 35 104 78 151 116c71 57 132 97 132 165c0 44 -39 77 -112 77c-63 0 -102 -20 -135 -59l-38 28c30 38 79 77 171 77s165 -40 165 -121c0 -66 -42 -115 -115 -171c-55 -42 -83 -64 -147 -112h279v-45z" />
    <glyph glyph-name="u" unicode="u" horiz-adv-x="564" 
d="M482 0h-54v88c-67 -67 -130 -103 -196 -103c-107 0 -154 75 -154 190v331h54v-304c0 -99 23 -165 111 -165c52 0 124 44 185 104v365h54v-506z" />
    <glyph glyph-name="uacute" unicode="&#xfa;" horiz-adv-x="564" 
d="M431 766l-148 -176h-45l114 176h79zM482 0h-54v88c-67 -67 -130 -103 -196 -103c-107 0 -154 75 -154 190v331h54v-304c0 -99 23 -165 111 -165c52 0 124 44 185 104v365h54v-506z" />
    <glyph glyph-name="ubreve" unicode="&#x16d;" horiz-adv-x="564" 
d="M482 0h-54v88c-67 -67 -130 -103 -196 -103c-107 0 -154 75 -154 190v331h54v-304c0 -99 23 -165 111 -165c52 0 124 44 185 104v365h54v-506zM426 747c-18 -65 -56 -138 -147 -138c-89 0 -129 89 -141 138h41c22 -48 47 -76 102 -76c53 0 80 24 103 76h42z" />
    <glyph glyph-name="ucircumflex" unicode="&#xfb;" horiz-adv-x="564" 
d="M423 590h-47l-102 129l-99 -129h-46l111 176h75zM482 0h-54v88c-67 -67 -130 -103 -196 -103c-107 0 -154 75 -154 190v331h54v-304c0 -99 23 -165 111 -165c52 0 124 44 185 104v365h54v-506z" />
    <glyph glyph-name="udieresis" unicode="&#xfc;" horiz-adv-x="564" 
d="M403 641c0 -30 -11 -40 -40 -40c-36 0 -40 19 -40 40c0 26 7 41 40 41c37 0 40 -19 40 -41zM231 641c0 -30 -11 -40 -40 -40c-36 0 -40 19 -40 40c0 26 7 41 40 41c37 0 40 -19 40 -41zM482 0h-54v88c-67 -67 -130 -103 -196 -103c-107 0 -154 75 -154 190v331h54v-304
c0 -99 23 -165 111 -165c52 0 124 44 185 104v365h54v-506z" />
    <glyph glyph-name="ugrave" unicode="&#xf9;" horiz-adv-x="564" 
d="M343 590h-45l-148 176h79zM482 0h-54v88c-67 -67 -130 -103 -196 -103c-107 0 -154 75 -154 190v331h54v-304c0 -99 23 -165 111 -165c52 0 124 44 185 104v365h54v-506z" />
    <glyph glyph-name="uhungarumlaut" unicode="&#x171;" horiz-adv-x="564" 
d="M482 0h-54v88c-67 -67 -130 -103 -196 -103c-107 0 -154 75 -154 190v331h54v-304c0 -99 23 -165 111 -165c52 0 124 44 185 104v365h54v-506zM504 766l-148 -176h-45l114 176h79zM334 766l-148 -176h-45l114 176h79z" />
    <glyph glyph-name="umacron" unicode="&#x16b;" horiz-adv-x="564" 
d="M482 0h-54v88c-67 -67 -130 -103 -196 -103c-107 0 -154 75 -154 190v331h54v-304c0 -99 23 -165 111 -165c52 0 124 44 185 104v365h54v-506zM426 607h-288v57h288v-57z" />
    <glyph glyph-name="underscore" unicode="_" horiz-adv-x="500" 
d="M506 -125h-512v50h512v-50z" />
    <glyph glyph-name="uni00A0" unicode="&#xa0;" horiz-adv-x="250" 
 />
    <glyph glyph-name="uni00AD" unicode="&#xad;" horiz-adv-x="368" 
d="M332 225h-296v58h296v-58z" />
    <glyph glyph-name="uni02C9" unicode="&#x2c9;" horiz-adv-x="500" 
d="M394 607h-288v57h288v-57z" />
    <glyph glyph-name="uni03A9" unicode="&#x3a9;" horiz-adv-x="735" 
d="M683 0h-229v50c65 52 169 149 169 327c0 159 -88 284 -255 284c-152 0 -259 -117 -259 -283c0 -174 99 -272 171 -328v-50h-230v50h164c-68 52 -165 156 -165 333c0 189 131 329 320 329c199 0 313 -136 313 -327c0 -162 -90 -278 -165 -335h166v-50z" />
    <glyph glyph-name="uni03BC" unicode="&#x3bc;" horiz-adv-x="568" 
d="M486 0h-54v65c-45 -52 -93 -80 -150 -80c-53 0 -100 5 -146 46v-224h-54v699h54v-397c44 -46 92 -66 145 -66c50 0 105 29 151 80v383h54v-506z" />
    <glyph glyph-name="uni2215" unicode="&#x2215;" horiz-adv-x="100" 
d="M271 727l-391 -878h-51l391 878h51z" />
    <glyph glyph-name="uni2219" unicode="&#x2219;" horiz-adv-x="228" 
d="M160 284c0 -32 -11 -42 -46 -42c-37 0 -46 14 -46 42c0 31 10 43 46 43c37 0 46 -12 46 -43z" />
    <glyph glyph-name="uogonek" unicode="&#x173;" horiz-adv-x="564" 
d="M482 0h-6c-7 -22 -13 -47 -13 -74c0 -50 21 -71 67 -71c29 0 57 7 79 17l18 -33c-23 -15 -64 -32 -110 -32c-72 0 -105 46 -105 105c0 33 8 65 16 88v88c-67 -67 -130 -103 -196 -103c-107 0 -154 75 -154 190v331h54v-304c0 -99 23 -165 111 -165c52 0 124 44 185 104
v365h54v-506z" />
    <glyph glyph-name="uring" unicode="&#x16f;" horiz-adv-x="564" 
d="M482 0h-54v88c-67 -67 -130 -103 -196 -103c-107 0 -154 75 -154 190v331h54v-304c0 -99 23 -165 111 -165c52 0 124 44 185 104v365h54v-506zM364 657c0 -53 -29 -86 -84 -86c-57 0 -81 36 -81 86c0 52 26 86 81 86c57 0 84 -33 84 -86zM331 657c0 37 -18 55 -51 55
c-30 0 -48 -20 -48 -55c0 -32 12 -55 48 -55s51 21 51 55z" />
    <glyph glyph-name="utilde" unicode="&#x169;" horiz-adv-x="564" 
d="M482 0h-54v88c-67 -67 -130 -103 -196 -103c-107 0 -154 75 -154 190v331h54v-304c0 -99 23 -165 111 -165c52 0 124 44 185 104v365h54v-506zM447 745c0 -66 -33 -134 -105 -134c-33 0 -62 14 -88 41c-20 21 -41 46 -63 46c-45 0 -54 -54 -56 -87h-43
c0 64 32 134 106 134c33 0 61 -13 88 -42c15 -16 37 -45 64 -45c43 0 53 56 54 87h43z" />
    <glyph glyph-name="v" unicode="v" horiz-adv-x="469" 
d="M455 506l-185 -506h-68l-188 506h58l164 -451l162 451h57z" />
    <glyph glyph-name="w" unicode="w" horiz-adv-x="682" 
d="M664 506l-121 -506h-60l-143 342l-137 -342h-65l-120 506h56l101 -449l135 341h60l140 -336l101 444h53z" />
    <glyph glyph-name="wacute" unicode="&#x1e83;" horiz-adv-x="682" 
d="M664 506l-121 -506h-60l-143 342l-137 -342h-65l-120 506h56l101 -449l135 341h60l140 -336l101 444h53zM466 766l-148 -176h-45l114 176h79z" />
    <glyph glyph-name="wcircumflex" unicode="&#x175;" horiz-adv-x="682" 
d="M664 506l-121 -506h-60l-143 342l-137 -342h-65l-120 506h56l101 -449l135 341h60l140 -336l101 444h53zM488 590h-47l-102 129l-99 -129h-46l111 176h75z" />
    <glyph glyph-name="wdieresis" unicode="&#x1e85;" horiz-adv-x="682" 
d="M664 506l-121 -506h-60l-143 342l-137 -342h-65l-120 506h56l101 -449l135 341h60l140 -336l101 444h53zM467 641c0 -30 -11 -40 -40 -40c-36 0 -40 19 -40 40c0 26 7 41 40 41c37 0 40 -19 40 -41zM295 641c0 -30 -11 -40 -40 -40c-36 0 -40 19 -40 40c0 26 7 41 40 41
c37 0 40 -19 40 -41z" />
    <glyph glyph-name="wgrave" unicode="&#x1e81;" horiz-adv-x="682" 
d="M664 506l-121 -506h-60l-143 342l-137 -342h-65l-120 506h56l101 -449l135 341h60l140 -336l101 444h53zM406 590h-45l-148 176h79z" />
    <glyph glyph-name="x" unicode="x" horiz-adv-x="464" 
d="M452 0h-66l-155 215l-157 -215h-62l189 253l-187 253h66l154 -213l156 213h62l-188 -251z" />
    <glyph glyph-name="y" unicode="y" horiz-adv-x="490" 
d="M472 506l-239 -543c-49 -112 -87 -156 -168 -156c-31 0 -65 8 -77 13l16 45c11 -7 47 -11 70 -11c40 0 73 45 106 120l27 62l-193 470h59l165 -406l176 406h58z" />
    <glyph glyph-name="yacute" unicode="&#xfd;" horiz-adv-x="490" 
d="M391 766l-148 -176h-45l114 176h79zM472 506l-239 -543c-49 -112 -87 -156 -168 -156c-31 0 -65 8 -77 13l16 45c11 -7 47 -11 70 -11c40 0 73 45 106 120l27 62l-193 470h59l165 -406l176 406h58z" />
    <glyph glyph-name="ycircumflex" unicode="&#x177;" horiz-adv-x="490" 
d="M472 506l-239 -543c-49 -112 -87 -156 -168 -156c-31 0 -65 8 -77 13l16 45c11 -7 47 -11 70 -11c40 0 73 45 106 120l27 62l-193 470h59l165 -406l176 406h58zM392 590h-47l-102 129l-99 -129h-46l111 176h75z" />
    <glyph glyph-name="ydieresis" unicode="&#xff;" horiz-adv-x="490" 
d="M367 641c0 -30 -11 -40 -40 -40c-36 0 -40 19 -40 40c0 26 7 41 40 41c37 0 40 -19 40 -41zM195 641c0 -30 -11 -40 -40 -40c-36 0 -40 19 -40 40c0 26 7 41 40 41c37 0 40 -19 40 -41zM472 506l-239 -543c-49 -112 -87 -156 -168 -156c-31 0 -65 8 -77 13l16 45
c11 -7 47 -11 70 -11c40 0 73 45 106 120l27 62l-193 470h59l165 -406l176 406h58z" />
    <glyph glyph-name="yen" unicode="&#xa5;" horiz-adv-x="581" 
d="M575 727l-202 -340h150v-47h-178l-26 -44v-45h204v-47h-204v-204h-55v204h-205v47h205v44l-27 45h-178v47h150l-203 340h64l222 -377l221 377h62z" />
    <glyph glyph-name="ygrave" unicode="&#x1ef3;" horiz-adv-x="490" 
d="M472 506l-239 -543c-49 -112 -87 -156 -168 -156c-31 0 -65 8 -77 13l16 45c11 -7 47 -11 70 -11c40 0 73 45 106 120l27 62l-193 470h59l165 -406l176 406h58zM318 590h-45l-148 176h79z" />
    <glyph glyph-name="z" unicode="z" horiz-adv-x="422" 
d="M396 0h-370v52l302 406h-296v48h357v-49l-304 -409h311v-48z" />
    <glyph glyph-name="zacute" unicode="&#x17a;" horiz-adv-x="422" 
d="M396 0h-370v52l302 406h-296v48h357v-49l-304 -409h311v-48zM320 766l-148 -176h-45l114 176h79z" />
    <glyph glyph-name="zcaron" unicode="&#x17e;" horiz-adv-x="422" 
d="M365 766l-111 -176h-75l-108 176h47l102 -129l99 129h46zM396 0h-370v52l302 406h-296v48h357v-49l-304 -409h311v-48z" />
    <glyph glyph-name="zdotaccent" unicode="&#x17c;" horiz-adv-x="422" 
d="M396 0h-370v52l302 406h-296v48h357v-49l-304 -409h311v-48zM247 641c0 -30 -11 -40 -40 -40c-36 0 -40 18 -40 40c0 26 7 41 40 41c37 0 40 -19 40 -41z" />
    <glyph glyph-name="zero" unicode="0" horiz-adv-x="585" 
d="M536 286c0 -163 -51 -301 -244 -301c-192 0 -243 138 -243 300s51 300 243 300c193 0 244 -138 244 -299zM478 286c0 143 -40 247 -186 247c-145 0 -185 -105 -185 -248s40 -248 185 -248c147 0 186 104 186 249z" />
    <glyph glyph-name="zero.denominator" unicode="&#xe10a;" horiz-adv-x="428" 
d="M392 65c0 -145 -37 -229 -178 -229c-140 0 -178 85 -178 229s38 229 178 229c141 0 178 -85 178 -229zM344 65c0 119 -27 184 -130 184c-101 0 -129 -65 -129 -184s28 -184 129 -184c103 0 130 65 130 184z" />
    <glyph glyph-name="zero.fitted" unicode="&#xe097;" horiz-adv-x="587" 
d="M537 364c0 -240 -51 -379 -244 -379c-192 0 -243 140 -243 378c0 239 51 379 243 379c193 0 244 -140 244 -378zM479 364c0 211 -39 326 -186 326c-145 0 -185 -115 -185 -327c0 -211 40 -326 185 -326c147 0 186 115 186 327z" />
    <glyph glyph-name="zero.inferior" unicode="&#x2080;" horiz-adv-x="428" 
d="M392 103c0 -145 -37 -229 -178 -229c-140 0 -178 85 -178 229s38 229 178 229c141 0 178 -85 178 -229zM344 103c0 119 -27 184 -130 184c-101 0 -129 -65 -129 -184s28 -184 129 -184c103 0 130 65 130 184z" />
    <glyph glyph-name="zero.numerator" unicode="&#xe11e;" horiz-adv-x="428" 
d="M392 513c0 -145 -37 -229 -178 -229c-140 0 -178 85 -178 229s38 229 178 229c141 0 178 -85 178 -229zM344 513c0 119 -27 184 -130 184c-101 0 -129 -65 -129 -184s28 -184 129 -184c103 0 130 65 130 184z" />
    <glyph glyph-name="zero.superior" unicode="&#x2070;" horiz-adv-x="428" 
d="M392 513c0 -145 -37 -229 -178 -229c-140 0 -178 85 -178 229s38 229 178 229c141 0 178 -85 178 -229zM344 513c0 119 -27 184 -130 184c-101 0 -129 -65 -129 -184s28 -184 129 -184c103 0 130 65 130 184z" />
    <glyph glyph-name="zero.tab" horiz-adv-x="585" 
d="M536 364c0 -240 -51 -379 -244 -379c-192 0 -243 140 -243 378c0 239 51 379 243 379c193 0 244 -140 244 -378zM478 364c0 211 -39 326 -186 326c-145 0 -185 -115 -185 -327c0 -211 40 -326 185 -326c147 0 186 115 186 327z" />
    <glyph glyph-name="zero.taboldstyle" unicode="&#xe100;" horiz-adv-x="585" 
d="M536 286c0 -163 -51 -301 -244 -301c-192 0 -243 138 -243 300s51 300 243 300c193 0 244 -138 244 -299zM478 286c0 143 -40 247 -186 247c-145 0 -185 -105 -185 -248s40 -248 185 -248c147 0 186 104 186 249z" />
    <glyph glyph-name="uni0162" unicode="&#x162;" horiz-adv-x="545" 
d="M540 675h-240v-675h-55v675h-240v52h535v-52zM318 -82c0 -23 -2 -59 -31 -111h-40c12 21 22 46 22 80c-21 0 -43 7 -43 45c0 28 17 40 44 40c35 0 48 -17 48 -54z" />
    <glyph glyph-name="uni0163" unicode="&#x163;" horiz-adv-x="343" 
d="M329 -2c-22 -7 -57 -13 -89 -13c-83 0 -126 30 -126 141v333h-98v47h98v181l54 40v-221h142v-47h-142v-325c0 -57 5 -104 74 -104c30 0 54 6 74 13zM285 -82c0 -23 -2 -59 -31 -111h-40c12 21 22 46 22 80c-21 0 -43 7 -43 45c0 28 17 40 44 40c35 0 48 -17 48 -54z" />
    <glyph glyph-name="uni021A" unicode="&#x21a;" horiz-adv-x="545" 
d="M540 675h-240v-675h-55v675h-240v52h535v-52zM318 -82c0 -23 -2 -59 -31 -111h-40c12 21 22 46 22 80c-21 0 -43 7 -43 45c0 28 17 40 44 40c35 0 48 -17 48 -54z" />
    <glyph glyph-name="uni021B" unicode="&#x21b;" horiz-adv-x="343" 
d="M329 -2c-22 -7 -57 -13 -89 -13c-83 0 -126 30 -126 141v333h-98v47h98v181l54 40v-221h142v-47h-142v-325c0 -57 5 -104 74 -104c30 0 54 6 74 13zM285 -82c0 -23 -2 -59 -31 -111h-40c12 21 22 46 22 80c-21 0 -43 7 -43 45c0 28 17 40 44 40c35 0 48 -17 48 -54z" />
    <glyph glyph-name="onesuperior" unicode="&#xb9;" horiz-adv-x="455" 
d="M347 293h-244v38h107v315c-31 -19 -73 -35 -118 -43v37c60 19 107 53 141 102h24v-411h90v-38z" />
    <glyph glyph-name="twosuperior" unicode="&#xb2;" horiz-adv-x="455" 
d="M417 293h-351v45c49 35 104 78 151 116c71 57 132 97 132 165c0 44 -39 77 -112 77c-63 0 -102 -20 -135 -59l-38 28c30 38 79 77 171 77s165 -40 165 -121c0 -66 -42 -115 -115 -171c-55 -42 -83 -64 -147 -112h279v-45z" />
    <glyph glyph-name="threesuperior" unicode="&#xb3;" horiz-adv-x="455" 
d="M392 427c0 -100 -72 -146 -179 -146c-62 0 -123 25 -155 72l41 28c28 -41 67 -54 113 -54c80 0 129 27 129 99c0 67 -59 89 -128 89c-19 0 -39 -2 -64 -7v19l168 164h-234v42h293v-43l-138 -134c95 -2 154 -53 154 -129z" />
    <glyph glyph-name="dollar.alt" horiz-adv-x="527" 
d="M485 199c0 -134 -103 -188 -202 -193v-131h-43v132c-118 8 -173 69 -205 129l42 29c31 -55 74 -103 163 -110v285c-97 24 -192 56 -192 182c0 103 65 178 192 183v111h43v-112c103 -9 152 -52 190 -117l-43 -29c-32 55 -67 90 -147 96v-266c122 -29 202 -78 202 -189z
M240 398v257c-90 -6 -138 -55 -138 -130c0 -63 27 -96 138 -127zM430 194c0 90 -67 116 -147 138v-277c75 6 147 42 147 139z" />
    <glyph glyph-name="percent.alt" horiz-adv-x="900" 
d="M361 531c0 -133 -34 -210 -164 -210c-129 0 -164 78 -164 210c0 133 35 211 164 211c130 0 164 -78 164 -211zM313 531c0 107 -24 166 -116 166c-90 0 -116 -59 -116 -166s26 -165 116 -165c92 0 116 58 116 165zM841 201c0 -133 -34 -210 -164 -210
c-129 0 -164 78 -164 210c0 133 35 211 164 211c130 0 164 -78 164 -211zM793 201c0 107 -24 166 -116 166c-90 0 -116 -59 -116 -166s26 -165 116 -165c92 0 116 58 116 165zM683 727l-450 -727h-51l450 727h51z" />
    <glyph glyph-name="perthousand.alt" horiz-adv-x="1255" 
d="M361 531c0 -133 -34 -210 -164 -210c-129 0 -164 78 -164 210c0 133 35 211 164 211c130 0 164 -78 164 -211zM313 531c0 107 -24 166 -116 166c-90 0 -116 -59 -116 -166s26 -165 116 -165c92 0 116 58 116 165zM841 201c0 -133 -34 -210 -164 -210
c-129 0 -164 78 -164 210c0 133 35 211 164 211c130 0 164 -78 164 -211zM793 201c0 107 -24 166 -116 166c-90 0 -116 -59 -116 -166s26 -165 116 -165c92 0 116 58 116 165zM1224 201c0 -133 -34 -210 -164 -210c-129 0 -164 78 -164 210c0 133 35 211 164 211
c130 0 164 -78 164 -211zM1176 201c0 107 -24 166 -116 166c-90 0 -116 -59 -116 -166s26 -165 116 -165c92 0 116 58 116 165zM683 727l-450 -727h-51l450 727h51z" />
    <glyph glyph-name="onequarter.alt" horiz-adv-x="900" 
d="M717 727l-450 -727h-51l450 727h51zM346 329h-226v39h97v281c-28 -17 -66 -31 -107 -38v37c55 18 98 49 129 94h25v-374h82v-39zM800 103h-63v-113h-45v113h-213v31l229 280h29v-269h63v-42zM692 145v180l-149 -180h149z" />
    <glyph glyph-name="onehalf.alt" horiz-adv-x="900" 
d="M674 727l-450 -727h-51l450 727h51zM842 0h-323v44c51 38 109 82 158 122c56 46 99 71 99 131c0 45 -37 71 -102 71c-56 0 -90 -20 -120 -56l-38 28c28 36 74 73 159 73c84 0 152 -37 152 -112c0 -61 -38 -107 -106 -158l-129 -98h250v-45zM303 329h-226v39h97v281
c-28 -17 -66 -31 -107 -38v37c55 18 98 49 129 94h25v-374h82v-39z" />
    <glyph glyph-name="threequarters.alt" horiz-adv-x="900" 
d="M717 727l-450 -727h-51l450 727h51zM800 103h-63v-113h-45v113h-213v31l229 280h29v-269h63v-42zM692 145v180l-149 -180h149zM372 456c0 -93 -66 -135 -165 -135c-57 0 -114 24 -144 68l41 28c26 -38 61 -50 102 -50c72 0 116 24 116 88c0 60 -53 79 -115 79
c-17 0 -36 -2 -60 -7v21l150 146h-210v43h271v-42l-123 -120c84 -3 137 -50 137 -119z" />
    <glyph glyph-name="onethird.alt" horiz-adv-x="900" 
d="M674 727l-450 -727h-51l450 727h51zM303 329h-226v39h97v281c-28 -17 -66 -31 -107 -38v37c55 18 98 49 129 94h25v-374h82v-39zM838 126c0 -93 -66 -135 -165 -135c-57 0 -114 24 -144 68l41 28c26 -38 61 -50 102 -50c72 0 116 24 116 88c0 60 -53 79 -115 79
c-17 0 -36 -2 -60 -7v21l150 146h-210v43h271v-42l-123 -120c84 -3 137 -50 137 -119z" />
    <glyph glyph-name="twothirds.alt" horiz-adv-x="900" 
d="M693 727l-450 -727h-51l450 727h51zM838 126c0 -93 -66 -135 -165 -135c-57 0 -114 24 -144 68l41 28c26 -38 61 -50 102 -50c72 0 116 24 116 88c0 60 -53 79 -115 79c-17 0 -36 -2 -60 -7v21l150 146h-210v43h271v-42l-123 -120c84 -3 137 -50 137 -119zM348 329h-323
v44c51 38 109 82 158 122c56 46 99 71 99 131c0 45 -37 71 -102 71c-56 0 -90 -20 -120 -56l-38 28c28 36 74 73 159 73c84 0 152 -37 152 -112c0 -61 -38 -107 -106 -158l-129 -98h250v-45z" />
    <glyph glyph-name="oneeighth.alt" horiz-adv-x="900" 
d="M674 727l-450 -727h-51l450 727h51zM303 329h-226v39h97v281c-28 -17 -66 -31 -107 -38v37c55 18 98 49 129 94h25v-374h82v-39zM852 115c0 -82 -67 -124 -175 -124c-117 0 -177 45 -177 124c0 56 39 96 107 119c-43 16 -93 43 -93 104c0 72 54 111 163 111
c106 0 162 -39 162 -104c0 -64 -47 -93 -95 -111c59 -22 108 -52 108 -119zM792 336c0 50 -44 70 -115 70c-76 0 -116 -25 -116 -68c0 -30 14 -48 115 -84c68 20 116 39 116 82zM804 114c0 56 -67 78 -127 99c-59 -18 -128 -42 -128 -100c0 -50 44 -78 128 -78
c86 0 127 31 127 79z" />
    <glyph glyph-name="threeeighths.alt" horiz-adv-x="900" 
d="M674 727l-450 -727h-51l450 727h51zM852 115c0 -82 -67 -124 -175 -124c-117 0 -177 45 -177 124c0 56 39 96 107 119c-43 16 -93 43 -93 104c0 72 54 111 163 111c106 0 162 -39 162 -104c0 -64 -47 -93 -95 -111c59 -22 108 -52 108 -119zM792 336c0 50 -44 70 -115 70
c-76 0 -116 -25 -116 -68c0 -30 14 -48 115 -84c68 20 116 39 116 82zM804 114c0 56 -67 78 -127 99c-59 -18 -128 -42 -128 -100c0 -50 44 -78 128 -78c86 0 127 31 127 79zM339 456c0 -93 -66 -135 -165 -135c-57 0 -114 24 -144 68l41 28c26 -38 61 -50 102 -50
c72 0 116 24 116 88c0 60 -53 79 -115 79c-17 0 -36 -2 -60 -7v21l150 146h-210v43h271v-42l-123 -120c84 -3 137 -50 137 -119z" />
    <glyph glyph-name="fiveeighths.alt" horiz-adv-x="900" 
d="M674 727l-450 -727h-51l450 727h51zM852 115c0 -82 -67 -124 -175 -124c-117 0 -177 45 -177 124c0 56 39 96 107 119c-43 16 -93 43 -93 104c0 72 54 111 163 111c106 0 162 -39 162 -104c0 -64 -47 -93 -95 -111c59 -22 108 -52 108 -119zM792 336c0 50 -44 70 -115 70
c-76 0 -116 -25 -116 -68c0 -30 14 -48 115 -84c68 20 116 39 116 82zM804 114c0 56 -67 78 -127 99c-59 -18 -128 -42 -128 -100c0 -50 44 -78 128 -78c86 0 127 31 127 79zM349 458c0 -84 -61 -137 -174 -137c-74 0 -128 35 -150 64l46 23c19 -25 55 -42 104 -42
c85 0 126 33 126 94c0 60 -54 78 -120 78c-34 0 -72 -11 -102 -28h-20l34 224h234v-45h-197c-7 -42 -13 -82 -19 -124c27 11 59 15 85 15c89 0 153 -35 153 -122z" />
    <glyph glyph-name="seveneighths.alt" horiz-adv-x="900" 
d="M655 727l-450 -727h-51l450 727h51zM852 115c0 -82 -67 -124 -175 -124c-117 0 -177 45 -177 124c0 56 39 96 107 119c-43 16 -93 43 -93 104c0 72 54 111 163 111c106 0 162 -39 162 -104c0 -64 -47 -93 -95 -111c59 -22 108 -52 108 -119zM792 336c0 50 -44 70 -115 70
c-76 0 -116 -25 -116 -68c0 -30 14 -48 115 -84c68 20 116 39 116 82zM804 114c0 56 -67 78 -127 99c-59 -18 -128 -42 -128 -100c0 -50 44 -78 128 -78c86 0 127 31 127 79zM390 691l-187 -370h-54l187 368h-201v-57h-44v102h299v-43z" />
    <glyph glyph-name="plus.alt" 
d="M584 345h-236v-236h-41v236h-236v41h236v236h41v-236h236v-41z" />
    <glyph glyph-name="minus.alt" 
d="M584 345h-513v41h513v-41z" />
    <glyph glyph-name="multiply.alt" 
d="M555 167l-28 -30l-199 199l-198 -199l-30 30l199 198l-198 199l29 29l198 -199l199 199l28 -28l-198 -200z" />
    <glyph glyph-name="less.alt" 
d="M584 126l-513 225v29l513 225v-47l-446 -193l446 -192v-47z" />
    <glyph glyph-name="greater.alt" 
d="M584 351l-513 -225v47l446 192l-446 193v47l513 -225v-29z" />
    <glyph glyph-name="logicalnot.alt" 
d="M584 234h-41v222h-472v41h513v-263z" />
    <glyph glyph-name="equal.alt" 
d="M584 456h-513v41h513v-41zM584 234h-513v41h513v-41z" />
    <glyph glyph-name="divide.alt" 
d="M367 581c0 -30 -11 -40 -40 -40c-36 0 -40 19 -40 40c0 26 7 41 40 41c37 0 40 -19 40 -41zM584 345h-513v41h513v-41zM367 149c0 -30 -11 -40 -40 -40c-36 0 -40 19 -40 40c0 26 7 41 40 41c37 0 40 -19 40 -41z" />
    <glyph glyph-name="plusminus.alt" 
d="M584 354h-236v-188h-41v188h-236v41h236v215h41v-215h236v-41zM584 80h-513v41h513v-41z" />
    <glyph glyph-name="periodcentered.alt" horiz-adv-x="228" 
d="M160 364c0 -32 -11 -42 -46 -42c-37 0 -46 14 -46 42c0 31 10 43 46 43c37 0 46 -12 46 -43z" />
    </font>
</defs>
</svg>
